<svg xmlns="http://www.w3.org/2000/svg" viewBox="0 0 459.93 560.31"><defs><style>.cls-1{fill:#fff;}.cls-1,.cls-3,.cls-4{stroke:#0072c8;stroke-linecap:round;stroke-linejoin:round;stroke-width:0.75px;}.cls-1,.cls-2,.cls-3,.cls-4{fill-rule:evenodd;}.cls-2{fill:none;}.cls-3{fill:#d9e8ff;}.cls-4{fill:#9aceef;}</style></defs><g id="Layer_2" data-name="Layer 2"><g id="Layer_1-2" data-name="Layer 1"><path class="cls-1" d="M325.15,124.09A132.06,132.06,0,0,0,181.29,95.41,132.24,132.24,0,0,0,109.76,268a132.15,132.15,0,0,0,244.08,0,131.82,131.82,0,0,0-28.69-143.87Z"/><path class="cls-2" d="M231.8,87.59A129.84,129.84,0,0,0,182.18,337.4a131.06,131.06,0,0,0,99.32,0,129.64,129.64,0,0,0,42.08-211.73h0A128,128,0,0,0,281.5,97.42a130.2,130.2,0,0,0-49.7-9.83Zm0,264.09a132.53,132.53,0,0,1-51.33-10.18,134.24,134.24,0,0,1-72.72-72.72A134.42,134.42,0,0,1,180.47,93.32a135.7,135.7,0,0,1,102.72,0,134.35,134.35,0,0,1,0,248.18A132.82,132.82,0,0,1,231.8,351.68Z"/><path class="cls-3" d="M317.05,132.19a120.57,120.57,0,0,0-196.6,39.14,120.49,120.49,0,1,0,222.76,0A121,121,0,0,0,317.05,132.19Z"/><path class="cls-2" d="M231.8,99.18a117.63,117.63,0,0,0-83.61,34.59,118.23,118.23,0,0,0-25.65,128.9,115.75,115.75,0,0,0,25.65,38.38,117.31,117.31,0,0,0,38.38,25.71,119.57,119.57,0,0,0,90.53,0,118.16,118.16,0,0,0,73-109.31,116.3,116.3,0,0,0-8.94-45.23,117.87,117.87,0,0,0-109.33-73Zm0,241A122.82,122.82,0,0,1,184.87,104a122.47,122.47,0,0,1,133.74,26.69h0a123,123,0,0,1,26.67,133.72A122.67,122.67,0,0,1,231.8,340.17Z"/><path class="cls-4" d="M323.47,139.05c4.39,5.1,15.47,21.53,20.25,33.4a119.89,119.89,0,0,1,8.69,46.25,121.51,121.51,0,0,1-9.64,46.11,121.57,121.57,0,0,1-66,64.56c-5.92,2.36,10.94-17.62.51-28.64s-54.67,1.76-53.42-20.82,11.08-22.45,16.29-34.28,11.4-2.26,33.55-9.83,51.57-6.4,61.13-16.47-36.68,1.95-45.22-.2-10.26-12.32-16.37-12-2.63,11.38-9.5,13.44-25.16,5.35-26.28-2.44c-4.28-29.94,18.79-20.44,20.2-22.08,6.08-7.05-7.25-12.64,1-22.65s16.42-11.7,20.76-18.68-10.2-12.27-3.52-17.75S318.88,133.71,323.47,139.05Z"/><path class="cls-2" d="M251,241.34c-5,0-6.73.38-8.85,5.16a35.19,35.19,0,0,1-6.92,10c-4.34,4.89-8.44,9.55-9.2,23.53-.56,10.49,10.51,11.87,27.45,12.9,10.56.62,20.56,1.19,25.4,6.28,7.61,8,2.77,19.82.13,26.18a3.6,3.6,0,0,0-.32.68A117.92,117.92,0,0,0,350.12,218.7a115.91,115.91,0,0,0-8.49-45.41c-4.65-11.65-15.53-27.75-19.87-32.79h0c-3.65-4.21-38.36-6.73-44.41-1.77-1.44,1.14-1.5,1.77,1.38,5.42,2.33,3,5.48,7,2.58,11.76-2.39,3.77-5.78,6.17-9.37,8.74a56.28,56.28,0,0,0-11.58,10.2c-3.59,4.27-2.26,7.23-.63,10.87,1.52,3.36,3.34,7.44-.37,11.78-1,1.19-2.59,1.06-4.92.81-3.51-.37-8.93-.87-12.19,2.52-2.9,3-3.72,8.75-2.52,17a2.26,2.26,0,0,0,1.19,1.68c4,2.52,15.48,1,22.21-1,2.08-.68,2.71-2.72,3.52-5.92s1.83-7.42,6.49-7.66c4.27-.13,6.65,2.83,9.05,5.78,2.14,2.64,4.41,5.41,8,6.28,2.83.7,12.14-.62,20.31-1.74,18.14-2.6,25.68-3.29,27.56.3.83,1.63.26,3.39-1.56,5.34-6.23,6.49-18.94,8.51-33.6,10.89-9.69,1.58-19.63,3.15-28.5,6.16a59.7,59.7,0,0,1-22.15,3.4ZM276,331.73a2.56,2.56,0,0,1-1.88-.74c-1.51-1.57-.7-3.59.82-7.3,2.39-5.78,6.41-15.47.82-21.39-3.67-3.83-13.22-4.4-22.47-4.91-15.21-.87-32.47-1.88-31.63-17.61.87-15.53,5.64-20.94,10.31-26.23a30.76,30.76,0,0,0,6.16-8.8c3.46-7.87,8-7.92,14.15-7.81A58.61,58.61,0,0,0,273,233.73c9.19-3.14,19.32-4.78,29.13-6.35,13.34-2.14,25.92-4.15,31.14-9.55.07-.08.07-.14.13-.19-3.58-.65-14.73,1-22.28,2-9.86,1.38-18.35,2.63-22,1.68-5-1.25-8-4.89-10.39-7.79-2.14-2.64-3.64-4.34-5.35-4.15-1.13.05-1.57.82-2.39,4.28-.81,3.21-1.89,7.66-6.53,9.05-5,1.58-19.44,4.66-25.93.56a6.91,6.91,0,0,1-3.26-4.83c-1.38-9.82-.19-16.56,3.76-20.71,4.72-5,12-4.26,15.87-3.88a14.52,14.52,0,0,0,1.5.11c1.27-1.82.62-3.45-.69-6.41-1.76-3.83-4.09-9.12,1.25-15.55a57.15,57.15,0,0,1,12.4-11c3.53-2.44,6.22-4.39,8.12-7.48,1.2-1.83.19-3.54-2.27-6.6-2.21-2.85-5.79-7.5-.69-11.65,7.23-5.91,45-4.15,50.63,2.34h0c4.48,5.21,15.8,21.93,20.65,34a122.17,122.17,0,0,1,8.8,47.17,122.38,122.38,0,0,1-36.86,86.44,123.14,123.14,0,0,1-40.07,26.24A4.54,4.54,0,0,1,276,331.73Z"/><path class="cls-4" d="M223.76,97.09A120.51,120.51,0,0,0,141,296.76a3.35,3.35,0,0,0,2.52,1.2,3.1,3.1,0,0,0,2.5-1c8.06-9.31,31.28-15.67,32.84-27.88,1.2-9-13.78-12.57-17.75-20.82-4.45-9.31-.86-21.77-6.7-30.32-6.05-8.88-22.48-7.6-28.7-16.42-3.39-4.78-.89-12,.93-17.54.76-2.47,3.72-3.91,6.24-4.53,16.42-4.15,27.5-2.2,49.27-11.59,10.5-4.59,4.7-10.56,9.37-12.44s11.82,12,18.93,5.84,12.63-35.86,15.16-42.7,11.94-.19,14.46,1.25-4.39,14.79-1.19,17.16,16.48-5.95,18.18-7.66c10-9.88,7.55-19,1.88-23.54S236.2,107.3,226.34,98A3.29,3.29,0,0,0,223.76,97.09Z"/><path class="cls-2" d="M223.76,97.09h0Zm15.15,24.62h0ZM224,99.37h-.13a118.23,118.23,0,0,0-81.13,196,1.13,1.13,0,0,0,.87.37c.62,0,.76-.19.82-.26,3.33-3.83,8.87-7,14.65-10.43,8.25-4.85,16.8-9.83,17.62-16.17.5-3.64-2.64-6.23-7.93-10-3.78-2.79-7.68-5.61-9.63-9.63-2.21-4.67-2.58-9.94-3-15-.38-5.6-.74-10.95-3.59-15-2.63-3.85-7.79-5.61-13.27-7.44-5.84-2-11.89-4-15.4-8.93-3.91-5.53-1.38-13.32.44-19l.19-.56c1.25-3.89,5.84-5.47,7.79-6a140.37,140.37,0,0,1,16.42-3c9.18-1.26,18.76-2.58,32.53-8.56,5.16-2.2,5.48-4.47,5.78-6.79.27-1.89.57-4.39,3.58-5.66s6.11,1.13,9,3.46c4.59,3.65,6.92,4.9,9.37,2.75,4.59-4,9.11-21.44,11.75-31.87,1.14-4.42,2.09-8,2.77-9.94a6.55,6.55,0,0,1,4-4.09c4.34-1.52,9.88,1.89,12.83,3.71l.82.5c2.58,1.57,1.63,5.23.38,9.93-.62,2.28-1.76,6.55-1.26,7.55,2,.64,13.27-5.73,15.16-7.61,4.21-4.15,6.35-8.49,6.17-12.51a10.58,10.58,0,0,0-4.1-7.68c-1.69-1.3-5.78-1.44-10-1.51-7.24-.12-16.24-.31-22.72-6.36a1,1,0,0,0-.82-.3ZM143.66,300.16h-.19a5.51,5.51,0,0,1-4.15-1.94,120.82,120.82,0,0,1-20.93-33.73,123.14,123.14,0,0,1,0-94.11A122.7,122.7,0,0,1,223.55,94.89a5.67,5.67,0,0,1,4.29,1.52c5.23,4.84,12.95,5,19.76,5.16,5.34.11,9.87.19,12.76,2.52A14.68,14.68,0,0,1,266.09,115c.24,3.72-.88,9.51-7.42,15.93-.81.88-15.93,11.81-21.14,7.85-2.83-2.2-1.58-7-.25-12.06a28.06,28.06,0,0,0,1.14-5.28l-.38-.19c-1.84-1.15-6.68-4.16-9-3.34-.38.06-.87.38-1.25,1.44-.7,1.76-1.58,5.35-2.64,9.49-4,15.42-7.94,29.65-13.21,34.18-5.67,4.83-11.26.3-15-2.71-1.27-1-3.77-3.07-4.53-2.77-.57.19-.63.32-.87,2.06-.39,2.85-1,7.12-8.44,10.34-14.34,6.22-24.16,7.55-33.72,8.87a132.6,132.6,0,0,0-15.9,2.89c-2.41.56-4.24,1.76-4.62,3l-.18.57c-1.64,5-3.7,11.32-1.06,15s7.79,5.48,13.21,7.3c5.92,2,12.08,4,15.53,9.12s3.91,11.26,4.34,17.23c.32,4.84.63,9.45,2.53,13.41,1.44,2.94,4.89,5.46,8.23,7.85,5,3.58,10.57,7.68,9.76,14.22-1.14,8.5-10.64,14.09-19.82,19.44-5.48,3.21-10.69,6.22-13.59,9.56A5.33,5.33,0,0,1,143.66,300.16Z"/><path class="cls-1" d="M56.17,49.36l-21.4-9.82,24-13.82,4.67,2.69c2.31,1.32,3.26,3.09,2.63,4.91L60,51.12Z"/><path class="cls-2" d="M57.12,47.35l1.57.68,5.21-15.4c.13-.32.38-1.13-1.57-2.27l-3.59-2.07-19.11,11,17.49,8.06Zm2.87,6a2.23,2.23,0,0,1-.92-.19l-3.85-1.76h0L33.9,41.57a2.39,2.39,0,0,1-1.32-2,2.07,2.07,0,0,1,1.13-2L57.62,23.76a2.27,2.27,0,0,1,2.2,0l4.71,2.71c3.28,1.88,4.6,4.71,3.6,7.61l-6,17.73A2.21,2.21,0,0,1,60,53.32Z"/><path class="cls-1" d="M171.47,83.4,153,72.7c-4.59-1.51-10.32,8.56-6.73,11.7l18.48,10.7c-2.06-1.82-.81-5.62.32-7.61A10.3,10.3,0,0,1,168.21,84,3.8,3.8,0,0,1,171.47,83.4Z"/><path class="cls-2" d="M151.79,74.65c-.43,0-2.08,1.13-3.33,3.27s-1.39,4.23-.76,4.77l13.84,8a16.22,16.22,0,0,1,1.57-4.29,12.82,12.82,0,0,1,3-3.58l-14.22-8.18Zm13,22.65A1.93,1.93,0,0,1,163.6,97l-18.49-10.7c-2.82-2.39-2.87-6.41-.48-10.56s6-6.16,9-5.16l18.94,10.88a2.34,2.34,0,0,1,.95,2.91,2.36,2.36,0,0,1-2.77,1.17c-.19-.06-.43-.17-1.46.46a8.37,8.37,0,0,0-2.39,2.63c-1.06,2-1.38,4.23-.75,4.78a2.23,2.23,0,0,1-1.45,3.91Z"/><path class="cls-4" d="M168.08,94.84A10.94,10.94,0,0,0,173,86.28c0-3.13-2.2-4.4-4.91-2.83a10.88,10.88,0,0,0-5,8.56C163.11,95.15,165.31,96.43,168.08,94.84Z"/><path class="cls-2" d="M170.28,85a2.76,2.76,0,0,0-1.13.38A8.81,8.81,0,0,0,165.31,92c0,.83.25,1.19.38,1.27a1.89,1.89,0,0,0,1.25-.32,8.86,8.86,0,0,0,3.85-6.68c0-.82-.26-1.19-.38-1.25a.18.18,0,0,0-.13-.06Zm-4.47,12.77a4.76,4.76,0,0,1-2.37-.63,5.57,5.57,0,0,1-2.61-5.1,13.22,13.22,0,0,1,6.11-10.51,6,6,0,0,1,5.73-.38,5.7,5.7,0,0,1,2.58,5.16,13.29,13.29,0,0,1-6.1,10.52h0A6.89,6.89,0,0,1,165.81,97.74Z"/><path class="cls-1" d="M151.22,99.94c11.08-17.74,22.21-35.41,33.34-53.16A3.89,3.89,0,0,0,185,43.2a6.44,6.44,0,0,0-3.09-3.15l-11.77-6.79L116.31,79.8Z"/><path class="cls-2" d="M120.14,79.43l30.33,17.49,32.21-51.34a1.86,1.86,0,0,0,.25-1.63,4.84,4.84,0,0,0-2.15-2l-10.37-6L120.14,79.43Zm31.08,22.7a1.93,1.93,0,0,1-1.13-.3L115.24,81.69A2.12,2.12,0,0,1,114.11,80a2.16,2.16,0,0,1,.74-1.89l53.86-46.55a2.16,2.16,0,0,1,2.57-.25l11.78,6.79a8.69,8.69,0,0,1,4,4.28,6.44,6.44,0,0,1-.62,5.6l-33.34,53.15A2.48,2.48,0,0,1,151.22,102.13Z"/><path class="cls-1" d="M183.06,152.27c-5.35-1.44-11.07-3-16.23-4.84a63.13,63.13,0,0,1-5.73-2.77l-36.62-21.14L85.8,101.2l-4.2-3C71.82,91.08,62.14,84,52.39,77L21.88,49.17c-5.65-1.82-2.7-15.72,7.11-12.32l62.6,28.8,41.2,21.63,15.67,9.07,10.07,6L181,115.65c5.42,3.22,7.86,7.76,9.82,9.9,10.07,11.08,9.31,12.63,9.31,21.51-.65,4.77-8.63,6.34-12.27,6.21A29.9,29.9,0,0,1,183.06,152.27Z"/><path class="cls-2" d="M183.63,150.14l.36.06a28.18,28.18,0,0,0,4.1.87c3.2.08,9.44-1.38,9.82-4.32v-1.46c0-6.92.05-8.55-8.76-18.24-.5-.57-1.06-1.25-1.69-2.09a25.66,25.66,0,0,0-7.68-7.41L131.71,89.24,90.5,67.6,28,38.85a4.74,4.74,0,0,0-4.83.69,6.35,6.35,0,0,0-1.82,5.78A2.11,2.11,0,0,0,22.51,47a2.25,2.25,0,0,1,.89.44L53.91,75.34l33.15,24,75.16,43.35a51.1,51.1,0,0,0,5.42,2.63c4.84,1.77,10.19,3.23,15.42,4.62l.57.18Zm4.7,5.34h-.62a34.61,34.61,0,0,1-4.84-.94l-.38-.13-.62-.11c-5.29-1.46-10.77-2.9-15.86-4.78a56,56,0,0,1-6-2.9L84.66,103.08,51.08,78.8,20.69,51.05A6.42,6.42,0,0,1,17,46.27a11,11,0,0,1,3.28-10.05c2.52-2.2,5.86-2.71,9.44-1.52L92.53,63.64l41.32,21.71,25.87,15.09,22.39,13.28a29.92,29.92,0,0,1,8.93,8.55,14.65,14.65,0,0,0,1.45,1.76c9.49,10.56,9.88,13.09,9.88,21.26l-.06,1.77C201.49,153.59,192.81,155.48,188.33,155.48Z"/><path class="cls-4" d="M183.11,133.27c-7.11,4.09-12.58.32-19.24-3l2.83.19c8.87.7,20.57-6.54,18.43-11.32C189,124.71,191.55,128.43,183.11,133.27Z"/><path class="cls-2" d="M172.92,132.15a10.35,10.35,0,0,0,9.06-.76c2.71-1.58,4.15-3,4.48-4.28a4.2,4.2,0,0,0-.52-2.45c-2.57,3.4-7.79,6.24-13,7.49Zm10.19,1.12h0Zm-6.23,4c-4.27,0-8.17-2-12-4l-2-1a2.27,2.27,0,0,1-1.14-2.66,2,2,0,0,1,2.25-1.56l2.9.18c5.79.51,13.34-3.14,15.67-6.48.32-.44.76-1.19.51-1.69a2.24,2.24,0,0,1,3.89-2.2c2.41,3.4,4.66,6.6,3.85,10.19-.57,2.63-2.65,4.91-6.63,7.18h0A14.1,14.1,0,0,1,176.88,137.31Z"/><path class="cls-1" d="M98.26,126,79.7,115.35C75.17,113.77,69.38,123.9,73,127l18.49,10.7c-1.5-1.27-1.18-3.85-.63-5.54a13.1,13.1,0,0,1,2.08-3.66C94.1,127.05,96.23,125.34,98.26,126Z"/><path class="cls-2" d="M78.56,117.25c-.49,0-2.14,1.19-3.39,3.32s-1.39,4.22-.76,4.77l13.84,7.93a14.8,14.8,0,0,1,3-6.22,12.35,12.35,0,0,1,1.57-1.58l-14.22-8.22ZM91.46,140a2.22,2.22,0,0,1-1.07-.31L71.82,128.93c-2.82-2.38-2.88-6.47-.48-10.56s5.91-6.22,9-5.16l18.94,10.88a2.25,2.25,0,0,1,1,2.84,2.23,2.23,0,0,1-2.76,1.2c-.58-.19-1.9.55-2.91,1.82A10.27,10.27,0,0,0,93,132.84c-.44,1.38-.5,2.76,0,3.2a2.24,2.24,0,0,1,.31,3A2.2,2.2,0,0,1,91.46,140Z"/><path class="cls-1" d="M124.62,115.29l-92.1,19.25A16.83,16.83,0,0,1,20.87,133L9.12,126.23,89.69,95.15Z"/><path class="cls-2" d="M14.28,126.61,22,131.07a14.5,14.5,0,0,0,10.07,1.27l86.36-18L89.52,97.62l-75.24,29Zm14.33,10.57a18,18,0,0,1-8.87-2.2L8,128.13A2,2,0,0,1,6.92,126a2,2,0,0,1,1.37-1.87L89,93.07a2.32,2.32,0,0,1,1.88.13l34.85,20.14a2.23,2.23,0,0,1-.63,4.15L33,136.68A21.59,21.59,0,0,1,28.61,137.18Z"/><path class="cls-1" d="M44.46,58.37l-29,4.32a14,14,0,0,1-8.55-1.5L2.26,58.48,26.17,44.64Z"/><path class="cls-2" d="M6.67,58.48,8,59.24a12.07,12.07,0,0,0,7.19,1.25L38.87,57,26,47.35,6.67,58.48ZM13.46,65a15.54,15.54,0,0,1-7.68-1.87L1.12,60.36A2.17,2.17,0,0,1,0,58.48a2.25,2.25,0,0,1,1.12-1.95L25,42.76a2.11,2.11,0,0,1,2.47.12L45.79,56.6a2.19,2.19,0,0,1-1,4l-29,4.34C15,65,14.22,65,13.46,65Z"/><polygon class="cls-1" points="22.64 37.22 16.04 2.24 26.17 8.1 50.08 51.18 22.64 37.22"/><path class="cls-2" d="M24.59,35.78l20,10.13L24.54,9.73,19.12,6.58l5.47,29.2Zm25.49,17.6a2.79,2.79,0,0,1-1-.19L21.63,39.24a2.19,2.19,0,0,1-1.19-1.58l-6.6-35a2.12,2.12,0,0,1,.87-2.2A2.23,2.23,0,0,1,17.1.29L27.29,6.15a2.12,2.12,0,0,1,.83.87L52,50.12a2.14,2.14,0,0,1-1.93,3.26Z"/><path class="cls-4" d="M95.5,138a11,11,0,0,0,4.89-8.55c0-3.15-2.2-4.4-4.89-2.83a10.86,10.86,0,0,0-5,8.56C90.5,138.31,92.72,139.56,95.5,138Z"/><path class="cls-2" d="M97.69,128.13a3.06,3.06,0,0,0-1.08.36,8.75,8.75,0,0,0-3.83,6.68c0,.81.19,1.19.32,1.25s.55.07,1.26-.3h0a8.7,8.7,0,0,0,3.83-6.68,1.92,1.92,0,0,0-.31-1.25c-.06,0-.13-.06-.19-.06ZM93.28,140.9a4.86,4.86,0,0,1-2.45-.63,5.62,5.62,0,0,1-2.52-5.1,13.26,13.26,0,0,1,6-10.51,5.74,5.74,0,0,1,5.72-.33,5.57,5.57,0,0,1,2.58,5.11,13.23,13.23,0,0,1-6,10.51h0A6.68,6.68,0,0,1,93.28,140.9Z"/><path class="cls-4" d="M148,123.28a2.24,2.24,0,0,1-2.19-2.26V118.8a2.19,2.19,0,0,1,2.19-2.2,2.21,2.21,0,0,1,2.27,2.2V121A2.26,2.26,0,0,1,148,123.28Z"/><path class="cls-4" d="M138.82,118a2.28,2.28,0,0,1-2.2-2.28v-2.2a2.24,2.24,0,1,1,4.47,0v2.2A2.27,2.27,0,0,1,138.82,118Z"/><path class="cls-4" d="M129.72,112.64a2.2,2.2,0,0,1-2.27-2.2v-2.2a2.24,2.24,0,1,1,4.47,0v2.2A2.21,2.21,0,0,1,129.72,112.64Z"/><path class="cls-4" d="M120.52,107.37a2.19,2.19,0,0,1-2.2-2.2V103a2.23,2.23,0,1,1,4.46,0v2.2A2.21,2.21,0,0,1,120.52,107.37Z"/><path class="cls-4" d="M111.4,102.08a2.22,2.22,0,0,1-2.27-2.21v-2.2a2.26,2.26,0,0,1,2.27-2.25,2.24,2.24,0,0,1,2.2,2.25v2.2A2.19,2.19,0,0,1,111.4,102.08Z"/><path class="cls-4" d="M102.23,96.8A2.24,2.24,0,0,1,100,94.59V92.38a2.23,2.23,0,1,1,4.46,0v2.21A2.25,2.25,0,0,1,102.23,96.8Z"/><path class="cls-4" d="M93,91.51a2.22,2.22,0,0,1-2.2-2.2V87.12a2.24,2.24,0,1,1,4.47,0v2.19A2.24,2.24,0,0,1,93,91.51Z"/><path class="cls-4" d="M83.91,86.22A2.23,2.23,0,0,1,81.65,84v-2.2a2.23,2.23,0,1,1,4.46,0V84A2.23,2.23,0,0,1,83.91,86.22Z"/><path class="cls-4" d="M151.82,530.2l-10.32-6c-4.8-4.06-5.05-6.58-5.8-12.73l.24-198.7c1-14.72,7.57-25.68,19.67-34.1l274-158c5.53-2.6,7.81-3.61,13.86-1.34l10.33,6c-6.05-2.24-8.32-1.26-13.86,1.33l-274,158c-11.84,8.24-18.4,19-19.66,34.1L146,517.47C146.79,523.65,147,526.17,151.82,530.2Z"/><path class="cls-2" d="M437.88,121c-2,0-3.78.83-7.05,2.38L157.12,281.27c-11.34,7.78-17.14,17.92-18.4,31.78V511.5c.5,5.54.76,7.11,4.79,10.43l.25.13a21.91,21.91,0,0,1-.5-4.31v-199c1.26-15.78,8.06-27.65,20.92-36.54L438.39,124.1c1.51-.7,2.77-1.33,4-1.81l-.51-.36a12.49,12.49,0,0,0-4-.91ZM151.82,533.15a1.82,1.82,0,0,1-1.26-.4l-10.58-6c-6-4.94-6.55-8.34-7-15V312.8c1.26-15.78,8.06-27.65,20.91-36.54L428.05,118.13c6.3-2.92,9.33-4.16,16.39-1.53l10.83,6.17a2.89,2.89,0,0,1,1,3.83,2.73,2.73,0,0,1-3.54,1.5c-5-1.83-6.3-1.18-11.84,1.27L167.45,287.24C156.11,295,150.32,305.19,149.31,319l-.25,198.47c.5,5.57.76,7.13,4.78,10.44a3,3,0,0,1,.51,4A3,3,0,0,1,151.82,533.15Z"/><path class="cls-1" d="M167.45,299.69,438.39,143.33c4.78-2.82,8.81-.53,8.81,5.12V332.56c0,5.61-4,12.48-8.81,15.29L167.2,504.19c-4.79,2.82-8.82.53-8.82-5.11V315C158.38,309.37,162.41,302.49,167.45,299.69Z"/><path class="cls-2" d="M168.72,302.26c-3.78,2.29-7.32,8.14-7.32,12.73V499.08c0,1.58.26,2.77,1,3.17s2,.18,3.28-.61L436.87,345.29c4-2.32,7.31-8.15,7.31-12.73V148.45c0-1.59-.25-2.77-1-3.18a3.51,3.51,0,0,0-3.27.63L168.72,302.26Zm-5.55,206.09a8.08,8.08,0,0,1-3.78-1c-2.52-1.48-3.78-4.5-3.78-8.28V315c0-6.68,4.53-14.52,10.33-17.87h0L436.87,140.76c3.28-1.86,6.56-2.08,9.33-.6,2.53,1.49,4,4.51,4,8.29V332.56c0,6.65-4.79,14.51-10.59,17.87L168.72,506.76A11.08,11.08,0,0,1,163.17,508.35Z"/><path class="cls-3" d="M167.45,299.69c-5,2.83-9.07,9.68-9.07,15.3V499.08c0,5.64,4,7.93,8.82,5.11L438.39,347.85c4.78-2.81,8.81-9.68,8.81-15.29V148.45c0-5.65-4-7.94-8.81-5.12L167.45,299.69Zm-1.51-15,274-158c10.83-6.25,19.66-1.11,19.66,11.4l-.25,198.7c0,12.49-8.83,27.84-19.67,34.09l-273.7,158C155.1,535.08,146,530,146,517.47l.25-198.7c0-12.52,8.82-27.85,19.66-34.1Z"/><path class="cls-2" d="M168.72,302.26c-3.78,2.29-7.32,8.14-7.32,12.73V499.08c0,1.58.26,2.77,1,3.17s2,.18,3.28-.61L436.87,345.29c4-2.32,7.31-8.15,7.31-12.73V148.45c0-1.59-.25-2.77-1-3.18s-2-.15-3.27.63L168.72,302.26Zm-5.55,206.09a8.08,8.08,0,0,1-3.78-1c-2.52-1.48-3.78-4.5-3.78-8.28V315c0-6.65,4.53-14.52,10.33-17.87h0L436.87,140.76c3.28-1.86,6.56-2.12,9.33-.6,2.53,1.49,4,4.51,4,8.29V332.56c0,6.65-4.79,14.51-10.59,17.87L168.72,506.76a11.08,11.08,0,0,1-5.55,1.59Zm4.28-221.11,273.71-158c4.28-2.47,8.31-3,11.09-1.34s4.28,5.22,4.28,10.16v198.7c0,11.39-8.31,25.83-18.4,31.53l-273.7,158c-4.29,2.51-8.32,3-11.09,1.37s-4.28-5.19-4.28-10.16l.25-198.7c0-11.39,8.07-25.83,18.14-31.53ZM157.12,534.49a12.33,12.33,0,0,1-6.56-1.74c-4.78-2.7-7.3-8.12-7.3-15.28V318.77c0-13.48,9.58-29.94,21.17-36.67l274-158c6.05-3.58,12.09-4,16.63-1.33,4.79,2.7,7.3,8.14,7.3,15.3v198.7c0,13.48-9.32,29.92-21.16,36.67l-274,158A20.77,20.77,0,0,1,157.12,534.49Z"/><path class="cls-1" d="M305.06,435a1.19,1.19,0,0,0-1.25.15,6.21,6.21,0,0,0-1.52,1.36,5,5,0,0,0-.5,1.84,1.49,1.49,0,0,0,.5,1.18,1.62,1.62,0,0,0,1.52-.12c.5-.3.74-.81,1.25-1.39a4.94,4.94,0,0,0,.51-1.81A1.53,1.53,0,0,0,305.06,435Z"/><path class="cls-2" d="M303.55,437.58a2.29,2.29,0,0,0,1,.28c0-.31-.24-.63-.74-.87a1.5,1.5,0,0,0-1.26-.22c.25,0,.5.5,1,.81Zm-.75,5.06a4.27,4.27,0,0,1-2-.53,4.22,4.22,0,0,1-2-3.75,8.36,8.36,0,0,1,1-3.35,8,8,0,0,1,2.52-2.45,4.09,4.09,0,0,1,6.3,3.66,8,8,0,0,1-1,3.3,7.06,7.06,0,0,1-2.27,2.44A6,6,0,0,1,302.8,442.64Z"/><polygon class="cls-1" points="203.5 319.58 404.11 203.75 404.11 342.03 203.5 457.84 203.5 319.58"/><path class="cls-2" d="M206.52,321.3V452.73L401.08,340.32V208.89L206.52,321.3Zm-3,139.52a3.08,3.08,0,0,1-1.52-.41,2.81,2.81,0,0,1-1.51-2.57V319.58A2.81,2.81,0,0,1,202,317L402.61,201.17a3,3,0,0,1,3,0,3.45,3.45,0,0,1,1.51,2.58V342a3.31,3.31,0,0,1-1.51,2.55L205,460.41A3,3,0,0,1,203.5,460.82Z"/><polygon class="cls-3" points="203.5 319.58 404.11 203.75 404.11 183.81 203.5 299.64 203.5 319.58"/><path class="cls-2" d="M206.52,301.36v13.07L401.08,202v-13.1L206.52,301.36Zm-3,21.16a3.06,3.06,0,0,1-1.52-.4,2.77,2.77,0,0,1-1.51-2.54V299.64a2.81,2.81,0,0,1,1.51-2.57L402.61,181.24a3,3,0,0,1,3,0,3.36,3.36,0,0,1,1.51,2.57v19.94a3.34,3.34,0,0,1-1.51,2.56L205,322.12A3,3,0,0,1,203.5,322.52Z"/><path class="cls-1" d="M273.31,351.36a2.83,2.83,0,0,1-2.52-1.49,2.92,2.92,0,0,1,1-4.06l78.37-45.26a2.9,2.9,0,0,1,4,1.06,2.74,2.74,0,0,1-1,4.06L274.82,351A3,3,0,0,1,273.31,351.36Z"/><path class="cls-1" d="M273.31,320.84a2.83,2.83,0,0,1-2.52-1.49,2.9,2.9,0,0,1,1-4L350.17,270a2.89,2.89,0,0,1,4,1.09,2.7,2.7,0,0,1-1,4l-78.38,45.29A3.1,3.1,0,0,1,273.31,320.84Z"/><path class="cls-1" d="M273.31,383.77a2.87,2.87,0,0,1-2.52-1.46,2.9,2.9,0,0,1,1-4.05l63.5-36.63a2.91,2.91,0,1,1,2.77,5.12l-63.25,36.62A3.08,3.08,0,0,1,273.31,383.77Z"/><path class="cls-3" d="M437.23,360.59l-31.16-18c-2.75-1.26-4.78-.58-7.35.72L262.38,422c-5.78,3.43-10.28,11.23-10.37,18v66.85c0,4.11-.28,26.87.23,29.26a6.34,6.34,0,0,0,2.84,4.42c14.1,8.13,23.39,13.57,31,18a1.18,1.18,0,0,1-.49-1V459.46c.1-6.76,4.6-14.56,10.37-18l136.34-78.72c2.57-1.31,4.65-2,7.36-.72Z"/><path class="cls-2" d="M403.23,343.49a8.33,8.33,0,0,0-3.78,1.26L263.19,423.44c-5.27,3.1-9.51,10.41-9.55,16.6l-.06,71c0,6.9-.13,23.08.23,24.84a4.9,4.9,0,0,0,2.12,3.38c8.61,5,15.42,8.93,21.19,12.26,2.49,1.44,4.79,2.8,6.95,4.06V459.46c.08-7.34,4.86-15.64,11.13-19.38l136.39-78.72a16.34,16.34,0,0,1,2.08-.95L405.25,344a5,5,0,0,0-2-.5Zm-117,216.7a2,2,0,0,1-.9-.23c-3-1.71-6.18-3.6-9.83-5.72-5.73-3.34-12.58-7.31-21.24-12.27a8,8,0,0,1-3.6-5.49c-.37-1.77-.37-11.05-.27-25.53l0-12.53V440c.09-7.35,4.86-15.66,11.14-19.35L397.92,342c2.56-1.36,5.27-2.48,8.83-.82l33.77,19.48a1.67,1.67,0,0,1,.59,2.16,1.59,1.59,0,0,1-2.08.68c-2-1-3.56-.53-5.9.68l-136.3,78.67c-5.29,3.16-9.52,10.47-9.57,16.64v98.07a1.52,1.52,0,0,1-1,2.66Z"/><path class="cls-3" d="M442.86,466.91V368.84c0-6.64-4.65-9.28-10.37-6L296.15,441.56c-5.68,3.29-10.37,11.36-10.37,17.94v98.13c0,1,.72,1.38,1.62.89,61-35.17,92.93-53.65,153.88-88.87A3.37,3.37,0,0,0,442.86,466.91Z"/><path class="cls-2" d="M437.08,363a8,8,0,0,0-3.77,1.18L297,442.92c-5.19,3-9.56,10.59-9.56,16.58v97.17l153.07-88.38a1.9,1.9,0,0,0,.81-1.38V368.84c0-2.61-.81-4.51-2.25-5.32a3.48,3.48,0,0,0-1.95-.5ZM286.68,560.31a2.15,2.15,0,0,1-1.21-.31,2.56,2.56,0,0,1-1.27-2.37V459.5c0-7.11,5-15.78,11.19-19.34l136.34-78.72c3.25-1.88,6.44-2.16,8.93-.72s3.83,4.33,3.83,8.12v98.07a5.17,5.17,0,0,1-2.39,4.14L288.17,559.92A3.07,3.07,0,0,1,286.68,560.31Z"/><path class="cls-4" d="M288.71,449.23l-33.63-19.44A21.08,21.08,0,0,0,252,440v93.82c.13,2.89.58,5,3.07,6.71,14.1,8.13,23.39,13.57,31,18a1.18,1.18,0,0,1-.49-1V459.46A21.21,21.21,0,0,1,288.71,449.23Z"/><path class="cls-2" d="M255.7,432a18.2,18.2,0,0,0-2.06,8.07v93.78c.08,2.62.49,4.1,2.34,5.4,8.56,4.92,15.37,8.89,21.14,12.22,2.49,1.44,4.79,2.8,6.95,4.06V459.46a21.63,21.63,0,0,1,2.48-9.65L255.7,432Zm30.53,128.18a2,2,0,0,1-.9-.23c-3-1.71-6.18-3.6-9.83-5.72-5.73-3.34-12.58-7.31-21.24-12.27-3.34-2.3-3.69-5.22-3.83-8V440a22.83,22.83,0,0,1,3.25-11,1.29,1.29,0,0,1,.95-.76,1.59,1.59,0,0,1,1.21.12l33.63,19.43a1.64,1.64,0,0,1,.64,2.17,19.38,19.38,0,0,0-2.85,9.47v98.07a1.52,1.52,0,0,1-1,2.66Z"/><path class="cls-2" d="M278.66,555.76a1.44,1.44,0,0,1-.86-.22,7.9,7.9,0,0,1-3.56-5.46c-.37-1.75-.37-11-.27-25.51L274,512v-58.4c.09-7.34,4.86-15.64,11.13-19.34l136.35-78.71c2.57-1.36,5.28-2.49,8.84-.82a1.6,1.6,0,0,1,.76,2.12,1.56,1.56,0,0,1-2.12.76c-2.07-.94-3.56-.54-6,.72L286.77,437.05c-5.27,3.11-9.51,10.42-9.55,16.59l-.06,71c0,6.89-.12,23.08.23,24.85a4.9,4.9,0,0,0,2.12,3.38A1.63,1.63,0,0,1,280,555,1.56,1.56,0,0,1,278.66,555.76Z"/><path class="cls-1" d="M316.34,413.16l-5.62-3.25c0-3-.28-11.85.17-14.79,1-5.9,5-12.35,10.2-15.47l39.85-22.9a6.79,6.79,0,0,1,6.26-.17l5.64,3.25c-2.61-1.23-4.82-.64-7.35.72L326.71,383c-5.81,3.42-10.27,11.21-10.37,18Z"/><path class="cls-2" d="M312.29,409l2.48,1.44v-9.47c.05-7.35,4.86-15.65,11.14-19.4l38.82-22.35a13.33,13.33,0,0,1,2.08-1l-.41-.22c-1.32-.72-2.94-.64-4.82.22l-39.69,22.86c-4.59,2.74-8.48,8.61-9.42,14.33-.31,2.16-.23,8.21-.18,11.81V409Zm4,5.76a1.82,1.82,0,0,1-.81-.17l-5.63-3.29a1.58,1.58,0,0,1-.81-1.36v-2.67a99.76,99.76,0,0,1,.23-12.34c1.07-6.59,5.58-13.4,10.95-16.59l39.86-23c2.93-1.34,5.49-1.39,7.79-.17l5.73,3.29a1.59,1.59,0,0,1-1.49,2.8c-1.85-.86-3.38-.68-5.9.68L327.53,384.3c-5.33,3.16-9.51,10.47-9.6,16.64v12.22a1.62,1.62,0,0,1-.77,1.4A1.83,1.83,0,0,1,316.34,414.73Z"/><polygon class="cls-1" points="368.65 382.96 363.01 379.71 363.01 368.52 362.97 368.08 362.92 367.67 362.82 367.26 362.7 366.89 362.51 366.62 362.29 366.36 362.06 366.13 361.84 365.96 367.47 369.19 367.7 369.38 367.97 369.61 368.15 369.87 368.33 370.2 368.46 370.51 368.56 370.92 368.6 371.31 368.65 371.77 368.65 382.96"/><path class="cls-2" d="M364.59,378.8l2.43,1.4,0-9.07,1.35-.93-1.58.45-2.16-1.27v9.42Zm4.06,5.78a1.8,1.8,0,0,1-.81-.24l-5.64-3.25a1.62,1.62,0,0,1-.8-1.38l-.06-11.86.27-.18-.48-.27h0c-.06,0-.06,0-.1,0h0a1.78,1.78,0,0,1-.45-2.22,1.5,1.5,0,0,1,2-.58l5.64,3.29s.35.17.35.23a3.9,3.9,0,0,1,.64.58,3.84,3.84,0,0,1,.31.45s.22.41.27.5.18.45.18.53.14.51.14.55l.09,1V383a1.68,1.68,0,0,1-1.58,1.62Z"/><path class="cls-1" d="M323.65,397.79v11.13l-7.31,4.24V400.94c0-6.62,4.65-14.69,10.37-18l38.78-22.41c5.73-3.29,10.42-.6,10.42,6v12.22l-7.26,4.2V371.77c0-2.52-1.8-3.57-4-2.31l-37,21.38A8.84,8.84,0,0,0,323.65,397.79Z"/><path class="cls-2" d="M323.65,408.92h0Zm46.49-48.2A7.7,7.7,0,0,0,366.3,362L327.53,384.3c-5.18,3-9.6,10.6-9.6,16.64v9.47l4.15-2.39V397.79a10.5,10.5,0,0,1,4.77-8.35l37-21.32a4.39,4.39,0,0,1,4.43-.27,4.34,4.34,0,0,1,2,3.92v8.43l4-2.34V366.54c0-2.61-.8-4.51-2.26-5.33a3.79,3.79,0,0,0-1.88-.49Zm-53.8,54a1.82,1.82,0,0,1-.81-.17,1.63,1.63,0,0,1-.76-1.4V400.94c0-7.12,5-15.82,11.18-19.4l38.78-22.35c3.24-1.93,6.44-2.16,8.92-.72s3.84,4.28,3.84,8.07v12.22a1.62,1.62,0,0,1-.82,1.4l-7.25,4.18a1.59,1.59,0,0,1-1.58,0A1.57,1.57,0,0,1,367,383V371.77c0-.68-.17-1.08-.36-1.17s-.63-.05-1.21.26l-37,21.38a7.42,7.42,0,0,0-3.2,5.55v11.13a1.56,1.56,0,0,1-.77,1.4l-7.3,4.24A1.83,1.83,0,0,1,316.34,414.73Z"/><polygon class="cls-4" points="309.63 435.7 319.96 429.75 282.53 408.15 272.2 414.11 309.63 435.7"/><path class="cls-2" d="M275.41,414.11l34.22,19.74,7.12-4.1L282.53,410l-7.12,4.11Zm34.22,23.17a1.52,1.52,0,0,1-.78-.18l-37.41-21.65a1.55,1.55,0,0,1-.81-1.34,1.58,1.58,0,0,1,.81-1.4l10.27-6a1.64,1.64,0,0,1,1.58,0l37.43,21.6a1.61,1.61,0,0,1,0,2.8l-10.28,6A1.49,1.49,0,0,1,309.63,437.28Z"/><polygon class="cls-1" points="277.44 418.43 286.68 423.76 299.75 416.23 290.51 410.9 277.44 418.43"/><path class="cls-2" d="M280.64,418.43l6,3.48,9.88-5.68-6.05-3.52-9.87,5.72Zm6,6.94a2,2,0,0,1-.81-.21l-9.25-5.37a1.59,1.59,0,0,1,0-2.76l13.09-7.52a1.62,1.62,0,0,1,1.57,0l9.25,5.32a1.66,1.66,0,0,1,.8,1.4,1.7,1.7,0,0,1-.8,1.4l-13,7.53A2,2,0,0,1,286.68,425.37Z"/><polygon class="cls-4" points="414.65 375.2 424.96 369.25 387.53 347.65 377.22 353.6 414.65 375.2"/><path class="cls-2" d="M380.42,353.6l34.23,19.75,7.1-4.1L387.53,349.5l-7.11,4.1Zm34.23,23.22a1.6,1.6,0,0,1-.78-.22L376.44,355a1.56,1.56,0,0,1-.8-1.35,1.58,1.58,0,0,1,.8-1.4l10.29-5.95a1.64,1.64,0,0,1,1.58,0l37.42,21.64a1.57,1.57,0,0,1,.81,1.36,1.61,1.61,0,0,1-.81,1.4l-10.28,6A1.59,1.59,0,0,1,414.65,376.82Z"/><polygon class="cls-1" points="382.45 357.92 391.69 363.25 404.71 355.72 395.52 350.4 382.45 357.92"/><path class="cls-2" d="M385.64,357.92l6.05,3.48,9.87-5.68-6-3.48-9.88,5.68Zm6.05,6.95a2,2,0,0,1-.82-.23l-9.24-5.36a1.57,1.57,0,0,1-.81-1.36,1.61,1.61,0,0,1,.81-1.4L394.71,349a1.76,1.76,0,0,1,1.58,0l9.24,5.38a1.56,1.56,0,0,1,0,2.74l-13.08,7.53A1.51,1.51,0,0,1,391.69,364.87Z"/><polygon class="cls-1" points="398.36 392.47 428.21 385.57 422.7 409.91 392.86 416.81 398.36 392.47"/><path class="cls-2" d="M399.71,393.78,395,414.69l26.38-6.13,4.73-20.87-26.38,6.09Zm-6.85,24.61a1.58,1.58,0,0,1-1.13-.45,1.64,1.64,0,0,1-.41-1.49l5.45-24.35a1.72,1.72,0,0,1,1.23-1.22L427.84,384a1.68,1.68,0,0,1,1.5.45,1.5,1.5,0,0,1,.41,1.48l-5.47,24.36a1.56,1.56,0,0,1-1.21,1.16l-29.84,6.91A1.2,1.2,0,0,1,392.86,418.39Z"/><path class="cls-4" d="M392.86,416.81l29.84-6.9,1.23-5.27L421,401.12c-.68-.77-1.89-.59-3.06.46l-7.85,7.12c-1.11,1-2.34,1.21-3,.49l-6.63-7c-.72-.77-2-.5-3.19.67l-1.58,1.59Z"/><path class="cls-2" d="M397.1,405.22,395,414.69l26.38-6.13.8-3.52-2.38-2.88c0,.1-.32.18-.77.58l-7.84,7.13c-1.81,1.63-3.93,1.8-5.24.45l-6.67-7.08c0,.09-.35.17-.9.72l-1.26,1.26Zm-4.24,13.17a1.46,1.46,0,0,1-1.13-.45,1.66,1.66,0,0,1-.45-1.49l2.8-12.4a1.72,1.72,0,0,1,.45-.81l1.58-1.58a4.85,4.85,0,0,1,3.34-1.54,2.84,2.84,0,0,1,2.11.95l6.67,7c0-.09.27-.19.77-.63l7.85-7.09a4.52,4.52,0,0,1,3.28-1.34,3,3,0,0,1,2.08,1l2.93,3.52a1.58,1.58,0,0,1,.32,1.4l-1.18,5.28a1.56,1.56,0,0,1-1.21,1.16l-29.84,6.91A1.33,1.33,0,0,1,392.86,418.39Z"/><path class="cls-1" d="M308.68,491.34c8.21-4.73,14.84-.85,14.84,8.56s-6.63,21-14.84,25.7-14.83.9-14.83-8.56S300.48,496.07,308.68,491.34Z"/><path class="cls-2" d="M315.31,490.94a11.71,11.71,0,0,0-5.82,1.8c-7.76,4.46-14.06,15.37-14.06,24.3,0,4,1.26,6.89,3.56,8.25s5.45,1,8.89-1c7.74-4.49,14.05-15.37,14.05-24.34,0-4-1.25-6.89-3.55-8.2a5.79,5.79,0,0,0-3.07-.76Zm-13.25,38.32a9.07,9.07,0,0,1-4.65-1.22c-3.34-1.89-5.19-5.82-5.19-11,0-9.92,7-22.1,15.66-27.06,4.5-2.6,8.79-3,12.08-1s5.14,5.82,5.14,10.95c0,10-7,22.14-15.61,27.1A15.2,15.2,0,0,1,302.06,529.26Z"/><path class="cls-1" d="M308.68,497.88c5.06-2.94,9.16-.54,9.16,5.31s-4.1,12.94-9.16,15.88-9.2.58-9.2-5.27S303.64,500.8,308.68,497.88Z"/><path class="cls-2" d="M309.49,499.28c-4.55,2.61-8.38,9.28-8.38,14.52,0,2.2.68,3.83,1.89,4.55s2.93.45,4.88-.63c4.54-2.62,8.37-9.29,8.37-14.53,0-2.25-.67-3.87-1.89-4.55s-2.92-.49-4.87.64ZM304.57,522a6.14,6.14,0,0,1-3.19-.86c-2.26-1.26-3.48-3.87-3.48-7.29,0-6.46,4.38-14.07,10-17.28h0c3-1.71,5.86-2,8.11-.67s3.47,3.92,3.47,7.34c0,6.45-4.38,14-10,17.28A9.91,9.91,0,0,1,304.57,522Z"/><path class="cls-4" d="M308.68,508.48l6.32,4c-2.31,3.87-5.6,6.71-8.71,7.57-4.87,1.31-7.8-2.84-6.49-9.24Z"/><path class="cls-2" d="M301.2,512.12c-.32,2.61.13,4.73,1.27,5.82a3.44,3.44,0,0,0,3.42.64c2.34-.64,4.87-2.72,6.89-5.56l-4.36-2.79-7.22,1.89Zm3.37,9.83a6.07,6.07,0,0,1-4.28-1.66c-2.16-2-2.88-5.6-2-9.74a1.51,1.51,0,0,1,1.13-1.23l8.87-2.38a1.48,1.48,0,0,1,1.26.18l6.33,4.05a1.61,1.61,0,0,1,.48,2.18c-2.51,4.22-6.12,7.33-9.64,8.29A9.61,9.61,0,0,1,304.57,522Z"/><polygon class="cls-1" points="405.7 463.61 361.21 494.32 362.38 507.34 406.88 476.64 405.7 463.61"/><path class="cls-2" d="M362.88,495.14l.85,9.36,41.48-28.66-.85-9.4-41.48,28.7Zm-.5,13.83a1.3,1.3,0,0,1-.67-.18,1.51,1.51,0,0,1-.91-1.26l-1.17-13a1.59,1.59,0,0,1,.68-1.49l44.5-30.75a1.57,1.57,0,0,1,1.57-.1,1.5,1.5,0,0,1,.91,1.27l1.17,13a1.58,1.58,0,0,1-.68,1.48L363.29,508.7A1.76,1.76,0,0,1,362.38,509Z"/><path class="cls-1" d="M399.57,477.41h0l-2.84,2-.44-5m-4,5.33-2.38,1.71,2.38-1.71Zm1.26,1.85h0l-3.42,2.33-.45-5L393,476.6m-10.28,7.12,3.6-2.53-3.6,2.53Zm1.81-1.27.45,5-.45-5Zm-8.35,8.49a4.35,4.35,0,0,1,.45-2.36,4.55,4.55,0,0,1,1.5-1.79,1.9,1.9,0,0,1,1.17-.45.86.86,0,0,1,.85.35,2.2,2.2,0,0,1,.41,1.17,4,4,0,0,1-.18,1.59,4.93,4.93,0,0,1-.68,1.43,5.2,5.2,0,0,1-1.12,1.09,1.93,1.93,0,0,1-1.19.45,1,1,0,0,1-.84-.4,2.34,2.34,0,0,1-.37-1.08Zm-3.34-.41.45,5-.45-5Zm-4.14,5.5,4.37-3-4.37,3Zm.23,2.52-.45-5,.45,5Z"/><path class="cls-2" d="M396.73,481a1.94,1.94,0,0,1-.66-.13,1.48,1.48,0,0,1-.91-1.32l-.45-5a1.58,1.58,0,1,1,3.15-.31l.23,2.29.59-.39a1.57,1.57,0,0,1,2.2.39,1.6,1.6,0,0,1-.4,2.22l-2.84,2a1.64,1.64,0,0,1-.91.27Zm-6.57,4.56a1.26,1.26,0,0,0,.89-.33l3.43-2.34a1.58,1.58,0,0,0,.4-2.21,1.54,1.54,0,0,0-1-.67,2,2,0,0,0-.27-1.22,2.56,2.56,0,0,0-.39-.36l.7-.46a1.61,1.61,0,1,0-1.83-2.65l-3.3,2.3a1.58,1.58,0,0,0-.67,1.44l.22,2.49v0l.23,2.47a1.61,1.61,0,0,0,.89,1.32,1.54,1.54,0,0,0,.69.18ZM385,489.09a1.58,1.58,0,0,1-1.58-1.5l-.23-2.34a1.59,1.59,0,0,1-1.75-.64,1.56,1.56,0,0,1,.39-2.2l1.77-1.22s0-.09.09-.09l1.76-1.21a1.59,1.59,0,1,1,1.79,2.62l-1,.72.36,4.09a1.6,1.6,0,0,1-1.44,1.77Zm-6-.9a2.9,2.9,0,0,0-.94,1.07,3.61,3.61,0,0,0-.27,1.31,2.68,2.68,0,0,0,.63-.63,2.34,2.34,0,0,0,.46-.95,2.82,2.82,0,0,0,.12-.8Zm-1.17,2.88h0Zm-.41,3c.06,0,.06,0,.06-.06a3.4,3.4,0,0,0,2.06-.72,5.25,5.25,0,0,0,1.46-1.44,5.33,5.33,0,0,0,.94-2,5.7,5.7,0,0,0,.23-2.12,3.72,3.72,0,0,0-.72-2,2.73,2.73,0,0,0-2.18-1,3.81,3.81,0,0,0-2,.76,6.23,6.23,0,0,0-2,2.39,5.85,5.85,0,0,0-.58,3.25,3.22,3.22,0,0,0,.68,1.9,2.68,2.68,0,0,0,2.1,1ZM369,500.18a1.57,1.57,0,0,1-1.58-1.48l-.23-2.49v0l-.23-2.49a1.53,1.53,0,0,1,1.45-1.71,1.58,1.58,0,0,1,1.72,1.22l1.34-.95-.13-1.58a1.56,1.56,0,0,1,1.43-1.71,1.59,1.59,0,0,1,1.73,1.44l.22,2.48v.05l.22,2.47a1.6,1.6,0,0,1-3.16.51l-1.34.93.13,1.59a1.5,1.5,0,0,1-1.44,1.7A.14.14,0,0,1,369,500.18Z"/><path class="cls-2" d="M315.41,447.47a1.54,1.54,0,0,1,1.21.54,1.46,1.46,0,0,1,.31,1.49l-3.78,13.79L329.28,461l4-15a1.81,1.81,0,0,1,1.4-1.3l2-.27a1.67,1.67,0,0,0,.31-.72,1.21,1.21,0,0,0-.13-.68L330,431.64a1.84,1.84,0,0,1-.33.27l-14.43,14.84a6,6,0,0,0-.67.82l.58-.1Zm-3.58,17.63h0Zm-.08,1.62a2.1,2.1,0,0,1-1.58-.72,2.56,2.56,0,0,1-.45-2.39l3.51-12.67a2.22,2.22,0,0,1-2.2-1.79,3.63,3.63,0,0,1,.45-2.59,9.26,9.26,0,0,1,1.48-2l14.47-14.83a3.66,3.66,0,0,1,3.08-1.4,2.51,2.51,0,0,1,2,1.31l7.12,11.81a4.91,4.91,0,0,1,.59,2.29,4.39,4.39,0,0,1-.86,2.45,3.32,3.32,0,0,1-2.21,1.48l-1,.13-3.83,14a3.32,3.32,0,0,1-2.51,2.44l-17.69,2.47h0C311.93,466.67,311.83,466.72,311.75,466.72Z"/><path class="cls-4" d="M312.47,463.56c5.72-.81,11.5-1.61,17.22-2.43,1.5-5.31,3.17-10.87,4.43-16.14l3.24-.45c.44,0-1.17-3.11-1.21-3.16-1.77-3.2-4.92-7.74-6-9.69-.27-.41-.59-.36-1.13.14l-12.53,12.9s-3.21,3.19-2.66,3.09l3.24-.44C315.31,452.7,314,458.25,312.47,463.56Z"/><path class="cls-2" d="M317.57,445.84a2,2,0,0,1,.68.5,1.72,1.72,0,0,1,.31,1.54c-1.22,3.74-2.26,7.61-3.3,11.4-.18.82-.4,1.58-.63,2.35l13.8-1.94,1-3.56c1.08-3.79,2.2-7.76,3.06-11.5a1.59,1.59,0,0,1,1.36-1.22l1.39-.18a10.18,10.18,0,0,0-.53-1.09c-1.09-2-2.8-4.59-4.15-6.67-.41-.68-.81-1.26-1.18-1.79l-11.85,12.16Z"/><polygon class="cls-4" points="423.83 441.02 435.97 431.01 438.54 443.55 426.4 453.56 423.83 441.02"/><path class="cls-2" d="M425.59,441.66l1.86,9,9.32-7.66-1.85-9-9.33,7.71Zm.81,13.48a2.82,2.82,0,0,1-.54-.1,1.54,1.54,0,0,1-1-1.17l-2.57-12.53a1.59,1.59,0,0,1,.54-1.57l12.18-10a1.54,1.54,0,0,1,1.53-.26,1.64,1.64,0,0,1,1,1.16l2.56,12.54a1.71,1.71,0,0,1-.54,1.58l-12.18,10A1.53,1.53,0,0,1,426.4,455.14Z"/><polygon class="cls-1" points="359.9 475.2 363.23 451.75 354.26 455.08 350.97 478.53 359.9 475.2"/><path class="cls-2" d="M359.9,475.2h0Zm-4.2-18.93-2.78,19.84,5.54-2,2.79-19.88-5.55,2.08ZM351,480.16a1.58,1.58,0,0,1-1-.37,1.49,1.49,0,0,1-.58-1.44l3.29-23.48a1.5,1.5,0,0,1,1-1.27l8.93-3.34a1.6,1.6,0,0,1,1.59.23,1.88,1.88,0,0,1,.58,1.49l-3.3,23.45a1.7,1.7,0,0,1-1,1.3l-9,3.33A1.78,1.78,0,0,1,351,480.16Z"/><polygon class="cls-4" points="359.9 475.2 363.23 451.75 372.16 448.41 368.87 471.85 359.9 475.2"/><path class="cls-2" d="M364.69,452.92l-2.8,19.84,5.54-2.08,2.8-19.82-5.54,2.06Zm-4.79,23.91a1.84,1.84,0,0,1-1-.37,1.75,1.75,0,0,1-.58-1.49l3.28-23.45a1.64,1.64,0,0,1,1-1.26l9-3.37a1.56,1.56,0,0,1,1.53.26,1.61,1.61,0,0,1,.6,1.49l-3.3,23.45a1.5,1.5,0,0,1-1,1.26l-8.93,3.38A2.5,2.5,0,0,1,359.9,476.83Z"/><polygon class="cls-4" points="342.05 481.91 345.33 458.43 354.26 455.08 350.97 478.53 342.05 481.91"/><path class="cls-2" d="M346.79,459.59,344,479.48l5.54-2.07,2.8-19.88-5.54,2.06Zm-4.74,23.91a1.92,1.92,0,0,1-1-.36,1.53,1.53,0,0,1-.54-1.45l3.29-23.49a1.52,1.52,0,0,1,1-1.27l9-3.33a1.58,1.58,0,0,1,1.54.22,1.6,1.6,0,0,1,.58,1.49l-3.29,23.45a1.61,1.61,0,0,1-1,1.3l-8.93,3.35A2.65,2.65,0,0,1,342.05,483.5Z"/><polygon class="cls-4" points="414.65 375.2 424.96 369.25 424.96 482 414.65 487.92 414.65 375.2"/><path class="cls-2" d="M416.26,376.14v109l7.08-4.1V372l-7.08,4.11Zm-1.61,113.4a1.43,1.43,0,0,1-.78-.24,1.59,1.59,0,0,1-.82-1.38V375.2a1.66,1.66,0,0,1,.82-1.4l10.29-5.91a1.4,1.4,0,0,1,1.57,0,1.57,1.57,0,0,1,.81,1.36V482a1.54,1.54,0,0,1-.81,1.35l-10.28,5.95A1.43,1.43,0,0,1,414.65,489.54Z"/><polygon class="cls-4" points="309.63 435.7 319.96 429.75 319.96 542.47 309.63 548.42 309.63 435.7"/><path class="cls-2" d="M311.25,436.6V545.66l7.08-4.1V432.5l-7.08,4.1ZM309.63,550a1.57,1.57,0,0,1-.78-.23,1.59,1.59,0,0,1-.79-1.39V435.7a1.68,1.68,0,0,1,.79-1.4l10.29-5.95a1.61,1.61,0,0,1,2.4,1.4V542.47a1.57,1.57,0,0,1-.82,1.39l-10.28,5.95A1.51,1.51,0,0,1,309.63,550Z"/><path class="cls-2" d="M431.67,446.25A1.6,1.6,0,0,1,430.1,445l-1-4.73a1.59,1.59,0,0,1,3.11-.68l.95,4.78a1.58,1.58,0,0,1-1.22,1.89Z"/><path class="cls-2" d="M428.89,445.8a1.71,1.71,0,0,1-1.23-.58,1.6,1.6,0,0,1,.18-2.26l4.65-3.79a1.53,1.53,0,0,1,2.21.23,1.56,1.56,0,0,1-.23,2.26l-4.59,3.73A1.38,1.38,0,0,1,428.89,445.8Z"/></g></g></svg>