<svg xmlns="http://www.w3.org/2000/svg" viewBox="0 0 228.32 228.32"><defs><style>.cls-1{fill:#3378c6;opacity:0.3;}.cls-2{fill:#fff;}.cls-2,.cls-4,.cls-5{stroke:#0072c8;stroke-linecap:round;stroke-linejoin:round;stroke-width:0.75px;}.cls-2,.cls-3,.cls-4,.cls-5{fill-rule:evenodd;}.cls-3{fill:none;}.cls-4{fill:#d9e8ff;}.cls-5{fill:#9aceef;}</style></defs><g id="Layer_2" data-name="Layer 2"><g id="Layer_1-2" data-name="Layer 1"><circle class="cls-1" cx="114.16" cy="114.16" r="114.16"/><path class="cls-2" d="M175.16,53.13a86.38,86.38,0,0,0-94-18.76,86.38,86.38,0,1,0,119.35,79.79,85.88,85.88,0,0,0-25.3-61Z"/><path class="cls-3" d="M114.14,29.27A84.88,84.88,0,0,0,81.7,192.57a85.67,85.67,0,0,0,64.93,0,84.72,84.72,0,0,0,27.5-138.41h0a83.58,83.58,0,0,0-27.5-18.47,85.17,85.17,0,0,0-32.49-6.42Zm0,172.64a87.72,87.72,0,0,1-87.76-87.75A87.92,87.92,0,0,1,80.58,33a88.7,88.7,0,0,1,67.15,0,87.83,87.83,0,0,1,0,162.24A86.8,86.8,0,0,1,114.14,201.91Z"/><path class="cls-4" d="M169.87,58.42A78.82,78.82,0,0,0,41.34,84a78.64,78.64,0,0,0,17.11,85.83A79.13,79.13,0,0,0,84,187a79.09,79.09,0,0,0,60.24,0,79.13,79.13,0,0,0,25.59-17.11A79,79,0,0,0,187,84,79.11,79.11,0,0,0,169.87,58.42Z"/><path class="cls-3" d="M114.14,36.84A77,77,0,0,0,59.48,59.45a77.29,77.29,0,0,0-16.77,84.27,75.48,75.48,0,0,0,16.77,25.09,76.62,76.62,0,0,0,25.09,16.81,78.18,78.18,0,0,0,59.18,0A77.31,77.31,0,0,0,114.14,36.84Zm0,157.55A80.29,80.29,0,0,1,83.46,40a80.08,80.08,0,0,1,87.43,17.45h0a79.75,79.75,0,0,1,23.49,56.75,80.18,80.18,0,0,1-80.24,80.23Z"/><path class="cls-5" d="M174.06,62.91c2.88,3.33,10.12,14.07,13.24,21.83A78.41,78.41,0,0,1,193,115a79.42,79.42,0,0,1-6.3,30.15,79.44,79.44,0,0,1-43.14,42.2c-3.87,1.55,7.15-11.52.33-18.72S108.13,169.76,109,155s7.24-14.68,10.65-22.41,7.45-1.48,21.93-6.42,33.72-4.19,40-10.77-24,1.27-29.57-.13-6.7-8.06-10.7-7.85-1.72,7.44-6.21,8.79-16.45,3.5-17.18-1.6C115,95,130.13,101.24,131.05,100.17c4-4.61-4.74-8.27.65-14.81s10.74-7.65,13.57-12.21-6.66-8-2.3-11.6S171.06,59.42,174.06,62.91Z"/><path class="cls-3" d="M126.72,129.78c-3.29,0-4.41.24-5.79,3.37a23.25,23.25,0,0,1-4.53,6.55c-2.83,3.19-5.51,6.24-6,15.38-.37,6.85,6.87,7.76,17.94,8.43,6.91.41,13.45.78,16.61,4.1,5,5.23,1.81,13,.09,17.12a2,2,0,0,0-.21.44,77.45,77.45,0,0,0,41.12-99.88c-3-7.62-10.16-18.14-13-21.44h0c-2.38-2.75-25.07-4.4-29-1.15-.94.74-1,1.15.91,3.54,1.52,1.94,3.58,4.6,1.68,7.69-1.56,2.47-3.78,4-6.12,5.71a36.93,36.93,0,0,0-7.58,6.67c-2.34,2.79-1.47,4.73-.41,7.11,1,2.19,2.18,4.86-.24,7.7-.66.78-1.69.69-3.21.53-2.3-.25-5.84-.57-8,1.65-1.9,2-2.44,5.71-1.65,11.11a1.49,1.49,0,0,0,.78,1.1c2.59,1.65,10.11.66,14.52-.66,1.36-.44,1.77-1.77,2.3-3.87s1.19-4.85,4.24-5c2.79-.09,4.35,1.84,5.91,3.77,1.4,1.73,2.89,3.54,5.23,4.11,1.85.46,7.94-.41,13.28-1.14,11.85-1.7,16.78-2.15,18,.2.55,1.07.18,2.21-1,3.49-4.08,4.24-12.39,5.56-22,7.12-6.33,1-12.83,2.06-18.63,4a39.16,39.16,0,0,1-14.48,2.22ZM143,188.87a1.64,1.64,0,0,1-1.23-.49c-1-1-.46-2.34.53-4.77,1.56-3.78,4.19-10.11.54-14-2.4-2.5-8.64-2.88-14.69-3.21-10-.57-21.23-1.23-20.68-11.51s3.69-13.69,6.74-17.15a20.14,20.14,0,0,0,4-5.75c2.26-5.15,5.26-5.18,9.25-5.11a38.29,38.29,0,0,0,13.57-2.1c6-2,12.63-3.12,19-4.15,8.72-1.4,16.95-2.71,20.36-6.24a1.17,1.17,0,0,0,.08-.13c-2.34-.42-9.63.62-14.56,1.31-6.45.91-12,1.73-14.38,1.11-3.3-.82-5.23-3.2-6.79-5.1-1.41-1.72-2.38-2.84-3.5-2.71-.74,0-1,.53-1.56,2.8-.54,2.1-1.24,5-4.28,5.91-3.3,1-12.7,3.05-16.95.37a4.55,4.55,0,0,1-2.13-3.16c-.9-6.42-.12-10.82,2.46-13.53,3.08-3.25,7.86-2.79,10.37-2.55a7.55,7.55,0,0,0,1,.08c.84-1.19.41-2.26-.44-4.19-1.16-2.5-2.68-6,.82-10.17a37.45,37.45,0,0,1,8.1-7.19c2.31-1.59,4.07-2.87,5.31-4.89.78-1.19.12-2.31-1.49-4.31-1.44-1.86-3.78-4.91-.45-7.62,4.73-3.86,29.45-2.71,33.1,1.53h0c2.93,3.41,10.33,14.34,13.5,22.2a80.27,80.27,0,0,1-18.34,87.35,80.42,80.42,0,0,1-26.2,17.15A3,3,0,0,1,143,188.87Z"/><path class="cls-5" d="M108.88,35.48A78.82,78.82,0,0,0,41.31,144.34,77.78,77.78,0,0,0,54.8,166a2.17,2.17,0,0,0,1.64.78,2,2,0,0,0,1.64-.65c5.27-6.09,20.44-10.25,21.47-18.23.78-5.87-9-8.21-11.61-13.61-2.9-6.09-.56-14.23-4.38-19.82-4-5.81-14.69-5-18.76-10.73-2.22-3.13-.58-7.82.61-11.47.5-1.61,2.43-2.56,4.08-3,10.73-2.71,18-1.43,32.21-7.57,6.86-3,3.07-6.9,6.12-8.13s7.73,7.85,12.38,3.81,8.26-23.43,9.91-27.91,7.8-.12,9.45.82-2.87,9.67-.78,11.22,10.78-3.89,11.89-5c6.54-6.46,4.93-12.42,1.23-15.39s-14.89,1-21.33-5A2.14,2.14,0,0,0,108.88,35.48Z"/><path class="cls-3" d="M108.88,35.48h0Zm9.9,16.09h0ZM109,37H109a77.3,77.3,0,0,0-53,128.11.74.74,0,0,0,.57.25c.41,0,.5-.13.54-.18,2.18-2.5,5.8-4.6,9.58-6.81,5.39-3.18,11-6.43,11.51-10.58.33-2.38-1.72-4.07-5.18-6.53-2.47-1.83-5-3.67-6.3-6.3-1.44-3-1.68-6.5-1.93-9.79-.25-3.66-.48-7.16-2.34-9.82s-5.1-3.67-8.68-4.86c-3.82-1.28-7.77-2.59-10.07-5.84-2.55-3.62-.9-8.71.29-12.42l.12-.37c.82-2.54,3.82-3.57,5.1-3.91A93.15,93.15,0,0,1,59.85,86a71.66,71.66,0,0,0,21.26-5.59C84.49,79,84.69,77.46,84.89,76c.18-1.24.38-2.87,2.35-3.71s4,.75,5.89,2.27c3,2.38,4.52,3.2,6.12,1.8,3-2.59,6-14,7.68-20.84.75-2.89,1.37-5.19,1.81-6.5a4.27,4.27,0,0,1,2.64-2.67c2.84-1,6.46,1.24,8.39,2.43l.54.32c1.69,1,1.06,3.42.24,6.5-.4,1.48-1.14,4.27-.82,4.93,1.32.42,8.67-3.74,9.91-5,2.75-2.71,4.16-5.56,4-8.18a6.8,6.8,0,0,0-2.68-5c-1.1-.86-3.77-.94-6.57-1-4.73-.08-10.61-.2-14.85-4.16A.68.68,0,0,0,109,37ZM56.52,168.23h-.13A3.64,3.64,0,0,1,53.68,167,79.1,79.1,0,0,1,40,144.91a80.54,80.54,0,0,1,0-61.52,79.28,79.28,0,0,1,17.4-26A80.15,80.15,0,0,1,108.74,34a3.68,3.68,0,0,1,2.8,1c3.43,3.16,8.47,3.29,12.92,3.37,3.5.08,6.46.13,8.34,1.65a9.6,9.6,0,0,1,3.75,7.1c.16,2.43-.57,6.21-4.85,10.42-.53.57-10.41,7.72-13.82,5.13-1.85-1.44-1-4.56-.16-7.88a18.56,18.56,0,0,0,.74-3.46l-.25-.13c-1.2-.74-4.36-2.71-5.88-2.18-.25,0-.58.25-.82.94-.46,1.16-1,3.5-1.73,6.21-2.6,10.08-5.19,19.38-8.63,22.34-3.71,3.16-7.37.2-9.84-1.77-.83-.66-2.46-2-3-1.81s-.41.21-.57,1.35c-.25,1.86-.62,4.65-5.52,6.75-9.37,4.07-15.79,4.94-22,5.81a85.78,85.78,0,0,0-10.39,1.88c-1.58.37-2.77,1.15-3,2l-.12.37c-1.07,3.3-2.42,7.41-.7,9.84s5.1,3.58,8.64,4.77c3.87,1.31,7.9,2.63,10.15,6s2.56,7.36,2.85,11.27c.2,3.16.4,6.17,1.65,8.76.94,1.92,3.19,3.57,5.37,5.13,3.26,2.35,6.92,5,6.39,9.3-.75,5.56-7,9.21-13,12.71-3.58,2.1-7,4.06-8.88,6.25A3.51,3.51,0,0,1,56.52,168.23Z"/><path class="cls-2" d="M53.31,98.25,35.42,90l20-11.56,3.9,2.25c1.93,1.11,2.72,2.58,2.2,4.1L56.5,99.72Z"/><path class="cls-3" d="M54.1,96.57l1.32.57,4.35-12.88c.11-.26.32-1-1.31-1.89l-3-1.73-16,9.19L54.1,96.57Zm2.4,5a2,2,0,0,1-.77-.16l-3.22-1.47h0L34.7,91.73a2,2,0,0,1-1.11-1.63,1.74,1.74,0,0,1,.95-1.68l20-11.57a1.88,1.88,0,0,1,1.84,0l3.93,2.27c2.75,1.57,3.86,3.93,3,6.35l-5.06,14.82a1.73,1.73,0,0,1-1,1.11A1.84,1.84,0,0,1,56.5,101.56Z"/><path class="cls-2" d="M149.69,126.7l-15.45-8.94c-3.84-1.27-8.62,7.15-5.62,9.78l15.44,8.94c-1.72-1.52-.67-4.69.28-6.36a8.43,8.43,0,0,1,2.63-2.9A3.15,3.15,0,0,1,149.69,126.7Z"/><path class="cls-3" d="M133.24,119.39a5.84,5.84,0,0,0-2.79,2.73c-1,1.84-1.16,3.53-.63,4l11.57,6.69a13.49,13.49,0,0,1,1.31-3.58,10.84,10.84,0,0,1,2.48-3l-11.89-6.83Zm10.82,18.93a1.54,1.54,0,0,1-.94-.27l-15.46-8.94c-2.36-2-2.4-5.36-.41-8.83s5-5.15,7.56-4.32l15.84,9.11a2,2,0,0,1,.79,2.42,2,2,0,0,1-2.31,1c-.16,0-.37-.14-1.23.39a6.86,6.86,0,0,0-2,2.2c-.89,1.63-1.16,3.53-.64,4a1.86,1.86,0,0,1-1.21,3.27Z"/><path class="cls-5" d="M146.86,136.26a9.1,9.1,0,0,0,4.1-7.15c0-2.61-1.83-3.68-4.1-2.36a9.06,9.06,0,0,0-4.16,7.15C142.7,136.53,144.54,137.59,146.86,136.26Z"/><path class="cls-3" d="M148.7,128a2.3,2.3,0,0,0-.95.32,7.38,7.38,0,0,0-3.21,5.57c0,.69.21,1,.32,1.06a1.61,1.61,0,0,0,1-.27,7.41,7.41,0,0,0,3.22-5.58c0-.68-.23-1-.33-1.05a.14.14,0,0,0-.1-.05ZM145,138.69a4,4,0,0,1-2-.53,4.66,4.66,0,0,1-2.18-4.26,11.06,11.06,0,0,1,5.11-8.79,5,5,0,0,1,4.78-.31,4.75,4.75,0,0,1,2.16,4.31,11.12,11.12,0,0,1-5.1,8.79h0A5.7,5.7,0,0,1,145,138.69Z"/><path class="cls-2" d="M132.76,140.52q13.89-22.23,27.88-44.43a3.26,3.26,0,0,0,.37-3,5.38,5.38,0,0,0-2.58-2.63l-9.84-5.67-45,38.9Z"/><path class="cls-3" d="M106.78,123.39,132.13,138l26.93-42.91a1.55,1.55,0,0,0,.21-1.36,4,4,0,0,0-1.79-1.64l-8.68-5-42,36.35Zm26,19a1.67,1.67,0,0,1-.94-.25l-29.14-16.84a1.83,1.83,0,0,1-.32-3l45-38.91a1.79,1.79,0,0,1,2.15-.21l9.85,5.67a7.27,7.27,0,0,1,3.36,3.58,5.39,5.39,0,0,1-.52,4.68l-27.87,44.43A2.07,2.07,0,0,1,132.76,142.36Z"/><path class="cls-2" d="M159.38,184.27c-4.47-1.2-9.25-2.48-13.57-4-1.75-.75-3.15-1.43-4.79-2.32l-30.61-17.67L78.08,141.58l-3.52-2.53c-8.16-5.93-16.26-11.83-24.41-17.73L24.64,98.09c-4.72-1.52-2.25-13.14,5.95-10.3l52.32,24.07L117.36,130l13.09,7.57,8.42,5,18.77,11.14c4.53,2.69,6.57,6.48,8.21,8.28,8.41,9.26,7.78,10.55,7.78,18-.54,4-7.21,5.31-10.26,5.2A25.78,25.78,0,0,1,159.38,184.27Z"/><path class="cls-3" d="M159.85,182.49l.31,0a23.1,23.1,0,0,0,3.42.73c2.68.06,7.89-1.16,8.21-3.61v-1.22c0-5.79.05-7.15-7.32-15.25-.42-.48-.89-1.05-1.41-1.74a21.73,21.73,0,0,0-6.42-6.21l-40.18-23.66L82,113.49l-52.21-24a4,4,0,0,0-4,.58,5.33,5.33,0,0,0-1.53,4.83,1.81,1.81,0,0,0,.94,1.43,1.89,1.89,0,0,1,.74.36L51.42,120l27.71,20.09L142,176.28a42,42,0,0,0,4.53,2.2c4,1.48,8.52,2.7,12.89,3.86l.47.15Zm3.93,4.46h-.52a30.17,30.17,0,0,1-4-.78l-.32-.11-.52-.1c-4.42-1.21-9-2.42-13.25-4a44.48,44.48,0,0,1-5-2.43l-63-36.39L49.06,122.86,23.65,99.66a5.38,5.38,0,0,1-3.11-4,9.22,9.22,0,0,1,2.74-8.4A7.81,7.81,0,0,1,31.18,86L83.7,110.18l34.55,18.15L139.87,141l18.72,11.1a25.07,25.07,0,0,1,7.46,7.15,12.66,12.66,0,0,0,1.21,1.46c7.94,8.83,8.26,10.94,8.26,17.78l-.05,1.47C174.78,185.38,167.53,187,163.78,187Z"/><path class="cls-5" d="M159.42,168.39c-5.94,3.42-10.52.27-16.08-2.53l2.36.16c7.42.59,17.2-5.46,15.41-9.46C164.37,161.23,166.48,164.35,159.42,168.39Z"/><path class="cls-3" d="M150.9,167.45a8.68,8.68,0,0,0,7.58-.63c2.26-1.32,3.47-2.52,3.74-3.59a3.53,3.53,0,0,0-.43-2c-2.16,2.84-6.52,5.22-10.89,6.26Zm8.52.94h0Zm-5.21,3.37c-3.56,0-6.83-1.68-10-3.37l-1.68-.83a1.9,1.9,0,0,1-.95-2.22,1.7,1.7,0,0,1,1.88-1.31l2.43.16c4.83.42,11.14-2.63,13.09-5.42.27-.37.64-1,.43-1.42a1.87,1.87,0,0,1,3.25-1.84c2,2.84,3.9,5.52,3.22,8.52-.48,2.2-2.22,4.1-5.54,6h0A11.75,11.75,0,0,1,154.21,171.76Z"/><path class="cls-2" d="M88.49,162.34,73,153.41c-3.78-1.32-8.61,7.15-5.62,9.73l15.46,8.94c-1.26-1.06-1-3.22-.53-4.63A11.28,11.28,0,0,1,84,164.39C85,163.19,86.8,161.76,88.49,162.34Z"/><path class="cls-3" d="M72,155c-.4,0-1.79,1-2.83,2.78s-1.16,3.53-.64,4l11.57,6.63a13.84,13.84,0,0,1,.43-1.53,11.5,11.5,0,0,1,2-3.67,9.62,9.62,0,0,1,1.31-1.32L72,155Zm10.79,19a1.81,1.81,0,0,1-.9-.26l-15.51-9c-2.36-2-2.41-5.41-.41-8.83s4.94-5.2,7.56-4.31l15.83,9.09a1.89,1.89,0,0,1,.79,2.38,1.87,1.87,0,0,1-2.31,1c-.48-.16-1.59.46-2.42,1.52A8.7,8.7,0,0,0,84.07,168c-.37,1.16-.41,2.32,0,2.68a1.86,1.86,0,0,1,.26,2.47A1.82,1.82,0,0,1,82.81,174Z"/><path class="cls-2" d="M110.53,153.36l-77,16.09a14,14,0,0,1-9.73-1.27L14,162.51l67.35-26Z"/><path class="cls-3" d="M18.29,162.82l6.47,3.73a12.14,12.14,0,0,0,8.41,1.06l72.19-15.09L81.19,138.59l-62.9,24.23Zm12,8.83a14.94,14.94,0,0,1-7.41-1.84L13,164.09a1.65,1.65,0,0,1-.89-1.75,1.73,1.73,0,0,1,1.14-1.56l67.43-26a1.91,1.91,0,0,1,1.57.12l29.13,16.83a1.86,1.86,0,0,1-.52,3.47L34,171.24A18.69,18.69,0,0,1,30.27,171.65Z"/><path class="cls-2" d="M43.52,105.77l-24.23,3.62a11.83,11.83,0,0,1-7.15-1.25l-3.9-2.27,20-11.57Z"/><path class="cls-3" d="M11.93,105.87l1.15.63a10,10,0,0,0,6,1l19.76-2.93L28.07,96.57l-16.14,9.3Zm5.68,5.47a13,13,0,0,1-6.42-1.57l-3.9-2.33a1.81,1.81,0,0,1-.93-1.57,1.87,1.87,0,0,1,.93-1.63l20-11.51a1.75,1.75,0,0,1,2.06.1l15.3,11.47a1.83,1.83,0,0,1-.85,3.32l-24.25,3.62C18.86,111.29,18.24,111.34,17.61,111.34Z"/><polygon class="cls-2" points="25.28 88.1 19.77 58.86 28.23 63.75 48.22 99.77 25.28 88.1"/><path class="cls-3" d="M26.91,86.9l16.73,8.46L26.87,65.12l-4.53-2.63L26.91,86.9Zm21.31,14.7a2.36,2.36,0,0,1-.86-.15L24.44,89.78a1.83,1.83,0,0,1-1-1.31l-5.51-29.3a1.77,1.77,0,0,1,.73-1.84,1.84,1.84,0,0,1,2-.1l8.51,4.89a1.89,1.89,0,0,1,.7.73l20,36a1.88,1.88,0,0,1-.25,2.2A1.86,1.86,0,0,1,48.22,101.6Z"/><path class="cls-5" d="M86.18,172.33a9.14,9.14,0,0,0,4.09-7.14c0-2.63-1.84-3.68-4.09-2.37A9.1,9.1,0,0,0,82,170C82,172.6,83.87,173.65,86.18,172.33Z"/><path class="cls-3" d="M88,164.09a2.65,2.65,0,0,0-.9.3A7.3,7.3,0,0,0,83.91,170c0,.68.16,1,.27,1.05s.46.06,1-.25h0a7.26,7.26,0,0,0,3.2-5.58,1.67,1.67,0,0,0-.25-1.05c-.05,0-.11,0-.16,0Zm-3.69,10.67a4,4,0,0,1-2-.52A4.71,4.71,0,0,1,80.17,170a11.08,11.08,0,0,1,5.06-8.78,4.79,4.79,0,0,1,4.79-.27,4.63,4.63,0,0,1,2.15,4.27,11,11,0,0,1-5,8.78h0A5.7,5.7,0,0,1,84.33,174.76Z"/><path class="cls-5" d="M130.08,160a1.86,1.86,0,0,1-1.83-1.88v-1.86a1.86,1.86,0,0,1,3.72,0v1.86A1.87,1.87,0,0,1,130.08,160Z"/><path class="cls-5" d="M122.4,155.63a1.9,1.9,0,0,1-1.84-1.9v-1.84a1.87,1.87,0,1,1,3.74,0v1.84A1.9,1.9,0,0,1,122.4,155.63Z"/><path class="cls-5" d="M114.79,151.14a1.84,1.84,0,0,1-1.9-1.84v-1.84a1.87,1.87,0,1,1,3.74,0v1.84A1.84,1.84,0,0,1,114.79,151.14Z"/><path class="cls-5" d="M107.1,146.73a1.83,1.83,0,0,1-1.84-1.83v-1.84a1.87,1.87,0,1,1,3.73,0v1.84A1.84,1.84,0,0,1,107.1,146.73Z"/><path class="cls-5" d="M99.48,142.31a1.85,1.85,0,0,1-1.9-1.84v-1.84a1.89,1.89,0,0,1,1.9-1.88,1.87,1.87,0,0,1,1.84,1.88v1.84A1.83,1.83,0,0,1,99.48,142.31Z"/><path class="cls-5" d="M91.81,137.9A1.87,1.87,0,0,1,90,136.05v-1.84a1.86,1.86,0,1,1,3.72,0v1.84A1.88,1.88,0,0,1,91.81,137.9Z"/><path class="cls-5" d="M84.12,133.48a1.86,1.86,0,0,1-1.84-1.83v-1.84a1.87,1.87,0,1,1,3.74,0v1.84A1.87,1.87,0,0,1,84.12,133.48Z"/><path class="cls-5" d="M76.5,129.06a1.87,1.87,0,0,1-1.89-1.84v-1.84a1.87,1.87,0,1,1,3.73,0v1.84A1.87,1.87,0,0,1,76.5,129.06Z"/></g></g></svg>