<svg xmlns="http://www.w3.org/2000/svg" viewBox="0 0 228.32 228.32"><defs><style>.cls-1{fill:#3378c6;opacity:0.3;}.cls-2{fill:#d9e8ff;}.cls-2,.cls-4,.cls-5{stroke:#0072c8;stroke-linecap:round;stroke-linejoin:round;stroke-width:0.75px;}.cls-2,.cls-3,.cls-4,.cls-5{fill-rule:evenodd;}.cls-3{fill:none;}.cls-4{fill:#9aceef;}.cls-5{fill:#fff;}</style></defs><g id="Layer_2" data-name="Layer 2"><g id="Layer_1-2" data-name="Layer 1"><circle class="cls-1" cx="114.16" cy="114.16" r="114.16"/><path class="cls-2" d="M77.82,5.81l0,5.81L74,13.78l-4.21-2.49a5.79,5.79,0,0,0-5.88-.06l-2,1.12a2.47,2.47,0,0,0-1.3,2.16L59.2,165.59a2.49,2.49,0,0,0,1.25,2.2L138.7,214c3.57,2.11,6.8,4.33,10.68,5.73a28.63,28.63,0,0,0,18.29-.42c3.93-1.69,7.49-4.05,7.7-8.75L176.79,59.5,176.7,59a6.59,6.59,0,0,0-1.11-3c-1.89-2.9-7.93-5.8-10.57-7.36Q126,25.6,87,2.55a5.69,5.69,0,0,0-5.9-.06l-2,1.1a2.45,2.45,0,0,0-1.29,2.16Z" transform="translate(0 -0.2)"/><path class="cls-3" d="M84,3.37a4.26,4.26,0,0,0-2.11.57l-2,1.1a.79.79,0,0,0-.42.73l-.06,5.87a1.68,1.68,0,0,1-.86,1.45l-3.81,2.14a1.65,1.65,0,0,1-1.69,0l-4.21-2.48a4.06,4.06,0,0,0-4.21,0l-1.94,1.1a.82.82,0,0,0-.44.73l-1.41,151c0,.52.06.6.42.84l78.25,46.2,2.24,1.36a44.22,44.22,0,0,0,8,4.2,26.54,26.54,0,0,0,17.15-.33c4.61-2,6.54-4.11,6.7-7.23L175.14,59.8l-.12-.64a5,5,0,0,0-.84-2.26c-1.3-2-5.43-4.28-8.17-5.8-.7-.37-1.34-.72-1.85-1L86.11,4A4.37,4.37,0,0,0,84,3.37Zm64.81,217.94a47.8,47.8,0,0,1-8.78-4.54L59.49,169.18a4.19,4.19,0,0,1-2-3.61L58.94,14.5a4.13,4.13,0,0,1,2.14-3.62l2-1.11a7.37,7.37,0,0,1,7.57.08l3.36,2,2.12-1.2,0-4.9a4.12,4.12,0,0,1,2.15-3.61L80.23,1a7.34,7.34,0,0,1,7.58.07l78.07,46.08c.48.29,1.1.63,1.76,1,3.21,1.77,7.6,4.2,9.36,6.88a7.89,7.89,0,0,1,1.34,3.62l-1.28,152c-.27,5.86-4.8,8.54-8.83,10.28a30.37,30.37,0,0,1-10.46,1.79A33.15,33.15,0,0,1,148.82,221.31Z" transform="translate(0 -0.2)"/><polygon class="cls-4" points="81.56 28.48 71.82 22.73 70.36 178.19 80.11 183.96 81.56 28.48"/><path class="cls-3" d="M79.86,29.63l-6.39-3.77L72.05,177.44l6.39,3.78L79.86,29.63Zm-.62,156-9.74-5.74a1.71,1.71,0,0,1-.83-1.47L70.13,22.91A1.67,1.67,0,0,1,71,21.47a1.64,1.64,0,0,1,1.67,0l9.75,5.75a1.64,1.64,0,0,1,.83,1.45L81.78,184.18a1.64,1.64,0,0,1-.86,1.43,1.55,1.55,0,0,1-.83.23A1.72,1.72,0,0,1,79.24,185.59Z" transform="translate(0 -0.2)"/><path class="cls-4" d="M152.23,41.21l-1.68,178.86a29.45,29.45,0,0,0,15.83-.3c4.37-1.55,8.76-4,9-9.21L176.79,59.5,176.7,59c-.51-4.77-6-7.05-9.66-9.18C162.1,46.9,157.23,44,152.23,41.21Z" transform="translate(0 -0.2)"/><path class="cls-3" d="M153.89,44.09l-1.64,174.67a28.39,28.39,0,0,0,13.56-.57c5.3-1.88,7.73-4.25,7.89-7.65L175.14,59.8l-.12-.64c-.33-3.17-3.91-5.15-7.07-6.9-.61-.34-1.21-.67-1.75-1-4.12-2.42-8.19-4.81-12.31-7.17Zm-3.82,177.59a1.69,1.69,0,0,1-1.2-1.63L150.55,41.2a1.69,1.69,0,0,1,2.51-1.47c5,2.83,9.88,5.7,14.84,8.63.53.32,1.1.62,1.68,1,3.69,2,8.28,4.57,8.76,9.36l-1.28,152c-.34,7.26-7.7,9.87-10.21,10.75a33.33,33.33,0,0,1-9.51,1.33A26.71,26.71,0,0,1,150.07,221.68Z" transform="translate(0 -0.2)"/><path class="cls-2" d="M162.83,57.45,121.14,32.84h0L79.07,8l-.29-.2a1.23,1.23,0,0,1-.24-.22,1,1,0,0,1-.21-.25h0a2.07,2.07,0,0,1-.19-.25v0h0A1.59,1.59,0,0,1,78,6.78h0a2.8,2.8,0,0,1-.09-.31,1.2,1.2,0,0,1-.06-.32,1,1,0,0,1,0-.3L77.73,16,154.8,61.55c2.44,1.42,5.69,2.19,8.34.7,2.19-1.25,1.2-3.9.05-4.57s-.27-.14-.4-.2Z" transform="translate(0 -0.2)"/><path class="cls-3" d="M162.16,59A.17.17,0,0,1,162,59c-.09,0-.18-.1-.27-.15h0l-.17-.14L79.48,10.19l0,4.9,76.22,45c.91.54,4.06,2.17,6.66.69.38-.21.44-.42.45-.62a1.45,1.45,0,0,0-.43-1l-.17-.12Zm-8.22,4L76.87,17.5A1.69,1.69,0,0,1,76,16l.1-10.19c0-.92.8-1.43,1.73-1.43h0a1.93,1.93,0,0,1,1.73,1.85c0,.07.29.23.31.3L163.67,56a.42.42,0,0,1,.18.13c.07,0,.12.07.2.1a4.67,4.67,0,0,1,2.08,3.93A4.07,4.07,0,0,1,164,63.71a8.19,8.19,0,0,1-4.17,1A11.91,11.91,0,0,1,153.94,63Z" transform="translate(0 -0.2)"/><path class="cls-2" d="M127,55.19l16.5,9.74c3.3,2,5.08,3.24,8.89,4.22,6.29,1.63,13.77,1,19.13-2,5.12-2.9,6.66-7.65,3.9-11.45-1.85-2.56-7-5.05-9.47-6.52L87,2.57a5.82,5.82,0,0,0-5.9-.06l-2,1.12a2.47,2.47,0,0,0-1.29,2.18A2.5,2.5,0,0,0,79.07,8q37.74,22.26,75.5,44.56l8.19,4.87A2.91,2.91,0,0,1,164.29,61a2.49,2.49,0,0,1-1.15,1.26c-2.65,1.49-5.9.72-8.34-.7L69.75,11.33a5.76,5.76,0,0,0-5.88-.05l-2,1.1a2.52,2.52,0,0,0,0,4.39Z" transform="translate(0 -0.2)"/><path class="cls-3" d="M84,3.42A4.15,4.15,0,0,0,81.9,4l-2,1.1a.79.79,0,0,0-.42.74.78.78,0,0,0,.4.74l22.52,13.29q26.52,15.63,53,31.29L163.63,56a4.59,4.59,0,0,1,2.23,5.62A4.15,4.15,0,0,1,164,63.71c-2.83,1.6-6.56,1.32-10-.71l-85-50.22a4.1,4.1,0,0,0-4.21,0l-1.94,1.11a.85.85,0,0,0,0,1.47l65.1,38.42h0l17.83,10.54a23.06,23.06,0,0,0,7.12,3.24c6.11,1.58,13.12.86,17.88-1.83,2.36-1.33,3.88-3.1,4.28-5a4.87,4.87,0,0,0-.91-4c-1.27-1.76-4.87-3.77-7.25-5.09-.64-.36-1.24-.68-1.73-1L86.11,4a4.25,4.25,0,0,0-2.1-.6Zm67.93,67.37a26.33,26.33,0,0,1-8-3.62L61,18.21a4.21,4.21,0,0,1,.07-7.29L63,9.82a7.41,7.41,0,0,1,7.59.07l85,50.2c.91.54,4,2.16,6.68.69a.86.86,0,0,0,.4-.42c.19-.49-.15-1.08-.83-1.47L153.71,54q-26.48-15.68-53-31.28L78.21,9.47a4.2,4.2,0,0,1-2.07-3.68,4.14,4.14,0,0,1,2.15-3.63l2-1.1a7.35,7.35,0,0,1,7.56.07l78.95,46.6c.47.28,1,.6,1.66,1,2.79,1.55,6.62,3.67,8.33,6a8.32,8.32,0,0,1,1.49,6.67c-.63,2.85-2.74,5.41-6,7.22a26.46,26.46,0,0,1-13.12,3.11A31,31,0,0,1,151.94,70.79Z" transform="translate(0 -0.2)"/><path class="cls-5" d="M74,13.82l3.81-2.15,85.56,50.47-.19.11c-2.61,1.55-5.9.72-8.34-.7Z" transform="translate(0 -0.2)"/><path class="cls-3" d="M77.75,13.61l-.43.24,78.33,46.24a9.65,9.65,0,0,0,2.78,1.11L77.75,13.61ZM153.94,63,73.1,15.28a1.71,1.71,0,0,1-.82-1.47,1.68,1.68,0,0,1,.85-1.45l3.81-2.16a1.7,1.7,0,0,1,1.69,0l85.56,50.48a1.67,1.67,0,0,1,.73,1.51,1.81,1.81,0,0,1-.92,1.49,7.83,7.83,0,0,1-4.16,1.07A12.17,12.17,0,0,1,153.94,63Z" transform="translate(0 -0.2)"/><polygon class="cls-4" points="100.19 6.69 109.93 12.46 81.56 28.48 71.82 22.73 100.19 6.69"/><path class="cls-3" d="M106.57,12.63l-6.4-3.79L75.19,23l6.39,3.78,25-14.11ZM80.7,30.13,71,24.38a1.71,1.71,0,0,1-.83-1.47A1.67,1.67,0,0,1,71,21.47l28.38-16a1.66,1.66,0,0,1,1.67,0l9.75,5.75a1.68,1.68,0,0,1,0,2.91l-28.38,16a1.48,1.48,0,0,1-.83.22A1.6,1.6,0,0,1,80.7,30.13Z" transform="translate(0 -0.2)"/><path class="cls-2" d="M50.5,155.52c.14-13.67,14.11-28.93,22.87-24.13l5.26,3.07c-9.1-4.78-22.68,10.85-22.82,24.13L56,201.47a5.51,5.51,0,0,0,2.36,3.7c-2.06-1.21-5.7-2.87-6.78-4.52a7.6,7.6,0,0,1-1-4.14Z" transform="translate(0 -0.2)"/><path class="cls-3" d="M51,155.52v41a7,7,0,0,0,1,3.83c.59.93,2.26,1.94,3.84,2.82a7,7,0,0,1-.45-1.58l-.19-43c.1-8.79,6-19.16,13.47-23.63a12.4,12.4,0,0,1,6.25-2l-1.87-1.1c-3.15-1.72-6.54-.45-8.9.9-6.35,3.72-13,13.23-13.13,22.73Zm7.27,50.22a.48.48,0,0,1-.29-.08c-.44-.25-.93-.54-1.47-.83C54.38,203.68,52,202.38,51,201a8.76,8.76,0,0,1-1.13-4.47v-41h0c.09-9.92,7-19.84,13.67-23.72,3.74-2.17,7.23-2.48,10-.91L78.92,134a.58.58,0,0,1,.25.79.59.59,0,0,1-.79.22c-3.29-1.71-6.79-.41-9.1,1-7,4.21-12.83,14.36-12.93,22.63l.2,42.88a4.7,4.7,0,0,0,2.11,3.23.55.55,0,0,1,.15.78A.57.57,0,0,1,58.31,205.74Z" transform="translate(0 -0.2)"/><path class="cls-4" d="M78.63,184.32l-5.32-3.07a1.65,1.65,0,0,1-.68-1.5V146.64c-2.46,0-4.58,1.67-6.2,3.33l5,2.86a2,2,0,0,1,.83,1.91v17.11l0,18.2a9.07,9.07,0,0,1-4,7l-3.79,2.17a2.86,2.86,0,0,1-2.85.27l-5.31-3.06a2.88,2.88,0,0,0,2.85-.26l3.49-2a5,5,0,0,0,1.09-.71,9.81,9.81,0,0,0,2.75-3.92A7.8,7.8,0,0,0,67,186.7v-35a5.94,5.94,0,0,0-.15-.94,1.88,1.88,0,0,0-.44-.73A19.37,19.37,0,0,0,65,151.62a16.64,16.64,0,0,0-3.35,9.24V192.2a1.63,1.63,0,0,0,.69,1.5l-5.31-3c-.59-.49-.59-.79-.69-1.52V157.81a16.17,16.17,0,0,1,2.26-7.51c2-3.3,6.34-8.31,10.77-6.23L72.63,146v-3.23c0-2.42-.54-4.26-2.56-5.65l5.31,3.06c2,1.28,2.51,3.4,2.56,5.66v37A1.68,1.68,0,0,0,78.63,184.32Z" transform="translate(0 -0.2)"/><path class="cls-3" d="M67.36,149.84l4.28,2.48a2.22,2.22,0,0,1,.4.31v-5.37a8.86,8.86,0,0,0-4.68,2.58Zm5.76-3.54a.79.79,0,0,1,.1.34v33.11c0,.62,0,.72.44,1.06l3.69,2.12V145.8c0-2.6-.74-4.2-2.31-5.18l-2.46-1.41a8.56,8.56,0,0,1,.64,3.5V146a.72.72,0,0,1-.1.34Zm-5.9-2.15a4.54,4.54,0,0,1,1.87.42l2.7,1.57c-2.46.36-4.43,2.09-5.75,3.41-.05,0-.05,0-.05,0v0a12,12,0,0,0-1.28,1.51l-.15.19a17,17,0,0,0-3.49,9.56v31.45l-3.69-2.12c-.34-.33-.39-.42-.44-1.06V157.82a14.75,14.75,0,0,1,2.16-7.23c.74-1.19,4.18-6.44,8.12-6.44ZM66.28,151c-.24.26-.44.55-.69.83l-.09.16a15.87,15.87,0,0,0-3.25,8.91V192.2c0,.62,0,.73.44,1.06.05,0,.1.07.1.1.2-.13.39-.26.59-.41a8.76,8.76,0,0,0,2.56-3.69,6.84,6.84,0,0,0,.44-2.56v-35a3,3,0,0,0-.1-.69Zm-7.72,46c.3-.11.59-.26.89-.4l3.49-2a8,8,0,0,0,1.18-.78,10.3,10.3,0,0,0,2.9-4.16,8.21,8.21,0,0,0,.54-3v-35a1.1,1.1,0,0,1,0-.39l3.54,2.06c.45.26.59.69.64,1.42V190A8.43,8.43,0,0,1,68,196.52l-3.79,2.17a2.28,2.28,0,0,1-2.26.28L58.56,197Zm4.18,3.28a3.09,3.09,0,0,1-1.38-.33l-5.31-3.07a.57.57,0,0,1,.5-1,2.38,2.38,0,0,0,2.36-.27l2.8-1.62-5-2.86a2.23,2.23,0,0,1-.93-1.94V157.81A16.11,16.11,0,0,1,58.07,150c2.75-4.48,7.23-8.52,11.56-6.48L72,145v-2.24c-.05-2.17-.45-3.88-2.32-5.17a.61.61,0,0,1-.14-.79.58.58,0,0,1,.78-.19l5.27,3.06c2.5,1.57,2.85,4.26,2.9,6.14v37c0,.64,0,.73.44,1.06a.57.57,0,0,1-.64.95L73,181.76a1.51,1.51,0,0,0-.2-.17v8.46a9.38,9.38,0,0,1-4.28,7.47l-3.78,2.19A4.49,4.49,0,0,1,62.74,200.32Z" transform="translate(0 -0.2)"/><path class="cls-5" d="M82.56,180.13a5.12,5.12,0,0,1-2.31,4c-1.28.74-2.31.14-2.31-1.35v-37c0-2.76-1-4.71-2.56-5.64a5.61,5.61,0,0,0-5,0,10,10,0,0,0-1.18.59,21.12,21.12,0,0,0-6.93,7,18,18,0,0,0-2.56,8.62v41a2.84,2.84,0,0,0,1.18,2.6,2.91,2.91,0,0,0,2.86-.28l1.47-.88,3-1.75a9,9,0,0,0,2.8-3,8.23,8.23,0,0,0,1.23-4l0-18.2V154.74a2.08,2.08,0,0,0-.83-1.91,2.12,2.12,0,0,0-2.12.19,6,6,0,0,0-2.06,2.22,5.67,5.67,0,0,0-.89,2.94v31.34a5.18,5.18,0,0,1-2.36,4c-1.28.75-2.31.14-2.31-1.34V160.86a17.05,17.05,0,0,1,7.62-13.2c2.12-1.21,4-1.33,5.36-.53,1.48.84,2.27,2.6,2.27,4.93v35.33a19.3,19.3,0,0,1-8.66,15l-3.79,2.18c-2.41,1.39-4.57,1.5-6.15.61s-2.5-2.85-2.5-5.61v-41a27,27,0,0,1,3.93-13.2,27.36,27.36,0,0,1,9.44-10c3.69-2.12,7-2.32,9.45-.91s3.93,4.39,3.93,8.66Z" transform="translate(0 -0.2)"/><path class="cls-3" d="M73.07,140.14a5.94,5.94,0,0,0-2.46.55,9.77,9.77,0,0,0-1.13.55A20.64,20.64,0,0,0,62.74,148a17,17,0,0,0-2.46,8.34v41a2.27,2.27,0,0,0,.89,2.09,2.32,2.32,0,0,0,2.26-.28L68,196.52a8.85,8.85,0,0,0,2.6-2.81,7.79,7.79,0,0,0,1.13-3.66V154.74a1.58,1.58,0,0,0-.59-1.4,1.55,1.55,0,0,0-1.52.19,5.88,5.88,0,0,0-2.71,4.65v31.34a5.67,5.67,0,0,1-2.6,4.52,2,2,0,0,1-3.2-1.84V160.86a15.93,15.93,0,0,1,2.36-7.8,15.73,15.73,0,0,1,5.56-5.9c2.21-1.28,4.32-1.46,6-.53a5.28,5.28,0,0,1,2.41,3.86v-4.71c0-2.47-.79-4.29-2.26-5.14a4,4,0,0,0-2-.5Zm2.07-6a6.29,6.29,0,0,1,3.19.82c2.36,1.35,3.64,4.26,3.64,8.17a.08.08,0,0,0,0,.08v36.93A4.53,4.53,0,0,1,80,183.65a1.07,1.07,0,0,1-1,.16c-.29-.14-.39-.5-.39-1v-37c0-2.89-1-5.07-2.9-6.14a6.08,6.08,0,0,0-5.51,0,10.14,10.14,0,0,0-1.23.62,21.44,21.44,0,0,0-7.13,7.17,18.31,18.31,0,0,0-2.66,8.92v41a3.37,3.37,0,0,0,1.48,3.09,3.33,3.33,0,0,0,3.39-.26l4.57-2.63a9.77,9.77,0,0,0,3-3.22,9,9,0,0,0,1.23-4.25V154.74a2.56,2.56,0,0,0-1.18-2.42,2.62,2.62,0,0,0-2.65.2A6.65,6.65,0,0,0,66.68,155a6.91,6.91,0,0,0-.94,3.22v31.34a4.63,4.63,0,0,1-2,3.53,1.23,1.23,0,0,1-1.09.16,1.17,1.17,0,0,1-.39-1V160.86a16.33,16.33,0,0,1,7.33-12.7c1.82-1.06,3.54-1.25,4.77-.52s2,2.28,2,4.42v35.33A18.6,18.6,0,0,1,68,201.87l-3.79,2.19c-2.12,1.24-4.08,1.43-5.56.6s-2.26-2.65-2.26-5.1v-41a29.23,29.23,0,0,1,13.13-22.71,11.56,11.56,0,0,1,5.66-1.75Zm-14.56,72.2a5.05,5.05,0,0,1-2.56-.67c-1.82-1-2.8-3.22-2.8-6.1v-41a30.06,30.06,0,0,1,13.67-23.71c3.79-2.17,7.33-2.5,10-.93s4.23,4.78,4.23,9.07v37.11a5.69,5.69,0,0,1-2.6,4.52,2.17,2.17,0,0,1-2.22.16,1.69,1.69,0,0,1-.83-1.11v3.69a17.86,17.86,0,0,1-2.66,8.8,18.19,18.19,0,0,1-6.3,6.68l-3.78,2.2A8.46,8.46,0,0,1,60.58,206.33Z" transform="translate(0 -0.2)"/><path class="cls-4" d="M56.15,154.82l-5.31-3.07a19,19,0,0,0-.34,3.77v41c.09,2.39.44,4.15,2.55,5.6l5.26,3.06c-2.06-1.44-2.4-3.2-2.5-5.61v-41A19.8,19.8,0,0,1,56.15,154.82Z" transform="translate(0 -0.2)"/><path class="cls-3" d="M51.28,152.67a27.3,27.3,0,0,0-.24,2.86v41c.14,2.41.54,3.86,2.31,5.12l2.51,1.43a9,9,0,0,1-.64-3.47v-41a20,20,0,0,1,.29-3.48l-4.23-2.44Zm7,53.07a.48.48,0,0,1-.29-.08l-5.26-3c-2.46-1.7-2.76-3.85-2.85-6.09v-41a29,29,0,0,1,.34-3.87.72.72,0,0,1,.34-.42.59.59,0,0,1,.55,0l5.31,3.06a.6.6,0,0,1,.29.6,22.2,22.2,0,0,0-.39,3.68v41c.15,2.41.54,3.88,2.31,5.14a.55.55,0,0,1,.15.78A.57.57,0,0,1,58.31,205.74Z" transform="translate(0 -0.2)"/><path class="cls-5" d="M130.87,196.6,113,226.39a2.76,2.76,0,0,1-2.43,1.37,2.73,2.73,0,0,1-2.4-1.39l-17.5-30,24.69-7.89Z" transform="translate(0 -0.2)"/><path class="cls-3" d="M92.09,196.88l23.17-7.4,14.27,7.5-17.38,28.93a1.75,1.75,0,0,1-1.58.89,1.77,1.77,0,0,1-1.58-.92l-16.9-29Zm39.23-1.13-15.53-8.16a.89.89,0,0,0-.73-.06l-24.69,7.89a1,1,0,0,0-.61.57.78.78,0,0,0,.08.82l17.48,30a3.76,3.76,0,0,0,6.48,0l17.9-29.8a.94.94,0,0,0,.09-.75.54.54,0,0,0-.08-.21A1,1,0,0,0,131.32,195.75Z" transform="translate(0 -0.2)"/><path class="cls-5" d="M132.23,113.39l-.53,80.26c-.15,1.65-.25,3.68-1.65,4.41l-10.45,5.4-7.29-1.67c-.51.22-8.93,3-9.56,2.66l-11.1-6.38a9.07,9.07,0,0,1-1.78-4.76l.53-80.26a8.21,8.21,0,0,0,1,3.43,13.58,13.58,0,0,0,5.23,5,28,28,0,0,0,7.07,2.69,37.45,37.45,0,0,0,9,.85,30.84,30.84,0,0,0,12.76-3.09C128.86,120,131.84,117.5,132.23,113.39Z" transform="translate(0 -0.2)"/><path class="cls-3" d="M119.47,202.45l-7-1.6a1.09,1.09,0,0,0-.59.05,74.62,74.62,0,0,1-8.88,2.62L92.3,197.34a8.09,8.09,0,0,1-1.47-4l.5-75.17a15.51,15.51,0,0,0,4.82,4.15,28.89,28.89,0,0,0,7.31,2.77,37.93,37.93,0,0,0,9.28.87,31.57,31.57,0,0,0,13.18-3.2,16.7,16.7,0,0,0,5.32-4.29l-.5,75.11,0,.34c-.12,1.35-.26,2.87-1.1,3.31l-10.14,5.24Zm12.8-90a1,1,0,0,0-1,.86C131,116.43,129,118.82,125,121a29.69,29.69,0,0,1-12.35,3,35.76,35.76,0,0,1-8.78-.83,26.31,26.31,0,0,1-6.79-2.57A12.52,12.52,0,0,1,92.24,116a6.83,6.83,0,0,1-.88-3.06,1,1,0,0,0-1-.89,1,1,0,0,0-.93,1l-.52,80.34a10,10,0,0,0,2,5.25.77.77,0,0,0,.3.27l11.1,6.39c1.12.64,8.47-1.92,10.1-2.51l7,1.62a1,1,0,0,0,.66-.08l10.46-5.41c1.77-.92,2-3.09,2.12-4.84l.56-80.67a.86.86,0,0,0-.12-.48A.91.91,0,0,0,132.27,112.44Z" transform="translate(0 -0.2)"/><path class="cls-4" d="M132.23,113.39l-.53,80.26c-.15,1.65-.25,3.68-1.65,4.41l-10.45,5.4.53-79.54a28.93,28.93,0,0,0,3.74-1.28,17.43,17.43,0,0,0,6-4.09A8.46,8.46,0,0,0,132.23,113.39Z" transform="translate(0 -0.2)"/><path class="cls-3" d="M120.57,201.88l.51-77.23a32.29,32.29,0,0,0,3.19-1.13,18.74,18.74,0,0,0,6.38-4.36l.59-.73-.5,75.13,0,.34c-.12,1.35-.26,2.87-1.1,3.31l-9,4.67Zm11.7-89.44a1,1,0,0,0-1,.86,7.35,7.35,0,0,1-2.05,4.58,16.35,16.35,0,0,1-5.71,3.87,26.48,26.48,0,0,1-3.62,1.24,1,1,0,0,0-.72.92l-.53,79.55a1,1,0,0,0,.46.82.93.93,0,0,0,.94,0l10.46-5.41c1.77-.92,2-3.09,2.12-4.84l.56-80.67a.86.86,0,0,0-.12-.48A.91.91,0,0,0,132.27,112.44Z" transform="translate(0 -0.2)"/><path class="cls-5" d="M132.37,109.34l0,4a7.69,7.69,0,0,1-1.09,3.49,14.76,14.76,0,0,1-6.5,5.45,30.49,30.49,0,0,1-9,2.48,37.79,37.79,0,0,1-9.08-.07,34.54,34.54,0,0,1-6.8-1.7,20.29,20.29,0,0,1-6.47-3.88A9.06,9.06,0,0,1,90.29,113l0-4c.21,2.82,1.45,4.65,3.61,6.61a21.47,21.47,0,0,0,6.84,3.72,34.61,34.61,0,0,0,8.91,1.65,38,38,0,0,0,9-.68,24.89,24.89,0,0,0,9.06-3.71,14.29,14.29,0,0,0,3.22-3.18A8.08,8.08,0,0,0,132.37,109.34Z" transform="translate(0 -0.2)"/><path class="cls-3" d="M92.17,116.07a6.83,6.83,0,0,1-.68-1.64,16.92,16.92,0,0,0,1.83,1.91,22.32,22.32,0,0,0,7.15,3.88,35.65,35.65,0,0,0,9.18,1.71,38.68,38.68,0,0,0,9.2-.71,25.69,25.69,0,0,0,9.42-3.87,15.48,15.48,0,0,0,2.88-2.69,8.44,8.44,0,0,1-.71,1.65,13.94,13.94,0,0,1-6.08,5.09,29.21,29.21,0,0,1-8.76,2.4,36.81,36.81,0,0,1-8.84-.07,33.11,33.11,0,0,1-6.59-1.65A19.06,19.06,0,0,1,94,118.42a11.09,11.09,0,0,1-1.87-2.35Zm40.24-7.69a1,1,0,0,0-1,.87,6.94,6.94,0,0,1-1.27,3.58,12.79,12.79,0,0,1-3,3,23.67,23.67,0,0,1-8.71,3.57,37.14,37.14,0,0,1-8.71.66,33.4,33.4,0,0,1-8.65-1.6,20.27,20.27,0,0,1-6.52-3.53c-2.22-2-3.12-3.63-3.29-6a1,1,0,0,0-1-.88,1,1,0,0,0-.92,1l0,4.07a10,10,0,0,0,3.36,6.76,21,21,0,0,0,6.78,4.07,35.78,35.78,0,0,0,7,1.75,38.82,38.82,0,0,0,9.33.07,30.85,30.85,0,0,0,9.34-2.57,15.79,15.79,0,0,0,6.93-5.85,9,9,0,0,0,1.2-4l0-4a.94.94,0,0,0-.91-1Z" transform="translate(0 -0.2)"/><path class="cls-4" d="M90.39,99.25a8.47,8.47,0,0,1,2.86-6.31C99.08,87.17,112,85.27,122,88.69c6.9,2.35,10.66,6.6,10.44,10.9l-.07,9.74c-.41,4.43-3.87,7.08-7.58,8.93a30.94,30.94,0,0,1-11,2.67,35.84,35.84,0,0,1-11-1.05l-1-.27c-3.84-1.24-7.18-2.85-9.71-6.08A8.28,8.28,0,0,1,90.32,109Z" transform="translate(0 -0.2)"/><path class="cls-3" d="M92.18,112a6.6,6.6,0,0,1-.9-3l.07-9.74s0,0,0,0a7.53,7.53,0,0,1,2.56-5.6c5.61-5.53,18.06-7.33,27.77-4,6.25,2.13,10,5.94,9.79,10l-.06,9.64c-.31,3.33-2.55,5.92-7,8.16A29.78,29.78,0,0,1,113.7,120a35,35,0,0,1-10.76-1l-.93-.27c-3.3-1.06-6.7-2.49-9.23-5.71q-.34-.51-.6-1ZM122.3,87.78C112,84.26,98.64,86.27,92.57,92.26a9.42,9.42,0,0,0-3.14,7l-.06,9.79a9.15,9.15,0,0,0,1.87,5.06c2.88,3.68,6.76,5.31,10.21,6.42l1,.28a36.45,36.45,0,0,0,11.36,1.07,31.27,31.27,0,0,0,11.39-2.76c3.25-1.62,7.62-4.39,8.12-9.79l.06-9.69A8.45,8.45,0,0,0,132.22,95C130.52,92,127,89.4,122.3,87.78Z" transform="translate(0 -0.2)"/><path class="cls-4" d="M101.58,105.66c-9.34-3.18-12.49-10.11-7-15.48s17.41-7.14,26.75-4,12.5,10.11,7.06,15.49S110.92,108.84,101.58,105.66Z" transform="translate(0 -0.2)"/><path class="cls-3" d="M101.89,104.75h0c-4.87-1.66-8.21-4.51-8.93-7.64-.49-2.15.29-4.32,2.24-6.25,5.19-5.13,16.75-6.8,25.77-3.73,4.87,1.66,8.21,4.51,8.93,7.64.49,2.16-.28,4.32-2.23,6.25-5.2,5.12-16.76,6.8-25.78,3.73Zm19.7-19.44C112,82,99.51,83.91,93.85,89.5c-2.42,2.38-3.4,5.24-2.75,8,.87,3.83,4.58,7.12,10.18,9h0c9.62,3.28,22.07,1.4,27.73-4.19,2.42-2.38,3.4-5.24,2.76-8a8.64,8.64,0,0,0-.92-2.34C129.25,89.19,126,86.82,121.59,85.31Z" transform="translate(0 -0.2)"/><path class="cls-2" d="M119.6,203.46l-7.28-1.67c-.52.22-8.94,3-9.57,2.66l.53-80.41a35.18,35.18,0,0,0,16.85-.12Z" transform="translate(0 -0.2)"/><path class="cls-3" d="M118.65,202.27l-6.12-1.41a1.07,1.07,0,0,0-.59,0c-.65.27-6.06,2-8.23,2.5l.52-78.17a36.13,36.13,0,0,0,14.93-.11l-.51,77.14Zm2.07-79.11a1,1,0,0,0-.83-.17,34.38,34.38,0,0,1-16.38.11,1,1,0,0,0-.82.18,1,1,0,0,0-.37.75l-.53,80.42a1,1,0,0,0,.48.84c1.12.64,8.48-1.92,10.11-2.5l7,1.61a1,1,0,0,0,.82-.18,1,1,0,0,0,.36-.75l.52-79.55a.9.9,0,0,0-.12-.48A.92.92,0,0,0,120.72,123.16Z" transform="translate(0 -0.2)"/><polygon class="cls-2" points="130.87 196.4 112.99 226.2 110.56 227.56 119.6 203.27 130.87 196.4"/><path class="cls-3" d="M112.45,225.41l7.93-21.3,7.66-4.66-15.59,26Zm19.1-29.49a1,1,0,0,0-1.17-.14l-11.28,6.87a.94.94,0,0,0-.4.48l-9,24.29A1,1,0,0,0,111,228.6l2.42-1.37a.88.88,0,0,0,.35-.34l17.9-29.8a1,1,0,0,0,0-1A.83.83,0,0,0,131.55,195.92Z" transform="translate(0 -0.2)"/><path class="cls-5" d="M113,226.39a2.76,2.76,0,0,1-2.43,1.37,2.73,2.73,0,0,1-2.4-1.39l-16.51-28.3,11.1,6.38Z" transform="translate(0 -0.2)"/><path class="cls-3" d="M111.87,226.28a1.84,1.84,0,0,1-2.88-.4L94.28,200.7l7.72,4.43,9.87,21.15Zm-8.64-22.66-11.11-6.38a.94.94,0,0,0-1.15.15,1,1,0,0,0-.15,1.16l16.5,28.3a3.76,3.76,0,0,0,6.48,0,1,1,0,0,0,0-.9l-10.24-21.94,0-.07A1.1,1.1,0,0,0,103.23,203.62Z" transform="translate(0 -0.2)"/><path class="cls-4" d="M118.51,217.18,113,226.39a2.76,2.76,0,0,1-2.43,1.37,2.73,2.73,0,0,1-2.4-1.39l-5.25-9,4.09,1.49,5-4.39Z" transform="translate(0 -0.2)"/><path class="cls-3" d="M105.08,219.17l1.59.59a1,1,0,0,0,1-.18l4.56-4,4.93,2.06-5,8.27a1.75,1.75,0,0,1-1.58.89,1.77,1.77,0,0,1-1.58-.92l-3.91-6.71Zm13.8-2.87-6.5-2.71a.94.94,0,0,0-1,.16l-4.59,4-3.55-1.29a1,1,0,0,0-1.16,1.37h0l5.23,9a3.76,3.76,0,0,0,6.48,0l5.54-9.22a1,1,0,0,0,.08-.79.51.51,0,0,0-.07-.17A.9.9,0,0,0,118.88,216.3Z" transform="translate(0 -0.2)"/></g></g></svg>