<svg xmlns="http://www.w3.org/2000/svg" viewBox="0 0 228.32 228.32"><defs><style>.cls-1{fill:#3378c6;opacity:0.3;}.cls-2{fill:#9aceef;}.cls-2,.cls-4,.cls-5{stroke:#0072c8;stroke-linecap:round;stroke-linejoin:round;stroke-width:0.75px;}.cls-2,.cls-3,.cls-4,.cls-5{fill-rule:evenodd;}.cls-3{fill:none;}.cls-4{fill:#d9e8ff;}.cls-5{fill:#fff;}</style></defs><g id="Layer_2" data-name="Layer 2"><g id="Layer_1-2" data-name="Layer 1"><circle class="cls-1" cx="114.16" cy="114.16" r="114.16"/><path class="cls-2" d="M201.64,164.12l4.64-3.15a6.91,6.91,0,0,0,.93-3.75l0-74.79a17.25,17.25,0,0,0-7.83-13.54L94,8.12c-1.78-1-3.62-1.54-5.52-.54l-4.63,3.15c1.9-1,3.76-.44,5.53.54L194.74,72a17.31,17.31,0,0,1,7.82,13.54l0,74.79A7,7,0,0,1,201.64,164.12Z"/><path class="cls-3" d="M205.12,159.93a5.45,5.45,0,0,0,.59-2.71l0-74.75a15.71,15.71,0,0,0-7.06-12.27L93.27,9.43c-1.77-1-3-1.11-4-.6l-.65.44a10.45,10.45,0,0,1,1.46.69L195.52,70.75a18.91,18.91,0,0,1,8.54,14.83l0,74.83a1.69,1.69,0,0,0,0,.23l1-.71Zm-4.5,5.28a1.5,1.5,0,0,1-.27-1.86,5.51,5.51,0,0,0,.74-3l0-74.75A15.66,15.66,0,0,0,194,73.35L88.66,12.59c-1.76-1-3-1.12-4.1-.53A1.51,1.51,0,0,1,83,9.48l4.77-3.23c2.71-1.43,5.26-.38,7,.56l105.4,60.8a18.69,18.69,0,0,1,8.55,14.82l0,74.83a8.55,8.55,0,0,1-1.16,4.48,1.3,1.3,0,0,1-.46.47l-4.61,3.15a1.51,1.51,0,0,1-.86.27A1.47,1.47,0,0,1,200.62,165.21Z"/><path class="cls-4" d="M194.74,72,89.38,11.27c-4.31-2.49-7.82-.45-7.82,4.51l0,74.8c0,5,3.52,11,7.82,13.54l105.37,60.77c4.3,2.49,7.82.45,7.81-4.52l0-74.79C202.56,80.63,199,74.51,194.74,72Z"/><path class="cls-3" d="M194.74,72h0ZM85.9,11.72a2.59,2.59,0,0,0-1.29.31c-1,.57-1.54,1.94-1.54,3.75l0,74.8c0,4.42,3.24,10,7.07,12.23L195.53,163.6c1.58.89,3,1.09,4,.52s1.55-1.93,1.55-3.75l0-74.79c0-4.42-3.23-10-7.07-12.23h0L88.62,12.57a5.61,5.61,0,0,0-2.72-.85ZM194,166.2,88.66,105.42a18.73,18.73,0,0,1-8.58-14.84l0-74.8c0-2.95,1.09-5.22,3-6.36s4.46-.93,7,.54L195.49,70.74c4.73,2.72,8.57,9.38,8.57,14.84l0,74.79c0,3-1.09,5.22-3,6.37a5.6,5.6,0,0,1-2.8.73A8.59,8.59,0,0,1,194,166.2Z"/><path class="cls-5" d="M194.28,77.65l-27.76-16L89.85,17.41c-2-1.14-3.58-.21-3.58,2.08l0,72.82a7.89,7.89,0,0,0,3.58,6.19l86.52,49.91,17.9,10.33c2,1.13,3.58.22,3.58-2.07l0-72.82A7.92,7.92,0,0,0,194.28,77.65Z"/><path class="cls-3" d="M194.28,77.65h0Zm-106-59.21a.32.32,0,0,0-.19,0c-.14.07-.29.43-.29,1l0,72.82a6.47,6.47,0,0,0,2.81,4.89l104.44,60.24c.5.29.88.32,1,.24s.3-.42.3-1l0-72.82A6.46,6.46,0,0,0,193.52,79h0L89.09,18.72a1.85,1.85,0,0,0-.83-.28Zm105.3,141.61L89.13,99.81a9.47,9.47,0,0,1-4.34-7.5l0-72.82a4,4,0,0,1,1.81-3.63,4,4,0,0,1,4,.25L195,76.35a9.45,9.45,0,0,1,4.34,7.5l0,72.82a4,4,0,0,1-1.79,3.62,3.32,3.32,0,0,1-1.7.44A4.74,4.74,0,0,1,193.56,160.05Z"/><path class="cls-4" d="M9.23,149v5.72a6.19,6.19,0,0,0,3.13,3.61l105.78,61.1a15.82,15.82,0,0,0,7.32,1.84,16.18,16.18,0,0,0,8.37-1.86l64.95-37.56a6.23,6.23,0,0,0,3.13-3.63V172.5a6.19,6.19,0,0,1-3.13,3.61l-64.95,37.57a16.19,16.19,0,0,1-8.37,1.87,15.85,15.85,0,0,1-7.32-1.86L12.36,152.61A6.21,6.21,0,0,1,9.23,149Z"/><path class="cls-3" d="M200.4,178v-1.14c-.28.21-.58.39-.86.57l-65,37.58a17.34,17.34,0,0,1-9.17,2.06,17.54,17.54,0,0,1-8-2.06L11.58,153.89c-.28-.17-.57-.35-.85-.54v1.13A4.9,4.9,0,0,0,13.1,157l105.77,61.05a14,14,0,0,0,6.6,1.68,14.73,14.73,0,0,0,7.61-1.66L198,180.54A4.7,4.7,0,0,0,200.4,178Zm-75,44.78a17.17,17.17,0,0,1-8-2.06L11.58,159.61a7.69,7.69,0,0,1-3.79-4.48,1.48,1.48,0,0,1-.07-.42V149A1.51,1.51,0,0,1,9,147.5a1.55,1.55,0,0,1,1.66,1.07,4.64,4.64,0,0,0,2.42,2.73l105.77,61.07a14,14,0,0,0,6.6,1.67,14.25,14.25,0,0,0,7.61-1.67L198,174.83a4.68,4.68,0,0,0,2.45-2.75,1.54,1.54,0,0,1,1.65-1.08,1.5,1.5,0,0,1,1.3,1.5v5.71a1.51,1.51,0,0,1,0,.42,7.71,7.71,0,0,1-3.82,4.5l-65,37.58a17.44,17.44,0,0,1-8.8,2.06Z"/><path class="cls-2" d="M198.78,167,93,106c-4.33-2.5-11.39-2.5-15.69,0L12.36,143.53C8,146,8,150.11,12.36,152.61l105.78,61.08c4.32,2.49,11.38,2.49,15.69,0l64.95-37.57C203.1,173.61,203.1,169.53,198.78,167Z"/><path class="cls-3" d="M198.78,167h0Zm-.75,1.31h0L92.24,107.26c-3.84-2.22-10.34-2.22-14.17,0L13.12,144.83c-1.59.92-2.5,2.1-2.5,3.24s.91,2.32,2.48,3.23l105.79,61.09c3.85,2.21,10.35,2.21,14.19,0L198,174.8c1.59-.9,2.48-2.08,2.48-3.22s-.9-2.32-2.48-3.24ZM117.39,215,11.6,153.9c-2.57-1.48-4-3.55-4-5.83s1.42-4.35,4-5.84l65-37.58c4.74-2.74,12.45-2.74,17.2,0l105.79,61.09c2.56,1.48,4,3.56,4,5.84s-1.41,4.34-4,5.84L134.59,215a19,19,0,0,1-17.2,0Z"/><polygon class="cls-4" points="85.06 188.39 56.12 171.68 78.28 158.87 107.22 175.59 85.06 188.39"/><path class="cls-3" d="M104.21,175.59l-25.93-15L59.14,171.68l25.92,15,19.15-11.08ZM84.3,189.7,55.37,173a1.54,1.54,0,0,1-.74-1.31,1.51,1.51,0,0,1,.74-1.31l22.16-12.81a1.51,1.51,0,0,1,1.51,0L108,174.29a1.51,1.51,0,0,1,.76,1.3,1.48,1.48,0,0,1-.76,1.3L85.81,189.7a1.41,1.41,0,0,1-.75.2A1.47,1.47,0,0,1,84.3,189.7Z"/><path class="cls-4" d="M185.54,169.16q-48.1-27.76-96.16-55.55a9.33,9.33,0,0,0-8.38,0L48.22,132.57c-2.29,1.34-2.29,3.51,0,4.85L144.39,193a9.22,9.22,0,0,0,8.37,0L185.54,174C187.85,172.67,187.83,170.49,185.54,169.16Z"/><path class="cls-3" d="M185.54,169.16l-.76,1.3L88.62,114.91a7.89,7.89,0,0,0-6.87,0L49,133.88c-.6.35-1,.77-1,1.12s.38.76,1,1.11l96.16,55.55a7.89,7.89,0,0,0,6.87,0l32.77-19c.61-.36,1-.78,1-1.12s-.37-.77-1-1.12l.76-1.3Zm-41.89,25.1L47.48,138.72a4,4,0,0,1,0-7.45l32.79-19a10.75,10.75,0,0,1,9.87,0l96.15,55.55a4,4,0,0,1,0,7.44l-32.78,19a10.75,10.75,0,0,1-9.87,0Z"/><path class="cls-5" d="M143.32,163.84l-4.72-2.73a3.83,3.83,0,0,0-3.46,0l-4.73,2.73a1.06,1.06,0,0,0,0,2l4.74,2.73a3.81,3.81,0,0,0,3.45,0l4.72-2.73A1.06,1.06,0,0,0,143.32,163.84Z"/><path class="cls-3" d="M142,164.84l-4.2-2.42a2.37,2.37,0,0,0-2,0l-4.18,2.42,4.18,2.42a2.37,2.37,0,0,0,2,0l4.2-2.42Zm-7.64,5-4.74-2.73a2.69,2.69,0,0,1-1.46-2.3,2.72,2.72,0,0,1,1.46-2.31l4.72-2.72a5.31,5.31,0,0,1,5,0l4.74,2.72h0a2.68,2.68,0,0,1,1.46,2.31,2.65,2.65,0,0,1-1.46,2.29l-4.73,2.74a5.25,5.25,0,0,1-4.95,0Z"/><path class="cls-5" d="M161.9,174.56l4.71,2.73a1.06,1.06,0,0,1,0,2L161.9,182a3.83,3.83,0,0,1-3.46,0l-4.73-2.73a1.06,1.06,0,0,1,0-2l4.73-2.73A3.86,3.86,0,0,1,161.9,174.56Z"/><path class="cls-3" d="M165.33,178.29l-4.19-2.42a2.37,2.37,0,0,0-1.95,0l-4.2,2.42,4.2,2.42a2.37,2.37,0,0,0,1.95,0l4.19-2.42Zm-7.65,5L153,180.59a2.66,2.66,0,0,1-1.48-2.3,2.72,2.72,0,0,1,1.46-2.31l4.73-2.73a5.33,5.33,0,0,1,5,0h0l4.73,2.73a2.68,2.68,0,0,1,1.47,2.31,2.71,2.71,0,0,1-1.46,2.3l-4.74,2.73a5.27,5.27,0,0,1-5,0Z"/><path class="cls-5" d="M150.25,181.28,155,184c1,.57,1,1.45,0,2l-4.73,2.73a3.79,3.79,0,0,1-3.44,0L142.08,186a1,1,0,0,1,0-2l4.72-2.75A3.9,3.9,0,0,1,150.25,181.28Z"/><path class="cls-3" d="M153.69,185l-4.19-2.42a2.37,2.37,0,0,0-1.95,0L143.36,185l4.19,2.42a2.37,2.37,0,0,0,1.95,0l4.19-2.44Zm-7.64,5.05-4.74-2.74a2.54,2.54,0,0,1,0-4.6L146,180a5.39,5.39,0,0,1,5,0h0l4.72,2.74a2.53,2.53,0,0,1,0,4.6L151,190.06a5.43,5.43,0,0,1-5,0Z"/><path class="cls-5" d="M158.43,168.57l-4.73-2.74a1,1,0,0,1,0-2l4.73-2.73a3.76,3.76,0,0,1,3.44,0l4.73,2.73a1.05,1.05,0,0,1,0,2l-4.72,2.74A3.81,3.81,0,0,1,158.43,168.57Z"/><path class="cls-3" d="M165.32,164.83l-4.19-2.42a2.45,2.45,0,0,0-1.95,0L155,164.84l4.19,2.42a2.37,2.37,0,0,0,1.95,0l4.19-2.43Zm-6.89,3.74h0Zm-.76,1.3h0l-4.73-2.74a2.53,2.53,0,0,1,0-4.6l4.73-2.72a5.37,5.37,0,0,1,5,0l4.74,2.74a2.54,2.54,0,0,1,0,4.6l-4.74,2.74a5.43,5.43,0,0,1-5,0Z"/><path class="cls-5" d="M146.78,161.84l-4.72-2.73a1.05,1.05,0,0,1,0-2l4.73-2.75a3.9,3.9,0,0,1,3.46,0l4.73,2.75c1,.53,1,1.43,0,2l-4.73,2.74A3.81,3.81,0,0,1,146.78,161.84Z"/><path class="cls-3" d="M153.67,158.1l-4.18-2.42a2.46,2.46,0,0,0-2,0l-4.18,2.43,4.2,2.42a2.29,2.29,0,0,0,2,0l4.18-2.43Zm-6.89,3.74h0Zm-.75,1.31h0l-4.73-2.74a2.54,2.54,0,0,1,0-4.6l4.72-2.73a5.33,5.33,0,0,1,5,0l4.73,2.73a2.68,2.68,0,0,1,1.47,2.29,2.71,2.71,0,0,1-1.47,2.31L151,163.15a4.94,4.94,0,0,1-2.47.61A5,5,0,0,1,146,163.15Z"/><path class="cls-5" d="M165.34,172.56l4.73,2.73a3.83,3.83,0,0,0,3.46,0l4.72-2.74a1,1,0,0,0,0-2l-4.74-2.75a3.79,3.79,0,0,0-3.44,0l-4.73,2.75A1,1,0,0,0,165.34,172.56Z"/><path class="cls-3" d="M177,171.55l-4.2-2.42a2.32,2.32,0,0,0-1.93,0l-4.19,2.43,4.19,2.43a2.35,2.35,0,0,0,1.94,0l4.19-2.44Zm-7.65,5-4.72-2.74a2.54,2.54,0,0,1,0-4.6l4.72-2.73a5.31,5.31,0,0,1,5,0l4.73,2.73a2.68,2.68,0,0,1,1.47,2.29,2.72,2.72,0,0,1-1.46,2.31l-4.73,2.74a5.37,5.37,0,0,1-5,0Z"/><path class="cls-5" d="M155,170.57l-4.73-2.73a3.77,3.77,0,0,0-3.46,0l-4.72,2.73a1.05,1.05,0,0,0,0,2l4.73,2.73a3.81,3.81,0,0,0,3.45,0l4.73-2.73A1.05,1.05,0,0,0,155,170.57Z"/><path class="cls-3" d="M153.69,171.56l-4.2-2.42a2.35,2.35,0,0,0-1.94,0l-4.2,2.42,4.2,2.43a2.37,2.37,0,0,0,1.95,0l4.19-2.43Zm-7.65,5-4.74-2.73a2.71,2.71,0,0,1-1.46-2.31,2.68,2.68,0,0,1,1.46-2.29l4.74-2.74a5.3,5.3,0,0,1,4.94,0l4.74,2.73h0a2.54,2.54,0,0,1,0,4.6L151,176.6a5.35,5.35,0,0,1-5,0Z"/><path class="cls-5" d="M120,150.39l-4.73-2.73a3.83,3.83,0,0,0-3.46,0l-4.72,2.74a1.05,1.05,0,0,0,0,2l4.72,2.73a3.83,3.83,0,0,0,3.46,0l4.73-2.73A1.06,1.06,0,0,0,120,150.39Z"/><path class="cls-3" d="M120,150.39h0Zm-1.29,1L114.56,149a2.37,2.37,0,0,0-2,0l-4.19,2.42,4.19,2.42a2.37,2.37,0,0,0,2,0l4.19-2.42Zm-7.64,5-4.73-2.72a2.54,2.54,0,0,1,0-4.6l4.72-2.74a5.33,5.33,0,0,1,5,0l4.73,2.72a2.7,2.7,0,0,1,1.46,2.31,2.67,2.67,0,0,1-1.46,2.29l-4.72,2.74a5.27,5.27,0,0,1-5,0Z"/><path class="cls-5" d="M108.39,157.13l-4.72-2.74a3.83,3.83,0,0,0-3.46,0l-4.71,2.74a1.05,1.05,0,0,0,0,2l4.72,2.72a3.77,3.77,0,0,0,3.46,0l4.73-2.74C109.36,158.58,109.36,157.67,108.39,157.13Z"/><path class="cls-3" d="M108.39,157.13h0Zm-1.27,1-4.19-2.42a2.47,2.47,0,0,0-2,0l-4.19,2.44,4.2,2.42a2.37,2.37,0,0,0,2,0l4.19-2.44Zm-7.65,5-4.73-2.73a2.53,2.53,0,0,1,0-4.6l4.72-2.74a5.39,5.39,0,0,1,5,0l4.72,2.74a2.54,2.54,0,0,1,0,4.6l-4.71,2.73a5,5,0,0,1-2.5.61A4.92,4.92,0,0,1,99.47,163.15Z"/><path class="cls-5" d="M135.14,155.12l-4.74-2.74a1.05,1.05,0,0,1,0-2l4.73-2.73a3.83,3.83,0,0,1,3.46,0l4.73,2.72a1.06,1.06,0,0,1,0,2l-4.73,2.74A3.81,3.81,0,0,1,135.14,155.12Z"/><path class="cls-3" d="M142,151.38l-4.2-2.42a2.45,2.45,0,0,0-2,0l-4.18,2.43,4.18,2.42h0a2.35,2.35,0,0,0,1.94,0l4.2-2.43Zm-7.65,5-4.72-2.74a2.66,2.66,0,0,1-1.47-2.29,2.7,2.7,0,0,1,1.46-2.31l4.72-2.72a5.39,5.39,0,0,1,5,0l4.73,2.74a2.53,2.53,0,0,1,0,4.6l-4.73,2.74a5.27,5.27,0,0,1-5,0Z"/><path class="cls-5" d="M123.48,148.39l-4.72-2.73a1.05,1.05,0,0,1,0-2l4.72-2.73a3.83,3.83,0,0,1,3.46,0l4.73,2.73a1,1,0,0,1,0,2l-4.73,2.74A3.83,3.83,0,0,1,123.48,148.39Z"/><path class="cls-3" d="M130.38,144.65l-4.19-2.42a2.37,2.37,0,0,0-2,0l-4.19,2.44,4.19,2.42a2.37,2.37,0,0,0,2,0l4.19-2.44Zm-6.9,3.74h0Zm-.74,1.31h0L118,147a2.54,2.54,0,0,1,0-4.6l4.73-2.73a5.33,5.33,0,0,1,5,0l4.73,2.73a2.53,2.53,0,0,1,0,4.6l-4.73,2.74a5.35,5.35,0,0,1-5,0Z"/><path class="cls-5" d="M131.68,157.12,127,154.39a3.81,3.81,0,0,0-3.45,0l-4.73,2.73a1.05,1.05,0,0,0,0,2l4.73,2.73a3.81,3.81,0,0,0,3.45,0l4.73-2.73A1.05,1.05,0,0,0,131.68,157.12Z"/><path class="cls-3" d="M131.68,157.12h0Zm-1.28,1-4.2-2.42a2.37,2.37,0,0,0-2,0l-4.2,2.42,4.2,2.42a2.37,2.37,0,0,0,2,0l4.2-2.44Zm-7.65,5L118,160.42a2.7,2.7,0,0,1-1.48-2.31,2.67,2.67,0,0,1,1.47-2.29l4.72-2.74a5.33,5.33,0,0,1,5,0l4.73,2.73a2.54,2.54,0,0,1,0,4.6l-4.73,2.74a5.35,5.35,0,0,1-5,0Z"/><path class="cls-5" d="M143.34,177.3l-28-16.19a3.83,3.83,0,0,0-3.46,0l-4.73,2.74a1.06,1.06,0,0,0,0,2l28,16.18a3.9,3.9,0,0,0,3.46,0l4.73-2.74A1.05,1.05,0,0,0,143.34,177.3Z"/><path class="cls-3" d="M142,178.29l-27.48-15.87a2.35,2.35,0,0,0-1.94,0l-4.18,2.43,27.47,15.87a2.37,2.37,0,0,0,2,0l4.18-2.43Zm-7.63,5.05-28-16.2a2.53,2.53,0,0,1,0-4.59l4.73-2.73a5.31,5.31,0,0,1,5,0l28,16.18h0a2.68,2.68,0,0,1,1.46,2.3,2.64,2.64,0,0,1-1.46,2.3l-4.72,2.75a5.43,5.43,0,0,1-5,0Z"/><path class="cls-5" d="M81.33,128l-4.72-2.73a3.9,3.9,0,0,0-3.46,0L68.42,128a1,1,0,0,0,0,2l4.72,2.73a3.77,3.77,0,0,0,3.46,0L81.33,130A1.06,1.06,0,0,0,81.33,128Z"/><path class="cls-3" d="M81.33,128h0Zm-1.28,1-4.2-2.44a2.45,2.45,0,0,0-1.95,0L69.72,129l4.18,2.42a2.37,2.37,0,0,0,1.95,0l4.2-2.42Zm-7.66,5-4.71-2.72a2.54,2.54,0,0,1,0-4.61L72.39,124a5.28,5.28,0,0,1,5,0l4.74,2.73A2.71,2.71,0,0,1,83.55,129a2.67,2.67,0,0,1-1.46,2.29l-4.73,2.73a4.87,4.87,0,0,1-2.47.62A5,5,0,0,1,72.39,134.05Z"/><path class="cls-5" d="M69.69,134.75,65,132a3.79,3.79,0,0,0-3.44,0l-4.73,2.75c-1,.55-1,1.43,0,2l4.74,2.74a3.82,3.82,0,0,0,3.44,0l4.73-2.73A1.06,1.06,0,0,0,69.69,134.75Z"/><path class="cls-3" d="M69.69,134.75h0Zm-1.28,1-4.19-2.43a2.45,2.45,0,0,0-1.95,0l-4.18,2.44,4.18,2.42a2.37,2.37,0,0,0,1.95,0l4.19-2.43Zm-7.64,5L56,138.06a2.53,2.53,0,0,1,0-4.6l4.72-2.73a5.33,5.33,0,0,1,5,0l4.72,2.73a2.68,2.68,0,0,1,1.47,2.3,2.72,2.72,0,0,1-1.46,2.31l-4.73,2.73a5.35,5.35,0,0,1-5,0Z"/><path class="cls-5" d="M84.79,126l-4.74-2.74a1.06,1.06,0,0,1,0-2l4.74-2.73a3.79,3.79,0,0,1,3.44,0L93,121.29a1.06,1.06,0,0,1,0,2L88.25,126A3.9,3.9,0,0,1,84.79,126Z"/><path class="cls-3" d="M91.68,122.29l-4.2-2.42a2.32,2.32,0,0,0-1.93,0l-4.19,2.43,4.19,2.42h0a2.35,2.35,0,0,0,1.94,0l4.19-2.43Zm-7.65,5L79.3,124.6a2.54,2.54,0,0,1,0-4.6L84,117.27a5.28,5.28,0,0,1,5,0L93.73,120a2.55,2.55,0,0,1,0,4.61L89,127.32a5,5,0,0,1-2.47.62A5.05,5.05,0,0,1,84,127.32Z"/><path class="cls-5" d="M93,134.75,88.25,132a3.83,3.83,0,0,0-3.46,0l-4.73,2.73a1.06,1.06,0,0,0,0,2l4.73,2.73a3.83,3.83,0,0,0,3.46,0L93,136.75A1.06,1.06,0,0,0,93,134.75Z"/><path class="cls-3" d="M93,134.75h0Zm-1.3,1-4.19-2.43a2.42,2.42,0,0,0-1.94,0l-4.19,2.43,4.19,2.42a2.27,2.27,0,0,0,1.94,0l4.19-2.42Zm-7.65,5-4.71-2.73a2.68,2.68,0,0,1-1.47-2.31,2.63,2.63,0,0,1,1.46-2.29L84,130.72a5.34,5.34,0,0,1,5,0l4.74,2.73a2.68,2.68,0,0,1,1.46,2.3,2.74,2.74,0,0,1-1.46,2.31L89,140.79a5.37,5.37,0,0,1-5,0Z"/><path class="cls-5" d="M81.33,141.48l-4.72-2.73a3.83,3.83,0,0,0-3.46,0l-4.72,2.74a1,1,0,0,0,0,2l4.73,2.74a3.83,3.83,0,0,0,3.46,0l4.72-2.74A1.06,1.06,0,0,0,81.33,141.48Z"/><path class="cls-3" d="M81.33,141.48h0Zm-1.28,1-4.2-2.43a2.37,2.37,0,0,0-1.95,0l-4.18,2.44,4.18,2.42a2.43,2.43,0,0,0,2,0l4.19-2.43Zm-7.64,5-4.73-2.73a2.54,2.54,0,0,1,0-4.6l4.71-2.74a5.36,5.36,0,0,1,5,0l4.73,2.73a2.55,2.55,0,0,1,0,4.61l-4.73,2.74a5.07,5.07,0,0,1-2.47.6A5,5,0,0,1,72.41,147.51Z"/><path class="cls-5" d="M108.08,139.48l-4.74-2.73a1.06,1.06,0,0,1,0-2l4.74-2.74a3.79,3.79,0,0,1,3.44,0l4.73,2.73a1.06,1.06,0,0,1,0,2l-4.73,2.74A3.79,3.79,0,0,1,108.08,139.48Z"/><path class="cls-3" d="M115,135.74l-4.2-2.42a2.37,2.37,0,0,0-2,0l-4.19,2.43,4.19,2.42a2.37,2.37,0,0,0,2,0l4.2-2.43Zm-6.89,3.74h0Zm-.76,1.29h0L102.58,138a2.53,2.53,0,0,1,0-4.59l4.74-2.73a5.31,5.31,0,0,1,5,0l4.72,2.72a2.54,2.54,0,0,1,0,4.61l-4.74,2.73a5.27,5.27,0,0,1-5,0Z"/><path class="cls-5" d="M96.43,132.75,91.69,130a1.06,1.06,0,0,1,0-2l4.73-2.73a3.87,3.87,0,0,1,3.46,0L104.6,128a1.05,1.05,0,0,1,0,2l-4.72,2.74A3.88,3.88,0,0,1,96.43,132.75Z"/><path class="cls-3" d="M103.31,129l-4.19-2.42a2.35,2.35,0,0,0-1.94,0L93,129l4.19,2.42h0a2.32,2.32,0,0,0,1.93,0l4.19-2.44Zm-7.63,5-4.74-2.73a2.54,2.54,0,0,1,0-4.6L95.68,124a5.29,5.29,0,0,1,4.95,0l4.73,2.73a2.53,2.53,0,0,1,0,4.6l-4.73,2.73a5.25,5.25,0,0,1-4.95,0Z"/><path class="cls-5" d="M104.6,141.48l-4.72-2.73a3.81,3.81,0,0,0-3.45,0l-4.74,2.73c-.94.55-.94,1.44,0,2l4.72,2.72a3.83,3.83,0,0,0,3.46,0l4.73-2.72A1.06,1.06,0,0,0,104.6,141.48Z"/><path class="cls-3" d="M103.32,142.48,99.12,140a2.36,2.36,0,0,0-1.93,0L93,142.48l4.19,2.43a2.37,2.37,0,0,0,2,0l4.18-2.43Zm-7.64,5L91,144.78a2.69,2.69,0,0,1-1.46-2.3,2.66,2.66,0,0,1,1.45-2.3l4.74-2.74a5.29,5.29,0,0,1,4.95,0l4.73,2.73h0a2.55,2.55,0,0,1,0,4.61l-4.72,2.73a5.37,5.37,0,0,1-5,0Z"/><path class="cls-5" d="M93,148.2l-4.73-2.73a3.83,3.83,0,0,0-3.46,0l-4.73,2.74a1.05,1.05,0,0,0,0,2l4.71,2.74a3.86,3.86,0,0,0,3.47,0L93,150.2A1.06,1.06,0,0,0,93,148.2Z"/><path class="cls-3" d="M91.69,149.2l-4.2-2.42a2.35,2.35,0,0,0-1.94,0l-4.19,2.43,4.19,2.42a2.27,2.27,0,0,0,1.94,0l4.2-2.43Zm-7.66,5-4.71-2.72a2.67,2.67,0,0,1-1.47-2.3,2.7,2.7,0,0,1,1.46-2.3L84,144.18a5.31,5.31,0,0,1,5,0l4.74,2.73h0a2.54,2.54,0,0,1,0,4.6L89,154.23a4.76,4.76,0,0,1-2.47.63A4.89,4.89,0,0,1,84,154.23Z"/><path class="cls-2" d="M125.37,221.26v-5.71h.09a16.21,16.21,0,0,0,8.37-1.87l64.95-37.57a6.19,6.19,0,0,0,3.13-3.61v5.71a6.26,6.26,0,0,1-3.13,3.63L133.83,219.4a16.2,16.2,0,0,1-8.37,1.86Z"/><path class="cls-3" d="M200.4,178v-1.13c-.28.21-.58.39-.86.57l-65,37.58a16.93,16.93,0,0,1-7.68,2v2.72a13.94,13.94,0,0,0,6.2-1.64L198,180.54A4.77,4.77,0,0,0,200.4,178Zm-75,43.28h0Zm0,1.51h-.09a1.5,1.5,0,0,1-1.42-1.51v-5.71a1.5,1.5,0,0,1,.49-1.08,1.81,1.81,0,0,1,1.11-.43,14.42,14.42,0,0,0,7.61-1.67L198,174.82a4.68,4.68,0,0,0,2.45-2.74,1.51,1.51,0,0,1,2.95.42v5.71a1,1,0,0,1-.07.42,7.68,7.68,0,0,1-3.8,4.5l-65,37.58a17.34,17.34,0,0,1-8.8,2.06Z"/><path class="cls-2" d="M39.72,140.34l3.35-1.86,0-2.91-2.78-1.66a3.83,3.83,0,0,1-1.93-3.41l0-1.5a1.76,1.76,0,0,1,.85-1.44l79.41-44.28a1.84,1.84,0,0,1,1.68,0l55.16,33c5.72,3.33,13.1,15.87,6,20.15l-79.4,44.28-.35.08c-2.88,1.18-5.88-1.2-8.27-2.65q-26.4-15.69-52.83-31.5a3.91,3.91,0,0,1-1.9-3.43l.06-1.42a1.59,1.59,0,0,1,.86-1.44Z"/><path class="cls-3" d="M40.21,144.66a2.44,2.44,0,0,0,1,1L94.06,177.2c.34.24.71.46,1.13.76,2,1.25,4.24,2.65,6.19,1.88l.38-.2L181,135.46a4.67,4.67,0,0,0,2.37-4.52c0-4.89-4.62-11.52-8.36-13.71l-55.18-33a.55.55,0,0,0-.62,0L39.83,128.54a.55.55,0,0,0-.3.48v1.51A2.67,2.67,0,0,0,40.88,133l2.77,1.66a1,1,0,0,1,.54,1l0,2.8a1.08,1.08,0,0,1-.57,1l-3.38,1.89a.5.5,0,0,0-.29.48v1.5a2.64,2.64,0,0,0,.32,1.42Zm143-21.52a16.55,16.55,0,0,1,2.35,7.76,7.07,7.07,0,0,1-3.42,6.5l-80,44.49c-2.91,1.19-5.8-.61-8.11-2.1-.37-.22-.72-.46-1.09-.68L40.12,147.6a5.07,5.07,0,0,1-2.46-4.4l.06-1.42a2.64,2.64,0,0,1,1.43-2.4L42,137.82l0-1.63-2.23-1.32a5,5,0,0,1-2.46-4.4l0-1.5a2.69,2.69,0,0,1,1.44-2.3l79.41-44.28a2.64,2.64,0,0,1,2.7,0l55.21,33A21.52,21.52,0,0,1,183.17,123.14Z"/><path class="cls-2" d="M94.53,172.13C76.79,161.53,59.09,151,41.37,140.38a1.58,1.58,0,0,0-1.65,0l5.86-3.26,50.77,30.3A5.63,5.63,0,0,1,99.4,172a1.57,1.57,0,0,1-1.3,1.58C96.92,173.9,95.64,172.8,94.53,172.13Z"/><path class="cls-3" d="M94.53,172.13l0-.08,0,.08ZM42.68,139.87,95.1,171.18h0c.19.1.44.29.64.38.71.46,1.6,1,2.1,1a.55.55,0,0,0,.46-.57c0-2-1.92-3.31-2.56-3.7l-50.2-30-2.86,1.6Zm57.06,29.36a5.61,5.61,0,0,1,.75,2.78,2.64,2.64,0,0,1-2.14,2.59c-1.43.37-2.73-.51-3.79-1.2l-.57-.32L40.76,141.26a.56.56,0,0,0-.57,0,1.07,1.07,0,0,1-1.44-.37h0a1.1,1.1,0,0,1,.43-1.53L45,136.1a1.05,1.05,0,0,1,1.12,0l50.76,30.31A7.53,7.53,0,0,1,99.74,169.23Z"/><path class="cls-2" d="M83.84,153.22,93.48,159c3,1.76,4.89,2.61,7.14,5.3a17.84,17.84,0,0,1,4.25,11c-.09,3.79-2.24,6.16-5.22,5.9l-.86-.16A13.17,13.17,0,0,1,95,179.05l-.81-.5-6.94-4.14h0L40.67,146.65a3.91,3.91,0,0,1-1.9-3.43l.06-1.42a1.69,1.69,0,0,1,2.54-1.42L95.2,172.51c1,.61,2,1.44,3.23,1a1.73,1.73,0,0,0,1-1.5,5.63,5.63,0,0,0-3.05-4.6l-56-33.47a3.83,3.83,0,0,1-1.93-3.41l0-1.5a1.76,1.76,0,0,1,.85-1.44,1.78,1.78,0,0,1,1.68,0Z"/><path class="cls-3" d="M40.21,144.66a2.44,2.44,0,0,0,1,1l55,32.87a11.88,11.88,0,0,0,2.87,1.39,6.18,6.18,0,0,0,.68.16,3.69,3.69,0,0,0,2.48-.85,5.2,5.2,0,0,0,1.5-4,16.78,16.78,0,0,0-9.44-14.49l-11-6.56h0L40.4,128.54a.53.53,0,0,0-.57,0,.55.55,0,0,0-.3.48v1.51A2.67,2.67,0,0,0,40.88,133l56,33.46a6.6,6.6,0,0,1,3.58,5.58,2.71,2.71,0,0,1-1.66,2.43,3.93,3.93,0,0,1-3.75-.69l-.42-.3-53.9-32.19a.78.78,0,0,0-.57,0,.76.76,0,0,0-.29.48v1.5a2.64,2.64,0,0,0,.32,1.42Zm63.38,22a17.49,17.49,0,0,1,2.35,8.61,7.64,7.64,0,0,1-2.21,5.62,5.54,5.54,0,0,1-4.17,1.36,5.14,5.14,0,0,1-1-.18,12.2,12.2,0,0,1-3.5-1.69l-8.4-5L40.12,147.6a5.07,5.07,0,0,1-2.46-4.4l.06-1.42a2.64,2.64,0,0,1,1.43-2.4,2.58,2.58,0,0,1,2.75.07l54.38,32.46c.84.49,1.24.7,1.69.55a.6.6,0,0,0,.33-.5c0-2-1.92-3.31-2.56-3.7l-56-33.39a5,5,0,0,1-2.46-4.4l0-1.5a2.69,2.69,0,0,1,1.44-2.3,2.76,2.76,0,0,1,2.75,0l53.91,32.19a19.92,19.92,0,0,1,6,4.74A22.9,22.9,0,0,1,103.59,166.66Z"/><path class="cls-5" d="M43.12,135.57l0,2.91,56.3,33.63,0-.13c0-2-1.47-3.66-3.05-4.6Z"/><path class="cls-3" d="M44.18,137.86l53.15,31.75a7.23,7.23,0,0,0-1.59-1.35L44.16,137.44l0,.42Zm55.56,31.37a5.38,5.38,0,0,1,.75,2.78,1.35,1.35,0,0,1-.59,1,1,1,0,0,1-1.07.06l-56.37-33.7a1,1,0,0,1-.5-.89l0-2.91a1.05,1.05,0,0,1,.57-1,1,1,0,0,1,1.08,0l53.26,31.8A7.53,7.53,0,0,1,99.74,169.23Z"/><path class="cls-5" d="M40,121.29l3.36-1.87,0-2.91-2.79-1.64a3.83,3.83,0,0,1-1.91-3.42l0-1.42a1.61,1.61,0,0,1,.86-1.44L119,64.31a1.54,1.54,0,0,1,1.66,0l55.14,32.88c5.79,3.4,13.06,15.89,6,20.15L102.4,161.66l-.3.17a4.31,4.31,0,0,1-2.34.24c-1.77-.19-3.24-1.3-4.75-2.16q-27-16.17-54-32.32a3.71,3.71,0,0,1-1.86-3.34l0-1.51A1.58,1.58,0,0,1,40,121.3Z"/><path class="cls-3" d="M40.5,125.6a2.38,2.38,0,0,0,1,1l54.86,32.83A10.09,10.09,0,0,0,99.92,161a3.9,3.9,0,0,0,1.75-.23l.42-.13,79.22-44.17a4.94,4.94,0,0,0,2.32-4.61c0-4.89-4.62-11.52-8.35-13.7l-55.19-33a.58.58,0,0,0-.64,0L40.11,109.48a.56.56,0,0,0-.29.49v1.5a2.65,2.65,0,0,0,1.36,2.44l2.76,1.66a1.05,1.05,0,0,1,.55,1l0,2.91a1.25,1.25,0,0,1-.54.94l-3.38,1.88a.52.52,0,0,0-.29.49l-.06,1.42a2.59,2.59,0,0,0,.33,1.41Zm143-21.52a16.67,16.67,0,0,1,2.35,7.76,7.07,7.07,0,0,1-3.43,6.5l-80,44.49a5.94,5.94,0,0,1-2.77.37,11,11,0,0,1-4.43-1.91l-.78-.52-54-32.23a4.89,4.89,0,0,1-2.4-4.32v-1.5a2.81,2.81,0,0,1,1.43-2.39l2.81-1.57,0-1.63-2.23-1.32a4.93,4.93,0,0,1-2.45-4.4l.06-1.42a2.8,2.8,0,0,1,1.4-2.38l79.41-44.28a2.85,2.85,0,0,1,2.69,0l55.21,33A21.51,21.51,0,0,1,183.46,104.08Z"/><path class="cls-4" d="M95.62,153.59q-27-16.17-54-32.25a1.51,1.51,0,0,0-1.63,0L45.86,118l50.77,30.31a5.65,5.65,0,0,1,3.06,4.59,1.59,1.59,0,0,1-1.32,1.59C97.32,154.78,96.52,154.05,95.62,153.59Z"/><path class="cls-3" d="M96.19,152.63l.47.27c.72.46,1.09.68,1.45.58s.45-.35.46-.58c.05-1.94-1.91-3.31-2.5-3.62l-50.2-30L43,120.89l53.18,31.74Zm3.84-2.46a5.66,5.66,0,0,1,.74,2.79,2.78,2.78,0,0,1-2.09,2.66,4.16,4.16,0,0,1-3.22-.87l-.41-.31h0l-54-32.16a.56.56,0,0,0-.57,0,1.14,1.14,0,0,1-1.49-.45h0a1.09,1.09,0,0,1,.43-1.52L45.32,117a1.06,1.06,0,0,1,1.11,0L97.2,147.37A7.83,7.83,0,0,1,100,150.17Z"/><path class="cls-5" d="M84.13,134.16l10.11,6c2.34,1.47,4.29,2.41,6.17,4.46a17.86,17.86,0,0,1,4.74,11.56c0,3.54-1.91,5.87-4.55,5.95-2.1.1-3.61-1.08-5.26-2.08l-4.66-2.75C74.13,147.42,57.52,137.47,41,127.59a3.71,3.71,0,0,1-1.86-3.34l0-1.51a1.65,1.65,0,0,1,2.51-1.4q26.65,15.89,53.21,31.72c1.19.73,2.62,2,3.88,1.36a1.73,1.73,0,0,0,1-1.5,5.65,5.65,0,0,0-3.06-4.59l-56-33.46a3.83,3.83,0,0,1-1.91-3.42l0-1.42a1.61,1.61,0,0,1,.86-1.44,1.57,1.57,0,0,1,1.68,0Z"/><path class="cls-3" d="M40.5,125.6a2.23,2.23,0,0,0,1,1l55.06,32.93c1.31.77,2.47,1.51,3.94,1.43,2.12,0,3.49-1.94,3.51-4.84a16.31,16.31,0,0,0-4.44-10.76,19.58,19.58,0,0,0-4.94-3.65l-11.11-6.62h0L40.68,109.49a.53.53,0,0,0-.57,0,.56.56,0,0,0-.29.49v1.5a2.65,2.65,0,0,0,1.36,2.44l56,33.46c2.29,1.39,3.61,3.43,3.57,5.59a2.74,2.74,0,0,1-1.59,2.49c-1.63.69-3.2-.35-4.28-1l-.63-.4L41.09,122.28a.56.56,0,0,0-.57,0,.52.52,0,0,0-.29.49l-.06,1.42a2.59,2.59,0,0,0,.33,1.41Zm63.37,22a17.64,17.64,0,0,1,2.36,8.61c0,4.08-2.31,6.85-5.61,7a8.5,8.5,0,0,1-5.21-1.79l-5.29-3.14L40.4,128.54a4.89,4.89,0,0,1-2.4-4.32v-1.5a2.81,2.81,0,0,1,1.43-2.39,2.78,2.78,0,0,1,2.76.06l53.27,31.8a5,5,0,0,1,.64.39c.78.52,1.67,1.09,2.15.82a.56.56,0,0,0,.32-.5c.05-1.94-1.91-3.31-2.5-3.62l-56-33.47a4.93,4.93,0,0,1-2.45-4.4l.06-1.42a2.8,2.8,0,0,1,1.4-2.38,2.88,2.88,0,0,1,2.79,0l53.9,32.19a20.57,20.57,0,0,1,5.43,4A21.07,21.07,0,0,1,103.87,147.6Z"/><path class="cls-5" d="M43.4,116.51l0,2.91,56.29,33.63,0-.13c0-2-1.48-3.66-3.06-4.59Z"/><path class="cls-3" d="M44.47,118.8l53.15,31.75a5.69,5.69,0,0,0-1.55-1.27L44.49,118.47l0,.33ZM100,150.17a5.41,5.41,0,0,1,.74,2.79,1.44,1.44,0,0,1-.59,1,1,1,0,0,1-1.1.08L42.79,120.38a1.16,1.16,0,0,1-.54-1l0-2.91a1.08,1.08,0,0,1,1.64-.92l53.27,31.8A7.83,7.83,0,0,1,100,150.17Z"/><path class="cls-4" d="M40.49,102.22l3.36-1.87,0-2.9-2.77-1.66a3.89,3.89,0,0,1-1.91-3.42L39.27,91a1.59,1.59,0,0,1,.86-1.44l79.39-44.27a1.44,1.44,0,0,1,1.68,0l55.13,32.89c5.77,3.41,13,15.9,6,20.16L102.89,142.6l-.3.16a5.44,5.44,0,0,1-3.21.08,20.83,20.83,0,0,1-4.12-2.18q-26.88-16.09-53.78-32.15a3.63,3.63,0,0,1-1.89-3.33l0-1.5a1.58,1.58,0,0,1,.86-1.45Z"/><path class="cls-3" d="M41.06,106.61a3,3,0,0,0,1,1l54.65,32.64a16,16,0,0,0,3,1.53,3.83,3.83,0,0,0,2.45-.08l.43-.14,79.18-44.25a4.71,4.71,0,0,0,2.37-4.53c0-4.8-4.58-11.43-8.36-13.7l-55.19-33c-.23-.09-.28-.06-.61,0L40.63,90.4a.51.51,0,0,0-.3.49v1.5a2.68,2.68,0,0,0,1.36,2.44l2.77,1.66a1.19,1.19,0,0,1,.55,1l0,2.91a1.22,1.22,0,0,1-.55,1L41,103.21a.54.54,0,0,0-.3.49l-.06,1.42a3.08,3.08,0,0,0,.4,1.49ZM184,85a17.74,17.74,0,0,1,2.42,7.83,7.26,7.26,0,0,1-3.5,6.44l-79.94,44.47a5.63,5.63,0,0,1-3.86.12,14.45,14.45,0,0,1-3.54-1.76l-.81-.51-53.8-32.14a4.72,4.72,0,0,1-2.41-4.32v-1.5a2.78,2.78,0,0,1,1.41-2.38l2.83-1.58,0-1.61-2.22-1.33a5,5,0,0,1-2.46-4.4l.06-1.42a2.6,2.6,0,0,1,1.43-2.39L119,44.26a2.7,2.7,0,0,1,2.72,0l55.18,33A21.51,21.51,0,0,1,184,85Z"/><path class="cls-4" d="M96,134.58,69.64,118.86h0L41.91,102.29a1.52,1.52,0,0,0-1.65,0L46.15,99l50.76,30.31a5.57,5.57,0,0,1,3,4.61,1.48,1.48,0,0,1-1.32,1.59C97.6,135.72,96.85,135.07,96,134.58Z"/><path class="cls-3" d="M96,134.58l0-.08,0,.08ZM43.29,101.84l53.27,31.8h0l.46.27c.71.46,1,.61,1.38.51s.47-.37.46-.57c0-1.95-1.94-3.3-2.51-3.62l-50.2-30-2.86,1.6Zm57.07,29.36a5.6,5.6,0,0,1,.69,2.71,2.81,2.81,0,0,1-2.12,2.67,4.07,4.07,0,0,1-3.12-.82l-.36-.22L41.37,103.23a.54.54,0,0,0-.56,0,1.14,1.14,0,0,1-1.49-.45h0a1,1,0,0,1,.44-1.42l5.89-3.28A1.14,1.14,0,0,1,46.72,98l50.76,30.31A7.94,7.94,0,0,1,100.36,131.2Z"/><path class="cls-4" d="M84.41,115.11l10.9,6.52a18.59,18.59,0,0,1,5.23,3.8,18,18,0,0,1,4.9,11.69c0,3.75-2.1,6.08-5,6-2-.05-3.84-1.49-5.55-2.46l-7.12-4.25h0L41.29,108.61a3.88,3.88,0,0,1-1.91-3.42l0-1.5a1.59,1.59,0,0,1,.86-1.44,1.56,1.56,0,0,1,1.65,0C59.65,112.9,77.33,123.43,95.07,134c1.14.64,2.5,1.81,3.77,1.42a1.64,1.64,0,0,0,1.11-1.58,5.57,5.57,0,0,0-3-4.61l-56-33.46A3.65,3.65,0,0,1,39,92.47V91a1.57,1.57,0,0,1,.86-1.44,1.61,1.61,0,0,1,1.68,0Z"/><path class="cls-3" d="M40.83,106.63a2.68,2.68,0,0,0,1,1L96.4,140.23a9.08,9.08,0,0,0,4.13,1.76,3.34,3.34,0,0,0,2.35-.88,5.33,5.33,0,0,0,1.49-3.93,17,17,0,0,0-4.63-11,15.81,15.81,0,0,0-4.13-3.14l-11.77-7h0L41,90.51a.56.56,0,0,0-.57,0,.54.54,0,0,0-.29.48l0,1.51a2.52,2.52,0,0,0,1.32,2.36l56,33.46c2.26,1.4,3.61,3.43,3.57,5.59a2.63,2.63,0,0,1-1.9,2.55c-1.51.52-2.92-.4-4.05-1.16l-.6-.3L41.37,103.23a.54.54,0,0,0-.56,0,.48.48,0,0,0-.3.49l0,1.52a2.94,2.94,0,0,0,.36,1.4Zm63.37,22a17.3,17.3,0,0,1,2.32,8.54,7.46,7.46,0,0,1-2.12,5.55,5.08,5.08,0,0,1-4,1.46,10.52,10.52,0,0,1-5.21-2.11l-8-4.74L40.68,109.49a4.89,4.89,0,0,1-2.41-4.32l0-1.5a2.85,2.85,0,0,1,4.18-2.34l53.17,31.75c.19.11.44.29.64.39.78.52,1.67,1.1,2.2.91a.42.42,0,0,0,.38-.53c0-1.95-1.94-3.3-2.51-3.62l-56-33.48a4.71,4.71,0,0,1-2.41-4.31l0-1.51a2.79,2.79,0,0,1,1.39-2.38,2.82,2.82,0,0,1,2.77.06l54.64,32.64a15.72,15.72,0,0,1,4.57,3.43A19.42,19.42,0,0,1,104.2,128.62Z"/><path class="cls-5" d="M43.65,97.47v2.89L99.93,134l0-.11c.1-2-1.45-3.68-3-4.61Z"/><path class="cls-3" d="M44.75,99.74,97.9,131.5a5.69,5.69,0,0,0-1.55-1.27L44.74,99.43v.31Zm55.61,31.46a5.1,5.1,0,0,1,.69,2.71,1.22,1.22,0,0,1-.55,1.05,1.12,1.12,0,0,1-1.13,0l-56.3-33.63a1.24,1.24,0,0,1-.55-1l0-2.91a1.22,1.22,0,0,1,.54-1,1.24,1.24,0,0,1,1.11,0l53.26,31.8A7.94,7.94,0,0,1,100.36,131.2Z"/><path class="cls-4" d="M40.81,89.13l78.71-43.89a1.44,1.44,0,0,1,1.68,0l55.13,32.89L96.79,122.51Z"/><path class="cls-3" d="M96.78,121.23l77.33-43.12-53.53-32c-.23-.09-.28-.06-.61,0L43,89.09l53.8,32.14Zm80.5-43.6a1.23,1.23,0,0,1,.17.54,1.33,1.33,0,0,1-.57,1L97.33,123.49a1.27,1.27,0,0,1-1.11,0L40.23,90a.88.88,0,0,1-.5-.9,1,1,0,0,1,.53-.94L119,44.26a2.7,2.7,0,0,1,2.72,0l55.18,33A1,1,0,0,1,177.28,77.63Z"/><path class="cls-3" d="M171.59,99.38a1.08,1.08,0,0,1-.4,1.5L113.64,133a1.08,1.08,0,0,1-1.49-.45,1.15,1.15,0,0,1,.4-1.5L170.1,98.93A1.14,1.14,0,0,1,171.59,99.38Z"/><path class="cls-3" d="M138.79,133.36a1.15,1.15,0,0,1-.42,1.52l-24.92,13.89a1.17,1.17,0,0,1-1.52-.43,1.1,1.1,0,0,1,.43-1.52l24.92-13.89A1.08,1.08,0,0,1,138.79,133.36Z"/><path class="cls-3" d="M146.93,132.88a1.09,1.09,0,0,1-.41,1.51l-33.18,18.5a1.07,1.07,0,0,1-1.49-.45,1,1,0,0,1,.45-1.42l33.18-18.51A1.08,1.08,0,0,1,146.93,132.88Z"/><path class="cls-3" d="M162.76,142.1a1.16,1.16,0,0,1-.43,1.52L113,171.1a1.12,1.12,0,0,1-1.48-.45,1.06,1.06,0,0,1,.39-1.5l49.29-27.49A1.1,1.1,0,0,1,162.76,142.1Z"/></g></g></svg>