<svg xmlns="http://www.w3.org/2000/svg" viewBox="0 0 228.32 228.32"><defs><style>.cls-1{fill:#3378c6;opacity:0.3;}.cls-2{fill:#fff;}.cls-2,.cls-4,.cls-5{stroke:#0072c8;stroke-linecap:round;stroke-linejoin:round;stroke-width:0.75px;}.cls-2,.cls-3,.cls-4,.cls-5{fill-rule:evenodd;}.cls-3{fill:none;}.cls-4{fill:#d9e8ff;}.cls-5{fill:#9aceef;}</style></defs><g id="Layer_2" data-name="Layer 2"><g id="Layer_1-2" data-name="Layer 1"><circle class="cls-1" cx="114.16" cy="114.16" r="114.16"/><path class="cls-2" d="M174.39,37.08a73.51,73.51,0,0,0-80.08-16A73.59,73.59,0,0,0,54.5,117.17a73.56,73.56,0,0,0,135.86,0,73.39,73.39,0,0,0-16-80.09Z"/><path class="cls-3" d="M122.43,16.77a72.27,72.27,0,0,0-27.62,139,73,73,0,0,0,55.28,0,72.34,72.34,0,0,0,39.15-94.41A71.17,71.17,0,0,0,173.51,38h0a71,71,0,0,0-23.42-15.72,72.49,72.49,0,0,0-27.66-5.47Zm0,147a73.74,73.74,0,0,1-28.57-5.67,74.73,74.73,0,0,1-40.48-40.48A74.82,74.82,0,0,1,93.86,20,75.44,75.44,0,0,1,151,20a74.78,74.78,0,0,1,0,138.14A73.93,73.93,0,0,1,122.43,163.77Z"/><path class="cls-4" d="M169.88,41.59A67.1,67.1,0,0,0,60.45,63.38,67,67,0,0,0,75,136.46,67.45,67.45,0,0,0,96.8,151a67.42,67.42,0,0,0,51.3,0,67.3,67.3,0,0,0,21.78-14.57,67.21,67.21,0,0,0,14.56-73.08A67.26,67.26,0,0,0,169.88,41.59Z"/><path class="cls-3" d="M122.43,23.22A65.42,65.42,0,0,0,75.89,42.47,66,66,0,0,0,56.6,89.05,66,66,0,0,0,97.25,149.9a66.64,66.64,0,0,0,50.39,0A65.82,65.82,0,0,0,122.43,23.22Zm0,134.14A68.36,68.36,0,0,1,96.31,25.87a68.17,68.17,0,0,1,74.44,14.86h0a67.79,67.79,0,0,1,20,48.32,68.25,68.25,0,0,1-68.32,68.31Z"/><path class="cls-5" d="M173.45,45.41c2.45,2.84,8.62,12,11.27,18.59a66.6,66.6,0,0,1,4.84,25.74,67.49,67.49,0,0,1-5.37,25.67,67.6,67.6,0,0,1-36.73,35.94c-3.29,1.31,6.1-9.81.29-15.94s-30.43,1-29.73-11.59,6.16-12.5,9.06-19.09,6.35-1.25,18.67-5.47,28.71-3.56,34-9.17-20.41,1.09-25.17-.1-5.71-6.87-9.11-6.69-1.47,6.34-5.29,7.49-14,3-14.63-1.36C123.2,72.76,136,78.05,136.83,77.14c3.38-3.93-4-7,.55-12.61s9.15-6.51,11.56-10.4-5.68-6.83-2-9.88S170.9,42.44,173.45,45.41Z"/><path class="cls-3" d="M133.14,102.35c-2.8,0-3.75.21-4.93,2.87a19.45,19.45,0,0,1-3.85,5.57c-2.42,2.72-4.7,5.32-5.12,13.1-.32,5.84,5.85,6.61,15.28,7.18,5.88.35,11.45.66,14.14,3.49,4.23,4.45,1.54,11,.07,14.58a1.93,1.93,0,0,0-.18.38,65.67,65.67,0,0,0,39.74-59.78,64.56,64.56,0,0,0-4.73-25.27C181,58,174.92,49,172.5,46.22h0c-2-2.35-21.35-3.75-24.72-1-.8.64-.83,1,.77,3,1.3,1.65,3,3.92,1.44,6.55a18.08,18.08,0,0,1-5.22,4.86,31.28,31.28,0,0,0-6.45,5.68c-2,2.37-1.25,4-.35,6,.85,1.87,1.86,4.14-.2,6.56-.56.66-1.44.59-2.74.45-1.95-.21-5-.49-6.79,1.4-1.61,1.68-2.07,4.87-1.4,9.46a1.29,1.29,0,0,0,.67.94c2.2,1.4,8.61.56,12.36-.56,1.16-.38,1.5-1.51,2-3.29s1-4.13,3.61-4.27c2.37-.07,3.7,1.57,5,3.22,1.2,1.47,2.46,3,4.46,3.49,1.57.4,6.75-.34,11.3-1,10.09-1.44,14.29-1.82,15.34.17.46.91.15,1.89-.87,3C177.23,94.58,170.16,95.7,162,97a99.24,99.24,0,0,0-15.87,3.43,33.41,33.41,0,0,1-12.32,1.89ZM147,152.66a1.43,1.43,0,0,1-1-.41c-.85-.88-.4-2,.45-4.06,1.33-3.22,3.57-8.62.45-11.91-2-2.13-7.35-2.45-12.5-2.73-8.47-.49-18.07-1.05-17.61-9.81s3.14-11.65,5.74-14.6a16.94,16.94,0,0,0,3.43-4.89c1.92-4.38,4.48-4.41,7.88-4.35a32.56,32.56,0,0,0,11.55-1.79,98.48,98.48,0,0,1,16.22-3.53c7.42-1.19,14.43-2.31,17.33-5.32,0-.05,0-.07.07-.11-2-.36-8.2.53-12.4,1.12-5.49.77-10.22,1.47-12.24.94-2.81-.7-4.46-2.72-5.79-4.34-1.19-1.46-2-2.41-3-2.31-.63,0-.87.46-1.33,2.39-.45,1.78-1.05,4.26-3.63,5-2.81.88-10.82,2.6-14.44.32a3.87,3.87,0,0,1-1.81-2.69c-.77-5.47-.1-9.22,2.09-11.53,2.63-2.77,6.69-2.37,8.83-2.16.28,0,.63.06.84.06.71-1,.35-1.92-.38-3.57-1-2.13-2.28-5.07.69-8.65a31.34,31.34,0,0,1,6.91-6.12c2-1.37,3.46-2.45,4.51-4.17.67-1,.11-2-1.26-3.67s-3.22-4.18-.38-6.49c4-3.29,25.07-2.31,28.18,1.3h0c2.49,2.9,8.79,12.21,11.49,18.9a68.48,68.48,0,0,1-37.92,89A2.52,2.52,0,0,1,147,152.66Z"/><path class="cls-5" d="M118,22.05A67.09,67.09,0,0,0,71.9,133.2a1.89,1.89,0,0,0,1.41.66,1.73,1.73,0,0,0,1.39-.55c4.48-5.19,17.41-8.73,18.28-15.52.67-5-7.67-7-9.88-11.59-2.48-5.18-.48-12.12-3.73-16.88-3.37-4.94-12.51-4.23-16-9.14-1.89-2.66-.5-6.65.51-9.76.43-1.37,2.07-2.18,3.47-2.52,9.14-2.31,15.31-1.23,27.43-6.45,5.84-2.56,2.61-5.88,5.21-6.93s6.58,6.68,10.54,3.25,7-20,8.44-23.77,6.65-.1,8,.7-2.45,8.23-.66,9.55,9.17-3.31,10.12-4.26c5.56-5.5,4.2-10.58,1-13.1s-12.67.85-18.16-4.31A1.84,1.84,0,0,0,118,22.05Z"/><path class="cls-3" d="M118,22.05h0Zm8.43,13.71h0Zm-8.3-12.44H118A65.82,65.82,0,0,0,72.85,132.4a.64.64,0,0,0,.49.21c.34,0,.42-.11.45-.15,1.86-2.13,4.94-3.92,8.16-5.8,4.59-2.71,9.35-5.47,9.81-9,.28-2-1.47-3.46-4.42-5.56-2.1-1.55-4.27-3.13-5.36-5.36-1.22-2.6-1.43-5.53-1.64-8.34-.21-3.11-.42-6.09-2-8.36S74,86.9,71,85.89c-3.25-1.09-6.61-2.2-8.57-5-2.17-3.08-.77-7.42.24-10.58l.11-.31c.7-2.17,3.25-3,4.34-3.33a80,80,0,0,1,9.14-1.64,61.32,61.32,0,0,0,18.1-4.76c2.87-1.23,3-2.5,3.22-3.78a3.4,3.4,0,0,1,2-3.16c1.73-.7,3.4.63,5,1.93,2.55,2,3.85,2.73,5.21,1.53,2.56-2.2,5.08-11.93,6.55-17.74.63-2.46,1.16-4.42,1.54-5.53a3.65,3.65,0,0,1,2.24-2.28c2.42-.84,5.5,1.05,7.15,2.07l.45.28c1.44.87.91,2.91.21,5.52-.34,1.27-1,3.65-.7,4.21,1.13.35,7.39-3.19,8.44-4.24,2.34-2.31,3.54-4.73,3.43-7a5.82,5.82,0,0,0-2.28-4.28c-.94-.72-3.21-.8-5.59-.84-4-.07-9-.17-12.65-3.54a.57.57,0,0,0-.45-.17ZM73.37,135.09h-.11A3.09,3.09,0,0,1,71,134,67.37,67.37,0,0,1,59.3,115.23a68.49,68.49,0,0,1,0-52.38A67.58,67.58,0,0,1,74.11,40.69a68.3,68.3,0,0,1,43.73-19.86,3.15,3.15,0,0,1,2.38.85c2.92,2.69,7.21,2.79,11,2.87,3,.06,5.5.1,7.1,1.4A8.15,8.15,0,0,1,141.51,32c.14,2.07-.48,5.29-4.13,8.86-.45.49-8.86,6.58-11.76,4.37-1.58-1.22-.88-3.88-.14-6.71a15.85,15.85,0,0,0,.63-2.94l-.21-.11c-1-.63-3.72-2.31-5-1.85-.21,0-.49.21-.7.8-.39,1-.88,3-1.47,5.28-2.21,8.58-4.42,16.5-7.35,19-3.16,2.69-6.27.17-8.38-1.51-.7-.56-2.09-1.7-2.52-1.53s-.34.17-.48,1.14c-.21,1.59-.53,4-4.7,5.75a63.4,63.4,0,0,1-18.77,4.95,74.18,74.18,0,0,0-8.85,1.6c-1.34.32-2.36,1-2.57,1.68l-.1.31c-.91,2.81-2.06,6.31-.59,8.38s4.34,3,7.35,4.06c3.3,1.12,6.73,2.24,8.65,5.07s2.17,6.28,2.42,9.6c.18,2.69.34,5.26,1.4,7.46.8,1.64,2.72,3,4.58,4.37,2.78,2,5.89,4.28,5.44,7.92-.64,4.73-5.93,7.84-11,10.82-3,1.78-6,3.46-7.57,5.32A3,3,0,0,1,73.37,135.09Z"/><path class="cls-4" d="M99,38c-1.28-.56-3.12-.08-4.34.53l-.4.23L40.38,69.86c-4.65,2.76-7.88,9.21-7.93,14.55l0,123.94c0,2.1.42,4.05,2.07,5.5l9.82,5.66c-1.65-1.43-2-3.39-2.06-5.49l0-124c.06-5.33,3.29-11.77,7.94-14.53L104,44.43a5.73,5.73,0,0,1,4.75-.76Z"/><path class="cls-3" d="M97.64,39.05a5.76,5.76,0,0,0-2.42.65l-.37.2L41,71c-4,2.4-7.24,8.29-7.28,13.41l0,123.94c.05,2.23.52,3.54,1.62,4.49l5.77,3.32a13,13,0,0,1-.19-2.11l0-124C41,84,44.7,77.28,49.54,74.41L103.38,43.3a12.16,12.16,0,0,1,1.14-.58l-6.14-3.55a2,2,0,0,0-.74-.12ZM44.38,220.83a1.3,1.3,0,0,1-.65-.18L33.9,215a8.25,8.25,0,0,1-2.72-6.6l-.05-124c.06-6.08,3.75-12.8,8.58-15.67L94,37.39c1.55-.8,3.77-1.37,5.51-.6l.13.06,9.82,5.68a1.31,1.31,0,0,1,.55,1.66,1.29,1.29,0,0,1-1.59.73,4.37,4.37,0,0,0-3.71.66L50.87,76.67c-4,2.4-7.23,8.29-7.28,13.41l0,123.94c0,2.24.52,3.55,1.62,4.51a1.31,1.31,0,0,1-.87,2.3Z"/><path class="cls-4" d="M50.26,219.39l53.84-31.11c4.37-2.53,7.93-9.06,7.93-14.54l0-124c0-5.47-3.56-7.88-7.94-5.35L50.21,75.54c-4.37,2.53-7.94,9.06-7.94,14.53l0,124C42.32,219.51,45.89,221.92,50.26,219.39Z"/><path class="cls-3" d="M107.35,44.74a5.31,5.31,0,0,0-2.65.83L50.87,76.67c-3.95,2.29-7.28,8.42-7.28,13.4l0,124c0,2.29.7,4,1.92,4.7,1,.6,2.48.44,4.05-.47h0l53.84-31.11c4-2.29,7.27-8.41,7.27-13.4l0-124c0-2.27-.7-4-1.91-4.68a2.67,2.67,0,0,0-1.41-.36Zm-60.41,177a5.45,5.45,0,0,1-2.71-.7c-2-1.19-3.22-3.72-3.23-7l0-124c0-5.9,3.85-12.93,8.59-15.67l53.83-31.1c2.43-1.41,4.79-1.58,6.69-.48,2.05,1.18,3.22,3.72,3.22,7l0,124c0,5.9-3.85,12.94-8.59,15.67L50.92,220.52A8,8,0,0,1,46.94,221.7Z"/><path class="cls-2" d="M112,172.25l0-122.47c0-5.47-3.56-7.88-7.94-5.35L50.21,75.54c-4.37,2.52-7.94,9.06-7.94,14.53l0,122.45Z"/><path class="cls-3" d="M107.35,44.74a5.31,5.31,0,0,0-2.65.83L50.87,76.67c-3.95,2.29-7.28,8.42-7.28,13.4l0,120.18,67.08-38.76,0-121.71c0-2.27-.7-4-1.91-4.68a2.79,2.79,0,0,0-1.41-.36Zm-65,169.1a1.31,1.31,0,0,1-.66-.18,1.34,1.34,0,0,1-.66-1.14L41,90.07c0-5.9,3.85-12.93,8.59-15.67l53.83-31.1c2.42-1.4,4.79-1.58,6.69-.48,2.05,1.18,3.22,3.72,3.22,7l0,122.47a1.31,1.31,0,0,1-.66,1.14L43,213.66A1.31,1.31,0,0,1,42.32,213.84Z"/><path class="cls-5" d="M34.32,76.91a17.76,17.76,0,0,0-1.87,7.5l0,123.94c0,2.09.42,4.07,2.07,5.5l9.82,5.66c-1.65-1.43-2-3.39-2.06-5.49l0-124a17.65,17.65,0,0,1,1.88-7.49Z"/><path class="cls-3" d="M34.93,78.78a16.13,16.13,0,0,0-1.17,5.65l0,123.92c.05,2.23.52,3.54,1.62,4.49l5.77,3.32a13,13,0,0,1-.19-2.11l0-124a18.37,18.37,0,0,1,1.51-6.95l-7.54-4.34Zm9.45,142.05a1.3,1.3,0,0,1-.65-.18L33.9,215a8.25,8.25,0,0,1-2.72-6.6l-.05-124a19.24,19.24,0,0,1,2-8.08A1.28,1.28,0,0,1,35,75.77l9.84,5.67a1.31,1.31,0,0,1,.53,1.69,16.52,16.52,0,0,0-1.75,7l0,123.92c0,2.24.52,3.55,1.62,4.5a1.33,1.33,0,0,1,.21,1.76A1.35,1.35,0,0,1,44.38,220.83Z"/><path class="cls-2" d="M37.56,131.57a1.31,1.31,0,0,1-1.32-1.31V117.8a1.32,1.32,0,0,1,2.63,0v12.46A1.31,1.31,0,0,1,37.56,131.57Z"/><path class="cls-2" d="M37.56,110.93a1.32,1.32,0,0,1-1.32-1.31V97.16a1.32,1.32,0,1,1,2.63,0v12.46A1.31,1.31,0,0,1,37.56,110.93Z"/><path class="cls-5" d="M73.51,201.62a1.33,1.33,0,0,1-1.13-.66,1.31,1.31,0,0,1,.48-1.8l10.79-6.22A1.31,1.31,0,1,1,85,195.21l-10.78,6.23A1.46,1.46,0,0,1,73.51,201.62Z"/><path class="cls-4" d="M101.69,51.56h0a3.29,3.29,0,0,0-1.41,2.59h0c0,1,.63,1.41,1.41,1h0a3.3,3.3,0,0,0,1.42-2.59h0C103.11,51.55,102.47,51.11,101.69,51.56Z"/><path class="cls-3" d="M101.69,51.56h0Zm-.59,5a2,2,0,0,1-1-.28A2.38,2.38,0,0,1,99,54.15,4.6,4.6,0,0,1,101,50.42a2.23,2.23,0,0,1,2.27-.08,2.42,2.42,0,0,1,1.12,2.18,4.6,4.6,0,0,1-2.08,3.73A2.59,2.59,0,0,1,101.1,56.61Z"/><path class="cls-4" d="M59.45,173.8a1.32,1.32,0,0,1-.65-2.46l10.58-6.08a1.31,1.31,0,1,1,1.31,2.28l-10.58,6.08A1.34,1.34,0,0,1,59.45,173.8Z"/><path class="cls-4" d="M59.45,189.24a1.32,1.32,0,0,1-.65-2.46l10.58-6.08A1.31,1.31,0,1,1,70.69,183l-10.58,6.08A1.34,1.34,0,0,1,59.45,189.24Z"/><path class="cls-4" d="M88.18,157.29a1.31,1.31,0,0,1-1.14-.66,1.29,1.29,0,0,1,.48-1.78l10.59-6.09a1.31,1.31,0,1,1,1.3,2.27l-10.57,6.09A1.33,1.33,0,0,1,88.18,157.29Z"/><path class="cls-4" d="M88.18,172.73a1.32,1.32,0,0,1-.66-2.46l10.59-6.08a1.31,1.31,0,0,1,1.3,2.28l-10.57,6.08A1.34,1.34,0,0,1,88.18,172.73Z"/><path class="cls-4" d="M65.19,111.88a0,0,0,0,1,0,0Zm.53,3a2.16,2.16,0,0,0,1-.29L76.51,109a1.56,1.56,0,0,0,.58-2.14,1.58,1.58,0,0,0-2.16-.58L67,110.85v-4.4l9-5.18a2.83,2.83,0,0,0,1.35-2.34V92.16a1.93,1.93,0,0,0-1-1.72,2,2,0,0,0-2,0l-9.75,5.63a1.58,1.58,0,0,0,1.58,2.73l8-4.6v4.44l-9,5.16a2.82,2.82,0,0,0-1.36,2.35v6.74a2,2,0,0,0,1,1.73A1.88,1.88,0,0,0,65.72,114.91Z"/><path class="cls-4" d="M90.93,84.55ZM89.35,97.93ZM82,89.72v12.47l7.16-4.13V85.59L82,89.72ZM81,104.6h0Zm-.26,1.65a1.8,1.8,0,0,1-.93-.25,1.92,1.92,0,0,1-1-1.72V89.47a2.78,2.78,0,0,1,1.35-2.33l9.18-5.32a2,2,0,0,1,2,0,2,2,0,0,1,1,1.73V98.32a2.81,2.81,0,0,1-1.35,2.34L81.75,106h0A2.06,2.06,0,0,1,80.7,106.25Z"/><path class="cls-3" d="M51.27,86.87a1.33,1.33,0,0,1-1.14-.66,1.31,1.31,0,0,1,.49-1.79l3.12-1.79a1.3,1.3,0,0,1,1.78.49A1.31,1.31,0,0,1,55,84.91l-3.1,1.79A1.44,1.44,0,0,1,51.27,86.87Z"/><path class="cls-4" d="M57.5,83.29a1.31,1.31,0,0,1-.66-2.45L60,79.05a1.32,1.32,0,0,1,1.79.5,1.31,1.31,0,0,1-.49,1.78l-3.12,1.79A1.2,1.2,0,0,1,57.5,83.29Z"/><path class="cls-4" d="M63.71,79.72a1.3,1.3,0,0,1-1.13-.65,1.33,1.33,0,0,1,.47-1.8l3.12-1.78A1.31,1.31,0,0,1,68,76a1.32,1.32,0,0,1-.49,1.79l-3.11,1.79A1.3,1.3,0,0,1,63.71,79.72Z"/><path class="cls-4" d="M59.45,158.36a1.3,1.3,0,0,1-1.14-.66,1.32,1.32,0,0,1,.49-1.79l10.58-6.08a1.31,1.31,0,1,1,1.31,2.28l-10.58,6.08A1.33,1.33,0,0,1,59.45,158.36Z"/><path class="cls-4" d="M88.18,141.86A1.33,1.33,0,0,1,87,141.2a1.31,1.31,0,0,1,.48-1.79l10.59-6.08a1.31,1.31,0,1,1,1.3,2.27l-10.57,6.08A1.34,1.34,0,0,1,88.18,141.86Z"/><path class="cls-4" d="M74.37,123.22s0,0,0,0v0ZM66,139.53a1.6,1.6,0,0,1-1.37-.78,1.58,1.58,0,0,1,.59-2.15l9-5.17V127l-7.38,4.26a1.58,1.58,0,1,1-1.58-2.73l9-5.17v-4.43l-8,4.59a1.58,1.58,0,1,1-1.58-2.73l9.75-5.64a2,2,0,0,1,2,0,2,2,0,0,1,1,1.73v6.78a2.16,2.16,0,0,1-.1.66,1.93,1.93,0,0,1,.1.63v6.78A2.81,2.81,0,0,1,75.94,134l-9.17,5.3A1.56,1.56,0,0,1,66,139.53Z"/><path class="cls-4" d="M90.94,109.88h0ZM80.7,131.57a1.79,1.79,0,0,1-.93-.24,2,2,0,0,1-1-1.74v-6.72a2.84,2.84,0,0,1,1.35-2.35l9-5.17v-4.43l-7.95,4.58a1.55,1.55,0,0,1-2.15-.57,1.59,1.59,0,0,1,.57-2.16l9.76-5.62a1.9,1.9,0,0,1,2.92,1.69v6.77A2.85,2.85,0,0,1,90.94,118l-9,5.16v4.4l8-4.58a1.57,1.57,0,1,1,1.57,2.72l-9.74,5.63A2.12,2.12,0,0,1,80.7,131.57Z"/></g></g></svg>