<svg id="Layer_1" data-name="Layer 1" xmlns="http://www.w3.org/2000/svg" viewBox="0 0 228.42 228.42"><defs><style>.cls-1{fill:#3378c6;opacity:0.3;}.cls-2{fill:#9aceef;}.cls-2,.cls-3,.cls-4{stroke:#0072c8;stroke-linecap:round;stroke-linejoin:round;stroke-width:0.75px;fill-rule:evenodd;}.cls-3{fill:#fff;}.cls-4{fill:#d9e8ff;}</style></defs><circle class="cls-1" cx="114.21" cy="114.21" r="114.21"/><path class="cls-2" d="M49.44,205.44l-4.59-2.65c-2.12-1.8-2.24-2.92-2.57-5.65l.11-88.27a19.06,19.06,0,0,1,8.73-15.15l121.7-70.18c2.46-1.16,3.47-1.61,6.16-.6l4.59,2.66c-2.69-1-3.7-.56-6.16.59L55.71,96.37A19.31,19.31,0,0,0,47,111.52l-.11,88.27C47.21,202.53,47.32,203.66,49.44,205.44Z"/><path class="cls-3" d="M56.39,103.05,176.74,33.59c2.13-1.25,3.92-.24,3.92,2.27v81.79a8.78,8.78,0,0,1-3.92,6.79L56.27,193.89c-2.12,1.25-3.91.24-3.91-2.27V109.84A8.58,8.58,0,0,1,56.39,103.05Z"/><path class="cls-4" d="M56.39,103.05a8.6,8.6,0,0,0-4,6.79v81.78c0,2.51,1.79,3.52,3.91,2.27l120.47-69.45a8.78,8.78,0,0,0,3.92-6.79V35.86c0-2.51-1.79-3.52-3.92-2.27L56.39,103.05Zm-.68-6.68,121.7-70.18c4.82-2.78,8.73-.49,8.73,5.06L186,119.52c0,5.55-3.92,12.37-8.73,15.14L55.71,204.84c-4.81,2.77-8.84.5-8.84-5.05L47,111.52c0-5.56,3.92-12.37,8.73-15.15Z"/><path class="cls-3" d="M117.51,163.16a.53.53,0,0,0-.55.06,2.88,2.88,0,0,0-.68.61,2.28,2.28,0,0,0-.22.82.67.67,0,0,0,.22.52.75.75,0,0,0,.68,0,2.87,2.87,0,0,0,.55-.62,2.07,2.07,0,0,0,.23-.8A.66.66,0,0,0,117.51,163.16Z"/><polygon class="cls-3" points="72.4 111.88 161.51 60.43 161.51 121.86 72.4 173.3 72.4 111.88"/><polygon class="cls-4" points="72.4 111.88 161.51 60.43 161.51 51.57 72.4 103.03 72.4 111.88"/><path class="cls-4" d="M85.15,114.2a1.75,1.75,0,0,1-1.5-.86,1.82,1.82,0,0,1,.62-2.34l6.92-4a1.74,1.74,0,0,1,2.36.63,1.68,1.68,0,0,1-.62,2.34L86,114A1.79,1.79,0,0,1,85.15,114.2Z"/><path class="cls-4" d="M85.15,141.46a1.75,1.75,0,0,1-1.5-.86,1.78,1.78,0,0,1,.69-2.34l6.9-3.95a1.69,1.69,0,0,1,2.31.64,1.66,1.66,0,0,1-.62,2.33L86,141.23A1.77,1.77,0,0,1,85.15,141.46Z"/><polygon class="cls-3" points="146.76 76.95 100.62 103.6 100.62 122.17 146.76 95.51 146.76 76.95"/><polygon class="cls-3" points="146.76 104.21 100.62 130.88 100.62 149.44 146.76 122.77 146.76 104.21"/><path class="cls-4" d="M38.68,127l-4.21-2.44,0-40.94a9,9,0,0,1,4-7q24.36-14,48.66-28l1.56-.91a3,3,0,0,1,2.72-.35L83.1,42.43a2.94,2.94,0,0,0-2.71.35l-1.59.91q-24.33,14-48.63,28.06a8.86,8.86,0,0,0-4.06,7v41.17a2.88,2.88,0,0,0,1.05,2.52L30,124.07v.12a77,77,0,0,0-.58,13.23l8.35,4.82C37.71,136.91,37.67,132.24,38.68,127Z"/><path class="cls-2" d="M35.83,79.33,27.47,74.5a8.35,8.35,0,0,0-1.36,4.24v41.17a2.89,2.89,0,0,0,1.05,2.52L30,124.07a78.31,78.31,0,0,0-.58,13.35l8.35,4.82c0-5.34-.09-10,.92-15.28l-4.21-2.44,0-40.94A8.52,8.52,0,0,1,35.83,79.33Z"/><path class="cls-2" d="M38.68,127h0l-2.85.47-7.26-4.18,1.42.82v.13a76.88,76.88,0,0,0-.58,13.22l8.35,4.82C37.71,136.91,37.67,132.24,38.68,127Z"/><path class="cls-3" d="M92.75,91.51c0-10.15,0-31.43,0-41.57,0-2.56-1.82-3.61-4-2.33q-25.1,14.49-50.22,29a9,9,0,0,0-4,7l0,41.15c0,2.57,1.82,3.63,4,2.34l.17-.11c-1.09,5.63-1,10.24-.92,15.28,1.62-2.78,3.24-5.54,4.82-8.33,10.18-17.78,30.2-26.72,46-35.34a7.77,7.77,0,0,0,2.92-3A8,8,0,0,0,92.75,91.51Z"/><path class="cls-3" d="M44.23,88a1,1,0,0,1-.86-.52,1,1,0,0,1,.37-1.4L77.66,66.49a1,1,0,0,1,1,1.78l-34,19.57A1.21,1.21,0,0,1,44.23,88Z"/><path class="cls-3" d="M44.23,98.26a1,1,0,0,1-.86-.51,1,1,0,0,1,.37-1.4L82.5,74a1,1,0,0,1,1.38.37,1,1,0,0,1-.37,1.39L44.75,98.12A1.1,1.1,0,0,1,44.23,98.26Z"/><path class="cls-3" d="M44.23,109.19a1.07,1.07,0,0,1-.9-.51,1,1,0,0,1,.38-1.4l25-14.4a1,1,0,0,1,1,1.77l-25,14.4A1,1,0,0,1,44.23,109.19Z"/><path class="cls-4" d="M180,109.57c.15-13.68,14.12-28.95,22.88-24.15l5.27,3.07c-9.11-4.78-22.69,10.86-22.83,24.14l.14,42.9a5.46,5.46,0,0,0,2.36,3.7c-2.06-1.2-5.7-2.87-6.78-4.52a7.56,7.56,0,0,1-1-4.14Z"/><path class="cls-2" d="M208.18,138.38l-5.32-3.07a1.65,1.65,0,0,1-.69-1.5V100.68c-2.46,0-4.57,1.67-6.2,3.33l5,2.86a2.05,2.05,0,0,1,.84,1.91v17.13l.05,18.2a9.06,9.06,0,0,1-4,7L194,153.26a2.9,2.9,0,0,1-2.86.28l-5.31-3.07a2.88,2.88,0,0,0,2.85-.26l3.49-2a5.37,5.37,0,0,0,1.09-.7,9.77,9.77,0,0,0,2.75-3.94,7.49,7.49,0,0,0,.49-2.77v-35a7.24,7.24,0,0,0-.14-1,2,2,0,0,0-.45-.73c-.49.49-.93,1.08-1.37,1.61a16.66,16.66,0,0,0-3.35,9.24v31.36a1.63,1.63,0,0,0,.69,1.5l-5.31-3c-.6-.49-.6-.79-.69-1.52V111.85a16.05,16.05,0,0,1,2.26-7.51c2-3.3,6.35-8.31,10.77-6.23l3.25,1.89V96.77c0-2.42-.54-4.26-2.56-5.65l5.32,3c2,1.29,2.51,3.41,2.56,5.67v37A1.68,1.68,0,0,0,208.18,138.38Z"/><path class="cls-3" d="M212.11,134.18a5.14,5.14,0,0,1-2.31,4c-1.28.74-2.31.13-2.31-1.35v-37c0-2.76-1-4.72-2.56-5.65a5.61,5.61,0,0,0-5,0,9.28,9.28,0,0,0-1.18.59,21.24,21.24,0,0,0-6.94,7,18.1,18.1,0,0,0-2.56,8.62v41a2.82,2.82,0,0,0,1.18,2.6,2.88,2.88,0,0,0,2.86-.28l1.47-.88,3-1.75a8.82,8.82,0,0,0,2.81-3,8.23,8.23,0,0,0,1.23-4l-.05-18.2V108.78a2.11,2.11,0,0,0-.84-1.91,2.09,2.09,0,0,0-2.11.2,5.92,5.92,0,0,0-2.07,2.21,5.68,5.68,0,0,0-.88,3v31.35a5.19,5.19,0,0,1-2.37,4c-1.28.75-2.31.15-2.31-1.34V114.9a15.78,15.78,0,0,1,2.26-7.5,15.53,15.53,0,0,1,5.37-5.7c2.11-1.21,4-1.33,5.36-.52,1.48.83,2.26,2.59,2.26,4.93v35.33a19.29,19.29,0,0,1-8.66,15L194,158.63c-2.42,1.39-4.58,1.5-6.16.6s-2.5-2.85-2.5-5.61v-41a27,27,0,0,1,3.93-13.2,27.3,27.3,0,0,1,9.45-10c3.69-2.12,7-2.32,9.45-.92s3.93,4.4,3.93,8.67Z"/><path class="cls-2" d="M185.69,108.87l-5.31-3.07a18.89,18.89,0,0,0-.35,3.77v41c.1,2.4.44,4.16,2.56,5.6l5.26,3.06c-2.06-1.43-2.41-3.19-2.5-5.61v-41A18.92,18.92,0,0,1,185.69,108.87Z"/></svg>