<svg id="Layer_1" data-name="Layer 1" xmlns="http://www.w3.org/2000/svg" viewBox="0 0 228.42 228.42"><defs><style>.cls-1{fill:#3378c6;opacity:0.3;}.cls-10,.cls-2{fill:#fff;}.cls-10,.cls-2,.cls-3,.cls-4,.cls-6,.cls-7{stroke:#0072c8;stroke-linecap:round;stroke-linejoin:round;stroke-width:0.75px;}.cls-2,.cls-3,.cls-4{fill-rule:evenodd;}.cls-3,.cls-6{fill:#d9e8ff;}.cls-4,.cls-7{fill:#9aceef;}.cls-5{isolation:isolate;}.cls-8{fill:#c92727;}.cls-9{fill:#0072c8;}</style></defs><circle class="cls-1" cx="114.21" cy="114.21" r="114.21"/><path class="cls-2" d="M175.34,196.14a34,34,0,0,1-6.51,6.26L73,147.14a16,16,0,0,1-7.22-12.51l0-104.5L92.28,9.7l2-.41,28.79-.48,48.52,27.84a14.39,14.39,0,0,1,3.71,3.11Z"/><path class="cls-2" d="M82.48,49l-13.37-7.7c-6.59-3.6-10.24-6.78-3.6-12l28.22-22L82.46,24.56Z"/><path class="cls-3" d="M168.83,202.32l8.51-4.91c1.87-1.54,2-2.48,2.19-4.82l0-142.71A16.42,16.42,0,0,0,172,37L119.46,6.64C111.69,2.26,107.4.05,98.23,4.43,90.78,8,84.1,15.43,82.46,24.56l0,24.48,9.15-5.26V25.53c-.2-8.34,9.21-18.89,22.15-12.33l49.74,28.69A16.4,16.4,0,0,1,171,54.79L171,197.51C170.8,199.85,170.69,200.8,168.83,202.32Z"/><path class="cls-4" d="M168.83,202.32l8.51-4.91c1.87-1.54,2-2.48,2.19-4.82l0-142.71a15,15,0,0,0-.58-3.64l-8.52,4.92a15.51,15.51,0,0,1,.57,3.63L171,197.51C170.8,199.84,170.69,200.8,168.83,202.32Z"/><path class="cls-2" d="M162.25,220.19a34,34,0,0,1-6.52,6.26L59.89,171.19a16,16,0,0,1-7.21-12.51l0-104.5L79.18,33.74l2-.4,28.8-.48,48.51,27.83a14.86,14.86,0,0,1,3.72,3.12Z"/><path class="cls-2" d="M69.38,73.09,56,65.38c-6.58-3.6-10.24-6.77-3.6-11.94l28.22-22L69.37,48.6Z"/><path class="cls-3" d="M155.73,226.37l8.52-4.91c1.86-1.54,2-2.48,2.18-4.83l0-142.7A16.39,16.39,0,0,0,159,61L106.36,30.69c-7.77-4.38-12.06-6.59-21.23-2.21C77.69,32.05,71,39.48,69.37,48.6V73.09l9.15-5.26V49.58c-.2-8.34,9.21-18.89,22.15-12.34l49.74,28.7a16.44,16.44,0,0,1,7.45,12.9l0,142.72C157.7,223.9,157.6,224.85,155.73,226.37Z"/><path class="cls-4" d="M155.73,226.37l8.52-4.91c1.86-1.54,2-2.48,2.18-4.83l0-142.7a14.48,14.48,0,0,0-.58-3.64l-8.52,4.92a16,16,0,0,1,.58,3.63l0,142.72C157.7,223.89,157.6,224.85,155.73,226.37Z"/><g class="cls-5"><path class="cls-6" d="M109.2,81.65a7.07,7.07,0,0,1-.69.27l-.13,0c-.28.1-.57.19-.86.27l-.13,0c-.29.08-.58.15-.89.21l-.14,0-.83.14h-.14l-.89.11h-.08c-.3,0-.6,0-.91.06h-.06l-.94,0h-.14l-1,0h-.16c-.32,0-.65,0-1-.06h-.16q-.54,0-1.08-.09l-.15,0-1.08-.13-.15,0c-.41-.05-.83-.12-1.24-.19h-.1L95,82.07c-.52-.1-1-.21-1.5-.32l-.11,0-1.44-.34-.13,0-.66-.17-.18,0-.75-.21-.12,0-.65-.18-.17,0-.72-.22-.09,0-.86-.26,0,0-.83-.27-.12,0-.78-.25-.13,0L85,79.27l-.17-.06-.29-.1L84.3,79l-.27-.1-.19-.07-.27-.1-.17-.06-.27-.1L83,78.55l-.28-.11-.13,0-.29-.11-.1,0-.37-.14L81.46,78l0,0-.36-.15-.1,0-.35-.14-.33-.14-.08,0-.27-.12-.24-.1-.05,0-.33-.15-.11,0-6.83,4,.09,0,.35.15,0,0,.24.1.27.11.08,0,.29.12.4.16.09,0,.37.15.37.15.39.15.11,0,.28.11.13,0,.28.11.15,0,.27.11.18.06.26.1.19.07.28.1.19.07.29.1.13,0,.78.27.14,0,.77.26.12,0,.84.27.05,0,.85.26.06,0,.75.22.18.05.64.19.13,0,.75.2.17.05.66.17.1,0,1.48.35.1,0,1.48.31,1.34.25h.1l1.25.19H91l1.09.13.15,0c.36,0,.72.07,1.08.09h.15l1,0h.15l1,0h.15c.31,0,.62,0,.93,0h.06c.31,0,.61,0,.91-.06h.06l.91-.11.14,0c.28,0,.56-.08.84-.14h.07l.07,0,.89-.2.12,0c.3-.08.58-.17.86-.26l.06,0,.08,0c.23-.08.46-.17.68-.27Z"/><path class="cls-7" d="M132.32,115.59l-.12,42.14a.92.92,0,0,1,0,.16c0,.21,0,.42,0,.63s0,.16,0,.24,0,.35,0,.52,0,.16,0,.24,0,.4-.07.6c0,0,0,.07,0,.11,0,.27-.07.53-.12.79l0,.18c0,.27-.1.54-.16.8s-.14.53-.21.78a1.8,1.8,0,0,0-.05.19l-.11.33c0,.07-.05.15-.07.23l-.12.32c0,.07,0,.14-.07.21l-.18.43s0,.07,0,.11-.15.35-.24.52l0,.06c-.11.24-.23.47-.36.7a.59.59,0,0,1,0,.08c-.13.23-.26.45-.4.67l-.08.12c-.15.23-.31.47-.47.69a.76.76,0,0,0-.08.11c-.17.22-.34.44-.52.65l-.08.1c-.18.21-.37.41-.56.61l-.08.09-.6.58a.6.6,0,0,0-.08.08l-.64.55-.07.06c-.23.18-.45.35-.69.52l-.06,0c-.23.18-.48.34-.72.5l-.82.51,6.83-4,.78-.48c.28-.18.52-.35.76-.52l.06-.05c.23-.16.46-.34.68-.52l.08-.06c.21-.18.43-.36.63-.55l.09-.07c.2-.19.4-.39.59-.59l.09-.08c.19-.2.37-.41.55-.62l.09-.1.52-.65.07-.11q.25-.33.48-.69l0-.05,0-.07c.13-.21.27-.44.39-.66l.05-.09.36-.69,0-.05.25-.54s0-.07,0-.11.12-.28.17-.43l0,0,.06-.17.12-.32c0-.08,0-.15.07-.23s.07-.22.1-.32l0-.1,0-.09c.07-.26.14-.52.2-.79s.12-.52.17-.8a.29.29,0,0,1,0-.09.28.28,0,0,1,0-.09l.12-.78c0-.06,0-.09,0-.12l.06-.6a.28.28,0,0,0,0-.09.71.71,0,0,0,0-.14c0-.18,0-.35,0-.52a.76.76,0,0,0,0-.15.31.31,0,0,0,0-.1c0-.21,0-.42,0-.63v-.16l.12-42.14Z"/><path class="cls-7" d="M139.14,111.62l-.06,0-.08-.07-.23-.16-.11-.08-.07,0-.08-.06-.11-.08-.07,0-.14-.1-.07-.05-.17-.12-.31-.23-.09-.07-.27-.2-.09-.07-.37-.28-.08-.06-.33-.25-.13-.1-.35-.27-.09-.07-.47-.36-.12-.09-.37-.29-.16-.13-.46-.36-.06,0c-.3-.25-.63-.5-.95-.77l-.05,0c-.32-.25-.64-.52-1-.79l-.1-.08-1-.81-.12-.1-1-.86-.13-.11-.87-.75-.15-.13-.91-.8-.14-.12-1-.84-.1-.09-1-.92-.86-.8-.18-.16-.84-.8-.16-.15-.8-.77-.11-.1-.86-.85-.19-.19-.82-.82-.82-.84-.19-.2-.82-.85-.8-.87-.16-.16c-.59-.64-1.17-1.3-1.75-2l-.09-.1c-.58-.67-1.16-1.35-1.72-2l-.1-.12-.65-.8a.76.76,0,0,1-.08-.11c-.19-.24-.38-.47-.56-.71L113,87l-.44-.58-.21-.28-.48-.65-.14-.18-.59-.84-.15-.21-.44-.63-.2-.29c-.13-.2-.26-.4-.4-.6s-.11-.18-.17-.26l-.55-.86-6.83,4c.18.29.37.57.55.85l.18.27c.13.2.26.4.4.6l.19.28.44.64.15.21.6.84.13.18.49.65.2.28.45.57.2.27c.19.23.37.47.56.71l.08.1.66.81,0,.07,0,0c.57.68,1.14,1.36,1.72,2l.09.1c.58.66,1.17,1.31,1.76,2l0,0,.11.12.77.83.85.89.2.2.8.83c.29.28.56.56.83.83l.1.09.09.1.87.84.1.11.8.77.16.15.85.79.17.17.85.78,1,.94.1.09.94.84.15.12.9.79.15.13.88.76.06,0,.06.05,1,.87.11.09,1,.82.1.08,1,.79,0,0,1,.76.05,0,.47.37.15.12.38.3.12.09.46.36.09.07.36.27.12.1.33.24.08.07.38.28.09.07.26.2.1.07.26.19.19.14.09.07.13.09.08.06.11.08.08.06.1.07.06,0,.1.07.3.22Z"/><path class="cls-7" d="M102.37,85.62c-9.92,4.29-29-4.2-30-4.65l-.12,42.15c0,18.87,23.77,46.13,29.88,51.75,6.13,1.45,30,1.73,30.08-17.14l.12-42.14C131.31,114.87,112.24,101.34,102.37,85.62Z"/></g><g class="cls-5"><path class="cls-6" d="M100.43,93.54l-.56.22-.11,0c-.23.08-.46.15-.7.21L99,94c-.24.07-.48.12-.73.17l-.12,0-.68.11-.12,0-.72.08h-.06c-.25,0-.5,0-.75,0H93.92l-.8-.05H93l-.89-.08-.12,0-.89-.1-.12,0-1-.15-.08,0-1.08-.19-1.22-.26-.1,0-1.18-.28h0c-.46-.12-.92-.24-1.36-.37s-.93-.26-1.36-.39l-.07,0-.7-.22L82,92.08l-.1,0-.64-.21-.11,0-.6-.21-.15,0-.23-.08-.16-.06-.22-.08-.16-.06-.21-.08-.15-.06-.21-.07L79,91l-.21-.08-.13,0-.21-.09-.1,0-.3-.11-.28-.12-.06,0-.28-.11-.09,0L77,90.22l-.27-.11-.07,0-.22-.1-.2-.08-.19-.09-.12,0-.09,0L69,93.7l.07,0,.12,0,.16.08,0,0,.17.07.25.1.06,0,.23.1.33.13.08,0,.28.11.31.12.33.13.11,0,.21.08.13,0,.2.08.14.05.21.08.15.06.21.07.16.06.22.08.17.06.22.08.12,0,.64.22.11,0,.63.22.1,0,.68.22.74.23h.06c.44.14.88.27,1.33.39s.94.26,1.4.37l1.24.3.09,0,1.21.25,1.1.2h.08l1,.16h.11l.89.11h.13c.29,0,.59.06.88.08h.13l.8,0h1l.76,0H89l.74,0c.31,0,.55,0,.79-.09h.11c.23,0,.46-.07.69-.12h.11l.73-.17.1,0c.24-.06.48-.14.71-.21a.24.24,0,0,1,.11,0l.56-.22Z"/><path class="cls-7" d="M118.12,122l-.1,34.49q0,.5,0,1c0,.07,0,.14,0,.21,0,.3,0,.6-.08.89a.36.36,0,0,1,0,.1c0,.26-.07.52-.12.77l-.06.28c0,.19-.08.39-.13.57s0,.19-.07.28-.09.28-.13.42-.11.35-.18.52-.09.24-.13.35l-.23.54-.18.38-.15.28a3.5,3.5,0,0,1-.24.42l-.15.26-.25.38-.21.3-.26.35-.23.28-.29.33-.24.27-.31.31-.25.24-.34.3-.25.22-.38.29-.25.19c-.14.11-.29.21-.44.31l-.21.14c-.22.14-.44.28-.67.41l6.83-4c.23-.14.45-.27.67-.42l.22-.15c.14-.09.29-.19.43-.3l.25-.19.37-.29.26-.22.34-.3c.08-.07.16-.16.24-.24s.22-.2.32-.31l.24-.27.29-.32.22-.29.27-.34.21-.31.18-.26.06-.11.16-.26.24-.43.15-.28a1.86,1.86,0,0,1,.1-.2l.08-.18c.08-.17.15-.35.22-.53l.09-.21c0-.05,0-.1.05-.15l.18-.52c0-.09.06-.17.08-.26a.83.83,0,0,0,0-.15c0-.1,0-.19.08-.28s0-.19.07-.29l.06-.29.06-.28,0-.16c0-.2.06-.4.09-.61,0,0,0-.06,0-.1,0-.23,0-.44.07-.66s0-.15,0-.23,0-.14,0-.21,0-.15,0-.23,0-.45,0-.68c0,0,.09-34.54.09-34.54Z"/><path class="cls-7" d="M117.34,121.47l.09.07.08.06.06,0,.09.07.06,0,.07,0,0,0a1.17,1.17,0,0,1,.19.14l.09.06,6.82-4-.17-.12-.08-.06-.2-.15-.06,0-.09-.06-.09-.06-.08-.06-.09-.06-.1-.08,0,0-.22-.16-.08-.06-.22-.16-.07-.06-.31-.23-.07,0-.26-.2-.11-.08-.29-.23-.07,0-.38-.3-.1-.07-.31-.24-.13-.11-.36-.28-.06,0-.78-.62-.05,0-.79-.64-.08-.07-.81-.67-.09-.08-.84-.7-.1-.09-.72-.62-.13-.1-.74-.65-.11-.1-.78-.69-.08-.07-.83-.76-.7-.65-.15-.14-.69-.65-.13-.12-.66-.64-.08-.08c-.24-.22-.47-.46-.71-.69l-.12-.12-1.42-1.44-.08-.08L107.82,103l-.08-.09-1.44-1.6-.06-.08c-.48-.55-.95-1.11-1.42-1.67l0-.07q-.57-.69-1.11-1.38l-.08-.1c-.36-.47-.71-.93-1-1.4l0-.05c-.35-.48-.68-1-1-1.44L101.4,95c-.33-.49-.66-1-1-1.47l-6.82,4q.47.73,1,1.47l.08.11c.33.49.67,1,1,1.44l0,.06,1,1.39.08.1c.37.47.73.93,1.11,1.39l.06.07c.46.56.93,1.12,1.41,1.66l.07.09c.47.54,1,1.07,1.44,1.6l0,0,0,0q.69.77,1.41,1.5l.08.08c.47.49.94,1,1.42,1.44l0,0,.08.08.7.69.08.08.66.64.13.12.69.65.15.14.69.64c.29.26.57.52.85.76l.07.07c.27.24.52.47.78.69l.12.11.74.64.12.11.72.62,0,0,0,0,.84.7.1.08.8.67.08.07.8.64,0,0,.78.63.07,0,.36.28.13.1a3.15,3.15,0,0,0,.3.24l.1.08.38.29.08.06.28.22.11.08.26.2.08.06.3.23.08,0,.21.17.08,0,.22.16.15.11Z"/><path class="cls-6" d="M93.61,97.51C85.48,101,69.86,94.07,69,93.7l-.1,34.5c0,15.45,19.46,37.77,24.46,42.37,5,1.18,24.58,1.42,24.62-14l.1-34.49C117.3,121.45,101.68,110.37,93.61,97.51Z"/></g><g class="cls-5"><polygon class="cls-6" points="92.71 137.62 85.88 141.58 88.16 142.9 94.99 138.93 92.71 137.62"/><path class="cls-8" d="M88.16,143l-2.31-1.32a.06.06,0,0,1,0-.06.05.05,0,0,1,0-.05l6.83-4h.06L95,138.88a.06.06,0,0,1,0,.1l-6.83,4ZM86,141.58l2.15,1.24,6.7-3.89-2.15-1.24Z"/><path class="cls-9" d="M93,134.62l-.21-.29-.06-.1c-.06-.1-.12-.19-.17-.29l0-.09,0,0-.12-.25-.11-.31c0-.12-.06-.22-.08-.31s0-.21,0-.31,0-.2,0-.3,0-.13,0-.2,0-.13,0-.18,0-.12,0-.17a.77.77,0,0,1,.06-.15,1,1,0,0,1,.08-.15,1.58,1.58,0,0,1,.12-.15.72.72,0,0,1,.19-.15l-6.83,4a.58.58,0,0,0-.15.11,1.15,1.15,0,0,0-.16.19.75.75,0,0,0-.07.12l0,.11-.06.18c0,.12,0,.15,0,.18v0a.78.78,0,0,0,0,.13v.26s0,0,0,.08,0,.15,0,.18,0,.06,0,.09,0,.05,0,.07a.86.86,0,0,0,0,.13l0,.1s0,0,0,.08a1.26,1.26,0,0,1,0,.16.69.69,0,0,1,0,.13c0,.08.05.12.07.16l.06.12,0,.06,0,.08a2.75,2.75,0,0,0,.17.29l.06.1.22.3s-.21,2.51-.21,2.51l-.05.48,6.83-4,.05-.49.24-2.46A.1.1,0,0,0,93,134.62Z"/><path class="cls-6" d="M85.88,141.65s-.06-.05-.06-.07l.29-2.93c-.09-.12-.17-.21-.24-.32l-.06-.1c-.06-.1-.12-.2-.17-.3a1,1,0,0,1-.09-.17l0-.09s0-.09,0-.13,0-.06,0-.06l0,0-.06-.14a.56.56,0,0,0,0-.12v-.06a.14.14,0,0,1,0-.06l0-.11a.3.3,0,0,1,0-.1l0,0-.06,0a.28.28,0,0,1,0-.08.44.44,0,0,1,0-.1.28.28,0,0,1,0-.09.94.94,0,0,1,0-.18.28.28,0,0,0,0-.09v-.08a.31.31,0,0,1,0-.1v-.08s.07,0,.07,0l-.07,0c0-.08,0-.11,0-.14l0-.09,0-.1,0-.06a.35.35,0,0,1,0-.12.68.68,0,0,1,.08-.15,1,1,0,0,1,.13-.17l0,0a.59.59,0,0,1,.17-.12l6.82-4a.07.07,0,1,1,.07.11.61.61,0,0,0-.14.1.93.93,0,0,0-.15.18l-.07.12h-.06l.06,0a.61.61,0,0,0,0,.12c0,.07,0,.12,0,.17h0a.88.88,0,0,0,0,.16h0a1.21,1.21,0,0,0,0,.19,2.62,2.62,0,0,0,0,.28l-.06,0h.06a2.74,2.74,0,0,0,0,.28,2.63,2.63,0,0,0,.08.3c0,.11.07.21.1.31l0,0,.06,0,.11.24,0,.06a.08.08,0,0,1,0,0c.07.13.13.23.19.32l.06.1c.07.11.14.2.21.29s.06.08,0,.09l-.29,3a.05.05,0,0,1,0,0l-6.82,4Z"/><path class="cls-6" d="M88.64,120.67l-.1-.06-.13-.07-.08,0-.18-.07-.12-.05-.13,0-.13,0H87.7l-.2,0H87l-.18,0-.22.06a1,1,0,0,0-.26.12l-6.83,4,.25-.11.19,0,.28,0h.29l.29,0,.31.08.32.13.33.17.45.26,6.83-4Z"/><path class="cls-6" d="M96.51,125.14l-5.13-3a.09.09,0,0,0-.07,0l-6.82,4a.06.06,0,0,0,0,.06.05.05,0,0,0,0,0l5.16,3h0l6.83-4a.06.06,0,0,0,0-.06A.05.05,0,0,0,96.51,125.14Z"/><path class="cls-7" d="M92.07,117.59l-6.83,4a1,1,0,0,0-.22.17.12.12,0,0,0,0,0,.83.83,0,0,0-.19.23,1.34,1.34,0,0,0-.11.21,1.1,1.1,0,0,0-.07.17l0,.09a1.46,1.46,0,0,0,0,.17.56.56,0,0,0,0,.1.5.5,0,0,0,0,.12V123a.49.49,0,0,0,0,.12s0,.09,0,.14v2.94s0,0,.06.06h0l6.83-4a.05.05,0,0,0,0,0v-2.94c0-.09,0-.18,0-.3s0-.16,0-.26l.07-.25a1,1,0,0,1,.08-.19l.09-.18a1.57,1.57,0,0,1,.17-.21l.05-.05.2-.15a.08.08,0,0,0,0-.09A.07.07,0,0,0,92.07,117.59Z"/><path class="cls-7" d="M102.25,144.23l0-12v-.14c0-.05,0-.1,0-.15v-.08a.28.28,0,0,1,0-.08c0-.05,0-.1,0-.16s0-.1,0-.16l0-.16a1,1,0,0,0,0-.17v0a.63.63,0,0,0,0-.13,1.8,1.8,0,0,0,0-.19.25.25,0,0,0,0-.07v0l0-.08a1.72,1.72,0,0,0-.07-.21l0,0,0-.07s0-.08,0-.12,0-.12-.07-.17a.36.36,0,0,1,0-.09c0-.1-.08-.17-.11-.23a1,1,0,0,0-.07-.15l-.14-.26-.06-.11c-.07-.12-.14-.24-.22-.35a.43.43,0,0,1,0-.07l-.2-.28-.09-.11-.14-.19-.13-.15-.13-.15-.09-.1-.12-.12-.11-.1,0,0-.19-.17-.08-.07-.07-.06-.15-.11-.1-.07-.17-.12-.14-.08-.41-.24-6.82,4,.37.22.32.2.31.23.3.27.05,0,.22.22.06.06.16.18a1.34,1.34,0,0,1,.11.14c.06.06.11.14.17.21l.09.11.19.28,0,.06.21.36.06.1c0,.09.1.18.14.27a1,1,0,0,1,.07.15,1.63,1.63,0,0,1,.11.23l0,.08.12.29,0,.07c0,.12.08.23.12.35v0c0,.12.07.23.1.35s.06.29.08.41,0,.26,0,.38,0,.28,0,.4l0,12c0,.12,0,.24,0,.35s0,.23,0,.32,0,.22-.08.31l0,0a1.55,1.55,0,0,1-.08.23c-.05.11-.1.18-.14.26l-.14.19a.12.12,0,0,0-.05,0l-.12.11,0,.05-.19.13,6.83-4,.18-.13,0,0a.68.68,0,0,0,.12-.12l0,0a1.83,1.83,0,0,0,.13-.16l.14-.26a1.26,1.26,0,0,0,.08-.18.19.19,0,0,1,0-.07l0,0a1.49,1.49,0,0,0,0-.21s0,0,0-.06a.39.39,0,0,0,0-.09l0-.15a.28.28,0,0,1,0-.09,2,2,0,0,0,0-.22s0-.1,0-.15Z"/><path class="cls-10" d="M92.31,130.62l-.34-.19V127a9.74,9.74,0,0,0-4.41-7.64l-.86-.49a3.17,3.17,0,0,0-3.18-.31,3.12,3.12,0,0,0-1.32,2.87v3.41l-.35-.21a2.31,2.31,0,0,0-2.32-.22,2.28,2.28,0,0,0-1,2.09l0,12a7.07,7.07,0,0,0,3.2,5.55l10.47,6a2.93,2.93,0,0,0,1.46.45,1.7,1.7,0,0,0,.86-.23,2.26,2.26,0,0,0,1-2.09l0-12A7.09,7.09,0,0,0,92.31,130.62Zm-4.22,12.16L86,141.55l.29-2.91s0,0,0,0a3.85,3.85,0,0,1-.91-2.3,1,1,0,0,1,1.7-1,2.74,2.74,0,0,1,.67.54,3.88,3.88,0,0,1,1.08,2.49c0,.72-.34,1.18-.88,1.21l0,0a.08.08,0,0,0,0,0Zm1.51-16.56v2.83l-5-2.89v-2.9a1.74,1.74,0,0,1,.72-1.6,1.77,1.77,0,0,1,1.76.18A5.59,5.59,0,0,1,89.6,126.22Z"/><path class="cls-6" d="M98.74,122.79a1.62,1.62,0,0,0,0-.22.28.28,0,0,0,0-.09.31.31,0,0,0,0-.12,1.8,1.8,0,0,0,0-.22l0-.22c0-.08,0-.15,0-.22a2,2,0,0,0-.05-.24s0,0,0-.07l0,0,0-.12a2,2,0,0,0-.07-.26l0-.11,0-.07,0-.1a2.47,2.47,0,0,0-.1-.29l0-.08,0-.1s0-.11-.07-.17l-.09-.23L98,119.7l0,0c0-.09-.09-.18-.14-.28l-.09-.2a3.87,3.87,0,0,0-.2-.36,1.09,1.09,0,0,0-.08-.15c-.09-.16-.2-.33-.3-.49l-.07-.09c-.08-.13-.17-.26-.26-.38l-.13-.17-.19-.25-.19-.22-.18-.2,0,0-.08-.08-.16-.17-.15-.14-.06-.06,0,0-.23-.2-.11-.09,0,0,0,0-.2-.16-.15-.1-.23-.16-.19-.11,0,0-.86-.5-.14-.07-.18-.1-.12,0-.24-.11-.17-.06-.18-.06-.18,0-.09,0-.09,0-.19,0h-.12l-.28,0H91.3l-.26,0-.05,0a1.83,1.83,0,0,0-.25.06l-.36.17-6.82,4a1.44,1.44,0,0,1,.33-.16l.27-.08h0a1.86,1.86,0,0,1,.33,0h.4a4,4,0,0,1,.41.06,3.56,3.56,0,0,1,.42.12,3.86,3.86,0,0,1,.45.17l.46.24.86.5c.15.08.29.18.44.28a5.11,5.11,0,0,1,.42.32l0,0,.37.33.06.06.31.3.08.09.23.25.15.19.23.28.12.16c.1.13.18.26.27.39l.06.09c.11.16.21.32.31.49a1.09,1.09,0,0,0,.08.15l.19.36c0,.06.07.13.1.2l.15.32,0,.12c.06.13.11.26.16.4l0,.1c0,.16.11.31.16.47l0,.07c0,.16.09.33.13.49v0c0,.17.07.35.1.52a4.88,4.88,0,0,1,.06.52c0,.21,0,.38,0,.55v3.51l6.82-4v-3.7Z"/></g></svg>