<svg xmlns="http://www.w3.org/2000/svg" xmlns:xlink="http://www.w3.org/1999/xlink" viewBox="0 0 1280.32 470.58"><defs><style>.cls-1{fill:url(#linear-gradient);}.cls-2{fill:none;}.cls-3{isolation:isolate;}.cls-4{clip-path:url(#clip-path);}.cls-5{clip-path:url(#clip-path-2);}.cls-6{mask:url(#mask);}.cls-7{fill:url(#linear-gradient-2);}.cls-8{mix-blend-mode:screen;}.cls-9{fill:#3aa1ff;}.cls-10{fill:#003d87;}.cls-11{fill:#0072c8;}</style><linearGradient id="linear-gradient" x1="550.33" y1="235.16" x2="993.28" y2="277.72" gradientTransform="translate(818.11 -342.07) rotate(90)" gradientUnits="userSpaceOnUse"><stop offset="0.21" stop-color="#fff"/><stop offset="0.26" stop-color="#f7f7f7"/><stop offset="0.34" stop-color="#e2e2e2"/><stop offset="0.44" stop-color="#bfbfbf"/><stop offset="0.55" stop-color="#8e8e8e"/><stop offset="0.67" stop-color="#4f4f4f"/><stop offset="0.8" stop-color="#040404"/><stop offset="0.8"/></linearGradient><clipPath id="clip-path"><polygon class="cls-2" points="-20 469.42 -1300.32 469.42 -1300.32 1.15 -20 3.16 -20 469.42"/></clipPath><clipPath id="clip-path-2"><polygon class="cls-2" points="1280.32 469.42 0 469.42 0 1.15 1280.32 3.16 1280.32 469.42"/></clipPath><mask id="mask" x="0" y="-39.72" width="1159.82" height="555.49" maskUnits="userSpaceOnUse"><rect class="cls-1" x="302.34" y="-341.71" width="555.49" height="1159.46" transform="translate(342.07 818.11) rotate(-90)"/></mask><linearGradient id="linear-gradient-2" x1="579.88" y1="474.14" x2="579.88" y2="3.2" gradientUnits="userSpaceOnUse"><stop offset="0" stop-color="#003d87"/><stop offset="0.07" stop-color="#004895"/><stop offset="0.24" stop-color="#005fb1"/><stop offset="0.39" stop-color="#006dc2"/><stop offset="0.5" stop-color="#0072c8"/><stop offset="0.59" stop-color="#006dc2"/><stop offset="0.71" stop-color="#005eb0"/><stop offset="0.85" stop-color="#004793"/><stop offset="0.9" stop-color="#003d87"/></linearGradient></defs><g class="cls-3"><g id="Layer_1" data-name="Layer 1"><g class="cls-4"><image width="7952" height="4473" transform="translate(-694.19 1.15) scale(0.11)" xlink:href="../links/shutterstock_1962585301.jpg"/></g><g class="cls-5"><image width="6016" height="4016" transform="translate(640.18 -10.24) scale(0.12)" xlink:href="../links/shutterstock_1926530801.jpg"/><g class="cls-6"><rect class="cls-7" y="3.2" width="1159.75" height="470.94"/></g></g><g class="cls-8"><circle class="cls-9" cx="753.78" cy="148" r="5.15"/><circle class="cls-10" cx="541.46" cy="245.35" r="5.15"/><circle class="cls-10" cx="666.88" cy="183.53" r="5.15"/><circle class="cls-10" cx="704.81" cy="198.9" r="5.15"/><circle class="cls-10" cx="661.73" cy="245.35" r="5.15"/><circle class="cls-10" cx="664.86" cy="326.48" r="7.1" transform="translate(193.84 898.12) rotate(-76.67)"/><circle class="cls-11" cx="729.54" cy="299.92" r="7.1" transform="translate(1.6 603.71) rotate(-45)"/><circle class="cls-11" cx="707.34" cy="245.35" r="5.15"/><circle class="cls-11" cx="621.64" cy="326.48" r="7.1" transform="translate(-48.78 535.19) rotate(-45)"/><circle class="cls-11" cx="748.63" cy="260.35" r="5.15"/><circle class="cls-9" cx="664.86" cy="382.9" r="5.15"/><circle class="cls-11" cx="745.3" cy="197.11" r="7.1" transform="translate(381.61 876.86) rotate(-76.67)"/><circle class="cls-11" cx="666.88" cy="129.87" r="7.1" transform="translate(431.58 767.23) rotate(-80.76)"/><circle class="cls-11" cx="623.56" cy="204.78" r="7.1" transform="translate(29.97 484.8) rotate(-43.44)"/><rect class="cls-11" x="664.06" y="284.08" width="1.6" height="23.18"/><rect class="cls-10" x="730.6" y="230.77" width="1.6" height="19.65"/><rect class="cls-11" x="554.5" y="244.55" width="40.78" height="1.6"/><rect class="cls-9" x="747.83" y="269.3" width="1.6" height="19.62"/><rect class="cls-9" x="600.8" y="235.54" width="1.6" height="19.62"/><rect class="cls-9" x="664.06" y="343.31" width="1.6" height="15.8"/><rect class="cls-9" x="720.77" y="259.55" width="15.8" height="1.6"/><rect class="cls-10" x="666.08" y="145.41" width="1.6" height="15.8"/><rect class="cls-11" x="723.56" y="223.7" width="15.67" height="1.6"/><rect class="cls-9" x="679.2" y="244.55" width="15.8" height="1.6"/><rect class="cls-10" x="608.55" y="244.55" width="36.29" height="1.6"/><rect class="cls-11" x="740.91" y="299.12" width="16.78" height="1.6"/><rect class="cls-11" x="632.07" y="325.68" width="10.94" height="1.6"/><rect class="cls-11" x="659.39" y="367.63" width="10.94" height="1.6"/><rect class="cls-11" x="744.5" y="217.59" width="1.6" height="10.94"/><path class="cls-9" d="M803.26,306.47a15.46,15.46,0,0,0-13.83,8.47l-6.27,12.27a13.52,13.52,0,0,1-12.1,7.4H751.35v1.6h19.71a15.13,15.13,0,0,0,13.53-8.28l6.26-12.27a13.89,13.89,0,0,1,12.41-7.59h9.85v-1.6Z"/><path class="cls-10" d="M713.86,334.61a10.81,10.81,0,0,1-10.8-10.8V311.52a10.81,10.81,0,0,1,10.8-10.8H719v-1.6h-5.13a12.42,12.42,0,0,0-12.4,12.4v12.29a12.41,12.41,0,0,0,12.4,12.4h31.58v-1.6Z"/><path class="cls-9" d="M718.12,225.3h-2.68A11.45,11.45,0,0,1,704,213.86V206.8h1.6v7.06a9.84,9.84,0,0,0,9.83,9.84h2.68Z"/><rect class="cls-9" x="644.85" y="158.74" width="15.63" height="1.6"/><path class="cls-10" d="M786.44,158.31h-1.6v-1.6a7.92,7.92,0,0,0-7.91-7.91H764.39v-1.6h12.54a9.53,9.53,0,0,1,9.51,9.51Z"/><path class="cls-11" d="M665.66,277h-1.6v-3.25a14.2,14.2,0,0,1,14.18-14.18h34.25v1.6H678.24a12.6,12.6,0,0,0-12.58,12.58Z"/></g></g></g></svg>