<?xml version="1.0" encoding="utf-8"?>
<!-- Generator: Adobe Illustrator 27.0.0, SVG Export Plug-In . SVG Version: 6.00 Build 0)  -->
<svg version="1.1" id="Layer_1" xmlns="http://www.w3.org/2000/svg" xmlns:xlink="http://www.w3.org/1999/xlink" x="0px" y="0px"
	 viewBox="0 0 1920 1080" style="enable-background:new 0 0 1920 1080;" xml:space="preserve">
<style type="text/css">
	.st0{clip-path:url(#SVGID_00000065042300844218415630000015391015187661807782_);}
	.st1{opacity:0.4;}
	.st2{opacity:0.71;fill:#3AA1FF;enable-background:new    ;}
	.st3{fill:#0072C8;}
	.st4{fill:#003D87;}
	.st5{opacity:0.4;fill:#3AA1FF;enable-background:new    ;}
	.st6{opacity:0.11;}
	.st7{fill:#3AA1FF;}
	.st8{fill:#E5E6EB;}
	.st9{fill:#FFFFFF;}
	.st10{fill:#F5AD2A;}
	.st11{fill:#050F64;}
</style>
<g>
	<g id="Layer_2_00000116220463477400336190000011282532797792154530_">
		<g id="Layer_1-2">
			<g>
				<defs>
					<rect id="SVGID_1_" x="320.5" y="260.7" width="1279.5" height="461.5"/>
				</defs>
				<clipPath id="SVGID_00000024680964796082749120000015582633245399146900_">
					<use xlink:href="#SVGID_1_"  style="overflow:visible;"/>
				</clipPath>
				<g style="clip-path:url(#SVGID_00000024680964796082749120000015582633245399146900_);">
					<g class="st1">
						<polygon class="st2" points="1754.4,472.9 1720.5,454.3 1720.5,402 1628.9,402 1628.9,345.9 1511.1,345.9 1511.1,488.2 
							1483.7,488.2 1483.7,521.5 1462.3,521.5 1462.3,601.2 1437.3,601.2 1437.3,491.5 1375.4,491.5 1375.4,459.5 1340.3,459.5 
							1340.3,510.8 1307.6,528.7 1307.6,631.9 1230.3,631.9 1230.3,405.3 1147,405.3 1147,447.7 1081.5,447.7 1063.7,457.5 
							1063.7,481.1 981.6,481.1 966.1,489.5 966.1,569.2 931.6,569.2 931.6,446.4 867.4,446.4 867.4,468 765.6,468 765.6,519.9 
							747.2,530 747.2,581 716.5,581 716.5,455.2 674.8,446 674.8,412.1 563,412.1 563,555.8 545.2,555.8 545.2,373.5 521.4,374.2 
							451.2,393.8 451.2,572.7 421.4,572.7 421.4,454.5 403.6,431 403.6,421.9 361.9,421.9 361.9,431 339.3,431 321.5,451.9 
							304.8,451.9 304.8,364.4 262,364.4 262,396.1 200.7,396.1 165.6,415.3 165.6,862 642.9,862 716.5,862 924.9,862 924.9,861.7 
							1754.4,861.1 						"/>
						<polygon class="st3" points="1493.2,492.2 1476.4,510.8 1476.4,567.6 1458.4,567.6 1458.4,411.9 1378,411.9 1378,774.6 
							1353.9,748 1353.9,539.2 1175.2,539.2 1175.2,592.3 1080.7,592.3 1080.7,759.1 1080.7,832.6 997.8,832.6 997.8,615.6 
							973.8,615.6 973.8,531.2 924.6,531.2 924.6,671 901.8,671 901.8,697.4 873,647.3 822.7,647.3 822.7,466.6 725.5,466.6 
							717.1,475.9 717.1,531.2 717.1,593.2 689.5,593.2 689.5,428.4 606.7,428.4 606.7,456.1 590.5,473.9 590.5,754.8 571.9,754.8 
							571.9,529.3 561.1,529.3 561.1,507.5 465.8,507.5 449.6,525.3 449.6,550.4 359.6,550.4 354.8,870.1 654.7,870.1 654.7,869.5 
							959.4,869.5 959.4,870.1 1080.7,870.1 1255.7,870.1 1565.2,870.1 1565.2,492.2 						"/>
						<polygon class="st4" points="1544.5,515.5 1544.5,740.8 1515.5,740.8 1515.5,651.1 1474.3,616.2 1474.3,480.5 1422.2,480.5 
							1391.9,454.9 1353.1,454.9 1353.1,591.5 1259.8,591.5 1259.8,746.7 1235.6,746.7 1235.6,529.9 1167.7,559.7 1167.7,689.2 
							1149.6,689.2 1149.6,489.8 1126.5,489.8 1126.5,431.2 1120.7,431.2 1120.7,417.9 1069.2,417.9 1069.2,429.2 1036.9,429.2 
							1036.9,474.4 983.6,474.4 970.2,489.8 970.2,674.8 924.8,674.8 924.8,637.2 896.3,613.1 896.3,524.7 797,524.7 797,597.7 
							760.6,597.7 760.6,659.3 717,700.4 689.2,700.4 689.2,505.2 611.6,460 611.6,640.8 593.4,640.8 593.4,516.5 501.4,516.5 
							501.4,559.7 458.9,559.7 458.9,766.2 440.8,766.2 440.8,676.8 379,676.8 379,649.1 368.1,635.7 301.4,635.7 296.6,996.4 
							1446.6,996.4 1515.5,996.4 1544.5,996.4 1623.4,996.4 1623.4,515.5 						"/>
						<rect x="1345.5" y="363.8" class="st5" width="7.8" height="15.7"/>
					</g>
					<g>
						<g class="st6">
							<g>
								<g>
									<g>
										<g>
											<path class="st4" d="M629.4,541.4c-2.4,0.2-4.8,0.3-7.6,0.4c-0.5-0.2-1-0.5-1.4-1c-0.3-0.4-28.2-39.7-34.3-40.4
												c-0.8,0-1.6,0-2.4,0.1c-1.3,0-2.7,0.1-4,0.1c-4,0.6-4.2,5.8-1.4,9c6.8,6.9,10.2,10.8,10.5,11.9c0.2,1.7,0.4,3.3,0.6,5
												c0.3,1.8,0.8,2.9,2,4.1c2.3,2.1,3.6,3.8,3.8,4.9c0.4,4,0.7,7.9,0.9,11.9c0,2-0.8,3.1-2.3,3.3c-1.1,0-2.3,0.1-3.4,0.1
												c-0.9-0.1-1.1-0.2-1.9-0.9c-11.2-12.8-16.8-19.5-16.9-19.9c-0.4-4.6-0.9-9.2-1.5-13.8c-0.7-3.2-2.3-4.9-5.1-5.2
												c-2.3,0-4.5,0.1-6.8,0.1c-1-0.1-1.3-0.3-2.2-1.1c-4.1-5.1-7-7.6-8.5-7.7c-1.4,0-2.7,0-4.1,0c-1.6-0.2-2.6-1.2-3-3.1
												c0-0.1,0-0.1,0-0.2c-0.1-1.9,0.7-2.9,2.2-3.1c6.6-0.1,13-0.2,19.3-0.3c1.5-0.2,2.2-0.6,3.1-2.4c0.8-1.6-0.3-3.4,0.4-5
												c3.6-6.2,5.7-9.3,6.3-9.5c2.2-0.1,4.4-0.1,6.6-0.2c13.8-0.4,25.8-1,35.8-1.6c-0.3-0.7-0.5-1.3-0.8-2
												c-9.9,0.6-21.8,1.2-35.5,1.6c-2.2,0.1-4.3,0.1-6.5,0.2c-1.3,0.2-1.6,0.4-2.4,1.5c-3.7,6.8-5.5,10.7-5.4,11.6
												c0.1,1.3,0.4,3.3-1.8,3.6c-6.3,0.1-12.7,0.2-19.2,0.3c-1.7,0.2-3.9,1-3.8,5.2c0,0.1,0,0.1,0,0.2c0.3,1.8,1.3,4.8,5,5.2
												c1.4,0,2.7,0,4.1,0c1,0.1,1.3,0.3,2.2,1.1c4.2,5.1,7,7.7,8.5,7.8c2.3,0,4.6-0.1,6.9-0.1c1.6,0.2,2.6,1.2,3,3.1
												c0.6,4.6,1,9.2,1.4,13.8c0.2,1.6,0.6,2.6,1.6,3.8c11.7,12.7,18.1,19.1,19,19.2c1.2,0,2.3-0.1,3.4-0.1
												c2.6-0.4,3.8-2.2,3.9-5.6c-0.2-4-0.5-8-0.9-11.9c-0.3-1.8-0.8-2.9-1.9-4.1c-2.4-2.2-3.6-3.8-3.9-4.9
												c-0.2-1.7-0.4-3.3-0.6-5c-0.3-1.6-0.7-2.5-1.7-3.7c-6.7-6.9-10-10.5-10.2-10.7c-0.5-0.9-1.1-3.9,1.5-4.3
												c1.4,0,2.7-0.1,4.1-0.1c0.8,0,1.6,0,2.4-0.1c0.9,0.1,1.2,0.2,2,1c12,13.4,21.6,25.2,28.5,35.2c2.3,3.4,4.1,5.2,5.2,5.3
												c2.6-0.1,5-0.3,7.4-0.5C629.5,542.9,629.4,542.1,629.4,541.4L629.4,541.4z"/>
											<path class="st4" d="M640.3,540.6c-3,0.3-6.3,0.5-9.7,0.7c0.1,0.7,0.1,1.5,0.2,2.2c3.5-0.2,6.7-0.5,9.8-0.7
												C640.5,542,640.4,541.3,640.3,540.6L640.3,540.6z"/>
											<path class="st4" d="M645.5,479.4c-1.6,0.3-3.5,0.6-5.7,0.9c-0.3-0.1-0.4-0.1-0.9-0.6c-5.7-6.2-5.7-6.2-6.6-6.2
												c-4.9,0.6-10.9,1.1-17.9,1.6c0.3,0.7,0.5,1.3,0.8,2c7-0.5,13-1,18.1-1.6c0.3,0.1,0.5,0.1,0.9,0.6c3.9,4.1,6,6.2,6.5,6.2
												c2.1-0.3,4-0.6,5.6-0.9C646.1,480.8,645.8,480.1,645.5,479.4L645.5,479.4z"/>
											<path class="st4" d="M660.4,493.8l-0.3-0.9l-0.5-1.2c0.1,0.2,0.1,0.4-0.1,0.7c-0.1-0.1-0.1-0.2-0.4-0.8
												c-4-8.8-7-13.7-7.6-13.9c-1.2,0.5-3,1.1-5.6,1.6c0.3,0.7,0.6,1.3,0.9,2c2.5-0.5,4.4-1,5.6-1.6c0.1,0,0.2,0.1,0.6,0.8
												c2.6,4.5,4,7,6.6,13c0.3,0.8,0.4,0.8,0.5,1C660.5,494.3,660.5,494.1,660.4,493.8L660.4,493.8z"/>
										</g>
										<path class="st4" d="M651.4,607.6c0.9-4.5,1.4-7-6.4-21.2c-0.7-1.5-0.9-2.9-0.8-5.3c0.2-3,0.4-5.9,0.5-8.9
											c-0.1-5.5-1.5-8.4-4.2-8.7c-1.2,0.1-2.5,0.2-3.8,0.3c-2.2-0.1-2.4-0.7-4.7-7.9c-0.4-1.3-0.4-1.7-0.5-3.1
											c-0.1-3.1-0.4-6.2-0.6-9.3c-0.1-0.7-0.1-1.5-0.2-2.2c-0.3-3.2-0.7-6.5-1.1-9.7c-0.4,0-0.8,0.1-1.2,0.1
											c0.4,3.2,0.8,6.5,1.1,9.7c0.1,0.7,0.1,1.5,0.2,2.2c0.3,3.1,0.5,6.2,0.6,9.3c0.1,1.3,0.8,4.1,2.1,8.4
											c1.2,3.3,2.3,4.6,4.4,4.7c1.3-0.1,2.6-0.2,3.8-0.3c2.1,0.2,3.1,2.4,3.2,6.6c-0.1,3-0.3,5.9-0.5,8.9
											c-0.1,2.5,0,4.4,0.5,5.7c1.9,5.4,5.1,10.3,7,15.7c0.4,1.4,0.4,2.8-0.1,5.2c-0.8,3.9-1.8,7.7-2.9,11.5
											c-1.3,5.2-1.2,7.8,0.3,8.1c0.2,0,0.4-0.1,0.6-0.1c0.2-0.7,0.5-1.4,0.7-2.1c-0.2,0-0.4,0.1-0.6,0.1
											c-0.7-0.4-1.6-0.9-0.3-6.1C649.5,615.3,650.5,611.5,651.4,607.6L651.4,607.6z"/>
										<path class="st4" d="M664.3,595.6c-1,0.3-2.2,0.6-3.7,0.9c-0.9,0.5-1.7,2.3-2.4,5.6c-2.6,12.7-6.4,25.1-11.5,37
											c-0.9,2.2-1.9,4.3-2.9,6.5c-0.7,1.4-0.8,1.6-3.8,5.6c-0.4,0.5-0.5,0.6-0.8,0.8c-0.8,0.2-1.4,0.3-2.1,0.4
											c-0.1-0.1-0.2-0.1-0.3-0.2c0-1.2,2.3-4.9,6.9-11.2c0.8-1.2,1.3-2,1.9-3.6c1-2.4,1.9-4.8,2.8-7.2c-0.2,0-0.4,0.1-0.6,0.1
											c-0.9,2.4-1.8,4.8-2.8,7.2c-0.6,1.5-0.7,1.8-6.1,8.8c-1,1.4-1.9,2.9-2.5,4.5c-0.9,2.1-0.8,2.9-0.7,3.3
											c0.1,0.1,0.3,0.2,0.5,0.3c0.7-0.1,1.3-0.2,1.9-0.3c0.8-0.3,1.1-0.6,4.4-5c0.8-1.1,1.3-2,2-3.5c1-2.1,2-4.3,2.9-6.5
											c5.1-11.9,8.9-24.3,11.5-37c0.6-2.6,1-3,1.5-3.3c1.4-0.3,2.6-0.6,3.6-0.8c0.7,0.9-0.8,12.1-2.4,19
											c-0.2,0.7-0.2,0.9-0.5,1.8c-0.1,0.4-0.3,0.9-0.4,1.3c-0.8,2.5-1.2,2.9-1.4,3.2c-0.2,0.1-0.3,0.1-0.5,0.2
											c-0.2,0.7-0.5,1.4-0.7,2.1c0.2-0.1,0.4-0.1,0.5-0.2c0.4-0.6,0.9-1.2,2.4-5.4c0.2-0.4,0.3-0.9,0.4-1.3
											c0.1-0.3,2.6-8.4,3.5-20.9C664.7,595.9,664.6,595.8,664.3,595.6L664.3,595.6z"/>
										<g>
											<path class="st4" d="M657,629.5c-0.3,0.7-0.5,1.4-0.8,2.1c0.5-0.2,0.9-0.5,1.2-0.7c0.2-0.3,0.6-1.2,1.3-3
												c1.3-3.4,1.5-3.9,3.1-8.6c0.3-0.9,0.6-1.9,0.9-2.9c-2.5,7.9-4.4,12.3-4.6,12.5C657.9,629,657.5,629.3,657,629.5
												L657,629.5z"/>
											<path class="st4" d="M662.7,616.3c0.2-0.5,0.4-1.1,0.5-1.7C663.1,615.1,662.9,615.7,662.7,616.3z"/>
											<path class="st4" d="M663.3,614.3c0,0.1-0.1,0.2-0.1,0.3C663.3,614.5,663.3,614.4,663.3,614.3L663.3,614.3L663.3,614.3z"
												/>
										</g>
										<path class="st4" d="M608.3,669.3c-0.5-0.7-0.8-0.8-1.8-0.8c-2.1,0.1-4.2,0.3-6.5,0.4c-1.2,0.2-2.2,1.1-3.1,2.8
											c-1.7,3.3-3.5,6.5-5.3,9.7c0.4,0,0.8,0,1.1-0.1c1.9-3.1,3.7-6.4,5.4-9.7c0.3-0.4,0.4-0.6,0.8-0.8c2.5-0.2,4.6-0.3,6.7-0.5
											c3,0.1,5.4,12,5.4,12.2c-0.1,1.7-0.2,4.7-18.7,20.7c-2.4,2-4,3-5.3,3.2c-3.1,0.3-6.5,0.5-10.3,0.8
											c-2.7,0.4-5.1,2.3-8.8,5.2c-2.3,1.7-3.8,2.4-5.2,2.6c-1.7,0.1-3.5,0.2-5.3,0.2c-1,0-0.8-2.5,0.6-7.5
											c0.3-0.9,0.6-1.5,1.3-2.5c0.7-1,1.4-1.9,2-2.9c1.7-2.5,3.3-5.1,4.9-7.8c0.9-1.4,3-3.5,6.3-6.3c1-0.9,6.4-5.5,13.2-11.8
											c1.8-1.6,3-2.3,4.6-2.4c1.5-0.1,3-0.2,4.5-0.2c0.3-0.6,0.6-1.2,0.9-1.8c-1.5,0.1-3,0.2-4.5,0.2c-1.5,0.2-2.9,0.7-5.1,2.5
											c-6,4.8-11.3,10.3-17.2,15.3c-1.8,1.6-2.7,2.7-3.9,4.6c-1.6,2.7-3.2,5.2-4.8,7.8c-0.7,1-1.3,2-2,2.9
											c-0.2,0.4-1.4,3.2-3.3,8.4c-0.6,1.9-0.2,2.7,1.4,2.8c1.8-0.1,3.6-0.2,5.2-0.2c2.9-0.4,5.5-2.4,8.8-4.9
											c2.4-1.8,3.8-2.5,5.2-2.8c3.7-0.2,7.1-0.5,10.2-0.7c1.2-0.2,4.7-1,21-17.4C613.2,683.3,614.8,681.6,608.3,669.3
											L608.3,669.3z"/>
										<path class="st4" d="M616,645.1c-0.4,1.1-0.8,2.1-1.2,3.2c-2,4.6-2.2,5.1-17.3,15.8c-1.3,0.8-2,1.2-3.1,1.3
											c-0.7,0-1.5,0.1-2.2,0.1c-0.9-0.1-0.6-2.2,1-6.2c1.8-4.1,2.8-4.8,8.5-8.9c1.2-0.8,2-1.2,3.1-1.3c3-0.2,5.8-0.3,8.5-0.5
											c0.2-0.7,0.5-1.3,0.7-2c-2.7,0.2-5.6,0.3-8.5,0.5c-1.3,0.1-3.9,1.6-7.7,4.4c-4.4,3.4-5.5,6.6-7.5,11.9
											c-0.8,2.5-0.4,3.8,1.2,3.9c0.8,0,1.5-0.1,2.2-0.1c1.8-0.2,2.9-0.3,16.7-11.1c2.6-2.2,4.1-4.3,5.7-7.9
											c0.4-1.1,0.8-2.1,1.2-3.2C616.8,645,616.4,645,616,645.1L616,645.1z"/>
										<path class="st4" d="M645.2,605.7c-0.3,0-0.7,0.1-1,0.1c-0.7-0.1-1.8-1.6-3.1-4.6c-2.1-4.5-2.2-4.7-6.1-10.9
											c-0.8-1.5-1.1-3-0.9-5.4c0.2-2.1,0.3-4.2,0.5-6.4c0-5.6-1.6-8.5-4.8-8.9c-1.8,0.3-4.5,4.5-8.1,12.5
											c-0.7,1.7-1,2.9-1.2,4.9c-0.3,3.8-0.7,7.5-1.2,11.2c-0.2,2.3-0.2,4.2,0.8,6.3c2.7,5.9,6.8,11,9.6,16.8
											c0.7,1.3,4.6,1.4,11.9,0.5l0,0l0,0l0,0l0,0l0,0l0,0c0.3,0.1,0.8,0.3,0.3,2.1c-1,3.3-2.1,6.7-3.3,9.9
											c0.3,0,0.6-0.1,0.8-0.1c1.2-3.3,2.3-6.6,3.3-9.9c0.8-2.8-2.6-3.8-10.2-3c-0.3,0-1.2,0-1.8-1.2c-3.2-6.5-5-9.7-9.3-16.2
											c-0.9-1.5-1.1-2.9-0.9-5.3c0.5-3.7,0.9-7.4,1.2-11.2c0.1-0.9,1.5-4.7,4.3-11.5c2.4-5.3,5.7-3.9,6.8-0.7
											c0.5,1.4,0.5,2.8,0.5,3.9c-0.1,2.1-0.3,4.3-0.5,6.4c-0.1,2.4,0,4.2,0.9,6.4c2.2,5.2,5.7,9.7,8,14.9c0.6,1.2,1,1.4,1.8,1.6
											c0.7,0,1-0.1,1.3-0.1c1.7,0.2,2.1,2.3,1.3,6.4c-1.1,4.6-2.5,9.2-3.9,13.7c0.3,0,0.5-0.1,0.8-0.1c1.5-4.5,2.8-9.1,4-13.7
											C648,608.8,647.4,606,645.2,605.7L645.2,605.7z"/>
										<path class="st4" d="M632.8,455.7c-1.3-2-2.6-4-3.9-6c-0.2,0-0.3,0.1-0.5,0.1c1.3,2,2.6,4,3.9,6c1.4,2.4,1.8,3.7,1.2,4.1
											c-2.3,0.4-5,0.8-8.1,1.1c-2-0.2-4.2-4.5-4.2-4.5c-0.1-0.3-0.8-3-2.1-8.1c-0.2-0.8-0.1-1.1,0.3-1.2
											c4.5-0.5,7.9-1.1,10.2-1.8c-0.4-0.6-0.9-1.2-1.3-1.8c-2.3,0.6-5.7,1.2-10.1,1.8c-0.2,0-0.6,0.2-0.5,1.1
											c0.3,2.3,1,4.5,1.5,6.8c0.4,1.6,1.2,3.4,2.4,5.3c1,1.5,3,4.2,4.9,4.4c3.2-0.4,5.9-0.7,8.2-1.1
											C635.5,461.2,634.9,459.2,632.8,455.7L632.8,455.7z"/>
										<path class="st7" d="M630.9,442.6c-0.5,0.3-1.2,0.5-2.1,0.8c0.4,0.6,0.9,1.2,1.3,1.8c0.9-0.3,1.6-0.5,2.1-0.8
											C631.8,443.7,631.3,443.1,630.9,442.6L630.9,442.6z"/>
										<path class="st7" d="M627.6,519.8c-0.4,0-0.8,0-1.2,0.1c0.4,2.3,0.8,4.7,1.2,7.1c0.4,0,0.8,0,1.2-0.1
											C628.4,524.5,628,522.2,627.6,519.8L627.6,519.8z"/>
										<path class="st7" d="M637.5,636.8c-0.5,1.2-0.9,2.5-1.4,3.7c-0.9,2.3-1.9,4.7-2.9,6.9c0.3,0,0.5-0.1,0.8-0.1
											c1-2.3,2-4.6,2.9-6.9c0.5-1.2,1-2.4,1.4-3.7C638.1,636.8,637.8,636.8,637.5,636.8L637.5,636.8z"/>
										<path class="st3" d="M631.7,650.7c-0.6,1.4-1.3,2.7-1.9,4.1c0.3,0,0.5-0.1,0.8-0.1c0.7-1.3,1.3-2.7,2-4.1
											C632.2,650.6,632,650.6,631.7,650.7L631.7,650.7z"/>
										<path class="st7" d="M589.7,684.5c-1.7,2.8-3.5,5.4-5.3,8c0.3,0,0.7,0,1-0.1c1.8-2.6,3.6-5.3,5.3-8.1
											C590.4,684.5,590.1,684.5,589.7,684.5L589.7,684.5z"/>
										<path class="st7" d="M620.4,631.8c-1,3.5-2.2,6.9-3.4,10.3c0,0,0,0.1,0,0.1c0.4,0,0.8,0,1.2-0.1c0,0,0-0.1,0-0.1
											c1.2-3.4,2.3-6.8,3.4-10.3C621.2,631.7,620.8,631.8,620.4,631.8L620.4,631.8z"/>
										<path class="st7" d="M654.3,630.4c-0.3,0.7-0.5,1.4-0.8,2c0.7-0.2,1.3-0.4,1.8-0.6c0.3-0.7,0.5-1.4,0.8-2
											C655.6,630,655,630.2,654.3,630.4z"/>
										<path class="st3" d="M671.4,552.7c0,0.7-0.9,1.3-2.6,1.9c0,0.7,0,1.5,0.1,2.2c1.7-0.6,2.6-1.3,2.6-1.9
											C671.5,554.2,671.5,553.4,671.4,552.7z"/>
										<path class="st4" d="M644.3,459.6l-0.3-0.5l-0.9-1.5l-0.3-0.5c0-0.1-0.1-0.2-0.2-0.2c0,0.1,0,0.3,0,0.5
											c-0.3-0.3-1.6-2.4-1.8-2.9c0-0.1,0-0.2,0-0.3c-0.1-0.2-0.9-1.5-2.5-3.9c-0.1-0.1-0.2-0.3-0.3-0.5c0-0.1-0.1-0.1-0.1-0.1
											l-1.3-1.8c0,0,0.1,0.1,0.1,0.1c0.8,1.3,1.7,2.6,2.5,3.9c0.2,0.3,0.2,0.4,0.3,0.5c0,0.1,0,0.1,0,0.2c0.1,0.5,2.4,4,2.5,4.1
											c1,1.6,1.6,2.4,1.8,2.5c0.1-0.2,0.1-0.3,0-0.5C643.7,458.7,643.9,459,644.3,459.6L644.3,459.6z"/>
										<path class="st7" d="M566.5,642.9c-0.6-0.5-1-0.8-1.9-0.8c-1.3,0-2.7,0.1-4.1,0.1c-2.1,0.3-3.5,1.6-4.2,4
											c-0.1,0.3-0.1,0.7-0.2,1c-0.2,1.3,1.1,3.4,3.9,6.3c0.4,0.5,0.4,1.1,0.3,1.3c-0.5,2.4,0.2,3.7,2.2,3.9c1.1,0,2.2,0,3.3-0.1
											c0.2-0.6,0.4-1.3,0.5-1.9c-1.1,0-2.2,0-3.3,0.1c-1.2-0.1-1.2-1-1.1-1.8c0.3-1.4-1-3.5-3.8-6.2c-0.4-0.4-0.5-0.8-0.3-1.5
											c0.1-0.3,0.2-0.7,0.2-1c0.4-1.2,1-1.8,2.1-1.9c1.4,0,2.7,0,4.1-0.1c0.4,0,2.4,2.1,5.9,6.1c0.3,0.4,0.4,0.8,0.2,1.5
											c-0.8,2.9-1.6,5.7-2.5,8.5c0.5,0,1.1,0,1.6,0c0.9-2.8,1.7-5.6,2.5-8.5C572.3,650.3,570.5,647.4,566.5,642.9L566.5,642.9z"
											/>
										<path class="st7" d="M666.5,524c-0.6,0.2-1.2,0.5-2.1,0.7c-2,0-5-6.3-8.1-17c-1.8-6.3-3.8-12.5-6.2-18.6
											c-1-2.6-2.1-5.2-3.2-7.7c-0.3-0.7-0.6-1.4-0.9-2c-1-2.1-1.9-4.2-3-6.3c-0.2,0-0.3,0.1-0.5,0.1c1,2.1,2,4.2,2.9,6.3
											c0.3,0.7,0.6,1.3,0.9,2c1.1,2.5,2.2,5.1,3.2,7.7c2.4,6.1,4.4,12.3,6.2,18.6c3.4,12,6.8,19.1,9,19.1
											c0.8-0.2,1.5-0.5,2.1-0.7C666.7,525.4,666.6,524.7,666.5,524L666.5,524z"/>
										<path class="st7" d="M622.1,507c-2.4-2.9-4.8-4.2-7.4-4.2c-2.8,0.1-5.6,0.3-8.6,0.4c0.2,0.7,0.3,1.4,0.5,2.1
											c3-0.1,5.9-0.3,8.6-0.4c3.7,0.1,5,1.8,9.9,8.1l0.6-1.5C624.6,510.1,623.2,508.3,622.1,507L622.1,507z"/>
										<path class="st7" d="M604.3,503.3c-1.3,0.1-2.7,0.1-4.1,0.2c0.2,0.7,0.3,1.4,0.5,2.1c1.4-0.1,2.8-0.1,4.1-0.2
											C604.7,504.7,604.5,504,604.3,503.3L604.3,503.3z"/>
										<path class="st7" d="M667.1,554.9c-2.4,0.7-5.9,1.3-10.2,1.9c-2.2,0.6-3.8,5.1-4,11.5c-0.1,3.6-0.3,7.2-0.5,10.8
											c0.3,0,0.6-0.1,0.8-0.1c0.3-3.6,0.4-7.2,0.5-10.8c0.2-5.1,1.5-8.7,3.2-9.2c4.4-0.6,7.8-1.2,10.2-1.9
											C667.1,556.4,667.1,555.6,667.1,554.9L667.1,554.9z"/>
										<path class="st4" d="M530,721.3l-5.5-7.6c-0.3-0.3-0.5-0.3-1-0.4c-1,0-2,0-3,0c-1.5,0-2.2,0.8-3,2.1
											c-0.6,1.2-1.1,2.4-1.7,3.5c-0.1,0.2-0.4,1-0.1,1.5l4.6,5.5c0,0.2-0.1,0.5-0.3,0.9c-0.4,0.6-0.8,1.2,0.6,1.3
											c1.1,0,2.2,0,3.2-0.1c0.3-0.3,0.6-0.7,0.9-1.1c-1.1,0-2.2,0-3.3,0.1c-0.2-0.1-0.5-0.1-0.1-0.7c0.5-0.7,0.8-1.1-0.1-2.1
											l-4.2-4.8c-0.1-0.2-0.1-0.3,0-0.6c0.6-1.2,1.2-2.3,1.7-3.5c0.3-0.5,0.6-0.8,1.1-0.8c1,0,2,0,2.9,0c0.1,0,0.5,0,0.8,0.5
											c0,0,4.1,5.6,5.2,7.4c0,0.2,0,0.3-0.1,0.5c-4.2,5.5-8.5,10.2-13,14.1c0.3,0,0.5,0,0.8,0c4.6-3.9,9-8.6,13.2-14
											C530.1,722.6,530.4,722.1,530,721.3L530,721.3z"/>
										<path class="st3" d="M615.3,477.1c-0.3-0.7-0.5-1.3-0.8-2c-3.9-9.6-8.4-18.7-13.4-27.4c-0.3,0-0.7,0-1,0.1
											c5,8.7,9.5,17.8,13.3,27.4c0.3,0.7,0.5,1.3,0.8,2c1.5,3.8,2.8,7.6,4.1,11.5c0.4,0,0.8,0,1.2-0.1
											C618.2,484.7,616.8,480.9,615.3,477.1L615.3,477.1z"/>
										<path class="st3" d="M649.2,648.4c-0.3,0.7-0.7,1.3-1,1.9c0.1-0.1,0.2-0.2,0.2-0.3l0.3-0.6l0.7-1.4
											C649.4,648.2,649.3,648.3,649.2,648.4L649.2,648.4z"/>
										<path class="st3" d="M646.8,539.9c-1.5,0.2-3.1,0.3-4.8,0.5c0.1,0.7,0.2,1.5,0.2,2.2c1.7-0.1,3.3-0.3,4.8-0.4
											C647,541.3,646.9,540.6,646.8,539.9z"/>
										<path class="st7" d="M527.8,727c-0.3,0.4-0.6,0.7-0.9,1.1c1.5,0,3-0.1,4.4-0.1c0.3-0.3,0.7-0.7,1-1.1
											C530.8,726.9,529.3,727,527.8,727z"/>
									</g>
								</g>
							</g>
						</g>
						<g>
							<g>
								<path class="st4" d="M437.7,558.2c-0.7,0-1.3,0-2,0c0,2.5,0,5,0,7.5c0.7,0,1.3,0,2,0C437.7,563.2,437.7,560.7,437.7,558.2z"
									/>
								<path class="st4" d="M510.7,627.1c-0.9,0-1.7,0-2.5-0.1c3.6,4.7,10.3,13.6,16.7,23.6c0.3,0.5,0.5,0.9,0.6,1.5l1.5-1.4
									C526.5,649.2,520.1,639.5,510.7,627.1L510.7,627.1z"/>
								<path class="st4" d="M299.3,534.4c-0.1,0.7-0.1,1.5-0.2,2.2c3.9-0.6,8.8-1.2,14.5-1.7c0.1-0.7,0.1-1.5,0.2-2.2
									C308.1,533.2,303.2,533.8,299.3,534.4L299.3,534.4z"/>
								<path class="st4" d="M497.6,610.5c-1.6-1.7-2.9-2.4-5.1-2.5c-9.2-0.2-18.5-0.2-27.7-0.4c-3.4-0.2-5.5-2.2-5.7-6.3
									c0-3.3-0.1-6.6-0.1-9.9c-0.2-5.3-2.9-8.3-7.8-8.5c-2.5,0-5,0-7.5,0c-3.5-0.4-5.4-2.5-5.8-6.4c-0.1-2.9-0.1-5.7-0.1-8.6
									c-0.7,0-1.3,0-2,0c0,2.9,0.1,5.7,0.1,8.6c0.6,5.2,3.2,8,7.9,8.6c2.5,0,5,0,7.5,0c3.6,0.1,5.4,2.5,5.8,6.4
									c0,3.3,0.1,6.6,0.2,9.9c0.1,5.1,2.8,8.1,7.6,8.4c9.2,0.1,18.4,0.2,27.6,0.4c1.6,0.1,6.3,5.1,14.1,14.8c0.9,0,1.7,0,2.6,0.1
									C503.7,618.1,499.8,613.3,497.6,610.5L497.6,610.5z"/>
								<path class="st4" d="M481.9,724.3c0,0-0.3,2.2-0.7,3.5c-0.2,1.1-0.5,1.7-0.8,2.2c-0.4,0.6-0.9,0.9-1.4,0.9
									c-1,0-1.6-0.9-1.8-1.1l-6.1-10.4c-0.8-1.4-0.8-2.4-0.8-2.6c-0.8-9.2-1.4-19.4-2-31c-0.2-4.6-0.4-9.4-0.6-14.4
									c-0.1-2.3-0.1-3.2-2.5-5.4c-2.1-1.8-5.7-5-12.2-10.3c-1.6-1.6-1.9-2.2-2.3-4.4c-0.8-9.4-1.5-19.2-2.1-29.4
									c-0.3-5.5-0.6-11.1-0.8-16.7c-0.7-5.1-3.2-7.9-7.8-8.4c-8.5,0-17,0-25.3,0.1c0.1,0.7,0.1,1.4,0.2,2.2
									c8.3-0.1,16.7-0.1,25.2-0.1c3.4,0.4,5.3,2.4,5.8,6.2c0.2,5.6,0.5,11.2,0.8,16.7c0.6,10.2,1.3,20,2.2,29.4
									c0.3,2.1-0.1,3,2.9,5.8c2.1,2,6.2,4.9,12.3,10.2c1.5,1.3,1.8,2.1,2,4.2c0.4,5,0.5,9.7,0.7,14.4c0.7,11.8,1,22,1.9,30.9
									c0.1,0.9,0.1,1.7,0.7,2.8l6.7,10.9c1.8,2.5,3.8,2.4,4.8,0.6c0.3-0.5,0.8-1.9,1-2.8l0.7-3.5
									C482.7,724.8,482.1,724.4,481.9,724.3L481.9,724.3z"/>
								<path class="st4" d="M525.6,654.3c-1.6,7.8-3.2,14.9-5.1,21.6c-0.7,2.2-0.5,2.2-5,6.3c-12.5,11.2-22.8,21-30.7,29.1
									c-1,1.2-1.4,2.1-1.6,3.6c-0.3,3.1-0.7,6-1,8.8c0.3,0.1,0.7,0.2,0.9,0.3c0.4-2.8,0.8-5.8,1.1-9c0.1-0.4,0.3-1.7,1.7-3
									c3.5-3.4,11.9-12.1,33.3-31.2c1-1,2.2-2.3,2.9-4.7c1.8-6.8,3.5-13.9,5-21.3c0.2-0.9,0.2-1.1,0.2-2
									C526.8,653.1,526.1,653.8,525.6,654.3L525.6,654.3z"/>
								<path class="st4" d="M367.5,574.8c-3.5-2.4-3.7-4.2-4-6.9c-0.4-7.4-0.5-13.6-0.5-20.5c-0.6,0-1.1,0-1.7,0.1
									c-0.1,7.5,0.1,14.9,0.5,22.3c0.4,4,14.1,13.6,40.9,28.7c1.2,0.7,2.1,0.9,3.4,0.9c2.3,0,4.6-0.1,7-0.1
									c-0.1-0.7-0.1-1.4-0.2-2.2c-2.4,0-4.7,0.2-7,0.1c-0.2,0-0.9,0.1-2-0.6L367.5,574.8L367.5,574.8z"/>
								<path class="st4" d="M362.6,517.5c-1-1.4-2.9-2.8-4.1-4c-1.9-1.8-5.9-5.7-11.1-11.7c-0.9-0.9-1.6-1.2-2.8-1.2
									c-2.8,0.1-5.5,0.3-8.1,0.5c-0.8,0.1-2.6-0.1-5,3.7c-2.4,3.9-6.5,11.2-12.8,25c-0.9,1.9-1.7,2.7-2.8,2.9
									c-0.3,0-0.6,0-0.9,0.1c-0.1,0.7-0.1,1.5-0.2,2.2c0.3,0,0.6,0,0.9-0.1c2.2-0.5,2.8-1.7,5.6-7.8c1.6-3.4,5.1-10.7,11.3-21.1
									c1.2-1.8,2.1-2.5,3.5-2.8c2.6-0.2,5.3-0.3,8.1-0.5c0.9,0,2.5,1.4,5,4.2c1.2,1.4,4.8,5.3,11.7,11.8c1.3,1.4,1.7,2.8,1.6,5.1
									c-0.6,7-1,14.2-1.2,21.4c0.6,0,1.1,0,1.7-0.1c0.1-7.2,0.5-14.4,1.1-21.4C364.3,522.5,364.4,519.8,362.6,517.5L362.6,517.5z"
									/>
							</g>
							<g>
								<path class="st4" d="M411,506.1c-3.3-0.3-4.9-2.3-4.8-6c0.4-3.3,0.8-6.6,1.2-9.9c0.2-4.9-1.6-7.4-5.8-7.8
									c-9.2,0.1-18.1,0.4-26.7,0.6c-8.3,0.2-15.9,0.5-22.9,0.9c-0.7,0-3-0.2-9.7-16c-0.6-1.1-0.9-1.3-2-1.4
									c-3.3,0.2-6.3,0.5-9.1,0.7c-1.8,0.5-2.8,0.5-10.7,10.9c-0.9,1.1-1,1.2-1.8,1.9c-1.2,1-1.7,0.8-2.5,1c-2,0.7-3.7,3-5.5,7.9
									c-0.4,1-0.7,2-1,3c-1.3,4.4-1.8,6,2.5,17.8c0.7,1.3,2.6,1,3.2,2.4c0.8,1.6,0.5,3.7,0.4,5c-0.8,5.2-1.5,10.4-2,15.6
									c-0.1,0.7-0.1,1.5-0.2,2.2c-0.1,1.4-0.2,2.9-0.3,4.3c0.3,0,0.7-0.1,1-0.1c0.1-1.4,0.2-2.9,0.3-4.3c0.1-0.7,0.1-1.5,0.2-2.2
									c0.5-5.3,1.1-10.5,2-15.6c0.6-5.1-0.2-7.7-2.3-7.9c-1.7-0.2-3.5-7-4.7-12.6c-0.1-1.6,0.3-2.4,1-4.5c0.3-1,0.7-2,1-3
									c0.8-2.2,1.9-5.1,3.9-6.2c1.1-0.6,1.2-0.4,1.9-0.4c0.7-0.2,4-4,10.1-11.3c1.3-1.4,1.6-1.6,2.7-1.9c2.8-0.2,5.9-0.5,9.1-0.7
									c0.7,0.1,1.7,1.5,2.8,4c2.4,5.5,4.6,9.1,6.3,12c1,1.2,1.3,1.4,2.8,1.5c7-0.3,14.7-0.6,23-0.9c8.6-0.3,17.6-0.5,26.8-0.6
									c3.1,0.3,4.5,2.2,4.3,5.8c-0.5,3.3-0.9,6.6-1.3,9.9c-0.1,5,2,7.6,6.4,8.1c2.4,0,4.8,0,7.3-0.1c0.1-0.7,0.1-1.4,0.2-2.1
									C415.8,506.1,413.4,506.1,411,506.1L411,506.1z"/>
								<path class="st4" d="M420.2,506.1c-0.1,0.7-0.1,1.4-0.2,2.1c3.2,0,6.4,0,9.6,0c0-0.7,0.1-1.4,0.1-2.1
									C426.6,506,423.4,506,420.2,506.1L420.2,506.1z"/>
							</g>
							<g>
								<path class="st4" d="M477.5,504.1c-1.4-0.8-2.4-1.1-3.9-1.2c-2.4,0-4.9,0-7.3-0.1c-5,0.5-7.7,3.3-8.4,8.7
									c0,1.3-0.1,2.6-0.1,3.9c-0.5,4.1-2.6,6.3-6.4,6.7c-1.4,0-2.7,0-4.1,0c-6.4-0.4-6.1-4.8-5.4-14.6c0.4-3.2,1.6-4.2,4-6.3
									c5.9-5.5,3.5-14.8-3.9-15.2c-3.1,0-6.1,0-9.2,0c-2.1,0.1-5.6,2.3-10.5,6.6c-2,2-2.9,3.7-3.3,6.5c-0.2,2.2-0.4,4.5-0.6,6.7
									c-0.1,0.7-0.1,1.4-0.2,2.1c-0.3,3.2-0.5,6.4-0.7,9.6c0.6,0,1.3,0,1.9,0c0.2-3.2,0.4-6.4,0.7-9.6c0.1-0.7,0.1-1.4,0.2-2.1
									c0.2-2.3,0.4-4.5,0.6-6.7c0.3-2.1,2.9-5.3,7.7-9.5c1.4-1.1,2.4-1.5,4-1.6c3.1,0,6.1,0,9.2,0c4.4,0.5,9.1,6.3,1.5,12.7
									c-3.1,2.9-3.1,3.1-3.8,14.4c-0.1,5.2,3,8.7,7.8,9c1.4,0,2.7,0,4.1,0c5-0.5,7.8-3.4,8.5-8.9c0-1.3,0.1-2.6,0.1-3.9
									c0.5-4.1,2.6-6.2,6.4-6.6c2.4,0,4.9,0,7.3,0.1c1.2,0.1,7,3.4,17.3,9.8c2.1,1.5,3,3.1,3.1,5.9c0,1.8,0,3.6,0,5.4
									c0,0.1,0,0.9,0,1h2c0-0.2,0-0.8,0-1c0-1.8,0-3.6,0-5.4C495.7,517.2,489.5,511.6,477.5,504.1L477.5,504.1z"/>
								<path class="st4" d="M493.4,529c-1,2.1-1,2.2-12.1,8.9c-2.9,2-4,4.2-4.3,7.9v0.8c0,1.9-0.1,3.9-0.1,5.8
									c-0.2,2.5-4,6.6-11.4,12.3c-1.2,0.9-2.1,1.2-3.6,1.2c-8.1-0.1-16.1-0.1-24.1-0.1c-0.7,0-1.3,0-2,0c-7.9,0-15.8,0-23.5,0.1
									c0,0.7,0,1.5,0,2.2c7.7-0.1,15.5-0.1,23.4-0.1c0.7,0,1.3,0,2,0c8,0,16,0,24.1,0.1c1.8-0.1,6.3-2.8,13.4-8.2
									c2.4-2.1,3.4-4.1,3.6-7.5c0-1.9,0-3.9,0.1-5.8c0-0.3,0-0.5,0-0.8c0.2-2.8,4.4-6.7,12.7-11.7c0.8-0.5,2.5-1.6,3.6-4.1
									c0.1-0.2,0.2-0.7,0.3-0.9L493.4,529L493.4,529z"/>
							</g>
							<path class="st7" d="M313.2,542.2c-0.1,2-0.2,3.9-0.2,5.9c0.3,0,0.7-0.1,1-0.1c0-2,0.1-3.9,0.2-5.9
								C313.9,542.1,313.5,542.2,313.2,542.2z"/>
							<path class="st4" d="M437,470.1c-1.5,0-2.9,0-4.4,0c-0.8-0.1-2.3-2.2-4.4-6.4c-0.7-1.2-1.4-1.6-2.8-1.7
								c-7.5,0.1-14.9,0.1-22.1,0.3c-0.9-0.1-1.8-0.2-6.8-14.5c-0.4-1-1-1.4-2.1-1.4c-2.8,0.1-5.6,0.1-8.4,0.2
								c-1.9,0.1-3.8,0.1-5.6,0.2c0.5-1.2,1-2.4,1.5-3.5c-0.5,0-0.9,0-1.4,0c-0.5,1.2-1,2.4-1.5,3.5c-1.1,0-2.2,0.1-3.3,0.1
								c-0.3,0.6-0.5,1.2-0.8,1.8c1.1,0,2.2-0.1,3.3-0.1c-1.5,3.6-2.9,7.3-4.2,11c-0.7,2.5-0.1,3.9,1.9,4c1.4,0,2.8-0.1,4.2-0.1
								c2.2-0.1,4.4-0.1,6.7-0.2c0.5,0.1,2.6,3.5,6.3,10.5c0.6,1,1.3,1.3,2.5,1.4c4.9-0.1,9.9-0.2,15-0.2c0.8,0.1,2.2,2.7,4.2,7.8
								c0.7,1.4,1.6,2,3.1,2.1c2.8,0,5.6,0,8.4-0.1c1.2-0.1,3.5-1.8,6.9-5.2c0.6-0.5,0.9-0.6,1.6-0.7c0.4,0,0.9,0,1.3,0
								c3.1-0.3,4-2.5,4.3-3.5C440.3,475.2,441.5,470.6,437,470.1L437,470.1z M438.5,474.9c-0.1,0.5-0.7,1.7-2.3,1.9
								c-0.4,0-0.9,0-1.3,0c-1.2,0.1-2,0.4-3,1.3c-3,3-4.8,4.5-5.5,4.6c-2.8,0-5.6,0-8.3,0.1c-0.9-0.1-1.2-0.3-1.7-1.1
								c-2.3-5.7-4.1-8.6-5.5-8.7c-5,0.1-10,0.1-14.9,0.2c-0.7-0.1-0.9-0.1-1.3-0.8c-4-7.3-6.4-11-7.3-11c-2.2,0.1-4.5,0.1-6.6,0.2
								c-1.4,0-2.8,0.1-4.2,0.1c-1-0.1-1.4-0.9-1-2.2c1.3-3.8,2.7-7.5,4.1-11c1.9-0.1,3.8-0.1,5.7-0.2c2.8-0.1,5.6-0.2,8.4-0.2
								c0.7,0.1,0.8,0.2,1.1,0.8c5.4,15.2,5.9,15.2,8,15.3c7.2-0.1,14.7-0.2,22.2-0.3c0.8,0.1,1,0.2,1.5,0.9
								c2.4,4.8,4.3,7.2,5.8,7.3c1.5,0,3,0,4.4,0C439.2,472.3,438.5,474.9,438.5,474.9L438.5,474.9z"/>
							<path class="st4" d="M473.5,409.6c-11.5-0.1-23-0.1-34.1,0c-2,0.2-3.5,1.4-4.5,3.5c-0.1,0.3-0.2,0.6-0.4,1
								c0,0.1-0.1,0.1-0.1,0.2c-0.6,1.3-1.5,2-2.7,2.1c-1.9,0-3.9,0-6,0.1c-0.7,0.1-1,0.2-2,0.7c-4.6,2.8-7.3,4.9-7.9,6.2
								c-1.5,3.6-3,7.3-4.4,11.1c0.5,0,1,0,1.5,0c1.4-3.8,2.8-7.5,4.3-11.1c0.5-0.9,0.7-1.1,1.6-1.8c3.8-2.3,6-3.5,6.5-3.6
								c1.9,0,3.9,0,5.8-0.1c2.1-0.2,3.6-1.4,4.6-3.6c0-0.1,0.1-0.1,0.1-0.2c0.1-0.3,0.2-0.6,0.4-1c0.6-1.2,1.4-1.9,2.6-2
								c11.3-0.1,22.9-0.1,34.5,0.1c1.2,0.1,1.8,0.8,1.8,2c0,0.3,0,0.6-0.1,1c0,0,0,0.1,0,0.1c-0.1,1-0.6,1.6-1.5,2
								c-10.5,3.4-15.9,6-16.4,7.8c-0.4,2.6-0.8,5.3-1.2,8c-0.3,1.4-1.2,2.2-2.6,2.3c-10.1,0-20,0-29.8,0.1
								c-1.3-0.1-1.7-0.9-1.4-2.3c0.6-2.4-0.2-3.7-2.3-3.9c-0.9,0-1.9,0-2.8,0c-0.2,0.5-0.4,1.1-0.6,1.6c0.9,0,1.9,0,2.8,0
								c1.2,0.1,1.7,0.9,1.3,2.3c-0.6,2.5,0.2,3.8,2.4,4c9.8-0.1,19.8-0.1,30-0.1c2.4-0.2,3.8-1.5,4.4-4c0.4-2.7,0.8-5.4,1.1-8
								c0.2-1.1,0.8-1.7,1.8-2.1c10.5-3.4,15.8-5.9,16-7.7c0.3-2.7,0-0.1,0-0.1c0-0.3,0-0.6,0-1
								C476.5,410.9,475.5,409.8,473.5,409.6L473.5,409.6z"/>
							<path class="st4" d="M575.8,446.1c-1.1-2.9-2.3-5.7-3.5-8.5c-1.3-2.8-2.2-3.8-4.8-4.1c-1.4-0.1-3.5-0.2-4.5-0.3
								c-1-0.1-1-0.4-1.8-1.1c-12.1-13.8-12.3-13.9-14.6-14.3c-8.9-0.4-18.2-0.8-28.1-1.1c-0.8,0.2-1.2,0.4-1.7,1
								c-2.2,3.2-3.7,4.9-4.4,5c-8.6-0.2-17.4-0.4-26.2-0.6c-1.2,0.1-1.5,0.2-2.5,1.1c-5.4,5.8-8.5,8.7-9.3,8.8
								c-2.6,0-5.1,0-7.7-0.1c-2.3,0.2-3.6,1.5-4.1,3.9c-0.1,1-0.2,1.9-0.3,2.9c0.5,0,1.1,0,1.7,0c0.1-1,0.2-1.9,0.3-2.9
								c0.4-1.5,0.8-1.9,2.3-2.2c2.6,0,5.2,0,7.8,0.1c1.3-0.1,1.7-0.3,2.7-1.1c5.6-5.8,8.7-8.8,9.2-8.8c8.9,0.1,17.8,0.3,26.5,0.6
								c1.2-0.1,1.5-0.2,2.2-1c2.3-3.3,3.8-5,4.3-5.1c9.7,0.3,19.1,0.7,28.3,1.1c0.6,0.2,1.2,0.6,1.7,1
								c13.1,14.2,11.7,14.2,13.3,14.5c1.4,0.1,4.5,0,5.7,0.3c1.4,0.3,1.9,0.7,2.6,2.3c1.2,2.8,2.3,5.6,3.4,8.5
								c0.6,1.6,0.5,2.2-0.7,2.2c-0.7,0-1.4-0.1-2.2-0.1c-1.2-0.1-1.3,0.4-1.7,1.8l-3.9,15.6c-0.7,2.8-1.5,2.7-1.8,2.8l-13.1-0.6
								c-1.8-0.1-2.2,0.5-2.8,2.3c-6.5,19.5-6.3,19.6-8.2,19.9l-15-0.5c-0.8-0.1-1.3-0.4-1.6-0.7c-12.5-11.7-12.1-11.3-12.4-12.8
								c0-0.8-0.1-1.6-0.1-2.4c0.2-1.8,0.6-2.3,2.2-2.6c1.1,0,2.2,0.1,3.3,0.1c0.7-0.1,1.5-0.1,2.2-0.7c2.6-2,1.8-7.6-3-8.2
								c-6.6-0.2-13.4-0.3-20.7-0.5c-0.4-0.2-1-0.6-1.3-0.9c-9.8-13.3-15.4-20-16.6-20.1c-2.2,0-4.4,0-6.6-0.1
								c0,0.6-0.1,1.2-0.1,1.8c2.2,0,4.5,0,7.2,0.1c0.4,0.2,0.9,0.5,1.2,0.8c9.5,13.3,15.1,20.1,16.8,20.4
								c6.8,0.1,13.6,0.3,20.2,0.5c0.3,0.1,0.7,0.1,0.9,0.2c1.5,0.7,2.8,4.2-0.5,4.9c-1.1,0-2.2-0.1-3.3-0.1
								c-2.5,0.2-3.8,1.7-3.9,4.5c0,0.9,0.1,1.7,0.1,2.6c0.3,1.7,0.5,2.2,1.6,3.5c8.4,7.8,13.2,11.8,14.3,11.9
								c5.1,0.1,10.1,0.3,15.1,0.5c1.4-0.2,2.5-0.3,3.5-2.4c4.7-13.2,7.2-19.8,7.7-19.9c3.8,0.1,7.5,0.3,11.1,0.5
								c0.7,0,1.4,0.1,2,0.1c1.3,0.1,2.4-0.8,2.7-2.1c0.1-0.6,0.3-1.1,0.4-1.6c3.2-12,4-15.4,4.3-16.3c0.1-0.2,0.3-0.4,0.5-0.4
								c0.6,0,1.2,0.1,1.8,0.1C575.8,450.1,576.8,449.2,575.8,446.1L575.8,446.1z"/>
							<path class="st7" d="M495.8,495.9c0-3.6-0.1-7.1-0.1-10.7c-0.2-2.4-0.8-3.8-2.4-5.5c-5-4.7-8.3-7.1-10-7.2
								c-1.9,0-3.8,0-5.8-0.1c-1.6-0.1-2.5-0.6-3.5-1.8c-5.7-7.2-9.5-10.9-11.5-11c-3.1,0-6.2,0-9.3,0c-0.1,0.6-0.1,1.3-0.2,1.9
								c3.1,0,6.2,0,9.4,0c1.5,0.1,2.4,0.5,3.4,1.7c5.6,7.3,9.5,11,11.7,11.2c1.9,0,3.9,0,5.8,0.1c1.3,0.1,2.1,0.4,3.1,1.3
								c4.8,4.6,7.3,7.7,7.4,9.4c0,3.5,0,7.1,0.1,10.7c0.1,5.9-4.5,7.2-8.1,3.4c-6.3-6.8-6.7-7.2-9.9-7.5c-2.2,0-4.4,0-6.6-0.1
								c-3-0.4-4.6-2.1-4.7-5.3c0-0.6,0-1.2,0.1-1.8c-0.2-4.4-2.3-6.8-6.4-7.3c-1.6,0-3.2,0-4.8,0c-2.9-0.3-4.3-2-4.4-5.2
								c0.7-7.7,1.5-15.1,2.3-22.2c-0.6,0-1.1,0-1.7,0c-0.9,7.1-1.7,14.5-2.4,22.2c0,4.4,2,6.7,6,7.2c1.6,0,3.2,0,4.9,0
								c2.9,0.3,4.4,2,4.6,5.2c0,0.6,0,1.2-0.1,1.8c0.2,4.5,2.4,6.9,6.6,7.4c2.2,0,4.4,0,6.6,0.1c1.6,0.1,2.5,0.6,3.6,1.7l6.3,6.2
								c3.3,3.1,7.2,1.6,8.7-0.6C495.9,499.1,495.8,496,495.8,495.9L495.8,495.9z"/>
							<g>
								<path class="st4" d="M605.6,554c-0.5,0-1.6,0-2.8,1c-7.1,6.4-13.5,13.6-20.5,20.1c-1.5,1.5-2.1,2.8-2.4,5.2
									c-1,10.2-2.4,20.2-4.3,30.1c0.5,0,1.1,0.1,1.6,0.1c1.9-9.9,3.3-19.9,4.3-30.1c0.2-1.4,0.6-2.4,1.3-3.2
									c6.5-7,13.8-13.2,20.5-20c0.5-0.5,1.1-1,2.1-0.9c2,0.1,4.2,0.3,6.2,0.4c0-0.8-0.1-1.2-0.3-2.2
									C609.5,554.3,607.5,554.2,605.6,554L605.6,554z"/>
								<path class="st4" d="M634.7,524.3c0.2,0,0.5,0,0.7,0.1c-0.3-2.9-0.7-5.8-1.1-8.6c-0.2,0-0.5,0-0.7-0.1c-0.2,0-0.4,0-0.5-0.1
									c0.4,2.9,0.8,5.7,1.1,8.6C634.4,524.3,634.5,524.3,634.7,524.3L634.7,524.3z"/>
								<path class="st4" d="M639.2,571.4c-0.5,0.5-0.8,0.6-1.5,0.7c-0.8-0.1-1.6-0.2-2.5-0.2c0,0-0.1,0-0.1,0
									c-0.7-0.1-2.6-4.5-5.7-13c-0.9-2.1-1.8-2.9-3.3-3.2c-4.2-0.4-8.8-0.7-13.4-1.1c0.1,0.8,0.2,1.4,0.2,2.2
									c4.5,0.3,9,0.7,13.2,1c1.8,0.3,1.9,0.4,6,13c0.7,2,1.5,2.9,2.9,3.2c0,0,0.1,0,0.2,0c0.8,0.1,1.6,0.2,2.4,0.2
									c0.4,0,1.2,0,2.2-1c4.3-4.4,8.7-9.8,13.1-16.1l-0.5-1.9C647.9,561.4,645.4,564.6,639.2,571.4L639.2,571.4z"/>
								<path class="st4" d="M660.5,539.1c-0.1-1.7-0.3-3.4-0.5-5.2c-0.5-4-0.7-4.5-5.1-12.5c-0.7-1.1-1.1-1.5-1.7-1.7
									c-2.5-0.4-5.4-0.8-8.6-1.2c-1.9,0.2-2.6,2.2-2.3,6.3c0,0.3,0.1,0.7,0.1,1.1c0.4,2.9,0.7,3.5,2.9,7.4c1.5,3,1.2,7.5-1.1,7.7
									c-1.1-0.1-2.2-0.2-3.3-0.4c-0.7-0.1-1.9-1.7-3.7-4.8c-0.6-1.1-0.8-1.9-1-3.3c-0.2-2-0.3-4-0.5-6c-0.2,0-0.4-0.1-0.7-0.1
									c-0.2,0-0.4,0-0.6-0.1c0.2,2,0.4,4,0.5,6c0.3,2.9,0.4,3.1,3.3,8.2c0.9,1.5,1.6,2.1,2.7,2.3c1.1,0.1,2.2,0.2,3.3,0.4
									c2.7-0.2,2.9-4.3,2.9-5.1c0.1-3.7-0.7-5.1-2.7-8.8c-0.6-1.1-0.8-1.9-1-3.3c0-0.3-0.1-0.7-0.1-1.1c-0.2-2.8,0.3-4.1,1.6-4.2
									c3.2,0.4,6.1,0.8,8.6,1.2c0.7,0.2,0.9,0.2,4.9,8.2c0.5,1.1,0.8,2.1,0.9,3.7c0.2,1.7,0.3,3.4,0.4,5.1c0.1,1.7-0.5,4-1.9,6.7
									l0.6,1.8l1.4-2.9C660.1,543.9,660.7,542.5,660.5,539.1L660.5,539.1z"/>
								<path class="st4" d="M653,554.1l0.5,1.9c2.7-4.4,2.9-4.6,4.4-7.3l-0.5-1.8C654.8,551.3,654.7,551.4,653,554.1L653,554.1z"/>
							</g>
							<path class="st4" d="M648.5,493.3c-1.2-3.9-2.6-7.8-4-11.6c-0.1-0.2-0.1-0.3-0.2-0.5c-1.1-2.5-2-4.2-3.1-4.4
								c-1.2-0.2-2.5-0.4-4.2-0.6c-0.1,0-0.2,0-0.3,0.1c-0.2,0.1-0.3,0.3-0.3,0.5c0,0,0,0.1,0,0.1c-0.5,1.9-1.4,3.6-1.6,5.6
								c-0.1,1.4,0.8,2.7,0.6,4.1c0,0,0,0.2-0.2,0.4c-0.2,0.1-0.4,0.1-0.4,0.1l-4-0.6c-0.5,0-1.2-0.8-1.6-1.4
								c-3.2-4.6-5.2-7.4-7.2-10.4l-0.6,1c6.2,9.1,7.9,11.6,8.8,12.5c0.3,0.3,0.5,0.4,0.8,0.5c1.6,0.2,3.1,0.4,4.5,0.5
								c0.5,0,0.8-0.2,1-0.4c0.9-1-0.6-3.7-0.4-5.2c0.5-1.6,0.9-3.3,1.4-4.9c0.2-0.6,0.3-0.5,0.4-0.5c1.5,0.2,2.6,0.3,4,0.6
								c0.5,0.1,1.1,0.8,1.7,2.2c0.1,0.2,0.1,0.3,0.2,0.5c1.5,3.8,2.8,7.7,4.1,11.9c0.2,0.8,0.2,1,0,1.7c-0.3,1.2-1.8,4.3-2.9,6.5
								c-0.2,0.4-0.5,0.8-0.7,1.1c-0.2,0.4-0.3,0.7-0.6,0.6l-3.8-0.5c-0.6-0.1-1.4-0.8-1.8-2.3c-0.2-0.9-0.4-1.8-0.7-2.7
								c-0.5-1.7-0.8-3.1-1.6-3.9c-0.4-0.4-0.8-0.5-1.7-0.6c-1.7-0.2-3.4-0.4-5.2-0.5c-3.9-0.4-8-0.8-12.4-1.1
								c-0.9,0.1-1.1,0.2-1.6,1.1c-4.5,9.9-9.3,17.8-11.8,21.6c-2,3.1-3,5.3-2.9,6.5c0.2,2.6,0.4,5.2,0.6,7.8
								c0.1,1.3,0.4,2.2,1.1,3.2c4.6,6.3,7.3,9.5,8.1,9.7l8.9,0.7c2,0.1,2.7-1.5,2.8-4.3c0-0.8-0.1-1.6-0.1-2.4c0-0.8,0.1-1,0.3-1.6
								c3.4-5.5,5.2-8.3,5.5-8.3c2.5,0.2,4.8,0.5,7.1,0.7c0.2,0,0.4,0,0.6,0.1c0.2,0,0.5,0.1,0.7,0.1c1.1,0.1,2.1,0.2,3.1,0.3
								c-0.1-0.7-0.2-1.5-0.2-2.2c-1-0.1-2-0.2-3.1-0.3c-0.2,0-0.5,0-0.7-0.1c-0.2,0-0.4,0-0.5-0.1c-2.3-0.2-4.7-0.5-7.1-0.7
								c-0.9,0.1-1.2,0.2-1.8,1.1c-3.5,6.2-5.2,9.9-5.2,10.8c0,0.8,0.1,1.6,0.1,2.4c0,1.7-0.6,2.2-1.4,2.2c-2.9-0.2-5.3-0.3-8.5-0.7
								c-0.9-0.1-1.2-0.3-1.6-0.8c-4.2-6.1-6.4-9.4-6.4-9.8c-0.2-2.6-0.4-5.2-0.6-7.8c0-0.8,0-1,0.3-1.6c5.3-8.1,9.5-15.4,12.5-21.8
								c1.2-2.5,2-3.8,2.4-3.9c4.4,0.4,8.6,0.8,12.5,1.1c1.6,0.2,3.1,0.3,4.7,0.5c0.2,0,0.4,0,0.7,0.2c0.6,0.3,1.1,0.7,1.5,2.2
								c0.2,0.9,0.4,1.8,0.7,2.7c0.8,2.6,1.8,4.1,3.2,4.6l4.3,0.5c0.3,0,0.4-0.2,0.6-0.5c0.1-0.1,0.1-0.3,0.2-0.4
								C649.5,496.9,649.3,496.2,648.5,493.3L648.5,493.3z"/>
							<path class="st4" d="M660.1,493l-0.5-1.2l0,0c0.3,0.7,0.5,1.4,0.8,2.1c0,0,0,0,0,0L660.1,493L660.1,493z"/>
							<g>
								<path class="st4" d="M655,481.5c0.2,0.3,0.4,0.6,1.4,2.9c0.1,0.2,0.2,0.5,0.3,0.7c0.8,2,1.6,4,2.3,6c0,0,0.1,0.1,0.1,0.1
									c-0.7-2-1.5-4-2.3-6c-0.1-0.2-0.2-0.5-0.3-0.7c-1.2-2.8-2-4.5-2.4-5c-0.2-0.1-0.3-0.2-0.5-0.3c-0.1,0.3-0.1,0.6,1.4,4.4
									c0.1,0.2,0.2,0.5,0.3,0.7c0.1,0.3,0.2,0.6,0.4,0.9c0.4,1.1,0.7,1.8,1.5,5.5c0,0.2,0.1,0.4,0.1,0.5c-0.8-0.1-1.7-0.4-2.7-0.6
									c-0.3-0.2-0.8-1-1.6-2.5c-0.6-1.1-1.5-3.4-1.4-4.4c0.1,0,0.2-0.1,0.3-0.1c0.3-0.8-0.4-2.7-1.1-4.4c-0.2-0.5-0.4-1-0.7-1.5
									c-1.6-3.6-1.7-3.8-7.9-10.2c-0.3-0.3-0.3-0.3-0.6-0.5c-3.9-0.8-9-1.6-15.3-2.3c-0.4,0-0.7,0-0.9,0.6
									c-0.9,2.9-1.4,4.9-2.3,7.3l1.3,1.6c1.3-3.7,1.5-4.3,2.3-7.1c0.1-0.3,0.2-0.5,0.5-0.4c0.1,0,0.2,0,0.3,0
									c6.3,0.8,11.3,1.5,15.1,2.2c0,0,0.8,0.5,5.8,6.1c0.5,0.6,0.9,1.3,1.4,2.5c0.2,0.5,0.4,1,0.7,1.5c0.4,1.1,0.7,1.8,0.7,2.4
									c-0.1,0.1-0.3,0.2-0.4,0.3c-0.1,0.2-0.5,2.3,3.3,9.2c0.8,1.4,1,1.5,1.4,1.7c1,0.2,1.9,0.5,2.6,0.8c0,0,0.1-0.1,0.2-0.1
									c0-0.4,0-0.8-1-4.7c-0.3-1-0.6-1.9-1.1-3.3c-0.1-0.3-0.2-0.6-0.4-0.9c-0.1-0.2-0.2-0.5-0.3-0.7c-0.5-1.3-0.7-1.9-0.8-2.4
									C654.7,481.3,654.8,481.4,655,481.5L655,481.5z"/>
								<path class="st4" d="M659.9,493.2c0,0-0.1-0.1-0.2-0.1c1.7,4.8,3.2,9.7,4.5,14.6c0.1,0,0.1,0.1,0.2,0.1
									C663.2,502.9,661.6,498,659.9,493.2L659.9,493.2z"/>
							</g>
							<g>
								<path class="st4" d="M667.1,579.4c-0.2-0.2-0.3-0.3-0.3-1.7c-0.2-5-0.3-7.5-1-13.9c-0.3-2.4-0.8-2.7-1.2-2.7
									c-1.4,0.8-1.6,6.1-1.6,6.2c-0.1,5.9,0.9,11.7,1.1,17.6c0.1,1.7,0.2,2.4,0.6,2.6c0.5,0.2,1,0.3,1.5,0.5
									c0.1-0.7,0.2-1.5,0.3-2.2c-0.4-0.2-0.9-0.3-1.5-0.5c-0.2-0.2-0.4-0.3-0.4-1.6c-0.2-5.8-0.3-7.9-1-14.5
									c-0.3-3.2,0.4-6.2,1.2-5.8c0.8,0.4,1.4,11.7,1.5,15.5c0.1,1.7,0.2,2.4,0.5,2.6c0.3,0.1,0.5,0.2,0.7,0.3
									c0.1-0.7,0.2-1.5,0.3-2.2C667.6,579.6,667.3,579.5,667.1,579.4L667.1,579.4z"/>
								<path class="st4" d="M669.5,580.6c-0.4-0.3-0.8-0.6-1.4-0.8c-0.1,0.7-0.2,1.5-0.3,2.2c0.5,0.2,1,0.5,1.3,0.7
									c0.1,0.4,0.1,0.6,0,2c-1.2,11.8-3.6,23.3-7.3,34.5c0.5-1.4,1.1-3.4,1.5-4.8v0c3.3-11.4,4.8-18.8,6.1-30.6
									C669.6,582,669.6,581.1,669.5,580.6L669.5,580.6z"/>
							</g>
							<g>
								<path class="st4" d="M668.6,571.5c-0.2,2.7-0.5,5.4-0.8,8.1c-0.1,0.7-0.2,1.5-0.3,2.2c-0.3,2.4-0.7,4.7-1,7.1
									c-1.1,6.3-1.8,7.4-5.4,13.6c-1.4,2.2-2.1,1.2-2.4,0c-0.2-1.1-0.2-2.4-0.2-3.2c0.2-7.7,0.1-11.4-0.6-19.1
									c-1.2-9.5-4.8-5.1-8.2-0.8l0.3,1.9l2.6-3.2c2.5-3,4.2-0.6,4.6,3.3c0.9,8,0.7,16.3,0.6,19.1c-0.1,7,1.8,5.6,2.3,5
									c0.3-0.3,1.3-1.7,4-6.8c1.2-2.5,1.9-5.1,2.7-9.5c0.4-2.4,0.7-4.7,1-7.1c0.1-0.7,0.2-1.5,0.3-2.2c0.3-2.7,0.6-5.4,0.8-8.1
									C668.8,571.6,668.7,571.6,668.6,571.5L668.6,571.5z"/>
								<polygon class="st4" points="648.8,580.4 646.7,582.8 647,584.7 649.1,582.3 								"/>
							</g>
							<g>
								<path class="st4" d="M616.5,621.6c-0.2-3.3-1.2-4.8-3.6-5.3c-0.1,0-0.3,0-0.4,0c-2.7,0-3.4,0.7-8.4,6.2
									c-1.5,1.5-2.6,2.1-4.2,2.1c-2.9-0.2-5.8-0.4-8.9-0.6c-1-0.1-2.9-2.1-5.7-6c-1.1-1.3-2-1.9-3.7-2c-9.5-0.5-19.5-1-30-1.4
									c-0.1,0.7-0.2,1.4-0.3,2.1c10.4,0.4,20.4,0.9,29.8,1.4c1.3,0.1,3.3,2.2,5.9,6c1,1.3,1.8,1.8,3.4,2c3,0.2,6,0.4,8.8,0.6
									c3,0,4.1-1.2,8.5-6.2c1.5-1.5,2.5-2.1,4-2.1c0.1,0,0.3,0,0.4,0c2.9,0.6,2.9,1.9,2.7,11.9c0.5,0,0.9,0.1,1.4,0.1
									C616.4,626.2,616.5,625,616.5,621.6L616.5,621.6z"/>
								<path class="st4" d="M614.9,632.4c-0.5,8.4-1,12.5-2.3,20.3c-1.2,4.7-2,5.4-12.3,14.2c-4.5,4.2-5.4,7-7,11.8
									c-1.3,4-3.9,10.5-8.6,18.6c-0.4,0.6-0.7,1.2-0.9,1.6c-0.6,1.6-0.1,2,0.6,2.2l3.4,0.4c1.5,0,2.5,0,16.1-11.1
									c1.1-1,2.4-2.1,4.1-4.1c0.1-0.1,0.1-0.2,0.2-0.2c-0.2,0-0.4-0.1-0.6-0.1c-0.1,0.1-0.1,0.2-0.2,0.2
									c-1.3,1.5-2.8,3.3-14.2,11.9c-1.6,1.2-2.9,1.9-3.5,1.9c-1.4-0.2-1.9-0.2-3.1-0.3c-0.7-0.1-1.1-0.1-1.2-0.3
									c-0.4-0.6-0.2-1.1,0.7-2.7c3.9-6.8,6.6-12.3,9.6-21.7c0.9-2.5,5.1-7,12.7-13.8c4.3-4.2,6.5-6.3,7.9-28.7
									C615.8,632.5,615.3,632.4,614.9,632.4L614.9,632.4z"/>
								<path class="st4" d="M656.2,615.8c0-0.4-0.1-0.9-0.4-1.2c-0.5-0.6-2.4-0.7-3.5-1c-0.8-0.3-1-1-0.9-3.4
									c0.4-9.3,0.3-17.1-1.4-29.1l-0.3-1.9c-0.3-2-0.8-4.6-1.2-6.5l-0.9,1.1c0.4,1.9,0.9,4.5,1.2,6.5l0.3,1.9
									c1.3,9.7,2,17.6,1.4,29.1c-0.1,2.8,0.2,3.7,1.2,4.4c1.1,0.2,2.2,0.4,3.1,0.7c0.9,0.3,0.6,1.3,0.6,2.4
									c0,3.6-3.1,10.5-14.5,23.5c-1.5,1.8-2.6,3.4-4.1,6.2c-3.6,6.8-7.5,13.5-11.8,19.8c-2.5,3.5-3.1,4-8.4,7.9
									c-2.1,1.6-3.6,3.1-5.9,5.9c-0.6,0.7-1.2,1.5-1.8,2.2c0.2,0,0.4,0.1,0.6,0.1c0.6-0.7,1.2-1.5,1.8-2.2
									c1.5-1.9,4.4-4.4,8.7-7.6c2-1.7,3.5-3.3,5.5-6.1c4.3-6.3,8.3-13,11.9-19.8c3.6-6.8,9.4-12,13.8-18.2c0.5-0.7,1.7-2.7,3-5.6
									C655.1,623.2,656.6,618.8,656.2,615.8L656.2,615.8z"/>
							</g>
							<path class="st4" d="M620.9,448.2c-0.3-0.5-0.6-1.1-1-1.6c-0.3,0-0.6-0.1-0.8-0.1c0.3,0.5,0.6,1.1,1,1.6
								c1.7,3,2.2,4.8,1.8,6.4c-2.2,5.9-2.3,5.9-3.8,5.8c-0.3,0-0.5,0-0.8-0.1c-2.1-0.2-4.2-0.4-6.4-0.6
								c-5.9-1.4-10.6-10.4-9.4-14.2c0.9-2.3,1.8-3.5,2.8-3.4c1.3,0.1,2.6,0.2,3.8,0.4c4.1,0.4,7.7,0.8,10.9,1.2
								c-0.4-0.6-0.8-1.2-1.1-1.8c-3.2-0.4-6.8-0.8-10.8-1.2c-1.2-0.1-2.5-0.2-3.8-0.4c-1.3,0-1.8,0.3-2.3,1.4
								c-1.2,3.1-2.1,5.4,0.8,10.7c2.8,5.2,6.6,8.7,10,9.3c2.2,0.2,4.4,0.4,6.4,0.6c0.3,0,0.5,0,0.8,0.1c1.1,0,1.7-0.2,2.2-1.1
								C624,454.9,624.3,454.3,620.9,448.2L620.9,448.2z"/>
							<path class="st7" d="M510,527.2c-4.7-0.1-9.4-0.2-14.1-0.3c-0.7,0-1.3,0-2,0c-5.1-0.1-10.2-0.2-15.3-0.2c0,0.7,0,1.5,0,2.2
								c4.9,0.1,9.9,0.1,14.8,0.2c0.7,0,1.4,0,2.1,0c4.9,0.1,9.7,0.2,14.5,0.3c5.4,0.7,6.8,6.7,3.8,10.4
								c-6.3,6.9-10.3,10.4-11.9,10.5c-4.9-0.1-9.7-0.2-14.6-0.3c0,0.8,0,1.5,0,2.2c4.9,0.1,9.8,0.2,14.6,0.3
								c2.3-0.1,3.6-0.7,5.3-2.3c6.6-7.2,10-11.8,10.2-13.7C517.3,536.1,517.9,528.3,510,527.2L510,527.2z"/>
							<path class="st4" d="M579.6,485c0,0-0.4-5.1-5-5.5c-4.1-0.2-8.3-0.4-12.5-0.6c-1,0-1.5,0.2-2.2,0.8c-4.4,4.4-6.6,7.4-6.5,9
								c0.7,5.6,1.3,11.3,1.7,17c0.6,0,1.2,0,1.8,0.1c-0.5-5.8-1.1-11.4-1.8-17c-0.1-1,0.1-1.6,0.6-2.2c3.9-3.8,6.1-5.7,6.6-5.7
								c4.3,0.2,8.5,0.4,12.6,0.6c2.5,0.4,3.5,3.7,2.1,5.1c-3.5,3.1-5.5,4.6-6,4.6c-4.5-0.2-9.2-0.4-13.9-0.6
								c0.1,0.7,0.2,1.4,0.2,2.1c4.7,0.2,9.4,0.4,13.9,0.6c0.9,0,1.4-0.2,2-0.7C579.6,487.4,579.8,487.3,579.6,485L579.6,485z"/>
							<path class="st7" d="M526.6,625.5c-5.8-0.2-11.6-0.3-17.5-0.5c-0.9,0-1.7,0-2.6-0.1c-4.7-0.1-9.4-0.2-14.2-0.3
								c0,0.7-0.1,1.4-0.1,2.1c5.3,0.1,10.6,0.2,15.9,0.3c0.9,0,1.7,0,2.5,0.1c5.3,0.1,10.5,0.3,15.6,0.4c7.6,0.4,9.9,8,7.5,14.6
								c-0.7,2-2.2,4.2-3.8,5.7l-3.1,2.9l-1.5,1.4c-8.6,8.1-8.8,8.2-12.9,8.4c-4.5-0.1-9.1-0.2-13.7-0.3c-0.1,0.6-0.1,1.2-0.2,1.9
								c4.5,0.1,9.1,0.2,13.5,0.3c3.3-0.1,5.4-1,8.4-3.5c1.5-1.4,3.4-3.2,4.9-4.6l1.7-1.6c7.9-6.4,8.8-11.8,8.8-11.8
								C536.3,640.3,539.3,626.5,526.6,625.5L526.6,625.5z"/>
							<path class="st7" d="M484.3,724.2c-0.6,0-5.8-0.4-6.1-8.5c0.2-4.8,0.3-9.9,0.5-15.5c-0.4,0-0.9,0-1.3,0
								c-0.1,5.6-0.2,10.8-0.3,15.5c0.4,9.1,6.3,9.6,6.9,9.6c0.5,0,1,0,1.5,0c0.1-0.4,0.1-0.7,0.2-1.1
								C485.3,724.2,484.8,724.2,484.3,724.2L484.3,724.2z"/>
							<path class="st3" d="M486.9,724.2c-0.1,0.4-0.2,0.8-0.2,1.1c4.2,0.1,8.5,0.2,12.6,0.3c0.2-0.4,0.4-0.7,0.5-1.1
								C495.6,724.4,491.3,724.3,486.9,724.2z"/>
							<path class="st3" d="M367.6,545c-1.5,0-3.1,0.1-4.6,0.2c-0.6,0-1.1,0-1.7,0.1c-4.4,0.2-8.7,0.3-12.8,0.5c0,0.7,0,1.5,0,2.2
								l0,0c4.1-0.2,8.3-0.3,12.8-0.5c0.6,0,1.1,0,1.7-0.1c1.5,0,3-0.1,4.6-0.2c8.4-0.3,17.1-0.5,26.1-0.6l0,0c0-0.7,0-1.5,0-2.2
								C384.8,544.6,376,544.8,367.6,545L367.6,545z"/>
							<path class="st7" d="M399,544.3c0,0.7,0,1.5,0,2.2l0,0c5-0.1,10.1-0.1,15.3-0.2l0,0c0-0.8,0-1.5,0-2.2
								C409.1,544.2,404,544.2,399,544.3L399,544.3z"/>
							<path class="st7" d="M365.7,447.3c-0.3,0.6-0.6,1.2-0.8,1.8c2.7-0.1,5.4-0.2,8.3-0.4c0.3-0.6,0.5-1.2,0.8-1.8
								C371.1,447.1,368.3,447.2,365.7,447.3L365.7,447.3z"/>
							<path class="st7" d="M414.9,599.2c-0.1-0.7-0.1-1.4-0.2-2.2c-0.2-3.2-0.5-6.3-0.6-9.5c-0.6-6.5-4-9.9-9.4-10.2
								c-1.7,0-3.4,0.1-5.1,0.1c0,0.7,0.1,1.5,0.1,2.2c1.7,0,3.4,0,5.1-0.1c4.1,0.1,7,2.5,7.4,8c0.2,3.2,0.4,6.4,0.7,9.5
								c0.1,0.7,0.1,1.4,0.2,2.2c0.3,3.1,0.6,6.3,0.9,9.4c0.6,0,1.2,0,1.8,0C415.5,605.5,415.2,602.4,414.9,599.2L414.9,599.2z"/>
							<path class="st3" d="M461.1,440.2c-0.1,0.6-0.1,1.2-0.2,1.8c2.5,0,4.9,0,7.4,0c0-0.6,0.1-1.2,0.1-1.8
								C466,440.2,463.6,440.2,461.1,440.2L461.1,440.2z"/>
							<path class="st7" d="M452.7,440.2c-0.1,0.6-0.2,1.2-0.2,1.8c2.1,0,4.2,0,6.4,0c0.1-0.6,0.1-1.2,0.2-1.8
								C456.9,440.2,454.8,440.2,452.7,440.2L452.7,440.2z"/>
							<path class="st7" d="M532.1,462.6c-3-0.1-6.1-0.2-9.1-0.3c0.1,0.6,0.2,1.3,0.2,1.9c3.1,0.1,6.1,0.2,9.2,0.3
								C532.3,463.9,532.2,463.3,532.1,462.6L532.1,462.6z"/>
							<path class="st7" d="M540.5,462.9c-1.6-0.1-3.1-0.1-4.7-0.2c0.1,0.6,0.2,1.3,0.3,1.9c1.6,0.1,3.2,0.1,4.8,0.2
								C540.7,464.2,540.6,463.5,540.5,462.9L540.5,462.9z"/>
							<path class="st4" d="M557.2,508.6c-0.6,0-1.2,0-1.8-0.1c0.2,2.6,0.4,5.2,0.5,7.9c0.6,0,1.2,0,1.8,0.1
								C557.6,513.8,557.4,511.2,557.2,508.6L557.2,508.6z"/>
							<path class="st7" d="M557.9,519.6c-0.6,0-1.2,0-1.8-0.1c0.4,8.2,0.6,16.5,0.5,24.9c0.6,0,1.2,0.1,1.8,0.1
								C558.5,536.1,558.3,527.8,557.9,519.6L557.9,519.6z"/>
							<path class="st7" d="M573.5,621.2c-0.3,1.4-0.6,2.7-0.9,4.1c-0.2,1-0.5,1.9-0.7,2.9c0.5,0,1,0.1,1.6,0.1
								c0.2-1,0.5-1.9,0.7-2.9c0.3-1.4,0.6-2.7,1-4.1C574.5,621.3,574,621.2,573.5,621.2L573.5,621.2z"/>
							<path class="st7" d="M632.9,507.6c-0.2,0-0.4,0-0.7-0.1c-0.2,0-0.4,0-0.5,0c0.4,2.1,0.8,4.2,1.1,6.3c0.2,0,0.4,0,0.5,0.1
								c0.2,0,0.5,0,0.7,0.1C633.6,511.8,633.3,509.7,632.9,507.6L632.9,507.6z"/>
							<path class="st4" d="M620.9,442.2c-0.7-0.1-1.3-0.2-2-0.3c0.4,0.6,0.8,1.2,1.1,1.8c0.7,0.1,1.4,0.2,2,0.3
								C621.7,443.4,621.3,442.8,620.9,442.2L620.9,442.2z"/>
							<path class="st4" d="M665.1,510.2c0,0-0.1-0.1-0.2-0.1c0.5,2,1,4,1.4,6c0.1,0,0.1,0.1,0.2,0.1
								C666.1,514.2,665.6,512.2,665.1,510.2z"/>
							<path class="st7" d="M659.6,491.6c-0.1-0.1-0.2-0.3-0.4-0.4c-0.1,0-0.1-0.1-0.2-0.1c-0.1-0.1-0.2-0.1-0.3-0.2
								c0.2,0.7,0.5,1.4,0.8,2.1c0.1,0.1,0.2,0.1,0.3,0.2c0,0,0.1,0.1,0.2,0.1c0.2,0.1,0.3,0.3,0.4,0.4
								C660.1,493,659.8,492.3,659.6,491.6z"/>
							<path class="st3" d="M638.5,658.6c-0.3,0-0.5,0.1-1.6,1.2c-3.6,3.8-4.5,4.7-7.9,7.9l-0.6,1.4c3.9-3.7,4.7-4.5,7.9-7.9
								c0.6-0.6,0.8-0.7,1.1-0.8c0.3,0.4-0.3,1.7-1.7,4c-2.4,3.7-5,7.2-7.6,10.7c-0.8,1-1.3,1.6-2,2.3c-8.5,8.2-9.1,8.3-9.5,8.3
								c-0.6-0.2-1.3-0.3-2-0.4c-0.5,0.6-1,1.1-1.4,1.7c0.7,0.2,1.4,0.3,2.1,0.5c0.5-0.1,1-0.5,2-1.3c8.3-7.4,9.4-8.8,11.1-10.9
								c2.7-3.5,5.2-7.1,7.7-10.7C638,661.1,638.9,659.1,638.5,658.6L638.5,658.6z"/>
							<path class="st7" d="M609.6,684.5c-0.2,0-0.4-0.1-0.6-0.1c-0.5-0.1-0.9-0.1-1.4-0.2c-0.5,0.6-0.9,1.1-1.4,1.7
								c0.5,0.1,0.9,0.1,1.4,0.2c0.2,0,0.4,0.1,0.6,0.1c1.6,0.3,3.1,0.5,4.3,0.8c0.5-0.6,1-1.1,1.4-1.7
								C612.7,685,611.2,684.7,609.6,684.5L609.6,684.5z"/>
							<path class="st7" d="M671.4,552.4c-0.1-0.3-0.4-0.6-0.8-0.9c-0.8-0.1-1.3,6.5-1.5,12.1c0.1,0,0.2,0.1,0.3,0.1
								c0.2-5.8,0.6-9.5,1.2-10c0,0,0.1,0,0.1,0c0.5,0.3,0.7,0.6,0.9,0.9C671.4,553.9,671.4,553.1,671.4,552.4L671.4,552.4z"/>
							<path class="st7" d="M618.2,474.1c-1.6-0.1-3.3-0.3-5-0.5c0.2,0.7,0.4,1.3,0.7,2c1.7,0.1,3.4,0.3,5,0.5
								C618.6,475.5,618.4,474.8,618.2,474.1L618.2,474.1z"/>
							<g>
								<path class="st4" d="M650.2,472.8c-0.2-0.1-0.4-0.2-0.7-0.3c-0.1-0.1-0.2-0.2-0.5-0.8c-1-1.7-1.6-2.7-1.7-3
									c-1.8-3.5-3.7-7-5.7-10.4c-0.4-0.8-0.5-1-0.6-1.2c-0.9-2.8-2.4-5.2-3.6-7.9c0.2,0.2,0.4,0.3,0.6,0.5l-1.3-1.8
									c-0.1-0.2-0.3-0.3-0.6-0.5c0,0.1,0.1,0.2,0.2,0.3c2,3.4,3,7.1,5,10.5c2,3.4,3.9,6.9,5.7,10.4c0.4,0.8,0.7,1.3,1,1.9
									c1.4,2.4,2.2,3.7,2.5,4c0.2,0.1,0.5,0.2,0.7,0.2C650.8,474.1,650.5,473.4,650.2,472.8L650.2,472.8z"/>
								<path class="st4" d="M648.2,467.8c-0.3-0.7-0.5-1-0.6-1.3c-1.2-3.1-1.3-3.3-3.3-6.9l-0.3-0.5l-0.9-1.5
									c2.1,3.7,2.6,4.8,3.5,7.4c0.1,0.2,0.4,0.9,1.3,2.8c0.3,0.6,0.6,1.2,0.9,1.8c0.1,0,0.2,0.1,0.2,0.1
									C648.8,469,648.5,468.4,648.2,467.8L648.2,467.8z"/>
							</g>
							<path class="st7" d="M651.9,473.8c-0.2-0.2-0.6-0.5-1.1-0.7c0.3,0.7,0.6,1.3,1,2c0.5,0.2,0.9,0.5,1.1,0.7
								C652.5,475.1,652.2,474.4,651.9,473.8L651.9,473.8z"/>
							<path class="st7" d="M656.6,631.7c-0.2,0.1-0.9,1.4-2.2,4.2c-0.8,1.8-1.6,3.5-2.4,5.3c-0.5,1.1-0.8,1.8-1.2,2.7
								c-1.5,3.6-2.3,5.4-2.3,5.4c0.1,0.1,0.1,0.2,0.1,0.4c0.3-0.7,0.7-1.3,1-1.9c0-0.1-0.1-0.2-0.1-0.4c0-0.1,0-0.2,0.4-1
								c0.8-1.6,1.4-3.3,2.2-4.9c0.8-1.8,1.7-3.5,2.4-5.3c0.9-1.9,1-2.1,1.2-2.3c0,0,0,0.1,0.1,0.2c-0.1,0.5-0.4,1.2-1,2.5
								c-1.1,2.5-2.3,4.9-3.5,7.4c0,0,0,0.1,0,0.1c1.2-2.4,2.4-4.9,3.5-7.4C656,633.8,656.6,632.2,656.6,631.7
								C656.6,631.8,656.6,631.8,656.6,631.7L656.6,631.7z"/>
							<path class="st7" d="M606.2,546.6c-0.6,0-1.2-0.1-1.8-0.1c0,0.7,0,1.5,0,2.2c0.6,0,1.2,0.1,1.8,0.1c5.5,1,5.4,8.1,5.3,8.4
								c-0.2,5.9-0.6,11.7-1.1,17.5c0.5,0,1,0.1,1.5,0.1c0.6-5.8,0.9-11.6,1.1-17.5C613.1,556.4,613.1,547.9,606.2,546.6z"/>
							<path class="st7" d="M594.6,545.9c0,0.7,0,1.5,0,2.2c2.5,0.2,5,0.3,7.5,0.5c0-0.7,0-1.5,0-2.2
								C599.6,546.2,597.1,546,594.6,545.9z"/>
							<path class="st7" d="M664.2,553.1c-1-0.2-2.1-0.5-3.3-0.7c-0.7-0.3-1.2-1-1.8-2.9l-0.6-2l-0.5-1.8c-1.7-5.2-1.8-5.4-2.8-5.7
								c-0.9-0.1-1.8-0.3-2.8-0.4c-1.3,0.1-2,1.8-2,5.1c0,0.7,0,1.3,0.1,2c0,1.2,0.2,2,0.5,3.1c0.5,1.6,1,3.8,1.4,5.4l0.5,1.9
								c0.4,1.5,0.8,3.6,1.1,5.1l0.8-1.1c-0.3-1.5-0.8-3.6-1.1-5.1l-0.5-1.9c-1.1-4.4-1.7-6.8-1.7-7.2c0-0.7,0-1.3-0.1-2
								c0-2,0.4-3,1.2-3.1c1,0.1,1.9,0.3,2.8,0.4c0.4,0.1,0.7,0.5,1,1.3l1.1,3.3l0.5,1.8c1.1,3.9,1.6,5.5,3,6
								c1.2,0.2,2.3,0.5,3.3,0.7C664.2,554.6,664.2,553.8,664.2,553.1L664.2,553.1z"/>
							<path class="st7" d="M620.7,653c4.9-21.2,2.4-21.8,1.2-22c-1.8-0.2-3.6-0.3-5.5-0.5c-0.5,0-0.9-0.1-1.4-0.1
								c-0.6-0.1-1.1-0.1-1.7-0.2c-0.2,0.7-0.5,1.4-0.7,2c0.8,0.1,1.6,0.1,2.3,0.2c0.5,0,0.9,0.1,1.4,0.1c1.6,0.2,3.2,0.3,4.8,0.5
								c0.9,0.2,1.3,0.9,1.2,2.4c-0.8,8.9-1.9,13.8-2.9,18.4c-0.2,0.7-0.3,1.6-0.3,2.3c-0.2,2.9,1.1,3.2,1.7,3.4
								c0.6,0.1,1.1,0.2,1.6,0.2c0.4-0.6,0.7-1.2,1.1-1.9c-0.5-0.1-1.1-0.2-1.7-0.2C620.4,657.2,620.1,656,620.7,653L620.7,653z"/>
							<path class="st7" d="M609.3,629.8c-0.2,0.7-0.5,1.4-0.7,2c1,0.1,2,0.2,3,0.2c0.2-0.7,0.5-1.4,0.7-2
								C611.3,630,610.3,629.9,609.3,629.8L609.3,629.8z"/>
							<path class="st3" d="M626.5,443.1c-1.2-0.2-2.6-0.5-4-0.7c0.4,0.6,0.8,1.2,1.2,1.8c1.5,0.2,2.8,0.5,4.1,0.7
								C627.3,444.3,626.9,443.7,626.5,443.1z"/>
							<path class="st3" d="M477.7,685.5c0,0.2,0,0.4,0,0.5c-0.1,3.2-0.1,6.2-0.2,9.1c0.4,0,0.9,0,1.3,0c0.1-2.9,0.2-6,0.3-9.1
								c0-0.2,0-0.4,0-0.5C478.7,685.5,478.2,685.5,477.7,685.5L477.7,685.5z"/>
							<path class="st3" d="M410.4,437.1c-1.1,3.1-2.1,6.2-3.1,9.5c0.5,0,1.1,0,1.6,0c1-3.2,2-6.4,3-9.5
								C411.5,437.1,411,437.1,410.4,437.1L410.4,437.1z"/>
							<path class="st3" d="M648.5,649.9c0,0,0,0.1-0.1,0.2l0.3-0.6l0.7-1.4c0,0,0.1-0.1,0.1-0.2
								C649.2,648.6,648.9,649.2,648.5,649.9L648.5,649.9z"/>
							<path class="st4" d="M402.4,428.5c-0.2,0.5-0.5,1.1-0.8,1.6c3.2-0.1,6.5-0.1,9.8-0.2c0.2-0.5,0.4-1.1,0.7-1.6
								C408.8,428.4,405.6,428.4,402.4,428.5z"/>
						</g>
						<circle class="st4" cx="485.9" cy="581.8" r="7.1"/>
						
							<ellipse transform="matrix(0.7071 -0.7071 0.7071 0.7071 -278.2548 560.4753)" class="st4" cx="537.4" cy="616.1" rx="7.1" ry="7.1"/>
						<circle class="st4" cx="540.8" cy="508.2" r="7.1"/>
						
							<ellipse transform="matrix(0.1606 -0.987 0.987 0.1606 -215.3629 997.5359)" class="st3" cx="478.8" cy="625.4" rx="7.1" ry="7.1"/>
						<path class="st3" d="M393.6,429.6c0,2.8-2.3,5.1-5.1,5.1s-5.1-2.3-5.1-5.1s2.3-5.1,5.1-5.1S393.6,426.8,393.6,429.6z"/>
						
							<ellipse transform="matrix(0.5263 -0.8503 0.8503 0.5263 -336.3456 651.2556)" class="st7" cx="416.3" cy="627.5" rx="7.1" ry="7.1"/>
						<circle class="st7" cx="558.3" cy="558.5" r="7.1"/>
						<circle class="st4" cx="588.5" cy="529" r="7.1"/>
						<circle class="st3" cx="429.8" cy="545.9" r="7.1"/>
						<circle class="st4" cx="395.6" cy="567" r="7.1"/>
						<rect x="467.7" y="465.4" class="st7" width="15.8" height="1.6"/>
						<g>
							<g>
								<circle class="st7" cx="1383" cy="108.8" r="5.2"/>
								<circle class="st4" cx="1170.7" cy="206.2" r="5.2"/>
								<circle class="st4" cx="1296.1" cy="144.4" r="5.2"/>
								<circle class="st4" cx="1334" cy="159.7" r="5.2"/>
								<circle class="st4" cx="1290.9" cy="206.2" r="5.2"/>
								
									<ellipse transform="matrix(0.2306 -0.9731 0.9731 0.2306 716.1003 1480.168)" class="st4" cx="1294" cy="287.3" rx="7.1" ry="7.1"/>
								
									<ellipse transform="matrix(0.7071 -0.7071 0.7071 0.7071 213.5817 1037.1508)" class="st3" cx="1358.7" cy="260.8" rx="7.1" ry="7.1"/>
								<circle class="st3" cx="1336.5" cy="206.2" r="5.2"/>
								
									<ellipse transform="matrix(0.7071 -0.7071 0.7071 0.7071 163.2006 968.6412)" class="st3" cx="1250.9" cy="287.3" rx="7.1" ry="7.1"/>
								<circle class="st3" cx="1377.8" cy="221.2" r="5.2"/>
								<circle class="st7" cx="1294.1" cy="343.7" r="5.2"/>
								
									<ellipse transform="matrix(0.2306 -0.9731 0.9731 0.2306 903.8531 1458.9053)" class="st3" cx="1374.4" cy="157.9" rx="7.1" ry="7.1"/>
								
									<ellipse transform="matrix(0.1606 -0.987 0.987 0.1606 998.4005 1355.3248)" class="st3" cx="1296" cy="90.7" rx="7.1" ry="7.1"/>
								
									<ellipse transform="matrix(0.7261 -0.6876 0.6876 0.7261 229.2885 906.7075)" class="st3" cx="1252.7" cy="165.6" rx="7.1" ry="7.1"/>
								<rect x="1293.3" y="244.9" class="st3" width="1.6" height="23.2"/>
								<rect x="1359.8" y="191.6" class="st4" width="1.6" height="19.7"/>
								<rect x="1183.7" y="205.4" class="st3" width="40.8" height="1.6"/>
								<rect x="1377" y="230.1" class="st7" width="1.6" height="19.6"/>
								<rect x="1230" y="196.4" class="st7" width="1.6" height="19.6"/>
								<rect x="1293.3" y="304.2" class="st7" width="1.6" height="15.8"/>
								<rect x="1350" y="220.4" class="st7" width="15.8" height="1.6"/>
								<rect x="1295.3" y="106.2" class="st4" width="1.6" height="15.8"/>
								<rect x="1352.8" y="184.5" class="st3" width="15.7" height="1.6"/>
								<rect x="1308.4" y="205.4" class="st7" width="15.8" height="1.6"/>
								<rect x="1237.8" y="205.4" class="st4" width="36.3" height="1.6"/>
								<rect x="1370.1" y="260" class="st3" width="16.8" height="1.6"/>
								<rect x="1261.3" y="286.5" class="st3" width="10.9" height="1.6"/>
								<rect x="1288.6" y="328.5" class="st3" width="10.9" height="1.6"/>
								<rect x="1373.7" y="178.4" class="st3" width="1.6" height="10.9"/>
								<path class="st7" d="M1432.5,267.3c-5.9,0-11.2,3.2-13.8,8.5l-6.3,12.3c-2.3,4.6-7,7.4-12.1,7.4h-19.7v1.6h19.7
									c5.7,0,10.9-3.2,13.5-8.3l6.3-12.3c2.4-4.7,7.2-7.6,12.4-7.6h9.8v-1.6H1432.5L1432.5,267.3z"/>
								<path class="st4" d="M1343.1,295.5c-6,0-10.8-4.9-10.8-10.8v-12.3c0-6,4.8-10.8,10.8-10.8h5.1V260h-5.1
									c-6.8,0-12.4,5.6-12.4,12.4v12.3c0,6.8,5.6,12.4,12.4,12.4h31.6v-1.6L1343.1,295.5L1343.1,295.5z"/>
								<path class="st7" d="M1347.3,186.1h-2.7c-6.3,0-11.4-5.1-11.4-11.4v-7.1h1.6v7.1c0,5.4,4.4,9.8,9.8,9.8h2.7L1347.3,186.1
									L1347.3,186.1z"/>
								<rect x="1274.1" y="119.6" class="st7" width="15.6" height="1.6"/>
								<path class="st4" d="M1415.6,119.1h-1.6v-1.6c0-4.4-3.6-7.9-7.9-7.9h-12.5V108h12.5c5.2,0,9.5,4.3,9.5,9.5V119.1z"/>
								<path class="st3" d="M1294.9,237.8h-1.6v-3.2c0-7.8,6.4-14.2,14.2-14.2h34.2v1.6h-34.2c-6.9,0-12.6,5.6-12.6,12.6V237.8
									L1294.9,237.8z"/>
							</g>
							<circle class="st3" cx="1345.2" cy="384.8" r="7.1"/>
							<circle class="st7" cx="1309.8" cy="317.7" r="5.2"/>
							<circle class="st7" cx="1492.6" cy="285.9" r="7.1"/>
							<rect x="1345.3" y="328.8" class="st3" width="1.6" height="21.4"/>
							<rect x="1323.8" y="316.9" class="st7" width="15.8" height="1.6"/>
							
								<ellipse transform="matrix(0.7071 -0.7071 0.7071 0.7071 184.3758 1135.2504)" class="st4" cx="1462.6" cy="345.1" rx="7.1" ry="7.1"/>
							<circle class="st4" cx="1418.9" cy="369.7" r="5.2"/>
							<rect x="1331.7" y="368.9" class="st3" width="74.2" height="1.6"/>
							<rect x="1345.3" y="309.9" class="st3" width="1.6" height="10.9"/>
							<path class="st4" d="M1321.2,370.5h1.4v-1.6h-1.4c-6.3,0-11.4-5.1-11.4-11.4v-12h-1.6v12
								C1308.2,364.6,1314.1,370.5,1321.2,370.5z"/>
							<path class="st7" d="M1370.2,359.1h1.6v-27.6c0-8.1-6.6-14.7-14.7-14.7h-4.5v1.6h4.5c7.2,0,13.1,5.9,13.1,13.1L1370.2,359.1
								L1370.2,359.1z"/>
							<path class="st4" d="M1383.9,397.5h22v-1.6h-22c-6.7,0-12.1-5.4-12.1-12.1v-5.5h-1.6v5.5
								C1370.2,391.3,1376.3,397.5,1383.9,397.5z"/>
							<rect x="1455.1" y="369.7" class="st4" width="62.2" height="1.6"/>
						</g>
					</g>
					<g>
						<g>
							<rect x="574.8" y="560.5" class="st8" width="184.6" height="4.7"/>
							<rect x="574.8" y="583.8" class="st8" width="4.7" height="4.7"/>
							<rect x="584.2" y="583.8" class="st8" width="175.2" height="4.7"/>
							<rect x="574.8" y="601.5" class="st8" width="4.7" height="4.7"/>
							<rect x="584.2" y="601.5" class="st8" width="175.2" height="4.7"/>
							<rect x="574.8" y="619.3" class="st8" width="4.7" height="4.7"/>
							<rect x="584.2" y="619.3" class="st8" width="175.2" height="4.7"/>
							<rect x="574.8" y="637" class="st9" width="4.7" height="4.7"/>
							<rect x="584.2" y="637" class="st8" width="175.2" height="4.7"/>
							<rect x="574.8" y="654.7" class="st10" width="4.7" height="4.7"/>
							<rect x="584.2" y="654.7" class="st8" width="175.2" height="4.7"/>
							<rect x="574.8" y="573.2" class="st8" width="184.6" height="15.7"/>
							<rect x="574.8" y="668.5" class="st8" width="184.6" height="15.7"/>
						</g>
						<g>
							<g>
								<g>
									<path class="st7" d="M403,413.4c0.6-8.2,7.2-14.8,15.4-15.4v-8.6c-6.3,0.3-12.1,2.9-16.6,7.3s-7.1,10.3-7.3,16.6H403z"/>
									<path class="st7" d="M420.7,398c8.2,0.6,14.8,7.2,15.4,15.4h8.6c-0.3-6.3-2.9-12.1-7.3-16.6s-10.3-7-16.6-7.3V398z"/>
									<path class="st7" d="M418.4,431.1c-8.2-0.6-14.8-7.2-15.4-15.4h-8.6c0.3,6.3,2.9,12.1,7.3,16.6c4.5,4.5,10.3,7,16.6,7.3
										V431.1z"/>
									<path class="st7" d="M436.1,415.7c-0.6,8.2-7.2,14.8-15.4,15.4v8.6c6.3-0.3,12.1-2.9,16.6-7.3s7-10.3,7.3-16.6H436.1z"/>
								</g>
								<rect x="409.8" y="410.1" class="st8" width="19.5" height="9"/>
							</g>
							<g>
								<g>
									<path class="st7" d="M470.1,413.4c0.6-8.2,7.2-14.8,15.4-15.4v-8.6c-6.3,0.3-12.1,2.9-16.6,7.3s-7,10.3-7.3,16.6H470.1z"/>
									<path class="st7" d="M487.9,398c8.2,0.6,14.8,7.2,15.4,15.4h8.6c-0.3-6.3-2.9-12.1-7.3-16.6s-10.3-7-16.6-7.3V398z"/>
									<path class="st7" d="M485.5,431.1c-8.2-0.6-14.8-7.2-15.4-15.4h-8.6c0.3,6.3,2.9,12.1,7.3,16.6s10.3,7,16.6,7.3V431.1z"/>
									<path class="st7" d="M503.3,415.7c-0.6,8.2-7.2,14.8-15.4,15.4v8.6c6.3-0.3,12.1-2.9,16.6-7.3s7-10.3,7.3-16.6H503.3z"/>
								</g>
								<rect x="476.9" y="410.1" class="st8" width="19.5" height="9"/>
							</g>
							<g>
								<g>
									<path class="st7" d="M537.3,413.4c0.6-8.2,7.2-14.8,15.4-15.4v-8.6c-6.3,0.3-12.1,2.9-16.6,7.3s-7,10.3-7.3,16.6H537.3z"/>
									<path class="st7" d="M555,398c8.2,0.6,14.8,7.2,15.4,15.4h8.6c-0.3-6.3-2.9-12.1-7.3-16.6s-10.3-7-16.6-7.3V398z"/>
									<path class="st7" d="M552.7,431.1c-8.2-0.6-14.8-7.2-15.4-15.4h-8.6c0.3,6.3,2.9,12.1,7.3,16.6c4.5,4.5,10.3,7,16.6,7.3
										V431.1z"/>
									<path class="st7" d="M570.4,415.7c-0.6,8.2-7.2,14.8-15.4,15.4v8.6c6.3-0.3,12.1-2.9,16.6-7.3s7-10.3,7.3-16.6H570.4z"/>
								</g>
								<rect x="544.1" y="410.1" class="st8" width="19.5" height="9"/>
							</g>
						</g>
						<g>
							<g>
								<g>
									<path class="st7" d="M403,349.4c0.6-8.2,7.2-14.8,15.4-15.4v-8.6c-6.3,0.3-12.1,2.9-16.6,7.3s-7.1,10.3-7.3,16.6H403z"/>
									<path class="st7" d="M420.7,334c8.2,0.6,14.8,7.2,15.4,15.4h8.6c-0.3-6.3-2.9-12.1-7.3-16.6s-10.3-7.1-16.6-7.3V334z"/>
									<path class="st7" d="M418.4,367.1c-8.2-0.6-14.8-7.2-15.4-15.4h-8.6c0.3,6.3,2.9,12.1,7.3,16.6c4.5,4.5,10.3,7,16.6,7.3
										V367.1z"/>
									<path class="st7" d="M436.1,351.7c-0.6,8.2-7.2,14.8-15.4,15.4v8.6c6.3-0.3,12.1-2.9,16.6-7.3s7-10.3,7.3-16.6H436.1z"/>
								</g>
								<rect x="409.8" y="346.1" class="st8" width="19.5" height="9"/>
							</g>
							<g>
								<g>
									<path class="st7" d="M470.1,349.4c0.6-8.2,7.2-14.8,15.4-15.4v-8.6c-6.3,0.3-12.1,2.9-16.6,7.3s-7,10.3-7.3,16.6H470.1z"/>
									<path class="st7" d="M487.9,334c8.2,0.6,14.8,7.2,15.4,15.4h8.6c-0.3-6.3-2.9-12.1-7.3-16.6s-10.3-7.1-16.6-7.3V334z"/>
									<path class="st7" d="M485.5,367.1c-8.2-0.6-14.8-7.2-15.4-15.4h-8.6c0.3,6.3,2.9,12.1,7.3,16.6s10.3,7,16.6,7.3V367.1z"/>
									<path class="st7" d="M503.3,351.7c-0.6,8.2-7.2,14.8-15.4,15.4v8.6c6.3-0.3,12.1-2.9,16.6-7.3s7-10.3,7.3-16.6H503.3z"/>
								</g>
								<rect x="476.9" y="346.1" class="st8" width="19.5" height="9"/>
							</g>
							<g>
								<g>
									<path class="st7" d="M537.3,349.4c0.6-8.2,7.2-14.8,15.4-15.4v-8.6c-6.3,0.3-12.1,2.9-16.6,7.3s-7,10.3-7.3,16.6H537.3z"/>
									<path class="st7" d="M555,334c8.2,0.6,14.8,7.2,15.4,15.4h8.6c-0.3-6.3-2.9-12.1-7.3-16.6s-10.3-7.1-16.6-7.3V334z"/>
									<path class="st7" d="M552.7,367.1c-8.2-0.6-14.8-7.2-15.4-15.4h-8.6c0.3,6.3,2.9,12.1,7.3,16.6c4.5,4.5,10.3,7,16.6,7.3
										V367.1z"/>
									<path class="st7" d="M570.4,351.7c-0.6,8.2-7.2,14.8-15.4,15.4v8.6c6.3-0.3,12.1-2.9,16.6-7.3s7-10.3,7.3-16.6H570.4z"/>
								</g>
								<rect x="544.1" y="346.1" class="st8" width="19.5" height="9"/>
							</g>
						</g>
						<g>
							<g>
								<path class="st8" d="M1504.8,440.3v258.8H1246V440.3H1504.8z M1502.7,697.1V442.4h-254.6v254.6H1502.7z"/>
								<rect x="1479.4" y="441.4" class="st8" width="2.1" height="256.7"/>
								<rect x="1456" y="441.4" class="st8" width="2.1" height="256.7"/>
								<rect x="1432.7" y="441.4" class="st8" width="2.1" height="256.7"/>
								<rect x="1409.3" y="441.4" class="st8" width="2.1" height="256.7"/>
								<rect x="1386" y="441.4" class="st8" width="2.1" height="256.7"/>
								<rect x="1362.7" y="441.4" class="st8" width="2.1" height="256.7"/>
								<rect x="1339.3" y="441.4" class="st8" width="2.1" height="256.7"/>
								<rect x="1316" y="441.4" class="st8" width="2.1" height="256.7"/>
								<rect x="1292.6" y="441.4" class="st8" width="2.1" height="256.7"/>
								<rect x="1269.3" y="441.4" class="st8" width="2.1" height="256.7"/>
								<rect x="1247" y="463.7" class="st8" width="256.7" height="2.1"/>
								<rect x="1247" y="487" class="st8" width="256.7" height="2.1"/>
								<rect x="1247" y="510.3" class="st8" width="256.7" height="2.1"/>
								<rect x="1247" y="533.7" class="st8" width="256.7" height="2.1"/>
								<rect x="1247" y="557" class="st8" width="256.7" height="2.1"/>
								<rect x="1247" y="580.4" class="st8" width="256.7" height="2.1"/>
								<rect x="1247" y="603.7" class="st8" width="256.7" height="2.1"/>
								<rect x="1247" y="627" class="st8" width="256.7" height="2.1"/>
								<rect x="1247" y="650.4" class="st8" width="256.7" height="2.1"/>
								<rect x="1247" y="673.7" class="st8" width="256.7" height="2.1"/>
							</g>
							<g>
								<rect x="1271.4" y="614.6" class="st11" width="16.8" height="82.5"/>
								<rect x="1294.7" y="520.4" class="st11" width="16.8" height="176.8"/>
								<rect x="1318.1" y="569.7" class="st11" width="16.8" height="127.4"/>
								<rect x="1341.4" y="593.7" class="st11" width="16.8" height="103.4"/>
								<rect x="1364.8" y="660.2" class="st11" width="16.8" height="36.9"/>
								<rect x="1388.1" y="569.7" class="st11" width="16.8" height="127.4"/>
								<rect x="1411.4" y="549.7" class="st11" width="16.8" height="147.4"/>
								<rect x="1434.8" y="642.9" class="st11" width="16.8" height="54.2"/>
								<rect x="1458.1" y="600.1" class="st11" width="16.8" height="97.1"/>
							</g>
							<g>
								<rect x="1269.3" y="614.6" class="st7" width="16.8" height="82.5"/>
								<rect x="1292.6" y="520.4" class="st7" width="16.8" height="176.8"/>
								<rect x="1316" y="569.7" class="st7" width="16.8" height="127.4"/>
								<rect x="1339.3" y="593.7" class="st7" width="16.8" height="103.4"/>
								<rect x="1362.7" y="660.2" class="st7" width="16.8" height="36.9"/>
								<rect x="1386" y="569.7" class="st7" width="16.8" height="127.4"/>
								<rect x="1409.3" y="549.7" class="st7" width="16.8" height="147.4"/>
								<rect x="1432.7" y="642.9" class="st7" width="16.8" height="54.2"/>
								<rect x="1456" y="600.1" class="st7" width="16.8" height="97.1"/>
							</g>
						</g>
					</g>
				</g>
			</g>
		</g>
	</g>
</g>
</svg>
