<?xml version="1.0" encoding="utf-8"?>
<!-- Generator: Adobe Illustrator 27.0.0, SVG Export Plug-In . SVG Version: 6.00 Build 0)  -->
<svg version="1.1" id="Layer_1" xmlns="http://www.w3.org/2000/svg" xmlns:xlink="http://www.w3.org/1999/xlink" x="0px" y="0px"
	 viewBox="0 0 1920 1080" style="enable-background:new 0 0 1920 1080;" xml:space="preserve">
<style type="text/css">
	.st0{clip-path:url(#SVGID_00000096019215024676350350000013613360141320967304_);}
	.st1{opacity:0.4;}
	.st2{opacity:0.71;fill:#3AA1FF;enable-background:new    ;}
	.st3{fill:#0072C8;}
	.st4{fill:#003D87;}
	.st5{opacity:0.4;fill:#3AA1FF;enable-background:new    ;}
	.st6{opacity:0.11;}
	.st7{fill:#3AA1FF;}
</style>
<g>
	<g id="Layer_2_00000044159867982835956020000006014948066440621501_">
		<g id="Layer_1-2">
			<g>
				<defs>
					<rect id="SVGID_1_" x="328.4" y="251.6" width="1280" height="327.4"/>
				</defs>
				<clipPath id="SVGID_00000150801168607429367350000016564548579488702337_">
					<use xlink:href="#SVGID_1_"  style="overflow:visible;"/>
				</clipPath>
				<g style="clip-path:url(#SVGID_00000150801168607429367350000016564548579488702337_);">
					<g class="st1">
						<polygon class="st2" points="1762.8,384.2 1728.9,365.6 1728.9,313.3 1637.3,313.3 1637.3,257.1 1519.5,257.1 1519.5,399.5 
							1492.1,399.5 1492.1,432.8 1470.7,432.8 1470.7,512.5 1445.7,512.5 1445.7,402.8 1383.8,402.8 1383.8,370.8 1348.7,370.8 
							1348.7,422.1 1316,440 1316,543.2 1238.6,543.2 1238.6,316.6 1155.4,316.6 1155.4,359 1089.9,359 1072.1,368.8 1072.1,392.3 
							990,392.3 974.5,400.8 974.5,480.5 940,480.5 940,357.7 875.7,357.7 875.7,379.3 774,379.3 774,431.2 755.6,441.3 
							755.6,492.3 724.9,492.3 724.9,366.5 683.2,357.3 683.2,323.4 571.4,323.4 571.4,467 553.5,467 553.5,284.8 529.7,285.5 
							459.5,305.1 459.5,484 429.8,484 429.8,365.8 411.9,342.3 411.9,333.2 370.3,333.2 370.3,342.3 347.7,342.3 329.8,363.2 
							313.2,363.2 313.2,275.7 270.3,275.7 270.3,307.4 209.1,307.4 174,326.6 174,773.3 651.2,773.3 724.9,773.3 933.2,773.3 
							933.2,773 1762.8,772.4 						"/>
						<polygon class="st3" points="1457.1,384.5 1440.2,403.1 1440.2,459.9 1422.2,459.9 1422.2,304.2 1341.8,304.2 1341.8,666.8 
							1317.7,640.3 1317.7,431.5 1138.9,431.5 1138.9,484.6 1044.5,484.6 1044.5,651.4 1044.5,724.8 961.6,724.8 961.6,507.9 
							937.6,507.9 937.6,423.5 888.4,423.5 888.4,563.3 865.6,563.3 865.6,589.7 836.8,539.6 786.5,539.6 786.5,358.9 689.3,358.9 
							680.9,368.2 680.9,423.5 680.9,485.5 653.3,485.5 653.3,320.7 570.5,320.7 570.5,348.4 554.3,366.2 554.3,647 535.7,647 
							535.7,421.6 524.9,421.6 524.9,399.8 429.6,399.8 413.4,417.6 413.4,442.7 323.4,442.7 318.6,762.4 618.5,762.4 618.5,761.8 
							923.2,761.8 923.2,762.4 1044.5,762.4 1219.5,762.4 1529,762.4 1529,384.5 						"/>
						<polygon class="st4" points="1528.5,407.8 1528.5,633.1 1499.4,633.1 1499.4,543.4 1458.2,508.5 1458.2,372.8 1406.1,372.8 
							1375.8,347.1 1337.1,347.1 1337.1,483.8 1243.8,483.8 1243.8,639 1219.5,639 1219.5,422.2 1151.7,452 1151.7,581.4 
							1133.5,581.4 1133.5,382.1 1110.5,382.1 1110.5,323.5 1104.6,323.5 1104.6,310.1 1053.1,310.1 1053.1,321.5 1020.8,321.5 
							1020.8,366.7 967.5,366.7 954.2,382.1 954.2,567 908.8,567 908.8,529.5 880.3,505.4 880.3,417 780.9,417 780.9,490 744.6,490 
							744.6,551.6 701,592.7 673.1,592.7 673.1,397.5 595.6,352.3 595.6,533.1 577.4,533.1 577.4,408.8 485.3,408.8 485.3,452 
							442.9,452 442.9,658.5 424.7,658.5 424.7,569.1 362.9,569.1 362.9,541.4 352,528 285.4,528 280.5,888.7 1430.6,888.7 
							1499.4,888.7 1528.5,888.7 1607.4,888.7 1607.4,407.8 						"/>
						<rect x="1311.8" y="256.1" class="st5" width="7.8" height="15.7"/>
					</g>
					<g>
						<g class="st6">
							<g>
								<g>
									<g>
										<g>
											<path class="st4" d="M511.9,422.9c-2.5,0.2-5.2,0.3-8.2,0.5c-0.6-0.2-1.1-0.6-1.5-1c-0.3-0.4-30.3-42.7-36.8-43.3
												c-0.9,0-1.7,0-2.6,0.1c-1.4,0-2.9,0.1-4.4,0.1c-4.3,0.7-4.5,6.2-1.5,9.6c7.3,7.4,11,11.7,11.2,12.8
												c0.2,1.8,0.5,3.6,0.7,5.4c0.3,2,0.9,3.1,2.2,4.4c2.5,2.3,3.9,4,4.1,5.2c0.4,4.2,0.7,8.5,1,12.8c0,2.1-0.9,3.3-2.5,3.6
												c-1.2,0-2.5,0.1-3.7,0.1c-1-0.1-1.2-0.2-2-0.9c-12-13.8-18-20.9-18.1-21.4c-0.4-5-1-9.9-1.6-14.8
												c-0.7-3.5-2.5-5.3-5.4-5.6c-2.4,0-4.9,0.1-7.4,0.1c-1.1-0.1-1.4-0.3-2.3-1.2c-4.5-5.4-7.5-8.2-9.1-8.3
												c-1.5,0-2.9,0-4.4,0c-1.8-0.2-2.8-1.3-3.2-3.3c0-0.1,0-0.2,0-0.2c-0.1-2,0.7-3.1,2.4-3.3c7-0.1,14-0.2,20.8-0.3
												c1.6-0.2,2.4-0.6,3.3-2.5c0.8-1.7-0.3-3.7,0.5-5.4c3.9-6.6,6.1-10,6.7-10.2c2.4-0.1,4.8-0.1,7.1-0.2
												c14.9-0.5,27.7-1,38.4-1.8c-0.3-0.7-0.6-1.4-0.9-2.1c-10.6,0.7-23.4,1.3-38.2,1.7c-2.3,0.1-4.7,0.1-7,0.2
												c-1.4,0.2-1.7,0.4-2.6,1.6c-4,7.3-5.9,11.5-5.8,12.5c0.2,1.4,0.4,3.5-2,3.9c-6.8,0.1-13.7,0.2-20.7,0.3
												c-1.8,0.2-4.2,1.1-4,5.6c0,0.1,0,0.2,0,0.2c0.3,1.9,1.4,5.1,5.4,5.5c1.5,0,3,0,4.4-0.1c1.1,0.1,1.4,0.3,2.4,1.2
												c4.5,5.5,7.5,8.2,9.1,8.3c2.5,0,4.9-0.1,7.4-0.1c1.7,0.2,2.8,1.2,3.2,3.3c0.6,4.9,1.1,9.8,1.5,14.8
												c0.2,1.8,0.7,2.8,1.7,4c12.6,13.7,19.4,20.6,20.4,20.7c1.2,0,2.5-0.1,3.7-0.1c2.8-0.4,4.1-2.4,4.2-6
												c-0.2-4.3-0.6-8.5-1-12.8c-0.3-2-0.8-3.1-2.1-4.4c-2.5-2.3-3.9-4.1-4.2-5.2c-0.2-1.8-0.5-3.6-0.7-5.4
												c-0.3-1.7-0.8-2.7-1.9-4c-7.2-7.4-10.8-11.3-10.9-11.5c-0.6-1-1.1-4.2,1.6-4.7c1.5,0,2.9-0.1,4.4-0.1
												c0.9,0,1.8-0.1,2.6-0.1c1,0.1,1.2,0.2,2.1,1c12.9,14.4,23.2,27.1,30.6,37.8c2.5,3.7,4.4,5.5,5.6,5.7
												c2.8-0.2,5.4-0.3,8-0.5C512.1,424.4,512,423.6,511.9,422.9L511.9,422.9z"/>
											<path class="st4" d="M523.7,422c-3.2,0.3-6.7,0.5-10.5,0.8c0.1,0.8,0.2,1.6,0.2,2.4c3.7-0.2,7.2-0.5,10.5-0.8
												C523.9,423.6,523.8,422.8,523.7,422z"/>
											<path class="st4" d="M529.2,356.3c-1.7,0.3-3.8,0.6-6.1,1c-0.3-0.1-0.4-0.1-0.9-0.6c-6.1-6.6-6.1-6.6-7.1-6.6
												c-5.3,0.6-11.7,1.2-19.2,1.7c0.3,0.7,0.6,1.4,0.9,2.1c7.5-0.5,14-1.1,19.4-1.7c0.3,0.1,0.5,0.1,1,0.6
												c4.2,4.4,6.5,6.6,6.9,6.7c2.3-0.3,4.3-0.6,6.1-1C529.9,357.8,529.6,357,529.2,356.3L529.2,356.3z"/>
											<path class="st4" d="M545.2,371.8l-0.3-0.9l-0.5-1.3c0.1,0.2,0.1,0.5-0.1,0.7c-0.1-0.1-0.1-0.2-0.4-0.8
												c-4.3-9.5-7.5-14.7-8.1-14.9c-1.3,0.6-3.3,1.1-6,1.7c0.3,0.7,0.6,1.4,1,2.2c2.7-0.5,4.8-1.1,6-1.7c0.1,0,0.2,0.1,0.7,0.8
												c2.8,4.9,4.3,7.5,7.1,13.9c0.4,0.8,0.4,0.9,0.6,1C545.3,372.3,545.3,372,545.2,371.8L545.2,371.8z"/>
										</g>
										<path class="st4" d="M535.6,494c1-4.9,1.5-7.5-6.8-22.8c-0.8-1.6-1-3.1-0.8-5.7c0.2-3.2,0.4-6.4,0.5-9.6
											c-0.1-6-1.6-9-4.5-9.4c-1.3,0.1-2.7,0.2-4.1,0.3c-2.3-0.1-2.6-0.8-5-8.4c-0.4-1.4-0.5-1.8-0.6-3.3
											c-0.2-3.3-0.4-6.7-0.7-10c-0.1-0.8-0.1-1.6-0.2-2.4c-0.3-3.5-0.7-7-1.2-10.4c-0.4,0-0.9,0.1-1.3,0.1
											c0.5,3.5,0.9,6.9,1.2,10.4c0.1,0.8,0.1,1.6,0.2,2.4c0.3,3.3,0.5,6.6,0.7,10c0.1,1.4,0.8,4.4,2.2,9c1.2,3.5,2.5,4.9,4.8,5
											c1.4-0.1,2.8-0.2,4.1-0.3c2.2,0.3,3.4,2.6,3.4,7.1c-0.1,3.2-0.3,6.4-0.5,9.6c-0.1,2.7,0,4.8,0.5,6.1
											c2,5.8,5.5,11,7.5,16.9c0.4,1.5,0.4,3-0.1,5.5c-0.9,4.1-2,8.3-3.1,12.3c-1.4,5.6-1.3,8.4,0.4,8.7c0.2,0,0.4-0.1,0.6-0.1
											c0.2-0.7,0.5-1.5,0.7-2.2c-0.2,0-0.4,0.1-0.6,0.1c-0.8-0.5-1.7-1-0.3-6.5C533.6,502.3,534.6,498.2,535.6,494L535.6,494z"
											/>
										<path class="st4" d="M549.4,481.1c-1.1,0.3-2.4,0.6-3.9,0.9c-1,0.5-1.8,2.5-2.6,6c-2.8,13.6-6.9,26.9-12.3,39.8
											c-1,2.3-2,4.7-3.1,7c-0.7,1.5-0.8,1.7-4.1,6c-0.5,0.5-0.5,0.6-0.9,0.9c-0.9,0.2-1.6,0.3-2.3,0.4c-0.1,0-0.2-0.1-0.3-0.2
											c0-1.3,2.4-5.3,7.4-12.1c0.9-1.3,1.4-2.2,2.1-3.8c1-2.6,2-5.2,3-7.8c-0.2,0-0.5,0.1-0.7,0.1c-0.9,2.6-1.9,5.2-3,7.8
											c-0.7,1.6-0.8,1.9-6.5,9.5c-1.1,1.5-2,3.1-2.7,4.8c-0.9,2.3-0.8,3.2-0.7,3.5c0.1,0.1,0.3,0.2,0.5,0.3
											c0.7-0.1,1.4-0.2,2-0.3c0.9-0.4,1.2-0.7,4.7-5.4c0.9-1.2,1.4-2.2,2.2-3.8c1.1-2.3,2.1-4.6,3.1-7
											c5.4-12.8,9.6-26.1,12.3-39.8c0.6-2.8,1.1-3.2,1.6-3.6c1.5-0.3,2.8-0.6,3.9-0.9c0.8,1-0.9,13-2.6,20.4
											c-0.2,0.8-0.2,1-0.5,1.9c-0.2,0.5-0.3,1-0.5,1.4c-0.9,2.7-1.2,3.1-1.5,3.5c-0.2,0.1-0.4,0.1-0.6,0.2
											c-0.3,0.7-0.5,1.5-0.8,2.2c0.2-0.1,0.4-0.1,0.6-0.2c0.5-0.6,1-1.3,2.5-5.8c0.2-0.5,0.3-1,0.5-1.4c0.1-0.4,2.8-9,3.7-22.5
											C549.9,481.5,549.8,481.3,549.4,481.1L549.4,481.1z"/>
										<g>
											<path class="st4" d="M541.5,517.5c-0.3,0.7-0.6,1.5-0.9,2.2c0.6-0.2,1-0.5,1.3-0.8c0.2-0.3,0.6-1.2,1.4-3.3
												c1.4-3.7,1.6-4.2,3.4-9.3c0.3-0.9,0.7-2,1-3.1c-2.7,8.5-4.8,13.2-4.9,13.4C542.5,517,542.1,517.2,541.5,517.5
												L541.5,517.5z"/>
											<path class="st4" d="M547.7,503.3c0.2-0.6,0.4-1.2,0.6-1.8C548.1,502.1,547.9,502.7,547.7,503.3z"/>
											<path class="st4" d="M548.4,501.2c0,0.1-0.1,0.2-0.1,0.3C548.3,501.4,548.4,501.3,548.4,501.2L548.4,501.2L548.4,501.2z"
												/>
										</g>
										<path class="st4" d="M489.3,560.2c-0.6-0.7-0.8-0.8-1.9-0.9c-2.2,0.2-4.5,0.3-7,0.4c-1.2,0.2-2.3,1.2-3.4,3
											c-1.8,3.5-3.7,7-5.7,10.4c0.4,0,0.8,0,1.2-0.1c2-3.4,3.9-6.8,5.8-10.4c0.3-0.5,0.4-0.6,0.8-0.9c2.7-0.2,5-0.4,7.2-0.5
											c3.2,0.1,5.8,12.9,5.8,13.1c-0.1,1.9-0.2,5-20.1,22.2c-2.6,2.2-4.3,3.2-5.7,3.5c-3.3,0.3-7,0.6-11.1,0.8
											c-2.9,0.4-5.5,2.5-9.4,5.6c-2.5,1.8-4,2.6-5.6,2.8c-1.8,0.1-3.8,0.2-5.7,0.3c-1.1-0.1-0.8-2.7,0.7-8
											c0.3-1,0.6-1.6,1.4-2.7c0.7-1,1.5-2.1,2.2-3.1c1.8-2.7,3.6-5.5,5.3-8.3c0.9-1.5,3.2-3.7,6.8-6.8
											c1.1-0.9,6.9-5.9,14.2-12.7c2-1.7,3.3-2.4,4.9-2.6c1.6-0.1,3.3-0.2,4.8-0.2c0.3-0.6,0.7-1.3,1-1.9
											c-1.6,0.1-3.2,0.2-4.9,0.2c-1.6,0.2-3.1,0.7-5.5,2.7c-6.5,5.1-12.2,11.1-18.4,16.4c-1.9,1.7-2.9,2.9-4.2,5
											c-1.7,2.9-3.4,5.6-5.2,8.3c-0.7,1.1-1.4,2.1-2.1,3.1c-0.3,0.4-1.5,3.4-3.6,9.1c-0.6,2.1-0.2,2.9,1.5,3
											c1.9-0.1,3.8-0.2,5.6-0.3c3.1-0.4,5.9-2.6,9.4-5.3c2.5-1.9,4.1-2.7,5.6-3c4-0.2,7.7-0.5,10.9-0.8c1.2-0.2,5-1,22.5-18.7
											C494.5,575.3,496.2,573.5,489.3,560.2L489.3,560.2z"/>
										<path class="st4" d="M497.5,534.2c-0.4,1.1-0.9,2.3-1.3,3.4c-2.1,4.9-2.3,5.5-18.5,16.9c-1.4,0.9-2.2,1.2-3.4,1.4
											c-0.8,0-1.6,0.1-2.4,0.1c-1-0.1-0.7-2.3,1-6.7c1.9-4.4,3-5.2,9.1-9.6c1.3-0.9,2.1-1.3,3.3-1.4c3.2-0.2,6.2-0.3,9.1-0.5
											c0.3-0.7,0.5-1.4,0.8-2.1c-2.9,0.2-6,0.4-9.2,0.5c-1.4,0.1-4.1,1.7-8.3,4.7c-4.7,3.7-6,7.1-8.1,12.8
											c-0.9,2.7-0.5,4,1.3,4.2c0.8,0,1.6-0.1,2.4-0.1c1.9-0.2,3.1-0.3,18-11.9c2.8-2.4,4.4-4.7,6.1-8.5c0.5-1.1,0.9-2.3,1.3-3.4
											C498.4,534.2,497.9,534.2,497.5,534.2L497.5,534.2z"/>
										<path class="st4" d="M528.9,491.9c-0.3,0-0.7,0.1-1.1,0.1c-0.8-0.1-1.9-1.7-3.4-4.9c-2.2-4.8-2.4-5.1-6.5-11.7
											c-0.9-1.6-1.2-3.2-1-5.8c0.2-2.3,0.4-4.6,0.5-6.9c0-6-1.7-9.1-5.2-9.5c-2,0.3-4.9,4.8-8.7,13.4c-0.8,1.9-1.1,3.1-1.3,5.2
											c-0.3,4-0.8,8-1.3,12c-0.2,2.5-0.2,4.5,0.8,6.7c2.9,6.4,7.3,11.8,10.4,18.1c0.7,1.4,5,1.5,12.8,0.5l0,0l0,0l0,0l0,0l0,0
											l0,0c0.3,0.1,0.8,0.3,0.3,2.3c-1.1,3.6-2.2,7.1-3.5,10.7c0.3,0,0.6-0.1,0.9-0.1c1.3-3.5,2.4-7.1,3.5-10.7
											c0.8-3-2.8-4.1-10.9-3.2c-0.4,0-1.3,0-2-1.3c-3.4-7-5.4-10.4-10-17.4c-1-1.6-1.2-3.1-1-5.6c0.5-4,1-8,1.3-12
											c0.1-0.9,1.6-5.1,4.6-12.4c2.6-5.7,6.1-4.2,7.3-0.7c0.5,1.5,0.5,3,0.5,4.1c-0.1,2.3-0.3,4.6-0.5,6.9
											c-0.1,2.5,0,4.6,0.9,6.9c2.3,5.6,6.1,10.5,8.6,16c0.7,1.3,1.1,1.5,1.9,1.7c0.7,0,1-0.1,1.4-0.1c1.8,0.2,2.3,2.5,1.4,6.9
											c-1.2,5-2.7,9.9-4.2,14.7c0.3,0,0.6-0.1,0.9-0.1c1.6-4.9,3-9.8,4.2-14.7C531.9,495.2,531.3,492.3,528.9,491.9L528.9,491.9
											z"/>
										<path class="st4" d="M515.6,330.8c-1.4-2.2-2.8-4.3-4.2-6.5c-0.2,0-0.4,0.1-0.5,0.1c1.4,2.1,2.8,4.3,4.2,6.5
											c1.5,2.6,1.9,4,1.3,4.4c-2.5,0.4-5.4,0.8-8.8,1.2c-2.2-0.3-4.5-4.8-4.5-4.9c-0.1-0.3-0.9-3.2-2.2-8.8
											c-0.2-0.9-0.1-1.2,0.3-1.3c4.8-0.6,8.5-1.2,10.9-1.9c-0.5-0.6-0.9-1.3-1.4-1.9c-2.5,0.7-6.1,1.3-10.8,1.9
											c-0.2,0.1-0.7,0.2-0.6,1.1c0.3,2.5,1.1,4.9,1.6,7.3c0.4,1.8,1.2,3.7,2.5,5.7c1.1,1.7,3.2,4.5,5.3,4.7
											c3.4-0.4,6.3-0.8,8.8-1.2C518.4,336.7,517.8,334.6,515.6,330.8L515.6,330.8z"/>
										<path class="st7" d="M513.5,316.7c-0.5,0.3-1.3,0.6-2.3,0.9c0.5,0.6,0.9,1.3,1.4,1.9c1-0.3,1.8-0.6,2.3-0.9
											C514.5,318,514,317.3,513.5,316.7L513.5,316.7z"/>
										<path class="st7" d="M510,399.7c-0.4,0-0.9,0.1-1.3,0.1c0.5,2.5,0.9,5.1,1.3,7.6c0.5,0,0.9-0.1,1.3-0.1
											C510.9,404.7,510.5,402.2,510,399.7L510,399.7z"/>
										<path class="st7" d="M520.7,525.4c-0.5,1.3-1,2.6-1.5,4c-1,2.5-2,5-3.1,7.5c0.3,0,0.6-0.1,0.9-0.1
											c1.1-2.5,2.1-4.9,3.1-7.5c0.5-1.3,1-2.6,1.5-3.9C521.3,525.3,521,525.3,520.7,525.4L520.7,525.4z"/>
										<path class="st3" d="M514.4,540.2c-0.7,1.5-1.4,2.9-2.1,4.4c0.3,0,0.6-0.1,0.9-0.1c0.7-1.4,1.4-2.9,2.1-4.4
											C515,540.2,514.7,540.2,514.4,540.2L514.4,540.2z"/>
										<path class="st7" d="M469.3,576.6c-1.8,3-3.7,5.8-5.7,8.7c0.4,0,0.8,0,1.1-0.1c2-2.8,3.9-5.7,5.7-8.6
											C470.1,576.6,469.7,576.6,469.3,576.6L469.3,576.6z"/>
										<path class="st7" d="M502.3,519.9c-1.1,3.7-2.3,7.4-3.6,11.1c0,0,0,0.1,0,0.1c0.4,0,0.8-0.1,1.3-0.1c0,0,0-0.1,0-0.1
											c1.3-3.7,2.5-7.4,3.6-11.1C503.1,519.9,502.7,519.9,502.3,519.9L502.3,519.9z"/>
										<path class="st7" d="M538.7,518.4c-0.3,0.7-0.6,1.5-0.9,2.2c0.7-0.2,1.4-0.4,2-0.6c0.3-0.7,0.6-1.5,0.9-2.2
											C540.1,518,539.5,518.2,538.7,518.4L538.7,518.4z"/>
										<path class="st3" d="M557.1,435c0,0.7-0.9,1.4-2.8,2.1c0,0.8,0,1.6,0.1,2.4c1.8-0.7,2.8-1.4,2.8-2.1
											C557.2,436.6,557.1,435.8,557.1,435z"/>
										<path class="st4" d="M527.9,335l-0.3-0.5l-1-1.7l-0.4-0.6c-0.1-0.1-0.1-0.2-0.2-0.3c0,0.2,0,0.3,0,0.5
											c-0.3-0.3-1.8-2.6-2-3.1c0-0.1,0-0.2,0-0.3c-0.1-0.2-1-1.6-2.6-4.2c-0.1-0.2-0.2-0.3-0.3-0.5c0-0.1-0.1-0.1-0.1-0.2
											l-1.4-2c0,0,0.1,0.1,0.1,0.2c0.9,1.4,1.8,2.8,2.7,4.2c0.2,0.3,0.2,0.4,0.3,0.5c0,0.1,0,0.2,0,0.2c0.2,0.6,2.5,4.3,2.6,4.4
											c1.1,1.7,1.7,2.6,1.9,2.7c0.1-0.2,0.1-0.4,0-0.6C527.3,334.1,527.5,334.4,527.9,335L527.9,335z"/>
										<path class="st7" d="M444.4,531.9c-0.6-0.6-1.1-0.8-2-0.8c-1.5,0-2.9,0.1-4.4,0.1c-2.3,0.3-3.8,1.7-4.5,4.3
											c-0.1,0.4-0.1,0.7-0.2,1.1c-0.2,1.4,1.2,3.7,4.2,6.7c0.5,0.5,0.4,1.1,0.4,1.4c-0.5,2.6,0.2,4,2.3,4.2
											c1.2,0,2.4-0.1,3.5-0.1c0.2-0.7,0.4-1.4,0.6-2c-1.2,0-2.4,0.1-3.5,0.1c-1.3-0.1-1.3-1.1-1.2-1.9c0.3-1.5-1-3.7-4-6.7
											c-0.4-0.5-0.5-0.9-0.4-1.6c0.1-0.4,0.2-0.7,0.2-1.1c0.4-1.2,1.1-1.9,2.2-2.1c1.5,0,2.9-0.1,4.4-0.1c0.5,0,2.6,2.2,6.4,6.6
											c0.3,0.5,0.4,0.9,0.2,1.6c-0.9,3.1-1.8,6.2-2.7,9.1c0.6,0,1.1,0,1.7,0c1-3,1.9-6,2.7-9.1
											C450.6,539.9,448.6,536.7,444.4,531.9L444.4,531.9z"/>
										<path class="st7" d="M551.8,404.2c-0.6,0.3-1.3,0.5-2.2,0.8c-2.1,0.1-5.4-6.8-8.7-18.3c-1.9-6.8-4.1-13.4-6.6-20
											c-1.1-2.8-2.2-5.6-3.4-8.3c-0.3-0.7-0.6-1.5-1-2.2c-1-2.3-2.1-4.5-3.2-6.7c-0.2,0-0.4,0.1-0.5,0.1
											c1.1,2.2,2.1,4.5,3.2,6.7c0.3,0.7,0.6,1.4,1,2.2c1.2,2.7,2.3,5.5,3.4,8.3c2.5,6.6,4.8,13.2,6.6,20
											c3.7,12.9,7.3,20.6,9.7,20.5c0.9-0.3,1.6-0.5,2.2-0.8C552,405.7,551.9,404.9,551.8,404.2L551.8,404.2z"/>
										<path class="st7" d="M504.1,385.9c-2.6-3.1-5.2-4.6-8-4.5c-3,0.2-6,0.3-9.2,0.5c0.2,0.8,0.4,1.5,0.5,2.3
											c3.2-0.1,6.3-0.3,9.3-0.5c4,0.1,5.4,1.9,10.6,8.7l0.6-1.6C506.8,389.3,505.3,387.3,504.1,385.9L504.1,385.9z"/>
										<path class="st7" d="M485.1,381.9c-1.5,0.1-2.9,0.1-4.4,0.2c0.2,0.8,0.3,1.5,0.5,2.3c1.5-0.1,3-0.1,4.4-0.2
											C485.4,383.5,485.2,382.7,485.1,381.9L485.1,381.9z"/>
										<path class="st7" d="M552.4,437.4c-2.6,0.7-6.3,1.4-11,2c-2.3,0.7-4,5.5-4.3,12.4c-0.1,3.9-0.3,7.8-0.6,11.6
											c0.3,0,0.6-0.1,0.9-0.1c0.3-3.8,0.5-7.7,0.6-11.6c0.2-5.5,1.6-9.3,3.4-9.9c4.7-0.6,8.4-1.3,11-2
											C552.5,439,552.4,438.2,552.4,437.4L552.4,437.4z"/>
										<path class="st4" d="M405.2,616.1l-5.9-8.2c-0.3-0.3-0.5-0.4-1-0.4c-1.1,0-2.1,0-3.2,0c-1.7,0-2.4,0.9-3.2,2.3
											c-0.6,1.3-1.2,2.6-1.8,3.8c-0.1,0.3-0.5,1-0.1,1.6l4.9,5.9c0,0.2-0.1,0.5-0.4,1c-0.4,0.7-0.8,1.3,0.6,1.4
											c1.2,0,2.3,0,3.5-0.1c0.3-0.4,0.6-0.8,1-1.1c-1.2,0-2.4,0-3.5,0.1c-0.2,0-0.5-0.1-0.1-0.7c0.5-0.7,0.8-1.2-0.1-2.2
											l-4.5-5.2c-0.1-0.2-0.1-0.3,0-0.7c0.6-1.2,1.2-2.5,1.9-3.8c0.3-0.5,0.7-0.8,1.2-0.9c1,0,2.1,0,3.1,0c0.1,0,0.5,0,0.9,0.5
											c0,0,4.4,6,5.6,7.9c0,0.2,0,0.3-0.1,0.5c-4.5,5.9-9.1,10.9-13.9,15.1c0.3,0,0.6,0,0.9,0c4.9-4.2,9.7-9.2,14.1-15
											C405.3,617.5,405.7,616.9,405.2,616.1L405.2,616.1z"/>
										<path class="st3" d="M496.8,353.8c-0.3-0.7-0.6-1.4-0.9-2.1c-4.2-10.3-9-20.1-14.5-29.4c-0.4,0-0.7,0.1-1.1,0.1
											c5.4,9.3,10.2,19.1,14.3,29.4c0.3,0.7,0.6,1.4,0.9,2.1c1.6,4,3.1,8.1,4.5,12.3c0.4,0,0.8-0.1,1.2-0.1
											C499.9,362,498.4,357.9,496.8,353.8L496.8,353.8z"/>
										<path class="st3" d="M533.3,537.8c-0.4,0.7-0.7,1.4-1.1,2.1c0.1-0.1,0.2-0.2,0.3-0.3l0.3-0.6l0.8-1.5
											C533.5,537.6,533.4,537.7,533.3,537.8L533.3,537.8z"/>
										<path class="st3" d="M530.6,421.2c-1.6,0.2-3.3,0.3-5.1,0.5c0.1,0.8,0.2,1.6,0.2,2.4c1.8-0.2,3.5-0.3,5.1-0.5
											C530.8,422.8,530.7,422,530.6,421.2L530.6,421.2z"/>
										<path class="st7" d="M402.9,622.2c-0.3,0.4-0.7,0.8-1,1.1c1.6,0,3.2-0.1,4.7-0.1c0.4-0.4,0.7-0.8,1.1-1.1
											C406.1,622.1,404.5,622.2,402.9,622.2L402.9,622.2z"/>
									</g>
								</g>
							</g>
						</g>
						<g>
							<g>
								<path class="st4" d="M306.1,440.9c-0.7,0-1.4,0-2.1,0c0,2.7,0,5.4,0,8.1c0.7,0,1.4,0,2.1,0
									C306.1,446.3,306.1,443.6,306.1,440.9L306.1,440.9z"/>
								<path class="st4" d="M384.5,514.9c-0.9,0-1.8,0-2.7-0.1c3.9,5.1,11,14.6,17.9,25.3c0.3,0.5,0.5,0.9,0.7,1.6l1.6-1.5
									C401.4,538.7,394.5,528.3,384.5,514.9z"/>
								<path class="st4" d="M157.4,415.4c-0.1,0.8-0.1,1.6-0.2,2.4c4.2-0.6,9.4-1.2,15.6-1.8c0.1-0.8,0.1-1.6,0.2-2.4
									C166.8,414.1,161.6,414.7,157.4,415.4L157.4,415.4z"/>
								<path class="st4" d="M370.4,497.1c-1.7-1.9-3.1-2.5-5.5-2.7c-9.9-0.2-19.9-0.2-29.7-0.4c-3.7-0.2-5.9-2.4-6.1-6.7
									c-0.1-3.5-0.1-7.1-0.2-10.6c-0.2-5.7-3.1-8.9-8.3-9.2c-2.7,0-5.4,0-8.1,0c-3.8-0.4-5.8-2.7-6.3-6.8
									c-0.1-3.1-0.1-6.1-0.1-9.2c-0.7,0-1.4,0-2.1,0c0,3.1,0.1,6.2,0.1,9.2c0.6,5.6,3.4,8.6,8.4,9.2c2.7,0,5.4,0,8.1,0
									c3.9,0.2,5.8,2.7,6.2,6.8c0,3.6,0.1,7.1,0.2,10.6c0.1,5.5,3,8.7,8.2,9c9.9,0.1,19.8,0.2,29.6,0.4c1.7,0.1,6.8,5.4,15.2,15.9
									c0.9,0,1.8,0,2.8,0.1C376.9,505.2,372.8,500.1,370.4,497.1L370.4,497.1z"/>
								<path class="st4" d="M353.5,619.4c0,0-0.4,2.3-0.7,3.8c-0.3,1.1-0.5,1.9-0.9,2.4c-0.5,0.7-1,0.9-1.5,0.9c-1,0-1.8-1-1.9-1.2
									l-6.6-11.1c-0.8-1.5-0.9-2.6-0.9-2.8c-0.8-9.9-1.5-20.9-2.1-33.3c-0.2-5-0.4-10.1-0.6-15.4c-0.1-2.5-0.1-3.4-2.7-5.8
									c-2.2-2-6.1-5.4-13.1-11.1c-1.7-1.7-2-2.3-2.5-4.8c-0.9-10.1-1.6-20.6-2.2-31.5c-0.3-5.9-0.6-11.9-0.8-18
									c-0.7-5.5-3.5-8.5-8.4-9c-9.2,0-18.3,0-27.2,0.1c0.1,0.8,0.1,1.5,0.2,2.3c8.9-0.1,18-0.1,27.1-0.1c3.7,0.4,5.7,2.6,6.2,6.7
									c0.2,6,0.6,12,0.9,18c0.6,11,1.4,21.5,2.4,31.5c0.3,2.2-0.1,3.2,3.1,6.2c2.3,2.2,6.7,5.3,13.2,10.9c1.6,1.4,2,2.2,2.1,4.5
									c0.4,5.4,0.5,10.5,0.8,15.4c0.7,12.7,1.1,23.7,2.1,33.2c0.2,1,0.1,1.8,0.7,3l7.2,11.7c1.9,2.7,4,2.5,5.2,0.7
									c0.4-0.6,0.9-2,1.1-3l0.8-3.7C354.4,619.8,353.8,619.4,353.5,619.4L353.5,619.4z"/>
								<path class="st4" d="M400.4,544.1c-1.7,8.3-3.4,16-5.5,23.2c-0.7,2.3-0.5,2.4-5.4,6.8c-13.4,12-24.5,22.5-33,31.2
									c-1.1,1.2-1.5,2.2-1.8,3.9c-0.3,3.3-0.8,6.5-1.1,9.4c0.3,0.1,0.7,0.2,1,0.3c0.4-3,0.8-6.3,1.2-9.7c0.1-0.4,0.3-1.8,1.8-3.3
									c3.7-3.7,12.8-13,35.8-33.5c1.1-1.1,2.4-2.4,3.1-5.1c2-7.3,3.8-15,5.4-22.9c0.2-1,0.2-1.2,0.2-2.2
									C401.7,542.9,401,543.6,400.4,544.1L400.4,544.1z"/>
								<path class="st4" d="M230.7,458.8c-3.8-2.6-4-4.5-4.3-7.4c-0.4-7.9-0.6-14.6-0.6-22c-0.6,0-1.2,0-1.8,0.1
									c-0.1,8,0.1,16,0.5,23.9c0.5,4.3,15.1,14.6,43.9,30.8c1.3,0.7,2.2,0.9,3.7,1c2.5,0,5-0.1,7.5-0.1c-0.1-0.8-0.1-1.5-0.2-2.3
									c-2.5,0-5,0.2-7.6,0.1c-0.2,0-0.9,0.1-2.1-0.6L230.7,458.8L230.7,458.8z"/>
								<path class="st4" d="M225.4,397.2c-1.1-1.5-3.1-3-4.4-4.3c-2-1.9-6.3-6.1-11.9-12.6c-1-1-1.7-1.3-3-1.3
									c-3,0.2-5.9,0.3-8.7,0.5c-0.8,0.1-2.9-0.1-5.4,3.9c-2.6,4.2-7,12-13.8,26.9c-1,2-1.8,2.8-3,3.1c-0.3,0-0.6,0-0.9,0.1
									c-0.1,0.8-0.1,1.6-0.2,2.4c0.3,0,0.6,0,0.9-0.1c2.4-0.5,3-1.8,6-8.3c1.7-3.6,5.5-11.4,12.2-22.7c1.3-1.9,2.3-2.7,3.8-3
									c2.8-0.2,5.7-0.3,8.7-0.5c0.9,0,2.7,1.5,5.4,4.6c1.3,1.5,5.1,5.7,12.6,12.7c1.4,1.5,1.9,3,1.7,5.5c-0.7,7.6-1.1,15.2-1.2,23
									c0.6,0,1.2,0,1.8-0.1c0.2-7.8,0.6-15.4,1.2-23C227.2,402.6,227.3,399.7,225.4,397.2L225.4,397.2z"/>
							</g>
							<g>
								<path class="st4" d="M277.4,385c-3.5-0.4-5.2-2.5-5.1-6.5c0.4-3.6,0.8-7.1,1.3-10.7c0.3-5.2-1.8-8-6.2-8.4
									c-9.9,0.2-19.5,0.4-28.7,0.7c-8.9,0.3-17.1,0.6-24.6,1c-0.8-0.1-3.2-0.2-10.4-17.2c-0.6-1.2-0.9-1.4-2.2-1.5
									c-3.5,0.2-6.8,0.5-9.8,0.8c-2,0.5-3,0.5-11.5,11.8c-1,1.1-1.1,1.3-1.9,2c-1.3,1.1-1.8,0.9-2.7,1.1c-2.2,0.8-3.9,3.2-5.9,8.4
									c-0.4,1.1-0.7,2.2-1.1,3.3c-1.4,4.7-1.9,6.4,2.7,19.2c0.7,1.4,2.8,1.1,3.5,2.5c0.8,1.7,0.6,4,0.4,5.4
									c-0.9,5.5-1.6,11.1-2.1,16.8c-0.1,0.8-0.1,1.6-0.2,2.4c-0.1,1.5-0.2,3.1-0.3,4.6c0.4,0,0.7-0.1,1.1-0.1
									c0.1-1.5,0.2-3.1,0.3-4.6c0.1-0.8,0.1-1.6,0.2-2.4c0.5-5.6,1.2-11.2,2.1-16.8c0.6-5.4-0.2-8.2-2.5-8.5
									c-1.9-0.2-3.8-7.5-5.1-13.5c-0.2-1.8,0.3-2.5,1-4.8c0.4-1.1,0.7-2.2,1.1-3.3c0.9-2.4,2.1-5.5,4.2-6.6
									c1.2-0.6,1.3-0.4,2.1-0.5c0.7-0.2,4.3-4.3,10.9-12.2c1.4-1.5,1.7-1.7,2.9-2.1c3-0.3,6.3-0.5,9.8-0.8c0.8,0.1,1.8,1.6,3,4.3
									c2.6,5.9,4.9,9.8,6.8,12.9c1,1.3,1.4,1.5,3.1,1.6c7.5-0.4,15.8-0.7,24.7-1c9.3-0.3,18.9-0.5,28.8-0.7
									c3.3,0.3,4.8,2.4,4.6,6.3c-0.5,3.5-1,7.1-1.4,10.7c-0.1,5.4,2.1,8.2,6.9,8.7c2.6,0,5.2-0.1,7.8-0.1c0.1-0.8,0.1-1.5,0.2-2.3
									C282.6,384.9,280,385,277.4,385L277.4,385z"/>
								<path class="st4" d="M287.2,384.9c-0.1,0.8-0.1,1.5-0.2,2.3c3.4,0,6.9,0,10.3-0.1c0-0.8,0.1-1.5,0.2-2.3
									C294.1,384.9,290.6,384.9,287.2,384.9L287.2,384.9z"/>
							</g>
							<g>
								<path class="st4" d="M348.8,382.8c-1.5-0.9-2.5-1.2-4.2-1.2c-2.6,0-5.2-0.1-7.8-0.1c-5.3,0.5-8.3,3.6-9,9.3
									c-0.1,1.4-0.1,2.8-0.1,4.1c-0.5,4.4-2.8,6.8-6.9,7.2c-1.5,0-2.9,0-4.4,0c-6.8-0.4-6.5-5.2-5.8-15.6c0.4-3.5,1.7-4.5,4.3-6.7
									c6.3-6,3.8-15.8-4.2-16.3c-3.3,0-6.6,0-9.9,0c-2.2,0.1-6,2.5-11.3,7.1c-2.2,2.1-3.1,3.9-3.6,7c-0.2,2.4-0.5,4.8-0.7,7.2
									c-0.1,0.8-0.1,1.5-0.2,2.3c-0.3,3.4-0.5,6.9-0.7,10.3c0.7,0,1.4,0,2.1,0c0.2-3.5,0.5-6.9,0.7-10.3c0.1-0.8,0.1-1.5,0.2-2.3
									c0.2-2.4,0.4-4.8,0.6-7.2c0.3-2.3,3.1-5.7,8.3-10.2c1.5-1.2,2.6-1.6,4.3-1.7c3.3,0,6.6,0,9.9,0c4.7,0.5,9.8,6.8,1.6,13.6
									c-3.4,3.1-3.4,3.4-4.1,15.4c-0.1,5.6,3.2,9.4,8.4,9.7c1.5,0,2.9,0,4.4,0c5.4-0.6,8.4-3.7,9.1-9.5c0-1.4,0.1-2.8,0.1-4.1
									c0.6-4.4,2.8-6.7,6.8-7.1c2.6,0,5.2,0,7.8,0.1c1.3,0.1,7.5,3.6,18.6,10.5c2.3,1.7,3.2,3.4,3.4,6.4c0,1.9,0,3.9,0,5.8
									c0,0.2,0,1,0,1.1h2.1c0-0.2,0-0.9,0-1.1c0-1.9,0-3.9,0-5.8C368.3,396.9,361.7,390.9,348.8,382.8L348.8,382.8z"/>
								<path class="st4" d="M365.9,409.5c-1,2.3-1.1,2.3-13,9.5c-3.1,2.2-4.3,4.5-4.6,8.5v0.9c0,2.1-0.1,4.1-0.1,6.2
									c-0.2,2.7-4.3,7.1-12.3,13.2c-1.3,0.9-2.3,1.3-3.9,1.3c-8.7-0.1-17.3-0.1-25.9-0.1c-0.7,0-1.4,0-2.1,0
									c-8.5,0-16.9,0-25.2,0.1c0,0.8,0,1.6,0,2.4c8.3-0.1,16.7-0.1,25.2-0.1c0.7,0,1.4,0,2.1,0c8.6,0,17.2,0,25.9,0.1
									c2-0.1,6.8-3,14.4-8.8c2.6-2.2,3.6-4.4,3.9-8c0-2.1,0.1-4.1,0.1-6.2c0-0.3,0-0.6,0-0.9c0.2-3,4.8-7.2,13.6-12.6
									c0.8-0.5,2.7-1.7,3.8-4.4c0.1-0.2,0.3-0.7,0.3-1L365.9,409.5L365.9,409.5z"/>
							</g>
							<path class="st7" d="M172.3,423.7c-0.1,2.1-0.2,4.2-0.2,6.3c0.4,0,0.7-0.1,1.1-0.1c0-2.1,0.1-4.2,0.2-6.3
								C173,423.7,172.7,423.7,172.3,423.7z"/>
							<path class="st4" d="M305.3,346.3c-1.6,0-3.2,0-4.7,0c-0.9-0.1-2.4-2.4-4.7-6.9c-0.7-1.2-1.5-1.7-3-1.8
								c-8,0.1-16,0.2-23.7,0.3c-0.9-0.1-1.9-0.2-7.3-15.6c-0.5-1.1-1.1-1.5-2.3-1.5c-3,0.1-6,0.2-9,0.2c-2.1,0.1-4.1,0.1-6.1,0.2
								c0.5-1.3,1.1-2.5,1.6-3.8c-0.5,0-1,0-1.5,0c-0.6,1.2-1.1,2.5-1.6,3.8c-1.2,0-2.4,0.1-3.5,0.1c-0.3,0.6-0.5,1.3-0.8,1.9
								c1.2,0,2.4-0.1,3.6-0.1c-1.6,3.9-3.1,7.8-4.5,11.9c-0.7,2.7-0.1,4.1,2.1,4.3c1.5,0,3-0.1,4.5-0.1c2.4-0.1,4.8-0.1,7.2-0.2
								c0.6,0.1,2.8,3.8,6.7,11.2c0.7,1.1,1.4,1.4,2.6,1.5c5.3-0.1,10.6-0.2,16.1-0.3c0.8,0.1,2.3,2.9,4.5,8.4
								c0.7,1.5,1.7,2.1,3.3,2.2c3,0,6,0,9-0.1c1.3-0.1,3.8-1.9,7.4-5.6c0.7-0.6,0.9-0.7,1.8-0.8c0.5,0,0.9,0,1.4,0
								c3.3-0.4,4.3-2.7,4.6-3.8C308.9,351.8,310.1,346.8,305.3,346.3L305.3,346.3z M307,351.4c-0.2,0.5-0.7,1.8-2.5,2
								c-0.5,0-0.9,0-1.4,0c-1.3,0.1-2.2,0.4-3.3,1.4c-3.2,3.2-5.1,4.8-5.9,4.9c-3,0-6,0-8.9,0.1c-1-0.1-1.3-0.3-1.8-1.2
								c-2.4-6.1-4.4-9.2-5.9-9.3c-5.4,0.1-10.8,0.2-16,0.3c-0.7-0.1-0.9-0.2-1.4-0.8c-4.3-7.9-6.9-11.8-7.8-11.8
								c-2.4,0.1-4.8,0.1-7.1,0.2c-1.5,0.1-3,0.1-4.5,0.1c-1.1-0.1-1.5-0.9-1.1-2.3c1.4-4,2.9-8,4.4-11.9c2-0.1,4-0.1,6.1-0.2
								c3-0.1,6-0.2,9.1-0.2c0.7,0.1,0.9,0.2,1.2,0.8c5.8,16.3,6.3,16.4,8.5,16.5c7.8-0.1,15.7-0.2,23.8-0.3c0.9,0.1,1.1,0.2,1.6,1
								c2.6,5.1,4.6,7.7,6.2,7.8c1.6,0,3.2,0,4.8,0C307.7,348.7,307,351.4,307,351.4L307,351.4z"/>
							<path class="st4" d="M344.5,281.3c-12.4-0.1-24.7-0.1-36.7-0.1c-2.2,0.2-3.8,1.5-4.9,3.7c-0.1,0.4-0.3,0.7-0.4,1.1
								c0,0.1-0.1,0.2-0.1,0.2c-0.6,1.4-1.6,2.1-2.9,2.2c-2.1,0-4.2,0.1-6.5,0.1c-0.7,0.1-1.1,0.2-2.1,0.8c-5,3-7.8,5.2-8.5,6.7
								c-1.6,3.8-3.2,7.8-4.7,11.9c0.5,0,1.1,0,1.6,0c1.5-4.1,3-8.1,4.6-11.9c0.5-1,0.7-1.2,1.7-1.9c4.1-2.5,6.4-3.8,7-3.9
								c2.1,0,4.2,0,6.3-0.1c2.3-0.3,3.9-1.5,5-3.9c0-0.1,0.1-0.2,0.1-0.2c0.1-0.4,0.3-0.7,0.4-1.1c0.6-1.3,1.5-2,2.8-2.2
								c12.1-0.1,24.6-0.1,37.1,0.1c1.3,0.1,1.9,0.9,1.9,2.2c0,0.4,0,0.7-0.1,1.1c0,0,0,0.1,0,0.1c-0.1,1.1-0.6,1.7-1.6,2.1
								c-11.3,3.6-17.1,6.4-17.6,8.4c-0.4,2.8-0.9,5.7-1.3,8.6c-0.4,1.5-1.3,2.3-2.8,2.5c-10.8,0-21.5,0-32,0.1
								c-1.4-0.1-1.9-1-1.5-2.5c0.6-2.6-0.2-3.9-2.4-4.2c-1,0-2,0-3,0c-0.2,0.6-0.4,1.2-0.6,1.8c1,0,2,0,3,0
								c1.3,0.1,1.8,0.9,1.4,2.4c-0.6,2.6,0.2,4,2.6,4.3c10.5-0.1,21.3-0.2,32.2-0.1c2.6-0.3,4.1-1.7,4.7-4.3
								c0.4-2.9,0.8-5.8,1.2-8.6c0.3-1.1,0.8-1.8,1.9-2.2c11.2-3.6,17-6.4,17.2-8.3c0.4-2.9,0-0.1,0-0.1c0-0.3,0-0.7,0-1
								C347.8,282.7,346.7,281.5,344.5,281.3L344.5,281.3z"/>
							<path class="st4" d="M454.4,320.5c-1.2-3.1-2.4-6.2-3.8-9.1c-1.4-3-2.4-4.1-5.1-4.4c-1.5-0.1-3.8-0.2-4.8-0.3
								c-1-0.1-1.1-0.4-1.9-1.2c-13-14.8-13.2-14.9-15.7-15.4c-9.5-0.4-19.5-0.8-30.2-1.1c-0.8,0.2-1.3,0.4-1.8,1
								c-2.4,3.5-4,5.3-4.7,5.4c-9.2-0.2-18.7-0.5-28.1-0.6c-1.3,0.1-1.7,0.3-2.7,1.2c-5.7,6.2-9.1,9.3-10,9.5
								c-2.8,0-5.5-0.1-8.3-0.1c-2.4,0.2-3.9,1.6-4.4,4.1c-0.1,1-0.2,2-0.3,3.1c0.6,0,1.2,0,1.8,0c0.1-1,0.2-2,0.3-3.1
								c0.5-1.6,0.9-2,2.5-2.3c2.8,0,5.6,0,8.4,0.1c1.4-0.1,1.8-0.3,2.9-1.2c6-6.2,9.3-9.4,9.9-9.5c9.6,0.2,19.1,0.4,28.4,0.6
								c1.2-0.1,1.6-0.2,2.4-1.1c2.5-3.5,4-5.3,4.6-5.4c10.4,0.3,20.6,0.7,30.4,1.2c0.7,0.3,1.3,0.6,1.8,1.1
								c14.1,15.3,12.6,15.2,14.3,15.6c1.5,0.1,4.8,0,6.1,0.3c1.5,0.4,2,0.8,2.8,2.5c1.3,3,2.5,6,3.6,9.1c0.6,1.7,0.5,2.4-0.8,2.3
								c-0.8,0-1.5-0.1-2.3-0.1c-1.2-0.1-1.4,0.4-1.9,2l-4.1,16.8c-0.8,3-1.6,2.9-2,3l-14-0.6c-1.9-0.1-2.3,0.5-3,2.5
								c-7,20.9-6.7,21.1-8.8,21.3l-16.1-0.6c-0.8-0.1-1.4-0.5-1.8-0.7c-13.4-12.6-13-12.2-13.3-13.7c-0.1-0.9-0.1-1.7-0.1-2.6
								c0.2-2,0.6-2.4,2.4-2.8c1.2,0,2.4,0.1,3.5,0.1c0.7-0.1,1.6-0.1,2.4-0.8c2.8-2.1,1.9-8.2-3.2-8.9c-7.1-0.2-14.4-0.4-22.2-0.6
								c-0.5-0.2-1.1-0.6-1.4-1c-10.6-14.2-16.5-21.4-17.8-21.6c-2.4,0-4.8-0.1-7.1-0.1c0,0.6-0.1,1.2-0.1,1.9
								c2.4,0,4.8,0.1,7.7,0.1c0.4,0.2,1,0.6,1.3,0.9c10.2,14.3,16.2,21.6,18.1,21.9c7.3,0.1,14.6,0.3,21.8,0.5
								c0.3,0.1,0.7,0.1,1,0.2c1.6,0.7,3,4.5-0.5,5.2c-1.2,0-2.3-0.1-3.5-0.1c-2.7,0.2-4.1,1.8-4.1,4.8c0,0.9,0.1,1.9,0.2,2.8
								c0.3,1.9,0.5,2.4,1.8,3.8c9,8.4,14.1,12.7,15.4,12.8c5.5,0.2,10.9,0.3,16.2,0.5c1.5-0.2,2.7-0.3,3.7-2.6
								c5-14.2,7.8-21.3,8.3-21.3c4,0.2,8,0.3,11.9,0.5c0.7,0,1.5,0.1,2.2,0.1c1.4,0.1,2.6-0.9,2.9-2.2c0.1-0.6,0.3-1.2,0.5-1.7
								c3.4-12.9,4.4-16.5,4.7-17.5c0.1-0.2,0.3-0.4,0.5-0.4c0.6,0,1.3,0.1,2,0.1C454.4,324.8,455.5,323.8,454.4,320.5L454.4,320.5z
								"/>
							<path class="st7" d="M368.5,374c0-3.9-0.1-7.7-0.2-11.5c-0.2-2.6-0.9-4.1-2.6-5.9c-5.4-5-9-7.6-10.8-7.7
								c-2.1,0-4.1-0.1-6.2-0.1c-1.7-0.1-2.7-0.6-3.8-1.9c-6.1-7.8-10.2-11.7-12.3-11.9c-3.3,0-6.7,0-10,0c-0.1,0.7-0.1,1.4-0.2,2
								c3.3,0,6.7,0,10.1,0c1.6,0.1,2.6,0.6,3.6,1.8c6.1,7.9,10.2,11.9,12.6,12c2.1,0,4.1,0,6.2,0.1c1.4,0.1,2.3,0.4,3.4,1.4
								c5.2,4.9,7.9,8.3,8,10.1c0,3.8,0,7.6,0.1,11.4c0.2,6.4-4.9,7.8-8.8,3.6c-6.8-7.3-7.2-7.8-10.6-8c-2.4,0-4.7-0.1-7.1-0.1
								c-3.2-0.4-4.9-2.3-5.1-5.7c0-0.6,0.1-1.3,0.1-1.9c-0.2-4.8-2.5-7.3-6.8-7.8c-1.7,0-3.5,0-5.2,0c-3.1-0.4-4.7-2.2-4.7-5.5
								c0.7-8.3,1.6-16.2,2.5-23.8c-0.6,0-1.2,0-1.9,0c-1,7.6-1.8,15.5-2.6,23.8c0,4.7,2.1,7.2,6.5,7.7c1.7,0,3.5,0,5.2,0
								c3.1,0.4,4.8,2.2,4.9,5.6c0,0.6-0.1,1.3-0.1,1.9c0.2,4.8,2.6,7.4,7.1,8c2.4,0,4.8,0,7.1,0.1c1.7,0.1,2.7,0.6,3.9,1.9l6.7,6.7
								c3.6,3.3,7.7,1.7,9.4-0.6C368.6,377.4,368.5,374,368.5,374L368.5,374z"/>
							<g>
								<path class="st4" d="M486.3,436.4c-0.5,0-1.8,0-3,1.1c-7.6,6.9-14.5,14.6-22,21.6c-1.6,1.6-2.2,3.1-2.6,5.5
									c-1.1,10.9-2.6,21.7-4.6,32.3c0.6,0,1.2,0.1,1.8,0.1c2-10.6,3.6-21.4,4.6-32.3c0.2-1.5,0.7-2.6,1.4-3.4
									c7-7.5,14.9-14.1,22-21.5c0.5-0.5,1.2-1,2.3-1c2.2,0.2,4.5,0.3,6.6,0.5c0-0.9-0.1-1.3-0.3-2.4
									C490.6,436.7,488.4,436.5,486.3,436.4L486.3,436.4z"/>
								<path class="st4" d="M517.7,404.5c0.2,0,0.5,0,0.7,0.1c-0.3-3.1-0.8-6.2-1.2-9.2c-0.2,0-0.5-0.1-0.7-0.1
									c-0.2,0-0.4,0-0.6-0.1c0.5,3.1,0.9,6.1,1.2,9.2C517.3,404.5,517.5,404.5,517.7,404.5z"/>
								<path class="st4" d="M522.4,455.1c-0.5,0.5-0.8,0.7-1.6,0.7c-0.9-0.1-1.7-0.2-2.6-0.3c0,0-0.1,0-0.2,0
									c-0.8-0.2-2.8-4.8-6.1-13.9c-0.9-2.2-1.9-3.1-3.6-3.5c-4.5-0.4-9.5-0.8-14.4-1.1c0.1,0.9,0.2,1.5,0.2,2.4
									c4.9,0.4,9.7,0.7,14.1,1.1c1.9,0.4,2,0.4,6.4,13.9c0.8,2.2,1.6,3.1,3.1,3.4c0.1,0,0.1,0,0.2,0c0.9,0.1,1.8,0.2,2.6,0.3
									c0.5,0,1.3,0,2.3-1c4.6-4.7,9.4-10.6,14.1-17.3l-0.5-2.1C531.8,444.4,529.2,447.8,522.4,455.1L522.4,455.1z"/>
								<path class="st4" d="M545.3,420.4c-0.1-1.8-0.3-3.7-0.5-5.5c-0.5-4.3-0.8-4.9-5.5-13.4c-0.7-1.2-1.2-1.6-1.9-1.8
									c-2.7-0.4-5.8-0.9-9.2-1.3c-2,0.2-2.8,2.4-2.5,6.8c0.1,0.4,0.1,0.8,0.1,1.1c0.4,3.1,0.8,3.8,3.1,8c1.6,3.2,1.2,8-1.2,8.2
									c-1.2-0.1-2.3-0.3-3.5-0.4c-0.7-0.2-2-1.9-3.9-5.2c-0.6-1.2-0.9-2.1-1-3.6c-0.2-2.2-0.4-4.3-0.6-6.5c-0.2,0-0.5-0.1-0.7-0.1
									c-0.2,0-0.4,0-0.6-0.1c0.2,2.1,0.4,4.3,0.6,6.5c0.3,3.1,0.4,3.3,3.5,8.8c1,1.6,1.7,2.2,2.9,2.4c1.2,0.1,2.4,0.3,3.5,0.4
									c2.9-0.3,3.1-4.6,3.2-5.4c0.1-4-0.8-5.5-2.9-9.5c-0.6-1.2-0.9-2.1-1.1-3.5c0-0.4-0.1-0.8-0.1-1.1c-0.2-2.9,0.3-4.4,1.7-4.6
									c3.4,0.4,6.5,0.9,9.3,1.3c0.8,0.2,0.9,0.2,5.2,8.8c0.5,1.2,0.8,2.2,1,4c0.2,1.8,0.3,3.7,0.5,5.5c0.1,1.9-0.6,4.3-2,7.2
									l0.6,1.9l1.5-3.1C545,425.6,545.6,424.1,545.3,420.4L545.3,420.4z"/>
								<path class="st4" d="M537.3,436.5l0.5,2.1c2.9-4.7,3.1-5,4.7-7.9l-0.6-1.9C539.3,433.5,539.2,433.6,537.3,436.5L537.3,436.5
									z"/>
							</g>
							<path class="st4" d="M532.5,371.3c-1.3-4.2-2.8-8.4-4.3-12.5c-0.1-0.2-0.1-0.3-0.2-0.5c-1.1-2.7-2.1-4.5-3.4-4.7
								c-1.3-0.2-2.7-0.4-4.5-0.6c-0.1,0-0.2,0-0.4,0.1c-0.2,0.1-0.3,0.3-0.4,0.6c0,0,0,0.1,0,0.1c-0.5,2-1.5,3.9-1.7,6
								c-0.2,1.5,0.8,2.9,0.6,4.4c0,0,0,0.3-0.2,0.4c-0.2,0.2-0.4,0.1-0.4,0.1l-4.3-0.6c-0.6,0-1.3-0.9-1.7-1.5
								c-3.5-4.9-5.6-8-7.8-11.1l-0.7,1c6.7,9.8,8.5,12.5,9.4,13.4c0.4,0.3,0.6,0.5,0.9,0.5c1.7,0.2,3.3,0.4,4.9,0.5
								c0.5,0.1,0.9-0.2,1.1-0.5c0.9-1.1-0.7-3.9-0.5-5.6c0.5-1.7,1-3.6,1.5-5.3c0.2-0.6,0.3-0.6,0.5-0.6c1.6,0.2,2.8,0.4,4.3,0.7
								c0.6,0.1,1.2,0.9,1.8,2.4c0.1,0.2,0.1,0.4,0.2,0.5c1.6,4.1,3,8.3,4.4,12.8c0.2,0.9,0.2,1.1,0,1.9c-0.4,1.3-1.9,4.6-3.1,6.9
								c-0.2,0.5-0.5,0.9-0.7,1.2c-0.3,0.4-0.4,0.7-0.7,0.7l-4.1-0.5c-0.6-0.1-1.5-0.9-2-2.5c-0.2-1-0.5-1.9-0.7-2.9
								c-0.5-1.8-0.9-3.3-1.7-4.1c-0.5-0.5-0.9-0.5-1.8-0.7c-1.8-0.2-3.6-0.4-5.6-0.6c-4.2-0.4-8.6-0.8-13.3-1.2
								c-1,0.1-1.2,0.2-1.8,1.2c-4.8,10.6-10,19.1-12.6,23.2c-2.1,3.3-3.2,5.6-3.1,7c0.2,2.8,0.4,5.5,0.6,8.3
								c0.1,1.4,0.4,2.3,1.2,3.5c5,6.7,7.8,10.2,8.7,10.4l9.6,0.7c2.2,0.1,2.9-1.7,3-4.6c0-0.9-0.1-1.7-0.1-2.6c0-0.9,0-1.1,0.4-1.7
								c3.6-5.9,5.6-8.9,5.9-8.9c2.6,0.2,5.2,0.5,7.6,0.7c0.2,0,0.4,0,0.6,0.1c0.2,0,0.5,0,0.7,0.1c1.1,0.1,2.3,0.2,3.3,0.3
								c-0.1-0.8-0.2-1.6-0.3-2.3c-1.1-0.1-2.2-0.2-3.3-0.4c-0.2,0-0.5,0-0.7-0.1c-0.2,0-0.4,0-0.6-0.1c-2.5-0.2-5-0.5-7.6-0.7
								c-1,0.1-1.2,0.2-1.9,1.2c-3.7,6.7-5.6,10.6-5.6,11.6c0,0.9,0.1,1.7,0.1,2.6c0,1.9-0.7,2.3-1.5,2.4c-3.1-0.2-5.7-0.3-9.1-0.7
								c-1-0.1-1.3-0.3-1.7-0.8c-4.5-6.5-6.8-10.1-6.9-10.5c-0.2-2.8-0.4-5.6-0.6-8.3c0-0.8,0-1,0.4-1.7
								c5.7-8.7,10.2-16.6,13.4-23.4c1.3-2.7,2.1-4.1,2.6-4.2c4.7,0.4,9.2,0.8,13.4,1.2c1.7,0.2,3.3,0.3,5.1,0.6
								c0.3,0,0.5,0.1,0.7,0.2c0.7,0.3,1.1,0.7,1.6,2.3c0.2,0.9,0.5,1.9,0.7,2.9c0.8,2.8,1.9,4.4,3.4,4.9l4.6,0.5
								c0.3,0,0.5-0.2,0.6-0.5c0.1-0.1,0.2-0.3,0.2-0.4C533.6,375,533.3,374.3,532.5,371.3L532.5,371.3z"/>
							<path class="st4" d="M544.9,370.9l-0.5-1.3l0,0c0.3,0.7,0.5,1.5,0.8,2.2c0,0,0,0,0,0L544.9,370.9L544.9,370.9z"/>
							<g>
								<path class="st4" d="M539.5,358.5c0.2,0.3,0.5,0.7,1.5,3.1c0.1,0.3,0.2,0.5,0.3,0.8c0.9,2.1,1.7,4.2,2.5,6.4
									c0.1,0,0.1,0.1,0.2,0.1c-0.8-2.1-1.6-4.3-2.5-6.4c-0.1-0.3-0.2-0.5-0.3-0.8c-1.3-3.1-2.1-4.9-2.6-5.4
									c-0.2-0.1-0.3-0.2-0.6-0.3c-0.1,0.3-0.1,0.6,1.5,4.8c0.1,0.3,0.2,0.5,0.3,0.8c0.1,0.3,0.3,0.7,0.4,1
									c0.5,1.2,0.8,1.9,1.6,5.9c0,0.2,0.1,0.4,0.1,0.6c-0.9-0.1-1.8-0.4-2.9-0.7c-0.3-0.2-0.9-1.1-1.7-2.7
									c-0.7-1.2-1.7-3.6-1.5-4.7c0.1,0,0.2-0.1,0.4-0.1c0.3-0.9-0.4-2.9-1.1-4.7c-0.2-0.5-0.5-1.1-0.7-1.6
									c-1.8-3.9-1.8-4.1-8.4-10.9c-0.3-0.3-0.4-0.4-0.6-0.5c-4.2-0.9-9.6-1.7-16.5-2.5c-0.4,0-0.8,0-1,0.6c-1,3.1-1.5,5.2-2.5,7.8
									l1.4,1.8c1.4-4,1.6-4.6,2.5-7.7c0.1-0.4,0.2-0.5,0.5-0.5c0.1,0,0.2,0,0.3,0c6.8,0.8,12.2,1.6,16.2,2.4c0,0,0.9,0.5,6.2,6.6
									c0.5,0.7,0.9,1.4,1.5,2.7c0.2,0.5,0.5,1.1,0.7,1.6c0.5,1.2,0.7,1.9,0.7,2.6c-0.1,0.1-0.3,0.2-0.4,0.3
									c-0.1,0.2-0.6,2.5,3.5,9.8c0.8,1.5,1.1,1.7,1.5,1.9c1.1,0.3,2,0.6,2.8,0.8c0,0,0.1-0.1,0.2-0.1c0-0.4,0.1-0.9-1-5
									c-0.3-1.1-0.6-2-1.2-3.5c-0.1-0.3-0.3-0.7-0.4-1c-0.1-0.3-0.2-0.5-0.3-0.8c-0.5-1.4-0.8-2-0.9-2.6
									C539.1,358.3,539.3,358.4,539.5,358.5L539.5,358.5z"/>
								<path class="st4" d="M544.7,371.1c0,0-0.1-0.1-0.2-0.1c1.8,5.2,3.5,10.4,4.9,15.6c0.1,0,0.1,0.1,0.2,0.1
									C548.2,381.5,546.6,376.3,544.7,371.1L544.7,371.1z"/>
							</g>
							<g>
								<path class="st4" d="M552.4,463.7c-0.2-0.2-0.3-0.4-0.4-1.8c-0.2-5.4-0.3-8.1-1.1-14.9c-0.4-2.6-0.9-2.9-1.3-2.9
									c-1.5,0.9-1.7,6.6-1.7,6.6c-0.1,6.4,1,12.6,1.2,18.9c0.1,1.8,0.2,2.5,0.7,2.8c0.6,0.2,1.1,0.4,1.6,0.5
									c0.1-0.8,0.2-1.6,0.4-2.3c-0.5-0.2-1-0.4-1.6-0.5c-0.2-0.2-0.4-0.4-0.4-1.8c-0.2-6.2-0.3-8.5-1.1-15.6
									c-0.3-3.4,0.5-6.6,1.3-6.2c0.9,0.5,1.5,12.6,1.6,16.7c0.1,1.8,0.2,2.6,0.6,2.8c0.3,0.1,0.5,0.2,0.8,0.3
									c0.1-0.8,0.2-1.6,0.3-2.4C552.9,463.9,552.7,463.8,552.4,463.7L552.4,463.7z"/>
								<path class="st4" d="M555,465c-0.4-0.4-0.9-0.6-1.5-0.9c-0.1,0.8-0.2,1.6-0.3,2.4c0.6,0.2,1.1,0.5,1.4,0.8
									c0.1,0.4,0.1,0.7,0,2.2c-1.3,12.6-3.9,25.1-7.9,37c0.5-1.5,1.2-3.6,1.6-5.2v0c3.6-12.3,5.1-20.2,6.5-32.8
									C555.1,466.4,555.1,465.6,555,465L555,465z"/>
							</g>
							<g>
								<path class="st4" d="M554,455.2c-0.2,2.9-0.5,5.8-0.8,8.7c-0.1,0.8-0.2,1.6-0.3,2.4c-0.3,2.5-0.7,5.1-1.1,7.6
									c-1.2,6.8-1.9,8-5.8,14.6c-1.5,2.4-2.2,1.3-2.5,0c-0.3-1.1-0.2-2.6-0.2-3.5c0.2-8.2,0.1-12.3-0.6-20.5
									c-1.3-10.3-5.2-5.5-8.8-0.9l0.3,2l2.8-3.5c2.7-3.2,4.5-0.6,4.9,3.6c0.9,8.6,0.7,17.6,0.6,20.5c-0.1,7.5,1.9,6,2.5,5.4
									c0.3-0.4,1.4-1.8,4.3-7.3c1.2-2.7,2-5.5,2.9-10.2c0.4-2.5,0.8-5.1,1.1-7.6c0.1-0.8,0.2-1.6,0.3-2.4c0.3-2.9,0.6-5.8,0.9-8.7
									C554.3,455.3,554.2,455.3,554,455.2L554,455.2z"/>
								<polygon class="st4" points="532.8,464.8 530.5,467.4 530.8,469.4 533.1,466.8 								"/>
							</g>
							<g>
								<path class="st4" d="M498.1,509c-0.3-3.6-1.4-5.2-3.9-5.7c-0.1,0-0.3,0-0.5,0c-2.9,0-3.6,0.8-9,6.6
									c-1.6,1.6-2.8,2.2-4.5,2.2c-3.1-0.2-6.3-0.4-9.5-0.7c-1.1-0.1-3.2-2.3-6.1-6.5c-1.1-1.4-2.1-2-3.9-2.2
									c-10.2-0.6-21-1.1-32.2-1.6c-0.1,0.8-0.2,1.5-0.4,2.3c11.1,0.5,21.9,1,32,1.5c1.4,0.2,3.5,2.3,6.3,6.5c1.1,1.4,2,2,3.6,2.2
									c3.2,0.2,6.4,0.4,9.5,0.6c3.2,0,4.4-1.3,9.2-6.6c1.6-1.6,2.7-2.2,4.3-2.2c0.1,0,0.3,0,0.5,0c3.2,0.6,3.1,2,2.9,12.8
									c0.5,0,1,0.1,1.5,0.1C498.1,514,498.1,512.7,498.1,509L498.1,509z"/>
								<path class="st4" d="M496.4,520.6c-0.5,9-1,13.5-2.5,21.8c-1.2,5-2.1,5.8-13.2,15.2c-4.8,4.5-5.8,7.6-7.5,12.7
									c-1.4,4.3-4.2,11.2-9.2,20c-0.4,0.7-0.7,1.3-0.9,1.7c-0.7,1.7-0.1,2.2,0.6,2.3l3.7,0.5c1.6,0,2.7,0,17.2-11.9
									c1.2-1,2.5-2.2,4.4-4.4c0.1-0.1,0.1-0.2,0.2-0.2c-0.2,0-0.4-0.1-0.7-0.1c-0.1,0.1-0.1,0.2-0.2,0.2c-1.4,1.6-3,3.5-15.3,12.8
									c-1.8,1.3-3.1,2.1-3.8,2c-1.5-0.2-2-0.2-3.3-0.4c-0.7-0.1-1.1-0.1-1.3-0.4c-0.4-0.7-0.2-1.1,0.7-2.9
									c4.2-7.3,7.1-13.2,10.4-23.3c1-2.6,5.5-7.6,13.6-14.8c4.6-4.5,7-6.8,8.4-30.8C497.4,520.7,496.9,520.7,496.4,520.6
									L496.4,520.6z"/>
								<path class="st4" d="M540.8,502.8c0-0.4-0.1-1-0.4-1.2c-0.6-0.6-2.6-0.8-3.8-1c-0.8-0.3-1.1-1.1-1-3.7
									c0.4-10,0.3-18.4-1.5-31.3l-0.3-2c-0.4-2.1-0.9-4.9-1.3-7l-1,1.2c0.4,2.1,0.9,4.9,1.3,7l0.3,2c1.4,10.4,2.1,18.9,1.5,31.2
									c-0.1,3.1,0.2,4,1.3,4.8c1.2,0.2,2.3,0.5,3.4,0.7c0.9,0.3,0.7,1.5,0.7,2.6c0,3.9-3.4,11.3-15.6,25.2c-1.6,2-2.8,3.7-4.4,6.6
									c-3.8,7.4-8.1,14.5-12.7,21.3c-2.6,3.8-3.4,4.3-9.1,8.4c-2.2,1.7-3.9,3.4-6.3,6.4c-0.6,0.8-1.3,1.6-1.9,2.4
									c0.2,0,0.5,0.1,0.7,0.1c0.6-0.8,1.3-1.6,1.9-2.4c1.6-2,4.8-4.7,9.4-8.2c2.2-1.8,3.8-3.6,6-6.6c4.6-6.8,8.9-13.9,12.7-21.3
									c3.9-7.3,10.1-12.8,14.8-19.5c0.5-0.8,1.8-2.9,3.2-6C539.6,510.7,541.2,506,540.8,502.8L540.8,502.8z"/>
							</g>
							<path class="st4" d="M502.9,322.8c-0.3-0.6-0.7-1.1-1-1.7c-0.3,0-0.6-0.1-0.9-0.1c0.3,0.6,0.7,1.1,1,1.7
								c1.8,3.2,2.3,5.1,2,6.8c-2.4,6.3-2.5,6.3-4.1,6.2c-0.3,0-0.6-0.1-0.8-0.1c-2.2-0.2-4.5-0.4-6.9-0.7
								c-6.3-1.5-11.4-11.2-10.1-15.3c1-2.5,1.9-3.7,3-3.7c1.4,0.1,2.8,0.3,4.1,0.4c4.4,0.4,8.3,0.9,11.7,1.3
								c-0.4-0.6-0.8-1.3-1.2-1.9c-3.4-0.4-7.3-0.9-11.6-1.3c-1.3-0.1-2.7-0.3-4.1-0.4c-1.4,0-2,0.3-2.5,1.5
								c-1.3,3.4-2.2,5.8,0.9,11.5c3,5.6,7,9.3,10.7,9.9c2.4,0.2,4.7,0.4,6.9,0.7c0.3,0,0.6,0.1,0.9,0.1c1.2,0.1,1.8-0.2,2.3-1.2
								C506.2,330,506.5,329.3,502.9,322.8L502.9,322.8z"/>
							<path class="st7" d="M383.7,407.6c-5-0.1-10.1-0.2-15.1-0.3c-0.7,0-1.4,0-2.1,0c-5.5-0.1-10.9-0.2-16.4-0.3
								c0,0.8,0,1.6,0,2.4c5.3,0.1,10.6,0.1,15.8,0.2c0.8,0,1.5,0,2.3,0c5.2,0.1,10.4,0.2,15.6,0.3c5.8,0.8,7.4,7.2,4.1,11.2
								c-6.8,7.4-11.1,11.2-12.8,11.2c-5.2-0.1-10.4-0.2-15.7-0.3c0,0.8,0,1.6,0,2.4c5.2,0.1,10.5,0.2,15.7,0.3
								c2.4-0.1,3.9-0.7,5.7-2.5c7.1-7.7,10.7-12.6,10.9-14.8C391.6,417.1,392.2,408.8,383.7,407.6z"/>
							<path class="st4" d="M458.5,362.3c0-0.1-0.5-5.5-5.4-5.9c-4.4-0.2-8.9-0.5-13.5-0.7c-1,0-1.6,0.2-2.4,0.9
								c-4.8,4.7-7.1,7.9-6.9,9.6c0.7,6,1.4,12.1,1.9,18.3c0.6,0,1.3,0,1.9,0.1c-0.5-6.2-1.1-12.3-1.9-18.3
								c-0.1-1.1,0.1-1.7,0.7-2.3c4.2-4.1,6.6-6.1,7.1-6.1c4.6,0.2,9.1,0.4,13.5,0.7c2.6,0.5,3.8,4,2.3,5.5c-3.7,3.3-5.9,5-6.4,5
								c-4.9-0.2-9.9-0.5-14.9-0.7c0.1,0.7,0.2,1.5,0.3,2.2c5.1,0.2,10.1,0.4,15,0.7c0.9,0,1.5-0.2,2.2-0.7
								C458.5,364.8,458.7,364.7,458.5,362.3L458.5,362.3z"/>
							<path class="st7" d="M401.6,513.2c-6.2-0.2-12.5-0.4-18.8-0.5c-0.9,0-1.8,0-2.8-0.1c-5.1-0.1-10.1-0.2-15.2-0.3
								c0,0.8-0.1,1.5-0.1,2.2c5.7,0.1,11.4,0.2,17.1,0.4c0.9,0,1.8,0,2.7,0.1c5.6,0.1,11.2,0.3,16.8,0.5c8.2,0.5,10.6,8.6,8.1,15.6
								c-0.8,2.2-2.4,4.5-4,6.1l-3.4,3.1l-1.6,1.5c-9.3,8.7-9.5,8.9-13.8,9c-4.9-0.1-9.8-0.3-14.7-0.4c-0.1,0.7-0.1,1.3-0.2,2
								c4.9,0.1,9.7,0.2,14.6,0.4c3.6-0.1,5.8-1.1,9-3.8c1.6-1.5,3.7-3.4,5.2-4.9l1.9-1.7c8.5-6.9,9.5-12.6,9.5-12.6
								C412,529.1,415.2,514.3,401.6,513.2L401.6,513.2z"/>
							<path class="st7" d="M356.1,619.2c-0.6,0-6.3-0.5-6.5-9.1c0.2-5.1,0.4-10.7,0.5-16.7c-0.5,0-0.9,0-1.4,0
								c-0.1,6-0.2,11.6-0.3,16.7c0.5,9.8,6.7,10.3,7.4,10.3c0.5,0,1.1,0,1.6,0c0.1-0.4,0.2-0.8,0.2-1.2
								C357.2,619.2,356.6,619.2,356.1,619.2L356.1,619.2z"/>
							<path class="st3" d="M358.9,619.2c-0.1,0.4-0.2,0.8-0.3,1.2c4.6,0.1,9.1,0.2,13.5,0.4c0.2-0.4,0.4-0.8,0.6-1.2
								C368.2,619.5,363.6,619.3,358.9,619.2z"/>
							<path class="st3" d="M230.8,426.8c-1.7,0-3.3,0.1-4.9,0.2c-0.6,0-1.2,0-1.8,0.1c-4.8,0.2-9.3,0.3-13.7,0.5c0,0.8,0,1.6,0,2.4
								l0,0c4.4-0.2,8.9-0.4,13.7-0.5c0.6,0,1.2,0,1.8-0.1c1.6,0,3.2-0.1,4.9-0.2c9-0.3,18.4-0.5,28-0.7l0,0c0-0.8,0-1.6,0-2.4
								C249.2,426.3,239.8,426.5,230.8,426.8z"/>
							<path class="st7" d="M264.5,426c0,0.8,0,1.6,0,2.4l0,0c5.4-0.1,10.9-0.1,16.4-0.2l0,0c0-0.8,0-1.6,0-2.4
								C275.3,425.9,269.9,425.9,264.5,426L264.5,426z"/>
							<path class="st7" d="M228.7,321.8c-0.3,0.6-0.6,1.3-0.9,1.9c2.9-0.1,5.8-0.3,8.9-0.4c0.3-0.6,0.6-1.3,0.8-1.9
								C234.5,321.6,231.5,321.7,228.7,321.8L228.7,321.8z"/>
							<path class="st7" d="M281.6,485c-0.1-0.8-0.1-1.5-0.2-2.3c-0.3-3.4-0.5-6.8-0.7-10.2c-0.6-7-4.3-10.6-10.2-10.9
								c-1.8,0-3.7,0-5.5,0.1c0,0.8,0.1,1.6,0.1,2.4c1.8,0,3.6,0,5.5-0.1c4.4,0.1,7.5,2.7,8,8.6c0.2,3.4,0.5,6.8,0.7,10.2
								c0.1,0.8,0.1,1.5,0.2,2.3c0.3,3.4,0.6,6.7,0.9,10.1c0.7,0,1.3,0,2,0C282.2,491.7,281.9,488.4,281.6,485L281.6,485z"/>
							<path class="st3" d="M331.2,314.2c-0.1,0.6-0.1,1.2-0.2,1.9c2.6,0,5.3,0,7.9,0.1c0-0.6,0.1-1.2,0.1-1.9
								C336.5,314.2,333.8,314.2,331.2,314.2L331.2,314.2z"/>
							<path class="st7" d="M322.2,314.1c-0.1,0.6-0.2,1.2-0.2,1.9c2.3,0,4.6,0,6.8,0c0.1-0.6,0.1-1.2,0.2-1.9
								C326.7,314.2,324.4,314.2,322.2,314.1z"/>
							<path class="st7" d="M407.5,338.2c-3.2-0.1-6.5-0.2-9.8-0.3c0.1,0.7,0.2,1.4,0.2,2.1c3.3,0.1,6.6,0.2,9.9,0.3
								C407.7,339.6,407.6,338.9,407.5,338.2L407.5,338.2z"/>
							<path class="st7" d="M416.5,338.6c-1.7-0.1-3.4-0.1-5.1-0.2c0.1,0.7,0.2,1.4,0.3,2.1c1.7,0.1,3.4,0.1,5.1,0.2
								C416.7,339.9,416.6,339.2,416.5,338.6z"/>
							<path class="st4" d="M434.4,387.6c-0.6,0-1.3,0-1.9-0.1c0.2,2.8,0.4,5.6,0.5,8.5c0.6,0,1.3,0,2,0.1
								C434.8,393.3,434.6,390.4,434.4,387.6z"/>
							<path class="st7" d="M435.1,399.5c-0.6,0-1.3-0.1-2-0.1c0.4,8.8,0.6,17.7,0.6,26.8c0.7,0,1.3,0.1,2,0.1
								C435.8,417.2,435.6,408.2,435.1,399.5L435.1,399.5z"/>
							<path class="st7" d="M451.9,508.6c-0.3,1.5-0.7,2.9-1,4.4c-0.2,1-0.5,2.1-0.7,3.1c0.6,0,1.1,0.1,1.7,0.1
								c0.3-1,0.5-2.1,0.8-3.1c0.4-1.5,0.7-2.9,1-4.4C453,508.7,452.4,508.7,451.9,508.6L451.9,508.6z"/>
							<path class="st7" d="M515.7,386.6c-0.2,0-0.5-0.1-0.7-0.1c-0.2,0-0.4,0-0.6-0.1c0.4,2.2,0.8,4.5,1.2,6.8c0.2,0,0.4,0,0.6,0.1
								c0.2,0,0.5,0.1,0.7,0.1C516.5,391.1,516.1,388.8,515.7,386.6L515.7,386.6z"/>
							<path class="st4" d="M502.8,316.4c-0.7-0.1-1.4-0.2-2.1-0.3c0.4,0.6,0.8,1.3,1.2,1.9c0.8,0.1,1.5,0.2,2.2,0.3
								C503.7,317.6,503.3,317,502.8,316.4L502.8,316.4z"/>
							<path class="st4" d="M550.3,389.3c0,0-0.1-0.1-0.2-0.1c0.5,2.1,1.1,4.3,1.5,6.4c0.1,0,0.1,0.1,0.2,0.1
								C551.3,393.6,550.8,391.5,550.3,389.3L550.3,389.3z"/>
							<path class="st7" d="M544.3,369.4c-0.1-0.1-0.2-0.3-0.4-0.5c-0.1,0-0.1-0.1-0.2-0.1c-0.1-0.1-0.2-0.1-0.3-0.2
								c0.3,0.7,0.5,1.5,0.8,2.2c0.1,0.1,0.2,0.1,0.3,0.2c0.1,0,0.1,0.1,0.2,0.1c0.2,0.2,0.3,0.3,0.4,0.5
								C544.9,370.9,544.6,370.1,544.3,369.4L544.3,369.4z"/>
							<path class="st3" d="M521.7,548.7c-0.4,0-0.6,0.1-1.7,1.2c-3.9,4.1-4.9,5-8.5,8.5l-0.7,1.5c4.2-4,5-4.9,8.5-8.4
								c0.6-0.6,0.8-0.8,1.1-0.8c0.3,0.4-0.3,1.8-1.8,4.2c-2.6,3.9-5.3,7.8-8.2,11.5c-0.9,1.1-1.4,1.7-2.2,2.5
								c-9.1,8.8-9.8,8.9-10.2,9c-0.6-0.2-1.4-0.3-2.1-0.5c-0.5,0.6-1,1.2-1.5,1.8c0.8,0.2,1.5,0.3,2.3,0.5c0.5-0.1,1.1-0.5,2.2-1.5
								c9-7.9,10.1-9.4,11.9-11.7c2.9-3.8,5.6-7.6,8.2-11.5C521.2,551.5,522.2,549.3,521.7,548.7L521.7,548.7z"/>
							<path class="st7" d="M490.7,576.5c-0.2,0-0.4-0.1-0.7-0.1c-0.5-0.1-1-0.1-1.5-0.2c-0.5,0.6-1,1.2-1.5,1.8
								c0.5,0.1,1,0.1,1.5,0.2c0.2,0,0.4,0.1,0.7,0.1c1.7,0.3,3.3,0.6,4.7,0.8c0.5-0.6,1-1.2,1.5-1.8
								C494,577.1,492.4,576.8,490.7,576.5L490.7,576.5z"/>
							<path class="st7" d="M557.1,434.7c-0.1-0.3-0.4-0.6-0.9-0.9c-0.8-0.1-1.4,6.9-1.6,13c0.1,0,0.2,0.1,0.3,0.1
								c0.2-6.2,0.7-10.2,1.2-10.7c0,0,0.1,0,0.1,0c0.5,0.3,0.8,0.6,0.9,1C557.1,436.3,557.1,435.5,557.1,434.7L557.1,434.7z"/>
							<path class="st7" d="M499.9,350.7c-1.8-0.2-3.5-0.3-5.4-0.5c0.2,0.7,0.5,1.4,0.7,2.2c1.8,0.2,3.6,0.3,5.4,0.5
								C500.4,352.1,500.1,351.4,499.9,350.7z"/>
							<g>
								<path class="st4" d="M534.3,349.1c-0.2-0.1-0.5-0.2-0.7-0.3c-0.1-0.1-0.2-0.2-0.6-0.8c-1.1-1.8-1.7-2.9-1.9-3.2
									c-1.9-3.8-4-7.5-6.1-11.2c-0.5-0.8-0.6-1-0.7-1.3c-1-3-2.6-5.6-3.9-8.5c0.3,0.2,0.5,0.4,0.6,0.5l-1.4-2
									c-0.1-0.2-0.3-0.4-0.6-0.5c0,0.1,0.1,0.2,0.2,0.3c2.1,3.6,3.3,7.7,5.4,11.3c2.1,3.7,4.2,7.4,6.1,11.2
									c0.4,0.8,0.7,1.4,1.1,2.1c1.5,2.6,2.4,4,2.7,4.2c0.2,0.1,0.5,0.2,0.7,0.3C535,350.5,534.6,349.8,534.3,349.1L534.3,349.1z"
									/>
								<path class="st4" d="M532.1,343.8c-0.4-0.7-0.5-1.1-0.7-1.4c-1.3-3.4-1.4-3.6-3.5-7.4l-0.3-0.5l-1-1.7
									c2.3,4,2.8,5.2,3.8,7.9c0.1,0.2,0.4,1,1.4,2.9c0.3,0.6,0.7,1.3,1,2c0.1,0,0.2,0.1,0.2,0.1
									C532.8,345.2,532.4,344.5,532.1,343.8L532.1,343.8z"/>
							</g>
							<path class="st7" d="M536.1,350.2c-0.2-0.3-0.6-0.5-1.2-0.8c0.3,0.7,0.7,1.4,1,2.1c0.5,0.3,0.9,0.5,1.2,0.8
								C536.8,351.7,536.4,350.9,536.1,350.2L536.1,350.2z"/>
							<path class="st7" d="M541.1,519.9c-0.3,0.1-1,1.5-2.3,4.5c-0.8,1.9-1.7,3.8-2.6,5.7c-0.6,1.2-0.9,1.9-1.3,2.9
								c-1.6,3.8-2.5,5.8-2.5,5.8c0.1,0.1,0.1,0.3,0.2,0.4c0.4-0.7,0.8-1.4,1.1-2.1c0-0.1-0.1-0.3-0.2-0.4c0-0.1,0-0.2,0.4-1.1
								c0.8-1.8,1.5-3.6,2.4-5.3c0.9-1.9,1.8-3.8,2.6-5.7c0.9-2.1,1.1-2.3,1.3-2.4c0,0,0,0.1,0.1,0.2c-0.1,0.5-0.4,1.3-1,2.6
								c-1.2,2.7-2.4,5.3-3.7,7.9c0,0,0,0.1,0.1,0.1c1.3-2.6,2.5-5.2,3.7-7.9C540.5,522.2,541.2,520.5,541.1,519.9
								C541.2,520,541.1,519.9,541.1,519.9L541.1,519.9z"/>
							<path class="st7" d="M487,428.5c-0.6,0-1.3-0.1-1.9-0.1c0,0.8,0,1.6,0,2.4c0.6,0,1.3,0.1,1.9,0.1c5.9,1.1,5.8,8.7,5.7,9
								c-0.2,6.3-0.6,12.6-1.2,18.8c0.5,0,1.1,0.1,1.6,0.1c0.6-6.2,1-12.5,1.2-18.8C494.4,439,494.4,429.9,487,428.5L487,428.5z"/>
							<path class="st7" d="M474.6,427.7c0,0.8,0,1.6,0,2.4c2.7,0.2,5.4,0.3,8,0.5c0-0.8,0-1.6,0-2.4
								C480,428,477.3,427.8,474.6,427.7z"/>
							<path class="st7" d="M549.3,435.4c-1.1-0.2-2.3-0.5-3.6-0.8c-0.8-0.3-1.3-1.1-1.9-3.1l-0.6-2.2l-0.6-1.9
								c-1.8-5.6-1.9-5.8-3-6.1c-1-0.1-1.9-0.3-3-0.4c-1.4,0.2-2.2,2-2.2,5.5c0,0.7,0,1.4,0.1,2.1c0.1,1.3,0.2,2.2,0.5,3.3
								c0.5,1.7,1.1,4.1,1.5,5.8l0.5,2.1c0.4,1.6,0.9,3.8,1.2,5.5l0.8-1.2c-0.4-1.7-0.9-3.8-1.2-5.5l-0.5-2.1
								c-1.2-4.7-1.8-7.3-1.8-7.7c0-0.7,0-1.4-0.1-2.1c0-2.1,0.4-3.2,1.3-3.3c1,0.2,2,0.3,3,0.4c0.4,0.1,0.7,0.5,1.1,1.4l1.2,3.6
								l0.6,1.9c1.2,4.1,1.7,5.9,3.2,6.4c1.3,0.2,2.5,0.5,3.6,0.8C549.3,437.1,549.3,436.3,549.3,435.4L549.3,435.4z"/>
							<path class="st7" d="M502.6,542.7c5.3-22.8,2.6-23.4,1.3-23.7c-1.9-0.2-3.9-0.4-5.9-0.6c-0.5,0-1-0.1-1.5-0.1
								c-0.6,0-1.2-0.1-1.8-0.2c-0.2,0.7-0.5,1.5-0.8,2.2c0.9,0.1,1.7,0.2,2.5,0.2c0.5,0,1,0.1,1.5,0.1c1.8,0.2,3.5,0.3,5.2,0.5
								c1,0.2,1.4,1,1.3,2.6c-0.9,9.6-2,14.8-3.2,19.8c-0.2,0.7-0.3,1.7-0.4,2.4c-0.2,3.1,1.1,3.5,1.8,3.7c0.6,0.1,1.2,0.2,1.8,0.2
								c0.4-0.7,0.8-1.3,1.2-2c-0.6-0.1-1.2-0.2-1.8-0.2C502.3,547.3,501.9,545.9,502.6,542.7L502.6,542.7z"/>
							<path class="st7" d="M490.3,517.8c-0.2,0.7-0.5,1.5-0.8,2.2c1.1,0.1,2.1,0.2,3.2,0.3c0.3-0.7,0.5-1.5,0.8-2.2
								C492.5,518,491.4,517.9,490.3,517.8L490.3,517.8z"/>
							<path class="st3" d="M508.8,317.3c-1.3-0.2-2.8-0.5-4.4-0.7c0.4,0.6,0.8,1.3,1.3,1.9c1.6,0.2,3.1,0.5,4.4,0.7
								C509.7,318.6,509.2,318,508.8,317.3L508.8,317.3z"/>
							<path class="st3" d="M349,577.7c0,0.2,0,0.4,0,0.6c-0.1,3.4-0.1,6.7-0.2,9.8c0.5,0,1,0,1.4,0c0.1-3.2,0.2-6.4,0.3-9.8
								c0-0.2,0-0.4,0-0.6C350,577.7,349.5,577.7,349,577.7L349,577.7z"/>
							<path class="st3" d="M276.8,310.9c-1.2,3.3-2.2,6.7-3.3,10.2c0.6,0,1.1,0,1.7,0c1-3.5,2.1-6.9,3.2-10.2
								C277.9,310.9,277.3,310.9,276.8,310.9z"/>
							<path class="st3" d="M532.5,539.4c0,0.1,0,0.1-0.1,0.2l0.3-0.6l0.8-1.5c0,0,0-0.1,0.1-0.2C533.2,538,532.8,538.7,532.5,539.4
								L532.5,539.4z"/>
							<path class="st4" d="M268.2,301.6c-0.3,0.6-0.5,1.2-0.8,1.8c3.4-0.1,6.9-0.2,10.5-0.2c0.2-0.6,0.5-1.2,0.7-1.8
								C275,301.5,271.6,301.5,268.2,301.6L268.2,301.6z"/>
						</g>
						<circle class="st4" cx="357.8" cy="466.3" r="7.6"/>
						
							<ellipse transform="matrix(0.8112 -0.5847 0.5847 0.8112 -216.2038 336.553)" class="st4" cx="413.2" cy="503.1" rx="7.6" ry="7.6"/>
						<circle class="st4" cx="416.8" cy="387.2" r="7.6"/>
						<circle class="st3" cx="350.2" cy="513.1" r="7.6"/>
						<path class="st3" d="M258.7,302.8c0,3-2.5,5.5-5.5,5.5s-5.5-2.5-5.5-5.5s2.5-5.5,5.5-5.5S258.7,299.8,258.7,302.8z"/>
						
							<ellipse transform="matrix(0.6075 -0.7943 0.7943 0.6075 -298.2169 427.1317)" class="st7" cx="283.1" cy="515.3" rx="7.6" ry="7.6"/>
						
							<ellipse transform="matrix(0.7071 -0.7071 0.7071 0.7071 -184.4522 437.2395)" class="st7" cx="435.6" cy="441.3" rx="7.6" ry="7.6"/>
						<circle class="st4" cx="468" cy="409.5" r="7.6"/>
						<circle class="st3" cx="297.5" cy="427.7" r="7.6"/>
						<circle class="st4" cx="260.8" cy="450.4" r="7.6"/>
						<rect x="338.3" y="341.3" class="st7" width="17" height="1.7"/>
						<g>
							<circle class="st7" cx="1586.8" cy="218.4" r="5.5"/>
							<circle class="st4" cx="1358.8" cy="323" r="5.5"/>
							<circle class="st4" cx="1493.4" cy="256.6" r="5.5"/>
							<circle class="st4" cx="1534.2" cy="273.1" r="5.5"/>
							<circle class="st4" cx="1487.9" cy="323" r="5.5"/>
							<circle class="st4" cx="1491.2" cy="410.1" r="7.6"/>
							<circle class="st3" cx="1560.8" cy="381.6" r="7.6"/>
							<circle class="st3" cx="1536.9" cy="323" r="5.5"/>
							<circle class="st3" cx="1444.9" cy="410.1" r="7.6"/>
							<circle class="st3" cx="1581.3" cy="339.1" r="5.5"/>
							<circle class="st7" cx="1491.3" cy="470.7" r="5.5"/>
							<circle class="st3" cx="1577.6" cy="271.1" r="7.6"/>
							<circle class="st3" cx="1493.4" cy="198.9" r="7.6"/>
							
								<ellipse transform="matrix(0.7261 -0.6876 0.6876 0.7261 204.2337 1071.3738)" class="st3" cx="1446.9" cy="279.3" rx="7.6" ry="7.6"/>
							<rect x="1490.4" y="364.6" class="st3" width="1.7" height="24.9"/>
							<rect x="1561.9" y="307.3" class="st4" width="1.7" height="21.1"/>
							<rect x="1372.7" y="322.1" class="st3" width="43.8" height="1.7"/>
							<rect x="1580.4" y="348.7" class="st7" width="1.7" height="21.1"/>
							<rect x="1422.5" y="312.4" class="st7" width="1.7" height="21.1"/>
							<rect x="1490.4" y="428.2" class="st7" width="1.7" height="17"/>
							<rect x="1551.3" y="338.2" class="st7" width="17" height="1.7"/>
							<rect x="1492.6" y="215.6" class="st4" width="1.7" height="17"/>
							<rect x="1554.3" y="299.7" class="st3" width="16.8" height="1.7"/>
							<rect x="1506.7" y="322.1" class="st7" width="17" height="1.7"/>
							<rect x="1430.8" y="322.1" class="st4" width="39" height="1.7"/>
							<rect x="1573" y="380.7" class="st3" width="18" height="1.7"/>
							<rect x="1456.1" y="409.3" class="st3" width="11.8" height="1.7"/>
							<rect x="1485.4" y="454.3" class="st3" width="11.8" height="1.7"/>
							<rect x="1576.8" y="293.2" class="st3" width="1.7" height="11.8"/>
							<path class="st7" d="M1639.9,388.6c-6.3,0-12,3.5-14.9,9.1l-6.7,13.2c-2.5,4.9-7.5,8-13,8h-21.2v1.7h21.2
								c6.2,0,11.7-3.4,14.5-8.9l6.7-13.2c2.6-5,7.7-8.2,13.3-8.2h10.6v-1.7H1639.9z"/>
							<path class="st4" d="M1543.9,418.9c-6.4,0-11.6-5.2-11.6-11.6v-13.2c0-6.4,5.2-11.6,11.6-11.6h5.5v-1.7h-5.5
								c-7.3,0-13.3,6-13.3,13.3v13.2c0,7.3,6,13.3,13.3,13.3h33.9v-1.7H1543.9L1543.9,418.9z"/>
							<path class="st7" d="M1548.5,301.4h-2.9c-6.8,0-12.3-5.5-12.3-12.3v-7.6h1.7v7.6c0,5.8,4.7,10.6,10.6,10.6h2.9
								C1548.5,299.7,1548.5,301.4,1548.5,301.4z"/>
							<rect x="1469.8" y="230" class="st7" width="16.8" height="1.7"/>
							<path class="st4" d="M1621.9,229.5h-1.7v-1.7c0-4.7-3.8-8.5-8.5-8.5h-13.5v-1.7h13.5c5.6,0,10.2,4.6,10.2,10.2V229.5z"/>
							<path class="st3" d="M1492.1,357h-1.7v-3.5c0-8.4,6.8-15.2,15.2-15.2h36.8v1.7h-36.8c-7.4,0-13.5,6.1-13.5,13.5V357z"/>
						</g>
						<circle class="st3" cx="1546.2" cy="514.8" r="7.6"/>
						<circle class="st7" cx="1508.1" cy="442.7" r="5.5"/>
						<circle class="st7" cx="1704.5" cy="408.6" r="7.6"/>
						<rect x="1546.3" y="454.7" class="st3" width="1.7" height="23"/>
						<rect x="1523.2" y="441.8" class="st7" width="17" height="1.7"/>
						<circle class="st4" cx="1672.2" cy="472.1" r="7.6"/>
						<circle class="st4" cx="1625.4" cy="498.6" r="5.5"/>
						<rect x="1531.7" y="497.7" class="st3" width="79.7" height="1.7"/>
						<rect x="1546.3" y="434.4" class="st3" width="1.7" height="11.8"/>
						<path class="st4" d="M1520.5,499.4h1.6v-1.7h-1.6c-6.8,0-12.3-5.5-12.3-12.3v-12.8h-1.7v12.8
							C1506.5,493.2,1512.8,499.4,1520.5,499.4z"/>
						<path class="st7" d="M1573,487.3h1.7v-29.6c0-8.7-7.1-15.8-15.8-15.8h-4.9v1.7h4.9c7.8,0,14.1,6.3,14.1,14.1L1573,487.3
							L1573,487.3z"/>
						<path class="st4" d="M1587.8,528.4h23.6v-1.7h-23.6c-7.2,0-13-5.8-13-13v-5.9h-1.7v5.9C1573,521.8,1579.6,528.4,1587.8,528.4z
							"/>
						<rect x="1664.2" y="498.6" class="st4" width="66.8" height="1.7"/>
					</g>
				</g>
			</g>
		</g>
	</g>
</g>
</svg>
