<?xml version="1.0" encoding="utf-8"?>
<!-- Generator: Adobe Illustrator 27.0.0, SVG Export Plug-In . SVG Version: 6.00 Build 0)  -->
<svg version="1.1" id="Layer_2_00000006689239349067502620000001647624552272314009_"
	 xmlns="http://www.w3.org/2000/svg" xmlns:xlink="http://www.w3.org/1999/xlink" x="0px" y="0px" viewBox="0 0 1920 1080"
	 style="enable-background:new 0 0 1920 1080;" xml:space="preserve">
<style type="text/css">
	.st0{fill:#0072C8;}
	.st1{fill:#F6AE2D;}
	.st2{fill:none;}
	.st3{fill:#F4F6F9;}
</style>
<g id="Layer_1-2">
	<g>
		<circle class="st0" cx="960" cy="540" r="47.9"/>
		<g>
			<path class="st1" d="M939.1,523.6c-1.4-0.8-2.7-1.6-4-2.4c-0.8-0.5-1.6-1-2.4-1.5c-0.2-0.1-0.5-0.3-0.7-0.5c-1.1-1-1-2,0.2-2.8
				c1.7-1.1,3.6-1.3,5.5-0.7c2.7,0.8,5.5,1.6,8.2,2.5c0.7,0.2,1.3,0.3,2,0.5c0.8,0.3,1.6,0.2,2.4-0.1c2.2-1,4.4-1.9,6.7-2.9
				c1.9-0.9,3.8-1.7,6-2c2.2-0.3,4.4,0,6.3,1.2c0.5,0.3,1,0.7,1.4,1.2c0.8,0.9,0.7,2-0.2,2.8c-1.9,1.7-4.1,2.9-6.3,4
				c-2.2,1.1-4.3,2.2-6.5,3.4c-0.3,0.2-0.6,0.5-0.8,0.8c-1.5,3.2-3,6.4-4.5,9.6c-1.1,2.2-2.2,4.5-3.4,6.7c-0.8,1.4-2.1,2.2-3.6,2.7
				c-1.4,0.4-2.3-0.5-2.1-1.9c0.6-3.7,1.3-7.3,2-10.9c0.1-0.5,0.2-1,0.3-1.6c-0.5,0.2-0.9,0.3-1.2,0.5c-3.2,1.3-6.3,2.7-9.6,3.5
				c-1.8,0.4-3.6,0.8-5.5,0.6c-0.8-0.1-1.6-0.4-2.4-0.7c-0.4-0.2-0.8-0.6-1-1.1c-1.2-2.7-2.4-5.3-3.5-8c-0.7-1.7,0.2-3,2-3.1
				c0.7-0.1,1.3,0,1.8,0.4c1.1,0.8,2.2,1.5,3.3,2.3c0.6,0.4,1.1,1.1,1.8,1.2c0.6,0.1,1.3-0.4,1.9-0.7
				C935,525.4,937,524.5,939.1,523.6L939.1,523.6z M924.2,525.1c0.1,0.3,0.1,0.4,0.2,0.6c1,2.2,1.9,4.4,2.9,6.6
				c0.7,1.5,0.7,1.5,2.4,1.5c3.2,0,6.2-0.7,9.1-1.9c3-1.2,6-2.6,9-3.8c0.2-0.1,0.4-0.1,0.6-0.2c-1,5.3-1.9,10.4-2.9,15.6
				c0.1,0,0.1,0,0.2,0c1-1,1.9-2.1,2.5-3.4c2.3-4.9,4.5-9.8,6.8-14.7c0.3-0.6,0.7-1.1,1.3-1.3c0.9-0.3,1.7-0.8,2.6-1.2
				c3.3-1.5,6.5-3.1,9.5-5.3c0.2-0.1,0.3-0.2,0.5-0.4c-2.5-1.5-5.1-2-7.7-0.8c-4.4,1.9-8.8,3.9-13.2,5.8c-5.4,2.3-10.7,4.7-16.1,7
				c-0.4,0.2-0.8,0.2-1.2,0c-0.8-0.5-1.6-0.9-2.4-1.4c-0.9-0.6-1.7-1.3-2.6-1.9C925.2,525.6,924.8,525.4,924.2,525.1L924.2,525.1z
				 M934.4,517.7c0,0.1,0,0.1,0,0.2c0.1,0.1,0.1,0.1,0.2,0.2c2.3,1.4,4.6,2.8,6.8,4.2c0.1,0.1,0.3,0.1,0.3,0
				c1.4-0.6,2.7-1.2,4.1-1.8c-1.5-0.5-2.9-1-4.4-1.5c-1.4-0.4-2.8-0.8-4.2-1.1C936.3,517.8,935.4,517.8,934.4,517.7L934.4,517.7z"/>
			<g>
				<path class="st2" d="M981.8,528.4c0,5.4,0,23.4,0,28.8c0,1.3-0.3,1.6-1.5,1.6c-1.3,0-2.5,0-3.8,0c-1.9,0-9.9,0.6-11.4,1.7
					c-0.2,0.1-0.3,0.2-0.4,0.4h19.3v-33.5h-2.1C981.8,527.4,981.8,528.4,981.8,528.4z"/>
				<path class="st2" d="M979.7,556.6v-31.4c-1.1,0-2.1,0-3.2,0c-2.1,0-10.2,0.7-11.9,2c-0.5,0.3-0.7,0.7-0.6,1.3
					c0,5.5,0,23.7,0,29.2c0,0.2,0,0.5,0,0.6c1.5-0.5,3-1.2,4.5-1.4C970.1,556.6,978,556.7,979.7,556.6L979.7,556.6z"/>
				<path class="st3" d="M984.5,525.3c-0.9,0-1.8,0-2.7,0c0-0.3,0-0.5,0-0.7c0-1.1-0.3-1.4-1.5-1.4c-0.6,0-1.3,0-1.9,0
					c-3.3-0.2-12.7,0.4-15.5,2.8l-0.6-0.5c-0.7,0.4-1.4,0.7-2.1,1.1c0.5,0.2,0.8,0.4,1.1,0.7c0.3,0.2,0.6,0.7,0.6,1
					c0,5.7,0,24,0,29.8c0,0.1,0,0.3,0,0.6c-2.8-2-12.3-2.1-15.7-1.9v-9.2c-0.3,0.1-0.6,0.2-0.9,0.3c-0.5,0.1-0.9,0.1-1.2,0
					c0,3.9,0,7.3,0,9.2c0,1.6,0.2,1.8,1.8,1.8c1.7,0,3.4,0,5,0.2c1.5,0.2,9.1,0.8,10.5,1.9H942v-26c-0.7,0.3-1.4,0.6-2.1,0.8
					c0,9,0,20.6,0,25.9c0,1,0.3,1.4,1.4,1.4c4.1,0,14.5,0,18.5,0h3h1c4.7,0,15.8,0,20.5,0c1.3,0,1.5-0.3,1.5-1.6v-34.6
					C985.9,525.6,985.6,525.3,984.5,525.3L984.5,525.3z M964,557.8c0-5.5,0-23.7,0-29.2c0-0.6,0.2-1,0.6-1.3c1.7-1.2,9.8-1.9,11.9-2
					c1,0,2.1,0,3.2,0v31.4c-1.7,0.1-9.6,0-11.2,0.3c-1.5,0.3-3,1-4.5,1.5C964,558.2,964,558,964,557.8L964,557.8z M983.9,560.8
					h-19.3c0.2-0.2,0.3-0.3,0.4-0.4c1.5-1.1,9.5-1.7,11.4-1.7c1.2,0,2.5,0,3.8,0c1.3,0,1.5-0.3,1.5-1.6c0-5.4,0-23.4,0-28.8v-1h2.1
					V560.8L983.9,560.8z"/>
			</g>
		</g>
	</g>
</g>
</svg>
