<?xml version="1.0" encoding="utf-8"?>
<!-- Generator: Adobe Illustrator 27.0.0, SVG Export Plug-In . SVG Version: 6.00 Build 0)  -->
<svg version="1.1" id="Layer_2_00000118391055170641158960000001670967823433216664_"
	 xmlns="http://www.w3.org/2000/svg" xmlns:xlink="http://www.w3.org/1999/xlink" x="0px" y="0px" viewBox="0 0 1920 1080"
	 style="enable-background:new 0 0 1920 1080;" xml:space="preserve">
<style type="text/css">
	.st0{opacity:0.8;fill:#003D87;enable-background:new    ;}
	.st1{fill:#F4F6F9;stroke:#F4F6F9;stroke-linecap:round;stroke-linejoin:round;}
	.st2{fill:#F6AE2D;stroke:#F6AE2D;stroke-linecap:round;stroke-linejoin:round;}
</style>
<g id="Layer_1-2">
	<g>
		<circle class="st0" cx="960" cy="540" r="47.9"/>
		<g>
			<path class="st1" d="M1001.9,531.3c-1.3-1.7-2.6-3.5-4-5.2c-0.6-0.8-1.2-1.7-1.9-2.5c-0.1-0.1-5.3-7-7.3-9.7
				c-0.3-0.4-0.6-0.5-1.1-0.6c-1.2-0.1-2.5-0.1-3.7-0.2c-5.9-0.4-11.9-0.8-17.8-1.1c-0.6,0-1.1,0.1-1.4,0.7c-0.3,0.5-0.2,1,0.2,1.5
				c1,1.2,1.9,2.5,2.8,3.7c0.2,0.3,0.2,0.5,0.1,0.7c-0.4,0.7-0.7,1.3-1.1,2c-0.2,0.3-1.8,3.3-2,3.6c-0.2,0.5-0.5,0.6-1,0.6
				c-10.7,0-21.3,0-32,0c-0.5,0-1,0-1.2,0.5c-0.2,0.3-0.2,0.7-0.2,1c0,11.5,0,23.1,0,34.6c0,1.6,0.8,2.4,2.4,2.4h36.6
				c5.8,0,11.7,0,17.5,0c1.8,0,2.5-0.7,2.5-2.5c0-0.8,0-1.6,0-2.5c0-5.1,0-10.2,0-15.2c0-0.3,0-0.5,0.3-0.6c0.7-0.3,1.2-0.8,1.6-1.5
				c1.4-2.6,2.8-5.1,4.1-7.7c0.1-0.2,0.3-0.3,0.4-0.3c0.5,0,1.1,0.1,1.6,0.1c0,0.1,0,0.1,0,0.2c0.1,2.6,0.1,5.3,0.2,7.9
				c0,0.1-0.1,0.3-0.3,0.4c-0.8,0.5-1.3,1-1.3,2c0,0.3-0.1,0.7-0.2,1c-0.2,0.7-0.3,1.3-0.5,2c0.7,0,0.7,0,1,1c1.2,0,2.3,0,3.5,0
				c0.8,0,1.1-0.5,0.8-1.3c-0.3-1-0.5-2-0.8-3c-0.1-0.6-0.3-1-0.8-1.3c-0.3-0.2-0.4-0.4-0.4-0.8c0-1.6-0.1-3.2-0.1-4.8
				c0-1.1,0-2.1,0-3.2c0.7,0,1.4,0.1,2.1,0.1c0.6,0,1-0.2,1.2-0.7C1002.3,532.2,1002.3,531.8,1001.9,531.3L1001.9,531.3z
				 M931.6,555.2V529c0.2,0,0.3,0,0.5,0c10.2,0,20.5,0,30.7,0c0.4,0,0.6,0.1,0.7,0.5c0.5,1.5,1.5,2.8,2.6,3.9
				c5.1,5.1,11.3,8.4,18.4,9.7c0.6,0.1,1.1,0.1,1.7,0.2c0.5,0,1.1,0,1.7,0v12C988.1,555.2,931.6,555.2,931.6,555.2z M988.1,556.5
				v1.5h-0.6c-7.4,0-14.7,0-22.1,0c-0.5,0-0.9,0-1,0.6c0,0.1-0.3,0.3-0.5,0.3c-1.4,0-2.8,0-4.3,0c-1.3,0-2.6,0-3.9,0
				c-0.3,0-0.5,0-0.6-0.4c-0.1-0.5-0.4-0.6-0.8-0.6c-1.3,0-2.6,0-3.9,0c-6.1,0-12.1,0-18.2,0h-0.8v-1.5L988.1,556.5L988.1,556.5z
				 M931.6,526.2h32.2c-0.2,0.5-0.4,1-0.6,1.5h-31.6V526.2z M988.1,561.5c0,0.4-0.3,0.6-0.7,0.7c-0.2,0-0.3,0-0.4,0
				c-18.1,0-36.2,0-54.3,0c-0.2,0-0.5,0-0.7-0.1c-0.2-0.1-0.4-0.4-0.5-0.6c0-0.7,0-1.5,0-2.3c0.2,0,0.4,0,0.5,0c7.2,0,14.3,0,21.5,0
				c0.3,0,0.5,0,0.7,0.3c0.3,0.5,0.8,0.6,1.3,0.6c2.8,0,5.7,0,8.5,0c0.5,0,1-0.2,1.2-0.6c0.2-0.3,0.4-0.3,0.7-0.3
				c6.9,0,13.8,0,20.7,0c0.4,0,0.8,0,1.3,0C988.1,560.1,988.1,560.8,988.1,561.5L988.1,561.5z M994,533.4c-1.3,2.4-2.6,4.7-3.8,7.1
				c-0.4,0.8-1,1.2-1.8,1.4c-1.2,0.3-2.4,0.3-3.6,0.1c-7.2-1.3-13.3-4.6-18.3-9.8c-0.8-0.8-1.4-1.7-1.8-2.7
				c-0.4-0.9-0.4-1.8,0.2-2.8c0.6-1,1.6-3,2.2-4.1c0.6-1,1.1-2.1,1.7-3.2c0.1,0.2,0.2,0.3,0.3,0.4c0.9,1.2,1.9,2.5,2.8,3.7
				c2,2.6,4,5.3,6,8c0.3,0.4,0.7,0.6,1.1,0.6c0.2,0,0.4,0,0.6,0c4,0.2,7.9,0.5,11.9,0.8c0.9,0.1,1.7,0.1,2.6,0.2
				C994.2,533.2,994.1,533.3,994,533.4L994,533.4z M998.7,543.5c0.1,1,0.4,1.9,0.6,3h-2.6c0.2-1,0.3-2.1,0.5-3.1
				c0.1-0.3,0.5-0.6,0.8-0.7C998.3,542.8,998.6,543.1,998.7,543.5L998.7,543.5z M998.7,532.1c-0.1,0-0.2-0.1-0.3-0.1
				c-4.7-3.3-9.5-6.6-14.2-9.8c-0.2-0.1-0.3-0.3-0.5-0.2c-0.2,0-0.5,0.2-0.6,0.3c-0.2,0.3,0,0.6,0.3,0.8c0.9,0.6,1.8,1.2,2.7,1.9
				c3.2,2.2,6.5,4.5,9.7,6.7c0.1,0.1,0.2,0.1,0.4,0.3c-1.2-0.1-2.4-0.1-3.5-0.2c-3.9-0.2-7.7-0.5-11.6-0.8c-0.6,0-1.2-0.1-1.9-0.1
				c-0.1,0-0.3-0.1-0.3-0.2c-4.3-5.6-8.5-11.2-12.8-16.8c-0.1-0.1-0.2-0.3-0.4-0.5c0.2,0,0.3,0,0.4,0c5.8,0.4,11.5,0.8,17.2,1.1
				c1.4,0.1,2.7,0.2,4.1,0.2c0.1,0,0.3,0.1,0.3,0.2c4.2,5.5,8.4,11.1,12.6,16.7c0.2,0.2,0.3,0.4,0.5,0.7
				C1000.2,532.1,999.5,532.1,998.7,532.1L998.7,532.1z"/>
			<g>
				<path class="st2" d="M964.5,538.5c-0.2-0.1-0.4,0-0.6,0c-5.9,0-11.9,0-17.8,0c-0.2,0-0.4,0-0.5,0c-0.2,0.2-0.4,0.4-0.4,0.6
					c0,0.2,0.2,0.4,0.4,0.5c0.1,0.1,0.4,0,0.5,0c2.9,0,5.9,0,8.8,0c3,0,6,0,9,0c0.2,0,0.4,0,0.5,0c0.2-0.2,0.4-0.4,0.4-0.6
					C965,538.9,964.7,538.6,964.5,538.5L964.5,538.5z"/>
				<path class="st2" d="M964.5,548.4c-0.2-0.1-0.4,0-0.6,0c-5.9,0-11.9,0-17.8,0c-0.1,0-0.3,0-0.5,0c-0.3,0-0.5,0.2-0.5,0.6
					c0,0.4,0.2,0.5,0.5,0.6c0.1,0,0.3,0,0.4,0c0.1,0,0.2,0,0.2,0c5.9,0,11.8,0,17.6,0h0.2c0.1,0,0.2,0,0.3,0h0l0,0c0,0,0,0,0.1,0
					c0.2-0.2,0.4-0.4,0.4-0.6C965,548.8,964.7,548.5,964.5,548.4z"/>
				<path class="st2" d="M945.8,545.1c0.1,0,0.2,0,0.3,0c4.8,0,9.5,0,14.3,0c0.2,0,0.4,0,0.5,0c0.2-0.1,0.4-0.3,0.5-0.5
					c0-0.2-0.2-0.4-0.4-0.6c-0.1-0.1-0.3-0.1-0.5-0.1c-2.4,0-4.7,0-7.1,0c-2.4,0-4.7,0-7.1,0c-0.2,0-0.3,0-0.5,0
					c-0.3,0-0.5,0.3-0.5,0.6C945.2,544.9,945.4,545.1,945.8,545.1L945.8,545.1z"/>
				<path class="st2" d="M935.9,540.3c0.4,0.5,0.8,0.5,1.2,0c1.4-1.7,2.8-3.3,4.2-5c0.5-0.6,0.5-0.9,0.2-1.2
					c-0.3-0.3-0.6-0.2-1.1,0.4c-1.3,1.5-2.5,3-3.8,4.6c-0.1,0-0.1-0.1-0.1-0.1c-0.4-0.5-0.8-1-1.2-1.5c-0.3-0.4-0.7-0.5-1-0.2
					s-0.3,0.6,0,1C934.8,539,935.4,539.6,935.9,540.3L935.9,540.3z"/>
				<path class="st2" d="M941.5,544.1c-0.1-0.1-0.3-0.2-0.4-0.2l0,0c-0.2,0-0.4,0.1-0.5,0.3c0,0-0.1,0.1-0.1,0.1c0,0,0,0.1-0.1,0.1
					c-0.1,0.2-0.3,0.3-0.4,0.5c-0.4,0.5-0.8,0.9-1.2,1.4c-0.2,0.3-0.5,0.6-0.8,0.9c-0.2,0.2-0.4,0.4-0.5,0.6
					c-0.3,0.4-0.6,0.7-0.9,1.1c0,0,0,0-0.1,0c-0.1,0-0.1,0-0.1-0.1c-0.4-0.5-0.8-1-1.2-1.5c0,0-0.1-0.1-0.1-0.1c0,0,0,0,0,0
					c-0.2-0.3-0.6-0.4-0.9-0.1c-0.3,0.2-0.3,0.6-0.1,0.9c0,0,0,0,0,0c0,0,0,0.1,0.1,0.1c0.3,0.4,0.6,0.8,0.9,1.1
					c0.2,0.2,0.4,0.5,0.6,0.7c0,0.1,0.1,0.1,0.1,0.2c0,0,0,0,0,0.1c0,0,0,0,0,0c0.2,0.2,0.3,0.3,0.5,0.3c0,0,0,0,0,0c0,0,0,0,0,0
					c0,0,0,0,0,0c0,0,0,0,0.1,0c0,0,0,0,0,0c0.1,0,0.2-0.1,0.4-0.2c0.2-0.3,0.5-0.5,0.7-0.8c0.9-1.1,1.8-2.2,2.8-3.2
					c0.3-0.3,0.6-0.7,0.9-1c0,0,0,0,0,0c0,0,0.1-0.1,0.1-0.1c0.2-0.2,0.3-0.4,0.3-0.7C941.7,544.3,941.7,544.2,941.5,544.1
					L941.5,544.1z"/>
				<path class="st2" d="M945.9,535.2c1.5,0,3.8,0,5.4,0c0,0,0.1,0,0.2,0c2.6,0,6.4,0,9,0c0.2,0,0.3,0,0.4,0
					c0.4-0.1,0.6-0.7,0.3-0.9c-0.2-0.1-0.4-0.2-0.7-0.2c-2.7,0-6.3,0-9,0c0,0,0,0,0,0c-1.7,0-4,0-5.7,0c-0.4,0-0.6,0.2-0.6,0.6
					C945.2,535,945.5,535.2,945.9,535.2L945.9,535.2z M951.5,534.5L951.5,534.5C951.5,534.5,951.5,534.5,951.5,534.5
					C951.5,534.5,951.5,534.5,951.5,534.5C951.5,534.5,951.5,534.5,951.5,534.5L951.5,534.5z M951.5,534c0,0.2,0,0.3,0,0.4
					C951.5,534.3,951.5,534.2,951.5,534C951.6,534,951.6,534,951.5,534z M951.5,534.8C951.5,534.8,951.5,534.9,951.5,534.8
					C951.5,534.9,951.5,534.8,951.5,534.8z"/>
			</g>
		</g>
	</g>
</g>
</svg>
