<?xml version="1.0" encoding="utf-8"?>
<!-- Generator: Adobe Illustrator 27.0.0, SVG Export Plug-In . SVG Version: 6.00 Build 0)  -->
<svg version="1.1" id="Layer_2_00000104706425868442020130000011363917882707246486_"
	 xmlns="http://www.w3.org/2000/svg" xmlns:xlink="http://www.w3.org/1999/xlink" x="0px" y="0px" viewBox="0 0 1920 1080"
	 style="enable-background:new 0 0 1920 1080;" xml:space="preserve">
<style type="text/css">
	.st0{fill:#0072C8;}
	.st1{fill:#F4F6F9;}
	.st2{fill:#F6AE2D;}
</style>
<g id="Layer_1-2">
	<g>
		<circle class="st0" cx="960" cy="540" r="47.9"/>
		<g>
			<path class="st1" d="M994.3,555.6c-1.2,0-2.4,0-3.7,0c-2.5,0-5,0-7.5,0c-1.2,0-1.8-0.4-1.8-1.3c0-0.8,0.6-1.3,1.7-1.3
				c2.7,0,5.4,0,8.2,0c0.3,0,0.6,0,1.1,0c-0.2-0.3-0.4-0.5-0.5-0.7c-0.9-1-1.9-2-2.7-3.1c-0.5-0.6-1.1-0.9-1.9-0.9
				c-1.4,0.1-2.9,0-4.3,0c-0.9,0-1.5-0.5-1.5-1.2s0.6-1.3,1.5-1.3c1.3,0,2.7,0,4,0c0.5,0,0.7-0.2,0.7-0.7c0-7.9,0-15.8,0-23.6
				c0-0.5-0.2-0.8-0.7-0.7c-0.1,0-0.3,0-0.4,0c-17.6,0-35.2,0-52.8,0c-0.8,0-1.2,0.4-1.2,1.1c0,7.6,0,15.1,0,22.7c0,0.3,0,0.7,0,1.2
				c1,0,1.9,0,2.8,0c0.7,0,1.4,0,2.1,0c0.8,0,1.4,0.5,1.4,1.2c0,0.7-0.6,1.3-1.4,1.3c-1.6,0-3.1,0-4.7,0c-0.6,0-1,0.2-1.4,0.6
				c-1,1.1-2,2.2-3,3.3c-0.2,0.2-0.3,0.4-0.6,0.7c0.5,0,0.8,0,1,0c2.8,0,5.6,0,8.4,0c0.9,0,1.5,0.5,1.5,1.2c0.1,0.8-0.5,1.4-1.5,1.4
				c-3.1,0-6.3,0-9.4,0c-0.4,0-0.8,0-1.2,0c-0.3,0-0.9,0.1-0.9,0.3c-0.2,0.6,0,1.2,0.6,1.5c0.3,0.2,0.7,0.2,1.1,0.2
				c3.2,0,6.5,0,9.7,0c0.5,0,1.1,0.3,1.4,0.7c0.6,0.8-0.1,1.8-1.1,1.8c-3.6,0-7.1,0.1-10.7,0c-2.1-0.1-3.5-1.7-3.6-3.8
				c0-0.5-0.1-1,0-1.4c0.1-0.5,0.3-1.1,0.7-1.5c1.9-2.2,3.9-4.3,5.8-6.5c0.2-0.2,0.3-0.7,0.3-1.1c0-9.5,0-19,0-28.4c0-4.2,2.7-7,7-7
				c15.5,0,30.9,0,46.4,0c4.1,0,6.9,2.8,6.9,6.9c0,9.5,0,19,0,28.5c0,0.4,0.2,0.9,0.5,1.2c1.9,2.2,3.9,4.3,5.8,6.4
				c0.2,0.2,0.4,0.4,0.4,0.6c0.5,2.9-0.2,6-4.1,6c-3.2,0-6.5,0-9.7,0c-0.5,0-1.1-0.3-1.4-0.6c-0.2-0.2-0.2-0.9-0.1-1.2
				c0.3-0.4,0.8-0.7,1.2-0.7c2.2-0.1,4.5,0,6.8,0c1.1,0,2.1,0,3.2,0C994.1,557.6,994.5,557,994.3,555.6L994.3,555.6z M987.5,518.3
				c0.4-3.1-1.2-5.2-4-5.2c-15.6,0-31.3,0-47,0c-2.4,0-4.1,1.7-4.1,4.1c0,0.7,0.4,1.1,1.1,1.1c17.6,0,35.2,0,52.8,0
				C986.7,518.3,987.1,518.3,987.5,518.3L987.5,518.3z"/>
			<g>
				<path class="st2" d="M940.5,562.8c0-0.2,0-0.5,0-0.8c0-6.5,0-12.9,0-19.4c0-0.6-0.1-1-0.6-1.4c-1.8-1.8-1.7-5.5,0.5-6.8
					c2.3-1.4,4.7-2.4,7.1-3.5c0.5-0.2,1.2-0.2,1.8-0.2c7.1,0,14.2-0.1,21.2,0c1.2,0,2.5,0.5,3.7,1c1.8,0.8,3.5,1.6,5.2,2.7
					c2.1,1.4,2.2,5.1,0.5,6.9c-0.3,0.3-0.5,0.8-0.5,1.2c0,6.5,0,13,0,19.5c0,0.6,0.2,0.9,0.8,1c1.3,0.3,2.1,1.4,2.2,2.8
					c0,0.7,0,1.4,0,2.1c0,1-0.5,1.4-1.5,1.5c-0.2,0-0.4,0-0.7,0c-13.6,0-27.2,0-40.8,0c-1.5,0-1.9-0.3-1.9-1.9c0-0.2,0-0.4,0-0.6
					C937.6,564.2,937.9,563.8,940.5,562.8L940.5,562.8z M956,563c0.4,0,0.8,0,1.1,0c0.4,0,0.7,0,1.1,0c0.7,0.1,1.2,0.5,1.2,1.2
					c0,0.7-0.4,1.2-1.1,1.3c-0.3,0-0.5,0-0.8,0c-5.4,0-10.9,0-16.3,0c-0.7,0-1,0.2-0.9,0.9c0.1,0.8,0.6,0.5,1,0.5
					c12.6,0,25.2,0,37.7,0c0.3,0,0.6,0,0.9,0c0.2-1.2,0.2-1.3-1-1.3c-1,0-1.9,0-2.9,0c-0.8,0-1.3-0.6-1.3-1.3c0-0.7,0.6-1.2,1.4-1.3
					c0.3,0,0.6,0,0.9,0c0-0.4,0.1-0.7,0.1-1c0-5.8,0-11.7,0-17.5c0-1.2,0.1-2.2-1.5-2.6c-0.4-0.1-0.7-0.2-1.2,0
					c-1.3,0.8-2.6,0.7-3.9,0c-0.2-0.1-0.7-0.1-0.9,0c-1.4,0.8-2.7,0.8-4.1,0c-0.2-0.1-0.7-0.1-0.9,0c-1.4,0.8-2.7,0.7-4.1,0
					c-0.2-0.1-0.6-0.1-0.8,0c-1.4,0.8-2.7,0.8-4,0c-0.4-0.2-0.7-0.2-1,0c-1.3,0.8-2.6,0.8-3.9,0c-0.4-0.3-0.7-0.2-1.1,0
					c-1,0.6-2.1,0.9-3.1,0.3c-1-0.5-1.8-0.5-2.8,0c-0.4,0.2-0.6,0.4-0.6,0.9c0,6.4,0,12.7,0,19.1c0,0.6,0.2,0.8,0.8,0.8
					c0.7,0,0.6-0.5,0.6-0.9c0-5.1,0-10.2,0-15.3c0-1.8,1-2.8,2.8-2.8c1.9,0,3.7,0,5.6,0c2.1,0,3.1,0.9,3.1,3.1c0,4.9,0,9.7,0,14.6
					C956,562,956,562.4,956,563L956,563z M953.4,563c0-1.2,0-2.3,0-3.4c0-0.6,0.1-1.2-0.2-1.7c-0.1-0.2-0.9-0.1-1.4-0.2
					c-0.7-0.1-1.2-0.5-1.2-1.2s0.4-1.2,1.1-1.3c0.3,0,0.6,0,0.9,0c0.6,0.1,0.8-0.2,0.8-0.8c0-2.4,0-4.8,0-7.2c0-0.6-0.2-0.8-0.8-0.8
					c-1.6,0-3.1,0-4.7,0c-0.7,0-1,0.2-1,1c0,4.9,0,9.7,0,14.6c0,0.2,0,0.4,0,0.5c0.1,0.2,0.3,0.4,0.4,0.4
					C949.4,563,951.3,563,953.4,563L953.4,563z M960,536.9C960,536.9,960,536.9,960,536.9c-2.5,0-5,0-7.5,0c-3.3,0-6.6,0-9.9,0
					c-1.3,0-1.3,0-1.3,1.5c0,0.8,0.4,1.4,1.2,1.4c0.7,0,1.1-0.4,1.2-1.1c0.2-0.7,0.6-1.2,1.4-1.2c0.8,0,1.1,0.5,1.2,1.2
					c0.1,0.7,0.6,1.1,1.3,1c0.6,0,1-0.5,1.1-1.1c0.1-0.7,0.5-1.1,1.3-1.1c0.7,0,1.1,0.4,1.3,1.1c0.1,0.7,0.5,1.2,1.2,1.2
					c0.8,0,1.1-0.6,1.2-1.2c0.1-0.7,0.6-1,1.3-1c0.7,0,1.1,0.4,1.3,1.1c0.1,0.7,0.4,1.2,1.2,1.2c0.8,0,1.1-0.5,1.2-1.2
					c0.2-1,1.2-1.4,2-0.8c0.3,0.2,0.4,0.7,0.6,1c0.2,0.5,0.5,1,1.2,1c0.6,0,1.1-0.3,1.2-0.9c0.2-0.8,0.5-1.4,1.4-1.4
					c0.9,0,1.1,0.7,1.3,1.4c0,0,0,0,0,0.1c0.2,0.6,0.6,0.9,1.2,0.8c0.6,0,1-0.3,1.1-1c0.1-0.8,0.5-1.2,1.3-1.2
					c0.8,0,1.2,0.5,1.3,1.2c0.2,0.8,0.7,1.2,1.4,1c0.7-0.1,0.9-0.6,1-1.2c0.1-0.7,0.6-1.1,1.3-1.1c0.7,0,1.1,0.4,1.3,1.1
					c0,0.1,0,0.3,0.1,0.4c0.3,0.3,0.7,0.8,1.1,0.8s0.9-0.4,1.1-0.8c0.2-0.3,0.1-0.9,0.2-1.3c0-0.6-0.2-0.9-0.9-0.8
					c-1.4,0-2.8,0-4.3,0C969,536.9,964.5,536.9,960,536.9L960,536.9z M946.7,534.3h26.7c-1-0.8-2-1.1-3.2-1.1c-1.3,0-2.7,0-4,0.1
					c-5.5,0-10.9,0-16.4,0C948.6,533.3,947.6,533.6,946.7,534.3L946.7,534.3z"/>
				<path class="st2" d="M966.4,557.8c-2.1,0-4.2,0-6.3,0c-1.8,0-2.8-1.1-2.8-2.8c0-2.7,0-5.4,0-8.2c0-1.8,1-2.9,2.8-2.9
					c4.2,0,8.4,0,12.6,0c1.8,0,2.8,1,2.9,2.9c0,2.8,0,5.5,0,8.3c0,1.5-1.1,2.7-2.6,2.7C970.8,557.8,968.6,557.8,966.4,557.8
					L966.4,557.8z M966.4,555.2c1.9,0,3.8,0,5.8,0c0.6,0,0.9-0.1,0.9-0.8c0-2.4,0-4.8,0-7.2c0-0.5-0.2-0.8-0.7-0.8
					c-3.9,0-7.8,0-11.7,0c-0.6,0-0.8,0.2-0.8,0.8c0,2.4,0,4.8,0,7.2c0,0.6,0.2,0.8,0.8,0.8C962.6,555.2,964.5,555.2,966.4,555.2
					L966.4,555.2z"/>
			</g>
			<path class="st1" d="M960,514.5c0.9,0,1.5,0.5,1.5,1.3c0,0.8-0.6,1.3-1.5,1.3c-0.8,0-1.4-0.5-1.4-1.2
				C958.5,515.1,959.2,514.5,960,514.5z"/>
		</g>
	</g>
</g>
</svg>
