<?xml version="1.0" encoding="utf-8"?>
<!-- Generator: Adobe Illustrator 27.0.0, SVG Export Plug-In . SVG Version: 6.00 Build 0)  -->
<svg version="1.1" id="Layer_2_00000102544814869444259650000007533578502232906419_"
	 xmlns="http://www.w3.org/2000/svg" xmlns:xlink="http://www.w3.org/1999/xlink" x="0px" y="0px" viewBox="0 0 1920 1080"
	 style="enable-background:new 0 0 1920 1080;" xml:space="preserve">
<style type="text/css">
	.st0{fill:#0072C8;}
	.st1{fill:#F4F6F9;}
	.st2{fill:#F6AE2D;}
</style>
<g id="Layer_1-2">
	<g>
		<circle class="st0" cx="960" cy="540" r="47.9"/>
		<g>
			<path class="st1" d="M969.1,510.7c-7.5,0-15,0-22.4,0c-3.3,0-5.5,2.2-5.5,5.5c0,15.8,0,31.7,0,47.5c0,3.3,2.2,5.5,5.5,5.5
				c7.5,0,15,0,22.4,0c3.3,0,5.5-2.2,5.5-5.5c0-4.1,0-8.2,0-12.3v-1h-2.1v4.2h-29.3v-33.5h29.2v3.2l2.1,1.7V525c0-2.9,0-5.8,0-8.7
				C974.6,512.9,972.5,510.7,969.1,510.7L969.1,510.7z M972.6,556.8v2.8c0,1.4,0,2.9,0,4.3c0,1.9-1.3,3.3-3.2,3.3
				c-7.6,0-15.2,0-22.8,0c-1.8,0-3.2-1.1-3.2-2.9c-0.1-2.5,0-5,0-7.6H972.6z M972.6,519.1h-0.9c-9.2,0-18.3,0-27.5,0
				c-0.8,0-1-0.2-0.9-1c0.1-0.7,0-1.4,0-2.1c0-1.9,1.4-3.3,3.3-3.3c7.6,0,15.2,0,22.7,0c2,0,3.3,1.3,3.3,3.3
				C972.6,517.1,972.6,518,972.6,519.1L972.6,519.1z"/>
			<path class="st1" d="M958,558.9c1.7,0,3.1,1.4,3.1,3.1c0,1.7-1.4,3.1-3.1,3.1c-1.8,0-3.1-1.4-3.1-3.2
				C954.8,560.2,956.2,558.8,958,558.9z M959,562c0-0.6-0.5-1.1-1.1-1.1c-0.5,0-1,0.5-1,1.1c0,0.6,0.5,1.1,1,1.1
				C958.5,563.1,959,562.6,959,562z"/>
			<path class="st1" d="M958,514.9c0.3,0,0.7,0,1,0c0.6,0.1,1,0.4,1,1c0,0.6-0.4,1-1,1c-0.7,0-1.4,0-2.1,0c-0.6,0-0.9-0.3-1-0.9
				c0-0.6,0.3-1,0.9-1.1C957.2,514.9,957.6,514.9,958,514.9L958,514.9L958,514.9z"/>
		</g>
		<path class="st2" d="M990,525.4c-0.9,0-1.8,0-2.7,0c0-0.3,0-0.5,0-0.7c0-1.2-0.3-1.4-1.5-1.4c-0.6,0-1.3,0-1.9,0
			c-3.3-0.2-6.4,0.4-9.2,2.8l-2.1-1.7c-1.1-0.3-2.1-0.8-3.3-0.9c-2.1-0.2-4.1-0.2-6.2-0.2c-0.6,0-0.9,0.4-0.9,1c0,0.3,0,0.7-0.1,1.1
			c-1,0-1.9,0-2.8,0c-1,0-1.3,0.3-1.3,1.3c0,7.5,0,15,0,22.4c0,1,0.3,1.3,1.4,1.3c4.1,0,8.2,0,12.2,0h3h1c4.7,0,9.5,0,14.2,0
			c1.3,0,1.5-0.3,1.5-1.6v-22C991.4,525.7,991.1,525.4,990,525.4L990,525.4z M960,548.3v-20.9h2.1v1c0,5.3,0,10.7,0,16
			c0,1.6,0.2,1.8,1.8,1.8c1.7,0,3.4,0,5,0.2c1.5,0.1,2.8,0.8,4.2,1.9L960,548.3L960,548.3z M973.7,545.6c0,0.1,0,0.3-0.1,0.6
			c-2.8-2-6.1-2-9.4-1.9v-18.8c3.2-0.2,6.3-0.2,8.9,2c0.3,0.2,0.5,0.7,0.5,1C973.7,534.1,973.7,539.8,973.7,545.6L973.7,545.6z
			 M975.7,545.2c0-5.5,0-11.1,0-16.6c0-0.6,0.2-1,0.7-1.3c1.7-1.2,3.5-1.9,5.6-2c1,0,2.1,0,3.2,0v18.8c-1.7,0.1-3.3,0-4.9,0.3
			c-1.5,0.3-3,0.9-4.5,1.4C975.7,545.7,975.7,545.5,975.7,545.2L975.7,545.2z M989.3,548.3h-13c0.2-0.2,0.3-0.3,0.4-0.4
			c1.5-1.1,3.2-1.6,5.1-1.7c1.2,0,2.5,0,3.8,0c1.3,0,1.6-0.3,1.6-1.6c0-5.4,0-10.8,0-16.2v-1h2.1L989.3,548.3L989.3,548.3z"/>
	</g>
</g>
</svg>
