<svg xmlns="http://www.w3.org/2000/svg" viewBox="0 0 461.67 557.79"><defs><style>.cls-1{fill:#fff;}.cls-1,.cls-3,.cls-4{stroke:#0072c8;stroke-linecap:round;stroke-linejoin:round;stroke-width:0.75px;}.cls-1,.cls-2,.cls-3,.cls-4{fill-rule:evenodd;}.cls-2{fill:none;}.cls-3{fill:#9aceef;}.cls-4{fill:#d9e8ff;}</style></defs><g id="Layer_2" data-name="Layer 2"><g id="Layer_1-2" data-name="Layer 1"><path class="cls-1" d="M114.9,452.93,129,427.7a2.29,2.29,0,0,0,0-2.32,2.26,2.26,0,0,0-2-1.16L98.08,424l4.5,21.1Z" transform="translate(-3.25 -1.45)"/><path class="cls-2" d="M99.06,424.81,127,425a1.48,1.48,0,0,1,1.31.76,1.46,1.46,0,0,1,0,1.52l-13.71,24.51L103.3,444.6l-4.24-19.79Zm15.84,28.92a.62.62,0,0,0,.19,0,.81.81,0,0,0,.5-.39l14.12-25.24a3.13,3.13,0,0,0-2.7-4.66l-28.93-.21a.65.65,0,0,0-.62.28.83.83,0,0,0-.16.68l4.5,21.09a.84.84,0,0,0,.35.51l12.32,7.84A.82.82,0,0,0,114.9,453.73Z" transform="translate(-3.25 -1.45)"/><path class="cls-1" d="M55.36,488.32l57.75-33.57c1.12-.79,2.56-1.7,2.5-3l-.42-9.79L111,437.39c0-.47-1.51-7.71-2-8L99.74,424a7.58,7.58,0,0,0-4.17.68L37.83,458.25a6.54,6.54,0,0,1,2.87-.71,11.19,11.19,0,0,1,5.75,1.71,23.09,23.09,0,0,1,4.86,4,30.83,30.83,0,0,1,4.35,6.17,25.62,25.62,0,0,1,3,10.49C58.75,483.15,58.17,486.34,55.36,488.32Z" transform="translate(-3.25 -1.45)"/><path class="cls-2" d="M114.41,442.28l.4,9.49c0,.79-1,1.52-1.93,2.16l-.23.16-54,31.42a13.82,13.82,0,0,0,.89-5.62,26.18,26.18,0,0,0-3.13-10.84,31.53,31.53,0,0,0-4.47-6.34,23.44,23.44,0,0,0-5-4.13,12.9,12.9,0,0,0-5-1.77L96,425.37a6.81,6.81,0,0,1,3.52-.6l8.9,5.21a61.22,61.22,0,0,1,1.78,7.5.9.9,0,0,0,.21.44l4,4.36Zm-59,46.83a.71.71,0,0,0,.4-.11l58-33.76c1.2-.84,2.69-1.87,2.62-3.53l-.42-9.79a.8.8,0,0,0-.21-.51L111.71,437c-.25-1.43-1.43-7.79-2.37-8.34l-9.2-5.37a.82.82,0,0,0-.31-.11,8.39,8.39,0,0,0-4.6.76l-57.81,33.6a.8.8,0,0,0,.75,1.41,5.64,5.64,0,0,1,2.57-.63A10.33,10.33,0,0,1,46.07,460a22.29,22.29,0,0,1,4.67,3.84,29.88,29.88,0,0,1,4.22,6A24.71,24.71,0,0,1,57.91,480c.06,3.82-.87,6.21-3,7.71a.79.79,0,0,0-.21,1.08A.77.77,0,0,0,55.36,489.11Z" transform="translate(-3.25 -1.45)"/><path class="cls-3" d="M55.36,488.32l57.75-33.57c1.12-.79,2.56-1.7,2.5-3l-.42-9.79L58,475.22a23.77,23.77,0,0,1,.63,3.24,14.56,14.56,0,0,1-.46,6.05A7,7,0,0,1,55.36,488.32Z" transform="translate(-3.25 -1.45)"/><path class="cls-2" d="M114.45,443.31l.36,8.46c0,.79-1,1.52-1.93,2.16l-.23.16L58.59,485.52c.1-.24.19-.48.29-.73a15.47,15.47,0,0,0,.51-6.41,27.58,27.58,0,0,0-.5-2.77l55.56-32.3Zm-59.09,45.8a.71.71,0,0,0,.4-.11l58-33.76c1.2-.84,2.69-1.87,2.62-3.53l-.42-9.79a.81.81,0,0,0-.41-.67.85.85,0,0,0-.79,0L57.56,474.53a.81.81,0,0,0-.37.9,21.46,21.46,0,0,1,.61,3.13,13.51,13.51,0,0,1-.44,5.72,6.1,6.1,0,0,1-2.46,3.38.79.79,0,0,0-.21,1.08A.77.77,0,0,0,55.36,489.11Z" transform="translate(-3.25 -1.45)"/><path class="cls-1" d="M52.49,490.09l2.87-1.67a6.44,6.44,0,0,0,2.08-2.23,12.26,12.26,0,0,0,1.24-6.95,25.45,25.45,0,0,0-1.94-7.56,31.85,31.85,0,0,0-3.81-6.53,28.67,28.67,0,0,0-4-4.2,17,17,0,0,0-5.48-3.07,7.46,7.46,0,0,0-5.68.32l-2.87,1.67a7.7,7.7,0,0,1,6.26-.12,17.6,17.6,0,0,1,5.51,3.39,28.88,28.88,0,0,1,4.88,5.76,31.37,31.37,0,0,1,3.22,6.74,20.56,20.56,0,0,1,1.06,8.08,11.47,11.47,0,0,1-1,3.64A6.67,6.67,0,0,1,52.49,490.09Z" transform="translate(-3.25 -1.45)"/><path class="cls-2" d="M40.74,458.28a9.31,9.31,0,0,1,2.47.37,16.1,16.1,0,0,1,5.18,2.92,27.66,27.66,0,0,1,3.91,4.08A31,31,0,0,1,56,472a24.34,24.34,0,0,1,1.88,7.32,11.55,11.55,0,0,1-1.16,6.5,6.45,6.45,0,0,1-.89,1.19,12.91,12.91,0,0,0,.74-3.19,21.38,21.38,0,0,0-1.09-8.41,32.35,32.35,0,0,0-3.3-6.93,29.41,29.41,0,0,0-5-5.92A18.82,18.82,0,0,0,41.41,459a13.42,13.42,0,0,0-2.14-.54,5.74,5.74,0,0,1,1.47-.18Zm11.75,32.61a.8.8,0,0,0,.4-.11l2.87-1.67a7.25,7.25,0,0,0,2.36-2.5,13.09,13.09,0,0,0,1.36-7.42,26,26,0,0,0-2-7.81,32.48,32.48,0,0,0-3.92-6.7,28.67,28.67,0,0,0-4.16-4.34,17.23,17.23,0,0,0-5.74-3.21,8.22,8.22,0,0,0-6.27.36l-2.93,1.69a.8.8,0,0,0,.74,1.41c1.76-.84,3.3-.86,5.67-.09a16.92,16.92,0,0,1,5.24,3.25,28,28,0,0,1,4.74,5.59A30.85,30.85,0,0,1,54,475.91a19.5,19.5,0,0,1,1,7.75A10.67,10.67,0,0,1,54.1,487a5.81,5.81,0,0,1-2.07,2.4.8.8,0,0,0,.46,1.45Z" transform="translate(-3.25 -1.45)"/><path class="cls-3" d="M27.85,463.94a7.09,7.09,0,0,0-3.37,4.68c-1.76,6.6,2.2,16.68,8.81,22.52,4.55,4,9.17,5,12.19,3l7-4.07c3-2.12,3.51-5.72,3.32-9.17a25.66,25.66,0,0,0-2.64-9.08,29.67,29.67,0,0,0-5.33-7.55l-.6-.58c-2.47-2.26-5-4-8.4-4.51a7,7,0,0,0-4,.67Z" transform="translate(-3.25 -1.45)"/><path class="cls-2" d="M37.82,460c.28,0,.6,0,.94,0,3.37.49,5.81,2.36,7.94,4.3l.57.56a28.76,28.76,0,0,1,5.18,7.35A24.63,24.63,0,0,1,55,481c.24,4.17-.7,6.86-3,8.45l-6.94,4c-2.84,1.84-7.15.7-11.26-2.93-6.41-5.65-10.25-15.39-8.58-21.72a6.32,6.32,0,0,1,3-4.17h0l7-4.08a5.49,5.49,0,0,1,2.57-.6Zm4.23,36a7,7,0,0,0,3.86-1.1l7-4.05c3.7-2.59,3.89-6.89,3.71-9.91a26.08,26.08,0,0,0-2.71-9.37,30.27,30.27,0,0,0-5.47-7.76l-.62-.61c-2.23-2-5-4.15-8.85-4.71a7.58,7.58,0,0,0-4.44.74l-7,4.09a7.88,7.88,0,0,0-3.76,5.16c-1.81,6.86,2.25,17.32,9.06,23.33C35.89,494.49,39.18,495.94,42.05,495.93Z" transform="translate(-3.25 -1.45)"/><path class="cls-3" d="M37.11,469.38C31,464,24.64,464.54,23,470.69s2,15.52,8.21,20.95,12.47,4.85,14.1-1.3S43.27,474.81,37.11,469.38Z" transform="translate(-3.25 -1.45)"/><path class="cls-2" d="M36.58,470c5.94,5.24,9.51,14.28,8,20.16A5.47,5.47,0,0,1,41,494.33c-2.56.78-6-.45-9.21-3.29-5.94-5.24-9.51-14.28-8-20.15a5.49,5.49,0,0,1,3.59-4.2c2.55-.78,6,.46,9.21,3.29Zm2.76,26.18a6.76,6.76,0,0,0,6.74-5.61c1.7-6.4-2.09-16.17-8.44-21.77h0c-3.69-3.25-7.61-4.57-10.73-3.62a7.09,7.09,0,0,0-4.67,5.32c-1.7,6.4,2.09,16.16,8.45,21.76C33.6,494.8,36.65,496.17,39.34,496.16Z" transform="translate(-3.25 -1.45)"/><path class="cls-4" d="M115.19,442,111,437.39c0-.47-1.51-7.71-2-8L51.08,463A29.11,29.11,0,0,1,58,475.22Z" transform="translate(-3.25 -1.45)"/><path class="cls-2" d="M113.93,441.76,58.44,474a30,30,0,0,0-6.1-10.83l56.25-32.69c.55,1.76,1.52,6.4,1.59,7a.82.82,0,0,0,.21.44l3.54,3.84ZM58,476a.71.71,0,0,0,.4-.11l57.23-33.27a.78.78,0,0,0,.39-.57.8.8,0,0,0-.2-.66L111.72,437c-.25-1.42-1.44-7.79-2.38-8.34a.79.79,0,0,0-.8,0L50.68,462.32a.8.8,0,0,0-.39.58.81.81,0,0,0,.22.66,28.68,28.68,0,0,1,6.68,11.87A.8.8,0,0,0,58,476Z" transform="translate(-3.25 -1.45)"/><polygon class="cls-4" points="111.65 451.48 125.77 426.25 125.75 423.93 111.94 440.5 111.65 451.48"/><path class="cls-2" d="M128.09,427.72l-12.31,22,.21-7.46,12.1-14.53Zm-13.19,26a.78.78,0,0,0,.69-.41l14.12-25.24a.77.77,0,0,0,.11-.39l0-2.32a.8.8,0,0,0-.53-.74.81.81,0,0,0-.88.24l-13.81,16.58a.75.75,0,0,0-.18.48l-.3,11a.79.79,0,0,0,.59.79A.76.76,0,0,0,114.9,453.73Z" transform="translate(-3.25 -1.45)"/><path class="cls-1" d="M129,427.7a2.34,2.34,0,0,0-2-3.48L99.74,424l9.2,5.38Z" transform="translate(-3.25 -1.45)"/><path class="cls-2" d="M128.47,426.94l-19.35,1.62-6.39-3.75L127,425a1.48,1.48,0,0,1,1.31.76,1.45,1.45,0,0,1,.16,1.16Zm-19.53,3.23H109l20.07-1.67a.79.79,0,0,0,.63-.41,3.13,3.13,0,0,0-2.7-4.66l-27.26-.22a.81.81,0,0,0-.78.59.78.78,0,0,0,.37.89l9.2,5.38A.8.8,0,0,0,108.94,430.17Z" transform="translate(-3.25 -1.45)"/><path class="cls-3" d="M124.65,435.5l4.37-7.8a2.29,2.29,0,0,0,0-2.32,2.26,2.26,0,0,0-2-1.16l-8.66-.07,2.76,2.34-1.1,5.44Z" transform="translate(-3.25 -1.45)"/><path class="cls-2" d="M120.54,425l6.46,0a1.48,1.48,0,0,1,1.31.76,1.46,1.46,0,0,1,0,1.52l-3.91,7-3.53-2.72,1-4.94a.78.78,0,0,0-.27-.77l-1.07-.91Zm4.11,11.33.16,0a.8.8,0,0,0,.54-.39l4.36-7.81a3.13,3.13,0,0,0-2.7-4.66l-8.67-.06h0a.77.77,0,0,0-.74.52.79.79,0,0,0,.23.88l2.4,2-1,5a.8.8,0,0,0,.3.79l4.64,3.57A.83.83,0,0,0,124.65,436.3Z" transform="translate(-3.25 -1.45)"/><polygon class="cls-3" points="53.39 204.82 59.42 201.35 60.65 200.1 61.13 197.65 61.12 184.91 55.09 188.4 55.09 201.13 54.62 203.59 53.39 204.82"/><path class="cls-2" d="M61.55,201.33l.67-.69.32-1.54v-9.56l-2.38,1.36,0,11.24,1.41-.81Zm-6.36,6.07a1.84,1.84,0,0,1,.15-2.42l.84-.86.33-1.54V189.85a1.83,1.83,0,0,1,.91-1.59l6-3.49a1.9,1.9,0,0,1,1.82,0,1.83,1.83,0,0,1,.92,1.59v13.08l-.47,2.47a1.77,1.77,0,0,1-.52.93L64,204.09a2.84,2.84,0,0,1-.37.3l-6,3.48a1.72,1.72,0,0,1-.91.24A1.8,1.8,0,0,1,55.19,207.4Z" transform="translate(-3.25 -1.45)"/><polygon class="cls-4" points="55.09 188.4 61.12 184.91 50.24 178.63 44.2 182.12 55.09 188.4"/><path class="cls-2" d="M60.7,186.36l-7.21-4.16-2.38,1.37,7.23,4.16,2.36-1.37Zm-3.29,5.07-10.88-6.27a1.83,1.83,0,0,1,0-3.18l6-3.5a2,2,0,0,1,1.83,0l10.88,6.29a1.83,1.83,0,0,1,.92,1.59,1.8,1.8,0,0,1-.92,1.59l-6,3.48a1.72,1.72,0,0,1-.9.25A1.78,1.78,0,0,1,57.41,191.43Z" transform="translate(-3.25 -1.45)"/><polygon class="cls-3" points="94.49 228.54 100.52 225.05 101.76 223.82 102.22 221.35 102.21 208.61 96.19 212.11 96.19 224.84 95.72 227.29 94.49 228.54"/><path class="cls-2" d="M102.65,225l.67-.67.31-1.56v-9.56l-2.37,1.38v11.22l1.4-.81Zm-6.38,6.07a1.83,1.83,0,0,1,.16-2.4l.85-.86.32-1.55V213.56a1.83,1.83,0,0,1,.92-1.6l6-3.47a1.82,1.82,0,0,1,2.75,1.57l0,13.09-.47,2.44a1.73,1.73,0,0,1-.5.95l-1.23,1.25a1.21,1.21,0,0,1-.39.28l-6,3.5a1.72,1.72,0,0,1-.9.25A1.89,1.89,0,0,1,96.27,231.1Z" transform="translate(-3.25 -1.45)"/><polygon class="cls-4" points="96.19 212.11 102.21 208.61 91.32 202.34 85.29 205.82 96.19 212.11"/><path class="cls-2" d="M101.79,210.06l-7.22-4.15-2.37,1.36,7.24,4.17,2.35-1.38Zm-3.27,5.09-10.9-6.29a1.83,1.83,0,0,1-.91-1.59,1.86,1.86,0,0,1,.91-1.59l6-3.48a1.88,1.88,0,0,1,1.84,0l10.89,6.27a1.89,1.89,0,0,1,.92,1.59,1.81,1.81,0,0,1-.92,1.59l-6,3.48a1.72,1.72,0,0,1-.9.25A1.93,1.93,0,0,1,98.52,215.15Z" transform="translate(-3.25 -1.45)"/><polygon class="cls-3" points="135.58 252.24 141.61 248.75 142.86 247.52 143.31 245.05 143.31 232.33 137.28 235.81 137.28 248.55 136.81 251 135.58 252.24"/><path class="cls-2" d="M143.74,248.73l.67-.67.31-1.56V237l-2.37,1.37,0,11.23,1.41-.82Zm-6.36,6.07a1.82,1.82,0,0,1,.15-2.4l.84-.84.32-1.56V237.26a1.84,1.84,0,0,1,.92-1.58l6-3.49a1.83,1.83,0,0,1,1.84,0,1.86,1.86,0,0,1,.92,1.59l0,13.07-.47,2.46a1.83,1.83,0,0,1-.5.95l-1.23,1.23a1.93,1.93,0,0,1-.39.3l-6,3.49a1.9,1.9,0,0,1-.92.25A1.83,1.83,0,0,1,137.38,254.8Z" transform="translate(-3.25 -1.45)"/><polygon class="cls-4" points="137.28 235.81 143.31 232.33 132.43 226.05 126.38 229.52 137.28 235.81"/><path class="cls-2" d="M142.9,233.78l-7.22-4.18L133.31,231l7.22,4.18,2.37-1.37Zm-3.29,5.07-10.89-6.29a1.81,1.81,0,0,1-.92-1.59,1.87,1.87,0,0,1,.92-1.59l6-3.47a1.8,1.8,0,0,1,1.82,0l10.9,6.28a1.83,1.83,0,0,1,0,3.17l-6,3.49a1.7,1.7,0,0,1-.9.25A1.74,1.74,0,0,1,139.61,238.85Z" transform="translate(-3.25 -1.45)"/><path class="cls-4" d="M129.63,231v12.74c0,8.31,10.9,14.6,10.89,6.29V237.26Z" transform="translate(-3.25 -1.45)"/><path class="cls-2" d="M138.69,238.32l-7.22-4.17v9.56a9.49,9.49,0,0,0,4.52,7.78,2.63,2.63,0,0,0,2.14.5c.27-.17.55-.76.55-2V238.32Zm-4.53,16.35a13.27,13.27,0,0,1-6.36-11V231a1.88,1.88,0,0,1,.91-1.59,1.94,1.94,0,0,1,1.84,0l10.88,6.29a1.82,1.82,0,0,1,.92,1.59V250c0,3.12-1.28,4.54-2.37,5.16a4.39,4.39,0,0,1-2.24.57A7.25,7.25,0,0,1,134.16,254.67Z" transform="translate(-3.25 -1.45)"/><path class="cls-4" d="M88.54,207.27V220c0,8.31,10.9,14.6,10.9,6.28V213.56Z" transform="translate(-3.25 -1.45)"/><path class="cls-2" d="M97.6,214.62l-7.22-4.17V220c0,4.57,4.13,8.36,6.25,8.36.25,0,1,0,1-2.08V214.62ZM86.71,220V207.27a1.86,1.86,0,0,1,.91-1.59,1.88,1.88,0,0,1,1.84,0L100.34,212a1.83,1.83,0,0,1,.92,1.6l0,12.73a6.58,6.58,0,0,1-1.2,4.12A4.3,4.3,0,0,1,96.63,232C92.26,232,86.71,226.37,86.71,220Z" transform="translate(-3.25 -1.45)"/><path class="cls-4" d="M47.45,183.57v12.72c0,8.32,10.89,14.62,10.89,6.29V189.85Z" transform="translate(-3.25 -1.45)"/><path class="cls-2" d="M56.5,190.9l-7.22-4.15v9.54c0,4.59,4.14,8.38,6.25,8.38h0c.25,0,1,0,1-2.09V190.9Zm-10.89,5.39V183.57A1.83,1.83,0,0,1,48.35,182l10.89,6.28a1.82,1.82,0,0,1,.92,1.58l0,12.74c0,4.24-2.41,5.75-4.65,5.75h0C51.16,208.33,45.63,202.67,45.61,196.29Z" transform="translate(-3.25 -1.45)"/><polygon class="cls-4" points="20.65 33.91 26.67 30.43 15.65 24.07 13.29 23.24 11.6 23.69 5.56 27.19 7.26 26.73 9.62 27.56 20.65 33.91"/><path class="cls-2" d="M26.28,31.88l-8-4.62-1.84-.63-.91.23-1.37.79,9.71,5.6,2.38-1.37ZM23,37,12.27,30.74l-1.84-.64-1.13.3a1.83,1.83,0,0,1-1.39-3.35l6-3.48a1.4,1.4,0,0,1,.44-.19l1.7-.45a1.75,1.75,0,0,1,1.06.05l2.68.95,11,6.36a1.83,1.83,0,0,1,0,3.18l-6,3.48A1.8,1.8,0,0,1,23,37Z" transform="translate(-3.25 -1.45)"/><polygon class="cls-4" points="20.65 46.49 26.69 43.01 26.67 30.43 20.65 33.91 20.65 46.49"/><path class="cls-2" d="M28.1,43.4V35.06l-2.37,1.36v8.36L28.1,43.4ZM23,49.53a1.82,1.82,0,0,1-.91-1.59V35.36A1.81,1.81,0,0,1,23,33.78l6-3.49a1.8,1.8,0,0,1,1.82,0,1.82,1.82,0,0,1,.92,1.59l0,12.58a1.82,1.82,0,0,1-.94,1.59l-6,3.48a1.8,1.8,0,0,1-1.83,0Z" transform="translate(-3.25 -1.45)"/><polygon class="cls-4" points="20.67 81.39 26.7 77.9 15.66 71.53 13.31 70.71 11.63 71.17 5.59 74.65 7.28 74.2 9.64 75.03 20.67 81.39"/><path class="cls-2" d="M26.29,79.35l-8-4.64-1.82-.64-.92.26-1.37.79,9.71,5.6,2.37-1.37ZM23,84.43,12.29,78.2l-1.84-.63-1.14.31A1.86,1.86,0,0,1,7.14,76.8a1.84,1.84,0,0,1,.78-2.29L14,71a1.06,1.06,0,0,1,.45-.19l1.68-.46a1.74,1.74,0,0,1,1.08,0l2.67,1,11,6.36a1.83,1.83,0,0,1,.92,1.6,1.79,1.79,0,0,1-.92,1.58l-6,3.48a1.72,1.72,0,0,1-.9.25A1.93,1.93,0,0,1,23,84.43Z" transform="translate(-3.25 -1.45)"/><polygon class="cls-4" points="20.67 93.96 26.7 90.47 26.7 77.9 20.67 81.39 20.67 93.96"/><path class="cls-2" d="M28.12,90.87V82.53L25.74,83.9v8.32l2.38-1.35ZM23,97a1.85,1.85,0,0,1-.9-1.59l0-12.57A1.79,1.79,0,0,1,23,81.25l6-3.5a1.86,1.86,0,0,1,1.83,0,1.83,1.83,0,0,1,.92,1.6V91.92a1.79,1.79,0,0,1-.9,1.58l-6,3.5a2.08,2.08,0,0,1-.92.25A2,2,0,0,1,23,97Z" transform="translate(-3.25 -1.45)"/><polygon class="cls-4" points="20.69 128.84 26.72 125.36 15.7 119 13.33 118.17 11.64 118.62 5.61 122.12 7.29 121.67 9.64 122.49 20.69 128.84"/><path class="cls-2" d="M26.32,126.81l-8-4.63-1.84-.64-.89.25-1.39.78,9.72,5.61,2.38-1.37ZM23,131.88,12.3,125.66,10.46,125l-1.14.29A1.83,1.83,0,0,1,7.94,122l6-3.5a2.65,2.65,0,0,1,.44-.17l1.7-.45a2,2,0,0,1,1.07,0l2.69,1,11,6.36a1.83,1.83,0,0,1,0,3.18l-6.05,3.48a1.67,1.67,0,0,1-.9.25A1.74,1.74,0,0,1,23,131.88Z" transform="translate(-3.25 -1.45)"/><polygon class="cls-4" points="20.69 141.42 26.72 137.94 26.72 125.36 20.69 128.84 20.69 141.42"/><path class="cls-2" d="M28.13,138.33V130l-2.37,1.38v8.33l2.37-1.36ZM23,144.46a1.86,1.86,0,0,1-.92-1.59V130.29a1.84,1.84,0,0,1,.92-1.58l6-3.49a1.84,1.84,0,0,1,2.76,1.59v12.58a1.82,1.82,0,0,1-.92,1.58l-6,3.49a1.87,1.87,0,0,1-.92.25A1.9,1.9,0,0,1,23,144.46Z" transform="translate(-3.25 -1.45)"/><path class="cls-4" d="M23.94,130.29l-11-6.35c-7.18-4.16-7.17,8.42,0,12.57l11,6.36Z" transform="translate(-3.25 -1.45)"/><path class="cls-2" d="M22.1,131.36,12,125.52c-1.82-1-2.18-.39-2.29-.19-1.06,1.82.15,7.3,4.12,9.6l8.28,4.76v-8.33Zm.92,13.1L12,138.1c-5.52-3.18-7.64-10.82-5.46-14.61,1.11-1.93,3.62-3.26,7.29-1.14l11,6.36a1.79,1.79,0,0,1,.92,1.58v12.58a1.82,1.82,0,0,1-.9,1.59,1.87,1.87,0,0,1-.92.25A1.9,1.9,0,0,1,23,144.46Z" transform="translate(-3.25 -1.45)"/><path class="cls-4" d="M23.92,82.84l-11-6.36c-7.2-4.17-7.2,8.42,0,12.56l11,6.37Z" transform="translate(-3.25 -1.45)"/><path class="cls-2" d="M22.08,83.9,12,78.05c-1.8-1-2.17-.39-2.3-.19-1,1.83.16,7.32,4.12,9.59l8.3,4.77,0-8.32ZM23,97,12,90.63C6.46,87.45,4.32,79.81,6.52,76c1.12-1.93,3.63-3.25,7.28-1.14l11,6.37a1.79,1.79,0,0,1,.92,1.59V95.41a1.85,1.85,0,0,1-.9,1.59,2.08,2.08,0,0,1-.92.25A2,2,0,0,1,23,97Z" transform="translate(-3.25 -1.45)"/><path class="cls-4" d="M23.9,35.36,12.87,29c-7.19-4.15-7.19,8.42,0,12.57l11,6.36Z" transform="translate(-3.25 -1.45)"/><path class="cls-2" d="M22.07,36.42,12,30.6c-1.08-.62-1.73-.67-2-.51s-.64.9-.64,2.1A9.55,9.55,0,0,0,13.78,40l8.29,4.79V36.42ZM23,49.53,12,43.17a13.23,13.23,0,0,1-6.32-11c0-2.45.91-4.38,2.47-5.27,1.1-.64,3-1.06,5.67.5l11,6.35a1.82,1.82,0,0,1,.92,1.59V47.94a1.81,1.81,0,0,1-.92,1.59,1.8,1.8,0,0,1-1.83,0Z" transform="translate(-3.25 -1.45)"/><path class="cls-4" d="M18.23,13,30.58,5.87A1.62,1.62,0,0,1,32.14,6L167.78,84.27A4.75,4.75,0,0,1,169,85.43a4.89,4.89,0,0,1,1,2.68l.06,156.65a1.7,1.7,0,0,1-.64,1.45l-12.36,7.12a1.59,1.59,0,0,0,.65-1.43l-.05-156.66a5.11,5.11,0,0,0-.65-2.19,4.89,4.89,0,0,0-1.58-1.65L19.79,13.15A1.64,1.64,0,0,0,18.23,13Z" transform="translate(-3.25 -1.45)"/><path class="cls-2" d="M31.5,7.46l-8.95,5.16L156.48,89.89a6.73,6.73,0,0,1,3,5.35l0,154.54,8.69-5-.05-156.49a2.94,2.94,0,0,0-.56-1.67,3.08,3.08,0,0,0-.75-.75L31.5,7.46Zm124.06,246.9a1.82,1.82,0,0,1,.33-2.46l-.07-156.51a2.57,2.57,0,0,0-.36-1.33,2.92,2.92,0,0,0-1-1.07L19,14.7,18.23,13l.64,1.74a1.83,1.83,0,0,1-2.29-1,1.78,1.78,0,0,1,.74-2.36L29.94,4.15a3.49,3.49,0,0,1,3.12.29L168.83,82.76a6.7,6.7,0,0,1,3,5.35l0,156.82a3.49,3.49,0,0,1-1.54,2.85L158,254.92a1.82,1.82,0,0,1-2.41-.56Z" transform="translate(-3.25 -1.45)"/><path class="cls-3" d="M17.64,171.1,17.57,14.45c0-1.42,1-2,2.22-1.3L155.43,91.4a4.92,4.92,0,0,1,2.23,3.84l.05,156.66c0,1.4-1,2-2.21,1.28L19.87,175A4.9,4.9,0,0,1,17.64,171.1Z" transform="translate(-3.25 -1.45)"/><path class="cls-2" d="M19.41,15.07l.06,156h0a3.17,3.17,0,0,0,1.3,2.26l135.12,77.92-.07-156A3.13,3.13,0,0,0,154.51,93L19.41,15.07Zm135.16,239.7L19,176.52a6.68,6.68,0,0,1-3.14-5.42L15.73,14.45a3.37,3.37,0,0,1,1.58-3,3.31,3.31,0,0,1,3.4.14L156.35,89.81a6.74,6.74,0,0,1,3.14,5.43l.06,156.66a3.34,3.34,0,0,1-1.58,3,2.83,2.83,0,0,1-1.48.39A3.91,3.91,0,0,1,154.57,254.77Z" transform="translate(-3.25 -1.45)"/><path class="cls-3" d="M140.46,75.48l6-3.49V59.26c0-4.88-3.4-10.52-9.19-10l-6.05,3.48c5.77-.53,9.2,5.05,9.2,10Z" transform="translate(-3.25 -1.45)"/><path class="cls-2" d="M144.66,70.93V59.26a9.33,9.33,0,0,0-2.76-6.67,5.28,5.28,0,0,0-4.05-1.51l-1.52.87a8.79,8.79,0,0,1,2,1.42,12.91,12.91,0,0,1,4,9.37V72.3l2.36-1.37Zm-5.11,6.14a1.85,1.85,0,0,1-.93-1.59V62.74a9.35,9.35,0,0,0-2.76-6.68,5.56,5.56,0,0,0-4.42-1.48,1.78,1.78,0,0,1-1.92-1.26,1.82,1.82,0,0,1,.83-2.14l6-3.49a1.71,1.71,0,0,1,.75-.25,9.25,9.25,0,0,1,7.22,2.44,13,13,0,0,1,4,9.38V72a1.84,1.84,0,0,1-.92,1.58l-6,3.48a1.86,1.86,0,0,1-.93.25A2,2,0,0,1,139.55,77.07Z" transform="translate(-3.25 -1.45)"/><path class="cls-4" d="M140.46,75.48V62.74c0-8.31-10.9-14.6-10.9-6.27V69.2Z" transform="translate(-3.25 -1.45)"/><path class="cls-2" d="M132.37,54.38h0c-.23,0-1,0-1,2.09V68.13l7.22,4.17V62.74c0-4.57-4.13-8.36-6.25-8.36Zm7.18,22.69-10.89-6.28a1.82,1.82,0,0,1-.92-1.59V56.47c0-4.26,2.39-5.77,4.63-5.77h0c4.38,0,9.92,5.68,9.92,12V75.48a1.82,1.82,0,0,1-.91,1.57,1.86,1.86,0,0,1-.93.25A2,2,0,0,1,139.55,77.07Z" transform="translate(-3.25 -1.45)"/><path class="cls-4" d="M26.25,38.33l5.67-3.27a1.45,1.45,0,0,1,1.39.14l109.9,63.39a4.34,4.34,0,0,1,2,3.4l.05,126.92c-.06.63-.08.88-.58,1.28L139,233.47a1.42,1.42,0,0,0,.58-1.28l-.05-126.91a4.33,4.33,0,0,0-2-3.42L27.63,38.47A1.45,1.45,0,0,0,26.25,38.33Z" transform="translate(-3.25 -1.45)"/><path class="cls-2" d="M143.38,228.81l0-126.65a2.45,2.45,0,0,0-1.06-2L32.46,36.87,30.5,38l108.08,62.34a6.26,6.26,0,0,1,2.74,4.93L141.37,230l2-1.15Zm-6,5.76a1.72,1.72,0,0,1,.3-2.38l-.05-126.77a2.43,2.43,0,0,0-1.06-2L26.94,40l-.69-1.69.65,1.72a1.83,1.83,0,0,1-2.31-.94,1.85,1.85,0,0,1,.73-2.37l5.95-3.4a3.29,3.29,0,0,1,2.94.27l110,63.46A6.32,6.32,0,0,1,147,102l0,127.1a3.35,3.35,0,0,1-1.49,2.7L139.89,235a1.92,1.92,0,0,1-1,.28A1.7,1.7,0,0,1,137.42,234.57Z" transform="translate(-3.25 -1.45)"/><path class="cls-1" d="M27.63,38.47l109.9,63.39a4.35,4.35,0,0,1,2,3.42l.05,126.91c0,1.26-.88,1.76-2,1.14L27.69,169.94a4.31,4.31,0,0,1-2-3.4L25.67,39.61C25.67,38.35,26.55,37.84,27.63,38.47Z" transform="translate(-3.25 -1.45)"/><path class="cls-2" d="M27.63,38.47h0Zm-.12,2.05,0,126a2.58,2.58,0,0,0,1.05,1.81l109.12,62.94-.06-126a2.53,2.53,0,0,0-1-1.83L27.51,40.52Zm109.16,194.4-109.9-63.4a6.15,6.15,0,0,1-2.88-5L23.84,39.61a3,3,0,0,1,4.71-2.73l109.9,63.39a6.2,6.2,0,0,1,2.87,5l.07,126.91a3.18,3.18,0,0,1-1.5,2.87,2.84,2.84,0,0,1-1.42.37A3.6,3.6,0,0,1,136.67,234.92Z" transform="translate(-3.25 -1.45)"/><path class="cls-3" d="M46,71.07l73.13,42.17a2.94,2.94,0,0,1,1.31,2.28l0,84.45c0,.83-.58,1.17-1.29.77l-73.14-42.2a2.91,2.91,0,0,1-1.31-2.26l0-84.45C44.72,71,45.32,70.66,46,71.07Z" transform="translate(-3.25 -1.45)"/><path class="cls-2" d="M45.11,72.66Zm1.45.82,0,82.8A1.15,1.15,0,0,0,47,157l71.69,41.36,0-82.79a1.12,1.12,0,0,0-.39-.68L46.56,73.48Zm71.71,128.83L45.14,160.13a4.68,4.68,0,0,1-2.21-3.85l0-84.45a2.65,2.65,0,0,1,1.29-2.43,2.69,2.69,0,0,1,2.75.07h0l73.13,42.18a4.74,4.74,0,0,1,2.23,3.87l0,84.45a2.73,2.73,0,0,1-1.3,2.44,2.67,2.67,0,0,1-1.26.34A3.17,3.17,0,0,1,118.27,202.31Z" transform="translate(-3.25 -1.45)"/><path class="cls-3" d="M169,85.43a4.89,4.89,0,0,1,1,2.68l.06,156.65a1.7,1.7,0,0,1-.64,1.45l-12.36,7.12a1.59,1.59,0,0,0,.65-1.43l-.05-156.66a5.11,5.11,0,0,0-.65-2.19Z" transform="translate(-3.25 -1.45)"/><path class="cls-2" d="M168.16,88.14l-8.89,5.65a8,8,0,0,1,.22,1.45l0,154.54,8.69-5-.05-156.49a.57.57,0,0,0,0-.13Zm-12.6,166.22a1.82,1.82,0,0,1,.33-2.46l-.07-156.51a2.93,2.93,0,0,0-.45-1.51,1.81,1.81,0,0,1,.66-2.37l12-7.64a1.87,1.87,0,0,1,2.53.54,7.1,7.1,0,0,1,1.28,3.7l0,156.82a3.49,3.49,0,0,1-1.54,2.85L158,254.92a1.82,1.82,0,0,1-2.41-.56Z" transform="translate(-3.25 -1.45)"/><path class="cls-3" d="M179.09,230.41l6-3.49c3.35-4.72.22-10.48-4.05-12.94l-11-6.37-6,3.48,11,6.36C179.31,219.92,182.44,225.67,179.09,230.41Z" transform="translate(-3.25 -1.45)"/><path class="cls-2" d="M183.84,225.55a5.61,5.61,0,0,0,.72-4.28,9.43,9.43,0,0,0-4.41-5.72l-10.1-5.81-2.38,1.35,8.28,4.77A13.06,13.06,0,0,1,182.1,224a9.32,9.32,0,0,1,.22,2.45l1.52-.87Zm-6.11,6.09a1.82,1.82,0,0,1-.14-2.29,5.63,5.63,0,0,0,.94-4.58,9.45,9.45,0,0,0-4.42-5.73l-11-6.36a1.84,1.84,0,0,1,0-3.16l6-3.49a1.8,1.8,0,0,1,1.82,0l11,6.36a13,13,0,0,1,6.14,8.11,9.19,9.19,0,0,1-1.51,7.48,2.11,2.11,0,0,1-.58.53L180,232a1.72,1.72,0,0,1-.9.25A1.83,1.83,0,0,1,177.73,231.64Z" transform="translate(-3.25 -1.45)"/><path class="cls-3" d="M179.07,183l6-3.5c3.35-4.72.21-10.48-4.06-12.94l-11-6.36-6,3.48L175,170C179.29,172.45,182.41,178.2,179.07,183Z" transform="translate(-3.25 -1.45)"/><path class="cls-2" d="M183.81,178.08a5.52,5.52,0,0,0,.72-4.26,9.3,9.3,0,0,0-4.4-5.72L170,162.27l-2.37,1.36,8.26,4.77a13,13,0,0,1,6.16,8.12,11.37,11.37,0,0,1,.24,2.43l1.49-.87Zm-6.09,6.1a1.8,1.8,0,0,1-.14-2.29,5.6,5.6,0,0,0,.91-4.59,9.35,9.35,0,0,0-4.39-5.72l-11-6.35a1.89,1.89,0,0,1-.92-1.6,1.84,1.84,0,0,1,.92-1.58l6-3.49a1.83,1.83,0,0,1,1.84,0l11,6.36a13.07,13.07,0,0,1,6.15,8.11,9.26,9.26,0,0,1-1.52,7.48,1.68,1.68,0,0,1-.59.53l-6,3.48a1.76,1.76,0,0,1-.91.25A1.81,1.81,0,0,1,177.72,184.18Z" transform="translate(-3.25 -1.45)"/><path class="cls-3" d="M179.06,135.48l6-3.49c3.34-4.73.22-10.48-4.05-13l-11-6.36-6,3.48,11,6.36C179.28,125,182.39,130.74,179.06,135.48Z" transform="translate(-3.25 -1.45)"/><path class="cls-2" d="M183.8,130.62a5.6,5.6,0,0,0,.71-4.28,9.36,9.36,0,0,0-4.39-5.7L170,114.8l-2.37,1.36,8.27,4.77a13,13,0,0,1,6.15,8.13,9.58,9.58,0,0,1,.23,2.43l1.51-.87Zm-6.1,6.09a1.84,1.84,0,0,1-.16-2.29,5.56,5.56,0,0,0,.94-4.58,9.35,9.35,0,0,0-4.4-5.73l-11-6.36a1.82,1.82,0,0,1,0-3.16l6-3.5a1.86,1.86,0,0,1,1.83,0l11,6.37a13,13,0,0,1,6.16,8.1,9.18,9.18,0,0,1-1.53,7.49,1.61,1.61,0,0,1-.57.53l-6,3.47a1.7,1.7,0,0,1-.9.26A1.86,1.86,0,0,1,177.7,136.71Z" transform="translate(-3.25 -1.45)"/><path class="cls-4" d="M164,128.74l11,6.37c7.21,4.15,7.19-8.42,0-12.59l-11-6.36Z" transform="translate(-3.25 -1.45)"/><path class="cls-2" d="M164,128.74h0Zm1.82-9.4,0,8.34,10.1,5.84c1.06.62,1.72.67,2,.51a2.63,2.63,0,0,0,.65-2.1,9.57,9.57,0,0,0-4.49-7.82l-8.28-4.77Zm8.28,17.36-11-6.36a1.86,1.86,0,0,1-.91-1.6V116.16a1.83,1.83,0,0,1,2.74-1.57l11,6.34a13.32,13.32,0,0,1,6.33,11c0,2.44-.91,4.36-2.48,5.27a4.37,4.37,0,0,1-2.18.57A7.09,7.09,0,0,1,174.08,136.7Z" transform="translate(-3.25 -1.45)"/><path class="cls-4" d="M164,176.21l11,6.36c7.2,4.15,7.19-8.43,0-12.58l-11-6.36Z" transform="translate(-3.25 -1.45)"/><path class="cls-2" d="M164,176.21h0Zm1.83-9.4v8.34L175.94,181c1.79,1.05,2.17.41,2.27.2,1.07-1.84-.15-7.32-4.11-9.6l-8.28-4.77Zm8.28,17.35-11-6.36a1.85,1.85,0,0,1-.9-1.59l0-12.58a1.84,1.84,0,0,1,.92-1.58,1.86,1.86,0,0,1,1.84,0l11,6.36c5.52,3.18,7.66,10.82,5.47,14.61a4.28,4.28,0,0,1-3.78,2.23A7,7,0,0,1,174.1,184.16Z" transform="translate(-3.25 -1.45)"/><path class="cls-4" d="M164,223.68,175,230c7.21,4.14,7.21-8.42,0-12.59l-11-6.36Z" transform="translate(-3.25 -1.45)"/><path class="cls-2" d="M164,223.68h0Zm1.84-9.41v8.34l10.1,5.84c1.06.61,1.74.67,2,.5s.65-.91.65-2.09a9.58,9.58,0,0,0-4.49-7.82l-8.26-4.77Zm8.28,17.34-11-6.34a1.87,1.87,0,0,1-.9-1.59V211.09a1.81,1.81,0,0,1,.9-1.57,1.88,1.88,0,0,1,1.84,0l11,6.36a13.29,13.29,0,0,1,6.32,11c0,2.44-.9,4.36-2.48,5.27a4.27,4.27,0,0,1-2.17.57A6.83,6.83,0,0,1,174.13,231.61Z" transform="translate(-3.25 -1.45)"/><path class="cls-3" d="M58.27,28.06l6-3.48V11.84c0-4.86-3.4-10.52-9.2-10l-6,3.5c5.77-.55,9.2,5,9.2,10Z" transform="translate(-3.25 -1.45)"/><path class="cls-2" d="M62.46,23.52V11.84a9.37,9.37,0,0,0-2.75-6.67,5.32,5.32,0,0,0-4-1.5l-1.52.86a10.55,10.55,0,0,1,2,1.42,13,13,0,0,1,4,9.39v9.55l2.36-1.37Zm-5.09,6.13a1.81,1.81,0,0,1-.92-1.59l0-12.72a9.32,9.32,0,0,0-2.76-6.68,5.59,5.59,0,0,0-4.43-1.48,1.83,1.83,0,0,1-1.07-3.41l6-3.5A2,2,0,0,1,54.94,0a9.31,9.31,0,0,1,7.23,2.41,13,13,0,0,1,4,9.39l0,12.74a1.82,1.82,0,0,1-.92,1.58l-6,3.49a1.74,1.74,0,0,1-.92.25A1.72,1.72,0,0,1,57.37,29.65Z" transform="translate(-3.25 -1.45)"/><path class="cls-4" d="M58.27,28.06V15.34C58.27,7,47.37.72,47.37,9.05V21.78Z" transform="translate(-3.25 -1.45)"/><path class="cls-2" d="M50.18,7a.91.91,0,0,0-.41.1c-.28.15-.56.76-.56,2V20.72l7.24,4.17,0-9.55a9.58,9.58,0,0,0-4.52-7.8A3.8,3.8,0,0,0,50.18,7Zm7.19,22.69L46.45,23.37a1.85,1.85,0,0,1-.9-1.59V9.05c0-3.13,1.29-4.54,2.38-5.16,1.58-.92,3.7-.75,5.8.48a13.28,13.28,0,0,1,6.37,11V28.06a1.81,1.81,0,0,1-.92,1.59,1.74,1.74,0,0,1-.92.25A1.72,1.72,0,0,1,57.37,29.65Z" transform="translate(-3.25 -1.45)"/><path class="cls-3" d="M99.38,51.76l6-3.47V35.56c0-4.88-3.38-10.52-9.18-10l-6,3.48c5.76-.55,9.18,5,9.18,10Z" transform="translate(-3.25 -1.45)"/><path class="cls-2" d="M103.57,47.22V35.56a9.34,9.34,0,0,0-2.78-6.69,5.41,5.41,0,0,0-4-1.5l-1.52.88a9.37,9.37,0,0,1,2,1.4,13,13,0,0,1,4,9.39V48.6l2.37-1.38Zm-5.11,6.13a1.79,1.79,0,0,1-.93-1.59V39a9.43,9.43,0,0,0-2.75-6.68,5.67,5.67,0,0,0-4.43-1.48,1.79,1.79,0,0,1-1.92-1.26,1.82,1.82,0,0,1,.83-2.15l6-3.48a1.7,1.7,0,0,1,.75-.24,9.3,9.3,0,0,1,7.22,2.41,13,13,0,0,1,4,9.4V48.29a1.82,1.82,0,0,1-.92,1.59l-6,3.47a1.85,1.85,0,0,1-.92.25A1.74,1.74,0,0,1,98.46,53.35Z" transform="translate(-3.25 -1.45)"/><path class="cls-4" d="M99.38,51.76l0-12.72c0-8.31-10.88-14.6-10.88-6.29V45.49Z" transform="translate(-3.25 -1.45)"/><path class="cls-2" d="M91.28,30.68h0c-.23,0-1,0-1,2.07V44.43l7.21,4.17V39c0-4.57-4.13-8.36-6.25-8.36Zm7.18,22.67L87.57,47.08a1.84,1.84,0,0,1-.92-1.59V32.75c0-4.24,2.4-5.74,4.64-5.74h0c4.37,0,9.92,5.67,9.92,12V51.76a1.81,1.81,0,0,1-.9,1.59,1.85,1.85,0,0,1-.92.25A1.74,1.74,0,0,1,98.46,53.35Z" transform="translate(-3.25 -1.45)"/><path class="cls-3" d="M221.76,372c0,9.2.61,14.46-4.54,22.57-13.31,19.23-43.86,26.27-65.65,26.54-22.08.27-51.73-5.87-66.56-23.35a28.65,28.65,0,0,1-7.26-17.37v-8.59c.6,7.68,3.63,13.49,8.77,19.15,16.64,17.51,48.41,22.87,71.7,21.29,20-1.38,46.9-8.77,59-26.26A28.67,28.67,0,0,0,221.76,372Z" transform="translate(-3.25 -1.45)"/><path class="cls-2" d="M95,402.36c15.43,11.48,39,15.55,56.27,15.25s39.64-4.66,54.15-15.83c-13.61,8.76-31.77,13-46.9,14.05C139.77,417.15,113.75,414,95,402.36Zm55.06,22.36c-22.1,0-52.34-6.41-67.77-24.63a32.11,32.11,0,0,1-8.17-19.51v-8.74a3.55,3.55,0,0,1,3.33-3.57c1.81-.28,3.63,1.36,3.93,3.3.3,6.56,2.72,11.61,7.86,17,15.43,16.15,45.69,21.81,68.69,20.17,20-1.35,45.37-8.55,56.27-24.68a28,28,0,0,0,4.23-12.28,3.2,3.2,0,0,1,3.64-3.27,3.59,3.59,0,0,1,3.32,3.56v2.49c0,8,.3,13.82-5.44,22.09-13.62,20.26-45.39,27.8-68.38,28.1Z" transform="translate(-3.25 -1.45)"/><path class="cls-3" d="M113.75,407C79.26,395.49,67.46,370,87.44,350.12s64.13-26.75,98.32-15.22c34.49,11.47,46.59,36.94,26.62,56.84S148.24,418.48,113.75,407Z" transform="translate(-3.25 -1.45)"/><path class="cls-2" d="M149.76,332.84c-23.9,0-47.19,7.08-59.91,19.78-6.95,7.18-10,15.13-7.86,23.09,2.72,11.46,14.82,21.91,33,27.9h0c33.28,11.06,76,4.66,94.7-14.38,7.26-7.17,10-15.13,8.17-23.08-2.73-11.47-15.13-21.91-33-27.9a113,113,0,0,0-35.08-5.41Zm-.31,83.22a119.47,119.47,0,0,1-36.91-5.71h0C92,403.49,78.35,391.44,75,377.34c-2.72-10.32.9-20.87,10-29.74,20.58-20.76,66.56-28,102-16.08,20.57,6.85,34.48,18.92,37.82,33,2.42,10.34-1.21,20.87-10,29.73C200.89,408.23,175.47,416.06,149.45,416.06Z" transform="translate(-3.25 -1.45)"/><polygon class="cls-3" points="105.96 383.55 96.28 377.95 96.28 351.35 105.96 356.95 105.96 383.55"/><path class="cls-2" d="M102.87,377.38l2.72,1.44V360.43L102.87,359v18.4Zm6.34,11.16a4,4,0,0,1-1.81-.46l-9.68-5.59a3.36,3.36,0,0,1-1.82-3.09V352.8a3.31,3.31,0,0,1,1.82-3.05,3.55,3.55,0,0,1,3.62,0l9.39,5.57a3.37,3.37,0,0,1,1.81,3.09V385a3.37,3.37,0,0,1-1.81,3.08A2.25,2.25,0,0,1,109.21,388.54Z" transform="translate(-3.25 -1.45)"/><polygon class="cls-4" points="105.96 356.95 170.4 319.77 170.4 346.36 105.96 383.55 105.96 356.95"/><path class="cls-2" d="M112.54,360.43v18.42L170,345.76v-18.4l-57.49,33.07Zm-3.33,28.11a4,4,0,0,1-1.81-.46,3.37,3.37,0,0,1-1.81-3.08V358.41a3.37,3.37,0,0,1,1.81-3.09l64.44-37.18a3.66,3.66,0,0,1,3.63,0,3.77,3.77,0,0,1,1.51,3.08v26.59a3.78,3.78,0,0,1-1.51,3.09l-64.74,37.18A2.25,2.25,0,0,1,109.21,388.54Z" transform="translate(-3.25 -1.45)"/><path class="cls-4" d="M17.85,411.86l-9.08-5.3c-4.23-3.53-4.53-5.74-5.15-11.18V226.87c1.21-12.57,6.66-22.67,17.56-30.08L262.3,57.56c5.14-2.3,7.26-3.18,12.41-1.18l9.07,5.27c-5.15-2-7.26-1.1-12.1,1.17L30.26,202.09c-10.9,7.4-16.35,17.08-17.56,30V400.64C13.31,406.08,13.61,408.29,17.85,411.86Z" transform="translate(-3.25 -1.45)"/><path class="cls-2" d="M269.87,58.77c-1.52,0-3,.67-6.05,2L22.69,199.9c-9.38,6.57-14.53,15.53-15.43,27.26V395.38c.31,3.77.31,5.2,2.12,7,0-.45-.3-.91-.3-1.38V232.12c1.2-14.25,7.56-25,19.06-33L269.87,59.74c.59-.28.9-.51,1.51-.76a5,5,0,0,0-1.51-.21Zm-252,356.67A4.14,4.14,0,0,1,16,415L7,409.65C.9,404.81.6,401.19,0,395.71V226.87q1.82-21.12,19.06-33L260.48,54.47c5.75-2.66,9.08-3.84,15.43-1.42l9.68,5.51a3.91,3.91,0,0,1,1.52,4.6A3.75,3.75,0,0,1,282.57,65c-3.94-1.48-4.85-1-9.38,1.09L31.76,205.17c-9.37,6.65-14.52,15.37-15.43,27.26V400.64c.31,4.75.61,5.81,3.64,8.47a3.69,3.69,0,0,1,.9,4.79A3.93,3.93,0,0,1,17.85,415.44Z" transform="translate(-3.25 -1.45)"/><path class="cls-4" d="M30.26,202.09,271.68,62.82c9.37-5.5,17.24-1,17.24,10V241.35c0,11-7.87,24.57-17.54,30.07L30,410.68c-9.38,5.51-17.25,1-17.25-10V232.12C12.7,221.11,20.57,207.59,30.26,202.09Z" transform="translate(-3.25 -1.45)"/><path class="cls-2" d="M31.76,205.17c-8.17,4.87-15.43,17.21-15.43,27V400.64c0,4,1.22,6.93,3.34,8.14s5.14.79,8.47-1.18L269.87,268.34c8.46-4.87,15.42-17.21,15.42-27V72.86c0-4-1.21-6.92-3.32-8.13s-5.14-.82-8.48,1.18L31.76,205.17ZM22.39,416.58A12.14,12.14,0,0,1,16,415c-4.54-2.58-7-7.65-7-14.31V232.12c0-12.37,8.47-26.92,19.35-33.12h0L269.87,59.74c5.74-3.34,11.18-3.72,15.72-1.18s7,7.65,7,14.3V241.35c-.31,12.41-8.48,27-19.37,33.16L31.76,413.77A19,19,0,0,1,22.39,416.58Z" transform="translate(-3.25 -1.45)"/><path class="cls-3" d="M392.39,420.76v10.95c-.9,3.27-3,5.17-6,6.9L184.24,555.27c-8.77,4.81-21.18,4.78-30,0l-69-40.12c-3-1.72-5.14-3.63-6-6.9V497.33c.91,3.27,3,5.17,6,6.9l69,40.12c8.77,4.81,21.18,4.81,30,0L386.35,427.69C389.37,426,391.49,424.05,392.39,420.76Z" transform="translate(-3.25 -1.45)"/><path class="cls-2" d="M82.9,507.68c.6,1.72,1.81,3,4.23,4.44l69,40.06a29.56,29.56,0,0,0,26.63,0L384.82,435.52c2.13-1.45,3.34-2.69,3.94-4.39v-.75c0,.09-.3.24-.6.33L186.06,547.43c-10,5.45-23.59,5.41-33.28,0L83.5,507.32c-.31-.15-.6-.25-.6-.4v.76Zm86.52,54.76a35.2,35.2,0,0,1-16.64-4.05L83.5,518.23c-3-1.84-6.36-4.29-7.87-9V497.33a3.46,3.46,0,0,1,3-3.51,3.57,3.57,0,0,1,3.94,2.51c.6,2,1.82,3.21,4.54,4.88l69,40.05c7.57,4.17,18.77,4.17,26.63,0L384.82,424.6c2.42-1.58,3.64-2.87,4.24-4.84a3.56,3.56,0,0,1,7,1v10.95a1.23,1.23,0,0,1-.31,1c-1.21,4.7-4.54,7.18-7.56,9L186.06,558.34A33.83,33.83,0,0,1,169.42,562.44Z" transform="translate(-3.25 -1.45)"/><path class="cls-4" d="M85.31,486.9l201.8-116.7c8.47-4.75,21.78-4.72,30.25,0l69,40.11c8.45,4.75,8.45,12.56,0,17.34L184.24,544.35c-8.16,4.74-21.47,4.74-30,0l-69-40.12C76.84,499.45,76.84,491.67,85.31,486.9Z" transform="translate(-3.25 -1.45)"/><path class="cls-2" d="M302.24,370.2a27.75,27.75,0,0,0-13.32,3.09L86.83,490h0c-2.73,1.63-4.24,3.66-4.24,5.57s1.51,4,4.24,5.59l69.27,40.12c7.27,4.14,19.37,4.14,26.63,0L384.82,424.6c2.73-1.63,4.24-3.66,4.24-5.6s-1.51-4-4.24-5.57l-69.27-40.11a27.41,27.41,0,0,0-13.31-3.12ZM169.42,551.51c-6,0-12.1-1.35-16.64-4.08L83.5,507.32c-5.15-2.94-8.17-7.24-8.17-11.77s3-8.74,8.17-11.72L285.29,367.15c9.69-5.45,24.21-5.45,33.58,0l69.29,40.11c5.14,2.94,8.16,7.2,8.16,11.74s-3,8.84-8.16,11.74L186.06,547.43C181.52,550.16,175.47,551.51,169.42,551.51Z" transform="translate(-3.25 -1.45)"/><path class="cls-3" d="M18.75,213.72l-9.07-5.26c-3.94,5.91-5.44,11.47-6.06,18.41V395.38c.62,5.44.92,7.65,5.15,11.18l9.08,5.3c-4.24-3.57-4.54-5.78-5.15-11.22V232.12C13.31,225.23,14.82,219.66,18.75,213.72Z" transform="translate(-3.25 -1.45)"/><path class="cls-2" d="M10.88,213.3a32.33,32.33,0,0,0-3.62,13.86V395.38c.31,3.75.31,5.2,2.12,7,0-.45-.3-.91-.3-1.38V232.12A41.21,41.21,0,0,1,13.91,215l-3-1.74Zm7,202.14A4.14,4.14,0,0,1,16,415L7,409.65C1.21,405,.6,401.67,0,395.71V226.87c.9-8.43,2.72-14.41,6.66-20.34a3.62,3.62,0,0,1,4.83-1.15l9.08,5.29a2.6,2.6,0,0,1,1.51,2.24,3,3,0,0,1-.3,2.79c-3.33,4.93-4.84,9.8-5.45,16.73V400.64c.31,4.75.61,5.81,3.64,8.47a3.69,3.69,0,0,1,.9,4.79A3.93,3.93,0,0,1,17.85,415.44Z" transform="translate(-3.25 -1.45)"/><path class="cls-1" d="M180.62,479.09l10-5.85a8.58,8.58,0,0,1,7.56,0l10,5.85c2.12,1.18,2.12,3.11,0,4.27l-10,5.87a8.78,8.78,0,0,1-7.56,0l-10-5.87C178.5,482.17,178.5,480.27,180.62,479.09Z" transform="translate(-3.25 -1.45)"/><path class="cls-2" d="M180.62,479.09l1.5,3.14.31-.09-1.81-3.05Zm3.33,2.14,8.46,4.91a5,5,0,0,0,3.94,0l8.46-4.91-8.46-4.9a5.08,5.08,0,0,0-3.94,0l-8.46,4.9Zm10.58,12.41a12.37,12.37,0,0,1-5.75-1.36l-10-5.84a5.76,5.76,0,0,1,0-10.44l10.28-5.84a11.61,11.61,0,0,1,10.9,0L210,476a5.77,5.77,0,0,1,0,10.44l-10.3,5.84A10,10,0,0,1,194.53,493.64Z" transform="translate(-3.25 -1.45)"/><path class="cls-1" d="M141,502l-10.29,5.83c-1.81,1.18-1.81,3.09,0,4.27L141,518a7.76,7.76,0,0,0,7.26,0l10-5.82c2.13-1.17,2.13-3.07,0-4.3l-10-5.83A7.88,7.88,0,0,0,141,502Z" transform="translate(-3.25 -1.45)"/><path class="cls-2" d="M134,510l8.47,4.89a4.89,4.89,0,0,0,3.93,0L154.9,510l-8.48-4.91a5,5,0,0,0-3.93,0h0L134,510Zm10.59,12.4a10.33,10.33,0,0,1-5.44-1.33l-10.29-5.87a6,6,0,0,1-3.33-5.23,6,6,0,0,1,3.33-5.17l10.29-5.88a11.54,11.54,0,0,1,10.89,0l10,5.88a5.73,5.73,0,0,1,0,10.4l-10,5.84A10.89,10.89,0,0,1,144.61,522.41Z" transform="translate(-3.25 -1.45)"/><path class="cls-1" d="M165.79,516.42l-10.29,5.84a2.38,2.38,0,0,0,0,4.3l10.29,5.84a7.94,7.94,0,0,0,7.26,0l10.29-5.84c1.81-1.18,1.81-3.12,0-4.27l-10.29-5.87A7.88,7.88,0,0,0,165.79,516.42Z" transform="translate(-3.25 -1.45)"/><path class="cls-2" d="M159.13,524.41l8.47,4.9a5,5,0,0,0,3.94,0l8.16-4.9-8.16-4.9a5.07,5.07,0,0,0-3.94,0l-8.47,4.9Zm10.29,12.43a11.52,11.52,0,0,1-5.45-1.36l-10.28-5.87a6.38,6.38,0,0,1-3-5.2,6.46,6.46,0,0,1,3-5.24L164,513.34h0a11.73,11.73,0,0,1,10.9,0l10.28,5.87a5.75,5.75,0,0,1,0,10.44l-10.28,5.83A10.66,10.66,0,0,1,169.42,536.84Z" transform="translate(-3.25 -1.45)"/><path class="cls-1" d="M148.24,489.19l10-5.83c2.13-1.19,2.13-3.09,0-4.27l-10-5.87a7.88,7.88,0,0,0-7.26,0l-10.29,5.87c-1.81,1.14-1.81,3.05,0,4.27L141,489.19A7.88,7.88,0,0,0,148.24,489.19Z" transform="translate(-3.25 -1.45)"/><path class="cls-2" d="M134,481.21l8.78,4.89a4.11,4.11,0,0,0,3.62,0l8.48-4.87-8.48-4.92a4.18,4.18,0,0,0-3.62,0l-8.78,4.9Zm10.59,12.39a10.33,10.33,0,0,1-5.44-1.32l-10.29-5.87a5.73,5.73,0,0,1,0-10.41l10.29-5.84a11.49,11.49,0,0,1,10.89,0L160,476a5.76,5.76,0,0,1,0,10.44l-10,5.84h0A11.18,11.18,0,0,1,144.61,493.6Z" transform="translate(-3.25 -1.45)"/><path class="cls-1" d="M173.36,474.82l10-5.87c2.12-1.17,2.12-3.08,0-4.26l-10-5.84a8.54,8.54,0,0,0-7.57,0l-10.29,5.84c-1.81,1.15-1.81,3.09,0,4.26l10.29,5.87A8.74,8.74,0,0,0,173.36,474.82Z" transform="translate(-3.25 -1.45)"/><path class="cls-2" d="M159.13,466.81l8.47,4.93a5.26,5.26,0,0,0,3.94,0l8.16-4.9-8.16-4.94a5,5,0,0,0-3.94,0l-8.47,4.91Zm10.29,12.43a11.08,11.08,0,0,1-5.45-1.37L154,472a6.12,6.12,0,0,1-3.32-5.23,6.05,6.05,0,0,1,3.32-5.2l10-5.85a11.61,11.61,0,0,1,10.9,0l10.28,5.85a5.74,5.74,0,0,1,0,10.43l-10.28,5.83h0A10.28,10.28,0,0,1,169.42,479.24Z" transform="translate(-3.25 -1.45)"/><path class="cls-1" d="M133.42,497.72l-10,5.87a8.45,8.45,0,0,1-7.56,0l-10-5.87c-2.11-1.18-2.11-3.09,0-4.26l10-5.84a8.52,8.52,0,0,1,7.56,0l10,5.84C135.53,494.63,135.53,496.58,133.42,497.72Z" transform="translate(-3.25 -1.45)"/><path class="cls-2" d="M133.42,497.72l-1.52-3.12s0,0-.3.1l1.82,3-1.82-3,1.82,3Zm-24.21-2.11,8.47,4.9a5,5,0,0,0,3.94,0l8.47-4.9-8.47-4.9a4.91,4.91,0,0,0-3.94,0l-8.47,4.9Zm10.3,12.4a11.13,11.13,0,0,1-5.45-1.36l-10-5.85a6,6,0,0,1-3.33-5.19,6.1,6.1,0,0,1,3.33-5.24l10-5.84a12.3,12.3,0,0,1,11.19,0l10,5.84a6.13,6.13,0,0,1,3.33,5.24,6,6,0,0,1-3.33,5.19h0l-10,5.85A12.36,12.36,0,0,1,119.51,508Z" transform="translate(-3.25 -1.45)"/><path class="cls-1" d="M155.5,493.46l10.29-5.84a8.63,8.63,0,0,1,7.57,0l10,5.87c2.12,1.18,2.12,3.09,0,4.27l-10,5.83a8.47,8.47,0,0,1-7.57,0l-10.29-5.83A2.38,2.38,0,0,1,155.5,493.46Z" transform="translate(-3.25 -1.45)"/><path class="cls-2" d="M155.5,493.46h0Zm0,0,1.82,3.17v-.12l-1.82-3.05Zm3.63,2.15,8.47,4.93a5.25,5.25,0,0,0,3.94,0l8.16-4.93-8.16-4.9a4.91,4.91,0,0,0-3.94,0l-8.47,4.9ZM169.42,508a11.18,11.18,0,0,1-5.45-1.36l-10.28-5.84a6.5,6.5,0,0,1-3-5.23,6.37,6.37,0,0,1,3-5.21L164,484.53a11.79,11.79,0,0,1,10.9,0l10.28,5.87a5.75,5.75,0,0,1,0,10.44l-10.28,5.84A10.37,10.37,0,0,1,169.42,508Z" transform="translate(-3.25 -1.45)"/><path class="cls-1" d="M230.53,450.31l10-5.87a8.52,8.52,0,0,1,7.56,0l10,5.87c2.11,1.18,2.11,3.09,0,4.27l-10.28,5.84a7.82,7.82,0,0,1-7.26,0l-10-5.84C228.41,453.4,228.41,451.47,230.53,450.31Z" transform="translate(-3.25 -1.45)"/><path class="cls-2" d="M230.53,450.31l1.51,3.16v-.09l-1.51-3.07Zm3.33,2.12,8.47,4.91a4.9,4.9,0,0,0,3.94,0l8.47-4.91-8.47-4.9a4.91,4.91,0,0,0-3.94,0l-8.47,4.9Zm10.29,12.44a11.3,11.3,0,0,1-5.45-1.36l-10-5.88a5.73,5.73,0,0,1,0-10.4l10-5.84a11.63,11.63,0,0,1,10.89,0l10.29,5.87a5.76,5.76,0,0,1,0,10.44l-10.29,5.84A10.43,10.43,0,0,1,244.15,464.87Z" transform="translate(-3.25 -1.45)"/><path class="cls-1" d="M255.34,464.72l10-5.87a8.61,8.61,0,0,1,7.56,0l10,5.84c2.12,1.18,2.12,3.08,0,4.26l-10,5.84a8.52,8.52,0,0,1-7.56,0l-10-5.84C253.23,467.8,253.23,465.9,255.34,464.72Z" transform="translate(-3.25 -1.45)"/><path class="cls-2" d="M255.34,464.72l1.81,3.12v-.06l-1.81-3.06,1.81,3.06-1.81-3.06Zm3.33,2.12,8.47,4.92a5,5,0,0,0,3.94,0l8.47-4.9-8.47-4.93a5.08,5.08,0,0,0-3.94,0l-8.47,4.91Zm10.59,12.43a12.49,12.49,0,0,1-5.75-1.36l-10-5.84a5.76,5.76,0,0,1,0-10.44h0l10-5.84a12.23,12.23,0,0,1,11.2,0l10,5.84a5.76,5.76,0,0,1,0,10.44l-10,5.84A11.3,11.3,0,0,1,269.26,479.27Z" transform="translate(-3.25 -1.45)"/><path class="cls-1" d="M198.16,460.42l10-5.84c2.12-1.2,2.12-3.11,0-4.29l-10-5.85a7.86,7.86,0,0,0-7.25,0l-10.29,5.85c-2.12,1.18-2.12,3.09,0,4.26l10,5.87A8.71,8.71,0,0,0,198.16,460.42Z" transform="translate(-3.25 -1.45)"/><path class="cls-2" d="M184,452.43l8.46,4.91a5.17,5.17,0,0,0,3.94,0l8.46-4.91-8.46-4.9a4.9,4.9,0,0,0-3.94,0l-8.46,4.9Zm10.58,12.41a10.4,10.4,0,0,1-5.45-1.36l-10.28-5.85a5.75,5.75,0,0,1,0-10.43l10.28-5.84a11.67,11.67,0,0,1,10.9,0l10,5.87a5.74,5.74,0,0,1,0,10.4l-10,5.88h0A12.42,12.42,0,0,1,194.53,464.84Z" transform="translate(-3.25 -1.45)"/><path class="cls-1" d="M223,446l10.3-5.84c1.82-1.19,1.82-3.12,0-4.27L223,430.08a8,8,0,0,0-7.25,0l-10.29,5.84c-1.81,1.18-1.81,3.11,0,4.3L215.71,446A7.87,7.87,0,0,0,223,446Z" transform="translate(-3.25 -1.45)"/><path class="cls-2" d="M209.06,438l8.16,4.9a4.87,4.87,0,0,0,3.93,0l8.48-4.87-8.48-4.93a5.22,5.22,0,0,0-3.93,0l-8.16,4.9Zm10.28,12.41a10.37,10.37,0,0,1-5.45-1.33l-10.28-5.85a5.74,5.74,0,0,1,0-10.43L213.89,427a11.56,11.56,0,0,1,10.9,0l10.29,5.84a5.76,5.76,0,0,1,0,10.43l-10.29,5.85h0A11.19,11.19,0,0,1,219.34,450.44Z" transform="translate(-3.25 -1.45)"/><path class="cls-1" d="M205.42,464.69l10.29-5.84a7.87,7.87,0,0,1,7.25,0l10.3,5.87c1.82,1.18,1.82,3.08,0,4.26L223,474.82a7.87,7.87,0,0,1-7.25,0L205.42,469C203.3,467.78,203.3,465.87,205.42,464.69Z" transform="translate(-3.25 -1.45)"/><path class="cls-2" d="M205.42,464.69h0Zm0,0,1.82,3.15v-.1l-1.82-3.05Zm3.64,2.15,8.16,4.9a5,5,0,0,0,3.93,0l8.48-4.9-8.48-4.91a4.83,4.83,0,0,0-3.93,0l-8.16,4.91Zm10.28,12.4a10.1,10.1,0,0,1-5.45-1.37L203.61,472a5.73,5.73,0,0,1,0-10.41l10.28-5.87a11.62,11.62,0,0,1,10.9,0l10.29,5.84a6.06,6.06,0,0,1,3.32,5.21,6.15,6.15,0,0,1-3.32,5.23l-10.29,5.8A10.9,10.9,0,0,1,219.34,479.24Z" transform="translate(-3.25 -1.45)"/><path class="cls-1" d="M180.62,507.85l59.9-34.61a7.94,7.94,0,0,1,7.26,0l10.28,5.85c2.11,1.2,2.11,3.11,0,4.29L198.16,518a8.52,8.52,0,0,1-7.56,0l-10-5.84C178.5,511,178.5,509.08,180.62,507.85Z" transform="translate(-3.25 -1.45)"/><path class="cls-2" d="M180.62,507.85l1.5,3.16s0,0,.31-.09l-1.81-3.07,1.81,3.07-1.81-3.07ZM184,510l8.46,4.89a4.91,4.91,0,0,0,3.94,0l58.39-33.67-8.47-4.9a5.07,5.07,0,0,0-3.94,0L184,510Zm10.58,12.44a12.38,12.38,0,0,1-5.75-1.37l-10-5.87a6,6,0,0,1-3.33-5.17,6,6,0,0,1,3.33-5.23h0l59.9-34.65a11.71,11.71,0,0,1,10.89,0L259.88,476a5.76,5.76,0,0,1,0,10.44l-60.21,34.61A10,10,0,0,1,194.53,522.45Z" transform="translate(-3.25 -1.45)"/><path class="cls-1" d="M313.13,402.43l10.28-5.85a8,8,0,0,1,7.26,0L341,402.45c2.12,1.16,2.12,3.09,0,4.27l-10.29,5.84a7.88,7.88,0,0,1-7.26,0l-10.28-5.86C311.31,405.51,311.31,403.61,313.13,402.43Z" transform="translate(-3.25 -1.45)"/><path class="cls-2" d="M313.13,402.43h0Zm0,0,1.81,3.14v-.09l-1.81-3.05Zm3.62,2.14,8.48,4.9a4.1,4.1,0,0,0,3.63,0l8.47-4.9-8.47-4.9a4.27,4.27,0,0,0-3.63,0l-8.48,4.9ZM327.05,417a10.66,10.66,0,0,1-5.45-1.34l-10.29-5.86a6.42,6.42,0,0,1-3-5.21,6.09,6.09,0,0,1,3.32-5.23l10-5.84a11.61,11.61,0,0,1,10.88,0l10.29,5.86a6,6,0,0,1,0,10.42l-10.29,5.83A11.09,11.09,0,0,1,327.05,417Z" transform="translate(-3.25 -1.45)"/><path class="cls-1" d="M338.23,416.83l10-5.84a8.54,8.54,0,0,1,7.57,0l10,5.87c2.12,1.18,2.12,3.08,0,4.26l-10,5.84a8.54,8.54,0,0,1-7.57,0l-10-5.84C336.13,419.91,336.13,418,338.23,416.83Z" transform="translate(-3.25 -1.45)"/><path class="cls-2" d="M338.23,416.83l1.52,3.14s.3-.06.3-.09l-1.82-3.05,1.82,3.05-1.82-3.05Zm3.33,2.14,8.47,4.9a4.91,4.91,0,0,0,3.94,0l8.47-4.9-8.47-4.9a5.13,5.13,0,0,0-3.94,0l-8.47,4.9Zm10.29,12.44a10.83,10.83,0,0,1-5.44-1.39l-10-5.84a5.73,5.73,0,0,1,0-10.41h0l10-5.87a12.39,12.39,0,0,1,11.19,0l10,5.87a5.75,5.75,0,0,1,0,10.43L357.3,430A10.28,10.28,0,0,1,351.85,431.41Z" transform="translate(-3.25 -1.45)"/><path class="cls-1" d="M305.86,398.16l10-5.84c2.12-1.18,2.12-3.11,0-4.27l-10-5.87a7.88,7.88,0,0,0-7.26,0L288.32,388c-2.13,1.19-2.13,3.12,0,4.3l10.28,5.84A7.88,7.88,0,0,0,305.86,398.16Z" transform="translate(-3.25 -1.45)"/><path class="cls-2" d="M291.65,390.17l8.78,4.9a4.18,4.18,0,0,0,3.62,0l8.47-4.9-8.47-4.9a4.25,4.25,0,0,0-3.62,0l-8.78,4.9Zm10.59,12.41a10.82,10.82,0,0,1-5.46-1.33l-10.28-5.87a5.76,5.76,0,0,1,0-10.44l10.28-5.85a11.79,11.79,0,0,1,10.9,0l10,5.88a6,6,0,0,1,3.32,5.2,6.07,6.07,0,0,1-3.32,5.21l-10,5.83v0A11.58,11.58,0,0,1,302.24,402.58Z" transform="translate(-3.25 -1.45)"/><path class="cls-1" d="M288.32,416.83,298.6,411a7.88,7.88,0,0,1,7.26,0l10,5.84c2.12,1.21,2.12,3.08,0,4.29l-10,5.81a7.71,7.71,0,0,1-7.26,0l-10.28-5.84C286.19,419.91,286.19,418,288.32,416.83Z" transform="translate(-3.25 -1.45)"/><path class="cls-2" d="M288.32,416.83l1.81,3.14v-.09l-1.81-3.05Zm3.33,2.11,8.78,4.93a4.18,4.18,0,0,0,3.62,0l8.47-4.9-8.47-4.9a4.14,4.14,0,0,0-3.62,0l-8.78,4.87Zm10.59,12.44a10.16,10.16,0,0,1-5.46-1.36l-10.28-5.84a6.08,6.08,0,0,1-3.33-5.24,6,6,0,0,1,3.33-5.17l10.28-5.87a11.56,11.56,0,0,1,10.9,0l10,5.87a5.74,5.74,0,0,1,0,10.41l-10,5.84A10.83,10.83,0,0,1,302.24,431.38Z" transform="translate(-3.25 -1.45)"/><path class="cls-1" d="M313.13,431.22l10.28-5.83a7.82,7.82,0,0,1,7.26,0L341,431.22c2.12,1.19,2.12,3.12,0,4.3l-10.29,5.84a7.88,7.88,0,0,1-7.26,0l-10.28-5.86C311.31,434.34,311.31,432.41,313.13,431.22Z" transform="translate(-3.25 -1.45)"/><path class="cls-2" d="M313.13,431.22h0Zm0,0,1.81,3.15v-.09l-1.81-3.06Zm3.62,2.16,8.48,4.89a4.2,4.2,0,0,0,3.63,0l8.47-4.89-8.47-4.91a4.27,4.27,0,0,0-3.63,0l-8.48,4.91Zm10.3,12.43a10.67,10.67,0,0,1-5.45-1.37l-10.29-5.86a5.75,5.75,0,0,1-3-5.24,6.06,6.06,0,0,1,3.32-5.2l10-5.84a11.75,11.75,0,0,1,10.88,0l10.29,5.88a6.29,6.29,0,0,1,3,5.2,6.45,6.45,0,0,1-3,5.23l-10.29,5.83A11.42,11.42,0,0,1,327.05,445.81Z" transform="translate(-3.25 -1.45)"/><path class="cls-1" d="M256,426.93l10.28-5.84c1.81-1.18,1.81-3.09,0-4.26L256,411a8,8,0,0,0-7.27,0l-10.28,5.87c-1.81,1.14-1.81,3.08,0,4.26l10.28,5.84A7.9,7.9,0,0,0,256,426.93Z" transform="translate(-3.25 -1.45)"/><path class="cls-2" d="M242,418.94l8.48,4.93a4.42,4.42,0,0,0,3.63,0l8.47-4.93-8.47-4.9a4.27,4.27,0,0,0-3.63,0l-8.48,4.9Zm13.93,8h0Zm-3.64,4.45a11.29,11.29,0,0,1-5.44-1.36l-10-5.88a5.73,5.73,0,0,1,0-10.4l10-5.84a11.54,11.54,0,0,1,10.89,0L268,413.74a5.75,5.75,0,0,1,0,10.44L257.76,430h0A10.47,10.47,0,0,1,252.31,431.38Z" transform="translate(-3.25 -1.45)"/><path class="cls-1" d="M280.75,412.56,291,406.7c2.12-1.19,2.12-3.09,0-4.27l-10-5.85a8.58,8.58,0,0,0-7.56,0l-10,5.85c-2.12,1.18-2.12,3.08,0,4.27l10,5.86A8.13,8.13,0,0,0,280.75,412.56Z" transform="translate(-3.25 -1.45)"/><path class="cls-2" d="M266.84,404.57l8.47,4.9a5,5,0,0,0,3.93,0l8.47-4.9-8.47-4.9a5,5,0,0,0-3.93,0l-8.47,4.9Zm13.91,8h0ZM277.43,417a12.35,12.35,0,0,1-5.75-1.37l-10-5.83a5.76,5.76,0,0,1,0-10.44l10-5.84a11.62,11.62,0,0,1,10.89,0l10.29,5.84a6.11,6.11,0,0,1,3.32,5.23,6,6,0,0,1-3.32,5.21l-10.29,5.83h0A10.07,10.07,0,0,1,277.43,417Z" transform="translate(-3.25 -1.45)"/><path class="cls-1" d="M263.51,431.22l10-5.83a7.82,7.82,0,0,1,7.26,0L291,431.22c2.12,1.19,2.12,3.12,0,4.28l-10.29,5.86a8,8,0,0,1-7.26,0l-10-5.83C261.39,434.31,261.39,432.41,263.51,431.22Z" transform="translate(-3.25 -1.45)"/><path class="cls-2" d="M263.51,431.22l1.51,3.15v-.09l-1.51-3.06Zm3.33,2.12,8.47,4.93a5.15,5.15,0,0,0,3.93,0l8.47-4.89-8.47-4.93a5.06,5.06,0,0,0-3.93,0l-8.47,4.87Zm10.59,12.44a11.62,11.62,0,0,1-5.75-1.36l-10-5.84a5.76,5.76,0,0,1,0-10.44l10-5.84a11.65,11.65,0,0,1,10.89,0l10.29,5.84a5.76,5.76,0,0,1,0,10.44l-10.29,5.84A10.16,10.16,0,0,1,277.43,445.78Z" transform="translate(-3.25 -1.45)"/><path class="cls-1" d="M288.32,445.62l10.28-5.83a7.88,7.88,0,0,1,7.26,0l10,5.83c2.12,1.18,2.12,3.09,0,4.27l-10,5.84a7.71,7.71,0,0,1-7.26,0l-10.28-5.84C286.19,448.71,286.19,446.8,288.32,445.62Z" transform="translate(-3.25 -1.45)"/><path class="cls-2" d="M288.32,445.62l1.81,3.15v-.08l-1.81-3.07,1.81,3.07-1.81-3.07Zm3.33,2.13,8.78,4.92a4.47,4.47,0,0,0,3.62,0l8.47-4.89-8.47-4.9a4.18,4.18,0,0,0-3.62,0l-8.78,4.87Zm10.59,12.43a10.44,10.44,0,0,1-5.46-1.37L286.5,453a5.76,5.76,0,0,1,0-10.44h0l10.28-5.84a11.7,11.7,0,0,1,10.9,0l10,5.87a6,6,0,0,1,3.32,5.18,6.08,6.08,0,0,1-3.32,5.23l-10,5.83A11.15,11.15,0,0,1,302.24,460.18Z" transform="translate(-3.25 -1.45)"/><path class="cls-1" d="M31.46,215.33,270.16,77.49C274.71,75,278,77,278,82V244.29c0,5-3.32,11-7.87,13.46l-239,137.84c-4.24,2.45-7.57.45-7.57-4.51V228.82C23.59,223.83,27.23,217.78,31.46,215.33Z" transform="translate(-3.25 -1.45)"/><path class="cls-2" d="M273.8,80a4.61,4.61,0,0,0-1.82.58L33.28,218.39h0c-3.33,1.85-6.05,6.72-6.05,10.43V391.08a6.19,6.19,0,0,0,.3,2c.3.09.9.09,2.11-.54L268.35,254.66c3.33-1.82,6.06-6.68,6.06-10.37L274.71,82a3.52,3.52,0,0,0-.61-2l-.3,0Zm-246,320.18a6.72,6.72,0,0,1-3.63-1c-2.72-1.49-4.23-4.45-4.23-8.11V228.82c0-6.2,4.23-13.49,9.67-16.57l239-137.85a9.12,9.12,0,0,1,9.07-.54c2.43,1.52,3.94,4.48,3.94,8.15V244.29c0,6.2-4.23,13.46-9.68,16.54L33,398.64A10.76,10.76,0,0,1,27.83,400.18Z" transform="translate(-3.25 -1.45)"/><path class="cls-3" d="M351.54,328.8C348.86,334,348,348.55,353,356c14.88,21.72,75.59,49.8,101.77,31.07a23.1,23.1,0,0,0,8.93-12.34c1.78-6.45.29-13-.89-17.58-1.79,8.44-7.74,13.46-15.18,17.09C402.72,388.61,398,359.69,362.55,346,355.7,340.78,352.73,337.87,351.54,328.8Z" transform="translate(-3.25 -1.45)"/><path class="cls-2" d="M353,342.08c0,4.38.9,8.92,3,11.89,8.33,12.43,36.61,29.65,63.38,34.43,14.29,2.59,25.89,1.12,33.33-4.24a19.79,19.79,0,0,0,7.74-10.4,28.86,28.86,0,0,0,.59-5.06,38.13,38.13,0,0,1-11.6,8.71c-31.85,10.2-45.24.16-60.41-11.49-8-6-16.07-12.11-27.67-16.61a7.08,7.08,0,0,1-.89-.49,34.37,34.37,0,0,1-7.45-6.74Zm79.16,54.67a81.44,81.44,0,0,1-14-1.34C392,390.73,360.76,373.6,350.05,358c-6.25-9-4.46-25.09-1.49-30.86a3.21,3.21,0,0,1,3.57-1.89,3.83,3.83,0,0,1,3,3.09c.89,7.78,3,9.92,8.92,14.46,12.5,4.87,21.43,11.53,29.17,17.4,14.88,11.32,25.59,19.49,53.56,10.62,7.43-3.75,11.3-8.29,12.5-14.43a3.59,3.59,0,0,1,3.57-2.85,3.24,3.24,0,0,1,3.27,2.72c1.19,4.91,3,12.11.9,19.4a24.7,24.7,0,0,1-10.12,14.25C450.63,394.44,442.29,396.75,432.18,396.75Z" transform="translate(-3.25 -1.45)"/><path class="cls-4" d="M349.45,336.43c-1.78,23.55,27.68,14.21,40.17,30.67,14.29,18.64,50.29,25.08,67.85,10.23a16.54,16.54,0,0,0,6.25-15.1c-.3-5-2.68-10.23-5.66-15.41-8-12.76-21.72-27.28-40.47-35.64-9.22-4.16-17-6.62-25.59-5.65C376.53,307.22,350.94,319.21,349.45,336.43Z" transform="translate(-3.25 -1.45)"/><path class="cls-2" d="M353,336.72c-.89,10.2,4.76,12.23,16.37,15.46,8,2.27,17,4.84,23.22,12.74,6.53,8.71,19,15.1,32.72,16.66,11.91,1.4,22.92-1.14,30.06-7a13.26,13.26,0,0,0,4.75-12.07c-.29-4-2.08-8.68-5.05-13.82-4.46-7-16.67-24.42-39-34.26-8.93-4-16.07-6.25-23.81-5.38-15.17,1.67-38.09,13.28-39.28,27.65Zm78.57,52.37a54.26,54.26,0,0,1-6.84-.42c-15.78-1.79-30.07-9.23-37.8-19.43-4.46-6-12.2-8.13-19.65-10.19-10.42-3-22.6-6.38-21.42-22.9h0c1.79-18.94,28-32.22,45.53-34.16,9.52-1.06,17.85,1.63,27.67,6,23.81,10.62,37.2,29.4,42,37a39.78,39.78,0,0,1,6.25,16.94,21,21,0,0,1-7.44,18.18C452.71,385.92,442.89,389.09,431.59,389.09Z" transform="translate(-3.25 -1.45)"/><path class="cls-3" d="M404.2,336.79a4.12,4.12,0,0,1-2.38-.92A81,81,0,0,0,367,317.14a3.49,3.49,0,0,1-2.39-4.35,3.36,3.36,0,0,1,4.18-2.54,91.19,91.19,0,0,1,37.79,20.26,3.64,3.64,0,0,1,.29,5A4,4,0,0,1,404.2,336.79Z" transform="translate(-3.25 -1.45)"/><path class="cls-1" d="M394.67,329.89A3.56,3.56,0,0,1,391,327c-.31-2-2.72-4.29-5.75-5.81-3.33-1.75-6.35-1.88-7.56-1.3a3.58,3.58,0,1,1-3-6.48c3.94-1.66,9.08-1.11,13.92,1.43,5.14,2.54,8.47,6.56,9.37,10.71a3.28,3.28,0,0,1-2.72,4.21A2.08,2.08,0,0,1,394.67,329.89Z" transform="translate(-3.25 -1.45)"/><polygon class="cls-1" points="57.86 235 237.27 131.44 237.27 255.09 57.86 358.65 57.86 235"/><path class="cls-2" d="M64.74,238.5V353.94l172.14-99.46V139L64.74,238.5ZM61.11,363.64a3.6,3.6,0,0,1-1.81-.49,3.3,3.3,0,0,1-1.82-3V236.45a3.38,3.38,0,0,1,1.82-3.09L238.7,129.8a3.71,3.71,0,0,1,3.63,0,3.81,3.81,0,0,1,1.52,3.09V256.54a3.76,3.76,0,0,1-1.52,3L62.92,363.15A3.63,3.63,0,0,1,61.11,363.64Z" transform="translate(-3.25 -1.45)"/><polygon class="cls-4" points="57.86 235 237.27 131.44 237.27 113.62 57.86 217.19 57.86 235"/><path class="cls-2" d="M64.74,220.66v9.61l172.14-99.44v-9.62L64.74,220.66ZM61.11,240a4.06,4.06,0,0,1-1.81-.49,3.39,3.39,0,0,1-1.82-3.08V218.64a3.32,3.32,0,0,1,1.82-3.09L238.7,112a3.66,3.66,0,0,1,3.63,0,3.76,3.76,0,0,1,1.52,3.08v17.82a3.81,3.81,0,0,1-1.52,3.09L62.92,239.53A4.1,4.1,0,0,1,61.11,240Z" transform="translate(-3.25 -1.45)"/><path class="cls-2" d="M123.43,238.5a3.49,3.49,0,0,1-3-1.78,3.81,3.81,0,0,1,1.22-4.87l70.19-40.51a3.58,3.58,0,0,1,3.63,6.17L125.25,238A3.65,3.65,0,0,1,123.43,238.5Z" transform="translate(-3.25 -1.45)"/><polygon class="cls-4" points="319.72 332.14 294.12 317.34 174.18 386.54 199.78 401.36 319.72 332.14"/><path class="cls-2" d="M180.77,388,203,400.92,319.77,333.6l-22.4-12.93L180.77,388ZM203,404.43a1.15,1.15,0,0,1-.69-.22l-25.75-14.8a1.91,1.91,0,0,1-.83-1.42,1.88,1.88,0,0,1,.83-1.42l120-69.2a1.71,1.71,0,0,1,1.67,0l25.6,14.82a1.52,1.52,0,0,1,.83,1.41,1.56,1.56,0,0,1-.83,1.42l-119.94,69.2A1.17,1.17,0,0,1,203,404.43Z" transform="translate(-3.25 -1.45)"/><polygon class="cls-3" points="199.78 401.36 174.18 386.54 174.18 399.8 199.78 414.62 199.78 401.36"/><path class="cls-2" d="M179.1,400.32l22.4,12.92v-9.5l-22.4-12.91v9.49ZM203,417.71a1.4,1.4,0,0,1-.69-.22l-25.75-14.82a1.58,1.58,0,0,1-.83-1.42V388a1.88,1.88,0,0,1,.83-1.42,1.74,1.74,0,0,1,1.67,0l25.61,14.82a1.57,1.57,0,0,1,.83,1.42v13.26a1.58,1.58,0,0,1-.83,1.42A2,2,0,0,1,203,417.71Z" transform="translate(-3.25 -1.45)"/><polygon class="cls-1" points="319.72 332.14 199.78 401.36 199.78 414.62 319.72 345.42 319.72 332.14"/><path class="cls-2" d="M204.7,403.75v9.48l116.61-67.31v-9.48L204.7,403.75Zm-1.67,14a1.4,1.4,0,0,1-.69-.22,1.57,1.57,0,0,1-.84-1.42V402.81a1.54,1.54,0,0,1,.84-1.42l119.8-69.21a1.73,1.73,0,0,1,1.67,0,1.53,1.53,0,0,1,.83,1.42v13.26a1.54,1.54,0,0,1-.83,1.42l-119.94,69.2A2,2,0,0,1,203,417.71Z" transform="translate(-3.25 -1.45)"/><polygon class="cls-4" points="319.72 309.24 294.12 294.42 174.18 363.63 199.78 378.44 319.72 309.24"/><path class="cls-2" d="M180.77,365.08,203,378l116.74-67.31-22.4-12.92-116.6,67.31ZM203,381.53a1.31,1.31,0,0,1-.69-.22l-25.75-14.82a1.88,1.88,0,0,1-.83-1.41,1.93,1.93,0,0,1,.83-1.43l120-69.18a1.71,1.71,0,0,1,1.67,0l25.6,14.8a1.56,1.56,0,0,1,.83,1.42,1.54,1.54,0,0,1-.83,1.42l-119.94,69.2A1.21,1.21,0,0,1,203,381.53Z" transform="translate(-3.25 -1.45)"/><polygon class="cls-3" points="199.78 378.44 174.18 363.63 174.18 376.9 199.78 391.71 199.78 378.44"/><path class="cls-2" d="M179.1,377.41l22.4,12.93v-9.5l-22.4-12.93v9.5ZM203,394.79a1.29,1.29,0,0,1-.69-.21l-25.75-14.82a1.55,1.55,0,0,1-.83-1.41V365.07a1.9,1.9,0,0,1,.83-1.42,1.71,1.71,0,0,1,1.67,0l25.61,14.81a1.53,1.53,0,0,1,.83,1.41v13.27a1.56,1.56,0,0,1-.83,1.42A1.86,1.86,0,0,1,203,394.79Z" transform="translate(-3.25 -1.45)"/><polygon class="cls-1" points="319.72 309.24 199.78 378.44 199.78 391.71 319.72 322.52 319.72 309.24"/><path class="cls-2" d="M204.7,380.84v9.49L321.31,323v-9.49L204.7,380.84Zm-1.67,14a1.29,1.29,0,0,1-.69-.21,1.57,1.57,0,0,1-.84-1.42V379.89a1.55,1.55,0,0,1,.84-1.42l119.8-69.2a1.71,1.71,0,0,1,1.67,0,1.56,1.56,0,0,1,.83,1.42V324a1.55,1.55,0,0,1-.83,1.41l-119.94,69.2A1.86,1.86,0,0,1,203,394.79Z" transform="translate(-3.25 -1.45)"/><polygon class="cls-4" points="319.72 286.34 294.12 271.52 174.18 340.72 199.78 355.54 319.72 286.34"/><path class="cls-2" d="M180.77,342.17,203,355.1l116.74-67.31-22.4-12.92-116.6,67.3ZM203,358.63a1.31,1.31,0,0,1-.69-.22l-25.75-14.82a1.91,1.91,0,0,1-.83-1.42,1.88,1.88,0,0,1,.83-1.42l120-69.2a1.71,1.71,0,0,1,1.67,0l25.6,14.82a1.53,1.53,0,0,1,.83,1.42,1.58,1.58,0,0,1-.83,1.42l-119.94,69.2A1.21,1.21,0,0,1,203,358.63Z" transform="translate(-3.25 -1.45)"/><polygon class="cls-3" points="199.78 355.54 174.18 340.72 174.18 353.99 199.78 368.8 199.78 355.54"/><path class="cls-2" d="M179.1,354.5l22.4,12.93v-9.5L179.1,345v9.49ZM203,371.89a1.31,1.31,0,0,1-.69-.22l-25.75-14.81a1.56,1.56,0,0,1-.83-1.42V342.17a1.88,1.88,0,0,1,.83-1.42,1.77,1.77,0,0,1,1.67,0l25.61,14.82a1.57,1.57,0,0,1,.83,1.42v13.27a1.56,1.56,0,0,1-.83,1.41A1.88,1.88,0,0,1,203,371.89Z" transform="translate(-3.25 -1.45)"/><polygon class="cls-1" points="319.72 286.34 199.78 355.54 199.78 368.8 319.72 299.6 319.72 286.34"/><path class="cls-2" d="M204.7,357.93v9.5L321.31,300.1v-9.49L204.7,357.93Zm-1.67,14a1.31,1.31,0,0,1-.69-.22,1.56,1.56,0,0,1-.84-1.42V357a1.56,1.56,0,0,1,.84-1.42l119.8-69.2a1.71,1.71,0,0,1,1.67,0,1.55,1.55,0,0,1,.83,1.42v13.28a1.53,1.53,0,0,1-.83,1.4l-119.94,69.2A1.88,1.88,0,0,1,203,371.89Z" transform="translate(-3.25 -1.45)"/><polygon class="cls-4" points="319.72 260.88 294.12 246.06 238.47 278.17 264.07 292.99 319.72 260.88"/><path class="cls-2" d="M244.92,279.62l22.4,12.93,52.45-30.22-22.4-12.93-52.45,30.22Zm22.4,16.46a1.88,1.88,0,0,1-.84-.22l-25.6-14.81a1.63,1.63,0,0,1,0-2.85l55.66-32.1a1.69,1.69,0,0,1,1.67,0l25.6,14.81a1.54,1.54,0,0,1,.83,1.42,1.56,1.56,0,0,1-.83,1.42l-55.66,32.11A1.87,1.87,0,0,1,267.32,296.08Z" transform="translate(-3.25 -1.45)"/><polygon class="cls-3" points="264.07 292.99 238.47 278.17 238.47 291.45 264.07 306.25 264.07 292.99"/><path class="cls-2" d="M243.25,292l22.4,12.93v-9.49l-22.27-12.93-.13,9.49Zm24.07,17.4a1.77,1.77,0,0,1-.84-.23l-25.6-14.8a1.57,1.57,0,0,1-.84-1.42V279.62a1.89,1.89,0,0,1,.84-1.42,1.76,1.76,0,0,1,1.67,0L268.15,293a1.52,1.52,0,0,1,.84,1.4v13.28a1.54,1.54,0,0,1-.84,1.4A1.77,1.77,0,0,1,267.32,309.35Z" transform="translate(-3.25 -1.45)"/><polygon class="cls-1" points="319.72 260.88 264.07 292.99 264.07 306.25 319.72 274.13 319.72 260.88"/><path class="cls-2" d="M269,295.39v9.49l52.32-30.24v-9.47L269,295.39Zm-1.67,14a1.77,1.77,0,0,1-.84-.23,1.88,1.88,0,0,1-.83-1.41V294.44a1.91,1.91,0,0,1,.83-1.42l55.66-32.11a1.73,1.73,0,0,1,1.67,0,1.54,1.54,0,0,1,.83,1.42V275.6a1.52,1.52,0,0,1-.83,1.41l-55.66,32.11A1.77,1.77,0,0,1,267.32,309.35Z" transform="translate(-3.25 -1.45)"/><polygon class="cls-4" points="319.72 237.96 294.12 223.16 238.47 255.27 264.07 270.09 319.72 237.96"/><path class="cls-2" d="M244.92,256.72l22.4,12.93,52.45-30.24-22.4-12.91-52.45,30.22Zm22.4,16.45a1.67,1.67,0,0,1-.84-.23l-25.6-14.8a1.62,1.62,0,0,1,0-2.84l55.66-32.11a1.66,1.66,0,0,1,1.67,0L323.81,238a1.61,1.61,0,0,1,0,2.82L268.15,273A1.86,1.86,0,0,1,267.32,273.17Z" transform="translate(-3.25 -1.45)"/><polygon class="cls-3" points="264.07 270.09 238.47 255.27 238.47 268.54 264.07 283.35 264.07 270.09"/><path class="cls-2" d="M243.25,269.05,265.65,282v-9.49l-22.27-12.93-.13,9.49Zm24.07,17.39a1.88,1.88,0,0,1-.84-.22l-25.6-14.81A1.57,1.57,0,0,1,240,270V256.72a1.88,1.88,0,0,1,.84-1.42,1.76,1.76,0,0,1,1.67,0l25.6,14.82a1.55,1.55,0,0,1,.84,1.42V284.8a1.56,1.56,0,0,1-.84,1.42A1.87,1.87,0,0,1,267.32,286.44Z" transform="translate(-3.25 -1.45)"/><polygon class="cls-1" points="319.72 237.96 264.07 270.09 264.07 283.35 319.72 251.24 319.72 237.96"/><path class="cls-2" d="M269,272.49V282l52.32-30.24v-9.49L269,272.49Zm-1.67,13.95a1.65,1.65,0,0,1-1.67-1.64V271.54a1.86,1.86,0,0,1,.83-1.42L322.14,238a1.7,1.7,0,0,1,1.67,0,1.54,1.54,0,0,1,.83,1.42v13.26a1.52,1.52,0,0,1-.83,1.41l-55.66,32.12A1.87,1.87,0,0,1,267.32,286.44Z" transform="translate(-3.25 -1.45)"/><polygon class="cls-4" points="319.72 215.06 294.12 200.25 238.47 232.37 264.07 247.17 319.72 215.06"/><path class="cls-2" d="M244.92,233.82l22.4,12.93,52.45-30.24-22.4-12.93-52.45,30.24Zm22.4,16.45a1.9,1.9,0,0,1-.84-.23l-25.6-14.8a1.58,1.58,0,0,1-.84-1.42,1.55,1.55,0,0,1,.84-1.42l55.66-32.12a1.71,1.71,0,0,1,1.67,0l25.6,14.81a1.54,1.54,0,0,1,.83,1.42,1.56,1.56,0,0,1-.83,1.42L268.15,250A1.89,1.89,0,0,1,267.32,250.27Z" transform="translate(-3.25 -1.45)"/><polygon class="cls-3" points="264.07 247.17 238.47 232.37 238.47 245.63 264.07 260.45 264.07 247.17"/><path class="cls-2" d="M243.25,246.15l22.4,12.93v-9.51l-22.27-12.93-.13,9.51Zm24.07,17.39a2,2,0,0,1-.84-.22l-25.6-14.82a1.56,1.56,0,0,1-.84-1.42V233.8a1.86,1.86,0,0,1,.84-1.4,1.71,1.71,0,0,1,1.67,0l25.6,14.82a1.51,1.51,0,0,1,.84,1.4V261.9a1.56,1.56,0,0,1-.84,1.42A2,2,0,0,1,267.32,263.54Z" transform="translate(-3.25 -1.45)"/><polygon class="cls-1" points="319.72 215.06 264.07 247.17 264.07 260.45 319.72 228.33 319.72 215.06"/><path class="cls-2" d="M269,249.57v9.49l52.32-30.23v-9.48L269,249.57Zm-1.67,14a2,2,0,0,1-.84-.22,1.91,1.91,0,0,1-.83-1.42V248.62a1.82,1.82,0,0,1,.83-1.4l55.66-32.13a1.76,1.76,0,0,1,1.67,0,1.58,1.58,0,0,1,.83,1.42v13.27a1.54,1.54,0,0,1-.83,1.42l-55.66,32.12A2,2,0,0,1,267.32,263.54Z" transform="translate(-3.25 -1.45)"/><path class="cls-3" d="M235.73,266.32,210.55,251.7a1.17,1.17,0,0,0-1.12.14l-7.51,4.31a3.55,3.55,0,0,0-1.53,2.16l-20.87,71.2c-.14.7-.28,1.33.42,1.83L205.12,346c-.7-.64-.28-2,0-2.82L217,302.86l2.22,1.28,1.11,3.16c.15.26.15.32.42.49L246,322.39c-.28-.16-.28-.22-.42-.48l-5.15-13.7-8.9-5.09,5.7-3.24-4.87-12.06c-.56-1.46-1-2.88-1.39-4.37l-7.24-4.13,2-6.39a3.58,3.58,0,0,1,1.53-2.17l7.38-4.31C235.18,266.25,235.31,266.17,235.73,266.32Z" transform="translate(-3.25 -1.45)"/><path class="cls-2" d="M181.05,330.13l22.4,12.92v-.27l11.83-40.38a1.84,1.84,0,0,1,1-1.06,1.91,1.91,0,0,1,1.53.12l2.23,1.26a1.94,1.94,0,0,1,.69.85l1.12,2.94,20.73,12-3.48-9.21-8.21-4.79a1.62,1.62,0,0,1,0-2.83l4.32-2.54L231,288.42c-.55-1.3-1-2.58-1.39-3.87l-6.68-3.81a1.84,1.84,0,0,1-.69-1.88l1.81-6.4a5.18,5.18,0,0,1,2.22-3l5.85-3.34-22-12.73-7.38,4.23a1.69,1.69,0,0,0-.83,1.24L181.05,330v.17Zm24.21,17.51a2.43,2.43,0,0,1-1-.27L179.1,332.76a3.38,3.38,0,0,1-1.25-3.62l21-71.29a5.18,5.18,0,0,1,2.22-3.06l7.52-4.36a3,3,0,0,1,2.5-.28l25.47,14.75a1.49,1.49,0,0,1,.69,2.09,1.58,1.58,0,0,1-1.95.88l.42-1.55-.42,1.55-7.23,4.31a1.71,1.71,0,0,0-.84,1.24l-1.53,5.13,6.12,3.48a2,2,0,0,1,.7,1c.42,1.45.84,2.84,1.39,4.26l4.87,12a1.66,1.66,0,0,1-.69,2l-3.2,1.82,6.4,3.67a1.89,1.89,0,0,1,.69.83l5.15,13.72a1.51,1.51,0,0,1,.42,2.07,1.81,1.81,0,0,1-2.37.41l-25.32-14.61a2.39,2.39,0,0,1-1-1.19l-1-2.59-11.27,38.16a6.13,6.13,0,0,0-.28,1.35,1.5,1.5,0,0,1,.28,2.07A1.65,1.65,0,0,1,205.26,347.64Z" transform="translate(-3.25 -1.45)"/><path class="cls-4" d="M237.26,299.88l-12.8,7.36c2.23-7.9,4.46-15.9,6.54-23.79.42,1.47.83,2.92,1.39,4.37l.14.08,4.73,12Zm18.64,14.71-19.61-47.8c-.28-.61-1-.72-1.67-.34l-7.38,4.31a3.42,3.42,0,0,0-1.53,2.17l-20.87,71.18c-.42,1.18,0,2,.84,1.94a1.83,1.83,0,0,0,.69-.21h0l7.65-4.45a4.32,4.32,0,0,0,1.67-2.21l5.43-19.83,19.34-11.14,5.15,13.7c.28.64.84.75,1.53.37l7.24-4.17a3.86,3.86,0,0,0,1.67-2.84c0-.28-.15-.5-.15-.68Z" transform="translate(-3.25 -1.45)"/><path class="cls-2" d="M231.14,289.06c-1,4.1-2.22,8.22-3.34,12.34l-.7,2.45,8.08-4.68-4-10.11Zm-6.68,19.82a1.62,1.62,0,0,1-1.53-2.07l1.67-6.27c1.67-5.85,3.34-11.71,4.73-17.49a1.78,1.78,0,0,1,1.67-1.24,1.52,1.52,0,0,1,1.53,1.17c.42,1.43.84,2.85,1.39,4.24l4.87,12.06a1.66,1.66,0,0,1-.69,2l-12.8,7.36a1.76,1.76,0,0,1-.84.22ZM235,268.16l19.35,47v.06a2,2,0,0,1-.84,1.44l-6.68,3.85L242,307.62a1.64,1.64,0,0,0-1-1,1.66,1.66,0,0,0-1.39.13l-19.35,11.14a2.23,2.23,0,0,0-.69,1L214,338.79a2.22,2.22,0,0,1-.83,1.18l-6.54,3.84,20.59-70.48a2.12,2.12,0,0,1,.84-1.15l6.95-4ZM205.54,347.7a2.24,2.24,0,0,1-1.81-.87,3.52,3.52,0,0,1-.56-3.17l20.88-71.2a5.47,5.47,0,0,1,2.36-3.1l7.51-4.32a2.74,2.74,0,0,1,2.37-.3,2.25,2.25,0,0,1,1.39,1.43l19.76,47.75a4.05,4.05,0,0,1,.27,1.35,5.36,5.36,0,0,1-2.5,4.26L248,323.69a2.86,2.86,0,0,1-2.37.31,2.56,2.56,0,0,1-1.53-1.51l-4.45-11.91-17.12,9.85-5.29,19.18a5.1,5.1,0,0,1-2.36,3.2l-7.65,4.45a3.11,3.11,0,0,1-1.39.42Z" transform="translate(-3.25 -1.45)"/><polygon class="cls-3" points="103.86 338.67 60.34 313.54 166.75 252.1 210.29 277.23 103.86 338.67"/><path class="cls-2" d="M66.32,315l40.79,23.55,103.7-59.86L170,255.12,66.32,315Zm40.79,26.49a1.25,1.25,0,0,1-.67-.18L62.9,316.18a1.4,1.4,0,0,1-.68-1.19,1.36,1.36,0,0,1,.68-1.18l106.42-61.44a1.34,1.34,0,0,1,1.37,0l43.54,25.13a1.38,1.38,0,0,1,.68,1.18,1.42,1.42,0,0,1-.68,1.19L107.8,341.3A1.27,1.27,0,0,1,107.11,341.48Z" transform="translate(-3.25 -1.45)"/><polygon class="cls-3" points="103.86 352.55 60.34 327.42 60.34 313.54 103.86 338.67 103.86 352.55"/><path class="cls-2" d="M65,328.07l40.8,23.56V340.91L65,317.36v10.71Zm42.16,27.3a1.36,1.36,0,0,1-.67-.19L62.9,330a1.36,1.36,0,0,1-.68-1.17V315a1.37,1.37,0,0,1,2-1.18l43.53,25.13a1.34,1.34,0,0,1,.68,1.18V354a1.35,1.35,0,0,1-.68,1.18A1.38,1.38,0,0,1,107.11,355.37Z" transform="translate(-3.25 -1.45)"/><polygon class="cls-3" points="103.86 338.67 210.29 277.23 210.29 291.11 103.86 352.55 103.86 338.67"/><path class="cls-2" d="M108.48,340.91v10.72l103.7-59.86V281.05l-103.7,59.86Zm-1.37,14.46a1.36,1.36,0,0,1-.67-.19,1.38,1.38,0,0,1-.69-1.18V340.12a1.37,1.37,0,0,1,.69-1.18L212.85,277.5a1.36,1.36,0,0,1,1.38,0,1.38,1.38,0,0,1,.68,1.18v13.88a1.37,1.37,0,0,1-.68,1.17L107.8,355.18A1.38,1.38,0,0,1,107.11,355.37Z" transform="translate(-3.25 -1.45)"/><polygon class="cls-4" points="133.59 310.71 109.69 296.91 109.69 191.2 133.59 204.99 133.59 310.71"/><path class="cls-2" d="M114.32,297.56l21.15,12.23V207.23L114.32,195V297.56Zm22.52,16a1.37,1.37,0,0,1-.68-.19l-23.9-13.8a1.38,1.38,0,0,1-.69-1.18V192.65a1.37,1.37,0,0,1,.69-1.19,1.39,1.39,0,0,1,1.37,0l23.9,13.79a1.39,1.39,0,0,1,.68,1.19V312.16a1.36,1.36,0,0,1-.68,1.18A1.4,1.4,0,0,1,136.84,313.53Z" transform="translate(-3.25 -1.45)"/><polygon class="cls-4" points="133.59 204.99 109.69 191.2 137.95 174.87 161.85 188.67 133.59 204.99"/><path class="cls-2" d="M115.67,192.65l21.17,12.21,25.53-14.74L141.2,177.9l-25.53,14.75Zm21.17,15.16a1.27,1.27,0,0,1-.68-.19l-23.9-13.8a1.35,1.35,0,0,1,0-2.36l28.26-16.31a1.31,1.31,0,0,1,1.35,0L165.79,189a1.34,1.34,0,0,1,.68,1.17,1.37,1.37,0,0,1-.68,1.19l-28.26,16.31A1.31,1.31,0,0,1,136.84,207.81Z" transform="translate(-3.25 -1.45)"/><polygon class="cls-1" points="133.59 263.24 109.69 249.44 81.44 265.76 105.34 279.56 133.59 263.24"/><path class="cls-2" d="M87.43,267.21l21.16,12.22,25.52-14.74L113,252.47,87.43,267.21Zm21.16,15.17a1.3,1.3,0,0,1-.67-.19L84,268.39a1.36,1.36,0,0,1-.68-1.18A1.34,1.34,0,0,1,84,266l28.25-16.31a1.35,1.35,0,0,1,1.37,0l23.9,13.8a1.35,1.35,0,0,1,.68,1.17,1.37,1.37,0,0,1-.68,1.19l-28.26,16.31A1.37,1.37,0,0,1,108.59,282.38Z" transform="translate(-3.25 -1.45)"/><polygon class="cls-1" points="105.34 279.56 81.44 265.76 81.44 313.22 105.34 327.02 105.34 279.56"/><path class="cls-2" d="M86.06,313.88l21.16,12.22V281.8L86.06,269.57v44.31Zm22.53,16a1.3,1.3,0,0,1-.67-.19L84,315.85a1.35,1.35,0,0,1-.68-1.18V267.21A1.34,1.34,0,0,1,84,266a1.28,1.28,0,0,1,1.36,0l23.9,13.79A1.37,1.37,0,0,1,110,281v47.46a1.35,1.35,0,0,1-.69,1.18A1.37,1.37,0,0,1,108.59,329.84Z" transform="translate(-3.25 -1.45)"/><polygon class="cls-3" points="161.85 294.39 137.95 280.59 137.95 211.69 161.85 225.48 161.85 294.39"/><path class="cls-2" d="M142.56,281.25l21.17,12.22V227.72l-21.17-12.21v65.74Zm22.54,16a1.45,1.45,0,0,1-.68-.19l-23.9-13.8a1.37,1.37,0,0,1-.69-1.19v-68.9a1.35,1.35,0,0,1,.69-1.18,1.31,1.31,0,0,1,1.35,0l23.92,13.8a1.36,1.36,0,0,1,.68,1.17v68.91a1.35,1.35,0,0,1-.68,1.19A1.51,1.51,0,0,1,165.1,297.22Z" transform="translate(-3.25 -1.45)"/><polygon class="cls-3" points="161.85 225.48 137.95 211.69 166.21 195.38 190.11 209.18 161.85 225.48"/><path class="cls-2" d="M143.93,213.14l21.17,12.22,25.52-14.73-21.16-12.22-25.53,14.73ZM165.1,228.3a1.29,1.29,0,0,1-.68-.18l-23.9-13.79a1.37,1.37,0,0,1-.69-1.19,1.35,1.35,0,0,1,.69-1.18l28.25-16.31a1.33,1.33,0,0,1,1.36,0l23.9,13.8a1.35,1.35,0,0,1,.69,1.18,1.39,1.39,0,0,1-.69,1.19l-28.24,16.3A1.32,1.32,0,0,1,165.1,228.3Z" transform="translate(-3.25 -1.45)"/><polygon class="cls-3" points="161.85 294.39 161.85 225.48 190.11 209.18 190.11 278.08 161.85 294.39"/><path class="cls-2" d="M166.46,227.72v65.75L192,278.74V213l-25.53,14.73Zm-1.36,69.5a1.45,1.45,0,0,1-.68-.19,1.38,1.38,0,0,1-.69-1.19V226.93a1.37,1.37,0,0,1,.69-1.17l28.25-16.31a1.37,1.37,0,0,1,2.05,1.18v68.9a1.37,1.37,0,0,1-.69,1.19L165.78,297A1.51,1.51,0,0,1,165.1,297.22Z" transform="translate(-3.25 -1.45)"/><polygon class="cls-1" points="133.59 310.71 133.59 263.24 105.34 279.56 105.34 327.02 133.59 310.71"/><path class="cls-2" d="M136.84,312.16h0ZM110,281.8v44.3l25.51-14.73v-44.3L110,281.8Zm-1.37,48a1.3,1.3,0,0,1-.67-.19,1.33,1.33,0,0,1-.7-1.18V281a1.36,1.36,0,0,1,.7-1.19l28.24-16.31a1.34,1.34,0,0,1,1.37,0,1.37,1.37,0,0,1,.68,1.18v47.47a1.36,1.36,0,0,1-.68,1.18l-28.26,16.31A1.37,1.37,0,0,1,108.59,329.84Z" transform="translate(-3.25 -1.45)"/><polygon class="cls-4" points="133.59 310.71 133.59 204.99 161.85 188.67 161.85 294.39 133.59 310.71"/><path class="cls-2" d="M138.21,207.23V309.79l25.52-14.74V192.5l-25.52,14.73Zm-1.37,106.3a1.39,1.39,0,0,1-1.37-1.37V206.44a1.39,1.39,0,0,1,.69-1.19L164.42,189a1.36,1.36,0,0,1,2,1.17V295.84a1.38,1.38,0,0,1-.68,1.19l-28.25,16.31A1.4,1.4,0,0,1,136.84,313.53Z" transform="translate(-3.25 -1.45)"/></g></g></svg>