<svg xmlns="http://www.w3.org/2000/svg" viewBox="0 0 459.21 563.38"><defs><style>.cls-1{fill:#d9e8ff;}.cls-1,.cls-3,.cls-4{stroke:#0072c8;stroke-linecap:round;stroke-linejoin:round;stroke-width:0.75px;}.cls-1,.cls-2,.cls-3,.cls-4{fill-rule:evenodd;}.cls-2{fill:none;}.cls-3{fill:#fff;}.cls-4{fill:#9aceef;}</style></defs><g id="Layer_2" data-name="Layer 2"><g id="Layer_1-2" data-name="Layer 1"><path class="cls-1" d="M56.23,393.43,41.54,385c-3-2.08-3.52-4.64-3.69-8.11V122.07a27.82,27.82,0,0,1,12.56-21.74L77.28,84.8l16-9.22,80.25-46.35,14-8.07L216.45,4.47c3.09-1.59,5.56-2.42,8.87-.86l14.7,8.5c-3.28-1.57-5.8-.74-8.88.85L202.23,29.65l-14,8.06L108,84.07,92,93.3,65.1,108.82a27.78,27.78,0,0,0-12.55,21.73V385.32C52.71,388.8,53.27,391.34,56.23,393.43Z" transform="translate(-0.95 -2.4)"/><path class="cls-2" d="M221.94,5.55A9.65,9.65,0,0,0,217.73,7L51.81,102.76c-3.73,2.37-5.66,4.8-7.9,8.42a23.26,23.26,0,0,0-3.25,11V376.84c.14,3.28.69,4.56,2.47,5.8l6.69,3.85c0-.33,0-.69,0-1l0-254.9a29.27,29.27,0,0,1,4-13.69c2.62-4.26,5.12-7.42,9.83-10.39L229.74,10.54l1.07-.53-6.89-4a4.45,4.45,0,0,0-2-.49ZM56.23,396.21a2.71,2.71,0,0,1-1.39-.37l-14.7-8.47c-4.38-3-4.93-7-5.07-10.42V122.07a28.79,28.79,0,0,1,4-13.67C41.71,104.14,44.2,101,48.91,98L215.05,2.05c3.19-1.64,6.84-3.14,11.46-1L241.4,9.68a2.79,2.79,0,0,1-2.57,4.94c-2-.94-3.36-.75-6.4.81L66.51,111.25c-3.74,2.35-5.66,4.77-7.89,8.41a23.42,23.42,0,0,0-3.29,11l0,254.64c.16,3.28.66,4.57,2.47,5.8a2.8,2.8,0,0,1-1.6,5.09Z" transform="translate(-0.95 -2.4)"/><path class="cls-1" d="M231.14,296.7l-166,95.85c-6.91,4-12.55.74-12.55-7.23V130.55c0-8,5.64-17.73,12.55-21.73L92,93.3l16-9.23,80.29-46.36,14-8.06L231.14,13c6.9-4,12.54-.73,12.54,7.26V275C243.68,283,238,292.7,231.14,296.7Z" transform="translate(-0.95 -2.4)"/><path class="cls-2" d="M231.14,296.7h0Zm5.6-282.64a8.62,8.62,0,0,0-4.19,1.33l-166,95.86c-6,3.5-11.15,12.34-11.15,19.3V385.32c0,2.78.83,4.83,2.28,5.69s3.66.52,6.06-.86l166-95.86c6-3.5,11.15-12.35,11.15-19.31V20.22c0-2.79-.82-4.86-2.28-5.71a3.7,3.7,0,0,0-1.87-.45Zm-177.22,383a9.36,9.36,0,0,1-4.68-1.21c-3.29-1.91-5.1-5.64-5.1-10.54V130.55c0-9,6.14-19.63,14-24.15l166-95.86c4.26-2.45,8.4-2.76,11.66-.86s5.09,5.61,5.09,10.54V275c0,9-6.12,19.62-13.94,24.13h0L66.51,395A14.07,14.07,0,0,1,59.52,397.07Z" transform="translate(-0.95 -2.4)"/><path class="cls-3" d="M75.52,126.8V369.36l151.11-87.22V39.57Q151.07,83.16,75.52,126.8Z" transform="translate(-0.95 -2.4)"/><path class="cls-2" d="M78.33,128.42V364.51l145.49-84V44.43l-145.49,84ZM75.52,372.15a2.66,2.66,0,0,1-1.38-.38,2.7,2.7,0,0,1-1.4-2.41V126.8a2.71,2.71,0,0,1,1.4-2.4L225.23,37.14a2.78,2.78,0,0,1,4.17,2.43V282.14a2.74,2.74,0,0,1-1.39,2.4L76.92,371.77A2.63,2.63,0,0,1,75.52,372.15Z" transform="translate(-0.95 -2.4)"/><path class="cls-3" d="M128.36,107.25V82.38q27.75-16,55.51-32.06V75.2q-27.75,16-55.51,32.05Zm63.71-28.72v-41L120.16,79v41l71.91-41.54Z" transform="translate(-0.95 -2.4)"/><path class="cls-2" d="M131.17,84v18.4l49.92-28.82V55.17L131.17,84Zm-2.81,26a2.78,2.78,0,0,1-2.78-2.79V82.38A2.75,2.75,0,0,1,127,80l55.52-32.06a2.81,2.81,0,0,1,4.2,2.4V75.2a2.8,2.8,0,0,1-1.41,2.42l-55.5,32a2.79,2.79,0,0,1-1.41.38Zm63.71-31.51h0ZM123,80.64l66.32-38.29V76.93L123,115.22V80.64Zm-2.81,42.22a2.56,2.56,0,0,1-1.38-.39,2.74,2.74,0,0,1-1.41-2.4V79a2.77,2.77,0,0,1,1.41-2.41L190.67,35.1a2.81,2.81,0,0,1,4.21,2.4v41a2.77,2.77,0,0,1-1.4,2.43l-71.92,41.51A2.58,2.58,0,0,1,120.16,122.86Z" transform="translate(-0.95 -2.4)"/><polygon class="cls-3" points="119.21 76.63 191.12 35.1 181.28 29.42 175.38 26.02 103.49 67.54 119.21 76.63"/><path class="cls-2" d="M110,69.94l10.13,5.88L186.49,37.5l-10.16-5.85L110,69.94Zm10.13,11.89a2.64,2.64,0,0,1-1.38-.38L103,72.37a2.81,2.81,0,0,1,0-4.86L174.93,26a2.85,2.85,0,0,1,2.8,0l15.75,9.09a2.87,2.87,0,0,1,1.4,2.42,2.82,2.82,0,0,1-1.4,2.43L121.56,81.45A2.66,2.66,0,0,1,120.16,81.83Z" transform="translate(-0.95 -2.4)"/><path class="cls-1" d="M98.93,172.86h0a12,12,0,0,0-5.4,9.35h0c0,3.43,2.42,4.83,5.4,3.12h0A12,12,0,0,0,104.3,176h0C104.3,172.58,101.9,171.15,98.93,172.86Z" transform="translate(-0.95 -2.4)"/><path class="cls-2" d="M101.27,174.91a3.36,3.36,0,0,0-1,.38,9.32,9.32,0,0,0-4,6.92,2.33,2.33,0,0,0,.21,1.1,10.29,10.29,0,0,0,1-.41,9.25,9.25,0,0,0,4-6.92,1.62,1.62,0,0,0-.25-1.07ZM96.5,188.85a5.38,5.38,0,0,1-2.78-.74,6.49,6.49,0,0,1-3-5.9,14.76,14.76,0,0,1,6.77-11.74A6,6,0,0,1,107.1,176a14.72,14.72,0,0,1-6.8,11.75A7.55,7.55,0,0,1,96.5,188.85Z" transform="translate(-0.95 -2.4)"/><path class="cls-1" d="M98.93,206.3h0a12,12,0,0,0-5.4,9.35h0c0,3.42,2.42,4.82,5.4,3.11h0a11.91,11.91,0,0,0,5.37-9.32h0C104.3,206,101.9,204.61,98.93,206.3Z" transform="translate(-0.95 -2.4)"/><path class="cls-2" d="M100.3,208.73a9.33,9.33,0,0,0-4,6.92,2.15,2.15,0,0,0,.21,1.09,2.8,2.8,0,0,0,1-.41,9.18,9.18,0,0,0,4-6.89c0-.71-.18-1.05-.25-1.09a3,3,0,0,0-1,.38Zm-3.8,13.55a5.34,5.34,0,0,1-2.78-.74,6.47,6.47,0,0,1-3-5.89,14.82,14.82,0,0,1,6.77-11.75h0a6,6,0,0,1,9.59,5.54,14.75,14.75,0,0,1-6.8,11.73A7.63,7.63,0,0,1,96.5,222.28Z" transform="translate(-0.95 -2.4)"/><path class="cls-1" d="M98.93,241.86h0a11.93,11.93,0,0,0-5.4,9.31h0c0,3.43,2.42,4.83,5.4,3.12h0A11.9,11.9,0,0,0,104.3,245h0C104.3,241.55,101.9,240.12,98.93,241.86Z" transform="translate(-0.95 -2.4)"/><path class="cls-2" d="M101.27,243.87a4.9,4.9,0,0,0-1,.39,9.31,9.31,0,0,0-4,6.91,2.25,2.25,0,0,0,.21,1.1,2.87,2.87,0,0,0,1-.4,9.25,9.25,0,0,0,4-6.92,1.74,1.74,0,0,0-.25-1.08ZM96.5,257.81a5.47,5.47,0,0,1-2.78-.73,6.51,6.51,0,0,1-3-5.91,14.82,14.82,0,0,1,6.77-11.74A6,6,0,0,1,107.1,245a14.7,14.7,0,0,1-6.8,11.74A7.55,7.55,0,0,1,96.5,257.81Z" transform="translate(-0.95 -2.4)"/><path class="cls-4" d="M56.23,393.43,41.54,385A7.94,7.94,0,0,1,39,382.14c-1.41-2.66-1.12-6.76-1.12-9.72V128.87c0-4.73-.25-8.75,1.12-13.36a26.18,26.18,0,0,1,2.61-5.88l14.71,8.49a25.92,25.92,0,0,0-3,7.54c-.81,3.49-.67,6.47-.67,10V380.4c0,2.57-.21,5.62.36,8.11A7.58,7.58,0,0,0,56.23,393.43Z" transform="translate(-0.95 -2.4)"/><path class="cls-2" d="M42.7,113.5a22.46,22.46,0,0,0-1,2.81c-1.07,3.55-1,6.78-1,10.51l0,2.05,0,244.9c0,2.4-.08,5.4.81,7.06a5,5,0,0,0,1.68,1.81l6.69,3.85c-.12-1.52-.1-3.09-.08-4.52l0-1.57V134.34A38.28,38.28,0,0,1,50.5,125a27.92,27.92,0,0,1,2-5.82L42.7,113.5ZM56.23,396.21a2.77,2.77,0,0,1-1.37-.35l-14.72-8.49a11,11,0,0,1-3.64-3.92C35,380.52,35,376.74,35,373.69l0-47.25,0-199.57c0-4,0-7.82,1.27-12.17a26.74,26.74,0,0,1,2.9-6.52,2.8,2.8,0,0,1,3.78-1l14.7,8.47A2.83,2.83,0,0,1,59,117.43a2.73,2.73,0,0,1-.34,2.14A23.34,23.34,0,0,0,56,126.28a33,33,0,0,0-.59,8v46.86l0,200.87a28.52,28.52,0,0,0,.31,5.85,4.81,4.81,0,0,0,2.19,3.23,2.79,2.79,0,0,1,.79,3.78A2.87,2.87,0,0,1,56.23,396.21Z" transform="translate(-0.95 -2.4)"/><polygon class="cls-1" points="103.49 75.63 110.48 79.67 110.48 112.63 119.21 117.67 119.21 76.63 103.49 67.54 103.49 75.63"/><path class="cls-2" d="M114.24,113.41l3.13,1.81V80.64L107.22,74.8v1.61l5.61,3.26a2.8,2.8,0,0,1,1.41,2.4v31.34Zm5.92,9.45a2.56,2.56,0,0,1-1.38-.39l-8.75-5a2.76,2.76,0,0,1-1.4-2.42V83.68L103,80.45a2.75,2.75,0,0,1-1.4-2.42V69.94a2.79,2.79,0,0,1,1.4-2.43,2.83,2.83,0,0,1,2.79,0l15.74,9.11A2.77,2.77,0,0,1,123,79v41a2.74,2.74,0,0,1-1.41,2.4A2.58,2.58,0,0,1,120.16,122.86Z" transform="translate(-0.95 -2.4)"/><path class="cls-4" d="M120,171.53a2.76,2.76,0,0,1-2.43-1.4,2.82,2.82,0,0,1,1-3.83l87.55-50.54a2.79,2.79,0,0,1,2.79,4.83l-87.57,50.56A2.7,2.7,0,0,1,120,171.53Z" transform="translate(-0.95 -2.4)"/><path class="cls-4" d="M120,207a2.74,2.74,0,0,1-2.43-1.38,2.82,2.82,0,0,1,1-3.83l87.55-50.56a2.8,2.8,0,0,1,2.79,4.85l-87.57,50.56A2.78,2.78,0,0,1,120,207Z" transform="translate(-0.95 -2.4)"/><path class="cls-4" d="M120,240.5a2.75,2.75,0,0,1-2.43-1.41,2.82,2.82,0,0,1,1-3.83l62.39-36a2.8,2.8,0,0,1,2.81,4.85l-62.43,36A2.6,2.6,0,0,1,120,240.5Z" transform="translate(-0.95 -2.4)"/><polygon class="cls-3" points="174.19 52.99 174.19 66.89 182.92 72.8 182.92 47.92 174.19 52.99"/><path class="cls-2" d="M178,67.8l3.14,2.14V55.17L178,57V67.8ZM183.87,78a2.65,2.65,0,0,1-1.55-.5l-8.73-5.89a2.83,2.83,0,0,1-1.25-2.31V55.39a2.81,2.81,0,0,1,1.4-2.43l8.72-5a2.82,2.82,0,0,1,4.22,2.4V75.2a2.81,2.81,0,0,1-1.5,2.47A2.89,2.89,0,0,1,183.87,78Z" transform="translate(-0.95 -2.4)"/><polygon class="cls-3" points="127.41 93.89 174.19 66.89 182.92 72.8 127.41 104.85 127.41 93.89"/><path class="cls-2" d="M131.17,97.91v4.49L178.62,75,175,72.58,131.17,97.91ZM128.36,110a2.78,2.78,0,0,1-2.78-2.79v-11A2.78,2.78,0,0,1,127,93.87l46.8-27a2.8,2.8,0,0,1,3,.1l8.73,5.93a2.78,2.78,0,0,1,1.24,2.39,2.88,2.88,0,0,1-1.41,2.33l-55.5,32A2.79,2.79,0,0,1,128.36,110Z" transform="translate(-0.95 -2.4)"/><path class="cls-3" d="M21.31,339.25,18,337.36a4,4,0,0,0,3.26.17l3.3,1.9A4,4,0,0,1,21.31,339.25Z" transform="translate(-0.95 -2.4)"/><path class="cls-2" d="M23,341a5,5,0,0,1-2.31-.58c-.05,0-.05,0-.09,0l-3.3-1.89a1.37,1.37,0,0,1-.49-1.8,1.35,1.35,0,0,1,1.78-.57,2.67,2.67,0,0,0,2.32.09,1.35,1.35,0,0,1,1,.13l3.3,1.89a1.35,1.35,0,0,1,.65,1.34,1.4,1.4,0,0,1-1,1.12A7.23,7.23,0,0,1,23,341Z" transform="translate(-0.95 -2.4)"/><polygon class="cls-3" points="23.62 371.43 20.63 369.25 3.25 348.81 6.25 351 23.62 371.43"/><path class="cls-2" d="M24.57,375.17a1.34,1.34,0,0,1-.8-.26l-3-2.19L3.19,352.08A1.34,1.34,0,0,1,5,350.13l3,2.17L25.58,373a1.32,1.32,0,0,1,0,1.78A1.27,1.27,0,0,1,24.57,375.17Z" transform="translate(-0.95 -2.4)"/><polygon class="cls-4" points="6.25 351 3.25 348.81 8.11 311.49 11.15 313.67 6.25 351"/><path class="cls-2" d="M5.64,350.6l.54.37,4.47-34.28-.52-.38L5.64,350.6Zm1.56,4.14a1.43,1.43,0,0,1-.79-.26l-3-2.18A1.38,1.38,0,0,1,2.88,351l4.85-37.31a1.38,1.38,0,0,1,.84-1.06,1.28,1.28,0,0,1,1.29.14l3,2.19a1.32,1.32,0,0,1,.58,1.26l-4.9,37.32a1.34,1.34,0,0,1-1.33,1.17Z" transform="translate(-0.95 -2.4)"/><polygon class="cls-3" points="11.15 313.67 9.21 312.55 37.04 296.48 38.98 297.6 11.15 313.67"/><path class="cls-2" d="M12.1,317.42a1.3,1.3,0,0,1-.68-.18l-1.94-1.12a1.33,1.33,0,0,1,0-2.32l27.83-16.08a1.37,1.37,0,0,1,1.36,0l1.93,1.12a1.32,1.32,0,0,1,.65,1.16,1.3,1.3,0,0,1-.65,1.16L12.74,317.24A1.24,1.24,0,0,1,12.1,317.42Z" transform="translate(-0.95 -2.4)"/><polygon class="cls-4" points="26.5 369.77 23.21 367.87 23.21 333.48 26.5 335.37 26.5 369.77"/><path class="cls-2" d="M25.48,369.5l.61.34V338.55l-.61-.34V369.5Zm2,4a1.43,1.43,0,0,1-.68-.17l-3.3-1.9a1.33,1.33,0,0,1-.65-1.17V335.88a1.33,1.33,0,0,1,.65-1.17,1.43,1.43,0,0,1,1.36,0l3.27,1.9a1.35,1.35,0,0,1,.67,1.16v34.4a1.35,1.35,0,0,1-.67,1.16A1.25,1.25,0,0,1,27.45,373.51Z" transform="translate(-0.95 -2.4)"/><path class="cls-4" d="M27.45,337.77l-3.29-1.89A15.47,15.47,0,0,0,29.23,327c.31-2.36.2-4.54-1.82-5.94l3.3,1.89c1.81,1.26,2,3.05,1.89,5.12A15.09,15.09,0,0,1,27.45,337.77Z" transform="translate(-0.95 -2.4)"/><path class="cls-2" d="M26.35,335.6l.91.52a13.92,13.92,0,0,0,4-8.22,4.76,4.76,0,0,0-.57-3.12,13,13,0,0,1-.15,2.38,16.79,16.79,0,0,1-4.21,8.44Zm1.1,3.52a1.44,1.44,0,0,1-.68-.18l-3.3-1.9a1.34,1.34,0,0,1-.19-2.17,14,14,0,0,0,4.62-8.14c.3-2.45,0-3.72-1.25-4.56a1.34,1.34,0,0,1-.38-1.82,1.37,1.37,0,0,1,1.83-.45l3.26,1.89c2.45,1.69,2.68,4,2.62,6.34a16.62,16.62,0,0,1-5.66,10.66A1.39,1.39,0,0,1,27.45,339.12Z" transform="translate(-0.95 -2.4)"/><path class="cls-3" d="M26,323.42a13.27,13.27,0,0,0-4.7,5,13.58,13.58,0,0,0-2,6.55c0,2.13.77,3.61,2,4.31a4,4,0,0,0,3.26.18v34.4L7.2,353.4l4.9-37.33L39.93,300l4.84,31.69L27.45,372.17v-34.4a14.87,14.87,0,0,0,3.26-3.95,13.44,13.44,0,0,0,1.94-6.56c0-2.13-.72-3.61-1.94-4.31S27.82,322.36,26,323.42Z" transform="translate(-0.95 -2.4)"/><path class="cls-2" d="M8.6,353l14.64,17.2V341a4.94,4.94,0,0,1-2.62-.62c-1.7-1-2.61-2.92-2.61-5.47a15,15,0,0,1,2.12-7.22,14.88,14.88,0,0,1,5.19-5.46c2.21-1.27,4.37-1.43,6-.47S34,324.7,34,327.26a14.9,14.9,0,0,1-2.13,7.23,16.54,16.54,0,0,1-3.11,3.9v27.23l14.64-34.1L38.9,302.15,13.35,316.91,8.6,353Zm16,22.2a1.38,1.38,0,0,1-1-.48L6.18,354.27a1.55,1.55,0,0,1-.31-1.06l4.9-37.31a1.24,1.24,0,0,1,.65-1l27.82-16.08a1.35,1.35,0,0,1,1.25,0,1.38,1.38,0,0,1,.76,1l4.85,31.7a1.41,1.41,0,0,1-.07.73L28.66,372.7a1.32,1.32,0,0,1-1.47.79,1.35,1.35,0,0,1-1.1-1.32v-34.4a1.34,1.34,0,0,1,.49-1,14,14,0,0,0,3-3.6,12.28,12.28,0,0,0,1.78-5.88c0-1.52-.46-2.67-1.29-3.14s-2.06-.3-3.38.47a13.19,13.19,0,0,0-5.94,10.35c0,1.53.45,2.68,1.24,3.14a2.8,2.8,0,0,0,2.21.07,1.34,1.34,0,0,1,1.74,1.28v34.4a1.35,1.35,0,0,1-.87,1.26A1.48,1.48,0,0,1,24.57,375.17Z" transform="translate(-0.95 -2.4)"/><path class="cls-1" d="M45.23,306.5v-38c-.46,7.08-9.26,10.67-15.17,11.76-8,1.49-19.21.34-25.4-5.35a9.46,9.46,0,0,1-3.34-6.41V306.2l0,.3C3,322.54,43.53,322.59,45.23,306.5Z" transform="translate(-0.95 -2.4)"/><path class="cls-2" d="M45.23,306.5h0ZM2.7,274.83V306.2c.75,7.59,11.17,11,20.54,11h0c9.37,0,19.79-3.38,20.59-10.82l0-.27V274.83c-3.23,3.64-8.72,5.86-13.62,6.78-8.16,1.52-20,.38-26.54-5.69a10.65,10.65,0,0,1-1-1.09Zm20.58,45.06h0C12.36,319.87,1,315.76,0,306.63V268.52a1.31,1.31,0,0,1,1.29-1.33h0a1.4,1.4,0,0,1,1.38,1.25A8,8,0,0,0,5.57,274c5.88,5.43,16.69,6.41,24.23,5,6.25-1.17,13.73-4.62,14.11-10.52a1.25,1.25,0,0,1,1.35-1.25,1.36,1.36,0,0,1,1.33,1.33V306.2s0,.35,0,.38v.06C45.61,315.8,34.2,319.89,23.28,319.89Z" transform="translate(-0.95 -2.4)"/><path class="cls-3" d="M45.23,306.5v-38c-.46,7-8.95,10.54-14.87,11.7v37.7C38.1,316.52,44.59,312.7,45.23,306.5Z" transform="translate(-0.95 -2.4)"/><path class="cls-2" d="M45.23,306.5h0ZM31.7,281.31v35c7.16-1.66,11.67-5.29,12.17-9.9l0-.27V274.87c-2.89,3.26-7.59,5.37-12.21,6.44Zm-1.34,37.95a1.27,1.27,0,0,1-.87-.31,1.39,1.39,0,0,1-.49-1v-37.7a1.34,1.34,0,0,1,1.1-1.31c6.15-1.21,13.43-4.69,13.81-10.47a1.25,1.25,0,0,1,1.35-1.25,1.36,1.36,0,0,1,1.33,1.33V306.2s0,.35,0,.38v.06c-.64,6.2-6.63,10.91-16,12.6A.86.86,0,0,1,30.36,319.26Z" transform="translate(-0.95 -2.4)"/><path class="cls-4" d="M38.82,277c3.11-1.85,6.3-4.77,6.41-8.66V207.71c-.46,7.07-9.26,10.64-15.17,11.75-8,1.5-19.25.34-25.4-5.36a9.35,9.35,0,0,1-3.34-6.39v60.64c.17,5.12,5.58,8.64,9.9,10.29C19.6,281.84,30.9,281.45,38.82,277Z" transform="translate(-0.95 -2.4)"/><path class="cls-2" d="M38.82,277h0ZM2.7,214v54.34c.11,4.16,4.73,7.4,9,9,8.34,3.17,19.22,2.54,26.45-1.53,2.13-1.25,5.66-3.87,5.78-7.55V214c-3.23,3.66-8.72,5.87-13.62,6.79-8.16,1.52-19.94.4-26.54-5.69a9.71,9.71,0,0,1-1-1.09ZM23.28,282.1a35.69,35.69,0,0,1-12.55-2.21C8.26,279,.19,275.34,0,268.39V207.71a1.33,1.33,0,0,1,1.29-1.34,1.32,1.32,0,0,1,1.41,1.25,7.9,7.9,0,0,0,2.87,5.5c5.92,5.46,16.69,6.43,24.23,5,6.25-1.18,13.73-4.63,14.11-10.54a1.33,1.33,0,0,1,1.32-1.25h0a1.36,1.36,0,0,1,1.33,1.34v60.64c-.15,4.74-3.94,8-7.09,9.82h0A33.51,33.51,0,0,1,23.28,282.1Z" transform="translate(-0.95 -2.4)"/><path class="cls-1" d="M38.82,277c3.11-1.85,6.3-4.77,6.41-8.66V207.71c-.42,6.95-8.95,10.52-14.87,11.7v60.64A28.52,28.52,0,0,0,38.82,277Z" transform="translate(-0.95 -2.4)"/><path class="cls-2" d="M38.82,277h0ZM31.7,220.49v57.88a27.17,27.17,0,0,0,6.43-2.52c2.13-1.25,5.66-3.87,5.78-7.55V214.05c-2.89,3.25-7.59,5.37-12.21,6.44Zm-1.34,60.9a1.31,1.31,0,0,1-.87-.3,1.43,1.43,0,0,1-.49-1V219.41a1.35,1.35,0,0,1,1.1-1.32c6.15-1.22,13.43-4.69,13.81-10.48a1.33,1.33,0,0,1,1.32-1.25h0a1.36,1.36,0,0,1,1.33,1.34v60.64c-.15,4.74-3.94,8-7.09,9.82h0a30.22,30.22,0,0,1-8.88,3.19Z" transform="translate(-0.95 -2.4)"/><path class="cls-1" d="M23.28,220.08a31.94,31.94,0,0,0,15.54-3.71c4.28-2.48,6.41-5.73,6.41-9s-2.13-6.49-6.41-9-9.93-3.72-15.54-3.72a31.52,31.52,0,0,0-15.51,3.72c-4.29,2.48-6.45,5.72-6.45,9s2.16,6.49,6.45,9A31.85,31.85,0,0,0,23.28,220.08Z" transform="translate(-0.95 -2.4)"/><path class="cls-2" d="M23.28,196.07A30.37,30.37,0,0,0,8.42,199.6c-3.71,2.15-5.77,4.91-5.77,7.8s2.06,5.65,5.77,7.8a30.48,30.48,0,0,0,14.86,3.53,30.2,30.2,0,0,0,14.85-3.53c3.73-2.15,5.78-4.91,5.78-7.79s-2-5.66-5.78-7.81a30.2,30.2,0,0,0-14.85-3.53Zm0,25.36a32.72,32.72,0,0,1-16.18-3.9C2.5,214.88,0,211.28,0,207.4s2.5-7.48,7.1-10.13a32.93,32.93,0,0,1,16.18-3.9,32.84,32.84,0,0,1,16.19,3.9c4.58,2.65,7.12,6.24,7.12,10.14s-2.54,7.47-7.12,10.12A32.73,32.73,0,0,1,23.28,221.43Z" transform="translate(-0.95 -2.4)"/><path class="cls-4" d="M23.28,213.6a25.14,25.14,0,0,0,12.32-2.94c3.37-2,5.08-4.53,5.08-7.09s-1.71-5.15-5.08-7.11a25.36,25.36,0,0,0-12.32-2.94A25.18,25.18,0,0,0,11,196.46c-3.4,2-5.12,4.54-5.12,7.11s1.72,5.13,5.12,7.09A25,25,0,0,0,23.28,213.6Z" transform="translate(-0.95 -2.4)"/><path class="cls-2" d="M23.28,194.86a23.82,23.82,0,0,0-11.64,2.76c-2.84,1.65-4.4,3.76-4.4,5.95s1.56,4.28,4.44,5.93a23.55,23.55,0,0,0,11.6,2.76,23.56,23.56,0,0,0,11.63-2.76c2.84-1.65,4.44-3.75,4.44-5.93s-1.6-4.3-4.44-5.95a23.56,23.56,0,0,0-11.63-2.76Zm0,20.09a26.3,26.3,0,0,1-13-3.12c-3.73-2.15-5.77-5.09-5.77-8.26s2-6.12,5.77-8.28a26.3,26.3,0,0,1,13-3.12,26.28,26.28,0,0,1,13,3.13C40,197.45,42,200.38,42,203.57s-2,6.11-5.76,8.26A26.39,26.39,0,0,1,23.28,215Z" transform="translate(-0.95 -2.4)"/><path class="cls-4" d="M448,444.75l9.79-6.65a14.73,14.73,0,0,0,2-7.93l-.06-157.92c-.24-10.95-7.13-22.91-16.52-28.59L220.73,115.33c-3.75-2-7.65-3.24-11.65-1.13l-9.77,6.66c4-2.09,7.93-.93,11.66,1.14L433.44,250.32c9.4,5.68,16.29,17.74,16.54,28.59l0,157.92A14.52,14.52,0,0,1,448,444.75Z" transform="translate(-0.95 -2.4)"/><path class="cls-1" d="M433.44,250.32,211,122c-9.08-5.26-16.5-1-16.5,9.51l.05,157.94c0,10.47,7.44,23.34,16.53,28.59L433.53,446.37c9.08,5.25,16.53.95,16.5-9.54l0-157.92C450,268.44,442.53,255.54,433.44,250.32Z" transform="translate(-0.95 -2.4)"/><path class="cls-3" d="M432.47,262.17l-58.6-33.81L212,135c-4.16-2.41-7.55-.45-7.55,4.38l.06,153.76A16.73,16.73,0,0,0,212,306.19l182.7,105.38,37.81,21.82c4.16,2.38,7.54.46,7.54-4.38L440,275.25A16.69,16.69,0,0,0,432.47,262.17Z" transform="translate(-0.95 -2.4)"/><path class="cls-1" d="M41.74,412.81v12.06c1.07,3.63,3.47,5.73,6.61,7.63l223.36,129a33.36,33.36,0,0,0,15.45,3.89c6.32.11,12.11-.87,17.69-3.92L442,482.16c3.14-1.93,5.55-4,6.6-7.66V462.44c-1,3.63-3.46,5.71-6.6,7.63L304.85,549.39c-5.58,3.09-11.37,4-17.69,4a33.39,33.39,0,0,1-15.45-3.92l-223.36-129C45.21,418.51,42.81,416.43,41.74,412.81Z" transform="translate(-0.95 -2.4)"/><path class="cls-4" d="M442,450.89,218.62,321.94c-9.14-5.28-24-5.28-33.12,0L48.35,401.26c-9.11,5.3-9.11,13.9,0,19.18l223.36,129c9.12,5.24,24,5.24,33.14,0L442,470.07C451.1,464.79,451.1,456.16,442,450.89Z" transform="translate(-0.95 -2.4)"/><polygon class="cls-1" points="200.91 493.6 139.81 458.3 186.6 431.26 247.7 466.55 200.91 493.6"/><path class="cls-1" d="M414,455.38Q312.45,396.76,211,338.08c-4.87-2.78-12.82-2.78-17.68,0l-69.21,40c-4.85,2.81-4.85,7.41,0,10.22q101.51,58.62,203,117.3c4.87,2.81,12.82,2.81,17.69,0l69.21-40C418.9,462.79,418.87,458.19,414,455.38Z" transform="translate(-0.95 -2.4)"/><path class="cls-3" d="M324.89,444.16l-10-5.76a8,8,0,0,0-7.3,0l-10,5.76c-2,1.15-2,3,0,4.21l10,5.77a8,8,0,0,0,7.27,0l10-5.77C326.89,447.21,326.89,445.31,324.89,444.16Z" transform="translate(-0.95 -2.4)"/><path class="cls-3" d="M364.1,466.79l9.95,5.77c2,1.16,2,3.05,0,4.21l-10,5.76a8.07,8.07,0,0,1-7.29,0l-10-5.76c-2-1.16-2-3,0-4.21l10-5.77A8.15,8.15,0,0,1,364.1,466.79Z" transform="translate(-0.95 -2.4)"/><path class="cls-3" d="M339.52,481l10,5.76c2,1.19,2,3.06,0,4.22l-10,5.77a8,8,0,0,1-7.27,0l-10-5.74c-2-1.17-2-3.06,0-4.22l10-5.79A8.09,8.09,0,0,1,339.52,481Z" transform="translate(-0.95 -2.4)"/><path class="cls-3" d="M356.77,454.14l-10-5.8c-2-1.13-2-3,0-4.18l10-5.76a7.9,7.9,0,0,1,7.28,0l10,5.75c2,1.17,2,3.06,0,4.22l-10,5.8A8.09,8.09,0,0,1,356.77,454.14Z" transform="translate(-0.95 -2.4)"/><path class="cls-3" d="M332.19,439.94l-10-5.76c-2-1.17-2-3.06,0-4.22l10-5.8a8.21,8.21,0,0,1,7.31,0l10,5.8c2,1.13,2,3,0,4.19l-10,5.79A8,8,0,0,1,332.19,439.94Z" transform="translate(-0.95 -2.4)"/><path class="cls-3" d="M371.38,462.57l10,5.76a8.11,8.11,0,0,0,7.31,0l10-5.78c2-1.17,2-3.06,0-4.2l-10-5.79a8,8,0,0,0-7.28,0l-10,5.79C369.35,459.52,369.35,461.41,371.38,462.57Z" transform="translate(-0.95 -2.4)"/><path class="cls-3" d="M349.47,458.35l-10-5.76a8.15,8.15,0,0,0-7.3,0l-10,5.76c-2,1.17-2,3.06,0,4.22l10,5.76a8,8,0,0,0,7.27,0l10-5.76C351.47,461.41,351.47,459.52,349.47,458.35Z" transform="translate(-0.95 -2.4)"/><path class="cls-3" d="M275.72,415.76l-10-5.76a8,8,0,0,0-7.3,0l-10,5.79c-2,1.13-2,3,0,4.19l10,5.76a8.09,8.09,0,0,0,7.3,0l10-5.76C277.72,418.81,277.72,416.92,275.72,415.76Z" transform="translate(-0.95 -2.4)"/><path class="cls-3" d="M251.13,430l-10-5.79a8.11,8.11,0,0,0-7.31,0L223.9,430c-2,1.17-2,3.06,0,4.22l10,5.76a8.13,8.13,0,0,0,7.32,0l10-5.78C253.16,433,253.16,431.12,251.13,430Z" transform="translate(-0.95 -2.4)"/><path class="cls-3" d="M307.6,425.74l-10-5.8c-2-1.13-2-3,0-4.18l10-5.76a8,8,0,0,1,7.3,0l10,5.73c2,1.17,2,3.06,0,4.21l-10,5.8A8,8,0,0,1,307.6,425.74Z" transform="translate(-0.95 -2.4)"/><path class="cls-3" d="M283,411.54l-10-5.76c-2-1.17-2-3.06,0-4.23l10-5.75a8.05,8.05,0,0,1,7.31,0l10,5.75c2,1.15,2,3,0,4.2l-10,5.79A8.11,8.11,0,0,1,283,411.54Z" transform="translate(-0.95 -2.4)"/><path class="cls-3" d="M300.3,430l-10-5.77a8.09,8.09,0,0,0-7.3,0L273,430c-2,1.16-2,3.05,0,4.22l10,5.76a8.09,8.09,0,0,0,7.3,0l10-5.76C302.31,433,302.31,431.12,300.3,430Z" transform="translate(-0.95 -2.4)"/><path class="cls-3" d="M324.92,472.58,265.76,438.4a8,8,0,0,0-7.29,0l-10,5.78c-2,1.16-2,3.06,0,4.22l59.15,34.16a8.28,8.28,0,0,0,7.3,0l10-5.79C326.92,475.61,326.92,473.72,324.92,472.58Z" transform="translate(-0.95 -2.4)"/><path class="cls-3" d="M194,368.5l-10-5.75a8.24,8.24,0,0,0-7.31,0l-10,5.78c-2,1.17-2,3.06,0,4.23l9.95,5.76a8.11,8.11,0,0,0,7.31,0l10-5.76C196,371.59,196,369.7,194,368.5Z" transform="translate(-0.95 -2.4)"/><path class="cls-3" d="M169.4,382.74l-10-5.76a8,8,0,0,0-7.27,0l-10,5.78c-2,1.17-2,3,0,4.19l10,5.8a8.12,8.12,0,0,0,7.27,0l10-5.77C171.44,385.79,171.44,383.89,169.4,382.74Z" transform="translate(-0.95 -2.4)"/><path class="cls-3" d="M201.29,364.31l-10-5.78c-2-1.14-2-3,0-4.22l10-5.77a8,8,0,0,1,7.27,0l10,5.77c2,1.17,2,3.06,0,4.22l-10,5.78A8.22,8.22,0,0,1,201.29,364.31Z" transform="translate(-0.95 -2.4)"/><path class="cls-3" d="M218.58,382.74l-10-5.76a8.09,8.09,0,0,0-7.3,0l-10,5.76c-2,1.15-2,3.05,0,4.21l10,5.77a8.09,8.09,0,0,0,7.3,0l10-5.77C220.57,385.79,220.57,383.87,218.58,382.74Z" transform="translate(-0.95 -2.4)"/><path class="cls-3" d="M194,396.94l-10-5.77a8.11,8.11,0,0,0-7.31,0L166.75,397c-2,1.17-2,3.06,0,4.19l10,5.79a8.05,8.05,0,0,0,7.31,0l10-5.79C196,400,196,398.1,194,396.94Z" transform="translate(-0.95 -2.4)"/><path class="cls-3" d="M250.46,392.72l-10-5.77c-2-1.16-2-3.08,0-4.21l10-5.79a8,8,0,0,1,7.27,0l10,5.76c2,1.16,2,3.05,0,4.22l-10,5.79A8,8,0,0,1,250.46,392.72Z" transform="translate(-0.95 -2.4)"/><path class="cls-3" d="M225.87,378.52l-10-5.76c-2-1.17-2-3.06,0-4.26l10-5.75a8.18,8.18,0,0,1,7.31,0l10,5.75c2,1.17,2,3.07,0,4.23l-10,5.79A8.18,8.18,0,0,1,225.87,378.52Z" transform="translate(-0.95 -2.4)"/><path class="cls-3" d="M243.13,396.94l-10-5.77a8,8,0,0,0-7.28,0l-10,5.77c-2,1.16-2,3.05,0,4.21l10,5.76a8.11,8.11,0,0,0,7.31,0l10-5.76C245.15,400,245.15,398.1,243.13,396.94Z" transform="translate(-0.95 -2.4)"/><path class="cls-3" d="M218.58,411.13l-10-5.76a8.09,8.09,0,0,0-7.3,0l-10,5.79c-2,1.16-2,3.06,0,4.19l10,5.79a8.15,8.15,0,0,0,7.33,0l10-5.79C220.57,414.19,220.57,412.32,218.58,411.13Z" transform="translate(-0.95 -2.4)"/><path class="cls-4" d="M287,565.4V553.34h.19c6.28.08,12.15-.86,17.69-4L442,470.07c3.17-1.92,5.52-4,6.6-7.63V474.5c-1.08,3.65-3.43,5.7-6.6,7.66L304.85,561.48c-5.54,3-11.41,4-17.69,3.92Z" transform="translate(-0.95 -2.4)"/><path class="cls-4" d="M375.51,361.71c-.13,2.07-.45,3.59-2.2,4.82l-5.88,3.39c1.78-1.23,2.11-2.75,2.19-4.82V257.87A16.3,16.3,0,0,0,362.15,245l-138-79.67c-1.82-1-3.32-1.44-5.27-.52l5.89-3.39c1.94-.93,3.45-.44,5.27.52l138,79.66a16.44,16.44,0,0,1,7.47,12.92Z" transform="translate(-0.95 -2.4)"/><path class="cls-2" d="M374.05,361.71h0Zm0,0V254.55a14.89,14.89,0,0,0-6.74-11.74L229.37,163.17c-1.63-.86-2.6-1.13-3.87-.54l-1.62.92c.37.16.69.32,1,.49l138,79.7a17.81,17.81,0,0,1,8.13,14.13V365.16c0,.36-.05.7-.05,1l1.51-.87c1.21-.85,1.45-1.82,1.54-3.67Zm-7.84,9a1.43,1.43,0,0,1,.41-1.94c1.22-.87,1.45-1.85,1.58-3.65V257.94a14.94,14.94,0,0,0-6.75-11.73L223.52,166.56c-1.67-.85-2.65-1.13-4-.48a1.47,1.47,0,0,1-1.91-.63,1.42,1.42,0,0,1,.57-1.93l6-3.43c2.68-1.28,4.79-.4,6.59.56l138.06,79.7a17.69,17.69,0,0,1,8.11,14.13V361.77c-.07,2.09-.4,4.26-2.87,6l-5.89,3.4a1.43,1.43,0,0,1-2-.48Z" transform="translate(-0.95 -2.4)"/><path class="cls-3" d="M223.88,289.56a15.72,15.72,0,0,1-5-5.38h0a15.21,15.21,0,0,1-2.16-7.36V169.6c0-2.38.81-4,2.16-4.83s3.24-.67,5.27.52l138,79.67a15.14,15.14,0,0,1,5.28,5.56h0a15.35,15.35,0,0,1,2.19,7.34V365.1c0,2.38-.85,4-2.19,4.82s-3.21.68-5.28-.51Z" transform="translate(-0.95 -2.4)"/><path class="cls-2" d="M223.88,289.56h0Zm142.25-38.39a13.79,13.79,0,0,0-4.68-5l-138-79.67c-1.49-.87-2.88-1.06-3.81-.52s-1.47,1.84-1.47,3.58V276.81a13.65,13.65,0,0,0,2,6.65,13.92,13.92,0,0,0,4.47,4.86l138.27,79.84c1.49.87,2.92,1.06,3.81.52s1.5-1.85,1.5-3.58V257.87a14.08,14.08,0,0,0-2-6.62s0-.06-.08-.08Zm-4.68,119.47L223.15,290.8l0,0a16.75,16.75,0,0,1-5.45-5.89,16.51,16.51,0,0,1-2.39-8.07V169.6c0-2.84,1.06-5,2.93-6.08s4.26-.88,6.7.52l138,79.67a16.88,16.88,0,0,1,5.8,6.09s0,0,0,.09a16.59,16.59,0,0,1,2.32,8V365.1c0,2.82-1,5-2.89,6.07a5.23,5.23,0,0,1-2.68.7A8.11,8.11,0,0,1,361.45,370.64Z" transform="translate(-0.95 -2.4)"/><path class="cls-1" d="M282.51,329.79q-7.54-19.49-15.1-39c-2,5.58-7.75,7.16-13.2,5.2v0l13.6,35.1,3.09-9.06c.29-.81,1.13-.86,2-.13l9.62,7.87Zm-34.95-37.62a41.17,41.17,0,0,1-13.2-20.4l-11.49,16.36a.41.41,0,0,1-.18.19l-3.31,4.73,9.62,3.24a3.36,3.36,0,0,1,2,2.43l3.09,12.62,13.49-19.17Z" transform="translate(-0.95 -2.4)"/><path class="cls-2" d="M245.61,292.44A43.29,43.29,0,0,1,233.87,275l-12.18,17.36,7.71,2.6a4.9,4.9,0,0,1,3,3.47l2.33,9.53,10.88-15.47Zm-11.54,20.34-.25,0a1.44,1.44,0,0,1-1.13-1.09l-3.08-12.61a2.23,2.23,0,0,0-1.06-1.42l-9.63-3.21a1.49,1.49,0,0,1-.72-2.21l15-21.28a1.39,1.39,0,0,1,1.42-.59,1.41,1.41,0,0,1,1.13,1,40,40,0,0,0,12.71,19.68,1.4,1.4,0,0,1,.28,1.94l-13.47,19.16a1.41,1.41,0,0,1-1.19.62ZM271.76,320a3.26,3.26,0,0,1,2.07.84l5.35,4.4-12-31a9.66,9.66,0,0,1-3.65,3,12,12,0,0,1-7,.89l11.18,28.78,1.82-5.3a2.3,2.3,0,0,1,1.55-1.55,3,3,0,0,1,.65-.08Zm-5.28,11.65-13.6-35.08a1.38,1.38,0,0,1,.32-1.46,1.6,1.6,0,0,1,1.51-.41,10,10,0,0,0,7.58-.05,7.17,7.17,0,0,0,3.73-4.28,1.47,1.47,0,0,1,2.74,0l15.1,39a1.43,1.43,0,0,1-2.23,1.64l-9.6-7.78-2.83,8.43a1.44,1.44,0,0,1-1.34,1h-.05A1.43,1.43,0,0,1,266.48,331.62Z" transform="translate(-0.95 -2.4)"/><path class="cls-1" d="M237,256.15c3.2-1.85,7.6-1.58,12.5,1.23s9.18,7.54,12.4,13l.07.2c3.2,5.52,5.16,11.77,5.16,17.39a17.92,17.92,0,0,1-.2,3,11.82,11.82,0,0,1-.45,2.13c-.86,2.8-2.08,4.84-4.31,6.2a11,11,0,0,1-9.65.33c-10.81-3.9-20.68-19.62-20.68-32.05C231.8,262,233.75,258,237,256.15Z" transform="translate(-0.95 -2.4)"/><path class="cls-2" d="M241.55,256.4a7.8,7.8,0,0,0-3.86,1h0c-2.89,1.66-4.47,5.28-4.47,10.19,0,12.13,9.59,27,19.77,30.71a9.65,9.65,0,0,0,8.37-.21c1.79-1.09,2.89-2.7,3.7-5.36a15.06,15.06,0,0,0,.4-2,20.29,20.29,0,0,0,.21-2.79c0-5.2-1.79-11.13-5.08-16.85-3.21-5.47-7.39-9.91-11.86-12.49a14.69,14.69,0,0,0-7.18-2.22ZM252,301c-11.13-4-21.66-20.23-21.66-33.39,0-6,2.12-10.48,5.9-12.67h0c3.81-2.2,8.76-1.75,13.92,1.23,4.92,2.82,9.46,7.63,13,13.72s5.36,12.41,5.36,18.11a24.13,24.13,0,0,1-.21,3.18,13.66,13.66,0,0,1-.53,2.38c-1,3.38-2.55,5.54-5,7a11.18,11.18,0,0,1-5.64,1.46A13.84,13.84,0,0,1,252,301Z" transform="translate(-0.95 -2.4)"/><path class="cls-3" d="M344.45,308.86a1.45,1.45,0,0,0,.72-2.7L292,275.49a1.41,1.41,0,0,0-1.95.52,1.42,1.42,0,0,0,.52,2l53.13,30.69A1.63,1.63,0,0,0,344.45,308.86Z" transform="translate(-0.95 -2.4)"/><path class="cls-3" d="M344.45,326.15a1.47,1.47,0,0,0,1.25-.71,1.45,1.45,0,0,0-.53-2L292,292.79a1.44,1.44,0,1,0-1.46,2.49L343.72,326A1.5,1.5,0,0,0,344.45,326.15Z" transform="translate(-0.95 -2.4)"/><path class="cls-4" d="M241.42,263.86c2-1.19,4.87-1,8,.8a23.23,23.23,0,0,1,8,8.36l0,.12a23.21,23.21,0,0,1,3.34,11.19,10,10,0,0,1-1.19,5.16v0c-1.86,3.21-5.56,3.83-9.62,1.68a22.33,22.33,0,0,1-8.57-8.77h0a22.87,22.87,0,0,1-3.33-11.2C238.09,267.59,239.35,265.05,241.42,263.86Z" transform="translate(-0.95 -2.4)"/><path class="cls-2" d="M244.38,264.53a4.58,4.58,0,0,0-2.27.57h0c-1.67,1-2.6,3.14-2.6,6.12a22,22,0,0,0,3.13,10.47,21.71,21.71,0,0,0,8,8.23c3.41,1.79,6.29,1.36,7.76-1.17a9.1,9.1,0,0,0,1-4.42,21.91,21.91,0,0,0-3.21-10.59,21.16,21.16,0,0,0-7.43-7.83,8.74,8.74,0,0,0-4.35-1.38Zm4.93,27.92a24.33,24.33,0,0,1-9.15-9.32,24.64,24.64,0,0,1-3.54-11.91c0-4.05,1.47-7.1,4.07-8.62h0c2.6-1.51,6-1.21,9.46.81a24.09,24.09,0,0,1,8.57,9,24.48,24.48,0,0,1,3.54,11.91,11.66,11.66,0,0,1-1.39,5.91,7.08,7.08,0,0,1-6.32,3.64A11.23,11.23,0,0,1,249.31,292.45Z" transform="translate(-0.95 -2.4)"/><path class="cls-3" d="M344.45,265.87a1.47,1.47,0,0,0,1.25-.73,1.44,1.44,0,0,0-.53-1.95L242.6,204a1.41,1.41,0,0,0-1.95.52,1.44,1.44,0,0,0,.53,2l102.54,59.21A1.63,1.63,0,0,0,344.45,265.87Z" transform="translate(-0.95 -2.4)"/><path class="cls-1" d="M366.9,249.66a14.71,14.71,0,0,0-4.75-4.7l-138-79.67c-1.82-1-3.32-1.44-5.27-.52l5.89-3.39c1.94-.93,3.45-.44,5.27.52l138,79.66a15.25,15.25,0,0,1,4.75,4.71Z" transform="translate(-0.95 -2.4)"/><path class="cls-2" d="M370.68,245.82a12.41,12.41,0,0,0-3.37-3L229.37,163.17c-1.63-.86-2.6-1.13-3.87-.54l-1.62.92c.37.16.69.32,1,.49l138,79.7a15.92,15.92,0,0,1,4.39,4l3.37-1.94Zm-5,4.66a13.7,13.7,0,0,0-4.27-4.27L223.52,166.56c-1.67-.85-2.65-1.13-4-.48a1.47,1.47,0,0,1-1.91-.63,1.42,1.42,0,0,1,.57-1.93l6-3.43c2.68-1.28,4.79-.4,6.59.56l138.06,79.7a16.61,16.61,0,0,1,5.15,5.1,1.23,1.23,0,0,1,.21,1.13,1.41,1.41,0,0,1-.7.94l-5.84,3.39a1.64,1.64,0,0,1-.73.18A1.44,1.44,0,0,1,365.72,250.48Z" transform="translate(-0.95 -2.4)"/><path class="cls-4" d="M335.21,310.59l13.53-7.81,1.65-.54a26.12,26.12,0,0,1,11.06-.54c10.3,1.58,20.42,8.32,27.89,15.31,15.88,14.86,28.53,38.56,30.35,60.36.63,7.49,0,15.95-3.2,22.84a25.68,25.68,0,0,1-5.22,7.49L410,408.85l-13.54,7.81a26,26,0,0,0,2.51-2.42,28.49,28.49,0,0,0,5.47-10c3.25-10.15,2-22.47-.68-32.61-5.42-20.21-19.13-41.72-36.42-53.72-6.18-4.29-13.8-8-21.38-8.66a25.78,25.78,0,0,0-9.09.78Z" transform="translate(-0.95 -2.4)"/><path class="cls-2" d="M357.05,302.28a23.38,23.38,0,0,0-6.37.83l-1.48.47-8.29,4.79a28.23,28.23,0,0,1,5.12,0c8.64.77,16.62,5.21,21.81,8.82,16.61,11.52,31.05,32.81,36.79,54.24,1.91,7.16,4.55,21,.67,33.13a30.64,30.64,0,0,1-4.08,8.31l8.14-4.69,1.27-1.13a24.83,24.83,0,0,0,5-7.21c3.5-7.5,3.63-16.3,3.12-22.37-1.74-20.85-13.54-44.3-30.06-59.77-5.18-4.85-15.64-13.26-27.4-15.07a28,28,0,0,0-4.26-.33Zm38.7,114.87a1,1,0,0,1,.18-1.27,24.84,24.84,0,0,0,2.33-2.25,27.39,27.39,0,0,0,5.28-9.66c3.74-11.69,1.17-25.12-.69-32.08-5.64-21-19.79-41.91-36.06-53.21-5-3.47-12.69-7.77-20.94-8.5a24.81,24.81,0,0,0-8.71.75l-1.64.54a.93.93,0,0,1-.76-1.68l13.71-7.89,1.68-.55a27.44,27.44,0,0,1,11.46-.57c12.25,1.89,23,10.56,28.38,15.55,16.84,15.76,28.86,39.69,30.65,61,.51,6.29.37,15.44-3.29,23.3a26.55,26.55,0,0,1-5.45,7.79l-1.44,1.26-13.54,7.81a.76.76,0,0,1-.4.11A.9.9,0,0,1,395.75,417.15Z" transform="translate(-0.95 -2.4)"/><path class="cls-1" d="M362.87,415.56c-24-13.87-43.5-47.6-43.5-75.34s19.48-39,43.5-25.12,43.51,47.6,43.51,75.35S386.89,429.42,362.87,415.56Z" transform="translate(-0.95 -2.4)"/><path class="cls-2" d="M362.87,415.56h0ZM343.45,310.07a21.45,21.45,0,0,0-10.87,2.78c-7.92,4.57-12.28,14.3-12.28,27.37,0,27.4,19.3,60.83,43,74.53,11.32,6.54,21.92,7.62,29.85,3.05s12.27-14.28,12.27-27.35c0-27.41-19.3-60.85-43-74.56-6.71-3.87-13.17-5.82-19-5.82Zm19,106.29h0c-24.23-14-44-48.15-44-76.14,0-13.76,4.68-24.05,13.2-29s19.75-3.83,31.67,3.05c24.25,14,44,48.16,44,76.15,0,13.76-4.7,24-13.21,28.95a23.27,23.27,0,0,1-11.79,3C376.18,422.44,369.42,420.39,362.41,416.36Z" transform="translate(-0.95 -2.4)"/><path class="cls-3" d="M362.87,404.63c-19.22-11.09-34.8-38.09-34.8-60.28s15.58-31.21,34.8-20.12,34.82,38.11,34.82,60.31S382.1,415.74,362.87,404.63Z" transform="translate(-0.95 -2.4)"/><path class="cls-2" d="M347.33,320.39a16.93,16.93,0,0,0-8.61,2.21C332.45,326.23,329,334,329,344.35c0,21.87,15.4,48.55,34.34,59.48,9,5.2,17.43,6.07,23.71,2.44s9.73-11.34,9.73-21.73c0-21.87-15.42-48.57-34.36-59.51-5.34-3.07-10.48-4.64-15.08-4.64Zm15.08,85C343,394.2,327.14,366.8,327.14,344.35c0-11.09,3.79-19.38,10.66-23.35s15.95-3.1,25.53,2.44c19.46,11.23,35.28,38.64,35.28,61.1,0,11.08-3.78,19.36-10.65,23.33a18.82,18.82,0,0,1-9.53,2.46C373.5,410.33,368,408.68,362.41,405.43Z" transform="translate(-0.95 -2.4)"/><path class="cls-1" d="M362.88,394.61c-14.43-8.33-26.13-28.59-26.13-45.25s11.7-23.41,26.13-15.08S389,362.86,389,379.53,377.31,402.94,362.88,394.61Z" transform="translate(-0.95 -2.4)"/><path class="cls-2" d="M362.88,394.61h0Zm-11.67-63a12.6,12.6,0,0,0-6.35,1.62c-4.63,2.68-7.18,8.4-7.18,16.12,0,16.34,11.51,36.28,25.66,44.45h0c6.68,3.86,12.91,4.51,17.55,1.83s7.19-8.4,7.19-16.11c0-16.34-11.51-36.28-25.66-44.45a22.82,22.82,0,0,0-11.21-3.46Zm11.21,63.78h0c-14.66-8.45-26.59-29.11-26.59-46,0-8.41,2.88-14.69,8.11-17.71s12.12-2.37,19.4,1.83c14.66,8.46,26.59,29.12,26.59,46,0,8.4-2.89,14.69-8.12,17.71a14.3,14.3,0,0,1-7.26,1.87A24.53,24.53,0,0,1,362.42,395.4Z" transform="translate(-0.95 -2.4)"/><path class="cls-3" d="M362.88,345.19c-9.63-5.56-17.44-1.05-17.44,10.08s7.81,24.64,17.44,30.21,17.44,1,17.44-10.08S372.52,350.75,362.88,345.19Z" transform="translate(-0.95 -2.4)"/><path class="cls-2" d="M362.42,346h0c-4.36-2.52-8.41-2.95-11.41-1.22s-4.64,5.46-4.64,10.5c0,10.8,7.61,24,17,29.41,4.36,2.52,8.42,2.95,11.41,1.22s4.65-5.46,4.65-10.5c0-10.8-7.61-24-17-29.41Zm0,40.28c-9.87-5.69-17.9-19.61-17.9-31,0-5.73,2-10,5.57-12.09s8.3-1.65,13.25,1.21h0c9.88,5.69,17.91,19.61,17.91,31,0,5.73-2,10-5.58,12.1a9.86,9.86,0,0,1-5,1.28A16.64,16.64,0,0,1,362.42,386.27Z" transform="translate(-0.95 -2.4)"/><path class="cls-1" d="M362.88,374.54c4.83,2.79,8.75.53,8.75-5.05s-3.92-12.36-8.75-15.15-8.75-.53-8.75,5.05S358.05,371.75,362.88,374.54Z" transform="translate(-0.95 -2.4)"/><path class="cls-2" d="M362.88,374.54h0ZM359,354.07a3.63,3.63,0,0,0-1.81.45c-1.36.79-2.11,2.52-2.11,4.87,0,5.27,3.72,11.71,8.29,14.36h0c2,1.18,3.91,1.4,5.27.61s2.09-2.5,2.09-4.86c0-5.28-3.71-11.72-8.28-14.35a7.1,7.1,0,0,0-3.45-1.07Zm3.45,21.27h0c-5.08-2.93-9.21-10.09-9.21-15.95,0-3,1.07-5.34,3-6.46s4.48-.91,7.11.61c5.08,2.93,9.21,10.08,9.21,15.95,0,3-1.08,5.34-3,6.46a5.43,5.43,0,0,1-2.75.72A8.82,8.82,0,0,1,362.42,375.34Z" transform="translate(-0.95 -2.4)"/><path class="cls-1" d="M329.88,381.93l-7.4-3.2c-.33-.14-.57.07-.84.23l-19.9,11.44a1.58,1.58,0,0,0-.8,1.68c.14.64,2.41,1.67,3.22,2.1l2.34,1.26Z" transform="translate(-0.95 -2.4)"/><path class="cls-2" d="M327.83,382.05l-5.54-2.4-.19.11L302.21,391.2a.85.85,0,0,0-.43.53,12,12,0,0,0,2.29,1.37l2.42,1.28,21.34-12.33Zm-21.77,14.2-2.82-1.5c-2.07-1.05-3-1.65-3.2-2.47a2.5,2.5,0,0,1,1.24-2.68l20-11.5a1.55,1.55,0,0,1,1.56-.21l7.4,3.19a.94.94,0,0,1,.56.8,1,1,0,0,1-.46.84L307,396.24a.89.89,0,0,1-.47.12A.87.87,0,0,1,306.06,396.25Z" transform="translate(-0.95 -2.4)"/><path class="cls-1" d="M330.42,383.08l-.94,7.77c0,.36-.34.46-.61.61L309,403a1.57,1.57,0,0,1-1.86-.14c-.48-.43-.23-2.69-.2-3.59l.07-2.66Z" transform="translate(-0.95 -2.4)"/><path class="cls-2" d="M328.59,390.56l.69-5.75-21.34,12.33-.09,2.8a20.58,20.58,0,0,0-.07,2.24.67.67,0,0,0,.77,0l19.86-11.53.18-.1Zm-22,13c-.66-.6-.65-1.86-.54-3.71l.11-3.24a.92.92,0,0,1,.46-.78L330,382.29a1,1,0,0,1,1,0,.92.92,0,0,1,.4.88L330.4,391a1.65,1.65,0,0,1-1.07,1.3l-19.85,11.53a2.58,2.58,0,0,1-1.32.36A2.38,2.38,0,0,1,306.54,403.53Z" transform="translate(-0.95 -2.4)"/><path class="cls-4" d="M306.33,398.06l56.93-32.87a1.22,1.22,0,0,0,.45-1.66l-.41-.7a1.23,1.23,0,0,0-1.67-.45l-56.91,32.89a1.22,1.22,0,0,0-.44,1.67l.39.67A1.21,1.21,0,0,0,306.33,398.06Z" transform="translate(-0.95 -2.4)"/><path class="cls-2" d="M362.24,363.15a.19.19,0,0,0-.14,0l-56.92,32.88a.36.36,0,0,0-.11.41l.4.67a.31.31,0,0,0,.41.11h0l56.91-32.87a.29.29,0,0,0,.11-.4l-.4-.7a.29.29,0,0,0-.26-.14Zm-57.07,35.92a2.13,2.13,0,0,1-1.31-1l-.38-.67a2.16,2.16,0,0,1,.78-2.93l56.92-32.89a2.15,2.15,0,0,1,2.92.79l.41.7a2.17,2.17,0,0,1-.79,2.93l-56.93,32.86a2.07,2.07,0,0,1-1.05.28A2.22,2.22,0,0,1,305.17,399.07Z" transform="translate(-0.95 -2.4)"/></g></g></svg>