<svg xmlns="http://www.w3.org/2000/svg" viewBox="0 0 494.16 496.45"><defs><style>.cls-1{fill:#9aceef;}.cls-1,.cls-3,.cls-4{stroke:#0072c8;stroke-linecap:round;stroke-linejoin:round;stroke-width:0.75px;}.cls-1,.cls-2,.cls-3,.cls-4{fill-rule:evenodd;}.cls-2{fill:none;}.cls-3{fill:#d9e8ff;}.cls-4{fill:#fff;}</style></defs><g id="Layer_2" data-name="Layer 2"><g id="Layer_1-2" data-name="Layer 1"><polygon class="cls-1" points="224.24 79.21 196.8 63.37 181.27 66.61 208.71 82.45 224.24 79.21"/><path class="cls-2" d="M186.5,69.66l23.84,13.77L221.8,81,198,67.27,186.5,69.66Zm23.6,16.62a1.4,1.4,0,0,1-.68-.19L182,70.25a1.38,1.38,0,0,1,.41-2.55l15.52-3.25a1.47,1.47,0,0,1,1,.16l27.44,15.84a1.39,1.39,0,0,1-.41,2.56l-15.53,3.24A1.36,1.36,0,0,1,210.1,86.28Z" transform="translate(-1.39 -2.45)"/><polygon class="cls-1" points="197.98 45.33 170.53 29.49 156.06 46.47 183.49 62.32 197.98 45.33"/><path class="cls-2" d="M159.58,48.55l25,14.44,12.65-14.85-25-14.43L159.58,48.55Zm25.3,17.59a1.31,1.31,0,0,1-.68-.18L156.76,50.12a1.36,1.36,0,0,1-.67-1,1.41,1.41,0,0,1,.3-1.13l14.49-17a1.34,1.34,0,0,1,1.73-.29l27.44,15.82a1.42,1.42,0,0,1,.69,1,1.47,1.47,0,0,1-.32,1.14l-14.48,17A1.37,1.37,0,0,1,184.88,66.14Z" transform="translate(-1.39 -2.45)"/><polygon class="cls-1" points="183.49 62.32 156.06 46.47 147.82 47.29 175.26 63.13 183.49 62.32"/><path class="cls-2" d="M153.64,50.68,177,64.16l3.51-.36L157.15,50.34l-3.51.34Zm23,16.29a1.41,1.41,0,0,1-.7-.19L148.52,50.93a1.36,1.36,0,0,1-.66-1.48,1.4,1.4,0,0,1,1.21-1.09l8.24-.82a1.39,1.39,0,0,1,.83.18l27.44,15.85a1.37,1.37,0,0,1-.56,2.56l-8.23.83Z" transform="translate(-1.39 -2.45)"/><polygon class="cls-3" points="170.31 48.07 142.87 32.23 121.89 44.33 149.34 60.17 170.31 48.07"/><path class="cls-2" d="M126.07,46.77,150.73,61l18.21-10.51L144.26,36.27l-18.19,10.5ZM150.73,64a1.51,1.51,0,0,1-.69-.18L122.6,48a1.4,1.4,0,0,1,0-2.41l21-12.09a1.33,1.33,0,0,1,1.36,0l27.45,15.84a1.38,1.38,0,0,1,0,2.39l-21,12.11A1.54,1.54,0,0,1,150.73,64Z" transform="translate(-1.39 -2.45)"/><polygon class="cls-1" points="149.34 60.17 121.89 44.33 116.94 65.11 144.38 80.96 149.34 60.17"/><path class="cls-2" d="M119.92,66.89l24.94,14.39,4.28-18L124.21,48.89l-4.29,18Zm25.86,17.89a1.42,1.42,0,0,1-.7-.17L117.64,68.76a1.37,1.37,0,0,1-.65-1.52l5-20.78a1.41,1.41,0,0,1,.8-1,1.43,1.43,0,0,1,1.23.07l27.44,15.86a1.37,1.37,0,0,1,.65,1.5l-4.95,20.8a1.33,1.33,0,0,1-1.34,1Z" transform="translate(-1.39 -2.45)"/><polygon class="cls-3" points="144.38 80.96 116.94 65.11 108.7 73.81 136.15 89.65 144.38 80.96"/><path class="cls-2" d="M112.31,75.94l25,14.41,6.29-6.62-25-14.42-6.27,6.63Zm25.23,17.54a1.33,1.33,0,0,1-.69-.19L109.41,77.45a1.38,1.38,0,0,1-.68-1,1.35,1.35,0,0,1,.37-1.14l8.23-8.69a1.37,1.37,0,0,1,1.7-.25l27.44,15.84a1.38,1.38,0,0,1,.31,2.14l-8.23,8.7A1.39,1.39,0,0,1,137.54,93.48Z" transform="translate(-1.39 -2.45)"/><polygon class="cls-1" points="136.15 89.65 108.7 73.81 94.23 73.55 121.67 89.39 136.15 89.65"/><path class="cls-2" d="M123.44,90.46l8.77.15-22.49-13L101,77.48l22.48,13Zm14.1,3h0L123,93.22a1.34,1.34,0,0,1-.66-.2L94.94,77.18a1.37,1.37,0,0,1-.65-1.56,1.39,1.39,0,0,1,1.33-1h0l14.47.27a1.27,1.27,0,0,1,.66.19L138.23,90.9a1.38,1.38,0,0,1-.69,2.58Z" transform="translate(-1.39 -2.45)"/><polygon class="cls-3" points="121.67 89.39 94.23 73.55 79.42 99.18 106.88 115.02 121.67 89.39"/><path class="cls-2" d="M82.71,101.12l25,14.46,13.42-23.24-25-14.46L82.71,101.12Zm25.56,17.73a1.3,1.3,0,0,1-.69-.18L80.13,102.83a1.41,1.41,0,0,1-.5-1.9L94.43,75.3a1.35,1.35,0,0,1,.84-.64,1.38,1.38,0,0,1,1,.13l27.44,15.84a1.39,1.39,0,0,1,.49,1.9l-14.79,25.63a1.4,1.4,0,0,1-.84.65A2.21,2.21,0,0,1,108.27,118.85Z" transform="translate(-1.39 -2.45)"/><polygon class="cls-1" points="106.88 115.02 79.42 99.18 86.91 111.58 83.48 123.06 110.93 138.9 114.34 127.42 106.88 115.02"/><path class="cls-2" d="M86.51,124.86l25,14.41,2.74-9.2-7-11.58-22.49-13,4.71,7.8a1.35,1.35,0,0,1,.14,1.11l-3.11,10.44Zm25.81,17.87a1.38,1.38,0,0,1-.69-.19L84.2,126.71a1.37,1.37,0,0,1-.64-1.59l3.24-10.9-7.16-11.88a1.38,1.38,0,0,1,1.87-1.91L109,116.27a1.24,1.24,0,0,1,.5.49l7.47,12.39a1.46,1.46,0,0,1,.14,1.12l-3.41,11.47a1.42,1.42,0,0,1-.82.89A1.25,1.25,0,0,1,112.32,142.73Z" transform="translate(-1.39 -2.45)"/><polygon class="cls-3" points="110.93 138.9 83.48 123.06 67.96 137.75 95.4 153.6 110.93 138.9"/><path class="cls-2" d="M71.65,139.92l24.94,14.4L110,141.61,85.09,127.22l-13.44,12.7Zm25.15,17.5a1.37,1.37,0,0,1-.7-.19L68.66,141.39a1.35,1.35,0,0,1-.68-1,1.39,1.39,0,0,1,.42-1.17L83.94,124.5a1.36,1.36,0,0,1,1.63-.18L113,140.14a1.37,1.37,0,0,1,.66,1.05,1.33,1.33,0,0,1-.41,1.17L97.74,157A1.36,1.36,0,0,1,96.8,157.42Z" transform="translate(-1.39 -2.45)"/><path class="cls-1" d="M96.8,156,69.35,140.19v24.22l17,9.8-5.52,15.53,27.45,15.84,7.46-21L112.32,177,96.8,168Z" transform="translate(-1.39 -2.45)"/><path class="cls-2" d="M82.51,189.11l25,14.44,6.72-18.93-3-6.63L96.1,169.23a1.36,1.36,0,0,1-.69-1.19V156.83L70.73,142.59v21L87,173a1.37,1.37,0,0,1,.61,1.66l-5.13,14.44ZM108.27,207a1.51,1.51,0,0,1-.69-.18L80.13,190.94a1.41,1.41,0,0,1-.61-1.67l5.12-14.43-16-9.24a1.4,1.4,0,0,1-.7-1.19V140.19a1.4,1.4,0,0,1,.7-1.19A1.36,1.36,0,0,1,70,139l27.45,15.84a1.39,1.39,0,0,1,.69,1.2v11.21L113,175.81a1.43,1.43,0,0,1,.56.63L117,184a1.41,1.41,0,0,1,.05,1l-7.47,21a1.37,1.37,0,0,1-.83.82A1.27,1.27,0,0,1,108.27,207Z" transform="translate(-1.39 -2.45)"/><polygon class="cls-1" points="144.38 193.88 116.94 178.03 121.89 193.1 149.34 208.94 144.38 193.88"/><path class="cls-2" d="M124.44,194.62l23.84,13.76-3.66-11.12-23.84-13.77,3.66,11.13Zm26.29,18.16a1.4,1.4,0,0,1-.69-.19L122.6,196.74A1.45,1.45,0,0,1,122,196l-5-15.08a1.4,1.4,0,0,1,.44-1.51,1.39,1.39,0,0,1,1.57-.11l27.44,15.84a1.35,1.35,0,0,1,.63.76L152,211a1.4,1.4,0,0,1-1.31,1.83Z" transform="translate(-1.39 -2.45)"/><path class="cls-1" d="M151.85,147.17l-27.44-15.84a7.24,7.24,0,0,0,5,.74c6-1,11.42-7.22,14.21-12.39,2.59-4.82,4.76-12.17,2.44-17.42a7.07,7.07,0,0,0-2.91-3.38l27.45,15.84c5.08,3.09,4.21,10.93,2.64,15.74-2.17,6.67-7.74,14.56-14.54,17a8.43,8.43,0,0,1-6.34,0Z" transform="translate(-1.39 -2.45)"/><path class="cls-2" d="M152.52,146l.46.23a7.12,7.12,0,0,0,5.25-.08c6.26-2.21,11.63-9.78,13.69-16.1,1.62-5,2-11.62-2-14.12l-22-12.7c1.6,5.49-.42,12.3-3,17.13-2.74,5.09-8.06,11.38-14.32,12.92l22,12.72Zm2.75,3.47a8.38,8.38,0,0,1-3.51-.75l-.54-.28-.06,0-27.45-15.84a1.38,1.38,0,0,1,1.34-2.42,6.05,6.05,0,0,0,4.11.61c5.29-.92,10.45-6.54,13.24-11.7,2.41-4.5,4.5-11.43,2.39-16.21a5.73,5.73,0,0,0-2.39-2.76,1.37,1.37,0,0,1-.44-1.88,1.4,1.4,0,0,1,1.88-.49l27.43,15.84c5.52,3.35,5.31,11.16,3.28,17.36-2.21,6.76-8,15.22-15.4,17.85A11.93,11.93,0,0,1,155.27,149.44Z" transform="translate(-1.39 -2.45)"/><path class="cls-3" d="M170.59,136.37c-5.18,8.95-13.57,13.79-18.74,10.8s-5.17-12.68,0-21.63,13.56-13.8,18.74-10.82,5.16,12.68,0,21.65ZM206.7,132l3.4-11.47,15.54-14.69V81.66L210.1,84.89l-3.4-7.54,7.46-21-14.79-8.54-14.49,17-8.22.81-5-15.06-21,12.09-4.95,20.8-8.24,8.68-14.48-.26q-7.41,12.83-14.79,25.64l7.46,12.4-3.41,11.47L96.8,156v24.2L112.32,177l3.41,7.55-7.46,21,14.79,8.54,14.48-17,8.24-.81,4.95,15.06,21-12.11,5-20.78,8.22-8.7,14.49.27,14.79-25.64L206.7,132Z" transform="translate(-1.39 -2.45)"/><path class="cls-2" d="M167.13,115.22a10.69,10.69,0,0,0-5.22,1.63,27.93,27.93,0,0,0-12.55,21.74c0,3.58,1.13,6.2,3.19,7.39s4.88.85,8-.94a25.36,25.36,0,0,0,8.86-9.37h0c4.7-8.14,4.94-17.19.51-19.74a5.33,5.33,0,0,0-2.76-.71ZM155.3,149.44a8.14,8.14,0,0,1-4.14-1.07c-2.95-1.7-4.58-5.17-4.58-9.78a30.7,30.7,0,0,1,13.94-24.14c4-2.29,7.81-2.62,10.75-.93,5.93,3.43,6.15,13.76.5,23.53h0a28.3,28.3,0,0,1-9.86,10.39,13.38,13.38,0,0,1-6.61,2ZM110,205,117,185a1.41,1.41,0,0,0-.05-1l-3.41-7.54a1.34,1.34,0,0,0-1.54-.78l-13.86,2.88V156.63l15.09-14.27a1.38,1.38,0,0,0,.38-.62l3.41-11.47a1.46,1.46,0,0,0-.14-1.12l-7-11.7,14-24.22,13.67.25h0a1.39,1.39,0,0,0,1-.43l8.23-8.7a1.4,1.4,0,0,0,.34-.62l4.81-20.21,19-11L175.34,66a1.37,1.37,0,0,0,1.45,1l8.23-.83a1.32,1.32,0,0,0,.92-.47l13.74-16.11,12.8,7.39-7.08,20a1.41,1.41,0,0,0,0,1l3.41,7.55a1.38,1.38,0,0,0,1.55.78l13.86-2.89v21.9l-15.09,14.29a1.18,1.18,0,0,0-.37.61l-3.42,11.47a1.39,1.39,0,0,0,.14,1.11l7.05,11.71-14,24.22-13.66-.26a1.26,1.26,0,0,0-1,.44l-8.23,8.69a1.39,1.39,0,0,0-.34.63l-4.82,20.22-19,11-4.41-13.45a1.36,1.36,0,0,0-1.46-.94l-8.23.81a1.37,1.37,0,0,0-.92.48l-13.73,16.1L110,205Zm13.1,10.56a1.46,1.46,0,0,1-.69-.19l-14.79-8.54a1.37,1.37,0,0,1-.61-1.66l7.27-20.5-2.72-6-14.44,3a1.39,1.39,0,0,1-1.67-1.36V156a1.39,1.39,0,0,1,.44-1L111.1,140.6l3.14-10.53-7.17-11.88a1.39,1.39,0,0,1,0-1.42l14.79-25.63a1.41,1.41,0,0,1,1.2-.69h0l13.86.26,7.57-8,4.86-20.43a1.36,1.36,0,0,1,.66-.87l21-12.11a1.35,1.35,0,0,1,1.19-.1,1.43,1.43,0,0,1,.81.86l4.61,14,6.58-.66,14.11-16.56a1.39,1.39,0,0,1,1.74-.31l14.81,8.56a1.39,1.39,0,0,1,.61,1.66l-7.28,20.5,2.72,6,14.45-3a1.31,1.31,0,0,1,1.15.29,1.34,1.34,0,0,1,.52,1.07v24.2a1.37,1.37,0,0,1-.45,1L211.33,121.3l-3.13,10.54,7.15,11.88a1.38,1.38,0,0,1,0,1.4l-14.8,25.65a1.21,1.21,0,0,1-1.21.69l-13.88-.26-7.55,8-4.87,20.42a1.44,1.44,0,0,1-.66.88l-21,12.11a1.43,1.43,0,0,1-1.18.09,1.37,1.37,0,0,1-.82-.86l-4.61-14-6.58.65L124.11,215A1.44,1.44,0,0,1,123.06,215.51Z" transform="translate(-1.39 -2.45)"/><path class="cls-4" d="M170.59,136.37c-5.18,8.95-13.57,13.79-18.74,10.8s-5.17-12.68,0-21.63,13.56-13.8,18.74-10.82,5.16,12.68,0,21.65Zm16.81,9.7c14.48-25,14.48-52.14,0-60.48S149.49,90.78,135,115.83s-14.46,52.13,0,60.49,37.92-5.19,52.38-30.25Z" transform="translate(-1.39 -2.45)"/><path class="cls-2" d="M167.13,115.22a10.69,10.69,0,0,0-5.22,1.63,27.93,27.93,0,0,0-12.55,21.74c0,3.58,1.13,6.2,3.19,7.39s4.88.85,8-.94a25.36,25.36,0,0,0,8.86-9.37h0c4.7-8.14,4.94-17.19.51-19.74a5.33,5.33,0,0,0-2.76-.71ZM155.3,149.44a8.14,8.14,0,0,1-4.14-1.07c-2.95-1.7-4.58-5.17-4.58-9.78a30.7,30.7,0,0,1,13.94-24.14c4-2.29,7.81-2.62,10.75-.93,5.93,3.43,6.15,13.76.5,23.53h0a28.3,28.3,0,0,1-9.86,10.39,13.38,13.38,0,0,1-6.61,2Zm22.42-65a17.67,17.67,0,0,1,9,2.31c6.54,3.77,10.16,11.87,10.16,22.78,0,11.18-3.79,23.9-10.67,35.81h0c-14.06,24.35-36.71,37.7-50.49,29.74s-13.56-34.25.5-58.6c11.3-19.58,28.16-32,41.5-32Zm-33.18,95.65a20.21,20.21,0,0,1-10.21-2.61c-15.1-8.73-15.33-36.71-.51-62.39S173,75.67,188.1,84.39c7.45,4.29,11.54,13.23,11.54,25.18,0,11.66-3.92,24.88-11,37.2h0C176.8,167.21,159,180.13,144.54,180.13Z" transform="translate(-1.39 -2.45)"/><path class="cls-3" d="M170.59,136.37c5.16-9,5.16-18.66,0-21.65s-13.57,1.86-18.74,10.82-5.17,18.64,0,21.63,13.56-1.85,18.74-10.8Zm-29.26-16.9c11-19,28.8-29.31,39.78-23s11,26.92,0,46-28.8,29.3-39.78,23-11-26.92,0-45.93Z" transform="translate(-1.39 -2.45)"/><path class="cls-2" d="M167.13,115.22a10.69,10.69,0,0,0-5.22,1.63,27.93,27.93,0,0,0-12.55,21.74c0,3.58,1.13,6.2,3.19,7.39s4.88.85,8-.94a25.36,25.36,0,0,0,8.86-9.37h0c4.7-8.14,4.94-17.19.51-19.74a5.33,5.33,0,0,0-2.76-.71ZM155.3,149.44a8.14,8.14,0,0,1-4.14-1.07c-2.95-1.7-4.58-5.17-4.58-9.78a30.7,30.7,0,0,1,13.94-24.14c4-2.29,7.81-2.62,10.75-.93,5.93,3.43,6.15,13.76.5,23.53h0a28.3,28.3,0,0,1-9.86,10.39,13.38,13.38,0,0,1-6.61,2Zm-14-30h0ZM173.73,96a13.16,13.16,0,0,1,6.68,1.71c10.31,6,10.08,25.71-.5,44S152.32,170.15,142,164.2c-4.86-2.81-7.54-8.85-7.54-17,0-8.43,2.86-18,8.05-27h0C151.05,105.4,163.72,96,173.73,96Zm-25.2,72.63a15.72,15.72,0,0,1-7.9-2c-5.76-3.33-8.93-10.22-8.93-19.42,0-8.91,3-19,8.43-28.41,11.34-19.65,30.06-30.17,41.67-23.46s11.85,28.16.51,47.81C173.28,158.76,159.61,168.62,148.53,168.62Z" transform="translate(-1.39 -2.45)"/><path class="cls-2" d="M96.8,181.63a1.49,1.49,0,0,1-.7-.18L68.66,165.61a1.39,1.39,0,0,1-.5-1.89,1.36,1.36,0,0,1,1.88-.51l27.45,15.84a1.39,1.39,0,0,1-.69,2.58Z" transform="translate(-1.39 -2.45)"/><path class="cls-2" d="M115.73,131.26a1.36,1.36,0,0,1-.69-.19L87.61,115.23a1.38,1.38,0,0,1,1.37-2.4l27.45,15.84a1.38,1.38,0,0,1,.49,1.89A1.34,1.34,0,0,1,115.73,131.26Z" transform="translate(-1.39 -2.45)"/><path class="cls-3" d="M219.49,420.18l5-3.05-.09-4.44-4.35-2.38A5.89,5.89,0,0,1,217,405.2l0-2.28a2.48,2.48,0,0,1,1.22-2.25l131-79.36a2.52,2.52,0,0,1,2.57-.05l80.77,44.36c3.69,2,7.29,3.68,10.52,6.35a28.91,28.91,0,0,1,9.09,16.17c.56,4.3.34,8.62-3.65,11.24l-131,79.35-.5.19a6.78,6.78,0,0,1-3.2.59c-3.5-.15-9.16-3.92-11.88-5.41q-40.28-22.16-80.55-44.26a5.76,5.76,0,0,1-3.1-5.11l-.06-2.28a2.5,2.5,0,0,1,1.22-2.24Z" transform="translate(-1.39 -2.45)"/><path class="cls-2" d="M220.56,426.83a4.32,4.32,0,0,0,1.62,1.52l80.56,44.24c.53.29,1.17.67,1.86,1.09,2.74,1.59,6.87,4,9.28,4.12a5,5,0,0,0,2.4-.43l.63-.23,130.72-79.21c2.65-1.75,3.5-4.53,2.84-9.58a26.87,26.87,0,0,0-8.58-15.13,44.7,44.7,0,0,0-7.83-4.85l-2.33-1.25L351,322.76c-.39-.19-.49-.18-.95.07L219.07,402.14a.8.8,0,0,0-.41.75l0,2.27a4.14,4.14,0,0,0,2.21,3.65l4.34,2.38a1.69,1.69,0,0,1,.89,1.47l.1,4.44a1.74,1.74,0,0,1-.82,1.5l-5.1,3.08a.81.81,0,0,0-.41.74l.06,2.28a4.12,4.12,0,0,0,.59,2.13ZM450,377.75a30.72,30.72,0,0,1,3.85,10.05c.56,4.41.57,9.75-4.4,13L317.58,480.52a8.11,8.11,0,0,1-3.86.7c-3.25-.15-7.64-2.72-10.84-4.61-.67-.38-1.28-.75-1.78-1l-80.57-44.27a7.43,7.43,0,0,1-4-6.57l-.05-2.26a4.19,4.19,0,0,1,2-3.75l4.25-2.57-.05-2.47-3.47-1.91a7.47,7.47,0,0,1-4-6.56l0-2.29a4.19,4.19,0,0,1,2.05-3.73l131-79.36a4.21,4.21,0,0,1,4.17-.15l83.16,45.64a47.9,47.9,0,0,1,8.5,5.31A33.46,33.46,0,0,1,450,377.75Z" transform="translate(-1.39 -2.45)"/><polygon class="cls-1" points="239.97 409.18 229.92 403.65 364.76 321.98 374.83 327.49 239.97 409.18"/><path class="cls-2" d="M241.32,409.64,372.8,330l-6.61-3.62L234.72,406l6.6,3.63Zm136.36-80.58a1.6,1.6,0,0,1,.23.84,1.66,1.66,0,0,1-.81,1.49L242.24,413.07a1.65,1.65,0,0,1-1.69,0l-10.06-5.53a1.7,1.7,0,0,1-.07-2.94L365.27,323a1.69,1.69,0,0,1,1.71,0l10,5.53A1.66,1.66,0,0,1,377.68,329.06Z" transform="translate(-1.39 -2.45)"/><path class="cls-1" d="M288.84,466.77l155.13-94a29.93,29.93,0,0,1,7.93,14c.91,4.61,1,9.73-3.39,12.61l-131,79.35-.5.19c-4.41,2-9.28-1.63-13-3.68C298.91,472.44,293.88,469.68,288.84,466.77Z" transform="translate(-1.39 -2.45)"/><path class="cls-2" d="M292.21,466.73c4.19,2.37,8.38,4.69,12.62,7,.57.3,1.17.65,1.78,1,3.16,1.85,6.73,4,9.67,2.6l.63-.23,130.72-79.21c2.89-1.9,3.69-5.24,2.59-10.84A28.78,28.78,0,0,0,443.71,375l-151.5,91.76Zm157.57-89.36a33.66,33.66,0,0,1,3.77,9c.53,2.65,2.06,10.41-4.1,14.46L317.58,480.52c-4.43,2.05-9-.64-12.7-2.8-.59-.34-1.15-.69-1.69-1-5.13-2.81-10.15-5.58-15.21-8.48a1.71,1.71,0,0,1,0-2.95l155.13-93.95a1.7,1.7,0,0,1,2,.2A26.92,26.92,0,0,1,449.78,377.37Z" transform="translate(-1.39 -2.45)"/><path class="cls-3" d="M308.49,467.62l-43-23.64h0l-43.41-23.85a2.52,2.52,0,0,0-.33-.15,1.41,1.41,0,0,0-.31-.1,1.75,1.75,0,0,0-.33-.05h0l-.31,0h0a1.77,1.77,0,0,0-.32,0h0l-.33.09a1.08,1.08,0,0,0-.3.11,1,1,0,0,0-.28.13l8.84-5.36,79.55,43.7c2.5,1.38,4.86,3.83,4.93,6.91,0,2.55-2.78,3.06-4,2.4s-.26-.16-.38-.24Z" transform="translate(-1.39 -2.45)"/><path class="cls-2" d="M309.51,466.22l.19.09a1.43,1.43,0,0,0,1.11-.15.72.72,0,0,0,.31-.71c-.05-3-3.11-4.95-4-5.46l-78.67-43.21-4.25,2.58,84.77,46.55a.84.84,0,0,1,.2.08h0a2.49,2.49,0,0,1,.28.15s.08,0,.1.08Zm3.78-5a8.4,8.4,0,0,1,1.25,4.17,4.1,4.1,0,0,1-2,3.71,4.72,4.72,0,0,1-4.5.22c-.06-.05-.13-.07-.19-.12a.84.84,0,0,1-.2-.08l-86.44-47.49c-.07,0-.33-.11-.42-.11a2,2,0,0,1-2.51-.55h0a1.57,1.57,0,0,1,.35-2.26l8.84-5.35a1.74,1.74,0,0,1,1.71,0L308.73,457A12.12,12.12,0,0,1,313.29,461.21Z" transform="translate(-1.39 -2.45)"/><path class="cls-3" d="M288,437.5l17,9.35c3.43,1.87,5.46,2.76,8.29,5.58,4.66,4.64,8,11.47,8.15,17.71.11,6-3.23,9.76-8,9.33-3.19-.3-8-3.48-10.59-4.9l-81.48-44.74a5.88,5.88,0,0,1-3.1-5.12l0-2.28a2.56,2.56,0,0,1,3.8-2.3Q261,441.54,300,462.94l8.47,4.63a3,3,0,0,0,3.89-.51,2.48,2.48,0,0,0,.51-1.65c-.07-3.08-2.43-5.53-4.93-6.91l-87.78-48.21a5.87,5.87,0,0,1-3.09-5.11L217,402.9a2.55,2.55,0,0,1,1.25-2.26,2.52,2.52,0,0,1,2.57,0Z" transform="translate(-1.39 -2.45)"/><path class="cls-2" d="M220.6,426.81a4.22,4.22,0,0,0,1.61,1.52l81.48,44.74c.51.27,1.1.63,1.74,1,2.38,1.4,6,3.5,8.19,3.7a5,5,0,0,0,3.95-1.27c1.45-1.34,2.21-3.58,2.15-6.33-.12-5.53-3.11-12-7.65-16.54a23.22,23.22,0,0,0-6.51-4.52L287.15,439h0L220,402.08a.83.83,0,0,0-.86,0,.8.8,0,0,0-.41.76l0,2.26a4.15,4.15,0,0,0,2.21,3.65L308.73,457c3.57,2,5.75,5.09,5.81,8.38a4.16,4.16,0,0,1-.87,2.73,4.64,4.64,0,0,1-6.05,1l-8.47-4.66q-27.36-15-54.69-30l-23.24-12.77a.81.81,0,0,0-.85,0,.8.8,0,0,0-.42.75l.05,2.28a4.26,4.26,0,0,0,.6,2.13Zm98.45,30.24a26.85,26.85,0,0,1,4.08,13.05c.07,3.73-1.07,6.89-3.23,8.91a8.37,8.37,0,0,1-6.58,2.15c-3-.26-6.8-2.5-9.59-4.14l-1.69-.95-81.47-44.76a7.44,7.44,0,0,1-4-6.56l-.06-2.27a4.2,4.2,0,0,1,2.06-3.76,4.26,4.26,0,0,1,4.27-.1l23.25,12.79q27.33,15,54.67,30l8.47,4.63c.7.4,1.38.39,1.71,0a.87.87,0,0,0,.16-.57c-.08-3.06-3.12-5-4.05-5.47l-87.76-48.21a7.5,7.5,0,0,1-4-6.58l-.05-2.27a4.28,4.28,0,0,1,6.33-3.83l85.57,47a26.61,26.61,0,0,1,7.31,5.12A31.28,31.28,0,0,1,319.05,457.05Z" transform="translate(-1.39 -2.45)"/><path class="cls-4" d="M224.47,412.66l.1,4.44,88.26,48.53v-.22c0-3.09-2.43-5.53-4.93-6.91Z" transform="translate(-1.39 -2.45)"/><path class="cls-2" d="M226.25,416.08l83.23,45.76a9.71,9.71,0,0,0-2.4-1.85l-80.84-44.41v.5Zm87.06,45.15a8,8,0,0,1,1.23,4.18,1.87,1.87,0,0,1-.83,1.58,1.72,1.72,0,0,1-1.69.14l-88.28-48.52a1.78,1.78,0,0,1-.89-1.47l-.08-4.44a1.69,1.69,0,0,1,.82-1.49,1.76,1.76,0,0,1,1.71,0L308.73,457A12.16,12.16,0,0,1,313.31,461.23Z" transform="translate(-1.39 -2.45)"/><polygon class="cls-1" points="230.6 436.68 240.67 442.19 239.97 409.18 229.92 403.65 230.6 436.68"/><path class="cls-2" d="M240.29,441.72l-.61-29.08-6.6-3.63.6,29.09,6.61,3.62Zm2.54-31a1.61,1.61,0,0,1,.24.84l.69,33.05a1.7,1.7,0,0,1-2.52,1.53l-10.06-5.53a1.73,1.73,0,0,1-.88-1.45l-.69-33.05a1.69,1.69,0,0,1,.81-1.49,1.67,1.67,0,0,1,1.71,0l10.06,5.52A1.63,1.63,0,0,1,242.83,410.73Z" transform="translate(-1.39 -2.45)"/><path class="cls-4" d="M338.52,415.08c0-13.84,19.62-25.06,43.8-25.06s43.83,11.22,43.83,25.06-19.63,25.06-43.83,25.06S338.52,428.92,338.52,415.08Z" transform="translate(-1.39 -2.45)"/><path class="cls-2" d="M382.32,391.36c-23.41,0-42.46,10.65-42.46,23.72s19.05,23.72,42.46,23.72,42.48-10.64,42.48-23.72-19.06-23.72-42.48-23.72Zm0,50.13c-24.89,0-45.15-11.85-45.15-26.41s20.26-26.4,45.15-26.4,45.18,11.84,45.18,26.4S407.23,441.49,382.32,441.49Z" transform="translate(-1.39 -2.45)"/><path class="cls-1" d="M382.33,408.89A69,69,0,0,1,406,412.84c8.08,3,17.83,8.88,19.84,17.92a15,15,0,0,1,.36,3.19V415.08C426,404.25,415,397.29,406,394c-16.38-6-39.32-5.36-54.61,3.38-6.53,3.75-12.74,9.68-12.82,17.73V434.6a15,15,0,0,1,.33-3.84c1.95-8.75,11.18-14.58,19-17.59a68.54,68.54,0,0,1,23.37-4.27Z" transform="translate(-1.39 -2.45)"/><path class="cls-2" d="M382.4,391.37c-11.12,0-22.16,2.45-30.39,7.15-4.5,2.58-12.06,8.16-12.15,16.57v9.79c4.47-7.24,13.3-11.35,17.48-13a69.41,69.41,0,0,1,23.84-4.36h1.16a70.71,70.71,0,0,1,24.08,4c4.4,1.61,13.75,5.79,18.38,13.3v-9.79c-.14-11.9-14.81-18.21-19.31-19.85a68.12,68.12,0,0,0-23.09-3.86Zm-43.87,44.57a1.34,1.34,0,0,1-1.35-1.32V415.08c.08-7.24,4.87-13.95,13.51-18.89,14.76-8.45,38.2-9.92,55.74-3.49,4.9,1.8,20.92,8.74,21.08,22.37V434a1.35,1.35,0,0,1-1.34,1.34h0A1.34,1.34,0,0,1,424.8,434a14.25,14.25,0,0,0-.31-2.93c-2.19-9.81-14-15.12-19-16.95a67.33,67.33,0,0,0-23.16-3.86h-1.12a66.65,66.65,0,0,0-22.89,4.17c-4.76,1.84-16,7.13-18.14,16.63a13.54,13.54,0,0,0-.31,3.55,1.34,1.34,0,0,1-1.33,1.34Z" transform="translate(-1.39 -2.45)"/><path class="cls-1" d="M319.1,416v18.88c.4,6,2.64,10.36,6.22,14.75,6.19,7.13,14.18,11.51,22.92,14.8a103.74,103.74,0,0,0,45.18,5.14,101.54,101.54,0,0,0,17-3.21V447.5a102.56,102.56,0,0,1-17,3.21,103.89,103.89,0,0,1-45.18-5.14c-8.46-3.19-16.05-7.31-22.24-14C322,427,319.51,422.29,319.1,416Z" transform="translate(-1.39 -2.45)"/><path class="cls-2" d="M320.44,425.87v9c.34,5.05,2.11,9.24,5.92,13.9,5.26,6,12.35,10.63,22.34,14.39a102.35,102.35,0,0,0,44.6,5.07,100.24,100.24,0,0,0,15.79-2.91V449.26a107.71,107.71,0,0,1-15.52,2.79c-16.28,1.57-31.66-.18-45.79-5.23-10.09-3.79-17.11-8.21-22.77-14.35a33.86,33.86,0,0,1-4.57-6.6Zm61.7,45.61a101.63,101.63,0,0,1-34.36-5.78c-10.44-3.93-17.89-8.75-23.48-15.17-4.22-5.17-6.16-9.81-6.54-15.55V416a1.35,1.35,0,0,1,1.31-1.34,1.33,1.33,0,0,1,1.38,1.26c.36,5.44,2.33,9.85,6.58,14.74,5.33,5.78,12,10,21.68,13.64a103.93,103.93,0,0,0,61.38,1.9,1.29,1.29,0,0,1,1.17.22,1.34,1.34,0,0,1,.53,1.07v18.87a1.33,1.33,0,0,1-1,1.29,102,102,0,0,1-17.23,3.25Q387.78,471.48,382.14,471.48Z" transform="translate(-1.39 -2.45)"/><path class="cls-1" d="M439,431.19v18.87c3.79-4.42,6.48-9.62,6.6-15.56V415.62C445.34,421.72,442.91,426.61,439,431.19Z" transform="translate(-1.39 -2.45)"/><path class="cls-2" d="M440.32,431.68v14.39a21.58,21.58,0,0,0,3.91-11.6v-8.59a31.44,31.44,0,0,1-3.91,5.8ZM439,451.41a1.12,1.12,0,0,1-.47-.09,1.35,1.35,0,0,1-.88-1.26V431.19a1.37,1.37,0,0,1,.32-.87c4.08-4.77,6.07-9.46,6.28-14.75a1.36,1.36,0,0,1,1.35-1.3h0a1.36,1.36,0,0,1,1.32,1.35V434.5c-.13,5.68-2.45,11.19-6.93,16.43A1.34,1.34,0,0,1,439,451.41Z" transform="translate(-1.39 -2.45)"/><path class="cls-1" d="M410.44,447.5v18.87a17.72,17.72,0,0,0,2.89,2.07l46.56,26.63a28.61,28.61,0,0,0,11.65,3.34A34.82,34.82,0,0,0,485,496.9c4.5-1.61,9.47-4.41,10.13-9.62V468.41c-.66,5.22-5.63,8-10.13,9.61a34.63,34.63,0,0,1-13.49,1.52,28.81,28.81,0,0,1-11.65-3.34l-46.56-26.63A17.14,17.14,0,0,1,410.44,447.5Z" transform="translate(-1.39 -2.45)"/><path class="cls-2" d="M411.78,465.75a16.49,16.49,0,0,0,2.24,1.54l46.53,26.62a27,27,0,0,0,11.12,3.16,33,33,0,0,0,13-1.46c5.63-2,8.74-4.87,9.2-8.5V474.26a20.34,20.34,0,0,1-8.34,5,36.42,36.42,0,0,1-14,1.59,30.25,30.25,0,0,1-12.2-3.49l-46.59-26.64-.88-.55v15.55Zm62.77,34.12c-1,0-2-.05-3.1-.12a30,30,0,0,1-12.2-3.5l-46.59-26.64a18.76,18.76,0,0,1-3.11-2.23,1.34,1.34,0,0,1-.46-1V447.5a1.33,1.33,0,0,1,.8-1.22,1.35,1.35,0,0,1,1.44.21,14.67,14.67,0,0,0,2.69,1.92L460.55,475a27.19,27.19,0,0,0,11.12,3.16,33.37,33.37,0,0,0,13-1.46c5.63-2,8.74-4.87,9.2-8.51a1.29,1.29,0,0,1,1.4-1.17,1.35,1.35,0,0,1,1.27,1.35v18.87c-.6,4.88-4.31,8.49-11,10.88A35,35,0,0,1,474.55,499.87Z" transform="translate(-1.39 -2.45)"/><path class="cls-3" d="M351.34,432.81c-7.92-4.54-12.82-10.81-12.82-17.73s4.9-13.19,12.82-17.73,18.89-7.33,31-7.33,23.06,2.79,31,7.33,12.84,10.81,12.84,17.73-4.91,13.19-12.84,17.73-18.88,7.33-31,7.33-23-2.8-31-7.33Zm-32.27-17.73c0,10,7.09,19,18.53,25.59s27.27,10.59,44.72,10.59a103.31,103.31,0,0,0,28.12-3.76,15.76,15.76,0,0,0,2.89,2.07l46.56,26.63c8.05,4.61,21.21,4.61,29.25,0h0c8.05-4.6,8.05-12.12,0-16.73L442.6,432.83a23.87,23.87,0,0,0-3.62-1.64c4.23-4.85,6.6-10.33,6.6-16.11,0-10-7.08-19-18.53-25.59s-27.25-10.6-44.72-10.6-33.28,4.06-44.73,10.6-18.53,15.6-18.53,25.59Z" transform="translate(-1.39 -2.45)"/><path class="cls-2" d="M352,431.63c8.08,4.62,18.85,7.17,30.31,7.17s22.25-2.54,30.33-7.17c7.84-4.48,12.15-10.35,12.15-16.55s-4.31-12.08-12.15-16.56c-8.07-4.62-18.84-7.16-30.32-7.16s-22.24,2.54-30.32,7.16c-7.83,4.48-12.15,10.37-12.15,16.56s4.32,12.07,12.15,16.55Zm30.31,9.86c-11.92,0-23.17-2.67-31.64-7.51h0c-8.72-5-13.51-11.7-13.51-18.9s4.79-13.91,13.51-18.89c8.47-4.85,19.72-7.51,31.65-7.51s23.19,2.66,31.64,7.51c8.73,5,13.53,11.69,13.53,18.89S422.7,429,414,434c-8.47,4.84-19.7,7.51-31.65,7.51Zm28.12,4.66a1.09,1.09,0,0,0-.36.06,102.12,102.12,0,0,1-27.76,3.71c-16.65,0-32.3-3.7-44.05-10.42-11.51-6.58-17.84-15.26-17.84-24.42s6.33-17.83,17.84-24.41c11.75-6.73,27.4-10.43,44.06-10.43s32.32,3.7,44.06,10.43c11.51,6.58,17.85,15.26,17.85,24.41,0,5.33-2.11,10.45-6.27,15.23a1.38,1.38,0,0,0-.29,1.22,1.33,1.33,0,0,0,.85.93,21.59,21.59,0,0,1,3.39,1.54l46.56,26.63c3.45,2,5.36,4.54,5.36,7.2s-1.91,5.23-5.36,7.21c-7.57,4.33-20.36,4.33-27.93,0L414,448.41a14.55,14.55,0,0,1-2.65-1.91,1.42,1.42,0,0,0-.91-.35ZM474.51,481a31.52,31.52,0,0,1-15.29-3.62l-46.56-26.62a20.32,20.32,0,0,1-2.55-1.75,105,105,0,0,1-27.79,3.61c-17.11,0-33.24-3.83-45.38-10.78-12.39-7.09-19.2-16.58-19.2-26.75s6.81-19.66,19.2-26.75c12.14-6.94,28.27-10.78,45.39-10.78s33.24,3.84,45.39,10.78c12.38,7.08,19.21,16.58,19.21,26.75a25.32,25.32,0,0,1-5.74,15.55,21,21,0,0,1,2.07,1l46.55,26.63c4.33,2.47,6.72,5.86,6.72,9.53s-2.39,7.07-6.72,9.54A31.54,31.54,0,0,1,474.51,481Z" transform="translate(-1.39 -2.45)"/><path class="cls-4" d="M373.37,415.08c2-8.6,9.81-15.38,20.1-18.68a30.36,30.36,0,0,0-6.54-1.66c-19.67-2.82-38.25,6.35-41.5,20.34Z" transform="translate(-1.39 -2.45)"/><path class="cls-2" d="M347.19,413.73h25.14c2.11-7.27,8.27-13.49,16.94-17.2-.81-.18-1.65-.34-2.54-.47-18.11-2.58-35.39,5.26-39.54,17.67Zm26.18,2.69H345.43a1.34,1.34,0,0,1-1.32-1.64c3.43-14.69,22.71-24.28,43-21.37a30.47,30.47,0,0,1,6.84,1.74,1.34,1.34,0,0,1-.08,2.53c-10.19,3.26-17.37,9.88-19.2,17.7A1.34,1.34,0,0,1,373.37,416.42Z" transform="translate(-1.39 -2.45)"/><path class="cls-3" d="M197.84,395.09,164.48,377c-.72-.62-.72-1-.72-2.05V369a6.41,6.41,0,0,1,2.86-5.22c90.09-52,180.42-104.12,270.28-156.09a2.86,2.86,0,0,1,2.38-.21l33.13,18.09c-1-.38-1.19-.23-2.15.17L200,381.81a6.87,6.87,0,0,0-3.1,5.29V393C197.12,394.06,196.89,394.44,197.84,395.09Z" transform="translate(-1.39 -2.45)"/><path class="cls-2" d="M166.39,374.92l27.88,14.94V387.1a10,10,0,0,1,4-7.61L465.74,225.07l-27.41-14.84L316.54,280.51c-49.57,28.56-98.91,57.08-148.49,85.64a4.33,4.33,0,0,0-1.66,3.08v5.69Zm31.21,22.92a2.86,2.86,0,0,1-1.19-.3l-33.13-18.12c-2.14-1.5-2.38-3-2.38-4V369a9.4,9.4,0,0,1,4.29-7.51q74.35-43,148.48-85.87l122-70.35a5,5,0,0,1,4.53-.41L473.84,223a2.83,2.83,0,0,1,1.19,3.65,2.93,2.93,0,0,1-3.58,1.5l-270,156.07a3.71,3.71,0,0,0-1.67,3.1v5.77a3.09,3.09,0,0,1,.24,3.47A3.13,3.13,0,0,1,197.6,397.84Z" transform="translate(-1.39 -2.45)"/><path class="cls-4" d="M199.51,394.91c-1.42.48-2.62.33-2.62-1.88V387.1a6.71,6.71,0,0,1,3.1-5.29L470.26,225.72c1.68-.95,3.1-.17,3.1,1.81v5.86a5.58,5.58,0,0,1-1.67,4.1c-1.43,1.33-5,3.24-6.2,4L204.28,392.22C203.08,392.93,200.47,394.51,199.51,394.91Z" transform="translate(-1.39 -2.45)"/><path class="cls-2" d="M470.5,228.79,201.42,384.24a3.64,3.64,0,0,0-1.67,2.86v4.57c.72-.48,1.67-1,2.38-1.5l.72-.31L464.79,238.61c1.42-.71,4-2.21,4.76-3.1a2.54,2.54,0,0,0,.95-2.12v-4.6ZM198.32,397.91a4,4,0,0,1-2.39-.71c-1.19-.78-1.66-2.29-1.66-4.17V387.1a9.9,9.9,0,0,1,4.29-7.75l270.28-156a4.82,4.82,0,0,1,5-.25,5.09,5.09,0,0,1,2.38,4.44v5.86a8.44,8.44,0,0,1-2.61,6.08c-1.2,1.34-3.58,2.7-6,4l-.95.47-261,150.71a55.06,55.06,0,0,1-5.24,2.86h0A6.21,6.21,0,0,1,198.32,397.91Z" transform="translate(-1.39 -2.45)"/><polygon class="cls-1" points="167.85 359.81 167.85 153.6 178.34 158.42 178.34 364.56 167.85 359.81"/><path class="cls-2" d="M172.1,360.45l4.77,2.22V162.61l-4.77-2.22V360.45Zm7.63,9.41a2.64,2.64,0,0,1-1.19-.23l-10.49-4.84a3,3,0,0,1-1.66-2.53V156.05a2.62,2.62,0,0,1,1.42-2.38,2.46,2.46,0,0,1,2.63-.15l10.48,4.75a3,3,0,0,1,1.67,2.6V367a3.14,3.14,0,0,1-1.43,2.37A2.53,2.53,0,0,1,179.73,369.86Z" transform="translate(-1.39 -2.45)"/><polygon class="cls-3" points="178.34 158.42 167.85 153.6 433.36 0.38 443.61 5.19 178.34 158.42"/><path class="cls-2" d="M175.44,155.74l4.05,2L439,7.87,434.75,6,175.44,155.74Zm4.29,7.9a2.51,2.51,0,0,1-1.19-.23l-10.49-4.83a3.38,3.38,0,0,1-1.66-2.43,2.85,2.85,0,0,1,1.42-2.55L433.32.37A2.79,2.79,0,0,1,436,.28l10.24,4.83a2.68,2.68,0,0,1,1.67,2.36A2.77,2.77,0,0,1,446.43,10L181.16,163.25A3.3,3.3,0,0,1,179.73,163.64Z" transform="translate(-1.39 -2.45)"/><path class="cls-4" d="M445,7.64V213.85L179.73,367V160.87Z" transform="translate(-1.39 -2.45)"/><path class="cls-2" d="M182.59,162.46V362.19l259.55-150V12.45l-259.55,150Zm-2.86,207.4a3.18,3.18,0,0,1-1.43-.4,2.64,2.64,0,0,1-1.43-2.45V160.87a2.59,2.59,0,0,1,1.43-2.43L443.57,5.18a3.08,3.08,0,0,1,2.86,0,2.66,2.66,0,0,1,1.43,2.46V213.85a2.63,2.63,0,0,1-1.43,2.38L181.16,369.46A3.18,3.18,0,0,1,179.73,369.86Z" transform="translate(-1.39 -2.45)"/><path class="cls-1" d="M433.8,26.92,190.69,167.28V347.72L433.8,207.36Z" transform="translate(-1.39 -2.45)"/><path class="cls-2" d="M193.55,168.87v174l237.63-137.1v-174L193.55,168.87Zm-2.86,181.69a3.68,3.68,0,0,1-1.43-.38,3.19,3.19,0,0,1-1.42-2.46V167.28a3.31,3.31,0,0,1,1.42-2.46L432.61,24.49a2.55,2.55,0,0,1,2.62,0,2.63,2.63,0,0,1,1.43,2.43V207.36a2.66,2.66,0,0,1-1.43,2.46L192.12,350.18A3.63,3.63,0,0,1,190.69,350.56Z" transform="translate(-1.39 -2.45)"/><path class="cls-4" d="M253.14,218.45l1.19,8.6-40.52,31-1.9-11.7c-.72-6-.48-10.75,1.42-14.32q2.5-5.34,13.59-16.21,9.3-9,10.73-11.85,1.78-2.85.71-9c-.71-4-1.67-6.08-2.86-6.25-1.42-.14-4.29,1.44-8.58,4.85-4.53,3.38-7.39,6.07-8.34,8s-1.2,5.05-.72,9.17l.48,2.44-10,7.6-.24-2.36c-1.19-7.13-.47-13.06,1.91-17.64s7.63-10,15.73-16.06c7.63-6,13.11-8.77,16.44-8.37,3.11.38,5.25,4,6.44,11.06.95,6.73.48,11.94-1.19,15.8-1.91,3.89-6.44,9.51-14.06,16.85-6,6.1-9.54,9.89-10.5,11.56s-1.18,4.51-.47,8.47l.24,1.56Z" transform="translate(-1.39 -2.45)"/><path class="cls-2" d="M235.26,185.94h.48c4.29.55,5,6.17,5.49,8.63.71,4.74.23,8.29-1,10.75-.72,1.33-2.86,4.1-11.21,12.48-7.38,7-11.68,12.26-13.35,15.5-1.42,3-1.66,7.29-1,12.65l1,7,35.76-27.12L251,223.5,224.3,243.9a2.45,2.45,0,0,1-2.62.39,3.13,3.13,0,0,1-1.91-2.22l-.24-1.48c-.72-4.76-.47-8,.72-10.3.71-1.26,2.61-3.85,11.2-12.18,7.15-7.09,11.68-12.48,13.35-16,1.42-3.34,1.9-8.06.95-14.16-.72-5.29-2.39-8.53-4.05-8.77-1-.17-4.53.31-14.31,7.81q-11.43,8.81-15,15.12c-1.66,3.55-2.38,8.15-1.91,13.6l4.77-3.64v-.86c-.71-4.77-.48-8.32.72-10.85,1.42-2.38,4.29-5.29,9.29-9,5.48-4.36,8.11-5.38,10-5.38Zm-21.45,74.88a3.15,3.15,0,0,1-1.19-.23,3.37,3.37,0,0,1-1.67-2.15l-1.67-11.6q-1.42-9.87,1.44-16.07c1.9-3.79,6.66-9.41,14.29-16.92,7.87-7.65,9.77-10.35,10.25-11.22.48-.72,1-2.7.24-7.28a14.3,14.3,0,0,0-.72-3.64c-.95.31-2.62,1.35-6.19,4-5.48,4.2-7.15,6.25-7.63,7.2s-1,3.1-.23,7.44l.23,2.53a2.52,2.52,0,0,1-1,2.52l-10,7.67a2.67,2.67,0,0,1-2.62.34,3.11,3.11,0,0,1-1.91-2.14l-.24-2.37c-1.19-7.74-.48-14.32,2.15-19.45,2.85-5,8.1-10.53,16.44-17,8.82-6.56,14.78-9.41,18.59-8.85,6.91.79,8.35,10.35,8.82,13.43,1.19,7.29.72,13-1.43,17.39-1.91,4.2-6.67,10-14.54,17.64-7.63,7.75-9.53,10.2-10,10.92-.24.4-.47,1.33-.47,3.48l26.69-20.24a2.67,2.67,0,0,1,2.62-.4,3.19,3.19,0,0,1,1.91,2.22l1.19,8.52a2.84,2.84,0,0,1-.95,2.7l-40.76,31A2.9,2.9,0,0,1,213.81,260.82Z" transform="translate(-1.39 -2.45)"/><path class="cls-4" d="M343.23,149.88l1.19,8.56-40.76,31L302,177.82c-.94-6-.47-10.85,1.2-14.34,1.9-3.54,6.44-8.93,13.82-16.19q9.3-9.14,10.73-11.88c1.18-1.88,1.18-4.89.72-9-.72-4-1.67-6.1-2.87-6.24-1.43-.17-4.28,1.43-8.82,4.74-4.28,3.48-7.14,6.17-8.1,8.15-1.2,2-1.2,5.06-.71,9.18l.47,2.43-10.24,7.61-.25-2.39c-.95-7.2-.24-13,1.91-17.61q3.94-6.92,15.74-16.13c7.86-6,13.33-8.71,16.44-8.33,3.34.33,5.48,4,6.43,11.08,1,6.66.72,12-1.19,15.81-1.67,3.88-6.43,9.49-13.82,16.85-6.2,6.08-9.78,9.89-10.49,11.53-.95,1.67-1.19,4.43-.47,8.46l.23,1.6Z" transform="translate(-1.39 -2.45)"/><path class="cls-2" d="M325.35,117.4h.48c3.58.47,4.77,4.81,5.24,8.53.72,4.81.48,8.38-.71,10.84-.95,1.34-2.86,4.1-11.44,12.49-7.15,7-11.68,12.25-13.11,15.49-1.43,2.94-1.91,7.2-1,12.66l1,7,35.51-27.12-.24-2.29-26.69,20.39a3.06,3.06,0,0,1-2.86.41,2.93,2.93,0,0,1-1.67-2.23l-.23-1.57c-.72-4.67-.49-8,.71-10.2.71-1.36,2.62-3.86,11.2-12.18,7.15-7.13,11.44-12.49,13.11-16,1.67-3.34,1.91-8.15,1-14.25-.71-5.23-2.14-8.54-3.81-8.68-1.19-.16-4.77.31-14.54,7.82-7.62,5.76-12.63,10.91-14.77,15.11-1.91,3.55-2.63,8.13-2.15,13.58l5-3.71-.25-.79c-.71-4.74-.24-8.3,1-10.82s4.3-5.31,9.3-9.1c5.48-4.27,8.11-5.29,10-5.29Zm-21.69,74.89a2.18,2.18,0,0,1-1-.27,2.33,2.33,0,0,1-1.66-2.12l-1.91-11.7c-.95-6.56-.48-11.95,1.67-16,1.9-3.78,6.43-9.41,14.3-17,7.63-7.61,9.77-10.29,10.24-11.15s1-2.7.24-7.27a11.41,11.41,0,0,0-.95-3.65,35,35,0,0,0-6,4c-5.48,4.12-7.15,6.25-7.63,7.2s-.95,3-.24,7.44l.24,2.52a2.55,2.55,0,0,1-.95,2.53l-10,7.59a2.88,2.88,0,0,1-2.86.39,3.48,3.48,0,0,1-1.67-2.22l-.23-2.35c-1.2-7.75-.48-14.24,2.14-19.38,2.62-5,8.1-10.61,16.44-17,8.58-6.55,14.55-9.41,18.59-8.93,6.92.85,8.34,10.34,8.82,13.5.95,7.28.48,13-1.43,17.41-1.9,4.19-6.67,10-14.54,17.63s-9.53,10.12-10,10.92c-.23.31-.47,1.27-.47,3.48l26.69-20.26a2.67,2.67,0,0,1,4.29,1.84l1.43,8.53a2.57,2.57,0,0,1-1.19,2.7l-40.75,31A2.92,2.92,0,0,1,303.66,192.29Z" transform="translate(-1.39 -2.45)"/><path class="cls-4" d="M426.88,230.22c-1.18-.55-2.14-.95-3.33-.4h0l-38.13,22a3.27,3.27,0,0,1,2.86.07c3.09,1.5,6,6.39,5.24,9.8a2.88,2.88,0,0,1-1.2,1.9l37.9-21.91c1.43-.87,1.43-2.86,1.43-4.26a11.14,11.14,0,0,0-4.77-7.13Z" transform="translate(-1.39 -2.45)"/><path class="cls-2" d="M392.09,251.18a15.77,15.77,0,0,1,4.05,6.95l32.66-18.9h0V237.9c-.49-2.07-1.68-4.27-3.35-5.22l1.43-2.46-1.43,2.46a1.51,1.51,0,0,0-.71-.31h0l-32.65,18.81Zm.23,15.24a2.71,2.71,0,0,1-2.38-1.33,2.65,2.65,0,0,1,.72-3.78c.47-2.23-1.43-5.87-3.58-6.82a3,3,0,0,1-3.1-5.13l38.14-22a6,6,0,0,1,6,.38s.23,0,.23.1h0c3.1,1.8,5.25,5.43,6,9.07.48,2.46,0,5.53-2.62,7.13l-37.89,22A3.18,3.18,0,0,1,392.32,266.42Z" transform="translate(-1.39 -2.45)"/><path class="cls-4" d="M392.09,255.77a7.63,7.63,0,0,0-3.34-3.57c-1.43-.79-2.62-.86-3.33-.38-1,.54-1.44,1.57-1.44,3.14a9.1,9.1,0,0,0,1.44,4.75,8.14,8.14,0,0,0,3.33,3.65c1.43.71,2.62.78,3.34.3,1-.55,1.43-1.57,1.43-3.17A9.15,9.15,0,0,0,392.09,255.77Z" transform="translate(-1.39 -2.45)"/><path class="cls-2" d="M386.61,254.35c.24.06,0,.3,0,.61a6.69,6.69,0,0,0,1.19,3.32,6.46,6.46,0,0,0,2.38,2.62,2,2,0,0,0,.48.23v-.64a6.3,6.3,0,0,0-1-3.31,6.9,6.9,0,0,0-2.39-2.6,1.18,1.18,0,0,0-.71-.23Zm4.29,12.41a7.18,7.18,0,0,1-3.58-1,13.43,13.43,0,0,1-4.53-4.61,15.28,15.28,0,0,1-1.66-6.17c0-2.52.95-4.5,2.85-5.53a6.1,6.1,0,0,1,6.2.31,13.26,13.26,0,0,1,4.53,4.61v.06a15.08,15.08,0,0,1,1.67,6.08c0,2.55-1,4.53-2.86,5.56A4.85,4.85,0,0,1,390.9,266.76Z" transform="translate(-1.39 -2.45)"/><polygon class="cls-3" points="261.28 324.57 240.06 312.29 202.41 333.95 223.86 346.23 261.28 324.57"/><path class="cls-2" d="M209.52,336.4l15.73,9L257.19,327l-15.73-9L209.52,336.4Zm15.73,15.11a2,2,0,0,1-1.43-.4l-21.45-12.25a3.45,3.45,0,0,1-1.43-2.46,3.19,3.19,0,0,1,1.43-2.45L240,312.28a3.2,3.2,0,0,1,2.86,0l21.21,12.27a3.27,3.27,0,0,1,1.43,2.47,3.23,3.23,0,0,1-1.43,2.42l-37.66,21.67A1.75,1.75,0,0,1,225.25,351.51Z" transform="translate(-1.39 -2.45)"/><polygon class="cls-1" points="223.86 346.23 202.41 333.95 202.41 350.64 223.86 362.91 223.86 346.23"/><path class="cls-2" d="M206.66,351.44l15.73,9.08v-10.2l-15.73-9.08v10.2Zm18.59,16.68a2.08,2.08,0,0,1-1.43-.33l-21.45-12.32a3.18,3.18,0,0,1-1.43-2.38V336.4a2.86,2.86,0,0,1,4.29-2.45l21.21,12.34a2.64,2.64,0,0,1,1.44,2.38v16.69a2.7,2.7,0,0,1-1.44,2.43A1.74,1.74,0,0,1,225.25,368.12Z" transform="translate(-1.39 -2.45)"/><polygon class="cls-4" points="261.28 341.25 261.28 324.57 223.86 346.23 223.86 362.91 261.28 341.25"/><path class="cls-2" d="M227.88,350.32v10.2L259.81,342v-10.2l-31.93,18.49Zm-2.63,17.8a2.08,2.08,0,0,1-1.43-.33,2.67,2.67,0,0,1-1.43-2.43V348.67a2.61,2.61,0,0,1,1.43-2.38l37.42-21.74a3.08,3.08,0,0,1,2.86,0,3.27,3.27,0,0,1,1.43,2.47v16.67a3.13,3.13,0,0,1-1.43,2.37l-37.66,21.73A1.74,1.74,0,0,1,225.25,368.12Z" transform="translate(-1.39 -2.45)"/><path class="cls-4" d="M264.82,207.36a1.51,1.51,0,0,1-1-.3,2.75,2.75,0,0,1-1.43-3.72l21.22-46.4a2.87,2.87,0,0,1,5.24,2.35l-21.45,46.43A2.8,2.8,0,0,1,264.82,207.36Z" transform="translate(-1.39 -2.45)"/><path class="cls-4" d="M290.32,188a2.62,2.62,0,0,1-.72-.14l-29.31-7.6a2.67,2.67,0,0,1-2.15-3.38,2.83,2.83,0,0,1,3.34-2.09L291,182.46a2.87,2.87,0,0,1,2.15,3.41A3,3,0,0,1,290.32,188Z" transform="translate(-1.39 -2.45)"/><path class="cls-4" d="M345.85,121a2.79,2.79,0,0,1-1.67-5l36-27.46a2.67,2.67,0,0,1,3.8.48,2.85,2.85,0,0,1-.47,4l-36,27.43A2.35,2.35,0,0,1,345.85,121Z" transform="translate(-1.39 -2.45)"/><path class="cls-4" d="M348.23,137.08a2.78,2.78,0,0,1-2.14-1.12,2.85,2.85,0,0,1,.48-4l36-27.43a3,3,0,0,1,4.05.57,3.12,3.12,0,0,1-.72,3.93l-36,27.37A2.34,2.34,0,0,1,348.23,137.08Z" transform="translate(-1.39 -2.45)"/><path class="cls-4" d="M239.79,279a3.27,3.27,0,0,1-2.38-1.1,2.84,2.84,0,0,1,.47-4l36-27.46a3.08,3.08,0,0,1,4.05.55,2.83,2.83,0,0,1-.47,3.95l-36,27.46A3.44,3.44,0,0,1,239.79,279Z" transform="translate(-1.39 -2.45)"/><path class="cls-4" d="M242.17,295a3,3,0,0,1-2.38-1.12,2.6,2.6,0,0,1,.72-3.86l36-27.43a2.64,2.64,0,0,1,3.81.54,2.77,2.77,0,0,1-.48,3.89l-36,27.43A2.92,2.92,0,0,1,242.17,295Z" transform="translate(-1.39 -2.45)"/><path class="cls-1" d="M198.48,424.29l6.6-3.82c3.06-2.59,3.22-4.2,3.71-8.13l-.16-127c-.65-9.41-4.84-16.41-12.57-21.8l-175.12-101c-3.54-1.66-5-2.31-8.86-.85L5.47,165.5c3.87-1.44,5.32-.81,8.86.85l175.13,101c7.56,5.27,11.76,12.17,12.56,21.8l.16,127C201.7,420.1,201.54,421.72,198.48,424.29Z" transform="translate(-1.39 -2.45)"/><path class="cls-2" d="M15.63,162.74a7.77,7.77,0,0,0-2.58.58l-.33.22c.81.31,1.61.71,2.58,1.16L190.58,265.78c8.22,5.68,12.57,13.27,13.37,23.36V416.33a13.94,13.94,0,0,1-.32,2.75l.16-.07c2.58-2.13,2.74-3.13,3.07-6.67V285.49c-.81-8.87-4.52-15.35-11.77-20.32l-175-100.92c-2.09-1-3.22-1.51-4.5-1.51ZM196.86,425.35a1.91,1.91,0,0,1,.33-2.53c2.57-2.11,2.74-3.11,3.06-6.67l-.16-126.86c-.65-8.83-4.35-15.33-11.6-20.3L13.69,168.07c-3.54-1.56-4.35-2-7.57-.81a1.74,1.74,0,0,1-2.26-1,1.84,1.84,0,0,1,.65-2.45l6.92-3.94c4.52-1.68,6.45-.89,10.48,1L197.19,262c8.22,5.69,12.56,13.28,13.37,23.36V412.5c-.32,4.27-.65,6.44-4.51,9.6l-6.77,3.82a1.15,1.15,0,0,1-.8.26A1.9,1.9,0,0,1,196.86,425.35Z" transform="translate(-1.39 -2.45)"/><path class="cls-4" d="M188.49,276.94,15.3,177c-3.06-1.8-5.63-.34-5.63,3.28V298a12.64,12.64,0,0,0,5.63,9.78l173.35,99.93c3.06,1.81,5.64.34,5.64-3.26V286.72A12.39,12.39,0,0,0,188.49,276.94Z" transform="translate(-1.39 -2.45)"/><path class="cls-2" d="M187.68,278.59h0L14.33,178.64a2.22,2.22,0,0,0-2.09-.4c-.48.26-.64,1-.64,2V298a10.47,10.47,0,0,0,4.67,8.14L189.62,406a2.26,2.26,0,0,0,2.09.38c.48-.25.65-1,.65-2V286.72a10.89,10.89,0,0,0-4.68-8.13Zm0,130.71L14.5,309.38c-3.71-2.15-6.77-7.17-6.77-11.43V180.27a5.88,5.88,0,0,1,2.58-5.3,6,6,0,0,1,6,.38l173.19,100h0a14.38,14.38,0,0,1,6.6,11.42V404.4c0,2.41-.81,4.35-2.42,5.29a5.19,5.19,0,0,1-2.41.63A7,7,0,0,1,187.68,409.3Z" transform="translate(-1.39 -2.45)"/><path class="cls-3" d="M188.49,276.94,15.3,177c-3.06-1.8-5.63-.34-5.63,3.28V298a12.64,12.64,0,0,0,5.63,9.78l173.35,99.93c3.06,1.81,5.64.34,5.64-3.26V286.72a12.41,12.41,0,0,0-5.8-9.78Zm1-9.6c6.92,4,12.56,13.79,12.56,21.8l.16,127c0,8-5.8,11.26-12.72,7.27l-175-101c-6.93-4-12.57-13.81-12.57-21.8l-.16-127c0-8,5.64-11.28,12.56-7.28l175.13,101Z" transform="translate(-1.39 -2.45)"/><path class="cls-2" d="M187.68,278.59,14.33,178.64a2.28,2.28,0,0,0-2.09-.4c-.48.26-.64,1-.64,2V298a10.47,10.47,0,0,0,4.67,8.14L189.62,406a2.26,2.26,0,0,0,2.09.38c.48-.25.65-1,.65-2V286.72a10.89,10.89,0,0,0-4.68-8.13Zm3.55,131.73a7,7,0,0,1-3.55-1L14.5,309.38c-3.71-2.15-6.77-7.17-6.77-11.43V180.27a5.88,5.88,0,0,1,2.58-5.3,6,6,0,0,1,6,.38l173.19,100h0a14.41,14.41,0,0,1,6.6,11.42V404.4c0,2.41-.81,4.35-2.42,5.29a5.19,5.19,0,0,1-2.41.63ZM188.49,269c6.44,3.64,11.6,12.87,11.6,20.15l.16,127c0,3.18-1,5.47-2.74,6.5s-4.35.72-7.09-.88l-175-101C9,317.16,3.7,307.92,3.7,300.64v-127c0-3.16,1-5.48,2.74-6.49s4.35-.73,7.09.85l175,101Zm.16,156.07-175.12-101C6,319.77,0,309.26,0,300.64v-127c0-4.58,1.61-8,4.67-9.78,2.9-1.72,6.76-1.43,10.63.85l175.12,101C197.83,270,204,280.52,204,289.14v127c0,4.58-1.61,8-4.67,9.77a7.8,7.8,0,0,1-4.19,1.11A13.19,13.19,0,0,1,188.65,425.06Z" transform="translate(-1.39 -2.45)"/><path class="cls-4" d="M100.53,363.44a.78.78,0,0,1,.8.1,4.2,4.2,0,0,1,1,.87,3.2,3.2,0,0,1,.32,1.17,1,1,0,0,1-.32.76,1,1,0,0,1-1-.08c-.32-.19-.48-.52-.8-.89a3,3,0,0,1-.33-1.16A1,1,0,0,1,100.53,363.44Z" transform="translate(-1.39 -2.45)"/><path class="cls-2" d="M101.49,365.08c.32-.19.48-.51.64-.51a1,1,0,0,0-.8.14c-.32.15-.48.36-.48.55a1.41,1.41,0,0,0,.64-.18Zm-1.13,2.8a4.46,4.46,0,0,1-1.44-1.56,5,5,0,0,1-.65-2.11,2.61,2.61,0,0,1,4-2.33,5.29,5.29,0,0,1,1.61,1.56,5.35,5.35,0,0,1,.65,2.14,2.57,2.57,0,0,1-2.59,2.74A3.8,3.8,0,0,1,100.36,367.88Z" transform="translate(-1.39 -2.45)"/><polygon class="cls-4" points="164.05 287.21 35.82 213.17 35.82 301.56 164.05 375.59 164.05 287.21"/><path class="cls-2" d="M163.52,290.75,39.15,218.9v84l124.37,71.85v-84Zm1,88.93-128.25-74a2.13,2.13,0,0,1-1-1.63v-88.4a2.22,2.22,0,0,1,1-1.64,2,2,0,0,1,1.93,0l128.25,74a1.81,1.81,0,0,1,1,1.65V378a1.81,1.81,0,0,1-1,1.65,2,2,0,0,1-1,.26A1.93,1.93,0,0,1,164.49,379.68Z" transform="translate(-1.39 -2.45)"/><polygon class="cls-3" points="164.05 287.21 35.82 213.17 35.82 200.43 164.05 274.47 164.05 287.21"/><path class="cls-2" d="M163.52,278,39.15,206.14v8.38l124.37,71.85V278Zm1,13.27-128.25-74a2.15,2.15,0,0,1-1-1.64V202.87a2.15,2.15,0,0,1,1-1.64,1.9,1.9,0,0,1,1.93,0l128.25,74a1.81,1.81,0,0,1,1,1.64v12.75a1.77,1.77,0,0,1-1,1.62,2,2,0,0,1-1,.26A1.93,1.93,0,0,1,164.49,291.28Z" transform="translate(-1.39 -2.45)"/><path class="cls-2" d="M120.82,310a1.81,1.81,0,0,0,1.61-1,1.87,1.87,0,0,0-.64-2.6l-50.1-28.93a1.85,1.85,0,0,0-2.58.68,1.75,1.75,0,0,0,.65,2.59l50.1,28.95A1.93,1.93,0,0,0,120.82,310Z" transform="translate(-1.39 -2.45)"/><path class="cls-2" d="M120.82,290.46a1.79,1.79,0,0,0,1.61-.95,1.84,1.84,0,0,0-.64-2.58L71.69,258a1.84,1.84,0,0,0-2.58.7,1.72,1.72,0,0,0,.65,2.57l50.1,28.95A1.93,1.93,0,0,0,120.82,290.46Z" transform="translate(-1.39 -2.45)"/><path class="cls-2" d="M120.82,330.69a1.82,1.82,0,0,0,1.61-.94,1.85,1.85,0,0,0-.64-2.59l-40.6-23.41a1.91,1.91,0,0,0-2.57.7,1.88,1.88,0,0,0,.81,2.57l40.43,23.41A1.93,1.93,0,0,0,120.82,330.69Z" transform="translate(-1.39 -2.45)"/></g></g></svg>