<?xml version="1.0" encoding="utf-8"?>
<!-- Generator: Adobe Illustrator 25.0.0, SVG Export Plug-In . SVG Version: 6.00 Build 0)  -->
<svg version="1.1" id="Layer_1" xmlns="http://www.w3.org/2000/svg" xmlns:xlink="http://www.w3.org/1999/xlink" x="0px" y="0px"
	 viewBox="0 0 1920 1080" style="enable-background:new 0 0 1920 1080;" xml:space="preserve">
<style type="text/css">
	
		.st0{fill-rule:evenodd;clip-rule:evenodd;fill:#FFFFFF;stroke:#2572B8;stroke-width:1.15;stroke-linecap:round;stroke-linejoin:round;}
	.st1{fill:none;}
	
		.st2{fill-rule:evenodd;clip-rule:evenodd;fill:#D9E6F5;stroke:#2572B8;stroke-width:1.15;stroke-linecap:round;stroke-linejoin:round;}
	
		.st3{fill-rule:evenodd;clip-rule:evenodd;fill:#99CCED;stroke:#2572B8;stroke-width:1.15;stroke-linecap:round;stroke-linejoin:round;}
	
		.st4{fill-rule:evenodd;clip-rule:evenodd;fill:#D9E6F5;stroke:#2572B8;stroke-width:0.92;stroke-linecap:round;stroke-linejoin:round;}
	
		.st5{fill-rule:evenodd;clip-rule:evenodd;fill:#FFFFFF;stroke:#2572B8;stroke-width:0.92;stroke-linecap:round;stroke-linejoin:round;}
	
		.st6{fill-rule:evenodd;clip-rule:evenodd;fill:#99CCED;stroke:#2572B8;stroke-width:0.92;stroke-linecap:round;stroke-linejoin:round;}
</style>
<g id="Layer_2_1_">
	<g id="Layer_1-2">
		<path class="st0" d="M1048,415.7c-38.6-38.6-96.6-50.1-147-29.3c-68.9,28.5-101.6,107.5-73.1,176.3
			c28.5,68.9,107.5,101.6,176.3,73.1c50.5-20.9,83.4-70.1,83.4-124.8C1087.7,475.3,1073.4,440.9,1048,415.7L1048,415.7z"/>
		<path class="st1" d="M952.6,378.4c-73.2,0.1-132.5,59.5-132.4,132.7s59.5,132.5,132.7,132.4s132.5-59.5,132.4-132.7
			c0-17.3-3.4-34.4-10-50.4c-6.7-16.1-16.5-30.8-28.9-43.1l0,0c-12.3-12.4-26.9-22.2-43-28.9C987.3,381.8,970,378.4,952.6,378.4
			L952.6,378.4z M952.6,648.3c-18,0.1-35.8-3.5-52.5-10.4c-70-29.1-103.3-109.4-74.2-179.5c13.9-33.6,40.6-60.2,74.2-74.2
			c33.6-13.8,71.4-13.8,105,0c70,29.1,103.3,109.4,74.2,179.4c-13.9,33.6-40.6,60.3-74.2,74.2C988.5,644.8,970.6,648.3,952.6,648.3z
			"/>
		<path class="st2" d="M1039.7,423.9c-48-48.1-126-48.2-174.1-0.1c-23.2,23.1-36.2,54.5-36.1,87.3c0.1,68.1,55.3,123.2,123.3,123.1
			c16.1,0,32-3.2,46.9-9.3c15-6.2,28.5-15.3,40-26.8c11.5-11.4,20.6-25,26.7-39.9C1085.5,512.2,1075,459.2,1039.7,423.9z"/>
		<path class="st1" d="M952.6,390.2c-32.1-0.1-62.8,12.6-85.5,35.3c-22.7,22.7-35.4,53.5-35.4,85.5c0.1,48.9,29.5,93,74.7,111.7
			c29.7,12.1,62.9,12.1,92.5,0c45.2-18.7,74.6-62.8,74.6-111.7c0.1-15.8-3-31.6-9.1-46.2C1045.8,419.6,1001.6,390.1,952.6,390.2z
			 M952.6,636.5c-69.3-0.1-125.4-56.4-125.4-125.7c0.1-50.7,30.6-96.3,77.4-115.7c30.8-12.6,65.2-12.6,96,0
			c15.2,6.3,29.1,15.6,40.7,27.3l0,0c23.6,23.5,36.8,55.4,36.7,88.7c0.1,69.2-56,125.4-125.2,125.4
			C952.7,636.5,952.7,636.5,952.6,636.5z"/>
		<path class="st3" d="M1046.3,431c4.5,5.2,15.8,22,20.7,34.1c6.1,15,9.1,31.1,8.9,47.3c-0.2,16.2-3.5,32.2-9.8,47.1
			c-12.9,30-37.2,53.7-67.5,66c-6,2.4,11.2-18,0.5-29.3c-10.7-11.3-55.9,1.8-54.6-21.3c1.3-23.1,11.3-23,16.7-35
			c5.3-12,11.6-2.3,34.3-10s52.7-6.5,62.5-16.8c9.8-10.3-37.5,2-46.2-0.2s-10.5-12.6-16.7-12.3c-6.2,0.3-2.7,11.6-9.7,13.8
			s-25.7,5.5-26.9-2.5c-4.4-30.6,19.2-20.9,20.6-22.6c6.2-7.2-7.4-12.9,1-23.1c8.4-10.2,16.8-12,21.2-19.1
			c4.4-7.1-10.4-12.5-3.6-18.1C1004.5,423.3,1041.6,425.5,1046.3,431z"/>
		<path class="st1" d="M972.3,535.5c-5.1,0-6.9,0.4-9.1,5.3c-1.7,3.8-4.1,7.3-7.1,10.2c-4.4,5-8.6,9.8-9.4,24
			c-0.6,10.7,10.7,12.1,28,13.2c10.8,0.6,21,1.2,26,6.4c7.8,8.2,2.8,20.3,0.1,26.8c-0.1,0.2-0.2,0.4-0.3,0.7
			c44-18.9,72.6-61.9,73-109.8c0.2-15.9-2.7-31.7-8.7-46.4c-4.8-11.9-15.9-28.4-20.3-33.5l0,0c-3.7-4.3-39.2-6.9-45.4-1.8
			c-1.5,1.2-1.5,1.8,1.4,5.5c2.4,3,5.6,7.2,2.6,12c-2.4,3.9-5.9,6.3-9.6,8.9c-4.4,2.9-8.4,6.4-11.8,10.4c-3.7,4.4-2.3,7.4-0.6,11.1
			c1.6,3.4,3.4,7.6-0.4,12c-1,1.2-2.6,1.1-5,0.8c-3.6-0.4-9.1-0.9-12.5,2.6c-3,3.1-3.8,8.9-2.6,17.4c0.1,0.7,0.6,1.4,1.2,1.7
			c4,2.6,15.8,1,22.7-1c2.1-0.7,2.8-2.8,3.6-6c0.8-3.2,1.9-7.6,6.6-7.8c4.4-0.1,6.8,2.9,9.2,5.9c2.2,2.7,4.5,5.5,8.2,6.4
			c2.9,0.7,12.4-0.6,20.8-1.8c18.5-2.7,26.2-3.4,28.2,0.3c0.9,1.7,0.3,3.5-1.6,5.5c-6.4,6.6-19.4,8.7-34.3,11.1
			c-9.9,1.6-20.1,3.2-29.1,6.3c-7.3,2.6-14.9,3.7-22.6,3.5L972.3,535.5z M997.7,627.9c-0.7,0-1.4-0.3-1.9-0.8
			c-1.5-1.6-0.7-3.7,0.8-7.5c2.4-5.9,6.5-15.8,0.8-21.9c-3.8-3.9-13.5-4.5-23-5c-15.5-0.9-33.2-1.9-32.3-18
			c0.9-15.9,5.8-21.4,10.5-26.8c2.6-2.6,4.7-5.7,6.3-9c3.5-8,8.2-8.1,14.5-8c7.2,0.2,14.4-0.9,21.2-3.3c9.4-3.2,19.8-4.9,29.8-6.5
			c13.6-2.2,26.5-4.2,31.8-9.8c0.1-0.1,0.1-0.1,0.1-0.2c-3.7-0.7-15.1,1-22.8,2.1c-10.1,1.4-18.8,2.7-22.5,1.7
			c-5.2-1.3-8.2-5-10.6-8c-2.2-2.7-3.7-4.4-5.5-4.2c-1.2,0.1-1.6,0.8-2.4,4.4c-0.8,3.3-1.9,7.8-6.7,9.2c-5.2,1.6-19.9,4.8-26.5,0.6
			c-1.8-1.1-3-2.9-3.3-4.9c-1.4-10-0.2-16.9,3.8-21.2c4.8-5.1,12.3-4.4,16.2-4c0.5,0.1,1,0.1,1.5,0.1c1.3-1.9,0.6-3.5-0.7-6.5
			c-1.8-3.9-4.2-9.3,1.3-15.9c3.7-4.3,7.9-8.1,12.7-11.2c3.6-2.5,6.4-4.5,8.3-7.7c1.2-1.9,0.2-3.6-2.3-6.7
			c-2.3-2.9-5.9-7.7-0.7-11.9c7.4-6,46-4.2,51.8,2.4l0,0c4.6,5.3,16.2,22.4,21.1,34.7c6.2,15.3,9.2,31.7,9,48.2
			c-0.3,33.3-13.9,65.1-37.7,88.4c-11.8,11.5-25.7,20.7-41,26.8C998.9,627.8,998.3,627.9,997.7,627.9z"/>
		<path class="st3" d="M944.4,388.1c-67.9,4.5-119.3,63.1-114.8,131c1.8,27,12.4,52.7,30.3,73.1c0.6,0.8,1.6,1.2,2.6,1.2
			c1,0.1,1.9-0.3,2.6-1c8.2-9.5,32-16,33.6-28.5c1.2-9.2-14.1-12.9-18.1-21.3c-4.6-9.5-0.9-22.2-6.9-31c-6.2-9.1-23-7.8-29.3-16.8
			c-3.5-4.9-0.9-12.2,1-17.9c0.8-2.5,3.8-4,6.4-4.6c16.8-4.2,28.1-2.2,50.4-11.8c10.7-4.7,4.8-10.8,9.6-12.7
			c4.8-1.9,12.1,12.3,19.4,6c7.3-6.3,12.9-36.7,15.5-43.7s12.2-0.2,14.8,1.3s-4.5,15.1-1.2,17.5c3.3,2.4,16.8-6.1,18.6-7.8
			c10.2-10.1,7.7-19.4,1.9-24c-5.8-4.6-23.3,1.5-33.4-7.9C946.4,388.4,945.4,388,944.4,388.1z"/>
		<path class="st1" d="M944.4,388.1L944.4,388.1z M959.9,413.2L959.9,413.2z M944.6,390.4h-0.1c-66.6,4.3-117,61.9-112.7,128.4
			c1.7,26.6,12.2,51.8,29.8,71.8c0.2,0.3,0.6,0.4,0.9,0.4c0.6,0,0.8-0.2,0.8-0.3c3.4-3.9,9.1-7.2,15-10.6c8.4-5,17.2-10,18-16.5
			c0.5-3.7-2.7-6.4-8.1-10.2c-3.8-2.9-7.8-5.7-9.8-9.9c-2.2-4.8-2.6-10.2-3-15.3c-0.4-5.7-0.8-11.2-3.7-15.3
			c-2.7-3.9-8-5.7-13.6-7.6c-6-2-12.2-4-15.7-9.1c-4-5.7-1.4-13.6,0.5-19.4l0.2-0.6c1.3-4,6-5.6,8-6.1c5.5-1.3,11.1-2.3,16.8-3
			c9.4-1.3,19.2-2.6,33.2-8.8c5.3-2.2,5.6-4.6,5.9-6.9c0.3-1.9,0.6-4.5,3.7-5.8c3.1-1.3,6.2,1.2,9.2,3.6c4.7,3.7,7.1,5,9.6,2.8
			c4.7-4.1,9.3-21.9,12-32.6c1.2-4.5,2.1-8.1,2.8-10.1c0.7-2,2.2-3.5,4.1-4.2c4.4-1.6,10,1.9,13,3.8l0.8,0.5
			c2.6,1.6,1.7,5.3,0.4,10.1c-0.6,2.3-1.8,6.7-1.3,7.7c2.1,0.6,13.6-5.9,15.5-7.8c4.3-4.2,6.5-8.7,6.3-12.8c-0.2-3.1-1.7-6-4.2-7.8
			c-1.7-1.3-5.9-1.5-10.3-1.5c-7.4-0.1-16.6-0.3-23.2-6.5C945.2,390.5,944.9,390.4,944.6,390.4L944.6,390.4z M862.5,595.6h-0.2
			c-1.6,0-3.2-0.8-4.2-2c-9-10.2-16.2-21.9-21.4-34.5c-12.7-30.8-12.7-65.4,0-96.2c18.3-44.1,59.9-74,107.5-77.1
			c1.6-0.1,3.2,0.5,4.4,1.6c5.4,4.9,13.2,5.1,20.2,5.3c5.5,0.1,10.1,0.2,13,2.6c3.5,2.7,5.6,6.7,5.9,11.1c0.2,3.8-0.9,9.7-7.6,16.3
			c-0.8,0.9-16.3,12.1-21.6,8c-2.9-2.2-1.6-7.1-0.2-12.3c0.6-1.8,1-3.6,1.2-5.4l-0.4-0.2c-1.9-1.2-6.8-4.2-9.2-3.4
			c-0.4,0.1-0.9,0.4-1.3,1.5c-0.7,1.8-1.6,5.5-2.7,9.7c-4.1,15.8-8.1,30.3-13.5,34.9c-5.8,5-11.5,0.3-15.4-2.8
			c-1.3-1-3.9-3.1-4.6-2.8c-0.6,0.2-0.6,0.3-0.9,2.1c-0.4,2.9-1,7.3-8.6,10.6c-14.6,6.4-24.7,7.7-34.5,9.1
			c-5.5,0.7-10.9,1.6-16.3,2.9c-2.5,0.6-4.3,1.8-4.7,3.1l-0.2,0.6c-1.7,5.1-3.8,11.6-1.1,15.4c2.7,3.8,8,5.6,13.5,7.5
			c6,2,12.4,4.1,15.9,9.3c3.5,5.2,4,11.5,4.4,17.6c0.3,4.9,0.6,9.7,2.6,13.7c1.5,3,5,5.6,8.4,8c5.1,3.7,10.8,7.9,10,14.5
			c-1.2,8.7-10.9,14.4-20.3,19.9c-5.6,3.3-10.9,6.4-13.9,9.8C865.6,595,864.1,595.7,862.5,595.6z"/>
		<path class="st4" d="M1007.8,559.9l-26.3,15.2c-4.5,2.9-7.3,7.8-7.6,13.1v103.2c0,5.6,3.9,7.8,8.8,5.1l25.2-14.6L1007.8,559.9z"/>
		<path class="st1" d="M1006.1,562.7l-23.9,13.8c-4,2.6-6.5,7-6.8,11.7v103.2c0,2.1,0.6,3.6,1.8,4.3c1.1,0.7,2.8,0.4,4.6-0.6
			l24.4-14.1L1006.1,562.7L1006.1,562.7z M978.6,699.4c-1.1,0-2.2-0.3-3.1-0.8c-2.2-1.3-3.4-3.8-3.4-7.1V588.2
			c0.3-5.9,3.4-11.3,8.4-14.5l26.4-15.2c0.5-0.3,1.1-0.3,1.6,0c0.5,0.3,0.9,0.8,0.9,1.4V682c0,0.6-0.3,1.1-0.8,1.4L983.3,698
			C981.9,698.9,980.3,699.3,978.6,699.4z"/>
		<path class="st5" d="M1104.1,628v-5c0-26-0.1-124.8-0.5-125.7c-1.2-2.6-4-3.1-7-1.4l-96.1,55.5c-4.5,2.9-7.3,7.8-7.6,13.1v127.6
			l-3.5,12l106-61C1100.6,639.8,1103.9,634.2,1104.1,628L1104.1,628z"/>
		<path class="st1" d="M1100,496.6c-0.9,0-1.8,0.3-2.5,0.8l-96.1,55.5c-4,2.6-6.5,7-6.8,11.7v127.6c0,0.2,0,0.3-0.1,0.5l-2.3,8.1
			l102.5-59c4.7-3.1,7.7-8.2,8-13.8v-5c0-44.5-0.2-120-0.5-125.2c-0.3-0.5-0.7-0.9-1.3-1.1C1100.6,496.6,1100.3,496.6,1100,496.6
			L1100,496.6z M989.4,705.9c-0.4,0-0.7-0.1-1-0.4c-0.5-0.4-0.8-1.1-0.6-1.7l3.4-11.8V564.6c0.3-5.9,3.4-11.3,8.4-14.5l96.1-55.5
			c1.8-1.2,3.9-1.5,6-1c1.5,0.5,2.7,1.6,3.3,3.1c0.2,0.5,0.6,1.3,0.7,126.3v5c-0.3,6.8-3.9,13-9.6,16.6l-106,61
			C990,705.8,989.7,705.9,989.4,705.9z"/>
		<path class="st6" d="M982.9,574.2v107.7c0,2.2,0.4,12.7-3.9,11.3c-4.9-1.6-5.2-12.1-5.2-16.6v-88.4
			C973.8,582.1,977.8,577.1,982.9,574.2L982.9,574.2z M982.9,563.1l-11.2,6.4c-4.5,2.9-7.3,7.8-7.6,13.1l0,94.8
			c0,10.2,5.2,21,14.2,26.2c5.7,3.3,10.8,2.3,13.2-1.9c1.8-3.3,1.3-7.6,1.3-11.2v-126c0.3-5.3,3.1-10.2,7.6-13.1l96.2-55.5
			c1.9-0.9,3-1.3,5.1-0.7l-10-5.8c-1.7-0.7-3.6-0.4-5.1,0.6l-96.1,55.5c-4.5,2.9-7.3,7.8-7.6,13.1L982.9,563.1z"/>
		<path class="st1" d="M981.3,577.3c-3.8,2.9-5.9,6.8-5.9,10.9v88.4c0,12,2.5,14.5,4,15c0.8-0.3,1.9-1.9,1.8-9.2v-0.5L981.3,577.3
			L981.3,577.3z M979.7,695c-0.4,0-0.8-0.1-1.2-0.2c-4.2-1.4-6.3-7.3-6.3-18.1v-88.4c0-6.1,3.7-11.8,10-15.4c0.5-0.3,1.1-0.3,1.6,0
			c0.5,0.3,0.8,0.8,0.8,1.4v107.7v0.5c0,4.8-0.3,10-2.8,11.9C981.2,694.7,980.4,695,979.7,695L979.7,695z M982.9,563.1L982.9,563.1z
			 M1089.8,490.7c0.4,0,0.7,0.1,1.1,0.2l5.6,3.2c-0.2,0.1-0.5,0.2-0.7,0.3L999.6,550c-5,3.2-8.1,8.6-8.3,14.5v126c0,0.6,0,1.3,0,2
			c0.1,3,0.1,6.1-1.2,8.5c-0.7,1.4-2,2.4-3.5,2.8c-2.1,0.6-4.8,0.1-7.5-1.5c-8-4.6-13.4-14.6-13.3-24.8v-94.8
			c0.2-4.8,2.8-9.2,6.8-11.8l11.2-6.4c0.5-0.3,0.8-0.8,0.8-1.4v-4.3c0.3-4.8,2.8-9.1,6.8-11.8l96.1-55.5
			C1088.1,491.1,1088.9,490.8,1089.8,490.7L1089.8,490.7z M984.8,707.3c-2.6-0.1-5.1-0.8-7.3-2.2c-9-5.2-15-16.3-15-27.6v-94.8
			c0.3-5.9,3.4-11.3,8.3-14.5l10.4-6v-3.4c0.3-5.9,3.4-11.3,8.4-14.5l96.2-55.5c1.9-1.3,4.3-1.6,6.4-0.8l10.3,5.9
			c0.8,0.4,1.2,1.4,0.8,2.2c-0.4,0.8-1.3,1.1-2.1,0.8c-1.5-0.5-2-0.3-3.9,0.6l-96,55.4c-4,2.6-6.5,7-6.8,11.8v125.9
			c0,0.6,0,1.2,0,1.9c0.1,3.3,0.2,7-1.6,10.1c-1.2,2.1-3.1,3.7-5.5,4.4C986.6,707.2,985.7,707.3,984.8,707.3L984.8,707.3z"/>
		<path class="st5" d="M1013.5,606.3l32.7-18.9c0.8-0.5,1.5-0.1,1.5,0.9v21.1c-0.1,1.1-0.6,2-1.5,2.6l-32.7,18.9
			c-0.8,0.5-1.5,0.1-1.5-0.9v-21.1C1012.1,607.9,1012.6,606.9,1013.5,606.3z"/>
		<path class="st1" d="M1013.5,606.3L1013.5,606.3z M1046.1,589.4l-31.7,18.3l0,0c-0.4,0.3-0.6,0.7-0.7,1.2v20l31.8-18.3
			c0.4-0.3,0.6-0.7,0.7-1.2L1046.1,589.4L1046.1,589.4z M1012.8,632.7c-0.4,0-0.8-0.1-1.2-0.3c-0.8-0.5-1.3-1.4-1.3-2.4v-21.1
			c0.1-1.6,0.9-3.1,2.3-4l32.7-18.9c1.1-0.8,2.7-0.5,3.5,0.6c0.3,0.5,0.5,1,0.4,1.6v21.1c-0.1,1.6-0.9,3.1-2.3,4l-32.7,18.9
			C1013.9,632.6,1013.4,632.7,1012.8,632.7z"/>
		<path class="st1" d="M1015.8,592.8L1015.8,592.8c-0.9,0-1.6-0.7-1.6-1.6l0.1-19.1c-0.2-1.9,1.1-3.7,2.9-4.2
			c1.3-0.3,2.7,0.4,3.2,1.7l6.5,14.2c0.1-0.2,0.1-0.3,0.1-0.5l0.2-19.8c0-0.9,0.7-1.6,1.7-1.6l0,0c0.9,0,1.6,0.7,1.6,1.6
			c0,0,0,0,0,0l-0.2,19.7c0.1,1.6-1.1,3.9-2.9,4.3c-0.5,0.1-2.2,0.3-3.2-1.9l-6.5-14.1c-0.1,0.2-0.1,0.4-0.1,0.7l-0.1,19.1
			C1017.4,592,1016.7,592.7,1015.8,592.8z"/>
		<path class="st1" d="M1035.2,582c-0.4,0-0.8-0.1-1.2-0.3c-0.8-0.5-1.3-1.4-1.3-2.4V562c0.1-1.6,0.9-3.1,2.3-4l9.4-5.4
			c0.8-0.5,1.8-0.2,2.2,0.6c0,0,0,0,0,0c0.4,0.8,0.2,1.8-0.6,2.2l-9.4,5.4c-0.4,0.3-0.6,0.7-0.7,1.2v5.5l5.6-3.2
			c0.8-0.5,1.8-0.2,2.2,0.6c0,0,0,0,0,0c0.4,0.8,0.2,1.8-0.6,2.2l-7.3,4.2v6.9l8.5-4.9c0.8-0.5,1.8-0.3,2.2,0.5
			c0.5,0.8,0.3,1.8-0.5,2.2c0,0-0.1,0-0.1,0.1l-9.5,5.5C1036.3,581.9,1035.8,582,1035.2,582z"/>
		<path class="st1" d="M1054.1,571.3c-0.3,0-0.5,0-0.8-0.1c-0.8-0.3-1.4-1-1.6-1.8l-3-17.8c-0.1-0.9,0.5-1.7,1.3-1.9
			c0.9-0.1,1.7,0.5,1.9,1.3l2.7,15.8l2.5-15.5c0.1-0.9,1-1.5,1.9-1.4c0.6,0.1,1.1,0.5,1.3,1.1l3.2,10.9c0-0.1,0.1-0.2,0.1-0.2
			l2.3-21.2c0.1-0.9,0.9-1.5,1.8-1.5c0.9,0.1,1.5,0.9,1.5,1.8l-2.3,21.4c-0.2,1.1-0.8,2.1-1.6,2.8c-0.7,0.8-1.8,1.1-2.8,0.9
			c-0.8-0.2-1.4-0.9-1.7-1.7l-1.6-5.3l-1.4,8.6c-0.2,1.1-0.8,2.1-1.6,2.8C1055.6,571,1054.9,571.3,1054.1,571.3z"/>
		<path class="st1" d="M1072.6,560.7c-0.9,0-1.6-0.8-1.6-1.7c0-0.5,0.3-1,0.7-1.3l10.5-6.2c0.4-0.3,0.6-0.7,0.7-1.2v-6.5l-8.1,4.6
			c-0.8,0.5-1.8,0.6-2.7,0.1c-0.8-0.5-1.3-1.4-1.3-2.4v-6.3c0-1.6,0.9-3.1,2.3-4l10.5-6.1c0.8-0.5,1.8-0.2,2.2,0.6
			c0.5,0.8,0.2,1.8-0.6,2.2l0,0l-10.5,6.2c-0.4,0.3-0.6,0.7-0.7,1.2v5.2l8.1-4.6c1.1-0.8,2.7-0.5,3.5,0.6c0.3,0.5,0.5,1.1,0.4,1.6
			v7.6c0,1.6-0.9,3.1-2.3,4l-10.6,6.2C1073.2,560.6,1072.9,560.7,1072.6,560.7z"/>
		<path class="st4" d="M1047.7,597.4v12c-0.1,1-0.6,2-1.4,2.5l0,0l-32.7,19l0,0c-0.8,0.4-1.4,0-1.4-0.9v-5.7l5.3-7.6h12.3
			c0.8-0.1,1.5-0.6,1.9-1.3l12.4-17.7L1047.7,597.4z"/>
		<path class="st1" d="M1013.6,624.9v4l31.8-18.3c0.4-0.3,0.6-0.7,0.7-1.2v-10.3l-1.3,0.1l-12,17.1c-0.7,1.1-1.9,1.9-3.2,2h-11.4
			L1013.6,624.9z M1012.8,632.8c-0.4,0-0.8-0.1-1.2-0.3c-0.8-0.5-1.3-1.4-1.2-2.4v-5.7c0-0.3,0.1-0.7,0.3-0.9l5.3-7.6
			c0.3-0.4,0.8-0.7,1.3-0.7h12.3c0.2-0.2,0.4-0.4,0.5-0.6l12.4-17.7c0.3-0.4,0.7-0.7,1.2-0.7l3.8-0.2c0.5,0,0.9,0.1,1.2,0.5
			c0.3,0.3,0.5,0.7,0.5,1.2v12c-0.1,1.6-0.9,3.1-2.2,4l-32.8,18.9C1013.8,632.6,1013.3,632.7,1012.8,632.8L1012.8,632.8z"/>
		<path class="st5" d="M996.2,555.4L996.2,555.4c1.1-1.7,2.6-3,4.2-4l96.2-55.5c1.9-0.9,3-1.3,5.1-0.7l-10-5.8
			c-2.1-0.7-3.2-0.3-5.1,0.6l-96.1,55.5c-1.6,1-3.1,2.4-4.2,3.9l-0.1,0.1L996.2,555.4z"/>
		<path class="st1" d="M988.7,549.2l7.1,4.1c1.1-1.3,2.4-2.4,3.8-3.3l96.2-55.5c0.2-0.1,0.5-0.2,0.7-0.4l-5.6-3.2
			c-1.2-0.4-1.7-0.2-3.5,0.7l-96,55.4C990.4,547.7,989.5,548.4,988.7,549.2L988.7,549.2z M996.1,557c-0.3,0-0.5-0.1-0.8-0.2l-10-5.8
			c-0.4-0.2-0.7-0.6-0.8-1c-0.1-0.5,0-0.9,0.3-1.3c1.3-1.8,2.9-3.3,4.8-4.5l96.2-55.5c2.1-1.1,3.7-1.7,6.4-0.8l10.3,5.9
			c0.8,0.4,1.2,1.4,0.8,2.2c-0.4,0.8-1.3,1.1-2.1,0.8c-1.5-0.5-2-0.3-3.9,0.6l-96,55.4c-1.5,0.9-2.8,2.1-3.8,3.5
			C997.2,556.8,996.7,557.1,996.1,557L996.1,557z"/>
		<path class="st5" d="M982.9,563.1l-11.1,6.4c-2.4,1.5-4.3,3.6-5.6,6.2l9.6,5.5c1.3-2.5,3.3-4.6,5.6-6.2l1.5-0.9V563.1z"/>
		<path class="st1" d="M968.4,575.1l6.8,3.9c1.3-2.2,3.2-4,5.4-5.4l0.7-0.4V566l-8.7,5C970.9,572,969.5,573.4,968.4,575.1
			L968.4,575.1z M975.8,582.9c-0.3,0-0.6-0.1-0.8-0.2l-9.6-5.5c-0.8-0.4-1-1.4-0.6-2.2c1.4-2.8,3.6-5.1,6.2-6.8l11.2-6.5
			c0.8-0.4,1.8-0.2,2.2,0.6c0.1,0.2,0.2,0.5,0.2,0.8v11.1c0,0.6-0.3,1.1-0.8,1.4l-1.5,0.9c-2.1,1.4-3.9,3.3-5,5.5
			C976.9,582.6,976.4,582.9,975.8,582.9L975.8,582.9z"/>
		<path class="st5" d="M1057.8,585.8c-0.9-0.1-1.6-0.8-1.5-1.7c0-0.5,0.3-1,0.7-1.3l28-16.2c0.8-0.5,1.8-0.2,2.2,0.6
			c0.5,0.8,0.2,1.8-0.6,2.2l-28,16.2C1058.4,585.7,1058.1,585.8,1057.8,585.8z"/>
		<path class="st5" d="M1057.8,603.6c-0.9-0.1-1.6-0.8-1.5-1.7c0-0.5,0.3-1,0.7-1.3l28-16.2c0.8-0.5,1.8-0.2,2.2,0.6
			c0.5,0.8,0.2,1.8-0.6,2.2l0,0l-28,16.2C1058.4,603.5,1058.1,603.6,1057.8,603.6z"/>
		<path class="st5" d="M1013.7,647.9c-0.9,0-1.6-0.8-1.6-1.7c0-0.5,0.3-1,0.7-1.3l72.1-41.6c0.8-0.4,1.8-0.2,2.2,0.6
			c0.4,0.8,0.2,1.8-0.6,2.2l-72.1,41.6C1014.3,647.8,1014,647.9,1013.7,647.9z"/>
		<path class="st5" d="M1013.7,666.8c-0.6,0-1.1-0.3-1.4-0.8c-0.4-0.8-0.2-1.8,0.6-2.2l72.1-41.6c0.8-0.5,1.8-0.2,2.3,0.6
			c0.5,0.8,0.2,1.8-0.6,2.3c0,0,0,0,0,0l-72.1,41.6C1014.3,666.7,1014,666.8,1013.7,666.8z"/>
	</g>
</g>
</svg>
