<?xml version="1.0" encoding="utf-8"?>
<!-- Generator: Adobe Illustrator 25.0.0, SVG Export Plug-In . SVG Version: 6.00 Build 0)  -->
<svg version="1.1" id="Layer_1" xmlns="http://www.w3.org/2000/svg" xmlns:xlink="http://www.w3.org/1999/xlink" x="0px" y="0px"
	 viewBox="0 0 1920 1080" style="enable-background:new 0 0 1920 1080;" xml:space="preserve">
<style type="text/css">
	.st0{fill:none;stroke:#2572B8;stroke-width:2;stroke-linecap:round;stroke-linejoin:round;}
	
		.st1{fill-rule:evenodd;clip-rule:evenodd;fill:#99CCED;stroke:#2572B8;stroke-width:1.28;stroke-linecap:round;stroke-linejoin:round;}
	
		.st2{fill-rule:evenodd;clip-rule:evenodd;fill:#D9E6F5;stroke:#2572B8;stroke-width:1.28;stroke-linecap:round;stroke-linejoin:round;}
	
		.st3{fill-rule:evenodd;clip-rule:evenodd;fill:#FFFFFF;stroke:#2572B8;stroke-width:1.28;stroke-linecap:round;stroke-linejoin:round;}
	.st4{opacity:0.2;fill:#003D87;enable-background:new    ;}
</style>
<g id="Layer_2_1_">
	<g id="Layer_1-2">
		<path class="st0" d="M938.6,430.7c0.5-1,0.7-2.1,0.6-3.2c0-2.4,0-4.9,0-7.3c-0.1-1.5,1-2.8,2.5-2.9c0.1,0,0.2,0,0.4,0
			c7.4,0.1,14.8,0,22.2,0c1.9,0,2.8,0.9,2.8,2.9c0,7.1,0,14.2,0,21.3c0.1,1.5-1,2.8-2.5,2.9c-0.1,0-0.2,0-0.3,0
			c-7.4,0-14.8,0-22.2,0c-1.9,0-2.8-0.9-2.8-2.9c0-2.5,0-5,0-7.5c0.1-1.1-0.2-2.2-0.8-3.2"/>
		<path class="st0" d="M837.9,431c-0.5,1-0.7,2.1-0.7,3.2c0,2.4,0,4.9,0,7.3c0,1.9-0.9,2.8-2.7,2.8c-7.5,0-15,0-22.5,0
			c-1.3,0.2-2.5-0.8-2.7-2.1c0-0.2,0-0.4,0-0.6c0-7.2,0-14.4,0-21.6c0-1.8,1-2.7,2.9-2.7h22.2c1.9,0,2.8,1,2.9,2.9c0,2.5,0,5,0,7.5
			c-0.1,1.1,0.2,2.2,0.8,3.2"/>
		<path class="st0" d="M837.9,561.9c-0.5,1-0.7,2.1-0.7,3.2c0,2.4,0,4.9,0,7.3c0,1.9-0.9,2.8-2.7,2.8c-7.5,0-15,0-22.5,0
			c-1.3,0.2-2.5-0.8-2.7-2.1c0-0.2,0-0.4,0-0.6c0-7.2,0-14.4,0-21.6c0-1.8,1-2.7,2.9-2.7c7.4,0,14.8,0,22.2,0c1.9,0,2.9,0.9,2.9,2.9
			c0,2.4,0,4.9,0,7.3c0,1.1,0.2,2.2,0.7,3.2"/>
		<path class="st0" d="M956.4,548.2c2.6,0,5.3,0,7.9,0c1.9,0,2.9,0.9,2.9,2.8c0,7.1,0,14.2,0,21.3c0.1,1.5-1,2.8-2.5,2.9
			c-0.1,0-0.3,0-0.4,0c-7.4,0-14.8,0-22.2,0c-1.9,0-2.8-0.9-2.9-2.8c0-2.2,0-4.5,0-6.7c0-0.3,0-0.6,0-0.9c-0.7-2.3,0-4.6,0-6.8v-6.5
			c0-2.4,0.8-3.2,3.2-3.2h5.1"/>
		<path class="st0" d="M916.2,506.6c2.9,0,5.8,0,8.7,0c2.4,0,3.2,0.8,3.2,3.2V558c0,2.8,0.8,3.6,3.7,3.7h6.7"/>
		<path class="st0" d="M838.1,561.7c2.3,0,4.5,0,6.8,0c2.6,0,3.5-0.9,3.5-3.5v-48.3c0-2.6,0.8-3.3,3.3-3.3h8.6"/>
		<path class="st0" d="M938.3,430.9c-2.2,0-4.5,0-6.7,0c-2.6,0-3.5,0.9-3.5,3.5v48.3c0,2.6-0.8,3.3-3.3,3.3h-8.6"/>
		<path class="st0" d="M888.1,441.2c-1.1-0.8-2.4-0.9-3.7-1.2c-5-1.8-8.2-6.7-7.8-11.9c0.5-4.8,3.8-8.8,8.4-10.2
			c6.2-1.8,12.6,1.8,14.3,8c0.4,1.5,0.5,3,0.4,4.5c-0.6,5-3.7,8.6-9.2,10c-0.8,0.2-1.6,0.6-2.4,0.8"/>
		<path class="st0" d="M943.4,496.1c0.6-1,0.9-2.1,1.1-3.2c1.6-5.4,6.8-8.9,12.4-8.2c5.2,0.5,9.1,4.9,10.1,9.2
			c1.3,6.3-2.8,12.5-9.1,13.8c-0.2,0-0.3,0.1-0.5,0.1c-5.4,0.9-10.7-2.2-12.6-7.4c-0.3-1.4-0.8-2.8-1.4-4.1"/>
		<path class="st0" d="M833.2,496.5c-0.6,1-0.9,2.1-1.1,3.2c-1.6,5.4-6.8,8.9-12.4,8.2c-4.9-0.7-8.9-4.3-10-9.2
			c-1.3-6.3,2.7-12.5,9-13.8c0.2,0,0.4-0.1,0.5-0.1c5.4-0.9,10.7,2.2,12.5,7.4c0.5,1.4,0.6,2.9,1.4,4.1"/>
		<path class="st0" d="M888.4,551.3c1,0.6,2.1,0.9,3.2,1.1c5.4,1.6,8.9,6.8,8.2,12.4c-0.5,5.2-4.9,9.1-9.2,10.1
			c-6.3,1.3-12.5-2.8-13.8-9.1c0-0.2-0.1-0.3-0.1-0.5c-0.9-5.4,2.2-10.7,7.4-12.6c1.4-0.3,2.8-0.8,4.1-1.4"/>
		<path class="st0" d="M889.1,474.5c7.2,0,14.4,0.1,21.6,0c2.6-0.1,4.7,1.9,4.8,4.5c0,0.1,0,0.2,0,0.3c-0.2,2.1-0.4,4.4,0.5,6.5
			c0.3,0.7-0.6,1.8-0.5,2.8c0.2,2.5-0.5,5.1,0.7,7.5c0.1,0.2,0,0.4,0,0.5c-0.9,3.2-1,6.5-0.1,9.7c0,0.2,0.2,0.4,0.1,0.5
			c-1.1,2.2-0.7,4.6-0.5,6.8s-2.2,4.5-4.5,4.5c-6.3-0.1-12.6,0-18.9,0c-1.3,0-2.7,0.6-3.8,0.6c-1.2,0-2.5-0.6-3.8-0.6
			c-6.2,0-12.4-0.1-18.6,0c-2.6,0.1-4.7-1.9-4.8-4.5c0-0.1,0-0.2,0-0.3c0.1-2.2,0.4-4.4-0.5-6.5c-0.3-0.7,0.6-1.8,0.5-2.8
			c-0.2-2.5,0.5-5.1-0.7-7.5c-0.1-0.1-0.1-0.3,0-0.5c1.1-3.1,0.7-6.2,0.3-9.4c0-0.2-0.1-0.2,0-0.5c0.8-2,2.7-3.3,4.8-3.3
			c5.9,0,11.7-0.1,17.6,0c1.9,0,3.5-1.3,4-3.1c0.1-0.4,0.2-0.9,0.3-1.3c0.8-2.2,1.1-4.6,0.9-7c-0.2-10-0.1-20.1-0.1-30.2"/>
		<path class="st0" d="M838.3,430.9c2.2,0,4.5,0,6.7,0c2.6,0,3.5,0.9,3.5,3.5v22.9"/>
		<path class="st0" d="M888.3,519v32.2"/>
		<path class="st0" d="M848.4,466.4c0,5.4,0,10.9,0.1,16.4c0,2.4,0.8,3.1,3.2,3.2c2.8-0.1,5.5,0,8.3,0.1c0.2,0,0.4,0.1,0.6,0.2"/>
		<path class="st0" d="M916.4,496.3h26.8"/>
		<path class="st0" d="M860.2,496.3h-26.8"/>
		<path class="st1" d="M982,589.5c-3.1,5.9-4.1,22.5,1.7,31c17,24.8,86.3,56.8,116.2,35.5c4.9-3.4,8.5-8.4,10.2-14.1
			c2-7.4,0.3-14.8-1-20.1c-2,9.6-8.8,15.4-17.3,19.5c-51.3,16.4-56.7-16.6-97.1-32.3C986.8,603.2,983.4,599.8,982,589.5z"/>
		<path class="st2" d="M979.6,598.2c-2,26.9,31.6,16.2,45.8,35c16.3,21.3,57.4,28.6,77.4,11.7c5.2-4.1,8-10.6,7.1-17.2
			c-0.3-5.7-3.1-11.7-6.5-17.6c-9.2-14.6-24.8-31.1-46.2-40.7c-10.5-4.8-19.3-7.6-29.2-6.5C1010.5,564.9,981.4,578.5,979.6,598.2z"
			/>
		<path class="st1" d="M1042.1,598.6c-1,0-1.9-0.4-2.7-1c-11.3-10.3-24.9-17.6-39.7-21.4c-2.1-0.6-3.4-2.8-2.7-4.9c0,0,0,0,0-0.1
			c0.4-2.1,2.5-3.4,4.6-3c0.1,0,0.1,0,0.2,0c16,4.2,30.8,12.1,43.1,23.1c1.6,1.5,1.8,4,0.3,5.7
			C1044.4,598,1043.3,598.5,1042.1,598.6z"/>
		<path class="st3" d="M1031.2,590.7c-2,0.1-3.7-1.3-4.1-3.2c-0.4-2.3-3.1-4.9-6.6-6.6c-3.8-2-7.2-2.1-8.6-1.5c-2,1-4.5,0.1-5.4-2
			c-1-2-0.1-4.5,2-5.4l0,0c4.5-1.9,10.4-1.3,15.9,1.6c5.9,2.9,9.7,7.5,10.7,12.2c0.6,2-0.5,4.1-2.5,4.7c-0.2,0.1-0.4,0.1-0.6,0.1
			C1031.7,590.7,1031.5,590.7,1031.2,590.7z"/>
		<circle class="st4" cx="927.2" cy="581.5" r="4.4"/>
		<circle class="st4" cx="927.2" cy="595.6" r="4.4"/>
		<circle class="st4" cx="927.2" cy="609.8" r="4.4"/>
		<circle class="st4" cx="927.2" cy="624" r="4.4"/>
		<circle class="st4" cx="970.2" cy="624" r="4.4"/>
		<circle class="st4" cx="956" cy="624" r="4.4"/>
		<circle class="st4" cx="941.8" cy="624" r="4.4"/>
	</g>
</g>
</svg>
