<?xml version="1.0" encoding="utf-8"?>
<!-- Generator: Adobe Illustrator 25.0.0, SVG Export Plug-In . SVG Version: 6.00 Build 0)  -->
<svg version="1.1" id="Layer_1" xmlns="http://www.w3.org/2000/svg" xmlns:xlink="http://www.w3.org/1999/xlink" x="0px" y="0px"
	 viewBox="0 0 1920 1080" style="enable-background:new 0 0 1920 1080;" xml:space="preserve">
<style type="text/css">
	
		.st0{fill-rule:evenodd;clip-rule:evenodd;fill:#99CCED;stroke:#2572B8;stroke-width:0.75;stroke-linecap:round;stroke-linejoin:round;}
	
		.st1{fill-rule:evenodd;clip-rule:evenodd;fill:#D9E6F5;stroke:#2572B8;stroke-width:0.75;stroke-linecap:round;stroke-linejoin:round;}
	
		.st2{fill-rule:evenodd;clip-rule:evenodd;fill:#FFFFFF;stroke:#2572B8;stroke-width:0.75;stroke-linecap:round;stroke-linejoin:round;}
</style>
<g id="Layer_2_1_">
	<g id="Layer_1-2">
		<path class="st0" d="M959,576.7c0,6.1-0.4,9.6,3,15.1c8.9,12.8,29.3,17.5,43.8,17.7c14.7,0.2,34.5-3.9,44.4-15.6
			c2.9-3.2,4.6-7.3,4.9-11.6v-5.7c-0.4,5.1-2.4,9-5.8,12.8c-11.1,11.7-32.3,15.3-47.8,14.2c-13.3-0.9-31.3-5.8-39.4-17.5
			C960.2,583.2,959.2,580,959,576.7z"/>
		<path class="st0" d="M1031.1,600c23-7.7,30.9-24.7,17.6-37.9c-13.3-13.3-42.8-17.8-65.7-10.1c-23,7.6-31.1,24.6-17.8,37.9
			C978.6,603.2,1008,607.7,1031.1,600z"/>
		<polygon class="st0" points="1034.1,585.4 1040.5,581.6 1040.5,563.9 1034.1,567.6 		"/>
		<polygon class="st1" points="1034.1,567.6 991.1,542.8 991.1,560.5 1034.1,585.4 		"/>
		<path class="st1" d="M1095.1,603.3l6.1-3.5c2.8-2.4,3-3.8,3.4-7.5V479.8c-0.8-8.4-4.4-15.1-11.7-20.1l-160.9-92.9
			c-3.4-1.5-4.8-2.1-8.3-0.8l-6,3.5c3.4-1.3,4.8-0.7,8.1,0.8l161,92.9c7.3,4.9,10.9,11.4,11.7,20v112.5
			C1098.1,599.4,1097.9,600.9,1095.1,603.3z"/>
		<path class="st1" d="M1086.8,463.3l-161.1-92.9c-6.2-3.7-11.5-0.7-11.5,6.7v112.4c0,7.4,5.3,16.4,11.7,20.1l161.1,92.9
			c6.2,3.7,11.5,0.7,11.5-6.7V483.3C1098.5,476,1093.2,467,1086.8,463.3z"/>
		<path class="st0" d="M1094.4,471.1l6-3.5c2.4,3.7,3.8,7.9,4,12.3v112.4c-0.4,3.6-0.6,5.1-3.4,7.5l-5.9,3.5c2.8-2.4,3-3.9,3.4-7.5
			V483.3C1098.3,479,1096.9,474.7,1094.4,471.1z"/>
		<path class="st0" d="M815.7,596.8v7.3c0.6,2.2,2,3.4,4,4.6l134.9,77.9c6.3,3.2,13.7,3.2,20,0l46-26.8c2-1.1,3.4-2.4,4-4.6V648
			c-0.6,2.2-2,3.5-4,4.6l-46,26.8c-6.3,3.2-13.7,3.2-20,0l-134.8-77.9C817.7,600.3,816.3,599,815.7,596.8z"/>
		<path class="st1" d="M1020.6,641l-134.6-77.9c-5.7-3.2-14.5-3.1-20.2,0l-46,26.8c-5.6,3.2-5.6,8.4,0,11.6l134.9,77.8
			c5.5,3.2,14.3,3.2,20,0l46-26.8C1026.2,649.4,1026.2,644.2,1020.6,641z"/>
		<path class="st2" d="M957,635.8l-6.7-3.9c-1.6-0.8-3.5-0.8-5,0l-6.7,3.9c-1.4,0.8-1.4,2.1,0,2.8l6.7,3.9c1.6,0.8,3.5,0.8,5,0
			l6.7-3.9C958.4,637.8,958.4,636.6,957,635.8z"/>
		<path class="st2" d="M983.4,651.1l6.9,3.9c0.8,0.4,1.1,1.3,0.8,2.1c-0.2,0.3-0.4,0.6-0.8,0.8l-6.9,3.9c-1.5,0.8-3.3,0.8-4.8,0
			l-6.7-3.9c-1.4-0.8-1.4-2,0-2.9l6.7-3.9C980.1,650.3,981.9,650.3,983.4,651.1z"/>
		<path class="st2" d="M966.9,660.7l6.9,3.9c0.8,0.4,1.1,1.3,0.8,2.1c-0.2,0.3-0.4,0.6-0.8,0.8l-6.9,3.9c-1.5,0.8-3.3,0.8-4.8,0
			l-6.9-3.9c-0.8-0.4-1.1-1.3-0.8-2.1c0.2-0.3,0.4-0.6,0.8-0.8l6.9-3.9C963.5,659.9,965.3,659.9,966.9,660.7z"/>
		<path class="st2" d="M978.6,642.5l-6.7-3.9c-1.4-0.8-1.4-2.1,0-2.8l6.7-3.9c1.5-0.8,3.3-0.8,4.8,0l6.9,3.9
			c0.8,0.4,1.1,1.3,0.8,2.1c-0.2,0.3-0.4,0.6-0.8,0.8l-6.9,3.9C981.9,643.3,980.1,643.3,978.6,642.5z"/>
		<path class="st2" d="M961.8,633l-6.6-4c-1.4-0.8-1.4-2.1,0-2.9l6.6-3.9c1.6-0.8,3.5-0.8,5,0l6.9,3.9c0.8,0.4,1.1,1.3,0.8,2.1
			c-0.2,0.3-0.4,0.6-0.8,0.8l-6.9,4C965.3,633.7,963.4,633.7,961.8,633z"/>
		<path class="st2" d="M988.5,648.2l6.7,3.9c1.6,0.8,3.4,0.8,5,0l6.7-3.9c1.4-0.8,1.4-2.1,0-2.9l-6.7-3.9c-1.6-0.8-3.4-0.8-5,0
			l-6.7,3.9C987.1,646.1,987.1,647.4,988.5,648.2z"/>
		<path class="st2" d="M973.7,645.4l-6.9-3.9c-1.6-0.8-3.5-0.8-5,0l-6.6,3.9c-1.4,0.8-1.4,2.1,0,2.8l6.6,3.9c1.6,0.8,3.5,0.8,5,0
			l6.9-3.9c0.8-0.4,1.1-1.3,0.8-2.1C974.3,645.8,974.1,645.5,973.7,645.4z"/>
		<path class="st2" d="M923.7,616.6l-6.7-3.9c-1.6-0.8-3.4-0.8-5,0l-6.7,3.9c-1.4,0.8-1.4,2.1,0,2.9l6.9,3.9c1.5,0.8,3.3,0.8,4.8,0
			l6.7-3.9C925.1,618.6,925.1,617.3,923.7,616.6z"/>
		<path class="st2" d="M907.1,626.2l-6.7-3.9c-1.6-0.8-3.4-0.8-5,0l-6.7,3.9c-1.4,0.8-1.4,2,0,2.8l6.6,4c1.6,0.8,3.4,0.8,5,0
			l6.7-3.9C908.5,628.2,908.5,627,907.1,626.2z"/>
		<path class="st2" d="M945.3,623.3l-6.7-3.9c-1.4-0.8-1.4-2.1,0-2.9l6.7-3.9c1.5-0.8,3.3-0.8,4.8,0l6.9,3.9c1.4,0.8,1.4,2.1,0,2.9
			l-6.7,3.9C948.7,624.1,946.9,624.1,945.3,623.3z"/>
		<path class="st2" d="M928.7,613.7l-6.9-3.9c-0.8-0.4-1.1-1.3-0.8-2.1c0.2-0.3,0.4-0.6,0.8-0.8l6.9-3.9c1.5-0.8,3.3-0.8,4.8,0
			l6.9,3.9c0.8,0.4,1.1,1.3,0.8,2.1c-0.2,0.3-0.4,0.6-0.8,0.8l-6.9,3.9C932,614.5,930.2,614.5,928.7,613.7z"/>
		<path class="st2" d="M940.4,626.2l-6.9-3.9c-1.5-0.8-3.3-0.8-4.8,0l-6.9,3.9c-0.8,0.4-1.1,1.3-0.8,2.1c0.2,0.3,0.4,0.6,0.8,0.8
			l6.9,3.9c1.5,0.8,3.3,0.8,4.8,0l6.9-3.9C941.8,628.2,941.8,627,940.4,626.2z"/>
		<path class="st2" d="M957,655l-40-23.1c-1.5-0.8-3.3-0.8-4.8,0l-6.9,3.9c-1.4,0.8-1.4,2.1,0,2.9l40,23.1c1.6,0.8,3.5,0.8,5,0
			l6.7-3.9C958.4,657,958.4,655.8,957,655z"/>
		<path class="st2" d="M868.5,584.6l-6.9-3.9c-1.5-0.8-3.3-0.8-4.9,0l-6.9,3.9c-1.4,0.8-1.4,2.1,0,2.8l6.9,3.9
			c1.5,0.8,3.3,0.8,4.9,0l6.9-3.9c0.8-0.4,1.1-1.3,0.8-2.1C869.2,585,868.9,584.8,868.5,584.6z"/>
		<path class="st2" d="M851.8,594.2l-6.7-3.9c-1.6-0.8-3.5-0.8-5.1,0l-6.7,3.9c-1.4,0.8-1.4,2,0,2.8l6.7,3.9c1.6,0.8,3.5,0.8,5.1,0
			l6.7-3.9C853.2,596.3,853.2,595,851.8,594.2z"/>
		<path class="st2" d="M873.4,581.8l-6.7-3.9c-1.4-0.8-1.4-2.1,0-2.8l6.7-3.9c1.5-0.8,3.3-0.8,4.8,0l6.8,3.9c1.4,0.8,1.4,2.1,0,2.9
			l-6.9,3.9C876.7,582.5,874.9,582.5,873.4,581.8z"/>
		<path class="st2" d="M885.1,594.2l-6.9-3.9c-1.5-0.8-3.3-0.8-4.8,0l-6.7,3.9c-1.4,0.8-1.4,2.1,0,2.9l6.7,3.9
			c1.5,0.8,3.3,0.8,4.8,0l6.8-3.9C886.5,596.3,886.5,595,885.1,594.2z"/>
		<path class="st2" d="M868.5,603.8l-6.9-3.9c-1.5-0.8-3.3-0.8-4.9,0l-6.9,3.9c-1.4,0.8-1.4,2.1,0,2.9l6.9,3.9
			c1.5,0.8,3.3,0.8,4.9,0l6.9-3.9c0.8-0.3,1.2-1.3,0.8-2C869.2,604.3,868.9,604,868.5,603.8z"/>
		<path class="st2" d="M906.7,601l-6.9-3.9c-0.8-0.4-1.1-1.3-0.8-2.1c0.2-0.3,0.4-0.6,0.8-0.8l6.9-3.9c1.5-0.8,3.3-0.8,4.8,0
			l6.9,3.9c0.8,0.4,1.1,1.3,0.8,2.1c-0.2,0.3-0.4,0.6-0.8,0.8l-6.9,3.9C910,601.8,908.2,601.8,906.7,601z"/>
		<path class="st2" d="M890.2,591.4l-6.9-3.9c-1.4-0.8-1.4-2.1,0-2.9l6.7-3.9c1.6-0.8,3.4-0.8,5,0l6.7,3.9c1.4,0.8,1.4,2.1,0,2.9
			l-6.7,3.9C893.4,592.1,891.7,592.1,890.2,591.4z"/>
		<path class="st2" d="M901.7,603.8L895,600c-1.5-0.8-3.3-0.8-4.8,0l-6.9,3.9c-1.4,0.8-1.4,2.1,0,2.8l6.9,3.9c1.5,0.8,3.3,0.8,4.8,0
			l6.7-3.9C903.1,605.9,903.1,604.6,901.7,603.8z"/>
		<path class="st2" d="M885.1,613.4l-6.9-3.9c-1.5-0.8-3.3-0.8-4.8,0l-6.7,3.9c-1.4,0.8-1.4,2.1,0,2.9l6.7,3.9
			c1.5,0.8,3.3,0.8,4.8,0l6.9-3.9C886.5,615.5,886.5,614.2,885.1,613.4z"/>
		<path class="st2" d="M1086,472.1l-159.3-92c-3-1.7-5.2-0.3-5.2,3v108.3c0.1,3.7,2.1,7.1,5.2,9l159.5,92c2.8,1.6,5,0.3,5-3V481.1
			C1091,477.5,1089,474.1,1086,472.1z"/>
		<path class="st0" d="M1071,671.7c1.8,3.5,2.4,13.2-1,18.2c-9.9,14.5-50.4,33.2-67.9,20.7c-2.9-2-5-4.9-6-8.2
			c-1.2-4.3-0.2-8.7,0.6-11.7c1.2,5.6,5.2,9,10.1,11.4c30,9.6,33.2-9.7,56.8-18.9C1068.2,679.7,1070.2,677.7,1071,671.7z"/>
		<path class="st1" d="M1072.4,676.8c1.2,15.7-18.5,9.5-26.8,20.5c-9.5,12.4-33.5,16.7-45.3,6.8c-3.1-2.4-4.7-6.2-4.2-10.1
			c0.2-3.4,1.8-6.8,3.8-10.3c6.5-10.4,15.9-18.6,27-23.8c6.2-2.8,11.3-4.4,17.1-3.8C1054.3,657.3,1071.4,665.3,1072.4,676.8z"/>
		<path class="st0" d="M1035.9,677c0.6,0,1.1-0.2,1.6-0.6c6.6-6,14.6-10.3,23.2-12.5c1.2-0.3,1.9-1.6,1.6-2.9c0,0,0,0,0,0
			c-0.3-1.2-1.4-2-2.7-1.7c0,0-0.1,0-0.1,0c-9.4,2.4-18,7.1-25.2,13.5c-0.9,0.9-1,2.4-0.2,3.3C1034.5,676.7,1035.2,677,1035.9,677z"
			/>
		<path class="st2" d="M1042.2,672.4c1.2,0,2.2-0.8,2.4-1.9c0.2-1.3,1.8-2.9,3.8-3.9c2.2-1.2,4.2-1.2,5-0.9c1.1,0.7,2.6,0.3,3.3-0.9
			c0.7-1.1,0.3-2.6-0.9-3.3c-0.1-0.1-0.3-0.1-0.4-0.2c-2.6-1.1-6.1-0.7-9.3,1c-3.4,1.7-5.6,4.4-6.2,7.1c-0.4,1.1,0.3,2.4,1.4,2.7
			c0.1,0,0.3,0.1,0.4,0.1C1041.9,672.4,1042.1,672.4,1042.2,672.4z"/>
		<polygon class="st2" points="1066.2,486.2 946.5,417.1 946.5,499.6 1066.2,568.7 		"/>
		<polygon class="st1" points="1066.2,486.2 946.5,417.1 946.5,405.2 1066.2,474.3 		"/>
	</g>
</g>
</svg>
