<?xml version="1.0" encoding="UTF-8"?><svg id="Layer_1" xmlns="http://www.w3.org/2000/svg" xmlns:xlink="http://www.w3.org/1999/xlink" viewBox="0 0 143.75 143.75"><defs><style>.cls-1{fill:#0072c8;}.cls-2{fill:#f6ae2d;}.cls-3{fill:none;}.cls-4{fill:#f4f6f9;}</style><clipPath id="clippath"><rect class="cls-3" x="-180.1" y="204.07" width="1918.38" height="691.98"/></clipPath></defs><circle class="cls-1" cx="71.88" cy="71.88" r="71.88"/><g><path class="cls-4" d="M85.54,27.99c-11.22-.02-22.43-.02-33.65,0-4.91,0-8.19,3.29-8.19,8.21,0,23.76,0,47.53,0,71.29,0,4.95,3.31,8.27,8.28,8.28,11.22,0,22.43,.02,33.65,0,4.9,0,8.17-3.32,8.18-8.22,0-6.16,0-12.31,0-18.48v-1.54h-3.1v6.27H46.83V43.66h43.84v4.85l3.13,2.5v-1.61c0-4.35,0-8.71,0-13.06,0-5.1-3.19-8.33-8.27-8.34Zm5.23,69.01v4.27c0,2.15,.02,4.31,0,6.46-.03,2.9-1.98,4.94-4.84,4.95-11.42,.02-22.83,.02-34.23,0-2.68,0-4.75-1.69-4.87-4.27-.18-3.75-.05-7.51-.05-11.4h43.99Zm0-56.47h-1.37c-13.76,0-27.52-.02-41.27,.02-1.15,0-1.51-.32-1.42-1.44,.09-1.05,0-2.11,.03-3.17,.06-2.87,2.06-4.89,4.92-4.89,11.37-.02,22.73-.02,34.1,0,3.04,0,4.98,1.97,5.01,5.01,0,1.43,0,2.88,0,4.48Z"/><path class="cls-4" d="M68.81,100.15c2.54,.02,4.65,2.15,4.63,4.68-.02,2.56-2.11,4.64-4.66,4.65-2.62,0-4.69-2.09-4.66-4.73,.03-2.56,2.12-4.61,4.69-4.59Zm1.55,4.67c0-.88-.77-1.65-1.65-1.62-.82,.02-1.54,.78-1.54,1.61,0,.83,.72,1.59,1.53,1.62,.88,.03,1.65-.72,1.66-1.61Z"/><path class="cls-4" d="M68.84,34.25c.51,0,1.02-.04,1.53,0,.9,.09,1.47,.6,1.47,1.52,0,.92-.56,1.45-1.48,1.48-1.06,.04-2.12,.04-3.17,0-.87-.03-1.41-.51-1.46-1.38-.06-.93,.45-1.49,1.36-1.6,.58-.07,1.17-.01,1.76-.01h0Z"/></g><path class="cls-2" d="M116.78,49.96c-1.36,0-2.71,0-4.07,0-.04-.48-.07-.75-.08-1.03-.05-1.73-.42-2.09-2.19-2.11-.94,0-1.89,.03-2.83-.02-4.96-.23-9.62,.59-13.81,4.22l-3.13-2.5c-1.62-.47-3.23-1.22-4.89-1.37-3.07-.28-6.18-.25-9.27-.28-.87,0-1.33,.59-1.41,1.44-.04,.51-.06,1.01-.1,1.66-1.46,0-2.86-.02-4.26,0-1.44,.02-1.92,.47-1.92,1.9,0,11.22,0,22.43,0,33.65,0,1.54,.5,2.02,2.07,2.02,6.11,0,12.24,0,18.35,0h4.56s1.51,0,1.51,0c7.1,0,14.19,0,21.29,0,1.91,0,2.33-.42,2.33-2.36V52.11c0-1.72-.43-2.15-2.15-2.15Zm-44.86,34.44v-31.3h3.17v1.45c-.02,8-.03,15.99-.04,24,0,2.37,.31,2.65,2.72,2.69,2.51,.04,5.03,0,7.51,.26,2.25,.23,4.25,1.26,6.3,2.9h-19.66Zm20.43-4.17c0,.2-.04,.39-.08,.86-4.27-3.06-9.09-3.07-14.06-2.89v-28.23c4.77-.33,9.39-.33,13.27,2.99,.42,.36,.83,1,.83,1.52,.06,8.59,.04,17.17,.04,25.75Zm3.06-.51c0-8.31,.02-16.63-.02-24.94,0-.89,.29-1.43,.98-1.96,2.48-1.88,5.25-2.92,8.38-2.94,1.57,0,3.12,0,4.79,0v28.18c-2.49,.11-4.95-.02-7.3,.42-2.3,.42-4.5,1.42-6.78,2.18,0-.18-.05-.55-.05-.92Zm20.42,4.63h-19.47c.24-.23,.42-.44,.64-.59,2.31-1.63,4.88-2.47,7.7-2.52,1.88-.03,3.76,0,5.64,0,1.92,0,2.32-.4,2.32-2.36,0-8.11-.02-16.22-.02-24.34v-1.47h3.18v31.29Z"/></svg>