<?xml version="1.0" encoding="UTF-8"?><svg xmlns="http://www.w3.org/2000/svg" xmlns:xlink="http://www.w3.org/1999/xlink" viewBox="0 0 1918.38 691.98"><defs><style>.cls-1{fill:#fff;}.cls-2,.cls-3,.cls-4{fill:#3aa1ff;}.cls-2,.cls-5{opacity:.4;}.cls-6{fill:#0072c8;}.cls-7{clip-path:url(#clippath-2);}.cls-8{isolation:isolate;}.cls-9,.cls-5{mix-blend-mode:soft-light;}.cls-10{clip-path:url(#clippath-1);}.cls-11{opacity:.11;}.cls-12{mix-blend-mode:screen;}.cls-13{fill:#003d87;}.cls-14{clip-path:url(#clippath);}.cls-15{fill:none;}.cls-16{fill:#e5e6eb;}.cls-4{opacity:.71;}.cls-17{fill:#050f64;}.cls-18{fill:#f5ad2a;}</style><clipPath id="clippath"><rect class="cls-15" x="-1991.57" y="156.79" width="1918.38" height="691.98"/></clipPath><clipPath id="clippath-1"><rect class="cls-15" width="1918.38" height="691.98"/></clipPath><clipPath id="clippath-2"><rect class="cls-15" x="1938.38" width="1919.13" height="490.79"/></clipPath></defs><g class="cls-8"><g id="Layer_1"><g class="cls-14"><g class="cls-5"><polygon class="cls-4" points="158.33 474.98 107.49 447.07 107.49 368.74 -29.88 368.74 -29.88 284.53 -206.5 284.53 -206.5 497.99 -247.54 497.99 -247.54 547.93 -279.65 547.93 -279.65 667.4 -317.11 667.4 -317.11 502.89 -409.88 502.89 -409.88 454.91 -462.51 454.91 -462.51 531.78 -511.57 558.71 -511.57 713.42 -627.53 713.42 -627.53 373.63 -752.41 373.63 -752.41 437.28 -850.54 437.28 -877.3 451.97 -877.3 487.22 -1000.39 487.22 -1023.59 499.95 -1023.59 619.42 -1075.32 619.42 -1075.32 435.32 -1171.66 435.32 -1171.66 467.64 -1324.2 467.64 -1324.2 545.49 -1351.85 560.66 -1351.85 637.13 -1397.84 637.13 -1397.84 448.42 -1460.28 434.71 -1460.28 383.79 -1627.98 383.79 -1627.98 599.22 -1654.74 599.22 -1654.74 326.02 -1690.42 327 -1795.67 356.38 -1795.67 624.68 -1840.28 624.68 -1840.28 447.44 -1867.04 412.19 -1867.04 398.48 -1929.48 398.48 -1929.48 412.19 -1963.37 412.19 -1990.13 443.53 -2015.11 443.53 -2015.11 312.31 -2079.33 312.31 -2079.33 359.8 -2171.21 359.8 -2223.84 388.69 -2223.84 1058.44 -1508.22 1058.44 -1397.84 1058.44 -1085.46 1058.44 -1085.46 1057.9 158.33 1057.09 158.33 474.98"/></g></g><g><g class="cls-10"><g class="cls-5"><polygon class="cls-4" points="2149.9 318.2 2099.05 290.29 2099.05 211.95 1961.68 211.95 1961.68 127.74 1785.06 127.74 1785.06 341.21 1744.03 341.21 1744.03 391.15 1711.92 391.15 1711.92 510.61 1674.45 510.61 1674.45 346.1 1581.69 346.1 1581.69 298.12 1529.06 298.12 1529.06 374.99 1480 401.92 1480 556.63 1364.04 556.63 1364.04 216.85 1239.15 216.85 1239.15 280.5 1141.03 280.5 1114.27 295.18 1114.27 330.44 991.17 330.44 967.98 343.17 967.98 462.63 916.24 462.63 916.24 278.54 819.91 278.54 819.91 310.85 667.37 310.85 667.37 388.7 639.72 403.88 639.72 480.34 593.73 480.34 593.73 291.64 531.29 277.93 531.29 227.01 363.59 227.01 363.59 442.43 336.83 442.43 336.83 169.23 301.15 170.21 195.89 199.59 195.89 467.89 151.29 467.89 151.29 290.66 124.53 255.4 124.53 241.7 62.09 241.7 62.09 255.4 28.19 255.4 1.43 286.74 -23.54 286.74 -23.54 155.52 -87.77 155.52 -87.77 203.02 -179.64 203.02 -232.27 231.9 -232.27 901.65 483.35 901.65 593.73 901.65 906.11 901.65 906.11 901.11 2149.9 900.3 2149.9 318.2"/><polygon class="cls-6" points="1758.33 347.2 1733.05 374.98 1733.05 460.19 1706.08 460.19 1706.08 226.79 1585.59 226.79 1585.59 770.48 1549.35 730.65 1549.35 417.59 1281.39 417.59 1281.39 497.24 1139.83 497.24 1139.83 747.33 1139.83 857.44 1015.47 857.44 1015.47 532.23 979.5 532.23 979.5 405.7 905.76 405.7 905.76 615.26 871.58 615.26 871.58 654.8 828.42 579.67 752.88 579.67 752.88 308.83 607.19 308.83 594.6 322.67 594.6 405.7 594.6 498.62 553.24 498.62 553.24 251.5 429.14 251.5 429.14 293.01 404.86 319.7 404.86 740.8 376.98 740.8 376.98 402.74 360.79 402.74 360.79 370.12 217.81 370.12 193.53 396.8 193.53 434.37 58.63 434.37 51.44 913.77 501.08 913.77 501.08 912.78 957.91 912.78 957.91 913.77 1139.83 913.77 1402.16 913.77 1866.19 913.77 1866.19 347.2 1758.33 347.2"/><polygon class="cls-13" points="1835.23 382.06 1835.23 719.87 1791.63 719.87 1791.63 585.43 1729.87 533.05 1729.87 329.67 1651.75 329.67 1606.34 291.16 1548.21 291.16 1548.21 496.07 1408.33 496.07 1408.33 728.71 1372 728.71 1372 403.63 1270.27 448.31 1270.27 642.43 1243.02 642.43 1243.02 343.54 1208.51 343.54 1208.51 255.72 1199.72 255.72 1199.72 235.69 1122.49 235.69 1122.49 252.64 1074.08 252.64 1074.08 320.43 994.15 320.43 974.17 343.54 974.17 620.86 906.04 620.86 906.04 564.63 863.35 528.42 863.35 395.92 714.39 395.92 714.39 505.31 659.9 505.31 659.9 597.75 594.5 659.38 552.72 659.38 552.72 366.65 436.46 298.86 436.46 570.02 409.21 570.02 409.21 383.6 271.15 383.6 271.15 448.31 207.57 448.31 207.57 757.99 180.32 757.99 180.32 623.95 87.67 623.95 87.67 582.35 71.32 562.32 -28.59 562.32 -35.86 1103.1 1688.36 1103.1 1791.63 1103.1 1835.23 1103.1 1953.48 1103.1 1953.48 382.06 1835.23 382.06"/><rect class="cls-2" x="1536.81" y="154.6" width="11.75" height="23.5"/></g><g><g class="cls-11"><g class="cls-8"><g class="cls-8"><g><g><path class="cls-13" d="M463.08,420.9c-3.54,.23-7.24,.46-11.4,.67q-1.23-.44-2.07-1.46c-.41-.59-42.34-59.58-51.39-60.51-1.2,.04-2.41,.08-3.63,.11-2.01,.06-4.03,.12-6.07,.18-6.01,.96-6.35,8.73-2.06,13.48q15.19,15.46,15.7,17.88c.34,2.5,.65,5,.95,7.52,.44,2.75,1.24,4.36,3.03,6.16q5.28,4.82,5.73,7.32c.56,5.93,1,11.89,1.34,17.87-.07,2.96-1.21,4.59-3.48,4.96-1.7,.06-3.42,.11-5.16,.16-1.35-.12-1.69-.28-2.78-1.33q-25.11-28.87-25.28-29.89c-.62-6.93-1.35-13.81-2.22-20.65-1.02-4.82-3.5-7.36-7.58-7.77-3.4,.07-6.82,.13-10.27,.18-1.58-.18-2.01-.4-3.27-1.67q-9.33-11.39-12.7-11.57c-2.04,.02-4.08,.05-6.13,.07-2.45-.26-3.93-1.76-4.5-4.58-.01-.11-.03-.22-.04-.32-.09-2.81,1.01-4.32,3.36-4.63,9.83-.1,19.51-.24,28.99-.42,2.18-.32,3.36-.91,4.62-3.54,1.16-2.43-.44-5.1,.66-7.54q8.18-13.92,9.39-14.19c3.33-.09,6.62-.18,9.89-.28,20.76-.64,38.66-1.47,53.6-2.45-.39-1-.79-2-1.19-2.99-14.85,.98-32.64,1.8-53.27,2.43-3.24,.1-6.52,.19-9.82,.28-1.98,.3-2.42,.58-3.6,2.26q-8.31,15.39-8.07,17.45c.23,1.96,.57,4.92-2.76,5.41-9.44,.18-19.07,.32-28.85,.42-2.52,.32-5.84,1.48-5.66,7.81,.01,.11,.02,.22,.04,.32,.41,2.63,1.94,7.14,7.58,7.74,2.06-.02,4.11-.04,6.16-.07,1.57,.18,2,.4,3.27,1.67q9.37,11.45,12.68,11.61c3.46-.06,6.89-.12,10.31-.18,2.42,.24,3.89,1.75,4.49,4.61,.84,6.84,1.57,13.72,2.17,20.65,.31,2.45,.92,3.87,2.43,5.64q26.38,28.64,28.48,28.84c1.74-.05,3.46-.11,5.16-.16,3.84-.63,5.76-3.37,5.87-8.37-.34-5.98-.79-11.94-1.36-17.87-.38-2.76-1.14-4.37-2.91-6.17q-5.3-4.84-5.81-7.3c-.3-2.51-.63-5.02-.97-7.52-.42-2.41-1.08-3.82-2.61-5.56q-14.98-15.6-15.24-16.03c-.78-1.36-1.58-5.9,2.28-6.51,2.04-.06,4.08-.12,6.1-.18,1.23-.04,2.44-.08,3.65-.11,1.36,.14,1.75,.33,2.96,1.46,18.03,20.07,32.39,37.81,42.67,52.72q5.27,7.65,7.78,7.93c3.85-.22,7.55-.44,11.1-.68-.09-1.1-.19-2.21-.3-3.31Z"/><path class="cls-13" d="M479.56,419.67c-4.53,.38-9.4,.75-14.61,1.1,.1,1.1,.2,2.2,.3,3.31,5.21-.35,10.09-.72,14.63-1.11-.1-1.1-.21-2.2-.32-3.31Z"/><path class="cls-13" d="M487.28,328c-2.43,.46-5.24,.91-8.57,1.35-.4-.12-.62-.19-1.29-.89-8.47-9.24-8.5-9.24-9.86-9.23-7.38,.84-16.32,1.63-26.77,2.33,.4,.99,.8,1.99,1.2,2.99,10.51-.71,19.51-1.5,27.09-2.35,.44,.12,.68,.19,1.39,.89q8.74,9.2,9.66,9.3c3.21-.44,6.03-.89,8.48-1.36-.44-1.01-.89-2.02-1.34-3.03Z"/><path class="cls-13" d="M509.62,349.59l-.46-1.28-.68-1.85c.12,.33,.09,.66-.13,1-.12-.15-.18-.24-.59-1.15-6.04-13.2-10.48-20.56-11.35-20.8-1.77,.8-4.56,1.59-8.36,2.34,.45,1.01,.9,2.01,1.34,3.03,3.82-.76,6.63-1.54,8.41-2.35,.18,.05,.31,.09,.94,1.13,3.9,6.8,5.95,10.46,9.95,19.46,.51,1.14,.6,1.24,.81,1.46,.19-.33,.23-.65,.11-.98Z"/></g><path class="cls-13" d="M496.1,520.22c1.34-6.77,2.08-10.5-9.53-31.82-1.04-2.2-1.36-4.37-1.18-7.99,.34-4.43,.59-8.87,.76-13.34-.12-8.31-2.19-12.6-6.33-13.1-1.87,.15-3.79,.31-5.76,.45-3.28-.18-3.57-1.06-7.05-11.8-.55-1.92-.65-2.48-.81-4.61-.22-4.66-.53-9.3-.93-13.93-.09-1.1-.19-2.21-.3-3.31-.46-4.87-1.02-9.73-1.68-14.56-.62,.04-1.24,.08-1.87,.12,.65,4.83,1.21,9.69,1.67,14.56,.1,1.1,.2,2.2,.3,3.31,.39,4.63,.7,9.27,.92,13.93q.19,2.95,3.13,12.62c1.73,4.94,3.53,6.83,6.63,7.01,1.98-.15,3.9-.3,5.76-.45,3.12,.38,4.68,3.62,4.77,9.9-.16,4.47-.41,8.92-.75,13.34-.19,3.76,.05,6.63,.72,8.53,2.85,8.14,7.65,15.41,10.52,23.55,.59,2.15,.56,4.25-.13,7.75-1.28,5.79-2.73,11.54-4.35,17.23-1.98,7.85-1.82,11.69,.52,12.09,.28-.04,.56-.08,.84-.13,.35-1.03,.7-2.07,1.03-3.1-.28,.04-.56,.08-.84,.13-1.12-.63-2.38-1.34-.4-9.14,1.62-5.69,3.08-11.44,4.37-17.23Z"/><path class="cls-13" d="M515.46,502.15c-1.54,.43-3.37,.86-5.47,1.28-1.35,.74-2.55,3.47-3.66,8.36-3.87,19.06-9.6,37.61-17.17,55.53-1.38,3.27-2.82,6.51-4.31,9.71-.98,2.05-1.13,2.37-5.73,8.36-.62,.76-.76,.9-1.26,1.28-1.22,.27-2.18,.42-3.17,.56-.12-.08-.28-.18-.4-.25q-.06-2.63,10.27-16.86c1.21-1.77,1.91-3.07,2.88-5.38,1.45-3.59,2.84-7.21,4.15-10.86-.32,.05-.65,.1-.98,.15-1.3,3.64-2.68,7.26-4.13,10.86-.95,2.27-1.1,2.62-9.09,13.19-1.55,2.08-2.82,4.33-3.78,6.67-1.31,3.19-1.12,4.41-1.04,4.93,.2,.13,.47,.3,.67,.42,.99-.14,1.94-.29,2.85-.43,1.25-.51,1.7-.97,6.54-7.55,1.22-1.71,1.98-3.03,3.05-5.24,1.5-3.2,2.94-6.44,4.32-9.71,7.59-17.92,13.34-36.48,17.22-55.54,.88-3.87,1.57-4.45,2.18-4.97,2.1-.42,3.93-.84,5.46-1.27,1.04,1.38-1.27,18.15-3.63,28.48-.26,1.07-.35,1.4-.76,2.7-.21,.67-.43,1.34-.65,2.01-1.27,3.74-1.73,4.35-2.1,4.83-.24,.1-.5,.21-.78,.31-.36,1.04-.72,2.08-1.09,3.11,.28-.1,.54-.21,.78-.31,.63-.82,1.41-1.85,3.54-8.12,.22-.67,.44-1.34,.65-2.01,.16-.51,3.91-12.61,5.19-31.37,.11-2.33-.11-2.51-.56-2.87Z"/><g><path class="cls-13" d="M504.44,552.99c-.4,1.03-.8,2.05-1.21,3.07,.78-.35,1.38-.71,1.78-1.07,.3-.42,.88-1.73,2-4.54,2.01-5.14,2.26-5.88,4.69-12.93,.42-1.29,.92-2.84,1.39-4.35-3.76,11.81-6.66,18.39-6.87,18.74-.41,.36-1,.72-1.79,1.07Z"/><path class="cls-13" d="M513.1,533.17c.26-.81,.52-1.64,.78-2.49-.24,.78-.51,1.62-.78,2.49Z"/><path class="cls-13" d="M514.02,530.23c-.05,.15-.09,.29-.14,.44,.04-.13,.08-.26,.12-.38l.02-.06Z"/></g><path class="cls-13" d="M431.46,612.67c-.8-1.04-1.12-1.19-2.63-1.25-3.1,.21-6.33,.41-9.7,.6-1.73,.34-3.26,1.71-4.69,4.19-2.54,4.95-5.19,9.78-7.96,14.49,.56-.03,1.12-.06,1.67-.09,2.8-4.71,5.48-9.55,8.04-14.49,.43-.67,.57-.84,1.18-1.27,3.74-.32,6.95-.52,10.02-.72,4.54,.19,8.07,18.05,8.1,18.23-.13,2.61-.35,6.97-28.06,31.06-3.66,3.07-5.96,4.48-7.93,4.88-4.63,.4-9.79,.77-15.47,1.12-4.06,.62-7.67,3.47-13.13,7.77-3.41,2.54-5.62,3.65-7.86,3.95-2.57,.13-5.24,.25-7.99,.37q-2.21-.11,.96-11.19c.42-1.33,.88-2.24,1.92-3.76,1.01-1.44,2.02-2.9,3.01-4.38,2.53-3.77,4.99-7.66,7.36-11.64q1.96-3.12,9.44-9.47c1.52-1.29,9.63-8.23,19.78-17.7,2.75-2.43,4.55-3.39,6.9-3.68,2.3-.11,4.55-.23,6.75-.34,.46-.88,.92-1.77,1.37-2.65-2.21,.12-4.48,.23-6.8,.34-2.23,.27-4.31,.99-7.73,3.71-9.01,7.17-16.97,15.51-25.74,22.95-2.63,2.33-4.11,4.07-5.86,6.91-2.34,3.98-4.76,7.86-7.26,11.64-.98,1.48-1.97,2.94-2.97,4.38q-.55,.82-4.98,12.66c-.91,2.9-.35,4.03,2.09,4.15,2.71-.11,5.34-.23,7.88-.36,4.37-.58,8.23-3.59,13.11-7.4,3.55-2.69,5.67-3.81,7.83-4.14,5.61-.34,10.7-.71,15.27-1.11,1.74-.35,7.04-1.42,31.46-26.09,10-10.65,12.37-13.18,2.62-31.64Z"/><path class="cls-13" d="M442.99,576.33c-.6,1.61-1.2,3.21-1.82,4.81-2.94,6.88-3.24,7.6-25.9,23.63-1.89,1.27-3.03,1.73-4.69,1.89-1.11,.05-2.24,.11-3.38,.16q-2.14-.22,1.44-9.28c2.65-6.12,4.18-7.23,12.68-13.38,1.84-1.28,3-1.77,4.62-1.93,4.45-.23,8.7-.48,12.74-.73,.38-.98,.75-1.96,1.12-2.95-4.07,.26-8.34,.5-12.81,.73q-2.9,.3-11.54,6.57c-6.54,5.13-8.32,9.91-11.27,17.82-1.26,3.71-.67,5.64,1.81,5.89,1.13-.05,2.25-.1,3.36-.16,2.62-.26,4.34-.42,25.06-16.56,3.9-3.31,6.2-6.52,8.48-11.82,.62-1.59,1.23-3.2,1.84-4.81-.58,.04-1.16,.08-1.74,.12Z"/><path class="cls-13" d="M486.8,517.31c-.49,.05-.98,.1-1.48,.15q-1.61-.14-4.69-6.83c-.03-.07-3.33-7.07-9.1-16.36-1.22-2.26-1.6-4.44-1.4-8.07,.27-3.18,.5-6.37,.69-9.57,0-8.42-2.36-12.78-7.21-13.32q-4.1,.71-12.15,18.75c-1.08,2.6-1.53,4.36-1.84,7.28-.48,5.62-1.07,11.21-1.79,16.75-.33,3.46-.25,6.25,1.18,9.41,4.01,8.87,10.24,16.46,14.46,25.21q1.5,2.83,17.88,.73h0s0,0,0,0h0s0,0,0,0h0s0,0,0,0c.46,.19,1.16,.47,.45,3.21-1.5,5.01-3.13,9.97-4.89,14.88,.43-.05,.85-.09,1.27-.14,1.77-4.92,3.4-9.88,4.91-14.88q1.77-6.32-15.25-4.51c-.5,0-1.83,.02-2.73-1.83-4.74-9.78-7.47-14.55-13.91-24.3-1.32-2.26-1.67-4.32-1.32-7.89,.72-5.54,1.33-11.13,1.81-16.75q.21-1.96,6.39-17.25c3.6-7.94,8.53-5.87,10.21-1.01,.7,2.02,.7,4.2,.7,5.79-.19,3.2-.42,6.39-.69,9.57-.19,3.52-.04,6.36,1.31,9.64,3.25,7.83,8.51,14.59,11.93,22.33,.93,1.87,1.53,2.04,2.63,2.37,.97-.05,1.46-.11,1.95-.16,2.53,.34,3.15,3.47,1.9,9.56-1.73,6.93-3.7,13.78-5.91,20.55,.42-.05,.83-.1,1.24-.15,2.22-6.77,4.2-13.62,5.94-20.55,1.66-8.03,.84-12.16-2.51-12.61Z"/><path class="cls-13" d="M468.19,292.36c-1.9-3.05-3.85-6.06-5.86-9.03-.24,.05-.48,.09-.73,.14,2,2.98,3.95,5.99,5.84,9.04,2.1,3.58,2.71,5.58,1.87,6.13-3.42,.57-7.49,1.13-12.21,1.66-3.06-.38-6.27-6.7-6.31-6.76q-.3-.61-3.09-12.22c-.27-1.21-.17-1.67,.4-1.83,6.7-.83,11.8-1.71,15.25-2.64-.65-.89-1.3-1.78-1.95-2.66-3.43,.92-8.48,1.8-15.12,2.62-.28,.08-.95,.26-.78,1.59,.42,3.48,1.54,6.81,2.23,10.24,.53,2.44,1.73,5.1,3.56,7.91,1.51,2.32,4.48,6.25,7.36,6.61,4.75-.53,8.85-1.09,12.3-1.67,1.26-.82,.36-3.8-2.76-9.11Z"/><path class="cls-3" d="M465.37,272.73c-.76,.42-1.82,.82-3.19,1.23,.66,.88,1.31,1.77,1.96,2.66,1.38-.4,2.46-.82,3.22-1.24-.66-.89-1.32-1.77-1.99-2.65Z"/><path class="cls-3" d="M460.41,388.54c-.61,.04-1.22,.08-1.84,.12,.65,3.52,1.26,7.05,1.81,10.59,.62-.04,1.24-.08,1.86-.12-.56-3.54-1.16-7.07-1.82-10.59Z"/><path class="cls-3" d="M475.29,564c-.69,1.85-1.4,3.69-2.13,5.52-1.39,3.51-2.85,6.97-4.36,10.39,.41-.05,.82-.09,1.23-.14,1.52-3.42,2.98-6.89,4.39-10.4,.73-1.83,1.45-3.67,2.14-5.52-.42,.05-.84,.09-1.26,.14Z"/><path class="cls-6" d="M466.59,584.76c-.95,2.05-1.92,4.08-2.91,6.09,.41-.04,.81-.09,1.2-.13,1-2.02,1.97-4.05,2.93-6.09-.4,.05-.81,.09-1.22,.13Z"/><path class="cls-3" d="M403.6,635.49c-2.54,4.12-5.17,8.15-7.9,12.07,.53-.03,1.05-.06,1.57-.09,2.75-3.93,5.41-7.96,7.97-12.08-.55,.03-1.09,.06-1.65,.09Z"/><path class="cls-3" d="M449.62,556.42c-1.55,5.22-3.23,10.38-5.04,15.49-.02,.06-.04,.12-.06,.18,.59-.04,1.17-.08,1.75-.12,.02-.06,.04-.12,.06-.18,1.82-5.11,3.51-10.27,5.08-15.49-.59,.04-1.19,.08-1.79,.12Z"/><path class="cls-3" d="M500.5,554.32c-.39,1.02-.79,2.05-1.19,3.07,1.04-.28,1.95-.56,2.73-.85,.41-1.02,.81-2.04,1.2-3.07-.79,.29-1.7,.57-2.74,.85Z"/><path class="cls-6" d="M526.18,437.81c0,.99-1.29,1.95-3.87,2.89,.03,1.11,.06,2.23,.08,3.35,2.58-.94,3.88-1.91,3.87-2.89-.02-1.12-.05-2.23-.08-3.34Z"/><path class="cls-13" d="M485.41,298.28l-.42-.7-1.41-2.32-.49-.78c-.08-.13-.16-.25-.24-.37,.07,.23,.06,.48-.04,.73-.49-.47-2.44-3.64-2.75-4.29,.03-.17,.05-.28,.06-.38q-.17-.44-3.69-5.89c-.15-.22-.3-.44-.44-.67-.04-.09-.08-.16-.13-.23l-1.9-2.73c.05,.07,.09,.15,.13,.22,1.2,1.99,2.54,3.89,3.81,5.83,.3,.48,.34,.55,.4,.68,0,.13-.03,.23-.07,.34,.22,.83,3.54,5.99,3.68,6.21,1.52,2.36,2.4,3.61,2.63,3.73,.11-.25,.11-.51,.02-.76q.07,.1,.86,1.39Z"/><path class="cls-3" d="M368.86,573.04c-.84-.83-1.54-1.12-2.79-1.16-2.03,.04-4.07,.09-6.12,.12-3.17,.42-5.23,2.37-6.31,5.94-.11,.5-.21,1-.32,1.49q-.49,3,5.81,9.39c.64,.77,.56,1.58,.5,1.9-.75,3.62,.3,5.53,3.24,5.81,1.64-.04,3.28-.07,4.9-.11,.28-.94,.56-1.89,.83-2.84-1.64,.04-3.28,.08-4.93,.12-1.77-.17-1.86-1.56-1.62-2.7q.66-3.12-5.63-9.33c-.55-.63-.69-1.25-.51-2.28,.11-.5,.22-.99,.33-1.49,.53-1.74,1.54-2.69,3.09-2.91,2.04-.04,4.07-.08,6.09-.12q1.01,.03,8.88,9.18c.45,.63,.53,1.22,.31,2.19-1.19,4.32-2.44,8.58-3.75,12.76,.8-.02,1.59-.04,2.38-.06,1.33-4.18,2.6-8.44,3.81-12.76q.69-3.01-8.18-13.14Z"/><path class="cls-3" d="M518.7,394.8c-.83,.37-1.87,.74-3.11,1.11-2.98,.06-7.52-9.49-12.13-25.54-2.63-9.42-5.73-18.73-9.29-27.91-1.51-3.9-3.11-7.77-4.77-11.59-.44-1.01-.89-2.02-1.34-3.03-1.42-3.17-2.9-6.3-4.43-9.41-.25,.05-.51,.1-.77,.15,1.52,3.11,2.99,6.24,4.41,9.41,.45,1.01,.9,2.02,1.34,3.03,1.66,3.82,3.25,7.68,4.76,11.59,3.55,9.18,6.64,18.49,9.26,27.91,5.15,18,10.22,28.7,13.55,28.63,1.24-.37,2.28-.74,3.12-1.11-.19-1.08-.39-2.17-.59-3.25Z"/><path class="cls-3" d="M452.23,369.29c-3.66-4.36-7.2-6.36-11.13-6.31-4.13,.23-8.43,.45-12.92,.66,.25,1.06,.49,2.12,.73,3.18,4.5-.21,8.82-.43,12.97-.66,5.52,.15,7.5,2.7,14.87,12.17l.85-2.27c-1.6-2.03-3.74-4.75-5.36-6.77Z"/><path class="cls-3" d="M425.59,363.77c-2.02,.09-4.07,.18-6.16,.27,.23,1.06,.47,2.12,.69,3.18,2.1-.09,4.16-.18,6.18-.27-.24-1.06-.47-2.12-.72-3.18Z"/><path class="cls-3" d="M519.62,441.16c-3.64,1-8.77,1.96-15.37,2.86-3.27,.91-5.63,7.68-6.01,17.25-.13,5.42-.39,10.82-.79,16.18,.43-.05,.86-.1,1.28-.15,.4-5.36,.66-10.76,.79-16.18,.31-7.63,2.19-13.03,4.8-13.76,6.6-.91,11.74-1.87,15.38-2.87-.02-1.11-.05-2.22-.08-3.33Z"/><path class="cls-13" d="M314.09,690.62l-8.3-11.38c-.39-.4-.73-.53-1.43-.55-1.48,.02-2.96,.03-4.44,.05-2.31,0-3.38,1.25-4.45,3.18-.84,1.81-1.68,3.58-2.54,5.3-.16,.36-.63,1.45-.15,2.21l6.88,8.21q.1,.39-.51,1.34s-1.14,1.82,.84,2.01c1.63-.03,3.24-.06,4.85-.09,.44-.52,.88-1.05,1.32-1.59-1.64,.03-3.28,.06-4.94,.09-.29-.07-.73-.17-.19-.97,.7-1.02,1.17-1.7-.1-3.09l-6.25-7.22c-.19-.32-.19-.44,0-.92,.88-1.73,1.75-3.49,2.61-5.31,.41-.73,.96-1.12,1.69-1.2,1.46-.01,2.93-.03,4.38-.05,.2,.02,.67,.02,1.23,.77,0,0,6.22,8.39,7.83,11.08q.06,.35-.14,.73c-6.24,8.24-12.7,15.25-19.46,21.13,.4,0,.8-.02,1.2-.02,6.89-5.88,13.48-12.9,19.75-21.01,.47-.65,1.02-1.52,.29-2.7Z"/><path class="cls-6" d="M441.99,324.54c-.4-1-.79-2-1.2-2.99-5.83-14.33-12.56-28.03-20.16-41.04-.5,.03-1,.07-1.5,.1,7.54,13.01,14.22,26.71,19.99,41.05,.4,.99,.8,1.99,1.19,2.99,2.21,5.63,4.28,11.36,6.21,17.17,.58-.04,1.16-.08,1.73-.12-1.95-5.82-4.03-11.54-6.26-17.17Z"/><path class="cls-6" d="M492.89,581.38c-.51,.98-1.03,1.95-1.56,2.92,.16-.16,.28-.31,.37-.47l.47-.88,1.09-2.06c-.09,.16-.21,.33-.38,.49Z"/><path class="cls-6" d="M489.23,418.6c-2.28,.23-4.67,.46-7.16,.68,.11,1.1,.22,2.2,.33,3.29,2.5-.22,4.89-.45,7.17-.68-.11-1.1-.22-2.2-.34-3.29Z"/></g></g></g></g><g><g><path class="cls-13" d="M175.72,446.03c-.99,0-1.98,0-2.98,0,0,3.78,.02,7.54,.05,11.3,.99,0,1.98,0,2.97,0-.03-3.76-.04-7.53-.04-11.3Z"/><path class="cls-13" d="M285.21,549.42c-1.27-.03-2.55-.06-3.83-.09,5.39,7.11,15.42,20.36,25.04,35.34,.47,.77,.7,1.32,.92,2.23l2.21-2.07c-.75-2.25-10.38-16.82-24.35-35.41Z"/><path class="cls-13" d="M265.54,524.5c-2.36-2.6-4.3-3.55-7.67-3.8-13.78-.25-27.71-.26-41.52-.57-5.15-.27-8.28-3.29-8.48-9.38-.08-4.92-.15-9.86-.2-14.82-.34-7.9-4.28-12.46-11.65-12.81-3.76-.02-7.52-.03-11.27-.04-5.24-.6-8.1-3.72-8.75-9.54-.08-4.28-.15-8.58-.19-12.89-.99,0-1.98,0-2.96,0,.05,4.31,.12,8.61,.21,12.89,.88,7.82,4.73,12.01,11.77,12.82,3.74,0,7.49,.02,11.25,.04,5.42,.22,8.06,3.72,8.66,9.52,.07,4.96,.15,9.91,.24,14.82,.2,7.68,4.21,12.19,11.42,12.6,13.8,.12,27.63,.31,41.36,.56q3.58,.26,21.2,22.24c1.29,.03,2.57,.06,3.85,.09q-12.15-15.5-17.26-21.73Z"/><path class="cls-13" d="M242,695.22s-.5,3.23-1.02,5.3c-.38,1.6-.69,2.6-1.19,3.34-.65,.96-1.4,1.29-2.07,1.31-1.45,.05-2.46-1.33-2.63-1.62l-9.17-15.55c-1.16-2.06-1.21-3.6-1.23-3.89-1.17-13.82-2.11-29.12-2.92-46.47-.32-6.94-.62-14.12-.89-21.53-.14-3.44-.17-4.8-3.81-8.04-3.13-2.78-8.54-7.51-18.31-15.48-2.35-2.37-2.8-3.24-3.45-6.64-1.23-14.05-2.27-28.75-3.1-44.03-.45-8.27-.84-16.63-1.16-25.06-.98-7.7-4.82-11.82-11.72-12.6-12.8,0-25.49,.05-37.97,.16,.08,1.08,.17,2.16,.26,3.24,12.44-.11,25.09-.17,37.85-.16,5.12,.58,7.97,3.64,8.72,9.36,.35,8.43,.77,16.79,1.26,25.06,.9,15.28,2.01,29.98,3.34,44.03,.45,3.09-.1,4.45,4.32,8.66,3.17,3.02,9.32,7.4,18.47,15.22,2.28,1.95,2.74,3.1,2.99,6.27,.59,7.51,.7,14.59,1.09,21.54,1,17.72,1.57,33.03,2.87,46.3,.22,1.43,.16,2.51,1.02,4.12l10.09,16.39c2.7,3.78,5.62,3.54,7.24,.96,.49-.79,1.23-2.79,1.53-4.25l1.06-5.2c-.29-.09-1.14-.63-1.44-.73Z"/><path class="cls-13" d="M307.45,590.13c-2.32,11.63-4.8,22.3-7.68,32.43-.98,3.27-.71,3.37-7.54,9.5-18.71,16.77-34.19,31.44-46.01,43.61-1.51,1.72-2.13,3.09-2.47,5.42-.48,4.62-1.04,9.05-1.53,13.14,.39,.17,1,.31,1.41,.44,.59-4.23,1.16-8.75,1.73-13.55,.1-.61,.46-2.55,2.48-4.55,5.21-5.13,17.88-18.18,49.98-46.73,1.57-1.5,3.33-3.41,4.39-7.1,2.73-10.22,5.25-20.9,7.55-32.01,.24-1.36,.27-1.7,.27-3.01-.78,.72-1.81,1.69-2.59,2.42Z"/><path class="cls-13" d="M70.53,471.03c-5.29-3.65-5.53-6.31-5.98-10.38-.61-11.07-.81-20.43-.81-30.73-.86,.03-1.72,.06-2.57,.09-.15,11.21,.09,22.37,.71,33.43q1.01,9.06,61.33,43c1.85,.97,3.14,1.31,5.11,1.36,3.47-.05,6.96-.08,10.47-.12-.09-1.08-.18-2.16-.27-3.24-3.52,.04-7.02,.24-10.54,.19-.31,0-1.32,.1-3-.86l-54.46-32.74Z"/><path class="cls-13" d="M63.08,385.03c-1.57-2.05-4.32-4.21-6.19-5.99-2.84-2.7-8.78-8.57-16.64-17.55-1.35-1.41-2.38-1.87-4.23-1.88-4.21,.22-8.25,.44-12.13,.68-1.17,.18-3.97-.2-7.54,5.52-3.62,5.8-9.81,16.77-19.24,37.5-1.38,2.81-2.53,3.98-4.25,4.34-.44,.04-.87,.08-1.3,.11-.1,1.1-.19,2.19-.28,3.29,.43-.04,.86-.08,1.3-.11,3.34-.7,4.21-2.58,8.36-11.63,2.34-5.09,7.65-15.99,17-31.71,1.77-2.7,3.2-3.82,5.29-4.15,3.89-.24,7.94-.46,12.16-.68q1.92,0,7.55,6.36c1.82,2.06,7.19,7.9,17.6,17.71,1.92,2.08,2.58,4.17,2.43,7.7-.94,10.56-1.52,21.27-1.74,32.11,.85-.03,1.71-.06,2.57-.09,.22-10.84,.79-21.55,1.72-32.11,.08-1.92,.24-5.93-2.44-9.42Z"/></g><g><path class="cls-13" d="M135.67,368.03c-4.94-.51-7.29-3.46-7.16-9.02,.57-5,1.19-9.96,1.86-14.88,.36-7.29-2.47-11.13-8.67-11.76-13.77,.23-27.17,.53-40.05,.93-12.39,.38-23.83,.82-34.3,1.33-1.11-.08-4.49-.33-14.57-24.07-.91-1.68-1.28-1.93-3.02-2.07-4.89,.35-9.43,.71-13.63,1.09-2.76,.76-4.18,.67-16.1,16.41-1.33,1.59-1.5,1.83-2.67,2.79-1.78,1.48-2.55,1.2-3.76,1.57-3.03,1.09-5.49,4.48-8.26,11.77-.52,1.52-1.02,3.04-1.52,4.57-1.96,6.52-2.7,8.96,3.81,26.74,1,2,3.83,1.51,4.82,3.53,1.17,2.4,.78,5.59,.55,7.51-1.27,7.73-2.27,15.55-2.99,23.44-.1,1.1-.19,2.19-.28,3.29-.18,2.16-.33,4.32-.46,6.48,.52-.05,1.04-.09,1.56-.14,.13-2.17,.29-4.33,.46-6.48,.09-1.1,.18-2.2,.28-3.29,.72-7.89,1.71-15.7,2.97-23.44,.91-7.59-.23-11.48-3.49-11.91-2.58-.34-5.27-10.47-7.07-18.91-.21-2.44,.48-3.53,1.43-6.69,.49-1.53,1-3.05,1.51-4.57,1.25-3.31,2.86-7.67,5.9-9.23,1.64-.84,1.88-.54,2.86-.65q1.48-.5,15.18-16.99c1.9-2.05,2.42-2.43,4-2.86,4.22-.38,8.79-.75,13.71-1.09q1.62,.26,4.21,6.05c3.66,8.2,6.9,13.64,9.51,18.01,1.44,1.77,1.96,2.04,4.26,2.21,10.5-.5,21.99-.95,34.44-1.33,12.93-.4,26.39-.7,40.21-.93,4.63,.47,6.74,3.33,6.45,8.74-.69,4.91-1.33,9.87-1.91,14.88-.18,7.5,2.97,11.48,9.65,12.17,3.62-.04,7.26-.07,10.92-.1,.09-1.07,.17-2.13,.26-3.19-3.65,.03-7.28,.06-10.89,.1Z"/><path class="cls-13" d="M149.42,367.91c-.09,1.06-.17,2.13-.26,3.19,4.78-.04,9.59-.06,14.42-.08,.07-1.06,.15-2.13,.22-3.19-4.82,.02-9.62,.04-14.39,.08Z"/></g><g><path class="cls-13" d="M235.36,365.03c-2.1-1.2-3.53-1.62-5.9-1.73-3.63-.04-7.27-.08-10.9-.11-7.44,.74-11.56,5-12.59,13.02-.07,1.92-.13,3.86-.19,5.79-.77,6.17-3.91,9.45-9.61,10.06-2.04,0-4.09-.02-6.13-.02-9.53-.54-9.08-7.21-8.09-21.83,.55-4.83,2.35-6.35,5.94-9.38,8.86-8.3,5.26-22.11-5.91-22.73-4.6,0-9.19,0-13.75,.02q-4.64,.24-15.76,9.97c-3.06,2.95-4.37,5.51-4.99,9.75-.33,3.35-.63,6.72-.92,10.11-.09,1.06-.18,2.13-.26,3.19-.38,4.77-.73,9.58-1.03,14.42,.96,0,1.93-.01,2.89-.02,.3-4.84,.63-9.65,1-14.42,.08-1.07,.17-2.13,.26-3.19,.28-3.39,.58-6.76,.89-10.11q.68-4.73,11.61-14.24c2.07-1.65,3.58-2.26,6.01-2.38,4.58-.01,9.19-.02,13.8-.02,6.58,.73,13.7,9.46,2.28,19.05-4.7,4.4-4.72,4.72-5.74,21.57-.1,7.8,4.48,13.1,11.66,13.51,2.04,0,4.09,.01,6.14,.02,7.54-.8,11.69-5.14,12.69-13.29,.06-1.94,.12-3.87,.18-5.79,.77-6.08,3.88-9.31,9.52-9.87,3.64,.03,7.29,.07,10.93,.11q2.8,.23,25.93,14.72c3.19,2.32,4.46,4.73,4.71,8.88,0,2.69-.02,5.4-.03,8.11,0,.2-.02,1.33-.02,1.54h2.98c.01-.27,.03-1.21,.03-1.48,.01-2.71,.02-5.42,.02-8.11q-.49-8.18-27.65-25.09Z"/><path class="cls-13" d="M259.23,402.26c-1.46,3.15-1.53,3.23-18.18,13.27-4.3,3.03-6.05,6.25-6.47,11.88l-.02,1.18c-.04,2.89-.08,5.78-.11,8.67q-.38,5.61-17.13,18.38c-1.86,1.3-3.22,1.76-5.4,1.84-12.1-.1-24.18-.14-36.16-.14-.99,0-1.98,0-2.97,0-11.86,0-23.62,.07-35.19,.18,.02,1.11,.05,2.21,.08,3.31,11.56-.11,23.3-.17,35.15-.18,.99,0,1.97,0,2.96,0,11.96,0,24.02,.05,36.11,.14q4.09-.14,20.15-12.32c3.61-3.11,5.08-6.14,5.42-11.17,.04-2.89,.08-5.78,.12-8.67,0-.39,.01-.79,.02-1.18q.47-6.35,19.04-17.53c1.13-.76,3.82-2.33,5.36-6.15,.14-.34,.37-1,.45-1.42l-3.22-.08Z"/></g><path class="cls-13" d="M174.67,314.03c-2.21,0-4.41,.01-6.6,.02q-1.81-.24-6.6-9.64c-1.02-1.74-2.16-2.43-4.2-2.55-11.22,.08-22.27,.22-33.07,.41-1.3-.15-2.63-.3-10.21-21.8-.65-1.5-1.48-2.06-3.18-2.13-4.24,.11-8.42,.22-12.55,.35-2.88,.09-5.71,.18-8.47,.28,.74-1.78,1.49-3.55,2.25-5.3-.71,.02-1.41,.05-2.11,.07-.77,1.75-1.54,3.52-2.29,5.3-1.67,.06-3.32,.12-4.94,.18-.39,.9-.77,1.8-1.16,2.7,1.64-.06,3.3-.12,4.98-.18-2.21,5.39-4.3,10.91-6.27,16.55-1.02,3.79-.08,5.78,2.86,6.06,2.07-.07,4.16-.14,6.29-.2,3.3-.1,6.64-.2,10.02-.29q1.21,.12,9.39,15.67c.94,1.47,1.91,2.01,3.7,2.09,7.37-.15,14.86-.27,22.46-.37q1.75,.24,6.28,11.65c1.03,2.11,2.34,2.99,4.66,3.14,4.15-.04,8.33-.07,12.53-.09q2.71-.17,10.31-7.81c.97-.81,1.29-.96,2.46-1.09,.66,0,1.32,0,1.98,0,4.6-.51,6.05-3.83,6.46-5.23,.02-.07,1.75-7.04-4.95-7.78Zm2.31,7.17c-.23,.76-1.02,2.55-3.49,2.82-.66,0-1.31,0-1.97,0-1.86,.11-3.05,.63-4.55,2.01q-6.65,6.65-8.2,6.83c-4.18,.02-8.34,.05-12.48,.09-1.42-.2-1.78-.43-2.51-1.68q-5.12-12.85-8.31-13.04c-7.56,.1-15.01,.22-22.35,.37-1.03-.11-1.31-.22-1.98-1.12q-8.93-16.45-10.91-16.52c-3.35,.09-6.67,.18-9.96,.28-2.11,.06-4.2,.13-6.25,.2-1.49-.14-2.06-1.33-1.55-3.26,1.95-5.65,4.01-11.16,6.19-16.55,2.79-.1,5.63-.19,8.53-.28,4.16-.13,8.37-.24,12.64-.35,1.03,.12,1.26,.27,1.73,1.16,8.11,22.8,8.85,22.83,11.93,22.98,10.86-.19,21.98-.33,33.26-.41,1.26,.16,1.56,.34,2.28,1.38q5.42,10.69,8.63,10.89c2.21,0,4.42-.02,6.64-.02,3.64,.39,2.69,4.17,2.67,4.21Z"/><path class="cls-13" d="M229.43,223.25c-17.24-.17-34.45-.2-51.18-.08-3.06,.34-5.27,2.03-6.78,5.18-.19,.49-.37,.98-.56,1.47-.04,.12-.09,.23-.13,.35-.89,1.9-2.21,2.92-4.05,3.13-2.9,.03-5.79,.06-9.05,.12-1.01,.18-1.56,.27-2.93,1.04q-10.43,6.3-11.88,9.31c-2.28,5.35-4.45,10.89-6.52,16.6,.75-.01,1.51-.03,2.27-.04,2.03-5.72,4.16-11.25,6.39-16.6,.72-1.37,1.03-1.72,2.33-2.66q8.59-5.25,9.8-5.41c2.9-.04,5.82-.07,8.75-.1,3.19-.36,5.47-2.14,6.97-5.42,.04-.12,.08-.23,.13-.35,.18-.49,.36-.98,.54-1.47,.86-1.84,2.15-2.83,3.94-3.03,16.93-.12,34.36-.09,51.81,.08,1.75,.2,2.64,1.2,2.71,3.04-.03,.49-.06,.98-.08,1.47,0,.05,0,.11,0,.16-.2,1.51-.85,2.35-2.24,2.92q-23.57,7.61-24.55,11.75c-.62,3.92-1.23,7.93-1.81,12.04-.51,2.12-1.76,3.26-3.84,3.47-15.1-.04-30.04,.02-44.6,.18-1.92-.19-2.61-1.32-2.12-3.45,.84-3.65-.24-5.5-3.39-5.82-1.4,.02-2.79,.04-4.18,.06-.3,.81-.61,1.63-.91,2.45,1.4-.02,2.81-.04,4.22-.06,1.83,.18,2.47,1.29,1.97,3.4-.87,3.67,.33,5.62,3.66,5.96,14.68-.16,29.75-.22,44.98-.18,3.6-.37,5.75-2.33,6.6-6.01,.55-4.11,1.12-8.13,1.7-12.04,.36-1.59,1.12-2.49,2.62-3.1q23.53-7.55,24.02-11.55c0-.05,0-.11,0-.16,.02-.49,.05-.98,.07-1.47-.16-3.16-1.69-4.86-4.67-5.2Z"/><path class="cls-13" d="M382.84,278.03c-1.68-4.33-3.39-8.59-5.27-12.72-1.91-4.2-3.3-5.73-7.19-6.11-2.1-.12-5.28-.24-6.73-.4-1.45-.16-1.5-.61-2.62-1.71-18.18-20.72-18.39-20.76-21.92-21.44-13.29-.63-27.28-1.17-42.15-1.61-1.17,.24-1.79,.59-2.55,1.45q-4.99,7.26-6.57,7.57c-12.9-.35-26.06-.64-39.29-.85-1.84,.17-2.33,.38-3.73,1.61q-12.03,12.93-13.95,13.21c-3.86-.04-7.72-.08-11.58-.11-3.41,.33-5.41,2.22-6.11,5.77-.14,1.42-.28,2.85-.42,4.29,.83,0,1.65,.01,2.48,.02,.13-1.44,.26-2.87,.39-4.29,.65-2.28,1.23-2.83,3.45-3.28,3.89,.03,7.78,.07,11.68,.11,1.99-.19,2.53-.41,4.08-1.73q12.59-13.07,13.77-13.24c13.37,.21,26.66,.5,39.69,.86,1.75-.15,2.18-.35,3.3-1.54q5.24-7.36,6.44-7.6c14.56,.45,28.7,1,42.49,1.68q1.45,.56,2.55,1.58c19.65,21.32,17.57,21.24,19.93,21.72,2.16,.12,6.71,0,8.5,.44,2.03,.51,2.8,1.1,3.84,3.47,1.81,4.15,3.45,8.42,5.06,12.76,.87,2.35,.74,3.35-1.07,3.28-1.07-.06-2.16-.1-3.24-.18-1.74-.13-1.9,.54-2.58,2.72l-5.78,23.46c-1.07,4.15-2.28,4.05-2.73,4.14l-19.59-.87c-2.71-.13-3.25,.67-4.19,3.48-9.73,29.18-9.4,29.42-12.27,29.77l-22.54-.78c-1.14-.19-1.96-.64-2.45-1-18.68-17.53-18.09-16.98-18.55-19.15-.07-1.21-.14-2.4-.21-3.61,.32-2.76,.86-3.41,3.29-3.89,1.64,.04,3.28,.08,4.92,.13,.98-.08,2.21-.19,3.37-1.07,3.89-2.97,2.65-11.39-4.52-12.37-9.96-.26-20.04-.49-30.98-.8-.66-.31-1.48-.87-2-1.38q-22.11-29.82-24.84-30.19c-3.32-.04-6.64-.08-9.97-.11-.05,.87-.1,1.75-.15,2.63,3.35,.03,6.7,.07,10.79,.21,.61,.28,1.35,.8,1.83,1.26q21.3,30.01,25.23,30.57c10.2,.19,20.34,.42,30.36,.69,.41,.1,.98,.16,1.37,.33,2.25,1.03,4.23,6.29-.71,7.27-1.63-.04-3.26-.09-4.89-.13-3.76,.32-5.66,2.51-5.8,6.68,.07,1.3,.15,2.6,.22,3.9,.4,2.61,.72,3.3,2.45,5.28q18.85,17.57,21.47,17.9c7.63,.22,15.18,.46,22.63,.72,2.1-.26,3.77-.47,5.17-3.64q10.47-29.64,11.53-29.78c5.64,.23,11.2,.44,16.66,.71,1.02,.05,2.03,.1,3.04,.16,1.92,.11,3.6-1.21,4.04-3.08,.19-.83,.43-1.63,.63-2.4,4.75-18.03,6.08-23.07,6.5-24.49,.1-.33,.42-.55,.77-.53,.91,.05,1.82,.11,2.73,.15,2.41,.12,3.98-1.29,2.54-5.94Z"/><path class="cls-3" d="M262.83,352.68c-.06-5.38-.13-10.7-.22-15.98-.24-3.57-1.18-5.73-3.59-8.26q-11.21-10.57-15.07-10.81c-2.88-.04-5.76-.08-8.65-.12-2.33-.16-3.71-.86-5.28-2.65q-12.79-16.26-17.18-16.54c-4.67-.03-9.33-.06-13.98-.07-.09,.95-.18,1.9-.28,2.86,4.68,.02,9.37,.04,14.06,.07,2.25,.14,3.58,.81,5.06,2.54q12.69,16.44,17.54,16.78c2.9,.04,5.8,.08,8.69,.12,1.98,.12,3.17,.62,4.71,1.96q10.9,10.33,11.14,14.06c.07,5.27,.03,10.6,.17,15.98,.23,8.86-6.81,10.85-12.21,5.1-9.51-10.13-10.09-10.86-14.8-11.18-3.3-.04-6.61-.08-9.91-.11-4.53-.54-6.85-3.16-7.11-8,.04-.88,.07-1.76,.11-2.64-.34-6.64-3.46-10.2-9.55-10.91-2.42-.01-4.83-.03-7.24-.04-4.37-.5-6.5-3.03-6.53-7.73,1.04-11.58,2.2-22.68,3.48-33.29-.86,0-1.72,0-2.58,0-1.35,10.6-2.57,21.71-3.66,33.29,0,6.54,2.97,10.06,9.07,10.75,2.42,.01,4.85,.02,7.27,.04,4.4,.51,6.65,3.08,6.88,7.87-.04,.88-.08,1.76-.12,2.64,.33,6.74,3.57,10.38,9.89,11.13,3.31,.03,6.63,.07,9.94,.11,2.34,.16,3.76,.84,5.42,2.61l9.4,9.33c5.01,4.64,10.81,2.4,13.08-.88,2.25-3.25,2.06-7.93,2.07-8.04Z"/><g><path class="cls-13" d="M427.39,439.8c-.67,0-2.45-.01-4.15,1.53-10.61,9.65-20.18,20.36-30.67,30.12-2.18,2.25-3.12,4.27-3.6,7.72-1.49,15.27-3.62,30.34-6.38,45.14,.82,.04,1.64,.09,2.46,.13,2.81-14.8,4.97-29.87,6.48-45.14,.29-2.05,.95-3.64,1.96-4.72,9.8-10.45,20.75-19.73,30.67-30.07,.72-.7,1.62-1.43,3.16-1.38,3.06,.21,6.28,.44,9.25,.66-.04-1.24-.1-1.83-.41-3.38-2.81-.2-5.86-.43-8.75-.62Z"/><path class="cls-13" d="M471.13,395.28c.34,.03,.68,.07,1.02,.1-.49-4.33-1.06-8.63-1.71-12.91-.34-.03-.67-.07-1.01-.1-.27-.03-.55-.06-.83-.08,.65,4.28,1.21,8.58,1.7,12.91,.28,.03,.56,.06,.83,.08Z"/><path class="cls-13" d="M477.77,465.87c-.74,.72-1.12,.94-2.2,.97-1.21-.13-2.43-.25-3.68-.38-.07,0-.15-.01-.22-.02q-1.59-.33-8.55-19.45c-1.31-3.08-2.66-4.39-4.98-4.82-6.3-.55-13.21-1.08-20.11-1.59,.2,1.26,.27,2.08,.29,3.37,6.76,.5,13.54,1.02,19.73,1.56,2.71,.51,2.82,.53,8.92,19.44,1.11,3.06,2.31,4.36,4.4,4.8,.07,0,.15,.01,.22,.02,1.25,.13,2.48,.25,3.68,.38,.67,.02,1.78,.07,3.24-1.43,6.46-6.62,13.07-14.75,19.63-24.17l-.71-2.9c-6.49,9.27-10.25,14.06-19.65,24.22Z"/><path class="cls-13" d="M509.73,417.49c-.19-2.58-.41-5.16-.67-7.73-.72-6.06-1.11-6.77-7.67-18.69-.98-1.62-1.64-2.26-2.61-2.52-3.82-.6-8.12-1.2-12.92-1.8-2.8,.26-3.95,3.34-3.51,9.43,.06,.53,.12,1.05,.19,1.58,.59,4.33,1.09,5.24,4.28,11.13,2.2,4.49,1.74,11.19-1.62,11.49-1.6-.19-3.25-.38-4.95-.56q-1.56-.32-5.48-7.2c-.88-1.63-1.25-2.89-1.46-4.97-.23-3.02-.5-6.02-.81-9.01-.34-.03-.68-.07-1.02-.1-.28-.03-.55-.06-.83-.08,.31,2.99,.57,6,.8,9.01,.44,4.35,.61,4.64,4.96,12.26,1.34,2.22,2.35,3.08,3.99,3.41,1.7,.19,3.35,.38,4.95,.56,4.08-.36,4.37-6.38,4.39-7.58,.08-5.55-1.05-7.64-4.08-13.22-.83-1.61-1.21-2.85-1.5-4.94-.06-.53-.12-1.06-.19-1.58-.3-4.12,.48-6.2,2.37-6.38,4.8,.6,9.12,1.2,12.94,1.8,1.08,.29,1.3,.35,7.33,12.25,.76,1.69,1.13,3.14,1.41,5.52,.25,2.57,.48,5.14,.67,7.72q.21,3.89-2.83,10.11l.82,2.67,2.14-4.4c.39-1,1.21-3.09,.89-8.19Z"/><path class="cls-13" d="M498.57,439.93l.71,2.9c4.08-6.53,4.33-6.93,6.53-11.02l-.82-2.68c-3.69,6.57-3.83,6.83-6.41,10.8Z"/></g><path class="cls-13" d="M491.8,348.87c-1.83-5.86-3.83-11.66-6.02-17.4-.09-.25-.19-.49-.28-.74-1.6-3.8-2.93-6.25-4.69-6.55-1.84-.29-3.81-.58-6.23-.85-.1-.01-.28-.04-.51,.1-.27,.16-.39,.43-.51,.8-.02,.06-.03,.13-.05,.19-.77,2.8-2.05,5.47-2.34,8.41-.22,2.14,1.15,4.04,.9,6.19,0,0,0,.36-.26,.62-.23,.22-.56,.19-.56,.19l-6.02-.84c-.79-.05-1.77-1.22-2.38-2.08-4.87-6.9-7.81-11.12-10.86-15.56l-.93,1.44c9.32,13.65,11.91,17.45,13.18,18.68,.49,.47,.79,.64,1.18,.7,2.35,.25,4.61,.54,6.78,.76,.72,.07,1.21-.3,1.51-.66,1.32-1.57-.95-5.49-.66-7.78,.73-2.37,1.43-4.99,2.16-7.36,.27-.86,.45-.81,.64-.81,2.19,.3,3.85,.51,6.03,.94,.79,.16,1.65,1.18,2.54,3.32,.09,.25,.19,.49,.28,.74,2.18,5.74,4.18,11.54,6.12,17.82,.27,1.26,.35,1.54,.05,2.61-.5,1.81-2.66,6.5-4.36,9.68-.35,.67-.69,1.25-1,1.7-.36,.54-.49,1.01-.92,.98l-5.72-.77c-.89-.14-2.08-1.24-2.72-3.47-.32-1.34-.65-2.67-.99-4-.76-2.5-1.27-4.63-2.4-5.77-.64-.65-1.19-.74-2.55-.97-2.49-.28-5.1-.56-7.82-.83-5.84-.59-12.06-1.16-18.61-1.71-1.38,.1-1.68,.29-2.47,1.61-6.69,14.8-13.94,26.67-17.66,32.43q-4.48,6.93-4.34,9.77c.33,3.85,.62,7.73,.85,11.62,.19,2.03,.61,3.25,1.68,4.83q10.37,14.11,12.09,14.48l13.39,1.01c3.07,.13,4.05-2.3,4.15-6.42-.05-1.2-.1-2.39-.16-3.59,.01-1.2,.08-1.49,.52-2.37q7.58-12.38,8.17-12.48c3.67,.33,7.23,.67,10.66,1.01,.28,.03,.56,.06,.83,.08,.34,.03,.68,.07,1.02,.1,1.6,.16,3.16,.33,4.68,.49-.11-1.09-.23-2.17-.36-3.25-1.52-.16-3.07-.33-4.67-.49-.34-.04-.68-.07-1.02-.1-.28-.03-.55-.06-.83-.08-3.43-.34-6.98-.68-10.64-1.01-1.4,.1-1.73,.3-2.7,1.68q-7.82,14.05-7.78,16.24c.06,1.19,.11,2.39,.16,3.59-.07,2.59-.96,3.23-2.12,3.28-4.34-.34-7.91-.43-12.71-.97-1.38-.16-1.8-.45-2.39-1.17q-9.48-13.71-9.61-14.7c-.24-3.89-.52-7.76-.86-11.62-.02-1.18,.04-1.46,.5-2.33,7.92-12.1,14.24-23.1,18.77-32.7q2.69-5.7,3.58-5.84c6.57,.55,12.81,1.12,18.68,1.72,2.38,.24,4.67,.48,7.11,.79,.36,.05,.63,.08,1,.25,.96,.43,1.6,1.04,2.26,3.24,.34,1.33,.66,2.67,.98,4,1.13,3.96,2.68,6.2,4.72,6.83l6.42,.75c.42-.02,.65-.29,.89-.71,.12-.21,.22-.41,.33-.62,6.39-11.83,6.09-12.88,4.9-17.03Z"/><path class="cls-13" d="M509.16,348.31l-.68-1.85s0,0,0-.01c.38,1.04,.76,2.07,1.13,3.11,0,0,0,.02,0,.03l-.46-1.28Z"/><g><path class="cls-13" d="M501.58,331.08c.29,.44,.66,.98,2.04,4.27,.15,.37,.3,.74,.45,1.1,1.21,2.96,2.36,5.94,3.47,8.93,.08,.06,.16,.12,.23,.18-1.11-2.99-2.26-5.97-3.47-8.93-.15-.37-.3-.74-.45-1.1-1.79-4.26-3-6.78-3.6-7.49-.23-.15-.49-.29-.78-.44-.1,.45-.19,.91,2.11,6.66,.15,.37,.3,.73,.45,1.1,.19,.47,.38,.94,.57,1.41,.65,1.66,1.05,2.66,2.24,8.21,.04,.24,.09,.57,.1,.81-1.25-.16-2.54-.54-4.02-.92q-.59-.44-2.41-3.73c-.93-1.73-2.32-5.03-2.08-6.56,.15-.05,.35-.11,.49-.16,.47-1.19-.54-4-1.58-6.6-.32-.76-.65-1.52-.98-2.28-2.44-5.4-2.59-5.72-11.78-15.29-.43-.41-.53-.49-.88-.7-5.91-1.22-13.48-2.36-22.99-3.49-.55,.03-1.1,.03-1.36,.85-1.37,4.35-2.16,7.33-3.53,10.9l1.9,2.47c2.02-5.55,2.25-6.42,3.44-10.67,.14-.5,.27-.69,.68-.66,.15,0,.3,.04,.45,.05,9.51,1.12,16.98,2.25,22.6,3.38,.01,0,1.24,.74,8.69,9.23,.74,.93,1.33,1.98,2.13,3.75,.33,.76,.66,1.52,.98,2.28,.66,1.65,1,2.65,.98,3.56-.16,.15-.41,.31-.61,.4-.1,.33-.78,3.48,4.88,13.75,1.18,2.08,1.54,2.3,2.05,2.61,1.49,.38,2.79,.76,3.89,1.14,.07-.06,.17-.13,.24-.19,.03-.55,.06-1.23-1.42-7.05-.42-1.54-.84-2.79-1.69-4.94-.19-.47-.38-.94-.57-1.41-.15-.37-.3-.74-.45-1.1-.76-1.91-1.07-2.77-1.25-3.57,.34-.08,.61,.07,.84,.21Z"/><path class="cls-13" d="M508.9,348.67c-.07-.06-.15-.12-.23-.18,2.56,7.2,4.83,14.48,6.8,21.83,.08,.06,.16,.12,.24,.18-1.97-7.35-4.24-14.63-6.81-21.83Z"/></g><g><path class="cls-13" d="M519.6,477.87c-.24-.28-.44-.5-.51-2.49-.28-7.52-.42-11.3-1.5-20.87-.5-3.56-1.18-4.02-1.84-3.99-2.1,1.27-2.4,9.18-2.41,9.26-.19,8.86,1.4,17.61,1.62,26.44,.08,2.48,.33,3.53,.91,3.9,.81,.24,1.55,.49,2.21,.73,.18-1.09,.35-2.18,.51-3.27-.66-.24-1.4-.49-2.22-.73-.28-.27-.52-.51-.58-2.45-.26-8.68-.4-11.9-1.48-21.8-.46-4.79,.66-9.25,1.76-8.66,1.22,.66,2.11,17.54,2.28,23.29,.1,2.51,.31,3.57,.81,3.94,.39,.14,.76,.28,1.1,.42,.14-1.09,.28-2.19,.41-3.29-.34-.14-.71-.28-1.1-.42Z"/><path class="cls-13" d="M523.22,479.69c-.58-.5-1.23-.85-2.05-1.21-.13,1.1-.26,2.19-.41,3.29,.82,.36,1.47,.71,1.97,1.06,.12,.6,.19,.95-.02,3.04-1.77,17.61-5.47,34.99-10.99,51.65,.69-2.17,1.63-5.05,2.29-7.22l.02-.06c4.95-17.11,7.15-28.24,9.09-45.83,.24-2.68,.27-3.92,.11-4.71Z"/></g><g><path class="cls-13" d="M521.89,466.08c-.31,4.08-.7,8.15-1.18,12.21-.13,1.1-.26,2.19-.41,3.29-.46,3.55-.98,7.09-1.57,10.61-1.7,9.45-2.67,11.11-8.08,20.36-2.14,3.3-3.1,1.8-3.52-.04-.37-1.6-.33-3.64-.3-4.86,.26-11.51,.08-17.14-.9-28.67-1.88-14.32-7.21-7.67-12.35-1.24l.43,2.83,3.89-4.85c3.7-4.44,6.27-.85,6.9,4.99,1.28,11.99,.98,24.51,.89,28.63-.16,10.47,2.63,8.43,3.49,7.55,.49-.5,1.91-2.48,5.99-10.21,1.73-3.77,2.82-7.65,4.02-14.31,.59-3.52,1.11-7.06,1.57-10.61,.14-1.09,.28-2.19,.41-3.29,.48-4.05,.87-8.12,1.18-12.2-.15-.06-.3-.13-.46-.19Z"/><polygon class="cls-13" points="492.17 479.42 489.03 483.04 489.45 485.87 492.61 482.25 492.17 479.42"/></g><g><path class="cls-13" d="M443.74,541.14c-.36-5-1.88-7.22-5.41-7.91-.21-.02-.43-.03-.64-.05-4.1,0-5.07,1.06-12.56,9.25-2.27,2.29-3.9,3.1-6.22,3.12-4.32-.31-8.75-.61-13.28-.9q-2.33-.29-8.56-9.06c-1.61-2.01-2.99-2.78-5.47-3.06-14.23-.81-29.28-1.53-44.91-2.18-.17,1.06-.34,2.11-.51,3.17,15.57,.64,30.55,1.36,44.73,2.17q2.95,.33,8.81,9.05c1.49,1.99,2.76,2.76,5.07,3.04,4.51,.29,8.92,.59,13.22,.9,4.5-.03,6.09-1.8,12.8-9.22,2.23-2.3,3.81-3.11,6.03-3.12,.21,.02,.42,.04,.64,.05,4.43,.87,4.39,2.8,4.05,17.82,.7,.06,1.39,.13,2.07,.19,.15-6.23,.2-8.12,.15-13.24Z"/><path class="cls-13" d="M441.39,557.35c-.71,12.53-1.43,18.8-3.52,30.5-1.73,6.97-2.99,8.05-18.38,21.27-6.74,6.24-8.16,10.55-10.51,17.7-1.97,5.99-5.81,15.71-12.9,27.95-.52,.95-1.02,1.77-1.27,2.4-.97,2.4-.15,3,.88,3.25l5.16,.62c2.2-.01,3.8-.02,24.07-16.67,1.69-1.44,3.56-3.09,6.14-6.1,.1-.11,.19-.23,.29-.34-.3-.05-.61-.1-.92-.14-.1,.11-.19,.23-.29,.34-1.88,2.19-4.22,4.91-21.33,17.88-2.44,1.77-4.36,2.9-5.29,2.8-2.1-.23-2.79-.3-4.63-.51-1.04-.11-1.58-.18-1.8-.51-.62-.93-.34-1.59,1.04-4,5.86-10.21,9.9-18.43,14.47-32.55q2.02-5.52,19.05-20.65c6.49-6.32,9.75-9.49,11.79-43.03-.68-.06-1.36-.13-2.05-.19Z"/><path class="cls-13" d="M503.38,532.53c-.07-.6-.19-1.34-.54-1.73-.79-.87-3.59-1.11-5.31-1.45-1.13-.47-1.57-1.51-1.42-5.13,.59-14,.43-25.63-2.1-43.65l-.43-2.83c-.5-2.93-1.2-6.83-1.76-9.75l-1.4,1.71c.55,2.91,1.27,6.8,1.76,9.72l.44,2.82c1.97,14.55,2.94,26.35,2.11,43.62-.12,4.27,.24,5.57,1.83,6.65,1.72,.33,3.28,.67,4.7,1,1.31,.48,.97,2.02,.97,3.58-.01,5.43-4.71,15.73-21.78,35.22-2.29,2.72-3.88,5.15-6.09,9.27-5.34,10.27-11.25,20.18-17.71,29.7-3.68,5.24-4.7,5.98-12.65,11.78-3.08,2.37-5.39,4.7-8.81,8.89-.88,1.11-1.78,2.21-2.68,3.31,.32,.05,.63,.1,.93,.15,.9-1.1,1.8-2.2,2.69-3.31q3.42-4.16,13.07-11.45c3.06-2.47,5.31-4.97,8.31-9.21,6.48-9.52,12.41-19.42,17.77-29.69,5.47-10.16,14.11-17.93,20.65-27.28,.73-1.1,2.54-4.08,4.53-8.35,1.25-2.57,3.42-9.11,2.93-13.59Z"/></g><path class="cls-13" d="M450.44,281.21c-.47-.8-.95-1.6-1.43-2.4-.42-.05-.83-.11-1.26-.16,.48,.8,.95,1.6,1.42,2.4,2.51,4.54,3.26,7.13,2.77,9.54-3.32,8.83-3.5,8.82-5.71,8.72-.39-.04-.78-.08-1.18-.12-3.08-.31-6.28-.62-9.58-.92-8.82-2.08-15.84-15.63-14.14-21.33q2.02-5.21,4.14-5.15c1.95,.18,3.85,.37,5.71,.56,6.11,.62,11.55,1.25,16.33,1.88-.56-.88-1.13-1.76-1.7-2.64-4.74-.63-10.14-1.25-16.19-1.86-1.84-.19-3.73-.37-5.66-.55-1.89-.06-2.72,.44-3.43,2.07-1.8,4.68-3.1,8.06,1.19,15.99,4.24,7.84,9.83,13.02,14.96,13.88,3.32,.3,6.54,.61,9.64,.92,.4,.04,.79,.08,1.19,.12,1.67,.07,2.49-.34,3.26-1.64,4.26-9.27,4.7-10.24-.33-19.31Z"/><path class="cls-3" d="M284.07,399.58c-7-.16-14.05-.31-21.12-.45-1-.02-1.99-.04-2.99-.06-7.6-.14-15.24-.26-22.88-.36-.01,1.09-.03,2.18-.05,3.28,7.39,.1,14.77,.21,22.12,.35,1.07,.02,2.13,.04,3.2,.06,7.27,.14,14.52,.29,21.72,.46,8.09,1.1,10.26,10.09,5.68,15.58q-14.26,15.56-17.86,15.68c-7.28-.15-14.59-.29-21.93-.41-.02,1.12-.03,2.24-.05,3.35,7.33,.12,14.64,.25,21.92,.41,3.39-.11,5.39-1,7.93-3.49q14.87-16.13,15.27-20.6c.04-.5,.96-12.18-10.98-13.8Z"/><path class="cls-13" d="M388.52,336.31c0-.07-.66-7.68-7.48-8.21-6.13-.32-12.39-.62-18.77-.92-1.43,0-2.27,.32-3.31,1.26q-9.95,9.85-9.69,13.45c1.03,8.38,1.89,16.89,2.58,25.52,.9,.04,1.8,.07,2.69,.11-.71-8.63-1.59-17.14-2.65-25.53-.11-1.47,.15-2.35,.98-3.27q8.86-8.52,9.9-8.53c6.41,.29,12.7,.6,18.86,.92,3.69,.65,5.23,5.52,3.19,7.67q-7.77,6.93-8.98,6.92c-6.8-.33-13.75-.65-20.82-.95,.13,1.03,.25,2.07,.38,3.11,7.1,.3,14.07,.62,20.89,.95,1.3,0,2.07-.25,3.05-1.02,9.18-7.91,9.48-8.06,9.17-11.5Z"/><path class="cls-3" d="M309.04,546.97c-8.64-.27-17.4-.51-26.25-.73-1.28-.03-2.57-.06-3.85-.09-7.04-.17-14.13-.32-21.25-.45-.05,1.04-.1,2.08-.15,3.12,7.99,.15,15.95,.32,23.85,.51,1.28,.03,2.55,.06,3.83,.09,7.88,.2,15.69,.42,23.41,.66,11.42,.66,14.83,12.05,11.25,21.81-1.11,3.04-3.32,6.33-5.64,8.57l-4.67,4.38-2.21,2.07c-12.95,12.14-13.19,12.37-19.29,12.55-6.77-.19-13.6-.36-20.48-.51-.1,.94-.2,1.87-.3,2.8,6.82,.15,13.6,.32,20.32,.5,4.96-.14,8.12-1.47,12.53-5.27,2.2-2.05,5.13-4.79,7.33-6.84l2.59-2.42c11.88-9.59,13.28-17.61,13.28-17.61,.23-.84,4.73-21.55-14.27-23.14Z"/><path class="cls-3" d="M245.53,694.95c-.89-.03-8.74-.65-9.09-12.67,.25-7.13,.5-14.9,.76-23.28-.63,0-1.27-.02-1.9-.03-.15,8.39-.3,16.16-.44,23.29,.64,13.66,9.4,14.34,10.4,14.37,.76,.01,1.51,.03,2.26,.04,.11-.55,.22-1.12,.33-1.68-.77-.02-1.54-.03-2.32-.05Z"/><path class="cls-6" d="M70.65,426.35c-2.31,.07-4.6,.14-6.85,.22-.86,.03-1.72,.06-2.57,.09-6.66,.23-13.04,.48-19.14,.74-.02,1.11-.04,2.23-.06,3.34,0,0,0,0,0,0,6.1-.27,12.48-.51,19.14-.74,.85-.03,1.71-.06,2.57-.09,2.25-.07,4.53-.15,6.85-.22,12.62-.39,25.7-.69,39.13-.93,0,0,0,0,0,0,.01-1.12,.03-2.23,.05-3.34-13.43,.23-26.51,.54-39.12,.93Z"/><path class="cls-3" d="M117.67,425.3c-.02,1.11-.04,2.23-.05,3.34h0c7.55-.11,15.2-.2,22.93-.27h0c.01-1.12,.03-2.24,.05-3.35-7.73,.07-15.38,.16-22.93,.27Z"/><path class="cls-3" d="M67.75,279.85c-.42,.9-.84,1.8-1.26,2.7,3.99-.19,8.14-.37,12.44-.54,.39-.9,.78-1.8,1.17-2.7-4.27,.17-8.39,.35-12.35,.54Z"/><path class="cls-3" d="M141.6,507.65c-.09-1.08-.17-2.16-.26-3.24-.37-4.74-.69-9.51-.98-14.29-.89-9.75-6-14.87-14.16-15.21-2.57,.03-5.13,.07-7.68,.11,.06,1.1,.12,2.19,.18,3.29,2.55-.04,5.1-.07,7.67-.11,6.16,.14,10.49,3.81,11.15,11.95,.3,4.78,.63,9.55,1.02,14.29,.09,1.08,.18,2.16,.27,3.24,.4,4.7,.84,9.39,1.32,14.04,.92,0,1.84-.02,2.76-.03-.47-4.66-.89-9.34-1.27-14.04Z"/><path class="cls-6" d="M210.85,269.19c-.09,.87-.17,1.74-.26,2.62,3.68,.02,7.37,.05,11.06,.08,.06-.88,.12-1.75,.17-2.62-3.66-.03-7.32-.06-10.97-.08Z"/><path class="cls-3" d="M198.22,269.14c-.12,.87-.24,1.74-.36,2.62,3.18,0,6.37,.02,9.57,.04,.09-.88,.19-1.75,.28-2.62-3.17-.02-6.33-.03-9.49-.04Z"/><path class="cls-3" d="M317.28,302.77c-4.52-.15-9.08-.29-13.68-.43,.11,.96,.22,1.92,.33,2.88,4.62,.14,9.2,.28,13.75,.43-.13-.96-.27-1.93-.41-2.88Z"/><path class="cls-3" d="M329.83,303.21c-2.36-.09-4.72-.17-7.1-.25,.15,.96,.29,1.92,.44,2.88,2.39,.08,4.77,.17,7.14,.25-.16-.97-.32-1.93-.48-2.89Z"/><path class="cls-13" d="M354.88,371.69c-.9-.04-1.8-.07-2.7-.11,.29,3.92,.54,7.87,.76,11.84,.91,.04,1.82,.07,2.72,.11-.23-3.97-.49-7.92-.79-11.84Z"/><path class="cls-3" d="M355.91,388.22c-.91-.04-1.82-.08-2.73-.11,.59,12.27,.86,24.74,.8,37.39,.92,.04,1.84,.08,2.76,.11,.06-12.65-.22-25.12-.83-37.39Z"/><path class="cls-3" d="M379.26,540.6c-.45,2.05-.92,4.09-1.4,6.12-.34,1.45-.69,2.89-1.04,4.33,.79,.04,1.58,.08,2.37,.13,.36-1.44,.71-2.88,1.06-4.33,.49-2.03,.96-4.07,1.42-6.12-.8-.04-1.6-.09-2.4-.13Z"/><path class="cls-3" d="M468.34,370.27c-.33-.03-.67-.07-1-.1-.27-.03-.54-.06-.82-.08,.59,3.14,1.14,6.29,1.65,9.45,.28,.03,.55,.06,.82,.08,.34,.03,.68,.07,1.01,.1-.51-3.16-1.06-6.31-1.66-9.45Z"/><path class="cls-13" d="M450.43,272.23c-.97-.14-1.97-.28-3.01-.42,.57,.88,1.14,1.76,1.71,2.64,1.04,.14,2.06,.29,3.03,.43-.57-.89-1.15-1.77-1.73-2.65Z"/><path class="cls-13" d="M516.64,374.08c-.07-.06-.15-.12-.24-.18,.76,2.99,1.47,5.99,2.13,9,.09,.06,.17,.12,.24,.19-.66-3.01-1.37-6.01-2.13-9Z"/><path class="cls-3" d="M508.36,346.21c-.13-.22-.33-.43-.59-.65-.07-.06-.15-.12-.23-.18-.12-.09-.26-.18-.41-.27,.38,1.03,.76,2.07,1.13,3.11,.15,.09,.28,.18,.41,.27,.08,.06,.16,.12,.23,.18,.26,.22,.46,.43,.59,.65-.37-1.04-.75-2.08-1.13-3.11Z"/><path class="cls-6" d="M476.7,596.57c-.5,.06-.83,.1-2.4,1.74-5.43,5.72-6.78,7.02-11.8,11.86l-.95,2.15c5.88-5.61,7.02-6.8,11.81-11.79,.83-.87,1.15-1.09,1.6-1.15,.45,.56-.39,2.5-2.56,5.92-3.63,5.48-7.44,10.85-11.44,16.08-1.19,1.53-1.96,2.42-3.06,3.53-12.69,12.29-13.7,12.43-14.18,12.5-.9-.22-1.9-.45-2.97-.68-.72,.83-1.44,1.66-2.16,2.49,1.07,.22,2.05,.45,3.16,.67,.74-.2,1.52-.71,3.07-2.02,12.49-11.07,14.12-13.16,16.6-16.34,4-5.23,7.83-10.59,11.46-16.07,3.23-5.06,4.52-8.05,3.84-8.89Z"/><path class="cls-3" d="M433.44,635.41c-.31-.05-.62-.1-.93-.15-.68-.1-1.38-.21-2.1-.31-.68,.84-1.37,1.68-2.06,2.51,.71,.1,1.4,.21,2.07,.31,.31,.05,.62,.1,.92,.14,2.43,.38,4.59,.77,6.5,1.15,.72-.83,1.44-1.66,2.15-2.49-1.93-.39-4.12-.78-6.57-1.17Z"/><path class="cls-3" d="M526.1,437.38c-.17-.44-.59-.88-1.28-1.33-1.18-.09-1.96,9.69-2.27,18.1,.16,.06,.31,.13,.46,.19,.34-8.71,.98-14.17,1.75-14.96,.04,0,.1,0,.14,.01,.68,.45,1.11,.89,1.28,1.33-.02-1.12-.05-2.23-.08-3.34Z"/><path class="cls-3" d="M446.28,320.09c-2.44-.23-4.94-.45-7.49-.67,.34,1,.67,2,.99,3,2.57,.22,5.08,.45,7.53,.67-.34-1-.68-2-1.03-3Z"/><g><path class="cls-13" d="M494.3,318c-.3-.13-.62-.25-1.03-.41-.19-.21-.31-.34-.77-1.12q-2.24-3.85-2.6-4.53c-2.7-5.31-5.55-10.53-8.57-15.64-.66-1.13-.79-1.45-.95-1.86-1.36-4.13-3.61-7.86-5.37-11.8,.38,.25,.65,.51,.82,.76l-1.9-2.73c-.17-.24-.44-.49-.82-.7,.07,.14,.16,.31,.24,.44,2.96,5.02,4.55,10.69,7.47,15.72,3.01,5.11,5.86,10.33,8.55,15.64,.59,1.16,.99,1.89,1.58,2.9q3.13,5.4,3.78,5.93c.35,.13,.67,.25,.98,.38-.47-.99-.94-1.98-1.42-2.97Z"/><path class="cls-13" d="M491.25,310.58c-.51-.98-.76-1.51-.93-1.96-1.79-4.69-1.96-5.01-4.9-10.33l-.42-.7-1.41-2.32c3.21,5.54,3.87,7.26,5.32,11.03,.12,.31,.55,1.33,2,4.12,.48,.91,.95,1.83,1.42,2.74,.12,.06,.24,.11,.36,.17-.47-.92-.94-1.83-1.42-2.75Z"/></g><path class="cls-3" d="M496.82,319.5c-.35-.36-.89-.73-1.62-1.09,.48,.99,.95,1.98,1.42,2.97,.74,.37,1.28,.74,1.63,1.1-.47-1-.95-1.99-1.43-2.98Z"/><path class="cls-3" d="M503.84,556.37c-.38,.17-1.39,2.11-3.26,6.27-1.19,2.67-2.41,5.32-3.67,7.94-.78,1.62-1.24,2.63-1.82,3.98q-3.45,8.01-3.46,8.08c.12,.19,.19,.37,.21,.55,.52-.97,1.04-1.95,1.56-2.93-.02-.18-.09-.37-.22-.56,.02-.18,.04-.31,.6-1.55,1.13-2.46,2.15-4.97,3.32-7.41,1.26-2.62,2.49-5.27,3.67-7.94,1.32-2.91,1.56-3.16,1.77-3.38,.04,.04,.07,.08,.1,.24-.18,.68-.6,1.78-1.44,3.68-1.66,3.73-3.4,7.41-5.21,11.06,.03,.06,.06,.11,.08,.17,1.81-3.64,3.55-7.32,5.21-11.05,1.75-4,2.64-6.37,2.65-7.03-.03-.04-.07-.08-.1-.13Z"/><path class="cls-3" d="M428.34,428.73c-.88-.06-1.75-.12-2.64-.18,0,1.11,0,2.23,0,3.34,.88,.06,1.76,.12,2.64,.18,8.21,1.49,8.02,12.12,8.01,12.57-.29,8.81-.85,17.57-1.68,26.27,.75,.05,1.49,.11,2.24,.16,.84-8.7,1.4-17.46,1.7-26.27,.04-1.44,.1-14.12-10.26-16.08Z"/><path class="cls-3" d="M410.93,427.62c0,1.11,0,2.23,0,3.34,3.8,.23,7.53,.46,11.21,.7,0-1.11,0-2.23,0-3.34-3.67-.24-7.41-.47-11.2-.7Z"/><path class="cls-3" d="M515.27,438.45c-1.51-.35-3.18-.7-5.01-1.05-1.11-.41-1.81-1.54-2.67-4.31l-.89-3.01-.82-2.67c-2.54-7.77-2.64-8.07-4.19-8.53-1.32-.21-2.7-.41-4.13-.62-2.02,.21-3.02,2.73-3.06,7.72,.03,.98,.06,1.97,.09,2.95,.07,1.85,.24,3.01,.67,4.63,.68,2.42,1.52,5.66,2.16,8.09l.71,2.9c.54,2.28,1.2,5.33,1.7,7.62l1.15-1.68c-.49-2.3-1.19-5.36-1.71-7.66l-.71-2.9q-2.52-9.87-2.56-10.8c-.03-.99-.06-1.97-.09-2.95,.02-2.97,.61-4.48,1.82-4.6,1.43,.21,2.81,.41,4.14,.62,.62,.18,1,.69,1.46,1.94l1.64,5,.82,2.68c1.7,5.79,2.4,8.18,4.47,8.94,1.83,.35,3.5,.7,5.01,1.05,0-1.12,0-2.23-.01-3.34Z"/><path class="cls-3" d="M450.03,588.22c7.37-31.75,3.58-32.63,1.76-33.05-2.66-.27-5.39-.53-8.21-.79-.69-.06-1.38-.13-2.07-.19-.84-.08-1.69-.15-2.55-.23-.35,1.03-.71,2.05-1.07,3.08,1.18,.1,2.35,.21,3.5,.31,.69,.06,1.37,.13,2.05,.19,2.46,.23,4.87,.46,7.21,.7,1.4,.33,1.92,1.34,1.84,3.63-1.24,13.36-2.85,20.61-4.41,27.62-.22,1.01-.46,2.37-.53,3.4-.29,4.29,1.6,4.87,2.51,5.14,.84,.11,1.67,.22,2.47,.33,.54-.93,1.08-1.87,1.62-2.81-.81-.11-1.64-.22-2.49-.33-2.07-.63-2.51-2.53-1.63-6.99Z"/><path class="cls-3" d="M432.94,553.45c-.34,1.03-.69,2.06-1.04,3.08,1.5,.12,2.99,.25,4.45,.38,.36-1.02,.71-2.05,1.07-3.08-1.47-.13-2.96-.25-4.47-.38Z"/><path class="cls-6" d="M458.73,273.59c-1.83-.34-3.86-.69-6.07-1.03,.59,.88,1.17,1.76,1.75,2.65,2.23,.34,4.27,.69,6.12,1.04-.6-.89-1.2-1.77-1.8-2.66Z"/><path class="cls-6" d="M235.69,636.99c0,.27,0,.54-.01,.81-.08,4.72-.16,9.28-.24,13.69,.66,0,1.33,.02,1.99,.03,.13-4.41,.26-8.97,.39-13.69,0-.27,.01-.54,.02-.81-.71-.01-1.43-.02-2.14-.03Z"/><path class="cls-6" d="M134.86,264.58c-1.61,4.62-3.15,9.35-4.62,14.19,.8-.01,1.59-.03,2.39-.04,1.44-4.84,2.95-9.57,4.52-14.19-.77,.01-1.53,.03-2.3,.04Z"/><path class="cls-6" d="M491.8,583.6c-.02,.08-.06,.15-.1,.23l.47-.88,1.09-2.06c.04-.07,.07-.15,.09-.22-.51,.98-1.03,1.95-1.56,2.93Z"/><path class="cls-13" d="M122.83,251.66c-.38,.82-.75,1.64-1.12,2.46,4.8-.12,9.68-.22,14.62-.32,.33-.82,.65-1.64,.98-2.46-4.89,.09-9.73,.2-14.49,.31Z"/></g><circle class="cls-13" cx="248" cy="481.61" r="10.65" transform="translate(-277.83 611.85) rotate(-76.67)"/><circle class="cls-13" cx="325.24" cy="532.95" r="10.65" transform="translate(-281.59 386.08) rotate(-45)"/><circle class="cls-13" cx="330.31" cy="371.1" r="10.65" transform="translate(-165.66 342.26) rotate(-45)"/><circle class="cls-6" cx="237.34" cy="546.88" r="10.65" transform="translate(-340.55 693.3) rotate(-80.76)"/><path class="cls-6" d="M109.67,253.32c0,4.26-3.46,7.72-7.72,7.72s-7.72-3.46-7.72-7.72,3.46-7.72,7.72-7.72,7.72,3.46,7.72,7.72Z"/><circle class="cls-3" cx="143.7" cy="549.94" r="10.65" transform="translate(-380.44 330.02) rotate(-52.59)"/><circle class="cls-3" cx="356.52" cy="446.6" r="10.65" transform="translate(-211.37 382.9) rotate(-45)"/><circle class="cls-13" cx="401.75" cy="402.26" r="10.65" transform="translate(-166.77 401.9) rotate(-45)"/><circle class="cls-6" cx="163.81" cy="427.62" r="10.65" transform="translate(-254.39 241.08) rotate(-45)"/><circle class="cls-13" cx="112.6" cy="459.3" r="10.65" transform="translate(-291.8 214.15) rotate(-45)"/><rect class="cls-3" x="220.71" y="306.99" width="23.68" height="2.4"/><g><g><circle class="cls-13" cx="1459.68" cy="39.97" r="10.65" transform="translate(1084.14 1451.08) rotate(-76.67)"/><circle class="cls-6" cx="1556.66" cy=".15" r="10.65" transform="translate(455.83 1100.77) rotate(-45)"/><circle class="cls-6" cx="1394.89" cy="39.97" r="10.65" transform="translate(380.29 998.04) rotate(-45)"/><circle class="cls-3" cx="1459.68" cy="124.56" r="7.72"/><rect class="cls-6" x="1458.48" y="-23.6" width="2.4" height="34.76"/><rect class="cls-3" x="1458.48" y="65.2" width="2.4" height="23.68"/><rect class="cls-6" x="1573.71" y="-1.05" width="25.15" height="2.4"/><rect class="cls-6" x="1410.51" y="38.77" width="16.4" height="2.4"/><rect class="cls-6" x="1451.48" y="101.66" width="16.4" height="2.4"/><path class="cls-3" d="M1667.2,9.97c-8.79,0-16.74,4.86-20.74,12.69l-9.4,18.4c-3.5,6.85-10.46,11.11-18.15,11.11h-29.55v2.4h29.55c8.6,0,16.37-4.76,20.28-12.41l9.4-18.4c3.59-7.02,10.72-11.39,18.61-11.39h14.76v-2.4h-14.76Z"/><path class="cls-13" d="M1533.15,52.16c-8.93,0-16.19-7.27-16.19-16.2V17.54c0-8.93,7.26-16.19,16.19-16.19h7.7V-1.05h-7.7c-10.25,0-18.59,8.34-18.59,18.59v18.43c0,10.25,8.34,18.59,18.59,18.59h47.35v-2.4h-47.35Z"/></g><circle class="cls-6" cx="1536.29" cy="186.09" r="10.65"/><circle class="cls-3" cx="1483.22" cy="85.44" r="7.72"/><circle class="cls-3" cx="1757.38" cy="37.89" r="10.65"/><rect class="cls-6" x="1536.45" y="102.15" width="2.4" height="32.05"/><rect class="cls-3" x="1504.28" y="84.24" width="23.69" height="2.4"/><circle class="cls-13" cx="1712.3" cy="126.54" r="10.65" transform="translate(412.04 1247.84) rotate(-45)"/><circle class="cls-13" cx="1646.86" cy="163.45" r="7.72"/><rect class="cls-6" x="1516.13" y="162.25" width="111.19" height="2.4"/><rect class="cls-6" x="1536.45" y="73.79" width="2.4" height="16.4"/><path class="cls-13" d="M1500.43,164.65h2.17s0-2.4,0-2.4h-2.17c-9.44,0-17.11-7.68-17.11-17.11v-17.92s-2.4,0-2.4,0v17.92c0,10.76,8.75,19.51,19.51,19.51Z"/><path class="cls-3" d="M1573.77,147.65h2.4s0-41.39,0-41.39c0-12.14-9.88-22.02-22.02-22.02h-6.81s0,2.4,0,2.4h6.81c10.82,0,19.62,8.8,19.62,19.62v41.39Z"/><path class="cls-13" d="M1594.35,205.12h32.96s0-2.4,0-2.4h-32.96c-10.03,0-18.19-8.16-18.19-18.19v-8.24s-2.4,0-2.4,0v8.24c0,11.35,9.24,20.59,20.59,20.59Z"/><rect class="cls-13" x="1701.1" y="163.43" width="93.3" height="2.4"/></g></g></g><g class="cls-9"><g><rect class="cls-16" x="381.33" y="449.59" width="276.74" height="7"/><rect class="cls-16" x="381.33" y="484.49" width="7" height="7.01"/><rect class="cls-16" x="395.34" y="484.49" width="262.73" height="7.01"/><rect class="cls-16" x="381.33" y="511.07" width="7" height="7.01"/><rect class="cls-16" x="395.34" y="511.07" width="262.73" height="7.01"/><rect class="cls-16" x="381.33" y="537.65" width="7" height="7"/><rect class="cls-16" x="395.34" y="537.65" width="262.73" height="7"/><rect class="cls-1" x="381.33" y="564.27" width="7" height="7.01"/><rect class="cls-16" x="395.34" y="564.27" width="262.73" height="7.01"/><rect class="cls-18" x="381.33" y="590.85" width="7" height="7"/><rect class="cls-16" x="395.34" y="590.85" width="262.73" height="7"/><rect class="cls-16" x="381.33" y="468.63" width="276.74" height="23.6"/><rect class="cls-16" x="381.33" y="611.53" width="276.74" height="23.6"/></g><g><g><g><path class="cls-3" d="M123.64,228.99c.87-12.32,10.74-22.2,23.06-23.06v-12.83c-9.41,.43-18.19,4.3-24.89,11-6.7,6.7-10.57,15.49-11,24.89h12.83Z"/><path class="cls-3" d="M150.23,205.93c12.32,.87,22.2,10.74,23.06,23.06h12.83c-.43-9.41-4.3-18.19-11-24.89-6.7-6.7-15.49-10.57-24.89-11v12.83Z"/><path class="cls-3" d="M146.7,255.58c-12.32-.87-22.2-10.74-23.06-23.06h-12.83c.43,9.41,4.3,18.19,11,24.89,6.7,6.7,15.49,10.57,24.89,11v-12.83Z"/><path class="cls-3" d="M173.29,232.52c-.87,12.32-10.74,22.2-23.06,23.06v12.83c9.41-.43,18.19-4.3,24.89-11,6.7-6.7,10.57-15.49,11-24.89h-12.83Z"/></g><rect class="cls-16" x="133.84" y="224.04" width="29.25" height="13.43"/></g><g><g><path class="cls-3" d="M224.35,228.99c.87-12.32,10.74-22.2,23.06-23.06v-12.83c-9.41,.43-18.19,4.3-24.89,11-6.7,6.7-10.57,15.49-11,24.89h12.83Z"/><path class="cls-3" d="M250.94,205.93c12.32,.87,22.2,10.74,23.06,23.06h12.83c-.43-9.41-4.3-18.19-11-24.89-6.7-6.7-15.49-10.57-24.89-11v12.83Z"/><path class="cls-3" d="M247.42,255.58c-12.32-.87-22.2-10.74-23.06-23.06h-12.83c.43,9.41,4.3,18.19,11,24.89,6.7,6.7,15.49,10.57,24.89,11v-12.83Z"/><path class="cls-3" d="M274.01,232.52c-.87,12.32-10.74,22.2-23.06,23.06v12.83c9.41-.43,18.19-4.3,24.89-11,6.7-6.7,10.57-15.49,11-24.89h-12.83Z"/></g><rect class="cls-16" x="234.55" y="224.04" width="29.25" height="13.43"/></g><g><g><path class="cls-3" d="M325.07,228.99c.87-12.32,10.74-22.2,23.06-23.06v-12.83c-9.41,.43-18.19,4.3-24.89,11-6.7,6.7-10.57,15.49-11,24.89h12.83Z"/><path class="cls-3" d="M351.66,205.93c12.32,.87,22.2,10.74,23.06,23.06h12.83c-.43-9.41-4.3-18.19-11-24.89-6.7-6.7-15.49-10.57-24.89-11v12.83Z"/><path class="cls-3" d="M348.13,255.58c-12.32-.87-22.2-10.74-23.06-23.06h-12.83c.43,9.41,4.3,18.19,11,24.89,6.7,6.7,15.49,10.57,24.89,11v-12.83Z"/><path class="cls-3" d="M374.72,232.52c-.87,12.32-10.74,22.2-23.06,23.06v12.83c9.41-.43,18.19-4.3,24.89-11,6.7-6.7,10.57-15.49,11-24.89h-12.83Z"/></g><rect class="cls-16" x="335.27" y="224.04" width="29.25" height="13.43"/></g></g><g><g><g><path class="cls-3" d="M123.64,133.03c.87-12.32,10.74-22.2,23.06-23.06v-12.83c-9.41,.43-18.19,4.3-24.89,11-6.7,6.7-10.57,15.49-11,24.89h12.83Z"/><path class="cls-3" d="M150.23,109.97c12.32,.87,22.2,10.74,23.06,23.06h12.83c-.43-9.41-4.3-18.19-11-24.89-6.7-6.7-15.49-10.57-24.89-11v12.83Z"/><path class="cls-3" d="M146.7,159.62c-12.32-.87-22.2-10.74-23.06-23.06h-12.83c.43,9.41,4.3,18.19,11,24.89,6.7,6.7,15.49,10.57,24.89,11v-12.83Z"/><path class="cls-3" d="M173.29,136.56c-.87,12.32-10.74,22.2-23.06,23.06v12.83c9.41-.43,18.19-4.3,24.89-11,6.7-6.7,10.57-15.49,11-24.89h-12.83Z"/></g><rect class="cls-16" x="133.84" y="128.08" width="29.25" height="13.43"/></g><g><g><path class="cls-3" d="M224.35,133.03c.87-12.32,10.74-22.2,23.06-23.06v-12.83c-9.41,.43-18.19,4.3-24.89,11-6.7,6.7-10.57,15.49-11,24.89h12.83Z"/><path class="cls-3" d="M250.94,109.97c12.32,.87,22.2,10.74,23.06,23.06h12.83c-.43-9.41-4.3-18.19-11-24.89-6.7-6.7-15.49-10.57-24.89-11v12.83Z"/><path class="cls-3" d="M247.42,159.62c-12.32-.87-22.2-10.74-23.06-23.06h-12.83c.43,9.41,4.3,18.19,11,24.89,6.7,6.7,15.49,10.57,24.89,11v-12.83Z"/><path class="cls-3" d="M274.01,136.56c-.87,12.32-10.74,22.2-23.06,23.06v12.83c9.41-.43,18.19-4.3,24.89-11,6.7-6.7,10.57-15.49,11-24.89h-12.83Z"/></g><rect class="cls-16" x="234.55" y="128.08" width="29.25" height="13.43"/></g><g><g><path class="cls-3" d="M325.07,133.03c.87-12.32,10.74-22.2,23.06-23.06v-12.83c-9.41,.43-18.19,4.3-24.89,11-6.7,6.7-10.57,15.49-11,24.89h12.83Z"/><path class="cls-3" d="M351.66,109.97c12.32,.87,22.2,10.74,23.06,23.06h12.83c-.43-9.41-4.3-18.19-11-24.89-6.7-6.7-15.49-10.57-24.89-11v12.83Z"/><path class="cls-3" d="M348.13,159.62c-12.32-.87-22.2-10.74-23.06-23.06h-12.83c.43,9.41,4.3,18.19,11,24.89,6.7,6.7,15.49,10.57,24.89,11v-12.83Z"/><path class="cls-3" d="M374.72,136.56c-.87,12.32-10.74,22.2-23.06,23.06v12.83c9.41-.43,18.19-4.3,24.89-11,6.7-6.7,10.57-15.49,11-24.89h-12.83Z"/></g><rect class="cls-16" x="335.27" y="128.08" width="29.25" height="13.43"/></g></g><g><g><path class="cls-16" d="M1775.62,269.37v388.06h-388.06V269.37h388.06Zm-3.14,384.92V272.51h-381.78v381.78h381.78Z"/><rect class="cls-16" x="1737.49" y="270.94" width="3.14" height="384.92"/><rect class="cls-16" x="1702.49" y="270.94" width="3.14" height="384.92"/><rect class="cls-16" x="1667.5" y="270.94" width="3.14" height="384.92"/><rect class="cls-16" x="1632.51" y="270.94" width="3.14" height="384.92"/><rect class="cls-16" x="1597.52" y="270.94" width="3.14" height="384.92"/><rect class="cls-16" x="1562.52" y="270.94" width="3.14" height="384.92"/><rect class="cls-16" x="1527.53" y="270.94" width="3.14" height="384.92"/><rect class="cls-16" x="1492.54" y="270.94" width="3.14" height="384.92"/><rect class="cls-16" x="1457.54" y="270.94" width="3.14" height="384.92"/><rect class="cls-16" x="1422.55" y="270.94" width="3.14" height="384.92"/><rect class="cls-16" x="1389.13" y="304.36" width="384.92" height="3.14"/><rect class="cls-16" x="1389.13" y="339.35" width="384.92" height="3.14"/><rect class="cls-16" x="1389.13" y="374.34" width="384.92" height="3.14"/><rect class="cls-16" x="1389.13" y="409.34" width="384.92" height="3.14"/><rect class="cls-16" x="1389.13" y="444.33" width="384.92" height="3.14"/><rect class="cls-16" x="1389.13" y="479.32" width="384.92" height="3.14"/><rect class="cls-16" x="1389.13" y="514.32" width="384.92" height="3.14"/><rect class="cls-16" x="1389.13" y="549.31" width="384.92" height="3.14"/><rect class="cls-16" x="1389.13" y="584.3" width="384.92" height="3.14"/><rect class="cls-16" x="1389.13" y="619.3" width="384.92" height="3.14"/></g><g><rect class="cls-17" x="1425.69" y="530.73" width="25.13" height="123.69"/><rect class="cls-17" x="1460.69" y="389.38" width="25.13" height="265.04"/><rect class="cls-17" x="1495.68" y="463.4" width="25.13" height="191.02"/><rect class="cls-17" x="1530.67" y="499.32" width="25.13" height="155.1"/><rect class="cls-17" x="1565.67" y="599.06" width="25.13" height="55.36"/><rect class="cls-17" x="1600.66" y="463.4" width="25.13" height="191.02"/><rect class="cls-17" x="1635.65" y="433.36" width="25.13" height="221.06"/><rect class="cls-17" x="1670.65" y="573.14" width="25.13" height="81.28"/><rect class="cls-17" x="1705.64" y="508.88" width="25.13" height="145.54"/></g><g><rect class="cls-3" x="1422.55" y="530.73" width="25.13" height="123.69"/><rect class="cls-3" x="1457.54" y="389.38" width="25.13" height="265.04"/><rect class="cls-3" x="1492.54" y="463.4" width="25.13" height="191.02"/><rect class="cls-3" x="1527.53" y="499.32" width="25.13" height="155.1"/><rect class="cls-3" x="1562.53" y="599.06" width="25.13" height="55.36"/><rect class="cls-3" x="1597.52" y="463.4" width="25.13" height="191.02"/><rect class="cls-3" x="1632.51" y="433.36" width="25.13" height="221.06"/><rect class="cls-3" x="1667.51" y="573.14" width="25.13" height="81.28"/><rect class="cls-3" x="1702.5" y="508.88" width="25.13" height="145.54"/></g></g></g></g><g class="cls-7"><g class="cls-5"><polygon class="cls-4" points="4089.02 198.74 4038.18 170.83 4038.18 92.5 3900.81 92.5 3900.81 8.28 3724.19 8.28 3724.19 221.75 3683.16 221.75 3683.16 271.69 3651.04 271.69 3651.04 391.16 3613.58 391.16 3613.58 226.65 3520.81 226.65 3520.81 178.67 3468.18 178.67 3468.18 255.54 3419.12 282.46 3419.12 437.18 3303.16 437.18 3303.16 97.39 3178.28 97.39 3178.28 161.04 3080.16 161.04 3053.4 175.73 3053.4 210.98 2930.3 210.98 2907.11 223.71 2907.11 343.18 2855.37 343.18 2855.37 159.08 2759.03 159.08 2759.03 191.4 2606.5 191.4 2606.5 269.24 2578.85 284.42 2578.85 360.89 2532.86 360.89 2532.86 172.18 2470.42 158.47 2470.42 107.55 2302.72 107.55 2302.72 322.98 2275.96 322.98 2275.96 49.78 2240.28 50.76 2135.02 80.13 2135.02 348.44 2090.42 348.44 2090.42 171.2 2063.66 135.95 2063.66 122.24 2001.22 122.24 2001.22 135.95 1967.32 135.95 1940.56 167.28 1915.58 167.28 1915.58 36.07 1851.36 36.07 1851.36 83.56 1759.48 83.56 1706.85 112.45 1706.85 782.2 2422.47 782.2 2532.86 782.2 2845.23 782.2 2845.23 781.66 4089.02 780.85 4089.02 198.74"/><polygon class="cls-13" points="3737.75 234.12 3737.75 571.93 3694.15 571.93 3694.15 437.49 3632.39 385.1 3632.39 181.73 3554.27 181.73 3508.86 143.21 3450.73 143.21 3450.73 348.13 3310.85 348.13 3310.85 580.77 3274.52 580.77 3274.52 255.68 3172.79 300.37 3172.79 494.49 3145.54 494.49 3145.54 195.6 3111.02 195.6 3111.02 107.78 3102.23 107.78 3102.23 87.75 3025.01 87.75 3025.01 104.7 2976.6 104.7 2976.6 172.49 2896.67 172.49 2876.68 195.6 2876.68 472.92 2808.56 472.92 2808.56 416.69 2765.87 380.48 2765.87 247.98 2616.91 247.98 2616.91 357.37 2562.42 357.37 2562.42 449.81 2497.02 511.44 2455.24 511.44 2455.24 218.71 2338.97 150.92 2338.97 422.08 2311.73 422.08 2311.73 235.66 2173.66 235.66 2173.66 300.37 2110.08 300.37 2110.08 610.05 2082.84 610.05 2082.84 476 1990.19 476 1990.19 434.41 1973.84 414.38 1873.93 414.38 1866.66 955.16 3590.88 955.16 3694.15 955.16 3737.75 955.16 3856 955.16 3856 234.12 3737.75 234.12"/></g><g class="cls-12"><g><g><path class="cls-13" d="M1904.91,283.74c-1.07,0-2.13,0-3.2,0,0,4.06,.02,8.1,.05,12.14,1.06,0,2.12,0,3.19,0-.03-4.04-.05-8.08-.04-12.14Z"/><path class="cls-13" d="M1682.07,245.53c-.12,1.18-.22,2.36-.33,3.54,6.31-.97,14.12-1.88,23.38-2.73,.1-1.18,.2-2.36,.3-3.54-9.25,.85-17.05,1.76-23.36,2.73Z"/><path class="cls-13" d="M2001.38,368.02c-2.54-2.79-4.62-3.82-8.24-4.08-14.8-.27-29.76-.28-44.59-.61-5.53-.29-8.89-3.53-9.11-10.07-.09-5.28-.16-10.59-.22-15.92-.37-8.49-4.59-13.38-12.51-13.76-4.04-.02-8.08-.03-12.11-.04-5.63-.64-8.7-4-9.4-10.25-.09-4.6-.16-9.22-.21-13.85-1.06,0-2.12,0-3.18,0,.05,4.63,.13,9.25,.23,13.85,.95,8.4,5.08,12.9,12.64,13.77,4.02,0,8.05,.02,12.08,.04,5.83,.23,8.66,4,9.3,10.22,.07,5.33,.16,10.64,.26,15.92,.21,8.24,4.52,13.09,12.26,13.54,14.82,.13,29.68,.33,44.42,.61q3.85,.28,22.77,23.89c1.38,.03,2.76,.07,4.14,.1q-13.06-16.64-18.53-23.34Z"/><path class="cls-13" d="M1976.09,551.38s-.53,3.47-1.1,5.7c-.41,1.72-.74,2.79-1.28,3.58-.7,1.03-1.5,1.39-2.23,1.41-1.56,.05-2.64-1.43-2.82-1.74l-9.85-16.7c-1.25-2.21-1.3-3.87-1.32-4.18-1.26-14.85-2.27-31.27-3.14-49.91-.35-7.45-.67-15.17-.96-23.13-.16-3.69-.18-5.16-4.1-8.64-3.36-2.99-9.17-8.06-19.67-16.62-2.52-2.54-3.01-3.48-3.7-7.13-1.32-15.09-2.44-30.87-3.33-47.29-.49-8.88-.9-17.86-1.25-26.92-1.06-8.27-5.17-12.7-12.58-13.54-13.75,0-27.38,.05-40.78,.18,.09,1.16,.18,2.32,.28,3.48,13.36-.12,26.94-.18,40.65-.17,5.5,.62,8.56,3.91,9.37,10.05,.38,9.06,.83,18.04,1.35,26.92,.97,16.42,2.16,32.2,3.58,47.29,.48,3.32-.11,4.78,4.64,9.3,3.41,3.24,10.01,7.95,19.83,16.34,2.45,2.09,2.95,3.33,3.21,6.74,.63,8.06,.75,15.68,1.17,23.13,1.08,19.03,1.69,35.47,3.09,49.73,.24,1.53,.17,2.7,1.1,4.42l10.84,17.61c2.9,4.06,6.04,3.8,7.77,1.03,.53-.85,1.32-3,1.64-4.57l1.13-5.58c-.32-.1-1.23-.68-1.55-.78Z"/><path class="cls-13" d="M1791.93,310.59c-5.68-3.92-5.94-6.78-6.43-11.15-.66-11.89-.87-21.94-.87-33.01-.93,.03-1.85,.06-2.76,.09-.16,12.04,.09,24.02,.76,35.91q1.08,9.73,65.88,46.19c1.99,1.04,3.37,1.41,5.48,1.46,3.73-.05,7.48-.09,11.25-.13-.1-1.16-.19-2.32-.29-3.48-3.78,.04-7.54,.25-11.32,.21-.34,0-1.42,.11-3.22-.93l-58.49-35.16Z"/><path class="cls-13" d="M1783.93,218.22c-1.69-2.2-4.64-4.52-6.65-6.44-3.05-2.9-9.44-9.2-17.88-18.85-1.45-1.52-2.55-2.01-4.55-2.01-4.52,.23-8.86,.48-13.02,.73-1.26,.2-4.27-.21-8.09,5.93-3.88,6.23-10.54,18.01-20.67,40.28-1.48,3.01-2.72,4.28-4.56,4.66-.47,.04-.93,.08-1.4,.12-.11,1.18-.21,2.36-.3,3.54,.46-.04,.93-.08,1.4-.12,3.59-.75,4.52-2.77,8.98-12.49,2.51-5.47,8.22-17.17,18.26-34.06,1.9-2.9,3.44-4.11,5.68-4.46,4.18-.25,8.53-.5,13.06-.73q2.07,0,8.11,6.83c1.96,2.21,7.72,8.49,18.9,19.03,2.07,2.24,2.77,4.48,2.61,8.27-1.01,11.34-1.63,22.85-1.87,34.49,.92-.03,1.84-.06,2.76-.09,.24-11.64,.85-23.15,1.85-34.49,.09-2.07,.26-6.36-2.62-10.12Z"/></g><g><path class="cls-13" d="M1861.89,199.97c-5.31-.55-7.83-3.72-7.69-9.68,.61-5.37,1.28-10.7,2-15.98,.39-7.83-2.66-11.96-9.31-12.63-14.79,.24-29.18,.57-43.02,1-13.31,.41-25.6,.89-36.84,1.42-1.19-.09-4.82-.36-15.65-25.85-.98-1.8-1.37-2.07-3.25-2.22-5.25,.37-10.13,.76-14.64,1.17-2.96,.82-4.49,.72-17.29,17.63-1.43,1.71-1.62,1.96-2.86,3-1.91,1.59-2.73,1.29-4.04,1.68-3.25,1.17-5.9,4.81-8.87,12.65-.56,1.63-1.1,3.27-1.63,4.9-2.11,7.01-2.9,9.63,4.09,28.72,1.08,2.14,4.12,1.62,5.17,3.79,1.25,2.57,.84,6.01,.59,8.06-1.37,8.3-2.44,16.7-3.21,25.17-.11,1.18-.21,2.36-.3,3.54-.19,2.32-.35,4.64-.5,6.96,.55-.05,1.11-.1,1.68-.15,.14-2.33,.31-4.65,.49-6.96,.1-1.18,.2-2.36,.3-3.54,.77-8.47,1.83-16.87,3.19-25.17,.98-8.15-.25-12.33-3.75-12.79-2.77-.36-5.66-11.24-7.59-20.31-.22-2.62,.51-3.79,1.53-7.19,.53-1.64,1.07-3.27,1.62-4.9,1.34-3.55,3.07-8.24,6.33-9.91,1.76-.9,2.02-.58,3.08-.7q1.59-.54,16.3-18.25c2.04-2.2,2.6-2.61,4.29-3.08,4.53-.41,9.44-.8,14.72-1.17q1.74,.28,4.52,6.49c3.94,8.8,7.42,14.65,10.21,19.35,1.55,1.9,2.11,2.19,4.57,2.37,11.28-.54,23.62-1.02,36.99-1.43,13.89-.42,28.34-.76,43.19-1,4.97,.5,7.24,3.57,6.93,9.39-.74,5.28-1.42,10.61-2.05,15.98-.2,8.05,3.2,12.33,10.37,13.07,3.89-.04,7.8-.08,11.73-.11,.09-1.14,.19-2.29,.28-3.43-3.92,.03-7.82,.07-11.7,.11Z"/><path class="cls-13" d="M1876.66,199.83c-.09,1.14-.19,2.28-.27,3.43,5.14-.04,10.3-.07,15.49-.08,.08-1.14,.16-2.29,.24-3.43-5.18,.02-10.33,.05-15.45,.08Z"/></g><g><path class="cls-13" d="M1968.96,196.74c-2.26-1.29-3.8-1.74-6.33-1.86-3.9-.04-7.81-.08-11.71-.12-7.99,.8-12.41,5.37-13.52,13.98-.07,2.07-.14,4.14-.21,6.22-.83,6.62-4.2,10.15-10.32,10.8-2.2,0-4.39-.02-6.58-.02-10.24-.58-9.75-7.75-8.69-23.45,.6-5.19,2.53-6.82,6.38-10.08,9.51-8.92,5.65-23.75-6.35-24.41-4.94,0-9.87,0-14.77,.02q-4.98,.26-16.93,10.71c-3.29,3.17-4.69,5.91-5.36,10.47-.35,3.6-.68,7.22-.99,10.86-.1,1.14-.19,2.28-.28,3.43-.41,5.13-.78,10.29-1.1,15.49,1.03,0,2.07-.02,3.11-.02,.32-5.2,.68-10.37,1.08-15.49,.09-1.14,.18-2.29,.27-3.43,.3-3.64,.62-7.26,.96-10.86q.73-5.08,12.47-15.29c2.22-1.78,3.85-2.42,6.45-2.56,4.92-.02,9.87-.02,14.83-.02,7.06,.78,14.72,10.16,2.45,20.46-5.05,4.72-5.07,5.07-6.16,23.16-.11,8.38,4.81,14.07,12.53,14.51,2.19,0,4.39,.01,6.59,.02,8.09-.85,12.55-5.52,13.63-14.28,.06-2.08,.13-4.15,.2-6.22,.83-6.53,4.17-10,10.23-10.6,3.91,.04,7.83,.08,11.74,.12q3.01,.24,27.85,15.81c3.42,2.49,4.79,5.08,5.06,9.54,0,2.89-.02,5.8-.04,8.71,0,.22-.02,1.43-.03,1.65h3.2c.01-.29,.03-1.3,.03-1.59,.01-2.92,.02-5.82,.02-8.71q-.53-8.78-29.69-26.95Z"/><path class="cls-13" d="M1994.6,236.73c-1.56,3.38-1.64,3.47-19.53,14.25-4.62,3.25-6.5,6.71-6.95,12.76,0,.42-.01,.85-.02,1.27-.04,3.11-.08,6.21-.12,9.31q-.41,6.02-18.4,19.74c-1.99,1.39-3.46,1.89-5.8,1.97-13-.1-25.97-.16-38.83-.15-1.06,0-2.12,0-3.19,0-12.74,.01-25.37,.07-37.8,.19,.02,1.19,.05,2.37,.08,3.56,12.42-.12,25.03-.18,37.75-.19,1.06,0,2.12,0,3.18,0,12.85,0,25.8,.05,38.79,.15q4.39-.15,21.64-13.23c3.87-3.34,5.45-6.59,5.82-12,.04-3.1,.08-6.2,.12-9.31,0-.42,.01-.85,.02-1.27q.5-6.82,20.45-18.83c1.21-.81,4.11-2.51,5.75-6.61,.15-.37,.4-1.08,.49-1.53l-3.46-.09Z"/></g><path class="cls-3" d="M1704.37,258.05c-.15,3.15-.27,6.32-.34,9.49,.56-.05,1.12-.1,1.68-.15,.07-3.17,.18-6.33,.34-9.49-.57,.05-1.12,.1-1.68,.15Z"/><path class="cls-13" d="M1903.78,141.96c-2.37,0-4.73,.01-7.09,.02q-1.95-.25-7.09-10.36c-1.1-1.87-2.32-2.61-4.51-2.74-12.05,.09-23.92,.23-35.52,.44-1.39-.16-2.83-.32-10.97-23.42-.69-1.62-1.59-2.22-3.42-2.29-4.55,.11-9.05,.24-13.48,.38-3.1,.09-6.13,.19-9.1,.3,.79-1.91,1.6-3.81,2.42-5.69-.76,.03-1.52,.05-2.27,.08-.83,1.88-1.65,3.78-2.45,5.69-1.79,.06-3.56,.13-5.31,.2-.42,.96-.83,1.93-1.24,2.9,1.76-.07,3.54-.13,5.35-.2-2.37,5.79-4.62,11.72-6.73,17.78-1.09,4.08-.09,6.21,3.07,6.51,2.22-.07,4.47-.15,6.75-.22,3.55-.11,7.14-.21,10.76-.31q1.3,.13,10.09,16.83c1.01,1.57,2.05,2.16,3.97,2.24,7.92-.16,15.96-.29,24.12-.4q1.88,.26,6.75,12.51c1.11,2.26,2.51,3.21,5,3.37,4.46-.04,8.95-.07,13.46-.1q2.91-.18,11.07-8.38c1.04-.88,1.39-1.03,2.64-1.17,.71,0,1.41,0,2.12,0,4.94-.55,6.5-4.11,6.94-5.62,.02-.08,1.88-7.57-5.32-8.35Zm2.48,7.71c-.24,.81-1.09,2.74-3.75,3.03-.7,0-1.41,0-2.11,0-1.99,.11-3.27,.68-4.89,2.16q-7.14,7.15-8.8,7.34c-4.49,.03-8.96,.06-13.4,.1-1.53-.21-1.91-.47-2.69-1.81q-5.5-13.8-8.93-14.01c-8.12,.1-16.13,.23-24,.39-1.1-.12-1.41-.23-2.13-1.2q-9.59-17.66-11.72-17.74c-3.6,.1-7.17,.2-10.7,.3-2.27,.07-4.51,.14-6.71,.21-1.6-.15-2.21-1.43-1.66-3.5,2.09-6.06,4.3-11.99,6.64-17.78,2.99-.1,6.05-.2,9.17-.3,4.46-.14,8.99-.26,13.58-.38,1.11,.13,1.35,.29,1.86,1.24,8.71,24.48,9.5,24.52,12.82,24.68,11.67-.2,23.61-.35,35.73-.44,1.36,.17,1.68,.37,2.45,1.49q5.82,11.49,9.27,11.7c2.37,0,4.75-.02,7.13-.02,3.91,.42,2.88,4.48,2.87,4.52Z"/><path class="cls-13" d="M1962.59,44.46c-18.51-.19-37-.22-54.97-.09-3.28,.36-5.66,2.18-7.28,5.57-.2,.52-.4,1.05-.6,1.58-.05,.13-.09,.25-.14,.37-.95,2.04-2.37,3.14-4.35,3.36-3.12,.03-6.22,.07-9.72,.13-1.08,.19-1.68,.29-3.15,1.12q-11.2,6.77-12.76,10c-2.45,5.75-4.78,11.69-7.01,17.83,.81-.01,1.62-.03,2.43-.04,2.18-6.14,4.46-12.08,6.86-17.83,.77-1.47,1.1-1.84,2.5-2.86q9.23-5.63,10.53-5.81c3.11-.04,6.25-.08,9.4-.11,3.43-.39,5.87-2.3,7.48-5.82,.05-.13,.09-.25,.14-.37,.19-.53,.39-1.05,.58-1.58,.92-1.98,2.31-3.04,4.23-3.26,18.19-.13,36.9-.1,55.64,.09,1.88,.22,2.84,1.29,2.91,3.27-.03,.52-.06,1.05-.09,1.58,0,.06,0,.12,0,.17-.22,1.62-.91,2.53-2.4,3.14q-25.32,8.17-26.37,12.62c-.67,4.21-1.32,8.52-1.95,12.93-.55,2.28-1.89,3.5-4.12,3.73-16.21-.04-32.26,.02-47.9,.2-2.06-.21-2.8-1.42-2.28-3.7,.9-3.92-.26-5.91-3.64-6.25-1.5,.02-3,.04-4.49,.07-.33,.87-.65,1.75-.98,2.63,1.5-.02,3.01-.05,4.53-.07,1.96,.2,2.65,1.39,2.12,3.65-.94,3.94,.35,6.04,3.93,6.4,15.77-.17,31.96-.24,48.31-.2,3.86-.39,6.18-2.5,7.09-6.45,.59-4.42,1.2-8.73,1.83-12.93,.39-1.71,1.2-2.67,2.81-3.33q25.27-8.11,25.8-12.41c0-.06,0-.12,0-.17,.02-.53,.05-1.05,.07-1.58-.17-3.39-1.81-5.22-5.01-5.59Z"/><path class="cls-6" d="M1792.05,262.6c-2.49,.08-4.94,.15-7.35,.23-.93,.03-1.85,.06-2.76,.09-7.16,.25-14.01,.51-20.56,.8-.03,1.2-.05,2.39-.06,3.59,0,0,0,0,0,0,6.55-.29,13.4-.55,20.56-.8,.92-.03,1.84-.06,2.76-.09,2.42-.08,4.87-.16,7.36-.24,13.55-.41,27.6-.75,42.02-1,0,0,0,0,0,0,.02-1.2,.03-2.4,.06-3.59-14.42,.25-28.47,.58-42.02,1Z"/><path class="cls-3" d="M1842.56,261.47c-.02,1.2-.04,2.39-.06,3.59h0c8.11-.12,16.33-.21,24.63-.29h0c.02-1.2,.03-2.4,.05-3.6-8.3,.07-16.51,.17-24.62,.29Z"/><path class="cls-3" d="M1788.94,105.25c-.46,.96-.91,1.93-1.36,2.9,4.28-.2,8.74-.4,13.36-.58,.42-.97,.84-1.94,1.26-2.9-4.59,.18-9.01,.38-13.26,.58Z"/><path class="cls-3" d="M1868.26,349.92c-.09-1.16-.19-2.32-.28-3.48-.4-5.09-.75-10.21-1.05-15.35-.96-10.48-6.45-15.97-15.21-16.34-2.76,.04-5.51,.07-8.25,.12,.06,1.18,.13,2.35,.19,3.53,2.73-.04,5.48-.08,8.24-.12,6.61,.15,11.26,4.09,11.97,12.84,.32,5.14,.68,10.26,1.09,15.35,.09,1.16,.19,2.32,.29,3.48,.43,5.05,.9,10.08,1.42,15.08,.99-.01,1.98-.02,2.97-.03-.5-5-.96-10.03-1.37-15.08Z"/><path class="cls-6" d="M1861.02,88.85c-1.73,4.96-3.38,10.04-4.96,15.24,.86-.02,1.71-.03,2.57-.04,1.55-5.2,3.17-10.28,4.86-15.24-.82,.01-1.65,.03-2.47,.04Z"/><path class="cls-13" d="M1848.1,74.97c-.4,.88-.8,1.76-1.2,2.64,5.16-.13,10.4-.24,15.7-.34,.35-.88,.7-1.76,1.06-2.64-5.26,.1-10.45,.21-15.56,.34Z"/></g><path class="cls-6" d="M1833.96,76.75c0,4.58-3.71,8.29-8.29,8.29s-8.29-3.71-8.29-8.29,3.71-8.29,8.29-8.29,8.29,3.71,8.29,8.29Z"/><circle class="cls-3" cx="1870.51" cy="395.34" r="11.44" transform="translate(420.22 1641.04) rotate(-52.59)"/><circle class="cls-6" cx="1892.11" cy="263.96" r="11.44" transform="translate(367.54 1415.24) rotate(-45)"/><circle class="cls-13" cx="1837.11" cy="297.99" r="11.44" transform="translate(327.37 1386.32) rotate(-45)"/></g></g></g></g></svg>