<?xml version="1.0" encoding="UTF-8"?><svg id="Layer_1" xmlns="http://www.w3.org/2000/svg" xmlns:xlink="http://www.w3.org/1999/xlink" viewBox="0 0 143.75 143.75"><defs><style>.cls-1{fill:#0072c8;}.cls-2{fill:#f6ae2d;}.cls-3{fill:none;}.cls-4{fill:#f4f6f9;}</style><clipPath id="clippath"><rect class="cls-3" x="-347.59" y="204.07" width="1918.38" height="691.98"/></clipPath></defs><circle class="cls-1" cx="71.88" cy="71.88" r="71.88"/><g><path class="cls-4" d="M123.25,95.33c-1.85,0-3.66,0-5.47,0-3.75,0-7.49,0-11.24,0-1.73,0-2.64-.65-2.66-1.89-.02-1.22,.94-1.95,2.62-1.95,4.08,0,8.15,0,12.23,0,.44,0,.88,0,1.59,0-.36-.49-.55-.79-.78-1.04-1.37-1.54-2.8-3.02-4.1-4.61-.77-.95-1.61-1.36-2.84-1.3-2.14,.09-4.28,.04-6.42,.02-1.41-.01-2.28-.75-2.29-1.88-.01-1.13,.87-1.9,2.26-1.91,2.02-.02,4.04-.03,6.05,0,.73,0,1.01-.24,1.01-1-.02-11.82-.02-23.64,0-35.46,0-.82-.27-1.14-1.07-1.05-.2,.02-.41,0-.62,0-26.4,0-52.79,0-79.19,0q-1.74,0-1.74,1.72c0,11.32,0,22.65,0,33.97,0,.53,0,1.06,0,1.81,1.45,0,2.79,0,4.14,0,1.03,0,2.06-.02,3.09,.01,1.2,.04,2.04,.82,2.07,1.85,.02,1.1-.82,1.91-2.11,1.93-2.35,.03-4.69,.04-7.04,0-.85-.01-1.47,.22-2.03,.89-1.44,1.69-2.96,3.32-4.44,4.97-.23,.26-.43,.56-.83,1.08,.71,0,1.14,0,1.57,0,4.2,0,8.4,0,12.6,0,1.34,0,2.17,.69,2.27,1.78,.1,1.21-.77,2.05-2.23,2.05-4.69,.01-9.39,0-14.08,0-.58,0-1.16-.06-1.73,.02-.5,.07-1.33,.2-1.41,.49-.26,.86,0,1.77,.88,2.21,.49,.24,1.11,.3,1.67,.3,4.86,.02,9.72-.03,14.58,.06,.7,.01,1.64,.45,2.04,1,.83,1.16-.13,2.76-1.66,2.77-5.35,.05-10.71,.12-16.06-.04-3.13-.09-5.26-2.57-5.35-5.71-.02-.7-.14-1.43,.03-2.09,.2-.79,.49-1.66,1.01-2.26,2.88-3.28,5.86-6.47,8.75-9.74,.33-.37,.43-1.05,.43-1.59,.02-14.21,.02-28.41,.02-42.62,0-6.35,4.07-10.44,10.41-10.44,23.18,0,46.37,0,69.55,0,6.23,0,10.34,4.15,10.34,10.41,0,14.25-.01,28.5,.03,42.75,0,.62,.3,1.38,.72,1.85,2.87,3.23,5.81,6.4,8.72,9.6,.24,.27,.53,.59,.59,.92,.78,4.31-.28,8.94-6.13,8.98-4.86,.03-9.72,.04-14.58-.03-.72-.01-1.6-.42-2.11-.93-.33-.33-.38-1.39-.09-1.78,.4-.54,1.22-1.03,1.88-1.05,3.37-.1,6.75-.05,10.13-.05,1.61,0,3.21,.01,4.82,0,1.94-.02,2.65-.91,2.25-3.03Zm-10.2-55.94c.64-4.66-1.8-7.83-5.96-7.84-23.46-.01-46.93-.01-70.39,0-3.64,0-6.09,2.5-6.12,6.16q-.02,1.68,1.66,1.68c26.39,0,52.77,0,79.16,0,.53,0,1.06,0,1.65,0Z"/><g><path class="cls-2" d="M42.61,106.08c.02-.38,.05-.78,.05-1.19,0-9.68,0-19.35,0-29.03,0-.83-.2-1.43-.84-2.04-2.73-2.62-2.47-8.27,.76-10.2,3.4-2.04,7.1-3.58,10.72-5.23,.78-.36,1.78-.33,2.67-.33,10.62-.02,21.25-.08,31.87,.05,1.86,.02,3.8,.7,5.54,1.45,2.67,1.15,5.32,2.44,7.75,4.03,3.13,2.04,3.37,7.68,.74,10.35-.43,.44-.76,1.18-.76,1.79-.05,9.76-.03,19.52-.06,29.27,0,.9,.28,1.27,1.17,1.49,1.97,.49,3.18,2.12,3.23,4.15,.03,1.07,.02,2.14,0,3.21-.03,1.47-.72,2.15-2.22,2.2-.33,.01-.66,0-.99,0-20.38,0-40.76,0-61.14,0-2.31,0-2.85-.53-2.85-2.81,0-.29,0-.58,0-.86,0-4.16,.48-4.86,4.34-6.3Zm23.19,.21c.66,0,1.15,0,1.63,0,.54,0,1.08-.04,1.6,.01,1.08,.11,1.73,.73,1.81,1.83,.07,.97-.64,1.79-1.68,1.96-.4,.06-.82,.04-1.23,.04-8.15,0-16.31,.01-24.46-.01-.99,0-1.45,.27-1.36,1.33,.1,1.13,.93,.73,1.49,.73,18.86,.02,37.72,.02,56.58,.01,.44,0,.88-.04,1.29-.06,.36-1.85,.25-2-1.43-2.01-1.44,0-2.88,.03-4.32-.02-1.18-.04-2.01-.91-1.98-1.94,.03-1.03,.88-1.83,2.05-1.88,.44-.02,.88,0,1.42,0,.03-.59,.08-1.03,.08-1.48,0-8.77-.03-17.54,.02-26.31,.01-1.78,.1-3.35-2.18-3.86-.67-.15-1.09-.35-1.76,.04-1.94,1.12-3.9,1.06-5.87-.04-.36-.2-1.02-.21-1.38-.01-2.06,1.14-4.05,1.14-6.1-.02-.35-.2-1.02-.17-1.39,.04-2.07,1.13-4.06,1.11-6.1-.06-.33-.19-.94-.18-1.27,0-2.04,1.16-4.07,1.25-6.08,0-.6-.37-.98-.3-1.55,.04-1.93,1.16-3.92,1.18-5.84,0-.64-.4-1.05-.34-1.65,.03-1.44,.88-3.13,1.28-4.6,.48-1.52-.82-2.72-.67-4.15,.05-.68,.34-.92,.63-.92,1.34,.01,9.55,.02,19.11,0,28.66,0,.88,.32,1.12,1.16,1.12,1.08,0,.91-.7,.91-1.35,0-7.66,0-15.32,.02-22.98,0-2.68,1.56-4.2,4.24-4.22,2.8-.02,5.6,0,8.4,0,3.19,0,4.61,1.4,4.62,4.58,.01,7.29,0,14.58,0,21.86,0,.65,0,1.3,0,2.09Zm-3.82-.02c0-1.76,.02-3.4,0-5.03-.02-.85,.11-1.84-.28-2.5-.21-.36-1.37-.15-2.09-.23-1.08-.11-1.76-.83-1.78-1.84-.02-1.01,.64-1.81,1.68-1.96,.45-.06,.91-.07,1.36-.03,.87,.09,1.15-.28,1.14-1.13-.03-3.62-.04-7.25,0-10.87,0-.86-.28-1.15-1.14-1.14-2.35,.04-4.7,.06-7.04,0-1.11-.03-1.49,.29-1.48,1.45,.05,7.29,.03,14.58,.03,21.87,0,.25-.08,.54,.03,.73,.15,.27,.43,.65,.67,.65,2.91,.04,5.82,.03,8.92,.03Zm9.96-39.02s0-.01,0-.02c-3.73,0-7.46,0-11.19,0-4.96,0-9.93,0-14.89,.03-1.96,.01-1.96,.05-1.89,2.22,.04,1.28,.66,2.12,1.74,2.15,1.04,.03,1.63-.56,1.86-1.59,.24-1.07,.95-1.79,2.06-1.79,1.12,0,1.65,.79,1.84,1.82,.2,1.07,.91,1.61,1.91,1.56,.95-.05,1.51-.7,1.67-1.68,.18-1.07,.8-1.72,1.93-1.69,1.03,.03,1.67,.61,1.89,1.6,.22,1.03,.71,1.8,1.85,1.8,1.17,0,1.61-.83,1.8-1.84,.21-1.06,.95-1.57,1.93-1.57,.99,0,1.68,.59,1.89,1.62,.2,1.02,.65,1.81,1.83,1.77,1.13-.03,1.59-.77,1.83-1.8,.33-1.46,1.76-2.09,2.93-1.25,.43,.31,.63,1,.85,1.55,.34,.82,.8,1.47,1.75,1.5,.94,.03,1.62-.48,1.82-1.36,.27-1.16,.75-2.04,2.06-2.04,1.31,0,1.65,1.01,1.91,2.05,0,.04,.03,.08,.04,.12,.29,.85,.92,1.29,1.79,1.22,.88-.07,1.56-.5,1.68-1.5,.13-1.15,.82-1.83,1.93-1.86,1.13-.04,1.74,.71,2.01,1.8,.31,1.25,1.04,1.74,2.09,1.55,.99-.17,1.28-.89,1.47-1.74,.22-.99,.88-1.61,1.9-1.62,1.01,0,1.68,.57,1.92,1.59,.05,.2,.03,.48,.15,.59,.53,.44,1.1,1.14,1.66,1.14,.56,0,1.3-.61,1.63-1.15,.31-.5,.21-1.27,.25-1.92,.05-.93-.35-1.3-1.33-1.26-2.13,.08-4.26,.04-6.39,.04-6.73,0-13.46,0-20.18,0Zm-20.08-3.87h40.03c-1.45-1.13-3.06-1.62-4.8-1.62-1.99,0-3.99,.08-5.98,.08-8.19,.01-16.38,.02-24.56,0-1.72,0-3.28,.41-4.68,1.54Z"/><path class="cls-2" d="M81.51,98.54c-3.17,0-6.34,.01-9.51,0-2.65-.01-4.23-1.6-4.24-4.23-.01-4.07-.01-8.15,0-12.22,0-2.74,1.55-4.31,4.27-4.32,6.3-.02,12.59-.02,18.89,0,2.76,0,4.26,1.51,4.28,4.29,.03,4.16,.03,8.31,.02,12.47,0,2.29-1.67,3.98-3.97,4.01-3.25,.03-6.5,0-9.75,.01Zm-.04-3.85c2.88,0,5.77-.03,8.65,.02,.94,.02,1.31-.23,1.29-1.23-.05-3.58-.04-7.16,0-10.75,0-.82-.22-1.17-1.11-1.17-5.85,.03-11.69,.02-17.54,0-.83,0-1.17,.23-1.16,1.12,.04,3.62,.05,7.25,0,10.87-.01,.98,.37,1.16,1.24,1.15,2.88-.04,5.76-.02,8.65-.01Z"/></g><path class="cls-4" d="M71.87,33.65c1.3,.01,2.22,.83,2.2,1.96-.02,1.13-.95,1.91-2.25,1.89-1.27-.02-2.1-.76-2.12-1.88-.02-1.15,.9-1.99,2.17-1.98Z"/></g></svg>