<?xml version="1.0" encoding="UTF-8"?><svg id="Layer_1" xmlns="http://www.w3.org/2000/svg" xmlns:xlink="http://www.w3.org/1999/xlink" viewBox="0 0 143.75 143.75"><defs><style>.cls-1{fill:#0072c8;}.cls-2{fill:#f6ae2d;}.cls-3{fill:none;}.cls-4{fill:#f4f6f9;}</style><clipPath id="clippath"><rect class="cls-3" x="-508.95" y="204.07" width="1918.38" height="691.98"/></clipPath></defs><circle class="cls-1" cx="71.88" cy="71.88" r="71.88"/><g><path class="cls-2" d="M40.54,47.23c-2.1-1.27-4.04-2.44-5.98-3.61-1.22-.74-2.44-1.47-3.65-2.22-.37-.23-.72-.51-1.04-.8-1.62-1.5-1.52-2.93,.33-4.12,2.56-1.65,5.37-1.89,8.21-1.09,4.11,1.16,8.17,2.48,12.25,3.72,.97,.29,1.98,.46,2.93,.78,1.24,.43,2.42,.35,3.59-.16,3.33-1.45,6.67-2.91,9.99-4.39,2.88-1.29,5.76-2.54,8.93-2.96,3.35-.44,6.57-.06,9.5,1.74,.76,.46,1.46,1.08,2.04,1.75,1.18,1.38,1.03,3.01-.3,4.24-2.78,2.59-6.11,4.32-9.47,6-3.25,1.63-6.48,3.31-9.69,5.03-.47,.25-.91,.73-1.14,1.21-2.27,4.77-4.46,9.57-6.75,14.33-1.62,3.38-3.26,6.76-5.05,10.05-1.15,2.1-3.12,3.37-5.39,4.04-2.08,.61-3.5-.7-3.12-2.85,.95-5.47,1.97-10.93,2.97-16.39,.14-.75,.28-1.49,.45-2.41-.7,.28-1.27,.51-1.83,.74-4.73,1.95-9.41,4.04-14.41,5.24-2.7,.65-5.43,1.16-8.21,.88-1.22-.12-2.45-.56-3.57-1.08-.64-.3-1.26-.97-1.56-1.62-1.83-3.97-3.65-7.96-5.32-12-1.03-2.51,.32-4.43,3.04-4.69,.99-.09,1.93,.04,2.76,.59,1.68,1.13,3.32,2.31,4.98,3.48,.87,.61,1.69,1.61,2.63,1.74,.89,.12,1.91-.64,2.85-1.07,2.94-1.32,5.87-2.67,9.02-4.1Zm-22.37,2.25c.13,.44,.18,.64,.26,.83,1.44,3.31,2.87,6.63,4.35,9.93,1.02,2.27,1.06,2.26,3.57,2.28,4.76,.04,9.29-1.11,13.65-2.88,4.54-1.85,9.02-3.82,13.54-5.73,.29-.12,.59-.21,.95-.33-1.44,7.89-2.86,15.64-4.28,23.4,.08,.02,.16,.05,.24,.07,1.56-1.47,2.87-3.11,3.78-5.08,3.38-7.36,6.81-14.71,10.18-22.08,.43-.95,.99-1.62,1.99-2.01,1.32-.52,2.59-1.17,3.88-1.78,4.91-2.31,9.81-4.63,14.18-7.9,.22-.17,.44-.35,.73-.58-3.76-2.2-7.59-2.94-11.58-1.24-6.62,2.82-13.18,5.79-19.78,8.68-8.05,3.53-16.11,7.03-24.15,10.56-.63,.28-1.21,.33-1.8,0-1.22-.68-2.45-1.33-3.61-2.1-1.32-.88-2.55-1.89-3.86-2.79-.64-.44-1.36-.76-2.23-1.24Zm15.3-10.98c-.01,.09-.03,.19-.04,.28,.09,.09,.18,.2,.29,.26,3.42,2.12,6.83,4.24,10.26,6.34,.14,.09,.38,.14,.52,.08,2.05-.88,4.09-1.79,6.18-2.71-2.26-.77-4.41-1.56-6.6-2.23-2.06-.64-4.13-1.26-6.24-1.69-1.41-.29-2.9-.23-4.35-.33Z"/><g><path class="cls-3" d="M104.49,54.42c0,8.11,.02,35.1,.02,43.21,0,1.96-.4,2.36-2.32,2.36-1.89,0-3.76-.02-5.64,0-2.82,.05-14.82,.89-17.14,2.52-.23,.15-.41,.37-.64,.59h28.9V52.95h-3.18v1.47Z"/><path class="cls-3" d="M101.38,96.81V49.76c-1.67,0-3.23,0-4.79,0-3.13,.02-15.33,1.07-17.82,2.94-.69,.53-.99,1.08-.98,1.96,.04,8.31,.02,35.5,.02,43.81,0,.38,.04,.75,.05,.92,2.28-.75,4.48-1.76,6.78-2.18,2.35-.43,14.25-.3,16.74-.42Z"/><path class="cls-4" d="M108.62,49.85c-1.36,0-2.71,0-4.07,0-.04-.48-.07-.75-.08-1.03-.05-1.73-.42-2.09-2.19-2.11-.94,0-1.89,.03-2.83-.02-4.96-.23-19.05,.59-23.25,4.22l-.84-.67c-1.05,.54-2.11,1.08-3.16,1.63,.67,.29,1.24,.63,1.68,1,.42,.36,.83,1,.83,1.52,.06,8.59,.04,36.04,.04,44.62,0,.2-.04,.39-.08,.86-4.27-3.06-18.52-3.07-23.5-2.89v-13.84c-.43,.18-.87,.35-1.32,.48-.7,.21-1.32,.18-1.83-.02,0,5.81,0,10.93-.01,13.73,0,2.37,.31,2.65,2.72,2.69,2.51,.04,5.03,0,7.51,.26,2.25,.23,13.68,1.26,15.74,2.9h-29.1v-39.05c-1.03,.43-2.06,.84-3.1,1.25,0,13.48,0,30.94,0,38.9,0,1.54,.5,2.02,2.07,2.02,6.11,0,21.67,0,27.79,0h4.56s1.51,0,1.51,0c7.1,0,23.63,0,30.72,0,1.91,0,2.33-.42,2.33-2.36V52c0-1.72-.43-2.15-2.15-2.15Zm-30.81,48.63c0-8.31,.02-35.5-.02-43.81,0-.89,.29-1.43,.98-1.96,2.48-1.88,14.68-2.92,17.82-2.94,1.57,0,3.12,0,4.79,0v47.05c-2.49,.11-14.39-.02-16.74,.42-2.3,.42-4.5,1.42-6.78,2.18,0-.18-.05-.55-.05-.92Zm29.86,4.63h-28.9c.24-.23,.42-.44,.64-.59,2.31-1.63,14.31-2.47,17.14-2.52,1.88-.03,3.76,0,5.64,0,1.92,0,2.32-.4,2.32-2.36,0-8.11-.02-35.09-.02-43.21v-1.47h3.18v50.16Z"/></g></g></svg>