<?xml version="1.0" encoding="UTF-8"?><svg xmlns="http://www.w3.org/2000/svg" xmlns:xlink="http://www.w3.org/1999/xlink" viewBox="0 0 1918.38 490.79"><defs><style>.cls-1,.cls-2,.cls-3{fill:#3aa1ff;}.cls-1,.cls-4{opacity:.4;}.cls-5{fill:#0072c8;}.cls-6{isolation:isolate;}.cls-7{clip-path:url(#clippath-1);}.cls-8{opacity:.11;}.cls-9{mix-blend-mode:screen;}.cls-10{fill:#003d87;}.cls-11{clip-path:url(#clippath);}.cls-12{fill:none;}.cls-3{opacity:.71;}.cls-4{mix-blend-mode:soft-light;}</style><clipPath id="clippath"><rect class="cls-12" x="-1938.38" width="1918.38" height="691.98"/></clipPath><clipPath id="clippath-1"><rect class="cls-12" width="1919.13" height="490.79"/></clipPath></defs><g class="cls-6"><g id="Layer_1"><g class="cls-11"><g class="cls-4"><polygon class="cls-3" points="211.52 318.2 160.68 290.29 160.68 211.95 23.31 211.95 23.31 127.74 -153.31 127.74 -153.31 341.21 -194.34 341.21 -194.34 391.15 -226.46 391.15 -226.46 510.61 -263.92 510.61 -263.92 346.1 -356.69 346.1 -356.69 298.12 -409.32 298.12 -409.32 374.99 -458.38 401.92 -458.38 556.63 -574.34 556.63 -574.34 216.85 -699.22 216.85 -699.22 280.5 -797.34 280.5 -824.1 295.18 -824.1 330.44 -947.2 330.44 -970.39 343.17 -970.39 462.63 -1022.13 462.63 -1022.13 278.54 -1118.47 278.54 -1118.47 310.85 -1271 310.85 -1271 388.7 -1298.65 403.88 -1298.65 480.34 -1344.65 480.34 -1344.65 291.64 -1407.09 277.93 -1407.09 227.01 -1574.78 227.01 -1574.78 442.43 -1601.54 442.43 -1601.54 169.23 -1637.23 170.21 -1742.48 199.59 -1742.48 467.89 -1787.08 467.89 -1787.08 290.66 -1813.84 255.4 -1813.84 241.7 -1876.28 241.7 -1876.28 255.4 -1910.18 255.4 -1936.94 286.74 -1961.92 286.74 -1961.92 155.52 -2026.14 155.52 -2026.14 203.02 -2118.02 203.02 -2170.65 231.9 -2170.65 901.65 -1455.03 901.65 -1344.65 901.65 -1032.27 901.65 -1032.27 901.11 211.52 900.3 211.52 318.2"/><polygon class="cls-10" points="-103.15 382.06 -103.15 719.87 -146.75 719.87 -146.75 585.43 -208.51 533.05 -208.51 329.67 -286.62 329.67 -332.04 291.16 -390.17 291.16 -390.17 496.07 -530.04 496.07 -530.04 728.71 -566.38 728.71 -566.38 403.63 -668.11 448.31 -668.11 642.43 -695.35 642.43 -695.35 343.54 -729.87 343.54 -729.87 255.72 -738.66 255.72 -738.66 235.69 -815.88 235.69 -815.88 252.64 -864.3 252.64 -864.3 320.43 -944.23 320.43 -964.21 343.54 -964.21 620.86 -1032.33 620.86 -1032.33 564.63 -1075.02 528.42 -1075.02 395.92 -1223.98 395.92 -1223.98 505.31 -1278.48 505.31 -1278.48 597.75 -1343.88 659.38 -1385.66 659.38 -1385.66 366.65 -1501.92 298.86 -1501.92 570.02 -1529.17 570.02 -1529.17 383.6 -1667.23 383.6 -1667.23 448.31 -1730.81 448.31 -1730.81 757.99 -1758.06 757.99 -1758.06 623.95 -1850.7 623.95 -1850.7 582.35 -1867.05 562.32 -1966.97 562.32 -1974.23 1103.1 -250.01 1103.1 -146.75 1103.1 -103.15 1103.1 15.11 1103.1 15.11 382.06 -103.15 382.06"/></g></g><g class="cls-7"><g class="cls-4"><polygon class="cls-3" points="2150.65 198.74 2099.8 170.83 2099.8 92.5 1962.43 92.5 1962.43 8.28 1785.81 8.28 1785.81 221.75 1744.78 221.75 1744.78 271.69 1712.67 271.69 1712.67 391.16 1675.2 391.16 1675.2 226.65 1582.44 226.65 1582.44 178.67 1529.81 178.67 1529.81 255.54 1480.75 282.46 1480.75 437.18 1364.79 437.18 1364.79 97.39 1239.9 97.39 1239.9 161.04 1141.78 161.04 1115.02 175.73 1115.02 210.98 991.92 210.98 968.73 223.71 968.73 343.18 916.99 343.18 916.99 159.08 820.66 159.08 820.66 191.4 668.12 191.4 668.12 269.24 640.47 284.42 640.47 360.89 594.48 360.89 594.48 172.18 532.04 158.47 532.04 107.55 364.34 107.55 364.34 322.98 337.58 322.98 337.58 49.78 301.9 50.76 196.64 80.13 196.64 348.44 152.04 348.44 152.04 171.2 125.28 135.95 125.28 122.24 62.84 122.24 62.84 135.95 28.94 135.95 2.18 167.28 -22.79 167.28 -22.79 36.07 -87.02 36.07 -87.02 83.56 -178.89 83.56 -231.52 112.45 -231.52 782.2 484.1 782.2 594.48 782.2 906.86 782.2 906.86 781.66 2150.65 780.85 2150.65 198.74"/><polygon class="cls-5" points="1692.25 199.25 1666.97 227.04 1666.97 312.25 1640.01 312.25 1640.01 78.84 1519.51 78.84 1519.51 622.54 1483.28 582.71 1483.28 269.65 1215.32 269.65 1215.32 349.3 1073.75 349.3 1073.75 599.38 1073.75 709.5 949.39 709.5 949.39 384.29 913.42 384.29 913.42 257.76 839.68 257.76 839.68 467.32 805.51 467.32 805.51 506.86 762.34 431.73 686.8 431.73 686.8 160.89 541.12 160.89 528.53 174.73 528.53 257.76 528.53 350.68 487.16 350.68 487.16 103.56 363.06 103.56 363.06 145.07 338.78 171.76 338.78 592.85 310.9 592.85 310.9 254.79 294.72 254.79 294.72 222.17 151.73 222.17 127.45 248.86 127.45 286.43 -7.44 286.43 -14.64 765.83 435 765.83 435 764.84 891.84 764.84 891.84 765.83 1073.75 765.83 1336.08 765.83 1800.11 765.83 1800.11 199.25 1692.25 199.25"/><polygon class="cls-10" points="1799.37 234.12 1799.37 571.93 1755.77 571.93 1755.77 437.49 1694.01 385.1 1694.01 181.73 1615.9 181.73 1570.48 143.21 1512.35 143.21 1512.35 348.13 1372.47 348.13 1372.47 580.77 1336.14 580.77 1336.14 255.68 1234.41 300.37 1234.41 494.49 1207.16 494.49 1207.16 195.6 1172.65 195.6 1172.65 107.78 1163.86 107.78 1163.86 87.75 1086.64 87.75 1086.64 104.7 1038.22 104.7 1038.22 172.49 958.29 172.49 938.31 195.6 938.31 472.92 870.19 472.92 870.19 416.69 827.5 380.48 827.5 247.98 678.54 247.98 678.54 357.37 624.04 357.37 624.04 449.81 558.64 511.44 516.86 511.44 516.86 218.71 400.6 150.92 400.6 422.08 373.35 422.08 373.35 235.66 235.29 235.66 235.29 300.37 171.71 300.37 171.71 610.05 144.46 610.05 144.46 476 51.81 476 51.81 434.41 35.47 414.38 -64.45 414.38 -71.71 955.16 1652.51 955.16 1755.77 955.16 1799.37 955.16 1917.63 955.16 1917.63 234.12 1799.37 234.12"/><rect class="cls-1" x="1474.43" y="6.66" width="11.75" height="23.5"/></g><g class="cls-9"><g class="cls-8"><g class="cls-6"><g class="cls-6"><g><g><path class="cls-10" d="M275.17,256.74c-3.81,.25-7.77,.49-12.24,.72q-1.32-.48-2.22-1.57c-.44-.64-45.48-64-55.19-64.99-1.29,.04-2.59,.08-3.9,.12-2.16,.07-4.33,.13-6.52,.19-6.46,1.03-6.82,9.38-2.21,14.48q16.31,16.61,16.86,19.21c.36,2.68,.7,5.38,1.02,8.07,.48,2.95,1.33,4.69,3.26,6.62q5.67,5.18,6.16,7.86c.6,6.37,1.08,12.77,1.43,19.19-.07,3.18-1.3,4.93-3.74,5.33-1.83,.06-3.67,.12-5.54,.18-1.45-.13-1.81-.31-2.99-1.43q-26.97-31.01-27.16-32.1c-.66-7.44-1.45-14.84-2.38-22.18-1.09-5.17-3.76-7.9-8.14-8.34-3.65,.07-7.33,.14-11.03,.2-1.7-.19-2.15-.43-3.51-1.8q-10.02-12.24-13.64-12.43c-2.19,.03-4.38,.05-6.59,.07-2.64-.28-4.22-1.89-4.83-4.92-.01-.12-.03-.23-.04-.35-.1-3.02,1.09-4.64,3.61-4.98,10.55-.11,20.95-.26,31.14-.45,2.34-.35,3.61-.98,4.96-3.8,1.24-2.61-.48-5.48,.71-8.1q8.79-14.95,10.08-15.24c3.58-.09,7.12-.2,10.62-.3,22.29-.68,41.53-1.57,57.57-2.63-.42-1.07-.85-2.14-1.28-3.21-15.95,1.05-35.06,1.94-57.22,2.61-3.48,.11-7,.21-10.55,.3-2.13,.33-2.6,.62-3.86,2.43q-8.92,16.53-8.67,18.74c.24,2.1,.61,5.28-2.96,5.81-10.14,.19-20.48,.34-30.98,.45-2.7,.35-6.27,1.59-6.08,8.39,.01,.12,.03,.23,.04,.35,.44,2.83,2.09,7.67,8.14,8.31,2.21-.02,4.42-.05,6.62-.07,1.69,.2,2.15,.43,3.52,1.8q10.07,12.3,13.62,12.47c3.71-.06,7.41-.13,11.07-.2,2.6,.26,4.18,1.88,4.82,4.95,.91,7.34,1.68,14.74,2.33,22.18,.33,2.63,.99,4.16,2.61,6.06q28.33,30.77,30.59,30.97c1.87-.06,3.72-.12,5.54-.18,4.12-.68,6.18-3.62,6.3-8.99-.36-6.43-.85-12.82-1.46-19.19-.41-2.96-1.23-4.7-3.12-6.63q-5.69-5.19-6.24-7.85c-.33-2.7-.67-5.39-1.04-8.07-.46-2.59-1.16-4.1-2.8-5.97q-16.09-16.75-16.36-17.22c-.84-1.46-1.69-6.34,2.45-7,2.2-.06,4.38-.13,6.55-.19,1.32-.04,2.62-.08,3.92-.12,1.46,.15,1.88,.35,3.18,1.56,19.37,21.56,34.79,40.61,45.83,56.63q5.66,8.22,8.35,8.52c4.13-.23,8.11-.48,11.92-.73-.1-1.18-.21-2.37-.32-3.55Z"/><path class="cls-10" d="M292.88,255.42c-4.87,.41-10.1,.81-15.69,1.19,.11,1.18,.22,2.37,.32,3.55,5.6-.38,10.84-.77,15.71-1.19-.11-1.18-.22-2.37-.35-3.55Z"/><path class="cls-10" d="M301.16,156.96c-2.61,.5-5.63,.98-9.2,1.45-.43-.13-.66-.2-1.38-.96-9.1-9.92-9.13-9.92-10.59-9.92-7.93,.91-17.53,1.75-28.75,2.51,.43,1.07,.86,2.14,1.29,3.21,11.29-.76,20.95-1.61,29.1-2.52,.47,.13,.73,.2,1.49,.95q9.39,9.88,10.38,9.99c3.44-.47,6.48-.96,9.1-1.46-.47-1.09-.95-2.17-1.44-3.25Z"/><path class="cls-10" d="M325.16,180.15l-.49-1.37-.73-1.98c.13,.36,.1,.71-.13,1.07-.13-.16-.19-.25-.63-1.24-6.49-14.18-11.25-22.08-12.19-22.34-1.9,.86-4.9,1.7-8.98,2.51,.49,1.08,.97,2.16,1.44,3.25,4.1-.81,7.12-1.66,9.03-2.52,.2,.06,.33,.09,1.01,1.22,4.19,7.3,6.4,11.24,10.69,20.9,.54,1.22,.65,1.33,.88,1.57,.2-.35,.24-.7,.12-1.06Z"/></g><path class="cls-10" d="M310.63,363.42c1.44-7.27,2.24-11.28-10.24-34.18-1.12-2.36-1.46-4.69-1.27-8.59,.36-4.75,.63-9.53,.81-14.33-.13-8.93-2.35-13.53-6.79-14.07-2,.17-4.07,.33-6.19,.49-3.53-.2-3.83-1.14-7.58-12.67-.59-2.07-.69-2.67-.88-4.95-.24-5-.57-9.99-1-14.96-.1-1.18-.21-2.37-.32-3.55-.5-5.23-1.1-10.45-1.81-15.64-.66,.04-1.33,.09-2,.13,.7,5.19,1.3,10.41,1.79,15.64,.11,1.18,.22,2.37,.32,3.55,.42,4.97,.75,9.96,.99,14.96q.2,3.16,3.36,13.56c1.86,5.3,3.79,7.34,7.12,7.53,2.12-.16,4.19-.32,6.19-.49,3.35,.41,5.03,3.88,5.13,10.63-.18,4.8-.45,9.58-.81,14.33-.2,4.04,.06,7.12,.77,9.16,3.06,8.74,8.22,16.55,11.3,25.29,.64,2.31,.6,4.56-.14,8.33-1.38,6.22-2.93,12.39-4.67,18.5-2.13,8.43-1.95,12.55,.55,12.98,.3-.05,.6-.09,.9-.14,.38-1.11,.75-2.22,1.11-3.33-.3,.05-.6,.09-.9,.14-1.2-.67-2.56-1.44-.43-9.81,1.74-6.11,3.31-12.28,4.69-18.51Z"/><path class="cls-10" d="M331.43,344.01c-1.65,.47-3.61,.92-5.88,1.37-1.45,.79-2.74,3.73-3.93,8.98-4.15,20.47-10.31,40.4-18.44,59.64-1.48,3.51-3.03,6.99-4.63,10.43-1.06,2.2-1.22,2.54-6.15,8.98-.67,.82-.82,.97-1.35,1.38-1.31,.29-2.34,.45-3.41,.6-.13-.08-.3-.19-.43-.27q-.07-2.83,11.03-18.11c1.3-1.9,2.05-3.3,3.09-5.77,1.56-3.86,3.05-7.75,4.45-11.66-.34,.05-.69,.11-1.05,.16-1.4,3.91-2.88,7.8-4.44,11.66-1.02,2.44-1.18,2.82-9.77,14.17-1.66,2.23-3.03,4.65-4.06,7.17-1.41,3.43-1.2,4.74-1.11,5.29,.22,.14,.5,.32,.72,.45,1.07-.15,2.09-.31,3.07-.46,1.35-.55,1.82-1.04,7.02-8.11,1.31-1.83,2.13-3.25,3.27-5.63,1.61-3.44,3.15-6.91,4.64-10.43,8.16-19.25,14.33-39.18,18.5-59.65,.95-4.16,1.69-4.78,2.34-5.34,2.26-.45,4.22-.9,5.87-1.37,1.12,1.48-1.37,19.49-3.89,30.59-.28,1.15-.38,1.5-.81,2.9-.23,.72-.46,1.44-.7,2.16-1.36,4.02-1.86,4.67-2.25,5.19-.26,.11-.54,.22-.84,.33-.38,1.12-.78,2.23-1.17,3.34,.3-.11,.57-.22,.84-.33,.67-.88,1.51-1.98,3.8-8.72,.24-.72,.47-1.44,.7-2.16,.17-.54,4.2-13.54,5.58-33.69,.12-2.5-.12-2.69-.6-3.08Z"/><g><path class="cls-10" d="M319.6,398.61c-.43,1.1-.86,2.2-1.3,3.3,.84-.38,1.48-.76,1.92-1.15,.32-.45,.94-1.86,2.15-4.88,2.16-5.52,2.43-6.31,5.04-13.88,.46-1.39,.98-3.05,1.49-4.67-4.04,12.68-7.15,19.75-7.38,20.13-.44,.39-1.08,.77-1.93,1.15Z"/><path class="cls-10" d="M328.9,377.33c.28-.87,.56-1.76,.84-2.68-.26,.83-.55,1.74-.84,2.68Z"/><path class="cls-10" d="M329.89,374.18c-.05,.16-.1,.31-.15,.47,.04-.14,.09-.28,.13-.41l.02-.06Z"/></g><path class="cls-10" d="M241.21,462.72c-.86-1.11-1.2-1.28-2.82-1.34-3.33,.22-6.8,.44-10.42,.64-1.86,.37-3.5,1.84-5.03,4.5-2.72,5.31-5.58,10.5-8.55,15.56,.6-.03,1.2-.07,1.8-.1,3.01-5.06,5.89-10.25,8.64-15.57,.46-.72,.61-.9,1.26-1.37,4.01-.34,7.46-.55,10.77-.77,4.87,.21,8.66,19.38,8.7,19.58-.14,2.8-.38,7.48-30.14,33.37-3.93,3.29-6.4,4.81-8.52,5.24-4.98,.43-10.52,.83-16.62,1.2-4.36,.67-8.24,3.73-14.11,8.35-3.67,2.73-6.03,3.92-8.45,4.24-2.76,.14-5.62,.27-8.58,.39q-2.37-.12,1.03-12.02c.45-1.42,.95-2.41,2.06-4.04,1.09-1.55,2.17-3.12,3.24-4.71,2.72-4.05,5.36-8.22,7.91-12.5q2.1-3.35,10.14-10.17c1.64-1.39,10.35-8.83,21.25-19.01,2.95-2.61,4.89-3.64,7.41-3.95,2.47-.12,4.89-.24,7.25-.37,.49-.95,.99-1.9,1.47-2.85-2.38,.13-4.81,.25-7.3,.37-2.4,.29-4.63,1.06-8.3,3.99-9.67,7.7-18.23,16.66-27.65,24.65-2.82,2.5-4.41,4.37-6.3,7.42-2.52,4.28-5.12,8.45-7.8,12.5-1.05,1.59-2.12,3.16-3.19,4.71q-.59,.89-5.34,13.6c-.98,3.12-.37,4.33,2.25,4.45,2.92-.12,5.74-.25,8.46-.39,4.69-.63,8.84-3.86,14.08-7.95,3.81-2.89,6.09-4.09,8.41-4.45,6.02-.37,11.49-.77,16.41-1.19,1.87-.38,7.56-1.52,33.79-28.03,10.74-11.44,13.29-14.16,2.81-33.98Z"/><path class="cls-10" d="M253.6,423.68c-.64,1.73-1.29,3.45-1.96,5.16-3.15,7.39-3.48,8.16-27.81,25.38-2.03,1.36-3.26,1.86-5.03,2.03-1.2,.06-2.41,.11-3.63,.17q-2.29-.23,1.54-9.97c2.84-6.57,4.49-7.76,13.62-14.37,1.97-1.37,3.22-1.9,4.97-2.08,4.78-.25,9.34-.51,13.69-.78,.4-1.05,.8-2.11,1.2-3.16-4.37,.27-8.96,.54-13.76,.79q-3.11,.32-12.4,7.06c-7.02,5.51-8.94,10.64-12.11,19.14-1.36,3.98-.72,6.05,1.95,6.32,1.21-.06,2.42-.11,3.61-.17,2.81-.27,4.67-.45,26.92-17.79,4.19-3.56,6.66-7,9.11-12.69,.67-1.71,1.33-3.43,1.97-5.16-.62,.04-1.24,.08-1.87,.12Z"/><path class="cls-10" d="M300.65,360.29c-.52,.05-1.05,.11-1.59,.16q-1.73-.15-5.04-7.33c-.03-.07-3.57-7.6-9.78-17.58-1.31-2.43-1.72-4.77-1.5-8.66,.29-3.41,.54-6.84,.74-10.27,0-9.04-2.53-13.72-7.74-14.3q-4.41,.77-13.05,20.14c-1.17,2.79-1.64,4.69-1.97,7.82-.51,6.04-1.15,12.04-1.92,17.99-.36,3.72-.27,6.71,1.26,10.1,4.3,9.53,11,17.68,15.53,27.08q1.61,3.04,19.2,.78h0s0,0,0,0h0s0,0,0,0h0s0,0,0,0c.5,.2,1.24,.5,.48,3.45-1.61,5.38-3.36,10.7-5.25,15.98,.46-.05,.92-.1,1.37-.15,1.9-5.28,3.66-10.61,5.28-15.99q1.91-6.79-16.38-4.85c-.54,0-1.97,.03-2.93-1.96-5.09-10.5-8.02-15.62-14.94-26.1-1.42-2.42-1.79-4.64-1.42-8.47,.78-5.95,1.43-11.95,1.94-18q.22-2.1,6.87-18.53c3.87-8.53,9.17-6.3,10.97-1.08,.75,2.17,.75,4.51,.75,6.22-.2,3.44-.45,6.86-.74,10.27-.21,3.78-.04,6.83,1.41,10.35,3.49,8.41,9.14,15.67,12.81,23.98,1,2.01,1.65,2.2,2.83,2.54,1.04-.06,1.57-.11,2.09-.17,2.72,.37,3.38,3.73,2.04,10.27-1.86,7.44-3.97,14.8-6.35,22.07,.45-.05,.89-.1,1.33-.16,2.38-7.27,4.51-14.63,6.38-22.07,1.78-8.63,.9-13.06-2.69-13.55Z"/><path class="cls-10" d="M280.66,118.68c-2.04-3.27-4.14-6.51-6.29-9.7-.26,.05-.52,.1-.78,.15,2.15,3.2,4.24,6.43,6.27,9.71,2.26,3.84,2.91,6,2.01,6.59-3.67,.62-8.05,1.21-13.11,1.78-3.29-.41-6.74-7.2-6.77-7.27q-.32-.65-3.32-13.13c-.29-1.29-.18-1.79,.43-1.96,7.19-.89,12.67-1.84,16.38-2.84-.69-.96-1.39-1.91-2.1-2.86-3.68,.99-9.11,1.93-16.24,2.81-.3,.09-1.02,.28-.84,1.71,.46,3.74,1.66,7.32,2.39,11,.57,2.62,1.85,5.48,3.82,8.5,1.62,2.49,4.81,6.71,7.91,7.1,5.1-.57,9.51-1.17,13.21-1.79,1.36-.88,.39-4.08-2.97-9.78Z"/><path class="cls-2" d="M277.63,97.6c-.81,.45-1.96,.89-3.43,1.32,.71,.95,1.41,1.9,2.11,2.85,1.49-.43,2.64-.88,3.46-1.33-.71-.95-1.42-1.9-2.14-2.84Z"/><path class="cls-2" d="M272.31,221.99c-.65,.04-1.31,.09-1.98,.13,.7,3.78,1.35,7.57,1.94,11.38,.67-.04,1.33-.09,1.99-.13-.6-3.81-1.25-7.6-1.96-11.38Z"/><path class="cls-2" d="M288.28,410.44c-.74,1.98-1.51,3.96-2.29,5.93-1.5,3.77-3.06,7.49-4.69,11.16,.45-.05,.89-.1,1.32-.15,1.63-3.68,3.2-7.4,4.71-11.17,.79-1.97,1.56-3.95,2.3-5.93-.45,.05-.9,.1-1.36,.15Z"/><path class="cls-5" d="M278.95,432.74c-1.02,2.2-2.06,4.38-3.13,6.54,.44-.05,.87-.1,1.29-.14,1.07-2.17,2.12-4.35,3.15-6.55-.43,.05-.87,.1-1.31,.14Z"/><path class="cls-2" d="M211.28,487.23c-2.73,4.43-5.56,8.75-8.48,12.97,.57-.03,1.13-.06,1.69-.09,2.95-4.22,5.81-8.55,8.56-12.97-.59,.03-1.18,.07-1.77,.1Z"/><path class="cls-2" d="M260.72,402.3c-1.67,5.6-3.47,11.15-5.41,16.64-.02,.06-.04,.13-.07,.19,.63-.04,1.26-.08,1.88-.12,.02-.06,.05-.13,.07-.19,1.95-5.49,3.77-11.04,5.45-16.64-.64,.04-1.28,.09-1.93,.13Z"/><path class="cls-2" d="M315.36,400.04c-.42,1.1-.85,2.2-1.28,3.29,1.11-.3,2.09-.6,2.93-.91,.44-1.1,.87-2.2,1.29-3.3-.85,.31-1.83,.61-2.95,.91Z"/><path class="cls-5" d="M342.94,274.91c0,1.06-1.39,2.1-4.16,3.11,.03,1.2,.06,2.39,.08,3.59,2.77-1.01,4.17-2.05,4.16-3.11-.02-1.2-.05-2.4-.09-3.59Z"/><path class="cls-10" d="M299.16,125.05l-.45-.75-1.52-2.49-.53-.84c-.09-.14-.17-.27-.26-.4,.07,.24,.07,.51-.05,.78-.52-.51-2.62-3.91-2.95-4.61,.03-.19,.06-.3,.07-.41q-.18-.47-3.97-6.32c-.16-.24-.32-.48-.47-.72-.05-.1-.09-.17-.14-.24l-2.04-2.93c.06,.08,.1,.16,.14,.23,1.29,2.13,2.73,4.17,4.09,6.26,.32,.51,.36,.6,.43,.73,0,.14-.03,.25-.08,.36,.24,.89,3.8,6.44,3.95,6.67,1.63,2.53,2.58,3.88,2.82,4,.12-.27,.12-.54,.02-.82q.08,.11,.93,1.5Z"/><path class="cls-2" d="M173.98,420.16c-.9-.89-1.65-1.2-3-1.24-2.18,.05-4.37,.09-6.57,.13-3.41,.45-5.62,2.54-6.77,6.38-.11,.54-.23,1.07-.34,1.6q-.53,3.23,6.24,10.09c.69,.83,.6,1.7,.53,2.04-.81,3.89,.33,5.94,3.48,6.24,1.76-.04,3.52-.08,5.27-.12,.3-1.01,.6-2.03,.89-3.05-1.76,.04-3.52,.08-5.3,.12-1.9-.19-1.99-1.68-1.74-2.9q.71-3.35-6.04-10.02c-.59-.68-.74-1.35-.55-2.45,.12-.53,.23-1.07,.35-1.6,.57-1.87,1.65-2.89,3.31-3.12,2.19-.04,4.37-.09,6.54-.13q1.08,.03,9.54,9.86c.48,.67,.57,1.31,.34,2.35-1.28,4.64-2.62,9.21-4.02,13.71,.85-.02,1.71-.04,2.56-.07,1.43-4.49,2.79-9.06,4.09-13.71q.74-3.23-8.79-14.11Z"/><path class="cls-2" d="M334.92,228.72c-.9,.4-2.01,.8-3.34,1.19-3.21,.07-8.08-10.19-13.03-27.43-2.82-10.12-6.15-20.11-9.98-29.97-1.63-4.19-3.34-8.34-5.13-12.45-.47-1.09-.95-2.17-1.44-3.25-1.53-3.4-3.11-6.77-4.76-10.11-.27,.05-.54,.11-.82,.16,1.64,3.34,3.22,6.71,4.74,10.11,.48,1.08,.96,2.17,1.44,3.25,1.78,4.1,3.49,8.25,5.11,12.45,3.81,9.86,7.13,19.86,9.95,29.98,5.53,19.33,10.97,30.83,14.55,30.75,1.33-.39,2.45-.79,3.35-1.19-.21-1.16-.42-2.33-.64-3.49Z"/><path class="cls-2" d="M263.52,201.32c-3.93-4.68-7.73-6.83-11.96-6.77-4.43,.25-9.06,.48-13.87,.71,.27,1.14,.53,2.27,.78,3.41,4.83-.23,9.48-.46,13.93-.71,5.93,.17,8.05,2.9,15.97,13.07l.91-2.44c-1.72-2.18-4.02-5.1-5.76-7.27Z"/><path class="cls-2" d="M234.9,195.38c-2.17,.1-4.37,.19-6.61,.29,.25,1.14,.5,2.27,.74,3.41,2.25-.09,4.46-.19,6.64-.29-.25-1.14-.51-2.28-.77-3.41Z"/><path class="cls-2" d="M335.91,278.5c-3.9,1.07-9.42,2.1-16.51,3.08-3.51,.97-6.05,8.25-6.46,18.53-.14,5.83-.42,11.62-.85,17.38,.46-.05,.92-.11,1.38-.16,.43-5.76,.71-11.55,.85-17.38,.33-8.2,2.36-14,5.16-14.78,7.09-.97,12.61-2,16.51-3.08-.02-1.19-.05-2.39-.09-3.58Z"/><path class="cls-5" d="M252.52,153.25c-.42-1.07-.85-2.14-1.29-3.21-6.26-15.39-13.49-30.11-21.66-44.07-.53,.04-1.07,.07-1.61,.11,8.1,13.97,15.27,28.69,21.47,44.09,.43,1.07,.86,2.14,1.28,3.21,2.37,6.05,4.59,12.2,6.67,18.44,.63-.04,1.25-.08,1.86-.12-2.09-6.25-4.33-12.39-6.72-18.44Z"/><path class="cls-5" d="M307.19,429.11c-.55,1.05-1.11,2.1-1.67,3.14,.17-.17,.31-.34,.4-.51l.51-.94,1.17-2.22c-.09,.18-.23,.35-.41,.53Z"/><path class="cls-5" d="M303.26,254.28c-2.45,.25-5.01,.49-7.69,.73,.12,1.18,.24,2.36,.35,3.54,2.68-.24,5.25-.48,7.7-.73-.11-1.18-.24-2.36-.36-3.54Z"/></g></g></g></g><g><g><path class="cls-10" d="M84.13,394.78c-1.37-.04-2.74-.07-4.11-.1,5.79,7.64,16.56,21.86,26.9,37.96,.51,.83,.75,1.41,.99,2.4l2.37-2.22c-.81-2.42-11.15-18.06-26.15-38.04Z"/><path class="cls-10" d="M63,368.02c-2.54-2.79-4.62-3.82-8.24-4.08-14.8-.27-29.76-.28-44.59-.61-5.53-.29-8.89-3.53-9.11-10.07-.09-5.28-.16-10.59-.22-15.92-.37-8.49-4.59-13.38-12.51-13.76-4.04-.02-8.08-.03-12.11-.04-5.63-.64-8.7-4-9.4-10.25-.09-4.6-.16-9.22-.21-13.85-1.06,0-2.12,0-3.18,0,.05,4.63,.13,9.25,.23,13.85,.95,8.4,5.08,12.9,12.64,13.77,4.02,0,8.05,.02,12.08,.04,5.83,.23,8.66,4,9.3,10.22,.07,5.33,.16,10.64,.26,15.92,.21,8.24,4.52,13.09,12.26,13.54,14.82,.13,29.68,.33,44.42,.61q3.85,.28,22.77,23.89c1.38,.03,2.76,.07,4.14,.1q-13.06-16.64-18.53-23.34Z"/><path class="cls-10" d="M37.72,551.38s-.53,3.47-1.1,5.7c-.41,1.72-.74,2.79-1.28,3.58-.7,1.03-1.5,1.39-2.23,1.41-1.56,.05-2.64-1.43-2.82-1.74l-9.85-16.7c-1.25-2.21-1.3-3.87-1.32-4.18-1.26-14.85-2.27-31.27-3.14-49.91-.35-7.45-.67-15.17-.96-23.13-.16-3.69-.18-5.16-4.1-8.64-3.36-2.99-9.17-8.06-19.67-16.62-2.52-2.54-3.01-3.48-3.7-7.13-1.32-15.09-2.44-30.87-3.33-47.29-.49-8.88-.9-17.86-1.25-26.92-1.06-8.27-5.17-12.7-12.58-13.54-13.75,0-27.38,.05-40.78,.18,.09,1.16,.18,2.32,.28,3.48,13.36-.12,26.94-.18,40.65-.17,5.5,.62,8.56,3.91,9.37,10.05,.38,9.06,.83,18.04,1.35,26.92,.97,16.42,2.16,32.2,3.58,47.29,.48,3.32-.11,4.78,4.64,9.3,3.41,3.24,10.01,7.95,19.83,16.34,2.45,2.09,2.95,3.33,3.21,6.74,.63,8.06,.75,15.68,1.17,23.13,1.08,19.03,1.69,35.47,3.09,49.73,.24,1.53,.17,2.7,1.1,4.42l10.84,17.61c2.9,4.06,6.04,3.8,7.77,1.03,.53-.85,1.32-3,1.64-4.57l1.13-5.58c-.32-.1-1.23-.68-1.55-.78Z"/><path class="cls-10" d="M108.01,438.51c-2.5,12.49-5.15,23.96-8.25,34.83-1.06,3.51-.76,3.62-8.1,10.2-20.09,18.01-36.72,33.77-49.41,46.84-1.62,1.85-2.29,3.32-2.65,5.82-.51,4.96-1.12,9.72-1.65,14.11,.42,.19,1.08,.33,1.51,.47,.63-4.54,1.25-9.39,1.86-14.55,.1-.65,.49-2.74,2.67-4.89,5.6-5.51,19.21-19.52,53.69-50.19,1.69-1.61,3.58-3.66,4.72-7.62,2.93-10.97,5.64-22.45,8.11-34.38,.26-1.46,.29-1.82,.29-3.24-.83,.78-1.95,1.82-2.78,2.59Z"/></g><g><path class="cls-10" d="M30.59,196.74c-2.26-1.29-3.8-1.74-6.33-1.86-3.9-.04-7.81-.08-11.71-.12-7.99,.8-12.41,5.37-13.52,13.98-.07,2.07-.14,4.14-.21,6.22-.83,6.62-4.2,10.15-10.32,10.8-2.2,0-4.39-.02-6.58-.02-10.24-.58-9.75-7.75-8.69-23.45,.6-5.19,2.53-6.82,6.38-10.08,9.51-8.92,5.65-23.75-6.35-24.41-4.94,0-9.87,0-14.77,.02q-4.98,.26-16.93,10.71c-3.29,3.17-4.69,5.91-5.36,10.47-.35,3.6-.68,7.22-.99,10.86-.1,1.14-.19,2.28-.28,3.43-.41,5.13-.78,10.29-1.1,15.49,1.03,0,2.07-.02,3.11-.02,.32-5.2,.68-10.37,1.08-15.49,.09-1.14,.18-2.29,.27-3.43,.3-3.64,.62-7.26,.96-10.86q.73-5.08,12.47-15.29c2.22-1.78,3.85-2.42,6.45-2.56,4.92-.02,9.87-.02,14.83-.02,7.06,.78,14.72,10.16,2.45,20.46-5.05,4.72-5.07,5.07-6.16,23.16-.11,8.38,4.81,14.07,12.53,14.51,2.19,0,4.39,.01,6.59,.02,8.09-.85,12.55-5.52,13.63-14.28,.06-2.08,.13-4.15,.2-6.22,.83-6.53,4.17-10,10.23-10.6,3.91,.04,7.83,.08,11.74,.12q3.01,.24,27.85,15.81c3.42,2.49,4.79,5.08,5.06,9.54,0,2.89-.02,5.8-.04,8.71,0,.22-.02,1.43-.03,1.65h3.2c.01-.29,.03-1.3,.03-1.59,.01-2.92,.02-5.82,.02-8.71q-.53-8.78-29.69-26.95Z"/><path class="cls-10" d="M56.23,236.73c-1.56,3.38-1.64,3.47-19.53,14.25-4.62,3.25-6.5,6.71-6.95,12.76,0,.42-.01,.85-.02,1.27-.04,3.11-.08,6.21-.12,9.31q-.41,6.02-18.4,19.74c-1.99,1.39-3.46,1.89-5.8,1.97-13-.1-25.97-.16-38.83-.15-1.06,0-2.12,0-3.19,0-12.74,.01-25.37,.07-37.8,.19,.02,1.19,.05,2.37,.08,3.56,12.42-.12,25.03-.18,37.75-.19,1.06,0,2.12,0,3.18,0,12.85,0,25.8,.05,38.79,.15q4.39-.15,21.64-13.23c3.87-3.34,5.45-6.59,5.82-12,.04-3.1,.08-6.2,.12-9.31,0-.42,.01-.85,.02-1.27q.5-6.82,20.45-18.83c1.21-.81,4.11-2.51,5.75-6.61,.15-.37,.4-1.08,.49-1.53l-3.46-.09Z"/></g><path class="cls-10" d="M24.22,44.46c-18.51-.19-37-.22-54.97-.09-3.28,.36-5.66,2.18-7.28,5.57-.2,.52-.4,1.05-.6,1.58-.05,.13-.09,.25-.14,.37-.95,2.04-2.37,3.14-4.35,3.36-3.12,.03-6.22,.07-9.72,.13-1.08,.19-1.68,.29-3.15,1.12q-11.2,6.77-12.76,10c-2.45,5.75-4.78,11.69-7.01,17.83,.81-.01,1.62-.03,2.43-.04,2.18-6.14,4.46-12.08,6.86-17.83,.77-1.47,1.1-1.84,2.5-2.86q9.23-5.63,10.53-5.81c3.11-.04,6.25-.08,9.4-.11,3.43-.39,5.87-2.3,7.48-5.82,.05-.13,.09-.25,.14-.37,.19-.53,.39-1.05,.58-1.58,.92-1.98,2.31-3.04,4.23-3.26,18.19-.13,36.9-.1,55.64,.09,1.88,.22,2.84,1.29,2.91,3.27-.03,.52-.06,1.05-.09,1.58,0,.06,0,.12,0,.17-.22,1.62-.91,2.53-2.4,3.14Q-.86,63.08-1.91,67.53c-.67,4.21-1.32,8.52-1.95,12.93-.55,2.28-1.89,3.5-4.12,3.73-16.21-.04-32.26,.02-47.9,.2-2.06-.21-2.8-1.42-2.28-3.7,.9-3.92-.26-5.91-3.64-6.25-1.5,.02-3,.04-4.49,.07-.33,.87-.65,1.75-.98,2.63,1.5-.02,3.01-.05,4.53-.07,1.96,.2,2.65,1.39,2.12,3.65-.94,3.94,.35,6.04,3.93,6.4,15.77-.17,31.96-.24,48.31-.2,3.86-.39,6.18-2.5,7.09-6.45,.59-4.42,1.2-8.73,1.83-12.93,.39-1.71,1.2-2.67,2.81-3.33q25.27-8.11,25.8-12.41c0-.06,0-.12,0-.17,.02-.53,.05-1.05,.07-1.58-.17-3.39-1.81-5.22-5.01-5.59Z"/><path class="cls-10" d="M188.99,103.3c-1.81-4.65-3.65-9.22-5.66-13.66-2.05-4.51-3.54-6.16-7.72-6.56-2.26-.13-5.67-.26-7.22-.43-1.56-.17-1.62-.65-2.82-1.84-19.53-22.25-19.75-22.3-23.54-23.02-14.28-.67-29.3-1.26-45.27-1.73-1.26,.26-1.93,.63-2.74,1.56q-5.36,7.8-7.06,8.14c-13.86-.38-27.98-.69-42.2-.91-1.98,.18-2.5,.41-4.01,1.73q-12.92,13.89-14.98,14.19c-4.15-.05-8.29-.08-12.43-.12-3.66,.35-5.81,2.38-6.56,6.19-.15,1.52-.3,3.06-.45,4.6,.89,0,1.78,.01,2.67,.02,.14-1.55,.28-3.08,.42-4.6,.7-2.45,1.32-3.04,3.7-3.52,4.18,.03,8.36,.07,12.54,.12,2.14-.2,2.71-.44,4.38-1.85q13.53-14.04,14.79-14.22c14.36,.23,28.63,.54,42.63,.92,1.88-.16,2.35-.37,3.55-1.65q5.63-7.9,6.92-8.16c15.64,.49,30.83,1.08,45.64,1.8q1.56,.6,2.73,1.69c21.1,22.9,18.87,22.81,21.4,23.33,2.32,.13,7.21,0,9.13,.47,2.17,.54,3.01,1.19,4.12,3.73,1.94,4.46,3.71,9.04,5.43,13.71,.94,2.53,.8,3.6-1.15,3.53-1.15-.07-2.32-.11-3.48-.2-1.87-.14-2.04,.58-2.77,2.92l-6.21,25.2c-1.14,4.46-2.45,4.35-2.93,4.45l-21.05-.93c-2.91-.13-3.49,.72-4.5,3.74-10.45,31.34-10.1,31.6-13.18,31.98l-24.21-.84c-1.23-.2-2.1-.69-2.63-1.07-20.07-18.83-19.43-18.24-19.93-20.56-.07-1.3-.15-2.58-.22-3.88,.35-2.97,.92-3.66,3.53-4.18,1.76,.04,3.52,.09,5.28,.14,1.06-.09,2.37-.2,3.62-1.15,4.17-3.19,2.85-12.24-4.86-13.28-10.7-.28-21.53-.53-33.28-.86-.71-.33-1.59-.94-2.15-1.48q-23.75-32.03-26.68-32.43c-3.57-.04-7.14-.08-10.7-.12-.06,.94-.11,1.88-.16,2.82,3.6,.03,7.19,.07,11.59,.22,.65,.3,1.45,.86,1.96,1.36q22.88,32.23,27.1,32.83c10.96,.21,21.84,.45,32.6,.74,.44,.11,1.06,.17,1.47,.36,2.42,1.11,4.54,6.75-.77,7.81-1.75-.05-3.5-.09-5.25-.14-4.04,.35-6.08,2.7-6.23,7.18,.08,1.39,.16,2.79,.23,4.19,.42,2.8,.77,3.55,2.63,5.67q20.25,18.87,23.06,19.23c8.19,.24,16.3,.5,24.3,.78,2.26-.28,4.05-.5,5.55-3.91q11.25-31.84,12.39-31.98c6.05,.25,12.02,.47,17.9,.76,1.09,.05,2.18,.11,3.26,.17,2.06,.12,3.87-1.3,4.34-3.31,.21-.89,.46-1.75,.68-2.58,5.1-19.37,6.53-24.78,6.98-26.31,.11-.36,.45-.59,.82-.57,.98,.06,1.96,.12,2.93,.16,2.59,.13,4.27-1.38,2.73-6.38Z"/><path class="cls-2" d="M60.09,183.47c-.06-5.78-.14-11.5-.24-17.16-.26-3.84-1.27-6.16-3.86-8.87q-12.04-11.35-16.19-11.61c-3.09-.05-6.19-.09-9.29-.13-2.5-.17-3.99-.92-5.68-2.85q-13.74-17.46-18.45-17.77c-5.01-.04-10.02-.06-15.02-.08-.1,1.02-.2,2.05-.3,3.07,5.02,.02,10.06,.04,15.1,.08,2.42,.15,3.84,.87,5.43,2.73q13.63,17.66,18.84,18.03c3.11,.04,6.22,.08,9.33,.13,2.13,.13,3.4,.66,5.06,2.11q11.71,11.1,11.96,15.1c.08,5.66,.04,11.38,.18,17.16,.25,9.52-7.31,11.66-13.12,5.48-10.22-10.88-10.84-11.66-15.9-12.01-3.55-.04-7.09-.08-10.64-.12-4.86-.58-7.36-3.39-7.64-8.59,.04-.95,.08-1.89,.12-2.83-.36-7.13-3.72-10.96-10.26-11.71-2.59-.02-5.19-.03-7.78-.04-4.69-.53-6.98-3.25-7.01-8.3,1.11-12.43,2.36-24.36,3.74-35.75-.92,0-1.85,0-2.77,0-1.45,11.39-2.76,23.32-3.93,35.75,0,7.03,3.19,10.81,9.74,11.55,2.6,.01,5.21,.02,7.81,.04,4.73,.54,7.14,3.31,7.38,8.45-.04,.94-.09,1.89-.13,2.83,.36,7.24,3.83,11.15,10.62,11.95,3.56,.04,7.12,.07,10.68,.12,2.51,.17,4.04,.91,5.82,2.81l10.1,10.02c5.38,4.98,11.61,2.58,14.05-.94,2.42-3.49,2.21-8.52,2.22-8.64Z"/><g><path class="cls-10" d="M236.84,277.05c-.72,0-2.64-.02-4.46,1.64-11.4,10.36-21.67,21.86-32.95,32.35-2.34,2.41-3.35,4.58-3.87,8.29-1.6,16.4-3.89,32.58-6.86,48.48,.88,.05,1.76,.09,2.64,.14,3.02-15.9,5.34-32.08,6.96-48.48,.31-2.21,1.02-3.91,2.1-5.07,10.53-11.23,22.29-21.19,32.94-32.29,.78-.75,1.74-1.54,3.4-1.48,3.29,.22,6.75,.48,9.93,.71-.04-1.33-.1-1.97-.44-3.63-3.01-.22-6.29-.46-9.4-.67Z"/><path class="cls-10" d="M283.82,229.23c.37,.04,.73,.07,1.1,.11-.53-4.65-1.14-9.27-1.84-13.86-.36-.04-.72-.07-1.09-.11-.29-.03-.59-.06-.89-.09,.69,4.59,1.3,9.22,1.82,13.86,.3,.03,.6,.06,.89,.09Z"/><path class="cls-10" d="M290.96,305.05c-.8,.78-1.21,1.01-2.36,1.04-1.29-.14-2.61-.27-3.96-.41-.08,0-.16-.02-.24-.02q-1.71-.36-9.19-20.89c-1.41-3.31-2.86-4.72-5.35-5.18-6.77-.59-14.19-1.16-21.6-1.71,.21,1.35,.29,2.23,.31,3.62,7.27,.54,14.55,1.1,21.19,1.68,2.91,.54,3.03,.57,9.58,20.88,1.2,3.29,2.48,4.68,4.72,5.16,.08,0,.16,.02,.24,.02,1.34,.14,2.66,.27,3.95,.41,.71,.03,1.91,.07,3.48-1.54,6.94-7.11,14.03-15.84,21.09-25.96l-.76-3.11c-6.98,9.95-11,15.11-21.11,26.01Z"/><path class="cls-10" d="M325.27,253.09c-.2-2.77-.44-5.54-.72-8.3-.77-6.51-1.19-7.27-8.23-20.07-1.05-1.75-1.76-2.43-2.8-2.71-4.1-.65-8.73-1.29-13.87-1.93-3.01,.28-4.24,3.59-3.77,10.13,.07,.57,.13,1.13,.2,1.7,.64,4.65,1.17,5.63,4.6,11.96,2.37,4.82,1.87,12.02-1.73,12.34-1.72-.2-3.49-.4-5.32-.61q-1.67-.34-5.89-7.73c-.94-1.75-1.34-3.1-1.57-5.34-.25-3.24-.54-6.47-.87-9.68-.36-.04-.73-.07-1.1-.11-.3-.03-.6-.06-.89-.09,.33,3.22,.62,6.44,.86,9.68,.48,4.67,.66,4.99,5.32,13.17,1.44,2.38,2.52,3.31,4.28,3.66,1.83,.2,3.6,.4,5.32,.61,4.38-.39,4.7-6.85,4.72-8.15,.09-5.96-1.13-8.2-4.38-14.2-.9-1.73-1.3-3.07-1.61-5.3-.07-.57-.13-1.13-.2-1.7-.32-4.42,.51-6.66,2.55-6.85,5.16,.64,9.79,1.29,13.9,1.94,1.16,.31,1.4,.37,7.88,13.15,.82,1.82,1.22,3.37,1.52,5.93,.27,2.76,.51,5.52,.72,8.3q.22,4.17-3.04,10.86l.88,2.87,2.3-4.73c.42-1.08,1.3-3.32,.95-8.8Z"/><path class="cls-10" d="M313.29,277.18l.76,3.11c4.39-7.02,4.65-7.44,7.01-11.84l-.89-2.87c-3.96,7.06-4.12,7.34-6.89,11.6Z"/></g><path class="cls-10" d="M306.02,179.38c-1.96-6.29-4.12-12.52-6.47-18.69-.1-.26-.2-.53-.3-.79-1.72-4.08-3.15-6.71-5.04-7.04-1.98-.31-4.09-.62-6.69-.92-.11-.01-.3-.04-.55,.11-.29,.17-.42,.46-.55,.86-.02,.07-.04,.14-.06,.2-.83,3.01-2.2,5.87-2.52,9.03-.23,2.3,1.24,4.34,.97,6.64,0,0,0,.39-.28,.66-.25,.23-.6,.21-.6,.21l-6.47-.9c-.85-.05-1.9-1.31-2.55-2.23-5.23-7.41-8.39-11.94-11.66-16.72l-1,1.54c10.01,14.66,12.79,18.74,14.15,20.06,.52,.51,.85,.69,1.27,.75,2.53,.27,4.95,.58,7.28,.82,.77,.08,1.3-.32,1.62-.7,1.41-1.68-1.02-5.9-.71-8.36,.79-2.54,1.54-5.36,2.32-7.91,.28-.93,.48-.87,.68-.87,2.36,.33,4.13,.54,6.48,1.01,.85,.17,1.77,1.27,2.73,3.57,.1,.26,.2,.53,.3,.79,2.34,6.16,4.49,12.39,6.57,19.14,.29,1.35,.37,1.65,.05,2.81-.54,1.94-2.86,6.98-4.68,10.4-.38,.72-.74,1.34-1.07,1.83-.39,.58-.52,1.08-.98,1.05l-6.15-.83c-.95-.15-2.23-1.33-2.92-3.72-.34-1.44-.7-2.87-1.06-4.3-.82-2.69-1.36-4.98-2.58-6.2-.69-.69-1.27-.8-2.74-1.04-2.68-.3-5.48-.6-8.4-.89-6.27-.64-12.95-1.25-19.98-1.84-1.48,.1-1.8,.31-2.66,1.73-7.18,15.9-14.97,28.65-18.97,34.84q-4.81,7.44-4.66,10.5c.36,4.14,.66,8.3,.91,12.48,.21,2.18,.66,3.49,1.8,5.18q11.13,15.16,12.99,15.55l14.39,1.08c3.3,.13,4.35-2.48,4.46-6.9-.05-1.29-.11-2.57-.18-3.85,.01-1.29,.08-1.6,.55-2.54q8.14-13.3,8.77-13.4c3.94,.36,7.76,.72,11.45,1.09,.3,.03,.6,.06,.89,.09,.37,.04,.74,.07,1.1,.11,1.72,.18,3.39,.35,5.02,.53-.12-1.17-.25-2.33-.39-3.5-1.63-.18-3.3-.35-5.01-.53-.36-.04-.73-.07-1.1-.11-.3-.03-.59-.06-.89-.09-3.68-.37-7.49-.73-11.43-1.09-1.5,.1-1.86,.32-2.9,1.81q-8.4,15.09-8.35,17.44c.06,1.28,.12,2.57,.17,3.85-.07,2.78-1.03,3.47-2.28,3.52-4.66-.37-8.49-.46-13.65-1.04-1.48-.17-1.94-.48-2.56-1.25q-10.18-14.72-10.32-15.79c-.25-4.18-.56-8.34-.93-12.48-.02-1.27,.04-1.57,.54-2.51,8.51-12.99,15.29-24.81,20.16-35.12q2.89-6.13,3.85-6.27c7.06,.59,13.76,1.21,20.06,1.85,2.55,.26,5.01,.52,7.64,.85,.39,.05,.67,.09,1.07,.27,1.03,.46,1.71,1.11,2.43,3.48,.36,1.43,.71,2.86,1.05,4.3,1.22,4.26,2.88,6.66,5.07,7.34l6.9,.8c.45-.02,.7-.32,.96-.76,.13-.22,.24-.44,.36-.66,6.87-12.71,6.54-13.83,5.26-18.3Z"/><path class="cls-10" d="M324.67,178.78l-.73-1.98s0,0,0-.01c.41,1.11,.82,2.23,1.21,3.34,0,0,0,.02,.01,.03l-.49-1.37Z"/><g><path class="cls-10" d="M316.52,160.28c.32,.47,.71,1.05,2.19,4.58,.16,.4,.32,.79,.49,1.19,1.3,3.18,2.54,6.38,3.72,9.59,.09,.06,.17,.13,.25,.19-1.19-3.21-2.43-6.41-3.73-9.59-.16-.4-.32-.79-.49-1.19-1.92-4.58-3.22-7.28-3.86-8.04-.25-.16-.53-.31-.84-.47-.1,.48-.21,.97,2.27,7.16,.16,.39,.32,.79,.48,1.18,.2,.5,.41,1.01,.61,1.52,.7,1.78,1.12,2.86,2.41,8.82,.05,.26,.1,.61,.11,.87-1.34-.17-2.72-.58-4.32-.99q-.63-.47-2.59-4c-1-1.85-2.49-5.4-2.23-7.04,.16-.05,.37-.12,.53-.17,.51-1.28-.58-4.3-1.7-7.09-.35-.82-.7-1.64-1.06-2.45-2.62-5.8-2.78-6.15-12.65-16.42-.46-.44-.57-.52-.95-.75-6.34-1.31-14.47-2.54-24.69-3.74-.59,.03-1.18,.03-1.46,.91-1.47,4.67-2.32,7.87-3.79,11.71l2.04,2.66c2.16-5.96,2.42-6.89,3.7-11.46,.15-.53,.29-.74,.73-.71,.16,.01,.32,.04,.48,.06,10.22,1.2,18.24,2.41,24.27,3.63,.01,0,1.33,.8,9.33,9.91,.79,1,1.43,2.13,2.28,4.02,.35,.82,.71,1.63,1.05,2.45,.71,1.77,1.07,2.85,1.06,3.82-.17,.16-.44,.33-.66,.43-.1,.35-.84,3.74,5.25,14.77,1.26,2.24,1.66,2.48,2.2,2.81,1.6,.41,3,.82,4.18,1.23,.08-.06,.18-.14,.26-.2,.03-.59,.07-1.32-1.53-7.57-.45-1.65-.91-2.99-1.81-5.3-.2-.51-.41-1.01-.61-1.52-.16-.4-.32-.79-.48-1.18-.82-2.05-1.15-2.98-1.34-3.84,.37-.08,.65,.07,.9,.23Z"/><path class="cls-10" d="M324.39,179.17c-.08-.06-.16-.13-.25-.19,2.75,7.73,5.19,15.55,7.31,23.45,.09,.07,.18,.13,.26,.2-2.12-7.9-4.56-15.72-7.31-23.45Z"/></g><g><path class="cls-10" d="M335.88,317.93c-.26-.3-.47-.54-.55-2.67-.3-8.08-.45-12.13-1.61-22.42-.54-3.82-1.27-4.32-1.98-4.29-2.26,1.37-2.58,9.86-2.58,9.95-.21,9.51,1.5,18.91,1.74,28.4,.09,2.66,.36,3.79,.98,4.19,.88,.26,1.67,.52,2.38,.78,.19-1.17,.37-2.34,.55-3.51-.71-.26-1.51-.52-2.38-.78-.3-.29-.56-.54-.62-2.63-.28-9.32-.43-12.78-1.59-23.42-.49-5.15,.71-9.94,1.89-9.3,1.31,.71,2.27,18.84,2.45,25.01,.1,2.69,.34,3.84,.87,4.23,.42,.15,.82,.3,1.19,.45,.15-1.18,.3-2.35,.44-3.53-.37-.15-.76-.3-1.19-.45Z"/><path class="cls-10" d="M339.76,319.89c-.62-.53-1.32-.91-2.2-1.3-.14,1.18-.28,2.36-.44,3.53,.88,.38,1.58,.76,2.11,1.14,.13,.64,.2,1.03-.02,3.27-1.9,18.91-5.88,37.58-11.8,55.47,.75-2.33,1.75-5.42,2.46-7.76l.02-.06c5.31-18.37,7.68-30.34,9.76-49.23,.26-2.88,.29-4.21,.12-5.06Z"/></g><g><path class="cls-10" d="M338.33,305.27c-.33,4.39-.75,8.76-1.27,13.11-.14,1.18-.28,2.36-.44,3.53-.49,3.81-1.06,7.61-1.69,11.4-1.82,10.15-2.87,11.94-8.68,21.87-2.29,3.55-3.32,1.94-3.79-.04-.4-1.71-.35-3.91-.32-5.22,.28-12.37,.09-18.41-.96-30.79-2.02-15.38-7.74-8.24-13.27-1.33l.47,3.04,4.18-5.21c3.97-4.77,6.73-.91,7.41,5.36,1.38,12.88,1.06,26.33,.95,30.75-.18,11.25,2.83,9.06,3.75,8.11,.52-.53,2.05-2.66,6.43-10.97,1.86-4.05,3.03-8.22,4.32-15.37,.63-3.78,1.2-7.58,1.69-11.4,.15-1.18,.3-2.35,.44-3.53,.51-4.35,.94-8.72,1.27-13.11-.16-.07-.32-.14-.49-.21Z"/><polygon class="cls-10" points="306.42 319.6 303.04 323.48 303.5 326.52 306.89 322.64 306.42 319.6"/></g><g><path class="cls-10" d="M254.4,385.89c-.39-5.37-2.02-7.76-5.81-8.5-.23-.02-.46-.04-.69-.06-4.41,0-5.44,1.14-13.49,9.94-2.44,2.45-4.19,3.33-6.68,3.35-4.64-.33-9.39-.66-14.26-.97q-2.5-.31-9.2-9.74c-1.73-2.16-3.21-2.99-5.87-3.29-15.28-.87-31.45-1.65-48.24-2.34-.18,1.14-.36,2.27-.54,3.4,16.72,.69,32.82,1.46,48.04,2.33q3.16,.36,9.46,9.72c1.6,2.14,2.97,2.96,5.44,3.27,4.85,.31,9.58,.63,14.19,.96,4.83-.03,6.54-1.93,13.75-9.9,2.4-2.46,4.09-3.34,6.47-3.35,.23,.02,.46,.04,.68,.06,4.76,.94,4.71,3.01,4.35,19.14,.75,.07,1.49,.14,2.23,.2,.16-6.7,.21-8.72,.16-14.22Z"/><path class="cls-10" d="M251.88,403.31c-.76,13.46-1.54,20.19-3.78,32.76-1.86,7.48-3.21,8.64-19.74,22.84-7.24,6.7-8.76,11.33-11.29,19.01-2.12,6.44-6.24,16.87-13.86,30.02-.56,1.02-1.09,1.9-1.37,2.57-1.04,2.57-.16,3.22,.95,3.49l5.54,.67c2.37-.02,4.08-.03,25.86-17.91,1.82-1.54,3.82-3.32,6.59-6.56,.1-.12,.21-.25,.31-.37-.33-.05-.66-.1-.99-.15-.1,.12-.21,.25-.31,.37-2.02,2.35-4.54,5.28-22.91,19.21-2.63,1.9-4.68,3.11-5.68,3-2.26-.25-3-.32-4.97-.54-1.11-.12-1.69-.19-1.93-.55-.67-1-.37-1.71,1.11-4.3,6.29-10.97,10.63-19.79,15.54-34.96q2.17-5.93,20.46-22.18c6.97-6.79,10.48-10.2,12.66-46.22-.73-.07-1.46-.14-2.2-.2Z"/><path class="cls-10" d="M318.46,376.65c-.07-.64-.2-1.44-.58-1.86-.85-.93-3.85-1.19-5.7-1.55-1.22-.5-1.68-1.62-1.52-5.51,.63-15.03,.46-27.53-2.25-46.88l-.47-3.04c-.54-3.15-1.29-7.34-1.89-10.48l-1.51,1.83c.59,3.13,1.36,7.3,1.89,10.44l.47,3.03c2.11,15.62,3.16,28.3,2.27,46.85-.13,4.59,.25,5.99,1.96,7.14,1.85,.36,3.53,.72,5.05,1.07,1.41,.51,1.04,2.17,1.04,3.84-.01,5.83-5.06,16.9-23.39,37.83-2.46,2.93-4.17,5.53-6.54,9.95-5.74,11.03-12.08,21.67-19.02,31.9-3.95,5.62-5.05,6.42-13.59,12.65-3.31,2.55-5.79,5.05-9.47,9.55-.95,1.19-1.91,2.38-2.87,3.56,.34,.05,.67,.1,1,.16,.97-1.18,1.93-2.36,2.89-3.55q3.67-4.47,14.03-12.3c3.29-2.66,5.71-5.34,8.92-9.89,6.96-10.22,13.33-20.86,19.09-31.89,5.88-10.91,15.15-19.25,22.18-29.3,.78-1.18,2.73-4.38,4.87-8.97,1.34-2.76,3.68-9.78,3.15-14.59Z"/></g><path class="cls-10" d="M261.6,106.71c-.51-.86-1.02-1.72-1.53-2.58-.45-.06-.9-.11-1.35-.17,.51,.85,1.02,1.71,1.53,2.57,2.69,4.88,3.5,7.66,2.97,10.25-3.56,9.48-3.76,9.47-6.13,9.37-.42-.04-.84-.09-1.27-.13-3.31-.34-6.75-.66-10.29-.99-9.47-2.24-17.02-16.79-15.19-22.91q2.17-5.6,4.45-5.53c2.09,.2,4.13,.4,6.13,.6,6.56,.66,12.4,1.34,17.54,2.02-.6-.95-1.21-1.89-1.82-2.83-5.1-.67-10.89-1.34-17.39-2-1.98-.2-4.01-.4-6.08-.59-2.02-.06-2.92,.48-3.68,2.22-1.93,5.03-3.33,8.66,1.28,17.18,4.55,8.42,10.56,13.99,16.07,14.91,3.57,.32,7.03,.65,10.36,.99,.43,.04,.85,.09,1.27,.13,1.8,.08,2.68-.36,3.51-1.76,4.58-9.96,5.05-11-.35-20.74Z"/><path class="cls-2" d="M82.9,233.85c-7.52-.18-15.09-.34-22.68-.48-1.07-.02-2.14-.04-3.21-.06-8.17-.15-16.36-.28-24.57-.39-.02,1.17-.03,2.34-.05,3.52,7.94,.11,15.86,.23,23.76,.37,1.15,.02,2.29,.04,3.43,.06,7.81,.15,15.59,.31,23.33,.49,8.69,1.18,11.02,10.83,6.1,16.73q-15.32,16.71-19.18,16.84c-7.82-.16-15.67-.31-23.55-.44-.02,1.2-.03,2.4-.05,3.6,7.87,.13,15.73,.27,23.54,.44,3.64-.12,5.79-1.07,8.52-3.75q15.97-17.32,16.4-22.12c.05-.53,1.03-13.08-11.79-14.83Z"/><path class="cls-10" d="M195.09,165.9c0-.08-.71-8.25-8.04-8.82-6.58-.34-13.31-.67-20.16-.98-1.54,0-2.44,.35-3.55,1.35q-10.68,10.58-10.4,14.45c1.1,9,2.03,18.14,2.77,27.41,.97,.04,1.93,.08,2.89,.12-.76-9.27-1.71-18.41-2.84-27.42-.12-1.58,.17-2.53,1.05-3.51q9.52-9.15,10.64-9.16c6.88,.31,13.64,.64,20.25,.99,3.96,.7,5.62,5.92,3.43,8.24q-8.34,7.44-9.64,7.43c-7.3-.36-14.77-.7-22.36-1.02,.14,1.11,.27,2.22,.41,3.34,7.62,.32,15.11,.66,22.44,1.02,1.39,0,2.22-.27,3.28-1.1,9.86-8.49,10.18-8.65,9.84-12.35Z"/><path class="cls-2" d="M109.72,392.15c-9.28-.29-18.69-.55-28.19-.79-1.38-.03-2.76-.07-4.14-.1-7.57-.18-15.18-.34-22.83-.48-.05,1.12-.11,2.24-.16,3.35,8.59,.16,17.14,.34,25.62,.55,1.37,.03,2.74,.07,4.11,.1,8.46,.21,16.86,.45,25.15,.71,12.26,.71,15.92,12.94,12.08,23.43-1.2,3.26-3.56,6.8-6.06,9.2l-5.02,4.7-2.37,2.22c-13.91,13.04-14.17,13.29-20.72,13.48-7.27-.2-14.61-.38-22-.55-.11,1-.21,2.01-.32,3,7.33,.16,14.61,.34,21.82,.54,5.32-.15,8.72-1.58,13.45-5.66,2.36-2.2,5.51-5.14,7.87-7.35l2.78-2.59c12.76-10.3,14.26-18.91,14.26-18.91,.25-.9,5.08-23.14-15.33-24.85Z"/><path class="cls-5" d="M4.26,93.8c-.09,.93-.19,1.87-.28,2.81,3.95,.02,7.91,.05,11.88,.09,.06-.94,.12-1.88,.19-2.81-3.93-.03-7.86-.06-11.78-.09Z"/><path class="cls-2" d="M-9.3,93.74c-.13,.93-.26,1.87-.38,2.81,3.42,0,6.84,.02,10.27,.04,.1-.94,.2-1.88,.3-2.81-3.4-.02-6.8-.03-10.2-.04Z"/><path class="cls-2" d="M118.57,129.87c-4.86-.16-9.76-.31-14.69-.46,.12,1.03,.24,2.06,.35,3.09,4.96,.15,9.88,.3,14.77,.46-.14-1.04-.29-2.07-.44-3.1Z"/><path class="cls-2" d="M132.06,130.34c-2.53-.09-5.07-.18-7.63-.27,.16,1.03,.32,2.06,.47,3.1,2.57,.09,5.13,.18,7.67,.27-.17-1.04-.34-2.07-.51-3.1Z"/><path class="cls-10" d="M158.95,203.89c-.97-.04-1.93-.08-2.9-.12,.31,4.21,.58,8.45,.82,12.71,.98,.04,1.95,.08,2.93,.12-.24-4.26-.52-8.5-.84-12.71Z"/><path class="cls-2" d="M160.07,221.64c-.98-.04-1.95-.08-2.93-.12,.64,13.17,.92,26.57,.86,40.15,.99,.04,1.98,.08,2.97,.12,.06-13.58-.23-26.98-.89-40.16Z"/><path class="cls-2" d="M185.14,385.31c-.49,2.2-.99,4.39-1.5,6.57-.37,1.56-.74,3.11-1.12,4.65,.85,.04,1.7,.09,2.54,.13,.38-1.54,.76-3.1,1.13-4.65,.52-2.18,1.03-4.38,1.52-6.57-.86-.05-1.72-.09-2.58-.14Z"/><path class="cls-2" d="M280.82,202.37c-.36-.04-.72-.07-1.08-.11-.29-.03-.58-.06-.88-.09,.64,3.37,1.23,6.75,1.77,10.15,.3,.03,.59,.06,.88,.09,.36,.04,.73,.07,1.09,.11-.55-3.4-1.14-6.78-1.79-10.15Z"/><path class="cls-10" d="M261.59,97.07c-1.04-.15-2.12-.3-3.23-.46,.62,.94,1.23,1.89,1.84,2.84,1.12,.15,2.21,.31,3.26,.46-.62-.95-1.24-1.9-1.86-2.84Z"/><path class="cls-10" d="M332.7,206.46c-.08-.07-.17-.13-.26-.2,.82,3.21,1.58,6.43,2.29,9.66,.09,.07,.18,.13,.26,.2-.71-3.23-1.48-6.45-2.29-9.66Z"/><path class="cls-2" d="M323.81,176.52c-.14-.23-.35-.46-.63-.7-.08-.06-.16-.13-.25-.19-.13-.1-.28-.19-.44-.29,.41,1.11,.81,2.22,1.21,3.34,.16,.1,.31,.2,.44,.29,.09,.06,.17,.13,.25,.19,.28,.23,.49,.47,.64,.7-.4-1.12-.8-2.23-1.21-3.34Z"/><path class="cls-5" d="M289.8,445.43c-.54,.07-.89,.11-2.58,1.87-5.83,6.15-7.28,7.54-12.67,12.74l-1.02,2.31c6.32-6.02,7.54-7.3,12.68-12.66,.9-.93,1.23-1.18,1.71-1.24,.49,.6-.42,2.68-2.75,6.35-3.9,5.89-8,11.65-12.29,17.27-1.27,1.64-2.1,2.6-3.28,3.79-13.63,13.2-14.72,13.35-15.23,13.42-.97-.24-2.04-.48-3.19-.73-.77,.9-1.54,1.79-2.32,2.67,1.15,.24,2.2,.48,3.39,.72,.8-.21,1.63-.76,3.3-2.17,13.42-11.88,15.17-14.14,17.82-17.55,4.3-5.62,8.41-11.37,12.31-17.26,3.47-5.43,4.85-8.65,4.12-9.55Z"/><path class="cls-2" d="M243.33,487.14c-.33-.05-.66-.1-1-.16-.73-.11-1.48-.22-2.25-.34-.73,.9-1.47,1.8-2.21,2.69,.76,.11,1.51,.22,2.23,.33,.33,.05,.67,.1,.99,.15,2.61,.41,4.93,.83,6.98,1.24,.78-.89,1.55-1.78,2.31-2.68-2.07-.42-4.42-.84-7.06-1.25Z"/><path class="cls-2" d="M342.86,274.45c-.18-.47-.64-.95-1.37-1.43-1.26-.1-2.1,10.41-2.44,19.44,.17,.07,.34,.14,.49,.21,.37-9.36,1.05-15.22,1.88-16.07,.05,0,.11,0,.16,.01,.73,.48,1.19,.96,1.37,1.43-.02-1.2-.05-2.4-.08-3.59Z"/><path class="cls-2" d="M257.13,148.47c-2.62-.24-5.3-.48-8.05-.72,.36,1.07,.72,2.14,1.07,3.22,2.76,.24,5.46,.48,8.09,.72-.36-1.08-.73-2.15-1.11-3.22Z"/><g><path class="cls-10" d="M308.71,146.22c-.32-.14-.67-.27-1.1-.44-.21-.23-.33-.36-.83-1.21q-2.41-4.13-2.79-4.87c-2.9-5.71-5.96-11.31-9.2-16.8-.71-1.22-.84-1.56-1.02-1.99-1.46-4.44-3.87-8.44-5.77-12.68,.4,.27,.7,.54,.88,.81l-2.04-2.93c-.18-.26-.47-.53-.88-.75,.07,.15,.17,.33,.25,.47,3.18,5.39,4.88,11.48,8.02,16.89,3.23,5.49,6.29,11.09,9.18,16.8,.64,1.25,1.07,2.03,1.7,3.12q3.36,5.8,4.06,6.37c.37,.14,.72,.27,1.05,.41-.5-1.07-1.01-2.13-1.52-3.19Z"/><path class="cls-10" d="M305.43,138.25c-.55-1.06-.82-1.63-1-2.11-1.92-5.04-2.11-5.38-5.27-11.1l-.45-.75-1.52-2.49c3.45,5.95,4.16,7.8,5.71,11.84,.13,.33,.59,1.43,2.14,4.42,.51,.98,1.02,1.96,1.52,2.95,.13,.06,.26,.12,.38,.18-.5-.99-1.01-1.97-1.52-2.95Z"/></g><path class="cls-2" d="M311.41,147.83c-.37-.39-.95-.78-1.74-1.17,.51,1.06,1.02,2.13,1.53,3.19,.79,.4,1.38,.79,1.75,1.18-.51-1.07-1.02-2.14-1.54-3.2Z"/><path class="cls-2" d="M318.96,402.25c-.41,.19-1.49,2.27-3.51,6.74-1.27,2.87-2.59,5.71-3.94,8.53-.83,1.75-1.33,2.82-1.96,4.27q-3.7,8.6-3.72,8.68c.13,.2,.21,.4,.23,.6,.56-1.05,1.12-2.09,1.67-3.15-.02-.2-.1-.4-.23-.6,.02-.19,.04-.33,.65-1.66,1.22-2.64,2.31-5.33,3.57-7.96,1.36-2.82,2.67-5.66,3.95-8.53,1.41-3.13,1.67-3.4,1.9-3.64,.04,.05,.08,.09,.11,.26-.19,.73-.65,1.92-1.54,3.95-1.79,4-3.65,7.96-5.6,11.87,.03,.06,.06,.12,.09,.18,1.95-3.91,3.81-7.87,5.6-11.87,1.88-4.3,2.84-6.84,2.84-7.55-.03-.05-.07-.09-.11-.14Z"/><path class="cls-2" d="M237.85,265.16c-.94-.06-1.88-.13-2.83-.19,0,1.19,0,2.39,0,3.59,.95,.06,1.89,.13,2.83,.19,8.82,1.6,8.62,13.02,8.6,13.5-.31,9.46-.91,18.87-1.8,28.22,.8,.06,1.61,.12,2.4,.18,.9-9.34,1.51-18.75,1.82-28.22,.04-1.55,.1-15.17-11.02-17.27Z"/><path class="cls-2" d="M219.16,263.96c0,1.19,0,2.39,0,3.59,4.08,.25,8.09,.5,12.04,.75,0-1.2,0-2.39,0-3.59-3.94-.26-7.96-.51-12.03-.75Z"/><path class="cls-2" d="M331.23,275.6c-1.62-.38-3.42-.75-5.38-1.13-1.19-.44-1.94-1.65-2.87-4.63l-.95-3.24-.88-2.87c-2.73-8.34-2.84-8.67-4.5-9.16-1.42-.22-2.9-.44-4.44-.66-2.17,.23-3.25,2.94-3.28,8.29,.04,1.06,.07,2.11,.1,3.17,.08,1.98,.26,3.24,.72,4.97,.73,2.6,1.64,6.08,2.32,8.69l.76,3.11c.58,2.45,1.29,5.73,1.83,8.18l1.24-1.81c-.52-2.47-1.28-5.76-1.84-8.23l-.76-3.11q-2.71-10.6-2.75-11.6c-.03-1.06-.06-2.12-.1-3.17,.02-3.19,.66-4.81,1.96-4.94,1.54,.22,3.02,.44,4.44,.66,.66,.2,1.07,.74,1.57,2.08l1.76,5.37,.89,2.87c1.82,6.22,2.58,8.79,4.8,9.61,1.96,.38,3.76,.75,5.38,1.13,0-1.2,0-2.39-.01-3.59Z"/><path class="cls-2" d="M261.16,436.46c7.91-34.1,3.85-35.05,1.89-35.5-2.85-.29-5.79-.57-8.81-.85-.74-.07-1.48-.14-2.23-.2-.91-.08-1.82-.16-2.74-.24-.38,1.1-.76,2.21-1.15,3.3,1.27,.11,2.52,.22,3.76,.34,.74,.07,1.47,.13,2.2,.2,2.65,.25,5.23,.5,7.75,.75,1.51,.35,2.06,1.44,1.97,3.9-1.33,14.35-3.06,22.14-4.74,29.66-.24,1.08-.5,2.55-.57,3.65-.31,4.61,1.72,5.23,2.69,5.53,.91,.12,1.79,.24,2.66,.35,.58-1,1.16-2.01,1.74-3.02-.87-.12-1.76-.24-2.67-.36-2.22-.68-2.7-2.71-1.75-7.51Z"/><path class="cls-2" d="M242.8,399.11c-.37,1.11-.74,2.21-1.12,3.31,1.61,.13,3.21,.27,4.78,.4,.39-1.1,.77-2.2,1.15-3.31-1.58-.14-3.18-.27-4.81-.41Z"/><path class="cls-5" d="M270.5,98.53c-1.97-.37-4.14-.74-6.52-1.1,.63,.94,1.26,1.89,1.88,2.84,2.4,.37,4.59,.74,6.58,1.11-.64-.95-1.29-1.91-1.94-2.85Z"/><path class="cls-5" d="M30.95,488.84c0,.29-.01,.58-.02,.87-.09,5.07-.18,9.97-.26,14.7,.71,0,1.42,.02,2.14,.03,.14-4.73,.28-9.64,.42-14.7,0-.29,.02-.58,.02-.87-.77-.01-1.53-.02-2.3-.03Z"/><path class="cls-5" d="M306.02,431.5c-.03,.08-.06,.17-.1,.25l.51-.94,1.17-2.22c.04-.08,.07-.16,.1-.24-.55,1.05-1.11,2.1-1.67,3.14Z"/></g><circle class="cls-10" cx="44.16" cy="321.95" r="11.44" transform="translate(-279.3 290.67) rotate(-76.67)"/><circle class="cls-10" cx="127.13" cy="377.09" r="11.44" transform="translate(-229.41 200.34) rotate(-45)"/><circle class="cls-10" cx="132.57" cy="203.26" r="11.44" transform="translate(-104.9 153.28) rotate(-45)"/><circle class="cls-5" cx="32.72" cy="392.05" r="11.44" transform="translate(-359.5 361.37) rotate(-80.76)"/><circle class="cls-2" cx="160.72" cy="284.35" r="11.44" transform="translate(-153.99 196.93) rotate(-45)"/><circle class="cls-10" cx="209.3" cy="236.73" r="11.44" transform="translate(-106.09 217.33) rotate(-45)"/><rect class="cls-2" x="14.85" y="134.4" width="25.44" height="2.57"/><g><circle class="cls-10" cx="1544.85" cy="106.99" r="8.29"/><circle class="cls-10" cx="1746.82" cy="7.44" r="8.29"/><circle class="cls-10" cx="1807.9" cy="32.18" r="8.29"/><circle class="cls-10" cx="1738.53" cy="106.99" r="8.29"/><circle class="cls-10" cx="1743.56" cy="237.64" r="11.44" transform="translate(1110.21 1879.39) rotate(-76.67)"/><circle class="cls-5" cx="1847.72" cy="194.87" r="11.44" transform="translate(403.39 1363.61) rotate(-45)"/><circle class="cls-5" cx="1811.97" cy="106.99" r="8.29"/><circle class="cls-5" cx="1673.97" cy="237.64" r="11.44" transform="translate(322.26 1253.28) rotate(-45)"/><circle class="cls-5" cx="1878.47" cy="131.15" r="8.29"/><circle class="cls-2" cx="1743.56" cy="328.49" r="8.29"/><circle class="cls-5" cx="1873.1" cy="29.31" r="11.44" transform="translate(1412.59 1845.16) rotate(-76.67)"/><circle class="cls-5" cx="1677.06" cy="41.65" r="11.44" transform="translate(430.64 1164.46) rotate(-43.44)"/><rect class="cls-5" x="1742.28" y="169.36" width="2.57" height="37.34"/><rect class="cls-10" x="1849.43" y="83.51" width="2.57" height="31.65"/><rect class="cls-5" x="1565.84" y="105.7" width="65.67" height="2.57"/><rect class="cls-2" x="1877.18" y="145.56" width="2.57" height="31.6"/><rect class="cls-2" x="1640.41" y="91.19" width="2.57" height="31.6"/><rect class="cls-2" x="1742.28" y="264.74" width="2.57" height="25.44"/><rect class="cls-2" x="1833.6" y="129.86" width="25.44" height="2.57"/><rect class="cls-5" x="1838.1" y="72.12" width="25.23" height="2.57"/><rect class="cls-2" x="1766.66" y="105.7" width="25.44" height="2.57"/><rect class="cls-10" x="1652.9" y="105.7" width="58.44" height="2.57"/><rect class="cls-5" x="1866.04" y="193.58" width="27.02" height="2.57"/><rect class="cls-5" x="1690.76" y="236.35" width="17.61" height="2.57"/><rect class="cls-5" x="1734.76" y="303.9" width="17.61" height="2.57"/><rect class="cls-5" x="1871.82" y="62.29" width="2.57" height="17.61"/><path class="cls-2" d="M1966.45,205.41c-9.44,0-17.98,5.22-22.28,13.63l-10.09,19.76c-3.76,7.36-11.23,11.93-19.49,11.93h-31.74v2.57h31.74c9.23,0,17.58-5.11,21.78-13.33l10.09-19.76c3.85-7.54,11.51-12.23,19.98-12.23h15.85v-2.57h-15.85Z"/><path class="cls-10" d="M1822.47,250.74c-9.59,0-17.39-7.8-17.39-17.39v-19.79c0-9.59,7.8-17.39,17.39-17.39h8.27v-2.57h-8.27c-11.01,0-19.97,8.96-19.97,19.97v19.79c0,11.01,8.96,19.97,19.97,19.97h50.85v-2.57h-50.85Z"/><path class="cls-2" d="M1829.34,74.7h-4.32c-10.15,0-18.41-8.26-18.41-18.41v-11.38h2.57v11.38c0,8.73,7.11,15.84,15.84,15.84h4.32v2.57Z"/><path class="cls-5" d="M1744.85,157.92h-2.57v-5.23c0-12.59,10.24-22.83,22.83-22.83h55.15v2.57h-55.15c-11.17,0-20.26,9.09-20.26,20.26v5.23Z"/></g><circle class="cls-5" cx="1825.85" cy="394.58" r="11.44"/><circle class="cls-2" cx="1768.84" cy="286.48" r="8.29"/><rect class="cls-5" x="1826.02" y="304.43" width="2.57" height="34.42"/><rect class="cls-2" x="1791.47" y="285.19" width="25.44" height="2.57"/><rect class="cls-5" x="1804.19" y="368.98" width="119.43" height="2.57"/><rect class="cls-5" x="1826.02" y="273.97" width="2.57" height="17.61"/><path class="cls-10" d="M1787.33,371.55h2.33s0-2.57,0-2.57h-2.33c-10.14,0-18.38-8.25-18.38-18.38v-19.25s-2.57,0-2.57,0v19.25c0,11.55,9.4,20.96,20.96,20.96Z"/><path class="cls-2" d="M1866.1,353.29h2.57s0-44.45,0-44.45c0-13.04-10.61-23.65-23.65-23.65h-7.31s0,2.57,0,2.57h7.31c11.62,0,21.07,9.45,21.07,21.07v44.45Z"/><path class="cls-10" d="M1888.21,415.02h35.4s0-2.57,0-2.57h-35.4c-10.77,0-19.54-8.76-19.54-19.54v-8.85s-2.57,0-2.57,0v8.85c0,12.19,9.92,22.11,22.11,22.11Z"/></g></g></g></g></svg>