<?xml version="1.0" encoding="UTF-8"?><svg id="Layer_1" xmlns="http://www.w3.org/2000/svg" xmlns:xlink="http://www.w3.org/1999/xlink" viewBox="0 0 143.75 143.75"><defs><style>.cls-1{fill:#f4f6f9;stroke:#f4f6f9;}.cls-1,.cls-2{stroke-linecap:round;stroke-linejoin:round;stroke-width:1.5px;}.cls-3{fill:#003d87;opacity:.8;}.cls-4{fill:none;}.cls-2{fill:#f6ae2d;stroke:#f6ae2d;}</style><clipPath id="clippath-1"><rect class="cls-4" x="-10.57" y="204.07" width="1918.38" height="691.98"/></clipPath></defs><circle class="cls-3" cx="71.88" cy="71.88" r="71.88" transform="translate(-24.56 104.02) rotate(-63.43)"/><g><path class="cls-1" d="M134.7,59.99c-1.98-2.59-3.95-5.2-5.92-7.8-.93-1.23-1.87-2.47-2.82-3.68-.16-.21-7.93-10.53-10.9-14.5-.41-.55-.95-.83-1.63-.86-1.86-.09-3.72-.17-5.58-.29-8.92-.57-17.83-1.14-26.75-1.72-.91-.06-1.6,.2-2.03,1.01-.42,.8-.28,1.53,.28,2.25,1.43,1.84,2.81,3.72,4.25,5.56,.31,.39,.33,.68,.09,1.11-.57,.99-1.11,2.01-1.64,3.02-.24,.45-2.68,4.89-2.92,5.47-.29,.71-.75,.91-1.51,.91-16.01-.02-32.01-.02-48.02-.02-.72,0-1.44,.08-1.81,.74-.25,.44-.36,1.02-.36,1.53-.02,17.28-.01,34.57-.02,51.85,0,2.42,1.14,3.58,3.55,3.58h54.94c8.74,0,17.48,0,26.22,0,2.63,0,3.73-1.09,3.73-3.69,0-1.23,0-2.46,0-3.68,0-7.61,0-15.22-.01-22.83,0-.44,.08-.72,.52-.9,1.08-.46,1.82-1.26,2.37-2.31,2.04-3.86,4.12-7.7,6.2-11.54,.12-.22,.39-.51,.59-.52,.8-.02,1.6,.07,2.39,.12,.04,.14,.07,.21,.07,.28,.09,3.95,.18,7.9,.24,11.85,0,.21-.23,.51-.43,.63-1.13,.69-1.95,1.54-1.96,2.98,0,.51-.1,1.03-.22,1.53-.23,.99-.51,1.97-.77,2.96,1.06,.06,1.08,.08,1.45,1.55,1.75,0,3.51,.02,5.27,0,1.22-.01,1.63-.75,1.28-1.94-.44-1.5-.83-3.02-1.12-4.56-.16-.85-.45-1.55-1.17-2.03-.43-.28-.52-.64-.52-1.12-.03-2.38-.1-4.76-.13-7.14-.02-1.59,0-3.18,0-4.84,1.07,.06,2.12,.1,3.16,.19,.84,.07,1.42-.3,1.81-1,.4-.73,.36-1.44-.17-2.13ZM29.28,95.87V56.5c.26-.01,.5-.04,.73-.04,15.37,0,30.73,0,46.1-.02,.65,0,.91,.17,1.12,.8,.74,2.33,2.26,4.15,3.96,5.85,7.71,7.7,16.93,12.53,27.64,14.52,.84,.16,1.7,.23,2.56,.28,.83,.05,1.66,0,2.6,0v17.96H29.28Zm84.69,1.9v2.3h-.84c-11.05,0-22.09,0-33.14,0-.73,0-1.31,.07-1.45,.97-.03,.18-.52,.4-.8,.4-2.13,.03-4.27,.02-6.41,.02-1.94,0-3.88,0-5.82,0-.43,0-.79-.04-.87-.56-.11-.68-.57-.83-1.18-.83-1.94,.01-3.88,0-5.82,0-9.08,0-18.16,0-27.25,0h-1.13v-2.3H113.97ZM29.26,52.31h48.26c-.27,.74-.54,1.46-.84,2.27H29.26v-2.27Zm84.71,53c-.02,.58-.43,.91-1.01,.99-.22,.03-.44,.02-.66,.02-27.12,0-54.24,0-81.36,0-.34,0-.74,.04-1-.13-.3-.18-.65-.56-.67-.87-.08-1.12-.03-2.24-.03-3.42,.3-.01,.54-.03,.78-.03,10.75,0,21.5,0,32.25,0,.47,0,.81,.07,1.1,.52,.43,.67,1.15,.89,1.92,.89,4.25,0,8.49,0,12.74,0,.76,0,1.43-.26,1.85-.89,.29-.44,.61-.53,1.09-.53,10.36,.01,20.71,0,31.07,0,.61,0,1.22,0,1.96,0,0,1.21,.03,2.34-.01,3.46Zm8.94-42.23c-1.9,3.55-3.84,7.07-5.69,10.64-.59,1.13-1.47,1.74-2.63,2.05-1.77,.47-3.55,.42-5.33,.1-10.74-1.98-19.9-6.89-27.48-14.75-1.13-1.18-2.07-2.48-2.71-4-.59-1.42-.65-2.74,.22-4.13,.94-1.5,2.4-4.42,3.3-6.09,.85-1.57,1.7-3.15,2.58-4.79,.2,.25,.36,.42,.5,.61,1.41,1.86,2.83,3.71,4.23,5.57,3,3.98,5.98,7.96,8.98,11.94,.42,.56,.98,.87,1.7,.86,.29,0,.59-.02,.88,0,5.93,.38,11.85,.76,17.78,1.14,1.28,.08,2.56,.18,3.93,.27-.13,.27-.19,.43-.27,.58Zm7,15.21c.23,1.47,.57,2.92,.87,4.44h-3.85c.26-1.53,.45-3.08,.81-4.59,.1-.41,.72-.96,1.12-.97,.48-.01,.93,.44,1.04,1.12Zm0-17.19c-.16-.01-.33-.08-.47-.18-7.09-4.92-14.19-9.85-21.28-14.77-.22-.15-.49-.39-.7-.36-.34,.06-.77,.23-.94,.5-.29,.45-.04,.89,.39,1.19,1.35,.94,2.7,1.87,4.05,2.81,4.86,3.37,9.72,6.73,14.58,10.1,.15,.1,.29,.22,.62,.47-1.87-.12-3.53-.21-5.18-.32-5.8-.37-11.61-.75-17.41-1.12-.93-.06-1.86-.09-2.79-.17-.18-.02-.4-.15-.51-.3-6.38-8.4-12.75-16.81-19.12-25.22-.16-.21-.31-.43-.53-.73,.25-.03,.41-.08,.56-.07,8.62,.56,17.24,1.12,25.86,1.68,2.03,.13,4.07,.23,6.1,.37,.18,.01,.42,.12,.53,.27,6.32,8.32,12.63,16.65,18.94,24.98,.23,.31,.46,.62,.81,1.1-1.31-.09-2.41-.15-3.5-.24Z"/><g><path class="cls-2" d="M78.65,70.77c-.22-.13-.57-.07-.87-.07-8.89,0-17.77,0-26.66,0-.24,0-.57-.07-.72,.06-.29,.24-.64,.59-.65,.9-.01,.27,.38,.62,.67,.81,.19,.13,.52,.04,.79,.04,4.42,0,8.84,0,13.26,0,4.49,0,8.99,0,13.48,0,.24,0,.57,.07,.72-.05,.29-.24,.64-.58,.66-.9,.01-.26-.38-.61-.68-.79Z"/><path class="cls-2" d="M78.65,85.63c-.22-.13-.57-.07-.87-.07-8.89,0-17.77,0-26.66,0-.23,0-.52-.06-.69,.04-.44,.08-.72,.35-.73,.84-.01,.53,.28,.83,.75,.91,.16,.08,.39,.05,.6,.03,.12,0,.25,0,.37,0,8.81,0,17.61,0,26.42,0h.24c.15,.01,.31,.03,.44,0h.02s0,0,0,0c.04-.01,.08-.03,.11-.05,.29-.24,.64-.58,.66-.9,.01-.26-.38-.61-.68-.79Z"/><path class="cls-2" d="M50.52,80.71c.14,.02,.29,.01,.44,.01,7.14,0,14.28,0,21.41,0,.27,0,.6,.07,.79-.06,.29-.19,.67-.51,.68-.79,.02-.29-.31-.65-.58-.88-.15-.13-.47-.08-.71-.08-3.56,0-7.11,0-10.67,0-3.56,0-7.11,0-10.67,0-.25,0-.49-.02-.73,.02-.5,.08-.8,.4-.79,.9,0,.51,.33,.8,.82,.88Z"/><path class="cls-2" d="M35.74,73.49c.62,.77,1.14,.77,1.79,0,2.11-2.49,4.21-4.98,6.32-7.47,.69-.82,.77-1.36,.27-1.77-.51-.4-.94-.25-1.64,.57-1.91,2.27-3.83,4.53-5.76,6.83-.11-.06-.16-.08-.19-.11-.58-.73-1.16-1.46-1.74-2.18-.48-.59-.99-.71-1.44-.35-.46,.36-.46,.85,.03,1.48,.78,1.01,1.57,2.01,2.37,3Z"/><path class="cls-2" d="M44.18,79.18c-.18-.19-.39-.28-.61-.27,0,0,0,0-.01,0-.27,.02-.56,.18-.83,.49-.05,.05-.09,.11-.14,.17-.04,.04-.08,.09-.11,.13-.2,.23-.4,.47-.6,.7-.6,.71-1.2,1.41-1.79,2.12-.38,.45-.76,.9-1.14,1.35-.28,.31-.57,.61-.8,.94-.46,.55-.93,1.1-1.4,1.66-.03,.01-.05,.02-.08,.03-.08-.05-.13-.06-.15-.09-.58-.73-1.16-1.46-1.74-2.18-.04-.05-.08-.1-.13-.14,0,0-.01-.02-.02-.03-.34-.47-.83-.54-1.29-.19-.47,.36-.47,.84-.11,1.3,0,0,.01,.01,.02,.02,.04,.06,.08,.11,.12,.17,.44,.56,.88,1.12,1.32,1.68,.27,.35,.55,.69,.82,1.03,.08,.1,.15,.19,.23,.29,.02,.03,.04,.05,.07,.08,.02,.03,.04,.05,.06,.08,.23,.28,.49,.42,.75,.42,0,0,.02,0,.02,0,.02,0,.05,0,.07,0,.01,0,.03,0,.04,0,.02,0,.05,0,.07-.02,0,0,.01,0,.02,0,.18-.06,.35-.18,.52-.36,.37-.4,.7-.82,1.05-1.23,1.37-1.62,2.75-3.25,4.12-4.87,.43-.51,.87-1.03,1.3-1.54,0,0,.01-.02,.02-.03,.05-.06,.11-.13,.16-.19,.28-.33,.5-.66,.4-1.05-.02-.16-.11-.31-.25-.44Z"/><path class="cls-2" d="M50.73,65.86c2.19,0,5.77,.04,8.09-.02,.04,.03,.14,.04,.33,.04,3.92-.03,9.55-.01,13.48-.02,.22,0,.45,0,.65-.07,.63-.21,.87-.99,.38-1.41-.25-.21-.66-.32-1-.32-4.07-.02-9.45-.01-13.52-.01-.04,0-.06,0-.06,0-2.57,0-6.05-.01-8.54,0-.54,0-.86,.37-.85,.91,.02,.63,.43,.89,1.03,.89Zm8.44-1.06s0,0,0,0c0-.03,0-.05,0-.08,0,0,.01,.01,.02,.02,0,.02,0,.04,0,.06Zm-.01-.71c.03,.26,.03,.46,.02,.65,0-.23-.06-.42-.02-.67,.06,0,.14,.02,0,.03Zm-.08,1.13s-.03,.08-.05,.12c0-.04,.01-.08,.05-.12Z"/></g></g></svg>