<?xml version="1.0" encoding="utf-8"?>
<!-- Generator: Adobe Illustrator 27.0.0, SVG Export Plug-In . SVG Version: 6.00 Build 0)  -->
<svg version="1.1" id="Layer_1" xmlns="http://www.w3.org/2000/svg" xmlns:xlink="http://www.w3.org/1999/xlink" x="0px" y="0px"
	 viewBox="0 0 1920 1080" style="enable-background:new 0 0 1920 1080;" xml:space="preserve">
<style type="text/css">
	.st0{clip-path:url(#SVGID_00000047739026934727517950000012950393218195913139_);}
	.st1{opacity:0.4;}
	.st2{opacity:0.71;fill:#3AA1FF;enable-background:new    ;}
	.st3{fill:#0072C8;}
	.st4{fill:#003D87;}
	.st5{opacity:0.4;fill:#3AA1FF;enable-background:new    ;}
	.st6{opacity:0.11;}
	.st7{fill:#3AA1FF;}
</style>
<g>
	<g id="Layer_2_00000101074923418339476100000005166843196957022910_">
		<g id="Layer_1-2">
			<g>
				<defs>
					<rect id="SVGID_1_" x="320" y="246.6" width="1280" height="327.4"/>
				</defs>
				<clipPath id="SVGID_00000095299292734360271410000017146318706467158409_">
					<use xlink:href="#SVGID_1_"  style="overflow:visible;"/>
				</clipPath>
				<g style="clip-path:url(#SVGID_00000095299292734360271410000017146318706467158409_);">
					<g class="st1">
						<polygon class="st2" points="1754.4,380.2 1720.5,361.6 1720.5,309.3 1628.9,309.3 1628.9,253.1 1511.1,253.1 1511.1,395.5 
							1483.7,395.5 1483.7,428.8 1462.3,428.8 1462.3,508.5 1437.3,508.5 1437.3,398.8 1375.4,398.8 1375.4,366.8 1340.3,366.8 
							1340.3,418.1 1307.6,436 1307.6,539.2 1230.3,539.2 1230.3,312.6 1147,312.6 1147,355 1081.5,355 1063.7,364.8 1063.7,388.3 
							981.6,388.3 966.1,396.8 966.1,476.5 931.6,476.5 931.6,353.7 867.4,353.7 867.4,375.3 765.6,375.3 765.6,427.2 747.2,437.3 
							747.2,488.3 716.5,488.3 716.5,362.5 674.8,353.3 674.8,319.4 563,319.4 563,463 545.2,463 545.2,280.8 521.4,281.5 
							451.2,301.1 451.2,480 421.4,480 421.4,361.8 403.6,338.3 403.6,329.2 361.9,329.2 361.9,338.3 339.3,338.3 321.5,359.2 
							304.8,359.2 304.8,271.7 262,271.7 262,303.4 200.7,303.4 165.6,322.6 165.6,769.3 642.9,769.3 716.5,769.3 924.9,769.3 
							924.9,769 1754.4,768.4 						"/>
						<polygon class="st3" points="1448.7,379.5 1431.8,398.1 1431.8,454.9 1413.8,454.9 1413.8,299.2 1333.5,299.2 1333.5,661.8 
							1309.3,635.3 1309.3,426.5 1130.6,426.5 1130.6,479.6 1036.2,479.6 1036.2,646.4 1036.2,719.8 953.2,719.8 953.2,502.9 
							929.2,502.9 929.2,418.5 880,418.5 880,558.3 857.2,558.3 857.2,584.7 828.5,534.6 778.1,534.6 778.1,353.9 680.9,353.9 
							672.5,363.2 672.5,418.5 672.5,480.5 644.9,480.5 644.9,315.7 562.2,315.7 562.2,343.4 546,361.2 546,642 527.4,642 
							527.4,416.6 516.6,416.6 516.6,394.8 421.2,394.8 405,412.6 405,437.7 315,437.7 310.2,757.4 610.1,757.4 610.1,756.8 
							914.8,756.8 914.8,757.4 1036.2,757.4 1211.1,757.4 1520.6,757.4 1520.6,379.5 						"/>
						<polygon class="st4" points="1520.1,402.8 1520.1,628.1 1491.1,628.1 1491.1,538.4 1449.9,503.5 1449.9,367.8 1397.8,367.8 
							1367.5,342.1 1328.7,342.1 1328.7,478.8 1235.4,478.8 1235.4,634 1211.2,634 1211.2,417.2 1143.3,447 1143.3,576.4 
							1125.1,576.4 1125.1,377.1 1102.1,377.1 1102.1,318.5 1096.3,318.5 1096.3,305.1 1044.8,305.1 1044.8,316.5 1012.5,316.5 
							1012.5,361.7 959.2,361.7 945.8,377.1 945.8,562 900.4,562 900.4,524.5 871.9,500.4 871.9,412 772.6,412 772.6,485 736.2,485 
							736.2,546.6 692.6,587.7 664.7,587.7 664.7,392.5 587.2,347.3 587.2,528.1 569,528.1 569,403.8 476.9,403.8 476.9,447 
							434.5,447 434.5,653.5 416.4,653.5 416.4,564.1 354.6,564.1 354.6,536.4 343.7,523 277,523 272.2,883.7 1422.2,883.7 
							1491.1,883.7 1520.1,883.7 1599,883.7 1599,402.8 						"/>
						<rect x="1303.4" y="251.1" class="st5" width="7.8" height="15.7"/>
					</g>
					<g>
						<g class="st6">
							<g>
								<g>
									<g>
										<g>
											<path class="st4" d="M971.3,606.9c-2.5,0.2-5.2,0.3-8.2,0.5c-0.6-0.2-1.1-0.6-1.5-1c-0.3-0.4-30.3-42.7-36.8-43.3
												c-0.9,0-1.7,0-2.6,0.1c-1.4,0-2.9,0.1-4.3,0.1c-4.3,0.7-4.5,6.2-1.5,9.7c7.3,7.4,11,11.7,11.2,12.8
												c0.2,1.8,0.5,3.6,0.7,5.4c0.3,2,0.9,3.1,2.2,4.4c2.5,2.3,3.9,4,4.1,5.2c0.4,4.2,0.7,8.5,1,12.8c0,2.1-0.9,3.3-2.5,3.5
												c-1.2,0-2.5,0.1-3.7,0.1c-1-0.1-1.2-0.2-2-1c-12-13.8-18-20.9-18.1-21.4c-0.4-5-1-9.9-1.6-14.8c-0.7-3.5-2.5-5.3-5.4-5.6
												c-2.4,0-4.9,0.1-7.4,0.1c-1.1-0.1-1.4-0.3-2.3-1.2c-4.5-5.4-7.5-8.2-9.1-8.3c-1.5,0-2.9,0-4.4,0.1
												c-1.8-0.2-2.8-1.3-3.2-3.3c0-0.1,0-0.2,0-0.2c-0.1-2,0.7-3.1,2.4-3.3c7-0.1,14-0.2,20.8-0.3c1.6-0.2,2.4-0.7,3.3-2.5
												c0.8-1.7-0.3-3.7,0.5-5.4c3.9-6.6,6.1-10,6.7-10.2c2.4-0.1,4.8-0.1,7.1-0.2c14.9-0.5,27.7-1,38.4-1.8
												c-0.3-0.7-0.6-1.4-0.8-2.1c-10.6,0.7-23.4,1.3-38.2,1.7c-2.3,0.1-4.7,0.1-7,0.2c-1.4,0.2-1.7,0.4-2.6,1.6
												c-4,7.3-5.9,11.5-5.8,12.5c0.2,1.4,0.4,3.5-2,3.9c-6.8,0.1-13.7,0.2-20.7,0.3c-1.8,0.2-4.2,1.1-4,5.6c0,0.1,0,0.2,0,0.2
												c0.3,1.9,1.4,5.1,5.4,5.5c1.5,0,3,0,4.4,0c1.1,0.1,1.4,0.3,2.3,1.2c4.5,5.5,7.5,8.2,9.1,8.3c2.5,0,4.9-0.1,7.4-0.1
												c1.7,0.2,2.8,1.2,3.2,3.3c0.6,4.9,1.1,9.8,1.5,14.8c0.2,1.8,0.7,2.8,1.7,4c12.6,13.7,19.4,20.6,20.4,20.7
												c1.2,0,2.5-0.1,3.7-0.1c2.8-0.5,4.1-2.4,4.2-6c-0.2-4.3-0.6-8.5-1-12.8c-0.3-2-0.8-3.1-2.1-4.4c-2.5-2.3-3.9-4-4.2-5.2
												c-0.2-1.8-0.5-3.6-0.7-5.4c-0.3-1.7-0.8-2.7-1.9-4c-7.2-7.4-10.8-11.3-10.9-11.5c-0.6-1-1.1-4.2,1.6-4.7
												c1.5,0,2.9-0.1,4.4-0.1c0.9,0,1.8,0,2.6-0.1c1,0.1,1.2,0.2,2.1,1c12.9,14.4,23.2,27.1,30.6,37.8c2.5,3.7,4.4,5.5,5.6,5.7
												c2.8-0.2,5.4-0.3,8-0.5C971.5,608.5,971.4,607.7,971.3,606.9L971.3,606.9z"/>
											<path class="st4" d="M983.1,606c-3.2,0.3-6.7,0.5-10.5,0.8c0.1,0.8,0.2,1.6,0.2,2.4c3.7-0.2,7.2-0.5,10.5-0.8
												C983.3,607.6,983.2,606.8,983.1,606z"/>
											<path class="st4" d="M988.6,540.4c-1.7,0.3-3.8,0.7-6.1,1c-0.3-0.1-0.4-0.1-0.9-0.6c-6.1-6.6-6.1-6.6-7.1-6.6
												c-5.3,0.6-11.7,1.2-19.2,1.7c0.3,0.7,0.6,1.4,0.9,2.1c7.5-0.5,14-1.1,19.4-1.7c0.3,0.1,0.5,0.1,1,0.6
												c4.2,4.4,6.5,6.6,6.9,6.7c2.3-0.3,4.3-0.6,6.1-1C989.3,541.8,989,541.1,988.6,540.4L988.6,540.4z"/>
											<path class="st4" d="M1004.6,555.8l-0.3-0.9l-0.5-1.3c0.1,0.2,0.1,0.5-0.1,0.7c-0.1-0.1-0.1-0.2-0.4-0.8
												c-4.3-9.5-7.5-14.7-8.1-14.9c-1.3,0.6-3.3,1.1-6,1.7c0.3,0.7,0.6,1.4,1,2.2c2.7-0.5,4.8-1.1,6-1.7c0.1,0,0.2,0.1,0.7,0.8
												c2.8,4.9,4.3,7.5,7.1,13.9c0.4,0.8,0.4,0.9,0.6,1C1004.7,556.3,1004.7,556.1,1004.6,555.8L1004.6,555.8z"/>
										</g>
										<path class="st4" d="M995,678.1c1-4.9,1.5-7.5-6.8-22.8c-0.8-1.6-1-3.1-0.8-5.7c0.2-3.2,0.4-6.4,0.5-9.6
											c-0.1-6-1.6-9-4.5-9.4c-1.3,0.1-2.7,0.2-4.1,0.3c-2.3-0.1-2.6-0.8-5-8.5c-0.4-1.4-0.5-1.8-0.6-3.3
											c-0.2-3.3-0.4-6.7-0.7-10c-0.1-0.8-0.1-1.6-0.2-2.4c-0.3-3.5-0.7-7-1.2-10.4c-0.4,0-0.9,0.1-1.3,0.1
											c0.5,3.5,0.9,6.9,1.2,10.4c0.1,0.8,0.2,1.6,0.2,2.4c0.3,3.3,0.5,6.6,0.7,10c0.1,1.4,0.8,4.4,2.2,9c1.2,3.5,2.5,4.9,4.8,5
											c1.4-0.1,2.8-0.2,4.1-0.3c2.2,0.3,3.4,2.6,3.4,7.1c-0.1,3.2-0.3,6.4-0.5,9.6c-0.1,2.7,0,4.8,0.5,6.1
											c2,5.8,5.5,11,7.5,16.9c0.4,1.5,0.4,3-0.1,5.5c-0.9,4.2-2,8.3-3.1,12.3c-1.4,5.6-1.3,8.4,0.4,8.7c0.2,0,0.4-0.1,0.6-0.1
											c0.2-0.7,0.5-1.5,0.7-2.2c-0.2,0-0.4,0.1-0.6,0.1c-0.8-0.5-1.7-1-0.3-6.5C993,686.3,994,682.2,995,678.1L995,678.1z"/>
										<path class="st4" d="M1008.8,665.1c-1.1,0.3-2.4,0.6-3.9,0.9c-1,0.5-1.8,2.5-2.6,6c-2.8,13.6-6.9,26.9-12.3,39.8
											c-1,2.3-2,4.7-3.1,7c-0.7,1.5-0.8,1.7-4.1,6c-0.5,0.5-0.5,0.7-0.9,0.9c-0.9,0.2-1.6,0.3-2.3,0.4c-0.1,0-0.2-0.1-0.3-0.2
											c0-1.3,2.4-5.3,7.4-12.1c0.9-1.3,1.4-2.2,2.1-3.8c1-2.6,2-5.2,3-7.8c-0.2,0-0.5,0.1-0.7,0.1c-0.9,2.6-1.9,5.2-3,7.8
											c-0.7,1.6-0.8,1.9-6.5,9.5c-1.1,1.5-2,3.1-2.7,4.8c-0.9,2.3-0.8,3.2-0.7,3.5c0.1,0.1,0.3,0.2,0.5,0.3
											c0.7-0.1,1.4-0.2,2-0.3c0.9-0.4,1.2-0.7,4.7-5.4c0.9-1.2,1.4-2.2,2.2-3.8c1.1-2.3,2.1-4.6,3.1-7
											c5.4-12.8,9.6-26.1,12.3-39.8c0.6-2.8,1.1-3.2,1.6-3.6c1.5-0.3,2.8-0.6,3.9-0.9c0.8,1-0.9,13-2.6,20.4
											c-0.2,0.8-0.2,1-0.5,1.9c-0.2,0.5-0.3,1-0.5,1.4c-0.9,2.7-1.2,3.1-1.5,3.5c-0.2,0.1-0.4,0.2-0.6,0.2
											c-0.3,0.7-0.5,1.5-0.8,2.2c0.2-0.1,0.4-0.1,0.6-0.2c0.5-0.6,1-1.3,2.5-5.8c0.2-0.5,0.3-1,0.5-1.4c0.1-0.4,2.8-9,3.7-22.5
											C1009.3,665.5,1009.2,665.4,1008.8,665.1L1008.8,665.1z"/>
										<g>
											<path class="st4" d="M1000.9,701.6c-0.3,0.7-0.6,1.5-0.9,2.2c0.6-0.2,1-0.5,1.3-0.8c0.2-0.3,0.6-1.2,1.4-3.3
												c1.4-3.7,1.6-4.2,3.4-9.3c0.3-0.9,0.7-2,1-3.1c-2.7,8.5-4.8,13.2-4.9,13.4C1001.9,701.1,1001.5,701.3,1000.9,701.6
												L1000.9,701.6z"/>
											<path class="st4" d="M1007.1,687.4c0.2-0.6,0.4-1.2,0.6-1.8C1007.5,686.1,1007.3,686.7,1007.1,687.4z"/>
											<path class="st4" d="M1007.8,685.3c0,0.1-0.1,0.2-0.1,0.3C1007.7,685.5,1007.8,685.4,1007.8,685.3L1007.8,685.3
												L1007.8,685.3z"/>
										</g>
										<path class="st4" d="M948.7,744.3c-0.6-0.7-0.8-0.8-1.9-0.9c-2.2,0.2-4.5,0.3-7,0.4c-1.2,0.2-2.3,1.2-3.4,3
											c-1.8,3.5-3.7,7-5.7,10.4c0.4,0,0.8,0,1.2-0.1c2-3.4,3.9-6.8,5.8-10.4c0.3-0.5,0.4-0.6,0.8-0.9c2.7-0.2,5-0.4,7.2-0.5
											c3.2,0.1,5.8,12.9,5.8,13.1c-0.1,1.9-0.2,5-20.1,22.2c-2.6,2.2-4.3,3.2-5.7,3.5c-3.3,0.3-7,0.5-11.1,0.8
											c-2.9,0.5-5.5,2.5-9.4,5.6c-2.5,1.8-4,2.6-5.6,2.8c-1.8,0.1-3.8,0.2-5.7,0.3c-1.1-0.1-0.8-2.7,0.7-8
											c0.3-1,0.6-1.6,1.4-2.7c0.7-1,1.5-2.1,2.2-3.1c1.8-2.7,3.6-5.5,5.3-8.3c0.9-1.5,3.2-3.7,6.8-6.8
											c1.1-0.9,6.9-5.9,14.2-12.7c2-1.7,3.3-2.4,4.9-2.6c1.7-0.1,3.3-0.2,4.8-0.2c0.3-0.6,0.7-1.3,1-1.9
											c-1.6,0.1-3.2,0.2-4.9,0.2c-1.6,0.2-3.1,0.7-5.5,2.7c-6.5,5.1-12.2,11.1-18.4,16.4c-1.9,1.7-2.9,2.9-4.2,5
											c-1.7,2.8-3.4,5.6-5.2,8.3c-0.7,1.1-1.4,2.1-2.1,3.1c-0.3,0.4-1.5,3.4-3.6,9.1c-0.7,2.1-0.2,2.9,1.5,3
											c1.9-0.1,3.8-0.2,5.6-0.3c3.1-0.4,5.9-2.6,9.4-5.3c2.5-1.9,4.1-2.7,5.6-3c4-0.2,7.7-0.5,10.9-0.8c1.2-0.2,5-1,22.5-18.7
											C953.9,759.3,955.6,757.5,948.7,744.3L948.7,744.3z"/>
										<path class="st4" d="M956.9,718.3c-0.4,1.2-0.9,2.3-1.3,3.4c-2.1,4.9-2.3,5.5-18.5,16.9c-1.4,0.9-2.2,1.2-3.4,1.3
											c-0.8,0-1.6,0.1-2.4,0.1c-1-0.1-0.7-2.3,1-6.7c1.9-4.4,3-5.2,9.1-9.6c1.3-0.9,2.2-1.3,3.3-1.4c3.2-0.2,6.2-0.3,9.1-0.5
											c0.3-0.7,0.5-1.4,0.8-2.1c-2.9,0.2-6,0.4-9.2,0.5c-1.4,0.1-4.1,1.7-8.3,4.7c-4.7,3.7-6,7.1-8.1,12.8
											c-0.9,2.7-0.5,4,1.3,4.2c0.8,0,1.6-0.1,2.4-0.1c1.9-0.2,3.1-0.3,18-11.9c2.8-2.4,4.4-4.7,6.1-8.5c0.5-1.1,0.9-2.3,1.3-3.4
											C957.7,718.2,957.3,718.3,956.9,718.3L956.9,718.3z"/>
										<path class="st4" d="M988.3,676c-0.3,0-0.7,0.1-1.1,0.1c-0.8-0.1-1.9-1.7-3.4-4.9c-2.2-4.8-2.4-5.1-6.5-11.7
											c-0.9-1.6-1.2-3.2-1-5.8c0.2-2.3,0.4-4.6,0.5-6.8c0-6-1.7-9.2-5.2-9.5c-2,0.3-4.9,4.8-8.7,13.4c-0.8,1.9-1.1,3.1-1.3,5.2
											c-0.3,4-0.8,8-1.3,12c-0.2,2.5-0.2,4.5,0.8,6.7c2.9,6.3,7.3,11.8,10.4,18.1c0.7,1.4,5,1.5,12.8,0.5l0,0l0,0l0,0l0,0l0,0
											l0,0c0.3,0.1,0.8,0.3,0.3,2.3c-1.1,3.6-2.2,7.1-3.5,10.7c0.3,0,0.6-0.1,0.9-0.1c1.3-3.5,2.4-7.1,3.5-10.7
											c0.8-3-2.8-4.1-10.9-3.2c-0.4,0-1.3,0-2-1.3c-3.4-7-5.3-10.4-10-17.4c-1-1.6-1.2-3.1-1-5.7c0.5-4,1-8,1.3-12
											c0.1-0.9,1.6-5.1,4.6-12.4c2.6-5.7,6.1-4.2,7.3-0.7c0.5,1.4,0.5,3,0.5,4.1c-0.1,2.3-0.3,4.6-0.5,6.9
											c-0.1,2.5,0,4.6,0.9,6.9c2.3,5.6,6.1,10.5,8.5,16c0.7,1.3,1.1,1.5,1.9,1.7c0.7,0,1-0.1,1.4-0.1c1.8,0.2,2.3,2.5,1.4,6.8
											c-1.2,5-2.7,9.9-4.2,14.7c0.3,0,0.6-0.1,0.9-0.1c1.6-4.8,3-9.8,4.2-14.7C991.3,679.3,990.7,676.3,988.3,676L988.3,676z"/>
										<path class="st4" d="M975,514.8c-1.4-2.2-2.8-4.3-4.2-6.5c-0.2,0-0.3,0.1-0.5,0.1c1.4,2.1,2.8,4.3,4.2,6.5
											c1.5,2.6,1.9,4,1.3,4.4c-2.5,0.4-5.4,0.8-8.8,1.2c-2.2-0.3-4.5-4.8-4.5-4.8c-0.1-0.3-0.9-3.2-2.2-8.8
											c-0.2-0.9-0.1-1.2,0.3-1.3c4.8-0.6,8.5-1.2,10.9-1.9c-0.5-0.6-0.9-1.3-1.4-1.9c-2.5,0.7-6.1,1.3-10.8,1.9
											c-0.2,0.1-0.7,0.2-0.6,1.1c0.3,2.5,1.1,4.9,1.6,7.3c0.4,1.8,1.2,3.7,2.5,5.7c1.1,1.7,3.2,4.5,5.3,4.7
											c3.4-0.4,6.3-0.8,8.8-1.2C977.8,520.8,977.2,518.7,975,514.8L975,514.8z"/>
										<path class="st7" d="M972.9,500.8c-0.5,0.3-1.3,0.6-2.3,0.9c0.5,0.6,0.9,1.3,1.4,1.9c1-0.3,1.8-0.6,2.3-0.9
											C973.9,502,973.4,501.4,972.9,500.8L972.9,500.8z"/>
										<path class="st7" d="M969.4,583.7c-0.4,0-0.9,0.1-1.3,0.1c0.5,2.5,0.9,5.1,1.3,7.6c0.5,0,0.9-0.1,1.3-0.1
											C970.3,588.8,969.9,586.3,969.4,583.7L969.4,583.7z"/>
										<path class="st7" d="M980,709.4c-0.5,1.3-1,2.6-1.5,4c-1,2.5-2,5-3.1,7.5c0.3,0,0.6-0.1,0.9-0.1c1.1-2.5,2.1-4.9,3.1-7.5
											c0.5-1.3,1-2.6,1.5-4C980.6,709.4,980.3,709.4,980,709.4L980,709.4z"/>
										<path class="st3" d="M973.8,724.3c-0.7,1.5-1.4,2.9-2.1,4.4c0.3,0,0.6-0.1,0.9-0.1c0.7-1.4,1.4-2.9,2.1-4.4
											C974.4,724.2,974.1,724.3,973.8,724.3L973.8,724.3z"/>
										<path class="st7" d="M928.7,760.7c-1.8,3-3.7,5.8-5.7,8.7c0.4,0,0.8,0,1.1-0.1c2-2.8,3.9-5.7,5.7-8.7
											C929.5,760.6,929.1,760.6,928.7,760.7L928.7,760.7z"/>
										<path class="st7" d="M961.7,704c-1.1,3.7-2.3,7.4-3.6,11.1c0,0,0,0.1,0,0.1c0.4,0,0.8-0.1,1.3-0.1c0,0,0-0.1,0-0.1
											c1.3-3.7,2.5-7.4,3.6-11.1C962.5,704,962.1,704,961.7,704L961.7,704z"/>
										<path class="st7" d="M998.1,702.5c-0.3,0.7-0.6,1.5-0.8,2.2c0.7-0.2,1.4-0.4,2-0.6c0.3-0.7,0.6-1.5,0.9-2.2
											C999.5,702.1,998.9,702.3,998.1,702.5L998.1,702.5z"/>
										<path class="st3" d="M1016.5,619c0,0.7-0.9,1.4-2.8,2.1c0,0.8,0,1.6,0.1,2.4c1.8-0.7,2.8-1.4,2.8-2.1
											C1016.6,620.6,1016.5,619.8,1016.5,619z"/>
										<path class="st4" d="M987.3,519.1l-0.3-0.5l-1-1.7l-0.3-0.6c-0.1-0.1-0.1-0.2-0.2-0.3c0,0.2,0,0.3,0,0.5
											c-0.3-0.3-1.8-2.6-2-3.1c0-0.1,0-0.2,0-0.3c-0.1-0.2-1-1.6-2.7-4.2c-0.1-0.2-0.2-0.3-0.3-0.5c0-0.1-0.1-0.1-0.1-0.2
											l-1.4-2c0,0,0.1,0.1,0.1,0.2c0.9,1.4,1.8,2.8,2.7,4.2c0.2,0.3,0.2,0.4,0.3,0.5c0,0.1,0,0.2,0,0.2c0.2,0.6,2.5,4.3,2.6,4.5
											c1.1,1.7,1.7,2.6,1.9,2.7c0.1-0.2,0.1-0.4,0-0.6C986.7,518.1,986.9,518.5,987.3,519.1z"/>
										<path class="st7" d="M903.8,715.9c-0.6-0.6-1.1-0.8-2-0.8c-1.5,0-2.9,0.1-4.4,0.1c-2.3,0.3-3.8,1.7-4.5,4.3
											c-0.1,0.4-0.2,0.7-0.2,1.1c-0.2,1.4,1.2,3.7,4.2,6.7c0.5,0.5,0.4,1.1,0.3,1.4c-0.5,2.6,0.2,4,2.3,4.2c1.2,0,2.3,0,3.5-0.1
											c0.2-0.7,0.4-1.3,0.6-2c-1.2,0-2.3,0.1-3.5,0.1c-1.3-0.1-1.3-1.1-1.2-1.9c0.3-1.5-1-3.7-4-6.7c-0.4-0.5-0.5-0.9-0.4-1.6
											c0.1-0.4,0.2-0.7,0.2-1.1c0.4-1.2,1.1-1.9,2.2-2.1c1.5,0,2.9-0.1,4.4-0.1c0.5,0,2.6,2.2,6.4,6.6c0.3,0.5,0.4,0.9,0.2,1.6
											c-0.8,3.1-1.8,6.2-2.7,9.1c0.6,0,1.1,0,1.7,0c1-3,1.9-6,2.7-9.1C910,723.9,908,720.8,903.8,715.9L903.8,715.9z"/>
										<path class="st7" d="M1011.2,588.2c-0.6,0.3-1.3,0.5-2.2,0.8c-2.1,0-5.4-6.8-8.7-18.3c-1.9-6.8-4.1-13.4-6.7-20
											c-1.1-2.8-2.2-5.6-3.4-8.3c-0.3-0.7-0.6-1.5-1-2.2c-1-2.3-2.1-4.5-3.2-6.7c-0.2,0-0.4,0.1-0.5,0.1
											c1.1,2.2,2.2,4.5,3.2,6.7c0.3,0.7,0.6,1.4,1,2.2c1.2,2.7,2.3,5.5,3.4,8.3c2.5,6.6,4.8,13.2,6.6,20
											c3.7,12.9,7.3,20.6,9.7,20.5c0.9-0.3,1.6-0.5,2.2-0.8C1011.4,589.8,1011.3,589,1011.2,588.2L1011.2,588.2z"/>
										<path class="st7" d="M963.5,570c-2.6-3.1-5.2-4.6-8-4.5c-3,0.2-6,0.3-9.2,0.5c0.2,0.8,0.3,1.5,0.5,2.3
											c3.2-0.2,6.3-0.3,9.3-0.5c4,0.1,5.4,1.9,10.7,8.7l0.6-1.6C966.2,573.3,964.7,571.4,963.5,570L963.5,570z"/>
										<path class="st7" d="M944.4,566c-1.5,0.1-2.9,0.1-4.4,0.2c0.2,0.8,0.3,1.5,0.5,2.3c1.5-0.1,3-0.1,4.4-0.2
											C944.8,567.5,944.6,566.8,944.4,566L944.4,566z"/>
										<path class="st7" d="M1011.8,621.4c-2.6,0.7-6.3,1.4-11,2c-2.3,0.7-4,5.5-4.3,12.4c-0.1,3.9-0.3,7.8-0.6,11.6
											c0.3,0,0.6-0.1,0.9-0.1c0.3-3.8,0.5-7.7,0.6-11.6c0.2-5.5,1.6-9.3,3.4-9.9c4.7-0.7,8.4-1.3,11-2
											C1011.8,623,1011.8,622.2,1011.8,621.4L1011.8,621.4z"/>
										<path class="st4" d="M864.6,800.1l-5.9-8.2c-0.3-0.3-0.5-0.4-1-0.4c-1.1,0-2.1,0-3.2,0c-1.7,0-2.4,0.9-3.2,2.3
											c-0.6,1.3-1.2,2.6-1.8,3.8c-0.1,0.3-0.5,1-0.1,1.6l4.9,5.9c0,0.2-0.1,0.5-0.4,1c-0.4,0.7-0.8,1.3,0.6,1.4
											c1.2,0,2.3,0,3.5-0.1c0.3-0.4,0.6-0.8,1-1.1c-1.2,0-2.3,0-3.5,0.1c-0.2,0-0.5-0.1-0.1-0.7c0.5-0.7,0.8-1.2-0.1-2.2
											l-4.5-5.2c-0.1-0.2-0.1-0.3,0-0.7c0.6-1.2,1.2-2.5,1.9-3.8c0.3-0.5,0.7-0.8,1.2-0.9c1,0,2.1,0,3.1,0c0.1,0,0.5,0,0.9,0.5
											c0,0,4.5,6,5.6,7.9c0,0.2,0,0.3-0.1,0.5c-4.5,5.9-9.1,10.9-13.9,15.1c0.3,0,0.6,0,0.9,0c4.9-4.2,9.7-9.2,14.2-15
											C864.7,801.6,865.1,801,864.6,800.1L864.6,800.1z"/>
										<path class="st3" d="M956.2,537.9c-0.3-0.7-0.6-1.4-0.9-2.1c-4.2-10.3-9-20.1-14.5-29.4c-0.4,0-0.7,0-1.1,0.1
											c5.4,9.3,10.2,19.1,14.3,29.4c0.3,0.7,0.6,1.4,0.8,2.1c1.6,4,3.1,8.1,4.5,12.3c0.4,0,0.8-0.1,1.2-0.1
											C959.3,546,957.8,541.9,956.2,537.9L956.2,537.9z"/>
										<path class="st3" d="M992.7,721.9c-0.4,0.7-0.7,1.4-1.1,2.1c0.1-0.1,0.2-0.2,0.3-0.3l0.3-0.6l0.8-1.5
											C992.9,721.7,992.8,721.8,992.7,721.9L992.7,721.9z"/>
										<path class="st3" d="M990,605.3c-1.6,0.2-3.3,0.3-5.1,0.5c0.1,0.8,0.2,1.6,0.2,2.4c1.8-0.2,3.5-0.3,5.1-0.5
											C990.2,606.8,990.1,606.1,990,605.3L990,605.3z"/>
										<path class="st7" d="M862.2,806.3c-0.3,0.4-0.7,0.8-1,1.1c1.6,0,3.2-0.1,4.7-0.1c0.4-0.4,0.7-0.8,1.1-1.1
											C865.5,806.2,863.9,806.2,862.2,806.3L862.2,806.3z"/>
									</g>
								</g>
							</g>
						</g>
						<g>
							<g>
								<path class="st4" d="M765.5,624.9c-0.7,0-1.4,0-2.1,0c0,2.7,0,5.4,0,8.1c0.7,0,1.4,0,2.1,0
									C765.5,630.3,765.5,627.6,765.5,624.9L765.5,624.9z"/>
								<path class="st4" d="M843.9,699c-0.9,0-1.8,0-2.7-0.1c3.9,5.1,11,14.6,17.9,25.3c0.3,0.5,0.5,0.9,0.7,1.6l1.6-1.5
									C860.8,722.7,853.9,712.3,843.9,699z"/>
								<path class="st4" d="M616.8,599.4c-0.1,0.8-0.1,1.6-0.2,2.4c4.2-0.6,9.4-1.2,15.6-1.8c0.1-0.8,0.1-1.6,0.2-2.4
									C626.2,598.2,621,598.8,616.8,599.4L616.8,599.4z"/>
								<path class="st4" d="M829.8,681.1c-1.7-1.9-3.1-2.6-5.5-2.7c-9.9-0.2-19.8-0.2-29.7-0.4c-3.7-0.2-5.9-2.4-6.1-6.7
									c-0.1-3.5-0.1-7.1-0.2-10.6c-0.2-5.7-3.1-8.9-8.3-9.2c-2.7,0-5.4,0-8.1,0c-3.8-0.4-5.8-2.7-6.3-6.8
									c-0.1-3.1-0.1-6.2-0.1-9.2c-0.7,0-1.4,0-2.1,0c0,3.1,0.1,6.2,0.2,9.2c0.6,5.6,3.4,8.6,8.4,9.2c2.7,0,5.4,0,8.1,0
									c3.9,0.2,5.8,2.7,6.2,6.8c0,3.6,0.1,7.1,0.2,10.6c0.1,5.5,3,8.7,8.2,9c9.9,0.1,19.8,0.2,29.6,0.4c1.7,0.1,6.8,5.4,15.2,15.9
									c0.9,0,1.8,0,2.8,0.1C836.3,689.3,832.2,684.1,829.8,681.1L829.8,681.1z"/>
								<path class="st4" d="M812.9,803.4c0,0-0.4,2.3-0.7,3.8c-0.3,1.1-0.5,1.9-0.8,2.4c-0.5,0.7-1,0.9-1.5,0.9c-1,0-1.8-1-1.9-1.2
									l-6.6-11.1c-0.8-1.5-0.9-2.6-0.9-2.8c-0.8-9.9-1.5-20.9-2.1-33.3c-0.2-5-0.5-10.1-0.6-15.4c-0.1-2.5-0.1-3.4-2.7-5.8
									c-2.2-2-6.1-5.4-13.1-11.1c-1.7-1.7-2-2.3-2.5-4.8c-0.9-10.1-1.6-20.6-2.2-31.5c-0.3-5.9-0.6-11.9-0.8-17.9
									c-0.7-5.5-3.5-8.5-8.4-9c-9.2,0-18.3,0-27.2,0.1c0.1,0.8,0.1,1.5,0.2,2.3c8.9-0.1,18-0.1,27.1-0.1c3.7,0.4,5.7,2.6,6.2,6.7
									c0.2,6,0.5,12,0.9,18c0.6,11,1.4,21.5,2.4,31.5c0.3,2.2-0.1,3.2,3.1,6.2c2.3,2.2,6.7,5.3,13.2,10.9c1.6,1.4,2,2.2,2.1,4.5
									c0.4,5.4,0.5,10.5,0.8,15.4c0.7,12.7,1.1,23.7,2.1,33.2c0.2,1,0.1,1.8,0.7,3l7.2,11.7c1.9,2.7,4,2.5,5.2,0.7
									c0.3-0.6,0.9-2,1.1-3l0.8-3.7C813.8,803.9,813.2,803.5,812.9,803.4L812.9,803.4z"/>
								<path class="st4" d="M859.8,728.2c-1.7,8.3-3.4,16-5.5,23.2c-0.7,2.3-0.5,2.4-5.4,6.8c-13.4,12-24.5,22.5-33,31.2
									c-1.1,1.2-1.5,2.2-1.8,3.9c-0.3,3.3-0.8,6.5-1.1,9.4c0.3,0.1,0.7,0.2,1,0.3c0.4-3,0.8-6.3,1.2-9.7c0.1-0.4,0.3-1.8,1.8-3.3
									c3.7-3.7,12.8-13,35.8-33.5c1.1-1.1,2.4-2.4,3.2-5.1c2-7.3,3.8-15,5.4-22.9c0.2-1,0.2-1.2,0.2-2.2
									C861.1,726.9,860.4,727.6,859.8,728.2L859.8,728.2z"/>
								<path class="st4" d="M690.1,642.8c-3.8-2.6-4-4.5-4.3-7.4c-0.4-7.9-0.6-14.6-0.6-22c-0.6,0-1.2,0-1.8,0.1
									c-0.1,8,0.1,16,0.5,24c0.5,4.3,15.1,14.6,43.9,30.8c1.3,0.7,2.2,0.9,3.7,1c2.5,0,5-0.1,7.5-0.1c-0.1-0.8-0.1-1.5-0.2-2.3
									c-2.5,0-5,0.2-7.5,0.1c-0.2,0-1,0.1-2.2-0.6L690.1,642.8L690.1,642.8z"/>
								<path class="st4" d="M684.8,581.2c-1.1-1.5-3.1-3-4.4-4.3c-2-1.9-6.3-6.1-11.9-12.6c-1-1-1.7-1.3-3-1.3
									c-3,0.2-5.9,0.3-8.7,0.5c-0.8,0.1-2.9-0.1-5.4,3.9c-2.6,4.2-7,12-13.8,26.9c-1,2-1.8,2.9-3,3.1c-0.3,0-0.6,0-0.9,0.1
									c-0.1,0.8-0.1,1.6-0.2,2.4c0.3,0,0.6-0.1,0.9-0.1c2.4-0.5,3-1.9,6-8.3c1.7-3.6,5.5-11.4,12.2-22.7c1.3-1.9,2.3-2.7,3.8-3
									c2.8-0.2,5.7-0.3,8.7-0.5c0.9,0,2.7,1.5,5.4,4.6c1.3,1.5,5.2,5.7,12.6,12.7c1.4,1.5,1.8,3,1.7,5.5c-0.7,7.6-1.1,15.2-1.2,23
									c0.6,0,1.2,0,1.8-0.1c0.2-7.8,0.6-15.4,1.2-23C686.6,586.6,686.7,583.8,684.8,581.2L684.8,581.2z"/>
							</g>
							<g>
								<path class="st4" d="M736.8,569.1c-3.5-0.4-5.2-2.5-5.1-6.5c0.4-3.6,0.8-7.1,1.3-10.7c0.3-5.2-1.8-8-6.2-8.4
									c-9.9,0.2-19.5,0.4-28.7,0.7c-8.9,0.3-17.1,0.6-24.6,0.9c-0.8-0.1-3.2-0.2-10.4-17.2c-0.6-1.2-0.9-1.4-2.2-1.5
									c-3.5,0.2-6.8,0.5-9.8,0.8c-2,0.5-3,0.5-11.5,11.8c-1,1.1-1.1,1.3-1.9,2c-1.3,1.1-1.8,0.9-2.7,1.1c-2.2,0.8-3.9,3.2-5.9,8.4
									c-0.4,1.1-0.7,2.2-1.1,3.3c-1.4,4.7-1.9,6.4,2.7,19.2c0.7,1.4,2.8,1.1,3.5,2.5c0.8,1.7,0.6,4,0.4,5.4
									c-0.9,5.5-1.6,11.1-2.1,16.8c-0.1,0.8-0.1,1.6-0.2,2.4c-0.1,1.5-0.2,3.1-0.3,4.6c0.4,0,0.7-0.1,1.1-0.1
									c0.1-1.5,0.2-3.1,0.3-4.6c0.1-0.8,0.1-1.6,0.2-2.4c0.5-5.7,1.2-11.2,2.1-16.8c0.6-5.4-0.2-8.2-2.5-8.5
									c-1.9-0.2-3.8-7.5-5.1-13.5c-0.2-1.8,0.3-2.5,1-4.8c0.3-1.1,0.7-2.2,1.1-3.3c0.9-2.4,2-5.5,4.2-6.6c1.2-0.6,1.3-0.4,2.1-0.5
									c0.7-0.2,4.3-4.3,10.9-12.2c1.4-1.5,1.7-1.7,2.9-2c3-0.3,6.3-0.5,9.8-0.8c0.8,0.1,1.8,1.6,3,4.3c2.6,5.9,5,9.8,6.8,12.9
									c1,1.3,1.4,1.5,3,1.6c7.5-0.4,15.8-0.7,24.7-0.9c9.3-0.3,18.9-0.5,28.8-0.7c3.3,0.3,4.8,2.4,4.6,6.3
									c-0.5,3.5-1,7.1-1.4,10.7c-0.1,5.4,2.1,8.2,6.9,8.7c2.6,0,5.2,0,7.8-0.1c0.1-0.8,0.1-1.5,0.2-2.3
									C742,569,739.3,569,736.8,569.1L736.8,569.1z"/>
								<path class="st4" d="M746.6,569c-0.1,0.8-0.1,1.5-0.2,2.3c3.4,0,6.9,0,10.3-0.1c0-0.8,0.1-1.5,0.2-2.3
									C753.5,568.9,750,568.9,746.6,569z"/>
							</g>
							<g>
								<path class="st4" d="M808.2,566.9c-1.5-0.9-2.5-1.2-4.2-1.2c-2.6,0-5.2-0.1-7.8-0.1c-5.3,0.5-8.3,3.6-9,9.3
									c0,1.4-0.1,2.8-0.1,4.2c-0.5,4.4-2.8,6.8-6.9,7.2c-1.5,0-2.9,0-4.4,0c-6.8-0.4-6.5-5.2-5.8-15.6c0.4-3.5,1.7-4.5,4.3-6.7
									c6.3-5.9,3.8-15.8-4.2-16.3c-3.3,0-6.6,0-9.8,0c-2.2,0.1-6,2.5-11.3,7.1c-2.2,2.1-3.1,3.9-3.6,7c-0.2,2.4-0.5,4.8-0.7,7.2
									c-0.1,0.8-0.1,1.5-0.2,2.3c-0.3,3.4-0.5,6.9-0.7,10.3c0.7,0,1.4,0,2.1,0c0.2-3.5,0.5-6.9,0.7-10.3c0.1-0.8,0.1-1.5,0.2-2.3
									c0.2-2.4,0.4-4.8,0.6-7.2c0.3-2.3,3.1-5.7,8.3-10.2c1.5-1.2,2.6-1.6,4.3-1.7c3.3,0,6.6,0,9.9,0c4.7,0.5,9.8,6.8,1.6,13.7
									c-3.4,3.2-3.4,3.4-4.1,15.5c-0.1,5.6,3.2,9.4,8.4,9.7c1.5,0,2.9,0,4.4,0c5.4-0.6,8.4-3.7,9.1-9.5c0-1.4,0.1-2.8,0.1-4.2
									c0.5-4.4,2.8-6.7,6.8-7.1c2.6,0,5.2,0,7.8,0.1c1.3,0.1,7.5,3.6,18.6,10.5c2.3,1.7,3.2,3.4,3.4,6.4c0,1.9,0,3.9,0,5.8
									c0,0.2,0,1,0,1.1h2.1c0-0.2,0-0.9,0-1.1c0-1.9,0-3.9,0-5.8C827.7,581,821.1,575,808.2,566.9L808.2,566.9z"/>
								<path class="st4" d="M825.3,593.6c-1,2.3-1.1,2.3-13,9.5c-3.1,2.2-4.3,4.5-4.6,8.5v0.9c0,2.1-0.1,4.1-0.1,6.2
									c-0.2,2.7-4.3,7.1-12.3,13.2c-1.3,0.9-2.3,1.3-3.9,1.3c-8.7-0.1-17.3-0.1-25.9-0.1c-0.7,0-1.4,0-2.1,0
									c-8.5,0-16.9,0-25.2,0.1c0,0.8,0,1.6,0,2.4c8.3-0.1,16.7-0.1,25.2-0.1c0.7,0,1.4,0,2.1,0c8.6,0,17.2,0,25.9,0.1
									c2-0.1,6.8-3,14.4-8.8c2.6-2.2,3.6-4.4,3.9-8c0-2.1,0.1-4.1,0.1-6.2c0-0.3,0-0.6,0-0.9c0.2-3,4.8-7.2,13.6-12.6
									c0.8-0.5,2.7-1.7,3.8-4.4c0.1-0.2,0.3-0.7,0.3-1L825.3,593.6L825.3,593.6z"/>
							</g>
							<path class="st7" d="M631.7,607.8c-0.1,2.1-0.2,4.2-0.2,6.3c0.4,0,0.7-0.1,1.1-0.1c0.1-2.1,0.1-4.2,0.2-6.3
								C632.4,607.7,632.1,607.8,631.7,607.8z"/>
							<path class="st4" d="M764.7,530.4c-1.6,0-3.2,0-4.7,0c-0.9-0.1-2.4-2.4-4.7-6.9c-0.7-1.2-1.5-1.7-3-1.8
								c-8,0.1-16,0.2-23.7,0.3c-0.9-0.1-1.9-0.2-7.3-15.6c-0.5-1.1-1.1-1.5-2.3-1.5c-3,0.1-6,0.2-9,0.2c-2.1,0.1-4.1,0.1-6.1,0.2
								c0.5-1.3,1.1-2.5,1.6-3.8c-0.5,0-1,0-1.5,0c-0.5,1.2-1.1,2.5-1.6,3.8c-1.2,0-2.4,0.1-3.5,0.1c-0.3,0.6-0.5,1.3-0.8,1.9
								c1.2,0,2.4-0.1,3.6-0.1c-1.6,3.9-3.1,7.8-4.5,11.9c-0.7,2.7-0.1,4.1,2,4.3c1.5-0.1,3-0.1,4.5-0.1c2.4-0.1,4.8-0.1,7.2-0.2
								c0.6,0.1,2.8,3.8,6.7,11.2c0.7,1,1.4,1.4,2.7,1.5c5.3-0.1,10.7-0.2,16.1-0.3c0.8,0.1,2.3,2.9,4.5,8.4
								c0.7,1.5,1.7,2.1,3.3,2.2c3,0,6-0.1,9-0.1c1.3-0.1,3.8-1.9,7.4-5.6c0.7-0.6,0.9-0.7,1.8-0.8c0.5,0,0.9,0,1.4,0
								c3.3-0.4,4.3-2.7,4.6-3.8C768.3,535.9,769.5,530.9,764.7,530.4L764.7,530.4z M766.4,535.5c-0.2,0.5-0.7,1.8-2.5,2
								c-0.5,0-0.9,0-1.4,0c-1.3,0.1-2.2,0.4-3.3,1.4c-3.2,3.2-5.1,4.8-5.9,4.9c-3,0-6,0-8.9,0.1c-1-0.1-1.3-0.3-1.8-1.2
								c-2.4-6.1-4.4-9.2-6-9.3c-5.4,0.1-10.8,0.2-16,0.3c-0.7-0.1-0.9-0.2-1.4-0.8c-4.3-7.9-6.9-11.8-7.8-11.8
								c-2.4,0.1-4.8,0.1-7.1,0.2c-1.5,0-3,0.1-4.5,0.1c-1.1-0.1-1.5-1-1.1-2.3c1.4-4,2.9-8,4.4-11.9c2-0.1,4-0.1,6.1-0.2
								c3-0.1,6-0.2,9.1-0.2c0.7,0.1,0.9,0.2,1.2,0.8c5.8,16.3,6.3,16.3,8.5,16.5c7.8-0.1,15.7-0.2,23.8-0.3c0.9,0.1,1.1,0.2,1.6,1
								c2.6,5.1,4.6,7.7,6.2,7.8c1.6,0,3.2,0,4.8,0C767,532.8,766.4,535.5,766.4,535.5L766.4,535.5z"/>
							<path class="st4" d="M803.9,465.3c-12.3-0.1-24.7-0.1-36.7-0.1c-2.2,0.2-3.8,1.5-4.9,3.7c-0.1,0.4-0.3,0.7-0.4,1
								c0,0.1-0.1,0.2-0.1,0.2c-0.6,1.4-1.6,2.1-2.9,2.2c-2.1,0-4.2,0-6.5,0.1c-0.7,0.1-1.1,0.2-2.1,0.8c-5,3-7.8,5.2-8.5,6.7
								c-1.6,3.8-3.2,7.8-4.7,11.9c0.5,0,1.1,0,1.6,0c1.5-4.1,3-8.1,4.6-11.9c0.5-1,0.7-1.2,1.7-1.9c4.1-2.5,6.4-3.8,7-3.9
								c2.1,0,4.2,0,6.3-0.1c2.3-0.3,3.9-1.5,5-3.9c0-0.1,0.1-0.2,0.1-0.2c0.1-0.4,0.3-0.7,0.4-1c0.6-1.3,1.5-2,2.8-2.2
								c12.1-0.1,24.6-0.1,37.1,0.1c1.3,0.1,1.9,0.9,1.9,2.2c0,0.4,0,0.7-0.1,1c0,0,0,0.1,0,0.1c-0.1,1.1-0.6,1.7-1.6,2.1
								c-11.3,3.6-17.1,6.4-17.6,8.4c-0.5,2.8-0.9,5.7-1.3,8.6c-0.4,1.5-1.3,2.3-2.8,2.5c-10.8,0-21.5,0-32,0.1
								c-1.4-0.1-1.9-1-1.5-2.5c0.6-2.6-0.2-3.9-2.4-4.2c-1,0-2,0-3,0c-0.2,0.6-0.4,1.2-0.7,1.8c1,0,2,0,3,0
								c1.3,0.1,1.8,0.9,1.4,2.4c-0.6,2.6,0.2,4,2.6,4.3c10.5-0.1,21.3-0.2,32.2-0.1c2.6-0.3,4.1-1.7,4.7-4.3c0.4-3,0.8-5.8,1.2-8.6
								c0.3-1.1,0.8-1.8,1.9-2.2c11.2-3.6,17-6.4,17.2-8.3c0.4-2.9,0-0.1,0-0.1c0-0.4,0-0.7,0-1
								C807.2,466.8,806.1,465.6,803.9,465.3L803.9,465.3z"/>
							<path class="st4" d="M913.8,504.6c-1.2-3.1-2.4-6.1-3.8-9.1c-1.4-3-2.4-4.1-5.2-4.4c-1.5-0.1-3.8-0.2-4.8-0.3
								s-1.1-0.4-1.9-1.2c-13-14.8-13.2-14.9-15.7-15.4c-9.5-0.5-19.5-0.8-30.2-1.1c-0.8,0.2-1.3,0.4-1.8,1c-2.4,3.5-4,5.3-4.7,5.4
								c-9.2-0.2-18.7-0.5-28.2-0.6c-1.3,0.1-1.7,0.3-2.7,1.2c-5.7,6.2-9.1,9.3-10,9.5c-2.8,0-5.5-0.1-8.3-0.1
								c-2.4,0.2-3.9,1.6-4.4,4.1c-0.1,1-0.2,2-0.3,3.1c0.6,0,1.2,0,1.8,0c0.1-1,0.2-2,0.3-3.1c0.5-1.6,0.9-2,2.5-2.4
								c2.8,0,5.6,0,8.4,0.1c1.4-0.1,1.8-0.3,2.9-1.2c6-6.2,9.3-9.4,9.9-9.5c9.6,0.1,19.1,0.4,28.4,0.6c1.2-0.1,1.6-0.2,2.4-1.1
								c2.5-3.5,4-5.3,4.6-5.5c10.4,0.3,20.6,0.7,30.4,1.2c0.7,0.3,1.3,0.6,1.8,1.1c14.1,15.3,12.6,15.2,14.3,15.6
								c1.5,0.1,4.8,0,6.1,0.3c1.5,0.4,2,0.8,2.8,2.5c1.3,3,2.5,6,3.6,9.1c0.6,1.7,0.5,2.4-0.8,2.4c-0.8,0-1.5-0.1-2.3-0.1
								c-1.2-0.1-1.4,0.4-1.8,2l-4.1,16.8c-0.8,3-1.6,2.9-2,3l-14-0.6c-1.9-0.1-2.3,0.5-3,2.5c-7,20.9-6.7,21.1-8.8,21.3l-16.2-0.6
								c-0.8-0.1-1.4-0.5-1.8-0.7c-13.4-12.6-13-12.2-13.3-13.7c0-0.9-0.1-1.7-0.2-2.6c0.2-2,0.6-2.4,2.4-2.8c1.2,0,2.3,0.1,3.5,0.1
								c0.7-0.1,1.6-0.1,2.4-0.8c2.8-2.1,1.9-8.2-3.2-8.9c-7.1-0.2-14.4-0.3-22.2-0.6c-0.5-0.2-1.1-0.6-1.4-1
								c-10.6-14.2-16.5-21.5-17.8-21.6c-2.4,0-4.8,0-7.1-0.1c0,0.6-0.1,1.2-0.1,1.9c2.4,0,4.8,0,7.7,0.1c0.4,0.2,1,0.6,1.3,0.9
								c10.2,14.3,16.2,21.6,18.1,21.9c7.3,0.1,14.6,0.3,21.8,0.5c0.3,0.1,0.7,0.1,1,0.2c1.6,0.7,3,4.5-0.5,5.2
								c-1.2,0-2.3-0.1-3.5-0.1c-2.7,0.2-4,1.8-4.2,4.8c0,0.9,0.1,1.9,0.2,2.8c0.3,1.9,0.5,2.4,1.8,3.8c9,8.4,14.1,12.7,15.4,12.8
								c5.5,0.2,10.9,0.3,16.2,0.5c1.5-0.2,2.7-0.3,3.7-2.6c5-14.2,7.8-21.3,8.3-21.3c4,0.2,8,0.3,11.9,0.5c0.7,0,1.5,0.1,2.2,0.1
								c1.4,0.1,2.6-0.9,2.9-2.2c0.1-0.6,0.3-1.2,0.5-1.7c3.4-12.9,4.3-16.5,4.7-17.5c0.1-0.2,0.3-0.4,0.5-0.4c0.7,0,1.3,0.1,2,0.1
								C913.7,508.9,914.9,507.9,913.8,504.6L913.8,504.6z"/>
							<path class="st7" d="M827.9,558.1c0-3.9-0.1-7.7-0.2-11.5c-0.2-2.6-0.8-4.1-2.6-5.9c-5.4-5-9-7.6-10.8-7.7
								c-2.1,0-4.1-0.1-6.2-0.1c-1.7-0.1-2.7-0.6-3.8-1.9c-6.1-7.8-10.2-11.7-12.3-11.8c-3.3,0-6.7,0-10,0c-0.1,0.7-0.1,1.4-0.2,2
								c3.3,0,6.7,0,10.1,0c1.6,0.1,2.6,0.6,3.6,1.8c6.1,7.9,10.2,11.9,12.6,12c2.1,0,4.2,0,6.2,0.1c1.4,0.1,2.3,0.4,3.4,1.4
								c5.2,4.9,7.9,8.3,8,10.1c0,3.8,0,7.6,0.1,11.4c0.2,6.3-4.9,7.8-8.8,3.6c-6.8-7.3-7.2-7.8-10.6-8c-2.4,0-4.7-0.1-7.1-0.1
								c-3.2-0.4-4.9-2.3-5.1-5.7c0-0.6,0-1.3,0.1-1.9c-0.2-4.8-2.5-7.3-6.8-7.8c-1.7,0-3.5,0-5.2,0c-3.1-0.4-4.7-2.2-4.7-5.5
								c0.7-8.3,1.6-16.2,2.5-23.9c-0.6,0-1.2,0-1.8,0c-1,7.6-1.8,15.5-2.6,23.9c0,4.7,2.1,7.2,6.5,7.7c1.7,0,3.5,0,5.2,0
								c3.2,0.4,4.8,2.2,4.9,5.6c0,0.6-0.1,1.3-0.1,1.9c0.2,4.8,2.6,7.4,7.1,8c2.4,0,4.8,0,7.1,0.1c1.7,0.1,2.7,0.6,3.9,1.9l6.7,6.7
								c3.6,3.3,7.7,1.7,9.4-0.6C828,561.5,827.8,558.1,827.9,558.1L827.9,558.1z"/>
							<g>
								<path class="st4" d="M945.7,620.5c-0.5,0-1.8,0-3,1.1c-7.6,6.9-14.5,14.6-22,21.6c-1.6,1.6-2.2,3.1-2.6,5.5
									c-1.1,10.9-2.6,21.7-4.6,32.3c0.6,0,1.2,0.1,1.8,0.1c2-10.6,3.6-21.4,4.6-32.3c0.2-1.5,0.7-2.6,1.4-3.4
									c7-7.5,14.9-14.1,22-21.5c0.5-0.5,1.2-1,2.3-1c2.2,0.1,4.5,0.3,6.6,0.5c0-0.9-0.1-1.3-0.3-2.4
									C950,620.8,947.8,620.6,945.7,620.5L945.7,620.5z"/>
								<path class="st4" d="M977.1,588.6c0.2,0,0.5,0,0.7,0.1c-0.3-3.1-0.8-6.2-1.2-9.2c-0.2,0-0.5,0-0.7-0.1c-0.2,0-0.4,0-0.6-0.1
									c0.5,3.1,0.9,6.2,1.2,9.2C976.7,588.5,976.9,588.6,977.1,588.6L977.1,588.6z"/>
								<path class="st4" d="M981.8,639.1c-0.5,0.5-0.8,0.7-1.6,0.7c-0.9-0.1-1.7-0.2-2.6-0.3c0,0-0.1,0-0.2,0
									c-0.8-0.2-2.8-4.8-6.1-13.9c-0.9-2.2-1.9-3.1-3.6-3.5c-4.5-0.4-9.5-0.8-14.4-1.1c0.1,0.9,0.2,1.5,0.2,2.4
									c4.8,0.4,9.7,0.7,14.1,1.1c1.9,0.4,2,0.4,6.4,13.9c0.8,2.2,1.7,3.1,3.2,3.4c0,0,0.1,0,0.2,0c0.9,0.1,1.8,0.2,2.6,0.3
									c0.5,0,1.3,0.1,2.3-1c4.6-4.7,9.4-10.6,14.1-17.3l-0.5-2.1C991.3,628.4,988.6,631.9,981.8,639.1L981.8,639.1z"/>
								<path class="st4" d="M1004.7,604.5c-0.1-1.8-0.3-3.7-0.5-5.5c-0.5-4.3-0.8-4.9-5.5-13.4c-0.7-1.2-1.2-1.6-1.9-1.8
									c-2.7-0.4-5.8-0.9-9.2-1.3c-2,0.2-2.8,2.4-2.5,6.8c0,0.4,0.1,0.8,0.1,1.1c0.4,3.1,0.8,3.8,3.1,8c1.6,3.2,1.2,8-1.2,8.2
									c-1.2-0.1-2.3-0.3-3.5-0.4c-0.7-0.2-2-1.9-3.9-5.2c-0.6-1.2-0.9-2.1-1-3.6c-0.2-2.2-0.4-4.3-0.6-6.5c-0.2,0-0.5,0-0.7-0.1
									c-0.2,0-0.4,0-0.6-0.1c0.2,2.1,0.4,4.3,0.6,6.5c0.3,3.1,0.4,3.3,3.5,8.8c1,1.6,1.7,2.2,2.9,2.4c1.2,0.1,2.4,0.3,3.5,0.4
									c2.9-0.3,3.1-4.6,3.2-5.4c0.1-4-0.8-5.5-2.9-9.5c-0.6-1.2-0.9-2-1.1-3.5c0-0.4-0.1-0.8-0.1-1.1c-0.2-2.9,0.3-4.4,1.7-4.6
									c3.4,0.4,6.5,0.9,9.3,1.3c0.8,0.2,0.9,0.2,5.2,8.8c0.5,1.2,0.8,2.2,1,4c0.2,1.8,0.3,3.7,0.5,5.5c0.1,1.9-0.6,4.3-2,7.2
									l0.6,1.9l1.5-3.2C1004.4,609.6,1005,608.1,1004.7,604.5L1004.7,604.5z"/>
								<path class="st4" d="M996.7,620.6l0.5,2.1c2.9-4.7,3.1-5,4.7-7.9l-0.6-1.9C998.7,617.5,998.6,617.7,996.7,620.6L996.7,620.6
									z"/>
							</g>
							<path class="st4" d="M991.9,555.3c-1.3-4.2-2.8-8.4-4.3-12.5c-0.1-0.2-0.1-0.3-0.2-0.5c-1.1-2.7-2.1-4.5-3.4-4.7
								c-1.3-0.2-2.7-0.4-4.5-0.6c-0.1,0-0.2,0-0.4,0.1c-0.2,0.1-0.3,0.3-0.4,0.6c0,0,0,0.1,0,0.1c-0.5,2-1.5,3.9-1.7,6
								c-0.2,1.5,0.8,2.9,0.7,4.4c0,0,0,0.3-0.2,0.4c-0.2,0.2-0.4,0.1-0.4,0.1l-4.3-0.6c-0.6,0-1.3-0.9-1.7-1.5
								c-3.5-4.9-5.6-8-7.8-11.1l-0.7,1c6.7,9.8,8.5,12.5,9.4,13.4c0.3,0.3,0.6,0.5,0.8,0.5c1.7,0.2,3.3,0.4,4.8,0.5
								c0.5,0,0.9-0.2,1.1-0.5c0.9-1.1-0.7-3.9-0.5-5.6c0.5-1.7,1-3.6,1.5-5.3c0.2-0.6,0.3-0.6,0.5-0.6c1.6,0.2,2.8,0.4,4.3,0.7
								c0.6,0.1,1.2,0.8,1.8,2.4c0.1,0.2,0.1,0.3,0.2,0.5c1.6,4.1,3,8.3,4.4,12.8c0.2,0.9,0.2,1.1,0,1.9c-0.4,1.3-1.9,4.6-3.1,6.9
								c-0.2,0.5-0.5,0.9-0.7,1.2c-0.3,0.4-0.3,0.7-0.7,0.7l-4.1-0.5c-0.6-0.1-1.5-0.9-2-2.5c-0.2-1-0.5-1.9-0.7-2.9
								c-0.5-1.8-0.9-3.3-1.7-4.1c-0.5-0.5-0.8-0.5-1.8-0.7c-1.8-0.2-3.7-0.4-5.6-0.6c-4.2-0.4-8.6-0.8-13.3-1.2
								c-1,0.1-1.2,0.2-1.8,1.2c-4.8,10.6-10,19.1-12.7,23.2c-2.1,3.3-3.2,5.6-3.1,7c0.2,2.8,0.4,5.5,0.6,8.3
								c0.1,1.4,0.4,2.3,1.2,3.5c5,6.7,7.8,10.2,8.7,10.4l9.6,0.7c2.2,0.1,2.9-1.6,3-4.6c0-0.9-0.1-1.7-0.1-2.6c0-0.9,0-1.1,0.4-1.7
								c3.6-5.9,5.6-8.9,5.8-8.9c2.6,0.2,5.2,0.5,7.6,0.7c0.2,0,0.4,0,0.6,0.1c0.2,0,0.5,0.1,0.7,0.1c1.1,0.1,2.3,0.2,3.3,0.3
								c-0.1-0.8-0.2-1.6-0.3-2.3c-1.1-0.1-2.2-0.2-3.3-0.4c-0.2,0-0.5,0-0.7-0.1c-0.2,0-0.4,0-0.6-0.1c-2.5-0.2-5-0.5-7.6-0.7
								c-1,0.1-1.2,0.2-1.9,1.2c-3.7,6.7-5.6,10.6-5.6,11.6c0,0.9,0.1,1.7,0.1,2.6c0,1.9-0.7,2.3-1.5,2.3c-3.1-0.2-5.7-0.3-9.1-0.7
								c-1-0.1-1.3-0.3-1.7-0.8c-4.5-6.5-6.8-10.1-6.9-10.5c-0.2-2.8-0.4-5.6-0.6-8.3c0-0.8,0-1,0.4-1.7
								c5.7-8.7,10.2-16.5,13.4-23.4c1.3-2.7,2.1-4.1,2.6-4.2c4.7,0.4,9.2,0.8,13.4,1.2c1.7,0.2,3.3,0.4,5.1,0.6
								c0.3,0,0.5,0.1,0.7,0.2c0.7,0.3,1.1,0.7,1.6,2.3c0.2,1,0.5,1.9,0.7,2.9c0.8,2.8,1.9,4.4,3.4,4.9l4.6,0.5
								c0.3,0,0.5-0.2,0.6-0.5c0.1-0.2,0.2-0.3,0.2-0.4C993,559.1,992.7,558.3,991.9,555.3L991.9,555.3z"/>
							<path class="st4" d="M1004.3,554.9l-0.5-1.3l0,0c0.3,0.7,0.5,1.5,0.8,2.2c0,0,0,0,0,0L1004.3,554.9L1004.3,554.9z"/>
							<g>
								<path class="st4" d="M998.9,542.6c0.2,0.3,0.5,0.7,1.5,3.1c0.1,0.3,0.2,0.5,0.3,0.8c0.9,2.1,1.7,4.2,2.5,6.4
									c0.1,0,0.1,0.1,0.2,0.1c-0.8-2.1-1.6-4.3-2.5-6.4c-0.1-0.3-0.2-0.5-0.3-0.8c-1.3-3.1-2.2-4.9-2.6-5.4
									c-0.2-0.1-0.3-0.2-0.6-0.3c-0.1,0.3-0.1,0.7,1.5,4.8c0.1,0.3,0.2,0.5,0.3,0.8c0.1,0.3,0.3,0.7,0.4,1
									c0.5,1.2,0.8,1.9,1.6,5.9c0,0.2,0.1,0.4,0.1,0.6c-0.9-0.1-1.8-0.4-2.9-0.7c-0.3-0.2-0.9-1.1-1.7-2.7
									c-0.7-1.2-1.7-3.6-1.5-4.7c0.1,0,0.2-0.1,0.3-0.1c0.3-0.8-0.4-2.9-1.1-4.7c-0.2-0.6-0.5-1.1-0.7-1.6
									c-1.8-3.9-1.8-4.1-8.4-11c-0.3-0.3-0.4-0.3-0.6-0.5c-4.2-0.9-9.7-1.7-16.5-2.5c-0.4,0-0.8,0-1,0.6c-1,3.1-1.5,5.2-2.5,7.8
									l1.4,1.8c1.4-4,1.6-4.6,2.5-7.6c0.1-0.4,0.2-0.5,0.5-0.5c0.1,0,0.2,0,0.3,0c6.8,0.8,12.2,1.6,16.2,2.4c0,0,0.9,0.5,6.2,6.6
									c0.5,0.7,1,1.4,1.5,2.7c0.2,0.5,0.5,1.1,0.7,1.6c0.5,1.2,0.7,1.9,0.7,2.5c-0.1,0.1-0.3,0.2-0.4,0.3
									c-0.1,0.2-0.6,2.5,3.5,9.8c0.8,1.5,1.1,1.7,1.5,1.9c1.1,0.3,2,0.5,2.8,0.8c0,0,0.1-0.1,0.2-0.1c0-0.4,0-0.9-1-5
									c-0.3-1.1-0.6-2-1.2-3.5c-0.1-0.3-0.3-0.7-0.4-1c-0.1-0.3-0.2-0.5-0.3-0.8c-0.5-1.4-0.8-2-0.9-2.6
									C998.5,542.4,998.7,542.5,998.9,542.6L998.9,542.6z"/>
								<path class="st4" d="M1004.1,555.2c0,0-0.1-0.1-0.2-0.1c1.8,5.2,3.5,10.4,4.9,15.6c0.1,0,0.1,0.1,0.2,0.1
									C1007.6,565.6,1006,560.3,1004.1,555.2L1004.1,555.2z"/>
							</g>
							<g>
								<path class="st4" d="M1011.8,647.7c-0.2-0.2-0.3-0.4-0.4-1.8c-0.2-5.4-0.3-8.1-1.1-15c-0.4-2.5-0.8-2.9-1.3-2.9
									c-1.5,0.9-1.7,6.6-1.7,6.6c-0.1,6.3,1,12.6,1.2,18.9c0.1,1.8,0.2,2.5,0.7,2.8c0.6,0.2,1.1,0.4,1.6,0.5
									c0.1-0.8,0.2-1.6,0.4-2.3c-0.5-0.2-1-0.4-1.6-0.5c-0.2-0.2-0.4-0.4-0.4-1.8c-0.2-6.2-0.3-8.5-1.1-15.6
									c-0.3-3.4,0.5-6.6,1.3-6.2c0.9,0.5,1.5,12.6,1.6,16.7c0.1,1.8,0.2,2.6,0.6,2.8c0.3,0.1,0.5,0.2,0.8,0.3
									c0.1-0.8,0.2-1.6,0.3-2.4C1012.3,647.9,1012.1,647.8,1011.8,647.7L1011.8,647.7z"/>
								<path class="st4" d="M1014.4,649c-0.4-0.4-0.9-0.6-1.5-0.9c-0.1,0.8-0.2,1.6-0.3,2.4c0.6,0.2,1.1,0.5,1.4,0.8
									c0.1,0.4,0.1,0.7,0,2.2c-1.3,12.6-3.9,25.1-7.9,37c0.5-1.5,1.2-3.6,1.6-5.2v0c3.6-12.3,5.1-20.2,6.5-32.8
									C1014.5,650.5,1014.5,649.6,1014.4,649L1014.4,649z"/>
							</g>
							<g>
								<path class="st4" d="M1013.4,639.3c-0.2,2.9-0.5,5.8-0.8,8.7c-0.1,0.8-0.2,1.6-0.3,2.4c-0.3,2.5-0.7,5.1-1.1,7.6
									c-1.2,6.8-1.9,8-5.8,14.6c-1.5,2.4-2.2,1.3-2.5,0c-0.3-1.1-0.2-2.6-0.2-3.5c0.2-8.2,0.1-12.3-0.6-20.5
									c-1.3-10.3-5.2-5.5-8.8-0.9l0.3,2l2.8-3.5c2.7-3.2,4.5-0.6,4.9,3.6c0.9,8.6,0.7,17.6,0.6,20.5c-0.1,7.5,1.9,6,2.5,5.4
									c0.3-0.3,1.4-1.8,4.3-7.3c1.2-2.7,2-5.5,2.9-10.2c0.4-2.5,0.8-5.1,1.1-7.6c0.1-0.8,0.2-1.6,0.3-2.4c0.3-2.9,0.6-5.8,0.8-8.7
									C1013.7,639.4,1013.5,639.3,1013.4,639.3L1013.4,639.3z"/>
								<polygon class="st4" points="992.1,648.9 989.9,651.4 990.2,653.5 992.5,650.9 								"/>
							</g>
							<g>
								<path class="st4" d="M957.5,693.1c-0.3-3.6-1.3-5.2-3.9-5.7c-0.2,0-0.3,0-0.5,0c-2.9,0-3.6,0.8-9,6.6
									c-1.6,1.6-2.8,2.2-4.5,2.2c-3.1-0.2-6.3-0.4-9.5-0.6c-1.1-0.1-3.2-2.3-6.1-6.5c-1.2-1.4-2.1-2-3.9-2.2
									c-10.2-0.6-21-1.1-32.2-1.6c-0.1,0.8-0.2,1.5-0.4,2.3c11.2,0.5,21.9,1,32,1.6c1.4,0.2,3.5,2.3,6.3,6.5c1.1,1.4,2,2,3.6,2.2
									c3.2,0.2,6.4,0.4,9.5,0.6c3.2,0,4.4-1.3,9.2-6.6c1.6-1.6,2.7-2.2,4.3-2.2c0.2,0,0.3,0,0.5,0c3.2,0.6,3.1,2,2.9,12.8
									c0.5,0,1,0.1,1.5,0.1C957.5,698.1,957.5,696.7,957.5,693.1L957.5,693.1z"/>
								<path class="st4" d="M955.8,704.7c-0.5,9-1,13.5-2.5,21.8c-1.2,5-2.1,5.8-13.2,15.2c-4.8,4.5-5.8,7.6-7.5,12.7
									c-1.4,4.3-4.2,11.2-9.2,20c-0.4,0.7-0.7,1.3-0.9,1.7c-0.7,1.7-0.1,2.2,0.6,2.3l3.7,0.5c1.6,0,2.7,0,17.2-11.9
									c1.2-1,2.5-2.2,4.4-4.4c0.1-0.1,0.1-0.2,0.2-0.2c-0.2,0-0.4-0.1-0.7-0.1c-0.1,0.1-0.1,0.2-0.2,0.2c-1.3,1.6-3,3.5-15.3,12.8
									c-1.8,1.3-3.1,2.1-3.8,2c-1.5-0.2-2-0.2-3.3-0.4c-0.7-0.1-1.1-0.1-1.3-0.4c-0.4-0.7-0.2-1.1,0.7-2.9
									c4.2-7.3,7.1-13.2,10.4-23.3c1-2.6,5.5-7.6,13.7-14.8c4.7-4.5,7-6.8,8.4-30.8C956.8,704.8,956.3,704.7,955.8,704.7
									L955.8,704.7z"/>
								<path class="st4" d="M1000.2,686.9c0-0.4-0.1-1-0.4-1.2c-0.6-0.6-2.6-0.8-3.8-1c-0.8-0.3-1.1-1.1-1-3.7
									c0.4-10,0.3-18.4-1.5-31.3l-0.3-2c-0.4-2.1-0.9-4.9-1.3-7l-1,1.2c0.4,2.1,0.9,4.9,1.3,7l0.3,2c1.4,10.4,2.1,18.9,1.5,31.2
									c-0.1,3.1,0.2,4,1.3,4.8c1.2,0.2,2.3,0.5,3.4,0.7c0.9,0.3,0.7,1.5,0.7,2.6c0,3.9-3.4,11.3-15.6,25.2c-1.6,2-2.8,3.7-4.4,6.6
									c-3.8,7.4-8.1,14.5-12.7,21.3c-2.6,3.8-3.4,4.3-9.1,8.4c-2.2,1.7-3.9,3.4-6.3,6.4c-0.6,0.8-1.3,1.6-1.9,2.4
									c0.2,0,0.5,0.1,0.7,0.1c0.7-0.8,1.3-1.6,1.9-2.4c1.6-2,4.8-4.7,9.4-8.2c2.2-1.8,3.8-3.6,6-6.6c4.6-6.8,8.9-13.9,12.7-21.3
									c3.9-7.3,10.1-12.8,14.8-19.5c0.5-0.8,1.8-2.9,3.2-6C999,694.8,1000.5,690.1,1000.2,686.9L1000.2,686.9z"/>
							</g>
							<path class="st4" d="M962.2,506.9c-0.3-0.6-0.7-1.1-1-1.7c-0.3,0-0.6-0.1-0.9-0.1c0.3,0.6,0.7,1.1,1,1.7
								c1.8,3.2,2.3,5.1,2,6.8c-2.4,6.3-2.5,6.3-4.1,6.2c-0.3,0-0.6-0.1-0.8-0.1c-2.2-0.2-4.5-0.4-6.9-0.7
								c-6.3-1.5-11.3-11.2-10.1-15.3c1-2.5,1.9-3.7,3-3.7c1.4,0.1,2.8,0.3,4.1,0.4c4.4,0.4,8.3,0.9,11.7,1.3
								c-0.4-0.6-0.8-1.3-1.2-1.9c-3.4-0.5-7.3-0.9-11.6-1.3c-1.3-0.1-2.7-0.3-4.1-0.4c-1.3,0-2,0.3-2.5,1.5
								c-1.3,3.4-2.2,5.8,0.8,11.5c3,5.6,7,9.3,10.7,9.9c2.4,0.2,4.7,0.4,6.9,0.7c0.3,0,0.6,0.1,0.8,0.1c1.2,0,1.8-0.2,2.3-1.2
								C965.5,514.1,965.9,513.4,962.2,506.9L962.2,506.9z"/>
							<path class="st7" d="M843.1,591.7c-5-0.1-10.1-0.2-15.1-0.3c-0.7,0-1.4,0-2.1,0c-5.5-0.1-10.9-0.2-16.4-0.3
								c0,0.8,0,1.6,0,2.4c5.3,0.1,10.6,0.1,15.8,0.2c0.8,0,1.5,0,2.3,0c5.2,0.1,10.4,0.2,15.6,0.3c5.8,0.8,7.3,7.2,4.1,11.2
								c-6.8,7.4-11.1,11.2-12.8,11.2c-5.2-0.1-10.5-0.2-15.7-0.3c0,0.8,0,1.6,0,2.4c5.2,0.1,10.5,0.2,15.7,0.3
								c2.4-0.1,3.9-0.7,5.7-2.5c7.1-7.7,10.7-12.6,10.9-14.8C851,601.2,851.6,592.8,843.1,591.7L843.1,591.7z"/>
							<path class="st4" d="M917.9,546.3c0,0-0.5-5.5-5.4-5.9c-4.4-0.2-8.9-0.4-13.5-0.7c-1,0-1.6,0.2-2.4,0.9
								c-4.8,4.7-7.1,7.9-6.9,9.6c0.7,6,1.3,12.1,1.8,18.3c0.6,0,1.3,0,1.9,0.1c-0.5-6.2-1.1-12.3-1.9-18.3c-0.1-1,0.1-1.7,0.7-2.3
								c4.2-4.1,6.6-6.1,7.1-6.1c4.6,0.2,9.1,0.4,13.5,0.7c2.6,0.5,3.8,4,2.3,5.5c-3.7,3.3-5.9,5-6.4,5c-4.9-0.2-9.8-0.5-14.9-0.7
								c0.1,0.7,0.2,1.5,0.3,2.2c5.1,0.2,10.1,0.4,15,0.7c0.9,0,1.5-0.2,2.2-0.7C917.9,548.9,918.1,548.8,917.9,546.3L917.9,546.3z"
								/>
							<path class="st7" d="M861,697.2c-6.2-0.2-12.5-0.4-18.8-0.5c-0.9,0-1.8,0-2.8-0.1c-5-0.1-10.1-0.2-15.2-0.3
								c0,0.8-0.1,1.5-0.1,2.2c5.7,0.1,11.4,0.2,17.1,0.4c0.9,0,1.8,0,2.7,0.1c5.7,0.1,11.2,0.3,16.8,0.5c8.2,0.5,10.6,8.6,8.1,15.6
								c-0.8,2.2-2.4,4.5-4,6.1l-3.3,3.1l-1.6,1.5c-9.3,8.7-9.5,8.9-13.8,9c-4.8-0.1-9.8-0.3-14.7-0.4c-0.1,0.7-0.1,1.3-0.2,2
								c4.9,0.1,9.7,0.2,14.5,0.4c3.5-0.1,5.8-1.1,9-3.8c1.6-1.5,3.7-3.4,5.2-4.9l1.9-1.7c8.5-6.9,9.5-12.6,9.5-12.6
								C871.4,713.2,874.6,698.4,861,697.2L861,697.2z"/>
							<path class="st7" d="M815.5,803.2c-0.6,0-6.3-0.5-6.5-9.1c0.2-5.1,0.4-10.7,0.5-16.7c-0.5,0-0.9,0-1.4,0
								c-0.1,6-0.2,11.6-0.3,16.7c0.5,9.8,6.7,10.3,7.5,10.3c0.5,0,1.1,0,1.6,0c0.1-0.4,0.2-0.8,0.2-1.2
								C816.6,803.3,816,803.3,815.5,803.2L815.5,803.2z"/>
							<path class="st3" d="M818.3,803.3c-0.1,0.4-0.2,0.8-0.3,1.2c4.6,0.1,9.1,0.2,13.5,0.3c0.2-0.4,0.4-0.8,0.6-1.2
								C827.6,803.5,823,803.4,818.3,803.3z"/>
							<path class="st3" d="M690.2,610.8c-1.7,0.1-3.3,0.1-4.9,0.2c-0.6,0-1.2,0-1.8,0.1c-4.8,0.2-9.3,0.3-13.7,0.5
								c0,0.8,0,1.6,0,2.4l0,0c4.4-0.2,8.9-0.4,13.7-0.5c0.6,0,1.2,0,1.8-0.1c1.6,0,3.2-0.1,4.9-0.2c9-0.3,18.4-0.5,28-0.7l0,0
								c0-0.8,0-1.6,0-2.4C708.6,610.3,699.2,610.6,690.2,610.8z"/>
							<path class="st7" d="M723.9,610.1c0,0.8,0,1.6,0,2.4l0,0c5.4-0.1,10.9-0.1,16.4-0.2l0,0c0-0.8,0-1.6,0-2.4
								C734.7,609.9,729.3,610,723.9,610.1L723.9,610.1z"/>
							<path class="st7" d="M688.1,505.9c-0.3,0.6-0.6,1.3-0.9,1.9c2.9-0.1,5.8-0.3,8.9-0.4c0.3-0.6,0.6-1.3,0.8-1.9
								C693.9,505.6,690.9,505.8,688.1,505.9L688.1,505.9z"/>
							<path class="st7" d="M741,669.1c-0.1-0.8-0.1-1.5-0.2-2.3c-0.3-3.4-0.5-6.8-0.7-10.2c-0.6-7-4.3-10.7-10.2-10.9
								c-1.8,0-3.7,0.1-5.5,0.1c0,0.8,0.1,1.6,0.1,2.4c1.8,0,3.7-0.1,5.5-0.1c4.4,0.1,7.5,2.7,8,8.6c0.2,3.4,0.5,6.8,0.7,10.2
								c0.1,0.8,0.1,1.5,0.2,2.3c0.3,3.4,0.6,6.7,0.9,10.1c0.7,0,1.3,0,2,0C741.6,675.8,741.3,672.4,741,669.1L741,669.1z"/>
							<path class="st3" d="M790.6,498.2c-0.1,0.6-0.1,1.2-0.2,1.9c2.6,0,5.3,0,7.9,0.1c0-0.6,0.1-1.2,0.1-1.9
								C795.9,498.3,793.2,498.3,790.6,498.2L790.6,498.2z"/>
							<path class="st7" d="M781.6,498.2c-0.1,0.6-0.2,1.2-0.2,1.9c2.3,0,4.6,0,6.8,0c0.1-0.6,0.1-1.2,0.2-1.9
								C786.1,498.2,783.8,498.2,781.6,498.2z"/>
							<path class="st7" d="M866.9,522.3c-3.2-0.1-6.5-0.2-9.8-0.3c0.1,0.7,0.2,1.4,0.2,2.1c3.3,0.1,6.6,0.2,9.8,0.3
								C867.1,523.7,867,523,866.9,522.3L866.9,522.3z"/>
							<path class="st7" d="M875.9,522.6c-1.7-0.1-3.4-0.1-5.1-0.2c0.1,0.7,0.2,1.4,0.3,2.1c1.7,0.1,3.4,0.1,5.1,0.2
								C876.1,524,876,523.3,875.9,522.6L875.9,522.6z"/>
							<path class="st4" d="M893.8,571.7c-0.6,0-1.3,0-1.9-0.1c0.2,2.8,0.4,5.6,0.5,8.5c0.7,0,1.3,0,2,0.1
								C894.2,577.3,894,574.5,893.8,571.7z"/>
							<path class="st7" d="M894.5,583.5c-0.7,0-1.3,0-2-0.1c0.4,8.8,0.6,17.7,0.6,26.8c0.7,0,1.3,0,2,0.1
								C895.2,601.2,895,592.3,894.5,583.5L894.5,583.5z"/>
							<path class="st7" d="M911.3,692.7c-0.3,1.5-0.7,2.9-1,4.4c-0.2,1-0.5,2.1-0.7,3.1c0.6,0,1.1,0.1,1.7,0.1
								c0.3-1,0.5-2.1,0.8-3.1c0.3-1.5,0.7-2.9,1-4.4C912.4,692.7,911.8,692.7,911.3,692.7L911.3,692.7z"/>
							<path class="st7" d="M975.1,570.7c-0.2,0-0.5-0.1-0.7-0.1c-0.2,0-0.4,0-0.6-0.1c0.4,2.2,0.8,4.5,1.2,6.8c0.2,0,0.4,0,0.6,0.1
								c0.2,0,0.5,0,0.7,0.1C975.9,575.2,975.5,572.9,975.1,570.7L975.1,570.7z"/>
							<path class="st4" d="M962.2,500.4c-0.7-0.1-1.4-0.2-2.2-0.3c0.4,0.6,0.8,1.3,1.2,1.9c0.8,0.1,1.5,0.2,2.2,0.3
								C963.1,501.7,962.6,501.1,962.2,500.4L962.2,500.4z"/>
							<path class="st4" d="M1009.7,573.4c0,0-0.1-0.1-0.2-0.1c0.5,2.1,1,4.3,1.5,6.4c0.1,0,0.1,0.1,0.2,0.1
								C1010.7,577.7,1010.2,575.5,1009.7,573.4L1009.7,573.4z"/>
							<path class="st7" d="M1003.7,553.4c-0.1-0.1-0.2-0.3-0.4-0.5c0,0-0.1-0.1-0.2-0.1c-0.1-0.1-0.2-0.1-0.3-0.2
								c0.3,0.7,0.5,1.5,0.8,2.2c0.1,0.1,0.2,0.1,0.3,0.2c0.1,0,0.1,0.1,0.2,0.1c0.2,0.2,0.3,0.3,0.4,0.5
								C1004.3,554.9,1004,554.2,1003.7,553.4L1003.7,553.4z"/>
							<path class="st3" d="M981.1,732.8c-0.4,0-0.6,0.1-1.7,1.2c-3.9,4.1-4.9,5-8.5,8.5l-0.7,1.5c4.2-4,5-4.9,8.5-8.4
								c0.6-0.6,0.8-0.8,1.1-0.8c0.3,0.4-0.3,1.8-1.8,4.2c-2.6,3.9-5.3,7.8-8.2,11.5c-0.8,1.1-1.4,1.7-2.2,2.5
								c-9.1,8.8-9.8,8.9-10.2,9c-0.7-0.2-1.4-0.3-2.1-0.5c-0.5,0.6-1,1.2-1.5,1.8c0.8,0.2,1.5,0.3,2.3,0.5c0.5-0.1,1.1-0.5,2.2-1.5
								c9-7.9,10.1-9.4,11.9-11.7c2.9-3.8,5.6-7.6,8.2-11.5C980.6,735.5,981.5,733.4,981.1,732.8L981.1,732.8z"/>
							<path class="st7" d="M950.1,760.6c-0.2,0-0.4-0.1-0.7-0.1c-0.5-0.1-1-0.2-1.5-0.2c-0.5,0.6-1,1.2-1.5,1.8
								c0.5,0.1,1,0.2,1.5,0.2c0.2,0,0.4,0.1,0.7,0.1c1.7,0.3,3.3,0.5,4.7,0.8c0.5-0.6,1-1.2,1.5-1.8
								C953.4,761.2,951.8,760.9,950.1,760.6L950.1,760.6z"/>
							<path class="st7" d="M1016.5,618.7c-0.1-0.3-0.4-0.6-0.9-0.9c-0.8-0.1-1.4,6.9-1.6,13c0.1,0,0.2,0.1,0.3,0.1
								c0.2-6.2,0.7-10.2,1.2-10.7c0,0,0.1,0,0.1,0c0.5,0.3,0.8,0.6,0.9,0.9C1016.5,620.3,1016.5,619.5,1016.5,618.7L1016.5,618.7z"
								/>
							<path class="st7" d="M959.3,534.7c-1.8-0.2-3.5-0.3-5.4-0.5c0.2,0.7,0.5,1.4,0.7,2.2c1.8,0.2,3.6,0.3,5.4,0.5
								C959.8,536.1,959.5,535.4,959.3,534.7L959.3,534.7z"/>
							<g>
								<path class="st4" d="M993.7,533.2c-0.2-0.1-0.5-0.2-0.7-0.3c-0.1-0.2-0.2-0.2-0.5-0.8c-1.1-1.8-1.7-2.9-1.9-3.2
									c-1.9-3.8-4-7.5-6.1-11.2c-0.5-0.8-0.6-1-0.7-1.3c-1-3-2.6-5.6-3.8-8.5c0.3,0.2,0.5,0.4,0.6,0.5l-1.4-2
									c-0.1-0.2-0.3-0.4-0.6-0.5c0,0.1,0.1,0.2,0.2,0.3c2.1,3.6,3.3,7.7,5.3,11.3c2.2,3.7,4.2,7.4,6.1,11.2
									c0.4,0.8,0.7,1.4,1.1,2.1c1.5,2.6,2.4,4,2.7,4.2c0.2,0.1,0.5,0.2,0.7,0.3C994.4,534.6,994,533.9,993.7,533.2L993.7,533.2z"
									/>
								<path class="st4" d="M991.5,527.9c-0.4-0.7-0.5-1.1-0.7-1.4c-1.3-3.4-1.4-3.6-3.5-7.4l-0.3-0.5l-1-1.7
									c2.3,4,2.8,5.2,3.8,7.9c0.1,0.2,0.4,1,1.4,3c0.3,0.6,0.7,1.3,1,2c0.1,0,0.2,0.1,0.2,0.1
									C992.2,529.2,991.8,528.6,991.5,527.9L991.5,527.9z"/>
							</g>
							<path class="st7" d="M995.5,534.3c-0.2-0.3-0.6-0.5-1.2-0.8c0.3,0.7,0.7,1.4,1,2.1c0.5,0.3,0.9,0.5,1.2,0.8
								C996.2,535.7,995.8,535,995.5,534.3L995.5,534.3z"/>
							<path class="st7" d="M1000.5,704c-0.3,0.1-1,1.5-2.3,4.5c-0.8,1.9-1.7,3.8-2.6,5.7c-0.6,1.2-0.9,1.9-1.3,2.8
								c-1.6,3.8-2.5,5.8-2.5,5.8c0.1,0.1,0.1,0.3,0.2,0.4c0.4-0.7,0.8-1.4,1.1-2.1c0-0.1-0.1-0.3-0.2-0.4c0-0.1,0-0.2,0.4-1.1
								c0.8-1.8,1.5-3.6,2.4-5.3c0.9-1.9,1.8-3.8,2.6-5.7c0.9-2.1,1.1-2.3,1.3-2.4c0,0,0,0.1,0.1,0.2c-0.1,0.5-0.4,1.3-1,2.6
								c-1.2,2.7-2.4,5.3-3.7,7.9c0,0,0,0.1,0.1,0.1c1.3-2.6,2.5-5.2,3.7-7.9C999.9,706.2,1000.6,704.5,1000.5,704
								C1000.6,704,1000.5,704,1000.5,704L1000.5,704z"/>
							<path class="st7" d="M946.4,612.5c-0.6,0-1.3-0.1-1.9-0.1c0,0.8,0,1.6,0,2.4c0.6,0,1.3,0.1,1.9,0.1c5.9,1.1,5.8,8.7,5.7,9
								c-0.2,6.3-0.6,12.6-1.2,18.8c0.5,0,1.1,0.1,1.6,0.1c0.6-6.2,1-12.5,1.2-18.8C953.8,623,953.8,613.9,946.4,612.5L946.4,612.5z
								"/>
							<path class="st7" d="M934,611.7c0,0.8,0,1.6,0,2.4c2.7,0.2,5.4,0.3,8,0.5c0-0.8,0-1.6,0-2.4
								C939.4,612.1,936.7,611.9,934,611.7z"/>
							<path class="st7" d="M1008.7,619.5c-1.1-0.2-2.3-0.5-3.6-0.8c-0.8-0.3-1.3-1.1-1.9-3.1l-0.6-2.2l-0.6-1.9
								c-1.8-5.6-1.9-5.8-3-6.1c-1-0.1-1.9-0.3-3-0.4c-1.5,0.1-2.2,2-2.2,5.5c0,0.7,0,1.4,0.1,2.1c0,1.3,0.2,2.2,0.5,3.3
								c0.5,1.7,1.1,4.1,1.5,5.8l0.5,2.1c0.4,1.6,0.9,3.8,1.2,5.5l0.8-1.2c-0.3-1.6-0.8-3.8-1.2-5.5l-0.5-2.1
								c-1.2-4.7-1.8-7.3-1.8-7.7c0-0.7,0-1.4-0.1-2.1c0-2.1,0.4-3.2,1.3-3.3c1,0.1,2,0.3,3,0.4c0.4,0.1,0.7,0.5,1,1.4l1.2,3.6
								l0.6,1.9c1.2,4.2,1.7,5.9,3.2,6.4c1.3,0.2,2.5,0.5,3.6,0.8C1008.7,621.1,1008.7,620.3,1008.7,619.5L1008.7,619.5z"/>
							<path class="st7" d="M962,726.8c5.3-22.8,2.6-23.4,1.3-23.7c-1.9-0.2-3.9-0.4-5.9-0.6c-0.5,0-1-0.1-1.5-0.1
								c-0.6,0-1.2-0.1-1.8-0.2c-0.2,0.7-0.5,1.5-0.8,2.2c0.8,0.1,1.7,0.2,2.5,0.2c0.5,0,1,0.1,1.5,0.1c1.8,0.2,3.5,0.3,5.2,0.5
								c1,0.2,1.4,1,1.3,2.6c-0.9,9.6-2,14.8-3.2,19.8c-0.2,0.7-0.3,1.7-0.4,2.4c-0.2,3.1,1.2,3.5,1.8,3.7c0.6,0.1,1.2,0.2,1.8,0.2
								c0.4-0.7,0.8-1.3,1.2-2c-0.6-0.1-1.2-0.2-1.8-0.2C961.6,731.4,961.3,730,962,726.8L962,726.8z"/>
							<path class="st7" d="M949.7,701.9c-0.2,0.7-0.5,1.5-0.8,2.2c1.1,0.1,2.1,0.2,3.2,0.3c0.3-0.7,0.5-1.5,0.8-2.2
								C951.9,702.1,950.8,702,949.7,701.9L949.7,701.9z"/>
							<path class="st3" d="M968.2,501.4c-1.3-0.2-2.8-0.5-4.3-0.7c0.4,0.6,0.8,1.3,1.3,1.9c1.6,0.2,3.1,0.5,4.4,0.7
								C969.1,502.7,968.6,502,968.2,501.4L968.2,501.4z"/>
							<path class="st3" d="M808.4,761.7c0,0.2,0,0.4,0,0.6c-0.1,3.4-0.1,6.7-0.2,9.8c0.5,0,1,0,1.4,0c0.1-3.2,0.2-6.4,0.3-9.8
								c0-0.2,0-0.4,0-0.6C809.4,761.8,808.9,761.7,808.4,761.7L808.4,761.7z"/>
							<path class="st3" d="M736.2,494.9c-1.2,3.3-2.2,6.7-3.3,10.2c0.6,0,1.1,0,1.7,0c1-3.5,2.1-6.9,3.2-10.2
								C737.3,494.9,736.7,494.9,736.2,494.9L736.2,494.9z"/>
							<path class="st3" d="M991.9,723.5c0,0.1,0,0.1-0.1,0.2l0.3-0.6l0.8-1.5c0,0,0-0.1,0.1-0.2
								C992.6,722.1,992.3,722.8,991.9,723.5L991.9,723.5z"/>
							<path class="st4" d="M727.6,485.7c-0.3,0.6-0.5,1.2-0.8,1.8c3.4-0.1,6.9-0.2,10.5-0.2c0.2-0.6,0.5-1.2,0.7-1.8
								C734.4,485.5,731,485.6,727.6,485.7L727.6,485.7z"/>
						</g>
						<circle class="st4" cx="817.2" cy="650.4" r="7.6"/>
						<circle class="st4" cx="872.6" cy="687.2" r="7.6"/>
						<circle class="st4" cx="876.2" cy="571.3" r="7.6"/>
						<circle class="st3" cx="809.6" cy="697.1" r="7.6"/>
						<path class="st3" d="M1116.6,363.1c0,3.1-2.5,5.5-5.5,5.5s-5.5-2.5-5.5-5.5c0-3,2.5-5.5,5.5-5.5S1116.6,360.1,1116.6,363.1z"
							/>
						<circle class="st7" cx="742.5" cy="699.4" r="7.6"/>
						<circle class="st7" cx="895" cy="625.3" r="7.6"/>
						<circle class="st4" cx="927.4" cy="593.6" r="7.6"/>
						<circle class="st3" cx="756.9" cy="611.7" r="7.6"/>
						<circle class="st4" cx="720.2" cy="634.4" r="7.6"/>
						<rect x="797.7" y="525.3" class="st7" width="17" height="1.7"/>
						<g>
							<circle class="st7" cx="1578.4" cy="223.4" r="5.5"/>
							<circle class="st4" cx="1350.4" cy="328" r="5.5"/>
							<circle class="st4" cx="1485.1" cy="261.6" r="5.5"/>
							<circle class="st4" cx="1525.8" cy="278.1" r="5.5"/>
							<circle class="st4" cx="1479.6" cy="328" r="5.5"/>
							<circle class="st4" cx="1482.8" cy="415.1" r="7.6"/>
							<circle class="st3" cx="1552.4" cy="386.6" r="7.6"/>
							<circle class="st3" cx="1528.5" cy="328" r="5.5"/>
							<circle class="st3" cx="1436.5" cy="415.1" r="7.6"/>
							<circle class="st3" cx="1572.9" cy="344.1" r="5.5"/>
							<circle class="st7" cx="1482.9" cy="475.7" r="5.5"/>
							<circle class="st3" cx="1569.2" cy="276.1" r="7.6"/>
							<circle class="st3" cx="1485" cy="203.9" r="7.6"/>
							
								<ellipse transform="matrix(0.7261 -0.6876 0.6876 0.7261 198.5016 1066.9849)" class="st3" cx="1438.5" cy="284.3" rx="7.6" ry="7.6"/>
							<rect x="1482.1" y="369.6" class="st3" width="1.7" height="24.9"/>
							<rect x="1553.5" y="312.3" class="st4" width="1.7" height="21.1"/>
							<rect x="1364.4" y="327.1" class="st3" width="43.8" height="1.7"/>
							<rect x="1572" y="353.7" class="st7" width="1.7" height="21.1"/>
							<rect x="1414.1" y="317.4" class="st7" width="1.7" height="21.1"/>
							<rect x="1482.1" y="433.2" class="st7" width="1.7" height="17"/>
							<rect x="1542.9" y="343.2" class="st7" width="17" height="1.7"/>
							<rect x="1484.2" y="220.6" class="st4" width="1.7" height="17"/>
							<rect x="1546" y="304.7" class="st3" width="16.8" height="1.7"/>
							<rect x="1498.3" y="327.1" class="st7" width="17" height="1.7"/>
							<rect x="1422.4" y="327.1" class="st4" width="39" height="1.7"/>
							<rect x="1564.6" y="385.7" class="st3" width="18" height="1.7"/>
							<rect x="1447.7" y="414.3" class="st3" width="11.8" height="1.7"/>
							<rect x="1477" y="459.3" class="st3" width="11.8" height="1.7"/>
							<rect x="1568.4" y="298.2" class="st3" width="1.7" height="11.8"/>
							<path class="st7" d="M1631.6,393.6c-6.3,0-12,3.5-14.9,9.1l-6.7,13.2c-2.5,4.9-7.5,8-13,8h-21.2v1.7h21.2
								c6.2,0,11.7-3.4,14.5-8.9l6.7-13.2c2.6-5,7.7-8.2,13.3-8.2h10.6v-1.7H1631.6z"/>
							<path class="st4" d="M1535.5,423.9c-6.4,0-11.6-5.2-11.6-11.6v-13.2c0-6.4,5.2-11.6,11.6-11.6h5.5v-1.7h-5.5
								c-7.3,0-13.3,6-13.3,13.3v13.2c0,7.3,6,13.3,13.3,13.3h33.9v-1.7H1535.5L1535.5,423.9z"/>
							<path class="st7" d="M1540.1,306.4h-2.9c-6.8,0-12.3-5.5-12.3-12.3v-7.6h1.7v7.6c0,5.8,4.7,10.6,10.6,10.6h2.9
								C1540.1,304.7,1540.1,306.4,1540.1,306.4z"/>
							<rect x="1461.4" y="235" class="st7" width="16.8" height="1.7"/>
							<path class="st4" d="M1613.5,234.5h-1.7v-1.7c0-4.7-3.8-8.5-8.5-8.5h-13.5v-1.7h13.5c5.6,0,10.2,4.6,10.2,10.2V234.5z"/>
							<path class="st3" d="M1483.8,362h-1.7v-3.5c0-8.4,6.8-15.2,15.2-15.2h36.8v1.7h-36.8c-7.4,0-13.5,6.1-13.5,13.5V362z"/>
						</g>
						<circle class="st3" cx="1537.8" cy="509.8" r="7.6"/>
						<circle class="st7" cx="1499.8" cy="437.7" r="5.5"/>
						<circle class="st7" cx="1696.2" cy="403.6" r="7.6"/>
						<rect x="1537.9" y="449.7" class="st3" width="1.7" height="23"/>
						<rect x="1514.9" y="436.8" class="st7" width="17" height="1.7"/>
						<circle class="st4" cx="1663.9" cy="467.1" r="7.6"/>
						<circle class="st4" cx="1617" cy="493.6" r="5.5"/>
						<rect x="1523.3" y="492.7" class="st3" width="79.7" height="1.7"/>
						<rect x="1537.9" y="429.4" class="st3" width="1.7" height="11.8"/>
						<path class="st4" d="M1512.1,494.4h1.6v-1.7h-1.6c-6.8,0-12.3-5.5-12.3-12.3v-12.8h-1.7v12.8
							C1498.1,488.2,1504.4,494.4,1512.1,494.4z"/>
						<path class="st7" d="M1564.6,492.3h1.7v-29.6c0-8.7-7.1-15.8-15.8-15.8h-4.9v1.7h4.9c7.8,0,14.1,6.3,14.1,14.1L1564.6,492.3
							L1564.6,492.3z"/>
						<path class="st4" d="M1579.4,523.4h23.6v-1.7h-23.6c-7.2,0-13-5.8-13-13v-5.9h-1.7v5.9
							C1564.6,516.8,1571.2,523.4,1579.4,523.4z"/>
						<rect x="1655.9" y="493.6" class="st4" width="66.8" height="1.7"/>
					</g>
				</g>
			</g>
		</g>
	</g>
</g>
</svg>
