<?xml version="1.0" encoding="utf-8"?>
<!-- Generator: Adobe Illustrator 27.0.0, SVG Export Plug-In . SVG Version: 6.00 Build 0)  -->
<svg version="1.1" id="Layer_2_00000078028533204174184260000003171054049859311028_"
	 xmlns="http://www.w3.org/2000/svg" xmlns:xlink="http://www.w3.org/1999/xlink" x="0px" y="0px" viewBox="0 0 1920 1080"
	 style="enable-background:new 0 0 1920 1080;" xml:space="preserve">
<style type="text/css">
	.st0{opacity:0.3;fill:#3378C6;enable-background:new    ;}
	
		.st1{fill-rule:evenodd;clip-rule:evenodd;fill:#FFFFFF;stroke:#0072C8;stroke-width:0.75;stroke-linecap:round;stroke-linejoin:round;}
	.st2{fill:none;}
	
		.st3{fill-rule:evenodd;clip-rule:evenodd;fill:#D9E8FF;stroke:#0072C8;stroke-width:0.75;stroke-linecap:round;stroke-linejoin:round;}
	
		.st4{fill-rule:evenodd;clip-rule:evenodd;fill:#9ACEEF;stroke:#0072C8;stroke-width:0.75;stroke-linecap:round;stroke-linejoin:round;}
</style>
<g id="Layer_1-2">
	<g>
		<circle class="st0" cx="960" cy="540" r="76.2"/>
		<g>
			<g>
				<path class="st1" d="M1000.2,488.6c-4.5-4.5-9.9-8.2-15.9-10.6c-5.8-2.4-12.1-3.7-18.8-3.7c-6.7,0-13,1.3-18.8,3.7
					c-6,2.5-11.4,6.1-15.9,10.6c-4.5,4.5-8.1,9.9-10.6,15.9c-2.4,5.8-3.7,12.1-3.7,18.8c0,6.7,1.3,13,3.7,18.8
					c2.5,6,6.1,11.4,10.6,15.9c4.5,4.5,9.9,8.2,15.9,10.7c5.8,2.4,12.1,3.7,18.8,3.7s13-1.3,18.8-3.7c6-2.5,11.4-6.2,15.9-10.7
					c4.5-4.5,8.2-9.9,10.7-15.9c2.4-5.8,3.7-12.1,3.7-18.8s-1.3-13-3.7-18.8C1008.4,498.5,1004.7,493.1,1000.2,488.6z"/>
				<path class="st2" d="M965.5,475c-6.4,0-12.6,1.2-18.4,3.7c-5.9,2.4-11.1,6-15.7,10.5c-4.5,4.5-8,9.8-10.5,15.6
					c-2.4,5.9-3.7,12.1-3.7,18.5s1.2,12.6,3.7,18.4c2.4,5.9,6,11.1,10.5,15.7c4.5,4.5,9.8,8,15.7,10.5c11.7,4.8,25.2,4.8,36.9,0
					c5.9-2.4,11.1-6,15.6-10.5c4.5-4.5,8.1-9.8,10.5-15.7c2.4-5.8,3.7-12,3.7-18.4s-1.2-12.6-3.7-18.4c-2.4-5.9-6-11.1-10.5-15.6
					l0,0c-4.5-4.5-9.8-8.1-15.6-10.5C978.1,476.3,971.9,475,965.5,475L965.5,475L965.5,475z M965.5,573.1c-6.6,0-13-1.3-19.1-3.8
					c-6-2.5-11.5-6.2-16.2-10.8c-4.7-4.7-8.3-10.1-10.8-16.2c-2.5-6.1-3.8-12.5-3.8-19.1s1.3-13,3.8-19.1c2.5-6,6.2-11.5,10.8-16.2
					c4.7-4.7,10.1-8.3,16.2-10.8c12.1-5,26-5,38.1,0c6.1,2.5,11.5,6.2,16.2,10.8c4.7,4.7,8.3,10.1,10.8,16.2
					c2.5,6.1,3.8,12.5,3.8,19.1s-1.3,13-3.8,19.1c-2.5,6.1-6.2,11.5-10.8,16.2c-4.7,4.7-10.1,8.3-16.2,10.8
					C978.5,571.8,972.1,573.1,965.5,573.1L965.5,573.1z"/>
				<path class="st3" d="M997.2,491.6c-4.1-4.1-9.1-7.5-14.5-9.7c-5.3-2.2-11.1-3.4-17.1-3.4c-6.1,0-11.8,1.2-17.1,3.4
					c-5.5,2.3-10.4,5.6-14.5,9.7c-4.1,4.1-7.5,9.1-9.7,14.5c-2.2,5.3-3.4,11-3.4,17.1s1.2,11.8,3.4,17.1c2.3,5.5,5.6,10.4,9.7,14.5
					c4.1,4.1,9.1,7.5,14.5,9.7c5.2,2.2,11,3.4,17.1,3.4s11.9-1.2,17.1-3.4c5.5-2.3,10.4-5.6,14.5-9.7c4.1-4.1,7.5-9,9.7-14.5
					c2.2-5.3,3.4-11,3.4-17.1s-1.2-11.9-3.4-17.1C1004.6,500.7,1001.3,495.7,997.2,491.6z"/>
				<path class="st2" d="M965.5,479.3c-5.8,0-11.5,1.1-16.8,3.3c-5.3,2.2-10.1,5.4-14.2,9.5c-4.1,4.1-7.3,8.9-9.5,14.3
					c-2.2,5.3-3.3,11-3.3,16.8s1.1,11.5,3.3,16.8c2.2,5.4,5.4,10.1,9.5,14.3c4.1,4.1,8.9,7.3,14.2,9.5c10.7,4.4,23,4.4,33.6,0
					c5.3-2.2,10.1-5.4,14.2-9.5c4.1-4.1,7.3-8.9,9.5-14.3c2.2-5.3,3.3-11,3.3-16.8s-1.1-11.5-3.3-16.8c-2.2-5.4-5.4-10.2-9.5-14.3
					c-4.1-4.1-8.9-7.3-14.2-9.5C977,480.4,971.3,479.3,965.5,479.3C965.5,479.3,965.5,479.3,965.5,479.3z M965.5,568.8
					c-6,0-11.9-1.2-17.4-3.5c-5.5-2.3-10.5-5.6-14.8-9.9c-4.3-4.3-7.6-9.2-9.9-14.8c-2.3-5.5-3.5-11.4-3.5-17.4
					c0-6,1.2-11.9,3.5-17.4c2.3-5.5,5.6-10.5,9.9-14.8c4.3-4.3,9.2-7.6,14.8-9.9c11.1-4.6,23.8-4.6,34.9,0
					c5.5,2.3,10.5,5.6,14.8,9.9l0,0c4.3,4.3,7.6,9.2,9.9,14.8c2.3,5.5,3.4,11.4,3.4,17.4s-1.1,11.9-3.4,17.4
					c-2.3,5.6-5.6,10.5-9.9,14.8c-4.3,4.3-9.2,7.6-14.8,9.9C977.4,567.7,971.6,568.8,965.5,568.8L965.5,568.8z"/>
				<path class="st4" d="M999.6,494.1c1.6,1.9,5.8,8,7.5,12.4c2.2,5.5,3.3,11.3,3.2,17.2c-0.1,5.9-1.3,11.7-3.6,17.1
					c-2.2,5.2-5.5,10.2-9.9,14.4c-4.3,4.2-9.3,7.5-14.6,9.6c-2.2,0.9,4.1-6.5,0.2-10.6c-3.9-4.1-20.3,0.7-19.8-7.7
					c0.4-8.4,4.1-8.3,6-12.7c1.9-4.4,4.2-0.8,12.5-3.6c8.2-2.8,19.2-2.4,22.7-6.1c3.6-3.7-13.6,0.7-16.8-0.1
					c-3.2-0.8-3.8-4.6-6.1-4.5c-2.3,0.1-1,4.2-3.5,5c-2.5,0.8-9.4,2-9.8-0.9c-1.6-11.1,7-7.6,7.5-8.2c2.3-2.6-2.7-4.7,0.4-8.4
					c3.1-3.7,6.1-4.4,7.7-6.9c1.6-2.6-3.8-4.6-1.3-6.6C984.4,491.3,997.9,492.1,999.6,494.1L999.6,494.1z"/>
				<path class="st2" d="M972.7,532.1c-1.9,0-2.5,0.1-3.3,1.9c-0.7,1.7-1.7,2.7-2.6,3.7c-1.6,1.8-3.1,3.5-3.4,8.7
					c-0.2,3.9,3.9,4.4,10.2,4.8c3.9,0.2,7.6,0.4,9.4,2.3c2.8,3,1,7.4,0,9.7c0,0.1-0.1,0.2-0.1,0.2c5-2.1,9.4-5.1,13.3-8.9
					c4.2-4.1,7.4-8.8,9.7-14.1c2.3-5.3,3.5-11,3.5-16.8c0.1-5.8-1-11.5-3.1-16.9c-1.7-4.3-5.8-10.3-7.4-12.2l0,0
					c-1.3-1.6-14.2-2.5-16.5-0.7c-0.5,0.4-0.6,0.7,0.5,2c0.9,1.1,2,2.6,1,4.4c-0.9,1.4-2.1,2.3-3.5,3.2c-1.3,0.9-2.8,2-4.3,3.8
					c-1.3,1.6-0.8,2.7-0.2,4c0.6,1.2,1.2,2.8-0.1,4.4c-0.4,0.4-1,0.4-1.8,0.3c-1.3-0.1-3.3-0.3-4.5,0.9c-1.1,1.1-1.4,3.2-0.9,6.3
					c0,0.2,0.1,0.4,0.4,0.6c1.5,0.9,5.8,0.4,8.2-0.4c0.8-0.2,1-1,1.3-2.2c0.3-1.2,0.7-2.8,2.4-2.8c1.6-0.1,2.5,1,3.4,2.1
					c0.8,1,1.6,2,3,2.3c1.1,0.3,4.5-0.2,7.5-0.7c6.7-1,9.5-1.2,10.2,0.1c0.3,0.6,0.1,1.3-0.6,2c-2.3,2.4-7,3.2-12.5,4
					c-3.6,0.6-7.3,1.2-10.6,2.3c-3.8,1.3-6.4,1.3-8.2,1.3H972.7L972.7,532.1z M981.9,565.7c-0.3,0-0.6-0.1-0.7-0.3
					c-0.6-0.6-0.3-1.3,0.3-2.7c0.9-2.2,2.4-5.8,0.3-8c-1.4-1.4-4.9-1.6-8.4-1.8c-5.6-0.3-12.1-0.7-11.8-6.5c0.3-5.8,2.1-7.8,3.8-9.7
					c0.9-1,1.7-1.9,2.3-3.3c1.3-2.9,3-2.9,5.2-2.9c1.8,0,4.2,0,7.7-1.2c3.4-1.2,7.2-1.8,10.8-2.4c5-0.8,9.6-1.5,11.6-3.5
					c0,0,0,0,0-0.1c-1.3-0.2-5.5,0.4-8.3,0.8c-3.7,0.5-6.8,1-8.2,0.6c-1.9-0.5-3-1.8-3.9-2.9c-0.8-1-1.3-1.6-2-1.5
					c-0.4,0-0.6,0.3-0.9,1.6c-0.3,1.2-0.7,2.8-2.4,3.4c-1.9,0.6-7.2,1.7-9.6,0.2c-0.7-0.4-1.1-1-1.2-1.8c-0.5-3.7-0.1-6.2,1.4-7.7
					c1.8-1.8,4.5-1.6,5.9-1.4c0.2,0,0.4,0,0.6,0c0.5-0.7,0.2-1.3-0.2-2.4c-0.7-1.4-1.5-3.4,0.5-5.8c1.6-2,3.2-3.1,4.6-4.1
					c1.3-0.9,2.3-1.6,3-2.8c0.4-0.7,0.1-1.3-0.8-2.5c-0.8-1.1-2.1-2.8-0.3-4.3c2.7-2.2,16.7-1.5,18.8,0.9l0,0
					c1.7,1.9,5.9,8.1,7.7,12.6c2.2,5.6,3.3,11.5,3.3,17.5c-0.1,6.1-1.3,11.9-3.7,17.4c-2.3,5.5-5.7,10.4-10,14.7
					c-4.3,4.2-9.3,7.5-14.9,9.8C982.3,565.7,982.1,565.7,981.9,565.7L981.9,565.7z"/>
				<path class="st4" d="M962.5,478.5c-10.4,0.7-20.7,5.1-28.7,13c-4.3,4.3-7.5,9.2-9.7,14.5c-4.5,11-4.5,23.4,0,34.3
					c1.8,4.4,4.4,8.5,7.7,12.3c0.2,0.3,0.6,0.4,0.9,0.4c0.3,0,0.7-0.1,0.9-0.4c3-3.5,11.6-5.8,12.2-10.3c0.4-3.3-5.1-4.7-6.6-7.7
					c-1.6-3.5-0.3-8.1-2.5-11.3c-2.2-3.3-8.3-2.8-10.7-6.1c-1.3-1.8-0.3-4.4,0.3-6.5c0.3-0.9,1.4-1.4,2.3-1.7
					c6.1-1.5,10.2-0.8,18.3-4.3c3.9-1.7,1.7-3.9,3.5-4.6c1.7-0.7,4.4,4.5,7,2.2c2.6-2.3,4.7-13.3,5.6-15.9c1-2.6,4.4-0.1,5.4,0.5
					c0.9,0.5-1.6,5.5-0.4,6.4c1.2,0.9,6.1-2.2,6.8-2.9c3.7-3.7,2.8-7.1,0.7-8.7c-2.1-1.6-8.5,0.6-12.1-2.9
					C963.2,478.7,962.9,478.5,962.5,478.5L962.5,478.5z"/>
				<path class="st2" d="M962.5,478.5L962.5,478.5z M968.2,487.7L968.2,487.7z M962.6,479.4L962.6,479.4
					c-10.7,0.7-20.6,5.2-28.2,12.8c-4.1,4.1-7.3,8.9-9.5,14.2c-4.4,10.7-4.4,23,0,33.7c1.8,4.4,4.4,8.5,7.5,12.1
					c0.1,0.1,0.2,0.1,0.3,0.1c0.2,0,0.3-0.1,0.3-0.1c1.2-1.4,3.3-2.6,5.4-3.9c3.1-1.8,6.2-3.6,6.5-6c0.2-1.4-1-2.3-2.9-3.7
					c-1.4-1-2.8-2.1-3.6-3.6c-0.8-1.7-1-3.7-1.1-5.6c-0.1-2.1-0.3-4.1-1.3-5.6c-1-1.4-2.9-2.1-4.9-2.8c-2.2-0.7-4.4-1.5-5.7-3.3
					c-1.5-2.1-0.5-5,0.2-7.1l0.1-0.2c0.5-1.4,2.2-2,2.9-2.2c2.2-0.6,4.2-0.8,6.1-1.1c3.4-0.5,7-1,12.1-3.2c1.9-0.8,2-1.7,2.2-2.5
					c0.1-0.7,0.2-1.6,1.3-2.1c1.2-0.5,2.3,0.4,3.4,1.3c1.7,1.4,2.6,1.8,3.5,1c1.7-1.5,3.4-8,4.4-11.8c0.4-1.6,0.8-2.9,1-3.7
					c0.4-1,1-1.4,1.5-1.5c1.6-0.6,3.7,0.7,4.8,1.4l0.3,0.2c1,0.6,0.6,1.9,0.1,3.7c-0.2,0.8-0.6,2.4-0.5,2.8c0.8,0.2,4.9-2.1,5.6-2.8
					c1.6-1.5,2.4-3.2,2.3-4.6c-0.1-1.1-0.6-2.1-1.5-2.9c-0.6-0.5-2.1-0.5-3.7-0.6c-2.7,0-6-0.1-8.4-2.4
					C962.8,479.4,962.7,479.4,962.6,479.4L962.6,479.4L962.6,479.4z M932.8,554L932.8,554c-0.7,0-1.2-0.2-1.6-0.7
					c-3.3-3.7-5.9-8-7.8-12.5c-4.6-11.1-4.6-23.8,0-34.9c2.3-5.5,5.6-10.5,9.9-14.8c7.8-7.8,18.2-12.5,29.2-13.2
					c0.6,0,1.2,0.2,1.6,0.6c1.9,1.8,4.8,1.9,7.3,1.9c2,0,3.7,0.1,4.7,0.9c1.3,1,2.1,2.5,2.1,4c0.1,1.4-0.3,3.5-2.8,5.9
					c-0.3,0.3-5.9,4.4-7.8,2.9c-1.1-0.8-0.6-2.6-0.1-4.5c0.2-0.6,0.4-1.6,0.4-2l-0.1-0.1c-0.7-0.4-2.5-1.5-3.3-1.2
					c-0.1,0-0.3,0.1-0.5,0.5c-0.3,0.7-0.6,2-1,3.5c-1.5,5.7-3,11-4.9,12.7c-2.1,1.8-4.2,0.1-5.6-1c-0.5-0.4-1.4-1.1-1.7-1
					c-0.2,0.1-0.2,0.1-0.3,0.8c-0.1,1.1-0.3,2.6-3.1,3.8c-5.3,2.3-9,2.8-12.5,3.3c-1.9,0.3-3.8,0.5-5.9,1.1
					c-0.9,0.2-1.6,0.6-1.7,1.1l-0.1,0.2c-0.6,1.9-1.4,4.2-0.4,5.6c1,1.4,2.9,2,4.9,2.7c2.2,0.8,4.5,1.5,5.8,3.4
					c1.3,1.9,1.5,4.2,1.6,6.4c0.1,1.8,0.2,3.5,0.9,5c0.5,1.1,1.8,2,3.1,2.9c1.8,1.3,3.9,2.8,3.6,5.3c-0.4,3.2-4,5.2-7.4,7.2
					c-2,1.2-4,2.3-5,3.5C933.9,553.7,933.4,554,932.8,554L932.8,554z"/>
			</g>
			<g>
				<path class="st3" d="M949.9,489.2c-0.8-0.4-2.1,0-2.9,0.4l-0.3,0.1l-35.9,20.8c-3.1,1.8-5.3,6.1-5.3,9.7l0,82.7
					c0,1.4,0.3,2.7,1.4,3.7l6.6,3.8c-1.1-1-1.4-2.3-1.4-3.7l0-82.7c0-3.6,2.2-7.9,5.3-9.7l35.9-20.8c1-0.6,2-0.9,3.2-0.5
					L949.9,489.2L949.9,489.2z"/>
				<path class="st3" d="M917.4,610.2l35.9-20.8c2.9-1.7,5.3-6,5.3-9.7l0-82.7c0-3.6-2.4-5.3-5.3-3.6l-35.9,20.8
					c-2.9,1.7-5.3,6-5.3,9.7l0,82.7C912.1,610.3,914.4,611.9,917.4,610.2L917.4,610.2z"/>
				<path class="st1" d="M958.6,578.8l0-81.7c0-3.6-2.4-5.3-5.3-3.6l-35.9,20.8c-2.9,1.7-5.3,6-5.3,9.7l0,81.7L958.6,578.8z"/>
				<path class="st4" d="M906.7,515.1c-0.8,1.6-1.2,3.2-1.2,5l0,82.7c0,1.4,0.3,2.7,1.4,3.7l6.6,3.8c-1.1-1-1.4-2.3-1.4-3.7l0-82.7
					c0-1.8,0.5-3.3,1.2-5L906.7,515.1L906.7,515.1z"/>
				<path class="st1" d="M908.9,551.6c-0.5,0-0.9-0.4-0.9-0.9v-8.3c0-0.5,0.4-0.9,0.9-0.9s0.9,0.4,0.9,0.9v8.3
					C909.8,551.2,909.4,551.6,908.9,551.6z"/>
				<path class="st1" d="M908.9,537.8c-0.5,0-0.9-0.4-0.9-0.9v-8.3c0-0.5,0.4-0.9,0.9-0.9s0.9,0.4,0.9,0.9v8.3
					C909.8,537.5,909.4,537.8,908.9,537.8z"/>
				<path class="st4" d="M932.9,598.4c-0.3,0-0.6-0.2-0.8-0.4c-0.2-0.4-0.1-1,0.3-1.2l7.2-4.1c0.4-0.2,1-0.1,1.2,0.3
					c0.2,0.4,0.1,1-0.3,1.2l-7.2,4.1C933.2,598.3,933,598.4,932.9,598.4z"/>
				<path class="st3" d="M951.7,498.2L951.7,498.2c-0.5,0.3-0.9,1.1-0.9,1.7l0,0c0,0.7,0.4,0.9,0.9,0.6l0,0c0.5-0.3,0.9-1.1,0.9-1.7
					l0,0C952.6,498.2,952.2,497.9,951.7,498.2z"/>
				<path class="st3" d="M923.5,579.8c-0.3,0-0.6-0.2-0.8-0.4c-0.2-0.4-0.1-0.9,0.3-1.2l7.1-4.1c0.4-0.2,1-0.1,1.2,0.3
					c0.2,0.4,0.1,1-0.3,1.2l-7.1,4.1C923.8,579.8,923.7,579.8,923.5,579.8L923.5,579.8z"/>
				<path class="st3" d="M923.5,590.1c-0.3,0-0.6-0.2-0.8-0.4c-0.2-0.4-0.1-1,0.3-1.2l7.1-4.1c0.4-0.2,1-0.1,1.2,0.3
					c0.2,0.4,0.1,1-0.3,1.2l-7.1,4.1C923.8,590.1,923.7,590.1,923.5,590.1L923.5,590.1z"/>
				<path class="st3" d="M942.7,568.8c-0.3,0-0.6-0.2-0.8-0.4c-0.2-0.4-0.1-0.9,0.3-1.2l7.1-4.1c0.4-0.2,1-0.1,1.2,0.3
					c0.2,0.4,0.1,1-0.3,1.2l-7.1,4.1C943,568.7,942.8,568.8,942.7,568.8L942.7,568.8z"/>
				<path class="st3" d="M942.7,579.1c-0.3,0-0.6-0.2-0.8-0.4c-0.2-0.4-0.1-1,0.3-1.2l7.1-4.1c0.4-0.2,1-0.1,1.2,0.3
					c0.2,0.4,0.1,1-0.3,1.2l-7.1,4.1C943,579,942.8,579.1,942.7,579.1L942.7,579.1z"/>
				<path class="st3" d="M927.3,538.5L927.3,538.5L927.3,538.5z M927.7,540.5c0.2,0,0.5-0.1,0.7-0.2l6.5-3.8
					c0.5-0.3,0.7-0.9,0.4-1.4c-0.3-0.5-0.9-0.7-1.4-0.4l-5.3,3.1v-2.9l6-3.4c0.5-0.3,0.9-1,0.9-1.6v-4.5c0-0.5-0.2-0.9-0.6-1.2
					c-0.4-0.2-0.9-0.2-1.3,0l-6.5,3.8c-0.5,0.3-0.7,0.9-0.4,1.4c0.3,0.5,0.9,0.7,1.4,0.4l5.3-3.1v3l-6,3.4c-0.5,0.3-0.9,1-0.9,1.6
					v4.5c0,0.5,0.2,0.9,0.6,1.2C927.2,540.4,927.5,540.5,927.7,540.5L927.7,540.5z"/>
				<path class="st3" d="M944.5,520.2L944.5,520.2z M943.4,529.2L943.4,529.2z M938.5,523.7v8.3l4.8-2.8v-8.3L938.5,523.7
					L938.5,523.7L938.5,523.7z M937.8,533.6L937.8,533.6z M937.7,534.7c-0.2,0-0.4,0-0.6-0.2c-0.4-0.2-0.6-0.7-0.6-1.2v-9.9
					c0-0.6,0.4-1.2,0.9-1.6l6.1-3.5c0.4-0.2,0.9-0.2,1.3,0c0.4,0.2,0.6,0.7,0.6,1.2v9.9c0,0.6-0.4,1.2-0.9,1.6l-6.1,3.5l0,0
					C938.2,534.7,937.9,534.7,937.7,534.7L937.7,534.7z"/>
				<path class="st2" d="M918,521.8c-0.3,0-0.6-0.2-0.8-0.4c-0.2-0.4-0.1-1,0.3-1.2l2.1-1.2c0.4-0.2,1-0.1,1.2,0.3
					c0.2,0.4,0.1,1-0.3,1.2l-2.1,1.2C918.3,521.7,918.2,521.8,918,521.8z"/>
				<path class="st3" d="M922.2,519.4c-0.3,0-0.6-0.2-0.8-0.4c-0.2-0.4-0.1-1,0.3-1.2l2.1-1.2c0.4-0.2,0.9-0.1,1.2,0.3
					c0.2,0.4,0.1,0.9-0.3,1.2l-2.1,1.2C922.5,519.4,922.3,519.4,922.2,519.4z"/>
				<path class="st3" d="M926.3,517c-0.3,0-0.6-0.2-0.8-0.4c-0.2-0.4-0.1-1,0.3-1.2l2.1-1.2c0.4-0.2,1-0.1,1.2,0.3
					c0.2,0.4,0.1,1-0.3,1.2l-2.1,1.2C926.6,517,926.5,517,926.3,517L926.3,517z"/>
				<path class="st3" d="M923.5,569.5c-0.3,0-0.6-0.2-0.8-0.4c-0.2-0.4-0.1-1,0.3-1.2l7.1-4.1c0.4-0.2,1-0.1,1.2,0.3
					c0.2,0.4,0.1,1-0.3,1.2l-7.1,4.1C923.8,569.5,923.7,569.5,923.5,569.5L923.5,569.5z"/>
				<path class="st3" d="M942.7,558.5c-0.3,0-0.6-0.2-0.8-0.4c-0.2-0.4-0.1-0.9,0.3-1.2l7.1-4.1c0.4-0.2,1-0.1,1.2,0.3
					c0.2,0.4,0.1,1-0.3,1.2l-7.1,4.1C943,558.4,942.8,558.5,942.7,558.5L942.7,558.5z"/>
				<path class="st3" d="M933.4,546L933.4,546L933.4,546z M927.8,556.9c-0.4,0-0.7-0.2-0.9-0.5c-0.3-0.5-0.1-1.2,0.4-1.4l6-3.5v-3
					l-4.9,2.8c-0.5,0.3-1.2,0.1-1.4-0.4c-0.3-0.5-0.1-1.2,0.4-1.4l6-3.5v-3l-5.3,3.1c-0.5,0.3-1.2,0.1-1.4-0.4
					c-0.3-0.5-0.1-1.2,0.4-1.4l6.5-3.8c0.4-0.2,0.9-0.3,1.3,0c0.4,0.2,0.6,0.7,0.6,1.2v4.5c0,0.2,0,0.3-0.1,0.5
					c0,0.1,0.1,0.3,0.1,0.4v4.5c0,0.6-0.4,1.2-0.9,1.6l-6.1,3.5C928.2,556.9,928,556.9,927.8,556.9L927.8,556.9z"/>
				<path class="st3" d="M944.5,537.1L944.5,537.1z M937.7,551.6c-0.2,0-0.4,0-0.6-0.2c-0.4-0.2-0.6-0.7-0.6-1.2v-4.5
					c0-0.6,0.4-1.2,0.9-1.6l6-3.4v-3l-5.3,3.1c-0.5,0.3-1.1,0.1-1.4-0.4c-0.3-0.5-0.1-1.2,0.4-1.4l6.5-3.8c0.4-0.2,0.9-0.3,1.3,0
					c0.4,0.2,0.6,0.7,0.6,1.2v4.5c0,0.6-0.4,1.2-0.9,1.6l-6,3.4v2.9l5.3-3.1c0.5-0.3,1.2-0.1,1.4,0.4c0.3,0.5,0.1,1.1-0.4,1.4
					l-6.5,3.8C938.1,551.6,937.9,551.6,937.7,551.6L937.7,551.6z"/>
			</g>
		</g>
	</g>
</g>
</svg>
