<?xml version="1.0" encoding="utf-8"?>
<!-- Generator: Adobe Illustrator 27.0.0, SVG Export Plug-In . SVG Version: 6.00 Build 0)  -->
<svg version="1.1" id="Layer_2_00000121975265419480467260000015815805922752103075_"
	 xmlns="http://www.w3.org/2000/svg" xmlns:xlink="http://www.w3.org/1999/xlink" x="0px" y="0px" viewBox="0 0 1920 1080"
	 style="enable-background:new 0 0 1920 1080;" xml:space="preserve">
<style type="text/css">
	.st0{opacity:0.3;fill:#3378C6;enable-background:new    ;}
	
		.st1{fill-rule:evenodd;clip-rule:evenodd;fill:#9ACEEF;stroke:#0072C8;stroke-width:0.75;stroke-linecap:round;stroke-linejoin:round;}
	
		.st2{fill-rule:evenodd;clip-rule:evenodd;fill:#D9E8FF;stroke:#0072C8;stroke-width:0.75;stroke-linecap:round;stroke-linejoin:round;}
	
		.st3{fill-rule:evenodd;clip-rule:evenodd;fill:#FFFFFF;stroke:#0072C8;stroke-width:0.75;stroke-linecap:round;stroke-linejoin:round;}
	.st4{fill:none;}
</style>
<g id="Layer_1-2">
	<g>
		<circle class="st0" cx="960" cy="540" r="76.2"/>
		<g>
			<g>
				<path class="st1" d="M1018.4,573.3l3.1-2.1c0.5-0.8,0.6-1.6,0.6-2.5l0-49.9c-0.1-3.5-2.3-7.2-5.2-9l-70.3-40.6
					c-1.2-0.6-2.4-1-3.7-0.4l-3.1,2.1c1.3-0.7,2.5-0.3,3.7,0.4l70.3,40.5c3,1.8,5.2,5.6,5.2,9l0,49.9
					C1019,571.8,1018.9,572.5,1018.4,573.3L1018.4,573.3z"/>
				<path class="st2" d="M1013.8,511.9l-70.3-40.5c-2.9-1.7-5.2-0.3-5.2,3l0,49.9c0,3.3,2.3,7.4,5.2,9l70.3,40.5
					c2.9,1.7,5.2,0.3,5.2-3l0-49.9C1019,517.6,1016.6,513.5,1013.8,511.9z"/>
				<path class="st3" d="M1013.5,515.6L994.9,505l-51.2-29.5c-1.3-0.8-2.4-0.2-2.4,1.4l0,48.6c0,1.5,1.1,3.4,2.4,4.1l57.7,33.3
					l11.9,6.9c1.3,0.8,2.4,0.2,2.4-1.4l0-48.6C1015.8,518.3,1014.8,516.4,1013.5,515.6L1013.5,515.6z"/>
				<path class="st2" d="M890,563.2v3.8c0.3,1.2,1.1,1.8,2.1,2.4l70.6,40.8c1.6,0.9,3.1,1.2,4.9,1.2c2,0,3.8-0.3,5.6-1.2l43.3-25.1
					c1-0.6,1.8-1.3,2.1-2.4v-3.8c-0.3,1.2-1.1,1.8-2.1,2.4l-43.3,25.1c-1.8,1-3.6,1.3-5.6,1.2c-1.8-0.1-3.3-0.4-4.9-1.2l-70.6-40.8
					C891.1,565,890.3,564.4,890,563.2L890,563.2z"/>
				<path class="st1" d="M1016.5,575.3l-70.6-40.8c-2.9-1.7-7.6-1.7-10.5,0l-43.3,25.1c-2.9,1.7-2.9,4.4,0,6.1l70.6,40.8
					c2.9,1.7,7.6,1.7,10.5,0l43.3-25.1C1019.4,579.7,1019.4,577,1016.5,575.3L1016.5,575.3z"/>
				<polygon class="st2" points="940.6,589.5 921.3,578.4 936.1,569.8 955.4,581 				"/>
				<path class="st2" d="M1007.6,576.7c-21.4-12.4-42.8-24.7-64.2-37.1c-1.5-0.9-4-0.9-5.6,0L916,552.3c-1.5,0.9-1.5,2.3,0,3.2
					c21.4,12.3,42.8,24.7,64.2,37.1c1.5,0.9,4,0.9,5.6,0l21.9-12.7C1009.2,579,1009.1,577.6,1007.6,576.7L1007.6,576.7z"/>
				<path class="st3" d="M979.5,573.1l-3.2-1.8c-0.6-0.4-1.7-0.4-2.3,0l-3.2,1.8c-0.6,0.4-0.6,1,0,1.3l3.2,1.8
					c0.6,0.4,1.7,0.4,2.3,0l3.2-1.8C980.1,574.1,980.1,573.5,979.5,573.1z"/>
				<path class="st3" d="M991.9,580.3l3.1,1.8c0.6,0.4,0.6,1,0,1.3l-3.2,1.8c-0.6,0.4-1.7,0.4-2.3,0l-3.1-1.8c-0.6-0.4-0.6-1,0-1.3
					l3.1-1.8C990.2,579.9,991.2,579.9,991.9,580.3z"/>
				<path class="st3" d="M984.1,584.8l3.1,1.8c0.6,0.4,0.6,1,0,1.3l-3.1,1.8c-0.6,0.4-1.7,0.4-2.3,0l-3.1-1.8c-0.6-0.4-0.6-1,0-1.3
					l3.1-1.8C982.4,584.4,983.5,584.4,984.1,584.8L984.1,584.8z"/>
				<path class="st3" d="M989.5,576.3l-3.1-1.8c-0.6-0.4-0.6-1,0-1.3l3.1-1.8c0.6-0.4,1.7-0.4,2.3,0l3.1,1.8c0.6,0.4,0.6,1,0,1.3
					l-3.1,1.8C991.2,576.7,990.2,576.7,989.5,576.3z"/>
				<path class="st3" d="M981.8,571.8l-3.2-1.8c-0.6-0.4-0.6-1,0-1.3l3.2-1.8c0.6-0.4,1.7-0.4,2.3,0l3.1,1.8c0.6,0.4,0.6,1,0,1.3
					l-3.1,1.8C983.5,572.2,982.4,572.2,981.8,571.8L981.8,571.8z"/>
				<path class="st3" d="M994.1,579l3.1,1.8c0.6,0.4,1.7,0.4,2.3,0l3.2-1.8c0.6-0.4,0.6-1,0-1.3l-3.2-1.8c-0.6-0.4-1.7-0.4-2.3,0
					l-3.1,1.8C993.5,578,993.5,578.6,994.1,579z"/>
				<path class="st3" d="M987.2,577.6l-3.1-1.8c-0.6-0.4-1.7-0.4-2.3,0l-3.2,1.8c-0.6,0.4-0.6,1,0,1.3l3.2,1.8
					c0.6,0.4,1.7,0.4,2.3,0l3.1-1.8C987.9,578.6,987.9,578,987.2,577.6z"/>
				<path class="st3" d="M963.9,564.2l-3.1-1.8c-0.6-0.4-1.7-0.4-2.3,0l-3.1,1.8c-0.6,0.4-0.6,1,0,1.3l3.1,1.8
					c0.6,0.4,1.7,0.4,2.3,0l3.1-1.8C964.6,565.1,964.6,564.5,963.9,564.2z"/>
				<path class="st3" d="M956.2,568.7l-3.2-1.8c-0.6-0.4-1.7-0.4-2.3,0l-3.2,1.8c-0.6,0.4-0.6,1,0,1.3l3.2,1.8
					c0.6,0.4,1.7,0.4,2.3,0l3.2-1.8C956.8,569.6,956.8,569,956.2,568.7z"/>
				<path class="st3" d="M974,567.3l-3.2-1.8c-0.6-0.4-0.6-1,0-1.3l3.2-1.8c0.6-0.4,1.7-0.4,2.3,0l3.2,1.8c0.6,0.4,0.6,1,0,1.3
					l-3.2,1.8C975.7,567.7,974.6,567.7,974,567.3z"/>
				<path class="st3" d="M966.2,562.8l-3.1-1.8c-0.6-0.4-0.6-1,0-1.3l3.1-1.8c0.6-0.4,1.7-0.4,2.3,0l3.1,1.8c0.6,0.4,0.6,1,0,1.3
					l-3.1,1.8C967.9,563.2,966.9,563.2,966.2,562.8z"/>
				<path class="st3" d="M971.7,568.7l-3.2-1.8c-0.6-0.4-1.7-0.4-2.3,0l-3.1,1.8c-0.6,0.4-0.6,1,0,1.3l3.1,1.8
					c0.6,0.4,1.7,0.4,2.3,0l3.2-1.8C972.3,569.6,972.3,569,971.7,568.7z"/>
				<path class="st3" d="M979.5,582.1l-18.7-10.8c-0.6-0.4-1.7-0.4-2.3,0l-3.1,1.8c-0.6,0.4-0.6,1,0,1.3l18.7,10.8
					c0.6,0.4,1.7,0.4,2.3,0l3.1-1.8C980.1,583.1,980.1,582.5,979.5,582.1L979.5,582.1z"/>
				<path class="st3" d="M938.1,549.2l-3.1-1.8c-0.6-0.4-1.7-0.4-2.3,0l-3.2,1.8c-0.6,0.4-0.6,1,0,1.3l3.1,1.8
					c0.6,0.4,1.7,0.4,2.3,0l3.2-1.8C938.7,550.2,938.7,549.6,938.1,549.2L938.1,549.2z"/>
				<path class="st3" d="M930.3,553.7l-3.2-1.8c-0.6-0.4-1.7-0.4-2.3,0l-3.2,1.8c-0.6,0.4-0.6,1,0,1.3l3.2,1.8
					c0.6,0.4,1.7,0.4,2.3,0l3.2-1.8C931,554.7,931,554.1,930.3,553.7L930.3,553.7z"/>
				<path class="st3" d="M940.4,547.9l-3.2-1.8c-0.6-0.4-0.6-1,0-1.3l3.2-1.8c0.6-0.4,1.7-0.4,2.3,0l3.1,1.8c0.6,0.4,0.6,1,0,1.3
					l-3.1,1.8C942.1,548.3,941,548.3,940.4,547.9L940.4,547.9z"/>
				<path class="st3" d="M945.9,553.7l-3.2-1.8c-0.6-0.4-1.7-0.4-2.3,0l-3.1,1.8c-0.6,0.4-0.6,1,0,1.3l3.1,1.8
					c0.6,0.4,1.7,0.4,2.3,0l3.2-1.8C946.5,554.7,946.5,554.1,945.9,553.7z"/>
				<path class="st3" d="M938.1,558.2l-3.1-1.8c-0.6-0.4-1.7-0.4-2.3,0l-3.1,1.8c-0.6,0.4-0.6,1,0,1.3l3.2,1.8
					c0.6,0.4,1.7,0.4,2.3,0l3.1-1.8C938.7,559.2,938.7,558.6,938.1,558.2L938.1,558.2z"/>
				<path class="st3" d="M955.9,556.9l-3.2-1.8c-0.6-0.4-0.6-1,0-1.3l3.2-1.8c0.6-0.4,1.7-0.4,2.3,0l3.2,1.8c0.6,0.4,0.6,1,0,1.3
					l-3.2,1.8C957.6,557.3,956.6,557.3,955.9,556.9z"/>
				<path class="st3" d="M948.2,552.4l-3.2-1.8c-0.6-0.4-0.6-1,0-1.3l3.1-1.8c0.6-0.4,1.7-0.4,2.3,0l3.2,1.8c0.6,0.4,0.6,1,0,1.3
					l-3.2,1.8C949.8,552.8,948.8,552.8,948.2,552.4z"/>
				<path class="st3" d="M953.6,558.2l-3.2-1.8c-0.6-0.4-1.7-0.4-2.3,0l-3.2,1.8c-0.6,0.4-0.6,1,0,1.3l3.1,1.8
					c0.6,0.4,1.7,0.4,2.3,0l3.2-1.8C954.3,559.2,954.3,558.6,953.6,558.2z"/>
				<path class="st3" d="M945.9,562.7l-3.2-1.8c-0.6-0.4-1.7-0.4-2.3,0l-3.1,1.8c-0.6,0.4-0.6,1,0,1.3l3.1,1.8
					c0.6,0.4,1.7,0.4,2.3,0l3.2-1.8C946.5,563.7,946.5,563.1,945.9,562.7L945.9,562.7z"/>
				<path class="st1" d="M967.5,611.5v-3.8h0.1c2,0,3.8-0.3,5.6-1.2l43.3-25.1c1-0.6,1.7-1.3,2.1-2.4v3.8c-0.3,1.2-1.1,1.8-2.1,2.4
					l-43.3,25.1C971.4,611.2,969.5,611.5,967.5,611.5C967.5,611.5,967.5,611.5,967.5,611.5z"/>
			</g>
			<g>
				<path class="st1" d="M910.3,557.5l2.2-1.2l0-1.9l-1.8-1.1c-0.8-0.5-1.3-1.3-1.3-2.3v-1c0-0.4,0.2-0.8,0.6-1l53-29.5
					c0.4-0.2,0.7-0.2,1.1,0l36.8,22c3.8,2.2,8.7,10.6,4,13.4l-53,29.6l-0.2,0.1c-1.9,0.8-3.9-0.8-5.5-1.8c-11.8-7-23.5-14-35.2-21
					c-0.8-0.5-1.3-1.3-1.3-2.3l0-1C909.7,558,910,557.7,910.3,557.5L910.3,557.5L910.3,557.5z"/>
				<path class="st1" d="M946.9,578.7c-11.8-7.1-23.7-14.1-35.5-21.2c-0.4-0.2-0.8-0.2-1.1,0l3.9-2.2l33.9,20.2c1.1,0.6,2,1.7,2,3.1
					c0,0.6-0.4,0.9-0.9,1.1C948.5,579.9,947.6,579.1,946.9,578.7L946.9,578.7z"/>
				<path class="st1" d="M939.8,566.1l6.4,3.8c2,1.2,3.3,1.7,4.8,3.5c1.7,2,2.9,4.8,2.8,7.3c-0.1,2.5-1.5,4.1-3.5,3.9
					c-0.2,0-0.4-0.1-0.6-0.1c-0.9-0.2-1.7-0.8-2.6-1.3l-0.5-0.3l-4.6-2.8l0,0l-31-18.5c-0.8-0.5-1.3-1.3-1.3-2.3l0-1
					c0-0.9,1-1.4,1.7-1c12,7.2,24,14.3,35.9,21.4c0.7,0.4,1.3,1,2.2,0.6c0.3-0.2,0.6-0.5,0.6-1c0-1.4-1-2.5-2-3.1l-37.4-22.3
					c-0.9-0.5-1.3-1.3-1.3-2.3v-1c0-0.4,0.2-0.8,0.6-1c0.4-0.2,0.8-0.2,1.1,0L939.8,566.1L939.8,566.1z"/>
				<path class="st3" d="M912.6,554.3l0,1.9l37.6,22.4l0-0.1c0-1.4-1-2.5-2-3.1L912.6,554.3L912.6,554.3z"/>
				<path class="st3" d="M910.5,544.8l2.2-1.2l0-1.9l-1.9-1.1c-0.8-0.5-1.3-1.3-1.3-2.3l0-1c0-0.4,0.2-0.8,0.6-1l53-29.6
					c0.4-0.2,0.7-0.2,1.1,0l36.8,21.9c3.9,2.3,8.7,10.6,4,13.5l-53,29.5l-0.2,0.1c-0.5,0.2-1,0.3-1.6,0.2c-1.2-0.1-2.2-0.9-3.2-1.4
					c-12-7.2-24-14.4-36.1-21.6c-0.8-0.5-1.3-1.3-1.2-2.2v-1C909.9,545.3,910.1,545,910.5,544.8L910.5,544.8L910.5,544.8z"/>
				<path class="st2" d="M947.6,566.3c-12-7.2-24-14.4-36-21.5c-0.3-0.2-0.7-0.2-1.1,0l3.9-2.2l33.9,20.2c1.1,0.6,2,1.7,2,3.1
					c0,0.7-0.4,1-0.9,1.1C948.7,567.1,948.2,566.6,947.6,566.3L947.6,566.3z"/>
				<path class="st3" d="M940,553.3l6.7,4c1.6,1,2.9,1.6,4.1,3c1.9,2.1,3.2,5.1,3.2,7.7c0,2.4-1.3,3.9-3,4c-1.4,0.1-2.4-0.7-3.5-1.4
					l-3.1-1.8c-11-6.6-22.1-13.2-33.2-19.8c-0.8-0.5-1.3-1.3-1.2-2.2v-1c0-0.4,0.2-0.8,0.6-1c0.3-0.2,0.8-0.2,1.1,0
					c11.9,7.1,23.7,14.1,35.5,21.2c0.8,0.5,1.8,1.3,2.6,0.9c0.3-0.2,0.6-0.5,0.6-1c0-1.4-1-2.4-2-3.1l-37.4-22.3
					c-0.8-0.5-1.3-1.3-1.3-2.3l0-1c0-0.4,0.2-0.8,0.6-1s0.8-0.2,1.1,0L940,553.3L940,553.3z"/>
				<path class="st3" d="M912.8,541.6l0,1.9l37.6,22.4l0-0.1c0-1.4-1-2.4-2-3.1L912.8,541.6L912.8,541.6z"/>
				<path class="st2" d="M910.8,532l2.2-1.2l0-1.9l-1.8-1.1c-0.8-0.5-1.3-1.3-1.3-2.3l0-1c0-0.4,0.2-0.8,0.6-1l53-29.5
					c0.4-0.2,0.7-0.2,1.1,0l36.8,21.9c3.9,2.3,8.7,10.6,4,13.5l-53,29.5l-0.2,0.1c-0.6,0.2-1.4,0.3-2.1,0.1c-1-0.3-1.9-1-2.8-1.5
					c-12-7.1-23.9-14.3-35.9-21.5c-0.8-0.5-1.3-1.3-1.3-2.2v-1C910.2,532.6,910.5,532.2,910.8,532L910.8,532L910.8,532z"/>
				<path class="st2" d="M947.9,553.6l-17.6-10.5l0,0l-18.5-11c-0.3-0.2-0.7-0.2-1.1,0l3.9-2.2l33.9,20.2c1.1,0.6,2,1.7,2,3.1
					c0,0.6-0.4,1-0.9,1.1C948.9,554.4,948.4,554,947.9,553.6L947.9,553.6z"/>
				<path class="st2" d="M940.1,540.6l7.3,4.3c1.4,0.8,2.3,1.3,3.5,2.5c1.9,2.1,3.3,5.1,3.3,7.8c0,2.5-1.4,4.1-3.3,4
					c-1.3,0-2.6-1-3.7-1.6l-4.8-2.8l0,0l-31-18.5c-0.8-0.5-1.3-1.3-1.3-2.3v-1c0-0.4,0.2-0.8,0.6-1c0.3-0.2,0.7-0.2,1.1,0
					c11.8,7.1,23.6,14.1,35.5,21.2c0.8,0.4,1.7,1.2,2.5,1c0.4-0.1,0.7-0.5,0.7-1.1c0-1.4-1-2.4-2-3.1l-37.4-22.3
					c-0.8-0.5-1.3-1.3-1.2-2.2v-1c0-0.4,0.2-0.8,0.6-1s0.8-0.2,1.1,0L940.1,540.6z"/>
				<path class="st3" d="M913,528.9v1.9l37.5,22.4v-0.1c0.1-1.3-1-2.5-2-3.1C948.5,550.1,913,528.9,913,528.9z"/>
				<path class="st2" d="M911.1,523.3l52.5-29.3c0.4-0.2,0.7-0.2,1.1,0l36.8,21.9l-53.1,29.6L911.1,523.3z"/>
				<path class="st4" d="M998.3,530.1c0.2,0.4,0.1,0.8-0.3,1l-38.4,21.4c-0.3,0.2-0.8,0.1-1-0.3c-0.2-0.3-0.1-0.8,0.3-1l38.4-21.4
					C997.7,529.6,998.1,529.8,998.3,530.1z"/>
				<path class="st4" d="M976.4,552.8c0.2,0.3,0.1,0.8-0.3,1l-16.6,9.3c-0.4,0.2-0.8,0-1-0.3c-0.2-0.4-0.1-0.8,0.3-1l16.6-9.3
					C975.8,552.3,976.2,552.4,976.4,552.8z"/>
				<path class="st4" d="M981.9,552.5c0.2,0.4,0.1,0.8-0.3,1l-22.1,12.3c-0.4,0.2-0.8,0.1-1-0.3c-0.2-0.3-0.1-0.8,0.3-1l22.1-12.3
					C981.2,552.1,981.7,552.2,981.9,552.5L981.9,552.5z"/>
				<path class="st4" d="M992.4,558.6c0.2,0.3,0.1,0.8-0.3,1L959.3,578c-0.4,0.2-0.8,0-1-0.3c-0.2-0.4-0.1-0.8,0.3-1l32.9-18.3
					C991.8,558.2,992.2,558.3,992.4,558.6L992.4,558.6z"/>
			</g>
		</g>
	</g>
</g>
</svg>
