<?xml version="1.0" encoding="utf-8"?>
<!-- Generator: Adobe Illustrator 27.0.0, SVG Export Plug-In . SVG Version: 6.00 Build 0)  -->
<svg version="1.1" id="Layer_2_00000095333619576929990550000003967754779061999754_"
	 xmlns="http://www.w3.org/2000/svg" xmlns:xlink="http://www.w3.org/1999/xlink" x="0px" y="0px" viewBox="0 0 1920 1080"
	 style="enable-background:new 0 0 1920 1080;" xml:space="preserve">
<style type="text/css">
	.st0{opacity:0.3;fill:#3378C6;enable-background:new    ;}
	
		.st1{fill-rule:evenodd;clip-rule:evenodd;fill:#FFFFFF;stroke:#0072C8;stroke-width:0.75;stroke-linecap:round;stroke-linejoin:round;}
	.st2{fill:none;}
	
		.st3{fill-rule:evenodd;clip-rule:evenodd;fill:#D9E8FF;stroke:#0072C8;stroke-width:0.75;stroke-linecap:round;stroke-linejoin:round;}
	
		.st4{fill-rule:evenodd;clip-rule:evenodd;fill:#9ACEEF;stroke:#0072C8;stroke-width:0.75;stroke-linecap:round;stroke-linejoin:round;}
</style>
<g id="Layer_1-2">
	<g>
		<circle class="st0" cx="960" cy="540" r="76.2"/>
		<g>
			<path class="st1" d="M1000.7,499.3c-5.3-5.3-11.6-9.6-18.7-12.5c-6.8-2.8-14.2-4.4-22-4.4s-15.2,1.5-22,4.4
				c-7,2.9-13.4,7.2-18.7,12.5c-5.3,5.3-9.6,11.6-12.5,18.7c-2.8,6.8-4.4,14.2-4.4,22s1.6,15.2,4.4,22c2.9,7,7.2,13.4,12.5,18.7
				c5.3,5.3,11.7,9.6,18.7,12.5c6.8,2.8,14.2,4.4,22,4.4s15.3-1.6,22-4.4c7.1-2.9,13.4-7.2,18.7-12.5c5.3-5.3,9.6-11.7,12.5-18.7
				c2.8-6.8,4.4-14.2,4.4-22s-1.5-15.3-4.4-22C1010.3,510.9,1006,504.6,1000.7,499.3z"/>
			<path class="st2" d="M960,483.4c-7.5,0-14.8,1.5-21.6,4.3c-6.9,2.8-13.1,7-18.4,12.3c-5.3,5.3-9.4,11.5-12.3,18.4
				c-2.9,6.9-4.3,14.2-4.3,21.7s1.4,14.8,4.3,21.7c2.8,6.9,7,13.1,12.3,18.4c5.3,5.3,11.5,9.4,18.4,12.3c13.7,5.7,29.6,5.7,43.3,0
				c6.9-2.8,13.1-7,18.3-12.3c5.3-5.3,9.5-11.5,12.3-18.4c2.8-6.9,4.3-14.1,4.3-21.7s-1.5-14.8-4.3-21.7c-2.9-6.9-7-13.1-12.3-18.4
				l0,0c-5.3-5.3-11.5-9.5-18.4-12.3C974.8,484.8,967.5,483.3,960,483.4L960,483.4L960,483.4z M960,598.6c-7.8,0-15.3-1.5-22.4-4.4
				c-7.1-2.9-13.5-7.2-19-12.7c-5.5-5.5-9.8-11.9-12.7-19c-3-7.1-4.4-14.6-4.4-22.4s1.5-15.3,4.4-22.4c2.9-7.1,7.2-13.5,12.7-19
				c5.5-5.5,11.9-9.8,19-12.7c14.2-5.9,30.6-5.9,44.8,0c7.1,3,13.5,7.2,19,12.7c5.5,5.5,9.8,11.9,12.7,19c2.9,7.1,4.4,14.7,4.4,22.4
				s-1.5,15.3-4.4,22.4c-3,7.1-7.2,13.5-12.7,19c-5.5,5.5-11.9,9.8-19,12.7C975.3,597.1,967.8,598.6,960,598.6L960,598.6z"/>
			<path class="st3" d="M997.2,502.8c-4.9-4.9-10.6-8.8-17.1-11.4c-6.2-2.5-13-4-20.1-4s-13.9,1.4-20.1,4
				c-6.4,2.7-12.2,6.6-17.1,11.4c-4.8,4.9-8.8,10.7-11.4,17.1c-2.6,6.2-4,13-4,20.1s1.4,13.9,4,20.1c2.7,6.4,6.6,12.2,11.4,17.1
				c4.9,4.9,10.7,8.8,17.1,11.4c6.2,2.6,13,4,20.1,4s13.9-1.4,20.1-4c6.4-2.7,12.2-6.6,17.1-11.4c4.9-4.8,8.8-10.6,11.4-17
				c2.6-6.2,4-13,4-20.1s-1.4-13.9-4-20.1C1005.9,513.5,1002,507.7,997.2,502.8z"/>
			<path class="st2" d="M960,488.4c-6.8,0-13.5,1.3-19.7,3.9c-6.3,2.6-11.9,6.4-16.7,11.2c-4.9,4.8-8.6,10.5-11.2,16.8
				c-2.6,6.2-3.9,12.9-3.9,19.7s1.3,13.5,3.9,19.7c2.6,6.3,6.3,11.9,11.2,16.7c4.8,4.9,10.5,8.6,16.7,11.2c12.5,5.2,27,5.2,39.5,0
				c6.2-2.6,11.9-6.4,16.7-11.2c4.8-4.8,8.6-10.5,11.2-16.7c2.6-6.2,3.9-12.9,3.9-19.7s-1.3-13.5-3.9-19.7
				c-2.6-6.3-6.4-11.9-11.2-16.8c-4.8-4.8-10.5-8.6-16.7-11.2C973.5,489.7,966.8,488.4,960,488.4C960,488.4,960,488.4,960,488.4z
				 M960,593.5c-7.1,0-14-1.4-20.5-4.1c-6.5-2.7-12.4-6.6-17.4-11.6c-5-5-8.9-10.9-11.6-17.4c-2.7-6.5-4.1-13.4-4.1-20.5
				c0-7.1,1.4-14,4.1-20.5s6.6-12.3,11.6-17.4c5-5,10.9-8.9,17.4-11.6c13-5.4,28-5.3,41,0c6.5,2.7,12.4,6.6,17.4,11.6l0,0
				c5,5,8.9,10.9,11.6,17.4c2.7,6.5,4,13.4,4,20.5s-1.4,14-4,20.5c-2.7,6.5-6.6,12.4-11.6,17.4c-5,5-10.9,9-17.4,11.6
				C974,592.2,967.1,593.5,960,593.5L960,593.5z"/>
			<path class="st4" d="M1000,505.8c1.9,2.2,6.8,9.4,8.8,14.6c2.6,6.5,3.9,13.3,3.8,20.2c-0.1,6.9-1.5,13.7-4.2,20.1
				c-2.6,6.2-6.5,11.9-11.6,16.9c-5.1,5-10.9,8.8-17.2,11.2c-2.6,1,4.8-7.7,0.2-12.5c-4.5-4.8-23.9,0.8-23.3-9.1
				c0.5-9.8,4.8-9.8,7.1-15c2.3-5.1,5-1,14.6-4.3c9.6-3.3,22.5-2.8,26.7-7.2c4.2-4.4-16,0.8-19.7-0.1c-3.7-0.9-4.5-5.4-7.1-5.2
				c-2.7,0.2-1.2,5-4.1,5.9c-3,0.9-11,2.3-11.5-1.1c-1.9-13.1,8.2-8.9,8.8-9.6c2.7-3.1-3.2-5.5,0.4-9.9c3.6-4.3,7.2-5.1,9.1-8.1
				c1.9-3.1-4.5-5.4-1.5-7.7C982.1,502.5,998,503.5,1000,505.8L1000,505.8z"/>
			<path class="st2" d="M968.4,550.4c-2.2,0-2.9,0.2-3.9,2.2c-0.9,2-2,3.2-3,4.4c-1.9,2.1-3.7,4.2-4,10.3c-0.2,4.6,4.6,5.2,12,5.6
				c4.6,0.3,9,0.5,11.1,2.7c3.3,3.5,1.2,8.7,0.1,11.4c-0.1,0.1-0.1,0.2-0.1,0.3c5.8-2.5,11.1-6,15.6-10.5
				c4.9-4.8,8.7-10.4,11.4-16.6c2.7-6.2,4.1-12.9,4.1-19.7c0.1-6.9-1.1-13.5-3.7-19.8c-2-5.1-6.8-12.1-8.7-14.3l0,0
				c-1.6-1.8-16.7-2.9-19.4-0.8c-0.6,0.5-0.6,0.8,0.6,2.4c1,1.3,2.4,3.1,1.1,5.1c-1,1.6-2.5,2.7-4.1,3.8c-1.5,1.1-3.3,2.3-5,4.4
				c-1.6,1.9-1,3.2-0.3,4.7c0.7,1.5,1.5,3.2-0.2,5.1c-0.4,0.5-1.1,0.5-2.1,0.4c-1.5-0.2-3.9-0.4-5.3,1.1c-1.3,1.3-1.6,3.8-1.1,7.4
				c0,0.2,0.1,0.5,0.5,0.7c1.7,1.1,6.8,0.4,9.7-0.4c0.9-0.3,1.2-1.2,1.5-2.6c0.3-1.4,0.8-3.2,2.8-3.3c1.9-0.1,2.9,1.2,3.9,2.5
				c0.9,1.2,1.9,2.4,3.5,2.7c1.2,0.3,5.3-0.3,8.9-0.8c7.9-1.1,11.2-1.4,12,0.1c0.4,0.7,0.1,1.5-0.7,2.3c-2.7,2.8-8.3,3.7-14.7,4.8
				c-4.2,0.7-8.6,1.4-12.4,2.7c-4.4,1.5-7.5,1.5-9.7,1.5L968.4,550.4L968.4,550.4z M979.2,589.8c-0.4,0-0.7-0.2-0.8-0.3
				c-0.7-0.7-0.3-1.6,0.4-3.2c1-2.5,2.8-6.8,0.3-9.3c-1.6-1.7-5.8-1.9-9.8-2.1c-6.6-0.4-14.2-0.8-13.8-7.7c0.4-6.8,2.5-9.1,4.5-11.4
				c1-1.1,2-2.2,2.7-3.8c1.5-3.4,3.5-3.5,6.2-3.4c2.1,0,4.9,0,9.1-1.4c4-1.4,8.4-2.1,12.7-2.8c5.8-0.9,11.3-1.8,13.6-4.2
				c0,0,0-0.1,0.1-0.1c-1.6-0.3-6.4,0.4-9.7,0.9c-4.3,0.6-8,1.2-9.6,0.7c-2.2-0.5-3.5-2.1-4.5-3.4c-0.9-1.1-1.6-1.9-2.3-1.8
				c-0.5,0-0.7,0.4-1,1.9c-0.4,1.4-0.8,3.3-2.8,4c-2.2,0.7-8.5,2-11.3,0.2c-0.8-0.5-1.3-1.2-1.4-2.1c-0.6-4.3-0.1-7.2,1.6-9
				c2.1-2.2,5.2-1.9,6.9-1.7c0.2,0,0.5,0,0.6,0c0.6-0.8,0.3-1.5-0.3-2.8c-0.8-1.7-1.8-4,0.5-6.8c1.9-2.3,3.8-3.7,5.4-4.8
				c1.5-1.1,2.7-1.9,3.5-3.3c0.5-0.8,0.1-1.5-1-2.9c-1-1.2-2.5-3.3-0.3-5.1c3.2-2.6,19.7-1.8,22.1,1l0,0c2,2.3,6.9,9.6,9,14.8
				c2.6,6.6,3.9,13.5,3.8,20.6c-0.1,7.1-1.5,14-4.3,20.5c-2.7,6.4-6.7,12.3-11.8,17.2c-5.1,5-11,8.8-17.5,11.4
				C979.7,589.8,979.5,589.8,979.2,589.8L979.2,589.8z"/>
			<path class="st4" d="M956.5,487.5c-12.3,0.8-24.3,5.9-33.7,15.3c-5,5-8.9,10.9-11.4,17c-5.3,12.9-5.3,27.4,0,40.3
				c2.1,5.1,5.1,10,9,14.5c0.3,0.3,0.6,0.5,1.1,0.5c0.4,0,0.8-0.1,1.1-0.4c3.5-4.1,13.6-6.8,14.3-12.2c0.5-3.9-6-5.5-7.7-9.1
				c-1.9-4.1-0.4-9.5-2.9-13.2c-2.6-3.9-9.8-3.3-12.5-7.2c-1.5-2.1-0.4-5.2,0.4-7.7c0.3-1.1,1.6-1.7,2.7-2c7.2-1.8,12-1,21.5-5
				c4.6-2,2.1-4.6,4.1-5.4c2-0.8,5.2,5.2,8.3,2.5c3.1-2.7,5.5-15.6,6.6-18.6c1.1-3,5.2-0.1,6.3,0.5c1.1,0.6-1.9,6.5-0.5,7.5
				c1.4,1.1,7.2-2.6,7.9-3.3c4.4-4.3,3.3-8.3,0.8-10.3c-2.4-1.9-9.9,0.7-14.2-3.4C957.3,487.6,956.9,487.5,956.5,487.5L956.5,487.5z
				"/>
			<path class="st2" d="M956.5,487.5L956.5,487.5z M963.1,498.2L963.1,498.2z M956.6,488.5L956.6,488.5c-12.5,0.8-24.2,6.1-33.1,15
				c-4.8,4.9-8.6,10.5-11.2,16.7c-5.2,12.6-5.2,27,0,39.6c2.1,5.2,5.1,9.9,8.8,14.2c0.1,0.1,0.2,0.2,0.4,0.2c0.3,0,0.3-0.1,0.4-0.1
				c1.5-1.7,3.9-3.1,6.4-4.6c3.6-2.1,7.3-4.3,7.7-7c0.2-1.6-1.2-2.7-3.5-4.4c-1.6-1.2-3.3-2.5-4.2-4.2c-1-2-1.1-4.3-1.3-6.5
				c-0.2-2.4-0.3-4.8-1.6-6.5c-1.1-1.7-3.4-2.5-5.8-3.2c-2.5-0.8-5.2-1.7-6.7-3.9c-1.7-2.4-0.6-5.8,0.2-8.3l0.1-0.2
				c0.5-1.7,2.5-2.4,3.4-2.6c2.6-0.7,4.9-1,7.2-1.3c4-0.5,8.2-1.1,14.2-3.7c2.2-1,2.4-2,2.5-3c0.1-0.8,0.2-1.9,1.6-2.5
				c1.3-0.5,2.7,0.5,3.9,1.5c2,1.6,3,2.1,4.1,1.2c2-1.7,4-9.4,5.1-13.9c0.5-1.9,0.9-3.5,1.2-4.3c0.4-1.1,1.2-1.6,1.8-1.8
				c1.9-0.7,4.3,0.8,5.6,1.6l0.4,0.2c1.1,0.7,0.7,2.3,0.2,4.3c-0.3,1-0.8,2.9-0.5,3.3c0.9,0.3,5.8-2.5,6.6-3.3
				c1.8-1.8,2.8-3.7,2.7-5.5c-0.1-1.3-0.7-2.5-1.8-3.4c-0.7-0.6-2.5-0.6-4.4-0.7c-3.2-0.1-7.1-0.1-9.9-2.8
				C956.8,488.5,956.7,488.5,956.6,488.5L956.6,488.5L956.6,488.5z M921.5,576.1L921.5,576.1c-0.8,0-1.4-0.3-1.9-0.8
				c-3.8-4.4-6.9-9.4-9.1-14.7c-5.4-13.1-5.4-28,0-41c2.7-6.5,6.6-12.3,11.6-17.4c9.2-9.2,21.3-14.7,34.3-15.6
				c0.7-0.1,1.4,0.2,1.9,0.7c2.3,2.1,5.7,2.2,8.6,2.2c2.3,0,4.3,0.1,5.6,1.1c1.5,1.2,2.4,2.9,2.5,4.7c0.1,1.6-0.4,4.1-3.2,6.9
				c-0.4,0.4-7,5.2-9.2,3.4c-1.2-1-0.7-3-0.1-5.3c0.2-0.7,0.5-1.8,0.5-2.3l-0.2-0.1c-0.8-0.5-2.9-1.8-3.9-1.5
				c-0.2,0-0.4,0.2-0.6,0.6c-0.3,0.8-0.7,2.3-1.1,4.1c-1.7,6.7-3.5,12.9-5.8,14.9c-2.5,2.1-4.9,0.1-6.6-1.2c-0.5-0.4-1.6-1.3-2-1.2
				c-0.2,0.1-0.3,0.1-0.4,0.9c-0.2,1.2-0.4,3.1-3.7,4.5c-6.2,2.7-10.5,3.3-14.7,3.9c-2.3,0.3-4.4,0.6-6.9,1.3c-1,0.2-1.9,0.8-2,1.3
				l-0.1,0.2c-0.7,2.2-1.6,4.9-0.5,6.6c1.2,1.6,3.4,2.4,5.8,3.2c2.6,0.9,5.3,1.8,6.8,4c1.5,2.2,1.7,4.9,1.9,7.5
				c0.1,2.1,0.3,4.1,1.1,5.8c0.6,1.3,2.1,2.4,3.6,3.4c2.2,1.6,4.6,3.4,4.3,6.2c-0.5,3.7-4.6,6.2-8.6,8.5c-2.4,1.4-4.7,2.7-5.9,4.2
				C922.9,575.8,922.3,576.1,921.5,576.1L921.5,576.1z"/>
		</g>
		<g>
			<path class="st1" d="M919.4,529.4l-11.9-5.5l13.4-7.7l2.6,1.5c1.3,0.7,1.8,1.7,1.5,2.7l-3.4,9.9L919.4,529.4L919.4,529.4z"/>
			<path class="st2" d="M919.9,528.3l0.9,0.4l2.9-8.6c0.1-0.2,0.2-0.6-0.9-1.3l-2-1.1l-10.7,6.1L919.9,528.3L919.9,528.3z
				 M921.5,531.6c-0.2,0-0.3,0-0.5-0.1l-2.2-1l0,0L907,525c-0.4-0.2-0.7-0.6-0.7-1.1c0-0.5,0.2-0.9,0.6-1.1l13.3-7.7
				c0.4-0.2,0.8-0.2,1.2,0l2.6,1.5c1.8,1,2.6,2.6,2,4.2l-3.4,9.9c-0.1,0.3-0.4,0.6-0.7,0.7C921.8,531.6,921.7,531.6,921.5,531.6
				L921.5,531.6z"/>
			<path class="st1" d="M983.7,548.4l-10.3-6c-2.6-0.9-5.8,4.8-3.8,6.5l10.3,6c-1.2-1-0.5-3.1,0.2-4.2c0.5-0.8,1-1.4,1.8-1.9
				C982.5,548.4,983.1,548.2,983.7,548.4L983.7,548.4z"/>
			<path class="st2" d="M972.7,543.5c-0.2,0-1.2,0.6-1.9,1.8c-0.7,1.2-0.8,2.4-0.4,2.7l7.7,4.5c0.2-0.8,0.5-1.7,0.9-2.4
				c0.5-0.8,1-1.5,1.7-2L972.7,543.5L972.7,543.5L972.7,543.5z M980,556.1c-0.2,0-0.4,0-0.6-0.2l-10.3-6c-1.6-1.3-1.6-3.6-0.3-5.9
				c1.3-2.3,3.3-3.4,5-2.9l10.6,6.1c0.6,0.3,0.8,1,0.5,1.6c-0.3,0.6-1,0.8-1.5,0.7c-0.1,0-0.2-0.1-0.8,0.2c-0.5,0.4-0.9,0.8-1.3,1.5
				c-0.6,1.1-0.8,2.4-0.4,2.7c0.5,0.4,0.6,1.2,0.2,1.7C980.7,555.9,980.4,556.1,980,556.1L980,556.1z"/>
			<path class="st4" d="M981.8,554.7c1.5-0.9,2.7-3,2.7-4.8s-1.2-2.4-2.7-1.6c-1.5,0.9-2.8,3-2.8,4.8S980.3,555.6,981.8,554.7
				L981.8,554.7z"/>
			<path class="st2" d="M983,549.2c-0.1,0-0.3,0.1-0.6,0.2c-1.1,0.7-2.1,2.4-2.1,3.7c0,0.5,0.1,0.7,0.2,0.7c0,0,0.3,0,0.7-0.2
				c1.1-0.7,2.2-2.4,2.2-3.7C983.3,549.5,983.2,549.3,983,549.2C983.1,549.3,983.1,549.2,983,549.2L983,549.2L983,549.2z
				 M980.5,556.4c-0.5,0-0.9-0.1-1.3-0.3c-0.9-0.5-1.4-1.6-1.4-2.8c0-2.2,1.5-4.8,3.4-5.9c1.1-0.6,2.3-0.7,3.2-0.2
				c0.9,0.5,1.4,1.6,1.4,2.9c0,2.2-1.5,4.8-3.4,5.9l0,0C981.8,556.2,981.2,556.4,980.5,556.4L980.5,556.4z"/>
			<path class="st1" d="M972.4,557.6c6.2-9.9,12.4-19.8,18.6-29.7c0.4-0.7,0.5-1.4,0.2-2c-0.2-0.7-0.9-1.3-1.7-1.8l-6.6-3.8
				l-30,25.9L972.4,557.6L972.4,557.6z"/>
			<path class="st2" d="M955.1,546.2l16.9,9.8l18-28.6c0.2-0.4,0.2-0.7,0.1-0.9c-0.2-0.3-0.6-0.8-1.2-1.1l-5.8-3.4L955.1,546.2
				L955.1,546.2L955.1,546.2z M972.4,558.8c-0.2,0-0.4,0-0.6-0.2l-19.4-11.2c-0.3-0.2-0.6-0.6-0.6-0.9c0-0.4,0.1-0.8,0.4-1.1l30-26
				c0.4-0.4,1-0.4,1.4-0.1l6.6,3.8c1.1,0.6,1.9,1.5,2.2,2.4c0.4,1,0.2,2.1-0.3,3.1l-18.6,29.7C973.2,558.6,972.8,558.8,972.4,558.8
				L972.4,558.8z"/>
			<path class="st1" d="M990.2,586.8c-3-0.8-6.2-1.6-9.1-2.7c-1.2-0.5-2.1-1-3.2-1.6l-20.4-11.8l-21.6-12.5l-2.3-1.7
				c-5.5-4-10.9-7.9-16.3-11.8l-17-15.5c-3.2-1-1.5-8.8,4-6.9l34.9,16.1l23,12.1l8.7,5l5.6,3.3l12.5,7.4c3,1.8,4.4,4.3,5.5,5.5
				c5.6,6.2,5.2,7,5.2,12c-0.4,2.7-4.8,3.5-6.8,3.5C991.7,587.2,991.3,587,990.2,586.8L990.2,586.8z"/>
			<path class="st2" d="M990.5,585.6l0.2,0c0.9,0.2,1.4,0.3,2.3,0.5c1.8,0,5.3-0.8,5.5-2.4v-0.8c0-3.9,0-4.8-4.9-10.2
				c-0.3-0.3-0.6-0.7-0.9-1.2c-1-1.3-2.2-2.9-4.3-4.1l-26.8-15.8l-23-12.1l-34.9-16c-1-0.4-2-0.2-2.7,0.4c-1,0.8-1.2,2.3-1,3.2
				c0.1,0.4,0.2,0.8,0.6,1c0.2,0,0.4,0.1,0.5,0.2l17,15.5l18.5,13.4l41.9,24.2c1,0.6,1.9,1,3,1.5c2.7,1,5.7,1.8,8.6,2.6L990.5,585.6
				L990.5,585.6L990.5,585.6z M993.1,588.6h-0.3c-1.2-0.1-1.7-0.3-2.7-0.5l-0.2-0.1l-0.4-0.1c-2.9-0.8-6-1.6-8.8-2.7
				c-1.2-0.5-2.2-1-3.3-1.6l-42-24.3l-18.7-13.5l-16.9-15.5c-1-0.4-1.8-1.4-2.1-2.7c-0.4-2,0.3-4.3,1.8-5.6c1.4-1.2,3.3-1.5,5.3-0.8
				l35,16.1l23,12.1l14.4,8.4l12.5,7.4c2.5,1.5,3.9,3.4,5,4.8c0.3,0.4,0.6,0.7,0.8,1c5.3,5.9,5.5,7.3,5.5,11.9l0,1
				C1000.5,587.5,995.6,588.6,993.1,588.6L993.1,588.6z"/>
			<path class="st4" d="M990.2,576.2c-4,2.3-7,0.2-10.7-1.7l1.6,0.1c5,0.4,11.5-3.6,10.3-6.3C993.5,571.4,994.9,573.5,990.2,576.2z"
				/>
			<path class="st2" d="M984.5,575.6c1.7,0.6,3.2,0.6,5-0.4c1.5-0.9,2.3-1.7,2.5-2.4c0.1-0.4,0-0.8-0.3-1.4
				C990.3,573.3,987.4,574.9,984.5,575.6L984.5,575.6L984.5,575.6z M990.2,576.2L990.2,576.2z M986.7,578.4c-2.4,0-4.6-1.1-6.7-2.2
				l-1.1-0.5c-0.5-0.3-0.8-0.9-0.6-1.5c0.1-0.6,0.6-0.9,1.3-0.9l1.6,0.1c3.2,0.3,7.4-1.8,8.7-3.6c0.2-0.2,0.4-0.7,0.3-0.9
				c-0.2-0.6,0-1.3,0.5-1.6c0.6-0.3,1.3-0.1,1.6,0.4c1.3,1.9,2.6,3.7,2.2,5.7c-0.3,1.5-1.5,2.7-3.7,4l0,0
				C989.4,578.1,988,578.4,986.7,578.4L986.7,578.4z"/>
			<path class="st1" d="M942.9,572.1l-10.4-6c-2.5-0.9-5.8,4.8-3.8,6.5l10.3,6c-0.8-0.7-0.7-2.2-0.4-3.1c0.3-0.7,0.7-1.4,1.2-2
				C940.5,572.7,941.7,571.8,942.9,572.1L942.9,572.1z"/>
			<path class="st2" d="M931.9,567.2c-0.3,0-1.2,0.7-1.9,1.8c-0.7,1.2-0.8,2.4-0.4,2.7l7.7,4.4c0.1-0.3,0.2-0.7,0.3-1
				c0.3-0.9,0.8-1.7,1.4-2.5c0.3-0.3,0.6-0.6,0.9-0.9L931.9,567.2L931.9,567.2L931.9,567.2z M939.1,579.9c-0.2,0-0.4-0.1-0.6-0.2
				l-10.4-6c-1.6-1.3-1.6-3.6-0.3-5.9c1.3-2.3,3.3-3.5,5-2.9l10.6,6.1c0.6,0.3,0.8,1,0.5,1.6c-0.3,0.6-0.9,0.9-1.5,0.7
				c-0.3-0.1-1.1,0.3-1.6,1c-0.4,0.5-0.7,1.1-0.9,1.6c-0.2,0.8-0.3,1.5,0,1.8c0.5,0.4,0.6,1.1,0.2,1.7
				C939.8,579.7,939.5,579.9,939.1,579.9L939.1,579.9z"/>
			<path class="st1" d="M957.6,566.2c-17.1,3.6-34.2,7.2-51.4,10.7c-2.3,0.5-4.7,0.2-6.5-0.9l-6.6-3.8l44.9-17.3L957.6,566.2
				L957.6,566.2z"/>
			<path class="st2" d="M896,572.5l4.3,2.5c1.5,0.9,3.6,1.1,5.6,0.7l48.2-10.1l-16.1-9.3L896,572.5L896,572.5z M904,578.4
				c-1.8,0-3.5-0.4-5-1.2l-6.6-3.8c-0.4-0.2-0.7-0.7-0.6-1.2c0-0.5,0.3-0.9,0.8-1.1l45-17.3c0.4-0.1,0.7-0.1,1,0.1l19.4,11.2
				c0.5,0.3,0.7,0.8,0.6,1.3c-0.1,0.5-0.5,0.9-1,1l-51.3,10.7C905.6,578.2,904.8,578.3,904,578.4L904,578.4z"/>
			<path class="st1" d="M912.9,534.4l-16.2,2.4c-1.8,0.2-3.5-0.1-4.8-0.8l-2.6-1.5l13.3-7.7L912.9,534.4L912.9,534.4z"/>
			<path class="st2" d="M891.8,534.5l0.8,0.4c1.1,0.6,2.5,0.8,4,0.7l13.2-2l-7.2-5.4L891.8,534.5
				C891.8,534.5,891.8,534.5,891.8,534.5z M895.6,538.1c-1.6,0-3.1-0.3-4.3-1l-2.6-1.5c-0.4-0.2-0.6-0.6-0.6-1.1
				c0-0.4,0.2-0.9,0.6-1.1l13.3-7.7c0.5-0.3,1-0.2,1.4,0.1l10.2,7.7c0.4,0.3,0.6,0.8,0.5,1.3c-0.1,0.5-0.5,0.9-1,0.9l-16.2,2.4
				C896.4,538.1,896,538.1,895.6,538.1L895.6,538.1z"/>
			<polygon class="st1" points="900.7,522.6 897,503.1 902.7,506.4 916,530.4 			"/>
			<path class="st2" d="M901.8,521.8l11.2,5.7l-11.2-20.2l-3-1.8L901.8,521.8L901.8,521.8L901.8,521.8z M916,531.6
				c-0.2,0-0.4,0-0.6-0.1l-15.3-7.8c-0.4-0.2-0.6-0.5-0.7-0.9l-3.7-19.5c-0.1-0.5,0.1-0.9,0.5-1.2c0.4-0.3,0.9-0.3,1.3-0.1l5.7,3.3
				c0.2,0.1,0.4,0.3,0.5,0.5l13.3,24c0.3,0.5,0.2,1-0.2,1.5C916.7,531.5,916.4,531.6,916,531.6L916,531.6z"/>
			<path class="st4" d="M941.3,578.8c1.5-0.9,2.7-3,2.7-4.8c0-1.8-1.2-2.5-2.7-1.6c-1.6,0.9-2.8,3-2.8,4.8S939.8,579.7,941.3,578.8
				L941.3,578.8z"/>
			<path class="st2" d="M942.6,573.3c-0.1,0-0.3,0.1-0.6,0.2c-1.2,0.7-2.1,2.4-2.1,3.7c0,0.5,0.1,0.7,0.2,0.7c0.1,0,0.3,0,0.7-0.2
				l0,0c1.2-0.7,2.1-2.4,2.1-3.7c0-0.5-0.1-0.7-0.2-0.7C942.6,573.3,942.6,573.3,942.6,573.3C942.6,573.3,942.6,573.3,942.6,573.3z
				 M940.1,580.4c-0.5,0-0.9-0.1-1.4-0.3c-0.9-0.5-1.4-1.6-1.4-2.8c0-2.2,1.5-4.8,3.4-5.9c1.1-0.6,2.3-0.7,3.2-0.2
				c0.9,0.5,1.4,1.5,1.4,2.8c0,2.2-1.5,4.8-3.4,5.9l0,0C941.3,580.3,940.7,580.4,940.1,580.4L940.1,580.4z"/>
			<path class="st4" d="M970.6,570.6c-0.7,0-1.2-0.6-1.2-1.3v-1.2c0-0.7,0.6-1.2,1.2-1.2c0.7,0,1.3,0.5,1.3,1.2v1.2
				C971.9,570,971.3,570.6,970.6,570.6z"/>
			<path class="st4" d="M965.5,567.7c-0.7,0-1.2-0.6-1.2-1.3v-1.2c0-0.7,0.6-1.3,1.2-1.3c0.7,0,1.3,0.6,1.3,1.3v1.2
				C966.8,567.1,966.2,567.7,965.5,567.7z"/>
			<path class="st4" d="M960.4,564.7c-0.7,0-1.3-0.5-1.3-1.2v-1.2c0-0.7,0.6-1.3,1.3-1.3c0.7,0,1.2,0.6,1.2,1.3v1.2
				C961.6,564.1,961.1,564.7,960.4,564.7z"/>
			<path class="st4" d="M955.3,561.7c-0.7,0-1.2-0.5-1.2-1.2v-1.2c0-0.7,0.6-1.3,1.2-1.3c0.7,0,1.3,0.6,1.3,1.3v1.2
				C956.5,561.2,956,561.7,955.3,561.7z"/>
			<path class="st4" d="M950.2,558.8c-0.7,0-1.3-0.5-1.3-1.2v-1.2c0-0.7,0.6-1.3,1.3-1.3c0.7,0,1.2,0.6,1.2,1.3v1.2
				C951.4,558.3,950.9,558.8,950.2,558.8z"/>
			<path class="st4" d="M945.1,555.8c-0.7,0-1.2-0.6-1.2-1.2v-1.2c0-0.7,0.6-1.3,1.2-1.3c0.7,0,1.3,0.6,1.3,1.3v1.2
				C946.3,555.3,945.8,555.8,945.1,555.8z"/>
			<path class="st4" d="M940,552.9c-0.7,0-1.2-0.6-1.2-1.2v-1.2c0-0.7,0.6-1.3,1.2-1.3c0.7,0,1.3,0.6,1.3,1.3v1.2
				C941.2,552.3,940.7,552.9,940,552.9z"/>
			<path class="st4" d="M934.9,549.9c-0.7,0-1.3-0.6-1.3-1.2v-1.2c0-0.7,0.6-1.3,1.3-1.3s1.2,0.6,1.2,1.3v1.2
				C936.1,549.4,935.5,549.9,934.9,549.9z"/>
		</g>
	</g>
</g>
</svg>
