<?xml version="1.0" encoding="utf-8"?>
<!-- Generator: Adobe Illustrator 27.0.0, SVG Export Plug-In . SVG Version: 6.00 Build 0)  -->
<svg version="1.1" id="Layer_2_00000062873921717199479840000000476383051805508228_"
	 xmlns="http://www.w3.org/2000/svg" xmlns:xlink="http://www.w3.org/1999/xlink" x="0px" y="0px" viewBox="0 0 1920 1080"
	 style="enable-background:new 0 0 1920 1080;" xml:space="preserve">
<style type="text/css">
	.st0{opacity:0.3;fill:#3378C6;enable-background:new    ;}
	
		.st1{fill-rule:evenodd;clip-rule:evenodd;fill:#D9E8FF;stroke:#0072C8;stroke-width:0.75;stroke-linecap:round;stroke-linejoin:round;}
	
		.st2{fill-rule:evenodd;clip-rule:evenodd;fill:#9ACEEF;stroke:#0072C8;stroke-width:0.75;stroke-linecap:round;stroke-linejoin:round;}
	
		.st3{fill-rule:evenodd;clip-rule:evenodd;fill:#FFFFFF;stroke:#0072C8;stroke-width:0.75;stroke-linecap:round;stroke-linejoin:round;}
</style>
<g id="Layer_1-2">
	<g>
		<circle class="st0" cx="960" cy="540" r="76.2"/>
		<g>
			<g>
				<path class="st1" d="M935.8,467.6l0,3.9l-2.5,1.4l-2.8-1.7c-1.2-0.7-2.7-0.7-3.9,0l-1.3,0.7c-0.5,0.3-0.9,0.8-0.9,1.4l-1,100.8
					c0,0.7,0.3,1.1,0.8,1.5l52.2,30.8c2.4,1.4,4.5,2.9,7.1,3.8c4.2,1.2,8.1,1.2,12.2-0.3c2.6-1.1,5-2.7,5.1-5.8l1-100.8l-0.1-0.3
					c-0.1-0.7-0.3-1.4-0.7-2c-1.3-1.9-5.3-3.9-7-4.9c-17.4-10.2-34.7-20.5-52.1-30.7c-1.2-0.7-2.7-0.8-3.9,0l-1.3,0.7
					C936.1,466.4,935.8,466.9,935.8,467.6L935.8,467.6L935.8,467.6z"/>
				<polygon class="st2" points="938.2,482.8 931.7,479 930.8,582.7 937.3,586.6 				"/>
				<path class="st2" d="M985.4,491.2l-1.1,119.3c3.3,1,7.3,0.8,10.6-0.2c2.9-1,5.9-2.7,6-6.2l1-100.8l-0.1-0.3
					c-0.3-3.2-4-4.7-6.4-6.1C992,495,988.7,493.1,985.4,491.2L985.4,491.2z"/>
				<path class="st1" d="M992.5,502l-27.8-16.4l0,0L936.6,469c-0.1,0-0.1-0.1-0.2-0.1c-0.1,0-0.1-0.1-0.2-0.1
					c-0.1-0.1-0.1-0.1-0.1-0.2l0,0c0-0.1-0.1-0.1-0.1-0.2l0,0c0-0.1-0.1-0.1-0.1-0.2l0,0c0-0.1,0-0.1-0.1-0.2c0-0.1,0-0.1,0-0.2
					c0-0.1,0-0.1,0-0.2l-0.1,6.8l51.4,30.4c1.6,0.9,3.8,1.5,5.6,0.5c1.5-0.8,0.8-2.6,0-3C992,501.7,992.5,502.1,992.5,502L992.5,502
					L992.5,502z"/>
				<path class="st1" d="M968.5,500.5l11,6.5c2.2,1.3,3.4,2.2,5.9,2.8c4.2,1.1,9.2,0.7,12.8-1.3c3.4-1.9,4.5-5.1,2.6-7.6
					c-1.2-1.7-4.7-3.4-6.3-4.4c-17.6-10.4-35.1-20.7-52.7-31.1c-1.2-0.7-2.7-0.7-3.9,0l-1.3,0.7c-0.5,0.3-0.8,0.8-0.9,1.4
					s0.3,1.1,0.8,1.5c16.8,9.9,33.6,19.8,50.4,29.7l5.5,3.2c1,0.6,1.3,1.6,1,2.4c-0.1,0.3-0.4,0.6-0.8,0.8c-1.8,1-3.9,0.5-5.6-0.5
					l-56.7-33.5c-1.2-0.7-2.7-0.7-3.9,0l-1.3,0.7c-0.5,0.3-0.9,0.8-0.9,1.5s0.3,1.1,0.8,1.5L968.5,500.5L968.5,500.5z"/>
				<path class="st3" d="M933.2,472.9l2.5-1.4l57.1,33.7l-0.1,0.1c-1.8,1-3.9,0.5-5.6-0.5L933.2,472.9z"/>
				<polygon class="st2" points="950.7,468.3 957.2,472.1 938.2,482.8 931.7,479 				"/>
			</g>
			<g>
				<path class="st1" d="M917.5,567.5c0.1-9.1,9.4-19.3,15.3-16.1l3.5,2c-6.1-3.2-15.1,7.2-15.2,16.1l0.1,28.6
					c0.2,1.1,0.7,1.8,1.6,2.5c-1.4-0.8-3.8-1.9-4.5-3c-0.5-0.8-0.7-1.8-0.7-2.8L917.5,567.5L917.5,567.5z"/>
				<path class="st2" d="M936.3,586.7l-3.5-2c-0.4-0.3-0.4-0.5-0.5-1v-22.1c-1.6,0-3,1.1-4.1,2.2l3.3,1.9c0.5,0.3,0.6,0.8,0.6,1.3
					v11.4l0,12.1c-0.1,1.9-1.1,3.7-2.7,4.7l-2.5,1.5c-0.7,0.3-1.2,0.5-1.9,0.2l-3.5-2c0.7,0.3,1.2,0.2,1.9-0.2l2.3-1.4
					c0.3-0.1,0.5-0.3,0.7-0.5c0.9-0.8,1.4-1.5,1.8-2.6c0.2-0.7,0.3-1.1,0.3-1.9v-23.4c0-0.2,0-0.4-0.1-0.6c-0.1-0.2-0.2-0.4-0.3-0.5
					c-0.3,0.3-0.6,0.7-0.9,1.1c-1.3,2-2.1,3.8-2.2,6.2v20.9c0,0.5,0.1,0.7,0.5,1l-3.5-2c-0.4-0.3-0.4-0.5-0.5-1V569
					c0.1-2,0.6-3.3,1.5-5c1.4-2.2,4.2-5.5,7.2-4.2l2.2,1.3v-2.2c0-1.6-0.4-2.8-1.7-3.8l3.5,2c1.3,0.9,1.7,2.3,1.7,3.8v24.7
					C935.9,586.1,935.9,586.3,936.3,586.7L936.3,586.7z"/>
				<path class="st3" d="M938.9,583.9c0,1-0.7,2.2-1.5,2.7c-0.8,0.5-1.5,0.1-1.5-0.9V561c0-1.8-0.7-3.1-1.7-3.8
					c-0.9-0.5-2.1-0.5-3.3,0c-0.3,0.1-0.5,0.2-0.8,0.4c-1.6,0.9-3.6,2.8-4.6,4.7c-1,1.8-1.7,3.9-1.7,5.8v27.3c0,0.9,0.3,1.5,0.8,1.7
					c0.5,0.3,1.2,0.2,1.9-0.2l1-0.6l2-1.2c0.6-0.3,1.4-1.2,1.9-2c0.5-0.9,0.8-1.8,0.8-2.7l0-12.1v-11.4c0-0.6-0.2-1.1-0.6-1.3
					c-0.4-0.2-0.9-0.2-1.4,0.1c-0.5,0.3-1,0.8-1.4,1.5c-0.4,0.6-0.6,1.3-0.6,2v20.9c0,1-0.7,2.2-1.6,2.7c-0.8,0.5-1.5,0.1-1.5-0.9
					V571c0-1.6,0.6-3.4,1.5-5c0.9-1.7,2.2-3,3.6-3.8c1.4-0.8,2.7-0.9,3.6-0.3c1,0.5,1.5,1.7,1.5,3.3v23.6c0,1.8-0.7,3.9-1.7,5.7
					s-2.5,3.4-4.1,4.3l-2.5,1.5c-1.6,0.9-3,1-4.1,0.4c-1-0.6-1.7-1.9-1.7-3.7v-27.3c0-2.8,1-6,2.6-8.8c1.6-2.8,3.8-5.3,6.3-6.7
					c2.5-1.4,4.7-1.5,6.3-0.6c1.6,0.9,2.6,2.9,2.6,5.8L938.9,583.9L938.9,583.9z"/>
				<path class="st2" d="M921.3,567l-3.5-2c-0.2,0.9-0.2,1.6-0.2,2.5v27.4c0.1,1.6,0.3,2.8,1.7,3.7l3.5,2c-1.4-1-1.6-2.1-1.7-3.7
					v-27.3C921.1,568.6,921.1,567.9,921.3,567L921.3,567z"/>
			</g>
			<g>
				<path class="st3" d="M971.1,594.9l-11.9,19.9c-0.3,0.6-0.9,0.9-1.6,0.9c-0.7,0-1.3-0.3-1.6-0.9l-11.7-20l16.5-5.3L971.1,594.9
					L971.1,594.9z"/>
				<path class="st3" d="M972.1,539.4l-0.3,53.6c-0.1,1.1-0.2,2.5-1.1,2.9l-7,3.6l-4.9-1.1c-0.3,0.1-6,2-6.4,1.8l-7.4-4.3
					c-0.7-0.9-1.1-2-1.2-3.2l0.4-53.6c0.1,0.9,0.2,1.5,0.6,2.3c0.9,1.5,2,2.4,3.5,3.3c1.6,0.9,3,1.4,4.7,1.8c2.1,0.5,3.9,0.6,6,0.6
					c3-0.2,5.8-0.7,8.5-2.1C969.8,543.8,971.8,542.1,972.1,539.4L972.1,539.4z"/>
				<path class="st2" d="M972.1,539.4l-0.3,53.6c-0.1,1.1-0.2,2.5-1.1,2.9l-7,3.6l0.3-53.1c0.9-0.2,1.7-0.5,2.5-0.8
					c1.6-0.7,2.8-1.4,4-2.7C971.4,541.7,971.9,540.8,972.1,539.4L972.1,539.4z"/>
				<path class="st3" d="M972.1,536.6l0,2.7c-0.1,1-0.3,1.5-0.7,2.3c-1.1,1.8-2.5,2.7-4.3,3.6c-2,0.9-3.8,1.4-6,1.7
					c-2.1,0.2-3.9,0.2-6.1,0c-1.6-0.2-3-0.6-4.5-1.1c-1.7-0.7-3-1.4-4.3-2.6c-1.2-1.2-1.9-2.3-2-4.1l0-2.7c0.1,1.9,1,3.1,2.4,4.4
					c1.5,1.2,2.8,1.8,4.6,2.5c2,0.7,3.8,1,6,1.1c2.1,0.1,3.9-0.1,6-0.5c2.3-0.5,4.1-1.2,6.1-2.5c0.9-0.7,1.5-1.2,2.1-2.1
					C971.8,538.4,972,537.8,972.1,536.6L972.1,536.6z"/>
				<path class="st2" d="M944.1,529.9c0-1.4,0.6-2.9,1.9-4.2c3.9-3.9,12.5-5.1,19.2-2.8c4.6,1.6,7.1,4.4,7,7.3l0,6.5
					c-0.3,3-2.6,4.7-5.1,6c-2.5,1.1-4.7,1.6-7.4,1.8c-2.6,0.1-4.8-0.1-7.4-0.7l-0.7-0.2c-2.6-0.8-4.8-1.9-6.5-4.1
					c-0.7-1-1-1.8-1.1-3L944.1,529.9L944.1,529.9z"/>
				<path class="st2" d="M951.6,534.2c-6.2-2.1-8.3-6.8-4.7-10.3c3.6-3.6,11.6-4.8,17.8-2.6s8.3,6.8,4.7,10.3
					C965.8,535.1,957.8,536.3,951.6,534.2L951.6,534.2z"/>
				<path class="st1" d="M963.6,599.5l-4.9-1.1c-0.3,0.1-6,2-6.4,1.8l0.3-53.7c3.6,0.9,7.7,0.8,11.2-0.1L963.6,599.5L963.6,599.5z"
					/>
				<polygon class="st1" points="971.1,594.9 959.2,614.8 957.6,615.7 963.6,599.5 				"/>
				<path class="st3" d="M959.2,614.8c-0.3,0.6-0.9,0.9-1.6,0.9c-0.7,0-1.3-0.3-1.6-0.9l-11-18.9l7.4,4.3L959.2,614.8L959.2,614.8z"
					/>
				<path class="st2" d="M962.9,608.6l-3.7,6.2c-0.3,0.6-0.9,0.9-1.6,0.9c-0.7,0-1.3-0.3-1.6-0.9l-3.5-6l2.7,1l3.4-2.9L962.9,608.6
					L962.9,608.6z"/>
			</g>
		</g>
	</g>
</g>
</svg>
