<?xml version="1.0" encoding="UTF-8"?><svg id="Layer_1" xmlns="http://www.w3.org/2000/svg" viewBox="0 0 51.28 51.28"><defs><style>.cls-1{fill-rule:evenodd;}.cls-1,.cls-2{fill:#f4f6f9;}</style></defs><path class="cls-1" d="M22.27,25.74v12.54c0,.18,.15,.33,.33,.33h4.66c.18,0,.33-.15,.33-.33v-12.75h3.38c.17,0,.31-.13,.33-.3l.32-3.84c.02-.19-.13-.35-.33-.35h-3.7v-2.72c0-.64,.52-1.16,1.16-1.16h2.6c.18,0,.33-.15,.33-.33v-3.84c0-.18-.15-.33-.33-.33h-4.4c-2.58,0-4.67,2.09-4.67,4.67v3.7h-2.33c-.18,0-.33,.15-.33,.33v3.84c0,.18,.15,.33,.33,.33h2.33v.2Z"/><path class="cls-2" d="M25.64,0C11.5,0,0,11.5,0,25.64s11.5,25.64,25.64,25.64,25.64-11.5,25.64-25.64S39.77,0,25.64,0Zm22.35,25.64c0,12.32-10.03,22.35-22.35,22.35S3.29,37.96,3.29,25.64,13.31,3.29,25.64,3.29s22.35,10.03,22.35,22.35Z"/></svg>