<?xml version="1.0" encoding="UTF-8"?><svg id="Layer_1" xmlns="http://www.w3.org/2000/svg" viewBox="0 0 51.28 51.28"><defs><style>.cls-1{fill:#f4f6f9;}</style></defs><g><path class="cls-1" d="M30.6,27.27c-.54-.32-1.23-.68-1.86-.42-.48,.2-.79,.96-1.11,1.34-.16,.2-.35,.23-.6,.13-1.82-.72-3.21-1.94-4.21-3.61-.17-.26-.14-.46,.07-.71,.3-.36,.68-.76,.77-1.24,.08-.48-.14-1.04-.34-1.47-.25-.55-.54-1.33-1.09-1.64-.5-.28-1.17-.13-1.62,.24-.77,.63-1.15,1.62-1.14,2.6,0,.28,.04,.56,.1,.82,.16,.65,.45,1.25,.79,1.82,.25,.43,.53,.85,.83,1.26,.97,1.32,2.18,2.47,3.58,3.33,.7,.43,1.45,.8,2.23,1.06,.88,.29,1.66,.59,2.6,.41,.99-.19,1.97-.8,2.36-1.75,.12-.28,.17-.6,.11-.9-.13-.62-.97-.98-1.47-1.28Z"/><path class="cls-1" d="M25.76,12.45c-7.18,0-13.02,5.84-13.02,13.02,0,2.2,.56,4.36,1.63,6.29l-1.89,7.05,7.09-1.9c1.9,1.03,4.03,1.58,6.19,1.58,7.18,0,13.02-5.84,13.02-13.02s-5.84-13.02-13.02-13.02Zm0,23.57c-1.89,0-3.75-.52-5.39-1.49l-.45-.27-3.96,1.06,1.05-3.94-.27-.45c-1.01-1.66-1.54-3.55-1.54-5.47,0-5.82,4.74-10.56,10.56-10.56s10.56,4.74,10.56,10.56-4.74,10.56-10.56,10.56Z"/></g><path class="cls-1" d="M25.64,0C11.5,0,0,11.5,0,25.64s11.5,25.64,25.64,25.64,25.64-11.5,25.64-25.64S39.77,0,25.64,0Zm0,47.99c-12.32,0-22.35-10.03-22.35-22.35S13.31,3.29,25.64,3.29s22.35,10.03,22.35,22.35-10.03,22.35-22.35,22.35Z"/></svg>