<?xml version="1.0" encoding="UTF-8"?><svg id="Layer_1" xmlns="http://www.w3.org/2000/svg" viewBox="0 0 51.28 51.28"><defs><style>.cls-1{fill:#f4f6f9;}</style></defs><path class="cls-1" d="M14.21,19.06h4.9v15.75h-4.9v-15.75Zm2.45-7.83c1.57,0,2.84,1.27,2.84,2.84s-1.27,2.84-2.84,2.84-2.84-1.27-2.84-2.84,1.27-2.84,2.84-2.84m5.52,23.58h4.89v-7.79c0-2.05,.39-4.04,2.94-4.04s2.54,2.35,2.54,4.18v7.66h4.89v-8.64c0-4.24-.91-7.5-5.87-7.5-2.38,0-3.98,1.3-4.64,2.54h-.06v-2.16h-4.7v15.75Z"/><path class="cls-1" d="M25.64,0C11.5,0,0,11.5,0,25.64s11.5,25.64,25.64,25.64,25.64-11.5,25.64-25.64S39.77,0,25.64,0Zm0,47.99c-12.32,0-22.35-10.03-22.35-22.35S13.31,3.29,25.64,3.29s22.35,10.03,22.35,22.35-10.03,22.35-22.35,22.35Z"/></svg>