<?xml version="1.0" encoding="UTF-8"?><svg id="Layer_1" xmlns="http://www.w3.org/2000/svg" viewBox="0 0 218.37 80.44"><defs><style>.cls-1{fill:#fff;fill-rule:evenodd;}</style></defs><path class="cls-1" d="M44.43,49.32l.31-.14,3.19-1.54c.17-.08,.33-.17,.49-.26l2.34-1.31c.22-.12,.44-.26,.64-.4l1.67-1.13c.28-.19,.55-.4,.81-.62l1.14-.97c.26-.22,.5-.46,.72-.71l.25-.28c.58-.66,1.06-1.41,1.43-2.21l.59-1.28c.31-.68,.51-1.41,.58-2.15v-.04c.05-.49,.05-.98,0-1.47l-.07-.59c-.06-.5-.17-1-.34-1.48l-.22-.63c-.15-.44-.35-.86-.59-1.26l-.8-1.33-.06-.07-1.07-1.23c-.31-.35-.64-.68-.99-.97l-1.03-.87c-.3-.26-.62-.49-.96-.71l-1.52-.98c-.27-.17-.54-.33-.82-.47l-1.9-.96-.5-.2-1.68-.67c-.22-.09-.45-.17-.67-.24l-2.02-.63c-.21-.07-.43-.12-.64-.17l-2.19-.51c-.2-.05-.41-.09-.61-.12l-2.33-.38c-.2-.03-.39-.06-.59-.08l-2.49-.24c-.17-.02-.33-.03-.5-.03-.62-.02-2.24-.09-2.86-.09-.75,0-2.99,.09-2.99,.09l-2.58,.24c-.2,.02-.41,.04-.61,.08l-2.15,.34c-.21,.03-.43,.08-.64,.13l-2,.47c-.23,.05-.45,.11-.67,.18l-1.86,.59c-.23,.07-.46,.16-.69,.25l-1.73,.7c-.24,.1-.47,.2-.69,.32l-1.58,.8c-.26,.13-.51,.27-.76,.43l-1.13,.71c-.28,.17-.54,.36-.8,.57l-.99,.78c-.25,.2-.5,.42-.73,.65l-.9,.89c-.23,.23-.45,.46-.65,.71l-.83,1.01c-.2,.24-.38,.49-.55,.75l-.76,1.15c-.16,.25-.32,.5-.46,.77l-.7,1.32c-.13,.25-.25,.5-.36,.76l-.63,1.5c-.1,.24-.19,.48-.27,.73l-.54,1.69c-.07,.23-.14,.46-.19,.7l-.44,1.89c-.05,.22-.09,.43-.13,.65l-.33,2.09c-.03,.2-.06,.4-.08,.61l-.21,2.27c-.02,.19-.03,.37-.03,.56l-.07,2.5c0,.18,0,.35,0,.53l.07,2.45c0,.19,.02,.37,.03,.56l.21,2.32c.02,.2,.04,.41,.08,.61l.33,2.09c.03,.22,.08,.44,.13,.65l.44,1.89c.06,.24,.12,.47,.19,.7l.54,1.69c.08,.25,.17,.49,.27,.73l.63,1.5c.11,.26,.23,.51,.36,.76l.7,1.32c.14,.26,.29,.52,.46,.77l.76,1.15c.17,.26,.36,.51,.55,.75l.83,1.01c.2,.25,.42,.49,.65,.71l.9,.89c.23,.23,.48,.45,.73,.65l.99,.78c.25,.2,.52,.39,.79,.56l1.13,.71c.25,.16,.5,.3,.76,.43l1.58,.8c.23,.11,.46,.22,.69,.32l1.73,.7c.23,.09,.46,.17,.69,.25l1.86,.59c.22,.07,.44,.13,.67,.18l2,.47c.21,.05,.43,.09,.64,.13l2.15,.34c.2,.03,.4,.06,.61,.08l2.29,.21c.19,.02,.38,.03,.57,.03l2.43,.07c.18,0,.37,0,.55,0l2.54-.08c.19,0,.39-.02,.58-.04l2.45-.23c.2-.02,.4-.04,.6-.08l2.33-.38c.21-.03,.41-.07,.61-.12l2.19-.51c.22-.05,.43-.11,.64-.17l2.02-.63c.23-.07,.45-.15,.67-.24l1.82-.73c.24-.1,.48-.2,.71-.32l1.55-.78c.28-.14,.56-.3,.83-.47l1.52-.98c.33-.21,.65-.45,.96-.7l1.03-.87c.35-.3,.69-.62,.99-.97l.56-.64c.34-.39,.65-.81,.92-1.26l.44-.72c.25-.41,.46-.85,.62-1.3l.21-.61c.17-.48,.28-.98,.34-1.48l.07-.59c.06-.49,.06-.98,0-1.47v-.04c-.08-.74-.28-1.47-.59-2.15l-.59-1.28c-.37-.8-.85-1.55-1.43-2.21l-.25-.28c-.22-.25-.46-.49-.72-.71l-1.14-.97c-.26-.22-.53-.43-.81-.62l-1.67-1.13c-.21-.14-.42-.27-.64-.4l-2.34-1.31c-.16-.09-.33-.18-.5-.26l-3.18-1.54-.31-.14s-.18-.25-.21-.35c-.05-.19-.05-.59,0-.77,.03-.1,.21-.35,.21-.35Zm-19.9,1.88c.09,.28,.35,.8,.52,1.03,.19,.25,.65,.69,.9,.87,.3,.21,1.33,.65,1.33,.65l3.85,1.26,2.58,.88,2.75,1,2.77,1.11,2.31,1.06c.2,.09,.4,.19,.6,.3l1.66,.91c.24,.13,.47,.28,.7,.44h0c1,.72,1.77,1.68,2.48,2.69,.2,.28,.67,.83,.7,1.17,.03,.29-.2,.88-.36,1.12-.33,.49-1.33,1.15-1.79,1.51-.67,.51-1.37,.99-2.14,1.34l-.58,.26c-.38,.17-.77,.31-1.16,.43l-1.75,.51c-.35,.1-.71,.18-1.07,.24l-2.34,.39c-.34,.06-.68,.09-1.02,.11l-2.97,.16c-.25,.01-.49,.02-.74,0l-2.77-.08c-.21,0-.41-.02-.62-.04l-2.32-.22c-.27-.03-.54-.06-.81-.11l-1.75-.33c-.34-.06-.68-.15-1.01-.25l-1.24-.38c-.4-.12-.79-.27-1.17-.45l-1.02-.47c-.31-.15-.62-.32-.91-.51l-.51-.34c-.58-.38-1.11-.83-1.58-1.34l-.78-.83c-.62-.66-1.14-1.41-1.54-2.22l-.87-1.76c-.24-.48-.43-.99-.58-1.5l-.31-1.07c-.08-.28-.15-.57-.2-.86l-.32-1.71c-.05-.25-.08-.5-.11-.75l-.21-2.06c-.02-.21-.04-.43-.04-.64l-.08-2.39c0-.19,0-.38,0-.58l.08-2.39c0-.21,.02-.43,.04-.64l.21-2.06c.03-.25,.06-.5,.11-.75l.32-1.71c.05-.29,.12-.58,.2-.86l.39-1.34c.1-.33,.21-.66,.35-.98l.3-.72c.23-.54,.5-1.06,.83-1.55l.65-.97c.54-.81,1.21-1.53,1.98-2.13l1.3-1.02c.54-.43,1.14-.79,1.76-1.08l.69-.32c.28-.13,.58-.25,.88-.34l1.39-.43c.33-.1,.67-.19,1.01-.25l1.75-.33c.27-.05,.54-.09,.81-.11l2.32-.22c.21-.02,.41-.03,.62-.04l2.77-.07c.25,0,.49,0,.74,0l2.97,.16c.34,.02,.68,.06,1.02,.11l2.34,.39c.36,.06,.72,.14,1.07,.25l1.75,.51c.4,.12,.79,.26,1.16,.43l1.21,.54c.35,.16,.69,.35,1.01,.56h0c.81,.54,1.44,1.28,2,2.08,.18,.25,.59,.74,.64,1.04,.06,.36-.24,1.09-.44,1.39-.46,.7-2.51,2.21-2.51,2.21-.37,.33-.78,.61-1.21,.85l-1.37,.75c-.2,.11-.4,.21-.6,.3l-2.31,1.06-2.77,1.11-2.75,1-2.58,.88-3.85,1.26s-1.02,.43-1.33,.65c-.26,.18-.72,.62-.9,.87-.17,.23-.43,.76-.52,1.03s-.16,.85-.16,1.14,.08,.86,.16,1.13Z"/><polygon class="cls-1" points="108.74 69.8 108.37 69.12 106.77 67.88 104.8 67.31 102.7 67.49 100.29 68.14 97.85 68.72 95.36 69.21 92.84 69.57 90.28 69.78 87.7 69.8 84.9 69.64 82.2 69.31 79.59 68.84 77.08 68.24 74.67 67.53 72.35 66.73 70.15 65.86 68.08 65.42 66.04 65.74 64.3 66.77 63.1 68.45 62.71 70.48 63.17 72.47 64.37 74.21 66.22 75.5 68.58 76.52 71.03 77.42 73.55 78.19 76.16 78.84 78.84 79.37 81.61 79.77 84.47 80.05 87.4 80.2 90.28 80.21 93.09 80.07 95.82 79.79 98.44 79.39 100.95 78.86 103.34 78.23 105.59 77.49 107.49 76.42 108.84 74.86 109.5 72.98 109.35 70.93 108.74 69.8"/><path class="cls-1" d="M76.34,12.18l1.54-.69c.17-.08,.34-.14,.52-.19l2.37-.7c.16-.05,.32-.08,.48-.11l2.91-.49c.15-.03,.3-.04,.46-.05l3.37-.18c.17,0,.34,0,.5,0l3.59,.25c.16,.01,.32,.03,.47,.06l3.35,.62c.12,.02,.24,.05,.36,.08l2.95,.83c.09,.03,.18,.05,.27,.09l2.31,.82c.08,.03,.17,.06,.25,.1l1.16,.5c.7,.3,1.43,.54,2.17,.71l.55,.13c.52,.12,1.06,.13,1.59,.05l.44-.07c.52-.09,1.03-.28,1.48-.55l.19-.12c.43-.26,.8-.6,1.11-1h0c.32-.42,.56-.9,.7-1.41,.07-.27,.22-.81,.3-1.08,.01-.05,.06-.14,.05-.19-.04-.68-.76-1.88-1.02-2.51-.29-.72-.78-1.34-1.41-1.79l-.62-.45c-.21-.15-.43-.28-.66-.39l-1.96-.92c-.1-.05-.19-.09-.29-.12l-2.3-.87c-.09-.03-.19-.07-.28-.09l-2.42-.72c-.09-.03-.18-.05-.27-.07l-2.51-.57c-.09-.02-.17-.04-.26-.05l-2.58-.41c-.09-.01-.17-.02-.26-.03l-2.62-.25c-.09,0-.17-.01-.26-.02l-2.64-.08c-.09,0-.17,0-.26,0l-2.85,.09c-.09,0-.17,0-.26,.02l-2.77,.26c-.09,0-.18,.02-.27,.03l-2.67,.43c-.09,.02-.19,.03-.28,.05l-2.53,.59c-.1,.02-.19,.05-.29,.08l-2.38,.74c-.1,.03-.2,.07-.3,.11l-2.2,.88c-.11,.04-.22,.09-.32,.14l-1.98,.99c-.13,.06-.25,.13-.37,.21l-2.02,1.29c-.15,.1-.29,.2-.43,.32l-1.57,1.33c-.16,.13-.31,.28-.45,.44l-1.15,1.31c-.16,.18-.3,.38-.43,.59l-.75,1.26c-.14,.24-.26,.49-.35,.76l-.42,1.19c-.1,.29-.17,.59-.2,.89l-.14,1.18c-.03,.29-.04,.59,0,.89l.08,.78c.05,.45,.16,.88,.35,1.29l1.08,2.36c.16,.36,.38,.7,.64,1l.86,.99c.13,.15,.28,.3,.43,.43l1.51,1.29c.12,.1,.24,.19,.37,.28l2.07,1.4c.09,.06,.19,.12,.29,.18l2.65,1.49c.07,.04,.15,.08,.22,.12l3.32,1.61,.31,.14,.21,.35v.77l-.21,.35-.31,.14-3.32,1.61c-.07,.04-.15,.07-.22,.12l-2.65,1.49c-.1,.06-.2,.12-.29,.18l-2.07,1.4c-.13,.09-.25,.18-.37,.28l-1.51,1.29c-.15,.13-.3,.27-.43,.43l-.19,.22c-.7,.81-1.29,1.71-1.73,2.69l-.46,1c-.32,.69-.52,1.43-.59,2.19h0c-.05,.5-.05,1,0,1.5l.06,.55c.06,.52,.18,1.02,.35,1.51l.21,.61c.16,.45,.36,.88,.6,1.28l.28,.47c.34,.56,.73,1.1,1.16,1.59l.39,.44c.37,.42,.77,.82,1.2,1.18l.82,.69c.37,.31,.76,.6,1.16,.86l1.33,.85c.32,.21,.66,.4,1,.57l1.65,.83c.11,.05,.21,.1,.32,.14l2.2,.88c.1,.04,.2,.08,.3,.11l2.38,.74c.1,.03,.19,.06,.29,.08l2.53,.59c.09,.02,.18,.04,.28,.05l2.67,.43c.09,.01,.18,.03,.27,.03l2.77,.26c.09,0,.17,.01,.26,.02l2.85,.09c.09,0,.17,0,.26,0l2.64-.08c.09,0,.17,0,.25-.02l2.62-.25c.09,0,.17-.02,.26-.03l2.58-.41c.09-.01,.17-.03,.26-.05l2.51-.57c.09-.02,.18-.04,.27-.07l2.42-.72c.09-.03,.19-.06,.28-.09l2.3-.87c.1-.04,.2-.08,.29-.12l1.96-.92c.23-.11,.45-.24,.66-.39l.62-.45c.63-.45,1.11-1.07,1.4-1.79l1.02-2.51-.05-.19-.3-1.08c-.14-.51-.38-.99-.7-1.41h0c-.31-.4-.68-.74-1.11-1l-.19-.12c-.45-.28-.95-.47-1.48-.55l-.43-.07c-.53-.09-1.07-.07-1.59,.05l-1.67,.38-.63,.29-1.59,.67c-.07,.03-.14,.06-.21,.08l-2.33,.83c-.09,.03-.18,.06-.27,.09l-2.95,.83c-.12,.03-.24,.06-.36,.08l-3.35,.62c-.16,.03-.31,.05-.47,.06l-3.59,.25c-.17,.01-.34,.01-.5,0l-3.37-.18c-.15,0-.31-.03-.46-.05l-2.91-.49c-.16-.03-.32-.06-.48-.11l-1.92-.56c-.48-.14-.94-.31-1.4-.52l-1.1-.49c-.35-.16-.69-.35-1.02-.56h0c-.81-.54-1.49-1.25-2-2.08,0,0-.61-.74-.65-1.04-.04-.36,.22-1.1,.44-1.39,.44-.58,2.18-1.91,2.18-1.91,.6-.52,1.25-.98,1.95-1.37l.92-.5c.23-.13,.47-.25,.72-.36l2.25-1.03,2.77-1.11s2.06-.76,2.75-1c.64-.23,1.94-.66,2.58-.88,.96-.32,2.91-.88,3.85-1.26,.31-.12,.92-.39,1.19-.58,.25-.17,.69-.58,.87-.82s.45-.76,.54-1.04c.1-.3,.18-.93,.18-1.24s-.09-.94-.18-1.24c-.09-.28-.36-.81-.54-1.04s-.63-.65-.87-.82c-.27-.19-.89-.45-1.19-.58-.94-.38-2.89-.94-3.85-1.26-.65-.22-1.94-.65-2.58-.88-.69-.24-2.75-1-2.75-1l-2.77-1.11-2.48-1.14c-.09-.04-.18-.09-.27-.14l-1.97-1.08c-.14-.08-.28-.17-.42-.26l-.97-.7c-.45-.32-.83-.74-1.12-1.21l-1.24-2.04,.36-1.12,2.33-1.96c.29-.24,.61-.45,.96-.6Z"/><polygon class="cls-1" points="126.94 32.11 129.25 31.07 132.12 30.23 135.51 29.66 139.36 29.45 143.43 29.73 147.19 30.43 150.45 31.35 153.02 32.26 155.35 33.26 157.81 33.82 159.84 33.49 161.37 32.55 162.31 31.31 162.82 29.45 162.88 29.26 161.41 25.66 159.53 24.29 157.07 23.14 154.48 22.16 151.79 21.36 149.01 20.73 146.16 20.29 143.28 20.01 140.39 19.92 137.28 20.02 134.25 20.31 131.31 20.79 128.49 21.44 125.82 22.27 123.31 23.28 120.98 24.45 118.56 26 116.54 27.7 114.94 29.53 113.78 31.46 113.08 33.47 112.84 35.55 113.03 37.45 114.64 40.97 116.09 42.63 118.01 44.27 120.41 45.89 123.32 47.52 126.76 49.18 127.06 49.32 127.27 49.68 127.27 50.45 127.06 50.8 126.76 50.94 123.32 52.6 120.41 54.24 118.01 55.86 116.09 57.49 114.64 59.16 113.03 62.68 112.84 64.57 113.08 66.65 113.78 68.67 114.94 70.6 116.54 72.43 118.56 74.13 120.98 75.68 123.31 76.85 125.82 77.85 128.49 78.68 131.31 79.34 134.25 79.82 137.28 80.1 140.39 80.2 143.28 80.11 146.16 79.84 149.01 79.39 151.79 78.77 154.48 77.96 157.07 76.98 159.53 75.83 161.41 74.47 162.88 70.87 162.82 70.67 162.31 68.82 161.37 67.58 159.84 66.64 157.81 66.3 155.35 66.86 154.72 67.16 153.02 67.87 150.45 68.78 147.19 69.69 143.43 70.39 139.36 70.67 135.51 70.47 132.12 69.9 129.25 69.06 126.94 68.02 125.23 66.87 123.81 64.57 124.25 63.18 127.33 60.48 129.64 59.2 132.26 58 135.03 56.89 137.78 55.89 140.36 55.01 144.21 53.75 145.41 53.17 146.28 52.35 146.82 51.31 147 50.06 146.82 48.82 146.28 47.77 145.41 46.95 144.21 46.38 140.36 45.12 137.78 44.24 135.03 43.23 132.26 42.12 129.64 40.92 127.33 39.65 125.48 38.32 123.81 35.55 124.17 34.43 126.94 32.11"/><path class="cls-1" d="M209.08,13.46h1.93l1.29,2.64h1.32l-1.3-2.64-.11-.22,.59-.38,.41-.49,.03-.04,.28-.61,.1-.64-.2-.91-.26-.37-.27-.39-.45-.3-.32-.21-.91-.19h-3.28v7.4h1.16v-2.64Zm0-3.67h2.09l.43,.09,.4,.26,.3,.41,.12,.53-.11,.5-.28,.41-.4,.28-.47,.1h-2.09v-2.57Z"/><path class="cls-1" d="M217.47,44.82l-.6-2.42-.81-2.37-1.02-2.3-1.22-2.21-1.42-2.11-1.61-2-1.79-1.87-.32-.29-.99-.89-.2-.16-3-2.21-1.91-1.14-2.11-1.07-2.32-.98-2.54-.86-2.76-.72-2.98-.55-3.2-.35-3.43-.12-2.5,.04-2.49,.15-2.66,.32-2.98,.55-2.09,.83-1.68,1.43-1.12,1.9-.41,2.25,.02,.45,.05,.44,.07,.43,.1,.44,.44,1.78,.48,2.13,.48,2.36,.46,2.59,.41,2.75,.34,2.86,.23,2.93,.09,2.95-.09,2.95-.23,2.93-.34,2.86-.41,2.75-.46,2.59-.49,2.37-.48,2.12-.44,1.81-.1,.42-.07,.43-.05,.44-.02,.45,.41,2.25,1.12,1.9,1.68,1.43,2.09,.83,2.98,.55,2.66,.32,2.49,.15,2.49,.04,3.44-.12,3.2-.35,2.98-.55,2.76-.72,2.54-.86,2.32-.98,2.11-1.08,1.91-1.14,1.7-1.18,2.49-2.08,.32-.29,1.79-1.87,1.61-2,1.42-2.11,1.22-2.21,1.02-2.3,.81-2.37,.6-2.42,.38-2.46,.15-2.49-.15-2.48-.38-2.46Zm-10.19,7.56l-.53,2.53-.84,2.42-1.14,2.28-1.44,2.12-1.72,1.94-3.14,2.53-1.89,1.11-2.11,.97-2.33,.81-2.55,.62-2.78,.41-3.01,.17-3.25-.08-1.78-.47-.71-.88-.07-.96,.14-.7,.67-3.07,.55-2.99,.44-2.91,.32-2.86,.2-2.81,.08-2.79-.08-2.78-.2-2.81-.32-2.86-.44-2.91-.55-2.99-.67-3.07-.14-.71,.07-.96,.71-.88,1.78-.47,3.25-.08,3.01,.17,2.78,.41,2.55,.62,2.33,.81,2.11,.97,1.89,1.11,1.68,1.22,3.18,3.25,1.44,2.12,1.14,2.28,.84,2.42,.53,2.53,.2,2.61-.2,2.61Z"/><path class="cls-1" d="M204.48,16.89l1.62,1.62,2.06,1.06,2.37,.38,2.36-.38,1.87-.97,.18-.09,1.62-1.62,1.06-2.06,.38-2.37-.38-2.36-.97-1.87-.09-.18-1.62-1.62-.17-.09-1.87-.97-2.36-.38-2.37,.38-2.06,1.06-1.62,1.62-1.06,2.05-.38,2.36,.38,2.37,1.06,2.06Zm.39-6.81l1.31-1.94,1.95-1.31,2.4-.48,2.38,.48,1.94,1.31,1.31,1.94,.48,2.38-.48,2.4-1.31,1.95-1.94,1.31-2.38,.48-2.4-.48-1.95-1.31-1.31-1.95-.48-2.4,.48-2.38Z"/></svg>