<?xml version="1.0" encoding="UTF-8"?><svg id="Layer_1" xmlns="http://www.w3.org/2000/svg" viewBox="0 0 51.28 51.28"><defs><style>.cls-1{fill:#f4f6f9;}</style></defs><path class="cls-1" d="M39.33,22.26c0-3.31-2.68-5.99-5.99-5.99h-15.41c-3.31,0-5.99,2.68-5.99,5.99v6.76c0,3.31,2.68,5.99,5.99,5.99h15.41c3.31,0,5.99-2.68,5.99-5.99v-6.76Zm-8.48,3.56l-6.89,3.4c-.27,.15-1.21-.05-1.21-.36v-6.97c0-.31,.95-.5,1.22-.35l6.59,3.58c.28,.16,.58,.56,.3,.71Z"/><path class="cls-1" d="M25.64,0C11.5,0,0,11.5,0,25.64s11.5,25.64,25.64,25.64,25.64-11.5,25.64-25.64S39.77,0,25.64,0Zm0,47.99c-12.32,0-22.35-10.03-22.35-22.35S13.31,3.29,25.64,3.29s22.35,10.03,22.35,22.35-10.03,22.35-22.35,22.35Z"/></svg>