<?xml version="1.0" encoding="UTF-8"?><svg id="Layer_1" xmlns="http://www.w3.org/2000/svg" viewBox="0 0 51.28 51.28"><defs><style>.cls-1{fill:#f4f6f9;}</style></defs><path class="cls-1" d="M38.72,17.38c-.84,.38-1.79,.61-2.69,.76,.43-.07,1.05-.85,1.3-1.16,.39-.48,.7-1.03,.88-1.62,.02-.05,.04-.1,0-.14-.06-.02-.1-.01-.14,.01-1.01,.54-2.05,.93-3.16,1.21-.09,.02-.16,0-.22-.06-.09-.1-.18-.2-.28-.28-.47-.4-.97-.71-1.53-.94-.74-.3-1.55-.43-2.35-.38-.78,.05-1.54,.27-2.23,.63-.69,.36-1.31,.86-1.8,1.47-.51,.63-.88,1.37-1.07,2.15-.19,.76-.17,1.51-.06,2.27,.02,.13,0,.14-.11,.13-4.35-.65-7.95-2.2-10.87-5.53-.13-.14-.2-.14-.3,.01-1.28,1.92-.66,5,.94,6.51,.21,.2,.43,.4,.67,.59-.09,.02-1.15-.1-2.1-.59-.13-.08-.19-.03-.2,.11-.01,.21,0,.4,.03,.62,.25,1.94,1.59,3.74,3.44,4.44,.22,.09,.46,.17,.7,.21-.42,.09-.85,.16-2.06,.06-.15-.03-.21,.05-.15,.19,.91,2.47,2.86,3.2,4.32,3.62,.2,.03,.39,.03,.59,.08-.01,.02-.02,.02-.03,.03-.49,.74-2.17,1.29-2.95,1.56-1.43,.5-2.98,.72-4.48,.57-.24-.04-.29-.03-.36,0-.07,.04,0,.1,.07,.16,.31,.2,.62,.38,.93,.55,.96,.51,1.95,.91,3,1.2,5.39,1.49,11.45,.39,15.5-3.62,3.18-3.16,4.29-7.51,4.29-11.86,0-.17,.2-.26,.32-.35,.83-.62,1.54-1.36,2.16-2.19,.14-.19,.19-.35,.19-.42v-.02c0-.07-.05-.05-.16,0Z"/><path class="cls-1" d="M25.64,0C11.5,0,0,11.5,0,25.64s11.5,25.64,25.64,25.64,25.64-11.5,25.64-25.64S39.77,0,25.64,0Zm0,47.99c-12.32,0-22.35-10.03-22.35-22.35S13.31,3.29,25.64,3.29s22.35,10.03,22.35,22.35-10.03,22.35-22.35,22.35Z"/></svg>