<?xml version="1.0" encoding="UTF-8"?><svg id="Layer_1" xmlns="http://www.w3.org/2000/svg" viewBox="0 0 51.28 51.28"><defs><style>.cls-1{fill:#f4f6f9;}</style></defs><path class="cls-1" d="M34.18,18.57c0,.85-.69,1.54-1.54,1.54s-1.54-.69-1.54-1.54,.69-1.54,1.54-1.54,1.54,.69,1.54,1.54Zm-1.91,6.88c0,3.56-2.89,6.45-6.45,6.45s-6.45-2.89-6.45-6.45,2.89-6.45,6.45-6.45,6.45,2.89,6.45,6.45Zm-2.32,0c0-2.28-1.85-4.13-4.13-4.13s-4.13,1.85-4.13,4.13,1.85,4.13,4.13,4.13,4.13-1.85,4.13-4.13Zm8.92-5.18c0-4.35-3.52-7.87-7.87-7.87h-10.74c-4.35,0-7.87,3.52-7.87,7.87v10.74c0,4.35,3.52,7.87,7.87,7.87h10.74c4.35,0,7.87-3.52,7.87-7.87v-10.74Zm-2.58,10.62c0,2.98-2.42,5.4-5.4,5.4h-10.5c-2.98,0-5.4-2.42-5.4-5.4v-10.5c0-2.98,2.42-5.4,5.4-5.4h10.5c2.98,0,5.4,2.42,5.4,5.4v10.5Z"/><path class="cls-1" d="M25.64,0C11.5,0,0,11.5,0,25.64s11.5,25.64,25.64,25.64,25.64-11.5,25.64-25.64S39.77,0,25.64,0Zm0,47.99c-12.32,0-22.35-10.03-22.35-22.35S13.31,3.29,25.64,3.29s22.35,10.03,22.35,22.35-10.03,22.35-22.35,22.35Z"/></svg>