<svg xmlns="http://www.w3.org/2000/svg" viewBox="0 0 446.72 483.02"><defs><style>.cls-1{fill:#9aceef;}.cls-1,.cls-2,.cls-3{stroke:#0072c8;stroke-linecap:round;stroke-linejoin:round;stroke-width:0.75px;}.cls-1,.cls-2,.cls-3,.cls-4{fill-rule:evenodd;}.cls-2{fill:#d9e8ff;}.cls-3{fill:#fff;}.cls-4{fill:none;}</style></defs><g id="Layer_2" data-name="Layer 2"><g id="Layer_1-2" data-name="Layer 1"><path class="cls-1" d="M13.11,354,2.67,346.9a15.66,15.66,0,0,1-2.11-8.45L.62,170.07c.26-11.68,7.61-24.42,17.62-30.48L255.45,2.77c4-2.19,8.16-3.46,12.42-1.22l10.41,7.1c-4.27-2.22-8.45-1-12.42,1.22L28.65,146.69c-10,6.06-17.36,18.92-17.63,30.48l0,168.37A15.41,15.41,0,0,0,13.11,354Z" transform="translate(-0.19)"/><path class="cls-2" d="M28.65,146.69,265.86,9.87c9.68-5.6,17.59-1,17.59,10.15l-.06,168.39c0,11.16-7.93,24.89-17.62,30.48L28.56,355.72c-9.68,5.6-17.62,1-17.59-10.18l0-168.37C11,166,19,152.25,28.65,146.69Z" transform="translate(-0.19)"/><path class="cls-3" d="M29.69,159.32l62.48-36L264.79,23.7c4.44-2.57,8-.48,8,4.67l-.06,163.94c0,5.13-3.61,11.39-8,13.95L69.94,318.61,29.62,341.88c-4.43,2.54-8,.5-8-4.67l.06-163.94C21.64,168.14,25.24,161.89,29.69,159.32Z" transform="translate(-0.19)"/><path class="cls-2" d="M446.28,319.94V332.8c-1.13,3.86-3.69,6.11-7,8.13L201.09,478.48a35.63,35.63,0,0,1-16.47,4.15c-6.74.12-12.91-.92-18.86-4.18L19.54,393.88c-3.35-2.05-5.92-4.3-7-8.17V372.85c1.12,3.87,3.69,6.09,7,8.14l146.22,84.57c6,3.29,12.12,4.3,18.86,4.21a35.54,35.54,0,0,0,16.47-4.18L439.25,328.07C442.59,326,445.15,323.8,446.28,319.94Z" transform="translate(-0.19)"/><path class="cls-1" d="M19.54,360.54,257.7,223.05c9.74-5.63,25.63-5.63,35.31,0l146.24,84.58c9.71,5.64,9.71,14.81,0,20.44L201.09,465.59c-9.72,5.59-25.61,5.59-35.33,0L19.54,381C9.82,375.36,9.82,366.16,19.54,360.54Z" transform="translate(-0.19)"/><polygon class="cls-2" points="275.38 408.64 340.53 371 290.64 342.17 225.49 379.8 275.38 408.64"/><path class="cls-2" d="M49.35,365.33q108.32-62.5,216.51-125.07c5.19-3,13.66-3,18.85,0L358.5,283c5.16,3,5.16,7.9,0,10.9Q250.25,356.38,142,418.93c-5.19,3-13.67,3-18.86,0L49.35,376.23C44.16,373.23,44.19,368.33,49.35,365.33Z" transform="translate(-0.19)"/><path class="cls-3" d="M144.39,353.36,155,347.22a8.62,8.62,0,0,1,7.79,0l10.63,6.14c2.13,1.23,2.13,3.25,0,4.5L162.8,364a8.56,8.56,0,0,1-7.76,0l-10.65-6.14C142.26,356.61,142.26,354.59,144.39,353.36Z" transform="translate(-0.19)"/><path class="cls-3" d="M102.58,377.49,92,383.64c-2.14,1.24-2.14,3.25,0,4.49l10.64,6.15a8.66,8.66,0,0,0,7.78,0L121,388.13c2.16-1.24,2.16-3.25,0-4.49l-10.64-6.15A8.75,8.75,0,0,0,102.58,377.49Z" transform="translate(-0.19)"/><path class="cls-3" d="M128.79,392.63l-10.63,6.15c-2.14,1.27-2.14,3.25,0,4.5l10.63,6.14a8.56,8.56,0,0,0,7.76,0l10.64-6.11c2.16-1.25,2.16-3.26,0-4.51l-10.64-6.17A8.68,8.68,0,0,0,128.79,392.63Z" transform="translate(-0.19)"/><path class="cls-3" d="M110.4,364,121,357.83c2.16-1.22,2.16-3.24,0-4.47l-10.64-6.14a8.41,8.41,0,0,0-7.76,0L92,353.32c-2.16,1.25-2.16,3.27,0,4.51L102.61,364A8.62,8.62,0,0,0,110.4,364Z" transform="translate(-0.19)"/><path class="cls-3" d="M136.61,348.86l10.64-6.14c2.16-1.24,2.16-3.26,0-4.5L136.64,332a8.78,8.78,0,0,0-7.79,0l-10.64,6.18c-2.16,1.21-2.16,3.23,0,4.47l10.64,6.17A8.56,8.56,0,0,0,136.61,348.86Z" transform="translate(-0.19)"/><path class="cls-3" d="M94.82,373l-10.63,6.15a8.68,8.68,0,0,1-7.79,0L65.76,373c-2.13-1.25-2.13-3.26,0-4.48l10.67-6.17a8.56,8.56,0,0,1,7.76,0l10.63,6.17C97,369.74,97,371.76,94.82,373Z" transform="translate(-0.19)"/><path class="cls-3" d="M118.18,368.49l10.65-6.14a8.66,8.66,0,0,1,7.78,0l10.64,6.14c2.14,1.25,2.14,3.27,0,4.5l-10.67,6.15a8.6,8.6,0,0,1-7.75,0L118.18,373C116.05,371.76,116.05,369.74,118.18,368.49Z" transform="translate(-0.19)"/><path class="cls-3" d="M196.82,323.08l10.64-6.14a8.54,8.54,0,0,1,7.78,0l10.65,6.17c2.13,1.21,2.13,3.23,0,4.47l-10.65,6.14a8.6,8.6,0,0,1-7.78,0l-10.64-6.14C194.69,326.34,194.69,324.32,196.82,323.08Z" transform="translate(-0.19)"/><path class="cls-3" d="M223,338.24l10.64-6.17a8.68,8.68,0,0,1,7.79,0l10.61,6.17c2.16,1.26,2.16,3.27,0,4.5l-10.64,6.15a8.62,8.62,0,0,1-7.79,0L223,342.72C220.87,341.51,220.87,339.46,223,338.24Z" transform="translate(-0.19)"/><path class="cls-3" d="M162.83,333.72l10.66-6.18c2.14-1.2,2.14-3.22,0-4.46l-10.64-6.14a8.56,8.56,0,0,0-7.79,0l-10.67,6.11c-2.13,1.24-2.13,3.26,0,4.49l10.67,6.18A8.58,8.58,0,0,0,162.83,333.72Z" transform="translate(-0.19)"/><path class="cls-3" d="M189.06,318.58l10.64-6.14c2.13-1.24,2.13-3.26,0-4.5l-10.64-6.14a8.6,8.6,0,0,0-7.78,0l-10.65,6.14c-2.12,1.22-2.12,3.23,0,4.47l10.65,6.17A8.6,8.6,0,0,0,189.06,318.58Z" transform="translate(-0.19)"/><path class="cls-3" d="M170.61,338.22l10.64-6.15a8.66,8.66,0,0,1,7.78,0l10.65,6.15c2.13,1.24,2.13,3.26,0,4.5L189,348.86a8.6,8.6,0,0,1-7.78,0l-10.64-6.14C168.47,341.48,168.47,339.46,170.61,338.22Z" transform="translate(-0.19)"/><path class="cls-3" d="M144.36,383.66l63.07-36.44a8.6,8.6,0,0,1,7.78,0l10.65,6.17c2.13,1.24,2.13,3.25,0,4.49L162.8,394.31a8.88,8.88,0,0,1-7.79,0l-10.65-6.18C142.23,386.89,142.23,384.88,144.36,383.66Z" transform="translate(-0.19)"/><path class="cls-3" d="M284,272.7l10.64-6.14a8.81,8.81,0,0,1,7.79,0L313,272.73c2.13,1.25,2.13,3.26,0,4.5l-10.61,6.15a8.68,8.68,0,0,1-7.79,0L284,277.23C281.83,276,281.83,274,284,272.7Z" transform="translate(-0.19)"/><path class="cls-3" d="M310.18,287.88l10.63-6.15a8.56,8.56,0,0,1,7.76,0l10.64,6.17c2.16,1.24,2.16,3.22,0,4.47l-10.67,6.18a8.68,8.68,0,0,1-7.76,0l-10.63-6.14C308,291.12,308,289.11,310.18,287.88Z" transform="translate(-0.19)"/><path class="cls-3" d="M276.18,268.23l10.67-6.17c2.13-1.21,2.13-3.25,0-4.5l-10.67-6.14a8.56,8.56,0,0,0-7.76,0l-10.64,6.14c-2.16,1.25-2.16,3.26,0,4.5l10.66,6.17A8.79,8.79,0,0,0,276.18,268.23Z" transform="translate(-0.19)"/><path class="cls-3" d="M257.74,287.88l10.66-6.15a8.6,8.6,0,0,1,7.78,0l10.64,6.15c2.13,1.23,2.13,3.24,0,4.49l-10.64,6.14a8.6,8.6,0,0,1-7.78,0l-10.66-6.14C255.62,291.12,255.62,289.08,257.74,287.88Z" transform="translate(-0.19)"/><path class="cls-3" d="M284,303l10.64-6.14a8.62,8.62,0,0,1,7.79,0L313,303c2.16,1.24,2.16,3.26,0,4.47l-10.64,6.16a8.5,8.5,0,0,1-7.79,0l-10.64-6.16C281.8,306.27,281.83,304.25,284,303Z" transform="translate(-0.19)"/><path class="cls-3" d="M223.75,298.51l10.67-6.14c2.14-1.25,2.14-3.29,0-4.49l-10.67-6.18a8.5,8.5,0,0,0-7.76,0l-10.63,6.14c-2.14,1.24-2.17,3.26,0,4.5L216,298.51A8.56,8.56,0,0,0,223.75,298.51Z" transform="translate(-0.19)"/><path class="cls-3" d="M250,283.38l10.68-6.15c2.12-1.24,2.12-3.25,0-4.53L250,266.56a8.75,8.75,0,0,0-7.79,0l-10.65,6.14c-2.13,1.24-2.13,3.26,0,4.5l10.65,6.18A8.73,8.73,0,0,0,250,283.38Z" transform="translate(-0.19)"/><path class="cls-3" d="M231.56,303l10.65-6.14a8.54,8.54,0,0,1,7.75,0L260.64,303c2.12,1.24,2.12,3.26,0,4.5L250,313.65a8.6,8.6,0,0,1-7.78,0l-10.64-6.14C229.41,306.27,229.41,304.25,231.56,303Z" transform="translate(-0.19)"/><path class="cls-3" d="M257.74,318.15,268.4,312a8.6,8.6,0,0,1,7.78,0l10.64,6.16c2.13,1.25,2.13,3.27,0,4.48l-10.61,6.17a8.68,8.68,0,0,1-7.82,0l-10.62-6.17C255.62,321.41,255.62,319.42,257.74,318.15Z" transform="translate(-0.19)"/><path class="cls-1" d="M184.83,482.63V469.77h-.21c-6.7.09-13-.92-18.86-4.21L19.54,381c-3.38-2.05-5.89-4.27-7-8.14v12.86c1.15,3.89,3.66,6.08,7,8.17l146.22,84.57c5.91,3.26,12.16,4.3,18.86,4.18Z" transform="translate(-0.19)"/><path class="cls-2" d="M4.24,325.66l5-3.06-.09-4.44-4.34-2.37a5.88,5.88,0,0,1-3.1-5.11l0-2.28a2.52,2.52,0,0,1,1.22-2.25l131-79.37a2.54,2.54,0,0,1,2.57,0L217.3,271.1c3.69,2,7.3,3.68,10.52,6.34a29,29,0,0,1,9.1,16.17c.55,4.3.33,8.63-3.65,11.25l-131,79.35-.5.19a6.73,6.73,0,0,1-3.2.59c-3.5-.16-9.15-3.93-11.88-5.42L6.12,335.32A5.79,5.79,0,0,1,3,330.2l0-2.27a2.46,2.46,0,0,1,1.22-2.24Z" transform="translate(-0.19)"/><path class="cls-4" d="M5.31,332.31a4.32,4.32,0,0,0,1.62,1.52l80.56,44.24c.54.29,1.17.67,1.86,1.08,2.74,1.6,6.87,4,9.28,4.13a5,5,0,0,0,2.4-.44l.63-.22L232.39,303.4c2.64-1.75,3.49-4.52,2.84-9.58a26.89,26.89,0,0,0-8.59-15.12,45,45,0,0,0-7.82-4.85l-2.34-1.25-80.77-44.36c-.39-.19-.48-.18-1,.06L3.82,307.61a.82.82,0,0,0-.41.76l0,2.26a4.11,4.11,0,0,0,2.22,3.65L10,316.67a1.66,1.66,0,0,1,.89,1.47l.1,4.43a1.71,1.71,0,0,1-.82,1.5l-5.09,3.09a.79.79,0,0,0-.42.74l.06,2.27a4.26,4.26,0,0,0,.59,2.14Zm229.44-49.08a30.5,30.5,0,0,1,3.85,10c.56,4.41.57,9.75-4.4,13L102.33,386a8.18,8.18,0,0,1-3.86.7c-3.25-.16-7.64-2.73-10.83-4.61-.68-.39-1.29-.75-1.79-1L5.29,336.81a7.42,7.42,0,0,1-4-6.57L1.26,328a4.18,4.18,0,0,1,2-3.74l4.25-2.58,0-2.46L4,317.28a7.49,7.49,0,0,1-4-6.57l0-2.28a4.18,4.18,0,0,1,2.05-3.73l131-79.37a4.26,4.26,0,0,1,4.17-.15l83.17,45.65a47.83,47.83,0,0,1,8.49,5.31A33.21,33.21,0,0,1,234.75,283.23Z" transform="translate(-0.19)"/><polygon class="cls-1" points="25.93 317.1 15.88 311.57 150.72 229.9 160.79 235.42 25.93 317.1"/><path class="cls-4" d="M26.07,315.12l131.48-79.63-6.6-3.63L19.48,311.49l6.59,3.63Zm136.36-80.58a1.58,1.58,0,0,1,.23.84,1.68,1.68,0,0,1-.8,1.49L27,318.55a1.65,1.65,0,0,1-1.69,0l-10.06-5.53a1.7,1.7,0,0,1-.88-1.45,1.67,1.67,0,0,1,.82-1.49L150,228.44a1.69,1.69,0,0,1,1.71,0l10.05,5.52A1.69,1.69,0,0,1,162.43,234.54Z" transform="translate(-0.19)"/><path class="cls-1" d="M73.6,372.24l155.12-93.95a29.79,29.79,0,0,1,7.93,14c.91,4.61,1,9.73-3.38,12.61l-131,79.35-.5.19c-4.41,2-9.28-1.64-13-3.68C83.66,377.92,78.63,375.15,73.6,372.24Z" transform="translate(-0.19)"/><path class="cls-4" d="M77,372.21c4.19,2.37,8.38,4.69,12.63,7,.56.31,1.16.66,1.77,1,3.16,1.85,6.73,3.94,9.67,2.59l.63-.22L232.39,303.4c2.88-1.89,3.68-5.24,2.59-10.83a28.85,28.85,0,0,0-6.52-12.12L77,372.21Zm157.58-89.36a33.63,33.63,0,0,1,3.76,9c.53,2.64,2.06,10.41-4.1,14.46L102.33,386c-4.43,2.05-9-.64-12.7-2.8-.58-.35-1.14-.69-1.69-1-5.12-2.81-10.15-5.59-15.21-8.48a1.71,1.71,0,0,1,0-2.95l155.13-94a1.7,1.7,0,0,1,2,.2A26.71,26.71,0,0,1,234.54,282.85Z" transform="translate(-0.19)"/><path class="cls-2" d="M93.24,373.1l-43-23.64h0L6.8,325.6l-.32-.14a1.5,1.5,0,0,0-.32-.1,1.65,1.65,0,0,0-.32-.06h0a1.77,1.77,0,0,0-.32,0h0a1.22,1.22,0,0,0-.33,0h0c-.1,0-.21,0-.32.08a1.05,1.05,0,0,0-.31.12.68.68,0,0,0-.27.13l8.84-5.36L92.66,364c2.5,1.39,4.86,3.83,4.93,6.92,0,2.55-2.78,3.06-4,2.4s-.27-.16-.39-.25Z" transform="translate(-0.19)"/><path class="cls-4" d="M94.26,371.7l.19.09a1.5,1.5,0,0,0,1.12-.15.73.73,0,0,0,.31-.72c-.06-3-3.11-4.94-4-5.46l-78.67-43.2-4.24,2.57,84.76,46.56a1.11,1.11,0,0,1,.21.08h0a1.43,1.43,0,0,1,.27.15.16.16,0,0,1,.1.08Zm3.78-5a8.4,8.4,0,0,1,1.25,4.17,4.09,4.09,0,0,1-2,3.71,4.72,4.72,0,0,1-4.5.22l-.2-.13a.42.42,0,0,1-.2-.08L6,327.1c-.08,0-.34-.11-.43-.11A2,2,0,0,1,3,326.43H3a1.57,1.57,0,0,1,.35-2.25l8.84-5.35a1.71,1.71,0,0,1,1.71,0l79.54,43.69A12.22,12.22,0,0,1,98,366.69Z" transform="translate(-0.19)"/><path class="cls-2" d="M72.72,343l17,9.35c3.42,1.87,5.45,2.76,8.28,5.58,4.66,4.64,8,11.47,8.15,17.7.12,6-3.22,9.77-8,9.33-3.19-.29-8-3.48-10.59-4.89L6.14,335.31A5.89,5.89,0,0,1,3,330.19l0-2.28a2.49,2.49,0,0,1,1.24-2.25,2.5,2.5,0,0,1,2.56-.06Q45.74,347,84.72,368.42L93.19,373a3,3,0,0,0,3.89-.5,2.5,2.5,0,0,0,.51-1.65c-.07-3.09-2.43-5.53-4.93-6.92L4.88,315.76a5.87,5.87,0,0,1-3.09-5.1l-.05-2.28A2.51,2.51,0,0,1,3,306.12a2.54,2.54,0,0,1,2.57-.05Z" transform="translate(-0.19)"/><path class="cls-4" d="M5.35,332.29A4.4,4.4,0,0,0,7,333.81l81.47,44.74c.51.27,1.1.63,1.75,1,2.37,1.4,6,3.5,8.18,3.7a5,5,0,0,0,3.95-1.27c1.45-1.34,2.21-3.58,2.15-6.33-.11-5.54-3.11-12-7.65-16.54a23.47,23.47,0,0,0-6.51-4.53L71.9,344.48h0L4.72,307.56a.81.81,0,0,0-.85,0,.84.84,0,0,0-.42.77l0,2.26a4.16,4.16,0,0,0,2.21,3.65l87.78,48.21c3.57,2,5.75,5.1,5.81,8.39a4.18,4.18,0,0,1-.86,2.73,4.64,4.64,0,0,1-6.05,1l-8.48-4.66q-27.36-15-54.69-30L6,327.1a.77.77,0,0,0-.85,0,.8.8,0,0,0-.43.75l0,2.27a4.27,4.27,0,0,0,.6,2.14Zm98.45,30.23a26.91,26.91,0,0,1,4.08,13.05c.08,3.74-1.07,6.9-3.23,8.92a8.39,8.39,0,0,1-6.58,2.15c-3-.26-6.8-2.5-9.59-4.14l-1.69-.95L5.32,336.78a7.43,7.43,0,0,1-4-6.55L1.3,328a4.22,4.22,0,0,1,2.05-3.76,4.3,4.3,0,0,1,4.28-.09l23.24,12.79q27.33,15,54.67,30L94,371.54c.69.39,1.38.38,1.71,0a1,1,0,0,0,.16-.57c-.09-3.06-3.12-5-4.06-5.48L4.07,317.26a7.5,7.5,0,0,1-4-6.59l0-2.26a4.19,4.19,0,0,1,2.06-3.74,4.19,4.19,0,0,1,4.26-.09l85.58,47a26.57,26.57,0,0,1,7.3,5.12A30.89,30.89,0,0,1,103.8,362.52Z" transform="translate(-0.19)"/><path class="cls-3" d="M9.23,318.14l.09,4.44,88.27,48.53v-.22c0-3.09-2.43-5.53-4.93-6.92Z" transform="translate(-0.19)"/><path class="cls-4" d="M11,321.56l83.23,45.76a10.28,10.28,0,0,0-2.41-1.86L11,321.06l0,.5Zm87.06,45.15a8,8,0,0,1,1.22,4.18,1.82,1.82,0,0,1-.83,1.57,1.71,1.71,0,0,1-1.69.15L8.5,324.09a1.75,1.75,0,0,1-.89-1.47l-.09-4.44a1.72,1.72,0,0,1,2.53-1.54l83.43,45.83A12.29,12.29,0,0,1,98.07,366.71Z" transform="translate(-0.19)"/><polygon class="cls-1" points="16.56 344.6 26.62 350.12 25.93 317.1 15.88 311.57 16.56 344.6"/><path class="cls-4" d="M25.05,347.2l-.61-29.09-6.61-3.62.61,29.09,6.61,3.62Zm2.53-31a1.61,1.61,0,0,1,.24.84l.69,33.05A1.7,1.7,0,0,1,26,351.62l-10-5.52a1.74,1.74,0,0,1-.89-1.46l-.69-33a1.71,1.71,0,0,1,2.52-1.53l10.06,5.52A1.73,1.73,0,0,1,27.58,316.21Z" transform="translate(-0.19)"/></g></g></svg>