<svg xmlns="http://www.w3.org/2000/svg" viewBox="0 0 1622.16 553"><defs><style>.cls-1{isolation:isolate;}.cls-2{mix-blend-mode:screen;}.cls-3{fill:#3aa1ff;}.cls-4{fill:#003d87;}.cls-5{fill:#0072c8;}</style></defs><g class="cls-1"><g id="Layer_2" data-name="Layer 2"><g id="Layer_1-2" data-name="Layer 1"><g class="cls-2"><circle class="cls-3" cx="325.91" cy="193.24" r="7.71"/><circle class="cls-4" cx="7.71" cy="339.14" r="7.71"/><circle class="cls-4" cx="195.68" cy="246.49" r="7.71"/><circle class="cls-4" cx="252.52" cy="269.52" r="7.71"/><circle class="cls-4" cx="187.96" cy="339.14" r="7.71"/><circle class="cls-4" cx="192.65" cy="460.73" r="10.65" transform="translate(-300.09 541.92) rotate(-76.67)"/><circle class="cls-5" cx="289.58" cy="420.93" r="10.65" transform="translate(-212.82 328.05) rotate(-45)"/><circle class="cls-5" cx="256.31" cy="339.14" r="7.71"/><circle class="cls-5" cx="127.88" cy="460.73" r="10.65" transform="translate(-288.33 225.37) rotate(-45)"/><circle class="cls-5" cx="318.2" cy="361.62" r="7.71"/><circle class="cls-3" cx="192.65" cy="545.28" r="7.71"/><circle class="cls-5" cx="313.2" cy="266.85" r="10.65" transform="translate(-18.69 510.07) rotate(-76.67)"/><circle class="cls-5" cx="195.68" cy="166.07" r="10.65" transform="translate(0.34 332.53) rotate(-80.76)"/><circle class="cls-5" cx="130.75" cy="278.33" r="10.65" transform="translate(-155.56 166.12) rotate(-43.44)"/><rect class="cls-5" x="191.45" y="397.19" width="2.39" height="34.75"/><rect class="cls-4" x="291.17" y="317.29" width="2.39" height="29.46"/><rect class="cls-5" x="27.25" y="337.94" width="61.12" height="2.39"/><rect class="cls-3" x="317" y="375.04" width="2.39" height="29.41"/><rect class="cls-3" x="96.64" y="324.43" width="2.39" height="29.41"/><rect class="cls-3" x="191.45" y="485.95" width="2.39" height="23.67"/><rect class="cls-3" x="276.44" y="360.43" width="23.68" height="2.39"/><rect class="cls-4" x="194.48" y="189.36" width="2.39" height="23.67"/><rect class="cls-5" x="280.63" y="306.69" width="23.48" height="2.39"/><rect class="cls-3" x="214.14" y="337.94" width="23.67" height="2.39"/><rect class="cls-4" x="108.27" y="337.94" width="54.39" height="2.39"/><rect class="cls-5" x="306.63" y="419.73" width="25.14" height="2.39"/><rect class="cls-5" x="143.5" y="459.53" width="16.39" height="2.39"/><rect class="cls-5" x="184.45" y="522.4" width="16.39" height="2.39"/><rect class="cls-5" x="312.01" y="297.54" width="2.39" height="16.39"/><path class="cls-3" d="M400.08,430.74a23.19,23.19,0,0,0-20.74,12.69L370,461.82a20.3,20.3,0,0,1-18.14,11.1H322.27v2.39h29.54a22.67,22.67,0,0,0,20.27-12.4l9.4-18.39a20.78,20.78,0,0,1,18.6-11.38h14.74v-2.4Z"/><path class="cls-4" d="M266.08,472.92a16.21,16.21,0,0,1-16.19-16.19V438.31a16.21,16.21,0,0,1,16.19-16.19h7.7v-2.39h-7.7a18.6,18.6,0,0,0-18.58,18.58v18.42a18.6,18.6,0,0,0,18.58,18.58h47.33v-2.39Z"/><path class="cls-3" d="M272.48,309.09h-4A17.16,17.16,0,0,1,251.32,292V281.36h2.39V292a14.76,14.76,0,0,0,14.75,14.74h4Z"/><rect class="cls-3" x="162.66" y="209.34" width="23.42" height="2.39"/><path class="cls-4" d="M374.86,208.69h-2.4V206.3a11.87,11.87,0,0,0-11.86-11.86H341.82V192H360.6a14.28,14.28,0,0,1,14.26,14.26Z"/><path class="cls-5" d="M193.84,386.54h-2.39v-4.86a21.27,21.27,0,0,1,21.25-21.25H264v2.39H212.7a18.88,18.88,0,0,0-18.86,18.86Z"/></g><g class="cls-2"><circle class="cls-3" cx="1296.25" cy="359.76" r="7.71"/><circle class="cls-4" cx="1614.44" cy="213.86" r="7.71"/><circle class="cls-4" cx="1426.48" cy="306.51" r="7.71"/><circle class="cls-4" cx="1369.64" cy="283.48" r="7.71"/><circle class="cls-4" cx="1434.19" cy="213.86" r="7.71"/><circle class="cls-4" cx="1429.51" cy="92.27" r="10.65" transform="translate(1010.04 1461.96) rotate(-76.67)"/><circle class="cls-5" cx="1332.57" cy="132.07" r="10.65" transform="translate(296.91 980.96) rotate(-45)"/><circle class="cls-5" cx="1365.85" cy="213.86" r="7.71"/><circle class="cls-5" cx="1494.28" cy="92.27" r="10.65" transform="translate(372.42 1083.64) rotate(-45)"/><circle class="cls-5" cx="1303.96" cy="191.37" r="7.71"/><circle class="cls-3" cx="1429.51" cy="7.71" r="7.71"/><circle class="cls-5" cx="1308.95" cy="286.15" r="10.65" transform="translate(728.63 1493.82) rotate(-76.67)"/><circle class="cls-5" cx="1426.48" cy="386.93" r="10.65" transform="translate(815.44 1732.74) rotate(-80.76)"/><circle class="cls-5" cx="1491.41" cy="274.67" r="10.65" transform="translate(219.59 1100.63) rotate(-43.44)"/><rect class="cls-5" x="1428.31" y="121.06" width="2.39" height="34.75"/><rect class="cls-4" x="1328.59" y="206.25" width="2.39" height="29.46"/><rect class="cls-5" x="1533.79" y="212.66" width="61.12" height="2.39"/><rect class="cls-3" x="1302.76" y="148.55" width="2.39" height="29.41"/><rect class="cls-3" x="1523.12" y="199.16" width="2.39" height="29.41"/><rect class="cls-3" x="1428.31" y="43.37" width="2.39" height="23.67"/><rect class="cls-3" x="1322.05" y="190.18" width="23.68" height="2.39"/><rect class="cls-4" x="1425.28" y="339.97" width="2.39" height="23.67"/><rect class="cls-5" x="1318.05" y="243.91" width="23.48" height="2.39"/><rect class="cls-3" x="1384.34" y="212.66" width="23.67" height="2.39"/><rect class="cls-4" x="1459.5" y="212.66" width="54.39" height="2.39"/><rect class="cls-5" x="1290.38" y="130.88" width="25.14" height="2.39"/><rect class="cls-5" x="1462.27" y="91.07" width="16.39" height="2.39"/><rect class="cls-5" x="1421.32" y="28.2" width="16.39" height="2.39"/><rect class="cls-5" x="1307.76" y="239.07" width="2.39" height="16.39"/><path class="cls-3" d="M1222.08,122.26a23.17,23.17,0,0,0,20.73-12.69l9.4-18.39a20.28,20.28,0,0,1,18.14-11.1h29.54v-2.4h-29.54a22.68,22.68,0,0,0-20.27,12.41l-9.4,18.39a20.8,20.8,0,0,1-18.6,11.38h-14.75v2.4Z"/><path class="cls-4" d="M1356.08,80.08a16.2,16.2,0,0,1,16.18,16.19v18.42a16.21,16.21,0,0,1-16.18,16.19h-7.7v2.39h7.7a18.61,18.61,0,0,0,18.58-18.58V96.27a18.61,18.61,0,0,0-18.58-18.59h-47.33v2.4Z"/><path class="cls-3" d="M1349.68,243.91h4a17.16,17.16,0,0,1,17.14,17.14v10.59h-2.4V261.05a14.75,14.75,0,0,0-14.74-14.74h-4Z"/><rect class="cls-3" x="1436.08" y="341.27" width="23.42" height="2.39"/><path class="cls-4" d="M1247.3,344.31h2.4v2.39a11.87,11.87,0,0,0,11.86,11.86h18.78V361h-18.78a14.27,14.27,0,0,1-14.26-14.25Z"/><path class="cls-5" d="M1428.31,166.45h2.4v4.87a21.27,21.27,0,0,1-21.25,21.25h-51.33v-2.39h51.33a18.87,18.87,0,0,0,18.85-18.86Z"/></g></g></g></g></svg>