<svg xmlns="http://www.w3.org/2000/svg" viewBox="0 0 433.97 524.27"><defs><style>.cls-1{fill:#9aceef;}.cls-1,.cls-2,.cls-3{stroke:#0072c8;stroke-linecap:round;stroke-linejoin:round;stroke-width:0.75px;fill-rule:evenodd;}.cls-2{fill:#d9e8ff;}.cls-3{fill:#fff;}</style></defs><g id="Layer_2" data-name="Layer 2"><g id="Layer_1-2" data-name="Layer 1"><path class="cls-1" d="M215.46,317.15c0,9.2-.61,14.46,4.54,22.57C233.31,359,263.86,366,285.65,366.26c22.08.27,51.73-5.87,66.56-23.35a28.65,28.65,0,0,0,7.26-17.37V317c-.6,7.68-3.63,13.49-8.77,19.15C334.06,353.61,302.29,359,279,357.39c-20-1.38-46.9-8.77-59-26.26A28.67,28.67,0,0,1,215.46,317.15Z"/><path class="cls-1" d="M323.47,352.07c34.49-11.47,46.29-36.94,26.31-56.84S285.65,268.48,251.46,280C217,291.48,204.87,317,224.84,336.85S289,363.59,323.47,352.07Z"/><polygon class="cls-1" points="328.01 330.11 337.69 324.51 337.69 297.91 328.01 303.51 328.01 330.11"/><polygon class="cls-2" points="328.01 303.51 263.57 266.33 263.57 292.92 328.01 330.11 328.01 303.51"/><path class="cls-2" d="M419.37,357l9.08-5.3c4.23-3.53,4.53-5.74,5.15-11.18V172c-1.21-12.57-6.66-22.67-17.56-30.08L174.92,2.67c-5.14-2.3-7.26-3.18-12.41-1.18l-9.07,5.26c5.15-2,7.26-1.09,12.1,1.18L407,147.19c10.9,7.41,16.35,17.09,17.56,30V345.75C423.91,351.19,423.61,353.4,419.37,357Z"/><path class="cls-2" d="M407,147.19,165.54,7.93c-9.38-5.5-17.24-1-17.24,10V186.46c0,11,7.86,24.57,17.54,30.07L407.27,355.79c9.38,5.51,17.25,1,17.25-10V177.23C424.52,166.21,416.65,152.69,407,147.19Z"/><path class="cls-1" d="M418.47,158.83l9.07-5.26C431.48,159.48,433,165,433.6,172V340.49c-.62,5.44-.92,7.65-5.15,11.18l-9.08,5.3c4.24-3.57,4.54-5.78,5.15-11.22V177.23C423.91,170.33,422.4,164.77,418.47,158.83Z"/><path class="cls-1" d="M.67,347.33v10.95c.91,3.27,3,5.17,6.05,6.9l202.1,116.66c8.78,4.81,21.18,4.78,30,0l69-40.12c3-1.72,5.14-3.63,6.05-6.89V423.9c-.91,3.27-3,5.18-6.05,6.9l-69,40.12c-8.77,4.81-21.17,4.81-30,0L6.72,354.26C3.69,352.53,1.58,350.62.67,347.33Z"/><path class="cls-2" d="M307.76,413.47,106,296.77c-8.47-4.74-21.79-4.72-30.26,0l-69,40.11c-8.46,4.75-8.46,12.56,0,17.34l202.1,116.66c8.17,4.75,21.48,4.75,30,0l69-40.12C316.23,426,316.23,418.24,307.76,413.47Z"/><path class="cls-3" d="M212.45,405.66l-10-5.84a8.54,8.54,0,0,0-7.57,0l-10,5.84c-2.12,1.18-2.12,3.11,0,4.27l10,5.87a8.81,8.81,0,0,0,7.57,0l10-5.87C214.57,408.74,214.57,406.84,212.45,405.66Z"/><path class="cls-3" d="M252.08,428.59l10.29,5.84c1.82,1.18,1.82,3.08,0,4.27l-10.29,5.84a7.76,7.76,0,0,1-7.26,0l-10-5.82c-2.12-1.17-2.12-3.07,0-4.29l10-5.84A7.88,7.88,0,0,1,252.08,428.59Z"/><path class="cls-3" d="M227.27,443l10.29,5.84a2.38,2.38,0,0,1,0,4.3L227.27,459a7.92,7.92,0,0,1-7.25,0l-10.29-5.84c-1.82-1.18-1.82-3.12,0-4.27L220,443A7.86,7.86,0,0,1,227.27,443Z"/><path class="cls-3" d="M244.82,415.76l-10-5.83c-2.12-1.19-2.12-3.09,0-4.27l10-5.87a7.88,7.88,0,0,1,7.26,0l10.29,5.87c1.82,1.15,1.82,3,0,4.27l-10.29,5.83A7.88,7.88,0,0,1,244.82,415.76Z"/><path class="cls-3" d="M219.71,401.39l-10-5.87c-2.12-1.17-2.12-3.08,0-4.26l10-5.84a8.52,8.52,0,0,1,7.56,0l10.29,5.84c1.81,1.15,1.81,3.09,0,4.26l-10.29,5.87A8.65,8.65,0,0,1,219.71,401.39Z"/><path class="cls-3" d="M259.65,424.3l10,5.86a8.45,8.45,0,0,0,7.56,0l10-5.86c2.11-1.19,2.11-3.09,0-4.27l-10-5.84a8.52,8.52,0,0,0-7.56,0l-10,5.84C257.53,421.21,257.53,423.15,259.65,424.3Z"/><path class="cls-3" d="M237.56,420l-10.29-5.84a8.61,8.61,0,0,0-7.56,0l-10,5.87c-2.12,1.18-2.12,3.09,0,4.27l10,5.83a8.45,8.45,0,0,0,7.56,0l10.29-5.83A2.38,2.38,0,0,0,237.56,420Z"/><path class="cls-3" d="M162.53,376.89l-10-5.87a8.52,8.52,0,0,0-7.56,0l-10,5.87c-2.11,1.18-2.11,3.08,0,4.27L145.29,387a7.82,7.82,0,0,0,7.26,0l10-5.83C164.65,380,164.65,378,162.53,376.89Z"/><path class="cls-3" d="M137.72,391.29l-10-5.87a8.61,8.61,0,0,0-7.56,0l-10,5.84c-2.11,1.18-2.11,3.08,0,4.27l10,5.83a8.52,8.52,0,0,0,7.56,0l10-5.83C139.84,394.37,139.84,392.47,137.72,391.29Z"/><path class="cls-3" d="M194.9,387l-10-5.83c-2.12-1.21-2.12-3.12,0-4.3l10-5.84a7.88,7.88,0,0,1,7.26,0l10.29,5.84c2.12,1.18,2.12,3.09,0,4.26l-10,5.87A8.67,8.67,0,0,1,194.9,387Z"/><path class="cls-3" d="M170.1,372.59l-10.29-5.83c-1.82-1.19-1.82-3.13,0-4.27l10.29-5.84a8,8,0,0,1,7.25,0l10.29,5.83c1.82,1.18,1.82,3.12,0,4.31l-10.29,5.83A7.87,7.87,0,0,1,170.1,372.59Z"/><path class="cls-3" d="M187.64,391.26l-10.29-5.84a7.87,7.87,0,0,0-7.25,0l-10.29,5.87c-1.82,1.18-1.82,3.08,0,4.27l10.29,5.83a7.87,7.87,0,0,0,7.25,0l10.29-5.83C189.76,394.35,189.76,392.44,187.64,391.26Z"/><path class="cls-3" d="M212.45,434.43l-59.9-34.61a7.88,7.88,0,0,0-7.26,0L135,405.66c-2.11,1.21-2.11,3.11,0,4.3l59.9,34.6a8.54,8.54,0,0,0,7.57,0l10-5.84C214.57,437.55,214.57,435.65,212.45,434.43Z"/><path class="cls-3" d="M79.94,329l-10.28-5.85a8,8,0,0,0-7.27,0L52.11,329c-2.13,1.16-2.13,3.09,0,4.27l10.28,5.85a7.9,7.9,0,0,0,7.27,0l10.28-5.87C81.75,332.09,81.75,330.18,79.94,329Z"/><path class="cls-3" d="M54.83,343.4l-10-5.84a8.54,8.54,0,0,0-7.57,0l-10,5.87c-2.12,1.18-2.12,3.08,0,4.26l10,5.85a8.6,8.6,0,0,0,7.57,0l10-5.85C56.94,346.48,56.94,344.61,54.83,343.4Z"/><path class="cls-3" d="M87.2,324.73l-10-5.84c-2.12-1.18-2.12-3.11,0-4.27l10-5.87a7.88,7.88,0,0,1,7.26,0l10.28,5.84c2.13,1.19,2.13,3.12,0,4.3l-10.28,5.84A7.88,7.88,0,0,1,87.2,324.73Z"/><path class="cls-3" d="M104.74,343.4l-10.28-5.84a7.88,7.88,0,0,0-7.26,0l-10,5.84c-2.12,1.21-2.12,3.08,0,4.29l10,5.81a7.71,7.71,0,0,0,7.26,0l10.28-5.84C106.87,346.48,106.87,344.57,104.74,343.4Z"/><path class="cls-3" d="M79.94,357.8,69.66,352a7.84,7.84,0,0,0-7.27,0L52.11,357.8c-2.13,1.18-2.13,3.11,0,4.29l10.28,5.85a7.9,7.9,0,0,0,7.27,0l10.28-5.87C81.75,360.91,81.75,359,79.94,357.8Z"/><path class="cls-3" d="M137.12,353.5l-10.28-5.84c-1.82-1.18-1.82-3.09,0-4.26l10.28-5.87a8,8,0,0,1,7.26,0l10.29,5.87c1.8,1.14,1.8,3.08,0,4.26l-10.29,5.84A7.88,7.88,0,0,1,137.12,353.5Z"/><path class="cls-3" d="M112.31,339.14,102,333.27c-2.12-1.18-2.12-3.09,0-4.27l10-5.85a8.58,8.58,0,0,1,7.56,0l10,5.85c2.12,1.18,2.12,3.09,0,4.27l-10,5.87A8.13,8.13,0,0,1,112.31,339.14Z"/><path class="cls-3" d="M129.56,357.8l-10-5.84a7.82,7.82,0,0,0-7.26,0L102,357.8c-2.12,1.18-2.12,3.11,0,4.27l10.29,5.87a8,8,0,0,0,7.26,0l10-5.83C131.68,360.89,131.68,359,129.56,357.8Z"/><path class="cls-3" d="M104.74,372.2l-10.28-5.84a7.88,7.88,0,0,0-7.26,0l-10,5.84c-2.12,1.18-2.12,3.09,0,4.27l10,5.83a7.71,7.71,0,0,0,7.26,0l10.28-5.83C106.87,375.29,106.87,373.38,104.74,372.2Z"/><path class="cls-3" d="M405.76,160.44,167.06,22.6c-4.55-2.48-7.87-.45-7.87,4.52V189.4c0,4.95,3.32,11,7.87,13.46l239,137.84c4.24,2.45,7.57.45,7.57-4.51V173.93C413.63,168.94,410,162.89,405.76,160.44Z"/><path class="cls-1" d="M383.35,459.49c2.68,5.2,3.58,19.75-1.49,27.2-14.88,21.72-75.58,49.79-101.77,31.07a23.14,23.14,0,0,1-8.92-12.34c-1.79-6.45-.3-13,.89-17.58,1.78,8.44,7.74,13.46,15.17,17.09,44.94,14.37,49.7-14.55,85.11-28.26C379.19,471.47,382.16,468.56,383.35,459.49Z"/><path class="cls-2" d="M385.44,467.12c1.78,23.55-27.68,14.21-40.18,30.67C331,516.43,295,522.87,277.42,508a16.54,16.54,0,0,1-6.25-15.1c.29-5,2.67-10.23,5.66-15.41,8-12.76,21.72-27.28,40.47-35.64,9.22-4.17,16.95-6.62,25.59-5.65C358.35,437.91,384,449.89,385.44,467.12Z"/><path class="cls-1" d="M330.69,467.48a4.12,4.12,0,0,0,2.38-.92,81,81,0,0,1,34.8-18.73,3.48,3.48,0,0,0,2.39-4.35,3.35,3.35,0,0,0-4.17-2.54A91.19,91.19,0,0,0,328.3,461.2a3.66,3.66,0,0,0-.3,5A4,4,0,0,0,330.69,467.48Z"/><path class="cls-3" d="M340.22,460.58a3.57,3.57,0,0,0,3.63-2.85c.31-2,2.72-4.3,5.74-5.81,3.33-1.75,6.36-1.88,7.56-1.3a3.58,3.58,0,1,0,3-6.48c-3.93-1.66-9.07-1.11-13.91,1.43-5.14,2.54-8.47,6.56-9.38,10.71a3.27,3.27,0,0,0,2.72,4.2A1.81,1.81,0,0,0,340.22,460.58Z"/><polygon class="cls-3" points="376.11 181.56 196.7 78 196.7 201.65 376.11 305.21 376.11 181.56"/><polygon class="cls-2" points="376.11 181.56 196.7 78 196.7 60.18 376.11 163.75 376.11 181.56"/></g></g></svg>