<svg xmlns="http://www.w3.org/2000/svg" viewBox="0 0 228.32 228.32"><defs><style>.cls-1{fill:#3378c6;opacity:0.3;}.cls-2{fill:#9aceef;}.cls-2,.cls-4,.cls-5{stroke:#0072c8;stroke-linecap:round;stroke-linejoin:round;stroke-width:0.75px;}.cls-2,.cls-3,.cls-4,.cls-5{fill-rule:evenodd;}.cls-3{fill:none;}.cls-4{fill:#fff;}.cls-5{fill:#d9e8ff;}</style></defs><g id="Layer_2" data-name="Layer 2"><g id="Layer_1-2" data-name="Layer 1"><circle class="cls-1" cx="114.16" cy="114.16" r="114.16"/><path class="cls-2" d="M49.42,205.35l-4.58-2.65c-2.13-1.8-2.24-2.92-2.58-5.65l.11-88.23A19.06,19.06,0,0,1,51.1,93.68L172.75,23.53c2.46-1.16,3.47-1.61,6.15-.6l4.59,2.66c-2.69-1-3.69-.56-6.15.59L55.69,96.33A19.27,19.27,0,0,0,47,111.47l-.11,88.23C47.19,202.45,47.3,203.57,49.42,205.35Z"/><path class="cls-3" d="M176.44,23.67a7.61,7.61,0,0,0-3.13,1L51.77,94.82a18,18,0,0,0-8.17,14.12v88.11c.23,2.46.34,3.16,2.13,4.63l.11.06a9.83,9.83,0,0,1-.22-1.91V111.47a20.58,20.58,0,0,1,9.29-16.22L176.66,25c.68-.31,1.23-.59,1.79-.8l-.22-.16a5.58,5.58,0,0,0-1.79-.4Zm-127,183a.82.82,0,0,1-.56-.18l-4.7-2.66c-2.68-2.19-2.91-3.7-3.13-6.67V108.82A20.58,20.58,0,0,1,50.32,92.6L172.08,22.38c2.79-1.29,4.14-1.84,7.27-.68l4.81,2.74a1.28,1.28,0,0,1,.45,1.7,1.21,1.21,0,0,1-1.57.67c-2.24-.81-2.8-.52-5.26.57L56.36,97.47a17.58,17.58,0,0,0-8.06,14.11l-.11,88.12c.23,2.48.34,3.17,2.13,4.64a1.33,1.33,0,0,1-.9,2.33Z"/><path class="cls-4" d="M56.36,103l120.3-69.43c2.13-1.25,3.92-.23,3.92,2.28V117.6a8.78,8.78,0,0,1-3.92,6.79L56.25,193.81c-2.13,1.25-3.92.23-3.92-2.27V109.8A8.6,8.6,0,0,1,56.36,103Z"/><path class="cls-3" d="M56.92,104.14a7.6,7.6,0,0,0-3.25,5.66v81.74c0,.7.12,1.23.45,1.4a1.6,1.6,0,0,0,1.46-.26L176,123.25a7.29,7.29,0,0,0,3.25-5.65V35.85c0-.71-.12-1.23-.45-1.41a1.54,1.54,0,0,0-1.45.28L56.92,104.14Zm-2.46,91.51a3.51,3.51,0,0,1-1.68-.44,4,4,0,0,1-1.68-3.67V109.8a10,10,0,0,1,4.59-7.94h0L176,32.43a4.21,4.21,0,0,1,4.14-.27,4.12,4.12,0,0,1,1.79,3.69V117.6a10.11,10.11,0,0,1-4.7,7.93L56.92,195A4.9,4.9,0,0,1,54.46,195.65Z"/><path class="cls-5" d="M56.36,103a8.62,8.62,0,0,0-4,6.8v81.74c0,2.5,1.79,3.52,3.92,2.27l120.41-69.42a8.78,8.78,0,0,0,3.92-6.79V35.85c0-2.51-1.79-3.53-3.92-2.28L56.36,103Zm-.67-6.67L177.34,26.18c4.81-2.78,8.72-.5,8.72,5.06L186,119.46c0,5.55-3.92,12.37-8.73,15.14L55.69,204.75c-4.81,2.77-8.84.5-8.84-5.05L47,111.47c0-5.56,3.92-12.36,8.73-15.14Z"/><path class="cls-3" d="M56.92,104.14a7.6,7.6,0,0,0-3.25,5.66v81.74c0,.7.12,1.23.45,1.4a1.6,1.6,0,0,0,1.46-.26L176,123.25a7.29,7.29,0,0,0,3.25-5.65V35.85c0-.71-.12-1.23-.45-1.41a1.57,1.57,0,0,0-1.45.28L56.92,104.14Zm-2.46,91.51a3.51,3.51,0,0,1-1.68-.44,4,4,0,0,1-1.68-3.67V109.8a10,10,0,0,1,4.59-7.94h0L176,32.43a3.7,3.7,0,0,1,5.93,3.42V117.6a10.11,10.11,0,0,1-4.7,7.93L56.92,195a4.9,4.9,0,0,1-2.46.7Zm1.9-98.18L177.89,27.32c1.91-1.1,3.7-1.31,4.93-.59s1.9,2.31,1.9,4.51v88.22c0,5.06-3.69,11.47-8.17,14L55,203.61c-1.91,1.11-3.69,1.31-4.93.6s-1.9-2.3-1.9-4.51l.11-88.23c0-5,3.59-11.47,8.06-14ZM51.77,207.26a5.51,5.51,0,0,1-2.91-.77c-2.12-1.2-3.24-3.61-3.24-6.79V111.47c0-6,4.25-13.29,9.4-16.28L176.66,25c2.69-1.58,5.37-1.79,7.39-.59s3.24,3.62,3.24,6.8v88.22c0,6-4.14,13.29-9.4,16.29L56.25,205.89A9.21,9.21,0,0,1,51.77,207.26Z"/><path class="cls-4" d="M117.46,163.09a.53.53,0,0,0-.55.06,2.88,2.88,0,0,0-.68.61,2.23,2.23,0,0,0-.22.81.68.68,0,0,0,.22.53.75.75,0,0,0,.68,0,2.87,2.87,0,0,0,.55-.62,2.07,2.07,0,0,0,.23-.81A.65.65,0,0,0,117.46,163.09Z"/><path class="cls-3" d="M116.79,164.23a1,1,0,0,0,.45.12c0-.13-.11-.28-.33-.38a.7.7,0,0,0-.56-.1c.11,0,.22.22.44.36Zm-.33,2.25a1.8,1.8,0,0,1-1.8-1.91,3.12,3.12,0,0,1,1.57-2.57,1.82,1.82,0,0,1,2.8,1.62,3.49,3.49,0,0,1-.45,1.47,3.08,3.08,0,0,1-1,1.08A2.64,2.64,0,0,1,116.46,166.48Z"/><polygon class="cls-4" points="72.36 111.83 161.44 60.4 161.44 121.8 72.36 173.22 72.36 111.83"/><path class="cls-3" d="M73.71,112.6V171L160.1,121V62.68L73.71,112.6Zm-1.34,62a1.41,1.41,0,0,1-.68-.18,1.26,1.26,0,0,1-.67-1.15V111.83a1.25,1.25,0,0,1,.67-1.14l89.09-51.43a1.33,1.33,0,0,1,1.34,0,1.52,1.52,0,0,1,.66,1.14v61.4a1.46,1.46,0,0,1-.66,1.13L73,174.37A1.37,1.37,0,0,1,72.37,174.55Z"/><polygon class="cls-5" points="72.36 111.83 161.44 60.4 161.44 51.55 72.36 102.98 72.36 111.83"/><path class="cls-3" d="M73.71,103.74v5.81L160.1,59.64V53.82L73.71,103.74Zm-1.34,9.4a1.41,1.41,0,0,1-.68-.18,1.22,1.22,0,0,1-.67-1.13V103a1.24,1.24,0,0,1,.67-1.14l89.09-51.43a1.33,1.33,0,0,1,1.34,0,1.5,1.5,0,0,1,.66,1.14V60.4a1.5,1.5,0,0,1-.66,1.14L73,113A1.37,1.37,0,0,1,72.37,113.14Z"/><path class="cls-5" d="M85.11,114.15a1.76,1.76,0,0,1-1.5-.86,1.82,1.82,0,0,1,.63-2.34l6.91-4a1.75,1.75,0,0,1,2.36.63,1.68,1.68,0,0,1-.62,2.34L86,113.91A1.72,1.72,0,0,1,85.11,114.15Z"/><path class="cls-5" d="M85.11,141.4a1.76,1.76,0,0,1-1.5-.86,1.78,1.78,0,0,1,.69-2.34l6.9-3.95a1.69,1.69,0,0,1,2.31.64,1.66,1.66,0,0,1-.62,2.33L86,141.17A1.81,1.81,0,0,1,85.11,141.4Z"/><polygon class="cls-4" points="146.69 76.91 100.57 103.55 100.57 122.11 146.69 95.47 146.69 76.91"/><polygon class="cls-4" points="146.69 104.16 100.57 130.82 100.57 149.37 146.69 122.71 146.69 104.16"/><path class="cls-5" d="M38.67,126.9l-4.22-2.44,0-40.92a8.93,8.93,0,0,1,4-7q24.36-14,48.65-28.05l1.55-.9a3,3,0,0,1,2.72-.35l-8.35-4.82a2.94,2.94,0,0,0-2.71.35l-1.59.9L30.15,71.72a8.85,8.85,0,0,0-4,7v41.15a2.86,2.86,0,0,0,1,2.52L30,124v.12a77.91,77.91,0,0,0-.59,13.22l8.35,4.82C37.69,136.85,37.65,132.18,38.67,126.9Z"/><path class="cls-3" d="M30.41,136.75l6.3,3.64a68.75,68.75,0,0,1,.83-13l-3.61-2.08a1,1,0,0,1-.49-.89V83.54A10,10,0,0,1,38,75.67l50.19-29,.15-.08L82.54,43.3a2,2,0,0,0-1.7.36L30.67,72.6a7.73,7.73,0,0,0-3.52,6.13l0,41.13a2,2,0,0,0,.64,1.7l2.74,1.57a1,1,0,0,1,.5,1.05,76.41,76.41,0,0,0-.58,12.57Zm7.33,6.46a1.13,1.13,0,0,1-.52-.14l-8.35-4.84a1,1,0,0,1-.51-.87,87.51,87.51,0,0,1,.51-12.8l-2.24-1.29a4.07,4.07,0,0,1-1.56-3.4l0-41.16a9.87,9.87,0,0,1,4.54-7.87l50.2-29a4,4,0,0,1,3.6-.4l8.51,4.87A1,1,0,0,1,91,48.18a2,2,0,0,0-1.83.3L39,77.43a7.85,7.85,0,0,0-3.52,6.13v40.31l3.7,2.15a1,1,0,0,1,.49,1.08,75.52,75.52,0,0,0-.93,15.07,1,1,0,0,1-.49.9A1.1,1.1,0,0,1,37.74,143.21Z"/><path class="cls-2" d="M35.81,79.29l-8.35-4.82a8.35,8.35,0,0,0-1.36,4.24v41.15a2.86,2.86,0,0,0,1,2.52L30,124a79.23,79.23,0,0,0-.59,13.34l8.35,4.82c-.05-5.34-.09-10,.93-15.28l-4.22-2.44,0-40.92A8.57,8.57,0,0,1,35.81,79.29Z"/><path class="cls-2" d="M38.67,126.9h0l-2.86.48-7.25-4.18L30,124v.13a77.75,77.75,0,0,0-.59,13.21l8.35,4.82C37.69,136.85,37.65,132.18,38.67,126.9Z"/><path class="cls-4" d="M92.71,91.47c0-10.14,0-31.41,0-41.55,0-2.56-1.82-3.61-4-2.33q-25.08,14.49-50.2,29a9,9,0,0,0-4,7l0,41.14c0,2.57,1.82,3.62,4,2.33l.18-.11c-1.1,5.63-1,10.24-.93,15.28,1.62-2.78,3.24-5.54,4.83-8.32,10.17-17.78,30.18-26.72,46-35.34a7.74,7.74,0,0,0,2.92-3A8,8,0,0,0,92.71,91.47Z"/><path class="cls-3" d="M38.6,126a1.1,1.1,0,0,1,.59.15,1,1,0,0,1,.49,1,55.83,55.83,0,0,0-1,11.35c1-1.7,2-3.39,2.94-5.1,9.13-15.91,25.85-24.79,40.62-32.62,2-1.06,3.92-2.07,5.8-3.1A6.8,6.8,0,0,0,90.6,95a6.9,6.9,0,0,0,1.1-3.53V49.92A1.94,1.94,0,0,0,91,48.2a1.9,1.9,0,0,0-1.82.28L39,77.43a7.94,7.94,0,0,0-3.52,6.11v41.14a1.87,1.87,0,0,0,.67,1.72,1.89,1.89,0,0,0,1.82-.28,1.26,1.26,0,0,1,.62-.15Zm-.86,17.24a.78.78,0,0,1-.26,0,1,1,0,0,1-.75-1l0-.89a70.48,70.48,0,0,1,.66-12.79,3.19,3.19,0,0,1-2.26-.33,3.88,3.88,0,0,1-1.67-3.5V83.54A9.87,9.87,0,0,1,38,75.66L88.17,46.71a3.45,3.45,0,0,1,5.58,3.21V91.47A9,9,0,0,1,92.37,96a9.12,9.12,0,0,1-3.3,3.39c-1.91,1-3.84,2-5.83,3.11-14.5,7.69-31,16.42-39.78,31.82-1.59,2.8-3.2,5.56-4.82,8.34A1.09,1.09,0,0,1,37.74,143.21Z"/><path class="cls-4" d="M44.21,87.93a1,1,0,0,1-.86-.52,1,1,0,0,1,.37-1.4L77.63,66.46a1,1,0,1,1,1,1.78L44.73,87.8A1.21,1.21,0,0,1,44.21,87.93Z"/><path class="cls-4" d="M44.21,98.22a1,1,0,0,1-.86-.51,1,1,0,0,1,.37-1.41L82.46,74a1,1,0,0,1,1.38.38,1,1,0,0,1-.37,1.39L44.73,98.08A1.1,1.1,0,0,1,44.21,98.22Z"/><path class="cls-4" d="M44.21,109.15a1.08,1.08,0,0,1-.9-.52,1,1,0,0,1,.38-1.4l25-14.39a1,1,0,1,1,1,1.77l-25,14.4A1.1,1.1,0,0,1,44.21,109.15Z"/><path class="cls-5" d="M180,109.52c.15-13.68,14.12-28.93,22.87-24.14l5.26,3.07c-9.09-4.78-22.67,10.85-22.81,24.14l.14,42.87a5.47,5.47,0,0,0,2.36,3.71c-2.06-1.21-5.7-2.88-6.78-4.52a7.61,7.61,0,0,1-1-4.14Z"/><path class="cls-3" d="M180.49,109.52v41a7,7,0,0,0,1,3.83c.59.92,2.26,1.94,3.83,2.82a7.55,7.55,0,0,1-.44-1.58l-.19-43c.09-8.8,6-19.16,13.47-23.63a12.39,12.39,0,0,1,6.25-2l-1.87-1.09c-3.15-1.73-6.54-.46-8.91.9-6.34,3.72-13,13.23-13.13,22.73Zm7.28,50.22a.53.53,0,0,1-.29-.08c-.44-.25-.94-.54-1.48-.83-2.16-1.15-4.57-2.45-5.51-3.85a9,9,0,0,1-1.13-4.47v-41h0c.1-9.92,7-19.84,13.68-23.73,3.73-2.17,7.23-2.48,10-.91L208.38,88a.58.58,0,0,1,.25.78.58.58,0,0,1-.79.23c-3.3-1.71-6.79-.41-9.1,1-7,4.21-12.84,14.37-12.93,22.64l.19,42.87a4.72,4.72,0,0,0,2.12,3.23.57.57,0,0,1,.15.79A.6.6,0,0,1,187.77,159.74Z"/><path class="cls-2" d="M208.08,138.32l-5.31-3.07a1.62,1.62,0,0,1-.68-1.5V100.64c-2.46,0-4.58,1.67-6.2,3.33l5,2.85a2.07,2.07,0,0,1,.83,1.92v17.11l.05,18.19a9.1,9.1,0,0,1-4,7l-3.79,2.17a2.88,2.88,0,0,1-2.85.27l-5.31-3.06a2.91,2.91,0,0,0,2.85-.26l3.49-2a5.31,5.31,0,0,0,1.08-.71,9.76,9.76,0,0,0,2.76-3.93,7.74,7.74,0,0,0,.49-2.77v-35a5.94,5.94,0,0,0-.15-.94,2.14,2.14,0,0,0-.44-.74c-.49.49-.94,1.08-1.38,1.62a16.59,16.59,0,0,0-3.34,9.23V146.2a1.64,1.64,0,0,0,.69,1.5l-5.32-3c-.59-.49-.59-.79-.68-1.52V111.8a16.09,16.09,0,0,1,2.26-7.51c2-3.29,6.34-8.3,10.77-6.23l3.25,1.9V96.73c-.05-2.42-.55-4.26-2.56-5.65l5.31,3c2,1.29,2.51,3.41,2.56,5.66v37A1.7,1.7,0,0,0,208.08,138.32Z"/><path class="cls-3" d="M196.82,103.84l4.28,2.48a2.22,2.22,0,0,1,.4.31v-5.37a8.86,8.86,0,0,0-4.68,2.58Zm5.76-3.54a.85.85,0,0,1,.09.34v33.11c.06.61.06.71.45,1.06l3.69,2.12V99.79c-.05-2.59-.74-4.19-2.32-5.17L202,93.2a8.63,8.63,0,0,1,.63,3.51V100a.9.9,0,0,1-.09.34Zm-5.91-2.15a4.33,4.33,0,0,1,1.87.42l2.71,1.56c-2.46.36-4.43,2.09-5.76,3.42,0,0,0,0,0,0v0a11.26,11.26,0,0,0-1.28,1.51l-.15.18a16.93,16.93,0,0,0-3.49,9.56v31.46l-3.69-2.12c-.35-.33-.4-.43-.44-1.06V111.82a14.61,14.61,0,0,1,2.16-7.23c.74-1.19,4.18-6.44,8.11-6.44Zm-.93,6.83c-.25.26-.44.55-.69.83l-.1.17a15.81,15.81,0,0,0-3.24,8.91V146.2c0,.62,0,.73.44,1.06,0,0,.1.06.1.09.2-.13.39-.26.59-.41a8.72,8.72,0,0,0,2.56-3.68,6.91,6.91,0,0,0,.44-2.56v-35a3.11,3.11,0,0,0-.1-.7ZM188,151a8.67,8.67,0,0,0,.88-.41l3.5-2a9.59,9.59,0,0,0,1.18-.78,10.37,10.37,0,0,0,2.9-4.17,8.15,8.15,0,0,0,.54-3v-35a1.13,1.13,0,0,1-.05-.39l3.54,2c.44.26.59.69.64,1.43V144a8.43,8.43,0,0,1-3.74,6.49l-3.79,2.17a2.27,2.27,0,0,1-2.26.28L188,151Zm4.18,3.28a3.23,3.23,0,0,1-1.38-.33l-5.31-3.08a.55.55,0,0,1-.24-.76.55.55,0,0,1,.73-.26,2.38,2.38,0,0,0,2.36-.27l2.81-1.63-5-2.86a2.18,2.18,0,0,1-.93-1.94V111.8a16,16,0,0,1,2.26-7.78c2.75-4.49,7.23-8.52,11.55-6.48L201.5,99V96.73c-.05-2.17-.45-3.88-2.32-5.18a.6.6,0,0,1-.14-.78.58.58,0,0,1,.78-.19l5.26,3.06c2.51,1.57,2.86,4.26,2.91,6.14v37c0,.63,0,.73.44,1.06a.58.58,0,0,1-.64.95l-5.31-3.06c0-.06-.15-.11-.2-.16V144a9.37,9.37,0,0,1-4.28,7.47l-3.78,2.19A4.38,4.38,0,0,1,192.2,154.32Z"/><path class="cls-4" d="M212,134.12a5.14,5.14,0,0,1-2.31,4c-1.28.74-2.31.13-2.31-1.35v-37c0-2.76-1-4.72-2.56-5.65a5.61,5.61,0,0,0-5,0,11.66,11.66,0,0,0-1.18.58,21.15,21.15,0,0,0-6.93,7,17.92,17.92,0,0,0-2.56,8.61v41a2.79,2.79,0,0,0,1.18,2.59,2.86,2.86,0,0,0,2.85-.28l1.48-.87,3.05-1.75a9.09,9.09,0,0,0,2.8-3,8.27,8.27,0,0,0,1.23-4l-.05-18.19V108.74a2.11,2.11,0,0,0-.83-1.92,2.15,2.15,0,0,0-2.12.2,6,6,0,0,0-2.07,2.22,5.65,5.65,0,0,0-.88,2.94v31.34a5.16,5.16,0,0,1-2.36,4c-1.28.76-2.31.15-2.31-1.33V114.85a17.1,17.1,0,0,1,7.62-13.2c2.12-1.2,4-1.32,5.36-.52,1.48.83,2.26,2.59,2.26,4.93v35.32a19.25,19.25,0,0,1-8.65,15l-3.79,2.18c-2.41,1.39-4.57,1.5-6.15.61s-2.5-2.86-2.5-5.62v-41a27,27,0,0,1,3.93-13.2,27.28,27.28,0,0,1,9.44-10c3.69-2.12,7-2.32,9.44-.92s3.94,4.4,3.94,8.67Z"/><path class="cls-3" d="M202.53,94.13a5.93,5.93,0,0,0-2.46.56,7.83,7.83,0,0,0-1.13.55A20.54,20.54,0,0,0,192.2,102a17,17,0,0,0-2.46,8.33v41a2.27,2.27,0,0,0,.89,2.09,2.34,2.34,0,0,0,2.26-.28l4.52-2.61a8.76,8.76,0,0,0,2.61-2.81,7.79,7.79,0,0,0,1.13-3.67v-35.3a1.62,1.62,0,0,0-.59-1.41,1.58,1.58,0,0,0-1.52.2,5.88,5.88,0,0,0-2.71,4.65v31.34a5.67,5.67,0,0,1-2.61,4.52,2,2,0,0,1-3.19-1.84V114.85a17.71,17.71,0,0,1,7.92-13.69c2.21-1.28,4.32-1.46,6-.54a5.3,5.3,0,0,1,2.41,3.87V99.78c0-2.47-.79-4.29-2.27-5.15a4.08,4.08,0,0,0-2-.5Zm2.06-6a6.34,6.34,0,0,1,3.2.81c2.36,1.36,3.64,4.26,3.64,8.18a.09.09,0,0,0,0,.08v36.92a4.52,4.52,0,0,1-2.07,3.52,1,1,0,0,1-1,.17c-.3-.15-.39-.51-.39-1v-37c0-2.89-1-5.08-2.91-6.14a6.05,6.05,0,0,0-5.5,0,10.14,10.14,0,0,0-1.23.62,21.44,21.44,0,0,0-7.13,7.17,18.27,18.27,0,0,0-2.66,8.91v41A3.36,3.36,0,0,0,190,154.4a3.29,3.29,0,0,0,3.39-.26l4.57-2.63a9.83,9.83,0,0,0,3.05-3.21,9,9,0,0,0,1.23-4.26v-35.3a2.56,2.56,0,0,0-1.18-2.42,2.59,2.59,0,0,0-2.65.2,6.6,6.6,0,0,0-2.32,2.44,7,7,0,0,0-.93,3.22v31.34a4.58,4.58,0,0,1-2,3.52,1.15,1.15,0,0,1-1.08.16,1.12,1.12,0,0,1-.39-1V114.85A16.33,16.33,0,0,1,199,102.16c1.82-1.06,3.54-1.25,4.77-.52s2,2.28,2,4.42v35.32a18.6,18.6,0,0,1-8.36,14.49l-3.79,2.19c-2.11,1.24-4.08,1.43-5.55.6s-2.26-2.66-2.26-5.11v-41a26.47,26.47,0,0,1,3.88-12.93,26.34,26.34,0,0,1,9.25-9.79,11.51,11.51,0,0,1,5.65-1.74ZM190,160.33a5.05,5.05,0,0,1-2.56-.67c-1.82-1-2.8-3.22-2.8-6.11v-41a30.06,30.06,0,0,1,13.67-23.71c3.78-2.17,7.33-2.5,10-.93s4.23,4.78,4.23,9.07v37.1a5.64,5.64,0,0,1-2.61,4.52,2.17,2.17,0,0,1-2.21.17,1.76,1.76,0,0,1-.84-1.12v3.69a17.87,17.87,0,0,1-2.65,8.81,18.24,18.24,0,0,1-6.3,6.67l-3.78,2.21A8.59,8.59,0,0,1,190,160.33Z"/><path class="cls-2" d="M185.61,108.82l-5.31-3.07a19,19,0,0,0-.35,3.77v41c.1,2.39.44,4.15,2.56,5.59l5.26,3.07c-2.06-1.44-2.41-3.2-2.5-5.62v-41A19,19,0,0,1,185.61,108.82Z"/><path class="cls-3" d="M180.74,106.67a24.56,24.56,0,0,0-.25,2.86v41c.15,2.41.55,3.86,2.32,5.11l2.5,1.44a9.05,9.05,0,0,1-.63-3.47v-41a19.07,19.07,0,0,1,.29-3.48l-4.23-2.44Zm7,53.07a.53.53,0,0,1-.29-.08l-5.26-3.06c-2.46-1.69-2.76-3.84-2.86-6.08v-41a30.56,30.56,0,0,1,.35-3.87.71.71,0,0,1,.34-.43.57.57,0,0,1,.54,0l5.31,3.07a.59.59,0,0,1,.3.6,21.18,21.18,0,0,0-.39,3.68v41c.14,2.42.54,3.88,2.31,5.14a.57.57,0,0,1,.15.79A.6.6,0,0,1,187.77,159.74Z"/></g></g></svg>