<svg xmlns="http://www.w3.org/2000/svg" viewBox="0 0 228.32 228.32"><defs><style>.cls-1{fill:#3378c6;opacity:0.3;}.cls-11,.cls-2{fill:#fff;}.cls-11,.cls-2,.cls-4,.cls-5,.cls-7,.cls-8{stroke:#0072c8;stroke-linecap:round;stroke-linejoin:round;stroke-width:0.75px;}.cls-2,.cls-3,.cls-4,.cls-5{fill-rule:evenodd;}.cls-3{fill:none;}.cls-4,.cls-7{fill:#d9e8ff;}.cls-5,.cls-8{fill:#9aceef;}.cls-6{isolation:isolate;}.cls-9{fill:#c92727;}.cls-10{fill:#0072c8;}</style></defs><g id="Layer_2" data-name="Layer 2"><g id="Layer_1-2" data-name="Layer 1"><circle class="cls-1" cx="114.16" cy="114.16" r="114.16"/><path class="cls-2" d="M175.27,196.06a34.2,34.2,0,0,1-6.51,6.25L73,147.07a16,16,0,0,1-7.21-12.5l0-104.46L92.24,9.69l2-.4,28.78-.48,48.49,27.82a15,15,0,0,1,3.72,3.11Z"/><path class="cls-3" d="M173.73,195.42V40.25a12.45,12.45,0,0,0-2.94-2.37l-48.12-27.6-28.09.44-1.71.33L67.23,30.79l0,103.71a14.49,14.49,0,0,0,6.45,11.17l94.93,54.75a34,34,0,0,0,5.08-5ZM168,203.56,72.2,148.32a17.39,17.39,0,0,1-8-13.82L64.17,30a1.54,1.54,0,0,1,.6-1.22L91.3,8.41a1.55,1.55,0,0,1,.64-.29l2.31-.44L123,7.21a1.37,1.37,0,0,1,.78.2l48.5,27.82a15.81,15.81,0,0,1,4.12,3.45,1.47,1.47,0,0,1,.36,1V196a1.55,1.55,0,0,1-.34,1,36.47,36.47,0,0,1-6.81,6.55,1.68,1.68,0,0,1-.88.27A1.49,1.49,0,0,1,168,203.56Z"/><path class="cls-2" d="M82.44,49l-13.36-7.7c-6.58-3.6-10.24-6.77-3.6-11.94l28.21-22L82.43,24.54Z"/><path class="cls-3" d="M87.34,14.29,66.42,30.59c-1.39,1.07-3,2.66-2.93,4,.16,1.8,3.46,3.83,6.36,5.42l11.06,6.37V24.54a1.42,1.42,0,0,1,.26-.84l6.18-9.41ZM81.67,50.35,68.34,42.66c-4.55-2.49-7.64-4.77-7.88-7.82-.19-2.2,1.15-4.37,4.09-6.66l28.21-22a1.52,1.52,0,0,1,2,.07,1.54,1.54,0,0,1,.24,2L84,25V49a1.49,1.49,0,0,1-.77,1.33,1.44,1.44,0,0,1-.75.21A1.51,1.51,0,0,1,81.67,50.35Z"/><path class="cls-4" d="M168.76,202.24l8.51-4.92c1.86-1.53,2-2.48,2.18-4.82l0-142.64A16.38,16.38,0,0,0,172,37L119.41,6.64C111.64,2.26,107.35.05,98.19,4.43,90.75,8,84.06,15.42,82.43,24.54V49l9.15-5.26V25.52c-.2-8.34,9.21-18.88,22.14-12.33l49.72,28.69a16.37,16.37,0,0,1,7.44,12.89l.05,142.65C170.72,199.76,170.62,200.71,168.76,202.24Z"/><path class="cls-3" d="M107,3.56a18.88,18.88,0,0,0-8.12,2.25C91.21,9.47,85.35,16.91,84,24.54V46.38l6.11-3.5V25.55A16.3,16.3,0,0,1,97.68,12c4.89-3.08,10.84-3.13,16.81-.11l49.78,28.73a17.91,17.91,0,0,1,8.15,14.18l0,142.8c0,.29-.05.56-.07.83l3.92-2.26c1.39-1.14,1.43-1.6,1.62-3.64l-.05-142.58a14.89,14.89,0,0,0-6.68-11.63L118.67,8c-4.83-2.71-8.06-4.4-11.7-4.4Zm60.52,199.55a1.56,1.56,0,0,1,.29-2.06c1.39-1.13,1.43-1.59,1.63-3.63l0-142.59a14.83,14.83,0,0,0-6.69-11.63L113,14.55c-6.3-3.19-10.94-1.76-13.72,0a13.32,13.32,0,0,0-6.21,11V43.76a1.54,1.54,0,0,1-.77,1.33l-9.16,5.26A1.52,1.52,0,0,1,80.91,49V24.27A30.1,30.1,0,0,1,97.53,3.05c9.63-4.6,14.38-2.39,22.65,2.26l52.61,30.36a17.93,17.93,0,0,1,8.15,14.19l0,142.79c-.23,2.56-.46,4-2.93,6l-8.51,4.92a1.54,1.54,0,0,1-2-.45Z"/><path class="cls-5" d="M168.76,202.24l8.51-4.92c1.86-1.53,2-2.48,2.18-4.82l0-142.64a15,15,0,0,0-.58-3.64l-8.51,4.92a15.43,15.43,0,0,1,.57,3.63l.05,142.65C170.72,199.75,170.62,200.71,168.76,202.24Z"/><path class="cls-3" d="M177.77,48.6l-5.7,3.28a16.93,16.93,0,0,1,.35,2.89l0,142.8c0,.29-.05.56-.07.83l3.92-2.26c1.39-1.14,1.43-1.6,1.62-3.64l-.05-142.58a10.19,10.19,0,0,0-.11-1.32ZM167.51,203.11a1.53,1.53,0,0,1,.27-2.06c1.39-1.14,1.43-1.59,1.63-3.63l0-142.59a13.18,13.18,0,0,0-.53-3.3,1.55,1.55,0,0,1,.71-1.72l8.52-4.92a1.57,1.57,0,0,1,1.34-.09,1.53,1.53,0,0,1,.9,1,16.83,16.83,0,0,1,.63,4l0,142.79c-.23,2.56-.46,4-2.93,6l-8.51,4.92a1.57,1.57,0,0,1-.77.21A1.51,1.51,0,0,1,167.51,203.11Z"/><path class="cls-2" d="M162.18,220.1a34.27,34.27,0,0,1-6.52,6.25l-95.8-55.24a16,16,0,0,1-7.21-12.5l0-104.46L79.15,33.73l2-.4L110,32.84l48.49,27.83a14.6,14.6,0,0,1,3.72,3.11Z"/><path class="cls-3" d="M160.64,219.46V64.29a12.76,12.76,0,0,0-2.94-2.38l-48.12-27.6-28.09.45-1.71.32L54.13,54.83l0,103.7a14.51,14.51,0,0,0,6.46,11.18l94.93,54.74a33.41,33.41,0,0,0,5.08-5Zm-5.74,8.14L59.11,172.36a17.39,17.39,0,0,1-8-13.83l0-104.45a1.58,1.58,0,0,1,.6-1.23L78.21,32.44a1.55,1.55,0,0,1,.64-.28l2.31-.45,28.78-.46a1.37,1.37,0,0,1,.78.2l48.49,27.81a15.73,15.73,0,0,1,4.12,3.46,1.43,1.43,0,0,1,.37,1V220a1.52,1.52,0,0,1-.34,1,36.15,36.15,0,0,1-6.81,6.55,1.69,1.69,0,0,1-.89.27A1.47,1.47,0,0,1,154.9,227.6Z"/><path class="cls-2" d="M69.35,73.06,56,65.36c-6.58-3.6-10.24-6.77-3.6-11.94l28.21-22L69.34,48.58Z"/><path class="cls-3" d="M74.24,38.33,53.33,54.62c-1.39,1.08-3,2.67-2.93,4,.16,1.81,3.46,3.84,6.36,5.42l11.06,6.38V48.58a1.48,1.48,0,0,1,.25-.84l6.18-9.41ZM68.58,74.39l-13.33-7.7c-4.55-2.48-7.64-4.76-7.89-7.82-.18-2.19,1.16-4.36,4.1-6.65l28.21-22a1.52,1.52,0,0,1,2.2,2.05L70.85,49l0,24a1.51,1.51,0,0,1-.77,1.33,1.44,1.44,0,0,1-.75.21A1.51,1.51,0,0,1,68.58,74.39Z"/><path class="cls-4" d="M155.66,226.27l8.52-4.91c1.86-1.53,2-2.48,2.18-4.82l0-142.64A16.38,16.38,0,0,0,158.88,61L106.31,30.68c-7.76-4.38-12-6.59-21.21-2.21C77.65,32,71,39.46,69.34,48.58V73.06L78.5,67.8V49.56c-.2-8.34,9.21-18.88,22.14-12.33l49.71,28.68a16.41,16.41,0,0,1,7.45,12.9l0,142.65C157.63,223.8,157.53,224.75,155.66,226.27Z"/><path class="cls-3" d="M93.88,27.6a19,19,0,0,0-8.12,2.24C78.12,33.51,72.26,41,70.85,48.58l0,21.84L77,66.92V49.58A16.29,16.29,0,0,1,84.59,36c4.89-3.07,10.84-3.13,16.81-.1l49.77,28.73a17.92,17.92,0,0,1,8.16,14.18l0,142.8c0,.28-.05.56-.08.83l3.93-2.26c1.39-1.15,1.42-1.6,1.62-3.64L164.79,74a14.87,14.87,0,0,0-6.68-11.63L105.58,32c-4.84-2.71-8.06-4.4-11.7-4.4ZM154.4,227.14a1.54,1.54,0,0,1,.29-2c1.39-1.13,1.43-1.6,1.63-3.63l0-142.59a14.78,14.78,0,0,0-6.7-11.63L100,38.59c-6.3-3.2-10.94-1.77-13.72,0A13.32,13.32,0,0,0,80,49.54V67.8a1.52,1.52,0,0,1-.77,1.32L70.1,74.39a1.53,1.53,0,0,1-1.52,0,1.5,1.5,0,0,1-.76-1.33V48.31A30.08,30.08,0,0,1,84.44,27.09c9.62-4.6,14.38-2.39,22.64,2.26L159.7,59.7a17.9,17.9,0,0,1,8.14,14.2l0,142.78c-.23,2.56-.46,4-2.93,6l-8.52,4.93a1.5,1.5,0,0,1-.77.2A1.57,1.57,0,0,1,154.4,227.14Z"/><path class="cls-5" d="M155.66,226.27l8.52-4.91c1.86-1.53,2-2.48,2.18-4.82l0-142.64a14.8,14.8,0,0,0-.58-3.64l-8.51,4.92a16,16,0,0,1,.57,3.63l0,142.65C157.63,223.79,157.53,224.75,155.66,226.27Z"/><path class="cls-3" d="M164.68,72.63,159,75.92a16.93,16.93,0,0,1,.35,2.89l0,142.8c0,.28-.05.56-.08.83l3.93-2.26c1.39-1.15,1.42-1.6,1.62-3.64L164.79,74a10.51,10.51,0,0,0-.11-1.33ZM154.42,227.14a1.51,1.51,0,0,1,.27-2c1.39-1.14,1.43-1.6,1.63-3.63l0-142.59a12.76,12.76,0,0,0-.54-3.3,1.56,1.56,0,0,1,.72-1.72L165,68.93a1.57,1.57,0,0,1,1.34-.09,1.55,1.55,0,0,1,.9,1,16.48,16.48,0,0,1,.62,4l0,142.78c-.23,2.56-.46,4-2.93,6l-8.52,4.93a1.52,1.52,0,0,1-2-.46Z"/><g class="cls-6"><path class="cls-7" d="M109.15,81.62l-.68.27-.14,0c-.28.1-.56.19-.86.27l-.12,0c-.29.08-.59.15-.89.21l-.14,0-.84.14-.14,0-.88.1h-.09l-.9.06h-.07l-.93,0H101.2l-1,0h-.15L99,82.64h-.15l-1.09-.13-.14,0-1.24-.19-.1,0q-.66-.1-1.32-.24l-1.5-.31-.11,0-1.44-.34-.13,0-.66-.17-.18-.05-.75-.2-.12,0-.65-.18-.17-.05-.72-.21-.09,0-.86-.27h0l-.84-.27-.12,0-.77-.26-.14,0-.73-.26-.18-.06-.29-.11L84.27,79,84,78.91l-.19-.07-.26-.1-.18-.07-.27-.1-.15-.06-.27-.1-.14,0-.28-.11-.11,0-.37-.15-.35-.14h0L81,77.76l-.09,0-.36-.15-.33-.13-.07,0-.28-.11-.23-.1-.06,0L79.26,77l-.1,0-6.83,4,.09,0,.35.16,0,0,.23.1.28.12.08,0,.29.12.39.17.1,0,.36.15.38.15.39.15.1,0,.29.11.13.06.28.1.15.06.27.1.17.06.27.1.19.07.27.1.2.07.29.1.13,0,.78.27.13.05.77.26.13,0,.83.26,0,0,.86.26.06,0,.75.23.17.05.64.18.13,0,.75.21.18,0,.66.17.1,0c.5.13,1,.24,1.47.35l.11,0c.49.11,1,.22,1.47.31l1.35.25h.09c.42.07.83.14,1.25.19h.14l1.09.13.15,0q.54.06,1.08.09h.15l1,.06h.15l1,0h.15l.93,0h.06c.31,0,.61,0,.91-.06h.06l.91-.11h.14l.83-.14.08,0h.06c.3-.06.6-.13.89-.21l.13,0c.29-.08.58-.17.86-.27l0,0,.08,0a7.07,7.07,0,0,0,.69-.27Z"/><path class="cls-8" d="M132.26,115.54l-.12,42.12v.16c0,.21,0,.42,0,.63s0,.16,0,.25l0,.52c0,.07,0,.15,0,.23l-.06.6s0,.07,0,.11c0,.27-.07.53-.12.79l0,.18c-.05.27-.1.54-.16.8s-.13.53-.21.78c0,.07,0,.13-.05.19s-.07.22-.1.32l-.08.24c0,.1-.07.21-.11.32L131,164c-.06.14-.11.29-.17.43a1.17,1.17,0,0,0-.05.11c-.07.17-.15.35-.23.52l0,.06c-.11.24-.23.47-.35.7l0,.08c-.13.23-.26.45-.4.67l-.07.11-.48.7-.08.1c-.17.23-.34.45-.52.66l-.08.09c-.18.21-.36.42-.56.62l-.08.09c-.19.2-.39.39-.6.58l-.08.07c-.21.19-.42.38-.64.55l-.07.06-.68.53-.06,0c-.24.17-.48.34-.73.5s-.55.35-.81.5l6.82-4,.78-.48c.28-.19.52-.35.76-.53l.06,0c.23-.17.46-.34.68-.52l.08-.06.64-.55.08-.08c.2-.19.4-.38.59-.58l.09-.09.56-.61.08-.1c.18-.21.35-.43.52-.65l.07-.11q.25-.33.48-.69l0-.05a.25.25,0,0,1,0-.07c.13-.21.27-.44.39-.66l.05-.09.36-.69,0-.05.25-.54s0-.07,0-.11.12-.28.17-.43l0,0,.06-.17.12-.32c0-.08.05-.15.07-.23s.07-.21.1-.32l0-.1,0-.09c.07-.26.14-.52.2-.78s.12-.53.17-.8a.3.3,0,0,1,0-.1.28.28,0,0,1,0-.09l.12-.78s0-.09,0-.12c0-.2,0-.39.06-.6,0,0,0-.06,0-.09a.61.61,0,0,0,0-.14c0-.17,0-.35,0-.52a.76.76,0,0,0,0-.15.28.28,0,0,1,0-.09c0-.21,0-.42,0-.64v-.15l.12-42.13Z"/><path class="cls-8" d="M139.08,111.57l-.06,0-.08-.06-.23-.16-.11-.09-.07,0-.08-.06-.11-.08-.07,0-.14-.1-.07,0-.16-.12-.32-.23-.08-.07-.28-.2-.08-.07-.38-.28-.08-.06-.33-.25-.13-.09-.35-.28-.09-.07-.46-.35-.13-.1-.37-.29-.16-.12-.46-.37,0,0-1-.77-.05,0-1-.78-.1-.08-1-.82-.11-.1-1-.86-.12-.11-.88-.75-.15-.13-.91-.79-.13-.12-1-.85-.1-.09-1-.91-.87-.8a1.29,1.29,0,0,0-.17-.16l-.85-.8-.15-.15-.8-.77a1.14,1.14,0,0,1-.11-.11c-.29-.27-.58-.56-.86-.84l-.19-.19c-.28-.27-.55-.55-.82-.82l-.82-.84-.2-.2-.81-.85-.81-.87-.15-.16c-.59-.64-1.17-1.3-1.75-2l-.09-.1c-.58-.67-1.16-1.34-1.72-2l-.1-.12c-.22-.26-.43-.53-.65-.8l-.08-.11c-.19-.23-.38-.47-.56-.71l-.21-.26-.44-.58-.21-.27-.48-.66-.13-.18c-.21-.28-.4-.55-.6-.83l-.15-.22-.44-.63-.19-.28-.41-.61-.17-.26-.55-.85-6.82,4,.55.86c.06.08.11.17.17.26l.4.6.2.28c.14.22.29.43.43.64l.15.21.6.84.14.18.48.65.21.28.44.58a2.56,2.56,0,0,1,.2.26c.19.24.38.47.56.71l.09.1.65.81.05.07,0,0c.56.69,1.13,1.37,1.72,2l.08.1c.58.66,1.17,1.31,1.76,2l0,0,.11.12.78.83.84.88.2.21.8.82.83.83.1.1.09.09.86.85.11.1.8.77.16.15.84.8.18.16.85.79,1,.93.09.09,1,.84.14.13c.31.26.61.53.9.79l.16.13.87.75.06,0,.07.06,1,.86.12.1,1,.81.1.08,1,.79,0,0,1,.77.05,0,.47.37.15.12.38.3.12.09.46.36.09.07.36.27.12.1.33.24.09.07.37.28.09.07.27.2.09.07.27.19.18.14.1.07.12.09.08.06.11.08.08.06.11.07.05,0,.1.07.3.22Z"/><path class="cls-8" d="M102.33,85.58c-9.92,4.29-29-4.2-30-4.64l-.12,42.12c0,18.87,23.76,46.12,29.87,51.73,6.12,1.45,30,1.74,30.06-17.13l.12-42.12C131.26,114.82,112.19,101.29,102.33,85.58Z"/></g><g class="cls-6"><path class="cls-7" d="M100.39,93.5l-.56.22-.11,0c-.23.08-.46.15-.7.21l-.11,0c-.23.07-.48.12-.72.17l-.12,0c-.23,0-.45.09-.68.12h-.12q-.36.06-.72.09h-.07l-.74,0H93.88l-.8,0H93l-.89-.07-.12,0-.89-.1-.12,0-1-.15-.08,0-1.08-.19-1.22-.26-.09,0-1.19-.28-.05,0c-.46-.11-.91-.23-1.36-.36s-.93-.26-1.36-.39l-.07,0-.7-.22L82,92l-.1,0-.63-.21-.11,0-.6-.21-.16,0-.22-.08L80,91.36l-.22-.08-.16-.06-.21-.08-.15,0-.2-.08L78.92,91l-.2-.07-.13,0-.21-.09-.11,0-.3-.11-.28-.12-.06,0-.27-.11-.09,0L77,90.19l-.27-.12-.06,0-.22-.1-.2-.08L76,89.78l-.12,0-.09,0-6.82,4,.07,0,.12,0,.16.07,0,0,.17.08.25.1.06,0,.23.1.33.13.08,0,.28.12.31.12.33.13.11,0,.21.08.12,0,.21.08.14,0,.21.08.15.06.21.07.16.06.22.08.16.06.23.08.12,0,.63.22.11,0,.64.21.1,0,.68.22.74.23h.05l1.33.39,1.41.37,1.23.29.09,0,1.21.25L83,98h.08l1,.16h.11l.9.11h.12l.88.08h.13l.8,0h1l.76,0h.06l.74-.05.79-.09h.11l.69-.12h.11l.73-.17.1,0,.71-.22.11,0,.56-.22Z"/><path class="cls-8" d="M118.07,122l-.1,34.49c0,.32,0,.64,0,.95,0,.07,0,.14,0,.21,0,.31,0,.6-.08.89,0,0,0,.07,0,.1,0,.26-.07.52-.12.77l-.06.28c0,.19-.08.39-.13.57s-.05.19-.08.28-.08.28-.12.42-.11.35-.18.52-.09.24-.13.35l-.23.54-.18.37-.15.29a4.49,4.49,0,0,1-.24.42l-.15.26-.25.38-.21.3c-.09.12-.18.23-.26.35l-.23.28-.29.33-.24.27-.31.31-.25.24-.34.3-.25.22L113,167l-.25.19-.44.3-.2.15-.68.41,6.83-4,.67-.42.21-.15c.15-.1.3-.19.44-.3l.25-.19.37-.29.25-.22c.12-.1.23-.19.34-.3a2.83,2.83,0,0,0,.25-.24c.11-.1.21-.2.31-.31s.16-.18.24-.27.2-.21.29-.32l.23-.29.26-.34c.08-.1.15-.21.22-.31s.12-.17.17-.26l.07-.11.16-.26.24-.43c0-.09.1-.19.14-.28l.1-.19c0-.06,0-.13.08-.19s.16-.35.23-.53l.09-.21s0-.1,0-.15.12-.34.17-.52l.09-.26a.83.83,0,0,1,0-.15c0-.09,0-.19.07-.28s0-.19.08-.28l.06-.3a2.33,2.33,0,0,0,0-.28s0-.1,0-.16l.09-.6s0-.07,0-.1c0-.24,0-.45.07-.67,0-.07,0-.15,0-.22s0-.14,0-.22,0-.15,0-.22c0-.23,0-.46,0-.69,0,0,.1-34.52.1-34.52Z"/><path class="cls-8" d="M117.29,121.42l.09.07.08.06.06,0,.09.07.06,0,.07,0,.05,0,.19.14.09.06,6.82-4-.17-.12-.09-.07-.2-.14-.06,0-.09-.06-.08-.06-.09-.07-.08-.06-.11-.07,0,0-.21-.16-.08-.06-.22-.17-.07-.05-.31-.23-.07-.05-.26-.2-.11-.09-.3-.22-.06,0-.38-.3-.1-.07-.31-.24-.13-.11-.36-.28-.06-.05-.79-.62,0,0-.79-.64-.08-.07c-.27-.21-.53-.44-.81-.66l-.09-.09-.84-.7-.1-.09-.72-.62-.13-.1-.74-.65-.11-.1-.78-.69-.08-.07-.83-.76-.7-.65-.15-.13-.69-.66-.13-.12-.66-.63-.08-.08-.71-.7-.11-.11c-.48-.47-1-1-1.42-1.44l-.08-.08q-.72-.73-1.41-1.5l-.08-.08c-.49-.53-1-1.06-1.44-1.61l-.07-.08c-.48-.54-1-1.1-1.41-1.66l-.06-.07-1.11-1.39-.07-.1c-.36-.46-.71-.93-1.06-1.4l0,0c-.35-.47-.69-1-1-1.43l-.08-.12q-.5-.73-1-1.47l-6.82,4c.31.5.63,1,1,1.48l.08.11c.33.48.66,1,1,1.44l0,.05c.34.47.69.94,1,1.4l.08.1q.54.7,1.11,1.38l.06.08c.46.56.93,1.11,1.4,1.66l.08.08c.47.54,1,1.08,1.43,1.6l0,0,0,.05,1.41,1.49.08.09,1.42,1.43,0,0,.08.08c.24.23.47.47.71.69l.08.08.66.64.13.12.69.65.15.14.69.64c.29.27.56.52.84.76l.08.07.77.69.12.11.74.64.12.11.72.62,0,0,0,0,.84.7.1.08.8.67.09.06.79.65,0,0,.78.63.07,0,.36.28.13.1.3.24.1.08.38.29.08.06.28.22.11.08.26.2.08.06.3.23.07.05.22.16.08.06.22.16.15.11Z"/><path class="cls-7" d="M93.57,97.46C85.44,101,69.83,94,69,93.66l-.1,34.48c0,15.45,19.45,37.75,24.45,42.35,5,1.19,24.56,1.42,24.61-14l.1-34.49C117.24,121.4,101.64,110.32,93.57,97.46Z"/></g><g class="cls-6"><polygon class="cls-7" points="92.67 137.56 85.85 141.52 88.12 142.84 94.94 138.87 92.67 137.56"/><path class="cls-9" d="M88.12,142.9l-2.3-1.32a.08.08,0,0,1,0-.06.09.09,0,0,1,0-.05l6.83-4h.06L95,138.82a.06.06,0,0,1,0,.1l-6.83,4ZM86,141.52l2.15,1.24,6.7-3.89-2.15-1.24Z"/><path class="cls-10" d="M92.92,134.56l-.21-.29-.06-.1c-.06-.1-.12-.19-.17-.29a.56.56,0,0,0,0-.08l0-.06a2.72,2.72,0,0,0-.11-.25c0-.12-.08-.21-.11-.31s-.06-.21-.08-.31,0-.21,0-.3,0-.21,0-.31,0-.13,0-.19,0-.13,0-.19,0-.12,0-.17a.77.77,0,0,1,.06-.15.87.87,0,0,1,.08-.14,1,1,0,0,1,.12-.16l.18-.15-6.82,4-.15.12a.83.83,0,0,0-.16.18s0,.08-.07.13l0,.1a.69.69,0,0,0,0,.18.64.64,0,0,0,0,.18V136a.62.62,0,0,0,0,.12v.26a.22.22,0,0,1,0,.08.94.94,0,0,1,0,.18s0,.06,0,.09,0,.05,0,.07,0,.1,0,.13l0,.1a.24.24,0,0,1,0,.08c0,.08,0,.12.06.16a.69.69,0,0,0,0,.13c0,.08.05.12.06.16l.06.12,0,.06a.27.27,0,0,0,0,.08c.06.1.11.2.17.29a.36.36,0,0,0,.07.1c.06.1.14.2.21.3s-.2,2.51-.2,2.51l-.05.48,6.82-4,0-.49.24-2.46Z"/><path class="cls-7" d="M85.85,141.58c-.06,0-.07,0-.07-.06l.29-2.93-.24-.32-.06-.1c-.06-.1-.12-.2-.17-.3l-.09-.17a.36.36,0,0,1,0-.09l-.06-.13s0-.06,0-.06l-.06,0a.78.78,0,0,1-.05-.14.56.56,0,0,1,0-.12l0-.06s0,0,0-.06l0-.11s0-.06,0-.1l.06,0-.07,0s0-.06,0-.08,0-.07,0-.1,0-.06,0-.09,0-.15,0-.18v-.35s.07,0,.07,0l-.06,0a.88.88,0,0,1,0-.14v-.09l0-.1,0-.06c0-.06,0-.09.05-.12a.68.68,0,0,1,.08-.15l.13-.17,0,0,.16-.12,6.82-4a.07.07,0,1,1,.07.11.67.67,0,0,0-.14.11.69.69,0,0,0-.15.17l-.07.12h-.06l.06,0a.5.5,0,0,0,0,.13c0,.07,0,.11-.05.16h0a1,1,0,0,0,0,.17h0a1.28,1.28,0,0,0,0,.19c0,.09,0,.19,0,.29l-.06,0h.06c0,.09,0,.19,0,.29a2.45,2.45,0,0,0,.08.29c0,.12.07.21.1.31l0,0,.06,0,.11.24,0,.06a.08.08,0,0,1,0,0c.07.13.13.23.19.32l.06.1c.07.11.14.2.21.29s.06.08,0,.09l-.29,2.95a.05.05,0,0,1,0,.05l-6.82,4Z"/><path class="cls-7" d="M88.6,120.62l-.1-.06-.13-.07-.08,0-.17-.07-.13,0-.13,0-.13,0h-.06l-.21,0H87l-.18,0-.22.06-.26.12-6.82,4a1.28,1.28,0,0,1,.24-.11,1.17,1.17,0,0,1,.2-.06,1.6,1.6,0,0,1,.27,0h.29a2.08,2.08,0,0,1,.3,0l.3.08.32.13.34.17.45.26,6.82-4Z"/><path class="cls-7" d="M96.47,125.08l-5.13-3a.09.09,0,0,0-.07,0l-6.82,4a.05.05,0,0,0,0,0,.09.09,0,0,0,0,.06l5.16,3h0l6.83-4a.05.05,0,0,0,0,0A.09.09,0,0,0,96.47,125.08Z"/><path class="cls-8" d="M92,117.54l-6.82,4a1.21,1.21,0,0,0-.23.18l0,0a2.23,2.23,0,0,0-.19.24,1.9,1.9,0,0,0-.11.21,1.44,1.44,0,0,0-.07.16l0,.1,0,.17a.81.81,0,0,1,0,.09s0,.09,0,.13V123s0,.08,0,.12v3.07s0,0,.06.06h0l6.83-4a.05.05,0,0,0,0,0v-2.94c0-.09,0-.19,0-.3s0-.16,0-.27l.07-.24a1.38,1.38,0,0,1,.08-.2l.09-.17a1.57,1.57,0,0,1,.17-.21l0,0a1.15,1.15,0,0,1,.2-.15.08.08,0,0,0,0-.09A.07.07,0,0,0,92,117.54Z"/><path class="cls-8" d="M102.2,144.17l0-12a.76.76,0,0,0,0-.15v-.15s0,0,0-.07a.2.2,0,0,0,0-.09c0-.05,0-.1,0-.15l0-.16c0-.06,0-.11,0-.17a.85.85,0,0,1,0-.17v0c0-.06,0-.09,0-.12s0-.13,0-.19a.24.24,0,0,1,0-.08l0,0s0-.05,0-.07,0-.14-.07-.21a.14.14,0,0,1,0-.06l0-.07,0-.12a1.22,1.22,0,0,0-.07-.17l0-.08-.11-.24-.07-.14a2.18,2.18,0,0,0-.15-.27l0-.1-.22-.36,0-.06-.2-.28-.09-.12-.14-.19-.14-.15-.13-.15-.09-.09-.11-.12-.11-.11,0,0-.19-.17-.08-.06-.08-.06-.14-.11-.11-.08-.17-.11-.13-.09-.41-.23-6.82,4,.37.21.32.2.31.24.3.26,0,0,.22.22.06.06.16.19a.69.69,0,0,1,.11.13l.17.21.09.11c.06.1.13.19.19.28l0,.07c.08.11.15.23.22.35l.06.11a2.15,2.15,0,0,1,.14.26,1,1,0,0,1,.07.15,2.4,2.4,0,0,1,.11.23l0,.08.12.3,0,.07.12.34v0c0,.12.07.23.1.35s.06.29.08.41,0,.26,0,.38a3,3,0,0,1,0,.4l0,12c0,.13,0,.24,0,.35a2.32,2.32,0,0,1,0,.33,1.48,1.48,0,0,1-.07.3l0,0a.85.85,0,0,1-.09.22,1.56,1.56,0,0,1-.13.26,1.14,1.14,0,0,1-.15.19l0,0-.12.12-.06,0a.83.83,0,0,1-.18.13l6.83-4,.18-.13.05-.05.12-.11s0,0,.05,0l.12-.17a1.83,1.83,0,0,0,.15-.25l.07-.18,0-.08v0a1.89,1.89,0,0,0,.06-.21s0,0,0-.06,0-.07,0-.09a.78.78,0,0,0,0-.16.19.19,0,0,0,0-.08c0-.12,0-.17,0-.22v-.15Z"/><path class="cls-11" d="M92.27,130.57l-.34-.2V126.9a9.72,9.72,0,0,0-4.41-7.64l-.86-.49a2.74,2.74,0,0,0-4.49,2.56v3.4l-.36-.2a2,2,0,0,0-3.28,1.87l0,12a7.06,7.06,0,0,0,3.2,5.54l10.47,6a2.93,2.93,0,0,0,1.46.45,1.69,1.69,0,0,0,.86-.22,2.28,2.28,0,0,0,1-2.1l0-12A7.05,7.05,0,0,0,92.27,130.57Zm-4.22,12.15-2.14-1.23.29-2.91a.09.09,0,0,0,0-.05,3.8,3.8,0,0,1-.92-2.3,1,1,0,0,1,1.7-1,3,3,0,0,1,.67.54,3.82,3.82,0,0,1,1.08,2.49c0,.72-.34,1.18-.88,1.21l0,0a0,0,0,0,0,0,0Zm1.51-16.55V129l-5-2.89V123.2A1.5,1.5,0,0,1,87,121.79,5.59,5.59,0,0,1,89.56,126.17Z"/><path class="cls-7" d="M98.7,122.73c0-.07,0-.14,0-.21s0-.06,0-.1a1,1,0,0,0,0-.11c0-.08,0-.15,0-.22l0-.22a1.85,1.85,0,0,1,0-.23c0-.08,0-.16,0-.23a.64.64,0,0,0,0-.07v0l0-.13c0-.08,0-.17-.07-.26l0-.1,0-.07,0-.1c0-.1-.07-.2-.1-.3l0-.07a.42.42,0,0,0,0-.1l-.06-.17a2.29,2.29,0,0,0-.1-.23.61.61,0,0,0,0-.12l0,0a2.39,2.39,0,0,0-.13-.28,1.86,1.86,0,0,0-.1-.2,3.94,3.94,0,0,0-.19-.36l-.08-.15-.3-.49a.86.86,0,0,1-.07-.1l-.26-.37-.13-.17-.2-.25a2.7,2.7,0,0,0-.18-.22l-.18-.2,0,0-.09-.08-.15-.17-.15-.14-.06-.06,0,0-.22-.2-.11-.09,0,0,0,0-.2-.16-.15-.1-.24-.16-.18-.11-.05,0-.85-.5-.14-.07-.18-.1-.12-.05-.24-.11-.17-.06-.18-.06-.18-.05-.09,0-.09,0-.19,0h-.12l-.28,0h-.23l-.25,0a.11.11,0,0,0-.06,0l-.25.06-.36.17-6.82,4a2.07,2.07,0,0,1,.34-.15l.26-.08h.06a1.65,1.65,0,0,1,.32,0h.41a2.12,2.12,0,0,1,.4.06l.43.11.44.18a5,5,0,0,1,.46.24l.86.5a3,3,0,0,1,.44.28l.43.31,0,0,.38.33s0,0,0,0l.31.31.08.09.23.25.16.18.22.29a1.83,1.83,0,0,0,.13.16l.26.39.06.08.31.5a.64.64,0,0,0,.08.14l.19.36a2,2,0,0,1,.1.21l.15.32a1.17,1.17,0,0,0,0,.11c.06.14.11.27.16.4a1,1,0,0,0,0,.1c0,.16.11.32.16.48l0,.07c0,.16.09.32.13.48v0c0,.18.07.35.1.52a5.06,5.06,0,0,1,.06.53c0,.21,0,.38,0,.55v3.51l6.82-4v-3.71Z"/></g></g></g></svg>