<?xml version="1.0" encoding="utf-8"?>
<!-- Generator: Adobe Illustrator 25.0.0, SVG Export Plug-In . SVG Version: 6.00 Build 0)  -->
<svg version="1.1" id="Layer_1" xmlns="http://www.w3.org/2000/svg" xmlns:xlink="http://www.w3.org/1999/xlink" x="0px" y="0px"
	 viewBox="0 0 1920 1080" style="enable-background:new 0 0 1920 1080;" xml:space="preserve">
<style type="text/css">
	
		.st0{fill-rule:evenodd;clip-rule:evenodd;fill:#99CCED;stroke:#2572B8;stroke-width:0.75;stroke-linecap:round;stroke-linejoin:round;}
	
		.st1{fill-rule:evenodd;clip-rule:evenodd;fill:#D9E6F5;stroke:#2572B8;stroke-width:0.75;stroke-linecap:round;stroke-linejoin:round;}
	
		.st2{fill-rule:evenodd;clip-rule:evenodd;fill:#FFFFFF;stroke:#2572B8;stroke-width:0.75;stroke-linecap:round;stroke-linejoin:round;}
	.st3{fill-rule:evenodd;clip-rule:evenodd;fill:#FFFFFF;}
	.st4{fill:none;stroke:#2372B8;stroke-width:1.03;stroke-linecap:round;stroke-linejoin:round;}
	.st5{fill-rule:evenodd;clip-rule:evenodd;fill:#D9E7F5;}
	.st6{fill-rule:evenodd;clip-rule:evenodd;fill:#9ACDEE;}
</style>
<g id="Layer_2_1_">
	<g id="Layer_1-2">
		<path class="st0" d="M1011.2,576.7c0,6.1-0.4,9.6,3,15.1c8.9,12.8,29.3,17.5,43.8,17.7c14.7,0.2,34.5-3.9,44.4-15.6
			c2.9-3.2,4.6-7.3,4.8-11.6v-5.7c-0.4,5.1-2.4,9-5.9,12.8c-11.1,11.7-32.3,15.3-47.8,14.2c-13.3-0.9-31.3-5.8-39.4-17.5
			C1012.4,583.2,1011.4,580,1011.2,576.7z"/>
		<path class="st0" d="M1083.3,600c23-7.7,30.9-24.7,17.6-37.9c-13.3-13.3-42.8-17.8-65.6-10.1c-23,7.6-31.1,24.6-17.8,37.9
			C1030.8,603.2,1060.3,607.7,1083.3,600z"/>
		<polygon class="st0" points="1086.3,585.4 1092.8,581.6 1092.8,563.9 1086.3,567.6 		"/>
		<polygon class="st1" points="1086.3,567.6 1043.3,542.8 1043.3,560.5 1086.3,585.4 		"/>
		<path class="st1" d="M1147.3,603.3l6-3.5c2.8-2.4,3-3.8,3.4-7.5V479.8c-0.8-8.4-4.4-15.1-11.7-20.1l-160.9-92.9
			c-3.4-1.5-4.9-2.1-8.3-0.8l-6.1,3.5c3.4-1.3,4.9-0.7,8.1,0.8l161.1,92.9c7.3,4.9,10.9,11.4,11.7,20v112.5
			C1150.3,599.4,1150.1,600.9,1147.3,603.3z"/>
		<path class="st1" d="M1139,463.3l-161.1-92.9c-6.3-3.7-11.5-0.7-11.5,6.7v112.4c0,7.4,5.2,16.4,11.7,20.1l161.1,92.9
			c6.2,3.7,11.5,0.7,11.5-6.7V483.3C1150.7,476,1145.4,467,1139,463.3z"/>
		<path class="st0" d="M1146.7,471.1l6.1-3.5c2.4,3.7,3.8,7.9,4,12.3v112.4c-0.4,3.6-0.6,5.1-3.4,7.5l-6.1,3.5
			c2.8-2.4,3-3.9,3.4-7.5V483.3C1150.4,479,1149.1,474.7,1146.7,471.1z"/>
		<path class="st0" d="M867.9,596.8v7.3c0.6,2.2,2,3.4,4,4.6l134.9,77.9c6.3,3.2,13.7,3.2,20,0l46-26.8c2-1.1,3.4-2.4,4-4.6V648
			c-0.6,2.2-2,3.5-4,4.6l-46,26.8c-6.3,3.2-13.7,3.2-20,0l-134.9-77.9C869.9,600.3,868.5,599,867.9,596.8z"/>
		<path class="st1" d="M1072.8,641l-134.7-77.9c-5.7-3.2-14.5-3.1-20.2,0l-46,26.8c-5.6,3.2-5.6,8.4,0,11.6l134.8,77.8
			c5.4,3.2,14.3,3.2,20,0l46-26.8C1078.4,649.4,1078.4,644.2,1072.8,641z"/>
		<path class="st2" d="M1009.2,635.8l-6.7-3.9c-1.6-0.8-3.4-0.8-5,0l-6.7,3.9c-1.4,0.8-1.4,2.1,0,2.8l6.7,3.9c1.6,0.7,3.4,0.7,5,0
			l6.7-3.9C1010.6,637.8,1010.6,636.6,1009.2,635.8z"/>
		<path class="st2" d="M1035.6,651.1l6.9,3.9c0.8,0.4,1.1,1.3,0.8,2.1c-0.2,0.3-0.4,0.6-0.8,0.8l-6.9,3.9c-1.5,0.8-3.3,0.8-4.8,0
			l-6.7-3.9c-1.4-0.8-1.4-2,0-2.9l6.7-3.9C1032.3,650.3,1034.1,650.3,1035.6,651.1z"/>
		<path class="st2" d="M1019.1,660.7l6.9,3.9c0.8,0.4,1.1,1.3,0.8,2.1c-0.2,0.3-0.4,0.6-0.8,0.8l-6.9,3.9c-1.5,0.8-3.3,0.8-4.8,0
			l-6.9-3.9c-0.8-0.4-1.1-1.3-0.8-2.1c0.2-0.3,0.4-0.6,0.8-0.8l6.9-3.9C1015.8,659.9,1017.6,659.9,1019.1,660.7z"/>
		<path class="st2" d="M1030.8,642.5l-6.7-3.9c-1.4-0.8-1.4-2.1,0-2.8l6.7-3.9c1.5-0.8,3.3-0.8,4.8,0l6.9,3.9
			c0.8,0.4,1.1,1.3,0.8,2.1c-0.2,0.3-0.4,0.6-0.8,0.8l-6.9,3.9C1034.1,643.3,1032.3,643.3,1030.8,642.5z"/>
		<path class="st2" d="M1014,633l-6.7-4c-1.4-0.8-1.4-2.1,0-2.9l6.7-3.9c1.6-0.8,3.4-0.8,5,0l6.9,3.9c0.8,0.4,1.1,1.3,0.7,2.1
			c-0.2,0.3-0.4,0.6-0.7,0.7l-6.8,4C1017.5,633.7,1015.6,633.7,1014,633z"/>
		<path class="st2" d="M1040.7,648.2l6.7,3.9c1.6,0.8,3.4,0.8,5,0l6.7-3.9c1.4-0.8,1.4-2.1,0-2.9l-6.7-3.9c-1.6-0.8-3.4-0.8-5,0
			l-6.7,3.9C1039.3,646.1,1039.3,647.4,1040.7,648.2z"/>
		<path class="st2" d="M1026,645.4l-6.9-3.9c-1.6-0.8-3.4-0.8-5,0l-6.7,3.9c-1.4,0.8-1.4,2.1,0,2.8l6.7,3.9c1.6,0.8,3.4,0.8,5,0
			l6.9-3.9c0.8-0.4,1.1-1.3,0.8-2.1C1026.5,645.8,1026.3,645.5,1026,645.4z"/>
		<path class="st2" d="M975.9,616.6l-6.7-3.9c-1.6-0.8-3.4-0.8-5,0l-6.7,3.9c-1.4,0.8-1.4,2.1,0,2.9l6.9,3.9c1.5,0.8,3.3,0.8,4.8,0
			l6.7-3.9C977.3,618.6,977.3,617.3,975.9,616.6z"/>
		<path class="st2" d="M959.3,626.2l-6.7-3.9c-1.6-0.8-3.4-0.8-5,0l-6.7,3.9c-1.4,0.8-1.4,2,0,2.8l6.7,3.9c1.6,0.8,3.4,0.8,5,0
			l6.7-3.9C960.7,628.2,960.7,627,959.3,626.2z"/>
		<path class="st2" d="M997.5,623.3l-6.6-3.9c-1.4-0.8-1.4-2.1,0-2.9l6.7-3.9c1.5-0.8,3.3-0.8,4.8,0l6.9,3.9c1.4,0.8,1.4,2.1,0,2.9
			l-6.7,3.9C1001,624.1,999.1,624.1,997.5,623.3z"/>
		<path class="st2" d="M980.9,613.7l-6.9-3.9c-0.8-0.4-1.1-1.3-0.8-2.1c0.2-0.3,0.4-0.6,0.8-0.8l6.9-3.9c1.5-0.8,3.3-0.8,4.8,0
			l6.9,3.9c0.8,0.4,1.1,1.3,0.8,2.1c-0.2,0.3-0.4,0.6-0.8,0.8l-6.9,3.9C984.3,614.5,982.5,614.5,980.9,613.7z"/>
		<path class="st2" d="M992.6,626.2l-6.9-3.9c-1.5-0.8-3.3-0.8-4.8,0l-6.9,3.9c-0.8,0.4-1.1,1.3-0.8,2.1c0.2,0.3,0.4,0.6,0.8,0.8
			l6.9,3.9c1.5,0.8,3.3,0.8,4.8,0l6.9-3.9C994.1,628.2,994.1,627,992.6,626.2z"/>
		<path class="st2" d="M1009.2,655l-40-23.1c-1.5-0.8-3.3-0.8-4.8,0l-6.9,3.9c-1.4,0.8-1.4,2.1,0,2.9l40,23.1c1.6,0.8,3.4,0.8,5,0
			l6.7-3.9C1010.6,657,1010.6,655.8,1009.2,655z"/>
		<path class="st2" d="M920.8,584.6l-6.9-3.9c-1.5-0.8-3.3-0.8-4.8,0l-6.9,3.9c-1.4,0.8-1.4,2.1,0,2.8l6.9,3.9
			c1.5,0.8,3.3,0.8,4.8,0l6.9-3.9c0.8-0.4,1.1-1.3,0.8-2.1C921.4,585,921.1,584.8,920.8,584.6z"/>
		<path class="st2" d="M904,594.2l-6.7-3.9c-1.6-0.8-3.4-0.8-5,0l-6.6,3.9c-1.4,0.8-1.4,2,0,2.8l6.6,3.9c1.6,0.8,3.4,0.8,5,0
			l6.7-3.9C905.4,596.3,905.4,595,904,594.2z"/>
		<path class="st2" d="M925.6,581.8l-6.7-3.9c-1.4-0.8-1.4-2.1,0-2.8l6.7-3.9c1.5-0.8,3.3-0.8,4.8,0l6.9,3.9c1.4,0.8,1.4,2.1,0,2.9
			l-6.9,3.9C928.9,582.6,927.1,582.6,925.6,581.8z"/>
		<path class="st2" d="M937.3,594.2l-6.9-3.9c-1.5-0.8-3.3-0.8-4.8,0l-6.7,3.9c-1.4,0.8-1.4,2.1,0,2.9l6.7,3.9
			c1.5,0.8,3.3,0.8,4.8,0l6.9-3.9C938.7,596.3,938.7,595,937.3,594.2z"/>
		<path class="st2" d="M920.8,603.8l-6.9-3.9c-1.5-0.8-3.3-0.8-4.8,0l-6.9,3.9c-1.4,0.8-1.4,2.1,0,2.9l6.9,3.9
			c1.5,0.8,3.3,0.8,4.8,0l6.9-3.9c0.8-0.3,1.2-1.2,0.9-2C921.4,604.3,921.1,604,920.8,603.8z"/>
		<path class="st2" d="M958.9,601l-6.9-3.9c-0.8-0.4-1.1-1.3-0.8-2.1c0.2-0.3,0.4-0.6,0.8-0.8l6.9-3.9c1.5-0.8,3.3-0.8,4.9,0
			l6.9,3.9c0.8,0.4,1.1,1.3,0.8,2.1c-0.2,0.3-0.4,0.6-0.8,0.8l-6.9,3.9C962.3,601.8,960.4,601.8,958.9,601z"/>
		<path class="st2" d="M942.4,591.4l-6.9-3.9c-1.4-0.8-1.4-2.1,0-2.9l6.7-3.9c1.6-0.8,3.4-0.8,5,0l6.7,3.9c1.4,0.8,1.4,2.1,0,2.9
			l-6.7,3.9C945.7,592.1,943.9,592.1,942.4,591.4z"/>
		<path class="st2" d="M953.9,603.8l-6.7-3.9c-1.5-0.8-3.3-0.8-4.8,0l-6.9,3.9c-1.4,0.8-1.4,2.1,0,2.8l6.9,3.9
			c1.5,0.8,3.3,0.8,4.8,0l6.7-3.9C955.3,605.9,955.3,604.6,953.9,603.8z"/>
		<path class="st2" d="M937.3,613.4l-6.9-3.9c-1.5-0.8-3.3-0.8-4.8,0l-6.7,3.9c-1.4,0.8-1.4,2.1,0,2.9l6.7,3.9
			c1.5,0.8,3.3,0.8,4.8,0l6.9-3.9C938.7,615.5,938.7,614.2,937.3,613.4z"/>
		<path class="st2" d="M1138.2,472.1l-159.3-92c-3-1.7-5.2-0.3-5.2,3v108.3c0.1,3.7,2.1,7.1,5.2,9l159.5,92c2.8,1.6,5.1,0.3,5.1-3
			V481.1C1143.2,477.5,1141.2,474.1,1138.2,472.1z"/>
		<path class="st0" d="M1123.2,671.7c1.8,3.5,2.4,13.2-1,18.2c-9.9,14.5-50.4,33.2-67.9,20.7c-2.9-2-5-4.9-6-8.2
			c-1.2-4.3-0.2-8.7,0.6-11.7c1.2,5.6,5.2,9,10.1,11.4c30,9.6,33.2-9.7,56.8-18.9C1120.5,679.7,1122.4,677.7,1123.2,671.7z"/>
		<path class="st1" d="M1124.6,676.8c1.2,15.7-18.5,9.5-26.8,20.5c-9.5,12.4-33.6,16.7-45.3,6.8c-3.1-2.4-4.7-6.2-4.2-10.1
			c0.2-3.4,1.8-6.8,3.8-10.3c6.5-10.4,15.9-18.6,27-23.8c6.1-2.8,11.3-4.4,17.1-3.8C1106.5,657.3,1123.6,665.3,1124.6,676.8z"/>
		<path class="st0" d="M1088.1,677c0.6,0,1.1-0.2,1.6-0.6c6.6-6,14.6-10.3,23.2-12.5c1.2-0.4,2-1.6,1.6-2.9c0,0,0,0,0,0
			c-0.3-1.2-1.5-2-2.7-1.7c0,0-0.1,0-0.1,0c-9.4,2.4-18,7.1-25.2,13.5c-1,0.9-1,2.4-0.2,3.3C1086.7,676.7,1087.4,677,1088.1,677z"/>
		<path class="st2" d="M1094.4,672.4c1.2,0,2.2-0.8,2.4-1.9c0.2-1.3,1.8-2.9,3.8-3.9c2.2-1.2,4.2-1.2,5-0.9c1.2,0.6,2.6,0,3.2-1.2
			s0-2.6-1.2-3.2c-2.6-1.1-6-0.7-9.3,1c-3.4,1.7-5.7,4.4-6.3,7.1c-0.4,1.2,0.3,2.4,1.4,2.7c0.1,0,0.2,0.1,0.4,0.1
			C1094.1,672.4,1094.3,672.4,1094.4,672.4z"/>
		<polygon class="st2" points="1118.4,486.2 998.7,417.1 998.7,499.6 1118.4,568.7 		"/>
		<polygon class="st1" points="1118.4,486.2 998.7,417.1 998.7,405.2 1118.4,474.3 		"/>
		<path class="st3" d="M783.3,575.6c-5.1,0-9.3-4.2-9.2-9.3c0-5.1,4.2-9.3,9.3-9.2c5.1,0,9.2,4.2,9.2,9.3
			C792.5,571.4,788.4,575.6,783.3,575.6C783.3,575.6,783.3,575.6,783.3,575.6"/>
		<path class="st4" d="M783.3,575.6c-5.1,0-9.3-4.2-9.2-9.3c0-5.1,4.2-9.3,9.3-9.2c5.1,0,9.2,4.2,9.2,9.3
			C792.5,571.4,788.4,575.6,783.3,575.6C783.3,575.6,783.3,575.6,783.3,575.6z"/>
		<path class="st5" d="M773.8,582c0-5.3,4.3-9.6,9.6-9.6c5.3,0,9.6,4.3,9.6,9.6v23.8c-0.1,1.3-0.1,2-2.9,3.6
			c-2.8,1.6-10.8,1.6-13.5,0c-2.7-1.6-2.7-2.3-2.8-3.6V582z"/>
		<path class="st4" d="M773.8,582c0-5.3,4.3-9.6,9.6-9.6c5.3,0,9.6,4.3,9.6,9.6v23.8c-0.1,1.3-0.1,2-2.9,3.6
			c-2.8,1.6-10.8,1.6-13.5,0c-2.7-1.6-2.7-2.3-2.8-3.6V582z"/>
		<path class="st5" d="M783.3,575.6c-5.1,0-9.3-4.2-9.2-9.3c0-5.1,4.2-9.3,9.3-9.2c5.1,0,9.2,4.2,9.2,9.3
			C792.5,571.4,788.4,575.6,783.3,575.6C783.3,575.6,783.3,575.6,783.3,575.6"/>
		<path class="st4" d="M783.3,575.6c-5.1,0-9.3-4.2-9.2-9.3c0-5.1,4.2-9.3,9.3-9.2c5.1,0,9.2,4.2,9.2,9.3
			C792.5,571.4,788.4,575.6,783.3,575.6C783.3,575.6,783.3,575.6,783.3,575.6z"/>
		<path class="st6" d="M917.8,492.4v48.1l-0.3,1.5c-0.9,3.3-2.4,6.4-4.6,9c-4.5,5.6-11.2,9.7-17.7,12.5c-20.8,8.9-50.6,8.5-70.8-2.1
			c-5.4-2.8-10.9-6.8-14.4-11.9c-1.6-2.3-2.8-4.9-3.5-7.6l-0.3-1.5v-48.1c0.2,1,0.4,2.1,0.8,3.1c1.2,3.3,3.1,6.3,5.4,8.9
			c6.5,7.2,16.8,11.9,26.1,14.3c18.4,5,41.7,3.9,59.1-4.3c6.7-3.2,13.7-8,17.5-14.4c1.2-1.9,2-3.9,2.6-6.1L917.8,492.4z"/>
		<path class="st4" d="M917.8,492.4v48.1l-0.3,1.5c-0.9,3.3-2.4,6.4-4.6,9c-4.5,5.6-11.2,9.7-17.7,12.5c-20.8,8.9-50.6,8.5-70.8-2.1
			c-5.4-2.8-10.9-6.8-14.4-11.9c-1.6-2.3-2.8-4.9-3.5-7.6l-0.3-1.5v-48.1c0.2,1,0.4,2.1,0.8,3.1c1.2,3.3,3.1,6.3,5.4,8.9
			c6.5,7.2,16.8,11.9,26.1,14.3c18.4,5,41.7,3.9,59.1-4.3c6.7-3.2,13.7-8,17.5-14.4c1.2-1.9,2-3.9,2.6-6.1L917.8,492.4z"/>
		<polygon class="st5" points="763.4,489.6 763.4,493.8 861.9,550.7 861.9,546.5 		"/>
		<polygon class="st4" points="763.4,489.6 763.4,493.8 861.9,550.7 861.9,546.5 		"/>
		<polygon class="st6" points="861.9,546.5 861.9,550.7 960.4,493.8 960.4,489.6 		"/>
		<polygon class="st4" points="861.9,546.5 861.9,550.7 960.4,493.8 960.4,489.6 		"/>
		<polygon class="st6" points="861.9,432.7 763.4,489.6 861.9,546.5 960.4,489.6 		"/>
		<polygon class="st4" points="861.9,432.7 763.4,489.6 861.9,546.5 960.4,489.6 		"/>
		<path class="st5" d="M783.3,559.5c0.7,0,1.3-0.6,1.3-1.2v-33.9c-0.1-13.7,9.9-25.4,23.5-27.4l54.3-8.2c0.7-0.1,1.2-0.7,1.1-1.4
			c0,0,0-0.1,0-0.1c-0.1-0.6-0.7-1.1-1.4-1l-54.4,8.2c-14.8,2.2-25.7,14.9-25.6,29.8v33.9C782,558.9,782.5,559.4,783.3,559.5
			C783.2,559.5,783.2,559.5,783.3,559.5"/>
		<path class="st4" d="M783.3,559.5c0.7,0,1.3-0.6,1.3-1.2v-33.9c-0.1-13.7,9.9-25.4,23.5-27.4l54.3-8.2c0.7-0.1,1.2-0.7,1.1-1.4
			c0,0,0-0.1,0-0.1c-0.1-0.6-0.7-1.1-1.4-1l-54.4,8.2c-14.8,2.2-25.7,14.9-25.6,29.8v33.9C782,558.9,782.5,559.4,783.3,559.5
			C783.2,559.5,783.2,559.5,783.3,559.5z"/>
		<path class="st5" d="M853.4,482.5c4.7-2.7,12.3-2.7,17,0s4.7,7.1,0,9.8c-4.7,2.7-12.3,2.7-17,0
			C848.7,489.7,848.6,485.2,853.4,482.5"/>
		<path class="st4" d="M853.4,482.5c4.7-2.7,12.3-2.7,17,0s4.7,7.1,0,9.8c-4.7,2.7-12.3,2.7-17,0
			C848.7,489.7,848.6,485.2,853.4,482.5z"/>
	</g>
</g>
</svg>
