<?xml version="1.0" encoding="utf-8"?>
<!-- Generator: Adobe Illustrator 25.0.0, SVG Export Plug-In . SVG Version: 6.00 Build 0)  -->
<svg version="1.1" id="Layer_1" xmlns="http://www.w3.org/2000/svg" xmlns:xlink="http://www.w3.org/1999/xlink" x="0px" y="0px"
	 viewBox="0 0 1920 1080" style="enable-background:new 0 0 1920 1080;" xml:space="preserve">
<style type="text/css">
	
		.st0{fill-rule:evenodd;clip-rule:evenodd;fill:#99CCED;stroke:#2572B8;stroke-width:0.85;stroke-linecap:round;stroke-linejoin:round;}
	.st1{fill:none;}
	
		.st2{fill-rule:evenodd;clip-rule:evenodd;fill:#D9E6F5;stroke:#2572B8;stroke-width:0.85;stroke-linecap:round;stroke-linejoin:round;}
	
		.st3{fill-rule:evenodd;clip-rule:evenodd;fill:#FFFFFF;stroke:#2572B8;stroke-width:0.85;stroke-linecap:round;stroke-linejoin:round;}
	
		.st4{fill-rule:evenodd;clip-rule:evenodd;fill:#99CCED;stroke:#2572B8;stroke-width:0.81;stroke-linecap:round;stroke-linejoin:round;}
	
		.st5{fill-rule:evenodd;clip-rule:evenodd;fill:#D9E6F5;stroke:#2572B8;stroke-width:0.81;stroke-linecap:round;stroke-linejoin:round;}
	
		.st6{fill-rule:evenodd;clip-rule:evenodd;fill:#FFFFFF;stroke:#2572B8;stroke-width:0.81;stroke-linecap:round;stroke-linejoin:round;}
	
		.st7{fill-rule:evenodd;clip-rule:evenodd;fill:#99CCED;stroke:#2572B8;stroke-width:0.61;stroke-linecap:round;stroke-linejoin:round;}
	
		.st8{fill-rule:evenodd;clip-rule:evenodd;fill:#D9E6F5;stroke:#2572B8;stroke-width:0.61;stroke-linecap:round;stroke-linejoin:round;}
	
		.st9{fill-rule:evenodd;clip-rule:evenodd;fill:#FFFFFF;stroke:#2572B8;stroke-width:0.61;stroke-linecap:round;stroke-linejoin:round;}
</style>
<g id="Layer_2_1_">
	<g id="Layer_1-2">
		<polygon class="st0" points="824.5,659.2 751.9,617.2 929.4,514.7 1002,556.7 		"/>
		<path class="st1" d="M756.4,617.2l68.1,39.3l172.9-99.8l-68.1-39.3L756.4,617.2z M824.5,661.4c-0.4,0-0.8-0.1-1.2-0.3l-72.6-41.9
			c-0.7-0.4-1.1-1.2-1.1-2c0-0.8,0.4-1.6,1.1-2l177.5-102.4c0.7-0.4,1.6-0.4,2.2,0l72.7,41.9c1.1,0.7,1.5,2.1,0.8,3.2
			c-0.2,0.3-0.5,0.6-0.8,0.8L825.6,661.1C825.3,661.3,824.9,661.4,824.5,661.4z"/>
		<polygon class="st0" points="824.5,682.3 751.9,640.4 751.9,617.2 824.5,659.2 		"/>
		<path class="st1" d="M754.2,639l68,39.3v-17.9l-68-39.3C754.2,621.2,754.2,639,754.2,639z M824.5,684.6c-0.4,0-0.8-0.1-1.2-0.3
			l-72.6-41.9c-0.7-0.4-1.1-1.2-1.1-2v-23.1c0-0.8,0.4-1.6,1.1-2c0.7-0.4,1.6-0.4,2.2,0l72.6,42c0.7,0.4,1.2,1.2,1.1,2v23.1
			c0,0.8-0.4,1.6-1.1,2C825.3,684.5,824.9,684.6,824.5,684.6z"/>
		<polygon class="st0" points="824.5,659.2 1002,556.7 1002,579.8 824.5,682.3 		"/>
		<path class="st1" d="M826.8,660.5v17.9l172.9-99.8l0.1-17.9C999.8,560.6,826.8,660.5,826.8,660.5z M824.5,684.6
			c-0.4,0-0.8-0.1-1.2-0.3c-0.7-0.4-1.2-1.2-1.2-2v-23.1c0-0.8,0.4-1.6,1.2-2l177.5-102.5c0.7-0.4,1.6-0.4,2.3,0
			c0.7,0.4,1.1,1.2,1.1,2v23.1c0,0.8-0.4,1.6-1.1,2L825.6,684.3C825.3,684.4,824.9,684.6,824.5,684.6z"/>
		<polygon class="st2" points="918.7,586.8 878.9,563.7 878.9,387.4 918.7,410.4 		"/>
		<path class="st1" d="M881.2,562.4l35.3,20.4V411.7l-35.3-20.4V562.4z M918.7,589c-0.4,0-0.8-0.1-1.1-0.3l-39.9-23
			c-0.7-0.4-1.1-1.2-1.2-2V387.4c0-0.8,0.4-1.6,1.2-2c0.7-0.4,1.5-0.4,2.2,0l39.9,23c0.7,0.4,1.2,1.2,1.2,2v176.4
			c0,0.8-0.4,1.6-1.2,2C919.5,588.9,919.1,589,918.7,589z"/>
		<polygon class="st2" points="918.7,410.4 878.9,387.4 926,360.2 965.8,383.2 		"/>
		<path class="st1" d="M883.4,387.4l35.3,20.4l42.6-24.6L926,362.8L883.4,387.4z M918.7,412.7c-0.4,0-0.8-0.1-1.1-0.3l-39.9-23
			c-1.1-0.6-1.5-2-0.9-3.1c0.2-0.4,0.5-0.7,0.9-0.9l47.1-27.2c0.7-0.4,1.6-0.4,2.3,0l39.9,23c1.1,0.6,1.5,2,0.9,3.1
			c-0.2,0.4-0.5,0.7-0.9,0.9l-47.1,27.2C919.5,412.6,919.1,412.7,918.7,412.7z"/>
		<polygon class="st0" points="874.1,612.5 834.2,589.5 834.2,474.6 874.1,497.6 		"/>
		<path class="st1" d="M836.5,588.2l35.3,20.4V498.9l-35.3-20.4V588.2z M874.1,614.8c-0.4,0-0.8-0.1-1.1-0.3l-39.9-23
			c-0.7-0.4-1.1-1.2-1.1-2V474.5c0-0.8,0.4-1.6,1.2-2c0.7-0.4,1.6-0.4,2.2,0l39.9,23c0.7,0.4,1.2,1.2,1.2,2v115c0,0.8-0.4,1.6-1.2,2
			C874.9,614.7,874.5,614.8,874.1,614.8z"/>
		<polygon class="st0" points="874.1,497.6 834.2,474.6 881.4,447.4 921.2,470.4 		"/>
		<path class="st1" d="M838.8,474.5l35.3,20.4l42.5-24.5L881.4,450L838.8,474.5z M874.1,499.9c-0.4,0-0.8-0.1-1.1-0.3l-39.9-23
			c-1.1-0.6-1.5-2-0.9-3c0.2-0.4,0.5-0.7,0.9-0.9l47.1-27.2c0.7-0.4,1.5-0.4,2.2,0l39.9,23c1.1,0.6,1.5,1.9,0.9,3.1
			c-0.2,0.4-0.5,0.7-0.9,0.9l-47.1,27.2C874.9,499.8,874.5,499.9,874.1,499.9z"/>
		<polygon class="st0" points="874.1,612.5 874.1,497.6 921.2,470.4 921.2,585.3 		"/>
		<path class="st1" d="M876.4,498.9v109.7L919,584V474.3L876.4,498.9z M874.1,614.8c-0.4,0-0.8-0.1-1.1-0.3c-0.7-0.4-1.2-1.2-1.2-2
			V497.6c0-0.8,0.4-1.6,1.2-2l47.1-27.2c0.7-0.4,1.6-0.4,2.2,0c0.7,0.4,1.2,1.2,1.2,2v114.9c0,0.8-0.4,1.6-1.2,2l-47.1,27.2
			C874.9,614.7,874.5,614.8,874.1,614.8z"/>
		<polygon class="st2" points="918.7,586.8 918.7,410.4 965.8,383.2 965.8,559.5 		"/>
		<path class="st1" d="M921,411.7v171.1l42.6-24.6V387.1L921,411.7z M918.7,589c-0.4,0-0.8-0.1-1.1-0.3c-0.7-0.4-1.2-1.2-1.1-2
			V410.4c0-0.8,0.4-1.6,1.1-2l47.1-27.2c0.7-0.4,1.6-0.4,2.2,0c0.7,0.4,1.2,1.2,1.2,2v176.3c0,0.8-0.4,1.6-1.2,2l-47.1,27.2
			C919.5,588.9,919.1,589,918.7,589z"/>
		<polygon class="st3" points="874.1,533.3 834.2,510.3 787.1,537.5 827,560.5 		"/>
		<path class="st1" d="M791.6,537.5l35.3,20.4l42.6-24.6l-35.3-20.4L791.6,537.5z M826.9,562.8c-0.4,0-0.8-0.1-1.1-0.3l-39.9-23
			c-1.1-0.7-1.4-2.1-0.7-3.2c0.2-0.3,0.4-0.5,0.7-0.7l47.1-27.2c0.7-0.4,1.6-0.4,2.3,0l39.9,23c0.7,0.4,1.1,1.2,1.2,2
			c0,0.8-0.4,1.6-1.2,2l-47.1,27.2C827.8,562.7,827.4,562.8,826.9,562.8L826.9,562.8z"/>
		<polygon class="st3" points="827,560.5 787.1,537.5 787.1,616.7 827,639.7 		"/>
		<path class="st1" d="M789.4,615.4l35.3,20.4v-73.8l-35.3-20.4V615.4z M827,642c-0.4,0-0.8-0.1-1.1-0.3l-39.9-23
			c-0.7-0.4-1.1-1.2-1.1-2v-79.2c0-0.8,0.4-1.6,1.1-2c0.7-0.4,1.6-0.4,2.3,0l39.9,23c0.7,0.4,1.2,1.2,1.2,2v79.2
			c0,0.8-0.4,1.6-1.2,2C827.8,641.9,827.4,642,827,642z"/>
		<polygon class="st3" points="874.1,612.5 874.1,533.3 827,560.5 827,639.7 		"/>
		<path class="st1" d="M874.1,612.5L874.1,612.5z M829.3,561.9v73.9l42.6-24.6v-73.9L829.3,561.9z M827,642c-0.4,0-0.8-0.1-1.1-0.3
			c-0.7-0.4-1.2-1.2-1.2-2v-79.2c0-0.8,0.4-1.6,1.2-2l47.1-27.2c0.7-0.4,1.6-0.4,2.2,0c0.7,0.4,1.1,1.2,1.2,2v79.2
			c0,0.8-0.4,1.6-1.2,2l-47.1,27.2C827.8,641.9,827.4,642,827,642z"/>
		<path class="st4" d="M1055.9,496.6c7.2-4,14.8-6.3,22.5-2.2c-5.6-3.3-13.9-9.1-19.6-9.8c-5.9-0.7-11.4,1.4-16.5,4.2
			c-17.6,10.7-30.2,32.2-31.8,52.6l13.6,7.9C1025.7,528.8,1038.4,507.2,1055.9,496.6z"/>
		<path class="st1" d="M1012.6,540.3l9.9,5.7c2.6-20.5,15.3-40.7,32.4-51.1c0,0,0,0,0.1,0c3.8-2,8.2-4.1,13-4.5
			c-3.4-1.9-6.8-3.5-9.4-3.9c-5.8-0.7-11.3,1.8-15.3,4C1027,500.3,1014.5,520.7,1012.6,540.3L1012.6,540.3z M1024.2,551.2
			c-0.4,0-0.7-0.1-1-0.3l-13.6-7.9c-0.7-0.4-1-1.1-1-1.9c1.6-21.5,14.8-43.3,32.7-54.2c4.7-2.6,10.9-5.4,17.8-4.5
			c4.9,0.6,11,4.4,16.4,7.7c1.4,0.9,2.8,1.7,4,2.4c0.9,0.7,1,2,0.3,2.8c-0.5,0.6-1.4,0.9-2.2,0.6c-6-3.1-12.1-2.4-20.6,2.2
			c-16.6,10.1-29.3,31.1-30.8,51.1C1026,550.4,1025.2,551.2,1024.2,551.2L1024.2,551.2z"/>
		<path class="st5" d="M1055.9,496.6L1055.9,496.6l-13.6-7.9l0,0L1055.9,496.6L1055.9,496.6z M1069.2,449.4
			c-4.1-2.4-13.4-8.6-17.1-9c-18.5-2.3-38.6,37.6-23,47.1l13.6,7.8C1025.5,484.4,1051.2,440,1069.2,449.4L1069.2,449.4z"/>
		<path class="st1" d="M1050.5,442.2c-9.3,0-19.1,11.8-23.1,23.4c-3.3,9.6-2.3,17.1,2.7,20.2l5.7,3.3c-2.1-7.4,0.6-17.2,5.3-25.3
			c4.7-8,12-15.5,19.5-17.2c-3.4-2-7-4-8.8-4.2C1051.4,442.3,1050.9,442.2,1050.5,442.2z M1042.6,497.3c-0.4,0-0.7-0.1-1-0.3
			l-13.6-7.9c-6.8-4.1-8.5-13.4-4.5-24.9c4.8-13.9,16.8-27.4,28.7-25.9c3.1,0.4,8.5,3.5,14.6,7.3c1.3,0.8,2.4,1.5,3.3,2
			c0.9,0.7,1,1.9,0.3,2.8c-0.5,0.7-1.4,0.9-2.2,0.6c-7.7-4-17.8,4.3-23.8,14.6s-8.1,23.2-0.8,27.9c0.9,0.6,1.2,1.9,0.5,2.8
			C1043.9,496.9,1043.3,497.3,1042.6,497.3L1042.6,497.3z M1055.9,498.5c-0.4,0-0.7-0.1-1-0.3l-13.6-7.9c-0.6-0.4-1-1-1-1.8
			c0-0.7,0.4-1.4,1.1-1.7c0.6-0.3,1.3-0.3,1.9,0l13.7,7.9c0.9,0.6,1.2,1.8,0.7,2.7c-0.1,0.2-0.3,0.5-0.6,0.6l0,0
			C1056.7,498.5,1056.3,498.6,1055.9,498.5L1055.9,498.5z"/>
		<path class="st4" d="M1078.5,494.3c-6-3.5-14.1-2.6-22.6,2.2c-8.8,5.1-16.8,13.8-22.5,23.8c-5.3,9.2-8.7,19.4-9.3,28.9l63.6-36.7
			C1087.2,503.6,1083.8,497.4,1078.5,494.3z"/>
		<path class="st1" d="M1070.2,494.2c-4,0-8.5,1.4-13.2,4.1c-8.2,4.8-16,12.9-21.8,23.1c-4.4,7.4-7.3,15.7-8.6,24.2l59.1-34.2
			c-0.7-7.3-3.6-12.7-8.2-15.4l0,0C1075.2,494.8,1072.7,494.1,1070.2,494.2L1070.2,494.2z M1024.2,551.2c-0.4,0-0.7-0.1-1-0.3
			c-0.6-0.4-1-1.1-0.9-1.8c0.5-9.5,3.9-20,9.5-29.7c6.2-10.7,14.5-19.4,23.2-24.5c9.2-5.3,17.8-6.1,24.5-2.2
			c6.1,3.5,9.7,10.5,10.2,19.8c0,0.7-0.3,1.4-1,1.8l-63.6,36.7C1024.8,551.1,1024.5,551.2,1024.2,551.2L1024.2,551.2z"/>
		<path class="st6" d="M1055.9,494L1055.9,494c5.2-3,9.8-8.1,13.2-14l0,0c3.4-5.9,5.5-12.5,5.5-18.5c0-6-2.1-10.2-5.5-12.1
			c-3.4-2-8.1-1.7-13.3,1.3c-5.2,3-9.9,8.1-13.2,14s-5.5,12.5-5.5,18.5s2.1,10.2,5.5,12.1C1046,497.2,1050.8,497,1055.9,494z"/>
		<path class="st1" d="M1064.3,450.1c-2.6,0.1-5.2,0.9-7.4,2.3c-4.7,2.7-9.2,7.4-12.5,13.3s-5.2,12-5.2,17.5c0,5,1.6,8.7,4.5,10.4
			c2.9,1.7,6.9,1.2,11.3-1.3c0,0,0.1-0.1,0.1-0.1l0,0c4.6-2.7,9-7.4,12.4-13.2c3.4-5.8,5.2-12,5.2-17.5c0-5-1.6-8.7-4.5-10.4
			C1067,450.4,1065.6,450.1,1064.3,450.1L1064.3,450.1z M1047.6,498.5c-2.1,0-4.1-0.5-5.9-1.5c-4.2-2.4-6.5-7.3-6.5-13.9
			c0-6.1,2-13,5.8-19.5s8.7-11.6,14-14.7c5.6-3.3,11-3.7,15.2-1.3c4.2,2.4,6.4,7.3,6.4,13.8c0,6.1-2,13-5.8,19.5s-8.7,11.6-14,14.7
			l0,0C1054.1,497.4,1050.9,498.4,1047.6,498.5z"/>
		<path class="st7" d="M987.7,680.5c5.4-3,11.1-4.7,16.9-1.7c-4.2-2.4-10.4-6.8-14.7-7.4c-4.3-0.6-8.6,1.1-12.4,3.2
			c-13.2,8-22.7,24.1-23.8,39.5l10.2,5.9C965,704.6,974.5,688.5,987.7,680.5z"/>
		<path class="st1" d="M955.2,713.3l7.4,4.3c1.9-15.4,11.5-30.5,24.3-38.3h0.1c3-1.8,6.3-2.9,9.8-3.4c-2.5-1.4-5.1-2.7-7-2.9
			c-4.4-0.5-8.4,1.3-11.5,3C966.1,683.3,956.7,698.6,955.2,713.3L955.2,713.3z M963.8,721.4c-0.3,0-0.5-0.1-0.7-0.2l-10.2-5.9
			c-0.5-0.3-0.8-0.8-0.7-1.4c1.2-16.1,11.1-32.5,24.6-40.6c3.5-1.9,8.2-4,13.3-3.4c3.7,0.5,8.3,3.3,12.3,5.8c1.1,0.7,2.1,1.3,3,1.8
			c0.7,0.4,0.9,1.4,0.5,2c-0.4,0.6-1.2,0.9-1.9,0.5c-4.5-2.3-9.1-1.8-15.5,1.6c-12.5,7.6-22,23.3-23.1,38.3c0,0.5-0.3,1-0.8,1.2
			C964.3,721.4,964.1,721.4,963.8,721.4L963.8,721.4z"/>
		<path class="st8" d="M987.7,680.5L987.7,680.5l-10.2-5.9l0,0L987.7,680.5L987.7,680.5z M997.6,645.1c-3.1-1.8-10-6.4-12.9-6.8
			c-13.9-1.7-28.9,28.2-17.2,35.3l10.2,5.9C964.9,671.4,984.2,638.1,997.6,645.1L997.6,645.1z"/>
		<path class="st1" d="M983.6,639.7c-7,0-14.3,8.8-17.3,17.5c-2.5,7.2-1.7,12.8,2,15.1l4.3,2.5c-1.6-5.5,0.5-12.9,4-19
			s9-11.6,14.6-12.9c-2.5-1.5-5.3-3-6.6-3.1C984.3,639.8,983.9,639.8,983.6,639.7L983.6,639.7z M977.8,681c-0.3,0-0.5-0.1-0.7-0.2
			l-10.2-5.9c-5.1-3.1-6.3-10-3.4-18.7c3.6-10.4,12.6-20.5,21.5-19.4c2.3,0.3,6.3,2.7,11,5.5c0.9,0.6,1.8,1.1,2.4,1.5
			c0.7,0.4,1,1.3,0.6,2s-1.3,1-2,0.6c-5.8-3-13.4,3.2-17.8,11c-4.5,7.7-6.1,17.4-0.6,20.9c0.7,0.4,0.9,1.3,0.5,2
			C978.8,680.7,978.3,681,977.8,681L977.8,681z M987.8,682c-0.3,0-0.5-0.1-0.7-0.2l-10.3-5.9c-0.5-0.3-0.8-0.8-0.7-1.3
			c0-0.5,0.3-1,0.8-1.3c0.4-0.2,1-0.2,1.4,0l10.2,5.9c0.7,0.4,1,1.3,0.6,2c-0.1,0.2-0.3,0.4-0.5,0.5l0,0
			C988.3,681.9,988,682,987.8,682L987.8,682z"/>
		<path class="st7" d="M1004.6,678.8c-4.5-2.6-10.5-2-16.9,1.7c-6.6,3.8-12.6,10.3-16.9,17.8c-3.9,6.6-6.3,14-7,21.6l47.7-27.5
			C1011.1,685.8,1008.6,681.1,1004.6,678.8z"/>
		<path class="st1" d="M998.4,678.7c-3.5,0.1-6.9,1.2-9.9,3.1c-6.1,3.6-12,9.7-16.3,17.3c-3.3,5.6-5.5,11.8-6.4,18.2l44.4-25.6
			c-0.5-5.5-2.7-9.5-6.1-11.5l0,0C1002.2,679.2,1000.3,678.7,998.4,678.7L998.4,678.7z M963.8,721.4c-0.8,0-1.5-0.7-1.5-1.5
			c0,0,0,0,0,0c0.6-7.9,3.1-15.5,7.1-22.3c4.6-8,10.8-14.5,17.4-18.4c6.9-4,13.4-4.6,18.4-1.7c4.5,2.6,7.3,7.9,7.7,14.8
			c0,0.6-0.2,1.1-0.7,1.4l-47.6,27.5C964.4,721.4,964.1,721.5,963.8,721.4L963.8,721.4z"/>
		<path class="st9" d="M987.7,678.5L987.7,678.5c4.2-2.6,7.6-6.2,10-10.5l0,0c2.5-4.2,3.9-9,4.1-13.8c0-4.5-1.6-7.7-4.1-9.1
			s-6-1.3-9.9,1c-8.3,5.4-13.5,14.4-14.1,24.3c0,4.5,1.6,7.6,4.1,9.1C980.3,681,983.8,680.8,987.7,678.5z"/>
		<path class="st1" d="M994,645.6c-2,0.1-3.9,0.7-5.5,1.7c-7.8,5.1-12.8,13.7-13.3,23.1c0,3.8,1.2,6.5,3.4,7.8s5.2,0.9,8.5-1
			c0,0,0.1,0,0.1,0l0,0c7.8-5.2,12.7-13.7,13.2-23c0-3.8-1.2-6.6-3.4-7.8C996,645.9,995,645.6,994,645.6L994,645.6z M981.4,681.9
			c-1.5,0-3.1-0.4-4.4-1.1c-3.1-1.8-4.9-5.5-4.9-10.4c0.5-10.4,6-20,14.8-25.6c4.2-2.5,8.3-2.8,11.4-1c3.2,1.8,4.9,5.5,4.9,10.4
			c-0.5,10.4-6,19.9-14.8,25.6l0,0C986.3,681.1,983.9,681.8,981.4,681.9z"/>
		<path class="st7" d="M1070.7,630.4c5.4-3,11.1-4.7,16.9-1.7c-4.2-2.4-10.4-6.8-14.7-7.4c-4.3-0.6-8.6,1.1-12.4,3.2
			c-13.2,8-22.7,24.1-23.8,39.5l10.2,5.9C1048,654.5,1057.5,638.4,1070.7,630.4z"/>
		<path class="st1" d="M1038.2,663.2l7.4,4.3c1.9-15.4,11.5-30.5,24.3-38.3h0.1c3-1.8,6.3-2.9,9.8-3.4c-2.5-1.4-5.1-2.7-7-2.9
			c-4.4-0.5-8.5,1.3-11.5,3C1049.1,633.2,1039.7,648.5,1038.2,663.2L1038.2,663.2z M1046.9,671.3c-0.3,0-0.5-0.1-0.7-0.2l-10.2-5.9
			c-0.5-0.3-0.8-0.8-0.7-1.4c1.2-16.1,11.1-32.5,24.6-40.6c3.5-1.9,8.2-4,13.3-3.4c3.7,0.5,8.3,3.3,12.3,5.8c1.1,0.7,2.1,1.3,3,1.8
			c0.7,0.4,0.9,1.4,0.5,2c-0.4,0.6-1.2,0.9-1.9,0.5c-4.5-2.3-9.1-1.8-15.5,1.6c-12.5,7.6-22,23.3-23.1,38.3c0,0.5-0.3,1-0.8,1.2
			C1047.4,671.3,1047.1,671.3,1046.9,671.3z"/>
		<path class="st8" d="M1070.7,630.4L1070.7,630.4l-10.2-5.9l0,0L1070.7,630.4L1070.7,630.4z M1080.6,595c-3.1-1.8-10-6.4-12.8-6.8
			c-13.9-1.7-29,28.2-17.2,35.3l10.2,5.9C1047.9,621.3,1067.2,587.9,1080.6,595L1080.6,595z"/>
		<path class="st1" d="M1066.6,589.6c-7,0-14.3,8.8-17.3,17.5c-2.5,7.2-1.7,12.8,2,15.1l4.3,2.5c-1.6-5.5,0.5-12.9,4-19
			c3.5-6.1,9-11.6,14.6-12.9c-2.6-1.5-5.3-3-6.6-3.2C1067.3,589.6,1066.9,589.6,1066.6,589.6L1066.6,589.6z M1060.8,630.9
			c-0.3,0-0.5-0.1-0.7-0.2l-10.2-5.9c-5.1-3.1-6.3-10-3.4-18.7c3.6-10.4,12.6-20.5,21.5-19.4c2.3,0.3,6.3,2.7,11,5.5
			c0.9,0.6,1.8,1.1,2.4,1.5c0.7,0.4,1,1.3,0.6,2c-0.4,0.7-1.3,1-2,0.6c-5.8-3-13.4,3.2-17.8,11c-4.5,7.8-6.1,17.4-0.6,20.9
			c0.7,0.4,0.9,1.3,0.5,2C1061.8,630.7,1061.3,631,1060.8,630.9L1060.8,630.9z M1070.7,631.9c-0.3,0-0.5-0.1-0.7-0.2l-10.2-5.9
			c-0.5-0.3-0.8-0.8-0.7-1.3c0-0.5,0.3-1,0.8-1.3c0.4-0.2,1-0.2,1.4,0l10.2,5.9c0.7,0.4,1,1.3,0.5,2c-0.1,0.2-0.3,0.4-0.5,0.5l0,0
			C1071.3,631.8,1071,631.9,1070.7,631.9L1070.7,631.9z"/>
		<path class="st7" d="M1087.6,628.7c-4.5-2.6-10.6-2-16.9,1.7c-6.6,3.8-12.6,10.3-16.9,17.8c-3.9,6.6-6.3,14-6.9,21.6l47.8-27.5
			C1094.2,635.7,1091.6,631,1087.6,628.7z"/>
		<path class="st1" d="M1081.4,628.6c-3.5,0.1-6.9,1.2-9.9,3.1c-6.2,3.6-12,9.7-16.3,17.3c-3.3,5.6-5.5,11.8-6.5,18.2l44.4-25.6
			c-0.5-5.5-2.7-9.5-6.1-11.5l0,0C1085.2,629,1083.3,628.6,1081.4,628.6L1081.4,628.6z M1046.9,671.3c-0.3,0-0.5-0.1-0.8-0.2
			c-0.5-0.3-0.7-0.8-0.7-1.3c0.6-7.9,3.1-15.5,7.1-22.3c4.6-8,10.8-14.5,17.4-18.4c6.9-4,13.4-4.6,18.4-1.7
			c4.5,2.6,7.3,7.9,7.7,14.8c0,0.6-0.2,1.1-0.7,1.4l-47.7,27.5C1047.4,671.3,1047.2,671.3,1046.9,671.3z"/>
		<path class="st9" d="M1070.7,628.4L1070.7,628.4c4.1-2.6,7.6-6.2,9.9-10.5l0,0c2.5-4.2,3.9-9,4.1-13.9c0-4.5-1.6-7.6-4.1-9.1
			s-6-1.3-9.9,1c-8.3,5.4-13.5,14.5-14.1,24.4c0,4.5,1.6,7.6,4.1,9.1C1063.3,630.9,1066.8,630.7,1070.7,628.4z"/>
		<path class="st1" d="M1077,595.5c-2,0.1-3.9,0.7-5.5,1.7c-7.8,5.1-12.8,13.7-13.3,23.1c0,3.8,1.2,6.5,3.4,7.8
			c2.2,1.3,5.2,0.9,8.5-1l0.1,0l0,0c7.8-5.2,12.7-13.7,13.2-23c0-3.8-1.2-6.5-3.4-7.8C1079,595.8,1078,595.5,1077,595.5L1077,595.5z
			 M1064.4,631.8c-1.5,0-3.1-0.4-4.4-1.1c-3.1-1.8-4.9-5.5-4.9-10.4c0.5-10.4,6-20,14.8-25.6c4.2-2.5,8.3-2.8,11.4-1
			s4.9,5.5,4.9,10.4c-0.5,10.4-6,19.9-14.8,25.6l0,0C1069.4,631,1066.9,631.8,1064.4,631.8z"/>
		<path class="st7" d="M1144.3,588c5.4-3,11.1-4.7,16.9-1.7c-4.2-2.5-10.4-6.8-14.7-7.4c-4.3-0.5-8.6,1.1-12.4,3.2
			c-13.2,8-22.7,24.1-23.8,39.5l10.2,5.9C1121.6,612.2,1131.2,596,1144.3,588z"/>
		<path class="st1" d="M1111.8,620.8l7.4,4.3c1.9-15.4,11.5-30.5,24.3-38.3h0.1c3-1.8,6.3-2.9,9.8-3.4c-2.5-1.4-5.1-2.7-7-2.9
			c-4.4-0.5-8.5,1.3-11.5,3C1122.7,590.9,1113.3,606.1,1111.8,620.8L1111.8,620.8z M1120.5,629c-0.3,0-0.5-0.1-0.7-0.2l-10.2-5.9
			c-0.5-0.3-0.8-0.8-0.7-1.4c1.2-16.1,11.1-32.4,24.6-40.6c3.5-1.9,8.2-4,13.3-3.4c3.7,0.5,8.3,3.3,12.3,5.8c1.1,0.7,2.1,1.3,3,1.8
			c0.7,0.4,1,1.3,0.6,2c-0.4,0.7-1.3,1-2,0.6l0,0c-4.5-2.3-9.1-1.8-15.5,1.7c-12.5,7.6-22,23.3-23.1,38.3c0,0.5-0.3,1-0.8,1.2
			C1121,628.9,1120.7,629,1120.5,629z"/>
		<path class="st8" d="M1144.3,588L1144.3,588l-10.2-5.9l0,0L1144.3,588L1144.3,588z M1154.3,552.7c-3.1-1.8-10-6.4-12.9-6.8
			c-13.9-1.7-29,28.2-17.2,35.3l10.2,5.9C1121.6,578.9,1140.8,545.6,1154.3,552.7L1154.3,552.7z"/>
		<path class="st1" d="M1140.2,547.3c-7,0-14.3,8.8-17.3,17.5c-2.5,7.2-1.7,12.8,2,15.1l4.3,2.5c-1.6-5.5,0.5-12.9,3.9-19
			c3.5-6.1,9-11.6,14.6-12.9c-2.5-1.5-5.3-3-6.6-3.1C1140.9,547.3,1140.6,547.3,1140.2,547.3L1140.2,547.3z M1134.4,588.6
			c-0.3,0-0.5-0.1-0.7-0.2l-10.2-5.9c-5.1-3.1-6.3-10.1-3.4-18.6c3.6-10.4,12.6-20.5,21.5-19.4c2.3,0.3,6.4,2.6,11,5.5l2.5,1.5
			c0.7,0.4,1,1.3,0.6,2s-1.3,1-2,0.6c-5.8-3-13.4,3.2-17.8,11c-4.5,7.7-6.1,17.4-0.6,20.9c0.7,0.4,0.9,1.4,0.4,2.1
			C1135.4,588.3,1134.9,588.6,1134.4,588.6L1134.4,588.6z M1144.3,589.6c-0.3,0-0.5-0.1-0.7-0.2l-10.2-5.9c-0.5-0.3-0.8-0.8-0.7-1.3
			c0-0.5,0.3-1,0.8-1.3c0.4-0.2,1-0.2,1.4,0l10.2,5.9c0.7,0.4,0.9,1.3,0.5,2c-0.1,0.2-0.3,0.4-0.5,0.5l0,0
			C1144.9,589.4,1144.6,589.5,1144.3,589.6L1144.3,589.6z"/>
		<path class="st7" d="M1161.2,586.4c-4.5-2.6-10.6-2-16.9,1.7c-6.6,3.9-12.6,10.4-16.9,17.9c-3.9,6.6-6.3,14-6.9,21.6l47.7-27.5
			C1167.8,593.3,1165.2,588.7,1161.2,586.4z"/>
		<path class="st1" d="M1155,586.2c-3.5,0.1-6.9,1.2-9.9,3.1c-6.2,3.6-12,9.7-16.3,17.3c-3.3,5.6-5.5,11.8-6.5,18.2l44.4-25.6
			c-0.5-5.4-2.7-9.5-6.1-11.5l0,0C1158.8,586.7,1156.9,586.2,1155,586.2L1155,586.2z M1120.5,629c-0.3,0-0.5-0.1-0.8-0.2
			c-0.5-0.3-0.7-0.8-0.7-1.3c0.6-7.9,3.1-15.5,7.1-22.3c4.7-8,10.8-14.5,17.4-18.4c6.9-4,13.4-4.6,18.4-1.7
			c4.5,2.6,7.3,7.9,7.7,14.8c0,0.6-0.2,1.1-0.7,1.3l-47.7,27.5C1121,628.9,1120.8,629,1120.5,629L1120.5,629z"/>
		<path class="st9" d="M1144.3,586.1L1144.3,586.1c4.1-2.6,7.6-6.2,9.9-10.5l0,0c2.5-4.2,3.9-9,4.1-13.8c0-4.5-1.6-7.6-4.1-9.1
			c-2.5-1.5-6.1-1.3-10,1c-8.3,5.4-13.5,14.5-14,24.4c0,4.5,1.6,7.6,4.1,9.1C1136.9,588.6,1140.5,588.3,1144.3,586.1z"/>
		<path class="st1" d="M1150.6,553.2c-2,0.1-3.9,0.7-5.5,1.7c-7.8,5.1-12.8,13.7-13.3,23.1c0,3.8,1.2,6.6,3.4,7.8
			c2.2,1.3,5.2,0.9,8.5-1h0.1l0,0c7.8-5.2,12.7-13.7,13.2-23c0-3.8-1.2-6.6-3.4-7.8C1152.7,553.5,1151.6,553.2,1150.6,553.2
			L1150.6,553.2z M1138.1,589.5c-1.5,0-3.1-0.4-4.4-1.1c-3.1-1.8-4.9-5.5-4.9-10.4c0.6-10.4,6.1-20,14.8-25.6
			c4.2-2.4,8.3-2.8,11.4-1c3.2,1.8,4.9,5.5,4.9,10.4c-0.5,10.4-6,19.9-14.8,25.6l0,0C1143,588.7,1140.6,589.4,1138.1,589.5z"/>
		<path class="st9" d="M1134.3,512.9c-0.6-0.4-1.4-0.4-2,0l-75,43.3v-13.7c-0.2-1.1-1.2-1.8-2.3-1.6c-0.8,0.1-1.5,0.8-1.6,1.6v16
			l-76.9,44.4c-0.6,0.4-1,1-1,1.7v18.3c-0.2,1.1,0.6,2.1,1.7,2.3c1.1,0.2,2.1-0.6,2.3-1.7c0-0.2,0-0.4,0-0.6v-17.1l74-42.7v14.8
			c-0.2,1.1,0.5,2.1,1.6,2.3c1.1,0.2,2.1-0.5,2.3-1.6c0-0.2,0-0.5,0-0.7v-17.1l74-42.7v15c-0.2,1.1,0.6,2.1,1.7,2.3
			c1.1,0.2,2.1-0.6,2.3-1.7c0-0.2,0-0.4,0-0.6v-18.4C1135.2,513.9,1134.9,513.3,1134.3,512.9z"/>
	</g>
</g>
</svg>
