<?xml version="1.0" encoding="utf-8"?>
<!-- Generator: Adobe Illustrator 25.0.0, SVG Export Plug-In . SVG Version: 6.00 Build 0)  -->
<svg version="1.1" id="Layer_1" xmlns="http://www.w3.org/2000/svg" xmlns:xlink="http://www.w3.org/1999/xlink" x="0px" y="0px"
	 viewBox="0 0 1920 1080" style="enable-background:new 0 0 1920 1080;" xml:space="preserve">
<style type="text/css">
	.st0{fill-rule:evenodd;clip-rule:evenodd;fill:#D9E6F5;stroke:#2572B8;stroke-linecap:round;stroke-linejoin:round;}
	.st1{fill:none;}
	.st2{fill-rule:evenodd;clip-rule:evenodd;fill:#FFFFFF;stroke:#2572B8;stroke-linecap:round;stroke-linejoin:round;}
	.st3{fill-rule:evenodd;clip-rule:evenodd;fill:#99CCED;stroke:#2572B8;stroke-linecap:round;stroke-linejoin:round;}
</style>
<g id="Layer_2_1_">
	<g id="Layer_1-2">
		<path class="st0" d="M852.2,487.9c13.9,0,25.1-11.2,25.1-25.1c0-13.9-11.2-25.1-25.1-25.1c-13.9,0-25.1,11.2-25.1,25.1
			c0,0,0,0,0,0C827.1,476.6,838.3,487.8,852.2,487.9C852.2,487.9,852.2,487.9,852.2,487.9z"/>
		<path class="st1" d="M852.2,439.8c-12.7,0-22.9,10.3-22.9,22.9c0,12.7,10.3,22.9,22.9,22.9s22.9-10.3,22.9-22.9
			C875.2,450.1,864.9,439.8,852.2,439.8C852.2,439.8,852.2,439.8,852.2,439.8z M852.2,490c-15.1,0-27.3-12.2-27.3-27.3
			c0-15.1,12.2-27.3,27.3-27.3c15.1,0,27.3,12.2,27.3,27.3c0,0,0,0,0,0C879.5,477.8,867.3,490,852.2,490L852.2,490z"/>
		<path class="st2" d="M960,664.5c68.8,0,124.5-55.7,124.5-124.5S1028.8,415.5,960,415.5S835.5,471.2,835.5,540c0,0,0,0,0,0
			C835.5,608.7,891.2,664.5,960,664.5z"/>
		<path class="st1" d="M960,417.7c-67.5,0-122.3,54.7-122.3,122.3c0,67.5,54.7,122.3,122.3,122.3c67.5,0,122.3-54.7,122.3-122.3
			c0,0,0,0,0,0C1082.2,472.5,1027.5,417.8,960,417.7z M960,666.7c-69.8,0-126.6-56.8-126.6-126.7S890.2,413.3,960,413.3
			c70,0,126.7,56.7,126.7,126.6S1030,666.7,960,666.7C960,666.7,960,666.7,960,666.7L960,666.7z"/>
		<path class="st0" d="M1014.5,484.6c25.3-3.1,45.5-1.8,59,2.9c7.8,2.7,13.6,6.5,17.1,11.3c3.8,5.1,5.2,11.6,3.6,17.8
			c-1.2,5.9-4.5,12.4-10.1,19.3c-0.1-3.4-0.4-6.9-0.7-10.4c2-3.1,3.5-6.6,4.3-10.3c1.1-4.3,0.2-8.9-2.4-12.5c-2.8-3.7-7.5-6.7-14-9
			c-12.7-4.4-31.7-5.5-55.9-2.6c-32.6,3.9-68.2,14.5-99.4,28.3c-31.2,13.8-57.6,30.8-72.3,47.7c-6.1,7-9.6,13.3-10.7,18.8
			c-1.1,4.3-0.2,8.9,2.5,12.5c2.8,3.7,7.5,6.7,14,9c2.3,0.8,4.7,1.5,7.1,2c1.8,2.7,3.7,5.3,5.7,7.8c-5.1-0.6-10.1-1.8-15-3.4
			c-7.8-2.7-13.6-6.5-17.2-11.3c-3.8-5.1-5.1-11.7-3.7-17.9c1.4-6.6,5.3-13.9,12.2-21.8c15.4-17.7,42.8-35.2,74.7-49.4
			S981.3,488.6,1014.5,484.6z"/>
		<path class="st1" d="M1014.7,486.7c-31.9,3.9-67.7,14-100.6,28.6c-32.9,14.6-59.2,31.9-73.9,48.8c-6.5,7.4-10.4,14.4-11.7,20.8
			c-1.2,6.1-0.1,11.5,3.3,16.1c3.4,4.6,8.7,8,16.1,10.6c3,1,6,1.8,9.1,2.4c-0.7-0.9-1.3-1.8-1.9-2.8c-2.2-0.5-4.4-1.1-6.5-1.8
			c-6.9-2.4-12-5.6-15-9.7s-4-8.8-2.8-14.2c1.2-6,5-12.7,11.2-19.8c14.5-16.6,40.4-33.7,73.1-48.2c32.7-14.5,68.2-24.6,100-28.4
			c23.8-2.9,43.5-1.9,57,2.7c6.9,2.4,12,5.6,15,9.7c3,4.1,4,8.8,2.9,14.2c-0.8,3.7-2.3,7.2-4.3,10.4c0.2,1.2,0.3,2.5,0.4,3.7
			c2.9-4.1,5-8.7,6.2-13.6c1.3-5.6,0.1-11.5-3.3-16.1c-3.3-4.5-8.7-8-16.1-10.5C1059.1,484.8,1039,483.8,1014.7,486.7z M862.2,619.2
			c-0.1,0-0.2,0-0.3,0c-5.2-0.6-10.3-1.8-15.3-3.5c-8.2-2.9-14.3-7-18.2-12.1c-4.2-5.6-5.6-12.2-4-19.6c1.5-7.1,5.8-14.8,12.7-22.8
			c15.1-17.3,41.9-35.1,75.5-49.9c33.3-14.8,69.5-25,101.8-29l0,0c24.8-3,45.6-2,60,3c8.2,2.8,14.3,6.9,18.2,12.1
			c4.2,5.6,5.5,12.2,4,19.6c-1.3,6.4-4.9,13.2-10.6,20.2c-0.8,0.9-2.1,1.1-3.1,0.3c-0.5-0.4-0.8-1-0.8-1.6
			c-0.1-3.2-0.4-6.7-0.8-10.2c0-0.5,0.1-1,0.3-1.4c1.9-2.9,3.3-6.2,4.1-9.6c0.9-3.7,0.1-7.6-2.1-10.7c-2.5-3.4-6.9-6.1-12.9-8.2
			c-12.8-4.4-31.9-5.3-55-2.5c-31.3,3.8-66.4,13.8-98.8,28.1c-32.1,14.2-57.5,31-71.6,47.1c-5.7,6.5-9.1,12.5-10.2,17.8
			c-0.9,3.7-0.2,7.6,2.1,10.7c2.5,3.3,6.8,6.1,12.9,8.2c2.2,0.8,4.5,1.4,6.8,1.9c0.5,0.1,1,0.5,1.4,0.9c1.8,2.6,3.6,5.2,5.6,7.7
			c0.5,0.7,0.6,1.7,0.2,2.4C863.8,618.8,863,619.2,862.2,619.2z"/>
		<path class="st0" d="M957.2,408.7c6.1-10.4,12.2-16.9,17.8-19.8c4.7-2.5,9.2-2.6,13.4-0.4c3.8,2,7.1,5.9,9.8,11.5
			c2.8,5.9,5.1,13.9,6.8,23.8c-2.4-0.9-4.8-1.8-7.2-2.6c-1.1-6.3-3-12.5-5.5-18.4c-2.1-4.4-4.5-7.2-6.9-8.5c-2.2-1.1-4.6-1-7.3,0.4
			c-4.6,2.4-9.7,8-15.2,17.3c-12.1,20.3-23.1,53.2-31.1,89.8s-13,77.3-13,112.8c0,29.4,3.3,50.5,9,62.2c2.1,4.3,4.5,7.2,6.9,8.5
			c2.2,1.1,4.6,1,7.3-0.4c4.6-2.3,9.6-8,15.2-17.3c0.6-1.1,1.3-2.2,1.9-3.4h0.9c2.3,0,4.5-0.1,6.7-0.2c-1.2,2.5-2.5,4.8-3.9,7
			c-6.1,10.4-12.2,16.9-17.8,19.8c-4.7,2.5-9.3,2.6-13.4,0.4c-3.8-2-7.1-5.9-9.8-11.6c-6.1-12.5-9.7-34.7-9.7-65.1
			c0-36,5-77,13.2-114.2C933.4,463.4,944.6,429.7,957.2,408.7z"/>
		<path class="st1" d="M982.2,389.2c-2.2,0.1-4.3,0.6-6.2,1.7c-5.4,2.8-11.2,9.2-17,19l0,0c-12,20.1-23.2,52.5-31.6,91.2
			c-8.4,38.7-13.1,79.1-13.1,113.7c0,28.8,3.3,51.5,9.4,64.2c2.5,5.2,5.5,8.8,8.9,10.5c3.4,1.7,7.3,1.7,11.3-0.4
			c5.4-2.8,11.2-9.2,17-19c0.7-1.1,1.4-2.3,2-3.5h-2.7c-0.4,0.8-0.9,1.6-1.4,2.3c-5.6,9.4-11,15.5-16,18.1c-4.1,2.2-7.3,1.4-9.2,0.4
			c-2.9-1.5-5.6-4.7-7.9-9.5c-6-12.5-9.1-34.3-9.1-63.1c0-34.6,4.5-74.8,13-113.3c8.5-38.5,19.6-70.7,31.4-90.5
			c5.5-9.4,11-15.5,16-18.1c4.1-2.1,7.3-1.4,9.3-0.4c2.9,1.5,5.6,4.7,7.9,9.5c2.5,5.7,4.4,11.6,5.5,17.7c0.8,0.3,1.7,0.6,2.5,0.9
			c-1.1-6.7-3.1-13.3-5.9-19.5c-2.5-5.2-5.5-8.8-8.9-10.6C985.8,389.6,984,389.2,982.2,389.2z M937.7,695.2c-2.5,0-4.9-0.6-7.1-1.8
			c-4.3-2.2-7.9-6.4-10.8-12.5c-6.5-13.4-9.9-36.2-9.9-66c0-35,4.7-75.7,13.2-114.7c8.5-39,19.9-72,32.2-92.5l0,0
			c6.3-10.5,12.6-17.5,18.7-20.7c5.4-2.8,10.6-2.9,15.5-0.4c4.3,2.2,7.8,6.5,10.8,12.6s5.3,14.4,7,24.4c0.2,1.2-0.6,2.3-1.8,2.5
			c-0.4,0.1-0.8,0-1.2-0.1c-2.4-0.9-4.7-1.8-7.1-2.5c-0.8-0.2-1.3-0.9-1.5-1.7c-1.1-6.1-2.9-12.1-5.4-17.8c-1.9-3.9-4-6.5-6-7.5
			c-1.5-0.8-3.2-0.7-5.3,0.4c-4.3,2.2-9.2,7.9-14.3,16.4c-11.6,19.5-22.5,51.1-30.8,89.2c-8.3,38.1-13,78.1-13,112.4
			c0,27.8,3.2,49.5,8.8,61.2c1.9,3.9,4,6.5,6,7.5c1.5,0.8,3.2,0.7,5.2-0.4c4.2-2.2,9.2-7.9,14.3-16.4c0.6-1.1,1.3-2.2,1.9-3.3
			c0.4-0.7,1.1-1.1,1.9-1.1h0.9c2.2,0,4.5-0.1,6.6-0.2c1.2-0.1,2.3,0.9,2.3,2.1c0,0.4-0.1,0.8-0.2,1.1c-1.3,2.5-2.6,4.9-4,7.1
			c-6.2,10.5-12.5,17.4-18.7,20.6C943.4,694.4,940.6,695.2,937.7,695.2z"/>
		<path class="st3" d="M958.3,429c20.2-11.6,39.2-17.2,55.6-17.2c9.8-0.2,19.6,2.1,28.3,6.7c8.3,4.6,15.2,11.4,19.9,19.6
			c6,10.4,9.3,23.6,9.3,39.5c0,2.2-0.1,4.4-0.2,6.6c-2-4-4.3-7.8-6.7-11.6c-0.6-12.4-3.4-22.9-8.3-31.1c-4-7.2-10-13.1-17.3-17
			c-7.7-4-16.4-6.1-25.1-5.9c-15.3,0-33.2,5.2-52.3,16.3l0,0c-29.3,17-56,44.3-75.3,74.7c-19.3,30.4-31.1,63.7-31.1,92.9
			c0,14.7,3,26.8,8.3,36.1l0,0c4,7.2,10,13.1,17.3,17.1c7.2,3.9,15.6,5.9,25.1,5.9c6.1,0,12.3-0.8,18.2-2.2
			c4.3,1.3,8.6,2.3,12.9,3.1c-10,3.7-20.5,5.6-31.2,5.8c-10.5,0-20.1-2.3-28.3-6.7c-8.3-4.5-15.2-11.3-19.9-19.6l0,0
			c-6-10.4-9.3-23.7-9.3-39.5c0-30.5,12.3-65.2,32.2-96.5S928,446.6,958.3,429L958.3,429z"/>
		<path class="st1" d="M958.3,429L958.3,429z M859.8,641c4.5,7.8,11,14.3,19,18.6c13.4,7.3,30.8,8.4,49.9,3.2
			c-1.5-0.4-3-0.8-4.5-1.3c-16.9,3.9-32.3,2.5-44.3-4c-7.6-4.2-13.9-10.3-18.2-17.9c-5.7-10-8.7-22.5-8.7-37.2
			c0-28.7,11.2-62.1,31.5-94.1s47.3-58.8,76-75.4c30.2-17.4,59.6-21.2,79.5-10.4c7.6,4.2,13.9,10.4,18.2,17.9
			c5,8.6,7.8,19.2,8.5,31.5c0.9,1.3,1.7,2.7,2.5,4c-0.2-14.4-3.2-26.7-9-36.7c-4.4-7.9-11-14.4-19-18.8
			c-20.6-11.2-50.8-7.4-81.8,10.5c-0.1,0-0.1,0.1-0.2,0.1c-29,16.9-56.2,43.9-76.7,76.1s-31.8,66.3-31.8,95.3c0,15.1,3,28,9,38.4
			C859.7,640.9,859.8,640.9,859.8,641L859.8,641z M906,670.4c-10.9,0-20.8-2.3-29.3-7c-8.7-4.7-15.9-11.8-20.7-20.5
			c0,0-0.1-0.1-0.1-0.2c-6.3-11-9.5-24.6-9.5-40.4c0-29.9,11.5-64.6,32.5-97.7c20.9-33.1,48.7-60.5,78.4-77.6l0.1,0
			c32.4-18.6,64-22.4,86-10.5c8.7,4.7,15.9,11.8,20.8,20.4c6.4,11,9.6,24.7,9.6,40.6c0,2.2,0,4.5-0.2,6.7c-0.1,1.2-1.1,2.1-2.3,2.1
			c-0.8,0-1.5-0.5-1.8-1.2c-2-3.9-4.2-7.8-6.6-11.4c-0.2-0.3-0.3-0.7-0.3-1.1c-0.6-11.8-3.3-22-8-30.1c-3.9-6.8-9.6-12.5-16.5-16.2
			c-18.5-10.1-46.4-6.2-75.2,10.4c-28.2,16.2-54.6,42.5-74.5,74c-19.9,31.5-30.8,63.9-30.8,91.8c0,14,2.7,25.8,8.1,35.1
			c3.9,6.8,9.6,12.5,16.5,16.2c11.1,6,25.6,7.2,41.7,3.5c0.4-0.1,0.8-0.1,1.1,0c4.2,1.3,8.5,2.3,12.8,3.1c1,0.2,1.7,1,1.8,2
			c0.1,1-0.5,1.9-1.5,2.3C927.7,668.2,916.9,670.2,906,670.4L906,670.4z"/>
		<path class="st0" d="M1045.6,450.6c14.2,0,25.7-11.5,25.7-25.6c0-14.2-11.5-25.7-25.6-25.7s-25.7,11.5-25.7,25.6c0,0,0,0,0,0
			C1020,439.1,1031.4,450.6,1045.6,450.6z"/>
		<path class="st1" d="M1045.6,401.5c-13,0-23.5,10.5-23.5,23.5c0,13,10.5,23.5,23.5,23.5s23.5-10.5,23.5-23.5c0,0,0,0,0,0
			C1069,412,1058.6,401.5,1045.6,401.5L1045.6,401.5z M1045.6,452.8c-15.4,0-27.8-12.5-27.8-27.9s12.5-27.9,27.8-27.9
			c15.4,0,27.8,12.5,27.8,27.9c0,0,0,0,0,0C1073.4,440.3,1061,452.8,1045.6,452.8z"/>
		<path class="st3" d="M961.7,429c-20.2-11.6-39.2-17.2-55.6-17.2c-9.8-0.2-19.6,2.1-28.3,6.7c-8.3,4.5-15.2,11.3-19.9,19.6
			l-0.1,0.1c2.2,0.5,4.4,1.3,6.4,2.4c4-6.8,9.8-12.4,16.8-16.2c7.7-4,16.4-6.1,25.1-5.9c15.3,0,33.2,5.2,52.3,16.3l0,0
			c29.3,17,56,44.3,75.3,74.7c19.3,30.4,31.1,63.7,31.1,92.9c0,14.7-3,26.8-8.4,36.2l0,0c-4.1,7.2-10,13.1-17.3,17.1
			c-7.2,3.9-15.6,5.9-25.1,5.9c-6.1,0-12.2-0.8-18.2-2.2c-4.3,1.3-8.6,2.3-13,3.1c10,3.7,20.6,5.6,31.2,5.8
			c10.6,0,20.2-2.3,28.3-6.7c8.3-4.5,15.2-11.3,19.9-19.6l0,0c6-10.4,9.3-23.6,9.3-39.5c0-30.5-12.3-65.2-32.2-96.5
			C1019.4,474.6,992,446.6,961.7,429L961.7,429z"/>
		<path class="st1" d="M991.2,662.8c19.1,5.2,36.5,4.1,50-3.2c8-4.3,14.5-10.8,19-18.6c0,0,0.1-0.1,0.1-0.1c6-10.4,9-23.3,9-38.4
			c0-29.1-11.3-63-31.8-95.3c-20.5-32.4-47.8-59.3-76.8-76.1c0,0-0.1-0.1-0.1-0.1c-31-17.9-61.1-21.7-81.8-10.5
			c-7.2,3.9-13.3,9.6-17.7,16.5c0.7,0.3,1.5,0.5,2.2,0.9c4.1-6.4,9.8-11.7,16.5-15.3c19.9-10.8,49.4-7,79.5,10.4
			c28.7,16.6,55.7,43.4,76,75.4c20.3,32,31.5,65.5,31.5,94.1c0,14.7-3,27.3-8.7,37.2c-4.3,7.5-10.6,13.7-18.2,17.9
			c-12,6.5-27.4,7.9-44.3,4C994.3,662,992.8,662.4,991.2,662.8L991.2,662.8z M1014,670.4c-10.9-0.2-21.7-2.2-31.9-5.9
			c-0.9-0.3-1.5-1.2-1.5-2.2c0.1-1,0.8-1.8,1.8-2c4.3-0.8,8.6-1.8,12.8-3.1c0.4-0.1,0.8-0.1,1.1,0c16.1,3.8,30.6,2.6,41.8-3.5
			c6.9-3.7,12.6-9.4,16.5-16.2c5.4-9.3,8.1-21.1,8.1-35.1c0-27.9-10.9-60.4-30.8-91.8c-19.9-31.3-46.4-57.8-74.6-74
			c-28.8-16.6-56.7-20.5-75.2-10.4c-6.6,3.6-12.2,9-16,15.5c-0.6,1-1.9,1.3-2.9,0.8c-1.8-1-3.8-1.7-5.8-2.2
			c-0.7-0.1-1.2-0.6-1.5-1.2c-0.3-0.6-0.3-1.3,0.1-1.9c4.8-8.7,12.1-15.9,20.8-20.7c22-11.9,53.6-8.2,86,10.4c0,0,0.1,0.1,0.1,0.1
			c29.6,17.1,57.4,44.7,78.4,77.6c20.9,33.1,32.5,67.8,32.5,97.7c0,15.8-3.2,29.4-9.5,40.5c0,0,0,0.1,0,0.1
			c-4.9,8.6-12.1,15.7-20.8,20.5C1034.8,668.1,1024.9,670.4,1014,670.4z"/>
		<path class="st3" d="M1078.2,500.8c4.8,4.3,9,9.2,12.4,14.6l0,0c9.9,14.9,9.9,34.2,0,49.1l0,0c-6.7,10.8-17.9,20.8-33.8,29.3l0,0
			c-26.8,14.4-61.8,21.6-96.8,21.6c-35,0-70-7.2-96.9-21.6l0,0c-15.8-8.5-27-18.6-33.8-29.3c-9.8-14.9-9.8-34.2,0-49.1l0,0
			c3.5-5.4,7.7-10.4,12.5-14.6c-1.6,4.7-2.8,9.6-3.8,14.5c-0.9,1.2-1.7,2.4-2.4,3.5l0,0c-8.6,12.8-8.6,29.6,0,42.4
			c6.1,9.8,16.5,19,31.2,26.9l0,0c25.7,13.8,59.4,20.6,93.2,20.6s67.6-6.9,93.3-20.6l0,0c14.7-7.9,25.1-17.1,31.2-26.9l0,0
			c8.5-12.9,8.5-29.5,0-42.4l0,0c-0.7-1.2-1.5-2.4-2.4-3.5C1081,510.4,1079.8,505.5,1078.2,500.8z"/>
		<path class="st1" d="M1090.6,564.6L1090.6,564.6z M831.3,516.5c0,0,0,0.1-0.1,0.1c-9.4,14.2-9.4,32.6,0,46.8
			c6.7,10.8,17.9,20.5,33,28.6c25.6,13.8,59.7,21.3,95.8,21.3c36.2,0,70.2-7.5,95.8-21.3c15.1-8.1,26.1-17.7,32.9-28.5
			c0,0,0.1-0.1,0.1-0.1c9.5-14.2,9.5-32.6,0-46.8c-1.8-2.9-3.8-5.6-6-8.1c0.5,1.9,0.9,3.9,1.3,5.9c0.8,1.1,1.5,2.1,2.2,3.3
			c0,0,0.1,0.1,0.1,0.2c4.3,6.6,6.6,14.3,6.7,22.2c-0.1,7.9-2.4,15.7-6.7,22.4c-6.6,10.5-17.3,19.8-32,27.7l-0.2,0.1
			C1029,603.6,995.6,611,960,611s-69-7.4-94.2-20.9c-0.1,0-0.1-0.1-0.1-0.1c-14.7-7.9-25.5-17.2-32-27.7c-9-13.5-9-31.1,0-44.7
			c0.7-1.1,1.4-2.2,2.2-3.3c0.4-2,0.8-3.9,1.4-5.9C835.1,511,833.1,513.7,831.3,516.5L831.3,516.5z M960,617.7
			c-36.9,0-71.6-7.8-97.9-21.9c-15.9-8.5-27.5-18.6-34.6-30.1c-10.3-15.5-10.3-35.7-0.1-51.3c0,0,0.1-0.1,0.1-0.1
			c3.6-5.6,7.9-10.7,12.9-15.1c0.7-0.7,1.8-0.7,2.6-0.2c0.8,0.6,1.2,1.6,0.9,2.5c-1.6,4.6-2.8,9.4-3.8,14.2
			c-0.1,0.3-0.2,0.6-0.4,0.9c-0.8,1.1-1.6,2.2-2.3,3.4c-8.1,12.1-8.1,27.9,0,40.1c6.1,9.8,16.3,18.6,30.2,26.1l0.2,0.1
			c24.5,13.2,57.2,20.4,92.2,20.4s67.7-7.2,92.2-20.4c0.1,0,0.1-0.1,0.2-0.1c13.9-7.5,24.1-16.3,30.2-26.1c8.1-12.1,8.1-27.9,0-40.1
			c0-0.1-0.1-0.1-0.1-0.2c-0.7-1.1-1.4-2.2-2.2-3.2c-0.2-0.3-0.3-0.5-0.4-0.8c-1-4.8-2.2-9.5-3.8-14.2c-0.3-0.9,0-2,0.9-2.5
			c0.8-0.5,1.9-0.5,2.7,0.2c5,4.4,9.3,9.5,12.8,15.1c5,7.6,7.7,16.6,7.8,25.7c-0.1,9.1-2.8,17.9-7.7,25.6c0,0.1-0.1,0.1-0.1,0.2
			c-7.2,11.5-18.8,21.6-34.6,30.1C1031.6,609.9,996.9,617.7,960,617.7z"/>
		<path class="st0" d="M985.8,639.1c15.7,0,28.4-12.8,28.4-28.5c0-15.7-12.8-28.4-28.5-28.4c-15.7,0-28.4,12.8-28.4,28.5
			C957.3,626.4,970,639.1,985.8,639.1C985.7,639.1,985.8,639.1,985.8,639.1z"/>
		<path class="st1" d="M985.8,584.4c-14.5,0-26.3,11.7-26.3,26.2c0,14.5,11.7,26.3,26.2,26.3c14.5,0,26.3-11.7,26.3-26.2
			C1012,596.2,1000.3,584.4,985.8,584.4z M985.8,641.3c-16.9,0-30.6-13.7-30.6-30.6c0-16.9,13.7-30.6,30.6-30.6
			c16.9,0,30.6,13.7,30.6,30.6l0,0C1016.4,627.6,1002.7,641.3,985.8,641.3L985.8,641.3z"/>
	</g>
</g>
</svg>
