<svg xmlns="http://www.w3.org/2000/svg" viewBox="0 0 1664.59 560.22"><defs><style>.cls-1{isolation:isolate;}.cls-2{mix-blend-mode:soft-light;}.cls-3{fill:#e5e6eb;}.cls-4{fill:#fff;}.cls-5{fill:#f5ad2a;}.cls-6{fill:#3aa1ff;}.cls-7{fill:#050f64;}</style></defs><g class="cls-1"><g id="Layer_2" data-name="Layer 2"><g id="Layer_1-2" data-name="Layer 1"><g class="cls-2"><rect class="cls-3" x="270.49" y="352.41" width="276.7" height="7"/><rect class="cls-3" x="270.49" y="387.31" width="7" height="7"/><rect class="cls-3" x="284.5" y="387.31" width="262.7" height="7"/><rect class="cls-3" x="270.49" y="413.88" width="7" height="7"/><rect class="cls-3" x="284.5" y="413.88" width="262.7" height="7"/><rect class="cls-3" x="270.49" y="440.45" width="7" height="7"/><rect class="cls-3" x="284.5" y="440.45" width="262.7" height="7"/><rect class="cls-4" x="270.49" y="467.08" width="7" height="7"/><rect class="cls-3" x="284.5" y="467.08" width="262.7" height="7"/><rect class="cls-5" x="270.49" y="493.65" width="7" height="7"/><rect class="cls-3" x="284.5" y="493.65" width="262.7" height="7"/><rect class="cls-3" x="270.49" y="371.45" width="276.7" height="23.59"/><rect class="cls-3" x="270.49" y="514.32" width="276.7" height="23.59"/><path class="cls-6" d="M12.83,131.84a24.92,24.92,0,0,1,23.06-23.06V96A37.7,37.7,0,0,0,0,131.84Z"/><path class="cls-6" d="M39.41,108.78a24.91,24.91,0,0,1,23.06,23.06H75.3A37.7,37.7,0,0,0,39.41,96Z"/><path class="cls-6" d="M35.89,158.42a24.93,24.93,0,0,1-23.06-23.06H0a37.7,37.7,0,0,0,35.89,35.89Z"/><path class="cls-6" d="M62.47,135.36a24.92,24.92,0,0,1-23.06,23.06v12.83A37.7,37.7,0,0,0,75.3,135.36Z"/><rect class="cls-3" x="23.03" y="126.88" width="29.25" height="13.43"/><path class="cls-6" d="M113.53,131.84a24.92,24.92,0,0,1,23.06-23.06V96a37.7,37.7,0,0,0-35.89,35.89Z"/><path class="cls-6" d="M140.11,108.78a24.91,24.91,0,0,1,23.06,23.06H176A37.7,37.7,0,0,0,140.11,96Z"/><path class="cls-6" d="M136.59,158.42a24.93,24.93,0,0,1-23.06-23.06H100.7a37.7,37.7,0,0,0,35.89,35.89Z"/><path class="cls-6" d="M163.17,135.36a24.92,24.92,0,0,1-23.06,23.06v12.83A37.7,37.7,0,0,0,176,135.36Z"/><rect class="cls-3" x="123.73" y="126.88" width="29.25" height="13.43"/><path class="cls-6" d="M214.23,131.84a24.92,24.92,0,0,1,23.06-23.06V96a37.7,37.7,0,0,0-35.89,35.89Z"/><path class="cls-6" d="M240.82,108.78a24.92,24.92,0,0,1,23.06,23.06H276.7A37.68,37.68,0,0,0,240.82,96Z"/><path class="cls-6" d="M237.29,158.42a24.93,24.93,0,0,1-23.06-23.06H201.4a37.7,37.7,0,0,0,35.89,35.89Z"/><path class="cls-6" d="M263.88,135.36a24.93,24.93,0,0,1-23.06,23.06v12.83a37.68,37.68,0,0,0,35.88-35.89Z"/><rect class="cls-3" x="224.43" y="126.88" width="29.25" height="13.43"/><path class="cls-6" d="M12.83,35.89A24.93,24.93,0,0,1,35.89,12.83V0A37.7,37.7,0,0,0,0,35.89Z"/><path class="cls-6" d="M39.41,12.83A24.92,24.92,0,0,1,62.47,35.89H75.3A37.7,37.7,0,0,0,39.41,0Z"/><path class="cls-6" d="M35.89,62.47A24.92,24.92,0,0,1,12.83,39.41H0A37.7,37.7,0,0,0,35.89,75.3Z"/><path class="cls-6" d="M62.47,39.41A24.91,24.91,0,0,1,39.41,62.47V75.3A37.7,37.7,0,0,0,75.3,39.41Z"/><rect class="cls-3" x="23.03" y="30.94" width="29.25" height="13.43"/><path class="cls-6" d="M113.53,35.89a24.93,24.93,0,0,1,23.06-23.06V0A37.7,37.7,0,0,0,100.7,35.89Z"/><path class="cls-6" d="M140.11,12.83a24.92,24.92,0,0,1,23.06,23.06H176A37.7,37.7,0,0,0,140.11,0Z"/><path class="cls-6" d="M136.59,62.47a24.92,24.92,0,0,1-23.06-23.06H100.7A37.7,37.7,0,0,0,136.59,75.3Z"/><path class="cls-6" d="M163.17,39.41a24.91,24.91,0,0,1-23.06,23.06V75.3A37.7,37.7,0,0,0,176,39.41Z"/><rect class="cls-3" x="123.73" y="30.94" width="29.25" height="13.43"/><path class="cls-6" d="M214.23,35.89a24.93,24.93,0,0,1,23.06-23.06V0A37.7,37.7,0,0,0,201.4,35.89Z"/><path class="cls-6" d="M240.82,12.83a24.93,24.93,0,0,1,23.06,23.06H276.7A37.68,37.68,0,0,0,240.82,0Z"/><path class="cls-6" d="M237.29,62.47a24.92,24.92,0,0,1-23.06-23.06H201.4A37.7,37.7,0,0,0,237.29,75.3Z"/><path class="cls-6" d="M263.88,39.41a24.92,24.92,0,0,1-23.06,23.06V75.3A37.68,37.68,0,0,0,276.7,39.41Z"/><rect class="cls-3" x="224.43" y="30.94" width="29.25" height="13.43"/><path class="cls-3" d="M1664.59,172.21v388h-388v-388Zm-3.14,384.87V175.35H1279.72V557.08Z"/><rect class="cls-3" x="1626.47" y="173.78" width="3.14" height="384.87"/><rect class="cls-3" x="1591.48" y="173.78" width="3.14" height="384.87"/><rect class="cls-3" x="1556.49" y="173.78" width="3.14" height="384.87"/><rect class="cls-3" x="1521.5" y="173.78" width="3.14" height="384.87"/><rect class="cls-3" x="1486.51" y="173.78" width="3.14" height="384.87"/><rect class="cls-3" x="1451.52" y="173.78" width="3.14" height="384.87"/><rect class="cls-3" x="1416.54" y="173.78" width="3.14" height="384.87"/><rect class="cls-3" x="1381.55" y="173.78" width="3.14" height="384.87"/><rect class="cls-3" x="1346.56" y="173.78" width="3.14" height="384.87"/><rect class="cls-3" x="1311.57" y="173.78" width="3.14" height="384.87"/><rect class="cls-3" x="1278.15" y="207.19" width="384.87" height="3.14"/><rect class="cls-3" x="1278.15" y="242.18" width="384.87" height="3.14"/><rect class="cls-3" x="1278.15" y="277.17" width="384.87" height="3.14"/><rect class="cls-3" x="1278.15" y="312.16" width="384.87" height="3.14"/><rect class="cls-3" x="1278.15" y="347.15" width="384.87" height="3.14"/><rect class="cls-3" x="1278.15" y="382.14" width="384.87" height="3.14"/><rect class="cls-3" x="1278.15" y="417.13" width="384.87" height="3.14"/><rect class="cls-3" x="1278.15" y="452.11" width="384.87" height="3.14"/><rect class="cls-3" x="1278.15" y="487.1" width="384.87" height="3.14"/><rect class="cls-3" x="1278.15" y="522.09" width="384.87" height="3.14"/><rect class="cls-7" x="1314.71" y="433.54" width="25.13" height="123.67"/><rect class="cls-7" x="1349.7" y="292.2" width="25.13" height="265.01"/><rect class="cls-7" x="1384.69" y="366.21" width="25.13" height="191"/><rect class="cls-7" x="1419.68" y="402.13" width="25.13" height="155.08"/><rect class="cls-7" x="1454.67" y="501.85" width="25.13" height="55.36"/><rect class="cls-7" x="1489.66" y="366.21" width="25.13" height="191"/><rect class="cls-7" x="1524.65" y="336.17" width="25.13" height="221.03"/><rect class="cls-7" x="1559.63" y="475.94" width="25.13" height="81.27"/><rect class="cls-7" x="1594.62" y="411.68" width="25.13" height="145.52"/><rect class="cls-6" x="1311.57" y="433.54" width="25.13" height="123.67"/><rect class="cls-6" x="1346.56" y="292.2" width="25.13" height="265.01"/><rect class="cls-6" x="1381.55" y="366.21" width="25.13" height="191"/><rect class="cls-6" x="1416.54" y="402.13" width="25.13" height="155.08"/><rect class="cls-6" x="1451.53" y="501.85" width="25.13" height="55.36"/><rect class="cls-6" x="1486.52" y="366.21" width="25.13" height="191"/><rect class="cls-6" x="1521.5" y="336.17" width="25.13" height="221.03"/><rect class="cls-6" x="1556.49" y="475.94" width="25.13" height="81.27"/><rect class="cls-6" x="1591.48" y="411.68" width="25.13" height="145.52"/></g></g></g></g></svg>