<svg xmlns="http://www.w3.org/2000/svg" xmlns:xlink="http://www.w3.org/1999/xlink" viewBox="0 0 2381.86 1653.52"><defs><style>.cls-1{fill:none;}.cls-2{isolation:isolate;}.cls-3{clip-path:url(#clip-path);}.cls-4{fill:url(#linear-gradient);}.cls-5,.cls-9{opacity:0.4;}.cls-5{mix-blend-mode:soft-light;}.cls-11,.cls-6,.cls-9{fill:#3aa1ff;}.cls-6{opacity:0.71;}.cls-7{fill:#0072c8;}.cls-8{fill:#003d87;}.cls-10{opacity:0.11;}</style><clipPath id="clip-path" transform="translate(232.24 265.44)"><rect class="cls-1" width="1918.13" height="691.89"/></clipPath><linearGradient id="linear-gradient" x1="1190.58" y1="1653.52" x2="1190.58" y2="108.03" gradientUnits="userSpaceOnUse"><stop offset="0.15" stop-color="#003d87"/><stop offset="0.2" stop-color="#004895"/><stop offset="0.32" stop-color="#005fb1"/><stop offset="0.42" stop-color="#006dc2"/><stop offset="0.5" stop-color="#0072c8"/><stop offset="0.59" stop-color="#006dc2"/><stop offset="0.71" stop-color="#005eb0"/><stop offset="0.85" stop-color="#004793"/><stop offset="0.9" stop-color="#003d87"/></linearGradient></defs><g class="cls-2"><g id="Layer_2" data-name="Layer 2"><g id="Layer_1-2" data-name="Layer 1"><g class="cls-3"><rect class="cls-4" x="230.91" y="108.03" width="1919.35" height="1545.5"/><g class="cls-5"><polygon class="cls-6" points="2381.86 583.59 2331.02 555.69 2331.02 477.36 2193.67 477.36 2193.67 393.16 2017.08 393.16 2017.08 606.6 1976.05 606.6 1976.05 656.53 1943.94 656.53 1943.94 775.98 1906.48 775.98 1906.48 611.49 1813.72 611.49 1813.72 563.52 1761.1 563.52 1761.1 640.38 1712.05 667.3 1712.05 822 1596.1 822 1596.1 482.25 1471.23 482.25 1471.23 545.89 1373.13 545.89 1346.37 560.58 1346.37 595.83 1223.29 595.83 1200.1 608.56 1200.1 728 1148.37 728 1148.37 543.94 1052.04 543.94 1052.04 576.25 899.53 576.25 899.53 654.08 871.88 669.26 871.88 745.72 825.9 745.72 825.9 557.03 763.46 543.33 763.46 492.41 595.79 492.41 595.79 707.81 569.03 707.81 569.03 434.65 533.35 435.63 428.11 465 428.11 733.27 383.52 733.27 383.52 556.05 356.76 520.81 356.76 507.1 294.33 507.1 294.33 520.81 260.43 520.81 233.68 552.14 208.7 552.14 208.7 420.94 144.49 420.94 144.49 468.43 52.62 468.43 0 497.31 0 1166.97 715.53 1166.97 825.9 1166.97 1138.23 1166.97 1138.23 1166.43 2381.86 1165.62 2381.86 583.59"/><polygon class="cls-7" points="1990.34 612.59 1965.07 640.37 1965.07 725.57 1938.11 725.57 1938.11 492.19 1817.62 492.19 1817.62 1035.82 1781.39 995.99 1781.39 682.97 1513.47 682.97 1513.47 762.62 1371.92 762.62 1371.92 1012.66 1371.92 1122.76 1247.58 1122.76 1247.58 797.59 1211.61 797.59 1211.61 671.08 1137.88 671.08 1137.88 880.62 1103.71 880.62 1103.71 920.15 1060.55 845.03 985.02 845.03 985.02 574.23 839.36 574.23 826.77 588.06 826.77 671.08 826.77 763.99 785.41 763.99 785.41 516.9 661.32 516.9 661.32 558.41 637.05 585.1 637.05 1006.13 609.17 1006.13 609.17 668.12 592.99 668.12 592.99 635.5 450.02 635.5 425.74 662.19 425.74 699.75 290.87 699.75 283.68 1179.09 733.26 1179.09 733.26 1178.1 1190.03 1178.1 1190.03 1179.09 1371.92 1179.09 1634.22 1179.09 2098.19 1179.09 2098.19 612.59 1990.34 612.59"/><polygon class="cls-8" points="2067.23 647.44 2067.23 985.21 2023.64 985.21 2023.64 850.79 1961.88 798.41 1961.88 595.07 1883.78 595.07 1838.37 556.55 1780.25 556.55 1780.25 761.44 1640.39 761.44 1640.39 994.05 1604.06 994.05 1604.06 669.01 1502.35 713.68 1502.35 907.79 1475.1 907.79 1475.1 608.93 1440.59 608.93 1440.59 521.12 1431.8 521.12 1431.8 501.1 1354.59 501.1 1354.59 518.04 1306.18 518.04 1306.18 585.82 1226.26 585.82 1206.28 608.93 1206.28 886.22 1138.17 886.22 1138.17 829.99 1095.48 793.79 1095.48 661.31 946.54 661.31 946.54 770.68 892.05 770.68 892.05 863.11 826.66 924.73 784.89 924.73 784.89 632.04 668.64 564.26 668.64 835.38 641.4 835.38 641.4 648.98 503.35 648.98 503.35 713.68 439.78 713.68 439.78 1023.32 412.54 1023.32 412.54 889.3 319.9 889.3 319.9 847.71 303.56 827.68 203.66 827.68 196.39 1368.39 1920.39 1368.39 2023.64 1368.39 2067.23 1368.39 2185.47 1368.39 2185.47 647.44 2067.23 647.44"/><rect class="cls-9" x="1768.85" y="420.01" width="11.75" height="23.5"/></g><g class="cls-10"><g class="cls-2"><g class="cls-2"><path class="cls-8" d="M463,420.84c-3.55.24-7.24.46-11.4.67a3.19,3.19,0,0,1-2.07-1.46c-.41-.59-42.34-59.57-51.38-60.5l-3.63.11q-3,.1-6.07.18c-6,1-6.35,8.73-2.06,13.48,15.18,15.46,15.18,15.46,15.7,17.88q.5,3.75.95,7.51a10,10,0,0,0,3,6.17c5.28,4.82,5.28,4.82,5.74,7.32q.82,8.88,1.33,17.86c-.07,3-1.21,4.59-3.48,5l-5.16.17a3.58,3.58,0,0,1-2.78-1.33C376.63,405,376.63,405,376.46,404q-.91-10.39-2.21-20.65c-1-4.81-3.5-7.35-7.58-7.76l-10.27.18a4.23,4.23,0,0,1-3.27-1.67c-9.32-11.4-9.32-11.4-12.69-11.58l-6.14.07c-2.45-.26-3.92-1.76-4.5-4.58l0-.32c-.09-2.81,1-4.33,3.36-4.64,9.82-.1,19.5-.24,29-.42,2.18-.32,3.37-.91,4.62-3.54,1.16-2.43-.44-5.1.66-7.53,8.18-13.92,8.18-13.92,9.39-14.19l9.88-.28c20.75-.63,38.66-1.46,53.59-2.45-.39-1-.79-2-1.19-3-14.84,1-32.63,1.81-53.26,2.44l-9.82.28c-2,.3-2.42.58-3.6,2.26-8.31,15.38-8.31,15.38-8.07,17.45s.58,4.92-2.75,5.4q-14.16.27-28.85.42c-2.51.32-5.84,1.48-5.66,7.81l0,.32c.41,2.63,1.94,7.14,7.58,7.74l6.16-.07a4.32,4.32,0,0,1,3.27,1.67c9.37,11.45,9.37,11.45,12.68,11.62l10.31-.19c2.42.25,3.89,1.75,4.48,4.61q1.28,10.26,2.17,20.65a9.42,9.42,0,0,0,2.43,5.64c26.37,28.64,26.37,28.64,28.48,28.84l5.16-.17c3.84-.63,5.76-3.37,5.87-8.37q-.51-9-1.36-17.86a9.66,9.66,0,0,0-2.91-6.17c-5.29-4.84-5.29-4.84-5.8-7.31q-.47-3.76-1-7.51a10.09,10.09,0,0,0-2.61-5.56c-15-15.6-15-15.6-15.24-16-.78-1.35-1.57-5.9,2.29-6.51l6.09-.18,3.65-.11a4,4,0,0,1,3,1.45c18,20.07,32.38,37.81,42.66,52.72,5.28,7.65,5.28,7.65,7.78,7.94q5.76-.33,11.09-.68C463.22,423.05,463.12,421.94,463,420.84Z" transform="translate(232.24 265.44)"/><path class="cls-8" d="M479.5,419.61q-6.79.58-14.6,1.11l.3,3.3q7.82-.52,14.62-1.1C479.72,421.81,479.61,420.71,479.5,419.61Z" transform="translate(232.24 265.44)"/><path class="cls-8" d="M487.21,328c-2.43.46-5.24.91-8.57,1.34a2.44,2.44,0,0,1-1.28-.89c-8.48-9.24-8.5-9.24-9.86-9.23-7.38.84-16.32,1.63-26.77,2.33.41,1,.81,2,1.2,3,10.51-.71,19.51-1.5,27.09-2.35a2.56,2.56,0,0,1,1.39.89c8.74,9.2,8.74,9.2,9.66,9.3q4.81-.66,8.48-1.36C488.11,330,487.66,329,487.21,328Z" transform="translate(232.24 265.44)"/><path class="cls-8" d="M509.55,349.54l-.46-1.28-.67-1.84a1,1,0,0,1-.13,1,5.11,5.11,0,0,1-.59-1.15c-6-13.2-10.47-20.55-11.35-20.79A41.25,41.25,0,0,1,488,327.8c.45,1,.9,2,1.34,3a40.83,40.83,0,0,0,8.41-2.35c.18,0,.31.09.94,1.13a174.72,174.72,0,0,1,9.95,19.46c.51,1.14.61,1.24.82,1.46A1.13,1.13,0,0,0,509.55,349.54Z" transform="translate(232.24 265.44)"/><path class="cls-8" d="M496,520.15c1.34-6.77,2.08-10.5-9.53-31.81-1-2.2-1.36-4.37-1.18-8q.51-6.63.76-13.34c-.12-8.31-2.19-12.59-6.33-13.09l-5.76.45c-3.28-.18-3.57-1.06-7.05-11.8a17.85,17.85,0,0,1-.82-4.61q-.33-7-.92-13.93l-.3-3.3q-.7-7.32-1.69-14.56l-1.86.12q1,7.25,1.67,14.56c.1,1.1.2,2.21.29,3.31q.6,6.94.92,13.93c.19,2.95.19,2.95,3.13,12.62,1.73,4.93,3.53,6.83,6.62,7q3-.22,5.77-.46c3.12.38,4.68,3.62,4.77,9.9-.16,4.46-.42,8.91-.75,13.33a23.72,23.72,0,0,0,.72,8.53c2.85,8.14,7.65,15.41,10.51,23.54.6,2.15.56,4.25-.13,7.76q-1.92,8.69-4.35,17.22c-2,7.85-1.82,11.69.52,12.09l.84-.13c.35-1,.69-2.06,1-3.1l-.84.13c-1.12-.63-2.38-1.34-.4-9.14Q494.1,528.85,496,520.15Z" transform="translate(232.24 265.44)"/><path class="cls-8" d="M515.4,502.08q-2.31.65-5.48,1.28c-1.35.73-2.54,3.47-3.66,8.36a290.75,290.75,0,0,1-17.16,55.52q-2.07,4.9-4.31,9.7c-1,2-1.13,2.37-5.72,8.36a6.07,6.07,0,0,1-1.26,1.28c-1.22.27-2.18.42-3.17.56l-.41-.25c-.06-2.63-.06-2.63,10.27-16.86a26.65,26.65,0,0,0,2.88-5.38c1.45-3.59,2.84-7.21,4.14-10.85l-1,.15q-2,5.46-4.13,10.85c-.95,2.28-1.1,2.63-9.1,13.2a31.26,31.26,0,0,0-3.78,6.67c-1.31,3.19-1.12,4.41-1,4.93l.67.42,2.85-.43c1.26-.52,1.7-1,6.54-7.56a32,32,0,0,0,3.05-5.24q2.24-4.8,4.32-9.7a291.25,291.25,0,0,0,17.22-55.53c.88-3.87,1.57-4.46,2.18-5,2.1-.42,3.92-.84,5.46-1.28,1,1.38-1.27,18.15-3.63,28.48-.26,1.07-.35,1.4-.75,2.7-.22.67-.43,1.34-.65,2-1.27,3.74-1.73,4.35-2.1,4.83-.24.11-.5.21-.78.31-.36,1-.72,2.08-1.09,3.12l.78-.31c.62-.82,1.4-1.85,3.53-8.12.22-.67.44-1.34.65-2,.16-.51,3.91-12.61,5.19-31.37C516.06,502.62,515.84,502.44,515.4,502.08Z" transform="translate(232.24 265.44)"/><path class="cls-8" d="M504.37,552.91c-.39,1-.79,2.05-1.2,3.08a7.28,7.28,0,0,0,1.78-1.07,32.77,32.77,0,0,0,2-4.55c2-5.14,2.26-5.87,4.7-12.92.42-1.29.91-2.85,1.38-4.35a172.24,172.24,0,0,1-6.86,18.74A7.15,7.15,0,0,1,504.37,552.91Z" transform="translate(232.24 265.44)"/><path class="cls-8" d="M513,533.1l.79-2.49C513.57,531.38,513.31,532.23,513,533.1Z" transform="translate(232.24 265.44)"/><path class="cls-8" d="M514,530.16c0,.16-.09.3-.13.45l.12-.39Z" transform="translate(232.24 265.44)"/><path class="cls-8" d="M431.41,612.59c-.8-1-1.12-1.18-2.63-1.25q-4.65.31-9.7.6c-1.73.34-3.26,1.71-4.69,4.19q-3.79,7.43-8,14.49l1.67-.09q4.2-7.08,8-14.5a3.61,3.61,0,0,1,1.18-1.27c3.74-.32,6.95-.51,10-.72,4.54.19,8.07,18.05,8.1,18.23-.13,2.6-.35,7-28.06,31.06-3.65,3.06-5.95,4.47-7.92,4.87q-7,.6-15.47,1.12c-4.06.63-7.67,3.47-13.13,7.78-3.42,2.54-5.62,3.65-7.87,3.95-2.57.12-5.23.25-8,.36-2.2-.11-2.2-.11,1-11.18a13.18,13.18,0,0,1,1.92-3.77c1-1.44,2-2.9,3-4.38q3.81-5.66,7.37-11.64c1.95-3.11,1.95-3.11,9.43-9.47,1.53-1.29,9.64-8.22,19.79-17.7,2.74-2.43,4.55-3.39,6.89-3.67l6.75-.35c.46-.88.92-1.76,1.37-2.65l-6.8.34c-2.23.28-4.3,1-7.72,3.72-9,7.17-17,15.5-25.75,22.94a27.94,27.94,0,0,0-5.86,6.91q-3.51,6-7.26,11.63-1.47,2.24-3,4.39c-.55.82-.55.82-5,12.65-.91,2.9-.34,4,2.1,4.15l7.87-.36c4.37-.59,8.23-3.6,13.11-7.4,3.55-2.69,5.67-3.81,7.83-4.14,5.6-.35,10.7-.72,15.27-1.11,1.74-.35,7-1.42,31.46-26.09C438.78,633.58,441.15,631.05,431.41,612.59Z" transform="translate(232.24 265.44)"/><path class="cls-8" d="M442.93,576.25q-.89,2.41-1.82,4.81c-2.93,6.88-3.24,7.6-25.89,23.63a9.14,9.14,0,0,1-4.68,1.89l-3.38.16c-2.14-.22-2.14-.22,1.43-9.28,2.65-6.12,4.18-7.23,12.69-13.38a9,9,0,0,1,4.62-1.94q6.68-.35,12.74-.73c.38-1,.75-2,1.12-2.94q-6.11.38-12.81.73c-2.9.3-2.9.3-11.54,6.57-6.54,5.13-8.32,9.91-11.28,17.82-1.26,3.71-.67,5.63,1.82,5.88l3.35-.15c2.62-.26,4.35-.43,25.06-16.56a28.89,28.89,0,0,0,8.48-11.82c.62-1.59,1.24-3.19,1.84-4.8Z" transform="translate(232.24 265.44)"/><path class="cls-8" d="M486.74,517.24l-1.48.15c-1.61-.14-1.61-.14-4.69-6.82a175.93,175.93,0,0,0-9.1-16.36c-1.22-2.26-1.6-4.45-1.4-8.07.27-3.18.5-6.36.69-9.56,0-8.42-2.36-12.78-7.21-13.32-4.1.71-4.1.71-12.15,18.75a22.66,22.66,0,0,0-1.83,7.28q-.72,8.43-1.8,16.75c-.33,3.46-.25,6.24,1.18,9.4,4,8.87,10.24,16.46,14.46,25.22,1.5,2.83,1.5,2.83,17.87.72h0c.46.19,1.16.47.45,3.21q-2.25,7.51-4.89,14.88l1.27-.14q2.65-7.38,4.91-14.88c1.78-6.32,1.78-6.32-15.24-4.51a2.77,2.77,0,0,1-2.73-1.83,176.13,176.13,0,0,0-13.91-24.3c-1.32-2.25-1.67-4.32-1.32-7.89q1.08-8.31,1.8-16.75c.21-2,.21-2,6.4-17.25,3.6-7.94,8.53-5.86,10.21-1a18.19,18.19,0,0,1,.7,5.79c-.19,3.2-.42,6.38-.69,9.56a20.35,20.35,0,0,0,1.31,9.63c3.25,7.84,8.51,14.59,11.93,22.33.93,1.87,1.53,2,2.63,2.37,1-.06,1.46-.11,1.95-.16,2.53.34,3.15,3.47,1.9,9.56q-2.6,10.39-5.91,20.55l1.24-.15q3.33-10.15,5.94-20.55C490.91,521.82,490.09,517.7,486.74,517.24Z" transform="translate(232.24 265.44)"/><path class="cls-8" d="M468.13,292.32q-2.85-4.57-5.86-9l-.73.13q3,4.47,5.84,9c2.1,3.58,2.71,5.58,1.87,6.13-3.42.57-7.49,1.13-12.2,1.65-3.07-.37-6.28-6.69-6.31-6.76-.3-.6-.3-.6-3.09-12.22-.28-1.21-.17-1.67.4-1.83a118.38,118.38,0,0,0,15.25-2.64l-2-2.66a118.1,118.1,0,0,1-15.11,2.62c-.28.08-1,.27-.79,1.59.43,3.48,1.55,6.81,2.23,10.24a24.32,24.32,0,0,0,3.56,7.91c1.52,2.31,4.48,6.25,7.36,6.61,4.75-.54,8.86-1.09,12.3-1.67C472.15,300.61,471.25,297.63,468.13,292.32Z" transform="translate(232.24 265.44)"/><path class="cls-11" d="M465.31,272.69a16.29,16.29,0,0,1-3.2,1.23c.66.88,1.32,1.77,2,2.65a16.43,16.43,0,0,0,3.23-1.23C466.64,274.45,466,273.57,465.31,272.69Z" transform="translate(232.24 265.44)"/><path class="cls-11" d="M460.35,388.49l-1.84.12q1,5.28,1.81,10.59l1.86-.12Q461.34,393.76,460.35,388.49Z" transform="translate(232.24 265.44)"/><path class="cls-11" d="M475.23,563.93q-1.05,2.76-2.14,5.51-2.08,5.26-4.36,10.4l1.23-.14q2.28-5.13,4.38-10.4c.74-1.83,1.45-3.67,2.15-5.51Z" transform="translate(232.24 265.44)"/><path class="cls-7" d="M466.53,584.68q-1.42,3.08-2.91,6.1l1.2-.14q1.5-3,2.93-6.09Z" transform="translate(232.24 265.44)"/><path class="cls-11" d="M403.54,635.41q-3.81,6.18-7.89,12.07l1.57-.08q4.13-5.89,8-12.08Z" transform="translate(232.24 265.44)"/><path class="cls-11" d="M449.57,556.35q-2.34,7.81-5,15.48l-.06.18,1.75-.11.06-.18q2.73-7.66,5.08-15.49Z" transform="translate(232.24 265.44)"/><path class="cls-11" d="M500.43,554.25c-.39,1-.78,2-1.19,3.06,1-.28,1.95-.56,2.74-.85l1.2-3.06C502.39,553.68,501.48,554,500.43,554.25Z" transform="translate(232.24 265.44)"/><path class="cls-7" d="M526.11,437.75c0,1-1.3,2-3.87,2.89,0,1.12.06,2.23.08,3.35,2.57-.94,3.87-1.91,3.87-2.9S526.14,438.86,526.11,437.75Z" transform="translate(232.24 265.44)"/><path class="cls-8" d="M485.35,298.24l-.42-.7-1.41-2.32-.49-.78c-.08-.13-.16-.25-.25-.37a1,1,0,0,1,0,.73,36.43,36.43,0,0,1-2.75-4.29c0-.18.05-.28.06-.39-.17-.44-.17-.44-3.69-5.88l-.44-.67a1.26,1.26,0,0,0-.13-.23l-1.89-2.73a1.64,1.64,0,0,1,.12.22c1.21,2,2.55,3.89,3.81,5.83.3.48.34.56.41.68a.94.94,0,0,1-.08.34,71.52,71.52,0,0,0,3.68,6.21,24.8,24.8,0,0,0,2.63,3.73,1,1,0,0,0,0-.77Z" transform="translate(232.24 265.44)"/><path class="cls-11" d="M368.81,573a3.58,3.58,0,0,0-2.79-1.16l-6.12.13c-3.17.42-5.23,2.36-6.3,5.94-.11.5-.21,1-.32,1.49-.5,3-.5,3,5.8,9.39a2.25,2.25,0,0,1,.5,1.9c-.76,3.63.3,5.53,3.24,5.81l4.9-.11c.28-.94.55-1.89.83-2.84l-4.93.12c-1.78-.18-1.86-1.57-1.62-2.7.66-3.12.66-3.12-5.63-9.33a2.42,2.42,0,0,1-.51-2.28l.33-1.5a3.62,3.62,0,0,1,3.08-2.9l6.09-.13c1,0,1,0,8.88,9.18a2.44,2.44,0,0,1,.31,2.19q-1.79,6.48-3.75,12.76l2.38-.06q2-6.29,3.81-12.76C377.68,583.1,377.68,583.1,368.81,573Z" transform="translate(232.24 265.44)"/><path class="cls-11" d="M518.64,394.75a25.11,25.11,0,0,1-3.11,1.11c-3,.06-7.52-9.49-12.14-25.54q-3.93-14.13-9.28-27.9-2.28-5.87-4.78-11.59c-.44-1-.89-2-1.34-3q-2.13-4.74-4.43-9.4l-.76.15q2.28,4.65,4.41,9.41c.45,1,.9,2,1.34,3q2.49,5.73,4.76,11.59,5.32,13.77,9.25,27.91c5.15,18,10.22,28.7,13.55,28.63a27.09,27.09,0,0,0,3.12-1.11C519,396.91,518.84,395.83,518.64,394.75Z" transform="translate(232.24 265.44)"/><path class="cls-11" d="M452.17,369.24c-3.66-4.35-7.2-6.36-11.13-6.3q-6.19.35-12.92.66c.25,1.06.49,2.12.73,3.18q6.75-.33,13-.67c5.52.16,7.5,2.7,14.86,12.17l.85-2.27C455.93,374,453.79,371.26,452.17,369.24Z" transform="translate(232.24 265.44)"/><path class="cls-11" d="M425.53,363.72l-6.16.27c.24,1.06.47,2.11.69,3.17l6.19-.26Z" transform="translate(232.24 265.44)"/><path class="cls-11" d="M519.56,441.1A125,125,0,0,1,504.19,444c-3.27.91-5.63,7.68-6,17.25q-.19,8.13-.79,16.18l1.28-.16q.6-8,.79-16.18c.31-7.63,2.19-13,4.8-13.75a126.85,126.85,0,0,0,15.38-2.87C519.62,443.32,519.59,442.21,519.56,441.1Z" transform="translate(232.24 265.44)"/><path class="cls-8" d="M314.05,690.53l-8.29-11.38a1.77,1.77,0,0,0-1.43-.55l-4.44,0c-2.32,0-3.38,1.25-4.45,3.17-.84,1.82-1.68,3.58-2.54,5.31a2.55,2.55,0,0,0-.15,2.21l6.88,8.2c.11.39.11.39-.5,1.34,0,0-1.14,1.82.84,2l4.85-.08,1.32-1.59-4.94.09c-.29-.07-.74-.18-.19-1,.7-1,1.17-1.7-.1-3.09L294.66,688c-.18-.31-.18-.43,0-.92q1.32-2.58,2.61-5.3a2.13,2.13,0,0,1,1.68-1.2l4.38-.05a1.58,1.58,0,0,1,1.24.77s6.21,8.39,7.82,11.07c.06.35.06.35-.14.73a139.49,139.49,0,0,1-19.45,21.13l1.2,0a140.7,140.7,0,0,0,19.75-21A2.2,2.2,0,0,0,314.05,690.53Z" transform="translate(232.24 265.44)"/><path class="cls-7" d="M441.93,324.5c-.39-1-.79-2-1.2-3a318,318,0,0,0-20.16-41l-1.5.1a320.6,320.6,0,0,1,20,41c.4,1,.8,2,1.19,3q3.31,8.44,6.21,17.17l1.73-.11Q445.28,332.94,441.93,324.5Z" transform="translate(232.24 265.44)"/><path class="cls-7" d="M492.82,581.31l-1.55,2.92a2.17,2.17,0,0,0,.37-.47l.47-.88,1.09-2.06A1.81,1.81,0,0,1,492.82,581.31Z" transform="translate(232.24 265.44)"/><path class="cls-7" d="M489.17,418.55q-3.42.34-7.16.68c.11,1.09.22,2.19.32,3.29q3.75-.33,7.18-.68C489.4,420.74,489.29,419.65,489.17,418.55Z" transform="translate(232.24 265.44)"/><path class="cls-11" d="M310.8,699.07l-1.4,1.59,6.62-.16c.51-.53,1-1.06,1.52-1.6Z" transform="translate(232.24 265.44)"/></g></g></g><path class="cls-8" d="M175.7,446h-3c0,3.77,0,7.54.05,11.3h3Q175.7,451.64,175.7,446Z" transform="translate(232.24 265.44)"/><path class="cls-8" d="M285.17,549.35l-3.82-.1c5.39,7.12,15.41,20.36,25,35.34a7.06,7.06,0,0,1,.92,2.24l2.21-2.07C308.77,582.5,299.14,567.94,285.17,549.35Z" transform="translate(232.24 265.44)"/><path class="cls-8" d="M-31.74,410.4c-.11,1.1-.21,2.2-.31,3.3q8.82-1.35,21.77-2.55c.09-1.1.18-2.19.28-3.29Q-22.91,409-31.74,410.4Z" transform="translate(232.24 265.44)"/><path class="cls-8" d="M265.5,524.43a10.07,10.07,0,0,0-7.67-3.8c-13.77-.25-27.7-.26-41.51-.56-5.14-.28-8.28-3.3-8.48-9.38q-.12-7.38-.21-14.82c-.34-7.9-4.27-12.46-11.64-12.81l-11.28,0c-5.24-.59-8.1-3.72-8.74-9.54q-.14-6.42-.2-12.89h-3q.08,6.46.21,12.89c.88,7.82,4.73,12,11.77,12.82l11.24,0c5.43.22,8.06,3.73,8.67,9.52q.09,7.44.24,14.82c.2,7.67,4.21,12.18,11.42,12.6,13.8.12,27.62.31,41.35.56,3.58.27,3.58.27,21.2,22.24l3.85.1C270.6,530.67,270.6,530.67,265.5,524.43Z" transform="translate(232.24 265.44)"/><path class="cls-8" d="M242,695.12s-.5,3.23-1,5.31a10.27,10.27,0,0,1-1.2,3.33,2.56,2.56,0,0,1-2.07,1.32,3.35,3.35,0,0,1-2.63-1.62l-9.16-15.55a8.76,8.76,0,0,1-1.23-3.9c-1.17-13.82-2.12-29.11-2.93-46.46-.32-6.93-.62-14.12-.89-21.53-.14-3.43-.17-4.8-3.81-8-3.13-2.78-8.54-7.5-18.31-15.47-2.35-2.37-2.8-3.24-3.45-6.64q-1.85-21.07-3.1-44-.69-12.4-1.17-25.06c-1-7.7-4.81-11.82-11.71-12.61-12.8,0-25.49.05-38,.17.09,1.08.17,2.16.26,3.24,12.44-.12,25.08-.17,37.85-.17,5.12.59,8,3.65,8.72,9.36q.53,12.65,1.25,25.06c.9,15.28,2,30,3.34,44,.45,3.09-.1,4.45,4.32,8.66,3.17,3,9.31,7.4,18.46,15.21,2.28,1.95,2.74,3.1,3,6.27.59,7.51.7,14.59,1.09,21.53,1,17.72,1.57,33,2.87,46.3a10.68,10.68,0,0,0,1,4.12l10.09,16.39c2.7,3.78,5.62,3.54,7.24,1a16.46,16.46,0,0,0,1.53-4.25l1.06-5.2C243.11,695.76,242.26,695.22,242,695.12Z" transform="translate(232.24 265.44)"/><path class="cls-8" d="M307.41,590.06c-2.33,11.62-4.8,22.3-7.69,32.42-1,3.27-.71,3.37-7.54,9.5-18.71,16.76-34.18,31.43-46,43.6a9.22,9.22,0,0,0-2.47,5.42c-.47,4.62-1,9-1.53,13.13a13.56,13.56,0,0,0,1.41.44q.87-6.33,1.73-13.54a8,8,0,0,1,2.48-4.55c5.21-5.13,17.88-18.18,50-46.73a14.67,14.67,0,0,0,4.39-7.09q4.09-15.33,7.55-32a13.61,13.61,0,0,0,.28-3C309.22,588.36,308.18,589.33,307.41,590.06Z" transform="translate(232.24 265.44)"/><path class="cls-8" d="M70.53,471c-5.29-3.65-5.54-6.31-6-10.38-.61-11.07-.81-20.42-.81-30.73l-2.57.09q-.22,16.82.71,33.43c1,9.06,1,9.06,61.33,43a10.18,10.18,0,0,0,5.1,1.35l10.48-.12c-.1-1.07-.18-2.15-.27-3.24-3.52,0-7,.24-10.54.2a5.24,5.24,0,0,1-3-.87Z" transform="translate(232.24 265.44)"/><path class="cls-8" d="M63.07,385c-1.57-2.05-4.31-4.21-6.19-6-2.84-2.7-8.78-8.57-16.64-17.54A5.09,5.09,0,0,0,36,359.57q-6.31.33-12.13.68c-1.17.18-4-.2-7.53,5.52S6.53,382.53-2.9,403.26c-1.37,2.81-2.52,4-4.24,4.34l-1.3.12c-.1,1.09-.19,2.19-.28,3.29l1.3-.11c3.34-.7,4.21-2.59,8.36-11.64a350.62,350.62,0,0,1,17-31.71c1.77-2.69,3.2-3.82,5.29-4.15q5.84-.34,12.16-.68c1.93,0,1.93,0,7.55,6.36,1.83,2.06,7.19,7.9,17.6,17.71,1.92,2.08,2.58,4.17,2.43,7.7q-1.41,15.84-1.74,32.11l2.57-.09q.33-16.25,1.72-32.11C65.59,392.48,65.76,388.48,63.07,385Z" transform="translate(232.24 265.44)"/><path class="cls-8" d="M135.65,368c-4.94-.51-7.29-3.46-7.16-9q.84-7.5,1.86-14.87c.36-7.29-2.47-11.13-8.67-11.76-13.77.22-27.17.53-40.05.92q-18.58.57-34.29,1.33c-1.11-.08-4.49-.33-14.57-24.06-.91-1.68-1.28-1.93-3-2.07q-7.34.53-13.63,1.09c-2.76.76-4.18.67-16.1,16.41a16.11,16.11,0,0,1-2.66,2.79c-1.79,1.48-2.55,1.2-3.77,1.57-3,1.08-5.49,4.48-8.25,11.77q-.78,2.28-1.52,4.56c-2,6.53-2.7,9,3.8,26.74,1,2,3.84,1.51,4.82,3.53,1.17,2.4.78,5.59.55,7.51q-1.9,11.6-3,23.43c-.1,1.1-.19,2.19-.28,3.29-.18,2.16-.33,4.32-.47,6.48l1.57-.14q.19-3.24.46-6.48c.09-1.1.18-2.2.28-3.29q1.06-11.84,3-23.43c.91-7.59-.23-11.49-3.48-11.91-2.58-.34-5.27-10.47-7.07-18.9-.21-2.44.47-3.53,1.42-6.7.49-1.52,1-3,1.51-4.56,1.26-3.31,2.86-7.67,5.9-9.23a5,5,0,0,1,2.87-.65c1.48-.5,1.48-.5,15.17-17,1.9-2.05,2.42-2.43,4-2.87q6.33-.57,13.7-1.09c1.62.26,1.62.26,4.21,6.05a159.45,159.45,0,0,0,9.51,18c1.44,1.77,2,2,4.25,2.21q15.75-.77,34.43-1.33c12.94-.4,26.39-.71,40.21-.93,4.63.46,6.74,3.32,6.45,8.73q-1,7.38-1.9,14.88c-.18,7.49,3,11.48,9.65,12.17,3.62,0,7.26-.08,10.92-.1.08-1.07.17-2.13.26-3.2Z" transform="translate(232.24 265.44)"/><path class="cls-8" d="M149.4,367.86c-.09,1.06-.17,2.13-.25,3.19q7.17,0,14.42-.07c.07-1.07.14-2.13.22-3.2Z" transform="translate(232.24 265.44)"/><path class="cls-8" d="M235.33,365a11.44,11.44,0,0,0-5.9-1.73l-10.89-.11c-7.44.74-11.56,5-12.59,13-.07,1.93-.13,3.86-.19,5.79-.77,6.17-3.92,9.45-9.61,10.06L190,392c-9.53-.54-9.08-7.21-8.09-21.82.56-4.83,2.36-6.35,5.94-9.38,8.86-8.31,5.27-22.11-5.91-22.73l-13.75,0c-4.64.24-4.64.24-15.76,10a15,15,0,0,0-5,9.74c-.33,3.35-.63,6.73-.92,10.11-.09,1.07-.18,2.13-.26,3.2q-.57,7.16-1,14.42l2.89,0c.3-4.85.63-9.65,1-14.43.08-1.06.16-2.13.25-3.19q.42-5.08.9-10.11c.68-4.73.68-4.73,11.6-14.24a9.29,9.29,0,0,1,6-2.38l13.81,0c6.57.73,13.7,9.46,2.28,19.05-4.71,4.4-4.73,4.72-5.74,21.57-.1,7.8,4.48,13.1,11.66,13.5l6.14,0c7.53-.79,11.68-5.14,12.69-13.29l.18-5.79c.77-6.08,3.88-9.31,9.52-9.87l10.93.11c2.8.23,2.8.23,25.92,14.72,3.19,2.32,4.47,4.73,4.71,8.88l0,8.11c0,.21,0,1.34,0,1.54h3c0-.27,0-1.21,0-1.48,0-2.71,0-5.42,0-8.11C262.48,381.89,262.48,381.89,235.33,365Z" transform="translate(232.24 265.44)"/><path class="cls-8" d="M259.2,402.21c-1.46,3.15-1.53,3.23-18.18,13.26-4.3,3-6.05,6.25-6.47,11.88l0,1.18q0,4.35-.11,8.67c-.38,5.61-.38,5.61-17.13,18.38a8.82,8.82,0,0,1-5.4,1.84c-12.1-.1-24.18-.15-36.15-.14h-3c-11.86,0-23.62.07-35.19.18,0,1.1,0,2.21.08,3.31,11.55-.11,23.29-.17,35.14-.18h3c12,0,24,.05,36.11.14,4.09-.13,4.09-.13,20.14-12.32,3.61-3.1,5.08-6.13,5.42-11.17q.06-4.32.12-8.67c0-.39,0-.78,0-1.18.47-6.34.47-6.34,19-17.53a12.61,12.61,0,0,0,5.36-6.15,9.1,9.1,0,0,0,.45-1.42Z" transform="translate(232.24 265.44)"/><path class="cls-11" d="M-11,422.06c-.14,2.93-.25,5.88-.31,8.83l1.56-.14c.07-2.95.17-5.9.31-8.83Z" transform="translate(232.24 265.44)"/><path class="cls-8" d="M174.65,314,168,314c-1.81-.23-1.81-.23-6.6-9.64a4.56,4.56,0,0,0-4.19-2.55c-11.22.08-22.27.22-33.08.41-1.29-.15-2.63-.3-10.21-21.81a3.08,3.08,0,0,0-3.18-2.13q-6.36.17-12.55.35l-8.47.28q1.11-2.67,2.25-5.3l-2.11.07q-1.16,2.63-2.28,5.3l-5,.18-1.15,2.7,5-.18q-3.31,8.08-6.27,16.55c-1,3.79-.08,5.78,2.86,6.06l6.28-.2,10-.28c1.2.12,1.2.12,9.39,15.66a4,4,0,0,0,3.69,2.09q11.06-.22,22.45-.37c1.76.25,1.76.25,6.29,11.65a4.92,4.92,0,0,0,4.65,3.14q6.24-.06,12.53-.09c2.71-.17,2.71-.17,10.31-7.81a3.57,3.57,0,0,1,2.46-1.08h2a7.22,7.22,0,0,0,6.46-5.23C179.62,321.69,181.35,314.72,174.65,314Zm2.31,7.18a3.93,3.93,0,0,1-3.49,2.82h-2a6.6,6.6,0,0,0-4.55,2c-6.65,6.65-6.65,6.65-8.19,6.83q-6.28,0-12.48.09a2.65,2.65,0,0,1-2.51-1.68c-5.11-12.84-5.11-12.84-8.31-13-7.55.09-15,.21-22.34.36a2.16,2.16,0,0,1-2-1.12C102.2,301,102.2,301,100.22,300.93l-10,.28-6.25.2c-1.49-.14-2.06-1.33-1.55-3.26q2.93-8.46,6.19-16.55c2.78-.09,5.63-.19,8.53-.27q6.23-.19,12.64-.36a1.7,1.7,0,0,1,1.73,1.16c8.11,22.8,8.84,22.83,11.93,23,10.86-.19,22-.33,33.25-.41a2.48,2.48,0,0,1,2.28,1.38c5.42,10.69,5.42,10.69,8.63,10.89l6.64,0C177.93,317.34,177,321.12,177,321.16Z" transform="translate(232.24 265.44)"/><path class="cls-8" d="M229.4,223.22c-17.24-.17-34.45-.2-51.17-.08-3.06.34-5.27,2-6.78,5.18l-.56,1.47c0,.12-.08.23-.13.35a4.91,4.91,0,0,1-4,3.13c-2.91,0-5.79.06-9.06.12a7.36,7.36,0,0,0-2.93,1c-10.43,6.3-10.43,6.3-11.88,9.31q-3.4,8-6.52,16.6l2.27,0q3-8.58,6.38-16.6a5.93,5.93,0,0,1,2.33-2.66c8.59-5.25,8.59-5.25,9.81-5.41l8.75-.1c3.19-.37,5.46-2.14,7-5.42,0-.12.09-.23.13-.35l.54-1.46a4.75,4.75,0,0,1,3.94-3c16.93-.12,34.35-.09,51.8.09a2.8,2.8,0,0,1,2.71,3l-.09,1.47V230a3.28,3.28,0,0,1-2.23,2.92c-23.57,7.61-23.57,7.61-24.55,11.75q-.93,5.87-1.81,12a4.08,4.08,0,0,1-3.84,3.47c-15.09,0-30,0-44.59.18-1.92-.2-2.61-1.32-2.12-3.45.83-3.65-.24-5.49-3.4-5.81l-4.17.06c-.31.81-.61,1.63-.91,2.45l4.21-.06c1.83.18,2.47,1.29,2,3.39-.88,3.67.32,5.62,3.66,6,14.68-.16,29.74-.22,45-.18,3.59-.37,5.75-2.33,6.6-6q.82-6.17,1.7-12a3.94,3.94,0,0,1,2.62-3.09c23.53-7.56,23.53-7.56,24-11.56v-.16l.06-1.47C233.91,225.27,232.38,223.57,229.4,223.22Z" transform="translate(232.24 265.44)"/><path class="cls-8" d="M382.79,278c-1.68-4.33-3.39-8.59-5.27-12.72s-3.3-5.73-7.18-6.11c-2.1-.12-5.28-.24-6.73-.4s-1.5-.61-2.62-1.71c-18.18-20.72-18.39-20.76-21.92-21.43-13.29-.63-27.27-1.17-42.14-1.61a4,4,0,0,0-2.55,1.45c-5,7.26-5,7.26-6.57,7.57-12.9-.35-26.05-.64-39.29-.85a5,5,0,0,0-3.73,1.62c-12,12.93-12,12.93-13.94,13.21l-11.58-.11c-3.41.33-5.41,2.21-6.11,5.76q-.21,2.13-.42,4.29l2.48,0q.19-2.16.39-4.29c.65-2.28,1.24-2.83,3.45-3.28l11.68.11a5.6,5.6,0,0,0,4.07-1.72c12.59-13.07,12.59-13.07,13.77-13.24,13.37.21,26.65.5,39.68.86a3.9,3.9,0,0,0,3.31-1.54c5.23-7.35,5.23-7.35,6.44-7.6q21.84.69,42.48,1.68a5.32,5.32,0,0,1,2.55,1.58c19.64,21.32,17.56,21.23,19.92,21.71,2.16.12,6.71,0,8.5.45,2,.5,2.8,1.1,3.84,3.47,1.8,4.15,3.45,8.42,5.06,12.76.87,2.35.74,3.35-1.08,3.28-1.07-.06-2.15-.1-3.24-.18-1.74-.13-1.89.54-2.57,2.72l-5.78,23.46c-1.07,4.15-2.28,4.05-2.73,4.14l-19.59-.87c-2.71-.12-3.25.67-4.18,3.48-9.73,29.18-9.41,29.42-12.27,29.77L306.38,343a5.79,5.79,0,0,1-2.45-1c-18.68-17.53-18.09-17-18.55-19.14-.07-1.22-.13-2.4-.2-3.62.32-2.76.86-3.4,3.29-3.89l4.91.13a6,6,0,0,0,3.37-1.07c3.88-3,2.65-11.4-4.52-12.37-10-.26-20-.49-31-.8a7.85,7.85,0,0,1-2-1.38C237.14,270,237.14,270,234.41,269.63l-10-.11-.15,2.63c3.34,0,6.69.06,10.78.2a7.23,7.23,0,0,1,1.83,1.27c21.3,30,21.3,30,25.23,30.56,10.2.2,20.34.43,30.35.69a9.11,9.11,0,0,1,1.37.33c2.25,1,4.22,6.29-.71,7.27l-4.9-.12c-3.76.32-5.65,2.51-5.79,6.68l.21,3.9a8,8,0,0,0,2.45,5.28c18.85,17.56,18.85,17.56,21.46,17.9q11.44.33,22.62.72c2.11-.26,3.77-.46,5.17-3.64,10.47-29.64,10.47-29.64,11.53-29.77,5.63.23,11.19.44,16.66.71l3,.16a3.93,3.93,0,0,0,4-3.08c.2-.83.43-1.63.64-2.41,4.74-18,6.07-23.07,6.5-24.49a.75.75,0,0,1,.76-.53l2.73.15C382.67,284.06,384.24,282.65,382.79,278Z" transform="translate(232.24 265.44)"/><path class="cls-11" d="M262.8,352.63q-.09-8.06-.23-16A11.69,11.69,0,0,0,259,328.4c-11.21-10.57-11.21-10.57-15.07-10.81l-8.65-.12a6.78,6.78,0,0,1-5.28-2.65c-12.79-16.25-12.79-16.25-17.18-16.54l-14-.07-.27,2.86q7,0,14.06.08a6.39,6.39,0,0,1,5.06,2.54c12.68,16.44,12.68,16.44,17.53,16.78l8.69.12a6.94,6.94,0,0,1,4.71,2c10.9,10.33,10.9,10.33,11.13,14.06.08,5.27,0,10.59.18,16,.23,8.86-6.81,10.85-12.22,5.1-9.51-10.13-10.09-10.86-14.79-11.18l-9.91-.11c-4.53-.54-6.85-3.15-7.11-8,0-.88.07-1.76.11-2.64-.34-6.64-3.46-10.2-9.55-10.9l-7.24,0c-4.37-.5-6.5-3-6.53-7.73q1.56-17.35,3.49-33.28h-2.58q-2,15.91-3.66,33.29c0,6.54,3,10.05,9.06,10.75l7.28,0c4.39.51,6.64,3.08,6.87,7.87l-.12,2.64c.33,6.74,3.57,10.38,9.89,11.12l9.94.11a7.23,7.23,0,0,1,5.41,2.62l9.4,9.33c5,4.64,10.81,2.4,13.08-.88S262.79,352.74,262.8,352.63Z" transform="translate(232.24 265.44)"/><path class="cls-8" d="M427.34,439.75a5.76,5.76,0,0,0-4.16,1.53c-10.61,9.64-20.17,20.35-30.67,30.11a12.28,12.28,0,0,0-3.6,7.72q-2.22,22.9-6.38,45.14l2.46.13q4.22-22.2,6.48-45.13a8.49,8.49,0,0,1,1.95-4.72c9.8-10.45,20.75-19.73,30.67-30.06a4,4,0,0,1,3.16-1.38l9.24.66a16.54,16.54,0,0,0-.4-3.38C433.28,440.16,430.23,439.94,427.34,439.75Z" transform="translate(232.24 265.44)"/><path class="cls-8" d="M471.07,395.23l1,.11q-.73-6.49-1.71-12.91l-1-.1-.82-.09q1,6.42,1.69,12.91Z" transform="translate(232.24 265.44)"/><path class="cls-8" d="M477.71,465.81a2.62,2.62,0,0,1-2.2,1l-3.68-.38-.22,0C470,466,470,466,463.06,446.93c-1.31-3.08-2.66-4.39-5-4.82-6.3-.55-13.21-1.08-20.11-1.59a20.8,20.8,0,0,1,.29,3.37c6.76.5,13.54,1,19.73,1.56,2.71.51,2.82.53,8.92,19.44,1.11,3.06,2.3,4.36,4.39,4.8l.22,0,3.68.38a3.8,3.8,0,0,0,3.24-1.43,191.26,191.26,0,0,0,19.63-24.17l-.71-2.9A188.9,188.9,0,0,1,477.71,465.81Z" transform="translate(232.24 265.44)"/><path class="cls-8" d="M509.66,417.44q-.29-3.87-.67-7.73c-.72-6-1.11-6.77-7.66-18.68-1-1.62-1.64-2.26-2.61-2.52q-5.73-.9-12.92-1.8c-2.8.26-3.95,3.34-3.51,9.43.07.53.13,1.05.19,1.58.59,4.33,1.08,5.24,4.28,11.13,2.21,4.49,1.74,11.19-1.61,11.49l-4.95-.57c-1.56-.31-1.56-.31-5.49-7.19a12.09,12.09,0,0,1-1.46-5c-.23-3-.5-6-.81-9l-1-.1-.84-.09q.46,4.5.81,9c.44,4.35.61,4.65,4.95,12.27,1.35,2.22,2.35,3.08,4,3.41s3.35.37,4.95.56c4.08-.36,4.38-6.38,4.39-7.58.09-5.55-1.05-7.64-4.07-13.22a13.32,13.32,0,0,1-1.5-4.94c-.06-.53-.13-1.05-.19-1.58-.3-4.12.48-6.2,2.37-6.38q7.22.9,13,1.8c1.07.29,1.3.35,7.33,12.25a17,17,0,0,1,1.41,5.52q.39,3.86.67,7.72c.21,3.89.21,3.89-2.83,10.12l.83,2.67,2.13-4.4C509.17,424.62,510,422.53,509.66,417.44Z" transform="translate(232.24 265.44)"/><path class="cls-8" d="M498.5,439.87l.71,2.9c4.09-6.53,4.33-6.92,6.53-11l-.82-2.68C501.23,435.64,501.08,435.9,498.5,439.87Z" transform="translate(232.24 265.44)"/><path class="cls-8" d="M491.74,348.82q-2.75-8.79-6-17.4c-.09-.24-.18-.49-.28-.74-1.6-3.8-2.93-6.24-4.69-6.55s-3.81-.58-6.23-.85a.73.73,0,0,0-.51.1,1.29,1.29,0,0,0-.51.8c0,.06,0,.12-.05.19-.78,2.8-2.05,5.46-2.35,8.4-.21,2.14,1.15,4,.91,6.19a.93.93,0,0,1-.26.61.79.79,0,0,1-.56.19l-6-.84c-.79,0-1.77-1.22-2.37-2.08-4.87-6.89-7.81-11.11-10.86-15.56l-.93,1.44c9.32,13.65,11.91,17.45,13.18,18.68a2,2,0,0,0,1.18.69c2.35.25,4.61.55,6.77.76a1.71,1.71,0,0,0,1.51-.65c1.32-1.57-.95-5.49-.66-7.78.73-2.37,1.43-5,2.16-7.36.26-.87.45-.82.63-.82,2.2.31,3.85.51,6,.94.8.16,1.65,1.18,2.55,3.32.09.25.19.5.28.74,2.18,5.74,4.18,11.54,6.12,17.82a4.17,4.17,0,0,1,0,2.61,71.23,71.23,0,0,1-4.35,9.68c-.36.66-.7,1.25-1,1.7s-.49,1-.92,1l-5.72-.77c-.89-.14-2.08-1.24-2.72-3.46-.32-1.34-.65-2.68-1-4-.77-2.5-1.27-4.63-2.4-5.77-.65-.64-1.19-.74-2.55-1q-3.74-.42-7.82-.83-8.76-.88-18.6-1.71c-1.38.09-1.68.29-2.47,1.61a254.25,254.25,0,0,1-17.67,32.43c-4.48,6.93-4.48,6.93-4.33,9.77q.5,5.78.85,11.62a9.13,9.13,0,0,0,1.67,4.82c10.37,14.11,10.37,14.11,12.09,14.48l13.4,1c3.07.12,4-2.31,4.15-6.42-.05-1.2-.11-2.4-.17-3.59a4.17,4.17,0,0,1,.52-2.37c7.58-12.38,7.58-12.38,8.17-12.47q5.51.5,10.65,1l.84.09,1,.1,4.68.49-.36-3.25c-1.52-.17-3.08-.33-4.67-.49l-1-.11-.84-.08c-3.42-.35-7-.68-10.63-1-1.4.09-1.73.3-2.7,1.68-7.82,14.05-7.82,14.05-7.78,16.24.06,1.19.12,2.39.16,3.58-.06,2.6-.95,3.24-2.11,3.28-4.34-.34-7.91-.43-12.71-1a2.89,2.89,0,0,1-2.39-1.17c-9.48-13.71-9.48-13.71-9.61-14.7q-.34-5.83-.86-11.61a3.66,3.66,0,0,1,.5-2.34,277.09,277.09,0,0,0,18.76-32.69c2.7-5.7,2.7-5.7,3.59-5.84,6.57.55,12.81,1.12,18.67,1.72,2.38.24,4.67.48,7.11.79a3.13,3.13,0,0,1,1,.25c1,.43,1.6,1,2.26,3.24.34,1.33.67,2.66,1,4,1.14,4,2.68,6.2,4.72,6.83l6.43.75c.42,0,.65-.3.89-.71.12-.21.22-.42.33-.62C493.23,354,492.93,353,491.74,348.82Z" transform="translate(232.24 265.44)"/><path class="cls-8" d="M509.09,348.26l-.67-1.84h0c.39,1,.76,2.07,1.14,3.11v0Z" transform="translate(232.24 265.44)"/><path class="cls-8" d="M501.51,331a21.8,21.8,0,0,1,2.05,4.27l.45,1.1q1.82,4.44,3.47,8.93l.23.18q-1.66-4.49-3.47-8.93l-.46-1.11c-1.79-4.26-3-6.78-3.59-7.48-.23-.15-.5-.29-.79-.44-.09.45-.19.91,2.12,6.66l.45,1.1c.19.47.38.94.56,1.41.66,1.67,1.05,2.67,2.25,8.22,0,.24.08.56.1.81a34.69,34.69,0,0,1-4-.92c-.59-.44-.59-.44-2.41-3.73-.93-1.72-2.32-5-2.08-6.55l.49-.16c.47-1.19-.53-4-1.58-6.6l-1-2.28c-2.44-5.4-2.59-5.72-11.78-15.29a4.14,4.14,0,0,0-.89-.69c-5.9-1.22-13.47-2.36-23-3.49-.55,0-1.1,0-1.35.85-1.37,4.35-2.17,7.33-3.53,10.91l1.89,2.47a109.21,109.21,0,0,0,3.45-10.67c.14-.5.26-.69.68-.67.15,0,.29,0,.44.06,9.51,1.11,17,2.24,22.6,3.37,0,0,1.24.74,8.69,9.23a17,17,0,0,1,2.13,3.74l1,2.28a9.87,9.87,0,0,1,1,3.56,2.47,2.47,0,0,1-.61.4c-.1.33-.78,3.48,4.88,13.75,1.18,2.08,1.55,2.3,2.05,2.61,1.5.38,2.79.76,3.89,1.14l.25-.18c0-.55.06-1.23-1.43-7a41.72,41.72,0,0,0-1.69-4.94c-.18-.47-.37-.94-.56-1.41l-.45-1.1a23.23,23.23,0,0,1-1.25-3.58A1.06,1.06,0,0,1,501.51,331Z" transform="translate(232.24 265.44)"/><path class="cls-8" d="M508.83,348.62l-.23-.18q3.86,10.8,6.8,21.83a1.55,1.55,0,0,1,.24.19Q512.68,359.42,508.83,348.62Z" transform="translate(232.24 265.44)"/><path class="cls-8" d="M519.53,477.81c-.24-.28-.43-.51-.51-2.49-.28-7.52-.42-11.29-1.49-20.87-.5-3.56-1.18-4-1.84-4-2.1,1.27-2.41,9.18-2.41,9.26-.19,8.86,1.4,17.6,1.62,26.43.09,2.48.34,3.53.92,3.9.81.24,1.55.48,2.21.73.18-1.09.35-2.18.52-3.27-.67-.24-1.41-.49-2.22-.73-.28-.27-.52-.51-.58-2.45a216.11,216.11,0,0,0-1.48-21.8c-.45-4.8.67-9.25,1.77-8.66s2.11,17.54,2.28,23.29c.1,2.5.31,3.57.81,3.93.39.14.76.28,1.1.42.14-1.09.28-2.19.41-3.29Z" transform="translate(232.24 265.44)"/><path class="cls-8" d="M523.15,479.62a7.8,7.8,0,0,0-2-1.2c-.13,1.09-.27,2.19-.41,3.28a11.6,11.6,0,0,1,2,1.06,8.86,8.86,0,0,1,0,3.05,241.81,241.81,0,0,1-11,51.64c.69-2.17,1.62-5.05,2.29-7.23v-.05A238.86,238.86,0,0,0,523,484.34,19.07,19.07,0,0,0,523.15,479.62Z" transform="translate(232.24 265.44)"/><path class="cls-8" d="M521.82,466q-.47,6.12-1.18,12.2c-.13,1.1-.27,2.2-.41,3.29q-.69,5.33-1.57,10.61c-1.7,9.45-2.67,11.11-8.08,20.36-2.13,3.3-3.09,1.8-3.52,0a21,21,0,0,1-.3-4.86,223.21,223.21,0,0,0-.89-28.66c-1.89-14.32-7.21-7.67-12.36-1.24l.44,2.82,3.89-4.85c3.7-4.44,6.27-.85,6.89,5a228.89,228.89,0,0,1,.89,28.63c-.16,10.47,2.63,8.43,3.49,7.55.49-.49,1.91-2.48,6-10.21,1.73-3.77,2.82-7.65,4-14.31q.89-5.28,1.57-10.61c.14-1.09.28-2.19.41-3.28.47-4.06.87-8.12,1.18-12.21Z" transform="translate(232.24 265.44)"/><polygon class="cls-8" points="724.35 744.8 721.21 748.41 721.63 751.24 724.79 747.62 724.35 744.8"/><path class="cls-8" d="M443.68,541.07c-.36-5-1.88-7.22-5.41-7.92l-.63,0c-4.11,0-5.07,1.06-12.56,9.25-2.27,2.29-3.9,3.1-6.22,3.12q-6.48-.47-13.28-.9c-2.33-.29-2.33-.29-8.56-9.07a7.13,7.13,0,0,0-5.47-3.06c-14.23-.81-29.28-1.53-44.91-2.17-.17,1.05-.33,2.11-.51,3.16,15.57.64,30.56,1.36,44.72,2.17,2.95.33,2.95.33,8.81,9a6.57,6.57,0,0,0,5.07,3.05q6.76.43,13.21.89c4.5,0,6.1-1.79,12.8-9.22,2.24-2.29,3.81-3.1,6-3.11l.64,0c4.42.87,4.38,2.8,4,17.82l2.07.19C443.68,548.07,443.73,546.19,443.68,541.07Z" transform="translate(232.24 265.44)"/><path class="cls-8" d="M441.33,557.28a214.23,214.23,0,0,1-3.52,30.49c-1.73,7-3,8.05-18.37,21.27-6.74,6.23-8.16,10.55-10.51,17.69A150.09,150.09,0,0,1,396,654.68c-.52.94-1,1.77-1.27,2.39-1,2.4-.16,3,.88,3.25l5.16.63c2.2,0,3.79,0,24.07-16.67a49.12,49.12,0,0,0,6.13-6.11l.29-.34-.92-.14-.29.34c-1.88,2.19-4.22,4.91-21.32,17.88-2.45,1.77-4.36,2.9-5.29,2.8l-4.63-.51c-1-.11-1.57-.18-1.79-.51-.62-.93-.35-1.59,1-4a152.52,152.52,0,0,0,14.47-32.55c2-5.51,2-5.51,19.05-20.64,6.49-6.32,9.75-9.5,11.78-43Z" transform="translate(232.24 265.44)"/><path class="cls-8" d="M503.31,532.46a3.31,3.31,0,0,0-.54-1.73c-.79-.86-3.59-1.11-5.31-1.44-1.13-.47-1.57-1.51-1.42-5.13A217.13,217.13,0,0,0,494,480.51l-.44-2.82c-.5-2.93-1.19-6.84-1.76-9.76l-1.4,1.71c.55,2.91,1.27,6.8,1.76,9.72l.43,2.82a217.23,217.23,0,0,1,2.11,43.62c-.12,4.26.24,5.57,1.83,6.64,1.72.33,3.28.67,4.7,1s1,2,1,3.58c0,5.43-4.71,15.73-21.78,35.22a49.17,49.17,0,0,0-6.08,9.26,298.26,298.26,0,0,1-17.71,29.7c-3.68,5.23-4.7,6-12.64,11.78a50,50,0,0,0-8.82,8.89c-.88,1.11-1.77,2.21-2.67,3.31l.93.15c.9-1.1,1.8-2.2,2.69-3.31,3.42-4.16,3.42-4.16,13.06-11.45a41.91,41.91,0,0,0,8.31-9.21,297.7,297.7,0,0,0,17.77-29.68c5.47-10.17,14.1-17.93,20.64-27.28a68.37,68.37,0,0,0,4.53-8.35C501.63,543.48,503.81,536.94,503.31,532.46Z" transform="translate(232.24 265.44)"/><path class="cls-8" d="M450.38,281.18c-.47-.81-.95-1.61-1.43-2.4l-1.26-.16c.48.79,1,1.59,1.42,2.39,2.51,4.55,3.26,7.13,2.77,9.54-3.32,8.83-3.5,8.82-5.71,8.73l-1.18-.13c-3.08-.31-6.28-.61-9.58-.91-8.82-2.08-15.84-15.64-14.14-21.34,2-5.21,2-5.21,4.14-5.14q2.93.27,5.71.56,9.15.93,16.33,1.87c-.56-.88-1.13-1.76-1.7-2.64q-7.11-.93-16.19-1.86l-5.66-.55c-1.89-.06-2.72.44-3.43,2.07-1.8,4.68-3.1,8.06,1.19,16s9.83,13,15,13.88c3.32.3,6.54.61,9.64.92l1.19.12a3,3,0,0,0,3.26-1.63C455,291.22,455.42,290.25,450.38,281.18Z" transform="translate(232.24 265.44)"/><path class="cls-11" d="M284,399.53q-10.5-.24-21.11-.45l-3-.05q-11.42-.21-22.88-.36c0,1.09,0,2.18,0,3.28q11.07.14,22.12.34l3.19.06q10.92.21,21.72.46c8.09,1.1,10.25,10.08,5.68,15.58C275.46,434,275.46,434,271.86,434.07q-10.92-.24-21.92-.41c0,1.12,0,2.24-.05,3.36q11,.17,21.92.4a10.38,10.38,0,0,0,7.93-3.49c14.87-16.13,14.87-16.13,15.27-20.6C295.06,412.84,296,401.15,284,399.53Z" transform="translate(232.24 265.44)"/><path class="cls-8" d="M388.47,336.27c0-.07-.66-7.67-7.48-8.21q-9.19-.48-18.77-.91a4.34,4.34,0,0,0-3.31,1.26c-9.94,9.85-9.94,9.85-9.68,13.45q1.54,12.57,2.58,25.52l2.69.11q-1.06-12.94-2.65-25.52a3.89,3.89,0,0,1,1-3.27c8.87-8.52,8.87-8.52,9.9-8.52q9.61.44,18.86.92c3.69.64,5.23,5.51,3.19,7.66-7.77,6.93-7.77,6.93-9,6.93q-10.2-.51-20.81-1c.13,1,.25,2.07.38,3.11q10.63.45,20.89,1a4.34,4.34,0,0,0,3.05-1C388.48,339.86,388.78,339.71,388.47,336.27Z" transform="translate(232.24 265.44)"/><path class="cls-11" d="M309,546.9q-13-.4-26.24-.73l-3.85-.1q-10.57-.24-21.25-.45c-.06,1-.11,2.09-.16,3.12q12,.22,23.85.51l3.82.1q11.82.3,23.42.66c11.41.65,14.82,12,11.24,21.8a24.51,24.51,0,0,1-5.64,8.57l-4.67,4.38-2.21,2.07C294.37,599,294.12,599.2,288,599.37q-10.15-.27-20.48-.51l-.3,2.8q10.23.23,20.31.5c5-.14,8.12-1.47,12.53-5.27l7.33-6.83,2.59-2.42c11.88-9.59,13.27-17.61,13.27-17.61C323.5,569.19,328,548.49,309,546.9Z" transform="translate(232.24 265.44)"/><path class="cls-11" d="M245.5,694.86c-.9,0-8.74-.65-9.09-12.67q.38-10.7.76-23.28l-1.9,0q-.24,12.58-.45,23.29c.64,13.66,9.4,14.34,10.4,14.37l2.26,0,.33-1.68Z" transform="translate(232.24 265.44)"/><path class="cls-7" d="M249.52,694.94c-.12.56-.25,1.12-.37,1.68,6.37.13,12.69.29,18.88.48l.81-1.67C262.5,695.24,256,695.07,249.52,694.94Z" transform="translate(232.24 265.44)"/><path class="cls-7" d="M70.64,426.3l-6.85.21-2.57.09q-10,.34-19.14.74L42,430.69h0q9.15-.39,19.14-.74l2.57-.09,6.85-.22c12.62-.38,25.7-.69,39.12-.92h0l.06-3.34C96.33,425.6,83.25,425.91,70.64,426.3Z" transform="translate(232.24 265.44)"/><path class="cls-11" d="M117.65,425.24c0,1.11,0,2.23-.05,3.34h0q11.33-.16,22.93-.27h0c0-1.11,0-2.23.05-3.34Q129,425.08,117.65,425.24Z" transform="translate(232.24 265.44)"/><path class="cls-11" d="M67.74,279.81c-.43.9-.85,1.8-1.26,2.71q6-.28,12.43-.55l1.17-2.7Q73.69,279.52,67.74,279.81Z" transform="translate(232.24 265.44)"/><path class="cls-11" d="M141.58,507.59c-.09-1.08-.17-2.16-.26-3.24q-.54-7.12-1-14.29c-.89-9.76-6-14.87-14.16-15.22l-7.68.11.18,3.29,7.67-.11c6.15.14,10.48,3.81,11.14,11.95q.45,7.19,1,14.29c.09,1.09.17,2.17.27,3.24q.58,7.07,1.31,14l2.77,0Q142.15,514.64,141.58,507.59Z" transform="translate(232.24 265.44)"/><path class="cls-7" d="M210.82,269.15c-.09.87-.17,1.75-.26,2.62l11.06.08c0-.87.11-1.75.17-2.62Z" transform="translate(232.24 265.44)"/><path class="cls-11" d="M198.2,269.1l-.36,2.62,9.57,0c.09-.87.18-1.74.28-2.61Z" transform="translate(232.24 265.44)"/><path class="cls-11" d="M317.24,302.73c-4.53-.14-9.09-.29-13.68-.42q.17,1.43.33,2.88,6.93.19,13.75.43C317.51,304.65,317.37,303.69,317.24,302.73Z" transform="translate(232.24 265.44)"/><path class="cls-11" d="M329.79,303.17l-7.1-.25c.15,1,.29,1.92.44,2.88l7.14.26Z" transform="translate(232.24 265.44)"/><path class="cls-8" d="M354.83,371.64l-2.7-.11q.44,5.88.76,11.84l2.72.11Q355.28,377.53,354.83,371.64Z" transform="translate(232.24 265.44)"/><path class="cls-11" d="M355.87,388.16l-2.74-.11q.9,18.4.8,37.38l2.76.12Q356.78,406.57,355.87,388.16Z" transform="translate(232.24 265.44)"/><path class="cls-11" d="M379.21,540.53c-.46,2.05-.92,4.09-1.4,6.12-.34,1.45-.69,2.9-1,4.34l2.37.12c.35-1.44.71-2.88,1.05-4.33q.74-3,1.42-6.12Z" transform="translate(232.24 265.44)"/><path class="cls-11" d="M468.28,370.22l-1-.1-.82-.08q.89,4.69,1.65,9.45l.82.08,1,.1Q469.18,374.93,468.28,370.22Z" transform="translate(232.24 265.44)"/><path class="cls-8" d="M450.37,272.2c-1-.15-2-.29-3-.43q.87,1.32,1.71,2.64l3,.43C451.53,274,451,273.07,450.37,272.2Z" transform="translate(232.24 265.44)"/><path class="cls-8" d="M516.58,374l-.24-.18q1.14,4.47,2.13,9a2.23,2.23,0,0,1,.24.19Q517.72,378.52,516.58,374Z" transform="translate(232.24 265.44)"/><path class="cls-11" d="M508.29,346.16a2.58,2.58,0,0,0-.58-.64l-.23-.18-.41-.27c.38,1,.75,2.06,1.12,3.1a4.86,4.86,0,0,1,.41.27l.23.18a2.94,2.94,0,0,1,.6.65C509.05,348.24,508.68,347.2,508.29,346.16Z" transform="translate(232.24 265.44)"/><path class="cls-7" d="M476.64,596.5c-.5.06-.83.1-2.4,1.74-5.43,5.72-6.78,7-11.79,11.85l-.95,2.16c5.88-5.61,7-6.8,11.81-11.79.83-.87,1.14-1.1,1.59-1.15.45.56-.38,2.49-2.56,5.91q-5.44,8.24-11.44,16.08a33.77,33.77,0,0,1-3.06,3.52c-12.69,12.3-13.7,12.43-14.18,12.5-.91-.23-1.9-.45-3-.68-.72.84-1.44,1.67-2.17,2.49l3.16.68a8.8,8.8,0,0,0,3.07-2c12.49-11.07,14.12-13.16,16.59-16.34q6-7.85,11.47-16.07C476,600.33,477.32,597.34,476.64,596.5Z" transform="translate(232.24 265.44)"/><path class="cls-11" d="M433.38,635.33l-.93-.15-2.1-.31-2.05,2.51,2.07.31.92.14c2.43.38,4.6.77,6.5,1.15q1.09-1.23,2.16-2.49Q437.05,635.91,433.38,635.33Z" transform="translate(232.24 265.44)"/><path class="cls-11" d="M526,437.33a3,3,0,0,0-1.28-1.33c-1.17-.09-2,9.69-2.27,18.1l.46.19c.34-8.71,1-14.17,1.75-15h.14a3.15,3.15,0,0,1,1.28,1.33C526.09,439.56,526.06,438.44,526,437.33Z" transform="translate(232.24 265.44)"/><path class="cls-11" d="M446.23,320.05q-3.66-.35-7.5-.67c.34,1,.67,2,1,3,2.56.22,5.08.44,7.53.67Z" transform="translate(232.24 265.44)"/><path class="cls-8" d="M494.24,318l-1-.42a5.27,5.27,0,0,1-.76-1.12c-2.25-3.85-2.25-3.85-2.6-4.53q-4.05-8-8.57-15.65a12.2,12.2,0,0,1-.94-1.85c-1.36-4.13-3.61-7.86-5.37-11.8a2.9,2.9,0,0,1,.82.75l-1.89-2.73a2.41,2.41,0,0,0-.82-.69c.06.13.16.31.23.44,3,5,4.55,10.68,7.47,15.72s5.85,10.32,8.54,15.63c.6,1.17,1,1.9,1.58,2.9,3.13,5.4,3.13,5.4,3.78,5.94.35.12.67.25,1,.38C495.19,319.93,494.72,318.94,494.24,318Z" transform="translate(232.24 265.44)"/><path class="cls-8" d="M491.18,310.54a20.9,20.9,0,0,1-.93-2,56.24,56.24,0,0,0-4.9-10.34l-.42-.7-1.41-2.32a59.29,59.29,0,0,1,5.31,11c.12.31.56,1.33,2,4.12.48.91.95,1.82,1.42,2.74l.35.17C492.13,312.36,491.66,311.45,491.18,310.54Z" transform="translate(232.24 265.44)"/><path class="cls-11" d="M496.75,319.45a6.18,6.18,0,0,0-1.62-1.09c.48,1,.95,2,1.42,3a6.09,6.09,0,0,1,1.63,1.1C497.71,321.44,497.23,320.44,496.75,319.45Z" transform="translate(232.24 265.44)"/><path class="cls-11" d="M503.78,556.29c-.38.18-1.39,2.11-3.27,6.27-1.18,2.67-2.41,5.32-3.67,8-.77,1.62-1.23,2.62-1.82,4-3.45,8-3.45,8-3.46,8.08a1.31,1.31,0,0,1,.22.56c.52-1,1-2,1.55-2.93a1.29,1.29,0,0,0-.21-.56,5.39,5.39,0,0,1,.6-1.54c1.13-2.46,2.15-5,3.32-7.41,1.26-2.63,2.49-5.27,3.68-7.94,1.31-2.91,1.55-3.16,1.76-3.38a.37.37,0,0,1,.11.24,30.22,30.22,0,0,1-1.44,3.68q-2.49,5.58-5.21,11.05a1.3,1.3,0,0,1,.08.17q2.72-5.46,5.21-11c1.76-4,2.65-6.36,2.65-7Z" transform="translate(232.24 265.44)"/><path class="cls-11" d="M428.28,428.68l-2.64-.18v3.34l2.63.18c8.21,1.49,8,12.12,8,12.57q-.43,13.21-1.68,26.26l2.24.17q1.26-13,1.7-26.27C438.58,443.31,438.63,430.63,428.28,428.68Z" transform="translate(232.24 265.44)"/><path class="cls-11" d="M410.88,427.56c0,1.12,0,2.23,0,3.34,3.8.23,7.53.47,11.21.71v-3.34Q416.58,427.91,410.88,427.56Z" transform="translate(232.24 265.44)"/><path class="cls-11" d="M515.2,438.4q-2.26-.52-5-1c-1.11-.41-1.81-1.54-2.67-4.31l-.88-3-.83-2.67c-2.54-7.77-2.64-8.07-4.18-8.54-1.32-.2-2.7-.41-4.13-.61-2,.21-3,2.73-3.06,7.71l.09,3a18.87,18.87,0,0,0,.67,4.63c.68,2.41,1.52,5.66,2.16,8.08l.71,2.9c.54,2.28,1.2,5.33,1.71,7.62l1.15-1.68c-.49-2.31-1.19-5.36-1.72-7.66l-.71-2.9C496,430,496,430,496,429.07l-.09-2.95c0-3,.61-4.48,1.82-4.61,1.43.21,2.81.41,4.14.62.61.19,1,.69,1.46,1.94l1.64,5,.82,2.68c1.7,5.78,2.4,8.18,4.47,8.94q2.73.53,5,1.05C515.22,440.63,515.21,439.51,515.2,438.4Z" transform="translate(232.24 265.44)"/><path class="cls-11" d="M450,588.15c7.37-31.75,3.58-32.63,1.76-33-2.65-.27-5.39-.53-8.2-.79l-2.07-.19-2.56-.23c-.35,1-.71,2.05-1.07,3.08l3.5.31,2.05.19c2.47.23,4.87.46,7.22.7,1.4.33,1.91,1.34,1.83,3.63A192.54,192.54,0,0,1,448,589.41a26.12,26.12,0,0,0-.53,3.4c-.29,4.29,1.6,4.87,2.51,5.14l2.47.33c.55-.93,1.08-1.87,1.62-2.81l-2.49-.33C449.53,594.51,449.09,592.61,450,588.15Z" transform="translate(232.24 265.44)"/><path class="cls-11" d="M432.88,553.38c-.34,1-.69,2-1,3.08l4.45.37c.36-1,.71-2.05,1.06-3.07Z" transform="translate(232.24 265.44)"/><path class="cls-7" d="M458.67,273.56c-1.83-.35-3.86-.69-6.07-1,.59.88,1.17,1.76,1.75,2.65,2.23.34,4.27.69,6.12,1C459.88,275.32,459.28,274.44,458.67,273.56Z" transform="translate(232.24 265.44)"/><path class="cls-7" d="M235.66,636.91c0,.27,0,.54,0,.81q-.12,7.06-.25,13.68l2,0q.2-6.61.39-13.68c0-.27,0-.54,0-.81Z" transform="translate(232.24 265.44)"/><path class="cls-7" d="M134.84,264.55q-2.42,6.93-4.62,14.19l2.4,0q2.16-7.26,4.52-14.19Z" transform="translate(232.24 265.44)"/><path class="cls-7" d="M491.74,583.53c0,.07-.06.15-.1.23l.47-.88,1.09-2.06a1,1,0,0,0,.09-.22C492.78,581.58,492.26,582.55,491.74,583.53Z" transform="translate(232.24 265.44)"/><path class="cls-8" d="M122.81,251.62l-1.12,2.46q7.22-.17,14.62-.31l1-2.46Q130,251.45,122.81,251.62Z" transform="translate(232.24 265.44)"/><circle class="cls-8" cx="247.96" cy="481.55" r="10.65" transform="translate(-45.55 877.2) rotate(-76.67)"/><circle class="cls-8" cx="325.2" cy="532.88" r="10.65" transform="translate(-49.31 651.46) rotate(-45)"/><circle class="cls-8" cx="330.27" cy="371.05" r="10.65" transform="translate(66.6 607.65) rotate(-45)"/><circle class="cls-7" cx="237.31" cy="546.8" r="10.65" transform="translate(-108.27 958.64) rotate(-80.76)"/><path class="cls-7" d="M109.65,253.28a7.72,7.72,0,1,1-7.71-7.71A7.71,7.71,0,0,1,109.65,253.28Z" transform="translate(232.24 265.44)"/><circle class="cls-11" cx="143.68" cy="549.87" r="10.65" transform="translate(-148.15 595.42) rotate(-52.59)"/><circle class="cls-11" cx="356.47" cy="446.54" r="10.65" transform="translate(20.9 648.29) rotate(-45)"/><circle class="cls-8" cx="401.7" cy="402.21" r="10.65" transform="translate(65.49 667.28) rotate(-45)"/><circle class="cls-7" cx="163.79" cy="427.56" r="10.65" transform="translate(-22.12 506.48) rotate(-45)"/><circle class="cls-8" cx="112.59" cy="459.24" r="10.65" transform="translate(-59.51 479.56) rotate(-45)"/><rect class="cls-11" x="452.92" y="572.39" width="23.68" height="2.4"/><circle class="cls-11" cx="1825.04" cy="37.83" r="7.72"/><circle class="cls-8" cx="1506.75" cy="183.77" r="7.72"/><circle class="cls-8" cx="1694.77" cy="91.1" r="7.72"/><circle class="cls-8" cx="1751.62" cy="114.13" r="7.72"/><circle class="cls-8" cx="1687.05" cy="183.77" r="7.72"/><circle class="cls-8" cx="1459.49" cy="39.96" r="10.65" transform="translate(1316.24 1716.33) rotate(-76.67)"/><circle class="cls-7" cx="1556.45" cy="0.15" r="10.65" transform="translate(688.01 1366.06) rotate(-45)"/><circle class="cls-7" cx="1755.42" cy="183.77" r="7.72"/><circle class="cls-7" cx="1394.71" cy="39.96" r="10.65" transform="translate(612.49 1263.35) rotate(-45)"/><circle class="cls-7" cx="1817.32" cy="206.26" r="7.72"/><circle class="cls-11" cx="1691.73" cy="389.98" r="7.72"/><circle class="cls-7" cx="1580.08" cy="-153.97" r="10.65" transform="translate(1597.73 1684.46) rotate(-76.67)"/><circle class="cls-7" cx="1462.52" cy="-254.79" r="10.65" transform="translate(1711.32 1495.11) rotate(-80.76)"/><circle class="cls-7" cx="1397.58" cy="-142.49" r="10.65" transform="translate(712.95 1187.31) rotate(-43.44)"/><rect class="cls-7" x="1690.54" y="241.84" width="2.4" height="34.76"/><rect class="cls-8" x="1790.28" y="161.92" width="2.4" height="29.46"/><rect class="cls-7" x="1526.29" y="182.57" width="61.14" height="2.4"/><rect class="cls-11" x="1816.12" y="219.68" width="2.4" height="29.42"/><rect class="cls-11" x="1595.7" y="169.06" width="2.4" height="29.42"/><rect class="cls-11" x="1690.54" y="330.63" width="2.4" height="23.68"/><rect class="cls-11" x="1775.55" y="205.07" width="23.68" height="2.4"/><rect class="cls-8" x="1693.57" y="33.95" width="2.4" height="23.68"/><rect class="cls-7" x="1779.74" y="151.32" width="23.49" height="2.4"/><rect class="cls-11" x="1713.23" y="182.57" width="23.68" height="2.4"/><rect class="cls-8" x="1607.33" y="182.57" width="54.41" height="2.4"/><rect class="cls-7" x="1805.75" y="264.38" width="25.15" height="2.4"/><rect class="cls-7" x="1642.57" y="304.2" width="16.39" height="2.4"/><rect class="cls-7" x="1683.54" y="367.09" width="16.39" height="2.4"/><rect class="cls-7" x="1811.13" y="142.16" width="2.4" height="16.39"/><path class="cls-11" d="M1667,10a23.2,23.2,0,0,0-20.74,12.7l-9.4,18.39a20.29,20.29,0,0,1-18.14,11.11h-29.55v2.39h29.55A22.69,22.69,0,0,0,1639,42.14l9.39-18.39A20.8,20.8,0,0,1,1667,12.36h14.75V10Z" transform="translate(232.24 265.44)"/><path class="cls-8" d="M1533,52.16a16.22,16.22,0,0,1-16.2-16.2V17.54A16.22,16.22,0,0,1,1533,1.34h7.7V-1H1533a18.61,18.61,0,0,0-18.59,18.59V36A18.61,18.61,0,0,0,1533,54.55h47.34V52.16Z" transform="translate(232.24 265.44)"/><path class="cls-11" d="M1539.34-111.72h-4a17.16,17.16,0,0,1-17.14-17.14v-10.6h2.4v10.6a14.75,14.75,0,0,0,14.74,14.74h4Z" transform="translate(232.24 265.44)"/><rect class="cls-11" x="1661.73" y="53.93" width="23.42" height="2.4"/><path class="cls-8" d="M1641.75-212.15h-2.39v-2.39a11.89,11.89,0,0,0-11.87-11.87h-18.78v-2.39h18.78a14.28,14.28,0,0,1,14.26,14.26Z" transform="translate(232.24 265.44)"/><path class="cls-7" d="M1460.69-34.24h-2.4v-4.87a21.29,21.29,0,0,1,21.26-21.26h51.34V-58h-51.34a18.88,18.88,0,0,0-18.86,18.86Z" transform="translate(232.24 265.44)"/><circle class="cls-7" cx="1768.33" cy="451.5" r="10.65"/><circle class="cls-11" cx="1715.27" cy="350.86" r="7.72"/><circle class="cls-11" cx="1989.39" cy="303.32" r="10.65"/><rect class="cls-7" x="1768.49" y="367.58" width="2.4" height="32.05"/><rect class="cls-11" x="1736.33" y="349.67" width="23.68" height="2.4"/><circle class="cls-8" cx="1712.07" cy="126.52" r="10.65" transform="translate(644.23 1513.11) rotate(-45)"/><circle class="cls-8" cx="1878.89" cy="428.86" r="7.72"/><rect class="cls-7" x="1748.17" y="427.67" width="111.18" height="2.4"/><rect class="cls-7" x="1768.49" y="339.22" width="2.4" height="16.39"/><path class="cls-8" d="M1500.23,164.62h2.17v-2.39h-2.17a17.14,17.14,0,0,1-17.11-17.11V127.2h-2.39v17.92A19.53,19.53,0,0,0,1500.23,164.62Z" transform="translate(232.24 265.44)"/><path class="cls-11" d="M1573.56,147.63h2.4V106.24a22,22,0,0,0-22-22h-6.81v2.4H1554a19.64,19.64,0,0,1,19.61,19.61Z" transform="translate(232.24 265.44)"/><path class="cls-8" d="M1594.15,205.09h33v-2.4h-33A18.2,18.2,0,0,1,1576,184.51v-8.24h-2.4v8.24A20.61,20.61,0,0,0,1594.15,205.09Z" transform="translate(232.24 265.44)"/><rect class="cls-8" x="1933.12" y="428.85" width="93.28" height="2.4"/></g></g></g></g></svg>