<svg xmlns="http://www.w3.org/2000/svg" viewBox="0 0 95.84 74.07"><defs><style>.cls-1{fill:#f6ae2d;}.cls-2{fill:none;}.cls-3{fill:#f4f6f9;}</style></defs><g id="Layer_2" data-name="Layer 2"><g id="Layer_1-2" data-name="Layer 1"><path class="cls-1" d="M25.62,15l-6-3.61C18.42,10.68,17.2,9.94,16,9.19a7.37,7.37,0,0,1-1-.8c-1.62-1.5-1.52-2.93.33-4.12A9.75,9.75,0,0,1,23.5,3.18c4.1,1.15,8.16,2.48,12.25,3.71,1,.3,2,.46,2.93.79a4.79,4.79,0,0,0,3.59-.16c3.33-1.46,6.67-2.91,10-4.4A32.1,32.1,0,0,1,61.18.17a14.07,14.07,0,0,1,9.5,1.73,9,9,0,0,1,2,1.75,2.87,2.87,0,0,1-.3,4.24,38.87,38.87,0,0,1-9.47,6q-4.87,2.44-9.68,5a2.78,2.78,0,0,0-1.14,1.21c-2.27,4.77-4.46,9.57-6.74,14.33-1.62,3.38-3.26,6.76-5,10.05a8.61,8.61,0,0,1-5.4,4c-2.07.61-3.5-.7-3.12-2.85,1-5.47,2-10.93,3-16.39.13-.75.28-1.49.45-2.41l-1.83.74c-4.73,1.95-9.41,4-14.41,5.25a24.53,24.53,0,0,1-8.21.88,11.34,11.34,0,0,1-3.57-1.08,3.5,3.5,0,0,1-1.56-1.62c-1.83-4-3.64-7.95-5.31-12-1-2.5.31-4.43,3-4.69A4.14,4.14,0,0,1,6.15,15c1.67,1.14,3.32,2.32,5,3.48.88.61,1.69,1.61,2.63,1.74s1.91-.64,2.85-1.07C19.54,17.8,22.47,16.45,25.62,15ZM3.25,17.27a6.89,6.89,0,0,0,.26.84C5,21.42,6.37,24.74,7.86,28c1,2.27,1.06,2.26,3.56,2.28a35.07,35.07,0,0,0,13.66-2.88c4.53-1.85,9-3.82,13.53-5.73.28-.12.59-.2,1-.33L35.28,44.76l.24.07a16.61,16.61,0,0,0,3.78-5.08C42.68,32.39,46.1,25,49.47,17.68a3.49,3.49,0,0,1,2-2c1.32-.52,2.59-1.17,3.88-1.78,4.91-2.3,9.81-4.63,14.18-7.9l.72-.58c-3.76-2.2-7.59-2.94-11.57-1.24C52,7,45.48,10,38.89,12.85Q26.82,18.13,14.74,23.41a1.94,1.94,0,0,1-1.8,0c-1.21-.68-2.45-1.33-3.6-2.1C8,20.44,6.78,19.42,5.48,18.52,4.84,18.08,4.12,17.75,3.25,17.27Zm15.29-11-.05.28a2.35,2.35,0,0,0,.29.26C22.2,9,25.61,11.08,29,13.18a.65.65,0,0,0,.52.08c2.05-.88,4.09-1.79,6.18-2.71C33.48,9.78,31.32,9,29.13,8.32a63.83,63.83,0,0,0-6.24-1.69A33,33,0,0,0,18.54,6.3Z"/><path class="cls-2" d="M89.56,22.21c0,8.12,0,35.1,0,43.2,0,2-.4,2.36-2.32,2.36s-3.77,0-5.64,0c-2.82,0-14.82.89-17.14,2.52a5.73,5.73,0,0,0-.64.6h28.9V20.74H89.56Z"/><path class="cls-2" d="M86.46,64.59v-47c-1.67,0-3.23,0-4.8,0-3.13,0-15.33,1.07-17.81,2.95a2.17,2.17,0,0,0-1,2c0,8.31,0,35.49,0,43.8,0,.38,0,.75,0,.93A51.32,51.32,0,0,1,69.72,65C72.07,64.57,84,64.71,86.46,64.59Z"/><path class="cls-3" d="M93.69,17.64H89.63c0-.48-.07-.76-.08-1,0-1.73-.42-2.1-2.19-2.11-.94,0-1.88,0-2.83,0-5-.23-19,.59-23.24,4.21L60.44,18l-3.16,1.63a6.38,6.38,0,0,1,1.68,1,2.33,2.33,0,0,1,.83,1.52c.06,8.58,0,36,0,44.61,0,.2,0,.39-.07.86-4.28-3.06-18.52-3.07-23.5-2.89V50.9a9.4,9.4,0,0,1-1.32.48,2.84,2.84,0,0,1-1.83,0c0,5.8,0,10.92,0,13.72,0,2.37.32,2.65,2.72,2.69s5,0,7.51.27c2.25.22,13.68,1.25,15.74,2.89H30v-39c-1,.43-2.06.85-3.1,1.25,0,13.48,0,30.93,0,38.9,0,1.53.5,2,2.06,2H93.51c1.91,0,2.33-.42,2.33-2.36V19.79C95.84,18.07,95.41,17.64,93.69,17.64ZM62.89,66.26c0-8.31,0-35.49,0-43.8a2.17,2.17,0,0,1,1-2c2.48-1.88,14.68-2.93,17.81-2.95,1.57,0,3.13,0,4.8,0v47c-2.49.12-14.39,0-16.74.42a51.32,51.32,0,0,0-6.78,2.18C62.93,67,62.89,66.64,62.89,66.26ZM92.74,70.9H63.84a5.73,5.73,0,0,1,.64-.6c2.32-1.63,14.32-2.47,17.14-2.52,1.87,0,3.75,0,5.64,0s2.32-.39,2.32-2.36c0-8.1,0-35.08,0-43.2V20.74h3.18Z"/></g></g></svg>