<svg xmlns="http://www.w3.org/2000/svg" viewBox="0 0 628.55 523.31"><defs><style>.cls-1{fill:#fff;}.cls-1,.cls-3,.cls-4,.cls-5{stroke:#0072c8;stroke-linecap:round;stroke-linejoin:round;stroke-width:0.75px;}.cls-1,.cls-2,.cls-3,.cls-4{fill-rule:evenodd;}.cls-2{fill:none;}.cls-3,.cls-5{fill:#d9e8ff;}.cls-4{fill:#9aceef;}</style></defs><g id="Layer_2" data-name="Layer 2"><g id="Layer_1-2" data-name="Layer 1"><path class="cls-1" d="M520.55,191.08h102V359.52c0,67.69-102,65.86-102,1.83Z" transform="translate(0 -2.07)"/><path class="cls-2" d="M522.4,192.89V361.35C522.4,392,547.18,408,571.48,408c13,0,25.08-4.28,33.9-12,10.06-8.74,15.33-21.36,15.33-36.47V192.89Zm49.08,218.76c-26.16,0-52.79-17.28-52.79-50.3V191.08a1.81,1.81,0,0,1,1.86-1.83h102a1.9,1.9,0,0,1,1.85,1.83V359.52c0,16.19-5.88,29.76-16.72,39.22C598.26,407.05,585.41,411.65,571.48,411.65Z" transform="translate(0 -2.07)"/><polygon class="cls-3" points="526.74 356.57 616.37 356.57 616.37 283.3 526.74 282.71 526.74 356.57"/><path class="cls-2" d="M528.6,356.81h85.91V287.17l-85.91-.56v70.2Zm87.77,3.64H526.74a1.69,1.69,0,0,1-1.24-.52,1.52,1.52,0,0,1-.62-1.29V284.78a2.1,2.1,0,0,1,.62-1.3,1.69,1.69,0,0,1,1.24-.52h0l89.63.58a1.92,1.92,0,0,1,1.86,1.83v73.27A1.89,1.89,0,0,1,616.37,360.45Z" transform="translate(0 -2.07)"/><path class="cls-3" d="M539.74,264.8c17.65-10.12,46-10.14,63.63,0,17.49,10.14,17.49,26.56,0,36.7s-46,10.13-63.63,0C522.25,291.36,522.25,274.94,539.74,264.8Z" transform="translate(0 -2.07)"/><path class="cls-2" d="M540.67,266.38c-7.89,4.56-12.23,10.52-12.23,16.78s4.34,12.19,12.23,16.76c17,9.83,44.74,9.83,61.77,0,7.89-4.57,12.23-10.52,12.23-16.76s-4.34-12.22-12.23-16.78c-17-9.82-44.74-9.82-61.77,0Zm31,44.51c-11.93,0-23.69-2.61-32.67-7.81s-14.09-12.32-14.09-19.92,5-14.69,14.09-19.94h0c18-10.39,47.22-10.39,65.33,0,9.13,5.25,14.09,12.32,14.09,19.94s-5,14.67-14.09,19.92C595.32,308.28,583.4,310.89,571.64,310.89Z" transform="translate(0 -2.07)"/><path class="cls-4" d="M616.37,358.64c0,23.48-15.79,43.59-44.73,43.59-29.11,0-44.9-20.42-44.9-43.59C526.43,320.23,616.53,317.51,616.37,358.64Z" transform="translate(0 -2.07)"/><path class="cls-2" d="M572.56,330.67c-11,0-22.29,2.46-30.65,7.32-6.19,3.58-13.47,10.08-13.31,20.64,0,20.12,13.47,41.78,43,41.78,12.69,0,23.52-4.07,31.26-11.77,7.59-7.53,11.61-18.19,11.61-30h0c.16-11.23-7.12-17.77-13.16-21.29-7.73-4.46-18.26-6.67-28.79-6.67ZM571.64,404c-32.2,0-46.76-23.52-46.76-45.4,0-9.74,5.11-18,15.18-23.79,17.64-10.25,46-10.53,63-.65,9.91,5.71,15.17,14.16,15.17,24.44,0,12.79-4.49,24.35-12.69,32.57C597,399.62,585.41,404,571.64,404Z" transform="translate(0 -2.07)"/><path class="cls-3" d="M553.06,325.82a4.43,4.43,0,1,0,0-8.85,4.43,4.43,0,0,0,0,8.85Z" transform="translate(0 -2.07)"/><path class="cls-2" d="M553.06,318.78a2.61,2.61,0,1,0,2.63,2.62,2.68,2.68,0,0,0-2.63-2.62Zm0,8.85a6.25,6.25,0,0,1,0-12.49,6.25,6.25,0,1,1,0,12.49Z" transform="translate(0 -2.07)"/><path class="cls-3" d="M595.32,288.08a6.51,6.51,0,1,0-6.5-6.5A6.52,6.52,0,0,0,595.32,288.08Z" transform="translate(0 -2.07)"/><path class="cls-2" d="M595.32,276.9a4.68,4.68,0,1,0,4.64,4.68,4.62,4.62,0,0,0-4.64-4.68Zm0,13a8.32,8.32,0,1,1,8.36-8.31A8.32,8.32,0,0,1,595.32,289.89Z" transform="translate(0 -2.07)"/><path class="cls-3" d="M549.5,361.23a1.6,1.6,0,0,0,0-3.19,1.6,1.6,0,0,0,0,3.19Z" transform="translate(0 -2.07)"/><path class="cls-2" d="M549.5,359.42c-.16,0-.16.09-.16.21l.16-.21Zm0,3.64a3.43,3.43,0,1,1,3.4-3.43A3.44,3.44,0,0,1,549.5,363.06Z" transform="translate(0 -2.07)"/><path class="cls-3" d="M576.12,384.91a4.2,4.2,0,1,0,0-8.4,4.2,4.2,0,0,0,0,8.4Z" transform="translate(0 -2.07)"/><path class="cls-2" d="M576.12,378.33a2.39,2.39,0,0,0,0,4.77,2.39,2.39,0,1,0,0-4.77Zm0,8.41a6,6,0,0,1,0-12.06,6,6,0,1,1,0,12.06Z" transform="translate(0 -2.07)"/><path class="cls-3" d="M589,356.24A5.64,5.64,0,0,0,589,345a5.64,5.64,0,1,0,0,11.28Z" transform="translate(0 -2.07)"/><path class="cls-2" d="M589,346.78a3.83,3.83,0,1,0,3.87,3.83,3.84,3.84,0,0,0-3.87-3.83Zm0,11.28a7.46,7.46,0,1,1,7.43-7.45A7.39,7.39,0,0,1,589,358.06Z" transform="translate(0 -2.07)"/><path class="cls-3" d="M621.32,190.57H628v10.22h-9.91a18.43,18.43,0,0,0,3.24-10.22Zm-106.19,0h6.81a18.44,18.44,0,0,0,3.25,10.22H515.13Z" transform="translate(0 -2.07)"/><path class="cls-2" d="M517,199h5.1a17.23,17.23,0,0,1-1.85-6.57H517V199Zm8.2,3.64H515.13a1.77,1.77,0,0,1-1.71-1.81V190.57a1.78,1.78,0,0,1,1.71-1.81h6.81a1.91,1.91,0,0,1,1.86,1.81,16.05,16.05,0,0,0,2.94,9.21,2,2,0,0,1,0,1.87,1.78,1.78,0,0,1-1.55.95Zm96-3.64h5v-6.57H623a16.9,16.9,0,0,1-1.86,6.57ZM628,202.6h-9.91a1.78,1.78,0,0,1-1.55-.95,2,2,0,0,1,0-1.87,16.12,16.12,0,0,0,2.94-9.21,1.9,1.9,0,0,1,1.85-1.81H628a1.91,1.91,0,0,1,1.85,1.81v10.22A1.9,1.9,0,0,1,628,202.6Z" transform="translate(0 -2.07)"/><path class="cls-3" d="M620.25,184.49c12.84,12.5,9.9,28.9-8.67,39.64-22,12.74-57.75,12.74-79.89,0C513.12,213.39,510.18,197,523,184.49c-3.4,9.21,1.09,19.22,13.47,26.37,19.35,11.21,50.93,11.21,70.28,0C619.16,203.71,623.65,193.7,620.25,184.49Z" transform="translate(0 -2.07)"/><path class="cls-2" d="M520.08,191a18.76,18.76,0,0,0-2.94,12.27c.93,7.2,6.35,14.08,15.48,19.33,21.52,12.41,56.51,12.41,78,0,9.13-5.25,14.55-12.13,15.48-19.33a18.78,18.78,0,0,0-3-12.29c-.15,8.05-5.57,15.77-15.48,21.49-20,11.47-52.17,11.47-72.14,0-9.9-5.72-15.32-13.42-15.48-21.47Zm51.56,44.5c-14.71,0-29.57-3.26-40.87-9.76-10.07-5.82-16.1-13.64-17.19-22-.93-7.26,1.86-14.35,8.21-20.5a1.9,1.9,0,0,1,2.32-.21,1.88,1.88,0,0,1,.61,2.16c-3.24,8.67,1.56,17.72,12.7,24.15,18.89,10.9,49.54,10.9,68.43,0,11.14-6.43,15.94-15.48,12.69-24.16a1.79,1.79,0,0,1,2.94-1.94c6.35,6.14,9.13,13.23,8.21,20.5-.93,8.38-7.12,16.21-17.19,22C601.2,232.21,586.34,235.47,571.64,235.47Z" transform="translate(0 -2.07)"/><path class="cls-3" d="M531.54,168c22.14-12.76,57.9-12.77,80,0s22.13,33.47,0,46.22-57.9,12.77-80,0S509.41,180.74,531.54,168Z" transform="translate(0 -2.07)"/><path class="cls-2" d="M532.47,169.55c-10.07,5.83-15.64,13.48-15.64,21.54s5.57,15.69,15.64,21.52c21.52,12.46,56.66,12.46,78.33,0,10.06-5.82,15.64-13.46,15.64-21.52s-5.58-15.71-15.79-21.54c-21.52-12.45-56.66-12.46-78.18,0Zm39.17,56c-14.87,0-29.73-3.26-41-9.78s-17.49-15.28-17.49-24.68,6.19-18.18,17.49-24.7h0c22.6-13,59.29-13,81.89,0,11.3,6.52,17.5,15.29,17.5,24.7s-6.2,18.16-17.5,24.68S586.34,225.55,571.64,225.55Z" transform="translate(0 -2.07)"/><path class="cls-3" d="M526.58,191.08h89.95c0-6.64-4.33-13.28-13.16-18.35-17.65-10.14-46-10.14-63.63,0C531.07,177.8,526.58,184.44,526.58,191.08Z" transform="translate(0 -2.07)"/><path class="cls-2" d="M528.6,189.25h86.07c-.77-5.57-5.11-10.81-12.23-14.93-17-9.84-44.74-9.84-61.77,0-7.12,4.12-11.3,9.36-12.07,14.93Zm87.93,3.64H526.58a1.77,1.77,0,0,1-1.7-1.81c0-7.61,5-14.68,14.09-19.93,18-10.4,47.22-10.4,65.33,0,9.13,5.24,14.09,12.32,14.09,19.93a2.06,2.06,0,0,1-.63,1.29A1.65,1.65,0,0,1,616.53,192.89Z" transform="translate(0 -2.07)"/><path class="cls-1" d="M539.74,172.73c17.65-10.14,46-10.14,63.63,0,17.49,10.13,17.49,26.57,0,36.7s-46,10.13-63.63,0C522.25,199.29,522.25,182.86,539.74,172.73Z" transform="translate(0 -2.07)"/><path class="cls-2" d="M540.67,174.32c-7.89,4.56-12.23,10.52-12.23,16.77s4.34,12.2,12.23,16.75c17,9.85,44.74,9.85,61.77,0,7.89-4.55,12.23-10.51,12.23-16.76s-4.34-12.2-12.23-16.76c-17-9.84-44.74-9.84-61.77,0Zm31,44.49c-11.93,0-23.69-2.6-32.67-7.81s-14.09-12.31-14.09-19.91,5-14.69,14.09-19.94h0c18-10.4,47.22-10.4,65.33,0,9.13,5.25,14.09,12.33,14.09,19.93s-5,14.69-14.09,19.92C595.32,216.21,583.4,218.81,571.64,218.81Z" transform="translate(0 -2.07)"/><path class="cls-3" d="M550,279.75a4.58,4.58,0,1,0-4.49-4.58A4.56,4.56,0,0,0,550,279.75Z" transform="translate(0 -2.07)"/><path class="cls-2" d="M550,272.4a2.77,2.77,0,0,0,0,5.54,2.77,2.77,0,1,0,0-5.54Zm0,9.18a6.41,6.41,0,1,1,6.5-6.41A6.45,6.45,0,0,1,550,281.58Z" transform="translate(0 -2.07)"/><ellipse class="cls-5" cx="595.94" cy="314.9" rx="1.7" ry="1.72"/><path class="cls-2" d="M595.94,316.86v0Zm0,3.64a3.54,3.54,0,0,1,0-7.08,3.54,3.54,0,1,1,0,7.08Z" transform="translate(0 -2.07)"/><path class="cls-3" d="M568.85,298.53a1.85,1.85,0,1,0,0-3.7,1.85,1.85,0,1,0,0,3.7Z" transform="translate(0 -2.07)"/><path class="cls-2" d="M568.85,296.69h0Zm0,3.65a3.66,3.66,0,1,1,0-7.32,3.66,3.66,0,0,1,0,7.32Z" transform="translate(0 -2.07)"/><path class="cls-2" d="M526.74,286.6a1.91,1.91,0,0,1-1.86-1.82V222.41a1.9,1.9,0,0,1,1.86-1.82,1.8,1.8,0,0,1,1.86,1.82v62.37A1.81,1.81,0,0,1,526.74,286.6Z" transform="translate(0 -2.07)"/><path class="cls-2" d="M616.37,287.18a1.81,1.81,0,0,1-1.86-1.81v-64a1.8,1.8,0,0,1,1.86-1.82,1.9,1.9,0,0,1,1.86,1.82v64A1.91,1.91,0,0,1,616.37,287.18Z" transform="translate(0 -2.07)"/><path class="cls-4" d="M358.18,247.33,357,249l-4.5,6.41-1.18,1.35-1.19.86,10.68-5.79a17.31,17.31,0,0,0,2.42-1.56Z" transform="translate(0 -2.07)"/><path class="cls-2" d="M350.13,260.05a2.65,2.65,0,0,0,1.19-.29L362,254a21.27,21.27,0,0,0,2.72-1.78,2.27,2.27,0,0,0,1-2.1,2.44,2.44,0,0,0-1.23-2l-5.07-2.91a2.39,2.39,0,0,0-3.18.72l-7.48,9.69a2.52,2.52,0,0,0-.64,3.32A2.55,2.55,0,0,0,350.13,260.05Z" transform="translate(0 -2.07)"/><path class="cls-4" d="M345.71,240.16l-.15.24c-11.3,13.86.71,23.7,6.94,15l5.68-8Z" transform="translate(0 -2.07)"/><path class="cls-2" d="M354.59,248.1l-8.2-4.74c-2.78,3.89-3.67,7.69-2.56,10.42a3.61,3.61,0,0,0,2.77,2.42,4.5,4.5,0,0,0,3.89-2.25l4.1-5.85Zm-8.55,13a8.54,8.54,0,0,1-6.79-5.43c-.9-2.3-2.36-8.5,4.31-16.67l.2-.24a2.42,2.42,0,0,1,3.2-.7l12.39,7.16a2.42,2.42,0,0,1,1.19,1.59,2.46,2.46,0,0,1-.43,1.95l-5.67,8a9.18,9.18,0,0,1-7.48,4.35A7.08,7.08,0,0,1,346,261.07Z" transform="translate(0 -2.07)"/><path class="cls-4" d="M452.48,314.39l6.15-3.8c1.46-1.54,1.46-2.53,1.2-4.58l-8.32-4.78.06.13,1.8,7.62C453.72,311.26,454.06,312.66,452.48,314.39Z" transform="translate(0 -2.07)"/><path class="cls-2" d="M457.05,308.66a1.3,1.3,0,0,0,.48-1.14l-2.28-1.3.54,2.2c0,.06.08.56.08.6a.72.72,0,0,1,.07.36l1.11-.72Zm-6.52,7.3a2.51,2.51,0,0,1,.15-3.24c.62-.71.69-.92.35-3.15l-1.88-7.81a2.47,2.47,0,0,1,.9-2.51,2.52,2.52,0,0,1,2.7-.15l8.24,4.78a2.48,2.48,0,0,1,1.25,1.78c.34,2.3.42,4.24-1.79,6.6a4.93,4.93,0,0,1-.5.44l-6.23,3.8a2.5,2.5,0,0,1-3.19-.54Z" transform="translate(0 -2.07)"/><path class="cls-4" d="M434.47,291.38l3.11,12.94c3.59,12.18,18.36,15.06,15.79,4.66l-1.86-7.75Z" transform="translate(0 -2.07)"/><path class="cls-2" d="M449.36,302.82l-11.15-6.46,1.74,7.28c2,6.76,7.88,9.85,10.38,9.18,1.1-.31,1-1.94.7-3.25l-1.67-6.75Zm-14.14,2.09-3.11-13a2.39,2.39,0,0,1,.89-2.55,2.52,2.52,0,0,1,2.7-.17l17.05,9.86a2.83,2.83,0,0,1,1.19,1.55l1.85,7.77c1.32,5.55-1.31,8.35-4.22,9.14a7.72,7.72,0,0,1-2,.26C444.23,317.82,437.58,312.93,435.22,304.91Z" transform="translate(0 -2.07)"/><path class="cls-4" d="M391.36,313.47c2.22-1.27,7.77-3.9,8.6-5.59,1.18-2.24.62-22.77.62-26.72l-.13-229.65c-1.05-6.29-7.71-12.66-11.93-11l-6.94,4c5.77-1.36,11.73,6.06,12.08,13V88.91l-.21,221.64A3.81,3.81,0,0,1,391.36,313.47Z" transform="translate(0 -2.07)"/><path class="cls-2" d="M389.9,42.61a.27.27,0,0,0-.13,0l-1.52.88c.33.22.69.45,1,.7a18.39,18.39,0,0,1,6.79,13.29l-.2,250.69a10.07,10.07,0,0,0,1.85-1.29c.71-2.18.48-17.3.42-22.27L398,51.9a13.3,13.3,0,0,0-5.9-8.52,5.45,5.45,0,0,0-2.23-.77Zm-.61,272.16a2.45,2.45,0,0,1,.76-3.34c.76-.49.83-.59,1-.88l.12-252.95a13.38,13.38,0,0,0-4.84-9.48,5.3,5.3,0,0,0-4.16-1.21,2.38,2.38,0,0,1-2.84-1.48,2.43,2.43,0,0,1,1-3l7.27-4.18c2.09-.81,4.43-.5,6.94.88a18,18,0,0,1,8.31,12.39l.21,229.67v3.41c.21,16.68,0,22.61-.92,24.45s-3.86,3.52-7.89,5.67l-1.65.91a2.49,2.49,0,0,1-1.26.34A2.44,2.44,0,0,1,389.29,314.77Z" transform="translate(0 -2.07)"/><path class="cls-4" d="M393.66,57.5c0-10.69-14.29-19-14.29-8.23V300.5c0,10.72,14.29,18.94,14.29,8.26Z" transform="translate(0 -2.07)"/><path class="cls-2" d="M393.66,57.5h0ZM383,46.72c-.35,0-1.18,0-1.18,2.55V300.5c0,5.91,5.41,10.78,8.18,10.78.34,0,1.17,0,1.17-2.52V57.5c0-5.89-5.4-10.78-8.17-10.78ZM376.89,300.5V49.27c0-5.49,3.17-7.46,6.09-7.46,5.75,0,13.1,7.38,13.1,15.69V308.76c0,5.48-3.13,7.45-6.1,7.45C384.24,316.21,376.89,308.81,376.89,300.5Z" transform="translate(0 -2.07)"/><path class="cls-4" d="M489.27,317.56c1.8-1,6.58-3.82,8.38-4.86,3.88-2.63,4.51-5.93,4.72-10.38V148.62l-8.4,4.85V307.16C493.76,311.82,493,315,489.27,317.56Z" transform="translate(0 -2.07)"/><path class="cls-2" d="M500,152.86l-3.53,2V307.27a20.78,20.78,0,0,1-.29,3.51l.14-.09c2.9-2,3.47-4.32,3.68-8.37V152.86Zm-12.76,166a2.45,2.45,0,0,1,.69-3.34c2.83-2,3.46-4.32,3.67-8.38V153.47a2.42,2.42,0,0,1,1.17-2.13l8.48-4.85a2.43,2.43,0,0,1,2.42,0,2.47,2.47,0,0,1,1.23,2.13v153.8c-.2,4.35-.83,8.88-5.82,12.31a7.21,7.21,0,0,0-.61.4l-7.89,4.54a2.57,2.57,0,0,1-1.26.34A2.44,2.44,0,0,1,487.19,318.88Z" transform="translate(0 -2.07)"/><polygon class="cls-1" points="493.97 151.4 499.32 148.31 284.39 24.19 278.98 27.28 493.97 151.4"/><path class="cls-2" d="M494.39,150.37l-210-121.28-.48.26L494,150.65l.42-.28Zm-1.67,5.22-215-124.11a2.53,2.53,0,0,1,0-4.27l5.41-3.09a2.4,2.4,0,0,1,2.43,0l215,124.12a2.45,2.45,0,0,1,0,4.27l-5.32,3.08a2.71,2.71,0,0,1-1.26.34A2.67,2.67,0,0,1,492.72,155.59Z" transform="translate(0 -2.07)"/><path class="cls-1" d="M279,29.35V183c0,10.22,7.2,22.75,16.08,27.86q91.44,52.79,182.85,105.56c8.86,5.12,16.06.94,16.06-9.3V153.47Z" transform="translate(0 -2.07)"/><path class="cls-2" d="M491.55,154.89,281.48,33.61V183c0,9.29,6.79,21.08,14.81,25.73L479.15,314.33c3.47,2,6.6,2.4,8.87,1.11s3.53-4.24,3.53-8.28V154.89Zm-14.89,163.7L293.81,213c-9.49-5.52-17.26-19-17.26-30V29.35a2.44,2.44,0,0,1,1.17-2.14,2.6,2.6,0,0,1,2.51,0l215,124.13a2.39,2.39,0,0,1,1.19,2.13V307.16c0,5.88-2.09,10.32-5.89,12.51a10.68,10.68,0,0,1-5.49,1.45A17,17,0,0,1,476.66,318.59Z" transform="translate(0 -2.07)"/><path class="cls-3" d="M380.69,180.05,326,85.25c-6.49-11.35-16.63-5.52-10.05,5.83,22.12,38.26,39.71,68.82,61.8,107.11L406,181.83c18.72,32.44,22.06,38.18,40.75,70.61,6.58,11.35,16.69,5.54,10.13-5.83C434.8,208.35,431.13,202,409,163.68Z" transform="translate(0 -2.07)"/><path class="cls-2" d="M408.14,167l-26.2,15.12a2.39,2.39,0,0,1-1.88.26,2.31,2.31,0,0,1-1.44-1.15l-54.74-94.8c-3.05-5.29-6.25-5.85-7.21-4.06-.77,1.22-.77,3.82,1.32,7.44l60.63,105,26.19-15.12a2.37,2.37,0,0,1,1.86-.25,2.55,2.55,0,0,1,1.52,1.15l40.75,70.61a11.2,11.2,0,0,0,4.22,4.51,2.68,2.68,0,0,0,2.43.19,2.61,2.61,0,0,0,1-2.15,10.33,10.33,0,0,0-1.81-5.91L408.14,167Zm36.59,86.64-39.58-68.51L379,200.29a2.37,2.37,0,0,1-1.85.27,2.25,2.25,0,0,1-1.46-1.15L313.75,92.31c-2.69-4.69-3.17-9.21-1.38-12.36a6.57,6.57,0,0,1,5.75-3.3h0c3.61,0,7.28,2.7,10,7.38l53.48,92.66C409,160.82,409,160.84,410.29,161.55a2.9,2.9,0,0,1,.89.92l47.87,82.91c4.25,7.31,2.42,12.81-1,14.79a6.83,6.83,0,0,1-3.35.86C451.51,261,447.78,259,444.73,253.68Z" transform="translate(0 -2.07)"/><polygon class="cls-4" points="492.6 154.51 506.53 146.47 506.53 129.68 492.6 137.74 492.6 154.51"/><path class="cls-2" d="M504.1,147.12V136L495,141.23v11.11l9.08-5.22Zm-12.76,11.59a2.48,2.48,0,0,1-1.23-2.13V139.81a2.48,2.48,0,0,1,1.23-2.13l13.93-8.07a2.56,2.56,0,0,1,2.49,0,2.47,2.47,0,0,1,1.25,2.14v16.79a2.46,2.46,0,0,1-1.25,2.13l-14,8a2,2,0,0,1-1.16.33A2.42,2.42,0,0,1,491.34,158.71Z" transform="translate(0 -2.07)"/><path class="cls-3" d="M492.6,139.81l13.93-8.06Q394.59,67.11,282.59,2.44L268.66,10.5Q380.59,75.16,492.6,139.81Z" transform="translate(0 -2.07)"/><path class="cls-2" d="M501.6,131.75,282.59,5.29l-9,5.21L492.6,137l9-5.22Zm-10.26,10.17L267.41,12.64a2.44,2.44,0,0,1,0-4.27l13.92-8a2.56,2.56,0,0,1,2.49,0L507.76,129.61a2.45,2.45,0,0,1,0,4.27l-14,8a2.12,2.12,0,0,1-1.16.33A2.52,2.52,0,0,1,491.34,141.92Z" transform="translate(0 -2.07)"/><polygon class="cls-1" points="492.6 137.74 268.66 8.44 268.66 25.23 492.6 154.51 492.6 137.74"/><path class="cls-2" d="M490.11,141.23l-219-126.48V25.88l219,126.46V141.23Zm1.23,17.48L267.41,29.43a2.45,2.45,0,0,1-1.26-2.14V10.5a2.47,2.47,0,0,1,1.26-2.13,2.38,2.38,0,0,1,2.42,0L493.76,137.68a2.47,2.47,0,0,1,1.26,2.13v16.77a2.47,2.47,0,0,1-1.26,2.13,2,2,0,0,1-1.16.33A2.42,2.42,0,0,1,491.34,158.71Z" transform="translate(0 -2.07)"/><path class="cls-4" d="M12.14,404.31l-9.79-6.65a14.63,14.63,0,0,1-2-7.93l0-158c.24-11,7.14-22.91,16.53-28.59L239.5,74.8c3.76-2,7.66-3.24,11.65-1.14l9.77,6.66c-4-2.08-7.92-.92-11.65,1.14L26.73,209.82c-9.4,5.69-16.29,17.75-16.54,28.6l0,158A14.55,14.55,0,0,0,12.14,404.31Z" transform="translate(0 -2.07)"/><path class="cls-3" d="M26.73,209.82,249.27,81.46c9.08-5.25,16.5-1,16.5,9.52l-.06,158c0,10.47-7.44,23.34-16.52,28.59L26.64,405.93c-9.08,5.25-16.53.95-16.5-9.55l0-158C10.19,227.94,17.64,215,26.73,209.82Z" transform="translate(0 -2.07)"/><path class="cls-1" d="M27.7,221.68l58.62-33.82L248.26,94.44c4.17-2.41,7.55-.45,7.55,4.38l-.06,153.81a16.71,16.71,0,0,1-7.54,13.08L65.46,371.12,27.64,393c-4.16,2.38-7.55.46-7.55-4.38l.05-153.81A16.7,16.7,0,0,1,27.7,221.68Z" transform="translate(0 -2.07)"/><path class="cls-3" d="M418.54,372.36v12.07c-1.07,3.62-3.47,5.72-6.61,7.63L188.5,521.1a33.37,33.37,0,0,1-15.45,3.9c-6.33.1-12.11-.87-17.69-3.93L18.18,441.73c-3.15-1.93-5.55-4-6.61-7.66V422c1.06,3.63,3.46,5.71,6.61,7.64L155.36,509c5.58,3.09,11.36,4,17.69,3.95A33.39,33.39,0,0,0,188.5,509L411.93,380C415.07,378.06,417.47,376,418.54,372.36Z" transform="translate(0 -2.07)"/><path class="cls-4" d="M18.18,410.45l223.43-129c9.14-5.28,24-5.28,33.13,0l137.19,79.35c9.12,5.3,9.12,13.9,0,19.18L188.5,509c-9.12,5.24-24,5.24-33.14,0L18.18,429.64C9.06,424.36,9.06,415.73,18.18,410.45Z" transform="translate(0 -2.07)"/><polygon class="cls-3" points="258.38 453.51 319.5 418.2 272.69 391.15 211.57 426.45 258.38 453.51"/><path class="cls-3" d="M46.14,414.94q101.62-58.63,203.13-117.33c4.86-2.78,12.81-2.78,17.68,0l69.23,40.05c4.85,2.81,4.85,7.41,0,10.22L133.07,465.23c-4.87,2.82-12.83,2.82-17.69,0l-69.24-40C41.27,422.35,41.3,417.76,46.14,414.94Z" transform="translate(0 -2.07)"/><path class="cls-1" d="M135.31,403.72l10-5.76a8.05,8.05,0,0,1,7.31,0l10,5.76c2,1.15,2,3,0,4.21l-10,5.77a8,8,0,0,1-7.28,0l-10-5.77C133.31,406.77,133.31,404.87,135.31,403.72Z" transform="translate(0 -2.07)"/><path class="cls-1" d="M96.08,426.36l-9.94,5.76c-2,1.17-2,3.06,0,4.22l10,5.76a8.11,8.11,0,0,0,7.31,0l10-5.76c2-1.16,2-3,0-4.22l-10-5.76A8.18,8.18,0,0,0,96.08,426.36Z" transform="translate(0 -2.07)"/><path class="cls-1" d="M120.68,440.56l-10,5.76c-2,1.19-2,3.06,0,4.23l10,5.76a8,8,0,0,0,7.27,0l10-5.73c2-1.17,2-3.07,0-4.23l-10-5.79A8.09,8.09,0,0,0,120.68,440.56Z" transform="translate(0 -2.07)"/><path class="cls-1" d="M103.42,413.7l10-5.8c2-1.13,2-3,0-4.18l-10-5.76a7.9,7.9,0,0,0-7.28,0l-10,5.75c-2,1.17-2,3.06,0,4.22l10,5.8A8.11,8.11,0,0,0,103.42,413.7Z" transform="translate(0 -2.07)"/><path class="cls-1" d="M128,399.5l10-5.77c2-1.16,2-3.06,0-4.22l-10-5.79a8.21,8.21,0,0,0-7.31,0l-10,5.79c-2,1.14-2,3,0,4.2l10,5.79A8,8,0,0,0,128,399.5Z" transform="translate(0 -2.07)"/><path class="cls-1" d="M88.81,422.14l-10,5.76a8.11,8.11,0,0,1-7.31,0l-10-5.79c-2-1.16-2-3.06,0-4.2l10-5.78a8,8,0,0,1,7.28,0l10,5.78C90.84,419.08,90.84,421,88.81,422.14Z" transform="translate(0 -2.07)"/><path class="cls-1" d="M110.72,417.91l10-5.76a8.15,8.15,0,0,1,7.3,0l10,5.76c2,1.17,2,3.07,0,4.23l-10,5.76a8,8,0,0,1-7.27,0l-10-5.76C108.72,421,108.72,419.08,110.72,417.91Z" transform="translate(0 -2.07)"/><path class="cls-1" d="M184.5,375.31l10-5.76a8,8,0,0,1,7.3,0l10,5.79c2,1.13,2,3,0,4.19l-10,5.76a8,8,0,0,1-7.3,0l-10-5.76C182.5,378.36,182.5,376.47,184.5,375.31Z" transform="translate(0 -2.07)"/><path class="cls-1" d="M209.09,389.53l10-5.78a8.09,8.09,0,0,1,7.3,0l10,5.78c2,1.18,2,3.07,0,4.23l-10,5.76a8.11,8.11,0,0,1-7.31,0l-10-5.79C207.06,392.6,207.06,390.67,209.09,389.53Z" transform="translate(0 -2.07)"/><path class="cls-1" d="M152.61,385.29l10-5.8c2-1.13,2-3,0-4.18l-10-5.76a8.05,8.05,0,0,0-7.31,0l-10,5.73c-2,1.17-2,3.06,0,4.21l10,5.8A8,8,0,0,0,152.61,385.29Z" transform="translate(0 -2.07)"/><path class="cls-1" d="M177.22,371.09l10-5.76c2-1.17,2-3.06,0-4.23l-10-5.76a8.11,8.11,0,0,0-7.31,0l-10,5.76c-2,1.15-2,3,0,4.2l10,5.79A8.11,8.11,0,0,0,177.22,371.09Z" transform="translate(0 -2.07)"/><path class="cls-1" d="M159.91,389.51l10-5.76a8.09,8.09,0,0,1,7.3,0l10,5.76c2,1.16,2,3.06,0,4.22l-10,5.77a8.09,8.09,0,0,1-7.3,0l-10-5.77C157.9,392.57,157.9,390.67,159.91,389.51Z" transform="translate(0 -2.07)"/><path class="cls-1" d="M135.28,432.14,194.45,398a8,8,0,0,1,7.3,0l10,5.78c2,1.16,2,3.06,0,4.22l-59.16,34.17a8.31,8.31,0,0,1-7.31,0l-10-5.79C133.28,435.18,133.28,433.29,135.28,432.14Z" transform="translate(0 -2.07)"/><path class="cls-1" d="M266.25,328l10-5.75a8.24,8.24,0,0,1,7.31,0l10,5.78c2,1.17,2,3.06,0,4.22l-10,5.77a8.11,8.11,0,0,1-7.31,0l-10-5.77C264.25,331.13,264.25,329.24,266.25,328Z" transform="translate(0 -2.07)"/><path class="cls-1" d="M290.85,342.28l10-5.76a8,8,0,0,1,7.28,0l10,5.78c2,1.17,2,3,0,4.2l-10,5.79a8.12,8.12,0,0,1-7.27,0l-10-5.76C288.81,345.33,288.81,343.43,290.85,342.28Z" transform="translate(0 -2.07)"/><path class="cls-1" d="M259,323.85l10-5.79c2-1.13,2-3.05,0-4.22l-10-5.76a8,8,0,0,0-7.28,0l-10,5.76c-2,1.17-2,3.06,0,4.22l10,5.79A8.22,8.22,0,0,0,259,323.85Z" transform="translate(0 -2.07)"/><path class="cls-1" d="M241.65,342.28l10-5.76a8.09,8.09,0,0,1,7.3,0l10,5.76c2,1.15,2,3.05,0,4.22l-10,5.76a8.09,8.09,0,0,1-7.3,0l-10-5.76C239.66,345.33,239.66,343.41,241.65,342.28Z" transform="translate(0 -2.07)"/><path class="cls-1" d="M266.25,356.48l10-5.76a8.11,8.11,0,0,1,7.31,0l10,5.78c2,1.17,2,3.07,0,4.2l-10,5.78a8,8,0,0,1-7.31,0l-10-5.78C264.22,359.54,264.25,357.64,266.25,356.48Z" transform="translate(0 -2.07)"/><path class="cls-1" d="M209.76,352.26l10-5.76c2-1.17,2-3.09,0-4.22l-10-5.79a8,8,0,0,0-7.27,0l-10,5.76c-2,1.16-2,3.05,0,4.22l10,5.79A8,8,0,0,0,209.76,352.26Z" transform="translate(0 -2.07)"/><path class="cls-1" d="M234.36,338.06l10-5.77c2-1.16,2-3.05,0-4.25l-10-5.75a8.14,8.14,0,0,0-7.31,0l-10,5.75c-2,1.17-2,3.06,0,4.22l10,5.8A8.18,8.18,0,0,0,234.36,338.06Z" transform="translate(0 -2.07)"/><path class="cls-1" d="M217.09,356.48l10-5.76a8,8,0,0,1,7.28,0l10,5.76c2,1.16,2,3.06,0,4.22l-10,5.76a8.11,8.11,0,0,1-7.31,0l-10-5.76C215.07,359.54,215.07,357.64,217.09,356.48Z" transform="translate(0 -2.07)"/><path class="cls-1" d="M241.65,370.68l10-5.76a8.09,8.09,0,0,1,7.3,0l10,5.79c2,1.16,2,3.06,0,4.2L259,380.69a8.15,8.15,0,0,1-7.33,0l-10-5.78C239.66,373.74,239.66,371.87,241.65,370.68Z" transform="translate(0 -2.07)"/><path class="cls-4" d="M173.25,525V512.93h-.2c-6.28.08-12.15-.86-17.69-3.95L18.18,429.64c-3.17-1.93-5.53-4-6.61-7.64v12.07c1.08,3.64,3.44,5.7,6.61,7.66l137.18,79.34c5.54,3.06,11.41,4,17.69,3.93Z" transform="translate(0 -2.07)"/><path class="cls-3" d="M100.69,220a16.1,16.1,0,1,0-16.11-16.1A16.09,16.09,0,0,0,100.69,220Z" transform="translate(0 -2.07)"/><path class="cls-2" d="M100.69,189.17a14.7,14.7,0,1,0,14.69,14.69,14.69,14.69,0,0,0-14.69-14.69Zm0,32.2a17.51,17.51,0,1,1,17.51-17.51A17.51,17.51,0,0,1,100.69,221.37Z" transform="translate(0 -2.07)"/><path class="cls-1" d="M169.78,333.21A79.81,79.81,0,1,0,90,253.4,79.83,79.83,0,0,0,169.78,333.21Z" transform="translate(0 -2.07)"/><path class="cls-2" d="M169.78,175a78.41,78.41,0,1,0,78.4,78.4,78.48,78.48,0,0,0-78.4-78.4Zm0,159.62A81.21,81.21,0,1,1,251,253.4,81.3,81.3,0,0,1,169.78,334.62Z" transform="translate(0 -2.07)"/><path class="cls-3" d="M204.75,217.85c16.23-2,29.14-1.15,37.86,1.84,5,1.71,8.7,4.17,10.95,7.25a13.66,13.66,0,0,1,2.35,11.42c-.76,3.8-2.9,8-6.5,12.4,0-2.2-.24-4.44-.46-6.67a20.19,20.19,0,0,0,2.76-6.59,9.73,9.73,0,0,0-1.55-8c-1.77-2.37-4.78-4.31-9-5.75-8.12-2.79-20.35-3.52-35.87-1.65-20.91,2.52-43.72,9.26-63.7,18.11s-37,19.69-46.37,30.55c-3.93,4.46-6.14,8.5-6.89,12a9.61,9.61,0,0,0,1.58,8c1.78,2.38,4.8,4.32,8.95,5.74a41.17,41.17,0,0,0,4.56,1.26c1.14,1.72,2.37,3.38,3.64,5a49.29,49.29,0,0,1-9.59-2.17c-5-1.7-8.71-4.16-11-7.25a14,14,0,0,1-2.34-11.42C85,277.69,87.59,273,92,268c9.86-11.34,27.44-22.6,47.87-31.66S183.45,220.41,204.75,217.85Z" transform="translate(0 -2.07)"/><path class="cls-2" d="M204.9,219.25c-20.46,2.47-43.39,9-64.49,18.33s-37.93,20.47-47.36,31.29c-4.15,4.75-6.68,9.24-7.51,13.34a12.43,12.43,0,0,0,2.1,10.3c2.13,2.88,5.57,5.15,10.33,6.77a44.86,44.86,0,0,0,5.86,1.54c-.44-.59-.83-1.18-1.23-1.78a41.71,41.71,0,0,1-4.16-1.18c-4.43-1.52-7.68-3.62-9.62-6.23A10.89,10.89,0,0,1,87,282.51c.78-3.85,3.21-8.11,7.16-12.68,9.27-10.64,25.89-21.61,46.84-30.9s43.75-15.77,64.1-18.22c15.28-1.85,27.92-1.24,36.54,1.72,4.43,1.52,7.68,3.62,9.62,6.23a10.94,10.94,0,0,1,1.83,9.12,21.58,21.58,0,0,1-2.74,6.63q.18,1.2.24,2.4a25,25,0,0,0,4-8.72,12.45,12.45,0,0,0-2.11-10.31c-2.12-2.87-5.57-5.15-10.32-6.77-8.83-3-21.7-3.64-37.23-1.76Zm-97.82,84.93a.9.9,0,0,1-.21,0,51,51,0,0,1-9.82-2.23c-5.26-1.8-9.18-4.42-11.67-7.75a15,15,0,0,1-2.58-12.54c.94-4.57,3.69-9.49,8.12-14.61,9.7-11.12,26.84-22.5,48.38-32,21.34-9.47,44.54-16,65.28-18.56h0c15.93-1.92,29.23-1.25,38.46,1.91,5.26,1.81,9.19,4.42,11.68,7.75a15,15,0,0,1,2.57,12.54c-.83,4.09-3.13,8.46-6.77,13a1.41,1.41,0,0,1-1.54.45,1.39,1.39,0,0,1-.95-1.29c-.09-2.09-.24-4.3-.48-6.55a1.47,1.47,0,0,1,.2-.89,19.68,19.68,0,0,0,2.61-6.14,8.39,8.39,0,0,0-1.34-6.88c-1.59-2.16-4.4-3.92-8.27-5.26-8.24-2.82-20.44-3.38-35.28-1.59-20.08,2.43-42.56,8.82-63.32,18-20.58,9.13-36.85,19.85-45.89,30.2-3.64,4.18-5.82,8-6.52,11.39A8.22,8.22,0,0,0,91.08,290c1.58,2.14,4.35,3.91,8.27,5.25a38,38,0,0,0,4.36,1.2,1.48,1.48,0,0,1,.87.59c1.15,1.68,2.34,3.33,3.61,4.91a1.45,1.45,0,0,1,.12,1.56A1.4,1.4,0,0,1,107.08,304.18Z" transform="translate(0 -2.07)"/><path class="cls-3" d="M168,169.24c3.91-6.64,7.8-10.83,11.41-12.7a8.92,8.92,0,0,1,8.62-.24c2.42,1.27,4.56,3.76,6.3,7.4A58.06,58.06,0,0,1,198.65,179c-1.54-.6-3.09-1.14-4.63-1.64a49.74,49.74,0,0,0-3.56-11.77c-1.34-2.79-2.86-4.63-4.43-5.46a4.89,4.89,0,0,0-4.68.25c-2.93,1.52-6.21,5.15-9.74,11.06-7.76,13-14.8,34.09-19.92,57.61s-8.31,49.54-8.31,72.34c0,18.82,2.14,32.39,5.74,39.87,1.35,2.78,2.86,4.62,4.43,5.46a4.89,4.89,0,0,0,4.68-.26c2.92-1.5,6.17-5.14,9.74-11.06.39-.69.83-1.42,1.23-2.17h.58c1.48,0,2.9,0,4.32-.12-.79,1.57-1.62,3.08-2.49,4.47-3.92,6.65-7.8,10.83-11.44,12.7a8.87,8.87,0,0,1-8.59.25c-2.42-1.27-4.56-3.77-6.3-7.41-3.88-8-6.22-22.27-6.22-41.73,0-23.09,3.25-49.39,8.44-73.25S159.94,182.7,168,169.24Z" transform="translate(0 -2.07)"/><path class="cls-2" d="M184,156.7a8.58,8.58,0,0,0-4,1.09c-3.49,1.8-7.17,5.9-10.9,12.16h0c-7.67,12.9-14.88,33.67-20.27,58.47s-8.39,50.71-8.39,73c0,18.44,2.14,33,6,41.12,1.63,3.37,3.54,5.65,5.71,6.77a7.41,7.41,0,0,0,7.28-.24c3.48-1.8,7.17-5.89,10.9-12.17.43-.73.87-1.48,1.3-2.26l-1.71,0c-.28.5-.58,1-.87,1.48-3.59,6-7,9.93-10.29,11.6a6.11,6.11,0,0,1-5.93.23c-1.87-1-3.57-3-5.07-6.08-3.85-8-5.86-22-5.86-40.48,0-22.17,2.92-48,8.3-72.64s12.56-45.3,20.13-58c3.55-6,7-9.9,10.28-11.58a6.18,6.18,0,0,1,5.95-.25c1.86,1,3.56,3,5.06,6.08a51.35,51.35,0,0,1,3.53,11.32c.51.17,1.07.36,1.57.55A51.55,51.55,0,0,0,193,164.31c-1.62-3.37-3.52-5.65-5.7-6.77a6.94,6.94,0,0,0-3.29-.84ZM155.53,352.91a9.65,9.65,0,0,1-4.58-1.16c-2.73-1.4-5-4.11-6.94-8-4.15-8.58-6.33-23.22-6.33-42.34,0-22.44,3-48.55,8.43-73.54s12.79-46.16,20.63-59.31h0c4-6.72,8-11.17,12-13.22a10.26,10.26,0,0,1,9.91-.25c2.73,1.42,5,4.13,6.92,8A58.5,58.5,0,0,1,200,178.75a1.43,1.43,0,0,1-1.9,1.54c-1.51-.58-3-1.12-4.55-1.61a1.38,1.38,0,0,1-1-1.08,48.76,48.76,0,0,0-3.45-11.42c-1.19-2.48-2.53-4.14-3.84-4.83a3.52,3.52,0,0,0-3.37.25c-2.73,1.42-5.89,5.06-9.14,10.54-7.44,12.48-14.46,32.78-19.77,57.19s-8.3,50.08-8.3,72c0,17.81,2,31.75,5.62,39.26,1.19,2.47,2.54,4.14,3.84,4.82a3.48,3.48,0,0,0,3.36-.25c2.69-1.41,5.9-5.06,9.15-10.54.39-.68.84-1.39,1.23-2.13a1.4,1.4,0,0,1,1.23-.72h.58c1.43,0,2.87-.05,4.25-.11a1.46,1.46,0,0,1,1.27.64,1.5,1.5,0,0,1,.07,1.41c-.83,1.59-1.7,3.11-2.53,4.53-4,6.73-8,11.18-12,13.22A11.48,11.48,0,0,1,155.53,352.91Z" transform="translate(0 -2.07)"/><path class="cls-4" d="M168.72,182.23c12.95-7.47,25.15-11,35.67-11a37.89,37.89,0,0,1,18.14,4.29,32.83,32.83,0,0,1,12.75,12.58c3.83,6.65,6,15.15,6,25.3,0,1.4,0,2.81-.12,4.22a83.92,83.92,0,0,0-4.28-7.44c-.4-8-2.21-14.65-5.3-19.94a27.93,27.93,0,0,0-11.09-10.93,33.28,33.28,0,0,0-16.08-3.79c-9.82,0-21.26,3.37-33.53,10.45h0c-18.8,10.87-35.91,28.38-48.27,47.89s-20,40.85-20,59.58c0,9.4,1.9,17.17,5.34,23.18l0,0a28.18,28.18,0,0,0,11.09,10.95,33.37,33.37,0,0,0,16.07,3.77,51.17,51.17,0,0,0,11.69-1.43,84.33,84.33,0,0,0,8.3,2,60.36,60.36,0,0,1-20,3.71,37.61,37.61,0,0,1-18.12-4.3,32.35,32.35,0,0,1-12.76-12.56h0c-3.83-6.66-6-15.16-6-25.31,0-19.55,7.88-41.77,20.62-61.88s30.33-38.07,49.77-49.31Z" transform="translate(0 -2.07)"/><path class="cls-2" d="M168.72,182.23h0Zm-63.15,135.9a30.84,30.84,0,0,0,12.15,11.94c8.6,4.68,19.76,5.38,32,2.05-.95-.25-1.95-.52-2.89-.81-10.85,2.48-20.72,1.61-28.39-2.55a29.85,29.85,0,0,1-11.65-11.47c-3.67-6.4-5.57-14.42-5.57-23.87,0-18.38,7.16-39.8,20.19-60.33s30.33-37.73,48.74-48.36c19.36-11.17,38.21-13.62,51-6.68a29.87,29.87,0,0,1,11.63,11.47c3.2,5.53,5,12.32,5.46,20.19.56.86,1.07,1.72,1.59,2.59-.12-9.22-2.06-17.13-5.78-23.51a30.85,30.85,0,0,0-12.2-12c-13.22-7.18-32.54-4.75-52.41,6.71l-.12.05c-18.57,10.76-36,28.07-49.18,48.79s-20.39,42.48-20.39,61.13c0,9.69,2,18,5.78,24.61a.11.11,0,0,0,0,.1ZM135.18,337a39,39,0,0,1-18.8-4.46,33.82,33.82,0,0,1-13.3-13.1s0-.06,0-.1c-4-7-6.09-15.78-6.09-25.92,0-19.18,7.39-41.43,20.81-62.63S149,192,168,181a.25.25,0,0,0,.09,0c20.74-11.94,41-14.35,55.11-6.71a33.94,33.94,0,0,1,13.31,13.11c4.08,7.08,6.13,15.84,6.13,26,0,1.42,0,2.86-.12,4.3a1.4,1.4,0,0,1-2.64.55,79.24,79.24,0,0,0-4.21-7.32,1.36,1.36,0,0,1-.2-.69c-.39-7.58-2.09-14.07-5.11-19.31a26.82,26.82,0,0,0-10.56-10.39c-11.89-6.46-29.78-4-48.23,6.64-18.06,10.41-35,27.26-47.78,47.43S104,275.56,104,293.42c0,8.94,1.74,16.5,5.2,22.47a26.74,26.74,0,0,0,10.57,10.4c7.12,3.88,16.42,4.64,26.75,2.22a1.26,1.26,0,0,1,.72,0,77,77,0,0,0,8.2,2,1.38,1.38,0,0,1,1.14,1.26,1.44,1.44,0,0,1-.95,1.45A61.94,61.94,0,0,1,135.18,337Z" transform="translate(0 -2.07)"/><path class="cls-3" d="M224.67,196.09a16.45,16.45,0,1,0-16.43-16.46A16.46,16.46,0,0,0,224.67,196.09Z" transform="translate(0 -2.07)"/><path class="cls-2" d="M224.67,164.58a15.05,15.05,0,1,0,15,15,15.08,15.08,0,0,0-15-15Zm0,32.91a17.86,17.86,0,1,1,17.85-17.86A17.9,17.9,0,0,1,224.67,197.49Z" transform="translate(0 -2.07)"/><path class="cls-4" d="M170.86,182.23c-12.94-7.47-25.14-11-35.68-11a37.84,37.84,0,0,0-18.12,4.29,32.46,32.46,0,0,0-12.76,12.58l0,.08a15.77,15.77,0,0,1,4.08,1.52,28.08,28.08,0,0,1,10.77-10.39,33.27,33.27,0,0,1,16.07-3.79c9.82,0,21.27,3.37,33.54,10.45h0c18.81,10.87,35.91,28.38,48.26,47.89s20,40.85,20,59.58c0,9.4-1.9,17.17-5.38,23.18v0a28.37,28.37,0,0,1-11.09,10.95,33.39,33.39,0,0,1-16.08,3.77,51,51,0,0,1-11.67-1.43,82.6,82.6,0,0,1-8.35,2,60.75,60.75,0,0,0,20,3.71,37.66,37.66,0,0,0,18.14-4.3,32.52,32.52,0,0,0,12.75-12.56h0c3.83-6.66,6-15.16,6-25.31,0-19.55-7.88-41.77-20.64-61.88s-30.32-38.07-49.76-49.31Z" transform="translate(0 -2.07)"/><path class="cls-2" d="M189.82,332.12c12.28,3.35,23.4,2.63,32-2.05a30.78,30.78,0,0,0,12.16-12,.14.14,0,0,0,0-.08c3.84-6.65,5.78-14.93,5.78-24.61,0-18.64-7.25-40.36-20.39-61.13s-30.61-38-49.21-48.79l-.08-.05C150.3,172,131,169.55,117.72,176.74a31,31,0,0,0-11.32,10.57c.47.17.95.34,1.43.55a29,29,0,0,1,10.61-9.81c12.78-6.94,31.64-4.49,51,6.68,18.4,10.63,35.71,27.81,48.74,48.36s20.19,42,20.19,60.33c0,9.44-1.91,17.47-5.59,23.87a29.8,29.8,0,0,1-11.63,11.47c-7.69,4.16-17.55,5.05-28.39,2.55-1,.29-1.95.56-2.94.81ZM204.39,337a62.12,62.12,0,0,1-20.47-3.79,1.45,1.45,0,0,1-.95-1.43,1.41,1.41,0,0,1,1.16-1.28,78.63,78.63,0,0,0,8.18-2,1.36,1.36,0,0,1,.72,0c10.34,2.42,19.63,1.66,26.77-2.22a26.85,26.85,0,0,0,10.56-10.4c3.45-6,5.19-13.52,5.19-22.47,0-17.86-7-38.74-19.75-58.83s-29.77-37-47.8-47.43c-18.44-10.65-36.34-13.1-48.21-6.64a26.67,26.67,0,0,0-10.27,9.88,1.39,1.39,0,0,1-1.86.51,13.68,13.68,0,0,0-3.71-1.38,1.33,1.33,0,0,1-1-.8,1.27,1.27,0,0,1,0-1.25,33.8,33.8,0,0,1,13.34-13.21c14.13-7.64,34.37-5.23,55.11,6.7a.21.21,0,0,0,.08.05c19,11,36.82,28.65,50.25,49.77s20.82,43.45,20.82,62.63c0,10.14-2,18.87-6.1,25.93,0,0,0,0,0,.09a33.91,33.91,0,0,1-13.31,13.1A39,39,0,0,1,204.39,337Z" transform="translate(0 -2.07)"/><path class="cls-4" d="M245.57,228.28a44.33,44.33,0,0,1,8,9.39h0a28.42,28.42,0,0,1,0,31.46h0c-4.28,6.92-11.49,13.37-21.66,18.82h0c-17.18,9.24-39.63,13.85-62.09,13.85S124.89,297.2,107.66,288h0c-10.13-5.45-17.34-11.9-21.65-18.82a28.64,28.64,0,0,1,0-31.47h0a44,44,0,0,1,8-9.39,80,80,0,0,0-2.46,9.27c-.55.75-1.06,1.5-1.54,2.27h0A24.47,24.47,0,0,0,90,267c3.92,6.3,10.58,12.21,20,17.28h0c16.47,8.83,38.1,13.24,59.78,13.24s43.32-4.41,59.79-13.24h0c9.43-5.07,16.08-11,20-17.28h0a24.61,24.61,0,0,0,0-27.17h0c-.47-.77-1-1.52-1.53-2.27A82.4,82.4,0,0,0,245.57,228.28Z" transform="translate(0 -2.07)"/><path class="cls-2" d="M253.53,269.14h0ZM87.28,238.33s0,.06-.09.08a27.18,27.18,0,0,0,0,30c4.33,7,11.45,13.12,21.15,18.33,16.44,8.83,38.25,13.68,61.44,13.68s45-4.85,61.46-13.68c9.66-5.2,16.75-11.33,21.06-18.24a.1.1,0,0,0,0-.1,27,27,0,0,0,0-30,36.67,36.67,0,0,0-3.88-5.19c.31,1.24.58,2.5.86,3.76a25.14,25.14,0,0,1,1.43,2.1s0,.07,0,.11a26.6,26.6,0,0,1,4.29,14.22,27.09,27.09,0,0,1-4.32,14.34c-4.2,6.73-11.09,12.69-20.52,17.76l-.1,0c-16.13,8.63-37.55,13.38-60.36,13.38s-44.26-4.76-60.37-13.38c0,0,0,0-.08,0-9.43-5.07-16.31-11-20.51-17.76a26,26,0,0,1,0-28.66c.44-.72.92-1.41,1.43-2.11.24-1.26.55-2.52.87-3.77a36.64,36.64,0,0,0-3.84,5.13Zm82.5,64.89c-23.63,0-45.92-5-62.75-14-10.17-5.46-17.62-11.95-22.21-19.33a29.81,29.81,0,0,1,0-32.87s0,0,0-.08a46.54,46.54,0,0,1,8.28-9.7,1.4,1.4,0,0,1,1.7-.13,1.45,1.45,0,0,1,.56,1.62,72.82,72.82,0,0,0-2.42,9.11,1.64,1.64,0,0,1-.24.56c-.55.71-1,1.44-1.51,2.17a23.2,23.2,0,0,0,0,25.69c3.93,6.28,10.42,11.91,19.37,16.73l.12,0c15.72,8.44,36.7,13.09,59.1,13.09s43.41-4.65,59.13-13.09L229,283c8.93-4.81,15.44-10.43,19.36-16.71a23.25,23.25,0,0,0,0-25.69s-.09-.07-.09-.11c-.43-.69-.91-1.38-1.42-2.08a1.38,1.38,0,0,1-.24-.54,76.4,76.4,0,0,0-2.41-9.11,1.4,1.4,0,0,1,2.26-1.48,45.57,45.57,0,0,1,8.23,9.69,30.68,30.68,0,0,1,5,16.47,31.06,31.06,0,0,1-4.91,16.39s0,.06,0,.09c-4.6,7.38-12.08,13.87-22.21,19.33C215.72,298.24,193.42,303.22,169.78,303.22Z" transform="translate(0 -2.07)"/><path class="cls-3" d="M186.34,317a18.24,18.24,0,1,0-18.25-18.23A18.22,18.22,0,0,0,186.34,317Z" transform="translate(0 -2.07)"/><path class="cls-2" d="M186.34,281.88a16.84,16.84,0,1,0,16.82,16.84,16.86,16.86,0,0,0-16.82-16.84Zm0,36.47A19.64,19.64,0,1,1,206,298.72,19.65,19.65,0,0,1,186.34,318.35Z" transform="translate(0 -2.07)"/></g></g></svg>