<svg xmlns="http://www.w3.org/2000/svg" viewBox="0 0 110.85 88.35"><defs><style>.cls-1{fill:#f4f6f9;}.cls-2{fill:#f6ae2d;}</style></defs><g id="Layer_2" data-name="Layer 2"><g id="Layer_1-2" data-name="Layer 1"><path class="cls-1" d="M106.8,67.62H90.09c-1.73,0-2.64-.65-2.66-1.89s.95-2,2.62-2h13.81c-.36-.49-.55-.79-.77-1-1.37-1.54-2.81-3-4.11-4.62a3.18,3.18,0,0,0-2.84-1.3c-2.14.09-4.28,0-6.42,0-1.41,0-2.28-.75-2.29-1.88s.87-1.89,2.26-1.91c2,0,4,0,6,0,.73,0,1-.24,1-1q0-17.73,0-35.45c0-.82-.28-1.14-1.07-1.06a4.28,4.28,0,0,1-.62,0H15.88c-1.74,0-1.74,0-1.74,1.72V53h4.13c1,0,2.06,0,3.09,0a2,2,0,0,1,2.07,1.86,1.93,1.93,0,0,1-2.11,1.92q-3.51.06-7,0a2.35,2.35,0,0,0-2,.89c-1.44,1.69-3,3.32-4.44,5-.24.26-.43.56-.84,1.09H21.14a2,2,0,0,1,2.27,1.78c.1,1.22-.77,2-2.23,2.06H7.1a12.33,12.33,0,0,0-1.72,0c-.51.07-1.33.2-1.42.49a1.77,1.77,0,0,0,.89,2.21,3.83,3.83,0,0,0,1.66.3c4.86,0,9.72,0,14.58.06a2.86,2.86,0,0,1,2,1,1.81,1.81,0,0,1-1.66,2.77c-5.35,0-10.7.12-16,0A5.55,5.55,0,0,1,.06,68.73a7.68,7.68,0,0,1,0-2.09,5.23,5.23,0,0,1,1-2.26C4,61.1,7,57.91,9.84,54.64a2.55,2.55,0,0,0,.43-1.58q0-21.31,0-42.62C10.29,4.09,14.36,0,20.7,0H90.25c6.23,0,10.33,4.15,10.33,10.41q0,21.38,0,42.74a3,3,0,0,0,.72,1.85c2.87,3.23,5.81,6.39,8.71,9.59a2.1,2.1,0,0,1,.59.92c.78,4.31-.28,8.94-6.13,9-4.86,0-9.72.05-14.58,0a3.32,3.32,0,0,1-2.1-.93,1.82,1.82,0,0,1-.1-1.78,2.81,2.81,0,0,1,1.88-1c3.37-.1,6.75,0,10.13,0h4.81C106.48,70.63,107.19,69.74,106.8,67.62ZM96.59,11.69c.65-4.65-1.8-7.83-6-7.83q-35.19,0-70.38,0A5.86,5.86,0,0,0,14.13,10c0,1.68,0,1.68,1.67,1.68H96.59Z"/><path class="cls-2" d="M26.17,78.38c0-.38,0-.78,0-1.19q0-14.52,0-29a2.55,2.55,0,0,0-.84-2.05c-2.73-2.62-2.47-8.26.76-10.2a108.36,108.36,0,0,1,10.72-5.23,6.75,6.75,0,0,1,2.67-.33c10.63,0,21.25-.08,31.87.05a15.17,15.17,0,0,1,5.53,1.45,52.71,52.71,0,0,1,7.75,4c3.13,2,3.37,7.68.74,10.35A2.79,2.79,0,0,0,84.67,48c0,9.76,0,19.51-.06,29.27a1.29,1.29,0,0,0,1.18,1.49A4.2,4.2,0,0,1,89,82.94q0,1.61,0,3.21c0,1.47-.72,2.14-2.21,2.2-.33,0-.66,0-1,0H24.68c-2.31,0-2.84-.53-2.85-2.81v-.86C21.83,80.52,22.31,79.82,26.17,78.38Zm23.18.21H51c.54,0,1.08,0,1.61,0a1.84,1.84,0,0,1,1.81,1.83,1.87,1.87,0,0,1-1.68,2,8.43,8.43,0,0,1-1.23,0c-8.16,0-16.31,0-24.46,0-1,0-1.45.27-1.36,1.33s.93.73,1.48.73q28.29,0,56.57,0c.44,0,.88,0,1.29-.06.36-1.86.25-2-1.43-2-1.44,0-2.88,0-4.32,0a2,2,0,0,1-2-1.94,2,2,0,0,1,2-1.88c.45,0,.89,0,1.42,0,0-.59.08-1,.09-1.47,0-8.77,0-17.54,0-26.31,0-1.78.09-3.35-2.18-3.86-.67-.15-1.1-.35-1.76,0a5.59,5.59,0,0,1-5.87,0,1.66,1.66,0,0,0-1.38,0,5.82,5.82,0,0,1-6.11,0,1.69,1.69,0,0,0-1.39,0,5.82,5.82,0,0,1-6.1-.06,1.49,1.49,0,0,0-1.27,0,5.56,5.56,0,0,1-6.08,0,1.26,1.26,0,0,0-1.54,0,5.28,5.28,0,0,1-5.84,0,1.34,1.34,0,0,0-1.65,0,4.59,4.59,0,0,1-4.6.48,4,4,0,0,0-4.15.05c-.68.34-.92.63-.92,1.34q0,14.33,0,28.65c0,.88.31,1.13,1.15,1.13,1.08,0,.91-.71.91-1.35,0-7.66,0-15.31,0-23,0-2.68,1.56-4.2,4.24-4.22s5.6,0,8.4,0c3.19,0,4.61,1.4,4.61,4.58q0,10.94,0,21.86Zm-3.82,0c0-1.76,0-3.39,0-5a5.31,5.31,0,0,0-.27-2.49c-.21-.36-1.37-.16-2.09-.23A1.83,1.83,0,0,1,41.37,69a1.88,1.88,0,0,1,1.68-2,6.19,6.19,0,0,1,1.36,0c.87.09,1.14-.27,1.14-1.12q-.06-5.45,0-10.87c0-.87-.28-1.16-1.13-1.14-2.35,0-4.7.06-7,0-1.12,0-1.49.29-1.49,1.45,0,7.28,0,14.57,0,21.86a1.75,1.75,0,0,0,0,.73c.15.27.44.65.67.65C39.52,78.59,42.43,78.57,45.53,78.57Zm10-39H44.3c-5,0-9.93,0-14.89,0-2,0-2,0-1.89,2.22,0,1.28.66,2.12,1.74,2.15a1.74,1.74,0,0,0,1.86-1.59,2.09,2.09,0,0,1,2.07-1.79c1.12,0,1.65.79,1.84,1.82a1.73,1.73,0,0,0,1.91,1.56,1.77,1.77,0,0,0,1.67-1.69,1.79,1.79,0,0,1,1.93-1.69,1.85,1.85,0,0,1,1.88,1.6c.23,1,.71,1.8,1.85,1.8s1.61-.83,1.8-1.83a1.94,1.94,0,0,1,3.82,0c.2,1,.65,1.8,1.83,1.77s1.59-.77,1.83-1.81a1.83,1.83,0,0,1,2.92-1.24,3.45,3.45,0,0,1,.85,1.54c.34.82.8,1.47,1.76,1.5a1.68,1.68,0,0,0,1.82-1.36c.27-1.16.75-2,2.06-2s1.65,1,1.91,2a.61.61,0,0,0,0,.12,1.64,1.64,0,0,0,1.78,1.21,1.62,1.62,0,0,0,1.68-1.5,1.89,1.89,0,0,1,1.93-1.86c1.13,0,1.74.71,2,1.79.31,1.26,1,1.74,2.09,1.55s1.29-.89,1.48-1.74a1.86,1.86,0,0,1,1.9-1.61,1.84,1.84,0,0,1,1.91,1.58c0,.2,0,.49.16.59.53.44,1.1,1.14,1.66,1.14a2.4,2.4,0,0,0,1.63-1.14,4.44,4.44,0,0,0,.25-1.93c.06-.92-.35-1.3-1.33-1.26-2.13.07-4.26,0-6.39,0Q65.57,39.57,55.49,39.55ZM35.42,35.69h40a7.57,7.57,0,0,0-4.8-1.62c-2,0-4,.08-6,.08q-12.28,0-24.56,0A7.06,7.06,0,0,0,35.42,35.69Z"/><path class="cls-2" d="M65.06,70.84h-9.5a3.92,3.92,0,0,1-4.24-4.24q0-6.1,0-12.22c0-2.73,1.55-4.31,4.27-4.31q9.45,0,18.89,0c2.76,0,4.26,1.51,4.28,4.28q0,6.24,0,12.47a3.9,3.9,0,0,1-4,4C71.56,70.86,68.31,70.84,65.06,70.84ZM65,67c2.89,0,5.77,0,8.65,0,.94,0,1.31-.23,1.29-1.23,0-3.58,0-7.17,0-10.75,0-.82-.22-1.17-1.11-1.17q-8.77,0-17.54,0c-.83,0-1.17.23-1.16,1.13,0,3.62.05,7.24,0,10.86,0,1,.37,1.17,1.24,1.15C59.26,67,62.14,67,65,67Z"/><path class="cls-1" d="M55.42,6a2,2,0,0,1,2.2,2,2,2,0,0,1-2.25,1.89,1.93,1.93,0,0,1-2.12-1.88A2,2,0,0,1,55.42,6Z"/></g></g></svg>