<svg xmlns="http://www.w3.org/2000/svg" viewBox="0 0 108.72 78.01"><defs><style>.cls-1{fill:#f4f6f9;stroke:#f4f6f9;}.cls-1,.cls-2{stroke-linecap:round;stroke-linejoin:round;}.cls-2{fill:#f6ae2d;stroke:#f6ae2d;}</style></defs><g id="Layer_2" data-name="Layer 2"><g id="Layer_1-2" data-name="Layer 1"><path class="cls-1" d="M107.79,29.36c-2-2.59-4-5.2-5.92-7.8-.94-1.23-1.87-2.46-2.82-3.68-.16-.21-7.93-10.53-10.9-14.49a2.08,2.08,0,0,0-1.63-.87c-1.86-.09-3.73-.17-5.59-.29Q67.57,1.39,54.19.51a1.89,1.89,0,0,0-2,1,1.93,1.93,0,0,0,.28,2.25c1.43,1.84,2.81,3.72,4.24,5.56a.85.85,0,0,1,.09,1.11c-.57,1-1.11,2-1.64,3-.24.45-2.68,4.89-2.92,5.47a1.39,1.39,0,0,1-1.52.91q-24,0-48,0c-.73,0-1.44.08-1.81.74a3.22,3.22,0,0,0-.36,1.53Q.49,48,.5,73.94c0,2.41,1.14,3.57,3.55,3.57H85.2c2.63,0,3.73-1.09,3.73-3.69V70.14c0-7.61,0-15.22,0-22.83a.81.81,0,0,1,.53-.91,4.72,4.72,0,0,0,2.37-2.31c2-3.85,4.12-7.69,6.2-11.53.12-.22.39-.51.59-.52.8,0,1.6.07,2.4.12a2.2,2.2,0,0,1,.07.28c.08,4,.18,7.9.23,11.85a.91.91,0,0,1-.43.63,3.4,3.4,0,0,0-2,3,7.17,7.17,0,0,1-.23,1.52c-.23,1-.5,2-.76,3,1.06.07,1.07.08,1.45,1.55,1.75,0,3.51,0,5.27,0,1.22,0,1.63-.75,1.28-1.94-.44-1.5-.83-3-1.12-4.55a2.82,2.82,0,0,0-1.17-2,1.21,1.21,0,0,1-.52-1.12c0-2.38-.1-4.76-.13-7.14,0-1.59,0-3.18,0-4.84,1.07.06,2.12.1,3.16.18a1.75,1.75,0,0,0,1.81-1A1.83,1.83,0,0,0,107.79,29.36ZM2.37,65.23V25.87l.74,0q23,0,46.09,0a1,1,0,0,1,1.11.8,14.63,14.63,0,0,0,4,5.85A51.52,51.52,0,0,0,81.91,47a19.88,19.88,0,0,0,2.55.28c.83,0,1.67,0,2.6,0v18Zm84.68,1.9v2.3h-34c-.72,0-1.3.07-1.45,1,0,.18-.52.4-.8.4-2.13,0-4.27,0-6.4,0-1.94,0-3.88,0-5.82,0-.43,0-.79,0-.87-.56-.1-.68-.57-.83-1.18-.83H2.37v-2.3ZM2.36,21.68H50.62L49.78,24H2.36Zm84.7,53a1,1,0,0,1-1,1,4.85,4.85,0,0,1-.66,0H4a2,2,0,0,1-1-.13,1.39,1.39,0,0,1-.67-.87c-.08-1.12,0-2.24,0-3.42l.78,0H35.36a1.12,1.12,0,0,1,1.11.52,2.11,2.11,0,0,0,1.91.89c4.25,0,8.49,0,12.74,0A2.1,2.1,0,0,0,53,71.74a1.11,1.11,0,0,1,1.09-.53h33C87.08,72.43,87.11,73.56,87.06,74.68ZM96,32.45C94.1,36,92.16,39.53,90.31,43.1a3.87,3.87,0,0,1-2.63,2,12,12,0,0,1-5.33.1A49.8,49.8,0,0,1,54.88,30.49a12.93,12.93,0,0,1-2.71-4,4.18,4.18,0,0,1,.22-4.13c.94-1.51,2.4-4.42,3.29-6.09l2.59-4.79c.2.24.36.42.5.61C60.18,14,61.6,15.8,63,17.66L72,29.6a2,2,0,0,0,1.7.86c.29,0,.59,0,.88,0l17.78,1.15,3.93.27C96.14,32.15,96.08,32.31,96,32.45Zm7,15.21c.22,1.47.56,2.92.87,4.44H100c.26-1.53.45-3.08.82-4.59a1.56,1.56,0,0,1,1.12-1C102.44,46.52,102.89,47,103,47.66Zm0-17.19a.88.88,0,0,1-.46-.18L81.26,15.53c-.22-.15-.49-.39-.7-.36a1.52,1.52,0,0,0-1,.5c-.29.45,0,.89.4,1.19l4,2.81L98.64,29.76l.62.48-5.18-.32L76.67,28.8c-.93-.06-1.86-.09-2.79-.17a.82.82,0,0,1-.51-.3Q63.8,15.73,54.25,3.12c-.16-.21-.31-.43-.54-.73a4,4,0,0,1,.56-.07L80.12,4c2,.13,4.07.23,6.1.36a.76.76,0,0,1,.53.27q9.48,12.48,18.94,25c.24.31.46.63.82,1.11C105.2,30.62,104.1,30.56,103,30.47Z"/><path class="cls-2" d="M51.74,40.14a1.76,1.76,0,0,0-.87-.07H24.22c-.25,0-.57-.07-.72.06s-.64.58-.65.9.37.62.66.81.53,0,.8,0H51c.24,0,.56.07.72-.05s.64-.58.66-.9S52,40.31,51.74,40.14Z"/><path class="cls-2" d="M51.74,55a1.89,1.89,0,0,0-.87-.07H24.22c-.23,0-.53-.06-.69,0a.81.81,0,0,0-.73.84.82.82,0,0,0,.75.91,1.22,1.22,0,0,0,.61,0h27a1.61,1.61,0,0,0,.44,0h0a.26.26,0,0,0,.12-.05c.28-.24.64-.58.66-.9S52,55.18,51.74,55Z"/><path class="cls-2" d="M23.61,50.08a2.26,2.26,0,0,0,.45,0H45.47c.27,0,.59.07.79-.06s.67-.51.68-.79-.31-.65-.57-.88-.47-.08-.71-.08H24.32a5.88,5.88,0,0,0-.73,0,.9.9,0,0,0,0,1.79Z"/><path class="cls-2" d="M8.83,42.86c.62.77,1.15.76,1.8,0l6.31-7.47c.7-.82.78-1.36.27-1.77s-.94-.25-1.64.58L9.81,41a1,1,0,0,1-.19-.11L7.88,38.73c-.48-.6-1-.72-1.45-.36s-.45.86,0,1.48Z"/><path class="cls-2" d="M17.28,48.55a.79.79,0,0,0-.62-.27h0a1.19,1.19,0,0,0-.82.49l-.14.16-.12.13c-.2.24-.4.47-.59.71-.6.7-1.2,1.41-1.79,2.12L12,53.24a10.2,10.2,0,0,0-.79.95l-1.4,1.65-.08,0c-.08,0-.13-.06-.15-.09L7.88,53.59l-.13-.14,0,0a.84.84,0,0,0-1.29-.19.84.84,0,0,0-.11,1.3v0l.12.17L7.78,56.4c.27.35.55.69.83,1l.22.29.07.08.06.08a1,1,0,0,0,.76.42H10a1.36,1.36,0,0,0,.52-.36c.37-.39.7-.82,1-1.23l4.12-4.87c.43-.52.87-1,1.3-1.54l0,0,.15-.19a1.19,1.19,0,0,0,.41-1A.79.79,0,0,0,17.28,48.55Z"/><path class="cls-2" d="M23.83,35.23c2.19,0,5.77,0,8.09,0a.76.76,0,0,0,.33,0c3.93,0,9.55,0,13.48,0a2,2,0,0,0,.65-.07.84.84,0,0,0,.38-1.41,1.61,1.61,0,0,0-1-.32c-4.07,0-9.45,0-13.52,0h-.06c-2.56,0-6,0-8.54,0a.82.82,0,0,0-.85.91C22.82,35,23.23,35.23,23.83,35.23Zm8.44-1.07h0a.25.25,0,0,1,0-.08h0Zm0-.71a3,3,0,0,1,0,.65,3,3,0,0,1,0-.67C32.31,33.43,32.39,33.44,32.25,33.45Zm-.07,1.14,0,.11A.13.13,0,0,1,32.18,34.59Z"/></g></g></svg>