<svg xmlns="http://www.w3.org/2000/svg" viewBox="0 0 473.99 478.47"><defs><style>.cls-1{fill:#9aceef;}.cls-1,.cls-3,.cls-4{stroke:#0072c8;stroke-linecap:round;stroke-linejoin:round;stroke-width:0.75px;}.cls-1,.cls-2,.cls-3,.cls-4{fill-rule:evenodd;}.cls-2{fill:none;}.cls-3{fill:#fff;}.cls-4{fill:#d9e8ff;}</style></defs><g id="Layer_2" data-name="Layer 2"><g id="Layer_1-2" data-name="Layer 1"><path class="cls-1" d="M277.93,408.72l-6.6-3.82c-3.07-2.6-3.23-4.21-3.71-8.14l.16-127c.64-9.41,4.83-16.42,12.57-21.8l175.17-101c3.54-1.66,5-2.31,8.86-.85l6.61,3.82c-3.87-1.44-5.32-.81-8.86.85L287,251.72c-7.58,5.28-11.77,12.17-12.58,21.81l-.16,127.05C274.71,404.53,274.87,406.14,277.93,408.72Z" transform="translate(-1.08 -1.01)"/><path class="cls-2" d="M460.84,147.09c-1.29,0-2.42.53-4.51,1.52l-175,100.94c-7.25,5-10.95,11.46-11.76,20.32V396.76c.32,3.55.49,4.55,3.06,6.67l.16.08a13.94,13.94,0,0,1-.32-2.75V273.53c.81-10.09,5.16-17.68,13.38-23.37l175.33-101.1c1-.45,1.77-.86,2.58-1.16l-.33-.23a8,8,0,0,0-2.57-.58ZM277.93,410.61a1.19,1.19,0,0,1-.81-.26l-6.76-3.82c-3.87-3.16-4.19-5.34-4.52-9.61V269.71c.81-10.09,5.16-17.68,13.38-23.36L454.55,145.24c4-1.87,6-2.66,10.48-1L472,148.2a1.84,1.84,0,0,1,.64,2.45,1.75,1.75,0,0,1-2.26,1c-3.22-1.18-4-.76-7.57.81L287.92,253.37c-7.25,5-10.95,11.47-11.6,20.31l-.16,126.9c.32,3.56.49,4.56,3.06,6.67a1.9,1.9,0,0,1,.32,2.53A1.87,1.87,0,0,1,277.93,410.61Z" transform="translate(-1.08 -1.01)"/><path class="cls-3" d="M287.92,261.33l173.24-100c3.06-1.8,5.64-.34,5.64,3.27V282.35a12.67,12.67,0,0,1-5.64,9.78l-173.4,100c-3.06,1.8-5.64.34-5.64-3.27V271.11A12.38,12.38,0,0,1,287.92,261.33Z" transform="translate(-1.08 -1.01)"/><path class="cls-2" d="M288.73,263a10.89,10.89,0,0,0-4.68,8.13V388.82c0,1,.17,1.77.65,2a2.27,2.27,0,0,0,2.09-.39l173.4-100a10.5,10.5,0,0,0,4.68-8.14V164.62c0-1-.17-1.77-.65-2a2.26,2.26,0,0,0-2.09.41L288.73,263Zm-3.55,131.77a5.19,5.19,0,0,1-2.41-.63c-1.62-.95-2.42-2.88-2.42-5.3V271.11A14.37,14.37,0,0,1,287,259.69h0l173.23-100a6,6,0,0,1,6-.39,5.9,5.9,0,0,1,2.58,5.3V282.35c0,4.25-3.06,9.28-6.77,11.42l-173.23,100A7.07,7.07,0,0,1,285.18,394.75Z" transform="translate(-1.08 -1.01)"/><path class="cls-4" d="M287.92,261.33a12.41,12.41,0,0,0-5.8,9.78V388.82c0,3.61,2.58,5.07,5.64,3.27l173.4-100a12.67,12.67,0,0,0,5.64-9.78V164.62c0-3.61-2.58-5.07-5.64-3.27l-173.24,100Zm-1-9.61,175.17-101c6.92-4,12.56-.71,12.56,7.29L474.53,285c0,8-5.64,17.8-12.57,21.8l-175,101c-6.93,4-12.74.72-12.74-7.27l.16-127c0-8,5.65-17.81,12.58-21.81Z" transform="translate(-1.08 -1.01)"/><path class="cls-2" d="M288.73,263a10.89,10.89,0,0,0-4.68,8.13V388.82c0,1,.17,1.77.65,2a2.27,2.27,0,0,0,2.09-.39l173.4-100a10.5,10.5,0,0,0,4.68-8.14V164.62c0-1-.17-1.77-.65-2a2.32,2.32,0,0,0-2.09.41L288.73,263Zm-3.55,131.77a5.19,5.19,0,0,1-2.41-.63c-1.62-.95-2.42-2.88-2.42-5.3V271.11A14.4,14.4,0,0,1,287,259.69h0l173.23-100a5.32,5.32,0,0,1,8.54,4.91V282.35c0,4.25-3.06,9.28-6.77,11.42l-173.23,100a7.07,7.07,0,0,1-3.55,1Zm2.74-141.38,175-101c2.74-1.58,5.32-1.89,7.09-.86s2.74,3.34,2.74,6.5V285c0,7.28-5.32,16.51-11.76,20.16l-175,101c-2.74,1.6-5.32,1.89-7.09.87s-2.74-3.31-2.74-6.49l.16-127c0-7.28,5.16-16.52,11.6-20.16Zm-6.61,158.09a7.82,7.82,0,0,1-4.19-1.11c-3.06-1.73-4.67-5.19-4.67-9.77v-127c0-8.62,6.13-19.14,13.54-23.45l175.17-101c3.87-2.29,7.73-2.58,10.64-.86s4.66,5.21,4.66,9.79V285c0,8.62-6,19.13-13.53,23.44l-175.17,101A13.19,13.19,0,0,1,281.31,411.46Z" transform="translate(-1.08 -1.01)"/><path class="cls-3" d="M375.91,347.85a.78.78,0,0,0-.8.1,3.83,3.83,0,0,0-1,.87,3.2,3.2,0,0,0-.32,1.17,1,1,0,0,0,.32.76,1,1,0,0,0,1-.08,3.89,3.89,0,0,0,.8-.88,3.18,3.18,0,0,0,.33-1.16A1,1,0,0,0,375.91,347.85Z" transform="translate(-1.08 -1.01)"/><path class="cls-2" d="M374.94,349.5a1.53,1.53,0,0,0,.65.17c0-.19-.16-.4-.48-.55a1,1,0,0,0-.81-.14c.16,0,.32.32.64.52Zm-.48,3.23a2.57,2.57,0,0,1-2.58-2.74,5.24,5.24,0,0,1,.65-2.14,5.08,5.08,0,0,1,1.61-1.56,2.62,2.62,0,0,1,4,2.34,5.07,5.07,0,0,1-.65,2.11,4.57,4.57,0,0,1-1.45,1.56A3.88,3.88,0,0,1,374.46,352.73Z" transform="translate(-1.08 -1.01)"/><polygon class="cls-3" points="309.89 273.04 438.16 198.97 438.16 287.4 309.89 361.44 309.89 273.04"/><path class="cls-2" d="M312.9,275.14v84l124.41-71.87v-84L312.9,275.14ZM311,364.35a2.06,2.06,0,0,1-1-.25,1.8,1.8,0,0,1-1-1.65v-88.4a1.8,1.8,0,0,1,1-1.65l128.28-74.06a2,2,0,0,1,1.93,0,2.15,2.15,0,0,1,1,1.64V288.4a2.08,2.08,0,0,1-1,1.63L311.93,364.1A2,2,0,0,1,311,364.35Z" transform="translate(-1.08 -1.01)"/><polygon class="cls-4" points="309.89 273.04 438.16 198.97 438.16 186.23 309.89 260.29 309.89 273.04"/><path class="cls-2" d="M312.9,262.4v8.36l124.41-71.87v-8.38L312.9,262.4ZM311,275.93a2,2,0,0,1-1-.26,1.76,1.76,0,0,1-1-1.62V261.3a1.8,1.8,0,0,1,1-1.65l128.28-74.06a2,2,0,0,1,1.93,0,2.14,2.14,0,0,1,1,1.65V200a2.12,2.12,0,0,1-1,1.64L311.93,275.67A1.93,1.93,0,0,1,311,275.93Z" transform="translate(-1.08 -1.01)"/><path class="cls-2" d="M355.61,294.36a1.79,1.79,0,0,1-1.61-.95,1.86,1.86,0,0,1,.64-2.59l50.11-28.94a1.86,1.86,0,0,1,2.59.68,1.75,1.75,0,0,1-.65,2.59l-50.12,29A1.91,1.91,0,0,1,355.61,294.36Z" transform="translate(-1.08 -1.01)"/><path class="cls-2" d="M355.61,274.85a1.79,1.79,0,0,1-1.61-1,1.84,1.84,0,0,1,.64-2.58l50.11-29a1.86,1.86,0,0,1,2.59.7,1.72,1.72,0,0,1-.65,2.57l-50.12,29A1.93,1.93,0,0,1,355.61,274.85Z" transform="translate(-1.08 -1.01)"/><path class="cls-2" d="M355.61,315.09a1.83,1.83,0,0,1-1.61-.93,1.86,1.86,0,0,1,.64-2.6l40.61-23.42a1.86,1.86,0,1,1,1.77,3.28l-40.45,23.41A1.93,1.93,0,0,1,355.61,315.09Z" transform="translate(-1.08 -1.01)"/><polygon class="cls-1" points="180.92 50.11 208.38 34.26 223.91 37.5 196.46 53.35 180.92 50.11"/><path class="cls-2" d="M221.15,39.12l-11.46-2.39L185.84,50.49l11.47,2.4,23.84-13.77ZM197.26,55.71l-15.54-3.24a1.41,1.41,0,0,1-1.08-1.14,1.38,1.38,0,0,1,.67-1.42l27.45-15.84a1.41,1.41,0,0,1,1-.16l15.52,3.24a1.39,1.39,0,0,1,.41,2.56L198.22,55.55a1.37,1.37,0,0,1-.68.19A1.27,1.27,0,0,1,197.26,55.71Z" transform="translate(-1.08 -1.01)"/><polygon class="cls-1" points="207.2 16.22 234.65 0.38 249.13 17.36 221.69 33.22 207.2 16.22"/><path class="cls-2" d="M248.08,18,235.42,3.16l-25,14.43,12.65,14.85,25-14.44ZM221.71,35.12l-14.48-17a1.42,1.42,0,0,1-.32-1.14,1.44,1.44,0,0,1,.68-1L235.05.19a1.36,1.36,0,0,1,1.73.3l14.49,17a1.41,1.41,0,0,1,.3,1.13,1.36,1.36,0,0,1-.67,1L223.45,35.41a1.32,1.32,0,0,1-.68.19A1.41,1.41,0,0,1,221.71,35.12Z" transform="translate(-1.08 -1.01)"/><polygon class="cls-1" points="221.69 33.22 249.13 17.36 257.37 18.18 229.92 34.03 221.69 33.22"/><path class="cls-2" d="M254,20.13l-3.51-.34L227.18,33.26l3.51.35L254,20.13ZM230.87,36.41l-8.24-.82a1.38,1.38,0,0,1-1.22-1.09,1.36,1.36,0,0,1,.66-1.48l27.45-15.85a1.38,1.38,0,0,1,.83-.18l8.24.83a1.37,1.37,0,0,1,.55,2.56L231.69,36.23a1.41,1.41,0,0,1-.69.2Z" transform="translate(-1.08 -1.01)"/><polygon class="cls-4" points="234.87 18.96 262.32 3.12 283.3 15.22 255.85 31.06 234.87 18.96"/><path class="cls-2" d="M281.6,16.22,263.4,5.71,238.72,20l18.21,10.51L281.6,16.22ZM256.25,33.27l-21-12.11a1.37,1.37,0,0,1,0-2.39L262.72,2.92a1.34,1.34,0,0,1,1.37,0l21,12.1a1.39,1.39,0,0,1,0,2.41L257.62,33.27a1.33,1.33,0,0,1-1.37,0Z" transform="translate(-1.08 -1.01)"/><polygon class="cls-1" points="255.85 31.06 283.3 15.22 288.26 36.01 260.81 51.86 255.85 31.06"/><path class="cls-2" d="M287.75,36.34l-4.29-18L258.52,32.75l4.28,18,24.95-14.4Zm-26.42,17.8a1.45,1.45,0,0,1-.79-1l-5-20.8a1.38,1.38,0,0,1,.66-1.51L283.69,15a1.43,1.43,0,0,1,1.23-.07,1.41,1.41,0,0,1,.8,1l5,20.78a1.35,1.35,0,0,1-.65,1.52L262.58,54.07a1.42,1.42,0,0,1-.7.17A1.52,1.52,0,0,1,261.33,54.14Z" transform="translate(-1.08 -1.01)"/><polygon class="cls-4" points="260.81 51.86 288.26 36.01 296.5 44.71 269.05 60.55 260.81 51.86"/><path class="cls-2" d="M295.36,45.4l-6.27-6.63-25,14.42,6.28,6.62,25-14.41ZM269.11,62.51l-8.23-8.7a1.36,1.36,0,0,1-.36-1.14,1.41,1.41,0,0,1,.67-1l27.45-15.85a1.4,1.4,0,0,1,1.7.25l8.24,8.7a1.38,1.38,0,0,1-.32,2.14L270.82,62.76a1.39,1.39,0,0,1-.7.19A1.42,1.42,0,0,1,269.11,62.51Z" transform="translate(-1.08 -1.01)"/><polygon class="cls-1" points="269.05 60.55 296.5 44.71 310.98 44.45 283.53 60.29 269.05 60.55"/><path class="cls-2" d="M284.23,59.92l22.48-13-8.76.15-22.49,13,8.77-.15Zm-15.45,2a1.39,1.39,0,0,1,.65-1.56l27.45-15.85a1.28,1.28,0,0,1,.66-.18L312,44.06h0a1.4,1.4,0,0,1,1.33,1,1.37,1.37,0,0,1-.65,1.56L285.3,62.49a1.34,1.34,0,0,1-.66.2L270.15,63h0A1.41,1.41,0,0,1,268.78,61.93Z" transform="translate(-1.08 -1.01)"/><polygon class="cls-4" points="283.53 60.29 310.98 44.45 325.79 70.08 298.32 85.93 283.53 60.29"/><path class="cls-2" d="M325,70.58,311.55,47.34,286.5,61.8l13.42,23.25L325,70.58Zm-25.92,17.7a1.4,1.4,0,0,1-.84-.65L283.41,62a1.39,1.39,0,0,1,.5-1.89l27.45-15.85a1.33,1.33,0,0,1,1.05-.13,1.31,1.31,0,0,1,.83.64L328.05,70.4a1.38,1.38,0,0,1-.5,1.89L300.1,88.14a1.34,1.34,0,0,1-.7.19A2.45,2.45,0,0,1,299.05,88.28Z" transform="translate(-1.08 -1.01)"/><polygon class="cls-1" points="298.32 85.93 325.79 70.08 318.3 82.49 321.72 93.97 294.27 109.81 290.86 98.34 298.32 85.93"/><path class="cls-2" d="M321.17,94.33l-3.11-10.44a1.35,1.35,0,0,1,.14-1.11l4.71-7.8-22.5,13-7,11.59,2.75,9.2,25-14.42ZM294.84,112.1a1.4,1.4,0,0,1-.82-.88l-3.41-11.48a1.44,1.44,0,0,1,.14-1.11l7.47-12.4a1.31,1.31,0,0,1,.5-.49l27.45-15.85A1.39,1.39,0,0,1,328,71.81l-7.16,11.88,3.24,10.9a1.38,1.38,0,0,1-.63,1.59L296.05,112a1.41,1.41,0,0,1-.7.19A1.14,1.14,0,0,1,294.84,112.1Z" transform="translate(-1.08 -1.01)"/><polygon class="cls-4" points="294.27 109.81 321.72 93.97 337.25 108.66 309.8 124.52 294.27 109.81"/><path class="cls-2" d="M336,109.4,322.59,96.7l-24.94,14.39,13.44,12.71L336,109.4Zm-26.09,17.13-15.54-14.7a1.41,1.41,0,0,1,.26-2.21l27.45-15.83a1.34,1.34,0,0,1,1.63.19l15.54,14.69a1.4,1.4,0,0,1,.43,1.16,1.38,1.38,0,0,1-.68,1l-27.46,15.84a1.33,1.33,0,0,1-.69.19A1.39,1.39,0,0,1,309.94,126.53Z" transform="translate(-1.08 -1.01)"/><path class="cls-1" d="M310.88,125.53l27.45-15.86V133.9l-17,9.8,5.52,15.53L299.4,175.07l-7.46-21,3.41-7.55,15.53-9Z" transform="translate(-1.08 -1.01)"/><path class="cls-2" d="M325.17,158.6,320,144.16a1.37,1.37,0,0,1,.61-1.66l16.3-9.41v-21l-24.68,14.24v11.21a1.35,1.35,0,0,1-.7,1.2l-15.15,8.76-3,6.63,6.72,18.94,25-14.45Zm-26.24,17.77a1.35,1.35,0,0,1-.82-.83l-7.48-21a1.41,1.41,0,0,1,.05-1l3.41-7.55a1.42,1.42,0,0,1,.57-.62l14.84-8.57v-11.2a1.41,1.41,0,0,1,.68-1.21l27.47-15.84a1.36,1.36,0,0,1,1.38,0,1.39,1.39,0,0,1,.69,1.19V133.9a1.37,1.37,0,0,1-.69,1.18l-16,9.24,5.12,14.44a1.41,1.41,0,0,1-.61,1.67L300.1,176.27a1.44,1.44,0,0,1-.7.19A1.31,1.31,0,0,1,298.93,176.37Z" transform="translate(-1.08 -1.01)"/><polygon class="cls-1" points="260.81 164.81 288.26 148.96 283.3 164.04 255.85 179.88 260.81 164.81"/><path class="cls-2" d="M283.23,164.11,286.89,153,263,166.75l-3.66,11.12,23.85-13.76ZM256.06,182a1.36,1.36,0,0,1-.44-1.51l4.95-15.07a1.37,1.37,0,0,1,.62-.76l27.45-15.85a1.38,1.38,0,0,1,2,1.63l-4.95,15.08a1.38,1.38,0,0,1-.64.75l-27.44,15.86a1.34,1.34,0,0,1-1.56-.13Z" transform="translate(-1.08 -1.01)"/><path class="cls-1" d="M255.81,116.65l27.45-15.85a7.3,7.3,0,0,1-5,.75c-6-1-11.43-7.23-14.22-12.4-2.59-4.82-4.76-12.17-2.44-17.42a7.18,7.18,0,0,1,2.91-3.38L237.07,84.19c-5.09,3.09-4.21,10.93-2.65,15.74,2.18,6.68,7.75,14.57,14.55,17a8.46,8.46,0,0,0,6.35,0Z" transform="translate(-1.08 -1.01)"/><path class="cls-2" d="M255.14,115.45l22-12.73c-6.26-1.54-11.58-7.82-14.32-12.92-2.62-4.83-4.64-11.65-3-17.13l-22,12.7c-4.1,2.5-3.67,9.17-2,14.13,2.06,6.32,7.43,13.89,13.69,16.1a7.12,7.12,0,0,0,5.25.08l.46-.23Zm-6.63,2.76c-7.44-2.63-13.2-11.1-15.41-17.85-2-6.21-2.23-14,3.29-17.37l27.44-15.84a1.38,1.38,0,0,1,1.87.48,1.36,1.36,0,0,1-.44,1.88,5.86,5.86,0,0,0-2.39,2.77c-2.1,4.78,0,11.71,2.39,16.21,2.79,5.16,8,10.78,13.25,11.7a6,6,0,0,0,4.11-.61A1.38,1.38,0,0,1,284,102L256.5,117.85l-.05,0-.54.28a8.46,8.46,0,0,1-3.52.75A11.88,11.88,0,0,1,248.51,118.21Z" transform="translate(-1.08 -1.01)"/><path class="cls-4" d="M237.07,105.84c-5.17-9-5.17-18.66,0-21.65S250.64,86.05,255.81,95s5.17,18.65,0,21.64-13.56-1.85-18.74-10.81Zm-36.13-4.34-7.46,12.41,14.8,25.65,14.49-.27L231,148l4.95,20.8q10.49,6,21,12.11l4.95-15.07,8.24.81,14.49,17,14.79-8.55-7.46-21,3.41-7.55,15.53,3.24v-24.2l-15.53-14.71-3.41-11.48,7.46-12.4Q292,74.12,284.61,61.3l-14.49.26-8.24-8.69-4.95-20.8Q246.46,26,236,20L231,35l-8.23-.82-14.49-17q-7.41,4.26-14.8,8.54l7.46,21-3.4,7.54L182,51.12V75.33L197.54,90l3.4,11.48Z" transform="translate(-1.08 -1.01)"/><path class="cls-2" d="M240.53,84.69a5.39,5.39,0,0,0-2.77.71c-4.42,2.55-4.19,11.6.51,19.75h0a25.51,25.51,0,0,0,8.86,9.37c3.1,1.79,5.94,2.12,8,.94s3.19-3.81,3.19-7.39a28,28,0,0,0-12.56-21.75,10.72,10.72,0,0,0-5.22-1.63Zm11.83,34.23a13.38,13.38,0,0,1-6.61-2,28.19,28.19,0,0,1-9.87-10.4h0c-5.65-9.76-5.43-20.1.51-23.53,2.94-1.69,6.75-1.36,10.74.93a30.67,30.67,0,0,1,13.95,24.15c0,4.61-1.63,8.08-4.58,9.78a8.14,8.14,0,0,1-4.14,1.07Zm45.36,55.53-12.81,7.39-13.74-16.1a1.3,1.3,0,0,0-.92-.49l-8.22-.81a1.37,1.37,0,0,0-1.46.94l-4.42,13.46-19-11-4.81-20.22A1.61,1.61,0,0,0,232,147l-8.24-8.7a1.28,1.28,0,0,0-1-.43l-13.67.26-14-24.23,7-11.71a1.35,1.35,0,0,0,.14-1.11l-3.41-11.48a1.31,1.31,0,0,0-.38-.61L183.39,74.73V52.82l13.87,2.89a1.36,1.36,0,0,0,1.54-.78l3.41-7.55a1.36,1.36,0,0,0,0-1l-7.09-20L208,19l13.74,16.12a1.32,1.32,0,0,0,.92.47l8.24.82a1.37,1.37,0,0,0,1.44-.95L236.74,22l19,11,4.81,20.21a1.4,1.4,0,0,0,.34.62l8.23,8.7a1.42,1.42,0,0,0,1,.44h0l13.67-.25,14,24.22-7.05,11.71a1.44,1.44,0,0,0-.14,1.11L294,111.22a1.29,1.29,0,0,0,.38.61l15.1,14.28V148l-13.86-2.88a1.35,1.35,0,0,0-1.55.77l-3.41,7.55a1.41,1.41,0,0,0-.05,1l7.09,19.95Zm-14.16,10.08L269.43,168l-6.58-.65-4.6,14a1.39,1.39,0,0,1-2,.77l-21-12.12a1.35,1.35,0,0,1-.66-.88l-4.87-20.42-7.56-8-13.88.25a1.18,1.18,0,0,1-1.21-.69L192.28,114.6a1.38,1.38,0,0,1,0-1.4l7.16-11.89-3.14-10.54L181.06,76.33a1.37,1.37,0,0,1-.45-1V51.12a1.37,1.37,0,0,1,.52-1.08,1.34,1.34,0,0,1,1.15-.28l14.45,3,2.73-6-7.29-20.51a1.39,1.39,0,0,1,.61-1.66L207.59,16a1.38,1.38,0,0,1,1.74.31l14.12,16.56,6.58.66,4.62-14a1.38,1.38,0,0,1,.81-.86,1.35,1.35,0,0,1,1.19.1l21,12.11a1.41,1.41,0,0,1,.66.87l4.87,20.44,7.56,8,13.87-.26h0a1.41,1.41,0,0,1,1.2.69L300.6,86.24a1.39,1.39,0,0,1,0,1.42l-7.17,11.89,3.15,10.53,15.25,14.43a1.45,1.45,0,0,1,.44,1v24.2a1.39,1.39,0,0,1-1.67,1.36l-14.45-3-2.72,6,7.28,20.5a1.38,1.38,0,0,1-.61,1.66l-14.8,8.55a1.5,1.5,0,0,1-.69.19A1.44,1.44,0,0,1,283.56,184.53Z" transform="translate(-1.08 -1.01)"/><path class="cls-3" d="M237.07,105.84c-5.17-9-5.17-18.66,0-21.65S250.64,86.05,255.81,95s5.17,18.65,0,21.64-13.56-1.85-18.74-10.81Zm-16.82,9.71c14.47,25.07,37.93,38.61,52.39,30.26s14.47-35.45,0-60.51-37.92-38.61-52.39-30.25-14.48,35.44,0,60.5Z" transform="translate(-1.08 -1.01)"/><path class="cls-2" d="M240.53,84.69a5.39,5.39,0,0,0-2.77.71c-4.42,2.55-4.19,11.6.51,19.75h0a25.51,25.51,0,0,0,8.86,9.37c3.1,1.79,5.94,2.12,8,.94s3.19-3.81,3.19-7.39a28,28,0,0,0-12.56-21.75,10.72,10.72,0,0,0-5.22-1.63Zm11.83,34.23a13.38,13.38,0,0,1-6.61-2,28.19,28.19,0,0,1-9.87-10.4h0c-5.65-9.76-5.43-20.1.51-23.53,2.94-1.69,6.75-1.36,10.74.93a30.67,30.67,0,0,1,13.95,24.15c0,4.61-1.63,8.08-4.58,9.78a8.14,8.14,0,0,1-4.14,1.07Zm-22.42-65c13.33,0,30.2,12.47,41.5,32.05,14.07,24.36,14.29,50.66.51,58.62s-36.45-5.39-50.51-29.75h0C214.56,103,210.77,90.22,210.77,79c0-10.91,3.62-19,10.16-22.79a17.68,17.68,0,0,1,9-2.31Zm-10.89,62.31h0C211.93,103.92,208,90.7,208,79c0-12,4.09-20.9,11.54-25.19,15.1-8.73,39.46,5.07,54.29,30.75s14.6,53.67-.5,62.41a20.38,20.38,0,0,1-10.22,2.61C248.71,149.62,230.85,136.7,219.05,116.25Z" transform="translate(-1.08 -1.01)"/><path class="cls-4" d="M237.07,105.84c5.18,9,13.57,13.8,18.74,10.81S261,104,255.81,95,242.25,81.2,237.07,84.19s-5.17,12.68,0,21.65Zm29.26-16.9c11,19,11,39.6,0,45.94s-28.8-3.94-39.78-23-11-39.62,0-46,28.8,4,39.78,23Z" transform="translate(-1.08 -1.01)"/><path class="cls-2" d="M240.53,84.69a5.39,5.39,0,0,0-2.77.71c-4.42,2.55-4.19,11.6.51,19.75h0a25.51,25.51,0,0,0,8.86,9.37c3.1,1.79,5.94,2.12,8,.94s3.19-3.81,3.19-7.39a28,28,0,0,0-12.56-21.75,10.72,10.72,0,0,0-5.22-1.63Zm11.83,34.23a13.38,13.38,0,0,1-6.61-2,28.19,28.19,0,0,1-9.87-10.4h0c-5.65-9.76-5.43-20.1.51-23.53,2.94-1.69,6.75-1.36,10.74.93a30.67,30.67,0,0,1,13.95,24.15c0,4.61-1.63,8.08-4.58,9.78a8.14,8.14,0,0,1-4.14,1.07Zm14-30h0Zm-32.4-23.49c10,0,22.68,9.42,31.22,24.18h0c5.19,9,8.05,18.6,8.05,27,0,8.17-2.69,14.21-7.55,17-10.31,6-27.31-4.12-37.9-22.46s-10.82-38.1-.51-44.06a13.27,13.27,0,0,1,6.69-1.71Zm-8.58,47.15c-11.35-19.66-11.12-41.12.5-47.83s30.34,3.81,41.68,23.47C273,97.66,276,107.75,276,116.66c0,9.21-3.16,16.09-8.93,19.42a15.63,15.63,0,0,1-7.9,2C248.05,138.11,234.37,128.24,225.35,112.6Z" transform="translate(-1.08 -1.01)"/><path class="cls-2" d="M310.88,151.12a1.45,1.45,0,0,0,.69-.18L339,135.09a1.39,1.39,0,0,0,.5-1.89,1.38,1.38,0,0,0-1.88-.51l-27.47,15.85a1.39,1.39,0,0,0,.7,2.58Z" transform="translate(-1.08 -1.01)"/><path class="cls-2" d="M291.94,100.73a1.45,1.45,0,0,0,.69-.18L320.07,84.7a1.38,1.38,0,0,0-1.37-2.4L291.24,98.14a1.39,1.39,0,0,0-.49,1.9A1.34,1.34,0,0,0,291.94,100.73Z" transform="translate(-1.08 -1.01)"/><path class="cls-1" d="M53.34,160.89c18-2.38,38.06-.62,57.14,4.49a159,159,0,0,1,20,6.71c1.32,2.09,2.56,4.19,3.71,6.37l.66,1.19a151.71,151.71,0,0,0-25.6-9.43,148.61,148.61,0,0,0-33.57-5,114.2,114.2,0,0,0-24.88,2A63.66,63.66,0,0,1,53.34,160.89Z" transform="translate(-1.08 -1.01)"/><path class="cls-2" d="M72.18,163.73c1.16,0,2.3,0,3.45,0a151.12,151.12,0,0,1,55.74,12.73c-.6-1.12-1.26-2.2-1.92-3.21a157.83,157.83,0,0,0-19.33-6.51c-19.22-5.14-38.52-6.7-55.79-4.57-.46,1-.91,2-1.31,3.09a114.53,114.53,0,0,1,19.16-1.56Zm62.62,17.36a1.73,1.73,0,0,1-.66-.12A146.88,146.88,0,0,0,75.6,166.69,109.15,109.15,0,0,0,51,168.63a1.44,1.44,0,0,1-1.35-.46,1.42,1.42,0,0,1-.29-1.44A59.49,59.49,0,0,1,52,160.27a1.37,1.37,0,0,1,1.12-.82C71,157.07,91,158.63,110.89,164A163.38,163.38,0,0,1,131,170.76a1.37,1.37,0,0,1,.7.58c1.28,2.1,2.55,4.24,3.74,6.41l.62,1.19a1.46,1.46,0,0,1-.24,1.69A1.44,1.44,0,0,1,134.8,181.09Z" transform="translate(-1.08 -1.01)"/><path class="cls-3" d="M87,246.75a28,28,0,1,0-19.8-34.31A28.09,28.09,0,0,0,87,246.75Z" transform="translate(-1.08 -1.01)"/><path class="cls-2" d="M94.24,193.1a26.56,26.56,0,0,0-6.88,52.21h0a26.55,26.55,0,1,0,6.88-52.21Zm0,56a30.43,30.43,0,0,1-7.66-1,29.59,29.59,0,1,1,7.66,1Z" transform="translate(-1.08 -1.01)"/><path class="cls-1" d="M120.69,304.63a32.53,32.53,0,0,1-20-1.39c-6.71-2.52-13.58-7.09-20.29-13.79a104.65,104.65,0,0,1-17.51-24,145.25,145.25,0,0,1-17-63.35,105,105,0,0,1,3.22-29.58c2.41-9.12,6.09-16.54,10.65-22.05a32.26,32.26,0,0,1,16.58-11.19,32.54,32.54,0,0,1,20,1.4c6.71,2.52,13.54,7.08,20.24,13.78a103.91,103.91,0,0,1,17.53,24,143.2,143.2,0,0,1,12.14,30.73,142.31,142.31,0,0,1,4.85,32.63A104.56,104.56,0,0,1,148,271.35c-2.47,9.17-6.13,16.58-10.66,22.09a32.39,32.39,0,0,1-16.61,11.19ZM46.1,236c6.21,23.24,17.57,45.13,32.58,60.11s30.77,20.27,44.19,16.7,24.48-16.08,29.94-36.57,4.41-45.1-1.84-68.34-17.57-45.12-32.56-60.1S87.61,127.53,74.2,131.1s-24.48,16.1-29.95,36.57S39.85,212.76,46.1,236Z" transform="translate(-1.08 -1.01)"/><path class="cls-2" d="M84,139.75a28.79,28.79,0,0,0-7.28.94,31,31,0,0,0-15.84,10.7c-4.52,5.56-8,12.78-10.36,21.55a100.84,100.84,0,0,0-3.14,29.13,144.32,144.32,0,0,0,16.79,62.7,101.17,101.17,0,0,0,17.29,23.66c6.37,6.37,13,10.93,19.74,13.44a30.78,30.78,0,0,0,19.08,1.37,31.11,31.11,0,0,0,15.85-10.71c4.57-5.55,8-12.78,10.36-21.55a102.18,102.18,0,0,0,3.17-29.13,143.3,143.3,0,0,0-4.81-32.29,140,140,0,0,0-12-30.41,101.53,101.53,0,0,0-17.27-23.66c-6.42-6.41-13-10.94-19.76-13.44a33.34,33.34,0,0,0-11.8-2.3Zm29,167.34a36.64,36.64,0,0,1-12.83-2.46c-7.08-2.72-14.11-7.45-20.77-14.15a105.39,105.39,0,0,1-17.79-24.31A144.27,144.27,0,0,1,49.39,235.1a141.94,141.94,0,0,1-4.89-32.94,105.41,105.41,0,0,1,3.21-30c2.46-9.14,6.12-16.74,10.93-22.62a32.4,32.4,0,0,1,38.22-10.25c7.08,2.67,14.08,7.45,20.79,14.16a105.41,105.41,0,0,1,17.8,24.3,142.34,142.34,0,0,1,12.22,31,142.75,142.75,0,0,1,4.9,33,104,104,0,0,1-3.21,30c-2.47,9.13-6.13,16.74-10.94,22.62A33.55,33.55,0,0,1,121.06,306a30.31,30.31,0,0,1-8,1.07ZM47.49,235.64h0c-6.41-24-7.06-48-1.84-67.58,5.18-19.31,15.43-31.94,28.92-35.52s28.67,2.15,42.83,16.29c14.31,14.33,25.74,35.43,32.16,59.45s7.13,48.06,1.85,67.59c-5.13,19.29-15.42,31.89-28.91,35.5s-28.69-2.13-42.79-16.28c-14.36-14.33-25.79-35.43-32.22-59.45Zm66.95,79.72c-12.11,0-24.85-6.25-36.83-18.21C63,282.5,51.24,260.9,44.7,236.38h0c-6.54-24.53-7.2-49-1.82-69.12,5.44-20.31,16.46-33.64,31-37.56s30.73,2.18,45.62,17c14.66,14.68,26.38,36.28,33,60.8s7.19,49,1.85,69.07c-5.47,20.37-16.46,33.69-31,37.61A35.39,35.39,0,0,1,114.44,315.36Z" transform="translate(-1.08 -1.01)"/><path class="cls-1" d="M32.07,280.89a32.35,32.35,0,0,0,18,8.77c7.07,1.15,15.3.65,24.43-1.81a103.63,103.63,0,0,0,27.19-12A144.51,144.51,0,0,0,148,229.46a103,103,0,0,0,12-27.18c2.48-9.18,3-17.41,1.82-24.44-1.2-7.37-4.21-13.46-8.77-18a32.17,32.17,0,0,0-18-8.81c-7.07-1.15-15.3-.65-24.47,1.82a104.25,104.25,0,0,0-27.19,12,144.51,144.51,0,0,0-46.37,46.37,104.25,104.25,0,0,0-12,27.19c-2.47,9.18-3,17.4-1.82,24.43a32.38,32.38,0,0,0,8.81,18ZM131,258.75c-17,17-37.8,30.28-58.25,35.8s-36.82,2.14-46.65-7.69-13.17-26.17-7.65-46.62S37.18,199,54.16,182,92,151.67,112.47,146.2s36.76-2.18,46.59,7.66,13.18,26.16,7.71,46.64S148,241.73,131,258.75Z" transform="translate(-1.08 -1.01)"/><path class="cls-2" d="M33.1,279.86a30.66,30.66,0,0,0,17.16,8.35c7.11,1.2,15.09.58,23.85-1.77a101.08,101.08,0,0,0,26.78-11.84,141.32,141.32,0,0,0,25.6-20.32,141.23,141.23,0,0,0,20.32-25.6,101.53,101.53,0,0,0,11.85-26.77c2.34-8.77,3-16.79,1.77-23.87a29.36,29.36,0,0,0-25.56-25.55c-7.07-1.15-15.09-.57-23.84,1.78a103.45,103.45,0,0,0-26.79,11.84A144.11,144.11,0,0,0,38.37,212,102.51,102.51,0,0,0,26.48,238.8c-2.34,8.77-2.93,16.79-1.78,23.87a30.7,30.7,0,0,0,8.4,17.19Zm24.48,11.85a47.05,47.05,0,0,1-7.78-.62c-7.61-1.23-13.95-4.31-18.76-9.17h0a33.59,33.59,0,0,1-9.21-18.8c-1.24-7.49-.62-15.87,1.84-25.05A105.36,105.36,0,0,1,35.85,210.5a146.47,146.47,0,0,1,46.86-46.86,105.38,105.38,0,0,1,27.57-12.17c9.16-2.48,17.6-3.08,25.05-1.85a32.13,32.13,0,0,1,28,28c1.25,7.49.63,15.92-1.8,25a105.25,105.25,0,0,1-12.22,27.56,141.5,141.5,0,0,1-20.75,26.14,142.46,142.46,0,0,1-26.11,20.73,104,104,0,0,1-27.57,12.18,67.13,67.13,0,0,1-17.27,2.46Zm73.39-33h0ZM131.09,145c11.11,0,20.41,3.32,26.94,9.86,9.88,9.88,12.47,25.92,7.29,45.22-5.23,19.58-17.81,40-35.38,57.64h0c-17.61,17.55-38,30.14-57.63,35.38C53.05,298.3,37,295.71,27.1,285.83s-12.46-25.92-7.28-45.2C25,221,37.63,200.58,55.24,183s38-30.14,57.58-35.36A71.13,71.13,0,0,1,131.09,145ZM54,298.62c-11.89,0-21.88-3.62-29-10.74-10.62-10.65-13.49-27.69-8-48,5.34-20.08,18.18-41,36.12-58.95s38.88-30.78,59-36.16c20.33-5.43,37.39-2.56,48,8.06s13.5,27.69,8.06,48c-5.38,20-18.21,41-36.15,58.92h0C114.06,277.73,93.12,290.56,73.09,296A74.62,74.62,0,0,1,54,298.62Z" transform="translate(-1.08 -1.01)"/><path class="cls-4" d="M156.6,175.74a18.18,18.18,0,1,0-12.87-22.29A18.2,18.2,0,0,0,156.6,175.74Z" transform="translate(-1.08 -1.01)"/><path class="cls-2" d="M157,174.34a16.73,16.73,0,0,0,18.8-24.55,16.7,16.7,0,0,0-22.83-6.09,16.7,16.7,0,0,0,4,30.64Zm4.32,3.46a19.59,19.59,0,0,1-5.1-.67h0a19.65,19.65,0,1,1,5.1.67Z" transform="translate(-1.08 -1.01)"/><path class="cls-4" d="M33.81,223.67A18.18,18.18,0,1,0,21,201.38,18.21,18.21,0,0,0,33.81,223.67Z" transform="translate(-1.08 -1.01)"/><path class="cls-2" d="M38.49,189.36A16.72,16.72,0,1,0,53,197.7a16.61,16.61,0,0,0-10.18-7.77,15.81,15.81,0,0,0-4.35-.57Zm0,36.36a19.66,19.66,0,0,1-9.83-36.66,19.64,19.64,0,1,1,9.83,36.66Z" transform="translate(-1.08 -1.01)"/><path class="cls-4" d="M106.78,294.34a18.63,18.63,0,1,0-13.17-22.79A18.59,18.59,0,0,0,106.78,294.34Z" transform="translate(-1.08 -1.01)"/><path class="cls-2" d="M111.6,259.18A17.18,17.18,0,0,0,95,271.92a17.2,17.2,0,0,0,12.12,21h0A17.16,17.16,0,1,0,116,259.8a16.11,16.11,0,0,0-4.43-.62Zm0,37.26a18.54,18.54,0,0,1-5.19-.7h0a19.77,19.77,0,0,1-12.21-9.33,20.1,20.1,0,1,1,17.4,10Z" transform="translate(-1.08 -1.01)"/><path class="cls-1" d="M81.6,273.29c-23.95-6.39-46.44-18.07-61.87-33.5s-20.86-31.67-17.16-45.5,16.54-25.17,37.61-30.81c1.89-.5,3.78-.94,5.75-1.35-.61,1.76-1.19,3.62-1.68,5.54-.13.39-.21.78-.32,1.2-8.82,2.51-16,6.13-21.44,10.57A31.81,31.81,0,0,0,12.4,217.09C15,224,19.68,231,26.6,238a106.25,106.25,0,0,0,24.68,18,149.72,149.72,0,0,0,65.16,17.48,106.41,106.41,0,0,0,30.45-3.28c9.42-2.51,17-6.3,22.7-11a33.09,33.09,0,0,0,11.49-17.07,33.5,33.5,0,0,0-1.4-20.57c-2.59-6.88-7.32-13.94-14.19-20.85a107.52,107.52,0,0,0-23.17-17.2c-1.22-2.68-2.5-5.31-3.86-7.86,13,6.17,24.72,14,33.9,23.24,15.42,15.43,20.85,31.68,17.15,45.46s-16.53,25.18-37.6,30.85S105.5,279.7,81.6,273.29Z" transform="translate(-1.08 -1.01)"/><path class="cls-2" d="M43.75,164.1c-1.07.25-2.13.49-3.21.78C20.73,170.19,7.72,180.8,4,194.67s2.27,29.54,16.79,44.1C35.49,253.5,57.24,265.26,82,271.89s49.4,7.31,69.57,1.88c19.83-5.29,32.82-15.87,36.57-29.78s-2.26-29.55-16.78-44.07a117.66,117.66,0,0,0-29.58-21c.57,1.15,1.15,2.39,1.69,3.58a107.3,107.3,0,0,1,23.08,17.19c6.87,6.92,11.75,14.12,14.52,21.4a33.08,33.08,0,0,1-10.54,39.25c-6,4.93-13.87,8.71-23.24,11.27a110,110,0,0,1-30.82,3.29,145.71,145.71,0,0,1-33.94-5,150.2,150.2,0,0,1-31.92-12.58,109.93,109.93,0,0,1-25-18.3C18.7,232.1,13.8,224.9,11.05,217.62c-2.8-7.45-3.29-14.64-1.49-21.43a34.85,34.85,0,0,1,12-17.86c5.56-4.56,12.67-8.14,21.14-10.66l.12-.41c.29-1.06.59-2.13.91-3.16Zm78.5,116.22a161.77,161.77,0,0,1-41.06-5.59c-25.21-6.8-47.38-18.81-62.49-33.9-15.3-15.31-21.51-32-17.52-46.91s17.72-26.25,38.63-31.84c1.89-.53,3.87-1,5.84-1.4a1.41,1.41,0,0,1,1.35.49,1.45,1.45,0,0,1,.3,1.45c-.58,1.73-1.15,3.54-1.65,5.44l-.29,1.14a1.46,1.46,0,0,1-1,1.06c-8.43,2.39-15.47,5.89-20.9,10.33-5.68,4.65-9.38,10.12-11,16.34a31.46,31.46,0,0,0,1.37,19.66c2.63,6.91,7.27,13.74,13.86,20.33A104.39,104.39,0,0,0,52,254.69,147.6,147.6,0,0,0,116.5,272a105.2,105.2,0,0,0,30-3.2c9-2.39,16.49-6,22.17-10.7a31.19,31.19,0,0,0,11-16.29c1.68-6.26,1.18-12.84-1.36-19.66s-7.29-13.74-13.86-20.38a105.78,105.78,0,0,0-22.88-16.93,1.56,1.56,0,0,1-.62-.67c-1.19-2.67-2.45-5.3-3.78-7.81a1.43,1.43,0,0,1,1.89-2c13.66,6.5,25.23,14.4,34.32,23.54,15.3,15.3,21.51,32,17.52,46.9S173.18,271,152.28,276.61A116.54,116.54,0,0,1,122.25,280.32Z" transform="translate(-1.08 -1.01)"/><path class="cls-1" d="M275,99.44c7.24,0,22.34,8.68,25.75,14.83,3.62,6.14,2.55,7.81,1.06,10.49-4.25,7.46-22.13,41.36-27,43.68-12.34,5.85-38.72-11.13-32.76-24.15l23.4-40.51C267.15,101.1,268,99.44,275,99.44Z" transform="translate(-1.08 -1.01)"/><path class="cls-2" d="M275,102c-5.53,0-6.17.83-7.23,3.08l-23.62,40.51c-2.12,4.83,2.34,10.19,4.47,12.28,7.23,7.32,19.15,11.22,25.11,8.36,3.4-1.93,17-26.47,22.12-35.7,1.71-3,3-5.51,3.83-7,1.28-2.25,1.71-3.09-1.06-8-3-5.34-17.45-13.57-23.62-13.57Zm-6.17,70.19c-8.08,0-17.66-4.81-23.83-10.79-6-6-7.66-12.57-5.1-18.12l23.4-40.71c2.13-3.49,3.83-5.6,11.7-5.6,8.09,0,23.83,9.18,27.88,16.09s3.19,9.51,1.06,13c-.85,1.43-2.13,3.87-3.83,6.87-12.55,23.09-20.21,36-24.26,37.84A16.66,16.66,0,0,1,268.85,172.14Z" transform="translate(-1.08 -1.01)"/><path class="cls-1" d="M172.47,272c10.21,0,22.34,7.09,27.44,15.81,2.56,4.36,2.77,8.32,1.07,11.17l-4.47,7.6L195,308.46l-2.13,1.47c-14,4.45-32.76-6.36-35.95-20.7l.21-2.7.85-2.33,4.26-7.59C164,273.76,167.57,272,172.47,272Z" transform="translate(-1.08 -1.01)"/><path class="cls-2" d="M159.49,289c1.49,6,6,11.73,12.55,15.47,6.39,3.73,13.83,4.92,19.79,3.17l1.49-1.06L194.6,305l4.25-7.25c1.28-2.17.85-5.26-1.06-8.66-4.47-7.89-16.17-14.56-25.32-14.56-3.83,0-6.81,1.19-8.09,3.39L159.49,287v2Zm26.38,24.45a33,33,0,0,1-16.38-4.66c-7.87-4.57-13.4-11.51-15.11-19v-.66l.22-2.68a1,1,0,0,1,.21-.77l.85-2.34,4.47-8c2.34-3.78,6.59-5.87,12.34-5.87,11.06,0,24,7.49,29.57,17,3,5,3.41,9.87,1.07,13.68l-4.26,7.59-1.91,2.26c-.22.19-.43.36-.64.51L194.17,312a3,3,0,0,1-.64.29A24.37,24.37,0,0,1,185.87,313.44Z" transform="translate(-1.08 -1.01)"/><path class="cls-4" d="M216.51,478.13a203.76,203.76,0,0,1-54.25-1.92c-25.32-4.57-50.86-13.91-69.37-32.27C78,427.72,78.21,418.21,78.21,397.85v-4.21c.64,13.72,5.53,23,14.68,33,18.51,18.36,44.05,27.7,69.37,32.27a203.76,203.76,0,0,0,54.25,1.92c26.81-2.88,45.75-8.77,69.15-22.26v17.3C262.26,469.36,243.32,475.25,216.51,478.13Z" transform="translate(-1.08 -1.01)"/><path class="cls-2" d="M81.19,414.8c1.06,9.77,4.26,17.18,13.62,27.43,15.53,15.56,38.3,26.17,67.87,31.54a203.44,203.44,0,0,0,53.62,1.87c26.38-2.83,44.68-8.62,66.81-21.22V442.87c-21.71,12-40.21,17.64-66.39,20.45a207.1,207.1,0,0,1-54.89-1.94c-30.64-5.53-54.26-16.61-70.64-33a73.42,73.42,0,0,1-10-13.6Zm114.89,66.79a202,202,0,0,1-34.25-2.91c-30.64-5.53-54.26-16.62-70.64-33-15.53-16.89-15.53-27.06-15.53-47.36v-4.7a2.64,2.64,0,0,1,2.55-2.5h0a2.55,2.55,0,0,1,2.56,2.39c.42,12.13,4.46,20.91,14,31.4,15.53,15.55,38.3,26.19,67.87,31.53a202.59,202.59,0,0,0,53.62,1.88c26.81-2.9,45.32-8.83,68.08-21.92a2.13,2.13,0,0,1,2.35,0,2.33,2.33,0,0,1,1.27,2.15v17.3a2.38,2.38,0,0,1-1.27,2.17c-23.19,13.49-42.13,19.6-70,22.58h0C209.7,481.27,202.89,481.59,196.08,481.59Z" transform="translate(-1.08 -1.01)"/><path class="cls-3" d="M279.92,441.87c-11.28,6.51-24.47,11.43-38.3,14.77a196.13,196.13,0,0,1-45.32,5.19h0a194.86,194.86,0,0,1-45.11-5.17l-.21,0A154.2,154.2,0,0,1,120.76,446l-15.32-8.75h0c-7.66-5.38-13.83-11.29-18.08-17.53h0c-6.17-8.34-9.15-17.23-9.15-26.12h0c0-8.88,3-17.77,8.94-26.11l.21,0c5.75-8,14.25-15.58,25.53-22.09l5.75-3.3,5.1,3,15.11,8.75,5.53,3.21-5.74,3.27c-2.13,1.22-4,2.49-6,3.79A49.43,49.43,0,0,0,121,375.59a29.87,29.87,0,0,0-6.17,18.05v0a30,30,0,0,0,6.17,18v0a4.27,4.27,0,0,0,.85,1.19,58.27,58.27,0,0,0,16.81,14A98.56,98.56,0,0,0,165,437.21a135.46,135.46,0,0,0,31.28,3.58v0a134.46,134.46,0,0,0,31.28-3.55A95.89,95.89,0,0,0,254,427l5.74-3.27,5.54,3.08,15.1,8.75,5.32,3.06Z" transform="translate(-1.08 -1.01)"/><path class="cls-2" d="M80.77,393.34v.3c0,8.51,2.76,16.78,8.51,24.65,4.25,6.13,10.42,11.84,17.66,16.94l15.1,8.64a144.44,144.44,0,0,0,29.58,10.34,194.18,194.18,0,0,0,44.46,5.13s.22,0,.22,0A192,192,0,0,0,241,454.19a139,139,0,0,0,37.66-14.49l1.92-1.13-20.86-12-4.47,2.55a101.56,101.56,0,0,1-27,10.51,136.3,136.3,0,0,1-31.7,3.64s-.21,0-.21,0a137.48,137.48,0,0,1-31.92-3.67,101,101,0,0,1-27-10.51,61,61,0,0,1-17.45-14.68l-.85-1.08c-.21-.07-.21-.13-.21-.22a32.68,32.68,0,0,1-6.6-19.48v-.35c0-6.68,2.34-13.12,6.6-19.16a51.47,51.47,0,0,1,12.55-12.07c1.92-1.36,3.83-2.66,6-3.94l1.92-1.1-20.64-12-4.47,2.58C103.32,353.78,95,361,89.28,369c0,.07-.22.13-.22.2-5.32,7.74-8.29,15.87-8.29,24.17Zm115.53,71a196.28,196.28,0,0,1-45.75-5.26A154.39,154.39,0,0,1,119.7,448.3l-15.32-8.85a75.77,75.77,0,0,1-19.15-18.22c-6.17-8.66-9.36-17.83-9.57-27.26v-.33c0-9.54,3.19-18.81,9.57-27.58,0-.07,0-.13.22-.21,6-8.49,14.89-16.11,26.16-22.6l5.75-3.3a2.24,2.24,0,0,1,2.34,0l26,14.92a2.8,2.8,0,0,1,1.27,2.17,2.83,2.83,0,0,1-1.27,2.15l-5.75,3.3a51.2,51.2,0,0,0-5.74,3.66,48.25,48.25,0,0,0-11.28,10.91,29.07,29.07,0,0,0-5.53,16.58c0,.1,0,.21-.21.31a30,30,0,0,0,5.74,16.13v.17l.85,1.13c3.84,5,9.37,9.49,16.17,13.43a97,97,0,0,0,25.75,10,133,133,0,0,0,30.42,3.49h.22a131.12,131.12,0,0,0,30.64-3.49,95.64,95.64,0,0,0,26-10l5.53-3.28a2.57,2.57,0,0,1,2.55,0l25.75,14.89a2.49,2.49,0,0,1,0,4.34l-5.54,3.3h0a146.79,146.79,0,0,1-38.93,15,199.8,199.8,0,0,1-45.75,5.28Z" transform="translate(-1.08 -1.01)"/><path class="cls-4" d="M122,446.59V395.27H104.38v41A111.22,111.22,0,0,0,122,446.59Z" transform="translate(-1.08 -1.01)"/><path class="cls-2" d="M106.94,435a103.07,103.07,0,0,0,12.55,7.57V397.78H106.94V435ZM122,449.08a2.06,2.06,0,0,1-1.06-.23,108.16,108.16,0,0,1-18.09-10.53,2.55,2.55,0,0,1-1.06-2v-41a2.62,2.62,0,0,1,2.55-2.51H122a2.44,2.44,0,0,1,2.34,2.51v51.32a2.67,2.67,0,0,1-1.06,2.11A2.43,2.43,0,0,1,122,449.08Z" transform="translate(-1.08 -1.01)"/><polygon class="cls-3" points="120.96 445.61 146.92 430.61 145.85 394.93 120.96 394.27 120.96 445.61"/><path class="cls-2" d="M124.38,397.85V442.3l21.07-12.11-1.07-31.81-20-.53ZM122,449.13a3,3,0,0,1-1.28-.34,2.39,2.39,0,0,1-1.27-2.18V395.27a2.58,2.58,0,0,1,.64-1.78c.63-.47,1.06-.88,1.91-.73l24.89.68a2.41,2.41,0,0,1,2.35,2.41l1.27,35.68a3,3,0,0,1-1.27,2.25l-26,15A2.92,2.92,0,0,1,122,449.13Z" transform="translate(-1.08 -1.01)"/><path class="cls-4" d="M183.75,290.74l-36-20.75c-8.3-5.74-3.83-18.85,0-26l54.25-94c4.26-6.88,13.41-17.24,22.56-13l36,20.75c-9.78-3.53-17.87,5.47-22.55,13l-54.25,94C179.49,272.55,175.87,284.1,183.75,290.74Z" transform="translate(-1.08 -1.01)"/><path class="cls-2" d="M220.13,138.5c-7.66,0-14.9,11.41-16,12.85l-54.25,93.94c-.86,1.66-8.73,17-.64,22.66l27.66,16c-1.07-5.58.42-12.51,4.68-20.34l54.25-94c4.69-7.59,10-12.42,15.32-14.23l-27.87-16.08a7.56,7.56,0,0,0-3.19-.73ZM183.75,293.25a2.64,2.64,0,0,1-1.28-.34l-36-20.75c-8.94-6.29-6.38-19.25-.85-29.31l54.25-94c6.18-9.79,16-18.55,25.75-14l36.17,20.83a2.42,2.42,0,0,1,.85,3.23,2.27,2.27,0,0,1-3,1.3c-8.72-3.15-15.95,6.13-19.57,11.93l-54.26,94c-3.19,5.93-7.66,16.91-.42,22.78a2.52,2.52,0,0,1-1.7,4.43Z" transform="translate(-1.08 -1.01)"/><path class="cls-4" d="M130.13,369.7l-7.24-4.15c60.64,32.72,150.86-106.92,106-160.71,8.94,5.13,11.91,8.17,15.75,19.9C265.24,289,184,398.85,130.13,369.7Z" transform="translate(-1.08 -1.01)"/><path class="cls-2" d="M238.85,217.18c13,33-4.25,82.54-32.34,116.94-17.66,21.52-37.23,34.58-55.32,37.9,16.17-.75,31.28-10.83,40.21-18.28,35.11-29.09,63.83-87.53,50.86-128.24a37.72,37.72,0,0,0-3.41-8.32ZM149.49,377.06a41.73,41.73,0,0,1-20.43-5.15s-.21,0-.21,0l-7.23-4.15a2.62,2.62,0,0,1-.86-3.38,2.5,2.5,0,0,1,3.41-1C150.55,377.68,182,356,202.68,331c31.07-38.13,48.73-95.11,24.26-124.49a2.34,2.34,0,0,1,0-3.21,2.47,2.47,0,0,1,3.19-.56c9.36,5.49,13,9.13,16.81,21.3,13.83,42.6-16,103.47-52.34,133.6C179.06,370.48,163.53,377.06,149.49,377.06Z" transform="translate(-1.08 -1.01)"/><path class="cls-3" d="M251.19,182.84c11.07,10.81,17.66,28.41,17.66,51.6,0,20.1-4.89,41.72-13.62,62.57-10.21,24.86-21.48,40.92-38.08,61.13C205.66,371,192.89,382,179.06,389.78a97.07,97.07,0,0,1-12.76,6.35c-26.81,11-53.62,4.72-66.39-15.6L125.23,366c12.34,11.3,31.92,11.94,53.83-.72,38.09-21.87,68.73-75,68.73-118.72,0-16.43-4.47-29.15-11.7-37.52Z" transform="translate(-1.08 -1.01)"/><path class="cls-2" d="M103.53,381.36c12.55,17.64,37,22.66,61.92,12.46A109.5,109.5,0,0,0,178,387.61c13-7.53,25.53-18,37.24-31.12,16.8-20.3,27.66-36,37.66-60.43,8.93-21.24,13.4-42.53,13.4-61.62,0-20.28-5.1-36.6-14.68-47.47l-12.55,21.77c7.23,9.08,11.27,22.1,11.27,37.79,0,44.42-31.49,98.65-70,120.87-21.49,12.43-41.49,13-55.53,1.62l-21.28,12.34Zm36.81,22.7c-17.87,0-33.4-7.75-42.56-22.21a3.06,3.06,0,0,1-.21-1.94,3.32,3.32,0,0,1,1.07-1.55L124,363.8a2.3,2.3,0,0,1,2.76.3c12.34,11,31.07,10.66,51.28-1,37-21.43,67.24-73.72,67.24-116.55,0-15.26-3.83-27.67-11.07-35.88a2.42,2.42,0,0,1-.21-2.89l15.11-26.17a1.87,1.87,0,0,1,1.7-1.21,2.51,2.51,0,0,1,2.13.68c12.13,11.74,18.51,30.21,18.51,53.38,0,19.75-4.68,41.7-13.83,63.51-10.22,25-21.49,41-38.51,61.79C206.94,373.33,194,384.14,180.34,392a100.08,100.08,0,0,1-13,6.49A70.68,70.68,0,0,1,140.34,404.06Z" transform="translate(-1.08 -1.01)"/><polygon class="cls-3" points="150.96 416.05 143.94 411.91 141.18 410.25 138.62 408.38 136.07 406.31 133.73 404.05 131.6 401.61 129.47 398.95 127.56 396.12 134.79 400.27 136.71 403.1 138.84 405.76 140.96 408.21 143.31 410.46 145.85 412.52 148.41 414.4 150.96 416.05"/><path class="cls-2" d="M152,419.55a2.63,2.63,0,0,1-1.27-.34L141,413.38l-5.32-4.13-4.89-5-4.05-5.76a2.19,2.19,0,0,1,.22-3.09,2.34,2.34,0,0,1,3-.47l7.24,4.15a4.55,4.55,0,0,1,.85.77l3.83,5.36,4.25,4.45,4.69,3.68,2.55,1.55a2.32,2.32,0,0,1,.85,3.43A2.39,2.39,0,0,1,152,419.55Z" transform="translate(-1.08 -1.01)"/><path class="cls-4" d="M166.09,390.44l-7.24-4.15c60.64,32.73,150.86-106.91,106-160.7,8.72,5.13,11.92,8.17,15.75,19.89C301.19,309.72,219.92,419.57,166.09,390.44Z" transform="translate(-1.08 -1.01)"/><path class="cls-2" d="M274.81,237.93c13,33-4.25,82.53-32.34,116.92-17.66,21.53-37.24,34.59-55.32,37.91,16.17-.74,31.28-10.83,40.21-18.27C262.47,345.4,291.2,287,278.21,246.25a36.68,36.68,0,0,0-3.4-8.32ZM185.45,397.81a43.21,43.21,0,0,1-20.64-5.15v-.05l-7.24-4.14a2.64,2.64,0,0,1-.85-3.39,2.51,2.51,0,0,1,3.41-1c26.59,14.34,57.87-7.34,78.3-32.42,31.27-38.11,48.93-95.09,24.47-124.48a2.34,2.34,0,0,1,0-3.21,2.51,2.51,0,0,1,3.19-.55c9.36,5.47,13,9.13,16.8,21.3,13.84,42.59-15.95,103.46-52.34,133.6C215,391.23,199.49,397.81,185.45,397.81Z" transform="translate(-1.08 -1.01)"/><polygon class="cls-3" points="134.79 400.27 127.56 396.12 152.88 381.56 160.11 385.71 134.79 400.27"/><path class="cls-2" d="M133.74,397.13l2.13,1.25,20.22-11.66L154,385.46l-20.22,11.67Zm2.13,6.63a2.72,2.72,0,0,1-1.27-.32l-7.24-4.15a2.74,2.74,0,0,1,0-4.34l25.32-14.55a2.57,2.57,0,0,1,2.55,0l7,4.15a2.49,2.49,0,0,1,0,4.34l-25.11,14.53A2.56,2.56,0,0,1,135.87,403.76Z" transform="translate(-1.08 -1.01)"/><polygon class="cls-3" points="270.75 228.75 263.74 224.58 278.84 198.43 285.86 202.58 270.75 228.75"/><path class="cls-2" d="M268.22,224.67l2.76,1.66,12.55-21.83-2.76-1.66-12.55,21.83Zm3.61,7.58a1.6,1.6,0,0,1-1.06-.32l-7.23-4.17a2.54,2.54,0,0,1-1.28-1.51,3.06,3.06,0,0,1,.42-1.9l15.11-26.17a2.19,2.19,0,0,1,1.49-1.17,2.54,2.54,0,0,1,1.91.26l7,4.15a2.53,2.53,0,0,1,1.06,3.42L274.17,231A3,3,0,0,1,271.83,232.25Z" transform="translate(-1.08 -1.01)"/><path class="cls-3" d="M286.94,203.59c11.27,10.81,17.87,28.4,17.87,51.59,0,20.11-4.89,41.73-13.61,62.58-10.22,24.85-21.5,40.92-38.09,61.13-11.49,12.89-24.47,23.81-38.09,31.64a97,97,0,0,1-12.76,6.34c-26.6,11-53.62,4.72-66.39-15.6l25.32-14.55C173.53,398,193.11,398.66,215,386c37.88-21.85,68.51-75,68.51-118.7,0-16.43-4.25-29.15-11.7-37.53Z" transform="translate(-1.08 -1.01)"/><path class="cls-2" d="M139.49,402.1c12.55,17.64,37.24,22.66,61.92,12.47A119.33,119.33,0,0,0,214,408.36c13-7.51,25.53-18,37.23-31.13,16.6-20.32,27.66-36,37.66-60.43,8.73-21.21,13.41-42.51,13.41-61.62,0-20.27-5.11-36.59-14.68-47.47L275,229.48c7.24,9.08,11.07,22.11,11.07,37.79,0,44.43-31.28,98.66-69.79,120.88-21.49,12.42-41.49,13-55.54,1.61L139.49,402.1Zm36.81,22.71c-17.87,0-33.41-7.75-42.56-22.22a3,3,0,0,1-.21-1.93,2.33,2.33,0,0,1,1.07-1.56l25.32-14.55a2.25,2.25,0,0,1,2.76.3c12.34,11,31.06,10.65,51.28-1,37-21.42,67.23-73.7,67.23-116.55,0-15.26-3.82-27.66-11.06-35.87a2.49,2.49,0,0,1-.43-2.9l15.11-26.17a2.54,2.54,0,0,1,1.92-1.21,2.57,2.57,0,0,1,2.12.68C301,213.54,307.36,232,307.36,255.18c0,19.75-4.89,41.71-13.83,63.51-10.21,25-21.49,41-38.51,61.8-12.12,13.61-25.1,24.42-38.72,32.21a103.37,103.37,0,0,1-13,6.49A72.3,72.3,0,0,1,176.3,424.81Z" transform="translate(-1.08 -1.01)"/><polygon class="cls-1" points="237.56 374.07 159.26 328.75 74.15 377.84 152.67 423.18 237.56 374.07"/><path class="cls-2" d="M80.12,378.85l73.63,42.45,80-46.22-73.41-42.42L80.12,378.85Zm73.63,47.85a2.88,2.88,0,0,1-1.28-.34L74,381a2.49,2.49,0,0,1,0-4.34l85.12-49.09a2.18,2.18,0,0,1,2.33,0l78.52,45.34a2.39,2.39,0,0,1,1.27,2.15,2.36,2.36,0,0,1-1.27,2.17L155,426.36A2.88,2.88,0,0,1,153.75,426.7Z" transform="translate(-1.08 -1.01)"/><polygon class="cls-1" points="152.67 423.18 74.15 377.84 74.15 385.82 152.67 431.16 152.67 423.18"/><path class="cls-2" d="M77.57,385.38l73.62,42.45v-2.19L77.57,383.19v2.19Zm76.18,49.28a2.64,2.64,0,0,1-1.28-.34L74,389a2.35,2.35,0,0,1-1.27-2.15v-8A2.38,2.38,0,0,1,74,376.68a2.69,2.69,0,0,1,2.56,0L155,422a2.88,2.88,0,0,1,1.28,2.17v8a2.87,2.87,0,0,1-1.28,2.15A2.63,2.63,0,0,1,153.75,434.66Z" transform="translate(-1.08 -1.01)"/><polygon class="cls-1" points="152.67 431.16 237.56 382.06 237.56 374.07 152.67 423.18 152.67 431.16"/><path class="cls-2" d="M156.3,425.64v2.19l80-46.21v-2.2l-80,46.22Zm-2.55,9a2.64,2.64,0,0,1-1.28-.34,2.38,2.38,0,0,1-1.28-2.15v-8a2.39,2.39,0,0,1,1.28-2.17l85.1-49.09a2.21,2.21,0,0,1,2.35,0,2.39,2.39,0,0,1,1.27,2.15v8a2.4,2.4,0,0,1-1.27,2.17L155,434.32A2.63,2.63,0,0,1,153.75,434.66Z" transform="translate(-1.08 -1.01)"/><path class="cls-3" d="M182.68,263.93l54.26-94c6.17-10.73,16.38-16.56,22.55-13,3.19,1.83,22.34,12.85,25.32,14.66,6.17,3.57,6.17,15.27,0,26l-54.26,94c-6.17,10.7-16.17,16.55-22.34,13l-25.53-14.66C176.51,286.32,176.51,274.63,182.68,263.93Z" transform="translate(-1.08 -1.01)"/><path class="cls-2" d="M184.81,265.16c-5.32,9.24-5.75,19.77-.85,22.58l25.32,14.64c4.89,2.81,13.83-2.86,19.15-12.07l54.26-94a29.79,29.79,0,0,0,4.25-14.4c0-3.94-1.28-6.92-3.41-8.15l-25.32-14.66c-4.89-2.81-13.82,2.85-19.14,12.06l-54.26,94Zm27.45,42.94a10.41,10.41,0,0,1-5.32-1.38L181.4,292.06c-7.44-4.34-7.87-17.26-.85-29.38h0l54.26-94c7-12.15,18.51-18.23,26-13.91l25.32,14.68c3.83,2.17,6,6.62,6,12.47a33.09,33.09,0,0,1-5.11,16.91l-54,94C227.36,302.31,219.07,308.1,212.26,308.1Z" transform="translate(-1.08 -1.01)"/><path class="cls-1" d="M292.05,194.89C282.69,189.52,274,183,261.2,200.4c-6.18,8.25-12.56,25.87-2.56,32.76l8.51,4.9C252,225.61,273.75,188,292.05,194.89Z" transform="translate(-1.08 -1.01)"/><path class="cls-2" d="M277.58,191.56c-4.26,0-8.73,2.6-14.26,10.3-4.47,5.83-8.3,15.77-7.23,22.75a8.7,8.7,0,0,0,4,6.51h0c-1.7-7.19.64-16,4.68-23.15,4-7,10.21-13.3,17.23-15.55a13.07,13.07,0,0,0-4.46-.86Zm-10.43,49a3,3,0,0,1-1.28-.34l-8.51-4.9a15,15,0,0,1-6.17-9.89c-1.48-8.83,3.19-19.94,8.09-26.53,13.4-18.28,23.41-12.35,32.34-7.11l1.7.91a2.74,2.74,0,0,1,1.07,3.24,2.64,2.64,0,0,1-3.19,1.25c-8.09-3-17.24,4.75-22.14,13.26s-7,20.17-.42,25.66a2.54,2.54,0,0,1-1.49,4.45Z" transform="translate(-1.08 -1.01)"/><path class="cls-1" d="M279.49,236.82c9.79-5.61,17.66-19.3,17.66-30.53s-7.87-15.81-17.66-10.19-17.66,19.3-17.66,30.55S269.7,242.44,279.49,236.82Z" transform="translate(-1.08 -1.01)"/><path class="cls-2" d="M287.36,196.2a13.51,13.51,0,0,0-6.59,2.07c-8.94,5.21-16.38,18-16.38,28.38,0,4.49,1.48,7.79,3.83,9.24,2.55,1.44,6.17,1,10-1.24,9.15-5.21,16.39-17.94,16.39-28.36,0-4.51-1.28-7.79-3.83-9.23a6.83,6.83,0,0,0-3.41-.86Zm-7.87,40.62h0Zm-7.87,4.92a11.17,11.17,0,0,1-5.75-1.51c-4.25-2.41-6.38-7.22-6.38-13.58,0-12.23,8.3-26.59,18.72-32.7,5.54-3.19,10.86-3.62,15.11-1.24,4,2.39,6.38,7.22,6.38,13.58,0,12.23-8.29,26.6-18.93,32.7h0A18.24,18.24,0,0,1,271.62,241.74Z" transform="translate(-1.08 -1.01)"/></g></g></svg>