<svg xmlns="http://www.w3.org/2000/svg" viewBox="0 0 358.64 470.74"><defs><style>.cls-1{fill:#fff;}.cls-1,.cls-3,.cls-4{stroke:#0072c8;stroke-linecap:round;stroke-linejoin:round;stroke-width:0.75px;}.cls-1,.cls-2,.cls-3,.cls-4{fill-rule:evenodd;}.cls-2{fill:none;}.cls-3{fill:#9aceef;}.cls-4{fill:#d9e8ff;}</style></defs><g id="Layer_2" data-name="Layer 2"><g id="Layer_1-2" data-name="Layer 1"><path class="cls-1" d="M228.84,389.35c0-13.85-19.63-25.07-43.82-25.07s-43.84,11.22-43.84,25.07,19.63,25.06,43.84,25.06S228.84,403.19,228.84,389.35Z" transform="translate(-2.49 -2.45)"/><path class="cls-2" d="M185,365.62c-23.43,0-42.49,10.65-42.49,23.73s19.06,23.72,42.49,23.72,42.48-10.64,42.48-23.72S208.43,365.62,185,365.62Zm-45.19,23.73c0-14.57,20.28-26.41,45.19-26.41s45.16,11.84,45.16,26.41S209.92,415.76,185,415.76,139.83,403.92,139.83,389.35Z" transform="translate(-2.49 -2.45)"/><path class="cls-3" d="M185,383.15a69.3,69.3,0,0,0-23.62,4c-8.09,3-17.84,8.88-19.85,17.93a14.25,14.25,0,0,0-.36,3.19V389.35c.13-10.84,11.15-17.8,20.21-21.12,16.38-6,39.33-5.36,54.62,3.38,6.54,3.75,12.74,9.69,12.83,17.74v18.88l0,.65a15,15,0,0,0-.33-3.84c-1.94-8.76-11.18-14.59-19-17.6a68.61,68.61,0,0,0-23.38-4.28Z" transform="translate(-2.49 -2.45)"/><path class="cls-2" d="M184.94,365.63a68.22,68.22,0,0,0-23.1,3.86c-4.49,1.64-19.17,8-19.31,19.86v9.79c4.63-7.51,14-11.69,18.39-13.3a71,71,0,0,1,24.08-4h0l1.14,0A69.37,69.37,0,0,1,210,386.18c4.19,1.62,13,5.73,17.5,13v-9.79c-.09-8.41-7.66-14-12.16-16.58-8.23-4.7-19.27-7.15-30.4-7.15Zm43.87,44.59a1.35,1.35,0,0,1-1.33-1.34,14,14,0,0,0-.3-3.56c-2.12-9.5-13.39-14.79-18.15-16.63a66.9,66.9,0,0,0-22.9-4.18H185a67.66,67.66,0,0,0-23.17,3.87c-5,1.83-16.81,7.14-19,16.95a14.32,14.32,0,0,0-.31,2.93,1.35,1.35,0,0,1-1.35,1.31h0a1.34,1.34,0,0,1-1.34-1.33V389.34C140,375.7,156,368.76,160.92,367c17.53-6.44,41-5,55.75,3.49,8.64,4.94,13.43,11.65,13.51,18.9v19.54a1.34,1.34,0,0,1-1.35,1.33Z" transform="translate(-2.49 -2.45)"/><path class="cls-3" d="M248.26,390.28v18.89c-.4,6-2.64,10.35-6.22,14.75-6.2,7.13-14.19,11.51-22.92,14.8a104,104,0,0,1-45.2,5.15,102.5,102.5,0,0,1-17-3.22V421.77a102.5,102.5,0,0,0,17,3.22,104,104,0,0,0,45.2-5.15c8.46-3.19,16-7.31,22.23-14C245.37,401.22,247.85,396.56,248.26,390.28Z" transform="translate(-2.49 -2.45)"/><path class="cls-2" d="M246.92,400.14a33.86,33.86,0,0,1-4.57,6.6c-5.66,6.14-12.68,10.57-22.78,14.36a105.22,105.22,0,0,1-45.8,5.23,108.1,108.1,0,0,1-15.53-2.79v16.09a104.06,104.06,0,0,0,60.41-2.17c10-3.76,17.09-8.34,22.35-14.39,3.81-4.67,5.58-8.85,5.92-13.9v-9Zm-73.15,45.05a102.1,102.1,0,0,1-17.24-3.25,1.33,1.33,0,0,1-1-1.29V421.77a1.34,1.34,0,0,1,1.71-1.29,104,104,0,0,0,61.39-1.9c9.66-3.64,16.36-7.85,21.68-13.64,4.26-4.89,6.22-9.3,6.59-14.74a1.35,1.35,0,0,1,2.69.08v19c-.38,5.74-2.32,10.38-6.54,15.54-5.59,6.43-13.05,11.25-23.49,15.18a101.65,101.65,0,0,1-34.37,5.78Q179.56,445.76,173.77,445.19Z" transform="translate(-2.49 -2.45)"/><path class="cls-3" d="M128.34,405.46v18.88c-3.78-4.43-6.48-9.63-6.6-15.56V389.89C122,396,124.42,400.88,128.34,405.46Z" transform="translate(-2.49 -2.45)"/><path class="cls-2" d="M127,406a31.94,31.94,0,0,1-3.91-5.8v8.59A21.61,21.61,0,0,0,127,420.35V406Zm.32,19.25c-4.48-5.23-6.8-10.75-6.92-16.42V389.89a1.36,1.36,0,0,1,1.32-1.35h0a1.36,1.36,0,0,1,1.35,1.3c.21,5.29,2.2,10,6.28,14.75a1.37,1.37,0,0,1,.32.87v18.88a1.36,1.36,0,0,1-.88,1.26,1.09,1.09,0,0,1-.47.08A1.34,1.34,0,0,1,127.32,425.2Z" transform="translate(-2.49 -2.45)"/><path class="cls-3" d="M156.89,421.77v18.88a16.75,16.75,0,0,1-2.89,2.07l-46.57,26.64a28.66,28.66,0,0,1-11.65,3.34,34.87,34.87,0,0,1-13.5-1.51c-4.5-1.61-9.47-4.41-10.13-9.62V442.69c.66,5.22,5.63,8,10.13,9.61a34.69,34.69,0,0,0,13.5,1.53,29,29,0,0,0,11.65-3.34L154,423.85A16.8,16.8,0,0,0,156.89,421.77Z" transform="translate(-2.49 -2.45)"/><path class="cls-2" d="M155.55,440V424.47c-.28.19-.57.37-.88.55l-46.6,26.65a30.29,30.29,0,0,1-12.2,3.49,36.25,36.25,0,0,1-14-1.59,20.13,20.13,0,0,1-8.34-5V461.4c.46,3.63,3.57,6.5,9.21,8.5a33,33,0,0,0,13,1.46,27,27,0,0,0,11.11-3.16l46.55-26.63a15.87,15.87,0,0,0,2.24-1.53ZM81.83,472.45c-6.72-2.39-10.42-6-11-10.88V442.69a1.35,1.35,0,0,1,1.26-1.35,1.29,1.29,0,0,1,1.41,1.18c.46,3.63,3.57,6.51,9.21,8.51a33.54,33.54,0,0,0,13,1.46,27.14,27.14,0,0,0,11.11-3.17l46.55-26.63a15.69,15.69,0,0,0,2.69-1.92,1.35,1.35,0,0,1,2.24,1v18.88a1.34,1.34,0,0,1-.46,1,18,18,0,0,1-3.11,2.23l-46.6,26.65a30,30,0,0,1-12.2,3.5c-1.08.07-2.09.12-3.1.12A35.1,35.1,0,0,1,81.83,472.45Z" transform="translate(-2.49 -2.45)"/><path class="cls-4" d="M216,407.09c-7.94,4.52-18.89,7.32-31,7.32s-23.07-2.8-31-7.32-12.84-10.82-12.84-17.74,4.91-13.2,12.84-17.74,18.89-7.33,31-7.33,23.06,2.79,31,7.33,12.83,10.81,12.83,17.74-4.91,13.19-12.83,17.74Zm32.27-17.74c0-10-7.09-19-18.53-25.6s-27.27-10.6-44.74-10.6-33.29,4.06-44.73,10.6-18.54,15.61-18.54,25.6c0,5.78,2.37,11.26,6.6,16.11a23.79,23.79,0,0,0-3.61,1.65L78.17,433.75c-8,4.61-8,12.13,0,16.74h0c8,4.6,21.21,4.6,29.26,0L154,423.85a15.79,15.79,0,0,0,2.89-2.08A103,103,0,0,0,185,425.54c17.46,0,33.28-4.05,44.73-10.6s18.53-15.6,18.53-25.59Z" transform="translate(-2.49 -2.45)"/><path class="cls-2" d="M215.34,405.91h0c7.83-4.49,12.16-10.36,12.16-16.56s-4.33-12.09-12.16-16.57c-8.08-4.62-18.85-7.16-30.33-7.16s-22.25,2.54-30.33,7.16c-7.84,4.48-12.15,10.37-12.15,16.57s4.31,12.07,12.15,16.56c8.09,4.63,18.85,7.16,30.34,7.16s22.24-2.54,30.32-7.16ZM185,415.76c-12,0-23.19-2.66-31.66-7.51-8.73-5-13.53-11.7-13.53-18.9s4.8-13.92,13.53-18.9c8.46-4.85,19.71-7.51,31.65-7.51s23.19,2.66,31.66,7.51c8.72,5,13.51,11.69,13.51,18.9s-4.79,13.91-13.51,18.9h0c-8.47,4.85-19.73,7.51-31.65,7.51Zm-28.13,4.67a1.32,1.32,0,0,0-.9.35,15.43,15.43,0,0,1-2.65,1.91l-46.58,26.63c-7.56,4.33-20.36,4.33-27.93,0-3.45-2-5.36-4.53-5.36-7.21s1.91-5.22,5.36-7.2l46.57-26.64a22.22,22.22,0,0,1,3.4-1.54,1.31,1.31,0,0,0,.84-.93,1.37,1.37,0,0,0-.28-1.22c-4.16-4.78-6.28-9.9-6.28-15.23,0-9.16,6.35-17.84,17.86-24.42,11.74-6.73,27.4-10.43,44.07-10.43s32.32,3.7,44.08,10.43c11.51,6.58,17.84,15.26,17.84,24.42s-6.33,17.84-17.84,24.42C217.33,420.5,201.68,424.2,185,424.2a101.68,101.68,0,0,1-27.76-3.72,1.5,1.5,0,0,0-.37-.05ZM77.5,451.65c-4.33-2.47-6.72-5.86-6.72-9.54s2.39-7.06,6.72-9.53l46.56-26.64a22.22,22.22,0,0,1,2.07-1,25.33,25.33,0,0,1-5.73-15.55c0-10.18,6.82-19.68,19.2-26.76,12.16-6.95,28.28-10.78,45.41-10.78s33.26,3.83,45.4,10.78c12.39,7.09,19.21,16.58,19.21,26.76S242.8,409,230.41,416.11c-12.14,6.95-28.27,10.78-45.39,10.78a104.69,104.69,0,0,1-27.8-3.62,19.31,19.31,0,0,1-2.55,1.75L108.1,451.65a31.43,31.43,0,0,1-15.3,3.63A31.43,31.43,0,0,1,77.5,451.65Z" transform="translate(-2.49 -2.45)"/><path class="cls-1" d="M194,389.35c-2-8.61-9.81-15.39-20.1-18.68a29.61,29.61,0,0,1,6.54-1.67c19.68-2.81,38.26,6.35,41.52,20.35Z" transform="translate(-2.49 -2.45)"/><path class="cls-2" d="M220.16,388c-4.15-12.42-21.43-20.26-39.55-17.68-.89.13-1.73.29-2.54.47,8.67,3.72,14.84,9.94,16.94,17.21Zm-27.49,1.65c-1.83-7.82-9-14.44-19.2-17.7a1.35,1.35,0,0,1-.08-2.54,30.47,30.47,0,0,1,6.84-1.74c20.29-2.91,39.58,6.68,43,21.37a1.35,1.35,0,0,1-1.31,1.65H194A1.34,1.34,0,0,1,192.67,389.65Z" transform="translate(-2.49 -2.45)"/><path class="cls-4" d="M37,395.2,3.58,377.08c-.72-.62-.72-1-.72-2.06v-5.93a6.41,6.41,0,0,1,2.86-5.22Q140.9,285.79,276.07,207.73a2.85,2.85,0,0,1,2.39-.21l33.14,18.1c-1-.39-1.19-.24-2.15.16L39.1,381.92a6.87,6.87,0,0,0-3.1,5.29v5.94C36.23,394.17,36,394.55,37,395.2Z" transform="translate(-2.49 -2.45)"/><path class="cls-2" d="M5.49,375l27.89,15v-2.76a10,10,0,0,1,4-7.61L304.92,225.14l-27.41-14.85-121.83,70.3c-49.58,28.57-98.94,57.1-148.53,85.66a4.33,4.33,0,0,0-1.66,3.08V375ZM36.71,398a2.91,2.91,0,0,1-1.19-.31L2.38,379.53c-2.14-1.5-2.38-3-2.38-4v-6.48a9.38,9.38,0,0,1,4.3-7.51q74.37-43.05,148.52-85.9L274.88,205.3a5,5,0,0,1,4.53-.4L313,223.08a2.83,2.83,0,0,1,1.19,3.65,3,3,0,0,1-3.58,1.51L40.53,384.35a3.74,3.74,0,0,0-1.67,3.1v5.77a3.08,3.08,0,0,1,.24,3.48A3.16,3.16,0,0,1,36.71,398Z" transform="translate(-2.49 -2.45)"/><path class="cls-1" d="M38.62,395c-1.42.47-2.62.33-2.62-1.88v-5.94a6.71,6.71,0,0,1,3.1-5.29L309.45,225.78c1.68-.95,3.1-.16,3.1,1.82v5.86a5.58,5.58,0,0,1-1.67,4.1c-1.43,1.33-5,3.24-6.2,4L43.39,392.33C42.2,393.05,39.58,394.63,38.62,395Z" transform="translate(-2.49 -2.45)"/><path class="cls-2" d="M309.69,228.86,40.53,384.35a3.64,3.64,0,0,0-1.67,2.86v4.57c.72-.47,1.67-1,2.39-1.5L42,390,304,238.68a20.39,20.39,0,0,0,4.77-3.1,2.54,2.54,0,0,0,.95-2.12v-4.6ZM37.43,398a4.11,4.11,0,0,1-2.39-.71c-1.19-.79-1.66-2.29-1.66-4.17v-5.94a9.9,9.9,0,0,1,4.29-7.75L308,223.4a4.83,4.83,0,0,1,5-.24,5.09,5.09,0,0,1,2.38,4.44v5.86a8.43,8.43,0,0,1-2.62,6.08c-1.19,1.34-3.57,2.7-6,4l-1,.47-261,150.75a55.06,55.06,0,0,1-5.24,2.86h0A6,6,0,0,1,37.43,398Z" transform="translate(-2.49 -2.45)"/><polygon class="cls-3" points="5.86 359.92 5.86 153.65 16.35 158.47 16.35 364.67 5.86 359.92"/><path class="cls-2" d="M11.2,360.55,16,362.77V162.65l-4.77-2.21V360.55ZM18.84,370a2.54,2.54,0,0,1-1.2-.24L7.15,364.89a3,3,0,0,1-1.66-2.52V156.1a2.63,2.63,0,0,1,1.42-2.39,2.46,2.46,0,0,1,2.63-.14L20,158.31a3,3,0,0,1,1.67,2.6V367.12a3.13,3.13,0,0,1-1.42,2.37A2.58,2.58,0,0,1,18.84,370Z" transform="translate(-2.49 -2.45)"/><polygon class="cls-4" points="16.35 158.47 5.86 153.65 271.44 0.38 281.69 5.19 16.35 158.47"/><path class="cls-2" d="M14.54,155.79l4.06,2L278.22,7.88,273.93,6,14.54,155.79Zm4.3,7.89a2.7,2.7,0,0,1-1.2-.22L7.15,158.62a3.34,3.34,0,0,1-1.66-2.42,2.86,2.86,0,0,1,1.42-2.56L272.5.37a2.77,2.77,0,0,1,2.62-.09l10.25,4.83a2.68,2.68,0,0,1,1.68,2.36A2.8,2.8,0,0,1,285.61,10L20.27,163.3A3.36,3.36,0,0,1,18.84,163.68Z" transform="translate(-2.49 -2.45)"/><path class="cls-1" d="M284.18,7.64V213.91L18.84,367.12V160.91Z" transform="translate(-2.49 -2.45)"/><path class="cls-2" d="M21.69,162.51V362.3L281.32,212.24V12.45L21.69,162.51ZM18.84,370a3.12,3.12,0,0,1-1.44-.41A2.63,2.63,0,0,1,16,367.12V160.91a2.61,2.61,0,0,1,1.43-2.43L282.75,5.18a3.08,3.08,0,0,1,2.86,0,2.68,2.68,0,0,1,1.44,2.46V213.91a2.66,2.66,0,0,1-1.44,2.39L20.27,369.56A3.14,3.14,0,0,1,18.84,370Z" transform="translate(-2.49 -2.45)"/><path class="cls-3" d="M273,26.93,29.8,167.33v180.5L273,207.42Z" transform="translate(-2.49 -2.45)"/><path class="cls-2" d="M32.66,168.92V343L270.35,205.85V31.77L32.66,168.92ZM29.8,350.66a3.68,3.68,0,0,1-1.43-.38,3.19,3.19,0,0,1-1.43-2.45V167.33a3.32,3.32,0,0,1,1.43-2.46L271.79,24.5a2.55,2.55,0,0,1,2.62,0,2.63,2.63,0,0,1,1.43,2.43V207.42a2.66,2.66,0,0,1-1.43,2.46L31.23,350.28A3.63,3.63,0,0,1,29.8,350.66Z" transform="translate(-2.49 -2.45)"/><path class="cls-1" d="M92.26,218.51l1.2,8.6-40.54,31L51,246.43c-.72-6-.48-10.75,1.43-14.33Q55,226.78,66,215.89q9.3-9,10.73-11.85,1.78-2.85.72-9c-.72-4-1.67-6.09-2.87-6.25-1.42-.15-4.29,1.43-8.58,4.84-4.53,3.39-7.39,6.08-8.35,8.06s-1.19,5.05-.71,9.17l.48,2.44-10,7.6-.25-2.36c-1.19-7.13-.47-13.06,1.92-17.64s7.62-10,15.72-16.07c7.64-6,13.12-8.77,16.46-8.37,3.1.38,5.24,4,6.43,11.06,1,6.73.48,11.95-1.19,15.81-1.9,3.88-6.44,9.51-14.06,16.86-6,6.1-9.54,9.89-10.5,11.56s-1.19,4.51-.47,8.46l.24,1.57Z" transform="translate(-2.49 -2.45)"/><path class="cls-2" d="M74.38,186h.48c4.29.55,5,6.18,5.49,8.63.71,4.75.23,8.3-1,10.76-.72,1.33-2.86,4.1-11.21,12.49-7.39,7-11.68,12.25-13.35,15.49-1.42,3-1.67,7.3-.95,12.66l.95,7L90.6,225.86l-.48-2.29L63.42,244a2.46,2.46,0,0,1-2.63.39,3.1,3.1,0,0,1-1.9-2.22l-.24-1.48c-.72-4.76-.48-8,.71-10.3.72-1.27,2.62-3.86,11.21-12.18,7.15-7.1,11.68-12.49,13.35-16,1.43-3.35,1.9-8.06,1-14.17-.72-5.29-2.38-8.53-4.05-8.77-1-.17-4.53.31-14.31,7.82-7.62,5.86-12.63,10.92-15,15.12-1.67,3.55-2.38,8.15-1.92,13.6l4.77-3.64v-.86c-.71-4.77-.47-8.32.72-10.85,1.43-2.38,4.29-5.29,9.3-9,5.48-4.36,8.11-5.39,10-5.39ZM52.92,260.9a3,3,0,0,1-1.19-.24,3.3,3.3,0,0,1-1.66-2.14L48.4,246.91Q47,237,49.83,230.84c1.9-3.8,6.67-9.42,14.3-16.93,7.87-7.65,9.77-10.35,10.25-11.22.48-.72,1-2.7.24-7.28a14.42,14.42,0,0,0-.72-3.65c-1,.31-2.62,1.36-6.19,4-5.48,4.2-7.15,6.25-7.63,7.2s-1,3.1-.24,7.44l.24,2.53a2.52,2.52,0,0,1-1,2.52l-10,7.68a2.69,2.69,0,0,1-2.63.33,3.07,3.07,0,0,1-1.91-2.14L44.35,219c-1.2-7.75-.48-14.33,2.14-19.46,2.86-5,8.11-10.53,16.45-17,8.82-6.56,14.78-9.41,18.6-8.85,6.91.79,8.34,10.36,8.82,13.43,1.19,7.3.72,13-1.44,17.4-1.9,4.2-6.67,10-14.54,17.64-7.63,7.76-9.54,10.21-10,10.92a7.7,7.7,0,0,0-.48,3.49L90.6,216.3a2.63,2.63,0,0,1,2.61-.41,3.2,3.2,0,0,1,1.92,2.22l1.19,8.53a2.84,2.84,0,0,1-1,2.7l-40.76,31A2.92,2.92,0,0,1,52.92,260.9Z" transform="translate(-2.49 -2.45)"/><path class="cls-1" d="M182.38,149.92l1.19,8.56-40.77,31-1.66-11.6c-.95-6-.48-10.86,1.19-14.34,1.91-3.55,6.44-8.94,13.83-16.2q9.3-9.12,10.72-11.88c1.19-1.88,1.19-4.89.72-9-.72-4-1.67-6.1-2.86-6.25-1.43-.17-4.29,1.44-8.82,4.75-4.29,3.48-7.15,6.17-8.11,8.15-1.19,2-1.19,5.06-.71,9.18l.47,2.43-10.24,7.61-.25-2.39c-1-7.2-.24-13,1.91-17.61,2.63-4.61,7.87-10,15.74-16.14,7.87-6,13.34-8.71,16.45-8.33,3.34.33,5.48,4,6.43,11.09,1,6.65.72,11.94-1.19,15.8-1.67,3.89-6.44,9.5-13.82,16.86-6.21,6.08-9.78,9.9-10.49,11.54-1,1.67-1.2,4.43-.48,8.46l.23,1.6Z" transform="translate(-2.49 -2.45)"/><path class="cls-2" d="M164.5,117.43H165c3.58.47,4.77,4.82,5.24,8.54.71,4.81.48,8.38-.71,10.84-.95,1.34-2.86,4.1-11.45,12.49-7.15,7-11.67,12.26-13.11,15.5-1.43,2.93-1.91,7.2-1,12.66l1,7,35.52-27.13-.23-2.3-26.7,20.4a3.08,3.08,0,0,1-2.87.41,2.9,2.9,0,0,1-1.66-2.23l-.24-1.57c-.71-4.67-.48-8,.71-10.2.71-1.36,2.63-3.86,11.21-12.19,7.15-7.13,11.44-12.49,13.11-16,1.67-3.34,1.91-8.16.95-14.26-.72-5.23-2.14-8.54-3.82-8.68-1.18-.16-4.77.31-14.54,7.82-7.62,5.77-12.63,10.92-14.77,15.12-1.91,3.55-2.63,8.13-2.15,13.59l5-3.72-.24-.79c-.72-4.74-.25-8.3.95-10.83,1.2-2.38,4.29-5.31,9.3-9.1,5.48-4.27,8.11-5.29,10-5.29Zm-21.7,74.91a2,2,0,0,1-1-.27,2.33,2.33,0,0,1-1.66-2.12l-1.91-11.7c-.95-6.56-.48-11.95,1.67-16,1.9-3.79,6.44-9.41,14.3-17,7.63-7.61,9.78-10.29,10.25-11.16s1-2.69.24-7.27a10.88,10.88,0,0,0-1-3.64,33.79,33.79,0,0,0-5.95,4c-5.49,4.12-7.16,6.24-7.64,7.2s-.95,3-.23,7.44l.23,2.52a2.51,2.51,0,0,1-.95,2.53l-10,7.6a2.88,2.88,0,0,1-2.86.38,3.43,3.43,0,0,1-1.67-2.21l-.23-2.36c-1.2-7.75-.49-14.24,2.14-19.38,2.62-5,8.1-10.61,16.45-17,8.58-6.56,14.54-9.42,18.59-8.94,6.92.86,8.34,10.34,8.82,13.51.95,7.27.49,13-1.43,17.41-1.9,4.19-6.67,10-14.54,17.64s-9.54,10.11-10,10.92c-.24.31-.48,1.26-.48,3.48l26.7-20.27a2.67,2.67,0,0,1,4.29,1.84l1.44,8.54a2.58,2.58,0,0,1-1.2,2.69l-40.76,31A2.92,2.92,0,0,1,142.8,192.34Z" transform="translate(-2.49 -2.45)"/><path class="cls-1" d="M266.06,230.29c-1.19-.55-2.14-.95-3.34-.4h0l-38.14,22a3.23,3.23,0,0,1,2.86.08c3.1,1.49,6,6.38,5.25,9.79a2.92,2.92,0,0,1-1.2,1.9l37.91-21.91c1.43-.87,1.43-2.86,1.43-4.26a11.12,11.12,0,0,0-4.77-7.13Z" transform="translate(-2.49 -2.45)"/><path class="cls-2" d="M231.25,251.25a15.73,15.73,0,0,1,4.06,7L268,239.3h0V238c-.48-2.07-1.67-4.28-3.34-5.23l1.43-2.45-1.43,2.45a1.59,1.59,0,0,0-.71-.3h0l-32.67,18.81Zm.24,15.25a2.71,2.71,0,0,1-2.38-1.33,2.67,2.67,0,0,1,.71-3.79c.48-2.22-1.42-5.87-3.57-6.82a3,3,0,0,1-3.11-5.13l38.16-22a6,6,0,0,1,5.95.38s.24,0,.24.1h0a13.63,13.63,0,0,1,6,9.08c.48,2.46,0,5.53-2.62,7.13l-37.91,22A3.27,3.27,0,0,1,231.49,266.5Z" transform="translate(-2.49 -2.45)"/><path class="cls-1" d="M231.25,255.85a7.51,7.51,0,0,0-3.34-3.58c-1.42-.79-2.61-.86-3.33-.38a3.29,3.29,0,0,0-1.44,3.14,9.16,9.16,0,0,0,1.44,4.75,8.2,8.2,0,0,0,3.33,3.65c1.44.72,2.63.79,3.34.31.95-.55,1.44-1.57,1.44-3.17A9.14,9.14,0,0,0,231.25,255.85Z" transform="translate(-2.49 -2.45)"/><path class="cls-2" d="M225.77,254.42c.24.07,0,.31,0,.61a6.79,6.79,0,0,0,1.19,3.32,6.48,6.48,0,0,0,2.39,2.62,1.83,1.83,0,0,0,.47.24v-.64a6.22,6.22,0,0,0-.95-3.32,6.88,6.88,0,0,0-2.38-2.6,1.28,1.28,0,0,0-.72-.23Zm4.3,12.42a7.06,7.06,0,0,1-3.58-1,13.14,13.14,0,0,1-4.53-4.6,15.35,15.35,0,0,1-1.67-6.18c0-2.52,1-4.5,2.85-5.53a6.1,6.1,0,0,1,6.21.32,13.22,13.22,0,0,1,4.53,4.6v.07a15,15,0,0,1,1.67,6.08c0,2.55-1,4.53-2.86,5.56A4.87,4.87,0,0,1,230.07,266.84Z" transform="translate(-2.49 -2.45)"/><polygon class="cls-4" points="99.31 324.66 78.09 312.38 40.43 334.05 61.88 346.33 99.31 324.66"/><path class="cls-2" d="M48.63,336.5l15.74,9,31.95-18.4-15.74-9.05L48.63,336.5Zm15.74,15.11a2,2,0,0,1-1.43-.4L41.48,339a3.46,3.46,0,0,1-1.43-2.46A3.23,3.23,0,0,1,41.48,334l37.67-21.67a3.2,3.2,0,0,1,2.86,0l21.22,12.28a2.81,2.81,0,0,1,0,4.89L65.56,351.21A1.77,1.77,0,0,1,64.37,351.61Z" transform="translate(-2.49 -2.45)"/><polygon class="cls-3" points="61.88 346.33 40.43 334.05 40.43 350.74 61.88 363.02 61.88 346.33"/><path class="cls-2" d="M45.77,351.54l15.74,9.08v-10.2l-15.74-9.08v10.2Zm18.6,16.69a2,2,0,0,1-1.43-.34L41.48,355.57a3.18,3.18,0,0,1-1.43-2.38V336.5a2.87,2.87,0,0,1,4.3-2.46l21.21,12.35A2.66,2.66,0,0,1,67,348.78v16.69a2.69,2.69,0,0,1-1.44,2.42A1.71,1.71,0,0,1,64.37,368.23Z" transform="translate(-2.49 -2.45)"/><polygon class="cls-1" points="99.31 341.35 99.31 324.66 61.88 346.33 61.88 363.02 99.31 341.35"/><path class="cls-2" d="M67,350.42v10.2l31.94-18.49v-10.2L67,350.42Zm-2.63,17.81a2,2,0,0,1-1.43-.34,2.66,2.66,0,0,1-1.43-2.42V348.78a2.64,2.64,0,0,1,1.43-2.39l37.42-21.74a3,3,0,0,1,2.87,0,3.25,3.25,0,0,1,1.43,2.46v16.68a3.13,3.13,0,0,1-1.43,2.37L65.56,367.89A1.71,1.71,0,0,1,64.37,368.23Z" transform="translate(-2.49 -2.45)"/><path class="cls-1" d="M104,207.42a1.51,1.51,0,0,1-1-.3,2.75,2.75,0,0,1-1.43-3.72L122.78,157a2.88,2.88,0,0,1,5.25,2.36l-21.46,46.44A2.8,2.8,0,0,1,104,207.42Z" transform="translate(-2.49 -2.45)"/><path class="cls-1" d="M129.46,188.05a2.57,2.57,0,0,1-.72-.15l-29.33-7.6a2.67,2.67,0,0,1-2.14-3.38,2.83,2.83,0,0,1,3.34-2.09l29.56,7.68a2.86,2.86,0,0,1,2.14,3.41A3,3,0,0,1,129.46,188.05Z" transform="translate(-2.49 -2.45)"/><path class="cls-1" d="M185,121.05a2.78,2.78,0,0,1-1.66-5l36-27.47a2.66,2.66,0,0,1,3.8.48,2.85,2.85,0,0,1-.47,4l-36,27.43A2.3,2.3,0,0,1,185,121.05Z" transform="translate(-2.49 -2.45)"/><path class="cls-1" d="M187.39,137.12a2.78,2.78,0,0,1-2.15-1.12,2.86,2.86,0,0,1,.48-4l36-27.44a3,3,0,0,1,4.05.57,3.09,3.09,0,0,1-.72,3.93l-36,27.38A2.4,2.4,0,0,1,187.39,137.12Z" transform="translate(-2.49 -2.45)"/><path class="cls-1" d="M78.91,279.09a3.27,3.27,0,0,1-2.38-1.1,2.86,2.86,0,0,1,.47-4l36-27.46a3.08,3.08,0,0,1,4,.55,2.84,2.84,0,0,1-.47,4l-36,27.46A3.44,3.44,0,0,1,78.91,279.09Z" transform="translate(-2.49 -2.45)"/><path class="cls-1" d="M81.3,295.07A3,3,0,0,1,78.91,294a2.62,2.62,0,0,1,.72-3.87l36-27.44a2.64,2.64,0,0,1,3.81.55,2.76,2.76,0,0,1-.48,3.89L83,294.51A2.88,2.88,0,0,1,81.3,295.07Z" transform="translate(-2.49 -2.45)"/><path class="cls-4" d="M360.75,67.79l-8.6-5c-14.27,8.2-26.8,15.46-41,23.64A92,92,0,0,1,322,90.12C335.47,82.35,347.31,75.58,360.75,67.79Z" transform="translate(-2.49 -2.45)"/><path class="cls-2" d="M316.4,85.83c1.88.63,3.71,1.29,5.47,2l34.69-20-4.41-2.58L316.4,85.83ZM322,92.25a1.86,1.86,0,0,1-.81-.2,92.44,92.44,0,0,0-10.62-3.58,2,2,0,0,1-1.51-1.7,2.17,2.17,0,0,1,1-2.11l41-23.67a2.14,2.14,0,0,1,2.11,0l8.61,5a2.1,2.1,0,0,1,1.05,1.81,2.07,2.07,0,0,1-1.05,1.79L323,92A1.9,1.9,0,0,1,322,92.25Z" transform="translate(-2.49 -2.45)"/><path class="cls-3" d="M347.79,87.35l-9.55-4.47c-.93,5-1.81,9.89-2.7,14.79,3.3,2.41,6.83,7.11,9,9.78C345.55,101.61,347.66,94,347.79,87.35Z" transform="translate(-2.49 -2.45)"/><path class="cls-2" d="M337.83,96.78a47.9,47.9,0,0,1,5.54,5.89c.07-.3.12-.58.17-.88a100.18,100.18,0,0,0,2.14-13.14l-5.9-2.7c-.6,3.11-1.12,6.23-1.7,9.41l-.25,1.42Zm6.71,12.73a2.08,2.08,0,0,1-1.65-.77l-.87-1.06c-2-2.54-5.06-6.36-7.72-8.31a2.18,2.18,0,0,1-.82-2.06l.46-2.64c.78-4.07,1.47-8.13,2.24-12.15a2.16,2.16,0,0,1,1.06-1.47,2.23,2.23,0,0,1,1.84,0l9.6,4.4a2,2,0,0,1,1.16,1.95c0,5-1.23,10.48-2.23,15.32-.35,1.81-.77,3.53-1,5.12a2.07,2.07,0,0,1-1.51,1.65A1.46,1.46,0,0,1,344.54,109.51Z" transform="translate(-2.49 -2.45)"/><path class="cls-1" d="M347.08,140.24c7.24-24.91,13.31-56.65,13.67-72.45L321.94,90.18a72.15,72.15,0,0,1,8.41,4.13,24.24,24.24,0,0,1,2.12,1.3l.53.23-.06,0h0l14.85-8.54c-.18,5.72-2.11,12.68-3.25,19a22,22,0,0,1,5.25,12.79,24.81,24.81,0,0,1,.11,3.64A112,112,0,0,1,347.08,140.24Z" transform="translate(-2.49 -2.45)"/><path class="cls-2" d="M346.73,105.85a23.6,23.6,0,0,1,4.59,9.48c3.71-16.54,6.43-33,7.19-43.83l-32,18.44a55.26,55.26,0,0,1,4.9,2.6c.53.3,1.05.58,1.58.94l13.73-8a2.16,2.16,0,0,1,2.12,0,2.1,2.1,0,0,1,1,1.89,81.41,81.41,0,0,1-2,13.38c-.36,1.63-.71,3.36-1.06,5.06Zm.35,36.52c-.18,0-.35-.05-.54-.05a2.17,2.17,0,0,1-1.53-2.54,102.74,102.74,0,0,0,2.78-17.1,22.65,22.65,0,0,0-.06-3.28,20.1,20.1,0,0,0-4.84-11.72,2.18,2.18,0,0,1-.41-1.65c.35-2,.76-4.07,1.24-6.13.59-3,1.25-5.94,1.66-8.78L334.12,97.6c0,.07-.06.07-.11.07a2.17,2.17,0,0,1-2.23-.07l-.26-.18c-.81-.47-1.46-.87-2.16-1.3a68.52,68.52,0,0,0-8.2-4,2.11,2.11,0,0,1-.23-3.77L359.69,66a2.09,2.09,0,0,1,2.12,0,2.18,2.18,0,0,1,1.05,1.85c-.41,15.85-6.3,47.26-13.78,73A2.13,2.13,0,0,1,347.08,142.37Z" transform="translate(-2.49 -2.45)"/><path class="cls-3" d="M354,292.86c0,4.59.25,27.21-.16,30-2.08,16.31-20.56,26.61-34.64,31.1-25.64,8.06-61.62,6.28-84-9.15-8-5.58-15.2-13.9-15.61-24.07V292.62c.58,7.18,3.3,12.61,8.31,17.84,15.54,16.43,45.22,21.33,66.79,19.86,18.66-1.25,43.76-8.13,54.77-24.45A25,25,0,0,0,354,292.86Z" transform="translate(-2.49 -2.45)"/><path class="cls-2" d="M221.63,305.87v14.91c.48,10.88,9.42,18.66,14.72,22.37,22.74,15.66,58.55,16.32,82.17,8.84,14.84-4.72,31.32-14.91,33.21-29.4.23-1.47.23-9.48.23-16.77-.28.4-.51.82-.81,1.17-11.19,16.67-36.47,24-56.32,25.44-21.25,1.42-51.93-3.05-68.5-20.56a36,36,0,0,1-4.7-6Zm64.91,54.9c-18.55,0-38.07-4.19-52.56-14.19-5.94-4.14-16-12.91-16.47-25.69V292.62a2,2,0,0,1,1.93-2.06,2,2,0,0,1,2.19,1.89c.53,6.48,2.82,11.41,7.7,16.59,14.62,15.38,43.25,20.69,65.21,19.22,18.91-1.3,42.77-8.19,53.19-23.56a23.52,23.52,0,0,0,4.18-12,2,2,0,0,1,2.18-1.95,2.13,2.13,0,0,1,2,2.13v4.47c.06,11.36.06,23.61-.17,25.79-2.72,20.74-28.34,30.4-36.16,32.82A112.07,112.07,0,0,1,286.54,360.77Z" transform="translate(-2.49 -2.45)"/><path class="cls-3" d="M253.14,325.43C221,314.71,210,291,228.57,272.36s59.67-24.92,91.83-14.2,43.17,34.46,24.61,53S285.3,336.08,253.14,325.43Z" transform="translate(-2.49 -2.45)"/><path class="cls-2" d="M253.83,323.42c31.41,10.48,71.62,4.3,89.66-13.72,7-6.95,9.71-14.79,7.88-22.61-2.69-11.32-14.18-21.1-31.61-26.92-31.46-10.49-71.7-4.37-89.72,13.72-7,6.94-9.71,14.77-7.82,22.62,2.64,11.29,14.18,21.08,31.61,26.91Zm32.71,9.24a108.41,108.41,0,0,1-34.05-5.29h0c-18.84-6.25-31.34-17.21-34.34-29.86-2.18-9.2,1-18.68,9-26.64,19-19,61.18-25.62,93.93-14.64,18.84,6.23,31.39,17.13,34.39,29.84,2.18,9.2-1,18.68-8.95,26.58C333.66,325.49,310.38,332.66,286.54,332.66Z" transform="translate(-2.49 -2.45)"/><path class="cls-1" d="M287.35,81.71c-17.08,0-34.16,3.76-47.17,11.31C229.93,99,220,108.74,220.69,121.51c1.17,20.38,17.36,74.34,37.16,85.77,39.64,22.91-16,31.85,10.95,47.41a3.55,3.55,0,0,1,2,3.24v.77a3.7,3.7,0,0,1-2.77,3.53c-9.3,2.29-17.51,6.3-23,11.77-13.49,13.49-5.48,30.75,17.9,38.53a80.47,80.47,0,0,0,48.84,0c23.38-7.78,31.39-25,17.89-38.53-5.47-5.47-13.59-9.48-23-11.77a3.63,3.63,0,0,1-2.7-3.53l-.07-.77a3.54,3.54,0,0,1,2-3.24c27-15.56-28.62-24.5,11-47.41,19.8-11.43,36-65.39,37.11-85.77.76-12.77-9.18-22.55-19.5-28.49C321.46,85.47,304.38,81.71,287.35,81.71Z" transform="translate(-2.49 -2.45)"/><path class="cls-2" d="M287.35,83.82c-17.48,0-33.85,3.89-46.11,11C234,99,222,108,222.75,121.4c1.29,21.79,17.79,73.45,36.09,84.1,9.61,5.49,14.69,10.83,15.68,16.32,1.12,6.07-2.9,11-6.49,15.25-2.71,3.3-5.28,6.43-4.77,9.15.36,2.11,2.59,4.35,6.61,6.65a5.5,5.5,0,0,1,2.94,5.06v.82a5.61,5.61,0,0,1-4.36,5.48c-9.31,2.35-16.9,6.24-22,11.24-4.88,5-6.83,10.42-5.53,16,1.88,7.9,10.31,15,22.61,19.15a79,79,0,0,0,47.53,0c12.3-4.14,20.79-11.25,22.62-19.15,1.29-5.55-.59-11-5.54-16s-12.6-8.89-22-11.24a5.66,5.66,0,0,1-4.37-5.48v-.82a5.69,5.69,0,0,1,3-5.06c4-2.3,6.2-4.54,6.61-6.65.48-2.72-2.14-5.85-4.83-9.15-3.54-4.29-7.6-9.18-6.48-15.25,1-5.49,6.12-10.83,15.67-16.32,18.36-10.65,34.86-62.31,36.1-84.1C352.67,108,340.67,99,333.48,94.83c-12.32-7.12-28.69-11-46.13-11Zm0,234.6a79.92,79.92,0,0,1-25.08-3.88c-13.91-4.66-23.15-12.74-25.39-22.17-1.58-6.88.76-13.9,6.65-19.84,5.6-5.52,13.85-9.84,23.93-12.31a1.56,1.56,0,0,0,1.16-1.52v-.84c.05-.41-.05-.94-.87-1.4-5.2-2.95-8-6.07-8.61-9.5-.82-4.65,2.47-8.65,5.72-12.53s6.3-7.73,5.59-11.9-5.36-8.66-13.67-13.44c-21-12.13-37-67.38-38.17-87.45-.64-11.44,6.85-22.5,20.51-30.45,13-7.42,30-11.56,48.23-11.56s35.28,4.14,48.19,11.56c13.73,8,21.2,19,20.55,30.45-1.18,20.07-17.2,75.32-38.21,87.45-8.32,4.78-12.91,9.32-13.63,13.44s2.49,8.06,5.61,11.9,6.54,7.88,5.65,12.53c-.58,3.43-3.41,6.55-8.59,9.5a1.45,1.45,0,0,0-.89,1.4v.84a1.56,1.56,0,0,0,1.17,1.52c10.07,2.47,18.38,6.79,23.92,12.31,5.95,5.94,8.3,13,6.65,19.84-2.23,9.43-11.48,17.51-25.31,22.17A80.61,80.61,0,0,1,287.35,318.42Z" transform="translate(-2.49 -2.45)"/><path class="cls-3" d="M198.83,161.28l-8.59-5c1.7,5.94,3.1,11.77,4.47,17.77l.89,3.71,5.59,21c5.88,21.95,19.2,28.66,38.87,31.79H240c-14.44-2.52-26.87-13.14-31-29.33L203.36,179Z" transform="translate(-2.49 -2.45)"/><path class="cls-2" d="M193.59,160.62c1.23,4.6,2.24,9,3.19,13l.81,3.77,5.59,20.86c2.89,10.65,7.5,17.48,13.73,22A42.21,42.21,0,0,1,207,201.79l-10-39.16-3.47-2Zm46.42,72h-.36c-.06,0-.12-.07-.23-.07-19.62-3.13-34-10.07-40.23-33.28l-6.48-24.85c-1.24-5.18-2.72-11.38-4.48-17.61a2.09,2.09,0,0,1,.72-2.24,2,2,0,0,1,2.34-.12l8.61,4.95a2.49,2.49,0,0,1,1,1.3l10.14,40c3.76,14.61,15,25.28,29.38,27.8a2,2,0,0,1,1.65,2.42A2,2,0,0,1,240,232.67Z" transform="translate(-2.49 -2.45)"/><path class="cls-1" d="M311.75,347.22V333.85c15.83-3.66,35.09-12.13,42-28l.23,12.78c-.41,2.19-4.24,7.48-5.88,9.36C339.08,338.22,324.69,344.21,311.75,347.22Z" transform="translate(-2.49 -2.45)"/><path class="cls-2" d="M313.81,335.5v9c9.18-2.34,23.56-7.53,32.68-17.84,1.95-2.17,5.19-7,5.47-8.42l-.11-4.88c-10,13.53-28.46,19.78-38,22.14Zm-2.06,13.78a2,2,0,0,1-1.3-.48,1.94,1.94,0,0,1-.83-1.58V333.85a2.14,2.14,0,0,1,1.65-2c9.66-2.23,32.93-9.3,40.58-26.79a2.09,2.09,0,0,1,4,.77l.23,12.83c-.65,3.23-4.94,9.07-6.47,10.78-10.78,12.2-28,17.61-37.41,19.8A1.68,1.68,0,0,1,311.75,349.28Z" transform="translate(-2.49 -2.45)"/><path class="cls-3" d="M263.1,210.64c-5.49,3.1-9.73,4.75-19.74,6.46-5.77.89-11.37-.64-16.5-3.29,14.62,14.08,28.39,7.78,43.66.36A37.94,37.94,0,0,1,263.1,210.64Z" transform="translate(-2.49 -2.45)"/><path class="cls-2" d="M240.06,219.41c8.3,2.23,16.49-.94,25.33-5.13-.71-.34-1.47-.77-2.36-1.3-4.93,2.77-9.42,4.47-19.31,6.2a25.88,25.88,0,0,1-3.66.23Zm5.54,4.9c-6.6,0-13.37-2.37-20.21-9a2.13,2.13,0,0,1-.23-2.7,2,2,0,0,1,2.64-.66c5.37,2.77,10.55,3.77,15.26,3.06,10-1.71,13.9-3.28,19-6.23a2.1,2.1,0,0,1,2.06,0,34.39,34.39,0,0,0,7.06,3.4,2.07,2.07,0,0,1,.23,3.84C263,220.11,254.38,224.31,245.6,224.31Z" transform="translate(-2.49 -2.45)"/><path class="cls-4" d="M226.05,135.59c-13.49,7.78-22.39,12.9-35.81,20.69l8.59,5c12.36-7.19,21.15-12.2,33.52-19.39h0c-1.19-.94-2.31-1.93-3.3-2.87A14.7,14.7,0,0,1,226.05,135.59Z" transform="translate(-2.49 -2.45)"/><path class="cls-2" d="M194.41,156.28l4.42,2.59,29.92-17.26a15.6,15.6,0,0,0-1.18-1.14c-.71-.64-1.41-1.34-2.11-2.11l-31.05,17.92Zm4.42,7.06a1.53,1.53,0,0,1-1-.3l-8.67-4.94a2.1,2.1,0,0,1-1.06-1.82,2.07,2.07,0,0,1,1.06-1.78L225,133.83a2.09,2.09,0,0,1,2.82.7,13.92,13.92,0,0,0,2.67,2.89c1.05,1,2.06,2,3.18,2.82a2.21,2.21,0,0,1,.76,1.83,2.12,2.12,0,0,1-1,1.65L199.9,163A1.78,1.78,0,0,1,198.83,163.34Z" transform="translate(-2.49 -2.45)"/><path class="cls-1" d="M198.83,161.28,203.36,179,209,201.26c6,23.62,29.68,35.35,51.6,27.51a89.62,89.62,0,0,0,12-5.35c-.13-2.54-1.3-5.26-4.12-8.26-11.92,6-16.14,6.71-21.8,6.66-14.08-.18-23.51-11.13-27.33-25.39L214.2,177c-1.11-4-1.7-7.88-2.46-11.11L230.57,155l4.13-2.41a34.89,34.89,0,0,1-2.35-10.73Z" transform="translate(-2.49 -2.45)"/><path class="cls-2" d="M201.24,162.27,211,200.73a37,37,0,0,0,18.55,24.09,37.49,37.49,0,0,0,30.33,2l3-1.19a58,58,0,0,0,7.42-3.35,10.3,10.3,0,0,0-2.3-4.47c-11,5.36-15.49,6.25-21.31,6.19-13.91-.25-24.86-10.26-29.33-27l-5.24-19.44c-.61-2.36-1.07-4.65-1.55-6.76-.28-1.53-.59-3-.92-4.37a2,2,0,0,1,1-2.29l21.5-12.42a36.81,36.81,0,0,1-1.55-6.36l-29.39,17Zm45.6,71A40.67,40.67,0,0,1,207,201.79l-10.19-40a2,2,0,0,1,1-2.29l33.5-19.32a2.05,2.05,0,0,1,2-.07,2.2,2.2,0,0,1,1.11,1.71,30.79,30.79,0,0,0,2.25,10.08,2.1,2.1,0,0,1-1,2.54l-21.67,12.54c.24.94.4,1.95.65,3,.41,2.07.82,4.25,1.47,6.54l5.19,19.44c4,14.79,13.42,23.68,25.32,23.86,5.41,0,9.6-.81,20.84-6.43a2.18,2.18,0,0,1,2.48.41c3,3.2,4.53,6.31,4.66,9.55a2.06,2.06,0,0,1-1.12,1.94l-1.19.58a59.68,59.68,0,0,1-7.94,3.66l-3.07,1.19A41.85,41.85,0,0,1,246.84,233.24Z" transform="translate(-2.49 -2.45)"/><path class="cls-4" d="M334,92.25c-26.1-15.09-68.39-15.09-94.48,0s-26.08,39.45,0,54.54,68.44,15.07,94.53,0S360.09,107.25,334,92.25Z" transform="translate(-2.49 -2.45)"/><path class="cls-2" d="M286.76,83c-16.72,0-33.44,3.64-46.17,11-12,6.89-18.55,16-18.55,25.51s6.6,18.55,18.5,25.45c25.49,14.71,67,14.71,92.46,0,12-6.9,18.5-15.91,18.5-25.45S345,100.9,333,94h0c-12.77-7.37-29.51-11-46.24-11Zm0,77.09c-17.48,0-35-3.81-48.28-11.49s-20.64-18-20.64-29.08,7.32-21.45,20.64-29.1c26.61-15.37,70-15.37,96.58,0h0c13.32,7.65,20.61,18,20.61,29.1s-7.29,21.38-20.61,29.08S304.25,160.09,286.76,160.09Z" transform="translate(-2.49 -2.45)"/><path class="cls-3" d="M325.35,98.31c-21.32-11.72-55.84-11.72-77.16,0s-21.27,30.69,0,42.41,55.84,11.72,77.16,0S346.6,110,325.35,98.31Z" transform="translate(-2.49 -2.45)"/><path class="cls-2" d="M286.76,91.6c-13.59,0-27.21,2.82-37.51,8.54-9.66,5.23-14.91,12.12-14.91,19.38s5.25,14.08,14.84,19.37c20.74,11.37,54.43,11.37,75.17,0,9.59-5.29,14.9-12.19,14.9-19.37s-5.31-14.15-14.9-19.38h0c-10.37-5.72-24-8.54-37.59-8.54Zm0,60c-14.3,0-28.66-3-39.57-9s-17-14.24-17-23,6.07-17,17-23c21.84-12,57.31-12,79.15,0h0c11,6,17.1,14.2,17.1,23s-6.07,17-17.1,23C315.46,148.55,301.08,151.55,286.76,151.55Z" transform="translate(-2.49 -2.45)"/><path class="cls-2" d="M286.41,262a35.05,35.05,0,0,1-18.6-5.49,2.16,2.16,0,0,1-.71-2.89A2.09,2.09,0,0,1,270,253c10.54,6.41,22,6.35,34.86-.11a2.07,2.07,0,1,1,1.83,3.71C299.61,260.17,292.84,262,286.41,262Z" transform="translate(-2.49 -2.45)"/><path class="cls-2" d="M286.41,270.29a35.2,35.2,0,0,1-18.6-5.47,2.16,2.16,0,0,1-.71-2.89,2.1,2.1,0,0,1,2.88-.65c10.54,6.42,22,6.36,34.86-.12a2,2,0,0,1,2.77.95,2.11,2.11,0,0,1-.94,2.84C299.61,268.46,292.84,270.29,286.41,270.29Z" transform="translate(-2.49 -2.45)"/><path class="cls-2" d="M286,219a50.32,50.32,0,0,1-25.62-7.19,2.08,2.08,0,0,1,2.05-3.61c15.44,8.95,32.28,8.72,50.13-.64a2.07,2.07,0,1,1,1.95,3.66C304.73,216.33,295.18,219,286,219Z" transform="translate(-2.49 -2.45)"/></g></g></svg>