<svg xmlns="http://www.w3.org/2000/svg" viewBox="0 0 75.23 87.79"><defs><style>.cls-1{fill:#f4f6f9;}.cls-2{fill:#f6ae2d;}</style></defs><g id="Layer_2" data-name="Layer 2"><g id="Layer_1-2" data-name="Layer 1"><path class="cls-1" d="M41.84,0H8.2C3.29,0,0,3.31,0,8.22Q0,43.86,0,79.5c0,5,3.31,8.27,8.27,8.28q16.83,0,33.65,0c4.89,0,8.17-3.33,8.17-8.22q0-9.24,0-18.48V59.55H47v6.26H3.14V15.68H47v4.85L50.1,23V21.41c0-4.35,0-8.71,0-13.06C50.1,3.26,46.92,0,41.84,0Zm5.23,69v4.26c0,2.15,0,4.32,0,6.47a4.71,4.71,0,0,1-4.84,5q-17.13,0-34.23,0c-2.68,0-4.75-1.69-4.87-4.27-.18-3.75,0-7.51,0-11.4Zm0-56.47H45.7c-13.76,0-27.51,0-41.27,0-1.15,0-1.51-.32-1.41-1.44S3,9,3.05,8A4.74,4.74,0,0,1,8,3.07q17.05,0,34.1,0a4.72,4.72,0,0,1,5,5C47.08,9.51,47.07,11,47.07,12.55Z"/><path class="cls-1" d="M25.11,72.16a4.66,4.66,0,0,1,0,9.32,4.66,4.66,0,1,1,0-9.32Zm1.55,4.67A1.64,1.64,0,0,0,25,75.21a1.62,1.62,0,0,0,0,3.23A1.64,1.64,0,0,0,26.66,76.83Z"/><path class="cls-1" d="M25.14,6.27c.51,0,1,0,1.53,0A1.43,1.43,0,0,1,28.13,7.8a1.38,1.38,0,0,1-1.48,1.48c-1.06,0-2.12,0-3.17,0A1.37,1.37,0,0,1,22,7.9a1.41,1.41,0,0,1,1.36-1.61,14.75,14.75,0,0,1,1.76,0Z"/><path class="cls-2" d="M73.08,22H69c0-.48-.06-.76-.07-1,0-1.73-.43-2.09-2.19-2.11-1,0-1.89,0-2.83,0-5-.23-9.62.59-13.82,4.22L47,20.53a26.13,26.13,0,0,0-4.88-1.37c-3.07-.29-6.18-.25-9.27-.29-.87,0-1.33.59-1.41,1.45,0,.51-.05,1-.1,1.66-1.46,0-2.86,0-4.25,0s-1.93.47-1.93,1.89q0,16.83,0,33.65c0,1.54.5,2,2.07,2H72.9c1.9,0,2.33-.42,2.33-2.36v-33C75.23,22.41,74.8,22,73.08,22ZM28.23,56.41V25.12H31.4v1.45q0,12,0,24c0,2.37.31,2.66,2.72,2.69s5,0,7.51.27a12,12,0,0,1,6.3,2.89Zm20.42-4.17c0,.2,0,.39-.07.86C44.3,50.05,39.49,50,34.52,50.22V22c4.76-.33,9.39-.33,13.26,3a2.33,2.33,0,0,1,.83,1.52C48.67,35.08,48.65,43.67,48.65,52.24Zm3.06-.51c0-8.31,0-16.62,0-24.93a2.17,2.17,0,0,1,1-2,13.72,13.72,0,0,1,8.38-2.95c1.57,0,3.12,0,4.79,0V50.06a56.18,56.18,0,0,0-7.3.42,51.32,51.32,0,0,0-6.78,2.18C51.75,52.48,51.71,52.11,51.71,51.73Zm20.42,4.64H52.66a5.73,5.73,0,0,1,.64-.6A13.49,13.49,0,0,1,61,53.25c1.88,0,3.76,0,5.64,0S69,52.85,69,50.89q0-12.16,0-24.34V25.08h3.18Z"/></g></g></svg>