<svg xmlns="http://www.w3.org/2000/svg" viewBox="0 0 415.52 439.28"><defs><style>.cls-1{fill:#9aceef;}.cls-1,.cls-3,.cls-4{stroke:#0072c8;stroke-linecap:round;stroke-linejoin:round;stroke-width:0.75px;}.cls-1,.cls-2,.cls-3,.cls-4{fill-rule:evenodd;}.cls-2{fill:none;}.cls-3{fill:#fff;}.cls-4{fill:#d9e8ff;}</style></defs><g id="Layer_2" data-name="Layer 2"><g id="Layer_1-2" data-name="Layer 1"><path class="cls-1" d="M211.78,7.05v7l-4.6,2.66-5.11-2.95a7,7,0,0,0-7.16-.06l-2.38,1.37A3.24,3.24,0,0,0,191,17.72V183.83a3.34,3.34,0,0,0,1.54,2.65l101.71,58.68c10.39,6.17,37,6.79,37.48-8.36V70.69l-.17-.63c-.68-5.64-7.16-8.3-11.59-10.84Q271.42,31.05,222.68,3a7.09,7.09,0,0,0-7.15,0l-2.22,1.37A2.9,2.9,0,0,0,211.78,7Z" transform="translate(-1.63 -1.62)"/><path class="cls-2" d="M219.11,4a4.9,4.9,0,0,0-2.56.75l-2.38,1.34a1,1,0,0,0-.52.9v7.08a1.94,1.94,0,0,1-1,1.75L208.2,18.4a1.92,1.92,0,0,1-2,0l-5.11-2.93a4.85,4.85,0,0,0-5.11,0l-2.39,1.34a1.06,1.06,0,0,0-.52.91v166a1,1,0,0,0,.52,1l101.71,58.71c6.82,4,21.47,5.44,29.3,1.14,3.41-1.81,5.11-4.46,5.11-7.8V70.3c-.5-3.8-4.77-6.18-8.51-8.2-.86-.41-1.54-.8-2.21-1.14L221.66,4.74A4.48,4.48,0,0,0,219.11,4Zm74.11,242.93L191.51,188.14a4.8,4.8,0,0,1-2.39-4.31V17.72a4.94,4.94,0,0,1,2.39-4.35L193.89,12a9,9,0,0,1,9.2,0l4.09,2.39,2.55-1.54V7a4.84,4.84,0,0,1,2.56-4.41l2.21-1.35a9.28,9.28,0,0,1,9.21,0L321,57.47c.68.39,1.36.73,2,1.12,4.43,2.37,9.88,5.37,10.56,11.07l.18,167.2c-.18,4.86-2.73,8.76-7.33,11.25-3.92,2.2-9.2,3.15-14.48,3.15C305,251.26,297.82,249.63,293.22,246.92Z" transform="translate(-1.63 -1.62)"/><path class="cls-1" d="M311.27,66.22c-32.7-18.87-65.24-37.75-98-56.58a2.87,2.87,0,0,1-1.53-2.59V19.3l93.53,54.05c2.9,1.7,6.82,2.6,10.06.78a2.87,2.87,0,0,0,1.36-3.49C316.22,68.47,313.32,67.4,311.27,66.22Z" transform="translate(-1.63 -1.62)"/><path class="cls-2" d="M311.27,66.22h0Zm-97.62-54v6l92.51,53.41c1.2.68,4.95,2.6,8.18.8a1,1,0,0,0,.51-1.24c-.34-.85-2-1.76-3.41-2.49-.33-.24-.84-.46-1.18-.68h0l-96.61-55.8ZM304.29,75.1l-93.53-54a1.92,1.92,0,0,1-1-1.76V7.05a2,2,0,0,1,2.05-2h0a1.94,1.94,0,0,1,1.87,2,1,1,0,0,0,.52.91L312.3,64.52l1,.63c2.05,1.07,4.6,2.37,5.28,5a4.8,4.8,0,0,1-2.22,5.71,10.34,10.34,0,0,1-5.11,1.29A13.81,13.81,0,0,1,304.29,75.1Z" transform="translate(-1.63 -1.62)"/><path class="cls-1" d="M271.58,66,289.3,76.27c5.45,3.17,8.52,5.49,14.82,6.68,7.15,1.37,15.33.39,21.29-3s7.84-9,4.78-13.57c-.35-.39-.68-.8-1-1.24-1.71-1.93-4.1-3.05-6.48-4.42l-1.53-.84-12.78-7.4h0L222.68,3a7.09,7.09,0,0,0-7.15,0l-2.22,1.37a3.07,3.07,0,0,0,0,5.31L312.47,67c1.87,1.07,4.09,1.92,4.43,4.29a3.21,3.21,0,0,1-1.53,2.88c-3.24,1.82-7.16.92-10.06-.78L202.07,13.77a7,7,0,0,0-7.16-.06l-2.38,1.37A3.24,3.24,0,0,0,191,17.72a3.27,3.27,0,0,0,1.54,2.66Z" transform="translate(-1.63 -1.62)"/><path class="cls-2" d="M219.11,4a4.9,4.9,0,0,0-2.56.75l-2.38,1.34a1.52,1.52,0,0,0-.52.9,1.49,1.49,0,0,0,.52.91l99.32,57.36.85.41c1.71,1,4.09,2.32,4.44,5.37a4.92,4.92,0,0,1-2.4,4.81c-3.4,2-8,1.68-12.09-.74L201.05,15.47a4.85,4.85,0,0,0-5.11,0l-2.39,1.34a1.06,1.06,0,0,0-.52.91,1,1,0,0,0,.52.92L272.6,64.3h0l20.27,11.75c4.1,2.44,6.65,4,11.59,4.92,7,1.35,14.65.28,19.93-2.77,2.9-1.57,4.61-3.73,5.12-6a6.65,6.65,0,0,0-.85-4.7,11.65,11.65,0,0,0-.86-1A22.1,22.1,0,0,0,323,63.22L221.66,4.74A4.48,4.48,0,0,0,219.11,4Zm84.67,80.94c-5.62-1.08-8.86-3-12.95-5.42L191.51,22.13a5,5,0,0,1-2.39-4.41,4.94,4.94,0,0,1,2.39-4.35L193.89,12a9,9,0,0,1,9.2,0L306.16,71.59c1.2.68,4.95,2.6,8.18.8a1.07,1.07,0,0,0,.51-1c-.17-.86-.85-1.29-2.38-2.2L212.29,11.33A4.77,4.77,0,0,1,209.73,7a4.84,4.84,0,0,1,2.56-4.41l2.21-1.35a9.28,9.28,0,0,1,9.21,0L309.4,50.79l15.5,8.93a22.47,22.47,0,0,1,5.8,4.07,10.32,10.32,0,0,1,2.73,9.33,14,14,0,0,1-7,8.52,32.08,32.08,0,0,1-15.84,3.9A40.3,40.3,0,0,1,303.78,84.93Z" transform="translate(-1.63 -1.62)"/><path class="cls-3" d="M207.18,16.72l4.6-2.66L315.54,74l-.17.17c-3.24,1.87-7.16.92-10.06-.78Z" transform="translate(-1.63 -1.62)"/><path class="cls-2" d="M211.78,16.37l-.68.35,95.06,54.87a13.25,13.25,0,0,0,3.58,1.35l-98-56.57ZM304.29,75.1,206.16,18.4a1.86,1.86,0,0,1-1-1.68,1.9,1.9,0,0,1,1-1.76l4.6-2.66a1.84,1.84,0,0,1,1.87,0l103.93,60a1.81,1.81,0,0,1,.85,1.75,2.47,2.47,0,0,1-1,1.82,9.84,9.84,0,0,1-5.11,1.29A13.81,13.81,0,0,1,304.29,75.1Z" transform="translate(-1.63 -1.62)"/><path class="cls-3" d="M181.63,24.45v7L177,34.13l-5.11-3a7,7,0,0,0-7.15,0l-2.21,1.35A2.89,2.89,0,0,0,161,35.13V201.24a2.82,2.82,0,0,0,1.54,2.61l101.53,58.73c10.57,6.21,37,6.71,37.49-8.37V87.47a7.72,7.72,0,0,0-1.71-4c-1.88-2.66-4.94-4-7.67-5.66L192.53,20.38a6.75,6.75,0,0,0-7,0l-2.38,1.36a2.87,2.87,0,0,0-1.53,2.66Z" transform="translate(-1.63 -1.62)"/><path class="cls-2" d="M189,21.4a4.87,4.87,0,0,0-2.55.73l-2.22,1.36a1,1,0,0,0-.51.91v7.07a2.22,2.22,0,0,1-1,1.68l-4.6,2.66a1.94,1.94,0,0,1-2.05,0l-5.11-2.93a4.85,4.85,0,0,0-5.11,0l-2.38,1.35a1,1,0,0,0-.51.9v166a1,1,0,0,0,.51,1l101.71,58.73c6.81,4,21.46,5.44,29.3,1.14,3.41-1.8,5.11-4.46,5.28-7.8V88.49l-.17-.78a7,7,0,0,0-1.19-3c-1.36-1.87-3.58-3-5.62-4.24L191.51,22.13A4.5,4.5,0,0,0,189,21.4Zm74.11,242.93L161.35,205.55a5.19,5.19,0,0,1-2.38-4.31V35.13a5.11,5.11,0,0,1,2.55-4.35l2.21-1.36a9,9,0,0,1,9.21,0L177,31.81l2.56-1.54V24.4A5.13,5.13,0,0,1,182.13,20l2.39-1.35a8.9,8.9,0,0,1,9,0l99.5,57.53,1.53.79c2.56,1.41,5.11,2.83,7,5.36a10.87,10.87,0,0,1,1.87,4.75l.17,167.19c-.17,4.87-2.73,8.77-7.33,11.26-3.92,2.2-9.2,3.15-14.48,3.15C274.82,268.67,267.66,267,263.06,264.33Z" transform="translate(-1.63 -1.62)"/><path class="cls-4" d="M282.65,84.47Q232.82,55.74,183.16,27a2.74,2.74,0,0,1-1.53-2.55V36.71l93.53,54.05c2.9,1.68,6.81,2.58,10,.78A2.89,2.89,0,0,0,286.57,88C286.06,86.12,284.19,85.49,282.65,84.47Z" transform="translate(-1.63 -1.62)"/><path class="cls-2" d="M281.63,86.22l-98-56.62v6L276.18,89c1,.68,4.94,2.59,8,.79a1,1,0,0,0,.5-1.25c-.16-.66-.84-1.07-2.2-1.8l-.86-.52Zm-7.5,6.29-93.53-54a1.9,1.9,0,0,1-1-1.76V24.45a2,2,0,0,1,2-2h0a2.09,2.09,0,0,1,2,2,1,1,0,0,0,.51.9l99.33,57.48h0l.85.4c1.53.85,3.58,1.92,4.26,4.36a5.1,5.1,0,0,1-2.39,5.71,10.51,10.51,0,0,1-5.11,1.29A14.33,14.33,0,0,1,274.13,92.51Z" transform="translate(-1.63 -1.62)"/><path class="cls-3" d="M241.42,83.42,260,94.2c4.44,2.44,7.67,4.7,12.61,5.88,7.67,1.75,16.36.9,22.66-2.71,5.62-3.22,7.67-8.27,5.45-12.56-1.7-3.44-4.94-4.8-8-6.54l-8.52-5C253.69,55.66,223,38,192.53,20.38a6.75,6.75,0,0,0-7,0l-2.38,1.36a2.87,2.87,0,0,0-1.53,2.66,2.81,2.81,0,0,0,1.53,2.6c32.71,18.94,65.25,37.81,98,56.69,2.22,1.24,5.45,2.43,5.62,5a3.15,3.15,0,0,1-1.53,2.88c-3.24,1.8-7.15.9-10-.78L171.91,31.13a7,7,0,0,0-7.15,0l-2.21,1.35a3.06,3.06,0,0,0,0,5.31Z" transform="translate(-1.63 -1.62)"/><path class="cls-2" d="M189,21.4a4.87,4.87,0,0,0-2.55.73l-2.22,1.36a1,1,0,0,0-.51.91,1,1,0,0,0,.51.9l98,56.63,1.2.63c2,1.13,5.11,2.71,5.45,5.93a5,5,0,0,1-2.56,4.76c-3.4,2-7.83,1.68-12.1-.74L170.89,32.88a4.85,4.85,0,0,0-5.11,0l-2.38,1.35a1,1,0,0,0-.51.9.94.94,0,0,0,.51.9l79,45.61h0l20.44,11.82c3.41,2,6.3,3.74,10.23,4.64,7.49,1.76,15.5.8,21.12-2.49,4.6-2.6,6.47-6.51,4.6-9.9-1.2-2.42-3.41-3.61-5.79-5L191.51,22.13A4.15,4.15,0,0,0,189,21.4ZM272.09,102a37.22,37.22,0,0,1-11.24-5.1L161.52,39.54A5.24,5.24,0,0,1,159,35.13a5.11,5.11,0,0,1,2.55-4.35l2.21-1.36a9,9,0,0,1,9.21,0L276.18,89c1,.68,4.94,2.59,8,.79a1.1,1.1,0,0,0,.5-1c0-1-1.7-1.92-3.23-2.71a9.29,9.29,0,0,1-1.19-.68l-98.14-56.7a5,5,0,0,1,0-8.75l2.39-1.35a8.9,8.9,0,0,1,9,0l91.66,52.9,9.71,5.64c2.9,1.58,5.79,3.24,7.5,6.73,2.73,5.37.34,11.48-6.14,15.14a32,32,0,0,1-15.84,3.9A39,39,0,0,1,272.09,102Z" transform="translate(-1.63 -1.62)"/><path class="cls-3" d="M177,34.13l4.61-2.66,103.75,59.9-.17.17c-3.24,1.87-7.15.9-10-.78Z" transform="translate(-1.63 -1.62)"/><path class="cls-2" d="M181.63,33.79l-.52.34L276.18,89a9.92,9.92,0,0,0,3.4,1.35L181.63,33.79Zm92.5,58.72L176,35.81a1.86,1.86,0,0,1-1-1.68,1.89,1.89,0,0,1,1-1.76l4.6-2.66a2.19,2.19,0,0,1,2.05,0L286.4,89.62a1.89,1.89,0,0,1,.85,1.82,2.64,2.64,0,0,1-1,1.81,9.89,9.89,0,0,1-5.11,1.29A14.33,14.33,0,0,1,274.13,92.51Z" transform="translate(-1.63 -1.62)"/><path class="cls-4" d="M151.64,42.2v7L147,51.86l-5.11-2.93a7.06,7.06,0,0,0-7.16,0l-2.21,1.34A2.93,2.93,0,0,0,131,52.94V219a2.58,2.58,0,0,0,1.54,2.65L234.1,280.37c10.56,6.18,37,6.67,37.48-8.41V105.22a10.07,10.07,0,0,0-2.73-5.2c-2-1.92-4.77-3.23-7.15-4.63q-49.59-28.58-99.15-57.21a6.64,6.64,0,0,0-7,0l-2.39,1.36a2.88,2.88,0,0,0-1.53,2.66Z" transform="translate(-1.63 -1.62)"/><path class="cls-2" d="M159.14,39.2a5.48,5.48,0,0,0-2.73.68l-2.22,1.36a1,1,0,0,0-.51.91v7.07a2.28,2.28,0,0,1-1,1.74l-4.6,2.66a2.23,2.23,0,0,1-2,0l-5.11-2.95a4.94,4.94,0,0,0-5.11,0L133.41,52a.92.92,0,0,0-.51.91v166c.17.61.17.72.51,1l101.71,58.72c7,4,21.64,5.44,29.31,1.15,3.41-1.83,5.11-4.48,5.11-7.81l.17-165.72-.17-.8a7.06,7.06,0,0,0-2.05-4,29.29,29.29,0,0,0-5.11-3.4L161.69,39.88a5.3,5.3,0,0,0-2.55-.68Zm73.93,242.87L131.36,223.36A4.91,4.91,0,0,1,129,219V52.94a4.75,4.75,0,0,1,2.55-4.4l2.22-1.36a9,9,0,0,1,9.2,0L147,49.55l2.56-1.47V42.15a5.1,5.1,0,0,1,2.55-4.36l2.39-1.35a8.61,8.61,0,0,1,9,0l99.16,57.24,1.53.86a26.72,26.72,0,0,1,6,4.07,10.16,10.16,0,0,1,3.23,6.27L273.62,272c-.17,4.86-2.72,8.76-7.15,11.32-4.09,2.13-9.37,3.09-14.66,3.09C244.83,286.42,237.68,284.77,233.07,282.07Z" transform="translate(-1.63 -1.62)"/><path class="cls-4" d="M252.67,102,204.11,73.91h0L153,44.4a2.77,2.77,0,0,1-1.53-2.59V54.13l93.53,54c2.9,1.71,6.81,2.61,10.05.75a2.68,2.68,0,0,0,1.37-3.51C255.91,103.52,254.2,102.91,252.67,102Z" transform="translate(-1.63 -1.62)"/><path class="cls-2" d="M252.67,102h0ZM153.51,47v6L246,106.41c1,.62,4.93,2.59,8,.79a.84.84,0,0,0,.51-1.24c-.17-.69-.68-1-2-1.76l-.85-.49h0L153.51,47ZM244,109.91l-93.53-54a2.09,2.09,0,0,1-.85-1.75V41.81a1.84,1.84,0,0,1,1.87-2h0a2.1,2.1,0,0,1,2,2,1,1,0,0,0,.52.9l99.66,57.54.68.39a7.39,7.39,0,0,1,4.09,4.24,5.16,5.16,0,0,1-2.38,5.76,10.25,10.25,0,0,1-4.94,1.31A14.32,14.32,0,0,1,244,109.91Z" transform="translate(-1.63 -1.62)"/><path class="cls-4" d="M211.27,100.81l20.1,11.59c3.92,2.31,6.14,3.84,10.74,5,7.49,1.87,16.52,1.07,23-2.59,6-3.39,7.84-8.76,5.11-13.24-1.88-3.17-5.79-4.8-8.86-6.66L248.24,87.3h0L162.55,37.79a7.08,7.08,0,0,0-7.17,0L153,39.15a2.9,2.9,0,0,0-1.53,2.66A2.86,2.86,0,0,0,153,44.4c32.72,18.88,65.25,37.7,98,56.58,2,1.25,5.12,2.38,5.63,4.75a3,3,0,0,1-1.54,3.17c-3.24,1.86-7.15,1-10.05-.75L141.76,48.54a6.71,6.71,0,0,0-7,0l-2.38,1.35a3.06,3.06,0,0,0,0,5.31Z" transform="translate(-1.63 -1.62)"/><path class="cls-2" d="M159,38.81a5.31,5.31,0,0,0-2.56.68L154,40.91a.87.87,0,0,0-.52.9,1,1,0,0,0,.52.9l98,56.51,1,.68c2.21,1.13,4.94,2.56,5.45,5.44a4.8,4.8,0,0,1-2.38,5.3c-3.41,2-7.84,1.63-12.1-.73L140.74,50.27a4.64,4.64,0,0,0-4.94,0l-2.39,1.37a1,1,0,0,0-.51.9,1,1,0,0,0,.51.91l78.88,45.6h0l21.64,12.56c3.07,1.75,4.93,2.88,8.69,3.78,7.32,1.88,15.84.9,21.63-2.37,2.73-1.58,4.43-3.67,4.94-5.87a6.06,6.06,0,0,0-.68-4.54c-1.36-2.2-3.92-3.6-6.47-5l-100.52-58a4.87,4.87,0,0,0-2.55-.73Zm82.62,80.48a28.88,28.88,0,0,1-9.54-4.24L131.36,56.91a5,5,0,0,1,0-8.71l2.39-1.37a8.63,8.63,0,0,1,9,0L246,106.41c1,.62,4.93,2.59,8,.79a.76.76,0,0,0,.51-1.07c-.17-1-1.87-1.93-3.4-2.72-.34-.23-.86-.46-1.2-.67L152,46.15a5.21,5.21,0,0,1,0-8.75L154.37,36a9,9,0,0,1,9,0l85.86,49.58,14.65,8.48c2.9,1.57,6.14,3.33,8,6.44a9.36,9.36,0,0,1,1.2,7.62,13.67,13.67,0,0,1-7,8.32,31.73,31.73,0,0,1-15.68,3.9A35.83,35.83,0,0,1,241.59,119.29Z" transform="translate(-1.63 -1.62)"/><path class="cls-3" d="M146.87,51.47l4.6-2.59,103.75,59.9-.17.12c-3.06,1.93-7.15,1-10.05-.75Z" transform="translate(-1.63 -1.62)"/><path class="cls-2" d="M151.47,51.2l-.51.27L246,106.41a10,10,0,0,0,3.4,1.35l-98-56.56ZM244,109.91,145.85,53.22a2.26,2.26,0,0,1-1-1.75,2.3,2.3,0,0,1,1-1.71l4.6-2.66a2.29,2.29,0,0,1,2,0L256.25,107a2,2,0,0,1,1,1.8,2.27,2.27,0,0,1-1.19,1.81,9.33,9.33,0,0,1-4.94,1.31A14.32,14.32,0,0,1,244,109.91Z" transform="translate(-1.63 -1.62)"/><path class="cls-4" d="M131,54.35V219a2.58,2.58,0,0,0,1.54,2.65L234.1,280.37V114Z" transform="translate(-1.63 -1.62)"/><path class="cls-2" d="M232.05,115.1,132.9,57.86v161c.17.61.17.72.51,1l98.64,57V115.1Zm1,167L131.36,223.36A4.91,4.91,0,0,1,129,219V54.35a1.83,1.83,0,0,1,1-1.69,1.58,1.58,0,0,1,1.87,0l103.25,59.56a2.28,2.28,0,0,1,1,1.76V280.37a2.44,2.44,0,0,1-1,1.76,2.21,2.21,0,0,1-1,.22A1.75,1.75,0,0,1,233.07,282.07Z" transform="translate(-1.63 -1.62)"/><path class="cls-2" d="M263.74,253.92a2,2,0,0,0,2.05-2V131.56a2,2,0,0,0-2.05-2,2.09,2.09,0,0,0-2,2V252A2.09,2.09,0,0,0,263.74,253.92Z" transform="translate(-1.63 -1.62)"/><path class="cls-2" d="M288.79,171.34a2.09,2.09,0,0,0,2-2V117.19a2.1,2.1,0,0,0-2-2,2,2,0,0,0-2.05,2v52.12A2,2,0,0,0,288.79,171.34Z" transform="translate(-1.63 -1.62)"/><path class="cls-2" d="M295.26,184.75a2,2,0,0,0,2.05-2V113.36a1.94,1.94,0,0,0-2.05-2,1.9,1.9,0,0,0-1.87,2v69.41A2,2,0,0,0,295.26,184.75Z" transform="translate(-1.63 -1.62)"/><path class="cls-2" d="M324.06,201.82a2.13,2.13,0,0,0,2-2V96.68a2.06,2.06,0,0,0-2-2,2,2,0,0,0-2.05,2V199.77A2,2,0,0,0,324.06,201.82Z" transform="translate(-1.63 -1.62)"/><path class="cls-1" d="M248.81,300.27v6.87a5.21,5.21,0,0,1-1.33,2.14,7.68,7.68,0,0,1-1.54,1.16L130,377.35a15.85,15.85,0,0,1-14.35,0L8.5,315.39a6,6,0,0,1-2.75-3l-.06-.28v-6.88a5.55,5.55,0,0,0,2.81,3.3l107.17,62a15.85,15.85,0,0,0,14.35,0l115.92-66.9A5.76,5.76,0,0,0,248.81,300.27Z" transform="translate(-1.63 -1.62)"/><path class="cls-2" d="M7.7,311.75a4,4,0,0,0,1.83,1.89l107.18,61.95a13.75,13.75,0,0,0,12.34,0L244.9,308.68a4.44,4.44,0,0,0,1.14-.85,4,4,0,0,0,.76-1v-1.37L131.06,372.23a17.87,17.87,0,0,1-16.35,0L7.7,310.39v1.36Zm115.15,69.34a17,17,0,0,1-8.14-2l-107.23-62A8.05,8.05,0,0,1,3.79,313a5.94,5.94,0,0,1-.17-.92v-6.88a2,2,0,0,1,1.78-2,2.08,2.08,0,0,1,2.23,1.47,3.79,3.79,0,0,0,1.9,2.11L116.71,368.7a13.68,13.68,0,0,0,12.34,0L244.9,301.81a3.64,3.64,0,0,0,1.95-2.11,2,2,0,0,1,2.23-1.44,2,2,0,0,1,1.73,2v6.87a6.82,6.82,0,0,1-1.9,3.6,9.24,9.24,0,0,1-1.95,1.45l-115.9,66.93A17.15,17.15,0,0,1,122.85,381.09Z" transform="translate(-1.63 -1.62)"/><path class="cls-4" d="M8.5,300.23l115.9-66.91a16,16,0,0,1,14.36,0l107.18,61.94c3.94,2.29,3.94,6,0,8.3L130,370.47c-3.89,2.28-10.38,2.28-14.35,0L8.5,308.52C4.6,306.24,4.6,302.52,8.5,300.23Z" transform="translate(-1.63 -1.62)"/><path class="cls-2" d="M8.5,300.23h0Zm123.08-66.58a12.56,12.56,0,0,0-6.15,1.44L9.53,302c-1.21.71-1.95,1.57-1.95,2.38s.74,1.67,1.95,2.38L116.71,368.7a13.87,13.87,0,0,0,12.34,0L244.9,301.81c1.26-.71,1.95-1.59,1.95-2.39s-.69-1.68-1.95-2.39L137.72,235.09a12.47,12.47,0,0,0-6.14-1.44Zm-8.67,140.57a16.49,16.49,0,0,1-8.2-2L7.48,310.29c-2.48-1.47-4-3.62-4-5.91s1.48-4.46,4-5.91l115.84-66.91a18,18,0,0,1,16.43,0L247,293.5c2.52,1.47,4,3.62,4,5.92s-1.44,4.45-4,5.9l-115.9,66.91A16.59,16.59,0,0,1,122.91,374.22Z" transform="translate(-1.63 -1.62)"/><path class="cls-3" d="M108.61,346.12v5.19c2.53,12.13,32.73,12.39,35.3,0v-5.2c-2.57,12.28-32.3,12-35.17.49Z" transform="translate(-1.63 -1.62)"/><path class="cls-2" d="M111.89,353.73c2.69,3.17,8.89,4.75,14.46,4.75,5.28,0,11.2-1.48,14-4.61-3.79,2.32-8.92,3.34-13.33,3.43-5.22.08-11.14-1-15.15-3.57Zm14.46,8.81c-8.67,0-18.2-3.34-19.74-10.81v-5.61a2,2,0,0,1,1.78-2,2.12,2.12,0,0,1,2.23,1.61l0,.48c1.22,4.8,9.09,7.18,16.27,7.06,6.7-.13,13.93-2.51,15-7.54a2,2,0,0,1,2.19-1.61,2.08,2.08,0,0,1,1.85,2v5.2C144.33,359.2,135,362.54,126.35,362.54Z" transform="translate(-1.63 -1.62)"/><path class="cls-3" d="M138.81,337.9c-6.94-4-18.14-4-25.09,0s-6.94,10.47,0,14.47,18.15,4,25.09,0S145.7,341.88,138.81,337.9Z" transform="translate(-1.63 -1.62)"/><path class="cls-2" d="M126.25,337a23.51,23.51,0,0,0-11.49,2.7c-2.7,1.56-4.19,3.49-4.19,5.49s1.49,3.9,4.19,5.46c6.19,3.6,16.76,3.6,23,0,2.68-1.56,4.19-3.49,4.19-5.46s-1.51-3.93-4.19-5.49h0a24,24,0,0,0-11.54-2.7Zm0,20.47a27.6,27.6,0,0,1-13.55-3.3c-4-2.31-6.21-5.51-6.21-9s2.25-6.69,6.21-9c7.63-4.4,19.52-4.4,27.1,0h0c4,2.31,6.19,5.5,6.19,9s-2.18,6.67-6.19,9A27.71,27.71,0,0,1,126.25,357.42Z" transform="translate(-1.63 -1.62)"/><path class="cls-3" d="M138.64,283.05v60.58l0,.35c-2.08,8.16-22.74,8.16-24.8,0l-.07-.35V283.05c.07.24.12.43.17.67a6.23,6.23,0,0,0,1.49,2.29,13.28,13.28,0,0,0,6.09,3,20.07,20.07,0,0,0,13.1-1.32,9.48,9.48,0,0,0,3.22-2.66,6.2,6.2,0,0,0,.8-1.68Z" transform="translate(-1.63 -1.62)"/><path class="cls-2" d="M115.73,288.88v54.75c.69,2.51,5,4.43,10.45,4.43h0c5.4,0,9.76-1.92,10.45-4.57V288.88a11.58,11.58,0,0,1-1.14.64A21.72,21.72,0,0,1,121,291a17.87,17.87,0,0,1-5.29-2.15Zm10.45,63.26h0c-5.73,0-13-2-14.35-7.66a3.66,3.66,0,0,1-.17-.85V283.05a2.06,2.06,0,0,1,1.83-2,2,2,0,0,1,2.24,1.63,3.92,3.92,0,0,0,1.1,1.93,11.07,11.07,0,0,0,5.11,2.49,17.88,17.88,0,0,0,11.7-1.15,7,7,0,0,0,2.47-2,4.47,4.47,0,0,0,.52-1,2,2,0,0,1,2.23-1.68,1.91,1.91,0,0,1,1.85,1.85v60.58c0,.14-.12.6-.12.74C139.15,350.14,131.92,352.14,126.18,352.14Z" transform="translate(-1.63 -1.62)"/><path class="cls-2" d="M132.62,344.15a2,2,0,0,1-2.07-2V295.32a2,2,0,1,1,4.07,0v46.79A2,2,0,0,1,132.62,344.15Z" transform="translate(-1.63 -1.62)"/><path class="cls-2" d="M126.25,345.93a2,2,0,0,1-2-2V298.38a2,2,0,0,1,4.09,0v45.51A2.05,2.05,0,0,1,126.25,345.93Z" transform="translate(-1.63 -1.62)"/><path class="cls-2" d="M119.91,344.55a2,2,0,0,1-2-2V302.6a2,2,0,0,1,4.08,0v39.91A2.06,2.06,0,0,1,119.91,344.55Z" transform="translate(-1.63 -1.62)"/><path class="cls-3" d="M191.17,296.63v5.21c2.53,12.13,32.72,12.37,35.3,0v-5.21c-2.53,12.27-32.32,12-35.2.49Z" transform="translate(-1.63 -1.62)"/><path class="cls-2" d="M194.44,304.25c2.7,3.16,8.94,4.74,14.52,4.74h0c5.27,0,11.14-1.46,14-4.61a27.73,27.73,0,0,1-13.37,3.45c-5.58.07-11.09-1-15.16-3.58Zm14.52,8.8c-8.72,0-18.19-3.33-19.75-10.81l-.05-5.61a2,2,0,0,1,1.84-2,2.07,2.07,0,0,1,2.18,1.61l.1.48c1.21,4.8,9.19,7.27,16.25,7.05,6.66-.13,13.89-2.51,14.93-7.53a2,2,0,0,1,4,.41v5.21c-1.55,7.88-10.9,11.21-19.51,11.21Z" transform="translate(-1.63 -1.62)"/><path class="cls-3" d="M221.36,288.41c-7-4-18.15-4-25,0s-6.93,10.47,0,14.47,18.14,4,25.09,0S228.3,292.41,221.36,288.41Z" transform="translate(-1.63 -1.62)"/><path class="cls-2" d="M208.85,287.48a23.85,23.85,0,0,0-11.54,2.7c-2.7,1.56-4.13,3.49-4.18,5.47s1.48,3.93,4.18,5.48c6.25,3.58,16.82,3.58,23,0,2.69-1.55,4.18-3.51,4.18-5.48s-1.49-3.91-4.18-5.47h0a23.5,23.5,0,0,0-11.48-2.7Zm0,20.45a27.52,27.52,0,0,1-13.56-3.29c-4-2.31-6.2-5.5-6.2-9s2.18-6.68,6.2-9c7.58-4.38,19.46-4.4,27.1,0h0c4,2.32,6.2,5.52,6.2,9s-2.24,6.68-6.2,9A27.42,27.42,0,0,1,208.85,307.93Z" transform="translate(-1.63 -1.62)"/><path class="cls-3" d="M221.24,233.56v60.6l-.12.35c-2,8.16-22.72,8.14-24.73,0l-.12-.35v-60.6c0,.24.12.45.18.7a5.66,5.66,0,0,0,1.55,2.28,12.76,12.76,0,0,0,6,3,20.12,20.12,0,0,0,13.14-1.34,9.28,9.28,0,0,0,3.22-2.64,4.37,4.37,0,0,0,.74-1.68Z" transform="translate(-1.63 -1.62)"/><path class="cls-2" d="M198.35,239.39v54.77c.67,2.49,5,4.43,10.38,4.43h.05c5.35,0,9.71-1.94,10.4-4.59V239.39c-.41.26-.76.47-1.09.64a21.8,21.8,0,0,1-14.53,1.51,16.7,16.7,0,0,1-5.21-2.15Zm10.43,63.26h-.05c-5.74,0-12.93-2-14.34-7.66,0-.16-.12-.68-.12-.83v-60.6a2,2,0,0,1,1.83-2,2,2,0,0,1,2.18,1.66,4.76,4.76,0,0,0,1.09,1.89,11.33,11.33,0,0,0,5.11,2.49,18,18,0,0,0,11.71-1.15,7.09,7.09,0,0,0,2.53-2,3.9,3.9,0,0,0,.46-1,2.14,2.14,0,0,1,2.23-1.68,1.91,1.91,0,0,1,1.84,1.85v60.6a2.87,2.87,0,0,1-.12.76C221.71,300.65,214.53,302.65,208.78,302.65Z" transform="translate(-1.63 -1.62)"/><path class="cls-2" d="M215.15,294.66a2,2,0,0,1-2-2V245.83a2,2,0,0,1,4.09,0v46.81A2,2,0,0,1,215.15,294.66Z" transform="translate(-1.63 -1.62)"/><path class="cls-2" d="M208.85,296.44a2,2,0,0,1-2.08-2V248.89a2,2,0,0,1,4.09,0v45.53A2,2,0,0,1,208.85,296.44Z" transform="translate(-1.63 -1.62)"/><path class="cls-2" d="M202.54,295.06a2,2,0,0,1-2-2V253.13a2,2,0,1,1,4,0V293A2,2,0,0,1,202.54,295.06Z" transform="translate(-1.63 -1.62)"/><path class="cls-3" d="M150.87,273.43v5.19c2.53,12.13,32.72,12.39,35.25,0v-5.21c-2.53,12.29-32.28,12-35.15.49Z" transform="translate(-1.63 -1.62)"/><path class="cls-2" d="M154.19,281.09c2.7,3,8.79,4.69,14.41,4.69h0c5.28,0,11.2-1.47,14-4.6-3.81,2.34-8.91,3.34-13.32,3.43-5.4.14-11-1-15.11-3.52Zm14.41,8.76c-8.73,0-18.2-3.34-19.74-10.81l-.07-5.61a2.06,2.06,0,0,1,1.84-2,2.09,2.09,0,0,1,2.25,1.61l.05.49c1.21,4.79,9.13,7.28,16.24,7,6.72-.12,14-2.51,15-7.53a1.9,1.9,0,0,1,2.18-1.61,2,2,0,0,1,1.84,2v5.21c-1.61,7.89-11,11.23-19.58,11.23Z" transform="translate(-1.63 -1.62)"/><path class="cls-3" d="M181,265.21c-6.89-4-18.08-4-25,0s-6.94,10.47,0,14.46,18.15,4,25.09,0S188,269.21,181,265.21Z" transform="translate(-1.63 -1.62)"/><path class="cls-2" d="M168.49,264.26A23.39,23.39,0,0,0,157,267c-2.7,1.55-4.19,3.5-4.19,5.47s1.49,3.91,4.19,5.47c6.2,3.6,16.77,3.6,23,0,2.69-1.56,4.13-3.49,4.13-5.47s-1.44-3.92-4.13-5.47h0a23.85,23.85,0,0,0-11.54-2.71Zm0,20.47a27.46,27.46,0,0,1-13.55-3.29c-4-2.32-6.2-5.5-6.2-9s2.18-6.69,6.2-9c7.57-4.37,19.51-4.37,27.09,0h0c4,2.33,6.21,5.51,6.21,9s-2.19,6.68-6.21,9A27.47,27.47,0,0,1,168.49,284.73Z" transform="translate(-1.63 -1.62)"/><path class="cls-3" d="M67.35,272.7v5.21c2.52,12.13,32.71,12.39,35.29,0V272.7c-2.52,12.27-32.32,12-35.19.49Z" transform="translate(-1.63 -1.62)"/><path class="cls-2" d="M70.62,280.33c2.7,3.17,8.94,4.74,14.51,4.74,5.28,0,11.15-1.47,14-4.61-3.81,2.33-8.84,3.35-13.33,3.44-5.4.1-11.09-1-15.15-3.57Zm14.51,8.81c-8.72,0-18.18-3.34-19.74-10.81l0-5.63a2,2,0,0,1,1.83-2,1.91,1.91,0,0,1,2.18,1.61l.11.48c1.16,4.66,8.61,7,15.62,7h.64c6.65-.14,13.88-2.51,14.92-7.52a2,2,0,0,1,2.23-1.61,2,2,0,0,1,1.78,2v5.21C103.11,285.8,93.68,289.14,85.13,289.14Z" transform="translate(-1.63 -1.62)"/><path class="cls-3" d="M97.54,264.48c-6.94-4-18.15-4-25.09,0S65.57,275,72.45,279s18.15,4,25.09,0S104.43,268.48,97.54,264.48Z" transform="translate(-1.63 -1.62)"/><path class="cls-2" d="M85,263.55a23.65,23.65,0,0,0-11.54,2.7c-2.7,1.56-4.19,3.51-4.19,5.48s1.49,3.91,4.19,5.47c6.25,3.6,16.77,3.6,23,0,2.7-1.56,4.19-3.49,4.19-5.47s-1.49-3.92-4.19-5.48A23.46,23.46,0,0,0,85,263.55ZM85,284a27.83,27.83,0,0,1-13.57-3.27c-4-2.32-6.19-5.5-6.19-9s2.18-6.69,6.19-9c7.6-4.4,19.47-4.4,27.1,0,4,2.3,6.21,5.5,6.21,9s-2.25,6.68-6.21,9A27.56,27.56,0,0,1,85,284Z" transform="translate(-1.63 -1.62)"/><path class="cls-3" d="M68.14,320.93v5.2c2.48,12.13,32.67,12.4,35.25,0v-5.2c-2.53,12.27-32.33,12-35.2.5Z" transform="translate(-1.63 -1.62)"/><path class="cls-2" d="M71.36,328.56c2.7,3.16,9,4.74,14.52,4.74,5.29,0,11.19-1.45,14-4.6C96,331,91,332,86.52,332.12c-5.23.11-11.09-1-15.16-3.56Zm14.52,8.81c-8.72,0-18.19-3.35-19.74-10.82l-.06-5.62a2,2,0,0,1,1.84-2,2,2,0,0,1,2.18,1.61l.12.48c1.19,4.8,9,7.2,16.23,7.05,6.66-.14,13.89-2.51,14.93-7.53a2.06,2.06,0,0,1,4.08.4v5.2C103.86,334,94.49,337.37,85.88,337.37Z" transform="translate(-1.63 -1.62)"/><path class="cls-3" d="M98.28,312.73c-6.88-4-18.13-4-25,0s-7,10.47,0,14.46,18.14,4,25,0S105.22,316.72,98.28,312.73Z" transform="translate(-1.63 -1.62)"/><path class="cls-2" d="M85.77,311.79a24.07,24.07,0,0,0-11.54,2.68C71.53,316,70.1,318,70.1,320s1.43,3.91,4.13,5.47c6.27,3.6,16.82,3.6,23,0,2.7-1.56,4.2-3.5,4.2-5.47s-1.5-3.93-4.2-5.49h0a23.71,23.71,0,0,0-11.48-2.68Zm0,20.45A27.63,27.63,0,0,1,72.23,329c-4-2.32-6.2-5.52-6.2-9s2.16-6.7,6.2-9c7.57-4.39,19.51-4.39,27.09,0h0c4,2.3,6.2,5.5,6.2,9s-2.18,6.68-6.2,9A27.7,27.7,0,0,1,85.77,332.24Z" transform="translate(-1.63 -1.62)"/><path class="cls-3" d="M98.16,257.87v60.58l-.1.35c-2,8.17-22.74,8.17-24.74,0l-.13-.35V257.87c.07.25.13.44.18.68a6.19,6.19,0,0,0,1.56,2.3,12.7,12.7,0,0,0,6,3,20,20,0,0,0,13.16-1.33,9.14,9.14,0,0,0,3.2-2.63,4.91,4.91,0,0,0,.76-1.7Z" transform="translate(-1.63 -1.62)"/><path class="cls-2" d="M75.27,263.71v54.74c.67,2.51,5,4.43,10.45,4.43h0c5.33,0,9.74-1.92,10.38-4.56V263.71c-.41.24-.74.46-1.09.64a22,22,0,0,1-14.51,1.5,16.87,16.87,0,0,1-5.23-2.14ZM85.72,327h0c-5.81,0-13-2-14.41-7.67,0-.15-.12-.67-.12-.85V257.87a2.07,2.07,0,0,1,1.83-2,2,2,0,0,1,2.18,1.63,4.15,4.15,0,0,0,1.16,1.94,10.83,10.83,0,0,0,5.11,2.49,17.86,17.86,0,0,0,11.64-1.14,7.27,7.27,0,0,0,2.53-2,3.87,3.87,0,0,0,.46-1A2.19,2.19,0,0,1,98.41,256a1.88,1.88,0,0,1,1.76,1.85v60.58a3.09,3.09,0,0,1-.11.75C98.63,324.94,91.45,327,85.72,327Z" transform="translate(-1.63 -1.62)"/><path class="cls-2" d="M92.07,319a2.06,2.06,0,0,1-2-2V270.14a2,2,0,0,1,4.09,0v46.79A2.06,2.06,0,0,1,92.07,319Z" transform="translate(-1.63 -1.62)"/><path class="cls-2" d="M85.77,320.75a2,2,0,0,1-2.07-2V273.2a2,2,0,1,1,4.08,0v45.51A2,2,0,0,1,85.77,320.75Z" transform="translate(-1.63 -1.62)"/><path class="cls-2" d="M79.46,319.35a2,2,0,0,1-2-2v-39.9a2,2,0,1,1,4,0v39.9A2,2,0,0,1,79.46,319.35Z" transform="translate(-1.63 -1.62)"/><path class="cls-3" d="M26.42,297.48v5.21c2.51,12.13,32.72,12.39,35.3,0v-5.21c-2.58,12.27-32.32,12-35.19.5Z" transform="translate(-1.63 -1.62)"/><path class="cls-2" d="M29.69,305.11c2.69,3.17,8.9,4.74,14.47,4.74,5.28,0,11.18-1.47,14-4.62-3.79,2.34-8.9,3.36-13.38,3.45-5.28.17-11.07-1-15.09-3.57Zm14.47,8.81c-8.67,0-18.2-3.34-19.76-10.82v-5.62a2,2,0,0,1,4-.4l.1.49c1.16,4.77,8.85,7.14,16.2,7,6.71-.14,13.94-2.51,15-7.53a2,2,0,0,1,4,.4v5.21C62.12,310.58,52.76,313.92,44.16,313.92Z" transform="translate(-1.63 -1.62)"/><path class="cls-3" d="M56.6,289.26c-6.94-4-18.13-4-25.09,0s-6.89,10.49,0,14.49,18.15,4,25.09,0S63.5,293.26,56.6,289.26Z" transform="translate(-1.63 -1.62)"/><path class="cls-2" d="M44,288.33A23.56,23.56,0,0,0,32.55,291c-2.7,1.55-4.19,3.51-4.19,5.48s1.49,3.91,4.19,5.47c6.21,3.6,16.77,3.6,23,0,2.7-1.56,4.19-3.5,4.19-5.47s-1.49-3.93-4.19-5.48A23.76,23.76,0,0,0,44,288.33Zm0,20.47a27.5,27.5,0,0,1-13.55-3.31c-4-2.3-6.2-5.5-6.2-9s2.24-6.69,6.2-9c7.63-4.39,19.52-4.39,27.1,0,4,2.31,6.19,5.51,6.19,9s-2.18,6.68-6.19,9A27.5,27.5,0,0,1,44,308.8Z" transform="translate(-1.63 -1.62)"/><path class="cls-3" d="M56.43,234.41V295l0,.34c-2.06,8.17-22.72,8.15-24.8,0l-.07-.34v-60.6c.07.26.12.45.19.69a5.83,5.83,0,0,0,1.49,2.29,13.37,13.37,0,0,0,6.09,3,19.9,19.9,0,0,0,13.08-1.33,9.07,9.07,0,0,0,3.22-2.65,5.85,5.85,0,0,0,.8-1.67Z" transform="translate(-1.63 -1.62)"/><path class="cls-2" d="M33.53,240.26V295c.7,2.51,5.06,4.43,10.44,4.43h0c5.41,0,9.76-1.92,10.4-4.57l.05-54.61-1.09.64a22.14,22.14,0,0,1-14.52,1.5,18.15,18.15,0,0,1-5.28-2.14ZM44,303.5h0c-5.73,0-13-2-14.35-7.66a4.61,4.61,0,0,1-.12-.83v-60.6a2,2,0,0,1,4-.4,3.76,3.76,0,0,0,1.09,1.92,11.09,11.09,0,0,0,5.11,2.51,18,18,0,0,0,11.71-1.16,7.17,7.17,0,0,0,2.48-2,2.79,2.79,0,0,0,.45-1,2.19,2.19,0,0,1,2.3-1.69,1.9,1.9,0,0,1,1.83,1.83V295c0,.14-.12.64-.12.77C57,301.5,49.71,303.5,44,303.5Z" transform="translate(-1.63 -1.62)"/><path class="cls-2" d="M50.41,295.53a2,2,0,0,1-2.06-2v-46.8a2,2,0,0,1,4.06,0v46.8A2,2,0,0,1,50.41,295.53Z" transform="translate(-1.63 -1.62)"/><path class="cls-2" d="M44,297.29a2,2,0,0,1-2-2v-45.5a2,2,0,1,1,4.07,0v45.5A2,2,0,0,1,44,297.29Z" transform="translate(-1.63 -1.62)"/><path class="cls-2" d="M37.78,295.91a2,2,0,0,1-2.06-2V254a2,2,0,1,1,4.06,0v39.9A2,2,0,0,1,37.78,295.91Z" transform="translate(-1.63 -1.62)"/><path class="cls-3" d="M149.61,320.84V326c2.52,12.15,32.72,12.39,35.24,0v-5.19c-2.52,12.27-32.27,12-35.19.48Z" transform="translate(-1.63 -1.62)"/><path class="cls-2" d="M152.88,328.45c2.64,3.17,8.89,4.75,14.46,4.75,5.28,0,11.2-1.46,14-4.61-3.79,2.34-8.89,3.34-13.37,3.43-5.28.08-11.08-1-15.09-3.57Zm14.46,8.81c-8.72,0-18.2-3.34-19.74-10.81l-.07-5.61a2,2,0,0,1,4-.41l.11.48c1.21,4.79,9,7.2,16.24,7.06,6.72-.14,13.9-2.53,15-7.54a1.92,1.92,0,0,1,2.18-1.61,2,2,0,0,1,1.83,2V326C185.3,333.92,175.94,337.26,167.34,337.26Z" transform="translate(-1.63 -1.62)"/><path class="cls-3" d="M179.75,312.62c-6.9-4-18.15-4-25,0s-7,10.47,0,14.47,18.14,4,25,0S186.69,316.62,179.75,312.62Z" transform="translate(-1.63 -1.62)"/><path class="cls-2" d="M167.22,311.69a23.46,23.46,0,0,0-11.47,2.7c-2.7,1.55-4.19,3.49-4.19,5.47s1.49,3.92,4.12,5.46c6.26,3.6,16.83,3.6,23.08,0,2.65-1.54,4.14-3.49,4.14-5.46s-1.49-3.92-4.14-5.47h0a23.56,23.56,0,0,0-11.49-2.7Zm0,20.45a27.7,27.7,0,0,1-13.55-3.29c-4-2.32-6.19-5.5-6.19-9s2.18-6.69,6.19-9c7.58-4.38,19.52-4.38,27.1,0,4,2.31,6.2,5.5,6.2,9s-2.19,6.67-6.2,9A27.7,27.7,0,0,1,167.22,332.14Z" transform="translate(-1.63 -1.62)"/><path class="cls-3" d="M179.63,257.77v60.6l-.13.34c-2,8.15-22.71,8.15-24.72,0l-.07-.34v-60.6a1.84,1.84,0,0,0,.17.69,5.59,5.59,0,0,0,1.49,2.29,13.33,13.33,0,0,0,6.09,3,20.12,20.12,0,0,0,13.08-1.34,8.9,8.9,0,0,0,3.22-2.65,4.31,4.31,0,0,0,.74-1.67Z" transform="translate(-1.63 -1.62)"/><path class="cls-2" d="M156.72,263.6v54.77c.69,2.5,5.05,4.43,10.45,4.43h0c5.34,0,9.76-1.93,10.38-4.59V263.6a6.45,6.45,0,0,1-1.09.64A21.63,21.63,0,0,1,162,265.75a17.17,17.17,0,0,1-5.29-2.15Zm10.45,63.26h0c-5.75,0-13-2-14.41-7.66,0-.16-.13-.68-.13-.83v-60.6a2.06,2.06,0,0,1,1.86-2,1.94,1.94,0,0,1,2.18,1.61,4,4,0,0,0,1.09,1.93,11,11,0,0,0,5.17,2.49,17.6,17.6,0,0,0,11.64-1.14,7.45,7.45,0,0,0,2.53-2,2.39,2.39,0,0,0,.45-1,2.2,2.2,0,0,1,2.25-1.69,1.9,1.9,0,0,1,1.83,1.85v60.6a2.87,2.87,0,0,1-.12.76C180.08,324.86,172.91,326.86,167.17,326.86Z" transform="translate(-1.63 -1.62)"/><path class="cls-2" d="M173.54,318.87a2,2,0,0,1-2-2V270a2,2,0,1,1,4.07,0v46.81A2,2,0,0,1,173.54,318.87Z" transform="translate(-1.63 -1.62)"/><path class="cls-2" d="M167.22,320.65a2.05,2.05,0,0,1-2.06-2V273.1a2,2,0,1,1,4.07,0v45.51A2,2,0,0,1,167.22,320.65Z" transform="translate(-1.63 -1.62)"/><path class="cls-2" d="M160.91,319.27a2,2,0,0,1-2-2V277.34a2,2,0,1,1,4.08,0v39.89A2.06,2.06,0,0,1,160.91,319.27Z" transform="translate(-1.63 -1.62)"/><path class="cls-4" d="M240.93,223.72,126.3,157.53a2.37,2.37,0,0,0-1.44-.36l-58.15,4.2a5.06,5.06,0,0,0-1.79.57,7.67,7.67,0,0,0-1.71,1.49L4.55,227.87A9.7,9.7,0,0,0,2,233.7v3c.07.45.07.62.41.92l114.69,66.2c-.4-.29-.4-.48-.47-.92l.07-3a9.06,9.06,0,0,1,2.53-5.85l58.61-64.43a8.13,8.13,0,0,1,2.18-1.7,5.22,5.22,0,0,1,1.31-.36l58.16-4.21A2.4,2.4,0,0,1,240.93,223.72Z" transform="translate(-1.63 -1.62)"/><path class="cls-2" d="M4,236.19,114.63,300v-.14a11.79,11.79,0,0,1,3-7.13l58.73-64.51a9.38,9.38,0,0,1,2.75-2.15,7,7,0,0,1,1.95-.55l52.41-3.79L125.26,159.3l-58.43,4.1a2.05,2.05,0,0,0-.92.34,6.49,6.49,0,0,0-1.26,1.09L6,229.22a7.25,7.25,0,0,0-1.95,4.62L4,236.19Zm113,69.61a1.82,1.82,0,0,1-1-.27L1.44,239.34A3.19,3.19,0,0,1,0,236.83V233.7a11.33,11.33,0,0,1,3-7.14l58.66-64.51a11.81,11.81,0,0,1,2.18-1.8,6.47,6.47,0,0,1,2.6-.9l58.26-4.22a4.48,4.48,0,0,1,2.58.62L242,222a2,2,0,0,1,.75,2.75,2.06,2.06,0,0,1-2.76.8l-.24-.12-58.26,4.2a3.38,3.38,0,0,0-.69.21,6.11,6.11,0,0,0-1.49,1.23l-58.55,64.38a7.18,7.18,0,0,0-2,4.62v2.51a2.08,2.08,0,0,1,0,2.37A1.9,1.9,0,0,1,117.06,305.8Z" transform="translate(-1.63 -1.62)"/><path class="cls-4" d="M239.5,223.35l-58.16,4.21a5.56,5.56,0,0,0-3.49,2.06l-58.61,64.43a9.22,9.22,0,0,0-2.53,5.85l-.07,3c0,.9.7,1.27,1.51.8l122.32-71.9a3.19,3.19,0,0,0,1.43-2.52l.07-2.94C242,224.36,241,223.25,239.5,223.35Z" transform="translate(-1.63 -1.62)"/><path class="cls-2" d="M239.5,223.35h0Zm.22,2-.05,0-58.21,4.2a4,4,0,0,0-2.13,1.38l-58.6,64.44a7.28,7.28,0,0,0-2,4.5v1L239.45,230a1.37,1.37,0,0,0,.45-.78v-3a1.59,1.59,0,0,0-.18-.9ZM117.46,305.89a2.72,2.72,0,0,1-1.39-.36,3,3,0,0,1-1.44-2.7v-2.94a11.63,11.63,0,0,1,3.05-7.2l58.68-64.44a7.3,7.3,0,0,1,4.81-2.72l58.15-4.2a4.06,4.06,0,0,1,3.22,1.07,4.85,4.85,0,0,1,1.44,3.9v2.95a5.37,5.37,0,0,1-2.47,4.26L119.19,305.4A3.4,3.4,0,0,1,117.46,305.89Z" transform="translate(-1.63 -1.62)"/><polygon class="cls-3" points="223 231.51 132.42 284.75 177.87 234.78 223 231.51"/><path class="cls-2" d="M180.48,238.35l-35.93,39.48,71.59-42-35.66,2.56Zm-46.43,50.06a2,2,0,0,1-1.49-3.4L178,235a2.06,2.06,0,0,1,1.38-.66l45.11-3.25a2,2,0,0,1,1.14,3.78l-90.56,53.23A2.15,2.15,0,0,1,134.05,288.41Z" transform="translate(-1.63 -1.62)"/><path class="cls-1" d="M240.93,223.72,126.3,157.53a2.37,2.37,0,0,0-1.44-.36l-58.15,4.2a5.06,5.06,0,0,0-1.79.57l115.11,66a5.22,5.22,0,0,1,1.31-.36l58.16-4.21A2.4,2.4,0,0,1,240.93,223.72Z" transform="translate(-1.63 -1.62)"/><path class="cls-2" d="M71,163.1l109.24,62.61a5.53,5.53,0,0,1,.81-.16l52.41-3.79L125.26,159.3,71,163.1ZM180,230a1.85,1.85,0,0,1-1-.26L64,163.71a2,2,0,0,1,.05-3.57,6.28,6.28,0,0,1,2.42-.79l58.26-4.22a4.48,4.48,0,0,1,2.58.62L242,222a2,2,0,0,1,.75,2.75,2.06,2.06,0,0,1-2.76.8l-.24-.12-58.26,4.2a3.38,3.38,0,0,0-.69.21A1.75,1.75,0,0,1,180,230Z" transform="translate(-1.63 -1.62)"/><path class="cls-1" d="M90.06,183.42c-2.8-1.61-3-4.43-.15-6l2.16-1.19c2.94-1.56,7.43-1.63,10.18,0,13.94,8,38.86,22.35,52.75,30.38,2.81,1.61,2.81,4.26,0,5.86l-2.12,1.22a11.61,11.61,0,0,1-10.4,0C123.88,202.88,108.67,194.16,90.06,183.42Z" transform="translate(-1.63 -1.62)"/><path class="cls-2" d="M97.25,177a9.07,9.07,0,0,0-4.19.94l-2.23,1.19c-.52.33-.92.75-.92,1.13s.35.86,1.19,1.36v0l52.41,30.19a9.58,9.58,0,0,0,8.33,0l2.13-1.23c.81-.45,1.09-.92,1.09-1.16s-.35-.74-1.09-1.18L101.26,178a8.33,8.33,0,0,0-4-.92ZM147.7,216.9a12.55,12.55,0,0,1-6.19-1.5L89,185.18a5.85,5.85,0,0,1-3.21-4.89,5.41,5.41,0,0,1,3-4.67l2.23-1.23a13.48,13.48,0,0,1,12.17,0L156,204.81a5.6,5.6,0,0,1,3.1,4.7A5.51,5.51,0,0,1,156,214.2l-2.13,1.21A12.4,12.4,0,0,1,147.7,216.9Z" transform="translate(-1.63 -1.62)"/><path class="cls-1" d="M102.25,176.19c13.94,8,38.86,22.35,52.75,30.38,2.81,1.61,2.81,4.26,0,5.86l-2.12,1.22a11.61,11.61,0,0,1-10.4,0c-14.35-8.31-26.75-15.42-40.23-23.19Z" transform="translate(-1.63 -1.62)"/><path class="cls-2" d="M104.31,189.27l39.2,22.59a9.58,9.58,0,0,0,8.33,0l2.13-1.23c.81-.45,1.09-.92,1.09-1.16s-.35-.74-1.09-1.18L104.31,179.7v9.57ZM147.7,216.9a12.55,12.55,0,0,1-6.19-1.5l-40.25-23.19a2,2,0,0,1-1-1.77V176.19a2.06,2.06,0,0,1,1-1.77,2,2,0,0,1,2,0L156,204.81a5.6,5.6,0,0,1,3.1,4.7A5.51,5.51,0,0,1,156,214.2l-2.13,1.21A12.4,12.4,0,0,1,147.7,216.9Z" transform="translate(-1.63 -1.62)"/><path class="cls-4" d="M101.33,131.51c8.2-4.71,12.73-8,23.65-2.3a49,49,0,0,1,16.3,14.51c12.86,17.46,17.17,42.43,4.14,50.36l-6,3.42c15.26-9.65,5.62-37-4-50.09C128.48,137.94,114,124.93,101.33,131.51Z" transform="translate(-1.63 -1.62)"/><path class="cls-2" d="M113.49,128.31c9.71,2.38,18.73,11.26,23.61,17.89,7.68,10.42,14.22,27.49,11.87,40-.11.7-.28,1.37-.45,2a18.61,18.61,0,0,0,2.3-6c2.06-10.46-2.42-25.44-11.21-37.28A46.93,46.93,0,0,0,124.07,131c-4.49-2.32-7.7-3-10.58-2.7Zm26,71.23a1.94,1.94,0,0,1-1.73-1,2,2,0,0,1,.64-2.77c3.54-2.23,5.73-5.71,6.59-10.33,2.13-11.25-4.13-27.37-11.12-36.86-6.27-8.51-20-21.32-31.53-15.29a2.08,2.08,0,0,1-2.75-.84,2,2,0,0,1,.79-2.73l1.11-.64c7.56-4.41,13.08-7.61,24.45-1.71a50.69,50.69,0,0,1,17,15.12c9.42,12.72,14.17,29,11.89,40.47-1.16,5.78-4,10.21-8.34,12.83l-6,3.46A2.05,2.05,0,0,1,139.45,199.54Z" transform="translate(-1.63 -1.62)"/><path class="cls-3" d="M120.38,133.39c14.86,8.58,27,29.49,27,46.67s-12.12,24.14-27,15.56S93.46,166.13,93.46,149,105.52,124.79,120.38,133.39Z" transform="translate(-1.63 -1.62)"/><path class="cls-2" d="M108.39,131.73a11.8,11.8,0,0,0-6,1.54c-4.43,2.56-6.91,8.14-6.91,15.68,0,16.51,11.67,36.65,26,44.9,6.54,3.77,12.56,4.45,17,1.89s6.89-8.14,6.89-15.68c0-16.51-11.59-36.65-25.89-44.9h0a22.68,22.68,0,0,0-11-3.43Zm24,69.61a26.28,26.28,0,0,1-13-4c-15.45-8.91-28-30.63-28-48.43,0-9.07,3.22-15.89,8.94-19.21s13.22-2.65,21.08,1.89c15.43,8.91,27.94,30.62,27.94,48.43,0,9.07-3.14,15.88-8.89,19.21A15.91,15.91,0,0,1,132.44,201.34Z" transform="translate(-1.63 -1.62)"/><path class="cls-3" d="M127.1,182.52a4.21,4.21,0,0,1-2.19-.7c-5-3.09-9.24-5.57-13.54-8a2,2,0,1,1,2.07-3.53c4.07,2.35,8.15,4.74,12.86,7.64l0-6.78a3.74,3.74,0,0,0-1.31-2.32c-2-1.12-4-2.37-6-3.58-1.85-1.11-3.56-2.18-5.17-3.1a6.84,6.84,0,0,1-3.39-5.86v-7.06a3.87,3.87,0,0,1,1.83-3.44,3.56,3.56,0,0,1,3.74.43c3.5,2.35,7.51,4.83,12.29,7.56a2,2,0,0,1-2.06,3.53c-4.49-2.58-8.34-4.95-11.67-7.2l0,6.2a2.73,2.73,0,0,0,1.32,2.31c1.66.94,3.44,2,5.28,3.17s4,2.41,5.91,3.53a7.54,7.54,0,0,1,3.39,5.85l-.07,7.6a3.63,3.63,0,0,1-1.71,3.39A3.16,3.16,0,0,1,127.1,182.52Z" transform="translate(-1.63 -1.62)"/><path class="cls-3" d="M120,184.42a2,2,0,0,1-2-2.06c0-4.17.06-8.29.13-12.4.05-8.17.15-16.27.05-24.47a2,2,0,0,1,2-2.08,1.9,1.9,0,0,1,2.06,2c.13,8.25,0,16.39-.1,24.59,0,4.1,0,8.21,0,12.37A2.11,2.11,0,0,1,120,184.42Z" transform="translate(-1.63 -1.62)"/><path class="cls-4" d="M204.78,314v83.25c0,7.07,4.95,10,11.06,6.41q64.3-37.06,128.5-74.17c6.12-3.54,11.11-12.19,11.11-19.24V227c0-7.07-5-9.95-11.11-6.42q-64.21,37.08-128.5,74.18C209.73,298.24,204.78,306.89,204.78,314Z" transform="translate(-1.63 -1.62)"/><path class="cls-2" d="M349.29,220.75a8.3,8.3,0,0,0-4.08,1.27L216.72,296.2c-5.53,3.21-10.24,11.35-10.24,17.76v83.25c0,2.78.87,4.8,2.38,5.7s3.73.61,6.16-.78L343.47,328c5.57-3.21,10.24-11.34,10.28-17.75V227c0-2.78-.86-4.8-2.43-5.69a3.83,3.83,0,0,0-2-.51ZM210.89,406.86a7.52,7.52,0,0,1-3.73-1c-2.67-1.54-4.12-4.62-4.12-8.68V314c0-7.63,5.38-16.92,12-20.74l128.45-74.17c3.53-2.05,6.93-2.31,9.61-.78s4.08,4.63,4.08,8.68v83.26c0,7.62-5.34,16.93-12,20.73L216.72,405.11A11.7,11.7,0,0,1,210.89,406.86Z" transform="translate(-1.63 -1.62)"/><polygon class="cls-1" points="203.15 322.17 203.15 347.96 353.82 260.95 353.82 235.16 203.15 322.17"/><path class="cls-2" d="M206.48,324.78V346.6l147.27-85V239.77l-147.27,85Zm-1.7,26.52a1.7,1.7,0,0,1-1.74-1.72V323.79a1.68,1.68,0,0,1,.86-1.48l150.68-87a1.76,1.76,0,0,1,1.75,0,1.69,1.69,0,0,1,.83,1.49v25.79a1.69,1.69,0,0,1-.83,1.49l-150.73,87A1.65,1.65,0,0,1,204.78,351.3Z" transform="translate(-1.63 -1.62)"/><path class="cls-1" d="M269.29,439.78c-1-.6-5.09-3-6.16-3.56-2.76-2.29-3.2-3.82-3.26-7.18-.23-27.79,0-55.58,0-83.36A24.55,24.55,0,0,1,271,326.44q64.22-37.1,128.49-74.19c3.16-1.46,4.48-2,7.83-.76,1.06.6,5.13,2.95,6.16,3.56-3.35-1.26-4.67-.71-7.82.75Q341.36,292.9,277.15,330A24.5,24.5,0,0,0,266,349.23V432.6C266.38,436.09,266.53,437.51,269.29,439.78Z" transform="translate(-1.63 -1.62)"/><path class="cls-2" d="M404.19,252.47c-1.11,0-2.14.47-4,1.35L271.87,327.91a23,23,0,0,0-10.24,17.91c0,9.12-.06,18.38-.11,27.64,0,18.22-.08,37.05.11,55.57,0,3,.33,4,2.61,5.86l.34.21c-.09-.71-.19-1.48-.25-2.34V349.23a26.38,26.38,0,0,1,11.86-20.66l128.58-74.26c.82-.38,1.6-.73,2.29-1l-.59-.35a6.64,6.64,0,0,0-2.28-.5Zm-134.9,189a1.85,1.85,0,0,1-.88-.24l-6.11-3.55c-3.54-2.87-4.08-5-4.13-8.67-.19-18.54-.14-37.37-.09-55.6q.07-13.89.09-27.77A26.35,26.35,0,0,1,270,325l128.59-74.26c3.58-1.66,5.38-2.37,9.32-.88l6.4,3.67a1.71,1.71,0,0,1,.68,2.23,1.67,1.67,0,0,1-2.14.87c-2.72-1-3.54-.66-6.55.72L278,331.47a22.8,22.8,0,0,0-10.29,17.91V432.6c.34,3.11.38,4,2.66,5.85a1.69,1.69,0,0,1,.3,2.31A1.75,1.75,0,0,1,269.29,441.51Z" transform="translate(-1.63 -1.62)"/><path class="cls-3" d="M277.15,330q64.22-37.1,128.5-74.19c6.12-3.52,11.12-.65,11.12,6.43v83.36c0,7.07-5,15.71-11.12,19.24q-64.29,37.1-128.5,74.19c-6.12,3.53-11.11.64-11.11-6.42V349.23C266,342.17,271,333.52,277.15,330Z" transform="translate(-1.63 -1.62)"/><path class="cls-2" d="M278,331.48c-5.58,3.21-10.29,11.35-10.29,17.75V432.6c0,2.77.88,4.8,2.43,5.69s3.73.63,6.12-.77l128.48-74.17C410.31,360.14,415,352,415,345.59V262.23c0-2.8-.88-4.8-2.37-5.69s-3.75-.63-6.18.76L278,331.48ZM272.2,442.25a7.6,7.6,0,0,1-3.79-1c-2.61-1.53-4.08-4.62-4.08-8.67V349.23c0-7.62,5.34-16.91,12-20.73h0l128.48-74.19c3.5-2,6.9-2.3,9.57-.76s4.13,4.61,4.13,8.68v83.36c0,7.62-5.4,16.93-12,20.73L278,440.49A11.77,11.77,0,0,1,272.2,442.25Z" transform="translate(-1.63 -1.62)"/><path class="cls-1" d="M402.93,294.71v-17c0-1.08-.77-1.53-1.7-1q-16.46,9.5-32.9,19a3.75,3.75,0,0,0-1.7,2.94v17c0,1.09.77,1.53,1.7,1l32.9-19A3.78,3.78,0,0,0,402.93,294.71Z" transform="translate(-1.63 -1.62)"/><path class="cls-2" d="M401.19,278.73l-32,18.49a2,2,0,0,0-.86,1.46v16l32-18.47a2.23,2.23,0,0,0,.83-1.48v-16Zm-33.64,39.88a2.6,2.6,0,0,1-1.27-.34,2.85,2.85,0,0,1-1.36-2.6v-17a5.43,5.43,0,0,1,2.57-4.45l32.87-19a2.73,2.73,0,0,1,4.27,2.47v17a5.51,5.51,0,0,1-2.58,4.45l-32.86,19A3.29,3.29,0,0,1,367.55,318.61Z" transform="translate(-1.63 -1.62)"/><path class="cls-4" d="M282.78,362.08a7.36,7.36,0,0,1,3.36-5.75c6.84-4,13.74-7.95,20.63-11.91,1.79-1.05,3.3-.19,3.3,1.91v18.19a7.43,7.43,0,0,1-3.3,5.75c-6.89,4-13.79,8-20.63,11.92-1.85,1.05-3.36.19-3.36-1.91Z" transform="translate(-1.63 -1.62)"/><path class="cls-2" d="M308.23,345.66a2.76,2.76,0,0,0-.64.25L287,357.82a5.75,5.75,0,0,0-2.43,4.26v18.2a2.21,2.21,0,0,0,.09.66,1.92,1.92,0,0,0,.64-.23l20.62-11.93a5.62,5.62,0,0,0,2.47-4.26V346.33a1.13,1.13,0,0,0-.13-.67Zm-23.6,38.71a3.2,3.2,0,0,1-1.7-.46,4,4,0,0,1-1.84-3.63v-18.2a9.16,9.16,0,0,1,4.18-7.24l20.62-11.91a3.72,3.72,0,0,1,5.92,3.4v18.19a9.09,9.09,0,0,1-4.22,7.25L287,383.68A4.73,4.73,0,0,1,284.63,384.37Z" transform="translate(-1.63 -1.62)"/><path class="cls-2" d="M285.4,411.79a1.73,1.73,0,0,1-1.49-.87,1.7,1.7,0,0,1,.63-2.35l20.76-12a1.72,1.72,0,0,1,1.72,3l-20.78,12A1.64,1.64,0,0,1,285.4,411.79Z" transform="translate(-1.63 -1.62)"/><path class="cls-2" d="M316.78,393.66a1.67,1.67,0,0,1-1.47-.85,1.73,1.73,0,0,1,.63-2.36l20.74-12a1.72,1.72,0,1,1,1.74,3l-20.78,12A1.7,1.7,0,0,1,316.78,393.66Z" transform="translate(-1.63 -1.62)"/><path class="cls-2" d="M348.18,375.53a1.72,1.72,0,0,1-.88-3.21l20.78-12a1.71,1.71,0,0,1,1.69,3l-20.73,12A1.63,1.63,0,0,1,348.18,375.53Z" transform="translate(-1.63 -1.62)"/><path class="cls-2" d="M379.58,357.41a1.7,1.7,0,0,1-1.51-.86,1.73,1.73,0,0,1,.63-2.36l20.78-12a1.72,1.72,0,0,1,1.71,3l-20.78,12A1.62,1.62,0,0,1,379.58,357.41Z" transform="translate(-1.63 -1.62)"/><path class="cls-1" d="M208,404.5c-1.06-.6-5.15-3-6.15-3.55-2.81-2.29-3.25-3.83-3.25-7.19-.29-27.79,0-55.57,0-83.36a24.57,24.57,0,0,1,11.06-19.24Q274,254.07,338.18,217c3.19-1.46,4.51-2,7.86-.76,1,.6,5.09,3,6.16,3.56-3.35-1.26-4.65-.71-7.86.76q-64.21,37.08-128.5,74.18A24.46,24.46,0,0,0,204.78,314v83.37C205.07,400.81,205.26,402.23,208,404.5Z" transform="translate(-1.63 -1.62)"/><path class="cls-2" d="M342.94,217.21c-1.13,0-2.15.45-4,1.33L210.56,292.65a22.94,22.94,0,0,0-10.25,17.89c0,9.12,0,18.38,0,27.65-.06,18.21-.16,37,0,55.56.05,3,.34,4,2.63,5.86l.39.22c-.1-.7-.2-1.48-.29-2.35V314a26.29,26.29,0,0,1,11.83-20.66l128.6-74.25c.87-.4,1.61-.73,2.32-1l-.63-.35a6.54,6.54,0,0,0-2.22-.48ZM208,406.23a1.78,1.78,0,0,1-.86-.24L201,402.44c-3.5-2.87-4.07-5-4.13-8.67-.19-18.52-.1-37.37,0-55.58q.06-13.9,0-27.79a26.34,26.34,0,0,1,11.85-20.66L337.3,215.49c3.59-1.66,5.43-2.37,9.33-.89l6.45,3.67a1.71,1.71,0,0,1,.67,2.23,1.73,1.73,0,0,1-2.18.88c-2.72-1-3.54-.67-6.49.71L216.72,296.2a22.6,22.6,0,0,0-10.24,17.9v83.23c.29,3.12.39,4,2.61,5.85a1.72,1.72,0,0,1-1.07,3.05Z" transform="translate(-1.63 -1.62)"/></g></g></svg>