<?xml version="1.0" encoding="utf-8"?>
<!-- Generator: Adobe Illustrator 25.0.0, SVG Export Plug-In . SVG Version: 6.00 Build 0)  -->
<svg version="1.1" id="Layer_1" xmlns="http://www.w3.org/2000/svg" xmlns:xlink="http://www.w3.org/1999/xlink" x="0px" y="0px"
	 viewBox="0 0 1920 1080" style="enable-background:new 0 0 1920 1080;" xml:space="preserve">
<style type="text/css">
	
		.st0{fill-rule:evenodd;clip-rule:evenodd;fill:#D9E8FF;stroke:#0072C8;stroke-width:0.75;stroke-linecap:round;stroke-linejoin:round;}
	.st1{fill:none;}
	
		.st2{fill-rule:evenodd;clip-rule:evenodd;fill:#FFFFFF;stroke:#0072C8;stroke-width:0.75;stroke-linecap:round;stroke-linejoin:round;}
	
		.st3{fill-rule:evenodd;clip-rule:evenodd;fill:#9ACEEF;stroke:#0072C8;stroke-width:0.75;stroke-linecap:round;stroke-linejoin:round;}
</style>
<g id="Layer_2_1_">
	<g id="Layer_1-2">
		<path class="st0" d="M1044.8,392.5c-2.1-0.9-5.1-0.1-7,0.9l-0.7,0.4l-87.2,50.4c-7.5,4.5-12.8,14.9-12.8,23.5l0.1,200.7
			c0.1,3.4,0.7,6.6,3.3,8.9l15.9,9.2c-2.7-2.3-3.3-5.5-3.4-8.9L953,476.9c0.1-8.6,5.3-19.1,12.9-23.5L1053,403
			c2.5-1.4,4.9-2.1,7.7-1.2L1044.8,392.5z"/>
		<path class="st1" d="M1042.6,394.2c-1.4,0-2.7,0.4-3.9,1l-0.6,0.3L951,446c-6.5,3.9-11.6,13.4-11.8,21.7l0.1,200.7
			c0.1,3.6,0.8,5.7,2.6,7.3l9.3,5.4c-0.2-1.1-0.3-2.3-0.3-3.4l-0.1-200.8c0.1-9.8,6.1-20.7,13.9-25.4l87.2-50.4
			c0.6-0.4,1.2-0.7,1.9-0.9l-10-5.7C1043.4,394.3,1043,394.2,1042.6,394.2L1042.6,394.2z M956.4,688.6c-0.4,0-0.7-0.1-1-0.3l-16-9.2
			c-3.8-3.3-4.3-7.4-4.4-10.7l-0.1-200.8c0.1-9.8,6.1-20.7,13.9-25.4l87.9-50.8c2.5-1.3,6.1-2.2,8.9-1c0.1,0,0.1,0.1,0.2,0.1
			l15.9,9.2c1,0.6,1.4,1.9,0.8,2.9c-0.5,0.9-1.6,1.3-2.5,1c-1.9-0.6-3.6-0.3-6,1.1l-87.2,50.4c-6.5,3.9-11.7,13.4-11.8,21.7
			l0.1,200.7c0.1,3.6,0.8,5.7,2.6,7.3c0.9,0.8,1,2.1,0.2,3C957.6,688.3,957,688.6,956.4,688.6z"/>
		<path class="st0" d="M965.9,686.3l87.2-50.4c7.1-4.1,12.8-14.7,12.8-23.5l-0.1-200.8c0-8.9-5.8-12.8-12.9-8.7l-87.2,50.4
			c-7.1,4.1-12.9,14.7-12.9,23.5l0.1,200.7C953.1,686.5,958.8,690.4,965.9,686.3z"/>
		<path class="st1" d="M1058.3,403.4c-1.5,0.1-3,0.5-4.3,1.4l-87.2,50.4c-6.4,3.7-11.8,13.6-11.8,21.7l0.1,200.7
			c0,3.7,1.1,6.5,3.1,7.6c1.7,1,4,0.7,6.6-0.8l0,0L1052,634c6.4-3.7,11.8-13.6,11.8-21.7l-0.1-200.8c0-3.7-1.1-6.4-3.1-7.6
			C1060,403.6,1059.2,403.4,1058.3,403.4L1058.3,403.4z M960.5,690c-1.5,0-3.1-0.4-4.4-1.1c-3.3-1.9-5.2-6-5.2-11.3l-0.1-200.7
			c0-9.6,6.2-20.9,13.9-25.4l87.2-50.4c3.9-2.3,7.8-2.6,10.8-0.8c3.3,1.9,5.2,6,5.2,11.3l0.1,200.8c0,9.5-6.2,20.9-13.9,25.4
			L967,688.1C965,689.3,962.8,689.9,960.5,690z"/>
		<path class="st2" d="M1065.9,610l-0.1-198.3c0-8.9-5.8-12.8-12.9-8.7l-87.2,50.3c-7.1,4.1-12.9,14.7-12.9,23.5l0.1,198.3
			L1065.9,610z"/>
		<path class="st1" d="M1058.3,403.4c-1.5,0.1-3,0.5-4.3,1.4l-87.2,50.4c-6.4,3.7-11.8,13.6-11.8,21.7l0.1,194.6l108.6-62.8
			l-0.1-197.1c0-3.7-1.1-6.4-3.1-7.6C1060,403.6,1059.2,403.4,1058.3,403.4L1058.3,403.4z M953,677.3c-0.4,0-0.7-0.1-1.1-0.3
			c-0.7-0.4-1.1-1.1-1.1-1.9l-0.1-198.3c0-9.6,6.2-21,13.9-25.4l87.2-50.4c3.9-2.3,7.8-2.6,10.8-0.8c3.3,1.9,5.2,6,5.2,11.3
			l0.1,198.4c0,0.8-0.4,1.5-1.1,1.8L954.1,677C953.8,677.2,953.4,677.3,953,677.3z"/>
		<path class="st3" d="M940.1,455.5c-1.9,3.8-2.9,7.9-3,12.1l0.1,200.7c0.1,3.4,0.7,6.6,3.4,8.9l15.9,9.2c-2.7-2.3-3.3-5.5-3.3-8.9
			L953,476.9c0.1-4.2,1.1-8.4,3-12.1L940.1,455.5z"/>
		<path class="st1" d="M941.1,458.6c-1.2,2.9-1.8,6-1.9,9.1l0.1,200.7c0.1,3.6,0.8,5.7,2.6,7.3l9.3,5.4c-0.2-1.1-0.3-2.3-0.3-3.4
			l-0.1-200.8c0.1-3.9,0.9-7.7,2.5-11.3L941.1,458.6L941.1,458.6z M956.4,688.6c-0.4,0-0.7-0.1-1-0.3l-16-9.2
			c-3.8-3.3-4.3-7.4-4.4-10.7l-0.1-200.8c0.1-4.5,1.2-9,3.2-13.1c0.5-1.1,1.8-1.5,2.8-1c0.1,0,0.1,0.1,0.2,0.1l15.9,9.2
			c1,0.5,1.3,1.7,0.9,2.7c-1.8,3.5-2.7,7.4-2.8,11.3l0.1,200.7c0.1,3.6,0.8,5.7,2.6,7.3c0.9,0.8,1,2.1,0.2,3
			C957.6,688.3,957,688.6,956.4,688.6L956.4,688.6z"/>
		<path class="st0" d="M945.3,544.1c-1.2,0-2.1-0.9-2.1-2.1c0,0,0,0,0,0v-20.2c-0.1-1.2,0.8-2.2,2-2.3s2.2,0.8,2.3,2
			c0,0.1,0,0.2,0,0.3v20.2C947.5,543.1,946.5,544.1,945.3,544.1C945.3,544.1,945.3,544.1,945.3,544.1z"/>
		<path class="st0" d="M945.3,510.6c-1.2,0-2.1-0.9-2.1-2.1v-20.2c0.1-1.2,1.1-2.1,2.3-2c1.1,0.1,1.9,0.9,2,2v20.2
			C947.4,509.7,946.5,510.6,945.3,510.6z"/>
		<path class="st2" d="M1003.6,657.5c-1.2,0-2.1-0.9-2.2-2.1c0-0.8,0.4-1.5,1.1-1.9l17.5-10.1c1-0.6,2.3-0.2,2.9,0.8
			c0.6,1,0.2,2.3-0.8,2.9l-17.5,10.1C1004.3,657.4,1004,657.5,1003.6,657.5z"/>
		<path class="st0" d="M1049.2,414.5L1049.2,414.5c-1.4,1-2.2,2.5-2.3,4.2l0,0c0,1.6,1,2.3,2.3,1.6l0,0c1.4-1,2.2-2.5,2.3-4.2l0,0
			C1051.5,414.5,1050.5,413.8,1049.2,414.5z"/>
		<path class="st1" d="M1049.2,414.5L1049.2,414.5z M1048.2,422.7c-0.6,0-1.2-0.2-1.7-0.4c-1.2-0.8-1.9-2.1-1.8-3.5
			c0.1-2.4,1.3-4.7,3.4-6c1.1-0.7,2.5-0.8,3.7-0.1c1.2,0.8,1.9,2.1,1.8,3.5c-0.1,2.4-1.3,4.7-3.3,6
			C1049.7,422.5,1049,422.7,1048.2,422.7L1048.2,422.7z"/>
		<path class="st3" d="M980.8,612.5c-1.2,0-2.1-0.9-2.2-2.1c0-0.8,0.4-1.5,1.1-1.9l17.1-9.8c1-0.6,2.3-0.3,2.9,0.7
			c0.6,1,0.3,2.3-0.7,2.9c-0.1,0-0.1,0.1-0.2,0.1l-17.1,9.9C981.5,612.3,981.2,612.5,980.8,612.5z"/>
		<path class="st3" d="M980.8,637.4c-0.8,0-1.5-0.4-1.8-1.1c-0.6-1-0.2-2.3,0.8-2.9c0,0,0,0,0,0l17.1-9.8c1-0.6,2.3-0.2,2.9,0.8
			c0.6,1,0.2,2.3-0.8,2.9l-17.1,9.9C981.5,637.3,981.2,637.4,980.8,637.4z"/>
		<path class="st3" d="M1027.3,585.7c-1.2,0-2.2-0.9-2.2-2c0-0.8,0.4-1.6,1.1-2l17.2-9.9c1-0.6,2.3-0.4,2.9,0.6
			c0.6,1,0.4,2.3-0.6,2.9c-0.1,0-0.1,0.1-0.2,0.1l-17.1,9.9C1028.1,585.6,1027.7,585.7,1027.3,585.7z"/>
		<path class="st3" d="M1027.3,610.7c-1.2,0-2.1-0.9-2.2-2.1c0-0.8,0.4-1.5,1.1-1.9l17.2-9.9c1.1-0.5,2.3-0.1,2.8,1
			c0.5,1,0.2,2.1-0.7,2.7l-17.1,9.9C1028.1,610.6,1027.7,610.7,1027.3,610.7z"/>
		<path class="st1" d="M990.1,512.2L990.1,512.2z M991,517.1c0.6,0,1.2-0.2,1.7-0.5l15.8-9.1c1.2-0.7,1.6-2.3,0.9-3.5
			c-0.7-1.2-2.2-1.6-3.4-0.9l-12.9,7.4v-7.1l14.5-8.4c1.3-0.8,2.2-2.2,2.2-3.8v-11c0-1.1-0.6-2.2-1.5-2.8c-1-0.6-2.2-0.6-3.2,0
			l-15.8,9.1c-1.2,0.7-1.6,2.3-0.9,3.5s2.3,1.6,3.5,0.9l12.9-7.4v7.2l-14.5,8.4c-1.3,0.8-2.2,2.2-2.2,3.8v10.9
			c-0.1,1.7,1.2,3.1,2.9,3.2C990.9,517,990.9,517,991,517.1L991,517.1z"/>
		<path class="st1" d="M1031.8,467.9L1031.8,467.9z M1017.3,476.3v20.2l11.6-6.7v-20.2C1028.9,469.6,1017.3,476.3,1017.3,476.3z
			 M1015.6,500.4L1015.6,500.4z M1015.2,503c-0.5,0-1.1-0.1-1.5-0.4c-1-0.6-1.6-1.6-1.5-2.8v-24c0-1.5,0.9-3,2.2-3.8l14.9-8.6
			c1-0.6,2.2-0.6,3.2-0.1c1,0.6,1.6,1.7,1.5,2.8v24c0,1.6-0.9,3-2.2,3.8l-14.9,8.6l0,0C1016.4,502.9,1015.8,503,1015.2,503z"/>
		<path class="st0" d="M967.5,471.7c-1.2,0-2.1-0.9-2.1-2.1c0-0.8,0.4-1.5,1.1-1.9l5-2.9c1-0.7,2.3-0.4,3,0.6s0.4,2.3-0.6,3
			c-0.1,0.1-0.2,0.1-0.2,0.1l-5,2.9C968.3,471.5,967.9,471.7,967.5,471.7z"/>
		<path class="st0" d="M977.6,465.9c-1.2,0-2.2-0.9-2.2-2c0-0.8,0.4-1.6,1.1-2l5-2.9c1-0.6,2.3-0.2,2.9,0.8c0.6,1,0.2,2.3-0.8,2.9
			c0,0,0,0,0,0l-5,2.9C978.4,465.8,978,465.9,977.6,465.9z"/>
		<path class="st0" d="M987.7,460.1c-0.8,0-1.5-0.4-1.8-1.1c-0.6-1-0.2-2.3,0.8-2.9l5-2.9c1-0.7,2.3-0.4,3,0.6c0.7,1,0.4,2.3-0.6,3
			c-0.1,0-0.1,0.1-0.2,0.1l-5,2.9C988.5,460,988.1,460.1,987.7,460.1z"/>
		<path class="st3" d="M980.8,587.5c-1.2,0-2.1-0.9-2.2-2.1c0-0.8,0.4-1.5,1.1-1.9l17.1-9.9c1-0.6,2.3-0.2,2.9,0.8c0,0,0,0,0,0
			c0.6,1,0.2,2.3-0.8,2.9c0,0,0,0,0,0l-17.1,9.9C981.5,587.3,981.2,587.4,980.8,587.5z"/>
		<path class="st3" d="M1027.3,560.7c-0.8,0-1.5-0.4-1.8-1.1c-0.6-1-0.2-2.3,0.8-2.9c0,0,0,0,0,0l17.2-9.8c1-0.6,2.3-0.2,2.9,0.8
			c0.6,1,0.2,2.3-0.8,2.9l0,0l-17.1,9.8C1028.1,560.6,1027.7,560.7,1027.3,560.7z"/>
		<path class="st1" d="M1005,530.5L1005,530.5z M991.3,557c-1.4,0-2.5-1.1-2.6-2.5c0-0.9,0.5-1.8,1.3-2.2l14.5-8.4v-7.2l-12,6.9
			c-1.2,0.7-2.8,0.3-3.5-0.9c-0.7-1.2-0.3-2.8,0.9-3.5l0,0l14.5-8.4v-7.2l-12.8,7.4c-1.2,0.7-2.8,0.3-3.5-0.9s-0.3-2.8,0.9-3.5
			l15.8-9.1c1-0.6,2.2-0.6,3.2-0.1c1,0.6,1.6,1.7,1.5,2.8v11c0,0.4-0.1,0.7-0.2,1.1c0.1,0.3,0.2,0.7,0.2,1v11c0,1.6-0.9,3-2.2,3.8
			l-14.9,8.6C992.3,556.9,991.8,557,991.3,557z"/>
		<path class="st1" d="M1015.2,544.1c-0.5,0-1.1-0.1-1.5-0.4c-1-0.6-1.6-1.7-1.5-2.8V530c0-1.6,0.9-3,2.2-3.8l14.5-8.4v-7.2
			L1016,518c-1.2,0.7-2.7,0.3-3.5-0.9c0,0,0,0,0-0.1c-0.7-1.2-0.3-2.8,0.9-3.5l15.8-9.1c1.4-0.9,3.4-0.5,4.3,1
			c0.3,0.5,0.5,1.2,0.5,1.8v11c0,1.6-0.9,3-2.2,3.8l-14.5,8.4v7.1l12.9-7.4c1.2-0.7,2.8-0.3,3.5,0.9c0.7,1.2,0.3,2.8-0.9,3.5l0,0
			l-15.8,9.1C1016.4,543.9,1015.8,544.1,1015.2,544.1z"/>
		<path class="st2" d="M907.2,467.7l-25-11.5l28.1-16.2l5.5,3.2c2.7,1.6,3.8,3.6,3,5.8l-7,20.8L907.2,467.7z"/>
		<path class="st1" d="M908,466.1l2.8,1.2l6.5-19c0.3-1.3-0.4-2.6-2.4-3.7l-4.6-2.7l-24.4,14L908,466.1L908,466.1z M911.8,471.5
			c-0.3,0-0.5,0-0.7-0.2l-4.4-2.1l0,0l-25.1-11.5c-0.6-0.3-0.9-0.9-1-1.5c0-0.6,0.3-1.2,0.8-1.6l28.1-16.2c0.6-0.3,1.2-0.3,1.8,0
			l5.5,3.2c3.4,2,4.9,4.9,3.8,7.8l-7.1,20.8c-0.1,0.5-0.5,0.9-1,1C912.2,471.4,912,471.5,911.8,471.5z"/>
		<path class="st2" d="M1042.3,507.6l-21.6-12.5c-5.5-1.8-12.1,10-8,13.7l21.7,12.5c-2.5-2.1-0.9-6.6,0.3-8.9c0.9-1.6,2.2-3,3.7-4
			C1039.8,507.6,1041,507.1,1042.3,507.6z"/>
		<path class="st1" d="M1019.6,496.5c-1.3,0-3.4,1.7-4.9,4.2c-1.6,2.8-1.9,5.7-0.7,6.7l17.5,10.1c0.2-2.1,0.8-4.2,1.9-6
			c1-1.9,2.5-3.5,4.3-4.6v0l-17.7-10.3L1019.6,496.5L1019.6,496.5z M1034.5,523c-0.3,0-0.6-0.1-0.9-0.2l-21.7-12.5
			c-3.1-2.7-2.4-7.6-0.3-11.2c2.2-3.7,5.9-6.9,9.6-5.6l22,12.7c0.8,0.4,1.1,1.4,0.7,2.2c-0.3,0.8-1.2,1.2-2.1,0.9
			c-0.8-0.2-1.7,0-2.4,0.6c-1.3,0.9-2.4,2-3.2,3.4c-1,1.9-2.1,5.4-0.6,6.7c0.6,0.6,0.7,1.6,0.3,2.3
			C1035.6,522.7,1035.1,523,1034.5,523L1034.5,523z"/>
		<path class="st3" d="M1038.3,521c3.4-2.2,5.6-5.9,5.8-10c0-3.7-2.5-5.2-5.8-3.3c-3.4,2.2-5.6,5.9-5.8,10
			C1032.6,521.4,1035.1,522.9,1038.3,521z"/>
		<path class="st1" d="M1041,508.6c-0.6,0-1.3,0.2-1.8,0.6c-2.9,1.9-4.7,5.1-4.9,8.5c-0.1,0.8,0.2,1.6,0.7,2.2
			c0.8,0.3,1.7,0.1,2.4-0.4l0,0c2.9-1.9,4.7-5.1,4.9-8.5c0.1-0.8-0.2-1.6-0.8-2.2C1041.4,508.6,1041.2,508.6,1041,508.6L1041,508.6z
			 M1035.7,523.5c-0.8,0-1.6-0.2-2.4-0.6c-1.6-0.9-2.5-2.8-2.5-5.2c0.2-4.7,2.7-9,6.6-11.5c1.8-1.2,4-1.3,5.9-0.4
			c1.6,0.9,2.5,2.9,2.5,5.3c-0.2,4.7-2.7,9-6.7,11.5l0,0C1038.2,523.2,1036.9,523.5,1035.7,523.5L1035.7,523.5z"/>
		<path class="st2" d="M1018.7,527l39-62.3c0.9-1.2,1-2.8,0.4-4.2c-0.7-1.6-2-2.9-3.5-3.7l-13.7-8l-63.1,54.5L1018.7,527z"/>
		<path class="st1" d="M980.7,503.1l37.4,21.5l38.1-60.9c0.6-0.8,0.7-1.8,0.3-2.7c-0.6-1.2-1.6-2.2-2.8-2.8L1041,451L980.7,503.1
			L980.7,503.1z M1018.7,528.7c-0.3,0-0.6-0.1-0.9-0.2l-41-23.6c-0.5-0.3-0.7-0.8-0.7-1.4c-0.1-0.6,0.1-1.1,0.6-1.5l63-54.5
			c0.6-0.5,1.4-0.6,2.1-0.2l13.7,8c1.9,0.9,3.5,2.6,4.3,4.5c0.8,1.9,0.5,4.1-0.6,5.8l-39,62.3
			C1019.9,528.4,1019.3,528.7,1018.7,528.7L1018.7,528.7z"/>
		<path class="st2" d="M1055.9,588.3c-6.2-1.7-13-3.4-19.1-5.7c-2.3-0.9-4.5-2-6.7-3.2l-42.9-24.8L942,528.4l-4.9-3.5
			c-11.4-8.3-22.8-16.5-34.3-24.8L867,467.5c-6.5-2.1-3.1-18.4,8.4-14.4l73.3,33.8l48.3,25.4l18.3,10.6l11.8,7l26.2,15.6
			c6.4,3.8,9.3,9.1,11.5,11.6c11.8,13,10.9,14.8,10.9,25.2c-0.3,2.3-1.5,3.2-3.2,4.4l-1.8,1c-2.9,1.5-6.1,2.2-9.3,1.8
			C1059.7,589.2,1057.8,588.8,1055.9,588.3z"/>
		<path class="st1" d="M1056.4,586.6l0.6,0.1c1.6,0.4,3.1,0.8,4.7,1c2.9,0.3,5.8-0.3,8.4-1.7l1.6-1c1.6-1.1,2.2-1.6,2.4-3.1v-1.8
			c0.2-8.4,0.2-10.4-10.3-22c-0.7-0.7-1.3-1.6-1.9-2.4c-2.1-2.6-4.7-6.2-9.3-8.9l-38-22.6l-18.3-10.6L948,488.3l-73.3-33.7
			c-2.2-0.9-4.8-0.5-6.7,1c-2,2-2.9,4.8-2.4,7.6c0.1,1.2,0.8,2.2,1.9,2.6c0.2,0.1,0.4,0.2,0.6,0.4l35.8,32.6l39,28.2l88.1,50.9
			c2.1,1.2,4.3,2.2,6.5,3.1c5.6,2.2,12,3.8,18,5.5L1056.4,586.6L1056.4,586.6z M1063,591.2h-1.5c-1.8-0.2-3.7-0.6-5.5-1.1l-0.6-0.1
			l0,0l-0.7-0.2c-6-1.6-12.6-3.3-18.5-5.6c-2.3-1-4.6-2.1-6.8-3.3l-88.4-51l-39.3-28.5L866.1,469c-2-0.9-3.5-2.8-3.8-5
			c-0.9-4,0.5-8.2,3.5-11c2.7-2.4,6.2-2.9,10.2-1.6l73.5,33.8l48.3,25.4l30.3,17.6l26.2,15.6c4.1,2.5,7.5,5.8,10.2,9.8
			c0.7,0.8,1.3,1.6,1.8,2.2c10.9,12.1,11.4,15,11.4,24.3v2c-0.4,3.3-2.1,4.5-4.1,5.9l-1.8,1.1C1069.1,590.6,1066.1,591.3,1063,591.2
			z"/>
		<path class="st3" d="M1055.9,588.3c-6.2-1.7-13-3.4-19.1-5.7c-2.3-0.9-4.5-2-6.7-3.2l-42.9-24.8L942,528.4l-4.9-3.5
			c-11.4-8.3-22.8-16.5-34.3-24.8L867,467.5c-3.2-1-4-5.7-2.5-9.5c7.5,10.5,44,40.2,80.7,63.3c52.6,33.1,111,68.9,127.6,59.6
			c1.3-0.7,2.4-1.8,3.1-3.2v4.4c-0.3,2.3-1.5,3.2-3.2,4.4l-1.8,1c-2.9,1.5-6.1,2.2-9.3,1.8C1059.7,589.2,1057.8,588.8,1055.9,588.3z
			"/>
		<path class="st1" d="M1056.4,586.6l0.6,0.1c1.6,0.4,3.1,0.8,4.7,1c2.9,0.3,5.8-0.3,8.4-1.7l1.6-1c1.6-1,2.2-1.6,2.4-3l-0.5,0.3
			c-17,9.6-71-22.7-129.3-59.6c-33.4-21-67.6-48.2-78.8-60.8c0,0.8,0.1,1.6,0.4,2.4c0.3,0.7,0.9,1.2,1.6,1.5
			c0.2,0.1,0.4,0.2,0.6,0.4l35.8,32.6l39,28.2l88.1,50.9c2.1,1.2,4.3,2.2,6.5,3.1c5.6,2.1,12,3.8,18,5.5L1056.4,586.6L1056.4,586.6z
			 M1063,591.2h-1.5c-1.8-0.2-3.7-0.6-5.5-1.1l-0.6-0.1l0,0l-0.7-0.2c-6-1.6-12.6-3.3-18.5-5.6c-2.3-1-4.6-2.1-6.8-3.3l-88.4-51
			l-39.3-28.5L866.1,469c-1.4-0.6-2.6-1.7-3.2-3.2c-1.2-2.7-1.2-5.8,0-8.5c0.3-0.9,1.3-1.3,2.1-1c0.3,0.1,0.6,0.3,0.8,0.6
			c7.7,10.5,44.3,40.2,80.3,62.9c41,25.7,109.4,68.8,126,59.5c0.9-0.6,1.7-1.3,2.2-2.2l0.3-0.4c0.4-0.6,1.2-0.9,1.9-0.6
			c0.7,0.2,1.2,0.9,1.2,1.6v4.5c-0.4,3.3-2.1,4.5-4.1,5.9l-1.8,1.1C1069.1,590.6,1066.1,591.3,1063,591.2z"/>
		<path class="st3" d="M1055.9,566.1c-8.3,4.8-14.8,0.3-22.5-3.6l3.4,0.2c10.3,0.8,24.1-7.7,21.4-13.3
			C1062.9,556,1065.8,560.4,1055.9,566.1z"/>
		<path class="st1" d="M1055.9,566.1L1055.9,566.1z M1041,564.4c4.7,2.2,9,3.1,14,0.2l0,0c3.6-2,5.3-3.8,5.8-5.6
			c0.3-1.4-0.3-3-1.3-4.8c-0.1,0.3-0.4,0.5-0.6,0.8C1055.9,559.2,1048.5,563.5,1041,564.4L1041,564.4z M1048.7,569.9
			c-4.7,0-9-2.3-13.6-4.6l-2.5-1.2c-0.7-0.4-1.1-1.2-0.9-2c0.3-0.8,1.1-1.3,1.9-1.3l3.3,0.2c7.2,0.6,16.3-3.8,19.2-8
			c0.7-1.2,1-2.1,0.7-2.9c-0.4-0.8-0.2-1.8,0.6-2.2c0.8-0.5,1.8-0.2,2.4,0.5c2.7,3.9,5.2,7.5,4.3,11.3c-0.6,2.8-2.8,5.3-7.2,7.8l0,0
			C1054.4,569.1,1051.6,569.9,1048.7,569.9L1048.7,569.9z"/>
		<path class="st0" d="M1014.7,549l-0.6-0.4c-0.2-0.1-0.5-0.2-0.7-0.2v2.9c0,1.2,0.6,2.3,1.6,3l0.7,0.4c0.2,0.1,0.4,0.2,0.6,0.2
			c0.1-0.2,0.2-0.4,0.1-0.6V552C1016.4,550.8,1015.7,549.6,1014.7,549z"/>
		<path class="st1" d="M1016.3,556.7h-0.2c-0.5-0.1-0.9-0.2-1.3-0.4l-0.6-0.4c-1.6-1-2.6-2.6-2.7-4.5V549c0-0.4,0-0.8,0.2-1.2
			c0.3-0.8,1.1-1.2,1.9-1.1c0.5,0.1,0.9,0.2,1.3,0.4l0.6,0.4c1.6,1,2.6,2.6,2.7,4.5v2.4c0,0.4-0.1,0.8-0.3,1.2
			C1017.7,556.2,1017.1,556.7,1016.3,556.7z"/>
		<path class="st0" d="M1004,542.8c-0.3-0.1-0.4-0.2-0.7-0.4c-0.2-0.1-0.4-0.2-0.6-0.2c-0.1,0.2-0.2,0.4-0.1,0.6v2.3
			c0,1.2,0.7,2.4,1.8,3c0.1,0.1,0.5,0.2,0.6,0.4c0.2,0.1,0.5,0.2,0.7,0.2v-2.9C1005.6,544.6,1005,543.5,1004,542.8z"/>
		<path class="st1" d="M1005.7,550.5h-0.3c-0.5-0.1-0.9-0.2-1.3-0.5l-0.6-0.4c-1.6-1-2.6-2.6-2.7-4.5v-2.3c0-0.4,0.1-0.8,0.3-1.2
			c0.3-0.7,1-1.2,1.8-1.1c0.5,0.1,0.9,0.2,1.3,0.5l-0.2,1.7l0,0l0.7-1.4c1.6,1,2.6,2.6,2.7,4.5v2.3c0,0.4,0,0.8-0.1,1.2
			C1007,550,1006.4,550.4,1005.7,550.5z"/>
		<path class="st0" d="M993.3,536.6c-0.2-0.1-0.4-0.2-0.6-0.4c-0.2-0.1-0.5-0.2-0.7-0.2v2.9c0,1.2,0.6,2.3,1.6,3
			c0.2,0.1,0.4,0.2,0.6,0.4c0.2,0.1,0.5,0.2,0.7,0.2c0-0.2,0.1-0.4,0.1-0.6v-2.3C994.9,538.4,994.3,537.3,993.3,536.6z"/>
		<path class="st1" d="M994.9,544.3h-0.1c-0.5,0-0.9-0.2-1.3-0.4l-0.5-0.2c-1.7-0.9-2.7-2.7-2.8-4.6v-2.3c0-0.4,0-0.8,0.1-1.2
			c0.3-0.7,1-1.2,1.8-1.1c0.5,0,1,0.2,1.5,0.4l0.6,0.3l0,0c1.5,1,2.5,2.7,2.5,4.5v2.4c0,0.4,0,0.8-0.2,1.2
			C996.2,543.8,995.6,544.3,994.9,544.3z"/>
		<path class="st0" d="M982.5,530.4c-0.2-0.2-0.4-0.3-0.6-0.4c-0.2-0.1-0.4-0.2-0.6-0.2c-0.1,0.2-0.2,0.4-0.2,0.6v2.3
			c0,1.2,0.7,2.4,1.8,3c0.2,0.2,0.4,0.3,0.6,0.3c0.2,0.1,0.4,0.2,0.6,0.2c0.1-0.2,0.2-0.4,0.2-0.6v-2.3
			C984.2,532.2,983.5,531.1,982.5,530.4z"/>
		<path class="st1" d="M984.1,538.1c0,0,0,0-0.1,0c-0.5-0.1-0.9-0.2-1.3-0.5l-0.6-0.3c-1.6-1-2.6-2.7-2.7-4.5v-2.3
			c0-0.4,0.1-0.9,0.3-1.2c0.3-0.7,1-1.2,1.8-1.1c0.5,0.1,0.9,0.2,1.3,0.5c0,0,0.6,0.4,0.6,0.4c1.6,1,2.6,2.6,2.7,4.5v2.3
			c0,0.4-0.1,0.8-0.3,1.2C985.5,537.7,984.8,538.1,984.1,538.1z"/>
		<path class="st0" d="M971.8,524.2c-0.2-0.1-0.4-0.2-0.6-0.3c-0.2-0.1-0.5-0.2-0.7-0.2c0,0.2-0.1,0.4-0.1,0.6v2.3
			c0.1,1.2,0.8,2.3,1.8,3c0.2,0.1,0.4,0.2,0.6,0.4c0.2,0.1,0.5,0.2,0.7,0.2v-3C973.4,526,972.8,524.9,971.8,524.2z"/>
		<path class="st1" d="M973.5,531.9c-0.2,0-0.2,0-0.2,0c-0.5,0-1-0.2-1.5-0.4l-0.6-0.4c-1.5-1-2.5-2.7-2.5-4.5v-2.3
			c0-0.4,0-0.8,0.1-1.2c0.3-0.7,1-1.2,1.8-1.1c0.5,0.1,1,0.2,1.5,0.5l0.6,0.3c1.5,1,2.5,2.7,2.5,4.5v2.3c0,0.4,0,0.8-0.1,1.2
			C974.8,531.4,974.2,531.9,973.5,531.9z"/>
		<path class="st0" d="M961,518l-0.6-0.4c-0.2-0.1-0.5-0.2-0.7-0.2v2.9c0,1.2,0.7,2.3,1.6,3l0.7,0.3c0.2,0.1,0.4,0.2,0.6,0.2
			c0.1-0.2,0.2-0.4,0.2-0.6V521C962.7,519.8,962.1,518.7,961,518z"/>
		<path class="st1" d="M962.7,525.7h-0.2c-0.5-0.1-0.9-0.2-1.3-0.4l-0.6-0.4c-1.6-1-2.6-2.6-2.7-4.5v-2.3c0-0.4,0.1-0.8,0.3-1.2
			c0.2-0.8,1-1.2,1.8-1.1c0.5,0,0.9,0.2,1.3,0.4l0.6,0.4c1.6,1,2.6,2.6,2.7,4.5v2.3c0,0.4-0.1,0.8-0.3,1.2
			C964.1,525.3,963.4,525.7,962.7,525.7z"/>
		<path class="st0" d="M950.7,512c-0.3-0.1-0.4-0.2-0.7-0.4c-0.2-0.1-0.4-0.2-0.6-0.2c0,0.2-0.1,0.4-0.1,0.6v2.3
			c0.1,1.2,0.8,2.3,1.8,3c0.2,0.1,0.4,0.2,0.6,0.4c0.2,0.1,0.5,0.2,0.7,0.2v-3C952.2,513.8,951.6,512.7,950.7,512z"/>
		<path class="st1" d="M952.3,519.7h-0.2c-0.5-0.1-1-0.2-1.5-0.4l-0.6-0.4c-1.5-1-2.5-2.7-2.5-4.5V512c0-0.4,0-0.8,0.2-1.2
			c0.3-0.7,1-1.2,1.8-1.1c0.5,0.1,0.9,0.2,1.3,0.5l0.7,0.3l0,0c1.5,1,2.5,2.7,2.5,4.5v2.3c0,0.4,0,0.8-0.1,1.2
			C953.7,519.2,953.1,519.7,952.3,519.7z"/>
		<path class="st0" d="M939.9,505.8c-0.1-0.1-0.4-0.2-0.6-0.4c-0.2-0.1-0.5-0.2-0.7-0.2v2.9c0,1.2,0.6,2.3,1.6,3
			c0.3,0.1,0.4,0.3,0.7,0.4c0.2,0.1,0.4,0.2,0.6,0.2c0-0.2,0.1-0.4,0.1-0.6v-2.4C941.6,507.6,941,506.5,939.9,505.8z"/>
		<path class="st1" d="M941.5,513.5h-0.2c-0.5-0.1-0.9-0.2-1.3-0.4l-0.7-0.4c-1.5-1-2.4-2.7-2.5-4.5v-2.4c0-0.4,0.1-0.9,0.3-1.2
			c0.2-0.7,0.9-1.2,1.6-1.1c0.5,0,1,0.2,1.5,0.5l0.6,0.3l0,0c1.6,1,2.6,2.6,2.7,4.5v2.4c0,0.4-0.1,0.8-0.3,1.2
			C942.9,513,942.2,513.5,941.5,513.5z"/>
		<path class="st2" d="M956.6,557.5L934.9,545c-5.3-1.8-12.1,10-7.8,13.7l21.6,12.5c-1.8-1.5-1.3-4.5-0.7-6.5c0.6-1.5,1.4-3,2.4-4.3
			C951.7,558.7,954.2,556.8,956.6,557.5z"/>
		<path class="st1" d="M933.7,546.5c-1.3,0-3.4,1.7-4.9,4.2c-1.6,2.8-1.9,5.6-0.7,6.7l17.6,10.1c0-1.1,0.2-2.3,0.6-3.3
			c0.7-1.7,1.5-3.3,2.7-4.8c0.8-1,1.9-1.9,3-2.6L934,546.5C933.9,546.5,933.8,546.5,933.7,546.5L933.7,546.5z M948.6,573
			c-0.3,0-0.5-0.1-0.7-0.2l-21.7-12.5c-3-2.4-3-6.8-0.3-11.2c2.1-3.7,5.9-6.9,9.6-5.6l22,12.7c0.7,0.5,1,1.4,0.7,2.2
			c-0.4,0.8-1.3,1.2-2.2,0.9c-1.3-0.4-3.1,0.9-4.4,2.4c-0.9,1.1-1.6,2.4-2.1,3.7c-0.6,1.7-0.7,3.8,0.3,4.7c0.6,0.6,0.7,1.6,0.3,2.3
			C949.7,572.7,949.2,573,948.6,573z"/>
		<path class="st2" d="M987.5,545c-35.9,7.5-72,15-107.9,22.6c-4.6,1.1-9.4,0.4-13.6-1.8l-13.9-8l94.4-36.4L987.5,545z"/>
		<path class="st1" d="M856.1,558.1l10.6,6.2c3.9,2,8.4,2.5,12.6,1.6l103.3-21.6l-36.2-20.9L856.1,558.1z M875,569.7
			c-3.5,0.1-6.9-0.8-9.9-2.5l-13.8-8c-0.6-0.3-1-1-0.9-1.7c0-0.6,0.4-1.2,1-1.5l94.5-36.4c0.5-0.2,1-0.2,1.5,0.1l41,23.6
			c0.6,0.4,0.9,1.1,0.7,1.8c0,0.7-0.6,1.3-1.3,1.4L880,569.2C878.4,569.5,876.7,569.7,875,569.7z"/>
		<path class="st2" d="M893.6,478.3l-34,5.1c-3.4,0.5-6.9-0.1-10-1.8l-5.5-3.2l28.1-16.2L893.6,478.3z"/>
		<path class="st1" d="M847.5,478.4l3,1.7c2.7,1.5,5.8,2,8.8,1.5l29.9-4.4L872,464.3L847.5,478.4z M857.3,485.2
			c-3,0.1-6-0.7-8.6-2.1l-5.5-3.2c-0.8-0.5-1.1-1.6-0.6-2.4c0.2-0.3,0.4-0.5,0.6-0.6l28.1-16.2c0.6-0.4,1.4-0.3,1.9,0.1l21.4,16.1
			c0.6,0.4,0.8,1.1,0.6,1.8c-0.2,0.6-0.7,1.1-1.3,1.3l-34.1,5C858.9,485.1,858.1,485.2,857.3,485.2z"/>
		<polygon class="st0" points="867.9,453.5 860.2,412.5 872.2,419.4 900.1,469.9 		"/>
		<path class="st1" d="M869.5,452.4l26.3,13.4l-25-45.1l-8.1-4.7C862.7,415.9,869.5,452.4,869.5,452.4z M900.1,471.6
			c-0.3,0-0.5,0-0.7-0.2l-32.2-16.3c-0.5-0.2-0.8-0.7-0.8-1.2l-7.7-41c-0.1-0.6,0.1-1.3,0.6-1.7c0.6-0.4,1.3-0.4,1.9-0.1l12,6.9
			c0.2,0.2,0.4,0.4,0.6,0.7l27.9,50.5c0.4,0.6,0.3,1.4-0.1,2C901.1,471.4,900.6,471.6,900.1,471.6z"/>
		<path class="st1" d="M1038.3,516.1c-0.3,0-0.6-0.1-0.9-0.2l-3.4-2c-0.9-0.4-1.2-1.5-0.7-2.4c0,0,0,0,0,0c0.5-0.8,1.5-1.1,2.4-0.6
			l3.5,2c0.8,0.4,1.1,1.3,0.7,2.1c0,0.1-0.1,0.2-0.1,0.2C1039.5,515.8,1038.9,516.1,1038.3,516.1z"/>
		<path class="st3" d="M953.3,571.6c3.4-2.2,5.6-5.9,5.8-10c0-3.7-2.5-5.2-5.8-3.3c-3.4,2.2-5.6,5.9-5.8,10
			C947.6,572,950.1,573.4,953.3,571.6z"/>
		<path class="st1" d="M956,559.2c-0.6,0-1.3,0.2-1.8,0.6c-2.9,1.9-4.7,5.1-5,8.5c0,1.1,0.3,2,0.9,2.2c0.8,0.3,1.7,0.1,2.4-0.4
			c2.9-1.9,4.7-5.1,5-8.5c0.1-0.8-0.3-1.7-0.9-2.2C956.4,559.2,956.2,559.2,956,559.2L956,559.2z M950.7,574.2
			c-0.8,0-1.6-0.2-2.4-0.6c-1.6-0.9-2.5-2.9-2.5-5.2c0.2-4.7,2.7-9,6.7-11.5c1.8-1.2,4-1.3,5.9-0.4c1.7,1.2,2.6,3.2,2.5,5.2
			c-0.2,4.7-2.7,9-6.7,11.5C953.2,573.8,951.9,574.1,950.7,574.2L950.7,574.2z"/>
		<path class="st1" d="M953.3,566.6c-0.3,0-0.6-0.1-0.9-0.2l-3.5-2c-0.8-0.5-1-1.6-0.6-2.4c0.5-0.8,1.5-1.1,2.4-0.6l3.5,2
			c0.8,0.5,1,1.5,0.6,2.4C954.6,566.3,954,566.6,953.3,566.6z"/>
	</g>
</g>
</svg>
