<?xml version="1.0" encoding="utf-8"?>
<!-- Generator: Adobe Illustrator 25.0.0, SVG Export Plug-In . SVG Version: 6.00 Build 0)  -->
<svg version="1.1" id="Layer_1" xmlns="http://www.w3.org/2000/svg" xmlns:xlink="http://www.w3.org/1999/xlink" x="0px" y="0px"
	 viewBox="0 0 1920 1080" style="enable-background:new 0 0 1920 1080;" xml:space="preserve">
<style type="text/css">
	
		.st0{fill-rule:evenodd;clip-rule:evenodd;fill:#D9E8FF;stroke:#0072C8;stroke-width:0.75;stroke-linecap:round;stroke-linejoin:round;}
	.st1{fill:none;}
	
		.st2{fill-rule:evenodd;clip-rule:evenodd;fill:#9ACEEF;stroke:#0072C8;stroke-width:0.75;stroke-linecap:round;stroke-linejoin:round;}
	
		.st3{fill-rule:evenodd;clip-rule:evenodd;fill:#FFFFFF;stroke:#0072C8;stroke-width:0.75;stroke-linecap:round;stroke-linejoin:round;}
</style>
<g id="Layer_2_1_">
	<g id="Layer_1-2">
		<path class="st0" d="M837.3,522.9c0.3-6.2,3.6-11.9,8.8-15.3c64.3-37.1,128.7-74.2,193-111.3c2.2-1.1,3.6-1.6,6-0.7l5.9,3.4
			c-2.4-0.9-3.8-0.5-6,0.7c-64.3,37.1-128.7,74.3-193,111.4c-5.2,3.4-8.5,9.1-8.8,15.3v148c0.3,2.8,0.3,3.9,2.6,5.7l-5.9-3.4
			c-2.1-1.8-2.2-2.9-2.6-5.7V522.9z"/>
		<path class="st1" d="M839.3,523v148c0.2,2.3,0.3,2.8,1.9,4.1c0-0.2-0.2-0.3-0.2-0.6V526.3c0.7-7.4,3.8-12.8,9.7-16.9l193.2-111.5
			c0.2-0.1,0.4-0.2,0.7-0.3l-0.5-0.3c-1.2-0.4-2.1-0.3-4.1,0.8L847.1,509.4C842.5,512.5,839.6,517.5,839.3,523z M845.7,682
			c-0.4,0-0.7-0.1-1-0.3l-5.9-3.3c-3-2.5-3.3-4.2-3.7-7.2V522.7c0.4-6.8,4.1-13,9.8-16.8l193-111.4c2.6-1.4,4.8-2,7.8-0.9l6.2,3.5
			c0.9,0.6,1.2,1.7,0.7,2.6c-0.4,0.9-1.5,1.3-2.4,1c-1.6-0.6-2.4-0.5-4.5,0.6L853,512.8c-4.7,3-7.6,8.1-7.8,13.7
			c-0.2,49.2-0.2,98.5,0,147.9c0.2,2.4,0.2,2.9,1.7,4.1c0.8,0.7,1.1,1.8,0.5,2.7C847,681.7,846.4,682,845.7,682L845.7,682z"/>
		<path class="st2" d="M851.9,511c64.3-37.1,128.6-74.2,192.9-111.4c4.8-2.8,9-0.6,9,5v148.1c0,5.6-4.1,12.5-9,15.3
			c-49.5,28.6-99,57.1-148.4,85.7l-44.5,25.7c-4.8,2.8-8.8,0.5-8.8-5.1v-34l0,0v-114C843.1,520.7,847.1,513.8,851.9,511z"/>
		<path class="st1" d="M845,639.9v0.4l0.2,34c0,2,0.5,3.4,1.5,4s2.4,0.3,4.1-0.6l193-111.4c4.1-2.4,7.8-8.6,7.8-13.5V404.7
			c0.1-1.5-0.5-2.9-1.6-3.9c-1-0.6-2.6-0.4-4.3,0.6c-64.2,37.1-128.4,74.3-192.8,111.4l0,0c-4.3,2.4-7.8,8.6-7.8,13.5l-0.2,34V639.9
			L845,639.9z M847.9,682.6c-1.2,0-2.3-0.3-3.3-0.9c-2.2-1.3-3.6-4-3.6-7.4v-148c0-6.4,4.3-13.9,9.8-17.1l0,0
			c64.3-37.1,128.7-74.2,193-111.4c2.9-1.7,5.9-2,8.1-0.6c2.4,1.4,3.6,4,3.6,7.4v33.7c0.1,0.1,0.2,0.2,0.2,0.3v80
			c0,0.1-0.1,0.3-0.2,0.3v33.7c0,6.4-4.3,13.8-9.8,17L853,681.2C851.4,682.1,849.7,682.6,847.9,682.6z"/>
		<path class="st3" d="M1045.3,569L858,677.2c-4.8,2.7-8.6,0.5-8.6-4.9V528.5c0-5.4,3.8-12.1,8.6-14.8l187.3-108.2
			c4.7-2.8,8.4-0.5,8.4,4.9v143.7C1053.7,559.6,1049.9,566.3,1045.3,569z"/>
		<path class="st1" d="M1049.1,406.4c-1,0-1.9,0.3-2.8,0.9c-62.4,36.1-124.9,72.2-187.3,108.1c-4.1,2.3-7.6,8.4-7.6,13.1v143.8
			c0,1.8,0.5,3.2,1.6,3.8c0.9,0.6,2.4,0.3,4-0.6c62.4-36.1,124.8-72.2,187.3-108.2c4.1-2.4,7.4-8.3,7.4-13.1
			c0.2-47.9,0.2-95.8,0-143.7c0-1.8-0.5-3.2-1.4-3.8C1049.9,406.4,1049.5,406.3,1049.1,406.4z M854.2,680.4c-1.1,0-2.3-0.3-3.3-0.9
			c-2.2-1.3-3.6-3.9-3.6-7.3V528.5c0-6.2,4.3-13.5,9.7-16.6l187.3-108.2c2.9-1.7,5.7-1.9,8.1-0.6c2.2,1.3,3.5,3.9,3.5,7.3v143.7
			c0,6.2-4.1,13.5-9.5,16.6l0,0c-62.6,36-125.1,72.1-187.3,108.1C857.5,679.8,855.9,680.3,854.2,680.4z"/>
		<path class="st3" d="M1050.6,572.2c-62.4,36-124.9,72-187.3,108.1c-4.7,2.7-8.5,0.5-8.5-4.9V531.6c0-5.4,3.8-12.1,8.5-14.8
			c62.6-36,125-72.1,187.3-108.1c4.8-2.7,8.6-0.5,8.6,4.9v143.7C1059.2,562.8,1055.5,569.5,1050.6,572.2z"/>
		<path class="st1" d="M1050.6,572.2L1050.6,572.2z M1054.4,409.5c-1,0.1-1.9,0.4-2.8,0.9c-62.5,36.1-124.7,72.1-187.3,108.2
			c-4,2.4-7.6,8.3-7.6,13.1v143.8c0,1.9,0.7,3.3,1.6,3.8c1,0.6,2.4,0.3,4.1-0.6c62.5-36.1,124.8-72.2,187.1-108.2l0,0
			c4.1-2.4,7.6-8.4,7.6-13.1V413.6c0-1.9-0.5-3.2-1.4-3.8C1055.4,409.6,1054.9,409.5,1054.4,409.5L1054.4,409.5z M859.5,683.5
			c-1.1,0-2.2-0.2-3.1-0.8c-2.4-1.3-3.6-4-3.6-7.3V531.6c0-6.2,4.3-13.5,9.7-16.6c62.5-36,124.8-72,187.1-108.2
			c2.9-1.7,5.9-1.9,8.1-0.6c2.4,1.3,3.6,3.9,3.6,7.3v143.7c0,6.2-4.3,13.5-9.7,16.6l0,0L864.3,682.1
			C862.9,683,861.2,683.5,859.5,683.5L859.5,683.5z"/>
		<path class="st3" d="M964.4,628.9l93.5-53.9c4.1-2.4,7.6-8.2,7.6-13.1l0.3-107.5l-13.3-9.8l-15.7-10.2c-7.8-4.8-11.2-4.1-16.4-1.2
			l-6.7,3.9l-49.3,28.4V628.9z"/>
		<path class="st1" d="M966.4,466.5v158.8l90.6-52.2c3.4-2,6.4-7.2,6.4-11.3l0.3-106.5l-12.4-9.2l-15.7-10.1
			c-6.9-4.4-9.7-3.7-14.2-1.2L966.4,466.5L966.4,466.5z M964.4,630.9c-0.4,0-0.7-0.1-1-0.3c-0.6-0.4-1-1-1-1.7V465.3
			c0-0.7,0.4-1.4,1-1.8l56.1-32.3c6-3.3,10.2-3.9,18.5,1.3l15.9,10.2l13.3,10c0.5,0.4,0.8,1,0.9,1.6l-0.3,107.6
			c0,5.5-3.8,12-8.6,14.8l-93.5,53.9C965.1,630.8,964.7,630.9,964.4,630.9L964.4,630.9z"/>
		<path class="st3" d="M1044.4,471.1l14-8.1c6.9-3.7,11.2-7.7,3.8-12.5l-25.4-16.3c5.9,5,7.6,8.2,7.6,14.4V471.1z"/>
		<path class="st1" d="M1045.6,442.4c0.7,2,1,4.1,0.9,6.2v19l11-6.3c5.3-3,6.6-4.8,6.6-5.7c0-1-1-2.1-2.9-3.3L1045.6,442.4
			L1045.6,442.4z M1044.4,473.2c-1.1,0-2-0.9-2.1-2v-22.5c0-5.6-1.4-8.2-6.9-12.8c-0.9-0.6-1-1.9-0.4-2.7c0,0,0,0,0,0
			c0.7-0.8,1.8-1.1,2.8-0.5l25.3,16.3c3.4,2.1,5,4.4,4.8,6.9c0,4-4.5,6.8-8.6,9.1l-14,8.1C1045.1,473,1044.8,473.1,1044.4,473.2z"/>
		<path class="st1" d="M1044.4,473.2L1044.4,473.2c-1.1,0-2-0.9-2.1-2v-22.5c0.2-4.1-2.8-10.2-7.8-13.5c-4-2.5-9.1-2.7-13.3-0.4
			l-55.9,32.3c-1,0.5-2.2,0.2-2.8-0.8c-0.5-1-0.2-2.2,0.7-2.8l56.1-32.3c5.4-3,12-2.8,17.3,0.6c5.9,3.7,10,10.8,9.8,16.9v22.4
			c0.1,1.1-0.8,2-1.9,2.1C1044.5,473.2,1044.5,473.2,1044.4,473.2z"/>
		<path class="st3" d="M869.3,520.2c30.7-17.7,64.3-37.1,95-54.9v163.1c-0.8,0.8-1.6,1.4-2.6,1.9l-92.4,53.4
			c-4.8,2.8-8.6,0.5-8.6-4.9V535.1C860.7,529.6,864.5,522.9,869.3,520.2z"/>
		<path class="st1" d="M870.4,522c-4.1,2.3-7.6,8.3-7.6,13.1v143.7c0,1.8,0.5,3.2,1.6,3.8c0.9,0.5,2.4,0.3,4-0.6l92.4-53.5
			c0.5-0.3,1.1-0.7,1.6-1.1V468.8c-29.9,17.3-62.3,36-92.2,53.2H870.4z M865.5,687c-1.2,0-2.3-0.3-3.3-0.9c-2.2-1.3-3.6-3.9-3.6-7.3
			V535.1c0-6.2,4.3-13.5,9.7-16.6l0,0c30.7-17.7,64.3-37.1,95-54.9c0.6-0.3,1.4-0.3,2.1,0c0.6,0.4,1,1,1,1.8v163.1
			c-0.1,0.5-0.3,1-0.7,1.4c-0.9,0.9-1.9,1.6-2.9,2.2l-92.6,53.4C868.8,686.4,867.2,686.9,865.5,687L865.5,687z"/>
		<path class="st2" d="M979.4,493c-0.7,0-1.4-0.4-1.7-1c-0.5-1-0.2-2.2,0.7-2.8l57.8-33.4c1-0.6,2.2-0.2,2.7,0.7c0,0,0,0,0,0
			c0.5,1,0.2,2.1-0.7,2.8l-57.8,33.4C980.1,492.9,979.7,493,979.4,493z"/>
		<path class="st2" d="M979.4,510.9c-0.7,0-1.4-0.4-1.7-1c-0.5-1-0.2-2.1,0.7-2.7l57.3-33.1c1-0.6,2.2-0.2,2.7,0.7c0,0,0,0,0,0
			c0.5,1,0.1,2.3-0.9,2.8l-57.1,33C980.1,510.8,979.7,510.8,979.4,510.9z"/>
		<path class="st2" d="M880.5,643c-0.7,0-1.4-0.4-1.7-1c-0.6-0.8-0.4-2,0.4-2.6c0.1-0.1,0.2-0.1,0.3-0.2l68-39.2
			c1-0.6,2.2-0.2,2.7,0.7c0,0,0,0,0,0c0.5,1,0.2,2.2-0.8,2.7c0,0,0,0-0.1,0l-68,39.2C881.2,642.9,880.9,643,880.5,643z"/>
		<path class="st2" d="M880.5,623.8c-0.7,0-1.4-0.4-1.7-1c-0.6-0.8-0.4-2,0.4-2.6c0.1-0.1,0.2-0.1,0.3-0.2l68-39.2
			c1-0.5,2.2-0.2,2.8,0.7c0.5,1,0.1,2.3-0.9,2.8l-68,39.2C881.2,623.7,880.9,623.8,880.5,623.8z"/>
		<path class="st2" d="M880.5,605.6c-0.7,0-1.4-0.4-1.7-1c-0.6-0.8-0.4-2,0.4-2.6c0.1-0.1,0.2-0.1,0.3-0.2l68-39.3
			c1-0.5,2.2-0.2,2.8,0.8c0.5,1,0.1,2.3-0.9,2.8l-68,39.2C881.2,605.6,880.9,605.6,880.5,605.6z"/>
		<path class="st2" d="M922.1,563.4c-0.7,0-1.4-0.4-1.7-1c-0.5-1-0.2-2.1,0.7-2.7l26.4-15.2c1-0.6,2.2-0.2,2.7,0.7c0,0,0,0,0,0
			c0.5,1,0.2,2.2-0.8,2.7c0,0,0,0-0.1,0l-26.2,15.1C922.9,563.4,922.5,563.5,922.1,563.4z"/>
		<path class="st2" d="M979.4,529.8c-0.7,0-1.4-0.4-1.7-1c-0.5-1-0.2-2.1,0.7-2.8l71.2-41.1c1-0.6,2.2-0.2,2.7,0.7c0,0,0,0,0,0
			c0.5,1,0.2,2.2-0.8,2.7c0,0,0,0-0.1,0l-71.1,41.1C980.1,529.7,979.8,529.8,979.4,529.8z"/>
		<path class="st2" d="M979.4,547.7c-0.7,0-1.4-0.4-1.7-1c-0.5-1-0.2-2.1,0.7-2.7l73.7-42.5c0.9-0.6,2.1-0.3,2.7,0.6
			c0,0.1,0.1,0.1,0.1,0.2c0.5,1,0.2,2.1-0.7,2.7l-73.6,42.5C980.1,547.6,979.7,547.6,979.4,547.7z"/>
		<path class="st2" d="M979.4,565.5c-0.7,0-1.4-0.4-1.7-1c-0.5-1-0.2-2.1,0.7-2.8l66.4-38.4c1-0.6,2.3-0.2,2.9,0.7
			c0.5,1,0.1,2.3-0.9,2.8l-66.4,38.3C980.1,565.4,979.7,565.5,979.4,565.5z"/>
		<path class="st2" d="M979.4,584.5c-0.7,0-1.4-0.4-1.7-1c-0.5-1-0.2-2.2,0.7-2.8l43.8-25.3c1-0.6,2.3-0.3,2.9,0.8
			c0.4,1,0.1,2.2-0.9,2.8l-43.8,25.3C980.1,584.4,979.8,584.5,979.4,584.5z"/>
		<path class="st2" d="M922.1,544.2c-0.7,0-1.4-0.4-1.7-1c-0.5-1-0.2-2.2,0.7-2.8l26.4-15.2c0.9-0.6,2.2-0.4,2.8,0.5
			c0.6,0.9,0.4,2.2-0.5,2.8c-0.1,0.1-0.2,0.1-0.3,0.2l-26.2,15.2C922.9,544.1,922.5,544.2,922.1,544.2z"/>
		<path class="st2" d="M922.1,526.1c-0.7,0-1.4-0.4-1.7-1c-0.5-1-0.2-2.1,0.7-2.8l26.4-15.2c1-0.6,2.2-0.2,2.7,0.7c0,0,0,0,0,0
			c0.5,1,0.2,2.2-0.8,2.7c0,0,0,0-0.1,0l-26.2,15.1C922.9,526,922.5,526.1,922.1,526.1z"/>
		<path class="st0" d="M912.1,558.3v8.9c0,0.7-0.4,1.4-1,1.8l-31.4,18.1c-0.7,0.3-1,0.1-1-0.6v-15.8l0.3-0.5
			c1.2-1.6,2.6-2.5,3.8-2.2l10.5,3.1c1,0.3,2.4-0.5,3.6-2l7.9-10.2c1.2-1.5,2.8-2.3,3.8-1.9L912.1,558.3z"/>
		<path class="st1" d="M880.5,571.3v12.9l29.5-17v-7.6l-2.1-0.7c-0.6,0.2-1.2,0.7-1.5,1.2l-7.9,10.1c-1.6,2.2-4,3.2-5.7,2.7l-10.5-3
			C882.1,570,881.4,570.3,880.5,571.3L880.5,571.3z M879.2,589.3c-0.4,0-0.8-0.1-1.2-0.3c-0.9-0.5-1.4-1.5-1.4-2.5v-15.8
			c0-0.4,0.1-0.8,0.3-1.2l0.4-0.5c1.7-2.3,4.1-3.5,6-2.9l10.6,3c0.6-0.2,1.2-0.7,1.5-1.3l7.9-10.2c1.7-2.2,4.1-3.3,6-2.6l3.5,1.3
			c0.9,0.3,1.4,1.1,1.4,2v8.9c0,1.5-0.8,2.8-2.1,3.5l-31.5,18.1C880.2,589.2,879.7,589.3,879.2,589.3L879.2,589.3z"/>
		<path class="st2" d="M912.1,558.3l-3.5-1.2c-1-0.4-2.6,0.4-3.8,1.9l-7.9,10.1c-1.2,1.4-2.6,2.2-3.6,2l-10.5-3.1
			c-1.2-0.3-2.6,0.6-3.8,2.2l-0.3,0.5v-23.1l33.5-19.4V558.3z"/>
		<path class="st1" d="M882.3,565.9c0.3,0,0.7,0,1,0.1l10.6,3c0.6-0.2,1.2-0.7,1.5-1.3l7.9-10.2c1.7-2.2,4.1-3.3,6-2.6l0.7,0.3
			l0.2-23.6l-29.7,17v17.6C881.1,566.1,881.7,565.9,882.3,565.9L882.3,565.9z M893.8,573.1c-0.3,0-0.7,0-1-0.1l-10.5-3
			c-0.7,0.2-1.3,0.7-1.7,1.4l-0.3,0.4c-0.6,0.9-1.9,1.1-2.8,0.4c-0.5-0.4-0.8-1-0.8-1.6v-23.1c0-0.7,0.4-1.4,1-1.8l33.5-19.3
			c0.6-0.4,1.4-0.4,2.1,0c0.6,0.3,1,1,1,1.7v30.2c0,1.1-0.9,2-2,2c-0.3,0-0.5,0-0.8-0.1l-3.5-1.2c-0.6,0.2-1.2,0.7-1.5,1.2
			l-7.9,10.1C897.4,571.9,895.7,572.9,893.8,573.1z"/>
		<path class="st3" d="M903.3,541.1c1.2-0.7,2.2-0.1,2.2,1.3c-0.1,1.6-0.9,3-2.2,3.8c-1.2,0.7-2.2,0.1-2.2-1.3
			C901.2,543.4,902,541.9,903.3,541.1z"/>
		<path class="st1" d="M902.3,548.6c-0.5,0-1.1-0.1-1.5-0.4c-1.1-0.7-1.8-1.9-1.7-3.2c0.1-2.3,1.3-4.4,3.3-5.6
			c1.1-0.7,2.5-0.8,3.6-0.2c1.1,0.7,1.6,1.9,1.5,3.2c-0.1,2.2-1.2,4.3-3.1,5.6C903.7,548.4,903,548.6,902.3,548.6z"/>
		<path class="st1" d="M964.4,467.3c-0.3,0-0.7-0.1-1-0.2l-11.4-6.6c-0.6-0.4-0.9-1.1-0.9-1.8v-6.2c0-1.1,0.8-1.9,1.9-2
			c1.1,0,2,0.8,2.1,1.9c0,0,0,0,0,0.1v5.1l10.4,6c0.9,0.6,1.2,1.8,0.7,2.8C965.8,467,965.1,467.4,964.4,467.3z"/>
		<path class="st2" d="M975.7,652.3c0.1,1.7,0.4,3,1.8,4l29.5,17.1c-1.5-1-1.7-2.3-1.8-4v-13.3c-0.1-4.4-0.7-8-3.5-11.5
			c-1-1-2.1-1.8-3.2-2.5l-16.6-9.6c-4.7-2.8-8.4-7-10.6-12c-2.8-6.1-3.4-12-3.5-19.1v-8c0-0.5,0-0.7-0.5-1l-29.5-17.1
			c0.3,0.2,0.5,0.6,0.5,1v8c-0.1,5.1,0.6,10.2,2,15.2c2.3,7.3,5.6,11.9,12.1,16l17.2,9.9c2.4,1.4,4.1,3.5,5,6.1
			c0.8,2.4,1.3,5,1.2,7.6L975.7,652.3L975.7,652.3z M1043.6,548.4l-29.6-17c0.4,0.3,0.4,0.5,0.4,1V630c0.1,1.7,0.4,3,1.8,4
			l29.5,17.1c-1.5-1-1.7-2.3-1.8-4v-97.6C1044.1,549.1,1043.9,548.7,1043.6,548.4L1043.6,548.4z"/>
		<path class="st1" d="M1016,534.1v95.8c0.1,1.6,0.3,2.2,1.2,2.8l25.5,14.7c0-0.1,0-0.2,0-0.4v-97.5L1016,534.1L1016,534.1z
			 M1045.9,652.4c-0.3,0-0.5-0.1-0.7-0.2l-29.6-17c-2.2-1.5-2.5-3.5-2.5-5.2v-97.6c-0.6-0.5-0.7-1.3-0.2-1.9c0.5-0.6,1.3-0.8,2-0.4
			l29.5,17.1l0.2,0.1c0.6,0.5,1,1.2,1,2V647c0.1,1.6,0.3,2.2,1.2,2.8c0.7,0.4,0.8,1.3,0.4,2C1046.9,652.2,1046.4,652.4,1045.9,652.4
			L1045.9,652.4z M939.7,578.2v6.2c-0.1,5,0.6,10,1.9,14.8c2.3,7.1,5.5,11.4,11.5,15.2l17.1,9.9c1,0.6,1.8,1.2,2.6,2
			c-1.1-1.6-2.1-3.3-2.9-5.1c-3.1-6.9-3.6-13.5-3.6-19.7v-7.8L939.7,578.2L939.7,578.2z M977.2,652.3L977.2,652.3z M977.2,652.3
			c0.1,1.7,0.3,2.3,1.2,2.8l25.5,14.7c0-0.1,0-0.2,0-0.4v-13.4c-0.1-4.2-0.6-7.5-3.2-10.5c-0.8-0.9-1.8-1.6-2.8-2.2l-16.7-9.6
			c-2.5-1.5-4.7-3.4-6.7-5.6c0.5,0.9,0.9,1.7,1.3,2.7c0.9,2.6,1.4,5.4,1.3,8.1V652.3L977.2,652.3z M1007.1,674.9
			c-0.3,0-0.5-0.1-0.7-0.2l-29.5-17.1c-1.7-1.2-2.7-3.1-2.5-5.2v-13.4c0-2.4-0.3-4.8-1.1-7.1c-0.8-2.3-2.3-4.1-4.4-5.3l-17.1-9.9
			c-6.7-4.2-10.2-8.9-12.8-16.8c-1.5-5.1-2.2-10.3-2.1-15.6v-8c-0.6-0.5-0.7-1.3-0.2-1.9c0.5-0.6,1.3-0.8,2-0.4l29.5,17.1
			c0.7,0.5,1.2,1.3,1.2,2.1v8.1c0.1,5.8,0.5,12.1,3.4,18.5c2,4.8,5.6,8.8,10.1,11.4l16.5,9.6c1.3,0.7,2.5,1.6,3.5,2.8
			c3.1,3.8,3.8,7.7,3.9,12.5v13.3c0.1,1.6,0.3,2.2,1.2,2.8c0.7,0.4,0.8,1.3,0.4,2C1008.1,674.6,1007.6,674.9,1007.1,674.9
			L1007.1,674.9z"/>
		<polygon class="st0" points="979.9,538 950.4,520.9 923.1,583.4 952.7,600.4 		"/>
		<path class="st1" d="M925,582.7l27,15.6l26.1-59.8l-27-15.6L925,582.7L925,582.7z M952.7,601.9c-0.3,0-0.5-0.1-0.8-0.2l-29.5-17.1
			c-0.6-0.3-0.9-1.1-0.6-1.8l27.2-62.5c0.2-0.4,0.5-0.7,0.8-0.8c0.4-0.1,0.8-0.1,1.2,0.1l29.5,17.1c0.7,0.4,0.9,1.2,0.6,1.9
			L954,601.1c-0.2,0.4-0.5,0.7-0.8,0.8C953,601.9,952.8,601.9,952.7,601.9z"/>
		<polygon class="st0" points="1056.1,493.9 1026.6,476.9 999.3,539.3 1028.9,556.4 		"/>
		<path class="st1" d="M1001.2,538.8l27,15.6l26-59.8l-27-15.6L1001.2,538.8z M1028.9,557.8c-0.3,0-0.5-0.1-0.7-0.2l-29.5-17.1
			c-0.6-0.4-0.9-1.2-0.6-1.8l27.2-62.5c0.2-0.4,0.5-0.7,0.9-0.8c0.4-0.1,0.8-0.1,1.2,0.1l29.5,17c0.6,0.4,0.9,1.2,0.6,1.9
			l-27.2,62.5c-0.2,0.4-0.5,0.7-0.9,0.8C1029.2,557.8,1029,557.8,1028.9,557.8z"/>
		<path class="st3" d="M1044.1,549.5V647c0,3.9,2.8,5.5,6.2,3.5l11.8-6.8c3.7-2.4,6-6.4,6.2-10.7v-97.5c0.1-1.1,0.6-2.1,1.6-2.7
			l13.5-7.9l-27.2-31l-27.2,62.5l13.6-7.8C1043.4,548.1,1044.1,548.5,1044.1,549.5z"/>
		<path class="st1" d="M1042.6,549.5h1.4H1042.6C1042.6,549.4,1042.6,549.4,1042.6,549.5L1042.6,549.5z M1043.2,546.9
			c-0.5,0-1,0.2-1.4,0.4l-9.8,5.7l24.5-56.3l24.5,27.9l-12,7c-1.4,0.9-2.2,2.4-2.3,4v97.5c-0.2,3.8-2.2,7.3-5.4,9.5l-11.8,6.8
			c-1.2,0.7-2.3,0.8-2.9,0.4c-0.8-0.7-1.2-1.7-1.1-2.7v-97.6c0.1-0.9-0.4-1.8-1.2-2.3C1044,547,1043.6,546.9,1043.2,546.9
			L1043.2,546.9z M1047.5,652.9c-0.8,0-1.6-0.2-2.3-0.6c-1.7-1-2.6-2.8-2.6-5.2v-96.8l-13,7.5c-0.6,0.3-1.2,0.2-1.7-0.2
			c-0.5-0.4-0.6-1.1-0.3-1.6l27.3-62.5c0.2-0.5,0.6-0.8,1.1-0.9c0.5,0,1,0.1,1.3,0.5l27.2,31c0.3,0.3,0.4,0.8,0.3,1.2
			c-0.1,0.4-0.3,0.8-0.7,1l-13.6,7.9c-0.5,0.3-0.8,0.8-0.8,1.4V633c-0.2,4.9-2.8,9.4-6.9,12l-11.8,6.8
			C1049.9,652.5,1048.7,652.8,1047.5,652.9L1047.5,652.9z"/>
		<path class="st3" d="M1015.4,612.3l-17.2-9.9c-4.1-2.4-6.2-7-6.2-13.7v-9.3c0-1.1,0.6-2.1,1.5-2.7l13.6-7.8l-27.2-31l-27.2,62.4
			l13.6-7.9c0.9-0.5,1.5-0.1,1.5,0.9v8c0,7.7,1.2,14.1,3.5,19.3c2.2,5,5.9,9.1,10.6,11.9l17.1,9.9c2.1,1.2,3.7,3,4.7,5.2
			c1.1,2.7,1.6,5.5,1.6,8.4v13.3c0,2,0.7,3.3,1.8,4c1.1,0.7,2.7,0.5,4.4-0.4l11.8-6.8c3.7-2.4,6-6.4,6.2-10.7v-11.9
			c0-7.7-1.2-14.1-3.5-19.3C1023.8,619.2,1020.1,615,1015.4,612.3z"/>
		<path class="st1" d="M967,590.9c0.4,0,0.8,0.1,1.1,0.3c0.8,0.5,1.2,1.3,1.2,2.3v8c0,7.4,1.1,13.7,3.4,18.7
			c2.1,4.7,5.6,8.6,10,11.2l17.2,9.9c2.3,1.4,4.1,3.4,5.2,5.9c1.2,2.9,1.8,6,1.7,9.1v13.3c-0.1,1,0.3,2.1,1.1,2.7
			c0.7,0.4,1.7,0.2,2.9-0.4l11.8-6.8c3.2-2.1,5.2-5.6,5.5-9.5v-12c0-7.4-1.2-13.7-3.4-18.7c-2-4.7-5.6-8.6-10-11.2l0,0l-17.2-9.9
			c-4.6-2.6-6.9-7.6-6.9-14.9v-9.3c0.1-1.6,0.9-3.1,2.3-3.9l12.1-7l-24.6-27.9l-24.6,56.3l9.8-5.6C966,591,966.5,590.8,967,590.9
			L967,590.9z M1008.7,675.2c-0.8,0-1.6-0.2-2.3-0.6c-1.6-0.9-2.5-2.8-2.5-5.3v-13.3c0.1-2.7-0.4-5.4-1.4-7.9
			c-0.8-1.9-2.2-3.5-4-4.5l-17.2-9.9c-5-2.9-8.9-7.3-11.1-12.5c-2.4-5.3-3.7-12-3.7-19.9v-7.2l-13,7.5c-0.5,0.3-1.2,0.3-1.7-0.2
			c-0.5-0.4-0.6-1.1-0.4-1.7l27.2-62.5c0.2-0.5,0.6-0.8,1.1-0.8c0.5-0.1,1,0.1,1.3,0.4l27.3,31c0.3,0.3,0.4,0.8,0.3,1.2
			c-0.1,0.4-0.4,0.8-0.7,1l-13.6,7.8c-0.5,0.3-0.8,0.9-0.8,1.4v9.3c0,6.2,1.9,10.3,5.5,12.4l17.1,9.9c5,2.9,8.9,7.2,11.2,12.5
			c2.4,5.4,3.6,12.1,3.6,19.9v11.9c-0.2,4.9-2.8,9.4-6.9,12l-11.8,6.8C1011.1,674.9,1009.9,675.2,1008.7,675.2L1008.7,675.2z"/>
	</g>
</g>
</svg>
