<?xml version="1.0" encoding="utf-8"?>
<!-- Generator: Adobe Illustrator 25.0.0, SVG Export Plug-In . SVG Version: 6.00 Build 0)  -->
<svg version="1.1" id="Layer_1" xmlns="http://www.w3.org/2000/svg" xmlns:xlink="http://www.w3.org/1999/xlink" x="0px" y="0px"
	 viewBox="0 0 1920 1080" style="enable-background:new 0 0 1920 1080;" xml:space="preserve">
<style type="text/css">
	
		.st0{fill-rule:evenodd;clip-rule:evenodd;fill:#FFFFFF;stroke:#0072C8;stroke-width:0.75;stroke-linecap:round;stroke-linejoin:round;}
	.st1{fill:none;}
	
		.st2{fill-rule:evenodd;clip-rule:evenodd;fill:#D9E8FF;stroke:#0072C8;stroke-width:0.75;stroke-linecap:round;stroke-linejoin:round;}
	
		.st3{fill-rule:evenodd;clip-rule:evenodd;fill:#9ACEEF;stroke:#0072C8;stroke-width:0.75;stroke-linecap:round;stroke-linejoin:round;}
</style>
<g id="Layer_2_1_">
	<g id="Layer_1-2">
		<path class="st0" d="M859.4,561.3l127-73.3c6.2-3.6,16.4-3.6,22.6,0l61.1,35.3c6.2,3.6,6.2,9.5,0,13.1l-127,73.3
			c-6.2,3.6-16.4,3.6-22.6,0l-61.1-35.2C853.2,570.8,853.2,564.9,859.4,561.3z"/>
		<path class="st1" d="M860.3,562.9c-2.4,1.4-3.8,3.2-3.8,5s1.3,3.6,3.8,5l61,35.2c5.7,3.2,15.2,3.2,20.9,0l127-73.3
			c2.5-1.4,3.8-3.2,3.8-5s-1.3-3.6-3.8-5l-61.1-35.3c-5.6-3.3-15.2-3.3-20.9,0L860.3,562.9L860.3,562.9z M931.8,614.1
			c-4.2,0.1-8.4-0.9-12.2-2.9l-61.1-35.2c-3.6-2.1-5.5-4.9-5.5-8.1s2-6,5.5-8.1l0,0l127-73.3c6.8-3.9,17.7-3.9,24.4,0l61.1,35.3
			c3.6,2.1,5.5,4.9,5.5,8.1s-2,6-5.5,8.1l-127,73.3C940.3,613.2,936.1,614.2,931.8,614.1z"/>
		<path class="st2" d="M1008.5,560.1c3-8.4-2.9-18.7-16.6-26.7c-13.7-7.9-31.7-11.3-46.3-9.6l-2.2-1.3l51.9-30
			c2.5-1.2,5.5-1.2,8,0.2l59.1,34.1c2.3,1.3,2.4,3.4,0.4,4.6c-17.3,10-34.7,20-52,30L1008.5,560.1z"/>
		<path class="st1" d="M1010.6,559.2l0.1,0.1l51.1-29.5c0.4-0.3,0.5-0.5,0.5-0.6s-0.2-0.5-0.9-0.9l-59.1-34.1
			c-1.9-1-4.2-1.1-6.2-0.2l-48,27.7c15.5-1,30.9,2.5,44.5,10.1C1006.1,539.6,1012.9,550,1010.6,559.2L1010.6,559.2z M1010.7,563.2
			c-0.3,0-0.6-0.1-0.9-0.2l-2.2-1.3c-0.8-0.4-1.1-1.3-0.8-2.1c2.7-7.8-3.5-17.4-15.9-24.5c-13.7-7.7-29.5-11-45.1-9.4
			c-0.4,0-0.8-0.1-1.1-0.2l-2.2-1.3c-0.6-0.3-0.9-0.9-0.9-1.5c0-0.6,0.3-1.2,0.9-1.6l52-30c3.1-1.5,6.7-1.4,9.7,0.2l59.1,34.1
			c1.5,0.8,2.6,2.3,2.7,4c-0.1,1.6-1,2.9-2.4,3.6l-51.9,30C1011.4,563.1,1011.1,563.2,1010.7,563.2L1010.7,563.2z"/>
		<path class="st2" d="M984.3,574.1c-14.6,1.7-32.5-1.7-46.3-9.6s-19.6-18.3-16.6-26.7l-2.3-1.3c-17.3,10-34.6,20-52,30
			c-2.1,1.2-1.9,3.3,0.4,4.6l59.1,34.1c2.5,1.3,5.5,1.4,8,0.2c17.3-10,34.6-20,51.9-30L984.3,574.1z"/>
		<path class="st1" d="M919.1,538.5L868,568c-0.5,0.2-0.5,0.5-0.5,0.6s0.2,0.5,0.9,0.9l59.1,34.1c1.9,1,4.2,1.1,6.2,0.2l48-27.7
			c-15.5,1-30.9-2.5-44.5-10.1c-13.5-7.8-20.2-18.1-17.9-27.4L919.1,538.5L919.1,538.5z M930.9,608c-1.8,0-3.6-0.4-5.2-1.3
			l-59.1-34.1c-1.6-0.7-2.6-2.3-2.7-4c0.1-1.6,1-3,2.4-3.7l51.9-30c0.6-0.3,1.3-0.3,1.8,0l2.2,1.3c0.8,0.4,1.1,1.3,0.8,2.1
			c-2.7,7.8,3.5,17.4,15.9,24.5c13,7.5,30.4,11.1,45.2,9.4c0.4,0,0.7,0,1.1,0.2l2.3,1.3c0.6,0.3,0.9,0.9,0.9,1.5
			c0,0.6-0.3,1.2-0.9,1.5l-52,30C934,607.6,932.5,608,930.9,608z"/>
		<path class="st0" d="M1025.7,520.8c3.5-2,3.6-5.3,0.2-7.2c-4-2-8.6-1.9-12.6,0.1c-3.5,2-3.5,5.3-0.1,7.3
			C1017.1,522.9,1021.8,522.8,1025.7,520.8z"/>
		<path class="st1" d="M1019.7,513.9c-1.9,0-3.8,0.4-5.5,1.3c-1.1,0.6-1.8,1.4-1.8,2.1s0.6,1.4,1.7,2c3.4,1.7,7.4,1.6,10.8-0.1
			c1.1-0.6,1.8-1.4,1.8-2.1c0-0.7-0.6-1.4-1.7-2C1023.3,514.2,1021.5,513.8,1019.7,513.9L1019.7,513.9z M1025.7,520.8L1025.7,520.8z
			 M1019.3,524.1c-2.4,0-4.8-0.5-7-1.7c-2.2-1.3-3.4-3.1-3.4-5.1c0-2,1.3-3.9,3.6-5.2c4.5-2.3,9.8-2.4,14.4-0.1
			c2.2,1.3,3.4,3.1,3.4,5.1s-1.3,3.9-3.6,5.2l0,0C1024.4,523.6,1021.9,524.2,1019.3,524.1z"/>
		<path class="st0" d="M916.2,584c-3.9,2-8.6,2-12.5,0.1c-3.4-2-3.4-5.2,0.1-7.3c4-2,8.6-2,12.6-0.1
			C919.8,578.7,919.8,582,916.2,584z"/>
		<path class="st1" d="M910.2,577.1c-1.9,0-3.8,0.4-5.5,1.3c-1.1,0.6-1.8,1.4-1.8,2.2c0,0.7,0.6,1.4,1.6,2c3.4,1.7,7.4,1.6,10.8-0.1
			l0,0c1.1-0.6,1.8-1.4,1.8-2.1c0-0.7-0.6-1.4-1.7-2C913.9,577.5,912.1,577,910.2,577.1z M916.2,584L916.2,584z M909.8,587.4
			c-2.4,0-4.9-0.5-7-1.7c-2.2-1.3-3.4-3.1-3.4-5.1s1.3-4,3.6-5.3c4.5-2.3,9.8-2.4,14.4-0.1c2.2,1.3,3.4,3.1,3.4,5.1
			s-1.3,3.9-3.6,5.2l0,0C914.9,586.8,912.4,587.4,909.8,587.4L909.8,587.4z"/>
		<path class="st2" d="M1074.8,529.8l-0.1,10.3c-0.4,2.6-2.5,4.4-4.6,5.6l-127,73.4c-6.4,3.6-16.2,3.6-22.6,0l-62.2-36
			c-2-1.3-3.3-3.4-3.5-5.8v-9.4c0.2,3.2,2,4.9,4.7,6.5l61.1,35.2c6.4,3.6,16.2,3.6,22.6,0l127-73.3
			C1072.8,534.7,1074.5,533,1074.8,529.8z"/>
		<path class="st1" d="M856.6,574.6v2.7c0,1.6,1,3.1,2.8,4.4l62,35.9c5.8,3.3,15,3.3,20.9,0l127-73.3c2.2-1.3,3.5-2.8,3.7-4.4
			l0.1-3.3c-0.7,0.5-1.3,0.9-2,1.3l-127,73.4c-7,3.9-17.5,3.9-24.4,0l-61.1-35.3C857.8,575.6,857.2,575.1,856.6,574.6L856.6,574.6z
			 M931.8,623.6c-4.2,0.1-8.4-0.9-12.2-2.9l-62.1-36c-2.9-2.1-4.4-4.5-4.5-7.3v-9.5c0-1,0.7-1.8,1.7-1.8c1,0,1.8,0.7,1.8,1.7
			c0.2,2.2,1.2,3.5,3.8,5.2l61,35.2c5.8,3.3,15,3.3,20.9,0l127-73.3c2.6-1.6,3.6-2.9,3.8-5.1c0.1-0.9,0.9-1.6,1.8-1.6
			c1,0,1.7,0.8,1.7,1.8l-0.1,10.3c-0.5,2.9-2.3,5.2-5.5,7.2l-127,73.3C940.3,622.6,936.1,623.6,931.8,623.6L931.8,623.6z"/>
		<path class="st3" d="M932.3,621.8c-4.1,0.1-8.2-0.8-11.8-2.7l-62.2-36c-2-1.3-3.3-3.4-3.5-5.8v-9.4c0.2,3.2,2,4.9,4.7,6.5
			l61.1,35.2c3.7,1.9,7.8,2.9,12,2.7v9.4L932.3,621.8z"/>
		<path class="st1" d="M856.6,574.6v2.7c0,1.6,1,3.1,2.8,4.4l62,35.9c2.9,1.5,6.1,2.4,9.4,2.5v-5.8c-3.9-0.1-7.7-1.1-11.1-2.9
			l-61.1-35.3C857.8,575.6,857.2,575.1,856.6,574.6L856.6,574.6z M932.3,621.8L932.3,621.8z M931.8,623.6c-4.2,0.1-8.4-1-12.2-2.9
			l-62.1-36c-2.9-2-4.4-4.5-4.5-7.3v-9.5c0-1,0.8-1.8,1.7-1.8c0.9,0,1.7,0.7,1.8,1.6c0.2,2.2,1.2,3.6,3.8,5.2l61,35.2
			c3.4,1.8,7.3,2.6,11.1,2.5c0.5-0.1,1,0.1,1.3,0.5c0.4,0.3,0.6,0.8,0.6,1.3v9.4c0,0.9-0.7,1.7-1.7,1.8L931.8,623.6L931.8,623.6z"/>
		<path class="st3" d="M929.2,601.1c-0.6,0-1.2-0.4-1.6-0.9c-0.5-0.8-0.2-1.9,0.6-2.4c0,0,0,0,0,0l15.4-8.9c0.9-0.5,1.9-0.2,2.5,0.7
			c0.5,0.9,0.2,1.9-0.6,2.4l-15.4,8.9C929.9,601.1,929.6,601.1,929.2,601.1z"/>
		<path class="st3" d="M877.3,571.2c-0.6,0-1.2-0.3-1.5-0.9c-0.5-0.9-0.2-2,0.7-2.4c0,0,0,0,0,0l15.4-8.9c0.9-0.5,2-0.2,2.5,0.7
			s0.2,2-0.7,2.5l0,0l-15.4,8.9C877.9,571.1,877.6,571.2,877.3,571.2z"/>
		<path class="st1" d="M985,509c-0.6,0-1.2-0.3-1.6-0.9c-0.5-0.8-0.2-1.9,0.6-2.4c0,0,0,0,0,0l15.4-8.9c0.9-0.5,2-0.2,2.5,0.7
			c0.5,0.9,0.2,2-0.7,2.4l-15.4,8.9C985.6,508.9,985.3,509,985,509z"/>
		<path class="st3" d="M1036.9,539c-0.6,0-1.2-0.3-1.5-0.9c-0.5-0.8-0.2-1.9,0.6-2.4c0,0,0,0,0,0l15.4-8.9c0.8-0.5,1.9-0.3,2.5,0.5
			c0.5,0.8,0.3,1.9-0.5,2.5c-0.1,0-0.1,0.1-0.2,0.1l-15.4,8.9C1037.5,538.9,1037.2,539,1036.9,539z"/>
		<path class="st1" d="M969.3,566.9c-0.6,0-1.2-0.4-1.5-0.9c-0.5-0.9-0.2-1.9,0.7-2.4c7.5-4.4,14-8.1,21.2-11.9
			c0.3-0.1,0.5-0.3,0.7-0.6c-0.2-0.2-0.4-0.4-0.7-0.5l-10.1-5.9c-1.7-0.7-3.7-0.7-5.5,0c-3,1.8-6.3,3.5-9.4,5.2
			c-2.9,1.6-5.7,3.1-8.1,4.5c-2.8,1.6-6.2,1.6-9,0l-9.4-5.5c-1.5-0.7-2.5-2.2-2.6-3.8c0-0.9,0.4-2.4,2.7-3.5
			c5.8-2.8,12.2-6.3,19.6-10.5c0.9-0.5,2-0.2,2.5,0.6c0.5,0.8,0.2,1.9-0.6,2.4c0,0,0,0,0,0c-7.4,4.3-13.9,7.8-19.8,10.7
			c-0.6,0.3-0.7,0.5-0.7,0.5l0,0c0.2,0.2,0.5,0.4,0.8,0.6l9.4,5.5c1.7,1,3.8,1,5.5,0c2.5-1.4,5.3-3,8.2-4.6c3.1-1.7,6.3-3.5,9.3-5.2
			c2.8-1.6,7.2-1.1,9.1,0l10.1,5.9c2.2,1.3,2.5,2.9,2.5,3.7c0,0.8-0.4,2.4-2.6,3.6c-7.1,3.8-13.6,7.5-21.1,11.9
			C970,566.8,969.7,566.9,969.3,566.9z"/>
		<path class="st1" d="M989,564.7c-0.3,0-0.6-0.1-0.9-0.2c-5.5-3.2-11-6.5-16.5-9.7c-10.5-6.3-21.5-12.8-32.5-18.9
			c-0.9-0.4-1.3-1.5-0.9-2.4s1.5-1.3,2.4-0.9c0.1,0,0.2,0.1,0.3,0.2c11,6.2,22,12.7,32.6,18.9c5.4,3.2,10.9,6.5,16.5,9.7
			c0.9,0.5,1.2,1.6,0.7,2.4c0,0,0,0,0,0C990.2,564.4,989.6,564.7,989,564.7z"/>
		<path class="st0" d="M851.2,461.3l126.1-72.8c6.2-3.6,16.3-3.6,22.5,0l60.6,35c6.2,3.6,6.2,9.4,0,13l-126.1,72.8
			c-6.2,3.6-16.3,3.6-22.5,0l-60.6-35C845.1,470.7,845.1,464.9,851.2,461.3z"/>
		<path class="st1" d="M852.1,462.9c-2.4,1.4-3.7,3.2-3.7,4.9c0,1.8,1.3,3.6,3.7,4.9l60.6,35c5.6,3.2,15.1,3.2,20.7,0l126.1-72.8
			c2.4-1.4,3.7-3.2,3.7-4.9c0-1.8-1.3-3.6-3.7-4.9l-60.6-35c-5.6-3.2-15.1-3.2-20.7,0L852.1,462.9z M923.1,513.7
			c-4.2,0.1-8.4-0.9-12.1-2.9l-60.6-35c-3.6-2.1-5.6-4.9-5.6-8c0-3.1,2-6,5.5-8l0,0l126-72.8c6.7-3.9,17.6-3.9,24.3,0l60.6,35
			c3.6,2.1,5.5,4.9,5.5,8s-2,6-5.5,8l-126,72.8C931.5,512.8,927.3,513.8,923.1,513.7L923.1,513.7z"/>
		<path class="st2" d="M924.2,444.5c-0.6,5.5,3.3,11.5,11.4,16.2c8.1,4.7,18.6,6.9,28.1,6.6l0,0L924.2,444.5z"/>
		<path class="st1" d="M926.2,447.7c1,4,4.7,8.2,10.4,11.4c6.2,3.4,13.1,5.5,20.1,6.1L926.2,447.7z M961.8,469.2
			c-9.4,0.1-18.7-2.3-27-6.9c-8.5-4.9-13-11.5-12.4-18c0.1-0.6,0.5-1.1,1-1.4c0.5-0.3,1.1-0.3,1.7,0l39.5,22.8
			c0.9,0.4,1.3,1.5,0.9,2.4c-0.3,0.7-1,1.1-1.7,1C963.1,469.1,962.4,469.2,961.8,469.2z"/>
		<path class="st2" d="M999.2,460.1c3-8.4-2.9-18.6-16.5-26.5c-13.7-7.9-31.5-11.3-45.9-9.6l-2.2-1.3c17.2-9.9,34.4-19.8,51.5-29.8
			c2.5-1.2,5.5-1.1,7.9,0.2c19.6,11.3,39.1,22.6,58.6,33.9c2.3,1.3,2.4,3.4,0.4,4.6c-17.2,9.9-34.4,19.8-51.6,29.8L999.2,460.1z"/>
		<path class="st1" d="M1001.3,459.2l0.1,0.1l50.7-29.2c0.4-0.2,0.5-0.5,0.5-0.5c0-0.1-0.2-0.5-0.9-0.9l-58.7-33.9
			c-1.9-1-4.1-1.1-6.1-0.2L939.4,422c15.4-0.9,30.7,2.6,44.1,10.1C996.9,439.7,1003.6,450,1001.3,459.2z M1001.4,463.1
			c-0.3,0-0.6-0.1-0.9-0.2l-2.3-1.3c-0.7-0.4-1.1-1.3-0.8-2.1c2.7-7.7-3.5-17.3-15.8-24.4c-13.6-7.6-29.3-10.9-44.8-9.3
			c-0.3,0-0.7,0-1-0.2l-2.3-1.3c-0.6-0.3-0.9-0.9-0.9-1.5c0-0.6,0.3-1.2,0.8-1.5l51.6-29.8c3-1.5,6.6-1.4,9.6,0.2l58.7,33.9
			c1.6,0.7,2.6,2.3,2.7,4c-0.1,1.6-1,2.9-2.4,3.6l-51.6,29.8C1002.1,463.1,1001.7,463.1,1001.4,463.1z"/>
		<path class="st2" d="M948.2,430.6c9.5-0.3,20,1.9,28.1,6.6c8.1,4.7,12,10.7,11.5,16.2l0,0L948.2,430.6L948.2,430.6z"/>
		<path class="st1" d="M955.3,432.6l30.5,17.6c-1-4-4.6-8.2-10.3-11.5C969.2,435.4,962.4,433.3,955.3,432.6L955.3,432.6z
			 M987.8,455.2c-0.3,0-0.6-0.1-0.9-0.2l-39.5-22.8c-0.7-0.4-1.1-1.2-0.9-2c0.2-0.8,0.9-1.3,1.7-1.4c10.1-0.4,20.1,2,29,6.8
			c8.5,4.9,13,11.5,12.3,18c-0.1,0.6-0.4,1.1-0.9,1.4C988.3,455.2,988,455.2,987.8,455.2z"/>
		<path class="st2" d="M975.2,474c-15.9,1.6-31.9-1.8-45.9-9.6c-13.7-7.9-19.5-18.1-16.6-26.5l-2.2-1.3l-51.5,29.8
			c-2.1,1.2-1.9,3.2,0.3,4.5l58.7,33.9c2.4,1.3,5.4,1.4,7.9,0.2l51.6-29.8L975.2,474z"/>
		<path class="st1" d="M910.5,438.7l-50.6,29.3c-0.4,0.2-0.6,0.5-0.6,0.6c0,0.1,0.2,0.5,0.9,0.9l58.7,33.9c1.9,1,4.1,1.1,6,0.2
			l47.6-27.5c-15.4,0.9-30.7-2.6-44.1-10.1C915,458.2,908.4,447.9,910.5,438.7C910.6,438.7,910.5,438.7,910.5,438.7z M922.2,507.7
			c-1.8,0-3.6-0.4-5.1-1.3l-58.7-33.9c-1.6-0.7-2.6-2.3-2.7-4c0.1-1.6,1-2.9,2.4-3.6l51.6-29.8c0.6-0.3,1.2-0.3,1.8,0l2.2,1.3
			c0.7,0.4,1.1,1.3,0.8,2.1c-2.7,7.7,3.4,17.3,15.7,24.3c13.6,7.6,29.3,10.9,44.8,9.3c0.4,0,0.8,0,1.1,0.2l2.2,1.3
			c0.6,0.3,0.9,0.9,0.9,1.5c0,0.6-0.3,1.2-0.9,1.6l-51.5,29.7C925.4,507.3,923.8,507.7,922.2,507.7L922.2,507.7z"/>
		<path class="st0" d="M1016.3,421.1c3.5-2,3.5-5.2,0.1-7.2c-3.9-2-8.5-1.9-12.4,0.1c-3.5,2-3.6,5.2-0.1,7.2
			C1007.8,423.1,1012.4,423.1,1016.3,421.1z"/>
		<path class="st1" d="M1010.3,414.2c-1.9,0-3.8,0.4-5.5,1.3c-1.1,0.6-1.8,1.5-1.8,2.1s0.6,1.4,1.6,2c3.4,1.7,7.3,1.6,10.7-0.1l0,0
			c1.1-0.6,1.8-1.4,1.8-2.1c0-0.7-0.6-1.4-1.6-2C1014,414.6,1012.2,414.2,1010.3,414.2L1010.3,414.2z M1010,424.4
			c-2.4,0-4.8-0.5-7-1.7c-2.2-1.3-3.4-3.1-3.4-5.1s1.3-3.9,3.5-5.2c4.5-2.3,9.8-2.4,14.3-0.1c2.2,1.3,3.4,3.1,3.4,5.1
			s-1.3,3.9-3.6,5.2l0,0C1015,423.8,1012.5,424.4,1010,424.4z"/>
		<path class="st0" d="M907.7,483.8c-3.9,2-8.6,2-12.5,0.1c-3.4-2-3.4-5.2,0.1-7.2c3.9-2,8.5-2.1,12.5-0.1
			C911.2,478.6,911.2,481.8,907.7,483.8z"/>
		<path class="st1" d="M901.7,476.9c-1.9,0-3.8,0.4-5.5,1.3c-1.1,0.6-1.8,1.4-1.8,2.1c0,0.7,0.6,1.4,1.7,2c3.4,1.6,7.3,1.6,10.7-0.1
			c1.1-0.6,1.8-1.4,1.8-2.1s-0.6-1.4-1.7-2C905.3,477.3,903.5,476.9,901.7,476.9L901.7,476.9z M901.3,487.1c-2.4,0-4.8-0.5-7-1.7
			c-2.2-1.3-3.4-3.1-3.4-5.1s1.3-3.9,3.5-5.2c4.5-2.3,9.8-2.4,14.3-0.1c2.2,1.3,3.4,3.1,3.4,5.1s-1.3,3.9-3.6,5.2l0,0
			C906.3,486.6,903.8,487.2,901.3,487.1z"/>
		<polygon class="st0" points="1012.2,464.3 982.6,481.5 899.5,433.5 929.1,416.4 		"/>
		<path class="st1" d="M903,433.5l79.5,45.9l26-15.1l-79.5-45.9L903,433.5z M982.6,483.2c-0.3,0-0.6-0.1-0.9-0.2l-83.1-48
			c-0.9-0.5-1.1-1.7-0.6-2.5c0.1-0.2,0.3-0.4,0.6-0.6l29.7-17.1c0.5-0.3,1.2-0.3,1.8,0l83.1,48c0.5,0.3,0.9,0.9,0.9,1.5
			c0,0.6-0.4,1.2-0.9,1.6L983.5,483C983.2,483.2,982.9,483.2,982.6,483.2z"/>
		<polygon class="st2" points="988.1,478.3 991.1,476.5 994.2,474.8 911,426.8 908,428.5 905,430.3 		"/>
		<path class="st1" d="M908.6,430.3l79.5,45.9l2.5-1.4L911,428.8C911,428.8,908.6,430.3,908.6,430.3z M988.1,480.1
			c-0.3,0-0.6-0.1-0.8-0.2l-83.1-48c-0.9-0.5-1.1-1.6-0.7-2.4c0.2-0.3,0.4-0.5,0.7-0.7l6-3.5c0.6-0.3,1.3-0.3,1.8,0l83.1,48
			c0.9,0.5,1.1,1.7,0.6,2.5c-0.1,0.2-0.3,0.4-0.6,0.6l-6,3.5C988.7,480,988.4,480.1,988.1,480.1z"/>
		<polygon class="st2" points="1003.6,469.3 1000.6,471 917.5,423.1 920.5,421.3 923.5,419.6 1006.7,467.6 		"/>
		<path class="st1" d="M921.1,423.1l79.5,45.9l2.5-1.4l-79.5-46L921.1,423.1z M1003.6,469.3L1003.6,469.3z M1000.6,472.8
			c-0.3,0-0.6-0.1-0.9-0.2l-83-48c-0.6-0.3-0.9-0.9-0.9-1.5c0-0.6,0.3-1.2,0.8-1.5l6-3.5c0.6-0.3,1.3-0.3,1.8,0l83,48
			c0.9,0.5,1.2,1.5,0.7,2.4c-0.2,0.3-0.4,0.5-0.7,0.7l-3,1.7l0,0l-3,1.7C1001.2,472.7,1000.9,472.8,1000.6,472.8L1000.6,472.8z"/>
		<path class="st2" d="M1065.1,430v42.8c-0.2,3.2-1.9,4.8-4.6,6.5l-126,72.8c-3,1.6-6.3,2.5-9.7,2.6h-0.8c-4.2,0.2-8.3-0.7-12-2.7
			l-60.6-35c-2.6-1.7-4.4-3.2-4.6-6.5l0-42.8c0.3,3.2,2,4.8,4.6,6.5l60.6,35c3.7,1.9,7.8,2.9,12,2.7c3.7,0,7.2-0.9,10.5-2.7
			l126.1-72.8C1063.1,434.8,1064.8,433.2,1065.1,430z"/>
		<path class="st1" d="M848.4,474.5v36.1c0.2,2.3,1.4,3.4,3.8,5l60.5,35c3.4,1.8,7.2,2.6,11.1,2.4h0.7c3.1-0.1,6.2-0.9,8.9-2.4
			l126.1-72.9c2.4-1.6,3.6-2.7,3.8-5.1v-36c-0.7,0.5-1.3,0.9-1.9,1.3l-126.2,72.9c-3.5,1.9-7.3,2.9-11.3,2.9c-4.5,0.2-9-0.8-13-2.9
			l-60.6-35C849.6,475.5,849,475,848.4,474.5L848.4,474.5z M923.4,556.5c-4.3,0.1-8.6-0.9-12.4-2.9l-60.6-35
			c-2.6-1.7-5.2-3.6-5.5-7.9v-42.9c0-1,0.8-1.7,1.7-1.8c0.9-0.1,1.8,0.6,1.9,1.5c0,0,0,0.1,0,0.1c0.2,2.4,1.3,3.6,3.8,5.1l60.5,35
			c3.4,1.8,7.2,2.6,11.1,2.4c3.4,0,6.7-0.9,9.6-2.4l126.1-72.8c2.4-1.5,3.6-2.6,3.8-5.1c0-0.9,0.8-1.7,1.7-1.6c0,0,0.1,0,0.1,0
			c1,0,1.7,0.8,1.7,1.8l0.1,42.8c-0.4,4.4-2.9,6.3-5.5,8l-126.2,72.8c-3.2,1.8-6.8,2.7-10.4,2.9H924L923.4,556.5z"/>
		<path class="st3" d="M923.8,554.7c-4.1,0.2-8.2-0.7-11.9-2.6l-60.6-35c-2.6-1.7-4.4-3.2-4.6-6.5l0-42.8c0.3,3.2,2,4.8,4.6,6.5
			l60.6,35c3.7,1.9,7.8,2.9,12,2.7L923.8,554.7z"/>
		<path class="st1" d="M848.4,474.5v36.1c0.2,2.3,1.4,3.4,3.8,5l60.5,35c2.9,1.5,6,2.3,9.3,2.4v-39.2c-3.8-0.1-7.6-1-11-2.9
			l-60.6-35C849.7,475.5,849,475,848.4,474.5L848.4,474.5z M923.8,554.7L923.8,554.7z M923.3,556.5c-4.3,0.1-8.5-0.9-12.3-2.9
			l-60.6-35c-2.6-1.7-5.2-3.7-5.5-7.9v-42.9c0-1,0.8-1.7,1.7-1.8c0.9-0.1,1.8,0.6,1.9,1.5c0,0,0,0.1,0,0.1c0.2,2.4,1.4,3.6,3.8,5.1
			l60.5,35c3.4,1.8,7.2,2.6,11,2.4c0.5,0,0.9,0.2,1.2,0.5c0.3,0.3,0.6,0.8,0.6,1.3v42.8c0,1-0.8,1.8-1.8,1.8L923.3,556.5z"/>
		<path class="st1" d="M923.4,540.1c-4.3,0.1-8.6-0.9-12.4-2.9l-60.6-35.1c-2.6-1.6-5.2-3.6-5.5-7.8c-0.1-1,0.7-1.9,1.7-1.9
			c1-0.1,1.8,0.7,1.9,1.6c0.2,2.4,1.4,3.6,3.8,5.1l60.5,35c3.4,1.8,7.2,2.6,11.1,2.4c3.2,0,6.3-0.8,9.1-2.2l0.5-0.3l126-72.8
			c2.4-1.5,3.6-2.7,3.8-5.1c0.1-1,0.9-1.7,1.9-1.6c0,0,0,0,0,0c1,0.1,1.7,0.9,1.7,1.9c-0.4,4.2-2.9,6.2-5.5,7.8l-126.8,73.2
			c-3.3,1.6-7,2.5-10.7,2.6H923.4z"/>
		<path class="st1" d="M923.1,523.1c-0.8,0-1.6,0-2.4-0.1c-3.4-0.2-6.7-1.2-9.7-2.8l-60.6-35c-2.7-1.7-5.2-3.6-5.5-7.9
			c-0.1-1,0.6-1.8,1.6-1.9c1-0.1,1.9,0.6,2,1.6c0.2,2.4,1.3,3.5,3.8,5.1l60.5,34.9c2.5,1.4,5.4,2.2,8.2,2.3c1.2,0.1,2.4,0.1,3.6,0
			c1-0.1,1.9-0.2,2.8-0.3c1.5-0.3,3-0.7,4.5-1.3c0.5-0.2,1.1-0.5,1.6-0.8l126-72.7c2.4-1.5,3.6-2.7,3.8-5.1c0-0.9,0.7-1.7,1.7-1.7
			c0.1,0,0.2,0,0.2,0c1,0.1,1.7,1,1.6,1.9c-0.4,4.2-2.9,6.2-5.4,7.9l-126.1,72.8c-0.6,0.4-1.3,0.7-2,1c-1.7,0.7-3.4,1.2-5.2,1.5
			c-1.2,0.2-2.1,0.3-3.2,0.4L923.1,523.1z"/>
		<path class="st1" d="M922.8,531.7h-0.5c-1.9-0.1-3.8-0.3-5.6-0.7c-2-0.5-3.9-1.2-5.7-2.2l-60.7-35c-2.6-1.7-5.2-3.7-5.5-7.9
			c-0.1-1,0.7-1.9,1.7-1.9c1-0.1,1.8,0.6,1.9,1.6c0,0,0,0,0,0c0.2,2.4,1.4,3.5,3.8,5.1l60.5,35c1.5,0.8,3.1,1.4,4.8,1.8
			c1.6,0.3,3.2,0.5,4.9,0.6c1.2,0,2.4,0,3.5-0.2c2.6-0.3,5.2-1,7.5-2.3l126-72.8c2.3-1.4,3.6-2.7,3.8-5.1c0.1-1,0.9-1.7,1.8-1.6
			c0,0,0,0,0.1,0c1,0.1,1.7,0.9,1.6,1.9c-0.3,4-2.8,6.2-5.4,7.9l-126.2,72.8c-2.7,1.5-5.8,2.4-8.9,2.7
			C925.2,531.6,924,531.7,922.8,531.7z"/>
		<path class="st1" d="M923,548.7c-4.2,0.1-8.3-0.9-12-2.9l-60.6-35c-2.6-1.7-5.2-3.7-5.6-7.9c-0.1-1,0.6-1.9,1.6-1.9
			c1-0.1,1.9,0.6,1.9,1.6c0.2,2.4,1.4,3.6,3.8,5.1l60.5,35c4.1,2.1,8.7,2.9,13.2,2.3c2.6-0.3,5.2-1.1,7.6-2.3l126-72.8
			c2.3-1.5,3.6-2.7,3.8-5.1c0.1-1,0.9-1.7,1.9-1.6c0,0,0,0,0.1,0c1,0.1,1.7,0.9,1.6,1.9c0,0,0,0,0,0c-0.4,4.2-3,6.3-5.4,7.8
			l-126.1,72.8c-2.7,1.5-5.7,2.4-8.8,2.7C925.3,548.6,924.2,548.7,923,548.7z"/>
		<path class="st2" d="M1012.2,464.3v42.8l-31.2,18v-42.7C998.2,472.4,995,474.3,1012.2,464.3z"/>
		<path class="st1" d="M982.8,483.4v38.7l27.6-16v-38.6L982.8,483.4z M981,526.9c-0.3,0-0.6-0.1-0.9-0.2c-0.6-0.3-0.9-0.9-0.9-1.5
			v-42.8c0-0.6,0.4-1.2,0.9-1.5l31.2-18c0.9-0.5,2-0.2,2.5,0.7c0.2,0.3,0.2,0.6,0.2,0.9v42.7c0,0.6-0.4,1.2-0.9,1.6l-31.3,18
			C981.6,526.8,981.3,526.9,981,526.9L981,526.9z"/>
		<path class="st3" d="M920.5,500.8c-0.6,0-1.2-0.3-1.5-0.9c-0.5-0.9-0.2-1.9,0.7-2.4l15.2-8.8c0.9-0.5,2-0.2,2.5,0.6
			c0.5,0.9,0.2,1.9-0.7,2.4l-15.3,8.8C921.1,500.8,920.8,500.8,920.5,500.8z"/>
		<path class="st3" d="M869,471.1c-0.6,0-1.2-0.3-1.5-0.9c-0.5-0.8-0.2-1.9,0.6-2.4c0,0,0,0,0,0l15.2-8.8c0.9-0.5,2-0.2,2.5,0.7
			c0.5,0.9,0.2,2-0.7,2.5l0,0l-15.3,8.8C869.6,471,869.3,471.1,869,471.1z"/>
		<path class="st3" d="M975.9,409.4c-0.6,0-1.2-0.3-1.6-0.9c-0.5-0.9-0.2-1.9,0.7-2.4l15.3-8.8c0.9-0.5,2-0.2,2.5,0.6
			c0.5,0.9,0.2,1.9-0.7,2.4l-15.2,8.8C976.5,409.3,976.2,409.3,975.9,409.4z"/>
		<path class="st3" d="M1027.4,439.1c-0.6,0-1.2-0.4-1.6-0.9c-0.5-0.9-0.2-2,0.7-2.4l15.3-8.8c0.9-0.5,2-0.2,2.5,0.6s0.2,2-0.6,2.5
			l-15.3,8.8C1028,439.1,1027.7,439.1,1027.4,439.1z"/>
		<polygon class="st3" points="988.1,478.3 991.1,476.5 994.2,474.8 994.2,517.5 991.1,519.3 988.1,521 		"/>
		<path class="st1" d="M989.9,479.3v38.6l2.4-1.4v-38.6C992.3,477.9,989.9,479.3,989.9,479.3z M988.1,522.8c-0.3,0-0.6-0.1-0.9-0.2
			c-0.6-0.3-0.9-0.9-0.9-1.5v-42.8c0-0.6,0.3-1.3,0.9-1.6l6-3.5c0.6-0.3,1.2-0.3,1.8,0c0.5,0.3,0.9,0.9,0.9,1.6v42.8
			c0,0.6-0.3,1.2-0.9,1.5l-6,3.5C988.7,522.7,988.4,522.8,988.1,522.8L988.1,522.8z"/>
		<polygon class="st3" points="1003.6,469.3 1000.6,471 1000.6,513.8 1003.6,512.1 1006.7,510.3 1006.7,467.5 		"/>
		<path class="st1" d="M1002.4,472.1v38.7l2.4-1.4v-38.7L1002.4,472.1z M1000.6,515.6c-0.3,0-0.6-0.1-0.9-0.2
			c-0.5-0.3-0.9-0.9-0.9-1.5v-42.8c0-0.6,0.3-1.2,0.9-1.5l3-1.7l0,0l3-1.7c0.5-0.3,1.2-0.3,1.8,0c0.6,0.3,0.9,0.9,0.9,1.5v42.8
			c0,0.6-0.4,1.2-0.9,1.5l-6,3.5C1001.2,515.5,1000.9,515.6,1000.6,515.6L1000.6,515.6z"/>
		<path class="st3" d="M955,684.1c-8.4-5-16.9-12.8-17.2-23.2v-13.3c1.2,19,24.8,28.6,40.7,31.5c21.3,4,50.6,1,67.3-13.6
			c5.4-4.8,9.2-10.5,9.7-17.9c0,3.2,0.2,12.3-0.1,15c-2,16.5-22.4,25.7-36.6,29C998.3,696.4,973.5,694.6,955,684.1z"/>
		<path class="st1" d="M955.8,682.6c17,9.5,40.9,12.3,62.5,7.3c15.1-3.5,33.4-12.9,35.2-27.5c0.1-0.7,0.1-1.9,0.2-3.4
			c-1.8,2.9-4.1,5.6-6.8,7.8c-17.4,15.2-47.9,18-68.8,14c-14.6-2.7-31.4-9.9-38.6-21.9v2C939.8,671,948.6,678.3,955.8,682.6
			L955.8,682.6z M996.6,695.9c-15.5,0-30.6-3.5-42.5-10.2l0,0c-8-4.8-17.7-12.9-18.1-24.7v-13.4c0-1,0.8-1.8,1.8-1.8l0,0
			c0.9,0,1.7,0.7,1.8,1.7c1.1,16.8,21.8,26.6,39.3,29.9c20.1,3.8,49.3,1.2,65.8-13.2c5.7-5,8.7-10.4,9.1-16.6c0-0.9,0.8-1.7,1.7-1.7
			c0.1,0,0.1,0,0.2,0c1,0,1.7,0.8,1.7,1.8v3c0,4.2,0.1,10.1-0.2,12.2c-2,16.5-20.9,26.6-37.9,30.6
			C1011.7,695.1,1004.2,695.9,996.6,695.9L996.6,695.9z"/>
		<path class="st3" d="M996.6,680.8c-15.1,0-30.1-3.3-41.6-10c-11.5-6.7-17.2-15.3-17.2-24c0-8.7,5.7-17.4,17.2-24
			c11.5-6.6,26.6-10,41.6-10c15.1,0,30.1,3.3,41.6,10s17.2,15.3,17.2,24c0,8.7-5.8,17.4-17.2,24
			C1026.7,677.4,1011.7,680.8,996.6,680.8z"/>
		<path class="st1" d="M996.6,614.6c-15.4,0-29.9,3.5-40.8,9.7c-10.5,6.1-16.3,14.1-16.3,22.5c0,8.4,5.8,16.4,16.3,22.5
			c10.9,6.3,25.3,9.7,40.8,9.7c15.4,0,29.9-3.5,40.7-9.7c10.5-6.1,16.3-14.1,16.3-22.5c0-8.4-5.8-16.4-16.3-22.5
			C1026.5,618,1012,614.6,996.6,614.6z M996.6,682.6c-16,0-31.1-3.6-42.5-10.2c-11.7-6.7-18.1-15.8-18.1-25.6
			c0-9.7,6.5-18.8,18.1-25.6c11.4-6.6,26.5-10.2,42.5-10.2c16.1,0,31.1,3.6,42.5,10.2c11.7,6.7,18.2,15.8,18.2,25.6
			s-6.5,18.8-18.2,25.6C1027.7,678.9,1012.6,682.5,996.6,682.6L996.6,682.6z"/>
		<path class="st0" d="M1013,574.8l26.5-26.7c4.4-4.4,6.9-9.4,6.4-15.4v-36.3h-98.6v35.8c-0.8,6.1,1.8,11.4,6.2,15.8l26.7,26.8
			l-26.7,26.9c-4.8,4.8-6.8,10.3-6.2,15.7v29.4h98.5v-29.8c0.4-5.3-1.7-10.7-6.4-15.4L1013,574.8z"/>
		<path class="st1" d="M949,645h95v-28c0.4-5-1.6-9.9-5.9-14.2l-26.5-26.7c-0.7-0.7-0.7-1.8,0-2.5l26.5-26.7c4.4-4.4,6.3-9,5.9-14
			v-34.7h-95v34c-0.6,5.3,1.3,10.1,5.6,14.5l26.7,26.8c0.7,0.7,0.7,1.8,0,2.5l-26.7,26.9c-4.3,4.3-6.3,9.3-5.7,14.2L949,645L949,645
			z M1045.8,648.5h-98.5c-1,0-1.8-0.8-1.8-1.8v-29.4c-0.7-5.9,1.6-11.8,6.7-17l25.4-25.6l-25.4-25.6c-5.1-5.2-7.4-11.1-6.7-17.2
			v-35.6c0-1,0.8-1.8,1.8-1.8h98.5c1,0,1.8,0.8,1.8,1.8v36.3c0.5,6-1.7,11.5-6.9,16.7l-25.2,25.5l25.3,25.5c5,5.1,7.4,10.9,6.9,16.8
			v29.7C1047.7,647.7,1046.9,648.5,1045.8,648.5C1045.8,648.5,1045.8,648.5,1045.8,648.5z"/>
		<path class="st2" d="M947.2,628.2v18.5h98.5v-18.7c-2.4-2-4.9-3.8-7.6-5.4c-11.5-6.6-26.6-10-41.6-10s-30.1,3.3-41.6,10
			C952.2,624.3,949.6,626.1,947.2,628.2z"/>
		<path class="st1" d="M949,645h95v-16c-2.1-1.7-4.3-3.3-6.7-4.7c-10.8-6.2-25.3-9.7-40.7-9.7c-15.4,0-29.9,3.4-40.8,9.7
			c-2.4,1.4-4.7,3-6.8,4.7L949,645L949,645z M1045.8,648.5h-98.5c-1,0-1.8-0.8-1.8-1.8v-18.5c0-0.5,0.2-1,0.6-1.4
			c2.5-2.1,5.2-4.1,8-5.7c11.4-6.6,26.5-10.2,42.5-10.2c16.1,0,31.1,3.6,42.5,10.2c2.8,1.6,5.5,3.5,7.9,5.6c0.4,0.3,0.6,0.8,0.6,1.3
			v18.7C1047.6,647.7,1046.8,648.5,1045.8,648.5C1045.8,648.5,1045.8,648.5,1045.8,648.5z"/>
		<path class="st2" d="M961.7,626.6c19.2-11.1,50.5-11.1,69.7,0c19.3,11.1,19.3,29.2,0,40.3c-19.3,11.1-50.5,11.1-69.8,0
			S942.4,637.7,961.7,626.6z"/>
		<path class="st1" d="M962.6,628.2c-8.8,5-13.6,11.7-13.6,18.6s4.8,13.5,13.6,18.6c18.7,10.8,49.2,10.8,68,0
			c8.7-5,13.5-11.6,13.6-18.6s-4.8-13.6-13.6-18.6C1011.8,617.4,981.4,617.4,962.6,628.2L962.6,628.2z M996.6,677
			c-13,0-25.9-2.8-35.8-8.5s-15.4-13.4-15.4-21.7s5.5-16,15.4-21.7l0,0c19.7-11.4,51.8-11.4,71.5,0c9.9,5.7,15.3,13.4,15.3,21.7
			c0,8.3-5.4,16-15.3,21.7S1009.5,677,996.6,677L996.6,677z"/>
		<path class="st2" d="M961.7,626.6c19.2-11.1,50.5-11.1,69.7,0c19.3,11.1,19.3,29.2,0,40.3c-19.3,11.1-50.5,11.1-69.8,0
			S942.4,637.7,961.7,626.6z"/>
		<path class="st1" d="M962.6,628.2c-8.8,5-13.6,11.7-13.6,18.6s4.8,13.5,13.6,18.6c18.7,10.8,49.2,10.8,68,0
			c8.7-5,13.5-11.6,13.6-18.6s-4.8-13.6-13.6-18.6C1011.8,617.4,981.4,617.4,962.6,628.2L962.6,628.2z M996.6,677
			c-13,0-25.9-2.8-35.8-8.5s-15.4-13.4-15.4-21.7s5.5-16,15.4-21.7l0,0c19.7-11.4,51.8-11.4,71.5,0c9.9,5.7,15.3,13.4,15.3,21.7
			c0,8.3-5.4,16-15.3,21.7S1009.5,677,996.6,677L996.6,677z"/>
		<path class="st2" d="M965.9,530.6c-17-9.8-17-25.7,0-35.5c17-9.8,44.5-9.8,61.4,0c17,9.8,17,25.7,0,35.5
			C1010.3,540.4,982.9,540.4,965.9,530.6L965.9,530.6z M961.7,533c19.2,11.1,50.5,11.1,69.7,0c19.3-11.1,19.3-29.2,0-40.3
			c-19.3-11.1-50.5-11.1-69.8,0C942.4,503.8,942.4,521.9,961.7,533L961.7,533z"/>
		<path class="st1" d="M996.6,489.5c-10.8,0-21.6,2.4-29.8,7.1c-7.6,4.4-11.8,10.1-11.8,16.2c0,6,4.2,11.8,11.9,16.2l0,0
			c16.4,9.5,43.2,9.5,59.6,0c7.6-4.4,11.8-10.2,11.8-16.2c0-6-4.2-11.8-11.8-16.2C1018.2,492,1007.4,489.6,996.6,489.5L996.6,489.5z
			 M962.6,531.5L962.6,531.5c-8.8-5.1-13.6-11.7-13.6-18.6s4.8-13.5,13.5-18.6c5.8-3.2,12.1-5.5,18.6-6.6c-5.7,1.1-11.2,3.2-16.2,6
			c-8.8,5.1-13.6,11.9-13.6,19.3c0,7.4,4.8,14.2,13.6,19.3c5,2.8,10.5,4.9,16.1,6C974.6,537,968.4,534.7,962.6,531.5L962.6,531.5z
			 M1012,487.6c6.5,1.2,12.8,3.4,18.5,6.7c8.7,5,13.5,11.6,13.6,18.6c0,6.9-4.8,13.6-13.6,18.6c-5.8,3.2-12,5.4-18.5,6.6
			c5.7-1.1,11.1-3.2,16.1-6c8.8-5,13.6-11.9,13.6-19.2s-4.8-14.2-13.6-19.3C1023.1,490.8,1017.7,488.7,1012,487.6L1012,487.6z
			 M996.6,543.1c-13,0-25.9-2.9-35.8-8.5l0,0c-9.9-5.7-15.4-13.4-15.4-21.7c0-8.3,5.5-16,15.3-21.7c19.7-11.4,51.8-11.4,71.5,0
			c9.9,5.7,15.3,13.4,15.3,21.7c0,8.3-5.4,16-15.3,21.7C1022.5,540.2,1009.5,543.1,996.6,543.1z"/>
		<path class="st2" d="M961.7,524.5c19.2,11.1,50.5,11.1,69.7,0c19.3-11.1,19.3-29.1,0-40.3c-19.3-11.1-50.5-11.1-69.8,0
			C942.4,495.3,942.4,513.4,961.7,524.5z"/>
		<path class="st1" d="M996.6,477.7c-12.3,0-24.6,2.7-34,8.1c-8.7,5-13.5,11.6-13.5,18.6c0,7,4.8,13.5,13.6,18.6
			c18.8,10.8,49.2,10.8,68,0c8.8-5.1,13.6-11.7,13.6-18.6s-4.8-13.5-13.6-18.6C1021.2,480.4,1008.9,477.7,996.6,477.7L996.6,477.7z
			 M996.6,534.6c-13,0-25.9-2.8-35.8-8.5c-9.9-5.7-15.4-13.4-15.4-21.7s5.5-16,15.3-21.7c19.7-11.4,51.8-11.4,71.5,0
			c9.9,5.7,15.3,13.4,15.3,21.7s-5.4,16-15.3,21.7C1022.5,531.7,1009.5,534.6,996.6,534.6L996.6,534.6z"/>
		<path class="st0" d="M1017.2,530.2c4.9-1.4,9.7-3.3,14.2-5.7c1.8-1,3.5-2.1,5.1-3.4v-33.4c-1.6-1.3-3.3-2.4-5.1-3.4
			c-4.5-2.4-9.3-4.4-14.2-5.7V530.2z"/>
		<path class="st1" d="M1019,480.9v47c4-1.3,7.9-2.9,11.5-4.9c1.5-0.8,2.9-1.7,4.2-2.8v-31.7c-1.3-1-2.7-1.9-4.2-2.7
			C1026.9,483.8,1023,482.1,1019,480.9z M1017.2,532c-0.4,0-0.8-0.1-1.1-0.4c-0.4-0.3-0.7-0.9-0.7-1.4v-51.7c0-0.6,0.3-1.1,0.7-1.4
			c0.4-0.3,1-0.5,1.5-0.3c5.1,1.4,10,3.4,14.7,5.9c1.7,0.9,3.4,2,4.9,3.3l0.4,0.3c0.4,0.3,0.7,0.8,0.7,1.4v33.4
			c0,0.5-0.3,1.1-0.7,1.4l-0.3,0.3c-1.6,1.3-3.2,2.4-5,3.3c-4.7,2.5-9.6,4.5-14.7,5.9C1017.5,532,1017.4,532,1017.2,532z"/>
		<path class="st3" d="M955,531.4c-8.4-5-16.9-12.8-17.2-23.2v-13.4c1.2,19,24.8,28.6,40.7,31.5c21.3,4,50.6,1,67.3-13.6
			c5.4-4.8,9.2-10.5,9.7-17.9c0,3.2,0.2,12.3-0.1,15c-2,16.5-22.4,25.8-36.6,29C998.3,543.7,973.5,541.8,955,531.4z"/>
		<path class="st1" d="M955.8,529.8c17,9.6,40.9,12.3,62.5,7.3c15.1-3.5,33.4-12.9,35.2-27.5c0.1-0.7,0.1-1.9,0.2-3.4
			c-1.8,2.9-4.1,5.6-6.8,7.9c-17.4,15.2-47.9,18-68.8,14.1c-14.6-2.7-31.4-9.9-38.6-21.9v2C939.8,518.3,948.6,525.6,955.8,529.8
			L955.8,529.8z M996.6,543.2c-15.5,0-30.6-3.5-42.5-10.2l0,0c-8-4.8-17.7-12.9-18.1-24.7v-13.4c0-1,0.8-1.7,1.7-1.8l0,0
			c0.9,0,1.7,0.7,1.8,1.7c1.1,16.9,21.8,26.6,39.3,29.9c20.1,3.7,49.3,1.2,65.8-13.2c5.7-5,8.7-10.4,9.1-16.6c0.1-1,0.9-1.7,1.9-1.7
			c1,0,1.7,0.8,1.7,1.8v3c0,4.2,0.1,10.1-0.2,12.2c-2,16.5-20.9,26.6-37.9,30.6C1011.7,542.4,1004.2,543.2,996.6,543.2z"/>
		<path class="st2" d="M993.5,603.1l-30.6,25.3l0,0c-14,9.9-13,24.4,2.9,33.6c17,9.8,44.5,9.8,61.4,0c15.7-9.1,16.9-23.4,3.5-33.2
			l0,0l-31.3-25.7v-27l7.3-6l6.7-5.5h-33.9l13.9,11.5V603.1z"/>
		<path class="st1" d="M993.5,603.1L993.5,603.1z M984.6,566.4l10.1,8.3c0.4,0.3,0.6,0.8,0.6,1.4v27c0,0.5-0.2,1-0.6,1.4l-30.6,25.3
			c-6.2,4.4-9.4,9.7-9.1,15.1c0.3,5.8,4.5,11.3,11.8,15.6c16.4,9.5,43.2,9.5,59.6,0c7.3-4.2,11.5-9.7,11.8-15.5
			c0.3-5.3-2.7-10.5-8.5-14.8l-31.3-25.8c-0.4-0.3-0.6-0.8-0.6-1.3v-27c0-0.5,0.2-1,0.6-1.4l10.1-8.3L984.6,566.4z M996.6,671.1
			c-11.5,0-22.9-2.5-31.6-7.5c-8.5-4.9-13.3-11.5-13.6-18.5c-0.3-6.7,3.4-13.1,10.5-18.1l29.8-24.7v-25.3L978.5,566
			c-0.8-0.6-0.9-1.8-0.2-2.5c0.3-0.4,0.8-0.6,1.3-0.6h33.9c0.8,0,1.4,0.5,1.7,1.2c0.3,0.7,0,1.5-0.5,2l-13.3,11v25.2l30.6,25.2
			c6.7,4.9,10.2,11.3,9.9,17.8c-0.4,7-5.2,13.5-13.6,18.4C1019.5,668.5,1008,671,996.6,671.1L996.6,671.1z"/>
		<path class="st3" d="M996.6,528c-15.1,0-30.1-3.3-41.6-10c-11.5-6.7-17.2-15.3-17.2-24c0-8.7,5.7-17.4,17.2-24
			c11.5-6.6,26.6-10,41.6-10c15.1,0,30.1,3.3,41.6,10s17.2,15.3,17.2,24s-5.8,17.4-17.2,24C1026.7,524.6,1011.6,528,996.6,528z"/>
		<path class="st1" d="M996.6,461.8c-15.4,0-29.9,3.4-40.8,9.7c-10.5,6.1-16.3,14.1-16.3,22.5s5.8,16.4,16.3,22.5
			c10.9,6.3,25.3,9.7,40.8,9.7c15.4,0,29.9-3.4,40.7-9.7c10.5-6.1,16.3-14.1,16.3-22.5s-5.8-16.4-16.3-22.5
			C1026.5,465.3,1012,461.8,996.6,461.8z M996.6,529.8c-16,0-31.1-3.6-42.5-10.2c-11.7-6.7-18.1-15.8-18.1-25.6s6.5-18.8,18.1-25.6
			c11.4-6.6,26.5-10.2,42.5-10.2c16.1,0,31.1,3.6,42.5,10.2c11.7,6.8,18.2,15.8,18.2,25.6s-6.5,18.8-18.2,25.6
			C1027.7,526.2,1012.6,529.8,996.6,529.8L996.6,529.8z"/>
		<path class="st3" d="M996.6,571.3c-4.5,0.1-9-1-13-3.1c-3.6-2.1-5.4-4.8-5.4-7.5c0-2.7,1.8-5.5,5.4-7.5c8.2-4.1,17.9-4.1,26.1,0
			c3.6,2.1,5.4,4.8,5.4,7.5s-1.8,5.4-5.4,7.5C1005.6,570.4,1001.1,571.4,996.6,571.3z"/>
		<path class="st1" d="M996.6,551.8c-4.2-0.1-8.4,0.9-12.2,2.9c-2.9,1.7-4.5,3.8-4.5,6c0,2.2,1.6,4.3,4.5,6c6.4,3.7,17.9,3.7,24.3,0
			c2.9-1.7,4.5-3.8,4.5-6c0-2.2-1.6-4.3-4.5-6C1005,552.7,1000.8,551.7,996.6,551.8z M996.6,573.1c-4.9,0.1-9.7-1.1-13.9-3.4
			c-4.1-2.3-6.3-5.5-6.3-9.1c0-3.5,2.2-6.7,6.3-9.1c7.5-4.3,20.4-4.3,27.9,0c4,2.3,6.3,5.5,6.3,9.1s-2.2,6.7-6.3,9.1
			C1006.2,572,1001.4,573.2,996.6,573.1L996.6,573.1z"/>
		<path class="st1" d="M996.6,587.6c-12.2,0-23.5,2.7-32.1,7.6c-8.2,4.8-12.8,11-12.8,17.5s4.6,12.7,12.8,17.5
			c8.5,4.9,19.9,7.6,32.1,7.6c12.2,0,23.5-2.7,32.1-7.6c8.2-4.8,12.8-11,12.8-17.5c0-6.5-4.5-12.8-12.8-17.5
			C1020.1,590.3,1008.7,587.6,996.6,587.6z M996.6,641.5c-12.8,0-24.8-2.9-33.9-8.1c-9.4-5.4-14.6-12.7-14.6-20.6
			c0-7.9,5.2-15.2,14.6-20.6c9.1-5.2,21.1-8.1,33.9-8.1c12.8,0,24.8,2.9,33.9,8.1c9.4,5.4,14.6,12.7,14.6,20.6s-5.2,15.2-14.6,20.6
			C1021.4,638.6,1009.3,641.5,996.6,641.5z"/>
		<path class="st1" d="M996.6,566.1c-12.8,0-24.8-2.9-33.9-8.1c-9.4-5.4-14.5-12.7-14.5-20.6c0-2.9,0.7-5.7,2-8.3
			c0.4-0.9,1.5-1.3,2.4-0.9c0.9,0.4,1.3,1.5,0.9,2.4c0,0,0,0.1-0.1,0.1c-1.1,2.1-1.6,4.4-1.6,6.7c0,6.5,4.5,12.7,12.8,17.5
			c8.5,4.9,19.9,7.6,32.1,7.6c12.2,0,23.5-2.7,32.1-7.6c8.2-4.8,12.8-11,12.8-17.5c0-2.3-0.6-4.6-1.6-6.7c-0.5-0.9-0.1-1.9,0.8-2.4
			c0,0,0,0,0,0c0.9-0.4,1.9-0.1,2.4,0.8c1.3,2.6,2,5.4,2,8.3c0,7.9-5.2,15.2-14.6,20.6C1021.4,563.2,1009.3,566.1,996.6,566.1z"/>
	</g>
</g>
</svg>
