<?xml version="1.0" encoding="utf-8"?>
<!-- Generator: Adobe Illustrator 25.0.0, SVG Export Plug-In . SVG Version: 6.00 Build 0)  -->
<svg version="1.1" id="Layer_1" xmlns="http://www.w3.org/2000/svg" xmlns:xlink="http://www.w3.org/1999/xlink" x="0px" y="0px"
	 viewBox="0 0 1920 1080" style="enable-background:new 0 0 1920 1080;" xml:space="preserve">
<style type="text/css">
	
		.st0{fill-rule:evenodd;clip-rule:evenodd;fill:#99CCED;stroke:#2572B8;stroke-width:0.54;stroke-linecap:round;stroke-linejoin:round;}
	.st1{fill:none;}
	
		.st2{fill-rule:evenodd;clip-rule:evenodd;fill:#D9E6F5;stroke:#2572B8;stroke-width:0.54;stroke-linecap:round;stroke-linejoin:round;}
	
		.st3{fill-rule:evenodd;clip-rule:evenodd;fill:#FFFFFF;stroke:#2572B8;stroke-width:0.54;stroke-linecap:round;stroke-linejoin:round;}
	
		.st4{fill-rule:evenodd;clip-rule:evenodd;fill:#D9E6F5;stroke:#2572B8;stroke-width:1.12;stroke-linecap:round;stroke-linejoin:round;}
	
		.st5{fill-rule:evenodd;clip-rule:evenodd;fill:#FFFFFF;stroke:#2572B8;stroke-width:1.12;stroke-linecap:round;stroke-linejoin:round;}
	
		.st6{fill-rule:evenodd;clip-rule:evenodd;fill:#99CCED;stroke:#2572B8;stroke-width:1.12;stroke-linecap:round;stroke-linejoin:round;}
</style>
<g id="Layer_2_1_">
	<g id="Layer_1-2">
		<path class="st0" d="M855,564c-4.7-2.6-9.7-4.1-14.7-1.5c3.7-2.1,9-6,12.8-6.4c3.8-0.4,7.5,0.9,10.8,2.8c11.5,7,19.7,21,20.7,34.3
			l-8.9,5.1C874.7,585,866.4,571,855,564z"/>
		<path class="st1" d="M883.2,592.5c-1.2-12.8-9.4-26-20-32.5c-2.6-1.5-6.2-3.1-10-2.6c-2.2,0.5-4.2,1.4-6.1,2.6
			c3,0.4,5.9,1.4,8.5,3l0,0c11.1,6.8,19.5,19.9,21.1,33.3L883.2,592.5z M875.1,599.5c-0.4-0.2-0.6-0.6-0.7-1
			c-1-13-9.2-26.7-20.1-33.3c-5.5-3-9.6-3.5-13.5-1.4c-0.6,0.3-1.4,0.1-1.8-0.5c-0.3-0.6-0.1-1.4,0.5-1.8c0.8-0.5,1.7-1,2.6-1.6
			c3.5-2.2,7.5-4.6,10.7-5c4.5-0.6,8.5,1.3,11.6,2.9c11.7,7.1,20.3,21.3,21.3,35.3c0,0.5-0.2,1-0.6,1.2l-8.9,5.1
			c-0.2,0.1-0.4,0.2-0.6,0.2C875.4,599.6,875.2,599.6,875.1,599.5z"/>
		<path class="st2" d="M854.9,564l8.9-5.1l0,0L854.9,564L854.9,564L854.9,564z M846.3,533.3c11.7-6.1,28.4,22.8,17.3,29.9l8.9-5.1
			c10.2-6.2-2.9-32.2-15-30.7C855,527.7,849,531.7,846.3,533.3L846.3,533.3z"/>
		<path class="st1" d="M858.5,528.6c-0.3,0-0.6,0-0.9,0.1c-1.1,0.1-3.5,1.4-5.7,2.7c4.9,1.2,9.6,5.9,12.7,11.2
			c3.1,5.3,4.8,11.7,3.4,16.5l3.7-2.2c3.3-2,4-6.9,1.8-13.1C871,536.3,864.6,528.6,858.5,528.6z M863.6,564.5
			c-0.7,0-1.3-0.6-1.3-1.3c0-0.4,0.2-0.9,0.6-1.1c4.8-3,3.4-11.5-0.5-18.2c-3.9-6.7-10.4-12.1-15.5-9.5c-0.6,0.3-1.4,0.1-1.7-0.5
			c-0.3-0.6-0.1-1.4,0.5-1.7c0.6-0.3,1.3-0.8,2.1-1.3c4-2.5,7.5-4.5,9.5-4.8c7.7-0.9,15.5,7.8,18.7,16.9c2.6,7.4,1.5,13.4-3,16.1
			l-8.9,5.1C864,564.4,863.8,564.5,863.6,564.5L863.6,564.5z M854.2,565.1L854.2,565.1c-0.4-0.2-0.6-0.7-0.6-1.1
			c0-0.4,0.3-0.8,0.7-1.1l8.9-5.1c0.4-0.2,0.8-0.2,1.2,0c0.4,0.2,0.7,0.6,0.7,1.1c0,0.5-0.2,0.9-0.6,1.1l-8.9,5.1
			c-0.2,0.1-0.4,0.2-0.6,0.2C854.7,565.3,854.4,565.3,854.2,565.1L854.2,565.1z"/>
		<path class="st0" d="M840.2,562.6c3.9-2.3,9.2-1.7,14.7,1.5c5.7,3.3,10.9,9,14.7,15.5c3.4,5.7,5.5,12.2,6,18.8l-41.4-23.9
			C834.6,568.6,836.8,564.6,840.2,562.6z"/>
		<path class="st1" d="M845.7,562.5c-1.7,0-3.3,0.4-4.8,1.2l0,0c-3,1.7-4.9,5.3-5.3,10l38.6,22.3c-0.8-5.6-2.8-10.9-5.6-15.8
			c-3.8-6.6-8.9-11.9-14.2-15C851.7,563.5,848.7,562.6,845.7,562.5z M875.1,599.5l-41.5-23.9c-0.4-0.2-0.7-0.7-0.7-1.2
			c0.4-6,2.7-10.6,6.7-12.9l0,0c4.3-2.5,10-2,16,1.5c5.7,3.3,11.1,9,15.2,16c3.5,5.9,5.6,12.5,6.2,19.4c0,0.7-0.5,1.3-1.2,1.4
			c0,0,0,0,0,0C875.5,599.6,875.2,599.6,875.1,599.5z"/>
		<path class="st3" d="M855,562.3L855,562.3c-3.6-2.3-6.6-5.4-8.6-9.1l0,0c-2.2-3.6-3.4-7.8-3.6-12c0-3.9,1.4-6.6,3.6-7.9
			s5.3-1.1,8.6,0.9c7.2,4.7,11.7,12.5,12.2,21.1c0,3.9-1.4,6.6-3.6,7.9C861.4,564.5,858.3,564.3,855,562.3z"/>
		<path class="st1" d="M849.5,533.7c-0.9,0-1.8,0.2-2.5,0.7c-1.9,1.1-2.9,3.5-2.9,6.8c0.5,8.1,4.7,15.5,11.5,20l0,0h0.1
			c2.8,1.7,5.5,2,7.3,0.9c1.9-1.1,2.9-3.5,2.9-6.8c-0.1-4-1.3-8-3.4-11.4c-1.9-3.5-4.7-6.5-8.2-8.6
			C852.9,534.3,851.2,533.8,849.5,533.7L849.5,533.7z M854.3,563.5L854.3,563.5c-7.6-4.9-12.4-13.2-12.8-22.3c0-4.2,1.5-7.5,4.2-9
			c2.7-1.5,6.2-1.3,9.9,0.8c3.8,2.4,6.9,5.7,9.1,9.6c2.3,3.8,3.6,8.2,3.8,12.7c0,4.2-1.5,7.5-4.2,9c-1.2,0.7-2.5,1-3.8,1
			C858.2,565.2,856.1,564.6,854.3,563.5z"/>
		<path class="st3" d="M868.5,635.4l-7.2-12.4c1.1-1.5,1.7-3.4,1.6-5.3c-0.1-3.2-1-6.4-2.7-9.1c-1.4-2.6-3.5-4.8-5.9-6.5v-11.4
			c0.1-0.7-0.5-1.3-1.2-1.4c-0.7-0.1-1.3,0.5-1.4,1.2c0,0.1,0,0.2,0,0.2v10.2c-1.8-0.7-3.7-0.6-5.4,0.3c-2,1.2-3.2,3.6-3.2,6.7
			c0.1,2.4,0.6,4.9,1.6,7.1l-6.7,3.9c-0.6,0.4-0.8,1.1-0.5,1.8c0.2,0.4,0.7,0.6,1.1,0.7c0.2,0,0.5-0.1,0.7-0.2l6.7-3.9
			c1.5,2.7,3.7,5,6.4,6.7c1.4,0.8,2.9,1.3,4.5,1.4c0.8,0,1.7-0.2,2.4-0.5l6.9,12c0.4,0.6,1.1,0.8,1.8,0.5
			C868.7,636.7,868.9,635.9,868.5,635.4L868.5,635.4z M853.7,621.6c-4.7-3.1-7.7-8.2-8-13.8c0-2.2,0.7-3.8,1.9-4.5
			c0.5-0.3,1-0.4,1.6-0.4c1.1,0.1,2.2,0.4,3.2,1c4.7,3.1,7.7,8.2,8,13.8c0,2.2-0.7,3.8-1.9,4.5C857.2,622.9,855.6,622.7,853.7,621.6
			z"/>
		<path class="st0" d="M884.7,654.6c-4.7-2.6-9.7-4.1-14.7-1.5c3.7-2.1,9-5.9,12.8-6.4c3.8-0.5,7.5,0.9,10.8,2.8
			c11.5,7,19.7,21,20.7,34.3l-8.9,5.1C904.5,675.6,896.2,661.5,884.7,654.6z"/>
		<path class="st1" d="M913,683.1c-1.2-12.8-9.4-26-20-32.5c-2.7-1.5-6.2-3.1-10-2.6c-2.2,0.5-4.2,1.3-6.1,2.5
			c3,0.4,5.9,1.4,8.5,2.9l0,0c11.1,6.8,19.5,19.9,21.1,33.3L913,683.1L913,683.1z M904.9,690.1c-0.4-0.2-0.6-0.6-0.7-1
			c-1-13-9.2-26.7-20.1-33.3c-5.5-3-9.6-3.5-13.5-1.4c-0.6,0.3-1.4,0.1-1.7-0.5c-0.3-0.6-0.1-1.4,0.5-1.7c0.8-0.5,1.7-1,2.6-1.6
			c3.5-2.2,7.5-4.6,10.7-5c4.5-0.6,8.5,1.2,11.6,2.9c11.7,7.1,20.3,21.3,21.3,35.3c0,0.5-0.2,1-0.6,1.2l-8.9,5
			c-0.2,0.1-0.4,0.2-0.6,0.2C905.2,690.2,905,690.1,904.9,690.1L904.9,690.1z"/>
		<path class="st2" d="M884.7,654.6l8.9-5.1l0,0L884.7,654.6L884.7,654.6z M876.1,623.8c11.7-6.1,28.4,22.9,17.3,29.9l8.9-5.1
			c10.2-6.2-2.9-32.2-15-30.7C884.8,618.3,878.8,622.3,876.1,623.8L876.1,623.8z"/>
		<path class="st1" d="M888.3,619.2c-0.3,0-0.6,0-0.9,0c-1.1,0.1-3.5,1.4-5.7,2.7c4.9,1.1,9.7,5.9,12.7,11.2
			c3.1,5.3,4.8,11.7,3.4,16.5l3.7-2.2c3.3-2,4-6.9,1.8-13.1C900.8,626.8,894.4,619.2,888.3,619.2z M893.4,655
			c-0.4,0-0.9-0.2-1.1-0.6c-0.4-0.6-0.2-1.4,0.4-1.8c4.8-3,3.4-11.5-0.5-18.2c-3.9-6.7-10.4-12.2-15.5-9.5c-0.6,0.3-1.4,0.1-1.7-0.5
			c-0.3-0.6-0.1-1.4,0.5-1.7c0.6-0.3,1.3-0.8,2.1-1.3c4-2.5,7.5-4.5,9.5-4.8c7.7-0.9,15.5,7.8,18.7,16.9c2.6,7.5,1.5,13.5-2.9,16.2
			l-8.8,5.1C893.9,655,893.6,655,893.4,655L893.4,655z M884.1,655.7L884.1,655.7c-0.4-0.3-0.6-0.7-0.6-1.1c0-0.4,0.2-0.8,0.6-1.1
			l8.9-5.1c0.4-0.3,1-0.2,1.4,0.1c0.3,0.3,0.5,0.7,0.5,1.1c0,0.4-0.3,0.8-0.6,1l-8.9,5.1c-0.2,0.1-0.4,0.2-0.6,0.2
			C884.5,655.8,884.3,655.8,884.1,655.7z"/>
		<path class="st0" d="M870.1,653.1c3.9-2.2,9.2-1.7,14.7,1.5c5.7,3.3,10.9,9,14.7,15.5c3.4,5.7,5.5,12.2,6,18.8L864.1,665
			C864.4,659.2,866.6,655.1,870.1,653.1z"/>
		<path class="st1" d="M875.5,653c-1.7,0-3.3,0.4-4.8,1.2c-3,1.7-4.9,5.3-5.3,10l38.6,22.3c-0.8-5.6-2.8-10.9-5.6-15.8
			c-3.8-6.6-8.9-11.9-14.2-15C881.5,654.1,878.5,653.2,875.5,653L875.5,653z M904.8,690l-41.5-24c-0.4-0.2-0.7-0.7-0.6-1.2
			c0.4-6,2.7-10.6,6.7-12.9l0,0c4.3-2.5,10-2,16,1.5c5.7,3.3,11.1,9,15.1,16c3.5,5.9,5.6,12.5,6.2,19.4c0,0.5-0.2,0.9-0.6,1.2
			C905.7,690.3,905.2,690.3,904.8,690L904.8,690z"/>
		<path class="st3" d="M884.8,652.9L884.8,652.9c-3.6-2.3-6.6-5.4-8.6-9.1l0,0c-2.2-3.6-3.4-7.8-3.6-12c0-3.9,1.4-6.6,3.6-7.9
			c2.2-1.3,5.3-1.1,8.6,0.9c7.2,4.7,11.7,12.6,12.2,21.2c0,3.9-1.4,6.6-3.6,7.9C891.2,655.1,888.1,654.8,884.8,652.9z"/>
		<path class="st1" d="M884.8,652.9L884.8,652.9z M879.3,624.3c-0.9,0-1.8,0.2-2.5,0.7c-1.9,1.1-2.9,3.5-2.9,6.8
			c0.5,8.1,4.8,15.5,11.6,20l0,0c2.9,1.7,5.5,1.9,7.3,0.9c1.9-1.1,2.9-3.5,2.9-6.8c-0.5-8.1-4.8-15.5-11.6-20
			C882.6,624.9,881,624.4,879.3,624.3L879.3,624.3z M884.1,654L884.1,654c-7.6-4.9-12.4-13.2-12.8-22.3c0-4.2,1.5-7.5,4.2-9
			c2.7-1.5,6.2-1.3,9.9,0.8c7.6,4.9,12.4,13.2,12.9,22.3c0,4.2-1.5,7.5-4.2,9c-1.2,0.7-2.5,1-3.8,1C888,655.8,885.9,655.2,884.1,654
			z"/>
		<path class="st0" d="M810.1,611.5c-4.7-2.6-9.6-4.1-14.7-1.5c3.7-2.1,9-5.9,12.8-6.4c3.8-0.5,7.5,0.9,10.8,2.8
			c11.5,7,19.7,21,20.7,34.3l-8.9,5.1C829.8,632.5,821.5,618.5,810.1,611.5z"/>
		<path class="st1" d="M838.3,639.9c-1.2-12.8-9.4-26-20-32.5c-2.7-1.5-6.2-3.1-10-2.6c-2.2,0.5-4.2,1.4-6.1,2.6
			c3,0.4,5.9,1.4,8.5,2.9h0c11.2,6.8,19.5,20,21.1,33.3L838.3,639.9L838.3,639.9z M830.2,646.9c-0.4-0.2-0.6-0.6-0.7-1
			c-1-13-9.2-26.7-20.1-33.3c-5.5-3-9.6-3.5-13.4-1.4c-0.6,0.3-1.4,0.1-1.7-0.5c-0.3-0.6-0.1-1.4,0.5-1.7c0.8-0.5,1.7-1,2.6-1.6
			c3.5-2.1,7.5-4.6,10.7-5c4.6-0.6,8.5,1.3,11.6,2.9c11.7,7.1,20.3,21.3,21.3,35.3c0,0.5-0.2,1-0.6,1.2l-8.9,5.1
			c-0.2,0.1-0.4,0.2-0.6,0.2C830.6,647.1,830.4,647,830.2,646.9L830.2,646.9z"/>
		<path class="st2" d="M810.1,611.5l8.9-5.1l0,0L810.1,611.5z M801.5,580.7c11.7-6.1,28.4,22.8,17.3,29.9l8.9-5.1
			c10.2-6.2-2.9-32.2-15-30.7C810.1,575.1,804.1,579.2,801.5,580.7L801.5,580.7z"/>
		<path class="st1" d="M813.6,576.1c-0.3,0-0.6,0-0.9,0c-1.1,0.1-3.5,1.4-5.7,2.7c4.9,1.2,9.6,5.9,12.7,11.2s4.8,11.7,3.4,16.5
			l3.7-2.1c3.3-2,4-6.9,1.8-13.1C826.1,583.8,819.7,576.1,813.6,576.1L813.6,576.1z M818.7,611.9c-0.4,0-0.9-0.2-1.1-0.6
			c-0.4-0.6-0.2-1.4,0.4-1.7c0,0,0,0,0,0c4.8-3,3.4-11.5-0.5-18.2s-10.5-12.1-15.5-9.5c-0.6,0.3-1.4,0.1-1.7-0.5
			c-0.3-0.6-0.1-1.4,0.5-1.7c0.6-0.3,1.3-0.8,2.1-1.3c4-2.5,7.5-4.5,9.5-4.8c7.7-0.9,15.5,7.8,18.7,16.9c2.6,7.5,1.5,13.5-2.9,16.2
			l-8.9,5.1C819.2,611.9,819,611.9,818.7,611.9L818.7,611.9z M809.4,612.6L809.4,612.6c-0.4-0.2-0.6-0.7-0.6-1.1
			c0-0.4,0.3-0.8,0.7-1.1l8.9-5.1c0.6-0.4,1.4-0.3,1.8,0.2c0.4,0.6,0.3,1.4-0.2,1.8c-0.1,0.1-0.2,0.1-0.3,0.2l-8.9,5.1
			c-0.2,0.1-0.4,0.2-0.6,0.2C809.8,612.8,809.6,612.7,809.4,612.6z"/>
		<path class="st0" d="M795.4,610c3.9-2.2,9.2-1.7,14.7,1.5c5.7,3.3,10.9,9,14.7,15.5c3.4,5.7,5.5,12.2,6,18.8l-41.4-23.9
			C789.7,616.1,791.9,612,795.4,610z"/>
		<path class="st1" d="M800.8,609.9c-1.7,0-3.3,0.4-4.7,1.2l0,0c-3,1.7-4.9,5.3-5.3,10l38.5,22.3c-0.9-5.6-2.8-10.9-5.6-15.8
			c-3.8-6.6-8.8-11.9-14.2-15C806.8,611,803.8,610.1,800.8,609.9L800.8,609.9z M830.1,646.9l-41.4-24c-0.4-0.2-0.7-0.7-0.6-1.2
			c0.4-6,2.7-10.6,6.7-12.9c4.3-2.5,10-2,16,1.5c5.7,3.3,11.1,9,15.2,16c3.5,5.9,5.6,12.5,6.2,19.3c0,0.7-0.5,1.3-1.2,1.4
			c0,0-0.1,0-0.1,0C830.6,647.1,830.3,647,830.1,646.9L830.1,646.9z"/>
		<path class="st3" d="M810.1,609.8L810.1,609.8c-3.6-2.3-6.6-5.4-8.6-9.1l0,0c-2.2-3.6-3.4-7.8-3.6-12c0-3.9,1.4-6.6,3.6-7.9
			c2.2-1.3,5.3-1.1,8.6,0.9c3.6,2.3,6.6,5.4,8.6,9.1c2.2,3.6,3.4,7.8,3.6,12c0,3.9-1.4,6.6-3.6,7.9
			C816.5,611.9,813.4,611.7,810.1,609.8z"/>
		<path class="st1" d="M804.6,581.2c-0.9,0-1.8,0.2-2.5,0.7c-1.9,1.1-2.9,3.5-2.9,6.8c0.1,4,1.3,8,3.4,11.4c1.9,3.5,4.7,6.5,8.1,8.6
			l0,0c0,0,0,0,0.1,0c2.8,1.6,5.5,2,7.3,0.8c1.9-1.1,2.9-3.5,2.9-6.8c-0.1-4-1.3-8-3.4-11.4c-1.9-3.5-4.8-6.5-8.2-8.7
			C808,581.7,806.3,581.2,804.6,581.2L804.6,581.2z M809.4,610.9L809.4,610.9c-3.8-2.4-6.9-5.7-9.1-9.6c-2.3-3.8-3.6-8.2-3.8-12.7
			c0-4.2,1.5-7.5,4.2-9c2.7-1.5,6.2-1.3,9.9,0.8c3.8,2.4,6.9,5.7,9.1,9.6c2.3,3.8,3.6,8.2,3.8,12.7c0,4.2-1.5,7.4-4.2,9
			c-1.2,0.7-2.5,1-3.8,1C813.4,612.7,811.3,612,809.4,610.9z"/>
		<path class="st4" d="M914.1,480.2c12.2,0,22.1-9.9,22.1-22.1c0-12.2-9.9-22.1-22.1-22.1c-12.2,0-22.1,9.9-22.1,22.1
			C891.9,470.3,901.8,480.1,914.1,480.2C914,480.2,914,480.2,914.1,480.2z"/>
		<path class="st1" d="M914.1,437.9c-11.1,0-20.2,9-20.2,20.2c0,11.1,9,20.2,20.2,20.2c11.1,0,20.2-9,20.2-20.2c0,0,0,0,0,0
			C934.2,446.9,925.2,437.9,914.1,437.9C914.1,437.9,914.1,437.9,914.1,437.9z M914.1,482.1c-13.3,0-24-10.7-24-24
			c0-13.3,10.7-24,24-24s24,10.7,24,24C938.1,471.3,927.3,482.1,914.1,482.1C914.1,482.1,914.1,482.1,914.1,482.1z"/>
		<path class="st5" d="M1008.9,635.6c60.5,0,109.6-49,109.6-109.5s-49-109.5-109.6-109.5s-109.5,49-109.5,109.5l0,0
			C899.4,586.6,948.4,635.6,1008.9,635.6z"/>
		<path class="st1" d="M1008.9,418.5c-59.4,0-107.6,48.2-107.6,107.6s48.2,107.6,107.6,107.6s107.6-48.2,107.6-107.6c0,0,0,0,0,0
			C1116.4,466.7,1068.3,418.5,1008.9,418.5z M1008.9,637.6c-61.6,0-111.5-49.9-111.5-111.5c0-61.6,49.9-111.5,111.5-111.5
			c61.5,0,111.4,49.9,111.5,111.4C1120.3,587.6,1070.4,637.5,1008.9,637.6L1008.9,637.6z"/>
		<path class="st4" d="M1056.9,477.3c22.3-2.7,40-1.6,52,2.5c6.8,2.4,11.9,5.7,15,10c3.4,4.5,4.5,10.2,3.2,15.7
			c-1,5.2-4,10.9-8.9,17c0-3-0.3-6.1-0.6-9.2c1.8-2.8,3.1-5.8,3.8-9c0.9-3.8,0.2-7.8-2.1-11c-2.4-3.2-6.6-5.9-12.3-7.9
			c-11.2-3.8-27.9-4.8-49.2-2.3c-28.7,3.5-60,12.7-87.4,24.9s-50.7,27-63.7,41.9c-5.4,6.1-8.4,11.7-9.4,16.5c-1,3.8-0.2,7.8,2.2,11
			c2.4,3.3,6.6,5.9,12.3,7.9c2.1,0.7,4.1,1.3,6.3,1.7c1.6,2.4,3.3,4.6,5,6.8c-4.5-0.6-8.9-1.6-13.2-3c-6.9-2.4-12-5.7-15.1-10
			c-3.3-4.5-4.5-10.2-3.2-15.7c1.2-5.8,4.7-12.3,10.8-19.2c13.5-15.6,37.7-31,65.7-43.5C995.9,490.1,1027.7,480.8,1056.9,477.3z"/>
		<path class="st1" d="M1057.1,479.2c-28,3.4-59.6,12.3-88.5,25.2c-29,12.9-52.1,28.1-65,43c-5.7,6.5-9.2,12.7-10.3,18.3
			c-1.2,4.9-0.1,10.1,2.9,14.1c2.9,3.9,7.7,7.1,14.2,9.3c2.6,0.9,5.3,1.6,8,2.1c-0.6-0.8-1.1-1.6-1.7-2.4c-1.9-0.4-3.8-1-5.7-1.6
			c-6.1-2.1-10.5-5-13.2-8.6c-2.6-3.6-3.6-8.2-2.5-12.5c1.1-5.3,4.4-11.1,9.8-17.4c12.7-14.6,35.5-29.7,64.3-42.4
			c28.8-12.8,60-21.6,88-25c21-2.5,38.3-1.7,50.2,2.4c6.1,2.1,10.5,5,13.2,8.5c2.7,3.6,3.6,8.2,2.5,12.5c-0.7,3.2-2,6.3-3.8,9.1
			c0.2,1.1,0.3,2.2,0.3,3.3c2.6-3.6,4.4-7.7,5.4-12c1.2-4.9,0.1-10.1-2.9-14.2c-2.9-3.9-7.7-7.1-14.2-9.3
			C1096.1,477.5,1078.4,476.6,1057.1,479.2L1057.1,479.2z M922.8,595.8c-0.1,0-0.2,0-0.3,0c-4.6-0.6-9.1-1.6-13.5-3.1
			c-7.2-2.5-12.6-6.1-16-10.6c-3.7-4.9-5-11.2-3.5-17.2c1.3-6.3,5.1-13,11.2-20c13.3-15.3,36.8-30.9,66.4-44
			c29.3-13,61.1-22,89.6-25.5l0,0c21.8-2.6,40.1-1.7,52.8,2.6c7.2,2.5,12.6,6.1,16,10.6c3.7,4.9,5,11.2,3.6,17.2
			c-1.1,5.6-4.3,11.6-9.3,17.8c-0.5,0.6-1.3,0.9-2.1,0.6c-0.8-0.3-1.3-1-1.3-1.8c-0.1-2.9-0.3-5.9-0.7-9c0-0.4,0.1-0.8,0.3-1.2
			c1.7-2.6,2.9-5.5,3.6-8.4c0.8-3.3,0.1-6.7-1.9-9.4c-2.2-3-6-5.4-11.3-7.2c-11.3-3.9-28-4.6-48.4-2.2
			c-27.6,3.3-58.4,12.1-86.9,24.7c-28.2,12.5-50.6,27.2-63,41.4c-5,5.7-8,11-9,15.6c-0.8,3.3-0.1,6.7,1.8,9.4c2.2,3,6,5.4,11.4,7.2
			c2,0.7,4,1.2,6,1.6c0.5,0.1,0.9,0.4,1.2,0.8c1.6,2.3,3.2,4.6,5,6.7c0.5,0.6,0.5,1.5,0.2,2.1C924.2,595.4,923.5,595.8,922.8,595.8z
			"/>
		<path class="st4" d="M1006.4,410.5c5.4-9.1,10.7-14.9,15.6-17.4c4.2-2.2,8.1-2.2,11.8-0.3c3.3,1.7,6.2,5.2,8.6,10.2
			c2.5,5.2,4.5,12.2,6,21c-2.1-0.8-4.2-1.6-6.4-2.2c-1-5.6-2.6-11-4.9-16.2c-1.9-3.8-3.9-6.4-6.1-7.5c-1.9-1-4-0.9-6.4,0.4
			c-4,2.1-8.5,7.1-13.4,15.2c-10.6,18-20.3,46.8-27.3,79.1s-11.4,68-11.4,99.3c0,25.8,2.9,44.5,7.9,54.7c1.8,3.8,3.9,6.3,6.1,7.5
			c1.9,1,4,0.9,6.4-0.3c4-2.1,8.5-7.1,13.4-15.2c0.5-1,1.1-2,1.7-3h0.8c2,0,4,0,5.9-0.2c-1.1,2.2-2.2,4.2-3.4,6.2
			c-5.4,9.1-10.7,14.9-15.7,17.4c-4.1,2.2-8.2,2.2-11.8,0.3c-3.3-1.8-6.3-5.2-8.6-10.2c-5.3-11-8.5-30.6-8.5-57.3
			c0-31.7,4.4-67.8,11.6-100.5S995.4,429,1006.4,410.5z"/>
		<path class="st1" d="M1028.5,393.3c-1.9,0-3.8,0.6-5.5,1.5c-4.8,2.5-9.8,8.1-15,16.7l0,0c-10.5,17.7-20.4,46.2-27.8,80.2
			s-11.5,69.6-11.5,100.1c0,25.3,2.9,45.3,8.3,56.5c2.2,4.6,4.8,7.8,7.8,9.3c3,1.5,6.4,1.5,10-0.3c4.8-2.5,9.8-8.1,15-16.7
			c0.6-1,1.2-2,1.8-3.1h-2.4c-0.4,0.7-0.8,1.4-1.2,2c-4.9,8.3-9.7,13.6-14.1,15.9c-3.6,1.9-6.4,1.2-8.1,0.3c-2.6-1.3-4.9-4.1-7-8.3
			c-5.3-11-8-30.2-8-55.6c0-30.4,4-65.8,11.4-99.7c7.4-33.9,17.2-62.2,27.6-79.7c4.9-8.2,9.7-13.6,14.1-15.9
			c3.6-1.9,6.5-1.2,8.2-0.3c2.6,1.3,4.9,4.2,7,8.4c2.2,5,3.8,10.2,4.8,15.5c0.7,0.2,1.5,0.5,2.2,0.8c-1-5.9-2.7-11.7-5.2-17.2
			c-2.2-4.6-4.8-7.8-7.8-9.3C1031.6,393.7,1030.1,393.3,1028.5,393.3L1028.5,393.3z M989.3,662.6c-2.2,0-4.3-0.5-6.3-1.6
			c-3.8-1.9-6.9-5.7-9.5-11c-5.7-11.8-8.7-31.9-8.7-58.1c0-30.8,4.1-66.6,11.6-100.9c7.5-34.3,17.6-63.4,28.3-81.4l0,0
			c5.5-9.2,11-15.3,16.5-18.1c4.7-2.5,9.3-2.6,13.6-0.3c3.8,2,6.9,5.7,9.5,11c2.6,5.3,4.7,12.6,6.2,21.5c0.1,0.7-0.2,1.4-0.7,1.8
			c-0.5,0.4-1.3,0.6-1.9,0.3c-2.1-0.8-4.1-1.5-6.2-2.2c-0.7-0.2-1.2-0.8-1.3-1.5c-0.9-5.4-2.5-10.7-4.7-15.7
			c-1.6-3.4-3.5-5.7-5.3-6.6c-1.3-0.7-2.8-0.6-4.6,0.3c-3.8,1.9-8.1,7-12.5,14.5c-10.2,17.1-19.8,45-27.1,78.5
			c-7.3,33.5-11.4,68.7-11.4,98.9c0,24.4,2.8,43.6,7.7,53.9c1.6,3.4,3.5,5.7,5.3,6.6c1.3,0.7,2.8,0.6,4.6-0.3
			c3.7-1.9,8.1-6.9,12.6-14.5c0.5-0.9,1.1-1.9,1.7-2.9c0.3-0.6,1-1,1.7-1h0.8c2,0,3.9-0.1,5.8-0.2c0.7,0,1.4,0.3,1.7,0.9
			c0.4,0.6,0.4,1.3,0.1,1.9c-1.1,2.2-2.3,4.3-3.5,6.2c-5.5,9.2-11,15.3-16.5,18.1C994.4,661.9,991.9,662.6,989.3,662.6z"/>
		<path class="st6" d="M1007.4,428.4c17.8-10.3,34.5-15.1,49-15.1c8.7-0.1,17.2,1.9,24.9,5.9c7.3,4,13.4,10,17.5,17.3
			c5.2,9.1,8.2,20.8,8.2,34.7c0,1.9-0.1,3.9-0.2,5.8c-1.8-3.5-3.8-6.9-5.9-10.2c-0.6-10.9-3-20.1-7.3-27.4
			c-3.5-6.3-8.8-11.5-15.2-15c-6.8-3.6-14.4-5.3-22.1-5.2c-13.5,0-29.2,4.6-46,14.3l0,0c-25.8,14.9-49.3,39-66.2,65.7
			c-17,26.7-27.4,56.1-27.4,81.8c0,12.9,2.6,23.6,7.3,31.8h0c3.6,6.3,8.8,11.5,15.2,15c6.8,3.6,14.4,5.3,22.1,5.2
			c5.4,0,10.8-0.7,16-2c3.8,1.1,7.6,2,11.4,2.8c-8.8,3.2-18.1,5-27.4,5.1c-8.7,0.2-17.2-1.9-24.9-5.9c-7.3-4-13.4-10-17.5-17.2l0,0
			c-5.3-9.1-8.2-20.8-8.2-34.8c0-26.8,10.8-57.3,28.3-84.9C956.7,468.5,980.8,443.8,1007.4,428.4L1007.4,428.4z"/>
		<path class="st1" d="M1007.4,428.4L1007.4,428.4z M920.8,614.9c3.9,6.9,9.7,12.6,16.7,16.4c11.8,6.4,27.1,7.4,43.9,2.8
			c-1.3-0.3-2.7-0.7-4-1.1c-14.9,3.4-28.4,2.2-39-3.5c-6.7-3.7-12.2-9.1-16-15.7c-5-8.8-7.6-19.8-7.6-32.8
			c0-25.2,9.8-54.6,27.7-82.8c17.9-28.2,41.6-51.8,66.9-66.4c26.6-15.3,52.4-18.7,70-9.2c6.7,3.7,12.2,9.1,16,15.7
			c4.4,7.6,6.9,16.9,7.5,27.7c0.8,1.2,1.5,2.4,2.2,3.6c-0.2-12.7-2.8-23.5-7.9-32.3c-3.9-7-9.7-12.7-16.7-16.5
			c-18.2-9.9-44.7-6.5-71.9,9.2l-0.2,0.1c-25.5,14.8-49.5,38.5-67.5,67s-28,58.3-28,83.9c0,13.3,2.7,24.7,7.9,33.8
			C920.6,614.8,920.7,614.9,920.8,614.9L920.8,614.9z M961.4,640.8c-9,0.1-17.9-2-25.8-6.1c-7.6-4.2-14-10.4-18.2-18
			c0,0-0.1-0.1-0.1-0.1c-5.5-9.7-8.4-21.7-8.4-35.6c0-26.3,10.2-56.9,28.6-86c18.4-29.1,42.9-53.3,69-68.3l0.1,0
			c28.5-16.4,56.3-19.7,75.6-9.2c7.7,4.2,14,10.4,18.3,18c5.6,9.7,8.4,21.8,8.4,35.7c0,2-0.1,3.9-0.2,5.9c-0.1,1.1-1,1.9-2,1.8
			c-0.7,0-1.3-0.4-1.6-1.1c-1.7-3.4-3.7-6.8-5.8-10c-0.2-0.3-0.3-0.6-0.3-1c-0.6-10.4-2.9-19.3-7-26.5c-3.4-6-8.4-11-14.5-14.3
			c-16.3-8.9-40.9-5.5-66.2,9.1c-24.8,14.3-48,37.4-65.6,65.1c-17.6,27.7-27.2,56.2-27.2,80.7c0,12.3,2.4,22.7,7.1,30.9
			c3.4,6,8.4,11,14.5,14.3c9.8,5.3,22.5,6.4,36.7,3c0.3-0.1,0.7-0.1,1,0c3.7,1.1,7.5,2,11.3,2.7c0.9,0.1,1.5,0.9,1.6,1.7
			c0.1,0.9-0.5,1.7-1.3,2C980.5,638.9,971,640.7,961.4,640.8L961.4,640.8z"/>
		<path class="st4" d="M1084.2,447.4c12.5,0,22.6-10.1,22.6-22.6s-10.1-22.6-22.6-22.6c-12.5,0-22.6,10.1-22.6,22.6c0,0,0,0,0,0
			C1061.7,437.3,1071.8,447.4,1084.2,447.4z"/>
		<path class="st1" d="M1084.2,404.1c-11.4,0-20.7,9.2-20.7,20.6c0,11.4,9.2,20.7,20.6,20.7c11.4,0,20.7-9.2,20.7-20.6c0,0,0,0,0,0
			C1104.9,413.4,1095.6,404.2,1084.2,404.1z M1084.2,449.3c-13.5,0-24.5-11-24.5-24.5s11-24.5,24.5-24.5s24.5,11,24.5,24.5
			c0,0,0,0,0,0C1108.7,438.3,1097.8,449.3,1084.2,449.3z"/>
		<path class="st6" d="M1010.4,428.4c-17.8-10.3-34.5-15.1-49-15.1c-8.7-0.1-17.2,1.9-24.9,5.9c-7.3,4-13.3,10-17.4,17.3v0.1
			c2,0.4,3.8,1.1,5.6,2.1c3.5-6,8.7-10.9,14.8-14.3c6.8-3.6,14.4-5.3,22.1-5.2c13.5,0,29.2,4.6,46,14.3l0,0
			c25.8,14.9,49.3,39,66.2,65.7c17,26.7,27.3,56.1,27.3,81.8c0,12.9-2.6,23.6-7.4,31.8l0,0c-3.6,6.3-8.8,11.5-15.2,15
			c-6.8,3.6-14.4,5.3-22.1,5.2c-5.4,0-10.8-0.7-16-2c-3.8,1.1-7.6,2.1-11.5,2.8c8.8,3.2,18.1,5,27.5,5.1c8.7,0.2,17.2-1.9,24.9-5.9
			c7.3-4,13.4-10,17.5-17.2l0,0c5.3-9.1,8.2-20.8,8.2-34.8c0-26.8-10.8-57.3-28.3-84.9S1037.1,443.8,1010.4,428.4z"/>
		<path class="st1" d="M1036.4,634.1c16.9,4.6,32.1,3.6,44-2.8c7-3.8,12.8-9.5,16.7-16.4c0,0,0-0.1,0-0.1c5.3-9.1,7.9-20.5,7.9-33.8
			c0-25.6-9.9-55.4-28-83.9c-18.1-28.5-42-52.2-67.6-67l-0.1-0.1c-27.2-15.7-53.8-19.1-72-9.2c-6.3,3.4-11.7,8.4-15.5,14.5
			c0.7,0.2,1.3,0.5,2,0.8c3.6-5.6,8.7-10.3,14.6-13.5c17.5-9.5,43.4-6.2,70,9.2c25.3,14.6,49,38.2,66.9,66.4
			c17.9,28.2,27.8,57.6,27.8,82.8c0,13-2.6,24-7.7,32.8c-3.8,6.6-9.3,12.1-16,15.7c-10.6,5.7-24.1,6.9-39,3.5
			C1039.1,633.4,1037.7,633.8,1036.4,634.1L1036.4,634.1z M1056.4,640.8c-9.6-0.1-19.1-1.9-28.1-5.2c-0.8-0.3-1.4-1.1-1.3-2
			c0.1-0.9,0.7-1.6,1.6-1.8c3.8-0.7,7.5-1.6,11.2-2.7c0.3-0.1,0.7-0.1,1,0c14.2,3.3,27,2.3,36.7-3c6.1-3.3,11.1-8.2,14.5-14.3
			c4.7-8.2,7.1-18.6,7.1-30.9c0-24.5-9.6-53.2-27.1-80.7s-40.9-50.8-65.6-65.1c-25.3-14.6-49.9-18-66.2-9.1
			c-5.8,3.2-10.7,7.9-14.1,13.6c-0.5,0.9-1.6,1.2-2.5,0.7c-1.6-0.9-3.3-1.5-5.1-1.9c-0.6-0.1-1.1-0.5-1.3-1.1
			c-0.3-0.5-0.3-1.2,0.1-1.7c4.3-7.6,10.6-13.9,18.3-18.1c19.4-10.5,47.2-7.2,75.6,9.2c0,0,0.1,0.1,0.1,0.1
			c26.1,15.1,50.5,39.3,69,68.3c18.4,29.1,28.6,59.6,28.6,86c0,13.9-2.8,25.9-8.4,35.6c0,0,0,0.1,0,0.1c-4.3,7.6-10.6,13.8-18.3,18
			C1074.3,638.9,1065.4,641,1056.4,640.8L1056.4,640.8z"/>
		<path class="st6" d="M1112.9,491.6c4.2,3.8,7.9,8.1,10.9,12.9l0,0c8.7,13.1,8.7,30.1,0,43.2l0,0c-5.9,9.5-15.8,18.3-29.7,25.8l0,0
			c-23.6,12.7-54.4,19-85.2,19c-30.8,0-61.6-6.3-85.3-19l0,0c-13.9-7.5-23.8-16.3-29.7-25.8c-8.6-13.1-8.6-30.1,0-43.2l0,0
			c3.1-4.8,6.8-9.1,11-12.9c-1.4,4.2-2.5,8.4-3.4,12.7c-0.8,1-1.5,2.1-2.1,3.1l0,0c-7.5,11.3-7.5,26,0,37.3
			c5.4,8.6,14.5,16.8,27.4,23.7l0,0c22.6,12.1,52.3,18.2,82.1,18.2c29.8,0,59.5-6.1,82.1-18.2l0,0c12.9-7,22.1-15.1,27.4-23.7l0,0
			c7.5-11.3,7.5-26,0-37.3l0,0c-0.7-1-1.4-2.1-2.1-3.1C1115.4,500,1114.3,495.7,1112.9,491.6z"/>
		<path class="st1" d="M1123.8,547.7L1123.8,547.7z M895.7,505.4c0,0,0,0.1-0.1,0.1c-8.3,12.5-8.3,28.7,0,41.2
			c5.9,9.5,15.7,18,29,25.2c22.6,12.1,52.5,18.8,84.3,18.8c31.8,0,61.8-6.7,84.3-18.8c13.3-7.1,23-15.6,28.9-25c0,0,0.1-0.1,0.1-0.1
			c8.3-12.5,8.3-28.7,0-41.2c-1.6-2.5-3.3-4.9-5.3-7.1c0.4,1.7,0.8,3.4,1.2,5.2c0.7,1,1.4,1.9,2,2.9c0,0,0,0.1,0,0.1
			c3.8,5.8,5.8,12.6,5.9,19.5c-0.1,7-2.1,13.8-5.9,19.6c-5.8,9.2-15.2,17.4-28.2,24.4l-0.2,0.1c-22.1,11.8-51.5,18.4-82.8,18.4
			c-31.3,0-60.8-6.5-82.9-18.4c-0.1,0-0.1,0-0.1-0.1c-12.9-7-22.4-15.2-28.2-24.4c-7.9-11.9-7.9-27.4,0-39.3c0.6-1,1.3-1.9,2-2.9
			c0.3-1.7,0.8-3.4,1.2-5.2C899,500.5,897.2,502.8,895.7,505.4L895.7,505.4z M1008.9,594.5c-32.4,0-63-6.8-86.1-19.2
			c-14-7.5-24.2-16.4-30.5-26.5c-9-13.7-9-31.4,0-45.1c0,0,0-0.1,0-0.1c3.2-4.9,7-9.4,11.4-13.3c0.6-0.6,1.6-0.7,2.3-0.2
			c0.7,0.5,1,1.4,0.8,2.2c-1.4,4.1-2.5,8.3-3.3,12.5c-0.1,0.3-0.2,0.5-0.3,0.8c-0.8,1-1.4,2-2.1,3c-7.1,10.7-7.1,24.6,0,35.3
			c5.4,8.6,14.3,16.3,26.6,23l0.2,0.1c21.6,11.6,50.4,18,81.1,18s59.6-6.4,81.2-18c0.1,0,0.1-0.1,0.2-0.1
			c12.3-6.6,21.2-14.3,26.6-22.9c7.1-10.7,7.1-24.6,0-35.3c-0.1,0-0.1-0.1-0.1-0.2c-0.6-0.9-1.2-1.9-2-2.8c-0.2-0.2-0.3-0.5-0.3-0.8
			c-0.9-4.2-2-8.4-3.3-12.5c-0.3-1,0.2-2.1,1.2-2.4c0.6-0.2,1.4-0.1,1.9,0.4c4.4,3.9,8.2,8.4,11.3,13.3c4.4,6.7,6.8,14.6,6.8,22.6
			c-0.1,8-2.4,15.8-6.7,22.5c0,0-0.1,0.1-0.1,0.1c-6.3,10.1-16.6,19-30.5,26.5C1072,587.6,1041.3,594.5,1008.9,594.5z"/>
		<path class="st4" d="M1031.6,613.3c13.8,0,25-11.2,24.9-25c0-13.8-11.2-25-25-24.9c-13.8,0-25,11.2-25,25
			C1006.6,602.1,1017.8,613.3,1031.6,613.3C1031.6,613.3,1031.6,613.3,1031.6,613.3z"/>
		<path class="st1" d="M1031.6,565.1c-12.8,0-23.1,10.3-23.1,23.1c0,12.8,10.3,23.1,23.1,23.1c12.8,0,23.1-10.3,23.1-23.1
			C1054.7,575.5,1044.4,565.2,1031.6,565.1z M1031.6,615.2c-14.9,0-27-12.1-27-27c0-14.9,12.1-27,27-27c14.9,0,27,12.1,27,27
			c0,0,0,0,0,0.1C1058.6,603.2,1046.5,615.2,1031.6,615.2L1031.6,615.2z"/>
	</g>
</g>
</svg>
