<?xml version="1.0" encoding="utf-8"?>
<!-- Generator: Adobe Illustrator 25.0.0, SVG Export Plug-In . SVG Version: 6.00 Build 0)  -->
<svg version="1.1" id="Layer_1" xmlns="http://www.w3.org/2000/svg" xmlns:xlink="http://www.w3.org/1999/xlink" x="0px" y="0px"
	 viewBox="0 0 1920 1080" style="enable-background:new 0 0 1920 1080;" xml:space="preserve">
<style type="text/css">
	.st0{fill-rule:evenodd;clip-rule:evenodd;fill:#D9E6F5;stroke:#2572B8;stroke-linecap:round;stroke-linejoin:round;}
	.st1{fill:none;}
	.st2{fill-rule:evenodd;clip-rule:evenodd;fill:#FFFFFF;stroke:#2572B8;stroke-linecap:round;stroke-linejoin:round;}
	.st3{fill-rule:evenodd;clip-rule:evenodd;fill:#99CCED;stroke:#2572B8;stroke-linecap:round;stroke-linejoin:round;}
	
		.st4{fill-rule:evenodd;clip-rule:evenodd;fill:#D9E6F5;stroke:#2572B8;stroke-width:0.88;stroke-linecap:round;stroke-linejoin:round;}
	
		.st5{fill-rule:evenodd;clip-rule:evenodd;fill:#99CCED;stroke:#2572B8;stroke-width:0.88;stroke-linecap:round;stroke-linejoin:round;}
	
		.st6{fill-rule:evenodd;clip-rule:evenodd;fill:#FFFFFF;stroke:#2572B8;stroke-width:0.88;stroke-linecap:round;stroke-linejoin:round;}
</style>
<g id="Layer_2_1_">
	<g id="Layer_1-2">
		<path class="st0" d="M851.4,689.9l-11.3-6.5c-2.3-1.6-2.7-3.6-2.8-6.2V481.2c0.1-3.4,1.1-6.6,2.8-9.5c1.6-2.9,4-5.4,6.8-7.2
			l20.7-12l12.3-7.1l61.8-35.6l10.7-6.2l22.3-12.8c2.4-1.2,4.3-1.9,6.8-0.7l11.3,6.5c-2.5-1.2-4.5-0.6-6.8,0.7l-22.2,12.8l-10.7,6.2
			L891.2,452l-12.3,7.1L858.2,471c-5.7,3.7-9.3,9.9-9.6,16.7v195.9C848.7,686.3,849.1,688.3,851.4,689.9z"/>
		<path class="st1" d="M978.8,391.6c-1.1,0.1-2.2,0.5-3.2,1.1L848,466.3c-2.5,1.6-4.6,3.8-6.1,6.5c-1.5,2.6-2.4,5.5-2.5,8.5v195.8
			c0.1,2.5,0.5,3.5,1.9,4.5l5.1,3c0-0.3,0-0.5,0-0.8v-196c0.1-3.7,1.2-7.3,3.1-10.5c1.8-3.3,4.4-6,7.5-8l127.7-73.8
			c0.3-0.1,0.5-0.3,0.8-0.4l-5.3-3.1C979.9,391.7,979.4,391.6,978.8,391.6L978.8,391.6z M851.4,692c-0.4,0-0.7-0.1-1.1-0.3
			l-11.3-6.5c-3.4-2.3-3.8-5.3-3.9-8v-196c0.1-3.7,1.2-7.3,3.1-10.5c1.8-3.3,4.4-6,7.6-8l127.8-73.8c2.5-1.3,5.2-2.4,8.8-0.8
			l11.5,6.6c1,0.6,1.4,1.8,0.8,2.9c-0.5,1-1.8,1.5-2.8,1c-1.5-0.7-2.6-0.6-4.9,0.6l-127.6,73.6c-5,3.4-8.2,8.9-8.6,14.9v195.8
			c0.1,2.5,0.5,3.5,1.9,4.5c0.9,0.7,1.2,1.9,0.6,2.9C852.8,691.7,852.2,692,851.4,692z"/>
		<path class="st0" d="M985.9,615.5l-127.7,73.7c-5.3,3.1-9.6,0.6-9.6-5.6V487.7c0-6.1,4.3-13.7,9.6-16.7l20.7-11.9l12.3-7.1
			l61.7-35.6l10.7-6.2l22.2-12.8c5.3-3.1,9.7-0.6,9.7,5.6v195.9C995.6,604.9,991.3,612.4,985.9,615.5z"/>
		<path class="st1" d="M985.9,615.5L985.9,615.5z M990.2,398.1c-1.1,0.1-2.2,0.4-3.2,1l-127.7,73.8c-4.6,2.7-8.6,9.5-8.6,14.9v195.9
			c0,2.1,0.7,3.7,1.8,4.4c1.1,0.6,2.8,0.4,4.7-0.7l127.7-73.7c4.6-2.7,8.6-9.5,8.6-14.9V402.9c0-2.1-0.6-3.7-1.8-4.4
			C991.2,398.2,990.7,398.1,990.2,398.1L990.2,398.1z M853.9,692.7c-1.3,0-2.5-0.3-3.6-0.9c-2.5-1.4-3.9-4.3-3.9-8.1V487.7
			c0-7,4.7-15.1,10.7-18.6l127.7-73.7c3.3-1.9,6.5-2.1,9-0.7s3.9,4.3,3.9,8.1v195.9c0,7-4.7,15.1-10.7,18.6l0,0l-127.7,73.7
			C857.7,692.1,855.8,692.6,853.9,692.7z"/>
		<path class="st2" d="M866.2,484.8v186.6l116.2-67.1V417.7L866.2,484.8z"/>
		<path class="st1" d="M868.4,486.1v181.6L980.3,603V421.5L868.4,486.1z M866.2,673.5c-0.4,0-0.7-0.1-1.1-0.3
			c-0.7-0.4-1.1-1.1-1.1-1.8V484.8c0-0.8,0.4-1.5,1.1-1.9l116.2-67.1c0.7-0.4,1.5-0.4,2.1,0c0.7,0.4,1.1,1.1,1.1,1.9v186.6
			c0,0.8-0.4,1.5-1.1,1.9l-116.2,67C867,673.4,866.6,673.5,866.2,673.5z"/>
		<path class="st2" d="M906.9,469.8v-19.1c14.2-8.2,28.4-16.5,42.7-24.7v19.1L906.9,469.8z M955.9,447.7v-31.6l-55.3,31.9v31.6
			L955.9,447.7L955.9,447.7z"/>
		<path class="st1" d="M909,451.9v14.2l38.4-22.2v-14.1L909,451.9z M906.9,471.9c-0.4,0-0.8-0.1-1.1-0.3c-0.7-0.4-1.1-1.1-1.1-1.9
			v-19.1c0-0.8,0.4-1.5,1.1-1.9l42.7-24.6c0.7-0.4,1.5-0.4,2.1,0c0.7,0.4,1.1,1.1,1.1,1.9v19.1c0,0.8-0.4,1.5-1.1,1.8L908,471.7
			C907.7,471.8,907.3,471.9,906.9,471.9L906.9,471.9z M955.9,447.7L955.9,447.7z M902.7,449.3l51-29.4v26.6l-51,29.5V449.3z
			 M900.6,481.8c-0.4,0-0.8-0.1-1.1-0.3c-0.7-0.4-1.1-1.1-1.1-1.9v-31.6c0-0.8,0.4-1.5,1.1-1.9l55.3-31.9c1-0.6,2.3-0.2,2.9,0.8
			c0.2,0.3,0.3,0.7,0.3,1.1v31.5c0,0.8-0.4,1.5-1.1,1.9l-55.3,31.9C901.3,481.7,901,481.8,900.6,481.8z"/>
		<polygon class="st2" points="900.6,448.1 955.9,416.2 948.3,411.8 943.8,409.2 888.5,441.1 		"/>
		<path class="st1" d="M892.8,441.1l7.8,4.5l51-29.4l-7.8-4.5C943.8,411.7,892.8,441.1,892.8,441.1z M900.6,450.3
			c-0.4,0-0.8-0.1-1.1-0.3l-12.1-7c-0.7-0.4-1.1-1.1-1.1-1.9c0-0.8,0.4-1.5,1.1-1.9l55.3-31.9c0.7-0.4,1.5-0.4,2.1,0l12.1,7
			c0.7,0.4,1.1,1.1,1.1,1.9c0,0.8-0.4,1.5-1.1,1.9L901.7,450C901.3,450.2,901,450.3,900.6,450.3z"/>
		<path class="st0" d="M884.2,520.3L884.2,520.3c-2.4,1.6-3.9,4.2-4.1,7.1l0,0c0,2.6,1.9,3.7,4.2,2.4l0,0c2.4-1.6,4-4.3,4.1-7.2l0,0
			C888.4,520,886.5,519,884.2,520.3z"/>
		<path class="st1" d="M885.3,522.1c-1.8,1.2-2.9,3.2-3.1,5.3c0,0.3,0,0.6,0.2,0.8c0.3-0.1,0.5-0.2,0.8-0.3c1.8-1.2,2.9-3.2,3.1-5.3
			c0-0.3,0-0.6-0.2-0.8C885.8,521.9,885.6,522,885.3,522.1z M882.3,532.5c-0.7,0-1.5-0.2-2.1-0.6c-1.5-1-2.4-2.7-2.3-4.5
			c0.2-3.7,2.1-7,5.2-9l0,0c2.1-1.5,5-1.1,6.5,1c0.7,0.9,1,2.1,0.9,3.3c-0.2,3.7-2.1,7-5.2,9C884.4,532.2,883.4,532.5,882.3,532.5
			L882.3,532.5z"/>
		<path class="st0" d="M884.2,546L884.2,546c-2.4,1.6-4,4.3-4.1,7.2l0,0c0,2.6,1.9,3.7,4.2,2.4l0,0c2.4-1.6,4-4.3,4.1-7.2l0,0
			C888.4,545.7,886.5,544.7,884.2,546z"/>
		<path class="st1" d="M885.3,547.9c-1.8,1.2-2.9,3.2-3.1,5.3c0,0.3,0,0.6,0.2,0.8c0.3-0.1,0.5-0.2,0.8-0.3c1.8-1.2,2.9-3.2,3.1-5.3
			c0-0.3,0-0.6-0.2-0.9C885.8,547.6,885.6,547.7,885.3,547.9L885.3,547.9z M882.3,558.3c-0.7,0-1.5-0.2-2.1-0.6
			c-1.5-1-2.4-2.7-2.3-4.5c0.2-3.7,2.1-7,5.2-9l0,0c2.1-1.5,5-1.1,6.5,1c0.7,0.9,1,2.1,0.9,3.3c-0.2,3.7-2.1,7-5.2,9
			C884.4,558,883.4,558.3,882.3,558.3L882.3,558.3z"/>
		<path class="st0" d="M884.2,573.3L884.2,573.3c-2.4,1.6-4,4.3-4.1,7.2l0,0c0,2.6,1.9,3.7,4.2,2.4l0,0c2.4-1.6,4-4.3,4.1-7.2l0,0
			C888.4,573.1,886.5,572,884.2,573.3z"/>
		<path class="st1" d="M885.3,575.2c-1.8,1.2-2.9,3.2-3.1,5.3c0,0.3,0,0.6,0.2,0.8c0.3-0.1,0.5-0.2,0.8-0.3c1.8-1.2,2.9-3.2,3.1-5.3
			c0-0.3,0-0.6-0.2-0.8C885.8,574.9,885.6,575,885.3,575.2z M882.3,585.6c-0.7,0-1.5-0.2-2.1-0.6c-1.5-1-2.4-2.7-2.3-4.5
			c0.2-3.7,2.1-7,5.2-9l0,0c2.1-1.5,5-1.1,6.5,1c0.7,0.9,1,2.1,0.9,3.3c-0.2,3.7-2.1,7-5.2,9C884.4,585.3,883.4,585.6,882.3,585.6
			L882.3,585.6z"/>
		<path class="st3" d="M851.4,689.9l-11.3-6.6c-0.8-0.5-1.5-1.3-2-2.1c-1.1-2.1-0.8-5.2-0.8-7.5V486.4c0-3.6-0.2-6.7,0.8-10.3
			c0.5-1.6,1.2-3.1,2-4.5l11.3,6.5c-1.1,1.8-1.8,3.7-2.3,5.8c-0.5,2.5-0.7,5.1-0.5,7.7v188.2c-0.1,2.1,0,4.2,0.3,6.2
			C849.2,687.7,850.1,689,851.4,689.9z"/>
		<path class="st1" d="M841,474.6c-0.3,0.7-0.6,1.4-0.8,2.2c-0.7,2.6-0.9,5.3-0.8,8.1v189.9c0,1.8,0,4.1,0.6,5.4
			c0.3,0.6,0.8,1,1.3,1.4l5.1,3c-0.1-1.2,0-2.4,0-3.5v-1.2V490.6c-0.1-2.4,0.1-4.8,0.6-7.2c0.4-1.5,0.9-3,1.6-4.5L841,474.6z
			 M851.4,692c-0.4,0-0.7-0.1-1.1-0.3l-11.3-6.5c-1.2-0.7-2.2-1.8-2.8-3c-1.2-2.2-1.1-5.2-1.1-7.5V484.9c-0.2-3.1,0.2-6.3,1-9.3
			c0.5-1.8,1.3-3.4,2.2-5c0.6-1,1.9-1.3,2.9-0.7l11.3,6.5c0.5,0.3,0.9,0.8,1,1.3c0.2,0.6,0.1,1.2-0.2,1.7c-1,1.6-1.7,3.3-2.1,5.2
			c-0.4,2-0.5,4.1-0.5,6.2v190.5c-0.1,1.5,0,3,0.2,4.5c0.2,1,0.8,1.9,1.7,2.5c0.9,0.7,1.2,1.9,0.6,2.9
			C852.8,691.7,852.2,692,851.4,692z"/>
		<polygon class="st0" points="888.5,447.3 893.9,450.4 893.9,475.8 900.6,479.7 900.6,448.1 888.5,441.1 		"/>
		<path class="st1" d="M896,474.5l2.4,1.4v-26.6l-7.8-4.5v1.2l4.3,2.5c0.7,0.4,1.1,1.1,1.1,1.9V474.5z M900.6,481.8
			c-0.4,0-0.8-0.1-1.1-0.3l-6.7-3.9c-0.7-0.4-1.1-1.1-1.1-1.9v-24.1l-4.3-2.5c-0.7-0.4-1.1-1.1-1.1-1.9v-6.2c0-0.8,0.4-1.5,1.1-1.9
			c0.7-0.4,1.5-0.4,2.1,0l12.1,7c0.7,0.4,1.1,1.1,1.1,1.9v31.5c0,0.8-0.4,1.5-1.1,1.9C901.3,481.7,901,481.8,900.6,481.8z"/>
		<path class="st4" d="M900.4,519.2c-1.2,0-2.2-0.9-2.2-2.1c0-0.8,0.4-1.5,1.1-1.9l67.3-38.9c1-0.7,2.3-0.4,3,0.6
			c0.7,1,0.4,2.3-0.6,3c-0.1,0-0.1,0.1-0.2,0.1l-67.4,38.9C901.2,519.1,900.8,519.2,900.4,519.2z"/>
		<path class="st4" d="M900.4,546.6c-1.2,0-2.1-1-2.1-2.2c0-0.8,0.4-1.5,1.1-1.8l67.3-38.9c1.1-0.5,2.4-0.1,2.9,0.9
			c0.5,1,0.2,2.2-0.7,2.8l-67.4,38.9C901.2,546.5,900.8,546.6,900.4,546.6z"/>
		<path class="st4" d="M900.4,572.3c-1.2,0-2.2-0.9-2.2-2.1c0-0.8,0.4-1.5,1.1-1.9l48-27.7c1-0.6,2.3-0.3,2.9,0.8c0,0,0,0,0,0
			c0.6,1,0.2,2.3-0.8,2.9l-48,27.7C901.2,572.2,900.8,572.3,900.4,572.3z"/>
		<polygon class="st2" points="942.9,429.9 942.9,440.6 949.6,445.2 949.6,426 		"/>
		<path class="st1" d="M945,439.5l2.4,1.6v-11.4l-2.4,1.4V439.5z M949.6,447.3c-0.4,0-0.8-0.1-1.2-0.4l-6.7-4.5
			c-0.6-0.4-1-1.1-1-1.8v-10.7c0-0.8,0.4-1.5,1.1-1.9l6.7-3.9c0.7-0.4,1.5-0.4,2.1,0c0.7,0.4,1.1,1.1,1.1,1.9v19.1
			c0,0.8-0.4,1.5-1.1,1.9C950.3,447.2,949.9,447.3,949.6,447.3z"/>
		<polygon class="st2" points="906.9,461.4 942.9,440.6 949.6,445.2 906.9,469.8 		"/>
		<path class="st1" d="M909,462.6v3.5l36.5-21.1l-2.7-1.9L909,462.6z M906.9,472c-0.4,0-0.8-0.1-1.1-0.3c-0.7-0.4-1.1-1.1-1.1-1.9
			v-8.4c0-0.8,0.4-1.5,1.1-1.9l36-20.8c0.7-0.4,1.6-0.4,2.3,0.1l6.7,4.5c0.6,0.4,1,1.1,0.9,1.9c0,0.7-0.4,1.4-1.1,1.8L908,471.7
			C907.6,471.8,907.3,471.9,906.9,472z"/>
		<polygon class="st5" points="1082.8,540.2 1055.5,524.5 1040.1,527.7 1067.4,543.4 		"/>
		<path class="st1" d="M1043.9,528.3l23.7,13.7l11.4-2.4l-23.7-13.7L1043.9,528.3z M1067.4,544.8c-0.2,0-0.5-0.1-0.7-0.2l-27.2-15.7
			c-0.5-0.3-0.8-0.9-0.7-1.4c0.1-0.6,0.5-1,1.1-1.1l15.4-3.2c0.3-0.1,0.7,0,1,0.2l27.2,15.7c0.5,0.3,0.8,0.8,0.7,1.4
			c-0.1,0.6-0.5,1-1.1,1.1l-15.4,3.2C1067.6,544.8,1067.5,544.8,1067.4,544.8z"/>
		<polygon class="st5" points="1056.7,506.6 1029.4,490.9 1015.1,507.7 1042.3,523.5 		"/>
		<path class="st1" d="M1017.2,507.3l24.8,14.3l12.6-14.8l-24.8-14.3L1017.2,507.3z M1042.3,524.8c-0.2,0-0.5-0.1-0.7-0.2
			l-27.3-15.7c-0.4-0.2-0.6-0.6-0.7-1c-0.1-0.4,0-0.8,0.3-1.1l14.4-16.9c0.4-0.5,1.2-0.6,1.7-0.3l27.2,15.7c0.4,0.2,0.6,0.6,0.7,1
			c0.1,0.4-0.1,0.8-0.3,1.1l-14.4,16.9C1043.1,524.6,1042.7,524.8,1042.3,524.8L1042.3,524.8z"/>
		<polygon class="st5" points="1042.3,523.5 1015.1,507.7 1006.9,508.5 1034.1,524.3 		"/>
		<path class="st1" d="M1011.3,509.5l23.2,13.4l3.5-0.3l-23.2-13.4L1011.3,509.5L1011.3,509.5z M1034.1,525.6
			c-0.2,0-0.5-0.1-0.7-0.2l-27.2-15.7c-0.5-0.3-0.8-0.9-0.7-1.5c0.1-0.6,0.6-1,1.2-1.1l8.2-0.8c0.3,0,0.6,0,0.8,0.2l27.2,15.8
			c0.5,0.3,0.8,0.9,0.7,1.5c-0.1,0.6-0.6,1-1.2,1.1l-8.2,0.8L1034.1,525.6z"/>
		<polygon class="st4" points="1029.2,509.3 1002,493.6 981.2,505.6 1008.4,521.3 		"/>
		<path class="st1" d="M983.9,505.6l24.5,14.1l18.1-10.4l-24.5-14.1L983.9,505.6L983.9,505.6z M1008.4,522.7c-0.2,0-0.5-0.1-0.7-0.2
			l-27.2-15.7c-0.4-0.2-0.7-0.7-0.7-1.2c0-0.5,0.3-0.9,0.7-1.2l20.8-12c0.4-0.2,0.9-0.2,1.4,0l27.2,15.7c0.4,0.2,0.7,0.7,0.7,1.2
			c0,0.5-0.3,0.9-0.7,1.2l-20.8,12C1008.9,522.6,1008.6,522.7,1008.4,522.7z"/>
		<polygon class="st5" points="1008.4,521.3 981.2,505.6 976.2,526.2 1003.5,542 		"/>
		<path class="st1" d="M977.8,525.6l24.8,14.3l4.2-17.9l-24.8-14.3L977.8,525.6z M1003.5,543.3c-0.2,0-0.5-0.1-0.7-0.2l-27.2-15.7
			c-0.5-0.3-0.8-0.9-0.6-1.5l4.9-20.6c0.2-0.7,0.9-1.2,1.7-1c0.1,0,0.2,0.1,0.3,0.1l27.3,15.7c0.5,0.3,0.8,0.9,0.6,1.5l-5,20.7
			c-0.1,0.4-0.4,0.8-0.8,0.9C1003.9,543.3,1003.7,543.3,1003.5,543.3z"/>
		<polygon class="st4" points="1003.5,542 976.2,526.2 968,534.9 995.3,550.6 		"/>
		<path class="st1" d="M970.2,534.6l24.8,14.3l6.2-6.6L976.5,528L970.2,534.6L970.2,534.6z M995.2,552c-0.2,0-0.5-0.1-0.7-0.2
			l-27.2-15.7c-0.7-0.4-0.9-1.2-0.5-1.9c0.1-0.1,0.1-0.2,0.2-0.2l8.2-8.6c0.4-0.5,1.1-0.6,1.7-0.2l27.3,15.7c0.4,0.2,0.6,0.6,0.7,1
			c0.1,0.4-0.1,0.8-0.4,1.1l-8.2,8.6C996,551.8,995.7,552,995.2,552L995.2,552z"/>
		<polygon class="st5" points="995.3,550.6 968,534.9 953.7,534.6 980.9,550.3 		"/>
		<path class="st1" d="M981.3,549l8.7,0.2l-22.3-12.9l-8.7-0.2L981.3,549L981.3,549z M995.3,552L995.3,552l-14.4-0.3
			c-0.2,0-0.5-0.1-0.7-0.2L953,535.8c-0.5-0.3-0.8-1-0.6-1.6c0.2-0.6,0.7-1,1.3-1l0,0l14.4,0.3c0.2,0,0.5,0.1,0.6,0.2l27.2,15.7
			c0.5,0.3,0.8,1,0.7,1.6C996.5,551.6,995.9,552,995.3,552L995.3,552z"/>
		<polygon class="st4" points="980.9,550.3 953.7,534.6 939,560.1 966.2,575.8 		"/>
		<path class="st1" d="M940.9,559.6l24.9,14.4l13.3-23.1l-24.9-14.4C954.2,536.5,940.9,559.6,940.9,559.6z M966.2,577.2
			c-0.2,0-0.5-0.1-0.7-0.2l-27.2-15.7c-0.7-0.4-0.9-1.2-0.5-1.9c0,0,0,0,0,0l14.7-25.5c0.2-0.3,0.5-0.5,0.8-0.6c0.3-0.1,0.7,0,1,0.1
			l27.2,15.7c0.7,0.4,0.9,1.2,0.5,1.9l-14.7,25.5c-0.2,0.3-0.5,0.5-0.8,0.6C966.4,577.2,966.3,577.2,966.2,577.2z"/>
		<polygon class="st5" points="966.2,575.8 939,560.1 946.4,572.4 943,583.8 970.3,599.5 973.7,588.1 		"/>
		<path class="st1" d="M944.6,583.1l24.8,14.3l2.7-9.1l-6.9-11.5l-22.3-12.9l4.7,7.8c0.2,0.3,0.3,0.7,0.1,1.1L944.6,583.1
			L944.6,583.1z M970.3,600.9c-0.2,0-0.5-0.1-0.7-0.2L942.3,585c-0.6-0.3-0.8-1-0.6-1.6l3.2-10.8l-7.1-11.8
			c-0.3-0.5-0.2-1.2,0.2-1.7c0.4-0.5,1.1-0.5,1.7-0.2l27.2,15.7c0.2,0.1,0.4,0.3,0.5,0.5l7.4,12.3c0.2,0.3,0.2,0.7,0.1,1.1
			l-3.4,11.4c-0.1,0.4-0.4,0.7-0.8,0.9C970.6,600.8,970.4,600.9,970.3,600.9z"/>
		<polygon class="st4" points="970.3,599.5 943,583.8 927.6,598.4 954.8,614.1 		"/>
		<path class="st1" d="M929.9,598.1l24.8,14.3l13.3-12.6l-24.8-14.3L929.9,598.1L929.9,598.1z M954.9,615.5c-0.3,0-0.5,0-0.8-0.1
			l-27.2-15.8c-0.4-0.2-0.6-0.6-0.7-1c0-0.4,0.1-0.9,0.4-1.2l15.5-14.6c0.4-0.4,1.1-0.5,1.6-0.2l27.2,15.7c0.4,0.2,0.6,0.6,0.7,1
			c0.1,0.4-0.1,0.9-0.4,1.1l-15.4,14.6C955.5,615.3,955.2,615.5,954.9,615.5L954.9,615.5z"/>
		<path class="st5" d="M954.8,614.1l-27.2-15.8v24l16.9,9.7l-5.5,15.4l27.3,15.8l7.4-20.9l-3.4-7.5l-15.4-8.9V614.1z"/>
		<path class="st1" d="M940.7,646.9l24.8,14.4l6.7-18.8l-3-6.6l-15-8.7c-0.4-0.2-0.7-0.7-0.7-1.2v-11.2L929,600.7v20.9l16.2,9.3
			c0.6,0.3,0.8,1,0.6,1.6L940.7,646.9L940.7,646.9z M966.2,664.7c-0.2,0-0.5-0.1-0.7-0.2l-27.2-15.7c-0.6-0.3-0.8-1-0.6-1.7
			l5.1-14.3l-15.9-9.2c-0.4-0.2-0.7-0.7-0.7-1.2v-24.1c0-0.5,0.3-0.9,0.7-1.2c0.4-0.2,1-0.2,1.4,0l27.3,15.7
			c0.4,0.3,0.7,0.7,0.7,1.2v11.2l14.7,8.5c0.2,0.1,0.4,0.4,0.6,0.6l3.4,7.5c0.1,0.3,0.1,0.7,0,1l-7.4,20.9c-0.1,0.4-0.4,0.7-0.8,0.8
			C966.5,664.6,966.4,664.7,966.2,664.7z"/>
		<polygon class="st5" points="1003.5,654.1 976.2,638.4 981.2,653.3 1008.4,669.1 		"/>
		<path class="st1" d="M982.3,652.4l23.7,13.7l-3.6-11l-23.7-13.7L982.3,652.4L982.3,652.4z M1008.4,670.4c-0.2,0-0.5-0.1-0.7-0.2
			l-27.2-15.7c-0.3-0.2-0.5-0.4-0.6-0.8l-4.9-15c-0.2-0.5,0-1.1,0.5-1.5c0.4-0.4,1.1-0.4,1.5-0.1l27.2,15.8c0.3,0.2,0.5,0.4,0.6,0.8
			l4.9,15c0.2,0.7-0.1,1.5-0.9,1.7C1008.7,670.4,1008.5,670.4,1008.4,670.4L1008.4,670.4z"/>
		<path class="st5" d="M1009.5,605.3l-27.2-15.7c1.5,0.8,3.3,1.1,5,0.7c6-1,11.3-7.2,14.1-12.3c2.6-4.8,4.7-12.1,2.4-17.3
			c-0.6-1.4-1.6-2.6-2.9-3.4l27.2,15.7c5.1,3.1,4.2,10.8,2.6,15.6c-2.2,6.6-7.7,14.5-14.4,16.8c-2,0.8-4.3,0.8-6.3,0L1009.5,605.3z"
			/>
		<path class="st1" d="M1010.2,604.1l0.5,0.2c1.7,0.6,3.6,0.6,5.2-0.1c6.2-2.2,11.5-9.7,13.6-16c1.6-4.9,2-11.5-2-14l-21.8-12.6
			c1.6,5.4-0.4,12.2-3,17c-2.7,5.1-8,11.3-14.2,12.8L1010.2,604.1L1010.2,604.1z M1012.9,607.5c-1.2,0-2.4-0.2-3.5-0.8l-0.5-0.3h0
			l-27.3-15.7c-0.6-0.4-0.9-1.2-0.5-1.9c0.4-0.6,1.2-0.8,1.8-0.5c1.2,0.7,2.7,0.9,4.1,0.6c5.2-0.9,10.4-6.5,13.2-11.6
			c2.4-4.5,4.5-11.3,2.4-16.1c-0.5-1.1-1.3-2.1-2.4-2.8c-0.6-0.4-0.8-1.3-0.4-1.9c0.4-0.6,1.2-0.8,1.8-0.4l27.2,15.7
			c5.5,3.3,5.3,11.1,3.3,17.2c-2.2,6.7-7.9,15.1-15.3,17.7C1015.5,607.3,1014.2,607.5,1012.9,607.5z"/>
		<path class="st4" d="M1028.1,594.6c-5.1,8.9-13.5,13.7-18.6,10.7c-5.1-3-5.1-12.6,0-21.5c5.1-8.9,13.5-13.7,18.6-10.7
			C1033.3,576,1033.3,585.7,1028.1,594.6L1028.1,594.6z M1064,590.3l3.4-11.4l15.4-14.5v-24l-15.4,3.2l-3.4-7.5l7.4-20.9l-14.7-8.5
			l-14.4,16.9l-8.2,0.8l-4.9-15l-20.8,12l-4.9,20.6l-8.2,8.6l-14.3-0.3c-4.9,8.5-9.8,17-14.7,25.4l7.4,12.3l-3.4,11.4l-15.4,14.6v24
			l15.4-3.2l3.4,7.5l-7.4,21l14.7,8.5l14.4-16.9l8.2-0.8l4.9,15c6.9-4,13.9-8,20.8-12l4.9-20.8l8.2-8.6l14.4,0.3
			c4.9-8.5,9.8-17,14.7-25.5L1064,590.3L1064,590.3z"/>
		<path class="st1" d="M1024.7,573.6c-1.8,0.1-3.6,0.6-5.2,1.6c-7.3,4.8-12,12.8-12.5,21.6c0,3.6,1.1,6.2,3.2,7.3s4.8,0.9,7.9-0.9
			c3.7-2.3,6.7-5.5,8.8-9.3l0,0c4.7-8.1,4.9-17.1,0.5-19.6C1026.6,573.8,1025.6,573.5,1024.7,573.6z M1012.9,607.6
			c-1.4,0-2.9-0.3-4.1-1.1c-2.9-1.7-4.6-5.1-4.6-9.7c0.5-9.8,5.6-18.7,13.8-24c4-2.3,7.8-2.6,10.7-0.9c5.9,3.4,6.1,13.7,0.5,23.4
			l0,0c-2.3,4.2-5.7,7.8-9.8,10.3C1017.5,606.8,1015.3,607.5,1012.9,607.6L1012.9,607.6z M967.9,662.7l7-19.8c0.1-0.3,0.1-0.7,0-1
			l-3.4-7.5c-0.3-0.6-0.9-0.9-1.5-0.8l-13.8,2.9v-21.7l15-14.2c0.2-0.2,0.3-0.4,0.4-0.6l3.4-11.4c0.1-0.4,0-0.8-0.1-1.1l-7-11.6
			l13.9-24l13.6,0.2l0,0c0.4,0,0.7-0.2,1-0.4l8.2-8.6c0.2-0.2,0.3-0.4,0.3-0.6l4.8-20.1l18.9-10.9l4.4,13.4c0.2,0.6,0.8,1,1.4,0.9
			l8.2-0.8c0.4,0,0.7-0.2,0.9-0.5l13.6-16l12.7,7.3l-7,19.8c-0.1,0.3-0.1,0.7,0,1l3.4,7.5c0.3,0.6,0.9,0.9,1.5,0.8l13.8-2.9v21.8
			l-15,14.2c-0.2,0.2-0.3,0.4-0.4,0.6l-3.4,11.4c-0.1,0.4-0.1,0.8,0.1,1.1l7,11.6l-13.9,24l-13.6-0.2c-0.4,0-0.7,0.1-1,0.4l-8.2,8.7
			c-0.2,0.2-0.3,0.4-0.3,0.6l-4.8,20.1l-18.9,10.9l-4.4-13.4c-0.2-0.6-0.8-1-1.5-0.9l-8.2,0.8c-0.4,0-0.7,0.2-0.9,0.5l-13.6,16
			L967.9,662.7L967.9,662.7z M980.9,673.2c-0.2,0-0.5-0.1-0.7-0.2l-14.7-8.5c-0.6-0.3-0.8-1-0.6-1.6l7.2-20.4l-2.7-6l-14.3,3
			c-0.4,0.1-0.8,0-1.1-0.3c-0.3-0.3-0.5-0.7-0.5-1.1v-24c0-0.4,0.2-0.7,0.4-1l15.1-14.3l3.1-10.5l-7.1-11.8c-0.3-0.4-0.3-1,0-1.4
			l14.7-25.5c0.2-0.4,0.7-0.7,1.2-0.7l0,0l13.8,0.3l7.6-7.9l4.8-20.3c0.1-0.4,0.3-0.7,0.7-0.9l20.8-12c0.4-0.2,0.8-0.2,1.2-0.1
			c0.4,0.2,0.7,0.5,0.8,0.9l4.6,13.9l6.5-0.6l14-16.4c0.4-0.5,1.2-0.6,1.7-0.3l14.7,8.5c0.6,0.3,0.8,1,0.6,1.6l-7.2,20.4l2.7,6
			l14.3-3c0.4-0.1,0.8,0,1.2,0.3c0.3,0.3,0.5,0.6,0.5,1.1v24c0,0.4-0.2,0.7-0.4,1l-15.2,14.3l-3.1,10.5l7.1,11.8
			c0.2,0.4,0.2,1,0,1.4l-14.7,25.5c-0.2,0.5-0.7,0.7-1.2,0.7l-13.8-0.2l-7.5,7.9l-4.8,20.3c-0.1,0.4-0.3,0.7-0.7,0.9l-20.8,12
			c-0.7,0.4-1.5,0.2-1.9-0.5c-0.1-0.1-0.1-0.2-0.1-0.3l-4.6-13.9l-6.5,0.6l-14,16.5C981.7,672.9,981.3,673.1,980.9,673.2
			L980.9,673.2z"/>
		<path class="st6" d="M1028.1,594.6c-5.1,8.9-13.5,13.7-18.6,10.7c-5.1-3-5.1-12.6,0-21.5c5.1-8.9,13.5-13.7,18.6-10.7
			C1033.3,576,1033.3,585.7,1028.1,594.6L1028.1,594.6z M1044.8,604.2c14.4-24.9,14.4-51.8,0-60.1c-14.4-8.3-37.6,5.2-52,30
			c-14.4,24.8-14.4,51.8,0,60.1C1007.2,642.5,1030.5,629.1,1044.8,604.2z"/>
		<path class="st1" d="M1024.7,573.6c-1.8,0.1-3.6,0.6-5.2,1.6c-7.3,4.8-12,12.8-12.5,21.6c0,3.6,1.1,6.2,3.2,7.3s4.8,0.9,7.9-0.9
			c3.7-2.3,6.7-5.5,8.8-9.3l0,0c4.7-8.1,4.9-17.1,0.5-19.6C1026.6,573.8,1025.6,573.5,1024.7,573.6z M1012.9,607.6
			c-1.4,0-2.9-0.3-4.1-1.1c-2.9-1.7-4.6-5.1-4.6-9.7c0.5-9.8,5.6-18.7,13.8-24c4-2.3,7.8-2.6,10.7-0.9c5.9,3.4,6.1,13.7,0.5,23.4
			l0,0c-2.3,4.2-5.7,7.8-9.8,10.3C1017.5,606.8,1015.3,607.5,1012.9,607.6L1012.9,607.6z M1035.2,543.1c3.1-0.1,6.2,0.7,8.9,2.3
			c6.5,3.8,10.1,11.8,10.1,22.6c0,11.1-3.8,23.7-10.6,35.6l0,0c-14,24.2-36.5,37.4-50.1,29.5c-13.7-7.9-13.5-34,0.5-58.2
			C1005.2,555.4,1022,543,1035.2,543.1L1035.2,543.1z M1002.3,638.1c-3.6,0-7-0.9-10.1-2.6c-15-8.7-15.2-36.5-0.5-61.9
			s38.9-39.2,53.9-30.5c7.4,4.3,11.5,13.1,11.5,25c0,11.6-3.9,24.7-11,36.9l0,0C1034.3,625.2,1016.6,638,1002.3,638.1L1002.3,638.1z
			"/>
		<path class="st4" d="M1028.1,594.6c5.1-8.9,5.1-18.5,0-21.5c-5.1-3-13.5,1.8-18.6,10.7s-5.1,18.5,0,21.5
			C1014.7,608.2,1023,603.5,1028.1,594.6L1028.1,594.6z M999.1,577.8c10.9-18.9,28.6-29.1,39.5-22.8c10.9,6.3,10.9,26.7,0,45.6
			c-10.9,18.9-28.6,29.1-39.5,22.8S988.2,596.7,999.1,577.8L999.1,577.8z"/>
		<path class="st1" d="M1024.7,573.6c-1.8,0.1-3.6,0.6-5.2,1.6c-7.3,4.8-12,12.8-12.5,21.6c0,3.6,1.1,6.2,3.2,7.3s4.8,0.9,7.9-0.9
			c3.7-2.3,6.7-5.5,8.8-9.3l0,0c4.7-8.1,4.9-17.1,0.5-19.6C1026.6,573.8,1025.6,573.5,1024.7,573.6z M1012.9,607.6
			c-1.4,0-2.9-0.3-4.1-1.1c-2.9-1.7-4.6-5.1-4.6-9.7c0.5-9.8,5.6-18.7,13.8-24c4-2.3,7.8-2.6,10.7-0.9c5.9,3.4,6.1,13.7,0.5,23.4
			l0,0c-2.3,4.2-5.7,7.8-9.8,10.3C1017.5,606.8,1015.3,607.5,1012.9,607.6L1012.9,607.6z M999.1,577.8L999.1,577.8z M1031.2,554.5
			c2.3,0,4.6,0.5,6.6,1.7c10.2,5.9,10,25.5-0.5,43.7c-10.5,18.2-27.4,28.2-37.6,22.3c-4.8-2.8-7.5-8.8-7.5-16.9
			c0-8.4,2.8-17.9,8-26.8l0,0C1008.7,563.8,1021.2,554.5,1031.2,554.5L1031.2,554.5z M1006.2,626.6c-2.7,0-5.5-0.7-7.8-2
			c-5.7-3.3-8.9-10.1-8.9-19.3c0-8.9,3-18.9,8.4-28.2c11.3-19.5,29.8-30,41.4-23.3s11.8,28,0.5,47.5
			C1030.8,616.8,1017.2,626.6,1006.2,626.6L1006.2,626.6z"/>
		<path class="st1" d="M954.8,639.5c-0.3,0-0.5-0.1-0.7-0.2l-27.2-15.7c-0.7-0.4-0.9-1.2-0.5-1.9c0.4-0.7,1.2-0.9,1.9-0.5
			c0,0,0,0,0,0l27.3,15.7c0.7,0.4,0.9,1.2,0.5,1.9C955.8,639.2,955.3,639.5,954.8,639.5z"/>
		<path class="st1" d="M973.7,589.5c-0.2,0-0.5-0.1-0.7-0.2l-27.2-15.7c-0.7-0.4-0.9-1.2-0.5-1.9c0,0,0,0,0,0
			c0.4-0.7,1.2-0.9,1.9-0.5c0,0,0,0,0,0l27.2,15.7c0.7,0.4,0.9,1.2,0.5,1.9c0,0,0,0,0,0C974.6,589.2,974.1,589.5,973.7,589.5z"/>
	</g>
</g>
</svg>
