<?xml version="1.0" encoding="utf-8"?>
<!-- Generator: Adobe Illustrator 25.0.0, SVG Export Plug-In . SVG Version: 6.00 Build 0)  -->
<svg version="1.1" id="Layer_1" xmlns="http://www.w3.org/2000/svg" xmlns:xlink="http://www.w3.org/1999/xlink" x="0px" y="0px"
	 viewBox="0 0 1920 1080" style="enable-background:new 0 0 1920 1080;" xml:space="preserve">
<style type="text/css">
	.st0{fill-rule:evenodd;clip-rule:evenodd;fill:#99CCED;stroke:#2572B8;stroke-linecap:round;stroke-linejoin:round;}
	.st1{fill:none;}
	.st2{fill-rule:evenodd;clip-rule:evenodd;fill:#D9E6F5;stroke:#2572B8;stroke-linecap:round;stroke-linejoin:round;}
	.st3{fill-rule:evenodd;clip-rule:evenodd;fill:#FFFFFF;stroke:#2572B8;stroke-linecap:round;stroke-linejoin:round;}
</style>
<g id="Layer_2_1_">
	<g id="Layer_1-2">
		<path class="st0" d="M876,694.1l-26.9-15.5c-1.8-1.2-2.1-2.8-2.2-4.8V455.1c0.1-2,1.3-3.8,3.1-4.7l9.2-5.3
			c0.5-0.3,1.2-0.4,1.8-0.2l26.9,15.5c-0.6-0.3-1.3-0.2-1.8,0.1c-3.3,1.9-6.5,3.8-9.8,5.7c-1.5,1-2.4,2.6-2.5,4.4v179.1l170-98.1
			c0.5-0.4,1.2-0.4,1.8-0.2l26.9,15.5c-0.6-0.3-1.3-0.2-1.8,0.2l-182,105l-14.8-8.6v25.7C873.8,691.4,874.2,692.9,876,694.1z"/>
		<path class="st1" d="M860.3,447.1l-9.1,5.3c-1.2,0.5-1.9,1.6-2,2.9v218.5c0.1,1.8,0.4,2.4,1.2,2.9l21.1,12.2v-25.3
			c0-1.3,1-2.3,2.3-2.3c0.4,0,0.8,0.1,1.1,0.3l13.7,7.9l178.4-103l-22.2-12.8l-169.9,98c-1.1,0.6-2.5,0.3-3.2-0.9
			c-0.2-0.3-0.3-0.7-0.3-1.1V470.6c0.1-2.5,1.4-4.8,3.5-6.2l7.6-4.4L860.3,447.1z M876,696.4c-0.4,0-0.8-0.1-1.2-0.3l-26.9-15.5
			c-2.8-1.9-3.2-4.3-3.3-6.7V455.1c0.1-2.8,1.7-5.4,4.2-6.7l9.2-5.3c1.1-0.7,2.5-0.8,3.8-0.4l27.2,15.6c1.1,0.6,1.5,2,0.9,3.1
			c-0.6,1.1-1.8,1.5-2.9,1l-9.7,5.7c-0.8,0.6-1.3,1.5-1.4,2.5v174.9l166.6-96.1c1.1-0.7,2.5-0.8,3.7-0.3l27.2,15.7
			c1.1,0.6,1.6,1.9,1.1,3.1c-0.6,1.1-1.9,1.6-3.1,1.1l0,0L889.8,674.1c-0.7,0.4-1.6,0.4-2.3,0l-11.4-6.6v21.7
			c0.1,1.8,0.4,2.3,1.2,2.9c1,0.7,1.3,2.1,0.6,3.1C877.5,696,876.7,696.4,876,696.4L876,696.4z"/>
		<path class="st2" d="M881.2,693.6c-2.1,1.2-3.9,1.3-5.2,0.5c-1.4-0.8-2.2-2.5-2.2-4.8V470.6c0.1-1.8,1-3.4,2.5-4.4
			c3.3-1.9,6.6-3.8,9.8-5.7c1.4-0.8,2.5-0.1,2.5,1.5v210.1l182-105c1.4-0.8,2.5-0.1,2.5,1.5v11.4c-0.1,1.8-1,3.4-2.5,4.3
			L881.2,693.6z"/>
		<path class="st1" d="M886.3,463.1l-8.9,5.1c-0.8,0.6-1.3,1.4-1.3,2.4v218.7c0,1.4,0.4,2.4,1,2.8s1.8,0.2,2.9-0.5l0,0l189.4-109.4
			c0.8-0.6,1.3-1.4,1.4-2.4v-10.3l-181,104.5c-1.1,0.6-2.5,0.2-3.1-0.9c-0.2-0.3-0.3-0.7-0.3-1.1L886.3,463.1L886.3,463.1z
			 M877.9,696.9c-1.1,0-2.1-0.3-3.1-0.8c-2.1-1.2-3.3-3.7-3.3-6.8V470.6c0.1-2.6,1.5-5,3.7-6.4l9.8-5.7c1.7-1.2,4.1-0.8,5.3,0.9
			c0.5,0.7,0.8,1.7,0.7,2.6v206.1l178.5-103.1c1.7-1.2,4.1-0.8,5.3,0.9c0.5,0.7,0.8,1.6,0.7,2.5v11.4c-0.1,2.6-1.5,5-3.7,6.3
			L882.3,695.6C881,696.4,879.5,696.9,877.9,696.9z"/>
		<polygon class="st3" points="1037.2,572.4 888.6,658.2 888.6,498.9 1037.2,413.1 		"/>
		<path class="st1" d="M1037.2,572.4L1037.2,572.4z M890.9,500.2v154l144-83.1v-154L890.9,500.2L890.9,500.2z M888.6,660.6
			c-0.4,0-0.8-0.1-1.1-0.3c-0.7-0.4-1.2-1.2-1.2-2V498.9c0-0.8,0.4-1.6,1.2-2l148.6-85.8c0.7-0.4,1.6-0.4,2.3,0
			c0.7,0.4,1.2,1.2,1.2,2v159.4c0,0.8-0.4,1.6-1.1,2l-148.7,85.8C889.4,660.5,889,660.6,888.6,660.6z"/>
		<path class="st0" d="M989.5,473.5c-0.5-0.3-0.9-0.8-1.2-1.3l-2.8-5.1c-1.2-2.6-0.7-5,0.2-7.6c1.6-3.8,3.7-5.7,6.4-8.9l12.2-13.9
			c8.7-10,17.4-19.9,26.1-29.9l13.9-15.9l-9.8-5.7c-6.4,7.3-12.8,14.6-19.1,21.9c-7.5,8.6-15.1,17.2-22.6,25.9l-12.2,13.9
			c-2.5,2.8-3.7,4.2-5,7.7c-0.7,2.4-1,4.5,0.1,6.8l2.8,5c0.3,0.5,0.7,1,1.2,1.3L989.5,473.5L989.5,473.5z M1028.5,478.2l-9.8-5.7
			c-1.8-1.3-1.9-2.1-2.2-4.3l-0.4-13.6l9.8,5.7l0.4,13.6C1026.6,476,1026.7,476.9,1028.5,478.2L1028.5,478.2z M907.8,622.1l-9.8-5.7
			c-3.4-2.2-2-7.2-0.7-10.2l37-76.6c1.7-3.8,4.5-7,8.1-9.2l39.2-22.8l17.4-45.5l9.8,5.7l-17.4,45.5l-39.2,22.8
			c-3.5,2.2-6.3,5.4-8,9.2l-37,76.6C905.8,614.9,904.4,619.9,907.8,622.1L907.8,622.1z"/>
		<path class="st1" d="M1018.5,458.7l0.3,9.4c0.2,1.7,0.2,1.8,1.3,2.5l3.9,2.3l-0.4-11.2L1018.5,458.7L1018.5,458.7z M1028.5,480.5
			c-0.4,0-0.8-0.1-1.2-0.3l-9.8-5.7c-2.7-1.9-3-3.5-3.3-6l-0.5-13.8c0-1.3,1-2.3,2.2-2.4c0.4,0,0.9,0.1,1.2,0.3l9.8,5.7
			c0.7,0.4,1.1,1.1,1.2,1.9l0.3,13.6c0.2,1.7,0.2,1.7,1.2,2.5c1,0.7,1.2,2.1,0.6,3.1C1030,480.1,1029.3,480.5,1028.5,480.5
			L1028.5,480.5z M1035,388.3l5.8,3.3l-38.1,43.6l-13.5,15.4c-2.3,2.3-4.2,5.1-5.5,8.1c-0.8,2.4-1.6,5.2-0.5,8.3l-1.9-1.1
			c-0.2-0.2-0.4-0.4-0.6-0.6l-2.8-4.9c-0.8-1.6-0.5-3.1,0-5c1.1-3,2.1-4.2,4.5-7L1035,388.3L1035,388.3z M1000.1,455.5l-16.4,43
			c-0.2,0.5-0.5,0.9-1,1.2l-39.2,22.8c-3.1,2-5.6,4.8-7.2,8.2l-36.9,76.5c-0.4,0.9-2.5,5.8-0.1,7.3l4.1,2.4c0.2-2.1,0.8-4.1,1.6-5.9
			l37-76.6c1.9-4.2,5.1-7.7,9-10.2l38.5-22.3l16.4-42.9L1000.1,455.5L1000.1,455.5z M907.8,624.4c-0.4,0-0.8-0.1-1.1-0.3l-9.8-5.7
			c-3.7-2.3-4.3-7.2-1.7-13.2l37-76.6c1.9-4.2,5.1-7.7,9-10.2l38.4-22.4l8-21l-9.1-5.2c-0.8-0.5-1.5-1.2-2-2l-2.9-5.2
			c-1.5-3.2-1-5.9-0.3-8.5c1.4-4,2.8-5.6,5.2-8.3l54.2-62c0.7-0.8,1.9-1,2.9-0.5l9.9,5.7c0.6,0.3,1,0.9,1.1,1.6
			c0.1,0.7-0.1,1.4-0.5,1.9l-53.6,61.2c-1.9,1.9-3.5,4.2-4.6,6.7c-0.8,2.2-1.1,4-0.3,5.7l2.1,3.7l7.1-18.6c0.2-0.6,0.7-1.1,1.4-1.4
			c0.6-0.2,1.3-0.2,1.9,0.2l9.8,5.7c1,0.6,1.4,1.8,1,2.8l-17.4,45.5c-0.2,0.5-0.5,0.9-1,1.2l-39.2,22.7c-3.1,2-5.6,4.9-7.2,8.2
			l-36.9,76.6c-0.6,1.3-2.4,5.8-0.1,7.3c1.1,0.7,1.4,2.1,0.7,3.1C909.4,624,908.7,624.4,907.8,624.4z"/>
		<path class="st2" d="M907.2,611.9l37-76.5c0.9-2,2.1-3.8,3.6-5.4c1.3-1.5,2.8-2.8,4.5-3.8l39.2-22.8l17.3-45.5l-11.1,12.7
			c-3.4,3.9-7.6,4.6-9.2,1.7l-2.8-5.1c-1.7-3-0.2-8.6,3.2-12.5c18.6-21.2,37.1-42.4,55.7-63.7c0.7,23.4,1.5,46.9,2.2,70.3
			c0.1,4.3-2.9,9.7-6.7,12.1l-6.4,4c-3.8,2.4-7,0.7-7.1-3.5l-0.4-13.6l-20.3,53c-0.9,2.1-2.1,4-3.5,5.8c-1.4,1.7-3.1,3.2-5,4.4
			l-40,23.2l-33.9,70.2c-2.3,4.8-6.7,8-9.7,7l-5.1-1.6C905.4,621.4,904.8,616.7,907.2,611.9z"/>
		<path class="st1" d="M909.2,612.9c-1.4,3-1.4,5.3-0.9,6.5c0.3,0.7,0.6,0.8,0.8,0.8l5.1,1.6c1.5,0.5,4.9-1.6,6.9-5.8l33.9-70.3
			c0.2-0.4,0.5-0.8,0.9-1l40-23.2c1.7-1,3.1-2.3,4.4-3.8c1.3-1.6,2.3-3.4,3.1-5.2l20.3-52.9c0.5-1.2,1.8-1.8,3-1.3
			c0.9,0.3,1.5,1.2,1.5,2.1l0.4,13.6c-0.1,0.9,0.2,1.7,0.9,2.3c1,0.2,2,0,2.8-0.6l6.4-4c3.1-1.9,5.7-6.6,5.6-10.1l-2-64.4
			l-51.8,59.3c-2.9,3.4-3.9,8-2.9,9.8l2.9,5c0.1,0.4,0.5,0.6,0.9,0.6c1,0.1,2.8-0.7,4.6-2.7l11.1-12.7c0.8-1,2.3-1.1,3.2-0.3
			c0.8,0.6,1,1.7,0.7,2.6l-17.4,45.5c-0.2,0.5-0.5,0.9-1,1.2l-39.2,22.7c-1.5,0.9-2.8,2-3.9,3.3c-1.3,1.5-2.4,3.1-3.3,4.9
			L909.2,612.9z M914.6,626.4c-0.6,0-1.2-0.1-1.8-0.3l-5.1-1.6c-1.6-0.5-3-1.8-3.6-3.3c-1.2-2.7-0.8-6.6,1-10.3l0,0l37-76.6
			c1-2.1,2.4-4.1,3.9-5.9c1.4-1.7,3.2-3.1,5.1-4.3l38.4-22.3l12.4-32.7l-2.7,3c-2.6,3-5.7,4.5-8.5,4.3c-1.9-0.2-3.6-1.3-4.5-3
			l-2.8-5c-2.2-3.8-0.7-10.5,3.4-15.1l55.7-63.7c0.6-0.7,1.6-1,2.5-0.7c0.9,0.3,1.5,1.2,1.6,2.1l2.2,70.3c0.2,5.1-3.2,11.3-7.8,14.1
			l-6.4,4c-2.6,1.6-5.3,1.9-7.4,0.7c-2.1-1.1-3.2-3.3-3.3-6.2l-0.1-2.2l-16.2,42.3c-1,2.3-2.3,4.5-3.8,6.4c-1.6,2-3.5,3.6-5.6,4.9
			l-39.4,22.9l-33.6,69.6C922.8,623.1,918.5,626.4,914.6,626.4z"/>
	</g>
</g>
</svg>
