<?xml version="1.0" encoding="utf-8"?>
<!-- Generator: Adobe Illustrator 25.0.0, SVG Export Plug-In . SVG Version: 6.00 Build 0)  -->
<svg version="1.1" id="Layer_1" xmlns="http://www.w3.org/2000/svg" xmlns:xlink="http://www.w3.org/1999/xlink" x="0px" y="0px"
	 viewBox="0 0 1920 1080" style="enable-background:new 0 0 1920 1080;" xml:space="preserve">
<style type="text/css">
	.st0{fill-rule:evenodd;clip-rule:evenodd;fill:#99CCED;stroke:#2572B8;stroke-linecap:round;stroke-linejoin:round;}
	.st1{fill:none;}
	.st2{fill-rule:evenodd;clip-rule:evenodd;fill:#D9E6F5;stroke:#2572B8;stroke-linecap:round;stroke-linejoin:round;}
	.st3{fill-rule:evenodd;clip-rule:evenodd;fill:#FFFFFF;stroke:#2572B8;stroke-linecap:round;stroke-linejoin:round;}
</style>
<g id="Layer_2_1_">
	<g id="Layer_1-2">
		<path class="st0" d="M954.2,458c8.8-4.8,17.9-7.6,27.3-2.7c-6.8-3.9-16.8-11.1-23.8-11.9c-7.2-0.9-13.9,1.7-20.1,5.1
			c-21.3,12.9-36.6,39-38.5,63.8l16.5,9.5C917.5,497,932.9,470.9,954.2,458z"/>
		<path class="st1" d="M901.7,511l12,6.9c3.1-24.8,18.6-49.3,39.3-61.9c0,0,0.1,0,0.1-0.1c4.5-2.5,9.9-4.9,15.8-5.5
			c-4.1-2.3-8.2-4.3-11.4-4.7c-7-0.9-13.6,2.1-18.6,4.8C919.2,462.6,904,487.2,901.7,511L901.7,511z M915.7,524.2
			c-0.4,0-0.8-0.1-1.2-0.3l-16.5-9.5c-0.8-0.5-1.3-1.3-1.2-2.2c2-26.1,17.9-52.5,39.7-65.7c5.7-3.1,13.2-6.5,21.6-5.5
			c6,0.8,13.4,5.3,19.9,9.3c1.7,1.1,3.3,2.1,4.8,2.9c1.1,0.7,1.5,2.2,0.8,3.3c-0.6,1-2,1.4-3.1,0.9c-7.2-3.8-14.7-3-25,2.7
			c-20.2,12.3-35.5,37.7-37.4,61.9c-0.1,0.8-0.5,1.5-1.3,1.9C916.5,524.1,916.1,524.2,915.7,524.2z"/>
		<path class="st2" d="M954.2,458L954.2,458l-16.5-9.5l0,0L954.2,458L954.2,458z M970.2,400.8c-5-2.9-16.2-10.4-20.8-10.9
			c-22.4-2.8-46.8,45.6-27.8,57.1l16.5,9.5C917.3,443.3,948.6,389.3,970.2,400.8L970.2,400.8z"/>
		<path class="st1" d="M947.6,392.1c-11.2,0-23.2,14.2-28,28.3c-4,11.6-2.8,20.7,3.3,24.4l6.9,4c-2.6-9,0.7-20.9,6.4-30.7
			c5.7-9.8,14.5-18.8,23.7-20.9c-4.1-2.5-8.5-4.9-10.7-5.1C948.7,392.1,948.1,392.1,947.6,392.1z M938.1,458.8
			c-0.4,0-0.8-0.1-1.2-0.3l-16.5-9.5c-8.2-5-10.2-16.2-5.4-30.1c5.8-16.8,20.4-33.1,34.8-31.4c3.8,0.5,10.2,4.3,17.7,8.9
			c1.5,0.9,2.9,1.8,4,2.4c1.1,0.7,1.5,2.2,0.7,3.3c-0.6,1-1.9,1.4-3,0.9c-9.4-4.9-21.6,5.2-28.8,17.7c-7.2,12.5-9.9,28.1-1,33.8
			c1.1,0.7,1.4,2.1,0.8,3.3C939.8,458.4,939,458.8,938.1,458.8L938.1,458.8z M954.2,460.4c-0.4,0-0.8-0.1-1.2-0.3l-16.5-9.5
			c-0.8-0.4-1.2-1.3-1.2-2.1c0.1-1.3,1.2-2.4,2.5-2.3c0.4,0,0.8,0.1,1.1,0.3l16.5,9.5c1.1,0.7,1.5,2.1,0.9,3.2
			c-0.2,0.3-0.4,0.6-0.7,0.8l0,0C955.2,460.2,954.7,460.4,954.2,460.4z"/>
		<path class="st0" d="M981.5,455.3c-7.3-4.2-17-3.2-27.3,2.7c-10.7,6.1-20.3,16.7-27.3,28.8c-6.4,11.1-10.6,23.5-11.2,35l77.1-44.5
			C992.1,466.6,987.9,459,981.5,455.3z"/>
		<path class="st1" d="M971.5,455.1c-4.9,0-10.3,1.7-16.1,5c-9.9,5.8-19.4,15.7-26.4,28c-5.3,9-8.9,19-10.5,29.4l71.8-41.4
			c-0.8-8.9-4.3-15.5-9.9-18.7l0,0C977.6,455.8,974.6,455,971.5,455.1z M915.7,524.2c-0.5,0-0.9-0.1-1.3-0.4
			c-0.8-0.5-1.2-1.3-1.1-2.2c0.7-11.5,4.8-24.3,11.5-36c7.5-13,17.5-23.6,28.2-29.7c11.1-6.4,21.7-7.4,29.7-2.7l0,0
			c7.3,4.2,11.8,12.7,12.4,23.9c0,0.9-0.4,1.8-1.2,2.2l-77.1,44.5C916.5,524.1,916.1,524.2,915.7,524.2z"/>
		<path class="st3" d="M954.2,454.8L954.2,454.8c6.3-3.6,11.9-9.8,16-17l0,0c4.1-7.1,6.7-15.1,6.7-22.4s-2.5-12.3-6.6-14.7
			c-4.1-2.4-9.8-2-16.1,1.6c-6.3,3.6-12,9.9-16.1,17s-6.7,15.1-6.7,22.4s2.6,12.3,6.7,14.7C942.3,458.8,947.9,458.5,954.2,454.8z"/>
		<path class="st1" d="M964.3,401.6c-3.2,0.1-6.3,1.1-9,2.8c-5.7,3.3-11.1,9-15.2,16.1s-6.3,14.6-6.3,21.2c0,6.1,1.9,10.6,5.5,12.6
			c3.5,2,8.4,1.5,13.7-1.6c0,0,0.1-0.1,0.1-0.1l0,0c5.6-3.2,11-8.9,15-16s6.4-14.6,6.4-21.2c0-6.1-2-10.6-5.5-12.6
			C967.6,402,966,401.6,964.3,401.6L964.3,401.6z M944,460.3c-2.5,0-4.9-0.6-7.1-1.8c-5.1-2.9-7.9-8.9-7.9-16.8
			c0-7.4,2.5-15.8,7-23.6c4.5-7.8,10.5-14.1,16.9-17.8c6.8-3.9,13.4-4.5,18.5-1.6s7.9,8.9,7.9,16.8c0,7.4-2.5,15.8-7,23.6
			c-4.5,7.8-10.5,14.1-16.9,17.9l0,0C952,459,948.1,460.2,944,460.3z"/>
		<path class="st3" d="M985.7,559.8l-12.6-7.3c1.9-4.1,3-8.6,3.1-13.2c0-5.8-2.1-10.2-5.9-12.5c-2.9-1.6-6.4-1.8-10.1-0.5v-18.9
			c0-1.3-1.1-2.4-2.4-2.4c-1.3,0-2.4,1.1-2.4,2.4c0,0,0,0,0,0v21.3c-4.6,3.1-8.3,7.3-11,12.1c-3.1,5.1-4.8,11-5,17
			c-0.2,3.5,0.9,7,2.9,9.8l-13.3,23c-0.6,1.1-0.3,2.6,0.9,3.2c1.1,0.7,2.6,0.3,3.3-0.8c0,0,0,0,0,0l12.9-22.4c1.4,0.7,3,1,4.5,1
			c3-0.1,5.8-1,8.4-2.5c5-3.1,9.1-7.3,11.9-12.4l12.4,7.2c0.4,0.2,0.8,0.3,1.2,0.3c1.3,0,2.4-1.1,2.4-2.4
			C986.9,561.1,986.5,560.3,985.7,559.8L985.7,559.8z M956.6,565c-3.5,2-6.7,2.4-8.9,1.1c-2.3-1.3-3.5-4.2-3.5-8.3
			c0.6-10.4,6.1-19.9,14.8-25.6c1.8-1.1,3.8-1.8,5.9-1.9c1.1,0,2.1,0.2,3,0.8c2.2,1.3,3.5,4.2,3.5,8.3
			C970.8,549.8,965.3,559.3,956.6,565L956.6,565z"/>
		<path class="st0" d="M898.8,626.5c8.8-4.8,17.9-7.6,27.3-2.7c-6.8-3.9-16.8-11-23.8-11.9c-7.2-0.9-13.9,1.8-20,5.1
			c-21.3,12.9-36.7,39-38.5,63.8l16.5,9.6C862.1,665.5,877.5,639.4,898.8,626.5z"/>
		<path class="st1" d="M846.2,679.5l12,6.9c3.1-24.8,18.6-49.3,39.3-61.9l0.1-0.1c4.5-2.5,9.9-4.9,15.8-5.5
			c-4.1-2.3-8.2-4.3-11.4-4.7c-7.1-0.9-13.7,2.1-18.6,4.8C863.7,631.1,848.6,655.7,846.2,679.5z M860.2,692.7
			c-0.4,0-0.8-0.1-1.2-0.3l-16.5-9.5c-0.8-0.5-1.3-1.3-1.2-2.3c2-26.1,17.9-52.5,39.7-65.7c5.7-3.1,13.1-6.5,21.6-5.5
			c6,0.7,13.3,5.3,19.9,9.3c1.7,1.1,3.4,2.1,4.8,2.9c1.1,0.6,1.5,2.1,0.9,3.2c-0.6,1.1-2,1.6-3.2,1c-7.2-3.8-14.7-3-25,2.7
			c-20.2,12.3-35.5,37.7-37.4,61.9c-0.1,0.8-0.6,1.5-1.3,1.9C861,692.6,860.6,692.7,860.2,692.7z"/>
		<path class="st2" d="M898.8,626.5L898.8,626.5l-16.5-9.5l0,0L898.8,626.5L898.8,626.5z M914.8,569.2c-5-2.9-16.2-10.3-20.8-10.9
			c-22.4-2.8-46.8,45.6-27.8,57.1l16.5,9.5C861.9,611.8,893.1,557.9,914.8,569.2L914.8,569.2z"/>
		<path class="st1" d="M892.1,560.6c-11.3,0-23.2,14.2-28,28.3c-4,11.6-2.8,20.8,3.3,24.5l7,4c-2.6-9,0.7-20.9,6.4-30.7
			c5.7-9.8,14.5-18.8,23.6-20.9c-4.1-2.4-8.6-4.8-10.7-5.1C893.2,560.6,892.7,560.6,892.1,560.6L892.1,560.6z M882.7,627.3
			c-0.4,0-0.8-0.1-1.2-0.3l-16.5-9.5c-8.2-5-10.2-16.2-5.4-30.1c5.8-16.8,20.4-33.1,34.8-31.4c3.8,0.5,10.3,4.3,17.7,8.8l4,2.4
			c1.1,0.6,1.5,2.1,0.9,3.2c-0.6,1.1-2,1.6-3.2,1c-9.4-4.9-21.6,5.2-28.8,17.7c-7.2,12.5-9.9,28.1-0.9,33.8c1.1,0.7,1.4,2.2,0.6,3.3
			C884.2,626.9,883.5,627.3,882.7,627.3z M898.8,628.9c-0.4,0-0.8-0.1-1.2-0.3l-16.5-9.5c-1.2-0.6-1.6-2.1-1-3.2s2.1-1.6,3.2-1
			c0.1,0,0.1,0.1,0.2,0.1l16.5,9.5c0.7,0.4,1.2,1.2,1.2,2c0,0.8-0.4,1.6-1.1,2l0,0C899.7,628.7,899.2,628.9,898.8,628.9L898.8,628.9
			z"/>
		<path class="st0" d="M926.1,623.8c-7.3-4.2-17-3.2-27.3,2.7c-10.7,6.2-20.3,16.8-27.3,28.9c-6.4,11.1-10.6,23.5-11.2,35l77.1-44.6
			C936.7,635,932.5,627.5,926.1,623.8z"/>
		<path class="st1" d="M916,623.6c-4.9,0-10.3,1.7-16.1,5c-10,5.8-19.3,15.7-26.4,28c-5.3,9-8.9,19-10.5,29.4l71.8-41.4
			c-0.8-8.8-4.3-15.4-9.9-18.6C922.2,624.4,919.1,623.6,916,623.6L916,623.6z M860.2,692.7c-0.4,0-0.9-0.1-1.3-0.3
			c-0.7-0.5-1.2-1.3-1.1-2.2c0.6-11.5,4.8-24.2,11.5-36c7.5-13,17.5-23.5,28.2-29.7c11.1-6.4,21.7-7.4,29.7-2.7l0,0
			c7.3,4.2,11.7,12.7,12.4,23.9c0.1,0.9-0.4,1.8-1.2,2.2l-77.1,44.5C861.1,692.6,860.7,692.7,860.2,692.7z"/>
		<path class="st3" d="M898.8,623.3L898.8,623.3c6.2-3.6,11.9-9.9,16-17l0,0c4.1-7.1,6.6-15.2,6.6-22.4s-2.5-12.4-6.6-14.7
			s-9.8-2-16.1,1.6c-6.3,3.6-12,9.8-16.1,17c-4.1,7.1-6.6,15.2-6.6,22.4s2.5,12.3,6.6,14.7S892.5,627,898.8,623.3z"/>
		<path class="st1" d="M898.8,623.3L898.8,623.3z M908.9,570.1c-3.2,0.1-6.2,1.1-8.9,2.8c-5.7,3.3-11.1,9-15.2,16.1
			c-4.1,7.1-6.4,14.6-6.4,21.2c0,6.1,1.9,10.6,5.5,12.6c3.5,2,8.4,1.5,13.7-1.6l0,0c5.8-3.4,11.1-9.1,15.2-16.1
			c4.1-7,6.3-14.6,6.3-21.2c0-6.1-1.9-10.6-5.5-12.7C912.2,570.5,910.6,570.1,908.9,570.1L908.9,570.1z M888.6,628.8
			c-2.5,0-4.9-0.6-7.1-1.8c-5.1-2.9-7.8-8.9-7.8-16.8c0-7.4,2.5-15.8,7-23.6c4.5-7.8,10.5-14.1,16.9-17.9c6.8-3.9,13.4-4.5,18.5-1.6
			s7.9,8.9,7.9,16.8c0,7.4-2.5,15.8-7,23.6c-4.5,7.8-10.5,14.1-16.9,17.8l0,0C896.6,627.5,892.6,628.7,888.6,628.8z"/>
		<path class="st0" d="M1037.7,546.3c8.8-4.8,18-7.7,27.3-2.7c-6.8-3.9-16.8-11-23.8-11.9c-7.2-0.9-13.9,1.8-20,5.1
			c-21.3,13-36.7,39-38.5,63.8l16.5,9.5C1001,585.3,1016.3,559.2,1037.7,546.3z"/>
		<path class="st1" d="M985.2,599.2l12,6.9c3.1-24.8,18.6-49.4,39.3-61.9c0,0,0.1,0,0.1,0c4.5-2.5,9.9-5,15.8-5.5
			c-4.1-2.3-8.2-4.3-11.4-4.7c-7.1-0.9-13.7,2.1-18.6,4.8C1002.7,550.8,987.5,575.5,985.2,599.2L985.2,599.2z M999.2,612.5
			c-0.4,0-0.8-0.1-1.2-0.3l-16.5-9.5c-0.8-0.4-1.3-1.3-1.2-2.2c2-26.1,17.9-52.5,39.7-65.7c5.7-3.1,13.1-6.5,21.6-5.5
			c6,0.8,13.4,5.3,19.9,9.3c1.7,1,3.3,2.1,4.8,2.9c1.2,0.6,1.6,2.1,0.9,3.2c-0.6,1.2-2.1,1.6-3.2,0.9c-7.2-3.8-14.7-3-25,2.7
			c-20.2,12.3-35.5,37.7-37.4,61.9c0,0.8-0.5,1.6-1.3,2C1000,612.4,999.6,612.5,999.2,612.5L999.2,612.5z"/>
		<path class="st2" d="M1037.7,546.3L1037.7,546.3l-16.5-9.5l0,0L1037.7,546.3L1037.7,546.3z M1053.7,489
			c-5-2.9-16.2-10.4-20.8-10.9c-22.4-2.8-46.8,45.6-27.9,57.1l16.5,9.5C1000.8,531.5,1032,477.7,1053.7,489L1053.7,489z"/>
		<path class="st1" d="M1031.1,480.4c-11.3,0-23.2,14.3-28,28.3c-4,11.6-2.8,20.7,3.3,24.4l7,4c-2.6-9,0.7-20.9,6.4-30.7
			c5.7-9.8,14.4-18.8,23.5-20.9c-4.1-2.4-8.6-4.8-10.7-5.1C1032.1,480.4,1031.6,480.4,1031.1,480.4L1031.1,480.4z M1021.6,547.1
			c-0.4,0-0.8-0.1-1.2-0.3l-16.5-9.5c-8.2-5-10.2-16.2-5.4-30.1c5.8-16.8,20.5-33.1,34.8-31.4c3.8,0.5,10.2,4.3,17.7,8.9
			c1.5,0.9,2.9,1.8,4,2.4c1.1,0.6,1.5,2.1,0.9,3.2c-0.6,1.1-2,1.6-3.2,1c-9.4-4.9-21.7,5.1-28.9,17.7c-7.2,12.5-9.9,28.2-0.9,33.8
			c1.1,0.7,1.4,2.1,0.8,3.2C1023.2,546.7,1022.5,547.1,1021.6,547.1L1021.6,547.1z M1037.7,548.7c-0.4,0-0.8-0.1-1.2-0.3l-16.5-9.5
			c-0.8-0.4-1.2-1.3-1.2-2.1c0-0.9,0.5-1.7,1.3-2c0.7-0.4,1.6-0.4,2.3,0l16.5,9.5c0.7,0.4,1.2,1.2,1.2,2c0,0.8-0.4,1.6-1.1,2.1l0,0
			C1038.7,548.5,1038.2,548.7,1037.7,548.7z"/>
		<path class="st0" d="M1065,543.5c-7.3-4.2-17.1-3.2-27.3,2.7c-10.7,6.2-20.3,16.7-27.3,28.8c-6.4,11.1-10.6,23.5-11.2,35
			l77.1-44.5C1075.6,554.8,1071.5,547.2,1065,543.5z"/>
		<path class="st1" d="M1055,543.3c-4.9,0-10.4,1.7-16.1,5c-10,5.8-19.4,15.7-26.4,27.9c-5.3,9-8.9,19-10.5,29.4l71.8-41.4
			c-0.8-8.8-4.3-15.4-9.9-18.6l0,0C1061.1,544.1,1058.1,543.3,1055,543.3L1055,543.3z M999.2,612.4c-0.4,0-0.9-0.1-1.3-0.3
			c-0.7-0.5-1.2-1.3-1.1-2.2c0.7-11.5,4.7-24.2,11.5-36c7.5-13,17.5-23.5,28.2-29.7c11.1-6.4,21.7-7.4,29.7-2.7
			c7.3,4.2,11.7,12.7,12.4,23.9c0.1,0.9-0.4,1.8-1.2,2.2l-77.1,44.5C1000,612.3,999.6,612.5,999.2,612.4L999.2,612.4z"/>
		<path class="st3" d="M1037.7,543.1L1037.7,543.1c6.3-3.6,11.9-9.8,16-16.9l0,0c4.1-7.1,6.7-15.1,6.7-22.4s-2.6-12.3-6.7-14.7
			c-4.1-2.4-9.8-2-16,1.6c-6.2,3.6-12,9.8-16.1,17c-4.1,7.2-6.6,15.2-6.6,22.4c0,7.2,2.5,12.3,6.6,14.7S1031.4,546.8,1037.7,543.1z"
			/>
		<path class="st1" d="M1047.8,489.9c-3.2,0.1-6.2,1.1-8.9,2.8c-5.7,3.3-11.1,9-15.2,16.1s-6.4,14.6-6.4,21.2
			c0,6.1,1.9,10.6,5.5,12.6c3.5,2,8.4,1.5,13.7-1.6c0,0,0.1-0.1,0.1-0.1l0,0c5.6-3.2,11-8.9,15.1-16c4.1-7.1,6.3-14.6,6.3-21.2
			c0-6.1-1.9-10.6-5.5-12.6C1051.1,490.3,1049.5,489.9,1047.8,489.9L1047.8,489.9z M1027.5,548.6c-2.5,0-5-0.6-7.1-1.9
			c-5.1-2.9-7.8-8.9-7.8-16.8c0-7.4,2.5-15.8,7-23.6c4.5-7.8,10.5-14.1,17-17.9c6.8-4,13.4-4.5,18.5-1.6c5.1,2.9,7.8,8.9,7.8,16.8
			c0,7.4-2.5,15.8-7,23.6c-4.5,7.8-10.5,14.1-16.9,17.8l0,0C1035.5,547.3,1031.6,548.5,1027.5,548.6z"/>
	</g>
</g>
</svg>
