<?xml version="1.0" encoding="utf-8"?>
<!-- Generator: Adobe Illustrator 25.0.0, SVG Export Plug-In . SVG Version: 6.00 Build 0)  -->
<svg version="1.1" id="Layer_1" xmlns="http://www.w3.org/2000/svg" xmlns:xlink="http://www.w3.org/1999/xlink" x="0px" y="0px"
	 viewBox="0 0 1920 1080" style="enable-background:new 0 0 1920 1080;" xml:space="preserve">
<style type="text/css">
	.st0{fill:#97BCE5;}
	.st1{fill-rule:evenodd;clip-rule:evenodd;fill:#D9E7F5;}
	.st2{fill:none;stroke:#2372B8;stroke-width:0.57;stroke-linecap:round;stroke-linejoin:round;}
	.st3{fill-rule:evenodd;clip-rule:evenodd;fill:#FFFFFF;}
	.st4{fill-rule:evenodd;clip-rule:evenodd;fill:#9ACDEE;}
</style>
<g id="Layer_2_1_">
	<g id="Layer_1-2">
		<circle class="st0" cx="960" cy="540" r="76.2"/>
		<path class="st1" d="M928.1,597l-9.7-5.3c-0.2-0.2-0.2-0.3-0.2-0.6v-1.7c0-0.6,0.3-1.2,0.8-1.5c26.2-15.1,52.4-30.2,78.6-45.4
			c0.2-0.1,0.5-0.1,0.7-0.1l9.6,5.3c-0.3-0.1-0.3-0.1-0.6,0c-26.2,15.1-52.4,30.2-78.6,45.4c-0.5,0.3-0.9,0.9-0.9,1.5v1.7
			C927.9,596.7,927.8,596.8,928.1,597"/>
		<path class="st2" d="M928.1,597l-9.7-5.3c-0.2-0.2-0.2-0.3-0.2-0.6v-1.7c0-0.6,0.3-1.2,0.8-1.5c26.2-15.1,52.4-30.2,78.6-45.4
			c0.2-0.1,0.5-0.1,0.7-0.1l9.6,5.3c-0.3-0.1-0.3-0.1-0.6,0c-26.2,15.1-52.4,30.2-78.6,45.4c-0.5,0.3-0.9,0.9-0.9,1.5v1.7
			C927.9,596.7,927.8,596.8,928.1,597z"/>
		<path class="st3" d="M928.6,597c-0.4,0.1-0.8,0.1-0.8-0.5v-1.7c0-0.6,0.4-1.2,0.9-1.5l78.6-45.3c0.2-0.2,0.6-0.2,0.8,0.1
			c0.1,0.1,0.2,0.3,0.1,0.5v1.7c0,0.4-0.2,0.9-0.5,1.2c-0.6,0.4-1.2,0.8-1.8,1.2L930,596.2C929.6,596.4,928.9,596.9,928.6,597"/>
		<path class="st2" d="M928.6,597c-0.4,0.1-0.8,0.1-0.8-0.5v-1.7c0-0.6,0.4-1.2,0.9-1.5l78.6-45.3c0.2-0.2,0.6-0.2,0.8,0.1
			c0.1,0.1,0.2,0.3,0.1,0.5v1.7c0,0.4-0.2,0.9-0.5,1.2c-0.6,0.4-1.2,0.8-1.8,1.2L930,596.2C929.6,596.4,928.9,596.8,928.6,597z"/>
		<polygon class="st4" points="919.8,587.5 919.8,527.5 922.8,528.9 922.8,588.8 		"/>
		<polygon class="st2" points="919.8,587.5 919.8,527.5 922.8,528.9 922.8,588.8 		"/>
		<polygon class="st1" points="922.8,528.9 919.8,527.5 997,483 1000,484.4 		"/>
		<polygon class="st2" points="922.8,528.9 919.8,527.5 997,483 1000,484.4 		"/>
		<polygon class="st3" points="1000,484.4 1000,544.3 922.8,588.8 922.8,528.9 		"/>
		<polygon class="st2" points="1000,484.4 1000,544.3 922.8,588.8 922.8,528.9 		"/>
		<polygon class="st4" points="996.7,490 926,530.8 926,583.2 996.7,542.4 		"/>
		<polygon class="st2" points="996.7,490 926,530.8 926,583.2 996.7,542.4 		"/>
		<path class="st3" d="M944.2,545.7l0.3,2.5l-11.8,9l-0.6-3.3c-0.3-1.4-0.1-2.9,0.4-4.2c1.1-1.8,2.4-3.4,4-4.7
			c1.2-1,2.2-2.2,3.1-3.4c0.4-0.8,0.4-1.8,0.2-2.6c-0.2-1.2-0.5-1.8-0.8-1.8c-0.3,0-1.2,0.4-2.5,1.4c-1,0.6-1.8,1.4-2.4,2.3
			c-0.3,0.9-0.4,1.8-0.2,2.7l0.1,0.7l-2.9,2.2l-0.1-0.7c-0.4-1.7-0.2-3.5,0.6-5.1c1.2-1.9,2.7-3.5,4.5-4.8c2.2-1.8,3.8-2.5,4.8-2.4
			s1.5,1.2,1.8,3.2c0.3,1.5,0.2,3.1-0.3,4.6c-1.1,1.8-2.5,3.5-4.1,4.9c-1.1,1-2.1,2.2-3,3.4c-0.3,0.8-0.4,1.6-0.1,2.5l0.1,0.5
			L944.2,545.7z"/>
		<path class="st2" d="M944.2,545.7l0.3,2.5l-11.8,9l-0.6-3.3c-0.3-1.4-0.1-2.9,0.4-4.2c1.1-1.8,2.4-3.4,4-4.7
			c1.2-1,2.2-2.2,3.1-3.4c0.4-0.8,0.4-1.8,0.2-2.6c-0.2-1.2-0.5-1.8-0.8-1.8c-0.3,0-1.2,0.4-2.5,1.4c-1,0.6-1.8,1.4-2.4,2.3
			c-0.3,0.9-0.4,1.8-0.2,2.7l0.1,0.7l-2.9,2.2l-0.1-0.7c-0.4-1.7-0.2-3.5,0.6-5.1c1.2-1.9,2.7-3.5,4.5-4.8c2.2-1.8,3.8-2.5,4.8-2.4
			s1.5,1.2,1.8,3.2c0.3,1.5,0.2,3.1-0.3,4.6c-1.1,1.8-2.5,3.5-4.1,4.9c-1.1,1-2.1,2.2-3,3.4c-0.3,0.8-0.4,1.6-0.1,2.5l0.1,0.5
			L944.2,545.7z"/>
		<path class="st3" d="M970.4,525.7l0.3,2.5l-11.9,9l-0.4-3.4c-0.3-1.4-0.2-2.8,0.3-4.2c1.1-1.7,2.5-3.3,4-4.7
			c1.2-1,2.2-2.2,3.1-3.4c0.3-0.8,0.4-1.7,0.2-2.6c-0.2-1.2-0.5-1.8-0.8-1.8c-0.3-0.1-1.2,0.4-2.6,1.4c-0.9,0.6-1.7,1.4-2.3,2.4
			c-0.3,0.8-0.4,1.8-0.2,2.7l0.1,0.7l-3,2.2l-0.1-0.7c-0.3-1.7-0.1-3.5,0.6-5.1c1.2-1.8,2.8-3.4,4.6-4.7c2.3-1.7,3.9-2.5,4.8-2.4
			c0.9,0.1,1.6,1.2,1.9,3.2c0.3,1.5,0.2,3.1-0.3,4.6c-0.5,1.1-1.9,2.8-4,4.9c-1.1,1-2.1,2.1-3,3.3c-0.3,0.8-0.4,1.6-0.1,2.5l0.1,0.5
			L970.4,525.7z"/>
		<path class="st2" d="M970.4,525.7l0.3,2.5l-11.9,9l-0.4-3.4c-0.3-1.4-0.2-2.8,0.3-4.2c1.1-1.7,2.5-3.3,4-4.7
			c1.2-1,2.2-2.2,3.1-3.4c0.3-0.8,0.4-1.7,0.2-2.6c-0.2-1.2-0.5-1.8-0.8-1.8c-0.3-0.1-1.2,0.4-2.6,1.4c-0.9,0.6-1.7,1.4-2.3,2.4
			c-0.3,0.8-0.4,1.8-0.2,2.7l0.1,0.7l-3,2.2l-0.1-0.7c-0.3-1.7-0.1-3.5,0.6-5.1c1.2-1.8,2.8-3.4,4.6-4.7c2.3-1.7,3.9-2.5,4.8-2.4
			c0.9,0.1,1.6,1.2,1.9,3.2c0.3,1.5,0.2,3.1-0.3,4.6c-0.5,1.1-1.9,2.8-4,4.9c-1.1,1-2.1,2.1-3,3.3c-0.3,0.8-0.4,1.6-0.1,2.5l0.1,0.5
			L970.4,525.7z"/>
		<path class="st3" d="M994.7,549.1c-0.3-0.2-0.7-0.3-1-0.1l-11,6.4c0.3-0.1,0.6-0.1,0.8,0c1,0.6,1.6,1.7,1.5,2.9
			c0,0.2-0.2,0.4-0.3,0.5l11-6.4c0.4-0.3,0.4-0.8,0.4-1.2C995.9,550.3,995.4,549.6,994.7,549.1L994.7,549.1z"/>
		<path class="st2" d="M994.7,549.1c-0.3-0.2-0.7-0.3-1-0.1l-11,6.4c0.3-0.1,0.6-0.1,0.8,0c1,0.6,1.6,1.7,1.5,2.9
			c0,0.2-0.2,0.4-0.3,0.5l11-6.4c0.4-0.3,0.4-0.8,0.4-1.2C995.9,550.3,995.4,549.6,994.7,549.1L994.7,549.1z"/>
		<path class="st3" d="M984.6,556.5c-0.2-0.4-0.6-0.8-1-1c-0.4-0.3-0.9-0.3-1.2,0.1c-0.2,0.2-0.2,0.5-0.2,0.7c0,0.5,0.2,1,0.4,1.4
			c0.2,0.5,0.6,0.8,1,1.1c0.3,0.2,0.7,0.2,1,0.1c0.3-0.2,0.4-0.6,0.4-0.9C985,557.4,984.9,557,984.6,556.5"/>
		<path class="st2" d="M984.6,556.5c-0.2-0.4-0.6-0.8-1-1c-0.4-0.3-0.9-0.3-1.2,0.1c-0.2,0.2-0.2,0.5-0.2,0.7c0,0.5,0.2,1,0.4,1.4
			c0.2,0.5,0.6,0.8,1,1.1c0.3,0.2,0.7,0.2,1,0.1c0.3-0.2,0.4-0.6,0.4-0.9C985,557.4,984.8,556.9,984.6,556.5z"/>
		<polygon class="st1" points="947,577.2 940.8,573.6 929.8,579.9 936.1,583.5 		"/>
		<polygon class="st2" points="947,577.2 940.8,573.6 929.8,579.9 936.1,583.5 		"/>
		<polygon class="st4" points="936.1,583.5 929.8,579.9 929.8,584.8 936.1,588.4 		"/>
		<polygon class="st2" points="936.1,583.5 929.8,579.9 929.8,584.8 936.1,588.4 		"/>
		<polygon class="st3" points="947,582.1 947,577.2 936.1,583.5 936.1,588.4 		"/>
		<polygon class="st2" points="947,582.1 947,577.2 936.1,583.5 936.1,588.4 		"/>
		<path class="st3" d="M947.6,542.4c-0.1,0-0.2,0-0.3-0.1c-0.4-0.2-0.6-0.6-0.4-1c0,0,0,0,0,0l6.2-13.4c0.2-0.4,0.7-0.6,1.1-0.4
			c0.4,0.2,0.6,0.7,0.4,1.1l0,0l-6.2,13.4C948.2,542.3,947.9,542.4,947.6,542.4"/>
		<path class="st2" d="M947.6,542.4c-0.1,0-0.2,0-0.3-0.1c-0.4-0.2-0.6-0.6-0.4-1c0,0,0,0,0,0l6.2-13.4c0.2-0.4,0.7-0.6,1.1-0.4
			c0.4,0.2,0.6,0.7,0.4,1.1l0,0l-6.2,13.4C948.2,542.3,947.9,542.4,947.6,542.4z"/>
		<path class="st3" d="M955,536.8c-0.1,0-0.1,0-0.2,0l-8.5-2.2c-0.4-0.1-0.7-0.4-0.7-0.9c0,0,0-0.1,0-0.1c0.1-0.4,0.5-0.7,1-0.6
			c0,0,0,0,0,0l8.6,2.2c0.4,0.1,0.7,0.6,0.6,1C955.7,536.6,955.4,536.9,955,536.8"/>
		<path class="st2" d="M955,536.8c-0.1,0-0.1,0-0.2,0l-8.5-2.2c-0.4-0.1-0.7-0.4-0.7-0.9c0,0,0-0.1,0-0.1c0.1-0.4,0.5-0.7,1-0.6
			c0,0,0,0,0,0l8.6,2.2c0.4,0.1,0.7,0.6,0.6,1C955.7,536.6,955.4,536.8,955,536.8z"/>
		<path class="st3" d="M971.1,517.3c-0.2,0-0.5-0.1-0.6-0.3c-0.3-0.4-0.2-0.9,0.1-1.1l10.5-8c0.3-0.3,0.8-0.2,1.1,0.1c0,0,0,0,0,0
			c0.3,0.4,0.2,0.9-0.1,1.1l-10.5,8C971.5,517.3,971.3,517.4,971.1,517.3"/>
		<path class="st2" d="M971.1,517.3c-0.2,0-0.5-0.1-0.6-0.3c-0.3-0.4-0.2-0.9,0.1-1.1l10.5-8c0.3-0.3,0.8-0.2,1.1,0.1c0,0,0,0,0,0
			c0.3,0.4,0.2,0.9-0.1,1.1l-10.5,8C971.5,517.3,971.3,517.4,971.1,517.3z"/>
		<path class="st3" d="M971.8,522c-0.2,0-0.5-0.1-0.6-0.3c-0.3-0.4-0.2-0.9,0.1-1.2l10.5-8c0.4-0.3,0.9-0.2,1.2,0.2
			c0.2,0.4,0.1,0.9-0.2,1.1l-10.5,8C972.2,521.9,972,522,971.8,522"/>
		<path class="st2" d="M971.8,522c-0.2,0-0.5-0.1-0.6-0.3c-0.3-0.4-0.2-0.9,0.1-1.2l10.5-8c0.4-0.3,0.9-0.2,1.2,0.2
			c0.2,0.4,0.1,0.9-0.2,1.1l-10.5,8C972.2,521.9,972,522,971.8,522z"/>
		<path class="st3" d="M940.3,563.3c-0.3,0-0.5-0.1-0.7-0.3c-0.3-0.3-0.2-0.8,0.1-1.1l10.5-8c0.4-0.3,0.9-0.2,1.2,0.2
			c0.3,0.4,0.2,0.9-0.1,1.2l-10.4,8C940.7,563.2,940.5,563.3,940.3,563.3"/>
		<path class="st2" d="M940.3,563.3c-0.3,0-0.5-0.1-0.7-0.3c-0.3-0.3-0.2-0.8,0.1-1.1l10.5-8c0.4-0.3,0.9-0.2,1.2,0.2
			c0.3,0.4,0.2,0.9-0.1,1.2l-10.4,8C940.7,563.2,940.5,563.3,940.3,563.3z"/>
		<path class="st3" d="M941,567.9c-0.3,0-0.5-0.1-0.7-0.3c-0.3-0.3-0.2-0.8,0.1-1.1c0,0,0.1,0,0.1-0.1l10.5-8
			c0.3-0.3,0.8-0.2,1.1,0.1c0,0,0,0,0,0c0.3,0.3,0.2,0.8-0.1,1.1l-10.5,8C941.3,567.8,941.2,567.9,941,567.9"/>
		<path class="st2" d="M941,567.9c-0.3,0-0.5-0.1-0.7-0.3c-0.3-0.3-0.2-0.8,0.1-1.1c0,0,0.1,0,0.1-0.1l10.5-8
			c0.3-0.3,0.8-0.2,1.1,0.1c0,0,0,0,0,0c0.3,0.3,0.2,0.8-0.1,1.1l-10.5,8C941.3,567.8,941.2,567.9,941,567.9z"/>
	</g>
</g>
</svg>
