<?xml version="1.0" encoding="utf-8"?>
<!-- Generator: Adobe Illustrator 25.0.0, SVG Export Plug-In . SVG Version: 6.00 Build 0)  -->
<svg version="1.1" id="Layer_1" xmlns="http://www.w3.org/2000/svg" xmlns:xlink="http://www.w3.org/1999/xlink" x="0px" y="0px"
	 viewBox="0 0 1920 1080" style="enable-background:new 0 0 1920 1080;" xml:space="preserve">
<style type="text/css">
	.st0{fill:#97BCE5;}
	.st1{fill-rule:evenodd;clip-rule:evenodd;fill:#FFFFFF;}
	.st2{fill:none;stroke:#2372B8;stroke-width:0.61;stroke-linecap:round;stroke-linejoin:round;}
	.st3{fill-rule:evenodd;clip-rule:evenodd;fill:#D9E7F5;}
	.st4{fill-rule:evenodd;clip-rule:evenodd;fill:#9ACDEE;}
</style>
<g id="Layer_2_1_">
	<g id="Layer_1-2">
		<circle class="st0" cx="960" cy="540" r="76.2"/>
		<path class="st1" d="M1002.6,585.7c3,0,5.5-2.5,5.5-5.5c0-3-2.5-5.5-5.5-5.5c-3,0-5.5,2.5-5.5,5.5
			C997.1,583.2,999.6,585.7,1002.6,585.7C1002.6,585.7,1002.6,585.7,1002.6,585.7"/>
		<path class="st2" d="M1002.6,585.7c3,0,5.5-2.5,5.5-5.5c0-3-2.5-5.5-5.5-5.5c-3,0-5.5,2.5-5.5,5.5
			C997.1,583.2,999.6,585.7,1002.6,585.7C1002.6,585.7,1002.6,585.7,1002.6,585.7z"/>
		<path class="st3" d="M1008.2,589.4c0-3.1-2.5-5.6-5.6-5.6c-3.1,0-5.6,2.5-5.6,5.6v14c0.1,0.8,0.1,1.2,1.7,2.1s6.4,0.9,7.9,0
			c1.6-0.9,1.6-1.4,1.6-2.1V589.4z"/>
		<path class="st2" d="M1008.2,589.4c0-3.1-2.5-5.6-5.6-5.6c-3.1,0-5.6,2.5-5.6,5.6v14c0.1,0.8,0.1,1.2,1.7,2.1s6.4,0.9,7.9,0
			c1.6-0.9,1.6-1.4,1.6-2.1V589.4z"/>
		<path class="st3" d="M1002.6,585.7c3,0,5.5-2.5,5.5-5.5c0-3-2.5-5.5-5.5-5.5c-3,0-5.5,2.5-5.5,5.5
			C997.1,583.2,999.6,585.7,1002.6,585.7C1002.6,585.7,1002.6,585.7,1002.6,585.7"/>
		<path class="st2" d="M1002.6,585.7c3,0,5.5-2.5,5.5-5.5c0-3-2.5-5.5-5.5-5.5c-3,0-5.5,2.5-5.5,5.5
			C997.1,583.2,999.6,585.7,1002.6,585.7C1002.6,585.7,1002.6,585.7,1002.6,585.7z"/>
		<path class="st4" d="M923.3,536.6V565l0.2,0.9c0.5,1.9,1.4,3.7,2.7,5.3c2.9,3.3,6.4,5.8,10.5,7.4c12.3,5.2,29.9,5,41.8-1.2
			c3.3-1.6,6.3-4,8.5-7c0.9-1.4,1.6-2.9,2.1-4.5l0.2-0.9v-28.4c-0.1,0.6-0.3,1.2-0.4,1.8c-0.7,1.9-1.8,3.7-3.2,5.2
			c-3.8,4.2-9.9,7-15.4,8.5c-10.8,2.9-24.6,2.3-34.8-2.5c-4-1.8-8.1-4.7-10.3-8.5c-0.7-1.1-1.2-2.3-1.5-3.6L923.3,536.6z"/>
		<path class="st2" d="M923.3,536.6V565l0.2,0.9c0.5,1.9,1.4,3.7,2.7,5.3c2.9,3.3,6.4,5.8,10.5,7.4c12.3,5.2,29.9,5,41.8-1.2
			c3.3-1.6,6.3-4,8.5-7c0.9-1.4,1.6-2.9,2.1-4.5l0.2-0.9v-28.4c-0.1,0.6-0.3,1.2-0.4,1.8c-0.7,1.9-1.8,3.7-3.2,5.2
			c-3.8,4.2-9.9,7-15.4,8.5c-10.8,2.9-24.6,2.3-34.8-2.5c-4-1.8-8.1-4.7-10.3-8.5c-0.7-1.1-1.2-2.3-1.5-3.6L923.3,536.6z"/>
		<polygon class="st3" points="1014.3,535 1014.3,537.5 956.2,571 956.2,568.5 		"/>
		<polygon class="st2" points="1014.3,535 1014.3,537.5 956.2,571 956.2,568.5 		"/>
		<polygon class="st4" points="956.2,568.5 956.2,571 898.2,537.5 898.2,535 		"/>
		<polygon class="st2" points="956.2,568.5 956.2,571 898.2,537.5 898.2,535 		"/>
		<polygon class="st4" points="956.2,501.4 1014.3,535 956.2,568.5 898.2,535 		"/>
		<polygon class="st2" points="956.2,501.4 1014.3,535 956.2,568.5 898.2,535 		"/>
		<path class="st3" d="M1002.6,576.2c-0.4,0-0.7-0.3-0.8-0.7v-20c0.1-8.1-5.9-15-13.9-16.1l-32-4.8c-0.4-0.1-0.7-0.4-0.6-0.8
			c0.1-0.4,0.4-0.7,0.8-0.6l0,0l32.1,4.9c8.7,1.3,15.2,8.8,15.1,17.6v20C1003.4,575.8,1003,576.2,1002.6,576.2
			C1002.6,576.2,1002.6,576.2,1002.6,576.2"/>
		<path class="st2" d="M1002.6,576.2c-0.4,0-0.7-0.3-0.8-0.7v-20c0.1-8.1-5.9-15-13.9-16.1l-32-4.8c-0.4-0.1-0.7-0.4-0.6-0.8
			c0.1-0.4,0.4-0.7,0.8-0.6l0,0l32.1,4.9c8.7,1.3,15.2,8.8,15.1,17.6v20C1003.3,575.8,1003,576.2,1002.6,576.2
			C1002.6,576.2,1002.6,576.2,1002.6,576.2z"/>
		<path class="st3" d="M961.2,530.8c-3.1-1.6-6.9-1.6-10,0c-2.8,1.6-2.8,4.2,0,5.8c3.1,1.6,6.9,1.6,10,0
			C964,535,964,532.4,961.2,530.8"/>
		<path class="st2" d="M961.2,530.8c-3.1-1.6-6.9-1.6-10,0c-2.8,1.6-2.8,4.2,0,5.8c3.1,1.6,6.9,1.6,10,0
			C964,535,964,532.4,961.2,530.8z"/>
	</g>
</g>
</svg>
