<?xml version="1.0" encoding="utf-8"?>
<!-- Generator: Adobe Illustrator 25.0.0, SVG Export Plug-In . SVG Version: 6.00 Build 0)  -->
<svg version="1.1" id="Layer_1" xmlns="http://www.w3.org/2000/svg" xmlns:xlink="http://www.w3.org/1999/xlink" x="0px" y="0px"
	 viewBox="0 0 1920 1080" style="enable-background:new 0 0 1920 1080;" xml:space="preserve">
<style type="text/css">
	.st0{fill:#97BCE5;}
	.st1{fill-rule:evenodd;clip-rule:evenodd;fill:#9ACDEE;}
	.st2{fill:none;stroke:#2372B8;stroke-width:0.56;stroke-linecap:round;stroke-linejoin:round;}
	.st3{fill-rule:evenodd;clip-rule:evenodd;fill:#D9E7F5;}
	.st4{fill-rule:evenodd;clip-rule:evenodd;fill:#FFFFFF;}
	.st5{fill-rule:evenodd;clip-rule:evenodd;fill:#2372B8;}
</style>
<g id="Layer_2_1_">
	<g id="Layer_1-2">
		<circle class="st0" cx="960" cy="540" r="76.2"/>
		<polygon class="st1" points="966.4,610.6 924.1,586.2 924.1,582.9 966.4,607.3 		"/>
		<polygon class="st2" points="966.4,610.6 924.1,586.2 924.1,582.9 966.4,607.3 		"/>
		<polygon class="st3" points="966.4,607.3 924.1,582.9 962.9,560 1005.7,584.7 		"/>
		<polygon class="st2" points="966.4,607.3 924.1,582.9 962.9,560 1005.7,584.7 		"/>
		<polygon class="st3" points="966.4,607.3 993.2,591.8 1005.7,584.7 1005.7,587.9 966.4,610.6 		"/>
		<polygon class="st2" points="966.4,607.3 993.2,591.8 1005.7,584.7 1005.7,587.9 966.4,610.6 		"/>
		<polygon class="st3" points="960,534.3 934.9,519.8 934.9,514.8 960.1,529.3 		"/>
		<polygon class="st2" points="960,534.3 934.9,519.8 934.9,514.8 960.1,529.3 		"/>
		<polygon class="st4" points="960,534.3 960.1,529.3 984.4,515.3 984.4,520.3 		"/>
		<polygon class="st2" points="960,534.3 960.1,529.3 984.4,515.3 984.4,520.3 		"/>
		<polygon class="st4" points="959.3,501.8 982.6,515.3 980.5,516.6 959.3,504.3 		"/>
		<polygon class="st2" points="959.3,501.8 982.6,515.3 980.5,516.6 959.3,504.3 		"/>
		<polygon class="st4" points="938.9,516.1 936.7,514.8 959.3,501.8 959.3,504.3 		"/>
		<polygon class="st2" points="938.9,516.1 936.7,514.8 959.3,501.8 959.3,504.3 		"/>
		<polygon class="st4" points="960,528.7 938.1,516.1 959.2,503.9 981.2,516.6 		"/>
		<polygon class="st2" points="960,528.7 938.1,516.1 959.2,503.9 981.2,516.6 		"/>
		<polygon class="st4" points="960.1,529.3 934.9,514.8 959.2,500.8 984.4,515.3 		"/>
		<polygon class="st2" points="960.1,529.3 934.9,514.8 959.2,500.8 984.4,515.3 		"/>
		<polygon class="st3" points="959.9,526.7 944.3,517.7 944.3,501.6 959.9,510.6 		"/>
		<polygon class="st2" points="959.9,526.7 944.3,517.7 944.3,501.6 959.9,510.6 		"/>
		<polygon class="st4" points="959.9,510.6 944.3,501.6 959.2,492.7 975,501.9 		"/>
		<polygon class="st2" points="959.9,510.6 944.3,501.6 959.2,492.7 975,501.9 		"/>
		<polygon class="st4" points="959.9,510.6 975,501.9 975,518 959.9,526.7 		"/>
		<polygon class="st2" points="959.9,510.6 975,501.9 975,518 959.9,526.7 		"/>
		<polygon class="st1" points="959.8,506.6 951.1,501.6 959.4,496.7 968.2,501.8 		"/>
		<polygon class="st2" points="959.8,506.6 951.1,501.6 959.4,496.7 968.2,501.8 		"/>
		<polygon class="st3" points="959.8,506.6 951.1,501.6 951.1,486 959.8,491 		"/>
		<polygon class="st2" points="959.8,506.6 951.1,501.6 951.1,486 959.8,491 		"/>
		<polygon class="st4" points="959.8,491 951.1,486 959.4,481.1 968.2,486.2 		"/>
		<polygon class="st2" points="959.8,491 951.1,486 959.4,481.1 968.2,486.2 		"/>
		<polygon class="st4" points="959.8,491 968.2,486.2 968.2,501.8 959.8,506.6 		"/>
		<polygon class="st2" points="959.8,491 968.2,486.2 968.2,501.8 959.8,506.6 		"/>
		<path class="st1" d="M959.7,487.3c-0.5,0-0.9-0.4-0.9-0.9v-15.6c-0.1-0.5,0.3-0.9,0.8-1s0.9,0.3,1,0.8c0,0.1,0,0.1,0,0.2v15.6
			C960.5,486.9,960.1,487.3,959.7,487.3"/>
		<path class="st2" d="M959.7,487.3c-0.5,0-0.9-0.4-0.9-0.9v-15.6c-0.1-0.5,0.3-0.9,0.8-1s0.9,0.3,1,0.8c0,0.1,0,0.1,0,0.2v15.6
			C960.5,486.9,960.1,487.3,959.7,487.3z"/>
		<path class="st3" d="M959.6,471.5c0.6,0,1.1-0.4,1.1-1s-0.4-1.1-1-1.1c-0.6,0-1.1,0.4-1.1,1c0,0,0,0,0,0.1
			C958.6,471,959.1,471.5,959.6,471.5"/>
		<path class="st2" d="M959.6,471.5c0.6,0,1.1-0.4,1.1-1s-0.4-1.1-1-1.1c-0.6,0-1.1,0.4-1.1,1c0,0,0,0,0,0.1
			C958.6,471,959.1,471.5,959.6,471.5z"/>
		<polygon class="st3" points="960.1,542.2 935.8,528.2 935.8,525.4 960,539.4 		"/>
		<polygon class="st2" points="960.1,542.2 935.8,528.2 935.8,525.4 960,539.4 		"/>
		<polygon class="st1" points="960,539.4 935.8,525.4 935.8,520.3 960.1,534.3 		"/>
		<polygon class="st2" points="960,539.4 935.8,525.4 935.8,520.3 960.1,534.3 		"/>
		<polygon class="st3" points="960,539.4 960.1,534.3 983.5,520.8 983.5,525.9 		"/>
		<polygon class="st2" points="960,539.4 960.1,534.3 983.5,520.8 983.5,525.9 		"/>
		<polygon class="st1" points="960,547.3 935.8,533.3 935.8,528.2 960.1,542.2 		"/>
		<polygon class="st2" points="960,547.3 935.8,533.3 935.8,528.2 960.1,542.2 		"/>
		<polygon class="st3" points="960,547.3 960.1,542.2 983.5,528.7 983.5,533.8 		"/>
		<polygon class="st2" points="960,547.3 960.1,542.2 983.5,528.7 983.5,533.8 		"/>
		<polygon class="st1" points="960,555.2 935.8,541.2 935.8,536.1 960.1,550.2 		"/>
		<polygon class="st2" points="960,555.2 935.8,541.2 935.8,536.1 960.1,550.2 		"/>
		<polygon class="st3" points="960,555.2 960.1,550.1 983.5,536.6 983.5,541.7 		"/>
		<polygon class="st2" points="960,555.2 960.1,550.1 983.5,536.6 983.5,541.7 		"/>
		<polygon class="st1" points="960,563.1 935.8,549.1 935.8,544 960.1,558.1 		"/>
		<polygon class="st2" points="960,563.1 935.8,549.1 935.8,544 960.1,558.1 		"/>
		<polygon class="st3" points="960,563.1 960.1,558 983.5,544.5 983.5,549.6 		"/>
		<polygon class="st2" points="960,563.1 960.1,558 983.5,544.5 983.5,549.6 		"/>
		<polygon class="st1" points="960,571 935.8,557 935.8,551.9 960.1,565.9 		"/>
		<polygon class="st2" points="960,571 935.8,557 935.8,551.9 960.1,565.9 		"/>
		<polygon class="st3" points="960,571 960.1,565.9 983.5,552.5 983.5,557.5 		"/>
		<polygon class="st2" points="960,571 960.1,565.9 983.5,552.5 983.5,557.5 		"/>
		<polygon class="st1" points="960,591.6 935.8,577.6 935.8,567.7 960.1,581.8 		"/>
		<polygon class="st2" points="960,591.6 935.8,577.6 935.8,567.7 960.1,581.8 		"/>
		<polygon class="st3" points="960,591.6 960.1,581.8 983.5,568.3 983.5,578.1 		"/>
		<polygon class="st2" points="960,591.6 960.1,581.8 983.5,568.3 983.5,578.1 		"/>
		<path class="st1" d="M960,578.8v-5l-24.2-14v5C948.5,572.1,947.4,571.5,960,578.8"/>
		<path class="st2" d="M960,578.8v-5l-24.2-14v5C948.4,572.2,947.4,571.6,960,578.8z"/>
		<polygon class="st1" points="965.4,518 964.2,517.3 964.2,517.3 964.3,517.4 965.5,518.1 965.4,518 		"/>
		<polygon class="st2" points="965.4,518 964.2,517.3 964.2,517.3 964.3,517.4 965.5,518.1 965.4,518 		"/>
		<polygon class="st1" points="970.6,509.2 969.4,508.5 969.3,508.5 969.3,508.5 970.5,509.2 970.6,509.2 		"/>
		<polygon class="st2" points="970.6,509.2 969.4,508.5 969.3,508.5 969.3,508.5 970.5,509.2 970.6,509.2 		"/>
		<path class="st4" d="M964.9,511.8c0.7-1.3,1.8-2.5,3.1-3.3c1.1-1,2.8-0.9,3.8,0.2c0.6,0.6,0.8,1.5,0.6,2.3c-0.2,3.1-1.8,6-4.4,7.6
			c-1.1,1-2.8,0.9-3.8-0.3c-0.5-0.6-0.8-1.5-0.6-2.3C963.7,514.6,964.1,513.1,964.9,511.8"/>
		<path class="st2" d="M964.9,511.8c0.7-1.3,1.8-2.5,3.1-3.3c1.1-1,2.8-0.9,3.8,0.2c0.6,0.6,0.8,1.5,0.6,2.3c-0.2,3.1-1.8,6-4.4,7.6
			c-1.1,1-2.8,0.9-3.8-0.3c-0.5-0.6-0.8-1.5-0.6-2.3C963.7,514.6,964.1,513.1,964.9,511.8z"/>
		<path class="st5" d="M968.5,514.9c-0.1,0-0.2,0-0.2,0l-2-0.6c-0.5-0.1-0.7-0.6-0.6-1.1c0,0,0,0,0,0c0.1-0.4,0.6-0.7,1.1-0.6l2,0.6
			c0.5,0.1,0.7,0.6,0.6,1.1C969.2,514.6,968.9,514.9,968.5,514.9"/>
		<path class="st5" d="M967.9,515.4c-0.1,0-0.3,0-0.4-0.1c-0.4-0.2-0.6-0.7-0.4-1.2l1.9-3.8c0.2-0.4,0.7-0.6,1.1-0.4c0,0,0,0,0,0
			c0.4,0.2,0.6,0.7,0.4,1.1c0,0,0,0,0,0l-1.9,3.8C968.5,515.2,968.2,515.4,967.9,515.4"/>
		<polygon class="st3" points="960,578.9 960,573.8 983.5,560.4 983.5,565.4 		"/>
		<polygon class="st2" points="960,578.9 960,573.8 983.5,560.4 983.5,565.4 		"/>
		<polygon class="st4" points="960.1,542.2 983.5,528.7 983.5,525.9 960.1,539.4 		"/>
		<polygon class="st2" points="960.1,542.2 983.5,528.7 983.5,525.9 960.1,539.4 		"/>
		<polygon class="st3" points="960.1,550.1 935.8,536.1 935.8,533.3 960,547.3 		"/>
		<polygon class="st2" points="960.1,550.1 935.8,536.1 935.8,533.3 960,547.3 		"/>
		<polygon class="st4" points="960.1,550.1 983.5,536.6 983.5,533.8 960.1,547.3 		"/>
		<polygon class="st2" points="960.1,550.1 983.5,536.6 983.5,533.8 960.1,547.3 		"/>
		<polygon class="st3" points="960.1,558 935.8,544 935.8,541.2 960,555.2 		"/>
		<polygon class="st2" points="960.1,558 935.8,544 935.8,541.2 960,555.2 		"/>
		<polygon class="st4" points="960.1,558 983.5,544.5 983.5,541.7 960.1,555.2 		"/>
		<polygon class="st2" points="960.1,558 983.5,544.5 983.5,541.7 960.1,555.2 		"/>
		<polygon class="st3" points="960.1,565.9 935.8,551.9 935.8,549.1 960,563.1 		"/>
		<polygon class="st2" points="960.1,565.9 935.8,551.9 935.8,549.1 960,563.1 		"/>
		<polygon class="st4" points="960.1,565.9 983.5,552.4 983.5,549.6 960.1,563.1 		"/>
		<polygon class="st2" points="960.1,565.9 983.5,552.4 983.5,549.6 960.1,563.1 		"/>
		<polygon class="st3" points="960.1,573.9 935.8,559.8 935.8,557 960,571 		"/>
		<polygon class="st2" points="960.1,573.9 935.8,559.8 935.8,557 960,571 		"/>
		<polygon class="st3" points="960.1,581.8 935.8,567.7 935.8,564.9 960,578.9 		"/>
		<polygon class="st2" points="960.1,581.8 935.8,567.7 935.8,564.9 960,578.9 		"/>
		<polygon class="st4" points="960.1,581.8 983.5,568.2 983.5,565.4 960.1,578.9 		"/>
		<polygon class="st2" points="960.1,581.8 983.5,568.2 983.5,565.4 960.1,578.9 		"/>
		<polygon class="st4" points="960.1,573.9 983.5,560.3 983.5,557.5 960.1,571 		"/>
		<polygon class="st2" points="960.1,573.9 983.5,560.3 983.5,557.5 960.1,571 		"/>
		<polygon class="st4" points="971.7,579.8 994.6,566.7 983.5,560.3 960.7,573.5 		"/>
		<polygon class="st2" points="971.7,579.8 994.6,566.7 983.5,560.3 960.7,573.5 		"/>
		<polygon class="st3" points="960.1,594.5 935.8,580.5 935.8,577.6 960,591.6 		"/>
		<polygon class="st2" points="960.1,594.5 935.8,580.5 935.8,577.6 960,591.6 		"/>
		<polygon class="st4" points="960.1,594.5 983.5,580.9 983.5,578.1 960.1,591.6 		"/>
		<polygon class="st2" points="960.1,594.5 983.5,580.9 983.5,578.1 960.1,591.6 		"/>
		<path class="st1" d="M971.7,601.2l-2.4-1.4v-18.3l-9.2-5.5v-3c3.9,2.3,7.8,4.7,11.7,7L971.7,601.2z"/>
		<path class="st2" d="M971.7,601.2l-2.4-1.4v-18.3l-9.2-5.5v-3c3.9,2.3,7.8,4.7,11.7,7L971.7,601.2z"/>
		<polygon class="st1" points="992.2,589.5 989.8,588.1 989.8,566.9 992.2,568.3 		"/>
		<polygon class="st2" points="992.2,589.5 989.8,588.1 989.8,566.9 992.2,568.3 		"/>
		<path class="st4" d="M974,583.5l18.2-10.4v16.3l2.3-1.4c0-7.9,0-18.8,0-26.7l-22.9,13.1v8.2v18.5l2.4-1.4V583.5z"/>
		<path class="st2" d="M974,583.5l18.2-10.4v16.3l2.3-1.4c0-7.9,0-18.8,0-26.7l-22.9,13.1v8.2v18.5l2.4-1.4V583.5z"/>
		<path class="st5" d="M989.4,572.5c-0.1,0-0.2,0-0.3-0.1c-0.2-0.1-0.3-0.4-0.3-0.6v-3.6c0-0.2,0.1-0.5,0.3-0.6l1.6-0.9
			c0.3-0.2,0.7-0.1,0.9,0.2c0.2,0.3,0.1,0.7-0.2,0.9c0,0,0,0,0,0l-1.2,0.7v2.1l0.5-0.3c0.3-0.2,0.8-0.1,1,0.2c0,0,0,0,0,0.1
			c0.2,0.3,0.1,0.8-0.2,1c0,0,0,0,0,0l-1.6,0.9C989.6,572.5,989.5,572.5,989.4,572.5"/>
		<path class="st5" d="M986.8,574c-0.6,0-1-0.4-1.2-0.9c-0.5-1.1-0.2-3.4,1-4.1c0.5-0.4,1.2-0.3,1.6,0.1c0.3,0.3,0.3,0.7,0,1
			c0,0,0,0,0,0c-0.2,0.2-0.6,0.2-0.8,0.1c-0.4,0.3-0.6,0.7-0.6,1.2c-0.1,0.4,0,0.8,0.1,1.2c0.1-0.2,0.2-0.4,0.3-0.6
			c0.1-0.4,0.5-0.6,0.9-0.5c0.4,0.1,0.6,0.5,0.5,0.9c-0.1,0.7-0.6,1.3-1.4,1.6C987.1,574,987,574,986.8,574"/>
		<path class="st5" d="M984.4,575.4c-0.4,0-0.7-0.3-0.7-0.7c0,0,0,0,0,0V571c0-0.4,0.3-0.7,0.7-0.7c0.4,0,0.7,0.3,0.7,0.7v3.6
			C985.1,575,984.8,575.4,984.4,575.4C984.4,575.4,984.4,575.4,984.4,575.4"/>
		<path class="st5" d="M978.3,578.9c-0.4,0-0.7-0.3-0.7-0.7c0,0,0,0,0,0v-3.7c0-0.2,0.1-0.5,0.3-0.6l1.5-0.9c0.4-0.2,0.8,0,0.9,0.4
			c0.1,0.3,0,0.7-0.2,0.9l-1.1,0.7v3.2C978.9,578.6,978.6,578.9,978.3,578.9C978.3,578.9,978.3,578.9,978.3,578.9"/>
		<path class="st5" d="M978.3,577c-0.2,0-0.5-0.1-0.6-0.3c-0.2-0.3-0.1-0.7,0.2-0.9c0,0,0,0,0,0l1.1-0.6c0.3-0.2,0.7-0.1,0.9,0.2
			s0.1,0.7-0.2,0.9c0,0,0,0,0,0l-1.1,0.6C978.5,577,978.4,577,978.3,577"/>
		<path class="st5" d="M975.7,576L975.7,576z M976,576.7c-0.3,0.3-0.5,0.7-0.5,1.1c-0.1,0.4-0.1,0.8,0,1.1c0.2-0.3,0.4-0.7,0.5-1.1
			C976,577.5,976,577.1,976,576.7 M975.5,579.1L975.5,579.1z M975.4,580.5c-0.2,0-0.4-0.1-0.6-0.2c-0.8-0.4-0.8-1.5-0.8-2
			c-0.1-1.1,0.4-2.2,1.3-2.9c0.5-0.4,1.3-0.2,1.7,0.3c0,0,0.1,0.1,0.1,0.1c0.6,1,0.3,3.7-1,4.4C975.9,580.4,975.7,580.5,975.4,580.5
			"/>
		<path class="st5" d="M989.4,570.7c-0.4,0-0.7-0.3-0.7-0.7c0-0.2,0.1-0.5,0.3-0.6l1.1-0.6c0.3-0.2,0.7-0.1,0.9,0.2
			c0.2,0.3,0.1,0.8-0.2,1c0,0,0,0-0.1,0l-1.1,0.6C989.6,570.7,989.5,570.7,989.4,570.7"/>
		<path class="st5" d="M981.4,577.1c-0.4,0-0.7-0.3-0.7-0.7c0,0,0,0,0,0v-3.7c0-0.2,0.1-0.5,0.3-0.6l1.5-0.8
			c0.3-0.2,0.8-0.1,0.9,0.2s0.1,0.8-0.2,0.9l0,0l-1.1,0.7v3.3C982,576.8,981.7,577.1,981.4,577.1
			C981.4,577.1,981.4,577.1,981.4,577.1"/>
		<path class="st5" d="M981.4,575.2c-0.4,0-0.7-0.3-0.7-0.7c0-0.2,0.1-0.5,0.3-0.6l1.1-0.6c0.3-0.2,0.7-0.1,0.9,0.2
			c0.2,0.3,0.1,0.8-0.2,1c0,0,0,0-0.1,0l-1.1,0.6C981.6,575.3,981.5,575.3,981.4,575.2"/>
	</g>
</g>
</svg>
