<?xml version="1.0" encoding="utf-8"?>
<!-- Generator: Adobe Illustrator 25.0.0, SVG Export Plug-In . SVG Version: 6.00 Build 0)  -->
<svg version="1.1" id="Layer_1" xmlns="http://www.w3.org/2000/svg" xmlns:xlink="http://www.w3.org/1999/xlink" x="0px" y="0px"
	 viewBox="0 0 1920 1080" style="enable-background:new 0 0 1920 1080;" xml:space="preserve">
<style type="text/css">
	.st0{fill:#97BCE5;}
	.st1{fill-rule:evenodd;clip-rule:evenodd;fill:#9ACDEE;}
	.st2{fill:none;stroke:#2372B8;stroke-width:0.59;stroke-linecap:round;stroke-linejoin:round;}
	.st3{fill-rule:evenodd;clip-rule:evenodd;fill:#D9E7F5;}
	.st4{fill-rule:evenodd;clip-rule:evenodd;fill:#FFFFFF;}
</style>
<g id="Layer_2_1_">
	<g id="Layer_1-2">
		<circle class="st0" cx="960" cy="540" r="76.2"/>
		<path class="st1" d="M930.6,492.8c-3.8-1.6-7-1.1-10.8,0.3c-5.8,2.5-10,6.4-13.9,11.2c-4,5.1-7,11-8.7,17.3
			c-1.3,5-1.8,9.5-0.6,14.6c0.9,3.2,2,5.3,4.7,7.4l2.8,1.6l5,2.9l29.2-50.8L930.6,492.8z"/>
		<path class="st2" d="M930.6,492.8c-3.8-1.6-7-1.1-10.8,0.3c-5.8,2.5-10,6.4-13.9,11.2c-4,5.1-7,11-8.7,17.3
			c-1.3,5-1.8,9.5-0.6,14.6c0.9,3.2,2,5.3,4.7,7.4l2.8,1.6l5,2.9l29.2-50.8L930.6,492.8z"/>
		<path class="st3" d="M924.5,547.1c11.5-6.6,20.7-22.7,20.7-35.9c0-13.2-9.3-18.6-20.7-12c-11.5,6.6-20.7,22.7-20.7,36
			S913.1,553.7,924.5,547.1"/>
		<path class="st2" d="M924.5,547.1c11.5-6.6,20.7-22.7,20.7-35.9c0-13.2-9.3-18.6-20.7-12c-11.5,6.6-20.7,22.7-20.7,36
			S913.1,553.7,924.5,547.1z"/>
		<path class="st4" d="M933.8,504.2l-0.5-0.2c-1.9-0.6-3.9-0.7-5.8-0.1c-4.2,1.3-7.3,3.8-10.2,7c-4,4.5-6.7,10-8,15.9
			c-0.8,3.3-0.6,6.8,0.4,10c0.6,1.6,1.6,3,3,4l2,1.2l0.8,0.4c2.7,1.9,4.8,2.9,11.1-0.7c6.3-3.6,14.9-18.6,14.9-25.9
			c0-7.3-1.9-8.6-5-10L933.8,504.2z"/>
		<path class="st2" d="M933.8,504.2l-0.5-0.2c-1.9-0.6-3.9-0.7-5.8-0.1c-4.2,1.3-7.3,3.8-10.2,7c-4,4.5-6.7,10-8,15.9
			c-0.8,3.3-0.6,6.8,0.4,10c0.6,1.6,1.6,3,3,4l2,1.2l0.8,0.4c2.7,1.9,4.8,2.9,11.1-0.7c6.3-3.6,14.9-18.6,14.9-25.9
			c0-7.3-1.9-8.6-5-10L933.8,504.2z"/>
		<path class="st4" d="M947,582.9l-12.8-10.2l-16.5-31.2c-1.6-1.2-2.8-3-3.2-5c-1-4.4-0.2-8.5,1.3-12.6c1.3-3.6,3.3-6.9,5.7-9.9
			c10.2-11.9,32.8-7.9,45.7-3.8c2.1,0.6,3.9,2.2,4.8,4.2l3,6.5c0.7,1.6,0.9,3.3,0.5,5l-2.5,11.4l13.8,31.4l-14.5,8.1
			c0.3,1-3.2,5.1-7.1,4c-0.6,0.8-0.2,2.7-4.6,2.5c0.2,0.8-0.9,1.6-2.8,1.6l-9.1-1.2C948.1,583.5,947.5,583.3,947,582.9"/>
		<path class="st2" d="M947,582.9l-12.8-10.2l-16.5-31.2c-1.6-1.2-2.8-3-3.2-5c-1-4.4-0.2-8.5,1.3-12.6c1.3-3.6,3.3-6.9,5.7-9.9
			c10.2-11.9,32.8-7.9,45.7-3.8c2.1,0.6,3.9,2.2,4.8,4.2l3,6.5c0.7,1.6,0.9,3.3,0.5,5l-2.5,11.4l13.8,31.4l-14.5,8.1
			c0.3,1-3.2,5.1-7.1,4c-0.6,0.8-0.2,2.7-4.6,2.5c0.2,0.8-0.9,1.6-2.8,1.6l-9.1-1.2C948.1,583.5,947.5,583.3,947,582.9z"/>
		<path class="st2" d="M972.8,576.8c-3.7,0-7.5-0.1-11-3.1c-2.9-2.6-10.9-9.9-12.5-11.7"/>
		<path class="st4" d="M956.6,556.7c1.1,1.4,7.2,7,11.2,10.4c3.6,3.1,8.4,3.8,13.5,4.4"/>
		<path class="st2" d="M956.6,556.7c1.1,1.4,7.2,7,11.2,10.4c3.6,3.1,8.4,3.8,13.5,4.4"/>
		<path class="st3" d="M984.4,569.7l-8.2-6.4l-6.3-9.7l-5.5-5.5c-2.6-2.5-4.1-6-4.2-9.6l-0.2-6.9l-11.9-1.2l-4.7,5.6
			c-1.2,1.6-3.2,2.3-5.1,1.8l-4.4-1.4c-0.7-0.2-1.1-1-0.9-1.7c0-0.1,0.1-0.2,0.1-0.3l9.2-14.6c0.6-1,1.6-1.8,2.8-2l19.7-3.1
			c0.4,0,0.9,0.1,1.2,0.5l11.9,10.5c10.4,9.1,5.4,9,15.8,11.4c3.1,0.8,4.8,1.5,9.5,3.4c7.2,14.3-3.6,24.8-14.2,28.1
			C989.1,568.6,985.3,570.1,984.4,569.7"/>
		<path class="st2" d="M984.4,569.7l-8.2-6.4l-6.3-9.7l-5.5-5.5c-2.6-2.5-4.1-6-4.2-9.6l-0.2-6.9l-11.9-1.2l-4.7,5.6
			c-1.2,1.6-3.2,2.3-5.1,1.8l-4.4-1.4c-0.7-0.2-1.1-1-0.9-1.7c0-0.1,0.1-0.2,0.1-0.3l9.2-14.6c0.6-1,1.6-1.8,2.8-2l19.7-3.1
			c0.4,0,0.9,0.1,1.2,0.5l11.9,10.5c10.4,9.1,5.4,9,15.8,11.4c3.1,0.8,4.8,1.5,9.5,3.4c7.2,14.3-3.6,24.8-14.2,28.1
			C989.1,568.6,985.3,570.1,984.4,569.7z"/>
		<path class="st1" d="M1014.2,537.9l-7.9-4.5c-2.4-1.1-5.2-1.3-7.8-0.7c-4.5,1.1-7.8,3.2-11.4,6.2c-0.6,0.5-1.4,1.2-1.9,1.8
			c-5.2,5.3-9.2,11.7-11.6,18.8c-1.1,3.3-1.8,6.8-2,10.3c-0.1,5.5,0.8,10.7,5.4,14.2l7.8,4.5L1014.2,537.9z"/>
		<path class="st2" d="M1014.2,537.9l-7.9-4.5c-2.4-1.1-5.2-1.3-7.8-0.7c-4.5,1.1-7.8,3.2-11.4,6.2c-0.6,0.5-1.4,1.2-1.9,1.8
			c-5.2,5.3-9.2,11.7-11.6,18.8c-1.1,3.3-1.8,6.8-2,10.3c-0.1,5.5,0.8,10.7,5.4,14.2l7.8,4.5L1014.2,537.9z"/>
		<path class="st3" d="M1000.3,587.6c11.5-6.6,20.7-22.7,20.7-35.9c0-13.2-9.3-18.6-20.7-12c-11.5,6.6-20.7,22.7-20.7,36
			C979.5,588.9,988.8,594.3,1000.3,587.6"/>
		<path class="st2" d="M1000.3,587.6c11.5-6.6,20.7-22.7,20.7-35.9c0-13.2-9.3-18.6-20.7-12c-11.5,6.6-20.7,22.7-20.7,36
			C979.5,588.9,988.8,594.3,1000.3,587.6z"/>
		<path class="st3" d="M939.3,576.6l-6.1-0.2c-0.9,0-1.8-0.4-2.4-1l-1-0.8c-0.8-0.7-1.2-1.7-1.2-2.7v-2.4l-0.5-0.1
			c-0.8-0.2-1.4-0.6-1.9-1.2l-1.7-2.1c-0.5-0.6-0.8-1.4-0.8-2.2l-0.1-1.7l-0.6-0.3c-0.9-0.3-1.7-0.9-2.2-1.7l-1-1.8
			c-0.7-1.1-1-2.4-0.9-3.7l0-0.8c-2.4-1.1-4-3.5-3.9-6.2v-1.8l0.2-3.9c0.2-2.2,1-2.6,2.7-2.8c0.8-0.1,1.7,0,2.4,0.4l1,0.5
			c0.8,0.3,1.4,0.9,1.9,1.6c0.5,0.7,0.8,1.5,0.9,2.3v0.6v1.9l1.2,0.5l1.2,1.1c1,0.9,1.6,2.1,1.5,3.5l-0.1,3.5
			c0.5,0.3,1.1,0.6,1.5,0.9l1.4,1c1.1,1,1.7,2.4,1.7,3.8l-0.1,4.3c1.5,0.1,2.1,0.6,3.4,1.6c0.9,0.7,1.4,1.7,1.6,2.8l0.5,3.6
			L939.3,576.6z"/>
		<path class="st2" d="M939.3,576.6l-6.1-0.2c-0.9,0-1.8-0.4-2.4-1l-1-0.8c-0.8-0.7-1.2-1.7-1.2-2.7v-2.4l-0.5-0.1
			c-0.8-0.2-1.4-0.6-1.9-1.2l-1.7-2.1c-0.5-0.6-0.8-1.4-0.8-2.2l-0.1-1.7l-0.6-0.3c-0.9-0.3-1.7-0.9-2.2-1.7l-1-1.8
			c-0.7-1.1-1-2.4-0.9-3.7l0-0.8c-2.4-1.1-4-3.5-3.9-6.2v-1.8l0.2-3.9c0.2-2.2,1-2.6,2.7-2.8c0.8-0.1,1.7,0,2.4,0.4l1,0.5
			c0.8,0.3,1.4,0.9,1.9,1.6c0.5,0.7,0.8,1.5,0.9,2.3v0.6v1.9l1.2,0.5l1.2,1.1c1,0.9,1.6,2.1,1.5,3.5l-0.1,3.5
			c0.5,0.3,1.1,0.6,1.5,0.9l1.4,1c1.1,1,1.7,2.4,1.7,3.8l-0.1,4.3c1.5,0.1,2.1,0.6,3.4,1.6c0.9,0.7,1.4,1.7,1.6,2.8l0.5,3.6
			L939.3,576.6z"/>
		<path class="st4" d="M916,541.6l2.6,2l-0.3,4.5c0,0.1-0.2,0.2-0.3,0.2c-0.1,0-0.3-0.2-0.4-0.3l-1.1-1c-0.4-0.3-0.6-0.7-0.7-1.2
			L916,541.6z"/>
		<path class="st2" d="M916,541.6l2.6,2l-0.3,4.5c0,0.1-0.2,0.2-0.3,0.2c-0.1,0-0.3-0.2-0.4-0.3l-1.1-1c-0.4-0.3-0.6-0.7-0.7-1.2
			L916,541.6z"/>
		<path class="st4" d="M919.7,548.6l3,2v3.9c0,0.2-0.2,0.3-0.3,0.3H922c-0.6,0-1.1-0.3-1.5-0.7l-0.3-0.3c-0.3-0.4-0.5-0.9-0.5-1.4
			L919.7,548.6z"/>
		<path class="st2" d="M919.7,548.6l3,2v3.9c0,0.2-0.2,0.3-0.3,0.3H922c-0.6,0-1.1-0.3-1.5-0.7l-0.3-0.3c-0.3-0.4-0.5-0.9-0.5-1.4
			L919.7,548.6z"/>
		<path class="st4" d="M924.8,557.1l3,2.3v3.6c0,0.2-0.2,0.3-0.3,0.3c0,0,0,0,0,0H927c-0.6,0-1.1-0.3-1.5-0.7l-0.3-0.3
			c-0.3-0.4-0.5-0.9-0.5-1.4L924.8,557.1z"/>
		<path class="st2" d="M924.8,557.1l3,2.3v3.6c0,0.2-0.2,0.3-0.3,0.3c0,0,0,0,0,0H927c-0.6,0-1.1-0.3-1.5-0.7l-0.3-0.3
			c-0.3-0.4-0.5-0.9-0.5-1.4L924.8,557.1z"/>
		<path class="st4" d="M929.8,566.9l3,2.2l-0.3,3.1c0,0.2-0.2,0.3-0.3,0.3h-0.4c-0.6,0-1.1-0.3-1.5-0.7l0,0c-0.3-0.6-0.5-1.3-0.5-2
			L929.8,566.9z"/>
		<path class="st2" d="M929.8,566.9l3,2.2l-0.3,3.1c0,0.2-0.2,0.3-0.3,0.3h-0.4c-0.6,0-1.1-0.3-1.5-0.7l0,0c-0.3-0.6-0.5-1.3-0.5-2
			L929.8,566.9z"/>
		<path class="st3" d="M924.2,546.4c-0.5,0-1,0.1-1.5,0.2c-1.1,0.1-2.1,0.6-2.9,1.4c-0.6,0.8-0.7,4.7-0.8,5.9
			C918.8,548.8,917.8,546,924.2,546.4"/>
		<path class="st2" d="M924.2,546.4c-0.5,0-1,0.1-1.5,0.2c-1.1,0.1-2.1,0.6-2.9,1.4c-0.6,0.8-0.7,4.7-0.8,5.9
			C918.8,548.8,917.8,546,924.2,546.4z"/>
		<path class="st4" d="M936.7,528.5l2.4,0.3c0.2,0,0.4,0.1,0.5,0.3c0.7,1.1-3.8,5.6-4.6,6.6l-2.9-0.6c0.9-2.3,2.3-4.4,3.9-6.2
			C936.2,528.6,936.4,528.5,936.7,528.5"/>
		<path class="st2" d="M936.7,528.5l2.4,0.3c0.2,0,0.4,0.1,0.5,0.3c0.7,1.1-3.8,5.6-4.6,6.6l-2.9-0.6c0.9-2.3,2.3-4.4,3.9-6.2
			C936.2,528.6,936.4,528.5,936.7,528.5z"/>
		<path class="st3" d="M928,554.9c-1.4,0.1-3.2,0.6-3.8,1.8c-0.4,0.8-0.5,4.2-0.6,5.3C923.5,558.4,922.4,554.7,928,554.9"/>
		<path class="st2" d="M928,554.9c-1.4,0.1-3.2,0.6-3.8,1.8c-0.4,0.8-0.5,4.2-0.6,5.3C923.5,558.4,922.4,554.7,928,554.9z"/>
		<path class="st3" d="M932.2,565c-3.4,0.2-3.4,1.7-3.6,4.5C928.5,566,928.2,564.9,932.2,565"/>
		<path class="st2" d="M932.2,565c-3.4,0.2-3.4,1.7-3.6,4.5C928.5,566,928.2,564.9,932.2,565z"/>
		<path class="st3" d="M947.1,527.5c0.3,0.7,1.2,2.6-0.1,4.3c0.8-0.9,2-1.4,3.2-1.2C948.4,530.1,947.8,528.6,947.1,527.5"/>
		<path class="st2" d="M947.1,527.5c0.3,0.7,1.2,2.6-0.1,4.3c0.8-0.9,2-1.4,3.2-1.2C948.4,530.1,947.8,528.6,947.1,527.5z"/>
		<path class="st3" d="M962.9,530.1c-1.2,0.6-1.6,1.1-4.8,1.3c2.5,0.2,1.7,1.1,2,2.6C960.2,531.6,961.7,531.2,962.9,530.1"/>
		<path class="st2" d="M962.9,530.1c-1.2,0.6-1.6,1.1-4.8,1.3c2.5,0.2,1.7,1.1,2,2.6C960.2,531.6,961.6,531.2,962.9,530.1z"/>
		<path class="st4" d="M945.4,566.9c2.8,3.5,5.8,6.8,9,9.9c3,2.5,6.7,3.9,10.6,4"/>
		<path class="st2" d="M945.4,566.9c2.8,3.5,5.8,6.8,9,9.9c3,2.5,6.7,3.9,10.6,4"/>
		<path class="st4" d="M941.5,572.2c1.3,1.4,5.4,5.3,7.9,7.5c2.7,2.4,7.3,3.1,11,3.5"/>
		<path class="st2" d="M941.5,572.2c1.3,1.4,5.4,5.3,7.9,7.5c2.7,2.4,7.3,3.1,11,3.5"/>
	</g>
</g>
</svg>
