<svg id="Layer_1" data-name="Layer 1" xmlns="http://www.w3.org/2000/svg" viewBox="0 0 228.42 228.42"><defs><style>.cls-1{fill:#3378c6;opacity:0.3;}.cls-2{fill:#fff;}.cls-2,.cls-4,.cls-5{stroke:#0072c8;stroke-linecap:round;stroke-linejoin:round;stroke-width:0.75px;}.cls-2,.cls-3,.cls-4,.cls-5{fill-rule:evenodd;}.cls-3{fill:none;}.cls-4{fill:#d9e8ff;}.cls-5{fill:#9aceef;}</style></defs><circle class="cls-1" cx="114.21" cy="114.21" r="114.21"/><path class="cls-2" d="M175.24,53.15A86.39,86.39,0,0,0,81.15,34.39,86.47,86.47,0,0,0,34.37,147.24,86.47,86.47,0,0,0,147.22,194a86.3,86.3,0,0,0,28-140.87Z"/><path class="cls-3" d="M114.19,29.28a84.83,84.83,0,1,0,78.5,52.46,83.59,83.59,0,0,0-18.48-27.56h0A83.84,83.84,0,0,0,146.69,35.7a85.22,85.22,0,0,0-32.5-6.42Zm0,172.72a86.75,86.75,0,0,1-33.58-6.66A87.86,87.86,0,0,1,80.61,33a88.68,88.68,0,0,1,67.18,0,87.86,87.86,0,0,1,0,162.31A86.85,86.85,0,0,1,114.19,202Z"/><path class="cls-4" d="M169.94,58.45A78.85,78.85,0,0,0,41.36,84a78.68,78.68,0,0,0,17.11,85.87A79.25,79.25,0,0,0,84.08,187a79.16,79.16,0,0,0,60.27,0,79.16,79.16,0,0,0,25.59-17.12A78.35,78.35,0,0,0,193,114.21a78.54,78.54,0,0,0-23.07-55.76Z"/><path class="cls-3" d="M114.19,36.86A76.89,76.89,0,0,0,59.5,59.48a77.34,77.34,0,0,0-16.77,84.3A75.71,75.71,0,0,0,59.5,168.89,76.92,76.92,0,0,0,84.6,185.7a78.21,78.21,0,0,0,59.21,0A77.34,77.34,0,0,0,114.19,36.86Zm0,157.61A80.32,80.32,0,0,1,83.49,40a81.22,81.22,0,0,1,61.42,0A80.29,80.29,0,0,1,171,57.43h0a79.64,79.64,0,0,1,23.5,56.78,80.21,80.21,0,0,1-80.27,80.26Z"/><path class="cls-5" d="M174.14,62.93C177,66.27,184.26,77,187.38,84.78A78.24,78.24,0,0,1,193.06,115a79.37,79.37,0,0,1-6.3,30.17A79.45,79.45,0,0,1,143.6,187.4c-3.87,1.55,7.16-11.52.34-18.72s-35.76,1.15-34.94-13.62,7.24-14.69,10.65-22.42,7.46-1.48,21.94-6.43,33.73-4.19,40-10.77-24,1.27-29.58-.13-6.71-8.06-10.71-7.85-1.72,7.44-6.21,8.79-16.46,3.5-17.19-1.6c-2.8-19.58,12.29-13.37,13.21-14.44,4-4.61-4.74-8.27.66-14.81s10.74-7.65,13.58-12.22-6.67-8-2.31-11.61S171.13,59.44,174.14,62.93Z"/><path class="cls-3" d="M126.77,129.83c-3.28,0-4.4.25-5.79,3.37a23.15,23.15,0,0,1-4.52,6.56c-2.84,3.19-5.52,6.24-6,15.38-.37,6.86,6.87,7.77,17.95,8.44,6.91.41,13.45.78,16.61,4.1,5,5.23,1.81,13,.09,17.13a1.89,1.89,0,0,0-.21.45A77.13,77.13,0,0,0,191.57,115,75.92,75.92,0,0,0,186,85.32c-3-7.61-10.16-18.14-13-21.44h0c-2.38-2.75-25.09-4.4-29.05-1.15-.94.74-1,1.15.91,3.54,1.52,1.94,3.58,4.6,1.69,7.69-1.57,2.47-3.79,4-6.13,5.72a36.93,36.93,0,0,0-7.58,6.67c-2.34,2.79-1.47,4.73-.41,7.11,1,2.19,2.18,4.86-.24,7.7-.66.78-1.69.7-3.22.53-2.29-.24-5.84-.57-8,1.65-1.9,2-2.43,5.72-1.65,11.12a1.52,1.52,0,0,0,.78,1.1c2.59,1.65,10.12.66,14.52-.66,1.37-.44,1.78-1.77,2.31-3.87s1.19-4.85,4.24-5c2.79-.09,4.35,1.85,5.92,3.78,1.4,1.73,2.88,3.54,5.23,4.11,1.85.46,7.94-.41,13.28-1.14,11.86-1.7,16.79-2.15,18,.19.55,1.07.18,2.22-1,3.5-4.07,4.24-12.38,5.56-22,7.12-6.34,1-12.84,2.06-18.64,4a39.21,39.21,0,0,1-14.49,2.22ZM143.07,189a1.65,1.65,0,0,1-1.23-.49c-1-1-.46-2.34.54-4.77,1.56-3.78,4.19-10.12.53-14-2.4-2.5-8.64-2.87-14.7-3.21-10-.57-21.23-1.23-20.68-11.52s3.69-13.69,6.74-17.15a20.14,20.14,0,0,0,4-5.75c2.26-5.15,5.26-5.19,9.25-5.11a38.34,38.34,0,0,0,13.58-2.1c6-2.06,12.64-3.13,19.05-4.16,8.72-1.4,17-2.71,20.37-6.24a1.17,1.17,0,0,0,.08-.13c-2.34-.42-9.63.62-14.57,1.31-6.45.91-12,1.73-14.38,1.11-3.3-.82-5.24-3.2-6.8-5.1-1.4-1.72-2.38-2.84-3.5-2.71-.74,0-1,.53-1.56,2.8-.54,2.1-1.24,5-4.28,5.92-3.3,1-12.71,3-16.95.36a4.49,4.49,0,0,1-2.13-3.16c-.91-6.42-.13-10.83,2.45-13.54,3.09-3.25,7.86-2.79,10.38-2.54a9.19,9.19,0,0,0,1,.07c.83-1.19.41-2.26-.44-4.19-1.16-2.5-2.68-6,.81-10.17a36.94,36.94,0,0,1,8.11-7.19c2.31-1.6,4.07-2.88,5.31-4.9.78-1.19.12-2.31-1.49-4.31-1.44-1.86-3.78-4.91-.44-7.62,4.72-3.87,29.45-2.72,33.11,1.52h0c2.93,3.42,10.33,14.35,13.5,22.22a80.46,80.46,0,0,1-44.56,104.54A3,3,0,0,1,143.07,189Z"/><path class="cls-5" d="M108.93,35.49A78.82,78.82,0,0,0,54.82,166.08a2.17,2.17,0,0,0,1.65.78,2,2,0,0,0,1.63-.65C63.37,160.12,78.56,156,79.58,148c.79-5.88-9-8.22-11.61-13.62-2.91-6.09-.56-14.24-4.38-19.83-4-5.81-14.7-5-18.77-10.74-2.22-3.13-.58-7.81.61-11.47.5-1.61,2.43-2.56,4.08-3,10.74-2.71,18-1.43,32.22-7.57,6.87-3,3.07-6.91,6.13-8.14s7.73,7.85,12.38,3.82S108.5,54,110.15,49.53s7.82-.12,9.47.82-2.88,9.67-.78,11.22,10.77-3.89,11.89-5c6.54-6.46,4.93-12.42,1.23-15.39s-14.9,1-21.35-5.06A2.17,2.17,0,0,0,108.93,35.49Z"/><path class="cls-3" d="M108.93,35.49h0Zm9.91,16.1h0ZM109.09,37H109A77.32,77.32,0,0,0,55.93,165.14a.77.77,0,0,0,.57.25c.41,0,.5-.13.54-.18,2.18-2.5,5.8-4.6,9.59-6.82,5.39-3.17,11-6.42,11.52-10.57.33-2.38-1.73-4.08-5.19-6.54-2.47-1.83-5-3.67-6.3-6.3-1.44-3-1.69-6.5-1.93-9.8-.25-3.66-.49-7.16-2.35-9.82s-5.09-3.67-8.68-4.86c-3.82-1.28-7.77-2.59-10.07-5.84-2.55-3.63-.9-8.72.29-12.43l.12-.37c.82-2.54,3.82-3.57,5.1-3.91A93.29,93.29,0,0,1,59.88,86a71.86,71.86,0,0,0,21.27-5.6C84.52,79,84.73,77.5,84.93,76c.18-1.24.37-2.87,2.34-3.7s4,.74,5.9,2.26c3,2.39,4.52,3.21,6.12,1.8,3-2.59,6-14,7.69-20.85.74-2.88,1.37-5.19,1.81-6.49a4.27,4.27,0,0,1,2.64-2.68c2.84-1,6.46,1.24,8.39,2.43l.54.32c1.69,1,1.07,3.43.25,6.5-.41,1.49-1.15,4.28-.83,4.94,1.33.42,8.68-3.75,9.92-5,2.75-2.71,4.15-5.55,4-8.18a6.87,6.87,0,0,0-2.68-5c-1.1-.86-3.78-.95-6.57-1-4.74-.08-10.62-.2-14.86-4.16a.65.65,0,0,0-.53-.2ZM56.54,168.3h-.12A3.61,3.61,0,0,1,53.7,167,79.44,79.44,0,0,1,40,145a80.53,80.53,0,0,1,0-61.55,80.27,80.27,0,0,1,68.78-49.37,3.71,3.71,0,0,1,2.8,1c3.43,3.17,8.47,3.29,12.93,3.38,3.49.07,6.46.13,8.34,1.65a9.6,9.6,0,0,1,3.75,7.1c.16,2.44-.57,6.22-4.85,10.42-.53.58-10.42,7.73-13.83,5.14-1.85-1.45-1-4.56-.16-7.89a18.56,18.56,0,0,0,.74-3.46l-.25-.12c-1.2-.75-4.36-2.72-5.89-2.19-.24,0-.57.25-.82.94-.45,1.16-1,3.5-1.72,6.22-2.6,10.08-5.19,19.38-8.64,22.34-3.71,3.17-7.37.2-9.84-1.77-.83-.66-2.46-2-3-1.81s-.41.21-.57,1.35C87.57,78.2,87.2,81,82.3,83.1c-9.37,4.07-15.8,4.94-22,5.81a85.93,85.93,0,0,0-10.4,1.88c-1.58.37-2.77,1.15-3,2l-.12.37c-1.07,3.3-2.42,7.41-.7,9.84s5.1,3.58,8.64,4.77c3.88,1.32,7.91,2.63,10.16,6s2.56,7.37,2.84,11.27c.21,3.16.41,6.18,1.66,8.77.94,1.92,3.19,3.57,5.38,5.13,3.26,2.35,6.91,5,6.38,9.31-.74,5.55-7,9.21-13,12.71-3.58,2.1-7,4.07-8.89,6.25A3.51,3.51,0,0,1,56.54,168.3Z"/><path class="cls-2" d="M53.33,98.29,35.44,90.08l20-11.56,3.91,2.25c1.93,1.1,2.72,2.58,2.2,4.1L56.53,99.76Z"/><path class="cls-3" d="M54.12,96.61l1.32.57L59.8,84.3c.11-.27.32-1-1.32-1.9l-3-1.73-16,9.2,14.62,6.74Zm2.41,5a1.92,1.92,0,0,1-.77-.15L52.54,100h0l-17.83-8.2a2,2,0,0,1-1.11-1.63,1.76,1.76,0,0,1,.95-1.68l20-11.58a1.94,1.94,0,0,1,1.84,0l3.93,2.27c2.74,1.57,3.85,3.93,3,6.36l-5.06,14.83a1.78,1.78,0,0,1-1,1.11A1.83,1.83,0,0,1,56.53,101.6Z"/><path class="cls-2" d="M149.76,126.75l-15.46-8.94c-3.84-1.27-8.63,7.15-5.63,9.79l15.46,8.94c-1.73-1.52-.68-4.7.27-6.36a8.65,8.65,0,0,1,2.63-2.91A3.2,3.2,0,0,1,149.76,126.75Z"/><path class="cls-3" d="M133.3,119.44a5.84,5.84,0,0,0-2.79,2.73c-1,1.84-1.16,3.54-.64,4l11.58,6.7a13.5,13.5,0,0,1,1.32-3.58,10.5,10.5,0,0,1,2.47-3l-11.9-6.84Zm10.83,18.94a1.55,1.55,0,0,1-.95-.27l-15.47-9c-2.36-2-2.4-5.36-.4-8.83s5-5.15,7.56-4.32l15.84,9.11a1.94,1.94,0,0,1,.79,2.43,2,2,0,0,1-2.31,1c-.16-.05-.36-.14-1.22.38a7,7,0,0,0-2,2.2c-.89,1.64-1.16,3.54-.63,4a1.86,1.86,0,0,1-1.21,3.27Z"/><path class="cls-5" d="M146.92,136.32a9.13,9.13,0,0,0,4.11-7.16c0-2.61-1.84-3.68-4.11-2.36a9.08,9.08,0,0,0-4.15,7.15C142.77,136.59,144.6,137.65,146.92,136.32Z"/><path class="cls-3" d="M148.76,128.07a2.35,2.35,0,0,0-.95.32A7.39,7.39,0,0,0,144.6,134c0,.7.21,1,.32,1.07a1.61,1.61,0,0,0,1.05-.27,7.4,7.4,0,0,0,3.22-5.59c0-.68-.22-1-.32-1a.15.15,0,0,0-.11-.05Zm-1.84,8.25Zm-1.9,2.43a4,4,0,0,1-2-.53,4.69,4.69,0,0,1-2.18-4.27,11,11,0,0,1,5.11-8.78,5,5,0,0,1,4.79-.32,4.75,4.75,0,0,1,2.16,4.31,11.13,11.13,0,0,1-5.11,8.8h0A5.7,5.7,0,0,1,145,138.75Z"/><path class="cls-2" d="M132.82,140.58q13.91-22.23,27.88-44.45a3.24,3.24,0,0,0,.38-3,5.42,5.42,0,0,0-2.58-2.63l-9.85-5.67-45,38.91Z"/><path class="cls-3" d="M106.83,123.44l25.36,14.62,26.94-42.93a1.54,1.54,0,0,0,.21-1.36,4,4,0,0,0-1.79-1.64l-8.68-5-42,36.36Zm26,19a1.72,1.72,0,0,1-.95-.25l-29.14-16.84a1.78,1.78,0,0,1-.94-1.42,1.81,1.81,0,0,1,.62-1.58l45-38.93a1.79,1.79,0,0,1,2.16-.2l9.85,5.67a7.27,7.27,0,0,1,3.36,3.58,5.39,5.39,0,0,1-.52,4.68l-27.88,44.45A2.07,2.07,0,0,1,132.82,142.42Z"/><path class="cls-2" d="M159.45,184.35c-4.47-1.2-9.26-2.48-13.58-4-1.74-.75-3.15-1.43-4.78-2.32l-30.63-17.68L78.11,141.65l-3.51-2.54c-8.18-5.93-16.28-11.84-24.43-17.73L24.65,98.13c-4.72-1.52-2.25-13.14,6-10.31L83,111.91,117.41,130l13.1,7.58,8.42,5,18.78,11.15c4.53,2.69,6.58,6.48,8.21,8.28,8.42,9.26,7.79,10.56,7.79,18-.54,4-7.22,5.31-10.27,5.2A25.78,25.78,0,0,1,159.45,184.35Z"/><path class="cls-3" d="M159.92,182.57l.31.05a23.1,23.1,0,0,0,3.42.73c2.68.06,7.9-1.16,8.21-3.61v-1.23c0-5.78,0-7.15-7.32-15.25-.42-.48-.89-1-1.41-1.74a21.61,21.61,0,0,0-6.42-6.21l-40.2-23.67-34.46-18.1-52.24-24a4,4,0,0,0-4,.58,5.29,5.29,0,0,0-1.52,4.83,1.77,1.77,0,0,0,.93,1.43,2,2,0,0,1,.75.37L51.44,120l27.72,20.1L142,176.36a44,44,0,0,0,4.53,2.2c4,1.48,8.52,2.7,12.9,3.86l.47.15Zm3.94,4.46h-.53a28.67,28.67,0,0,1-4-.78l-.32-.11-.52-.09c-4.42-1.22-9-2.43-13.26-4a45.33,45.33,0,0,1-5-2.43l-63-36.41-28.08-20.3L23.66,99.7a5.35,5.35,0,0,1-3.11-4,9.23,9.23,0,0,1,2.74-8.41A7.79,7.79,0,0,1,31.19,86l52.55,24.2,34.56,18.16L139.93,141l18.73,11.1a25.07,25.07,0,0,1,7.46,7.15,13,13,0,0,0,1.21,1.47c7.94,8.84,8.26,11,8.26,17.78l0,1.48C174.86,185.46,167.6,187,163.86,187Z"/><path class="cls-5" d="M159.49,168.46c-5.94,3.42-10.52.27-16.09-2.53l2.36.17c7.42.58,17.21-5.47,15.42-9.47C164.44,161.3,166.55,164.42,159.49,168.46Z"/><path class="cls-3" d="M151,167.53a8.69,8.69,0,0,0,7.58-.64c2.26-1.32,3.47-2.52,3.74-3.58a3.56,3.56,0,0,0-.43-2.05c-2.16,2.84-6.52,5.22-10.89,6.27Zm8.52.93h0Zm-5.21,3.38c-3.57,0-6.84-1.68-10-3.38l-1.68-.82a1.91,1.91,0,0,1-.95-2.23,1.7,1.7,0,0,1,1.88-1.31l2.43.16c4.84.42,11.15-2.63,13.1-5.43.27-.36.64-1,.43-1.41a1.87,1.87,0,0,1,3.25-1.84c2,2.84,3.9,5.52,3.22,8.52-.48,2.2-2.22,4.11-5.54,6h0A11.84,11.84,0,0,1,154.28,171.84Z"/><path class="cls-2" d="M88.53,162.42,73,153.47c-3.79-1.31-8.63,7.16-5.63,9.74l15.46,8.95c-1.25-1.07-1-3.22-.53-4.63a11,11,0,0,1,1.75-3.07C85.06,163.26,86.84,161.83,88.53,162.42Z"/><path class="cls-3" d="M72.05,155.06c-.4,0-1.79,1-2.83,2.78s-1.16,3.53-.64,4l11.58,6.63a10.88,10.88,0,0,1,.43-1.53,11.47,11.47,0,0,1,2-3.67A10.29,10.29,0,0,1,84,161.94l-11.9-6.88Zm10.79,19a1.86,1.86,0,0,1-.89-.25l-15.53-9c-2.36-2-2.4-5.41-.4-8.83s4.94-5.2,7.56-4.32l15.84,9.1a1.89,1.89,0,0,1,.79,2.38,1.87,1.87,0,0,1-2.31,1c-.48-.16-1.59.46-2.43,1.52a8.72,8.72,0,0,0-1.36,2.42c-.37,1.15-.42,2.31,0,2.67a1.86,1.86,0,0,1,.25,2.48A1.81,1.81,0,0,1,82.84,174Z"/><path class="cls-2" d="M110.57,153.42l-77,16.1a14.08,14.08,0,0,1-9.73-1.26L14,162.58l67.38-26Z"/><path class="cls-3" d="M18.3,162.89l6.47,3.73a12.05,12.05,0,0,0,8.42,1.06l72.21-15.09L81.22,138.65,18.3,162.89Zm12,8.84a15,15,0,0,1-7.41-1.84L13,164.16a1.66,1.66,0,0,1-.89-1.74,1.73,1.73,0,0,1,1.15-1.57l67.45-26a1.94,1.94,0,0,1,1.57.11l29.15,16.84a2,2,0,0,1,1,1.94,2,2,0,0,1-1.48,1.54l-77,16A18.08,18.08,0,0,1,30.28,171.73Z"/><path class="cls-2" d="M43.54,105.82,19.3,109.44a11.92,11.92,0,0,1-7.16-1.25l-3.89-2.27,20-11.58Z"/><path class="cls-3" d="M11.94,105.92l1.14.63a10.15,10.15,0,0,0,6,1l19.78-2.93L28.08,96.61l-16.14,9.31Zm5.68,5.46a13,13,0,0,1-6.42-1.56l-3.91-2.33a1.81,1.81,0,0,1-.93-1.57,1.86,1.86,0,0,1,.93-1.63l20-11.52a1.75,1.75,0,0,1,2.06.1l15.3,11.48a1.81,1.81,0,0,1,.73,1.93,1.84,1.84,0,0,1-1.57,1.38l-24.26,3.63C18.87,111.34,18.25,111.38,17.62,111.38Z"/><polygon class="cls-2" points="25.29 88.14 19.77 58.88 28.24 63.78 48.24 99.81 25.29 88.14"/><path class="cls-3" d="M26.93,86.93,43.65,95.4,26.88,65.15l-4.53-2.64,4.58,24.42Zm21.31,14.72a2.38,2.38,0,0,1-.86-.16L24.45,89.82a1.83,1.83,0,0,1-1-1.31L17.94,59.2a1.78,1.78,0,0,1,.72-1.84,1.86,1.86,0,0,1,2-.11l8.52,4.9a1.83,1.83,0,0,1,.7.73l20,36a1.78,1.78,0,0,1-1.61,2.73Z"/><path class="cls-5" d="M86.22,172.41a9.18,9.18,0,0,0,4.09-7.15c0-2.63-1.84-3.68-4.09-2.37a9.07,9.07,0,0,0-4.17,7.16C82.05,172.68,83.9,173.72,86.22,172.41Z"/><path class="cls-3" d="M88.06,164.16a2.74,2.74,0,0,0-.91.3,7.32,7.32,0,0,0-3.2,5.59c0,.68.16,1,.27,1s.46.07,1-.25h0a7.25,7.25,0,0,0,3.2-5.58,1.75,1.75,0,0,0-.25-1s-.11-.05-.16-.05Zm-3.7,10.68a4,4,0,0,1-2-.53,4.7,4.7,0,0,1-2.1-4.26,11.09,11.09,0,0,1,5.06-8.79,4.79,4.79,0,0,1,4.79-.27,4.65,4.65,0,0,1,2.15,4.27A11,11,0,0,1,87.15,174h0A5.55,5.55,0,0,1,84.36,174.84Z"/><path class="cls-5" d="M130.14,160.1a1.87,1.87,0,0,1-1.83-1.88v-1.86a1.86,1.86,0,0,1,3.72,0v1.86A1.88,1.88,0,0,1,130.14,160.1Z"/><path class="cls-5" d="M122.45,155.7a1.9,1.9,0,0,1-1.84-1.91V152a1.87,1.87,0,1,1,3.74,0v1.84A1.9,1.9,0,0,1,122.45,155.7Z"/><path class="cls-5" d="M114.84,151.21a1.85,1.85,0,0,1-1.9-1.84v-1.84a1.87,1.87,0,1,1,3.74,0v1.84A1.85,1.85,0,0,1,114.84,151.21Z"/><path class="cls-5" d="M107.15,146.8a1.83,1.83,0,0,1-1.84-1.84v-1.84a1.87,1.87,0,1,1,3.73,0V145A1.84,1.84,0,0,1,107.15,146.8Z"/><path class="cls-5" d="M99.52,142.37a1.86,1.86,0,0,1-1.9-1.84v-1.84a1.89,1.89,0,0,1,1.9-1.88,1.87,1.87,0,0,1,1.84,1.88v1.84A1.83,1.83,0,0,1,99.52,142.37Z"/><path class="cls-5" d="M91.85,138A1.87,1.87,0,0,1,90,136.11v-1.84a1.86,1.86,0,1,1,3.72,0v1.84A1.88,1.88,0,0,1,91.85,138Z"/><path class="cls-5" d="M84.16,133.54a1.87,1.87,0,0,1-1.85-1.84v-1.84a1.88,1.88,0,1,1,3.75,0v1.84A1.87,1.87,0,0,1,84.16,133.54Z"/><path class="cls-5" d="M76.53,129.12a1.87,1.87,0,0,1-1.89-1.85v-1.83a1.87,1.87,0,1,1,3.73,0v1.83A1.86,1.86,0,0,1,76.53,129.12Z"/></svg>