<svg id="Layer_1" data-name="Layer 1" xmlns="http://www.w3.org/2000/svg" viewBox="0 0 228.42 228.42"><defs><style>.cls-1{fill:#3378c6;opacity:0.3;}.cls-2{fill:#9aceef;}.cls-2,.cls-3,.cls-4{stroke:#0072c8;stroke-linecap:round;stroke-linejoin:round;stroke-width:0.75px;}.cls-2,.cls-3,.cls-4,.cls-5{fill-rule:evenodd;}.cls-3{fill:#d9e8ff;}.cls-4{fill:#fff;}.cls-5{fill:none;}</style></defs><circle class="cls-1" cx="114.21" cy="114.21" r="114.21"/><path class="cls-2" d="M201.73,164.19l4.64-3.15a6.91,6.91,0,0,0,.93-3.75l0-74.82a17.29,17.29,0,0,0-7.83-13.55L94,8.12c-1.78-1-3.63-1.54-5.52-.54l-4.63,3.15c1.9-1,3.76-.43,5.52.54l105.41,60.8a17.32,17.32,0,0,1,7.83,13.55l0,74.82A7,7,0,0,1,201.73,164.19Z"/><path class="cls-3" d="M194.82,72.07,89.41,11.27c-4.3-2.48-7.81-.45-7.81,4.51l0,74.84c0,4.95,3.53,11,7.83,13.54L194.86,165c4.31,2.49,7.83.45,7.82-4.52l0-74.82C202.65,80.66,199.13,74.55,194.82,72.07Z"/><path class="cls-4" d="M194.36,77.69l-27.77-16L89.89,17.42c-2-1.14-3.58-.22-3.58,2.08l0,72.85a7.92,7.92,0,0,0,3.57,6.2l86.56,49.92,17.92,10.34c2,1.13,3.57.22,3.57-2.07l0-72.85A7.93,7.93,0,0,0,194.36,77.69Z"/><path class="cls-3" d="M9.24,149.06v5.71a6.2,6.2,0,0,0,3.12,3.62l105.83,61.12a16,16,0,0,0,7.32,1.85,16.21,16.21,0,0,0,8.38-1.86l65-37.58a6.26,6.26,0,0,0,3.13-3.63v-5.72a6.21,6.21,0,0,1-3.13,3.62l-65,37.58a16.22,16.22,0,0,1-8.38,1.87,15.85,15.85,0,0,1-7.32-1.86L12.36,152.67A6.21,6.21,0,0,1,9.24,149.06Z"/><path class="cls-2" d="M198.87,167.1,93,106c-4.33-2.49-11.39-2.49-15.7,0l-65,37.59c-4.31,2.51-4.31,6.58,0,9.08l105.83,61.11c4.32,2.49,11.38,2.49,15.7,0l65-37.58C203.19,173.69,203.19,169.6,198.87,167.1Z"/><polygon class="cls-3" points="85.1 188.47 56.15 171.75 78.32 158.94 107.26 175.66 85.1 188.47"/><path class="cls-3" d="M185.62,169.23,89.41,113.66a9.27,9.27,0,0,0-8.38,0l-32.79,19c-2.29,1.34-2.29,3.51,0,4.85q48.09,27.77,96.19,55.57a9.27,9.27,0,0,0,8.38,0l32.79-19C187.93,172.74,187.92,170.56,185.62,169.23Z"/><path class="cls-4" d="M143.39,163.91l-4.73-2.73a3.83,3.83,0,0,0-3.46,0l-4.73,2.73a1.06,1.06,0,0,0,0,2l4.74,2.73a3.81,3.81,0,0,0,3.45,0l4.73-2.73A1.06,1.06,0,0,0,143.39,163.91Z"/><path class="cls-4" d="M162,174.64l4.71,2.73a1.06,1.06,0,0,1,0,2L162,182.09a3.77,3.77,0,0,1-3.46,0l-4.73-2.72c-1-.56-1-1.45,0-2l4.72-2.73A3.88,3.88,0,0,1,162,174.64Z"/><path class="cls-4" d="M150.32,181.36l4.73,2.73c.95.57.95,1.45,0,2l-4.73,2.73a3.81,3.81,0,0,1-3.45,0l-4.73-2.72a1,1,0,0,1,0-2l4.73-2.75A3.83,3.83,0,0,1,150.32,181.36Z"/><path class="cls-4" d="M158.49,168.64l-4.72-2.74a1,1,0,0,1,0-2l4.72-2.73a3.78,3.78,0,0,1,3.45,0l4.73,2.73a1.05,1.05,0,0,1,0,2L162,168.64A3.83,3.83,0,0,1,158.49,168.64Z"/><path class="cls-4" d="M146.85,161.91l-4.73-2.73a1.06,1.06,0,0,1,0-2l4.74-2.74a3.84,3.84,0,0,1,3.45,0l4.73,2.74a1,1,0,0,1,0,2l-4.73,2.74A3.79,3.79,0,0,1,146.85,161.91Z"/><path class="cls-4" d="M165.41,172.64l4.73,2.73a3.83,3.83,0,0,0,3.46,0l4.73-2.75a1,1,0,0,0,0-2l-4.74-2.74a3.81,3.81,0,0,0-3.45,0l-4.73,2.74A1.05,1.05,0,0,0,165.41,172.64Z"/><path class="cls-4" d="M155,170.64l-4.74-2.73a3.81,3.81,0,0,0-3.45,0l-4.73,2.73a1.06,1.06,0,0,0,0,2l4.74,2.73a3.79,3.79,0,0,0,3.44,0l4.74-2.73A1.06,1.06,0,0,0,155,170.64Z"/><path class="cls-4" d="M120.09,150.46l-4.73-2.73a3.83,3.83,0,0,0-3.46,0l-4.73,2.74a1.05,1.05,0,0,0,0,2l4.73,2.73a3.83,3.83,0,0,0,3.46,0l4.73-2.73A1.06,1.06,0,0,0,120.09,150.46Z"/><path class="cls-4" d="M108.44,157.2l-4.72-2.74a3.79,3.79,0,0,0-3.47,0l-4.71,2.74a1,1,0,0,0,0,2l4.73,2.74a3.83,3.83,0,0,0,3.46,0l4.72-2.75A1,1,0,0,0,108.44,157.2Z"/><path class="cls-4" d="M135.2,155.19l-4.74-2.75a1,1,0,0,1,0-2l4.73-2.73a3.83,3.83,0,0,1,3.46,0l4.74,2.71a1.06,1.06,0,0,1,0,2l-4.74,2.75A3.81,3.81,0,0,1,135.2,155.19Z"/><path class="cls-4" d="M123.54,148.46l-4.73-2.73a1.06,1.06,0,0,1,0-2l4.73-2.73a3.83,3.83,0,0,1,3.46,0l4.72,2.73c.95.54.95,1.43,0,2L127,148.46A3.83,3.83,0,0,1,123.54,148.46Z"/><path class="cls-4" d="M131.74,157.18,127,154.46a3.77,3.77,0,0,0-3.46,0l-4.73,2.72a1.06,1.06,0,0,0,0,2l4.73,2.73a3.83,3.83,0,0,0,3.46,0l4.73-2.73A1.06,1.06,0,0,0,131.74,157.18Z"/><path class="cls-4" d="M143.4,177.38l-28-16.2a3.83,3.83,0,0,0-3.46,0l-4.73,2.74a1.06,1.06,0,0,0,0,2l28,16.19a3.9,3.9,0,0,0,3.46,0l4.73-2.74C144.35,178.81,144.35,177.92,143.4,177.38Z"/><path class="cls-4" d="M81.37,128.07l-4.73-2.73a3.9,3.9,0,0,0-3.46,0l-4.73,2.74a1.06,1.06,0,0,0,0,2l4.72,2.73a3.83,3.83,0,0,0,3.46,0l4.73-2.73A1.07,1.07,0,0,0,81.37,128.07Z"/><path class="cls-4" d="M69.72,134.81,65,132.08a3.81,3.81,0,0,0-3.45,0l-4.72,2.74c-1,.56-1,1.44,0,2l4.74,2.74a3.82,3.82,0,0,0,3.44,0l4.73-2.73A1.06,1.06,0,0,0,69.72,134.81Z"/><path class="cls-4" d="M84.83,126.09l-4.74-2.75a1.06,1.06,0,0,1,0-2l4.74-2.73a3.79,3.79,0,0,1,3.44,0L93,121.34a1.06,1.06,0,0,1,0,2l-4.73,2.75A4,4,0,0,1,84.83,126.09Z"/><path class="cls-4" d="M93,134.81l-4.73-2.73a3.83,3.83,0,0,0-3.46,0l-4.73,2.73a1.06,1.06,0,0,0,0,2l4.73,2.73a3.83,3.83,0,0,0,3.46,0L93,136.81A1.06,1.06,0,0,0,93,134.81Z"/><path class="cls-4" d="M81.37,141.54l-4.73-2.73a3.83,3.83,0,0,0-3.46,0l-4.72,2.74a1,1,0,0,0,0,2l4.73,2.74a3.83,3.83,0,0,0,3.46,0l4.73-2.74A1.06,1.06,0,0,0,81.37,141.54Z"/><path class="cls-4" d="M108.12,139.54l-4.74-2.73a1.06,1.06,0,0,1,0-2l4.74-2.74a3.81,3.81,0,0,1,3.45,0l4.73,2.73a1.06,1.06,0,0,1,0,2l-4.73,2.74A3.81,3.81,0,0,1,108.12,139.54Z"/><path class="cls-4" d="M96.48,132.81l-4.75-2.73a1.07,1.07,0,0,1,0-2l4.73-2.73a3.87,3.87,0,0,1,3.46,0l4.73,2.73a1.06,1.06,0,0,1,0,2l-4.73,2.74A3.85,3.85,0,0,1,96.48,132.81Z"/><path class="cls-4" d="M104.65,141.54l-4.73-2.73a3.79,3.79,0,0,0-3.44,0l-4.75,2.73a1.06,1.06,0,0,0,0,2l4.73,2.73a3.83,3.83,0,0,0,3.46,0l4.72-2.73A1.06,1.06,0,0,0,104.65,141.54Z"/><path class="cls-4" d="M93,148.27l-4.73-2.73a3.77,3.77,0,0,0-3.46,0l-4.73,2.74a1,1,0,0,0,0,2L84.83,153a3.86,3.86,0,0,0,3.47,0L93,150.26A1.05,1.05,0,0,0,93,148.27Z"/><path class="cls-2" d="M125.42,221.36v-5.72h.09a16.24,16.24,0,0,0,8.38-1.87l65-37.58a6.24,6.24,0,0,0,3.13-3.62v5.72a6.29,6.29,0,0,1-3.13,3.63l-65,37.58a16.24,16.24,0,0,1-8.38,1.86Z"/><path class="cls-2" d="M39.74,140.4l3.35-1.86,0-2.91L40.36,134a3.81,3.81,0,0,1-1.93-3.41v-1.51a1.79,1.79,0,0,1,.86-1.43l79.44-44.3a1.84,1.84,0,0,1,1.68,0l55.19,33c5.72,3.33,13.1,15.87,6,20.16l-79.44,44.3-.35.08c-2.88,1.18-5.87-1.21-8.27-2.65q-26.42-15.71-52.85-31.52a3.89,3.89,0,0,1-1.91-3.42l.07-1.43a1.57,1.57,0,0,1,.86-1.44Z"/><path class="cls-2" d="M94.57,172.21c-17.75-10.61-35.45-21.14-53.18-31.76a1.58,1.58,0,0,0-1.65,0l5.86-3.26,50.79,30.32a5.58,5.58,0,0,1,3,4.6,1.57,1.57,0,0,1-1.3,1.58C97,174,95.68,172.87,94.57,172.21Z"/><path class="cls-2" d="M83.88,153.28,93.52,159c3,1.76,4.9,2.61,7.15,5.31a17.78,17.78,0,0,1,4.24,11c-.09,3.79-2.24,6.16-5.21,5.9l-.87-.16A13.29,13.29,0,0,1,95,179.13l-.81-.51-7-4.13h0L40.69,146.71a3.89,3.89,0,0,1-1.91-3.42l.07-1.43a1.68,1.68,0,0,1,2.54-1.41l53.85,32.13c1,.61,2,1.45,3.24,1a1.77,1.77,0,0,0,1-1.5,5.58,5.58,0,0,0-3-4.6L40.36,134a3.81,3.81,0,0,1-1.93-3.41v-1.51A1.68,1.68,0,0,1,41,127.64Z"/><path class="cls-4" d="M43.13,135.63l0,2.91,56.32,33.64,0-.12a5.51,5.51,0,0,0-3-4.6Z"/><path class="cls-4" d="M40,121.34l3.36-1.87,0-2.91-2.8-1.64a3.86,3.86,0,0,1-1.91-3.43l.06-1.41a1.59,1.59,0,0,1,.86-1.45l79.44-44.29a1.54,1.54,0,0,1,1.66,0l55.16,32.89c5.79,3.4,13.08,15.9,6,20.16l-79.44,44.3-.3.17a4.17,4.17,0,0,1-2.35.24c-1.77-.19-3.23-1.3-4.75-2.16L41,127.64a3.69,3.69,0,0,1-1.86-3.34v-1.5a1.59,1.59,0,0,1,.86-1.44Z"/><path class="cls-3" d="M95.66,153.65q-27-16.17-54-32.26a1.53,1.53,0,0,0-1.63,0l5.86-3.27,50.79,30.32a5.66,5.66,0,0,1,3.06,4.6,1.58,1.58,0,0,1-1.32,1.59C97.37,154.84,96.56,154.11,95.66,153.65Z"/><path class="cls-4" d="M84.17,134.22l10.11,6c2.34,1.47,4.29,2.42,6.17,4.46a18,18,0,0,1,4.75,11.57c0,3.54-1.91,5.87-4.55,5.95-2.1.1-3.62-1.08-5.27-2.08l-4.66-2.75C74.16,147.49,57.54,137.52,41,127.64a3.69,3.69,0,0,1-1.86-3.34v-1.5a1.59,1.59,0,0,1,.86-1.44,1.56,1.56,0,0,1,1.66,0c17.78,10.6,35.48,21.13,53.23,31.74,1.19.73,2.62,2,3.88,1.36a1.71,1.71,0,0,0,1-1.5,5.66,5.66,0,0,0-3.06-4.6l-56-33.47a3.86,3.86,0,0,1-1.91-3.43l.06-1.41a1.67,1.67,0,0,1,2.54-1.42Z"/><path class="cls-4" d="M43.42,116.56l0,2.91,56.31,33.65,0-.13c0-2.05-1.48-3.66-3.06-4.6Z"/><path class="cls-3" d="M40.51,102.27l3.36-1.88,0-2.9-2.77-1.66a3.88,3.88,0,0,1-1.91-3.42L39.28,91a1.61,1.61,0,0,1,.87-1.44l79.42-44.29a1.44,1.44,0,0,1,1.68,0l55.16,32.91c5.77,3.41,13.05,15.9,6,20.17l-79.45,44.3-.29.16a5.52,5.52,0,0,1-3.21.09,21.2,21.2,0,0,1-4.13-2.19q-26.89-16.09-53.8-32.16a3.64,3.64,0,0,1-1.89-3.33v-1.51a1.6,1.6,0,0,1,.87-1.44Z"/><path class="cls-3" d="M96.05,134.64,69.67,118.91h0L41.93,102.33a1.52,1.52,0,0,0-1.65,0L46.17,99,97,129.33a5.57,5.57,0,0,1,3,4.61,1.47,1.47,0,0,1-1.31,1.59C97.64,135.78,96.9,135.13,96.05,134.64Z"/><path class="cls-3" d="M84.44,115.16l10.91,6.52a19,19,0,0,1,5.24,3.81,18,18,0,0,1,4.89,11.69c0,3.76-2.09,6.08-5,6-2-.05-3.84-1.49-5.55-2.46l-7.12-4.25h0L41.31,108.66a3.87,3.87,0,0,1-1.91-3.42l0-1.51a1.65,1.65,0,0,1,2.51-1.4q26.63,15.93,53.18,31.76c1.14.65,2.5,1.81,3.77,1.43a1.64,1.64,0,0,0,1.11-1.58,5.57,5.57,0,0,0-3-4.61l-56-33.48a3.65,3.65,0,0,1-1.86-3.34V91a1.68,1.68,0,0,1,2.54-1.42Z"/><path class="cls-4" d="M43.67,97.51v2.89L100,134.05v-.11c.11-2-1.45-3.68-3-4.61Z"/><path class="cls-3" d="M40.82,89.17l78.75-43.91a1.44,1.44,0,0,1,1.68,0l55.16,32.91L96.83,122.56Z"/><path class="cls-5" d="M171.66,99.42a1.09,1.09,0,0,1-.39,1.51L113.69,133a1.08,1.08,0,0,1-1.49-.45,1.16,1.16,0,0,1,.4-1.51L170.17,99A1.14,1.14,0,0,1,171.66,99.42Z"/><path class="cls-5" d="M138.85,133.42a1.16,1.16,0,0,1-.42,1.52l-24.93,13.9a1.16,1.16,0,0,1-1.52-.44,1.1,1.1,0,0,1,.43-1.52L137.34,133A1.09,1.09,0,0,1,138.85,133.42Z"/><path class="cls-5" d="M147,132.94a1.1,1.1,0,0,1-.4,1.51L113.39,153a1.07,1.07,0,0,1-1.49-.45,1.05,1.05,0,0,1,.45-1.43l33.19-18.51A1.08,1.08,0,0,1,147,132.94Z"/><path class="cls-5" d="M162.83,142.16a1.16,1.16,0,0,1-.43,1.52l-49.31,27.5a1.12,1.12,0,0,1-1.48-.46,1.07,1.07,0,0,1,.39-1.5l49.31-27.49A1.1,1.1,0,0,1,162.83,142.16Z"/></svg>