<svg id="Layer_1" data-name="Layer 1" xmlns="http://www.w3.org/2000/svg" viewBox="0 0 228.42 228.42"><defs><style>.cls-1{fill:#3378c6;opacity:0.3;}.cls-2{fill:#fff;}.cls-2,.cls-4,.cls-5{stroke:#0072c8;stroke-linecap:round;stroke-linejoin:round;stroke-width:0.75px;}.cls-2,.cls-3,.cls-4,.cls-5{fill-rule:evenodd;}.cls-3{fill:none;}.cls-4{fill:#d9e8ff;}.cls-5{fill:#9aceef;}</style></defs><circle class="cls-1" cx="114.21" cy="114.21" r="114.21"/><path class="cls-2" d="M174.47,37.1a73.56,73.56,0,0,0-80.12-16,73.66,73.66,0,0,0-39.83,96.09,73.66,73.66,0,0,0,96.09,39.83,73.5,73.5,0,0,0,45.41-68,73.3,73.3,0,0,0-21.55-52Z"/><path class="cls-3" d="M122.48,16.78a72.34,72.34,0,0,0-66.8,99.94,72.33,72.33,0,0,0,94.48,39.16,72.37,72.37,0,0,0,39.16-94.44A71.11,71.11,0,0,0,173.59,38h0a71.3,71.3,0,0,0-23.43-15.73,72.4,72.4,0,0,0-27.68-5.47Zm0,147.06a73.83,73.83,0,0,1-28.58-5.67A74.73,74.73,0,0,1,69.62,36.22,73.9,73.9,0,0,1,93.9,20a75.52,75.52,0,0,1,57.2,0,74.82,74.82,0,0,1,0,138.2A74,74,0,0,1,122.48,163.84Z"/><path class="cls-4" d="M170,41.61A67.15,67.15,0,0,0,60.47,63.41a67,67,0,0,0,14.58,73.11,67.45,67.45,0,0,0,21.79,14.57,67.35,67.35,0,0,0,51.32,0A67.39,67.39,0,0,0,170,136.52a67.11,67.11,0,0,0,0-94.91Z"/><path class="cls-3" d="M122.48,23.23a65.83,65.83,0,0,0-60.84,91,64.42,64.42,0,0,0,14.28,21.37A65.19,65.19,0,0,0,97.3,150a66.6,66.6,0,0,0,50.41,0A65.85,65.85,0,0,0,122.48,23.23Zm0,134.2A68.38,68.38,0,0,1,96.35,25.89a68.25,68.25,0,0,1,74.48,14.85h0a68.78,68.78,0,0,1,14.85,22.18,68.36,68.36,0,0,1-63.2,94.51Z"/><path class="cls-5" d="M173.53,45.43c2.45,2.84,8.61,12,11.27,18.6a66.65,66.65,0,0,1,4.84,25.75,67.54,67.54,0,0,1-5.37,25.68,67.63,67.63,0,0,1-36.74,36c-3.3,1.32,6.09-9.81.28-15.94s-30.44,1-29.74-11.6,6.16-12.5,9.07-19.09,6.34-1.26,18.68-5.47,28.72-3.57,34-9.18-20.42,1.09-25.18-.11-5.71-6.86-9.12-6.68-1.46,6.34-5.28,7.49-14,3-14.64-1.36c-2.39-16.68,10.46-11.39,11.25-12.3,3.39-3.92-4-7,.55-12.61S146.59,58,149,54.16s-5.68-6.84-2-9.89S171,42.46,173.53,45.43Z"/><path class="cls-3" d="M133.2,102.39c-2.8,0-3.75.21-4.93,2.87a19.39,19.39,0,0,1-3.86,5.58c-2.41,2.72-4.69,5.32-5.12,13.1-.31,5.84,5.85,6.61,15.28,7.19,5.89.34,11.46.66,14.15,3.49,4.24,4.45,1.54,11,.08,14.58a1.68,1.68,0,0,0-.18.38,66,66,0,0,0,35-85.09C181.06,58,175,49.05,172.58,46.24h0c-2-2.35-21.36-3.75-24.73-1-.81.64-.84,1,.77,3,1.3,1.65,3,3.92,1.43,6.55a18.35,18.35,0,0,1-5.21,4.87,31,31,0,0,0-6.46,5.68c-2,2.37-1.25,4-.35,6,.85,1.87,1.86,4.14-.2,6.56-.56.66-1.44.59-2.74.45-2-.21-5-.48-6.79,1.41-1.62,1.68-2.07,4.86-1.4,9.46a1.27,1.27,0,0,0,.66.94c2.21,1.4,8.62.56,12.37-.56,1.16-.38,1.51-1.51,2-3.3s1-4.13,3.61-4.26c2.38-.08,3.71,1.57,5,3.21,1.19,1.48,2.46,3,4.45,3.5,1.58.39,6.76-.35,11.31-1,10.1-1.45,14.3-1.83,15.35.17.46.91.14,1.89-.87,3-3.47,3.61-10.55,4.73-18.71,6.06-5.4.88-10.93,1.75-15.87,3.43a33.5,33.5,0,0,1-12.34,1.89Zm13.87,50.34a1.4,1.4,0,0,1-1-.42c-.85-.87-.39-2,.45-4.06,1.33-3.22,3.57-8.61.46-11.91-2-2.13-7.36-2.45-12.51-2.74-8.48-.48-18.08-1-17.62-9.8s3.15-11.66,5.75-14.61a17.25,17.25,0,0,0,3.43-4.9c1.92-4.38,4.48-4.41,7.87-4.35a32.79,32.79,0,0,0,11.57-1.78,97.48,97.48,0,0,1,16.22-3.54c7.42-1.19,14.43-2.31,17.34-5.32,0,0,0-.08.07-.11-2-.36-8.21.53-12.41,1.12-5.49.77-10.22,1.47-12.25.94-2.81-.7-4.45-2.72-5.78-4.34-1.2-1.47-2-2.42-3-2.31-.63,0-.88.45-1.33,2.39-.46,1.78-1.06,4.26-3.64,5-2.81.88-10.83,2.6-14.44.32a3.88,3.88,0,0,1-1.82-2.7c-.77-5.47-.1-9.21,2.1-11.53,2.62-2.76,6.69-2.37,8.83-2.16.28,0,.63.06.84.06.71-1,.35-1.92-.38-3.56-1-2.14-2.28-5.09.69-8.66a31.68,31.68,0,0,1,6.91-6.13,14.54,14.54,0,0,0,4.52-4.17c.67-1,.1-2-1.27-3.67-1.22-1.59-3.22-4.18-.38-6.49,4-3.29,25.08-2.31,28.2,1.3h0C177,47.54,183.26,56.85,186,63.54a68.5,68.5,0,0,1-37.94,89A2.48,2.48,0,0,1,147.07,152.73Z"/><path class="cls-5" d="M118,22.06a67.13,67.13,0,0,0-46.08,111.2,1.89,1.89,0,0,0,1.41.66,1.69,1.69,0,0,0,1.39-.56c4.49-5.18,17.42-8.72,18.29-15.52.67-5-7.68-7-9.89-11.6-2.47-5.18-.48-12.12-3.73-16.88-3.37-4.94-12.51-4.23-16-9.14-1.89-2.66-.49-6.66.52-9.77.42-1.37,2.07-2.18,3.47-2.52,9.15-2.32,15.32-1.23,27.44-6.46,5.85-2.55,2.61-5.88,5.22-6.92s6.58,6.68,10.54,3.25,7-20,8.44-23.78,6.65-.11,8.06.7-2.45,8.23-.67,9.55S135.62,41,136.57,40c5.56-5.51,4.2-10.59,1-13.11s-12.68.85-18.17-4.31A1.84,1.84,0,0,0,118,22.06Z"/><path class="cls-3" d="M118,22.06h0Zm8.43,13.71h0Zm-8.3-12.44h-.07A65.85,65.85,0,0,0,72.88,132.46a.67.67,0,0,0,.49.21c.35,0,.42-.11.46-.15,1.85-2.14,4.94-3.92,8.16-5.81,4.59-2.7,9.35-5.47,9.81-9,.28-2-1.47-3.47-4.42-5.57-2.1-1.56-4.27-3.13-5.36-5.37-1.23-2.59-1.44-5.53-1.65-8.34-.21-3.11-.41-6.09-2-8.36S74,86.94,71,85.93c-3.26-1.09-6.63-2.21-8.58-5-2.18-3.08-.77-7.42.24-10.58l.11-.31c.69-2.17,3.25-3,4.34-3.33a80,80,0,0,1,9.14-1.64,61.13,61.13,0,0,0,18.11-4.77c2.87-1.23,3.05-2.49,3.22-3.78a3.39,3.39,0,0,1,2-3.15c1.72-.7,3.4.63,5,1.93,2.55,2,3.85,2.72,5.21,1.53,2.56-2.21,5.08-11.94,6.55-17.75.63-2.46,1.16-4.43,1.54-5.54a3.69,3.69,0,0,1,2.25-2.28c2.42-.84,5.5,1.06,7.14,2.07l.46.28c1.44.87.91,2.91.21,5.53-.35,1.27-1,3.64-.7,4.21,1.12.35,7.39-3.19,8.44-4.24,2.34-2.31,3.54-4.73,3.43-7a5.82,5.82,0,0,0-2.28-4.28c-.94-.72-3.22-.8-5.59-.84-4-.06-9-.17-12.65-3.54a.59.59,0,0,0-.46-.17ZM73.4,135.15h-.1A3.06,3.06,0,0,1,71,134.07a67,67,0,0,1-11.66-18.79,68.54,68.54,0,0,1,0-52.4,68.3,68.3,0,0,1,58.56-42,3.18,3.18,0,0,1,2.38.84c2.92,2.7,7.22,2.8,11,2.88,3,.06,5.5.1,7.1,1.4a8.18,8.18,0,0,1,3.2,6c.13,2.07-.49,5.29-4.14,8.87-.45.49-8.86,6.58-11.77,4.37-1.57-1.22-.88-3.88-.14-6.71a15.27,15.27,0,0,0,.64-2.95l-.22-.1c-1-.64-3.71-2.32-5-1.86-.21,0-.49.21-.7.8-.39,1-.87,3-1.47,5.29-2.21,8.58-4.42,16.51-7.35,19-3.16,2.69-6.28.17-8.38-1.51-.7-.56-2.1-1.71-2.52-1.54s-.35.18-.49,1.15c-.21,1.58-.53,4-4.7,5.75a63.4,63.4,0,0,1-18.77,4.95,74.69,74.69,0,0,0-8.86,1.6c-1.34.32-2.36,1-2.57,1.68l-.1.32c-.91,2.8-2.06,6.3-.59,8.37s4.34,3,7.35,4.06c3.3,1.12,6.73,2.24,8.65,5.08s2.18,6.28,2.42,9.6c.18,2.69.35,5.26,1.41,7.47.8,1.63,2.72,3,4.58,4.37,2.78,2,5.89,4.28,5.44,7.92-.64,4.73-5.93,7.85-11,10.82-3,1.79-6,3.47-7.57,5.32A3,3,0,0,1,73.4,135.15Z"/><path class="cls-4" d="M99,38c-1.28-.56-3.12-.08-4.34.53l-.4.22L40.39,69.89c-4.65,2.76-7.88,9.21-7.93,14.55l0,124c0,2.1.43,4.06,2.07,5.5l9.83,5.67c-1.65-1.43-2-3.4-2.07-5.49l0-124c.05-5.33,3.29-11.77,7.94-14.53l53.86-31.13a5.73,5.73,0,0,1,4.75-.76Z"/><path class="cls-4" d="M50.28,219.49l53.86-31.13c4.38-2.53,7.94-9.06,7.94-14.54l0-124c0-5.47-3.57-7.88-7.94-5.35L50.23,75.58c-4.37,2.52-7.94,9-7.94,14.53l0,124C42.34,219.61,45.91,222,50.28,219.49Z"/><path class="cls-2" d="M112.08,172.32,112,49.8c0-5.47-3.57-7.88-7.94-5.35L50.23,75.58c-4.37,2.51-7.94,9-7.94,14.53l0,122.5Z"/><path class="cls-5" d="M34.34,76.94a17.81,17.81,0,0,0-1.88,7.5l0,124c0,2.09.43,4.07,2.07,5.5l9.83,5.67c-1.65-1.43-2-3.4-2.07-5.49l0-124a17.62,17.62,0,0,1,1.88-7.49Z"/><path class="cls-2" d="M37.57,131.63a1.31,1.31,0,0,1-1.32-1.32V117.86a1.32,1.32,0,0,1,2.64,0v12.45A1.31,1.31,0,0,1,37.57,131.63Z"/><path class="cls-2" d="M37.57,111a1.32,1.32,0,0,1-1.32-1.31V97.2a1.32,1.32,0,1,1,2.64,0v12.47A1.32,1.32,0,0,1,37.57,111Z"/><path class="cls-5" d="M73.55,201.71a1.32,1.32,0,0,1-.66-2.46L83.69,193A1.31,1.31,0,0,1,85,195.3l-10.79,6.23A1.45,1.45,0,0,1,73.55,201.71Z"/><path class="cls-4" d="M101.74,51.58h0a3.31,3.31,0,0,0-1.42,2.6h0c0,1,.64,1.4,1.42,1h0a3.31,3.31,0,0,0,1.41-2.6h0C103.15,51.57,102.52,51.13,101.74,51.58Z"/><path class="cls-4" d="M59.48,173.88a1.32,1.32,0,0,1-.66-2.46l10.59-6.09a1.34,1.34,0,0,1,1.8.48,1.32,1.32,0,0,1-.49,1.8L60.14,173.7A1.34,1.34,0,0,1,59.48,173.88Z"/><path class="cls-4" d="M59.48,189.32a1.33,1.33,0,0,1-1.14-.67,1.32,1.32,0,0,1,.48-1.79l10.59-6.09a1.33,1.33,0,0,1,1.8.5,1.31,1.31,0,0,1-.49,1.79l-10.58,6.08A1.34,1.34,0,0,1,59.48,189.32Z"/><path class="cls-4" d="M88.22,157.36a1.35,1.35,0,0,1-1.15-.66,1.32,1.32,0,0,1,.49-1.79l10.59-6.08a1.31,1.31,0,1,1,1.31,2.27l-10.58,6.09A1.44,1.44,0,0,1,88.22,157.36Z"/><path class="cls-4" d="M88.22,172.8a1.32,1.32,0,0,1-.66-2.46l10.59-6.08a1.31,1.31,0,1,1,1.31,2.28l-10.58,6.08A1.24,1.24,0,0,1,88.22,172.8Z"/><path class="cls-4" d="M65.21,111.93h0Zm.54,3a2.16,2.16,0,0,0,1-.29L76.54,109A1.57,1.57,0,0,0,75,106.3l-8,4.6v-4.41l9-5.17A2.83,2.83,0,0,0,77.33,99V92.2a1.9,1.9,0,0,0-1-1.72,1.93,1.93,0,0,0-2,0l-9.76,5.63a1.58,1.58,0,0,0,1.59,2.73l8-4.6v4.44l-9,5.17a2.82,2.82,0,0,0-1.36,2.35V113a1.93,1.93,0,0,0,1,1.73A1.88,1.88,0,0,0,65.75,115Z"/><path class="cls-4" d="M91,84.59ZM89.39,98ZM82,89.76v12.47l7.17-4.12V85.63L82,89.76Zm-1,14.89h0Zm-.25,1.64a1.93,1.93,0,0,1-.94-.24,2,2,0,0,1-1-1.73V89.51a2.81,2.81,0,0,1,1.35-2.34l9.19-5.31a2,2,0,0,1,2,0,2,2,0,0,1,.95,1.74V98.36A2.81,2.81,0,0,1,91,100.7L81.79,106h0A2.08,2.08,0,0,1,80.74,106.29Z"/><path class="cls-3" d="M51.29,86.9a1.31,1.31,0,0,1-.65-2.45l3.12-1.78A1.31,1.31,0,1,1,55.06,85L52,86.74A1.4,1.4,0,0,1,51.29,86.9Z"/><path class="cls-4" d="M57.52,83.32a1.3,1.3,0,0,1-.65-2.44L60,79.09a1.31,1.31,0,0,1,1.3,2.28l-3.11,1.79A1.25,1.25,0,0,1,57.52,83.32Z"/><path class="cls-4" d="M63.74,79.76a1.31,1.31,0,0,1-1.13-.66,1.32,1.32,0,0,1,.47-1.8l3.12-1.78A1.31,1.31,0,0,1,68,76a1.32,1.32,0,0,1-.49,1.79L64.4,79.58A1.31,1.31,0,0,1,63.74,79.76Z"/><path class="cls-4" d="M59.48,158.43a1.3,1.3,0,0,1-1.14-.66,1.33,1.33,0,0,1,.48-1.8l10.59-6.08a1.31,1.31,0,1,1,1.31,2.28l-10.58,6.08A1.24,1.24,0,0,1,59.48,158.43Z"/><path class="cls-4" d="M88.22,141.92a1.35,1.35,0,0,1-1.15-.66,1.32,1.32,0,0,1,.49-1.79l10.59-6.08a1.31,1.31,0,1,1,1.31,2.27l-10.58,6.08A1.34,1.34,0,0,1,88.22,141.92Z"/><path class="cls-4" d="M74.4,123.28a0,0,0,0,0,0,0ZM66,139.59a1.6,1.6,0,0,1-1.37-.78,1.58,1.58,0,0,1,.58-2.15l9-5.18v-4.43l-7.38,4.26a1.6,1.6,0,0,1-2.17-.58,1.58,1.58,0,0,1,.58-2.15l9-5.18V119l-8,4.6a1.58,1.58,0,0,1-1.59-2.74l9.76-5.64a2,2,0,0,1,2,0,1.94,1.94,0,0,1,1,1.73v6.78a2.57,2.57,0,0,1-.09.67,2.11,2.11,0,0,1,.09.62v6.79A2.83,2.83,0,0,1,76,134.09l-9.18,5.3A1.56,1.56,0,0,1,66,139.59Z"/><path class="cls-4" d="M91,109.93h0Zm-10.24,21.7a1.84,1.84,0,0,1-.94-.25,2,2,0,0,1-1-1.73v-6.73a2.84,2.84,0,0,1,1.35-2.35l9-5.17V111l-8,4.58a1.56,1.56,0,0,1-2.16-.57,1.59,1.59,0,0,1,.58-2.16l9.76-5.62a1.9,1.9,0,0,1,2.92,1.69v6.78A2.85,2.85,0,0,1,91,118l-9,5.17v4.39L90,123a1.57,1.57,0,0,1,1.57,2.73l-9.74,5.63A2.15,2.15,0,0,1,80.74,131.63Z"/></svg>