<svg id="Layer_1" data-name="Layer 1" xmlns="http://www.w3.org/2000/svg" viewBox="0 0 228.42 228.82"><defs><style>.cls-1{fill:#3378c6;opacity:0.3;}.cls-2{fill:#d9e8ff;}.cls-2,.cls-3,.cls-4{stroke:#0072c8;stroke-linecap:round;stroke-linejoin:round;stroke-width:0.75px;fill-rule:evenodd;}.cls-3{fill:#9aceef;}.cls-4{fill:#fff;}</style></defs><circle class="cls-1" cx="114.21" cy="114.41" r="114.21"/><path class="cls-2" d="M77.86,5.81l-.06,5.82L74,13.78l-4.2-2.49a5.78,5.78,0,0,0-5.89,0l-2,1.11a2.47,2.47,0,0,0-1.3,2.17L59.22,165.66a2.49,2.49,0,0,0,1.26,2.2l78.28,46.23c3.57,2.11,6.8,4.34,10.68,5.73a28.6,28.6,0,0,0,18.3-.41c3.93-1.7,7.5-4.06,7.71-8.76l1.42-151.12-.1-.52a6.54,6.54,0,0,0-1.1-3c-1.89-2.89-7.94-5.8-10.58-7.36L87,2.55a5.69,5.69,0,0,0-5.9-.06l-2,1.1a2.45,2.45,0,0,0-1.28,2.16Z"/><polygon class="cls-3" points="81.6 28.68 71.85 22.94 70.39 178.47 80.14 184.24 81.6 28.68"/><path class="cls-3" d="M152.29,41.23l-1.68,178.93a29.49,29.49,0,0,0,15.84-.29c4.37-1.55,8.76-4.05,9-9.22l1.42-151.12-.1-.52c-.5-4.76-6.05-7-9.66-9.18C162.17,46.92,157.3,44,152.29,41.23Z"/><path class="cls-2" d="M162.9,57.48,121.19,32.86h0L79.1,8a2.64,2.64,0,0,1-.29-.21,1.6,1.6,0,0,1-.24-.22,1.64,1.64,0,0,1-.21-.24h0a3.1,3.1,0,0,1-.18-.26h0a1.38,1.38,0,0,1-.14-.3h0c0-.1-.07-.19-.1-.31a1.13,1.13,0,0,1,0-.32,1,1,0,0,1,0-.3l-.1,10.2,77.11,45.52c2.43,1.43,5.69,2.2,8.34.71,2.19-1.25,1.2-3.9,0-4.57s-.27-.15-.4-.21Z"/><path class="cls-2" d="M127,55.22,143.52,65c3.31,2,5.08,3.24,8.9,4.22,6.29,1.63,13.77,1,19.13-2,5.13-2.91,6.67-7.65,3.91-11.46-1.85-2.55-7-5-9.48-6.52L87,2.57a5.8,5.8,0,0,0-5.9,0l-2,1.11a2.46,2.46,0,0,0-1.28,2.18A2.48,2.48,0,0,0,79.1,8q37.77,22.26,75.54,44.58l8.19,4.86A2.92,2.92,0,0,1,164.36,61a2.45,2.45,0,0,1-1.15,1.26c-2.65,1.49-5.91.72-8.34-.71L69.78,11.34a5.79,5.79,0,0,0-5.88-.06l-2,1.1a2.54,2.54,0,0,0,0,4.4Z"/><path class="cls-4" d="M74,13.83l3.81-2.16,85.6,50.49-.19.12c-2.62,1.55-5.91.72-8.34-.71Z"/><polygon class="cls-3" points="100.23 6.89 109.97 12.66 81.6 28.68 71.85 22.94 100.23 6.89"/><path class="cls-2" d="M50.52,155.59c.15-13.68,14.12-28.94,22.88-24.15l5.26,3.07c-9.1-4.78-22.68,10.86-22.83,24.15L56,201.55a5.44,5.44,0,0,0,2.36,3.71c-2.07-1.21-5.71-2.88-6.79-4.52a7.61,7.61,0,0,1-1-4.15Z"/><path class="cls-3" d="M78.66,184.4l-5.31-3.07a1.65,1.65,0,0,1-.69-1.5V146.71c-2.46,0-4.58,1.67-6.2,3.33l5,2.85a2.05,2.05,0,0,1,.83,1.92v17.12l0,18.2a9.09,9.09,0,0,1-4,7l-3.79,2.16a2.86,2.86,0,0,1-2.85.28l-5.32-3.07a2.87,2.87,0,0,0,2.86-.26l3.49-2a5.29,5.29,0,0,0,1.08-.7,9.83,9.83,0,0,0,2.76-3.93,7.8,7.8,0,0,0,.49-2.78v-35a6.25,6.25,0,0,0-.15-.95,2.19,2.19,0,0,0-.44-.73c-.49.49-.94,1.08-1.38,1.62a16.6,16.6,0,0,0-3.34,9.24v31.35a1.6,1.6,0,0,0,.69,1.5l-5.32-3.05c-.59-.49-.59-.78-.69-1.52V157.88a16.22,16.22,0,0,1,2.27-7.52c2-3.29,6.34-8.3,10.77-6.23L72.66,146v-3.23c0-2.42-.54-4.26-2.56-5.65l5.32,3.06c2,1.29,2.5,3.41,2.55,5.66v37A1.68,1.68,0,0,0,78.66,184.4Z"/><path class="cls-4" d="M82.6,180.2a5.13,5.13,0,0,1-2.31,4C79,185,78,184.37,78,182.88v-37c0-2.76-1-4.72-2.55-5.65a5.61,5.61,0,0,0-5,0,9.39,9.39,0,0,0-1.19.59,21.12,21.12,0,0,0-6.93,7,18,18,0,0,0-2.56,8.62v41A2.8,2.8,0,0,0,60.9,200a2.86,2.86,0,0,0,2.85-.28l1.48-.87,3-1.76a8.71,8.71,0,0,0,2.8-3,8.23,8.23,0,0,0,1.23-4l0-18.2V154.81a2.11,2.11,0,0,0-.83-1.92,2.15,2.15,0,0,0-2.12.2,5.93,5.93,0,0,0-2.06,2.22,5.67,5.67,0,0,0-.89,2.94v31.36a5.17,5.17,0,0,1-2.36,4c-1.28.75-2.31.15-2.31-1.34V160.93a17.09,17.09,0,0,1,7.62-13.21c2.12-1.2,4-1.32,5.37-.52s2.26,2.59,2.26,4.93v35.34a19.34,19.34,0,0,1-8.66,15l-3.79,2.18c-2.41,1.39-4.57,1.5-6.15.61s-2.51-2.86-2.51-5.62v-41a27,27,0,0,1,3.94-13.21,27.28,27.28,0,0,1,9.44-10c3.69-2.12,7-2.32,9.45-.92s3.94,4.4,3.94,8.68Z"/><path class="cls-3" d="M56.18,154.89l-5.32-3.07a19.8,19.8,0,0,0-.34,3.77v41c.1,2.4.44,4.16,2.56,5.6l5.26,3.07c-2.07-1.44-2.41-3.2-2.51-5.62v-41A19,19,0,0,1,56.18,154.89Z"/><path class="cls-4" d="M130.93,196.69,113,226.49a2.81,2.81,0,0,1-4.84,0L90.7,196.42l24.7-7.9Z"/><path class="cls-4" d="M132.29,113.44l-.53,80.3c-.16,1.64-.25,3.68-1.65,4.41l-10.46,5.4-7.29-1.67c-.51.22-8.94,3-9.57,2.66l-11.1-6.39a9,9,0,0,1-1.78-4.75l.53-80.3a8.07,8.07,0,0,0,1,3.43,13.53,13.53,0,0,0,5.24,5,27.59,27.59,0,0,0,7.06,2.69,37.08,37.08,0,0,0,9,.85A30.69,30.69,0,0,0,125.5,122C128.92,120.07,131.9,117.56,132.29,113.44Z"/><path class="cls-3" d="M132.29,113.44l-.53,80.3c-.16,1.64-.25,3.68-1.65,4.41l-10.46,5.4.53-79.58a29,29,0,0,0,3.75-1.27,17.69,17.69,0,0,0,6-4.1A8.46,8.46,0,0,0,132.29,113.44Z"/><path class="cls-4" d="M132.42,109.38l0,4a7.67,7.67,0,0,1-1.08,3.49,14.82,14.82,0,0,1-6.5,5.45,30.36,30.36,0,0,1-9.06,2.49,38.39,38.39,0,0,1-9.09-.08,34,34,0,0,1-6.8-1.7,20.22,20.22,0,0,1-6.47-3.88A9,9,0,0,1,90.33,113l0-4c.21,2.81,1.45,4.65,3.61,6.61a21.47,21.47,0,0,0,6.84,3.72,34.68,34.68,0,0,0,8.92,1.65,38.48,38.48,0,0,0,9-.67,24.91,24.91,0,0,0,9.06-3.72,13.89,13.89,0,0,0,3.22-3.18A7.9,7.9,0,0,0,132.42,109.38Z"/><path class="cls-3" d="M90.43,99.3A8.49,8.49,0,0,1,93.29,93c5.84-5.77,18.72-7.67,28.76-4.26,6.9,2.36,10.66,6.61,10.43,10.91l-.06,9.74c-.41,4.43-3.88,7.09-7.59,8.94a30.68,30.68,0,0,1-11,2.67,35.53,35.53,0,0,1-11-1l-1-.27c-3.83-1.24-7.18-2.85-9.71-6.08A8.34,8.34,0,0,1,90.36,109Z"/><path class="cls-3" d="M101.63,105.7c-9.35-3.18-12.5-10.11-7.06-15.48s17.42-7.14,26.76-4,12.51,10.12,7.06,15.49S111,108.89,101.63,105.7Z"/><path class="cls-2" d="M119.65,203.55l-7.28-1.67c-.52.22-9,3-9.58,2.66l.54-80.45a35.18,35.18,0,0,0,16.85-.12Z"/><polygon class="cls-2" points="130.93 196.69 113.04 226.49 110.61 227.86 119.65 203.55 130.93 196.69"/><path class="cls-4" d="M113,226.49a2.81,2.81,0,0,1-4.84,0L91.69,198.15l11.1,6.39Z"/><path class="cls-3" d="M118.57,217.28,113,226.49a2.81,2.81,0,0,1-4.84,0l-5.24-9,4.09,1.48,5-4.39Z"/></svg>