<?xml version="1.0" encoding="utf-8"?>
<!-- Generator: Adobe Illustrator 25.0.0, SVG Export Plug-In . SVG Version: 6.00 Build 0)  -->
<svg version="1.1" id="Layer_1" xmlns="http://www.w3.org/2000/svg" xmlns:xlink="http://www.w3.org/1999/xlink" x="0px" y="0px"
	 viewBox="0 0 1920 1080" style="enable-background:new 0 0 1920 1080;" xml:space="preserve">
<style type="text/css">
	.st0{opacity:0.3;fill:#3B77BB;enable-background:new    ;}
	.st1{fill-rule:evenodd;clip-rule:evenodd;fill:#9ACDEE;}
	.st2{fill:none;stroke:#2372B8;stroke-width:0.75;stroke-linecap:round;stroke-linejoin:round;}
	.st3{fill-rule:evenodd;clip-rule:evenodd;fill:#D9E7F5;}
	.st4{fill-rule:evenodd;clip-rule:evenodd;fill:#FFFFFF;}
	.st5{fill-rule:evenodd;clip-rule:evenodd;fill:#2372B8;}
</style>
<g id="Layer_2_1_">
	<g id="Layer_1-2">
		<circle class="st0" cx="960" cy="556.2" r="76.2"/>
		<polygon class="st1" points="965.2,635.1 908.2,602.2 908.2,597.8 965.2,630.7 		"/>
		<polygon class="st2" points="965.2,635.1 908.2,602.2 908.2,597.8 965.2,630.7 		"/>
		<polygon class="st3" points="965.2,630.7 908.2,597.8 960.5,567 1018.1,600.2 		"/>
		<polygon class="st2" points="965.2,630.7 908.2,597.8 960.5,567 1018.1,600.2 		"/>
		<polygon class="st3" points="965.2,630.7 1001.4,609.8 1018.1,600.2 1018.1,604.6 965.2,635.1 		"/>
		<polygon class="st2" points="965.2,630.7 1001.4,609.8 1018.1,600.2 1018.1,604.6 965.2,635.1 		"/>
		<polygon class="st3" points="956.6,532.4 922.8,512.8 922.8,506 956.7,525.6 		"/>
		<polygon class="st2" points="956.6,532.4 922.8,512.8 922.8,506 956.7,525.6 		"/>
		<polygon class="st4" points="956.6,532.4 956.7,525.6 989.4,506.7 989.4,513.5 		"/>
		<polygon class="st2" points="956.6,532.4 956.7,525.6 989.4,506.7 989.4,513.5 		"/>
		<polygon class="st4" points="955.6,488.5 987.1,506.7 984.1,508.4 955.6,491.9 		"/>
		<polygon class="st2" points="955.6,488.5 987.1,506.7 984.1,508.4 955.6,491.9 		"/>
		<polygon class="st4" points="928.1,507.8 925.1,506.1 955.6,488.5 955.6,491.9 		"/>
		<polygon class="st2" points="928.1,507.8 925.1,506.1 955.6,488.5 955.6,491.9 		"/>
		<polygon class="st4" points="956.6,524.8 927.1,507.8 955.6,491.4 985.1,508.4 		"/>
		<polygon class="st2" points="956.6,524.8 927.1,507.8 955.6,491.4 985.1,508.4 		"/>
		<polygon class="st4" points="956.7,525.6 922.8,506 955.5,487.2 989.4,506.7 		"/>
		<polygon class="st2" points="956.7,525.6 922.8,506 955.5,487.2 989.4,506.7 		"/>
		<polygon class="st3" points="956.4,522.1 935.4,509.9 935.4,488.2 956.5,500.4 		"/>
		<polygon class="st2" points="956.4,522.1 935.4,509.9 935.4,488.2 956.5,500.4 		"/>
		<polygon class="st4" points="956.5,500.4 935.4,488.2 955.5,476.3 976.8,488.6 		"/>
		<polygon class="st2" points="956.5,500.4 935.4,488.2 955.5,476.3 976.8,488.6 		"/>
		<polygon class="st4" points="956.5,500.4 976.8,488.6 976.8,510.3 956.4,522.1 		"/>
		<polygon class="st2" points="956.5,500.4 976.8,488.6 976.8,510.3 956.4,522.1 		"/>
		<polygon class="st1" points="956.3,495 944.6,488.3 955.8,481.7 967.6,488.5 		"/>
		<polygon class="st2" points="956.3,495 944.6,488.3 955.8,481.7 967.6,488.5 		"/>
		<polygon class="st3" points="956.3,495 944.6,488.3 944.6,467.2 956.3,474 		"/>
		<polygon class="st2" points="956.3,495 944.6,488.3 944.6,467.2 956.3,474 		"/>
		<polygon class="st4" points="956.3,474 944.6,467.2 955.8,460.6 967.6,467.5 		"/>
		<polygon class="st2" points="956.3,474 944.6,467.2 955.8,460.6 967.6,467.5 		"/>
		<polygon class="st4" points="956.3,474 967.6,467.5 967.6,488.5 956.3,495 		"/>
		<polygon class="st2" points="956.3,474 967.6,467.5 967.6,488.5 956.3,495 		"/>
		<path class="st1" d="M956.1,469c-0.6,0-1.2-0.5-1.2-1.2c0,0,0,0,0,0v-21c0-0.6,0.5-1.2,1.2-1.2s1.2,0.5,1.2,1.2c0,0,0,0,0,0v21
			C957.3,468.5,956.8,469,956.1,469L956.1,469"/>
		<path class="st2" d="M956.1,469c-0.6,0-1.2-0.5-1.2-1.2c0,0,0,0,0,0v-21c0-0.6,0.5-1.2,1.2-1.2s1.2,0.5,1.2,1.2c0,0,0,0,0,0v21
			C957.3,468.5,956.8,469,956.1,469z"/>
		<path class="st3" d="M956.1,447.8c0.8,0,1.4-0.6,1.4-1.4s-0.6-1.4-1.4-1.4c-0.8,0-1.4,0.6-1.4,1.4
			C954.7,447.1,955.3,447.7,956.1,447.8C956.1,447.8,956.1,447.8,956.1,447.8"/>
		<path class="st2" d="M956.1,447.8c0.8,0,1.4-0.6,1.4-1.4s-0.6-1.4-1.4-1.4c-0.8,0-1.4,0.6-1.4,1.4
			C954.7,447.1,955.3,447.7,956.1,447.8C956.1,447.8,956.1,447.8,956.1,447.8z"/>
		<polygon class="st3" points="956.7,543 924,524.1 923.9,520.3 956.6,539.2 		"/>
		<polygon class="st2" points="956.7,543 924,524.1 923.9,520.3 956.6,539.2 		"/>
		<polygon class="st1" points="956.6,539.2 923.9,520.3 924,513.5 956.7,532.4 		"/>
		<polygon class="st2" points="956.6,539.2 923.9,520.3 924,513.5 956.7,532.4 		"/>
		<polygon class="st3" points="956.6,539.2 956.7,532.4 988.3,514.2 988.2,521 		"/>
		<polygon class="st2" points="956.6,539.2 956.7,532.4 988.3,514.2 988.2,521 		"/>
		<polygon class="st1" points="956.6,549.8 923.9,530.9 924,524.1 956.7,543 		"/>
		<polygon class="st2" points="956.6,549.8 923.9,530.9 924,524.1 956.7,543 		"/>
		<polygon class="st3" points="956.6,549.8 956.7,543 988.3,524.8 988.2,531.6 		"/>
		<polygon class="st2" points="956.6,549.8 956.7,543 988.3,524.8 988.2,531.6 		"/>
		<polygon class="st1" points="956.6,560.5 923.9,541.6 924,534.8 956.7,553.7 		"/>
		<polygon class="st2" points="956.6,560.5 923.9,541.6 924,534.8 956.7,553.7 		"/>
		<polygon class="st3" points="956.6,560.5 956.7,553.7 988.3,535.5 988.2,542.3 		"/>
		<polygon class="st2" points="956.6,560.5 956.7,553.7 988.3,535.5 988.2,542.3 		"/>
		<polygon class="st1" points="956.6,571.1 923.9,552.2 924,545.4 956.7,564.3 		"/>
		<polygon class="st2" points="956.6,571.1 923.9,552.2 924,545.4 956.7,564.3 		"/>
		<polygon class="st3" points="956.6,571.1 956.7,564.3 988.3,546.1 988.2,552.9 		"/>
		<polygon class="st2" points="956.6,571.1 956.7,564.3 988.3,546.1 988.2,552.9 		"/>
		<polygon class="st1" points="956.6,581.8 923.9,562.9 924,556.1 956.7,575 		"/>
		<polygon class="st2" points="956.6,581.8 923.9,562.9 924,556.1 956.7,575 		"/>
		<polygon class="st3" points="956.6,581.8 956.7,575 988.3,556.8 988.2,563.6 		"/>
		<polygon class="st2" points="956.6,581.8 956.7,575 988.3,556.8 988.2,563.6 		"/>
		<polygon class="st1" points="956.6,609.5 923.9,590.7 924,577.4 956.7,596.3 		"/>
		<polygon class="st2" points="956.6,609.5 923.9,590.7 924,577.4 956.7,596.3 		"/>
		<polygon class="st3" points="956.6,609.5 956.7,596.3 988.3,578.1 988.2,591.4 		"/>
		<polygon class="st2" points="956.6,609.5 956.7,596.3 988.3,578.1 988.2,591.4 		"/>
		<path class="st1" d="M956.6,592.4v-6.8L924,566.7v6.8C941,583.4,939.6,582.5,956.6,592.4"/>
		<path class="st2" d="M956.6,592.4v-6.8L924,566.7v6.8C941,583.4,939.6,582.5,956.6,592.4z"/>
		<polygon class="st1" points="963.9,510.4 962.2,509.4 962.3,509.5 962.3,509.5 964,510.4 963.9,510.4 		"/>
		<polygon class="st2" points="963.9,510.4 962.2,509.4 962.3,509.5 962.3,509.5 964,510.4 963.9,510.4 		"/>
		<polygon class="st1" points="970.9,498.5 969.2,497.6 969.1,497.5 969.1,497.5 970.8,498.5 970.8,498.5 		"/>
		<polygon class="st2" points="970.9,498.5 969.2,497.6 969.1,497.5 969.1,497.5 970.8,498.5 970.8,498.5 		"/>
		<path class="st4" d="M963.2,502c1-1.8,2.4-3.3,4.2-4.4c1.7-1,3.1-1,4.2-0.4c1.1,0.6,1.8,2,1.8,3.9c-0.1,2.1-0.7,4.1-1.8,5.8
			c-1,1.8-2.4,3.4-4.2,4.5c-1.6,1-3.1,1-4.2,0.4s-1.8-2-1.8-3.9C961.5,505.8,962.1,503.8,963.2,502"/>
		<path class="st2" d="M963.2,502c1-1.8,2.4-3.3,4.2-4.4c1.7-1,3.1-1,4.2-0.4c1.1,0.6,1.8,2,1.8,3.9c-0.1,2.1-0.7,4.1-1.8,5.8
			c-1,1.8-2.4,3.4-4.2,4.5c-1.6,1-3.1,1-4.2,0.4s-1.8-2-1.8-3.9C961.5,505.8,962.1,503.8,963.2,502z"/>
		<path class="st5" d="M968.1,506.1c-0.1,0-0.2,0-0.3-0.1l-2.8-0.9c-0.6-0.2-1-0.8-0.8-1.5s0.8-1,1.5-0.8l2.8,0.9
			c0.6,0.2,0.9,0.9,0.7,1.5C969,505.8,968.6,506.1,968.1,506.1"/>
		<path class="st5" d="M967.2,506.8c-0.2,0-0.4,0-0.5-0.1c-0.6-0.3-0.8-1-0.5-1.6l2.6-5.1c0.2-0.6,0.9-0.9,1.5-0.7
			c0.6,0.2,0.9,0.9,0.7,1.5c0,0.1-0.1,0.2-0.1,0.3l-2.6,5.1C968.1,506.5,967.7,506.8,967.2,506.8"/>
		<polygon class="st3" points="956.6,592.4 956.6,585.6 988.2,567.5 988.2,574.2 		"/>
		<polygon class="st2" points="956.6,592.4 956.6,585.6 988.2,567.5 988.2,574.2 		"/>
		<polygon class="st4" points="956.7,543 988.2,524.8 988.2,520.9 956.7,539.2 		"/>
		<polygon class="st2" points="956.7,543 988.2,524.8 988.2,520.9 956.7,539.2 		"/>
		<polygon class="st3" points="956.7,553.7 924,534.8 923.9,530.9 956.6,549.8 		"/>
		<polygon class="st2" points="956.7,553.7 924,534.8 923.9,530.9 956.6,549.8 		"/>
		<polygon class="st4" points="956.7,553.7 988.2,535.5 988.2,531.6 956.7,549.8 		"/>
		<polygon class="st2" points="956.7,553.7 988.2,535.5 988.2,531.6 956.7,549.8 		"/>
		<polygon class="st3" points="956.7,564.3 924,545.4 923.9,541.6 956.6,560.5 		"/>
		<polygon class="st2" points="956.7,564.3 924,545.4 923.9,541.6 956.6,560.5 		"/>
		<polygon class="st4" points="956.7,564.3 988.2,546.1 988.2,542.2 956.7,560.5 		"/>
		<polygon class="st2" points="956.7,564.3 988.2,546.1 988.2,542.2 956.7,560.5 		"/>
		<polygon class="st3" points="956.7,575 924,556.1 923.9,552.2 956.6,571.1 		"/>
		<polygon class="st2" points="956.7,575 924,556.1 923.9,552.2 956.6,571.1 		"/>
		<polygon class="st4" points="956.7,575 988.2,556.7 988.2,552.9 956.7,571.1 		"/>
		<polygon class="st2" points="956.7,575 988.2,556.7 988.2,552.9 956.7,571.1 		"/>
		<polygon class="st3" points="956.7,585.6 924,566.7 923.9,562.9 956.6,581.8 		"/>
		<polygon class="st2" points="956.7,585.6 924,566.7 923.9,562.9 956.6,581.8 		"/>
		<polygon class="st3" points="956.7,596.3 924,577.4 923.9,573.5 956.6,592.4 		"/>
		<polygon class="st2" points="956.7,596.3 924,577.4 923.9,573.5 956.6,592.4 		"/>
		<polygon class="st4" points="956.7,596.3 988.2,578 988.2,574.2 956.7,592.4 		"/>
		<polygon class="st2" points="956.7,596.3 988.2,578 988.2,574.2 956.7,592.4 		"/>
		<polygon class="st4" points="956.7,585.6 988.2,567.4 988.2,563.5 956.7,581.8 		"/>
		<polygon class="st2" points="956.7,585.6 988.2,567.4 988.2,563.5 956.7,581.8 		"/>
		<polygon class="st4" points="972.4,593.7 1003.2,576 988.2,567.4 957.5,585.1 		"/>
		<polygon class="st2" points="972.4,593.7 1003.2,576 988.2,567.4 957.5,585.1 		"/>
		<polygon class="st3" points="956.7,613.4 924,594.5 923.9,590.7 956.6,609.5 		"/>
		<polygon class="st2" points="956.7,613.4 924,594.5 923.9,590.7 956.6,609.5 		"/>
		<polygon class="st4" points="956.7,613.4 988.2,595.2 988.2,591.3 956.7,609.5 		"/>
		<polygon class="st2" points="956.7,613.4 988.2,595.2 988.2,591.3 956.7,609.5 		"/>
		<path class="st1" d="M972.4,622.5l-3.3-1.9V596l-12.5-7.4v-4c5.2,3.1,10.4,6.3,15.7,9.4L972.4,622.5z"/>
		<path class="st2" d="M972.4,622.5l-3.3-1.9V596l-12.5-7.4v-4c5.2,3.1,10.4,6.3,15.7,9.4L972.4,622.5z"/>
		<polygon class="st1" points="1000,606.7 996.8,604.8 996.8,576.3 1000,578.2 		"/>
		<polygon class="st2" points="1000,606.7 996.8,604.8 996.8,576.3 1000,578.2 		"/>
		<path class="st4" d="M975.5,598.7l24.5-14v22l3.2-1.8c0-10.7,0-25.3,0-35.9l-30.8,17.6v11v24.9l3.1-1.8L975.5,598.7z"/>
		<path class="st2" d="M975.5,598.7l24.5-14v22l3.2-1.8c0-10.7,0-25.3,0-35.9l-30.8,17.6v11v24.9l3.1-1.8L975.5,598.7z"/>
		<path class="st5" d="M996.1,583.8c-0.2,0-0.3-0.1-0.5-0.1c-0.3-0.2-0.5-0.5-0.5-0.8v-4.9c0-0.3,0.2-0.6,0.5-0.8l2.1-1.2
			c0.4-0.3,1-0.1,1.3,0.3c0.3,0.4,0.1,1-0.3,1.3c0,0,0,0,0,0l-1.6,1v2.8l0.7-0.4c0.5-0.2,1,0,1.3,0.5c0.2,0.4,0.1,0.9-0.3,1.2
			l-2.2,1.2C996.5,583.8,996.3,583.8,996.1,583.8"/>
		<path class="st5" d="M992.7,585.8c-0.7,0-1.4-0.5-1.6-1.2c-0.6-1.5-0.3-4.5,1.3-5.5c0.7-0.5,1.6-0.5,2.2,0.1c0.4,0.4,0.4,1,0,1.3
			c-0.3,0.3-0.8,0.4-1.1,0.1c-0.5,0.4-0.8,1-0.8,1.6c-0.1,0.6-0.1,1.1,0.1,1.7c0.2-0.2,0.3-0.5,0.3-0.8c0.1-0.5,0.7-0.8,1.2-0.6
			c0.5,0.1,0.8,0.7,0.6,1.1c0,0,0,0,0,0c-0.2,1-0.9,1.8-1.8,2.1C993,585.7,992.8,585.7,992.7,585.8"/>
		<path class="st5" d="M989.4,587.7c-0.5,0-0.9-0.4-0.9-0.9v-4.9c-0.1-0.5,0.3-1,0.8-1c0.5-0.1,1,0.3,1,0.8c0,0.1,0,0.1,0,0.2v4.9
			C990.4,587.2,989.9,587.6,989.4,587.7"/>
		<path class="st5" d="M981.2,592.4c-0.5,0-0.9-0.4-0.9-0.9v-5c0-0.3,0.2-0.6,0.5-0.8l2-1.2c0.4-0.3,1-0.1,1.3,0.3
			c0.3,0.4,0.1,1-0.3,1.3l0,0l-1.5,0.9v4.5C982.1,592,981.7,592.5,981.2,592.4C981.2,592.5,981.2,592.5,981.2,592.4"/>
		<path class="st5" d="M981.2,589.9c-0.3,0-0.6-0.2-0.8-0.5c-0.3-0.4-0.1-1,0.3-1.3c0,0,0,0,0,0l1.5-0.8c0.4-0.3,1-0.1,1.3,0.3
			c0.3,0.4,0.1,1-0.3,1.3l-1.5,0.8C981.5,589.9,981.3,589.9,981.2,589.9"/>
		<path class="st5" d="M977.8,588.5L977.8,588.5z M978.1,589.4c-0.4,0.4-0.6,1-0.7,1.5c-0.1,0.5-0.1,1,0.1,1.5
			c0.3-0.4,0.5-0.9,0.6-1.4C978.3,590.5,978.3,590,978.1,589.4 M977.6,592.7L977.6,592.7z M977.4,594.5c-0.3,0-0.5-0.1-0.8-0.2
			c-1-0.6-1.1-2.1-1.1-2.7c-0.1-1.5,0.6-3,1.8-3.9c0.7-0.5,1.7-0.3,2.2,0.4c0,0.1,0.1,0.1,0.1,0.2c0.8,1.4,0.4,4.9-1.4,6
			C978,594.5,977.7,594.6,977.4,594.5"/>
		<path class="st5" d="M996.1,581.3c-0.3,0-0.6-0.2-0.8-0.5c-0.3-0.4-0.1-1,0.3-1.3c0,0,0,0,0,0l1.5-0.9c0.4-0.3,1-0.1,1.2,0.3
			c0,0,0,0,0,0c0.3,0.4,0.1,1-0.3,1.3l-1.5,0.9C996.5,581.3,996.3,581.3,996.1,581.3"/>
		<path class="st5" d="M985.4,590c-0.5,0-0.9-0.4-0.9-0.9v-4.9c0-0.3,0.2-0.6,0.5-0.8l2-1.2c0.4-0.3,1-0.1,1.3,0.3
			c0.3,0.4,0.1,1-0.3,1.3c0,0,0,0,0,0l-1.5,0.9v4.4C986.3,589.6,985.9,590,985.4,590C985.4,590,985.4,590,985.4,590"/>
		<path class="st5" d="M985.4,587.5c-0.5,0-0.9-0.4-0.9-1c0-0.3,0.2-0.6,0.5-0.8l1.5-0.9c0.4-0.3,1-0.1,1.3,0.3
			c0.3,0.4,0.1,1-0.3,1.3l-1.5,0.9C985.7,587.5,985.5,587.5,985.4,587.5"/>
	</g>
</g>
</svg>
