<?xml version="1.0" encoding="utf-8"?>
<!-- Generator: Adobe Illustrator 25.0.0, SVG Export Plug-In . SVG Version: 6.00 Build 0)  -->
<svg version="1.1" id="Layer_1" xmlns="http://www.w3.org/2000/svg" xmlns:xlink="http://www.w3.org/1999/xlink" x="0px" y="0px"
	 viewBox="0 0 1920 1080" style="enable-background:new 0 0 1920 1080;" xml:space="preserve">
<style type="text/css">
	.st0{opacity:0.3;fill:#3B77BB;enable-background:new    ;}
	.st1{fill-rule:evenodd;clip-rule:evenodd;fill:#9ACDEE;}
	.st2{fill:none;stroke:#2372B8;stroke-width:0.75;stroke-linecap:round;stroke-linejoin:round;}
	.st3{fill-rule:evenodd;clip-rule:evenodd;fill:#D9E7F5;}
	.st4{fill-rule:evenodd;clip-rule:evenodd;fill:#FFFFFF;}
</style>
<g id="Layer_2_1_">
	<g id="Layer_1-2">
		<circle class="st0" cx="960" cy="539.8" r="76.2"/>
		<path class="st1" d="M1024.3,525.1v16.7c0-1.8-0.5-3.1-1.1-2.8l-104,60c-0.6,0.3-1.1,2.1-1.1,4v-16.7c0,1.9,0.5,3.1,1.1,2.8
			l104-60C1023.8,528.8,1024.3,527,1024.3,525.1"/>
		<path class="st2" d="M1024.3,525.1v16.7c0-1.8-0.5-3.1-1.1-2.8l-104,60c-0.6,0.3-1.1,2.1-1.1,4v-16.7c0,1.9,0.5,3.1,1.1,2.8
			l104-60C1023.8,528.8,1024.3,527,1024.3,525.1z"/>
		<path class="st3" d="M918.2,584.5c-0.7,0.4-1.1,1.1-1.1,1.9v24.4c0,4.6,3.2,6.4,7.2,4.2l94-54.3c4.2-2.8,6.9-7.4,7.2-12.4v-24.5
			c0-0.7-0.5-1-1.1-0.6C986.1,545.2,958,561.5,918.2,584.5"/>
		<path class="st2" d="M918.2,584.5c-0.7,0.4-1.1,1.1-1.1,1.9v24.4c0,4.6,3.2,6.4,7.2,4.2l94-54.3c4.2-2.8,6.9-7.4,7.2-12.4v-24.5
			c0-0.7-0.5-1-1.1-0.6C986.2,545.3,958.1,561.5,918.2,584.5z"/>
		<path class="st3" d="M1027.1,530.7v-46.1c0-4.5-3.2-6.4-7.2-4.1l-94,54.3c-4.2,2.8-6.9,7.4-7.2,12.4v46.1c0,0.7,0.5,1,1.1,0.6
			l44.2-25.5v-2.5c0.1-1.9,1.1-3.7,2.8-4.8l12.2-7c1.5-0.9,2.8-0.2,2.8,1.5v2.5l44.2-25.5C1026.7,532.2,1027.1,531.4,1027.1,530.7"
			/>
		<path class="st2" d="M1027.1,530.7v-46.1c0-4.5-3.2-6.4-7.2-4.1l-94,54.3c-4.2,2.8-6.9,7.4-7.2,12.4v46.1c0,0.7,0.5,1,1.1,0.6
			l44.2-25.5v-2.5c0.1-1.9,1.1-3.7,2.8-4.8l12.2-7c1.5-0.9,2.8-0.2,2.8,1.5v2.5l44.2-25.5C1026.7,532.2,1027.1,531.4,1027.1,530.7z"
			/>
		<path class="st4" d="M962.4,566.3c-0.1-2.6,1.1-5.1,3.3-6.6l11.6-6.7c0.6-0.4,1.3-0.5,2-0.2l2.5,1.5c-0.7-0.3-1.4-0.2-2,0.2
			l-12.2,7c-2.4,1.4-2.7,2.9-2.7,4.8v8.5c-0.1,0.7,0.2,1.4,0.8,1.8l-2.5-1.5c-0.9-0.6-2.1-1.1-2.1-3v-2.1l1.2-0.7L962.4,566.3z"/>
		<path class="st2" d="M962.4,566.3c-0.1-2.6,1.1-5.1,3.3-6.6l11.6-6.7c0.6-0.4,1.3-0.5,2-0.2l2.5,1.5c-0.7-0.3-1.4-0.2-2,0.2
			l-12.2,7c-2.4,1.4-2.7,2.9-2.7,4.8v8.5c-0.1,0.7,0.2,1.4,0.8,1.8l-2.5-1.5c-0.9-0.6-2.1-1.1-2.1-3v-2.1l1.2-0.7L962.4,566.3z"/>
		<path class="st4" d="M982.7,562.2v2.5c-0.1,1.9-1.1,3.7-2.8,4.8l-12.2,7c-1.5,0.9-2.7,0.2-2.7-1.6v-8.5c0.1-1.9,1.1-3.7,2.7-4.8
			l12.2-7c1.5-0.9,2.8-0.2,2.8,1.6V562.2z"/>
		<path class="st2" d="M982.7,562.2v2.5c-0.1,1.9-1.1,3.7-2.8,4.8l-12.2,7c-1.5,0.9-2.7,0.2-2.7-1.6v-8.5c0.1-1.9,1.1-3.7,2.7-4.8
			l12.2-7c1.5-0.9,2.8-0.2,2.8,1.6V562.2z"/>
		<path class="st1" d="M1001.2,466.3c-1.6-0.4-3.2-0.2-4.5,0.7l-94,54.3c-4.2,2.7-6.9,7.3-7.2,12.4l0.1,66.3c0.1,1.3,0.8,2.4,2,3
			l21.6,12.5c-1.6-1.1-2-2.6-2.1-4.6v-18.5c0,0.3,0.1,0.6,0.3,0.7l1.7,1c-0.2-0.2-0.3-0.4-0.3-0.7v-47c0.5-4.7,3.2-8.9,7.1-11.5
			l94-54.3c1.7-1,3.2-1.4,5-0.5L1001.2,466.3z"/>
		<path class="st2" d="M1001.2,466.3c-1.6-0.4-3.2-0.2-4.5,0.7l-94,54.3c-4.2,2.7-6.9,7.3-7.2,12.4l0.1,66.3c0.1,1.3,0.8,2.4,2,3
			l21.6,12.5c-1.6-1.1-2-2.6-2.1-4.6v-18.5c0,0.3,0.1,0.6,0.3,0.7l1.7,1c-0.2-0.2-0.3-0.4-0.3-0.7v-47c0.5-4.7,3.2-8.9,7.1-11.5
			l94-54.3c1.7-1,3.2-1.4,5-0.5L1001.2,466.3z"/>
		<path class="st4" d="M940.2,514.9l-3.9-2.2c0-2.1-0.2-8.2,0.2-10.2c0.8-4.4,3.3-8.2,7-10.6L971,476c1.3-0.7,3-0.8,4.3-0.1l3.9,2.2
			c-1.8-0.9-3.3-0.5-5.1,0.5L947.4,494c-4.2,2.8-6.9,7.4-7.2,12.4V514.9z"/>
		<path class="st2" d="M940.2,514.9l-3.9-2.2c0-2.1-0.2-8.2,0.2-10.2c0.8-4.4,3.3-8.2,7-10.6L971,476c1.3-0.7,3-0.8,4.3-0.1l3.9,2.2
			c-1.8-0.9-3.3-0.5-5.1,0.5L947.4,494c-4.2,2.8-6.9,7.4-7.2,12.4V514.9z"/>
		<polygon class="st4" points="976.3,494.1 972.4,491.8 972.4,484.1 972.4,483.8 972.4,483.5 972.3,483.2 972.2,483 972.1,482.8 
			971.9,482.6 971.8,482.5 971.6,482.3 975.5,484.6 975.7,484.7 975.8,484.8 976,485 976.1,485.2 976.2,485.5 976.2,485.7 
			976.3,486 976.3,486.4 		"/>
		<polygon class="st2" points="976.3,494.1 972.4,491.8 972.4,484.1 972.4,483.8 972.4,483.5 972.3,483.2 972.2,483 972.1,482.8 
			971.9,482.6 971.8,482.5 971.6,482.3 975.5,484.6 975.7,484.7 975.8,484.8 976,485 976.1,485.2 976.2,485.5 976.2,485.7 
			976.3,486 976.3,486.4 		"/>
		<path class="st4" d="M945.3,504.3v7.7l-5,2.9v-8.4c0.3-5,2.9-9.6,7.2-12.4l26.7-15.4c4-2.3,7.2-0.4,7.2,4.1v8.4l-5,2.9v-7.8
			c0-1.8-1.2-2.5-2.8-1.6L948,499.5C946.4,500.6,945.4,502.3,945.3,504.3"/>
		<path class="st2" d="M945.3,504.3v7.7l-5,2.9v-8.4c0.3-5,2.9-9.6,7.2-12.4l26.7-15.4c4-2.3,7.2-0.4,7.2,4.1v8.4l-5,2.9v-7.8
			c0-1.8-1.2-2.5-2.8-1.6L948,499.5C946.4,500.6,945.4,502.3,945.3,504.3z"/>
		<path class="st1" d="M897.5,526.8c-1.2,2.1-1.9,4.5-2,6.9v64.7c0.1,2,0.4,3.5,2.1,4.6l21.6,12.5c-1.7-1.2-2-2.7-2.1-4.6v-18.6
			c0.1,0.7,0.3,0.7,0.8,1l1.2,0.7c-0.2-0.2-0.3-0.4-0.3-0.7v-46.1c0.1-2.4,0.8-4.8,2-6.9L897.5,526.8z"/>
		<path class="st2" d="M897.5,526.8c-1.2,2.1-1.9,4.5-2,6.9v64.7c0.1,2,0.4,3.5,2.1,4.6l21.6,12.5c-1.7-1.2-2-2.7-2.1-4.6v-18.6
			c0.1,0.7,0.3,0.7,0.8,1l1.2,0.7c-0.2-0.2-0.3-0.4-0.3-0.7v-46.1c0.1-2.4,0.8-4.8,2-6.9L897.5,526.8z"/>
	</g>
</g>
</svg>
