<?xml version="1.0" encoding="utf-8"?>
<!-- Generator: Adobe Illustrator 25.0.0, SVG Export Plug-In . SVG Version: 6.00 Build 0)  -->
<svg version="1.1" id="Layer_1" xmlns="http://www.w3.org/2000/svg" xmlns:xlink="http://www.w3.org/1999/xlink" x="0px" y="0px"
	 viewBox="0 0 1920 1080" style="enable-background:new 0 0 1920 1080;" xml:space="preserve">
<style type="text/css">
	.st0{opacity:0.3;fill:#3B77BB;enable-background:new    ;}
	.st1{fill-rule:evenodd;clip-rule:evenodd;fill:#D9E7F5;}
	.st2{fill:none;stroke:#2372B8;stroke-width:0.79;stroke-linecap:round;stroke-linejoin:round;}
	.st3{fill-rule:evenodd;clip-rule:evenodd;fill:#FFFFFF;}
	.st4{fill-rule:evenodd;clip-rule:evenodd;fill:#9ACDEE;}
</style>
<g id="Layer_2_1_">
	<g id="Layer_1-2">
		<circle class="st0" cx="960" cy="544.8" r="76.2"/>
		<path class="st1" d="M916.7,617.3l-13.4-7.3c-0.3-0.2-0.3-0.4-0.3-0.8v-2.4c0-0.8,0.4-1.6,1.2-2.1c36.3-21,72.6-41.9,108.8-62.8
			c0.3-0.2,0.7-0.2,1-0.1l13.3,7.3c-0.4-0.1-0.5-0.1-0.9,0.1L917.6,612c-0.7,0.5-1.2,1.3-1.2,2.1v2.4
			C916.4,616.9,916.3,617.1,916.7,617.3"/>
		<path class="st2" d="M916.7,617.3l-13.4-7.3c-0.3-0.2-0.3-0.4-0.3-0.8v-2.4c0-0.8,0.4-1.6,1.2-2.1c36.3-21,72.6-41.9,108.8-62.8
			c0.3-0.2,0.7-0.2,1-0.1l13.3,7.3c-0.4-0.1-0.5-0.1-0.9,0.1L917.6,612c-0.7,0.5-1.2,1.3-1.2,2.1v2.4
			C916.4,616.9,916.3,617.1,916.7,617.3z"/>
		<path class="st3" d="M917.4,617.2c-0.6,0.2-1,0.1-1-0.8v-2.4c0.1-0.9,0.5-1.6,1.2-2.1l108.8-62.9c0.7-0.4,1.2-0.1,1.2,0.7v2.4
			c0,0.6-0.2,1.2-0.7,1.6c-0.8,0.6-1.6,1.1-2.5,1.6l-105.2,60.7C918.8,616.5,917.7,617.1,917.4,617.2"/>
		<path class="st2" d="M917.4,617.2c-0.6,0.2-1,0.1-1-0.8v-2.4c0.1-0.9,0.5-1.6,1.2-2.1l108.8-62.9c0.7-0.4,1.2-0.1,1.2,0.7v2.4
			c0,0.6-0.2,1.2-0.7,1.6c-0.8,0.6-1.6,1.1-2.5,1.6l-105.2,60.7C918.8,616.5,917.7,617.1,917.4,617.2z"/>
		<polygon class="st4" points="905.2,604.1 905.2,521.1 909.4,523 909.4,606 		"/>
		<polygon class="st2" points="905.2,604.1 905.2,521.1 909.4,523 909.4,606 		"/>
		<polygon class="st1" points="909.4,523 905.2,521.1 1012.1,459.4 1016.2,461.3 		"/>
		<polygon class="st2" points="909.4,523 905.2,521.1 1012.1,459.4 1016.2,461.3 		"/>
		<polygon class="st3" points="1016.2,461.3 1016.2,544.3 909.4,606 909.4,523 		"/>
		<polygon class="st2" points="1016.2,461.3 1016.2,544.3 909.4,606 909.4,523 		"/>
		<polygon class="st4" points="1011.7,469.1 913.8,525.6 913.8,598.2 1011.7,541.7 		"/>
		<polygon class="st2" points="1011.7,469.1 913.8,525.6 913.8,598.2 1011.7,541.7 		"/>
		<path class="st3" d="M938.9,546.2l0.5,3.5l-16.3,12.5l-0.8-4.7c-0.3-2.4-0.2-4.3,0.6-5.8c0.8-1.4,2.5-3.6,5.5-6.5
			c1.6-1.4,3.1-3,4.3-4.8c0.5-1.1,0.6-2.4,0.3-3.6c-0.3-1.6-0.7-2.4-1.2-2.5c-0.5-0.1-1.7,0.6-3.4,1.9c-1.3,0.8-2.5,2-3.4,3.2
			c-0.4,1.2-0.5,2.5-0.3,3.7l0.2,1l-4,3.1l-0.1-1c-0.5-2.4-0.3-4.9,0.8-7.1c1-1.8,3.1-4,6.3-6.5c3.1-2.4,5.3-3.5,6.6-3.4
			c1.2,0.2,2.1,1.6,2.6,4.5c0.4,2.1,0.3,4.3-0.5,6.4c-0.8,1.6-2.6,3.8-5.7,6.8c-1.5,1.4-2.9,3-4.2,4.7c-0.4,1.1-0.5,2.3-0.2,3.4
			l0.1,0.6L938.9,546.2z"/>
		<path class="st2" d="M938.9,546.2l0.5,3.5l-16.3,12.5l-0.8-4.7c-0.3-2.4-0.2-4.3,0.6-5.8c0.8-1.4,2.5-3.6,5.5-6.5
			c1.6-1.4,3.1-3,4.3-4.8c0.5-1.1,0.6-2.4,0.3-3.6c-0.3-1.6-0.7-2.4-1.2-2.5c-0.5-0.1-1.7,0.6-3.4,1.9c-1.3,0.8-2.5,2-3.4,3.2
			c-0.4,1.2-0.5,2.5-0.3,3.7l0.2,1l-4,3.1l-0.1-1c-0.5-2.4-0.3-4.9,0.8-7.1c1-1.8,3.1-4,6.3-6.5c3.1-2.4,5.3-3.5,6.6-3.4
			c1.2,0.2,2.1,1.6,2.6,4.5c0.4,2.1,0.3,4.3-0.5,6.4c-0.8,1.6-2.6,3.8-5.7,6.8c-1.5,1.4-2.9,3-4.2,4.7c-0.4,1.1-0.5,2.3-0.2,3.4
			l0.1,0.6L938.9,546.2z"/>
		<path class="st3" d="M975.2,518.6l0.5,3.4l-16.4,12.5l-0.7-4.7c-0.4-1.9-0.2-3.9,0.5-5.8c1.6-2.4,3.4-4.6,5.6-6.5
			c1.6-1.4,3.1-3,4.3-4.8c0.5-0.8,0.5-2,0.3-3.6c-0.2-1.6-0.7-2.5-1.2-2.5s-1.7,0.6-3.5,1.9c-1.3,0.9-2.4,2-3.3,3.3
			c-0.5,0.8-0.5,2-0.3,3.7l0.2,1l-4.1,3.1l-0.1-1c-0.4-2.4-0.2-4.8,0.8-7.1c1.1-1.8,3.2-4,6.3-6.5c3.2-2.5,5.4-3.6,6.6-3.3
			c1.3,0.1,2.2,1.6,2.6,4.5c0.4,2.7,0.3,4.8-0.5,6.4c-0.8,1.5-2.6,3.8-5.6,6.8c-2.5,2.4-3.9,4-4.2,4.6c-0.4,1.1-0.5,2.3-0.2,3.4
			l0.1,0.6L975.2,518.6z"/>
		<path class="st2" d="M975.2,518.6l0.5,3.4l-16.4,12.5l-0.7-4.7c-0.4-1.9-0.2-3.9,0.5-5.8c1.6-2.4,3.4-4.6,5.6-6.5
			c1.6-1.4,3.1-3,4.3-4.8c0.5-0.8,0.5-2,0.3-3.6c-0.2-1.6-0.7-2.5-1.2-2.5s-1.7,0.6-3.5,1.9c-1.3,0.9-2.4,2-3.3,3.3
			c-0.5,0.8-0.5,2-0.3,3.7l0.2,1l-4.1,3.1l-0.1-1c-0.4-2.4-0.2-4.8,0.8-7.1c1.1-1.8,3.2-4,6.3-6.5c3.2-2.5,5.4-3.6,6.6-3.3
			c1.3,0.1,2.2,1.6,2.6,4.5c0.4,2.7,0.3,4.8-0.5,6.4c-0.8,1.5-2.6,3.8-5.6,6.8c-2.5,2.4-3.9,4-4.2,4.6c-0.4,1.1-0.5,2.3-0.2,3.4
			l0.1,0.6L975.2,518.6z"/>
		<path class="st3" d="M1008.9,551c-0.4-0.3-0.9-0.3-1.4-0.2l-15.3,8.8c0.4-0.2,0.8-0.2,1.1,0c1.4,0.8,2.2,2.3,2.1,3.9
			c-0.1,0.3-0.2,0.6-0.5,0.8l15.3-8.8c0.6-0.4,0.6-1.2,0.6-1.7C1010.6,552.7,1009.9,551.6,1008.9,551z"/>
		<path class="st2" d="M1008.9,551c-0.4-0.3-0.9-0.3-1.4-0.2l-15.3,8.8c0.4-0.2,0.8-0.2,1.1,0c1.4,0.8,2.2,2.3,2.1,3.9
			c-0.1,0.3-0.2,0.6-0.5,0.8l15.3-8.8c0.6-0.4,0.6-1.2,0.6-1.7C1010.6,552.7,1009.9,551.6,1008.9,551z"/>
		<path class="st3" d="M994.9,561.2c-0.3-0.6-0.8-1.1-1.4-1.4c-0.4-0.3-0.9-0.4-1.3-0.2c-0.4,0.3-0.6,0.8-0.6,1.3
			c0,0.7,0.2,1.3,0.6,1.9c0.3,0.6,0.8,1.1,1.3,1.5c0.4,0.3,0.9,0.3,1.4,0.1c0.4-0.3,0.6-0.8,0.6-1.3
			C995.5,562.5,995.3,561.8,994.9,561.2"/>
		<path class="st2" d="M994.9,561.2c-0.3-0.6-0.8-1.1-1.4-1.4c-0.4-0.3-0.9-0.4-1.3-0.2c-0.4,0.3-0.6,0.8-0.6,1.3
			c0,0.7,0.2,1.3,0.6,1.9c0.3,0.6,0.8,1.1,1.3,1.5c0.4,0.3,0.9,0.3,1.4,0.1c0.4-0.3,0.6-0.8,0.6-1.3
			C995.5,562.5,995.3,561.8,994.9,561.2z"/>
		<polygon class="st1" points="942.8,589.9 934.2,585 919.1,593.7 927.7,598.6 		"/>
		<polygon class="st2" points="942.8,589.9 934.2,585 919.1,593.7 927.7,598.6 		"/>
		<polygon class="st4" points="927.7,598.6 919.1,593.7 919.1,600.4 927.7,605.3 		"/>
		<polygon class="st2" points="927.7,598.6 919.1,593.7 919.1,600.4 927.7,605.3 		"/>
		<polygon class="st3" points="942.8,596.6 942.8,589.9 927.7,598.6 927.7,605.3 		"/>
		<polygon class="st2" points="942.8,596.6 942.8,589.9 927.7,598.6 927.7,605.3 		"/>
		<path class="st3" d="M943.7,541.7c-0.1,0-0.3,0-0.4-0.1c-0.6-0.2-0.8-0.9-0.6-1.5c0,0,0,0,0,0l8.5-18.7c0.3-0.6,1-0.8,1.6-0.5
			c0.5,0.3,0.8,0.9,0.6,1.5l-8.6,18.7C944.6,541.5,944.2,541.7,943.7,541.7"/>
		<path class="st2" d="M943.7,541.7c-0.1,0-0.3,0-0.4-0.1c-0.6-0.2-0.8-0.9-0.6-1.5c0,0,0,0,0,0l8.5-18.7c0.3-0.6,1-0.8,1.6-0.5
			c0.5,0.3,0.8,0.9,0.6,1.5l-8.6,18.7C944.6,541.5,944.1,541.8,943.7,541.7z"/>
		<path class="st3" d="M953.9,534c-0.1,0-0.2,0-0.3-0.1l-11.8-3.1c-0.6-0.1-1-0.7-0.9-1.2c0,0,0-0.1,0-0.1c0.1-0.6,0.7-1,1.3-0.8
			l11.9,3.1c0.6,0.1,1,0.8,0.9,1.4C954.9,533.6,954.5,534,953.9,534"/>
		<path class="st2" d="M953.9,534c-0.1,0-0.2,0-0.3-0.1l-11.8-3.1c-0.6-0.1-1-0.7-0.9-1.2c0,0,0-0.1,0-0.1c0.1-0.6,0.7-1,1.3-0.8
			l11.9,3.1c0.6,0.1,1,0.8,0.9,1.4C954.9,533.6,954.5,534,953.9,534z"/>
		<path class="st3" d="M976.3,507c-0.3,0-0.7-0.2-0.9-0.4c-0.4-0.5-0.3-1.2,0.2-1.5c0,0,0,0,0,0l14.5-11.1c0.5-0.4,1.1-0.3,1.5,0.2
			c0,0,0,0,0,0c0.4,0.5,0.3,1.2-0.2,1.6l-14.5,11C976.8,506.9,976.5,507,976.3,507"/>
		<path class="st2" d="M976.3,507c-0.3,0-0.7-0.2-0.9-0.4c-0.4-0.5-0.3-1.2,0.2-1.5c0,0,0,0,0,0l14.5-11.1c0.5-0.4,1.1-0.3,1.5,0.2
			c0,0,0,0,0,0c0.4,0.5,0.3,1.2-0.2,1.6l-14.5,11C976.8,506.9,976.5,507,976.3,507z"/>
		<path class="st3" d="M977.2,513.4c-0.3,0-0.7-0.2-0.9-0.5c-0.4-0.5-0.3-1.2,0.2-1.6l14.5-11c0.5-0.4,1.2-0.3,1.6,0.2
			c0.3,0.5,0.2,1.2-0.3,1.6l-14.5,11C977.7,513.4,977.5,513.5,977.2,513.4"/>
		<path class="st2" d="M977.2,513.4c-0.3,0-0.7-0.2-0.9-0.5c-0.4-0.5-0.3-1.2,0.2-1.6l14.5-11c0.5-0.4,1.2-0.3,1.6,0.2
			c0.3,0.5,0.2,1.2-0.3,1.6l-14.5,11C977.7,513.4,977.5,513.5,977.2,513.4z"/>
		<path class="st3" d="M933.6,570.6c-0.4,0-0.7-0.2-1-0.4c-0.4-0.5-0.3-1.2,0.2-1.6l14.5-11.1c0.5-0.3,1.2-0.3,1.6,0.2
			c0.4,0.5,0.3,1.2-0.2,1.6l-14.5,11C934,570.5,933.8,570.6,933.6,570.6"/>
		<path class="st2" d="M933.6,570.6c-0.4,0-0.7-0.2-1-0.4c-0.4-0.5-0.3-1.2,0.2-1.6l14.5-11.1c0.5-0.3,1.2-0.3,1.6,0.2
			c0.4,0.5,0.3,1.2-0.2,1.6l-14.5,11C934,570.5,933.8,570.6,933.6,570.6z"/>
		<path class="st3" d="M934.5,577c-0.4,0-0.8-0.1-1-0.5c-0.4-0.4-0.3-1,0.1-1.4c0.1-0.1,0.1-0.1,0.2-0.1l14.5-11
			c0.5-0.4,1.1-0.3,1.5,0.2c0,0,0,0,0,0c0.4,0.5,0.3,1.2-0.2,1.6l-14.5,11C935,576.9,934.7,577,934.5,577"/>
		<path class="st2" d="M934.5,577c-0.4,0-0.8-0.1-1-0.5c-0.4-0.4-0.3-1,0.1-1.4c0.1-0.1,0.1-0.1,0.2-0.1l14.5-11
			c0.5-0.4,1.1-0.3,1.5,0.2c0,0,0,0,0,0c0.4,0.5,0.3,1.2-0.2,1.6l-14.5,11C935,576.9,934.8,577,934.5,577z"/>
	</g>
</g>
</svg>
