<?xml version="1.0" encoding="utf-8"?>
<!-- Generator: Adobe Illustrator 25.0.0, SVG Export Plug-In . SVG Version: 6.00 Build 0)  -->
<svg version="1.1" id="Layer_1" xmlns="http://www.w3.org/2000/svg" xmlns:xlink="http://www.w3.org/1999/xlink" x="0px" y="0px"
	 viewBox="0 0 1920 1080" style="enable-background:new 0 0 1920 1080;" xml:space="preserve">
<style type="text/css">
	.st0{opacity:0.3;fill:#3B77BB;enable-background:new    ;}
	.st1{fill-rule:evenodd;clip-rule:evenodd;fill:#FFFFFF;}
	.st2{fill:none;stroke:#2372B8;stroke-width:0.85;stroke-linecap:round;stroke-linejoin:round;}
	.st3{fill-rule:evenodd;clip-rule:evenodd;fill:#D9E7F5;}
	.st4{fill-rule:evenodd;clip-rule:evenodd;fill:#9ACDEE;}
</style>
<g id="Layer_2_1_">
	<g id="Layer_1-2">
		<circle class="st0" cx="961.4" cy="534" r="76.2"/>
		<path class="st1" d="M1025.4,592.6c4.3,0,7.7-3.5,7.7-7.7c0-4.3-3.5-7.7-7.7-7.7c-4.3,0-7.7,3.5-7.7,7.7
			C1017.7,589.1,1021.2,592.6,1025.4,592.6L1025.4,592.6"/>
		<path class="st2" d="M1025.4,592.6c4.3,0,7.7-3.5,7.7-7.7c0-4.3-3.5-7.7-7.7-7.7c-4.3,0-7.7,3.5-7.7,7.7
			C1017.7,589.1,1021.2,592.6,1025.4,592.6L1025.4,592.6z"/>
		<path class="st3" d="M1033.4,598c-0.5-4.4-4.4-7.6-8.8-7.1c-3.7,0.4-6.7,3.4-7.1,7.1v19.8c0.1,1.1,0.1,1.7,2.4,3s9,1.3,11.2,0
			c2.2-1.3,2.2-1.9,2.3-3V598z"/>
		<path class="st2" d="M1033.4,598c-0.5-4.4-4.4-7.6-8.8-7.1c-3.7,0.4-6.7,3.4-7.1,7.1v19.8c0.1,1.1,0.1,1.7,2.4,3s9,1.3,11.2,0
			c2.2-1.3,2.2-1.9,2.3-3V598z"/>
		<path class="st3" d="M1025.4,592.6c4.3,0,7.7-3.5,7.7-7.7c0-4.3-3.5-7.7-7.7-7.7c-4.3,0-7.7,3.5-7.7,7.7
			C1017.7,589.1,1021.2,592.6,1025.4,592.6L1025.4,592.6"/>
		<path class="st2" d="M1025.4,592.6c4.3,0,7.7-3.5,7.7-7.7c0-4.3-3.5-7.7-7.7-7.7c-4.3,0-7.7,3.5-7.7,7.7
			C1017.7,589.1,1021.2,592.6,1025.4,592.6L1025.4,592.6z"/>
		<path class="st4" d="M913.5,523.4v40l0.3,1.3c0.7,2.7,2,5.3,3.8,7.5c3.7,4.6,9.3,8.1,14.8,10.4c17.3,7.4,42.1,7,59-1.7
			c4.5-2.4,9.1-5.7,12-9.9c1.3-1.9,2.3-4,2.9-6.3l0.3-1.3v-40.1c-0.2,0.9-0.4,1.7-0.6,2.6c-1,2.7-2.6,5.3-4.5,7.4
			c-5.4,6-14,9.9-21.7,11.9c-15.3,4.1-34.7,3.3-49.2-3.5c-5.6-2.6-11.4-6.6-14.6-12c-1-1.5-1.7-3.2-2.1-5L913.5,523.4z"/>
		<path class="st2" d="M913.5,523.4v40l0.3,1.3c0.7,2.7,2,5.3,3.8,7.5c3.7,4.6,9.3,8.1,14.8,10.4c17.3,7.4,42.1,7,59-1.7
			c4.5-2.4,9.1-5.7,12-9.9c1.3-1.9,2.3-4,2.9-6.3l0.3-1.3v-40.1c-0.2,0.9-0.4,1.7-0.6,2.6c-1,2.7-2.6,5.3-4.5,7.4
			c-5.4,6-14,9.9-21.7,11.9c-15.3,4.1-34.7,3.3-49.2-3.5c-5.6-2.6-11.4-6.6-14.6-12c-1-1.5-1.7-3.2-2.1-5L913.5,523.4z"/>
		<polygon class="st3" points="1042,521.1 1042,524.6 960,571.9 960,568.4 		"/>
		<polygon class="st2" points="1042,521.1 1042,524.6 960,571.9 960,568.4 		"/>
		<polygon class="st4" points="960,568.4 960,571.9 878,524.6 878,521.1 		"/>
		<polygon class="st2" points="960,568.4 960,571.9 878,524.6 878,521.1 		"/>
		<polygon class="st4" points="960,473.7 1042,521.1 960,568.4 878,521.1 		"/>
		<polygon class="st2" points="960,473.7 1042,521.1 960,568.4 878,521.1 		"/>
		<path class="st3" d="M1025.4,579.2c-0.6,0-1-0.4-1.1-1V550c0.1-11.4-8.3-21.1-19.6-22.8l-45.2-6.8c-0.5-0.1-1-0.5-0.9-1.1
			c0,0,0-0.1,0-0.1c0.1-0.5,0.6-0.9,1.1-0.9c0,0,0,0,0.1,0l45.3,6.8c12.3,1.8,21.4,12.4,21.4,24.9v28.2
			C1026.5,578.7,1026.1,579.1,1025.4,579.2C1025.5,579.1,1025.5,579.1,1025.4,579.2"/>
		<path class="st2" d="M1025.4,579.2c-0.6,0-1-0.4-1.1-1V550c0.1-11.4-8.3-21.1-19.6-22.8l-45.2-6.8c-0.5-0.1-1-0.5-0.9-1.1
			c0,0,0-0.1,0-0.1c0.1-0.5,0.6-0.9,1.1-0.9c0,0,0,0,0.1,0l45.3,6.8c12.3,1.8,21.4,12.4,21.4,24.9v28.2c0,0.6-0.4,1-0.9,1.1
			C1025.5,579.2,1025.5,579.2,1025.4,579.2z"/>
		<path class="st3" d="M967,515.1c-4.4-2.3-9.7-2.3-14.2,0c-3.9,2.3-3.9,5.9,0,8.2c4.4,2.2,9.7,2.2,14.2,0
			C971,521.1,971,517.4,967,515.1"/>
		<path class="st2" d="M967,515.1c-4.4-2.3-9.7-2.3-14.2,0c-3.9,2.3-3.9,5.9,0,8.2c4.4,2.2,9.7,2.2,14.2,0
			C971,521.1,971,517.4,967,515.1z"/>
	</g>
</g>
</svg>
