<?xml version="1.0" encoding="utf-8"?>
<!-- Generator: Adobe Illustrator 25.0.0, SVG Export Plug-In . SVG Version: 6.00 Build 0)  -->
<svg version="1.1" id="Layer_1" xmlns="http://www.w3.org/2000/svg" xmlns:xlink="http://www.w3.org/1999/xlink" x="0px" y="0px"
	 viewBox="0 0 1920 1080" style="enable-background:new 0 0 1920 1080;" xml:space="preserve">
<style type="text/css">
	.st0{opacity:0.3;fill:#3B77BB;enable-background:new    ;}
	.st1{fill-rule:evenodd;clip-rule:evenodd;fill:#FFFFFF;}
	.st2{fill:none;stroke:#2372B8;stroke-width:0.75;stroke-linecap:round;stroke-linejoin:round;}
	.st3{fill-rule:evenodd;clip-rule:evenodd;fill:#D9E7F5;}
	.st4{fill:#FFFFFF;}
	.st5{fill-rule:evenodd;clip-rule:evenodd;fill:#9ACDEE;}
	.st6{fill:#9ACDEE;}
</style>
<g id="Layer_2_1_">
	<g id="Layer_1-2">
		<circle class="st0" cx="960" cy="540" r="76.2"/>
		<polygon class="st1" points="1023.3,481.8 1023.3,593.5 975.9,585.2 975.9,473.4 		"/>
		<polygon class="st2" points="1023.3,481.8 1023.3,593.5 975.9,585.2 975.9,473.4 		"/>
		<polygon class="st3" points="975.9,473.4 975.9,585.2 949.9,613.8 949.9,502.1 		"/>
		<polygon class="st2" points="975.9,473.4 975.9,585.2 949.9,613.8 949.9,502.1 		"/>
		<rect x="897.4" y="502.1" class="st4" width="52.4" height="111.7"/>
		<rect x="897.4" y="502.1" class="st2" width="52.4" height="111.7"/>
		<polygon class="st1" points="1024.6,474.6 1024.6,586.3 1023.3,593.5 1023.3,481.8 		"/>
		<polygon class="st2" points="1024.6,474.6 1024.6,586.3 1023.3,593.5 1023.3,481.8 		"/>
		<polygon class="st3" points="1023.3,481.8 975.9,473.4 949.9,502.1 897.4,502.1 897.4,494.7 945.6,494.7 972,465.3 1024.6,474.6 
					"/>
		<polygon class="st2" points="1023.3,481.8 975.9,473.4 949.9,502.1 897.4,502.1 897.4,494.7 945.6,494.7 972,465.3 1024.6,474.6 
					"/>
		<polygon class="st1" points="1023.3,563.2 1023.3,572 1005,568.7 1005,590.3 996.7,588.8 996.7,567.2 975.9,563.6 975.9,554.8 
			996.7,558.5 996.7,520.7 975.9,517.1 975.9,508.3 996.7,512 996.7,477.1 1005,478.6 1005,513.5 1023.3,516.7 1023.3,525.4 
			1005,522.2 1005,560 		"/>
		<polygon class="st2" points="1023.3,563.2 1023.3,572 1005,568.7 1005,590.3 996.7,588.8 996.7,567.2 975.9,563.6 975.9,554.8 
			996.7,558.5 996.7,520.7 975.9,517.1 975.9,508.3 996.7,512 996.7,477.1 1005,478.6 1005,513.5 1023.3,516.7 1023.3,525.4 
			1005,522.2 1005,560 		"/>
		<rect x="897.4" y="583.5" class="st4" width="52.4" height="8.8"/>
		<rect x="897.4" y="583.5" class="st2" width="52.4" height="8.8"/>
		<polygon class="st1" points="975.9,508.3 975.9,517.1 949.9,545.7 949.9,537 962.9,522.6 962.9,487.8 968.8,481.2 968.8,516.1 		
			"/>
		<polygon class="st2" points="975.9,508.3 975.9,517.1 949.9,545.7 949.9,537 962.9,522.6 962.9,487.8 968.8,481.2 968.8,516.1 		
			"/>
		<polygon class="st1" points="949.9,537 949.9,545.7 925.3,545.7 925.3,565.4 949.9,565.4 949.9,572.9 920.1,572.9 920.1,545.7 
			897.4,545.7 897.4,537 920.1,537 920.1,502.1 925.3,502.1 925.3,537 		"/>
		<polygon class="st2" points="949.9,537 949.9,545.7 925.3,545.7 925.3,565.4 949.9,565.4 949.9,572.9 920.1,572.9 920.1,545.7 
			897.4,545.7 897.4,537 920.1,537 920.1,502.1 925.3,502.1 925.3,537 		"/>
		<polygon class="st1" points="966,547.6 966,565.6 975.9,554.8 975.9,563.6 966,574.4 966,596 962.9,599.5 962.9,577.9 
			949.9,592.2 949.9,583.5 962.9,569.1 962.9,558.6 949.9,572.9 949.9,565.4 		"/>
		<polygon class="st2" points="966,547.6 966,565.6 975.9,554.8 975.9,563.6 966,574.4 966,596 962.9,599.5 962.9,577.9 
			949.9,592.2 949.9,583.5 962.9,569.1 962.9,558.6 949.9,572.9 949.9,565.4 		"/>
		<polygon class="st5" points="975.9,473.4 996.7,477.1 996.7,512 975.9,508.3 		"/>
		<polygon class="st2" points="975.9,473.4 996.7,477.1 996.7,512 975.9,508.3 		"/>
		<polygon class="st5" points="975.9,517.1 996.7,520.7 996.7,558.5 975.9,554.8 		"/>
		<polygon class="st2" points="975.9,517.1 996.7,520.7 996.7,558.5 975.9,554.8 		"/>
		<rect x="925.3" y="545.7" class="st6" width="24.6" height="19.7"/>
		<rect x="925.3" y="545.7" class="st2" width="24.6" height="19.7"/>
		<polygon class="st5" points="968.8,481.2 975.9,473.4 975.9,508.3 968.8,516.1 		"/>
		<polygon class="st2" points="968.8,481.2 975.9,473.4 975.9,508.3 968.8,516.1 		"/>
		<polygon class="st5" points="966,527.9 975.9,517.1 975.9,554.8 966,565.6 966,547.6 949.9,565.4 949.9,545.7 		"/>
		<polygon class="st2" points="966,527.9 975.9,517.1 975.9,554.8 966,565.6 966,547.6 949.9,565.4 949.9,545.7 		"/>
		<rect x="897.4" y="592.2" class="st6" width="52.4" height="21.6"/>
		<rect x="897.4" y="592.2" class="st2" width="52.4" height="21.6"/>
		<rect x="897.4" y="502.1" class="st6" width="22.7" height="34.9"/>
		<rect x="897.4" y="502.1" class="st2" width="22.7" height="34.9"/>
		<polygon class="st5" points="962.9,577.9 949.9,592.2 949.9,613.8 962.9,599.5 		"/>
		<polygon class="st2" points="962.9,577.9 949.9,592.2 949.9,613.8 962.9,599.5 		"/>
		<polygon class="st5" points="1005,568.7 1023.3,572 1023.3,593.5 1005,590.3 		"/>
		<polygon class="st2" points="1005,568.7 1023.3,572 1023.3,593.5 1005,590.3 		"/>
		<path class="st1" d="M987.7,490.3c-8,4.6-14.5,15.9-14.5,25.2c0,9.3,6.5,13,14.5,8.4c8-4.6,14.5-15.9,14.5-25.2
			C1002.2,489.5,995.7,485.7,987.7,490.3 M987.7,542c-4.9-3.8-12-8-16.1-12.4c-2.4-2.6-3.6-6.3-3.6-11c0-12.6,8.8-27.9,19.7-34.2
			c10.9-6.3,19.7-1.2,19.7,11.4c-0.1,5.2-1.4,10.4-3.6,15.1C999.6,520.2,992.6,532.5,987.7,542"/>
		<path class="st2" d="M987.7,490.3c-8,4.6-14.5,15.9-14.5,25.2c0,9.3,6.5,13,14.5,8.4c8-4.6,14.5-15.9,14.5-25.2
			C1002.2,489.5,995.7,485.7,987.7,490.3z M987.7,542c-4.9-3.8-12-8-16.1-12.4c-2.4-2.6-3.6-6.3-3.6-11c0-12.6,8.8-27.9,19.7-34.2
			c10.9-6.3,19.7-1.2,19.7,11.4c-0.1,5.2-1.4,10.4-3.6,15.1C999.6,520.2,992.6,532.5,987.7,542z"/>
		<path class="st1" d="M987.7,497.1c-4.8,2.8-8.7,9.5-8.7,15c0,5.5,3.9,7.8,8.7,5s8.6-9.5,8.6-15
			C996.3,496.6,992.5,494.4,987.7,497.1"/>
		<path class="st2" d="M987.7,497.1c-4.8,2.8-8.7,9.5-8.7,15c0,5.5,3.9,7.8,8.7,5s8.6-9.5,8.6-15
			C996.3,496.6,992.5,494.4,987.7,497.1z"/>
		<path class="st5" d="M993.8,496.5c-4-2.3-6.8-4.9-12.4,0.4c-5.1,4.7-8.9,15.3-3.6,18.6l3.8,2.2
			C973.8,512.4,985.3,492.5,993.8,496.5"/>
		<path class="st2" d="M993.8,496.5c-4-2.3-6.8-4.9-12.4,0.4c-5.1,4.7-8.9,15.3-3.6,18.6l3.8,2.2
			C973.8,512.4,985.3,492.5,993.8,496.5z"/>
		<path class="st5" d="M967.8,527.4c-8.4-9.6-0.7-28,6.7-37c5-6,15.1-14.1,23.3-9.6l3.8,2.2c-10.6-5.5-22.8,7.4-27.9,16.1
			c-4.9,8.5-9.5,23.3-1.4,31.3c4,3.9,10.6,8,15.3,11.6c-3.1-1.7-6-3.7-8.9-5.8C974.9,533.6,971.2,530.6,967.8,527.4"/>
		<path class="st2" d="M967.8,527.4c-8.4-9.6-0.7-28,6.7-37c5-6,15.1-14.1,23.3-9.6l3.8,2.2c-10.6-5.5-22.8,7.4-27.9,16.1
			c-4.9,8.5-9.5,23.3-1.4,31.3c4,3.9,10.6,8,15.3,11.6c-3.1-1.7-6-3.7-8.9-5.8C974.9,533.6,971.2,530.6,967.8,527.4z"/>
		<path class="st5" d="M975.7,523.5c6,6.6,16.2-1.5,20.7-8l1.6-2.5c3.7-6.6,7.5-19,0-23.7c-0.6-0.4-1.3-0.6-2-0.8
			c4.9,4.8,1.9,15.8-1.2,21.5c-3.4,6.3-11.4,15.1-18.9,13.6L975.7,523.5z"/>
		<path class="st2" d="M975.7,523.5c6,6.6,16.2-1.5,20.7-8l1.6-2.5c3.7-6.6,7.5-19,0-23.7c-0.6-0.4-1.3-0.6-2-0.8
			c4.9,4.8,1.9,15.8-1.2,21.5c-3.4,6.3-11.4,15.1-18.9,13.6L975.7,523.5z"/>
	</g>
</g>
</svg>
