<?xml version="1.0" encoding="utf-8"?>
<!-- Generator: Adobe Illustrator 25.0.0, SVG Export Plug-In . SVG Version: 6.00 Build 0)  -->
<svg version="1.1" id="Layer_1" xmlns="http://www.w3.org/2000/svg" xmlns:xlink="http://www.w3.org/1999/xlink" x="0px" y="0px"
	 viewBox="0 0 1920 1080" style="enable-background:new 0 0 1920 1080;" xml:space="preserve">
<style type="text/css">
	.st0{opacity:0.3;fill:#3B77BB;enable-background:new    ;}
	.st1{fill-rule:evenodd;clip-rule:evenodd;fill:#9ACDEE;}
	.st2{fill:none;stroke:#2372B8;stroke-width:0.75;stroke-linecap:round;stroke-linejoin:round;}
	.st3{fill-rule:evenodd;clip-rule:evenodd;fill:#D9E7F5;}
	.st4{fill-rule:evenodd;clip-rule:evenodd;fill:#FFFFFF;}
</style>
<g id="Layer_2_1_">
	<g id="Layer_1-2">
		<circle class="st0" cx="959.5" cy="540" r="76.2"/>
		<path class="st1" d="M924.8,472.8c-4.8-2-8.9-1.4-13.6,0.4c-7.3,3.1-12.6,8-17.6,14.2c-5.1,6.5-8.8,13.9-11,21.9
			c-1.6,6.4-2.2,12-0.8,18.4c1.2,4.1,2.6,6.8,6,9.3l3.6,2.1l6.3,3.7l37-64.2L924.8,472.8z"/>
		<path class="st2" d="M924.8,472.8c-4.8-2-8.9-1.4-13.6,0.4c-7.3,3.1-12.6,8-17.6,14.2c-5.1,6.5-8.8,13.9-11,21.9
			c-1.6,6.4-2.2,12-0.8,18.4c1.2,4.1,2.6,6.8,6,9.3l3.6,2.1l6.3,3.7l37-64.2L924.8,472.8z"/>
		<path class="st3" d="M917.1,541.4c14.5-8.4,26.2-28.7,26.2-45.4c0-16.7-11.8-23.5-26.2-15.2c-14.5,8.3-26.2,28.8-26.2,45.5
			C890.9,543,902.6,549.8,917.1,541.4"/>
		<path class="st2" d="M917.1,541.4c14.5-8.4,26.2-28.7,26.2-45.4c0-16.7-11.8-23.5-26.2-15.2c-14.5,8.3-26.2,28.8-26.2,45.5
			C890.9,543,902.6,549.8,917.1,541.4z"/>
		<path class="st4" d="M928.8,487.2l-0.7-0.3c-2.4-0.8-4.9-0.8-7.3-0.1c-5.3,1.7-9.2,4.9-12.9,9c-5,5.7-8.5,12.6-10.1,20
			c-0.8,4.4-1,8.3,0.6,12.6c0.7,2,2,3.7,3.8,5l2.6,1.5l1,0.6c3.5,2.4,6,3.7,14-0.9c8-4.6,18.8-23.5,18.8-32.7s-2.4-10.8-6.3-12.6
			L928.8,487.2z"/>
		<path class="st2" d="M928.8,487.2l-0.7-0.3c-2.4-0.8-4.9-0.8-7.3-0.1c-5.3,1.7-9.2,4.9-12.9,9c-5,5.7-8.5,12.6-10.1,20
			c-0.8,4.4-1,8.3,0.6,12.6c0.7,2,2,3.7,3.8,5l2.6,1.5l1,0.6c3.5,2.4,6,3.7,14-0.9c8-4.6,18.8-23.5,18.8-32.7s-2.4-10.8-6.3-12.6
			L928.8,487.2z"/>
		<path class="st4" d="M945.5,586.8l-16.2-12.9l-20.8-39.4c-2.1-1.6-3.5-3.8-4.1-6.4c-1.2-5.5-0.2-10.7,1.6-16
			c1.7-4.5,4.2-8.8,7.2-12.5c12.9-15,41.5-9.9,57.8-4.8c2.7,0.8,4.9,2.7,6,5.3l3.8,8.2c1,2,1.2,4.2,0.7,6.3l-3.2,14.4l17.4,39.8
			L977.5,579c0.4,1.2-4,6.4-9,5c-0.7,1-0.2,3.4-5.8,3.2c0.2,1-1.1,2-3.6,2l-11.6-1.6C946.8,587.6,946.1,587.2,945.5,586.8"/>
		<path class="st2" d="M945.5,586.8l-16.2-12.9l-20.8-39.4c-2.1-1.6-3.5-3.8-4.1-6.4c-1.2-5.5-0.2-10.7,1.6-16
			c1.7-4.5,4.2-8.8,7.2-12.5c12.9-15,41.5-9.9,57.8-4.8c2.7,0.8,4.9,2.7,6,5.3l3.8,8.2c1,2,1.2,4.2,0.7,6.3l-3.2,14.4l17.4,39.8
			L977.5,579c0.4,1.2-4,6.4-9,5c-0.7,1-0.2,3.4-5.8,3.2c0.2,1-1.1,2-3.6,2l-11.6-1.6C946.8,587.6,946.1,587.3,945.5,586.8z"/>
		<path class="st2" d="M978.1,579c-4.7-0.1-9.5-0.1-13.9-4c-3.7-3.2-13.8-12.4-15.9-14.7"/>
		<path class="st4" d="M957.5,553.7c1.4,1.8,9.1,8.8,14.2,13.2c4.5,3.9,10.6,4.8,17.1,5.5"/>
		<path class="st2" d="M957.5,553.7c1.4,1.8,9.1,8.8,14.2,13.2c4.5,3.9,10.6,4.8,17.1,5.5"/>
		<path class="st3" d="M992.8,570.1l-10.4-8.1l-7.9-12.3l-6.9-7c-3.3-3.2-5.2-7.6-5.3-12.2l-0.4-8.7l-15-1.5l-5.9,7.1
			c-1.5,2-4,2.9-6.4,2.2L929,528c-0.9-0.3-1.5-1.2-1.2-2.2c0-0.1,0.1-0.3,0.2-0.4l11.7-18.4c0.8-1.3,2.1-2.3,3.6-2.6l25-3.9
			c0.6-0.1,1.1,0.2,1.5,0.6l15.1,13.3c13.1,11.5,6.9,11.3,19.9,14.4c4,1,6.1,2,12,4.2c9.2,18.1-4.6,31.4-18,35.6
			C998.7,568.6,994,570.6,992.8,570.1"/>
		<path class="st2" d="M992.8,570.1l-10.4-8.1l-7.9-12.3l-6.9-7c-3.3-3.2-5.2-7.6-5.3-12.2l-0.4-8.7l-15-1.5l-5.9,7.1
			c-1.5,2-4,2.9-6.4,2.2L929,528c-0.9-0.3-1.5-1.2-1.2-2.2c0-0.1,0.1-0.3,0.2-0.4l11.7-18.4c0.8-1.3,2.1-2.3,3.6-2.6l25-3.9
			c0.6-0.1,1.1,0.2,1.5,0.6l15.1,13.3c13.1,11.5,6.9,11.3,19.9,14.4c4,1,6.1,2,12,4.2c9.2,18.1-4.6,31.4-18,35.6
			C998.7,568.7,994,570.6,992.8,570.1z"/>
		<path class="st1" d="M1030.5,529.9l-10-5.8c-3.5-1.5-6.1-1.5-9.8-0.8c-5.7,1.4-9.9,4.1-14.4,7.9c-0.8,0.7-1.7,1.6-2.4,2.3
			c-6.6,6.7-11.6,14.8-14.6,23.8c-1.4,4.2-2.3,8.6-2.6,13.1c-0.1,6.9,0.9,13.6,6.8,18l9.9,5.7L1030.5,529.9z"/>
		<path class="st2" d="M1030.5,529.9l-10-5.8c-3.5-1.5-6.1-1.5-9.8-0.8c-5.7,1.4-9.9,4.1-14.4,7.9c-0.8,0.7-1.7,1.6-2.4,2.3
			c-6.6,6.7-11.6,14.8-14.6,23.8c-1.4,4.2-2.3,8.6-2.6,13.1c-0.1,6.9,0.9,13.6,6.8,18l9.9,5.7L1030.5,529.9z"/>
		<path class="st3" d="M1012.9,592.8c14.5-8.4,26.2-28.7,26.2-45.4c0-16.7-11.7-23.5-26.2-15.1s-26.2,28.7-26.2,45.4
			C986.6,594.3,998.4,601.1,1012.9,592.8"/>
		<path class="st2" d="M1012.9,592.8c14.5-8.4,26.2-28.7,26.2-45.4c0-16.7-11.7-23.5-26.2-15.1s-26.2,28.7-26.2,45.4
			C986.6,594.3,998.4,601.1,1012.9,592.8z"/>
		<path class="st3" d="M935.7,578.8l-7.7-0.2c-1.1,0-2.2-0.5-3-1.2l-1.2-1.1c-1-0.9-1.6-2.2-1.6-3.5v-3l-0.7-0.2
			c-1-0.2-1.8-0.8-2.4-1.6l-2.1-2.6c-0.7-0.8-1-1.8-1.1-2.8l-0.1-2.1l-0.8-0.3c-1.1-0.4-2.1-1.2-2.7-2.2l-1.3-2.2
			c-0.9-1.4-1.3-3.1-1.2-4.7l0.1-1c-3.1-1.4-5.1-4.5-5-7.9l0-2.3l0.3-4.9c0.3-2.7,1.3-3.3,3.5-3.5c1-0.1,2.1,0.1,3.1,0.5l1.2,0.6
			c1,0.4,1.8,1.1,2.4,2c0.6,0.9,1,1.9,1.1,3l0.1,0.7v2.4l1.5,0.7l1.6,1.4c1.3,1.1,2,2.7,1.9,4.4l-0.1,4.4c0.7,0.3,1.3,0.7,1.9,1.2
			l1.6,1.2c1.4,1.2,2.1,3,2.1,4.9l-0.2,5.5c1.9,0.1,2.7,0.7,4.4,2.1c1.1,0.9,1.8,2.1,2,3.5l0.7,4.6L935.7,578.8z"/>
		<path class="st2" d="M935.7,578.8l-7.7-0.2c-1.1,0-2.2-0.5-3-1.2l-1.2-1.1c-1-0.9-1.6-2.2-1.6-3.5v-3l-0.7-0.2
			c-1-0.2-1.8-0.8-2.4-1.6l-2.1-2.6c-0.7-0.8-1-1.8-1.1-2.8l-0.1-2.1l-0.8-0.3c-1.1-0.4-2.1-1.2-2.7-2.2l-1.3-2.2
			c-0.9-1.4-1.3-3.1-1.2-4.7l0.1-1c-3.1-1.4-5.1-4.5-5-7.9l0-2.3l0.3-4.9c0.3-2.7,1.3-3.3,3.5-3.5c1-0.1,2.1,0.1,3.1,0.5l1.2,0.6
			c1,0.4,1.8,1.1,2.4,2c0.6,0.9,1,1.9,1.1,3l0.1,0.7v2.4l1.5,0.7l1.6,1.4c1.3,1.1,2,2.7,1.9,4.4l-0.1,4.4c0.7,0.3,1.3,0.7,1.9,1.2
			l1.6,1.2c1.4,1.2,2.1,3,2.1,4.9l-0.2,5.5c1.9,0.1,2.7,0.7,4.4,2.1c1.1,0.9,1.8,2.1,2,3.5l0.7,4.6L935.7,578.8z"/>
		<path class="st4" d="M906.3,534.5l3.3,2.6l-0.4,5.7c0,0.1-0.2,0.2-0.3,0.2s-0.4-0.3-0.5-0.4l-1.4-1.4c-0.5-0.4-0.8-0.9-0.9-1.5
			L906.3,534.5z"/>
		<path class="st2" d="M906.3,534.5l3.3,2.6l-0.4,5.7c0,0.1-0.2,0.2-0.3,0.2s-0.4-0.3-0.5-0.4l-1.4-1.4c-0.5-0.4-0.8-0.9-0.9-1.5
			L906.3,534.5z"/>
		<path class="st4" d="M910.9,543.4l3.8,2.6v5c0,0.2-0.2,0.4-0.4,0.4h-0.5c-0.7,0-1.5-0.3-1.9-0.9l-0.4-0.4
			c-0.4-0.5-0.6-1.1-0.6-1.7L910.9,543.4z"/>
		<path class="st2" d="M910.9,543.4l3.8,2.6v5c0,0.2-0.2,0.4-0.4,0.4h-0.5c-0.7,0-1.5-0.3-1.9-0.9l-0.4-0.4
			c-0.4-0.5-0.6-1.1-0.6-1.7L910.9,543.4z"/>
		<path class="st4" d="M917.4,554.1l3.8,2.9v4.6c0,0.1,0,0.2-0.1,0.3c-0.1,0.1-0.2,0.1-0.3,0.1h-0.5c-0.7,0-1.4-0.3-1.9-0.9
			l-0.3-0.4c-0.4-0.5-0.7-1.1-0.6-1.7V554.1z"/>
		<path class="st2" d="M917.4,554.1l3.8,2.9v4.6c0,0.1,0,0.2-0.1,0.3c-0.1,0.1-0.2,0.1-0.3,0.1h-0.5c-0.7,0-1.4-0.3-1.9-0.9
			l-0.3-0.4c-0.4-0.5-0.7-1.1-0.6-1.7V554.1z"/>
		<path class="st4" d="M923.7,566.5l3.8,2.8l-0.3,4c0,0.2-0.2,0.4-0.4,0.4h-0.5c-0.7,0-1.5-0.3-1.9-0.9l0,0
			c-0.4-0.8-0.6-1.6-0.6-2.5L923.7,566.5z"/>
		<path class="st2" d="M923.7,566.5l3.8,2.8l-0.3,4c0,0.2-0.2,0.4-0.4,0.4h-0.5c-0.7,0-1.5-0.3-1.9-0.9l0,0
			c-0.4-0.8-0.6-1.6-0.6-2.5L923.7,566.5z"/>
		<path class="st3" d="M916.7,540.5c-0.6,0.1-1.3,0.1-1.9,0.3c-1.3,0.3-2.9,0.8-3.7,1.8s-0.9,5.9-1,7.4
			C909.8,543.6,908.6,540.2,916.7,540.5"/>
		<path class="st2" d="M916.7,540.5c-0.6,0.1-1.3,0.1-1.9,0.3c-1.3,0.3-2.9,0.8-3.7,1.8s-0.9,5.9-1,7.4
			C909.8,543.6,908.5,540.2,916.7,540.5z"/>
		<path class="st4" d="M932.5,518l3,0.3c0.3,0,0.5,0.2,0.6,0.4c0.9,1.5-4.8,7.1-5.8,8.3l-3.7-0.8c1.2-2.9,2.9-5.6,5-7.9
			C931.8,518.1,932.1,518,932.5,518"/>
		<path class="st2" d="M932.5,518l3,0.3c0.3,0,0.5,0.2,0.6,0.4c0.9,1.5-4.8,7.1-5.8,8.3l-3.7-0.8c1.2-2.9,2.9-5.6,5-7.9
			C931.8,518.1,932.1,518,932.5,518z"/>
		<path class="st3" d="M921.5,551.4c-1.8,0.2-4,0.7-4.8,2.3c-0.5,1.1-0.7,5.3-0.8,6.7C915.7,555.8,914.4,551.1,921.5,551.4"/>
		<path class="st2" d="M921.5,551.4c-1.8,0.2-4,0.7-4.8,2.3c-0.5,1.1-0.7,5.3-0.8,6.7C915.7,555.8,914.4,551.1,921.5,551.4z"/>
		<path class="st3" d="M926.8,564.2c-4.3,0.3-4.3,2.1-4.6,5.7C922.1,565.5,921.7,564,926.8,564.2"/>
		<path class="st2" d="M926.8,564.2c-4.3,0.3-4.3,2.1-4.6,5.7C922.1,565.5,921.7,564,926.8,564.2z"/>
		<path class="st3" d="M945.7,516.8c0.3,0.9,1.6,3.3-0.2,5.4c1-1.1,2.5-1.7,4-1.6C947.2,520,946.5,518.1,945.7,516.8"/>
		<path class="st2" d="M945.7,516.8c0.3,0.9,1.6,3.3-0.2,5.4c1-1.1,2.5-1.7,4-1.6C947.2,520,946.5,518.1,945.7,516.8z"/>
		<path class="st3" d="M965.6,520c-1.5,0.8-2.1,1.4-6,1.6c3.2,0.3,2.1,1.4,2.5,3.3C962.2,521.9,964,521.4,965.6,520"/>
		<path class="st2" d="M965.6,520c-1.5,0.8-2.1,1.4-6,1.6c3.2,0.3,2.1,1.4,2.5,3.3C962.2,521.9,964,521.4,965.6,520z"/>
		<path class="st4" d="M943.5,566.5c1.4,1.8,7.8,9.3,11.4,12.5c3.6,3.1,7.9,4.7,13.4,5.1"/>
		<path class="st2" d="M943.5,566.5c1.4,1.8,7.8,9.3,11.4,12.5c3.6,3.1,7.9,4.7,13.4,5.1"/>
		<path class="st4" d="M938.5,573.3c1.6,1.8,6.8,6.7,10,9.5c3.4,3,9.2,3.9,13.9,4.4"/>
		<path class="st2" d="M938.5,573.3c1.6,1.8,6.8,6.7,10,9.5c3.4,3,9.2,3.9,13.9,4.4"/>
	</g>
</g>
</svg>
