<svg xmlns="http://www.w3.org/2000/svg" xmlns:xlink="http://www.w3.org/1999/xlink" viewBox="0 0 1280.32 470.58"><defs><style>.cls-1{fill:url(#linear-gradient);}.cls-2{fill:none;}.cls-3{isolation:isolate;}.cls-4{clip-path:url(#clip-path);}.cls-5{mask:url(#mask);}.cls-6{fill:url(#linear-gradient-2);}.cls-7{mix-blend-mode:screen;}.cls-8{fill:#3aa1ff;}.cls-9{fill:#003d87;}.cls-10{fill:#0072c8;}</style><linearGradient id="linear-gradient" x1="550.33" y1="231.97" x2="993.28" y2="274.53" gradientTransform="translate(814.91 -345.26) rotate(90)" gradientUnits="userSpaceOnUse"><stop offset="0.21" stop-color="#fff"/><stop offset="0.26" stop-color="#f7f7f7"/><stop offset="0.34" stop-color="#e2e2e2"/><stop offset="0.44" stop-color="#bfbfbf"/><stop offset="0.55" stop-color="#8e8e8e"/><stop offset="0.67" stop-color="#4f4f4f"/><stop offset="0.8" stop-color="#040404"/><stop offset="0.8"/></linearGradient><clipPath id="clip-path"><polygon class="cls-2" points="1280.32 470.58 0 470.58 0 0 1280.32 2.02 1280.32 470.58"/></clipPath><mask id="mask" x="0" y="-42.92" width="1159.82" height="555.49" maskUnits="userSpaceOnUse"><rect class="cls-1" x="302.34" y="-344.91" width="555.49" height="1159.46" transform="translate(345.26 814.91) rotate(-90)"/></mask><linearGradient id="linear-gradient-2" x1="579.88" y1="470.94" x2="579.88" gradientUnits="userSpaceOnUse"><stop offset="0" stop-color="#003d87"/><stop offset="0.07" stop-color="#004895"/><stop offset="0.24" stop-color="#005fb1"/><stop offset="0.39" stop-color="#006dc2"/><stop offset="0.5" stop-color="#0072c8"/><stop offset="0.59" stop-color="#006dc2"/><stop offset="0.71" stop-color="#005eb0"/><stop offset="0.85" stop-color="#004793"/><stop offset="0.9" stop-color="#003d87"/></linearGradient></defs><g class="cls-3"><g id="Layer_1" data-name="Layer 1"><g class="cls-4"><image width="5670" height="3785" transform="translate(566.47 -38.72) scale(0.14)" xlink:href="../links/shutterstock_2107193177.jpg"/><g class="cls-5"><rect class="cls-6" width="1159.75" height="470.94"/></g></g><g class="cls-7"><circle class="cls-8" cx="753.78" cy="149.15" r="5.15"/><circle class="cls-9" cx="541.46" cy="246.5" r="5.15"/><circle class="cls-9" cx="666.88" cy="184.68" r="5.15"/><circle class="cls-9" cx="704.81" cy="200.05" r="5.15"/><circle class="cls-9" cx="661.73" cy="246.5" r="5.15"/><circle class="cls-9" cx="664.86" cy="327.63" r="7.1" transform="translate(192.72 899.01) rotate(-76.67)"/><circle class="cls-10" cx="729.54" cy="301.07" r="7.1" transform="translate(0.78 604.04) rotate(-45)"/><circle class="cls-10" cx="707.34" cy="246.5" r="5.15"/><circle class="cls-10" cx="621.64" cy="327.63" r="7.1" transform="translate(-49.6 535.53) rotate(-45)"/><circle class="cls-10" cx="748.63" cy="261.51" r="5.15"/><circle class="cls-8" cx="664.86" cy="384.05" r="5.15"/><circle class="cls-10" cx="745.3" cy="198.27" r="7.1" transform="translate(380.49 877.75) rotate(-76.67)"/><circle class="cls-10" cx="666.88" cy="131.02" r="7.1" transform="translate(430.44 768.2) rotate(-80.76)"/><circle class="cls-10" cx="623.56" cy="205.93" r="7.1" transform="translate(29.18 485.12) rotate(-43.44)"/><rect class="cls-10" x="664.06" y="285.24" width="1.6" height="23.18"/><rect class="cls-9" x="730.6" y="231.92" width="1.6" height="19.65"/><rect class="cls-10" x="554.5" y="245.7" width="40.78" height="1.6"/><rect class="cls-8" x="747.83" y="270.46" width="1.6" height="19.62"/><rect class="cls-8" x="600.8" y="236.69" width="1.6" height="19.62"/><rect class="cls-8" x="664.06" y="344.47" width="1.6" height="15.8"/><rect class="cls-8" x="720.77" y="260.71" width="15.8" height="1.6"/><rect class="cls-9" x="666.08" y="146.56" width="1.6" height="15.8"/><rect class="cls-10" x="723.56" y="224.85" width="15.67" height="1.6"/><rect class="cls-8" x="679.2" y="245.7" width="15.8" height="1.6"/><rect class="cls-9" x="608.55" y="245.7" width="36.29" height="1.6"/><rect class="cls-10" x="740.91" y="300.28" width="16.78" height="1.6"/><rect class="cls-10" x="632.07" y="326.84" width="10.94" height="1.6"/><rect class="cls-10" x="659.39" y="368.78" width="10.94" height="1.6"/><rect class="cls-10" x="744.5" y="218.74" width="1.6" height="10.94"/><path class="cls-8" d="M803.26,307.62a15.48,15.48,0,0,0-13.83,8.47l-6.27,12.27a13.53,13.53,0,0,1-12.1,7.41H751.35v1.6h19.71a15.15,15.15,0,0,0,13.53-8.28l6.26-12.27a13.88,13.88,0,0,1,12.41-7.6h9.85v-1.6Z"/><path class="cls-9" d="M713.86,335.77a10.81,10.81,0,0,1-10.8-10.8V312.68a10.81,10.81,0,0,1,10.8-10.81H719v-1.59h-5.13a12.41,12.41,0,0,0-12.4,12.4V325a12.42,12.42,0,0,0,12.4,12.4h31.58v-1.6Z"/><path class="cls-8" d="M718.12,226.45h-2.68A11.45,11.45,0,0,1,704,215V208h1.6V215a9.84,9.84,0,0,0,9.83,9.83h2.68Z"/><rect class="cls-8" x="644.85" y="159.89" width="15.63" height="1.6"/><path class="cls-9" d="M786.44,159.46h-1.6v-1.59a7.92,7.92,0,0,0-7.91-7.92H764.39v-1.6h12.54a9.53,9.53,0,0,1,9.51,9.52Z"/><path class="cls-10" d="M665.66,278.13h-1.6v-3.24a14.19,14.19,0,0,1,14.18-14.18h34.25v1.6H678.24a12.59,12.59,0,0,0-12.58,12.58Z"/></g></g></g></svg>