<svg width="192" height="192" viewBox="0 0 192 192" fill="none" xmlns="http://www.w3.org/2000/svg">
<path d="M191.671 95.8348C191.671 148.763 148.764 191.669 95.8347 191.669C42.9067 191.669 0 148.763 0 95.8348C0 42.9068 42.9067 0.00011315 95.8347 0.00011315C148.764 0.00011315 191.671 42.9068 191.671 95.8348Z" fill="#0072C8"/>
<path d="M171.223 84.0483C171.009 84.0308 170.779 83.9263 170.601 83.7928C161.141 76.6495 151.687 69.4975 142.227 62.3528C141.935 62.1321 141.571 61.7838 141.295 61.836C140.84 61.9202 140.264 62.1684 140.035 62.556C139.645 63.215 139.985 63.8508 140.559 64.2848C142.359 65.6464 144.161 67.0037 145.963 68.3624C152.444 73.247 158.925 78.1316 165.407 83.0191C165.608 83.1715 165.796 83.3442 166.228 83.7071C163.733 83.5388 161.528 83.395 159.323 83.2412C151.584 82.7026 143.847 82.1568 136.109 81.6197C134.868 81.5327 133.625 81.4877 132.387 81.3759C132.148 81.3541 131.857 81.1581 131.708 80.9448C123.201 68.7514 114.707 56.5464 106.211 44.3429C105.997 44.0366 105.793 43.7231 105.499 43.2832C105.836 43.2339 106.04 43.1656 106.239 43.1802C117.732 43.9887 129.224 44.8059 140.716 45.613C143.427 45.8032 146.139 45.9483 148.848 46.1443C149.093 46.1617 149.408 46.3214 149.553 46.529C157.983 58.6077 166.397 70.698 174.812 82.7883C175.123 83.2354 175.423 83.6912 175.896 84.3923C174.148 84.2675 172.684 84.1702 171.223 84.0483ZM171.216 109.003C171.519 111.135 171.973 113.241 172.381 115.448H167.252C167.595 113.221 167.848 110.971 168.337 108.783C168.471 108.182 169.303 107.387 169.832 107.371C170.468 107.352 171.076 108.013 171.216 109.003M161.885 86.9282C159.351 92.0741 156.772 97.1968 154.3 102.378C153.517 104.019 152.345 104.9 150.797 105.347C148.441 106.028 146.063 105.963 143.689 105.488C129.371 102.618 117.151 95.4883 107.047 84.07C105.535 82.3615 104.281 80.4686 103.439 78.2651C102.653 76.2097 102.572 74.2834 103.732 72.2686C104.987 70.0854 106.935 65.854 108.125 63.4313C109.255 61.1494 110.391 58.8544 111.568 56.4738C111.839 56.8309 112.049 57.0893 112.24 57.3622C114.121 60.0564 116.008 62.7462 117.879 65.449C121.873 71.2249 125.857 77.008 129.849 82.7839C130.413 83.6012 131.161 84.0497 132.121 84.0323C132.513 84.025 132.908 84.0105 133.299 84.0367C141.201 84.5868 149.104 85.1384 157.008 85.6958C158.716 85.8163 160.424 85.9528 162.247 86.0921C162.076 86.4898 161.991 86.7148 161.885 86.9282M149.971 148.225C149.937 149.068 149.393 149.551 148.62 149.659C148.329 149.699 148.032 149.683 147.737 149.683C111.579 149.685 75.4188 149.685 39.2601 149.678C38.8081 149.678 38.2735 149.73 37.9255 149.496C37.5281 149.228 37.0615 148.686 37.0308 148.232C36.9241 146.612 36.9895 144.977 36.9895 143.27C37.3948 143.251 37.7121 143.221 38.0295 143.221C52.3628 143.221 66.6961 143.225 81.0281 143.214C81.6561 143.214 82.1108 143.312 82.4961 143.963C83.0695 144.931 84.0241 145.26 85.0548 145.26C90.7161 145.262 96.3775 145.255 102.039 145.25C103.049 145.249 103.947 144.873 104.5 143.961C104.887 143.324 105.315 143.193 105.952 143.195C119.761 143.211 133.571 143.206 147.38 143.208H149.989C149.989 144.969 150.033 146.599 149.971 148.225M37.0201 71.2931H101.369C101.005 72.3615 100.651 73.4052 100.249 74.5882H37.0201V71.2931ZM149.957 137.268V140.601H148.836C134.109 140.602 119.383 140.607 104.655 140.594C103.688 140.594 102.912 140.689 102.716 141.997C102.676 142.259 102.025 142.576 101.652 142.584C98.8055 142.633 95.9588 142.613 93.1108 142.614C90.5255 142.614 87.9401 142.603 85.3548 142.616C84.7828 142.619 84.3068 142.556 84.1988 141.798C84.0588 140.816 83.4388 140.588 82.6268 140.594C80.0415 140.612 77.4561 140.604 74.8708 140.604C62.7615 140.604 50.6521 140.604 38.5428 140.604H37.0348V137.268H149.957ZM37.0348 134.516V77.3753C37.3788 77.3564 37.6961 77.3216 38.0121 77.3216C58.4988 77.3201 78.9868 77.3274 99.4735 77.2984C100.339 77.2969 100.693 77.5466 100.961 78.464C101.951 81.8433 103.977 84.4924 106.244 86.9558C116.525 98.1331 128.813 105.149 143.092 108.031C144.213 108.258 145.361 108.362 146.503 108.432C147.609 108.499 148.723 108.447 149.965 108.447V134.516H37.0348ZM177.604 82.437C174.96 78.673 172.341 74.8902 169.711 71.116C168.464 69.3277 167.223 67.535 165.952 65.7698C165.736 65.4693 155.384 50.4788 151.416 44.7275C150.868 43.9335 150.149 43.5213 149.241 43.4719C146.76 43.3369 144.276 43.2222 141.796 43.051C129.907 42.2308 118.02 41.4034 106.133 40.5484C104.923 40.4628 103.996 40.8416 103.433 42.016C102.876 43.1773 103.061 44.2413 103.809 45.2864C105.72 47.9559 107.56 50.6834 109.471 53.3529C109.88 53.9234 109.912 54.3458 109.587 54.9613C108.825 56.4056 108.112 57.8804 107.396 59.3523C107.073 59.9983 103.821 66.455 103.499 67.2984C103.107 68.3275 102.503 68.6222 101.48 68.6193C80.1375 68.5845 58.7948 68.5946 37.4521 68.5845C36.4868 68.583 35.5361 68.702 35.0401 69.6601C34.7081 70.3002 34.5575 71.1349 34.5575 71.8825C34.5335 96.9718 34.5388 122.061 34.5361 147.15C34.5361 150.657 36.0615 152.34 39.2681 152.34H112.528H147.488C150.997 152.338 152.459 150.761 152.457 146.978C152.457 145.197 152.463 143.414 152.463 141.631C152.463 130.585 152.465 119.537 152.448 108.489C152.447 107.851 152.549 107.449 153.145 107.176C154.588 106.516 155.573 105.34 156.309 103.826C159.033 98.226 161.805 92.6518 164.581 87.0792C164.741 86.7569 165.097 86.3374 165.369 86.3302C166.436 86.3069 167.507 86.4318 168.561 86.4985C168.611 86.7047 168.655 86.8019 168.657 86.9021C168.773 92.6373 168.895 98.374 168.972 104.111C168.977 104.418 168.665 104.845 168.393 105.025C166.889 106.027 165.792 107.268 165.775 109.347C165.768 110.087 165.636 110.839 165.48 111.563C165.169 113.002 164.801 114.424 164.456 115.86C165.872 115.953 165.891 115.975 166.392 118.108C168.727 118.108 171.076 118.132 173.423 118.101C175.051 118.079 175.6 117.015 175.132 115.291C174.541 113.115 174.023 110.906 173.639 108.677C173.425 107.438 173.033 106.422 172.08 105.734C171.511 105.323 171.389 104.802 171.383 104.111C171.344 100.654 171.252 97.1997 171.209 93.7434C171.181 91.4383 171.204 89.1332 171.204 86.7134C172.632 86.8019 174.028 86.8643 175.42 86.9834C176.54 87.0806 177.32 86.5552 177.828 85.5274C178.356 84.462 178.308 83.44 177.604 82.437" fill="#F4F6F9"/>
<path d="M171.223 84.0483C171.009 84.0308 170.779 83.9263 170.601 83.7928C161.141 76.6495 151.687 69.4975 142.227 62.3528C141.935 62.1321 141.571 61.7838 141.295 61.836C140.84 61.9202 140.264 62.1684 140.035 62.556C139.645 63.215 139.985 63.8508 140.559 64.2848C142.359 65.6464 144.161 67.0037 145.963 68.3624C152.444 73.247 158.925 78.1316 165.407 83.0191C165.608 83.1715 165.796 83.3442 166.228 83.7071C163.733 83.5388 161.528 83.395 159.323 83.2412C151.584 82.7026 143.847 82.1568 136.109 81.6197C134.868 81.5327 133.625 81.4877 132.387 81.3759C132.148 81.3541 131.857 81.1581 131.708 80.9448C123.201 68.7514 114.707 56.5464 106.211 44.3429C105.997 44.0366 105.793 43.7231 105.499 43.2832C105.836 43.2339 106.04 43.1656 106.239 43.1802C117.732 43.9887 129.224 44.8059 140.716 45.613C143.427 45.8032 146.139 45.9483 148.848 46.1443C149.093 46.1617 149.408 46.3214 149.553 46.529C157.983 58.6077 166.397 70.698 174.812 82.7883C175.123 83.2354 175.423 83.6912 175.896 84.3923C174.148 84.2675 172.684 84.1702 171.223 84.0483ZM171.216 109.003C171.519 111.135 171.973 113.241 172.381 115.448H167.252C167.595 113.221 167.848 110.971 168.337 108.783C168.471 108.182 169.303 107.387 169.832 107.371C170.468 107.352 171.076 108.013 171.216 109.003V109.003ZM161.885 86.9282C159.351 92.0741 156.772 97.1968 154.3 102.378C153.517 104.019 152.345 104.9 150.797 105.347C148.441 106.028 146.063 105.963 143.689 105.488C129.371 102.618 117.151 95.4883 107.047 84.07C105.535 82.3615 104.281 80.4686 103.439 78.2651C102.653 76.2097 102.572 74.2834 103.732 72.2686C104.987 70.0854 106.935 65.854 108.125 63.4313C109.255 61.1494 110.391 58.8544 111.568 56.4738C111.839 56.8309 112.049 57.0893 112.24 57.3622C114.121 60.0564 116.008 62.7462 117.879 65.449C121.873 71.2249 125.857 77.008 129.849 82.7839C130.413 83.6012 131.161 84.0497 132.121 84.0323C132.513 84.025 132.908 84.0105 133.299 84.0367C141.201 84.5868 149.104 85.1384 157.008 85.6958C158.716 85.8163 160.424 85.9528 162.247 86.0921C162.076 86.4898 161.991 86.7148 161.885 86.9282V86.9282ZM149.971 148.225C149.937 149.068 149.393 149.551 148.62 149.659C148.329 149.699 148.032 149.683 147.737 149.683C111.579 149.685 75.4188 149.685 39.2601 149.678C38.8081 149.678 38.2735 149.73 37.9255 149.496C37.5281 149.228 37.0615 148.686 37.0308 148.232C36.9241 146.612 36.9895 144.977 36.9895 143.27C37.3948 143.251 37.7121 143.221 38.0295 143.221C52.3628 143.221 66.6961 143.225 81.0281 143.214C81.6561 143.214 82.1108 143.312 82.4961 143.963C83.0695 144.931 84.0241 145.26 85.0548 145.26C90.7161 145.262 96.3775 145.255 102.039 145.25C103.049 145.249 103.947 144.873 104.5 143.961C104.887 143.324 105.315 143.193 105.952 143.195C119.761 143.211 133.571 143.206 147.38 143.208H149.989C149.989 144.969 150.033 146.599 149.971 148.225V148.225ZM37.0201 71.2931H101.369C101.005 72.3615 100.651 73.4052 100.249 74.5882H37.0201V71.2931ZM149.957 137.268V140.601H148.836C134.109 140.602 119.383 140.607 104.655 140.594C103.688 140.594 102.912 140.689 102.716 141.997C102.676 142.259 102.025 142.576 101.652 142.584C98.8055 142.633 95.9588 142.613 93.1108 142.614C90.5255 142.614 87.9401 142.603 85.3548 142.616C84.7828 142.619 84.3068 142.556 84.1988 141.798C84.0588 140.816 83.4388 140.588 82.6268 140.594C80.0415 140.612 77.4561 140.604 74.8708 140.604C62.7615 140.604 50.6521 140.604 38.5428 140.604H37.0348V137.268H149.957ZM37.0348 134.516V77.3753C37.3788 77.3564 37.6961 77.3216 38.0121 77.3216C58.4988 77.3201 78.9868 77.3274 99.4735 77.2984C100.339 77.2969 100.693 77.5466 100.961 78.464C101.951 81.8433 103.977 84.4924 106.244 86.9558C116.525 98.1331 128.813 105.149 143.092 108.031C144.213 108.258 145.361 108.362 146.503 108.432C147.609 108.499 148.723 108.447 149.965 108.447V134.516H37.0348ZM177.604 82.437C174.96 78.673 172.341 74.8902 169.711 71.116C168.464 69.3277 167.223 67.535 165.952 65.7698C165.736 65.4693 155.384 50.4788 151.416 44.7275C150.868 43.9335 150.149 43.5213 149.241 43.4719C146.76 43.3369 144.276 43.2222 141.796 43.051C129.907 42.2308 118.02 41.4034 106.133 40.5484C104.923 40.4628 103.996 40.8416 103.433 42.016C102.876 43.1773 103.061 44.2413 103.809 45.2864C105.72 47.9559 107.56 50.6834 109.471 53.3529C109.88 53.9234 109.912 54.3458 109.587 54.9613C108.825 56.4056 108.112 57.8804 107.396 59.3523C107.073 59.9983 103.821 66.455 103.499 67.2984C103.107 68.3275 102.503 68.6222 101.48 68.6193C80.1375 68.5845 58.7948 68.5946 37.4521 68.5845C36.4868 68.583 35.5361 68.702 35.0401 69.6601C34.7081 70.3002 34.5575 71.1349 34.5575 71.8825C34.5335 96.9718 34.5388 122.061 34.5361 147.15C34.5361 150.657 36.0615 152.34 39.2681 152.34H112.528H147.488C150.997 152.338 152.459 150.761 152.457 146.978C152.457 145.197 152.463 143.414 152.463 141.631C152.463 130.585 152.465 119.537 152.448 108.489C152.447 107.851 152.549 107.449 153.145 107.176C154.588 106.516 155.573 105.34 156.309 103.826C159.033 98.226 161.805 92.6518 164.581 87.0792C164.741 86.7569 165.097 86.3374 165.369 86.3302C166.436 86.3069 167.507 86.4318 168.561 86.4985C168.611 86.7047 168.655 86.8019 168.657 86.9021C168.773 92.6373 168.895 98.374 168.972 104.111C168.977 104.418 168.665 104.845 168.393 105.025C166.889 106.027 165.792 107.268 165.775 109.347C165.768 110.087 165.636 110.839 165.48 111.563C165.169 113.002 164.801 114.424 164.456 115.86C165.872 115.953 165.891 115.975 166.392 118.108C168.727 118.108 171.076 118.132 173.423 118.101C175.051 118.079 175.6 117.015 175.132 115.291C174.541 113.115 174.023 110.906 173.639 108.677C173.425 107.438 173.033 106.422 172.08 105.734C171.511 105.323 171.389 104.802 171.383 104.111C171.344 100.654 171.252 97.1997 171.209 93.7434C171.181 91.4383 171.204 89.1332 171.204 86.7134C172.632 86.8019 174.028 86.8643 175.42 86.9834C176.54 87.0806 177.32 86.5552 177.828 85.5274C178.356 84.462 178.308 83.44 177.604 82.437V82.437Z" stroke="#F4F6F9" stroke-width="1.99867" stroke-miterlimit="10" stroke-linecap="round" stroke-linejoin="round"/>
<path d="M102.865 98.082C102.569 97.889 102.101 97.9862 101.711 97.9862C89.86 97.9833 78.0107 97.9833 66.1613 97.9877C65.8347 97.9877 65.4067 97.8861 65.204 98.069C64.8227 98.413 64.3507 98.9196 64.3347 99.3768C64.32 99.7659 64.8347 100.274 65.2227 100.553C65.4773 100.737 65.9227 100.618 66.2827 100.618C72.1747 100.619 78.0667 100.619 83.9587 100.618C89.9493 100.617 95.9387 100.618 101.929 100.615C102.256 100.615 102.684 100.72 102.885 100.54C103.271 100.194 103.744 99.6918 103.768 99.2302C103.787 98.8543 103.259 98.339 102.865 98.082Z" fill="#F6AE2D"/>
<path d="M102.865 98.082C102.569 97.889 102.101 97.9862 101.711 97.9862C89.86 97.9833 78.0107 97.9833 66.1613 97.9877C65.8347 97.9877 65.4067 97.8861 65.204 98.069C64.8227 98.413 64.3507 98.9196 64.3347 99.3768C64.32 99.7659 64.8347 100.274 65.2227 100.553C65.4773 100.737 65.9227 100.618 66.2827 100.618C72.1747 100.619 78.0667 100.619 83.9587 100.618C89.9493 100.617 95.9387 100.618 101.929 100.615C102.256 100.615 102.684 100.72 102.885 100.54C103.271 100.194 103.744 99.6918 103.768 99.2302C103.787 98.8543 103.259 98.339 102.865 98.082Z" stroke="#F6AE2D" stroke-width="1.99867" stroke-miterlimit="10" stroke-linecap="round" stroke-linejoin="round"/>
<path d="M102.865 119.657C102.569 119.464 102.101 119.561 101.711 119.561C89.8601 119.558 78.0107 119.559 66.1614 119.562C65.8561 119.562 65.4627 119.477 65.2481 119.616C64.6587 119.726 64.2907 120.128 64.2747 120.841C64.2574 121.616 64.6454 122.04 65.2801 122.158C65.4907 122.267 65.7974 122.224 66.0854 122.201C66.2507 122.2 66.4147 122.197 66.5787 122.197C78.3201 122.198 90.0614 122.198 101.803 122.198H102.124C102.327 122.213 102.541 122.238 102.708 122.198H102.739C102.737 122.195 102.737 122.193 102.736 122.19C102.793 122.174 102.845 122.15 102.885 122.114C103.271 121.77 103.744 121.266 103.768 120.805C103.787 120.429 103.259 119.914 102.865 119.657Z" fill="#F6AE2D"/>
<path d="M102.865 119.657C102.569 119.464 102.101 119.561 101.711 119.561C89.8601 119.558 78.0107 119.559 66.1614 119.562C65.8561 119.562 65.4627 119.477 65.2481 119.616C64.6587 119.726 64.2907 120.128 64.2747 120.841C64.2574 121.616 64.6454 122.04 65.2801 122.158C65.4907 122.267 65.7974 122.224 66.0854 122.201C66.2507 122.2 66.4147 122.197 66.5787 122.197C78.3201 122.198 90.0614 122.198 101.803 122.198H102.124C102.327 122.213 102.541 122.238 102.708 122.198H102.739C102.737 122.195 102.737 122.193 102.736 122.19C102.793 122.174 102.845 122.15 102.885 122.114C103.271 121.77 103.744 121.266 103.768 120.805C103.787 120.429 103.259 119.914 102.865 119.657Z" stroke="#F6AE2D" stroke-width="1.99867" stroke-miterlimit="10" stroke-linecap="round" stroke-linejoin="round"/>
<path d="M65.3596 112.518C65.5516 112.553 65.7516 112.537 65.9476 112.537C75.4649 112.538 84.9823 112.538 94.4996 112.535C94.8569 112.535 95.2943 112.631 95.5556 112.448C95.9463 112.174 96.4449 111.708 96.4689 111.296C96.4929 110.879 96.0503 110.355 95.6996 110.018C95.5036 109.83 95.0769 109.898 94.7529 109.898C90.0116 109.892 85.2689 109.894 80.5263 109.894C75.7849 109.892 71.0423 109.891 66.2996 109.892C65.9729 109.894 65.6409 109.867 65.3209 109.924C64.6529 110.042 64.2543 110.497 64.2636 111.236C64.2729 111.978 64.6983 112.398 65.3596 112.518Z" fill="#F6AE2D"/>
<path d="M65.3596 112.518C65.5516 112.553 65.7516 112.537 65.9476 112.537C75.4649 112.538 84.9823 112.538 94.4996 112.535C94.8569 112.535 95.2943 112.631 95.5556 112.448C95.9463 112.174 96.4449 111.708 96.4689 111.296C96.4929 110.879 96.0503 110.355 95.6996 110.018C95.5036 109.83 95.0769 109.898 94.7529 109.898C90.0116 109.892 85.2689 109.894 80.5263 109.894C75.7849 109.892 71.0423 109.891 66.2996 109.892C65.9729 109.894 65.6409 109.867 65.3209 109.924C64.6529 110.042 64.2543 110.497 64.2636 111.236C64.2729 111.978 64.6983 112.398 65.3596 112.518Z" stroke="#F6AE2D" stroke-width="1.99867" stroke-miterlimit="10" stroke-linecap="round" stroke-linejoin="round"/>
<path d="M76.7757 90.0226C76.7557 90.0835 76.7344 90.1401 76.713 90.1938C76.7117 90.1358 76.7304 90.0777 76.7757 90.0226ZM76.877 88.3765C76.921 88.7539 76.9224 89.05 76.9037 89.3171C76.8904 88.9818 76.8184 88.7045 76.8757 88.3387C76.961 88.3503 77.0624 88.3648 76.877 88.3765ZM76.8957 89.4071C76.8917 89.41 76.8877 89.4114 76.8837 89.4129C76.8784 89.3737 76.8757 89.336 76.8744 89.2997C76.8837 89.3069 76.893 89.3142 76.9024 89.3229C76.901 89.3519 76.8984 89.3795 76.8957 89.4071ZM65.6464 90.953C68.5717 90.9559 73.3424 91.0082 76.437 90.9269C76.4957 90.9661 76.629 90.9821 76.877 90.9792C82.1104 90.9313 89.6157 90.9603 94.849 90.9574C95.1397 90.9574 95.4477 90.9545 95.717 90.8558C96.561 90.5466 96.8744 89.4158 96.229 88.8119C95.901 88.5027 95.3517 88.3416 94.8997 88.3387C89.4717 88.3082 82.3064 88.3184 76.877 88.3227C76.8184 88.3227 76.7997 88.3242 76.801 88.3256C73.3797 88.3256 68.741 88.3097 65.4104 88.3387C64.6837 88.346 64.2584 88.8773 64.2744 89.6611C64.2944 90.58 64.8477 90.953 65.6464 90.953Z" fill="#F6AE2D"/>
<path d="M76.7757 90.0226C76.7557 90.0835 76.7344 90.1401 76.713 90.1938C76.7117 90.1358 76.7304 90.0777 76.7757 90.0226ZM76.877 88.3765C76.921 88.7539 76.9224 89.05 76.9037 89.3171C76.8904 88.9818 76.8184 88.7045 76.8757 88.3387C76.961 88.3503 77.0624 88.3648 76.877 88.3765ZM76.8957 89.4071C76.8917 89.41 76.8877 89.4114 76.8837 89.4129C76.8784 89.3737 76.8757 89.336 76.8744 89.2997C76.8837 89.3069 76.893 89.3142 76.9024 89.3229C76.901 89.3519 76.8984 89.3795 76.8957 89.4071ZM65.6464 90.953C68.5717 90.9559 73.3424 91.0082 76.437 90.9269C76.4957 90.9661 76.629 90.9821 76.877 90.9792C82.1104 90.9313 89.6157 90.9603 94.849 90.9574C95.1397 90.9574 95.4477 90.9545 95.717 90.8558C96.561 90.5466 96.8744 89.4158 96.229 88.8119C95.901 88.5027 95.3517 88.3416 94.8997 88.3387C89.4717 88.3082 82.3064 88.3184 76.877 88.3227C76.8184 88.3227 76.7997 88.3242 76.801 88.3256C73.3797 88.3256 68.741 88.3097 65.4104 88.3387C64.6837 88.346 64.2584 88.8773 64.2744 89.6611C64.2944 90.58 64.8477 90.953 65.6464 90.953Z" stroke="#F6AE2D" stroke-width="1.99867" stroke-miterlimit="10" stroke-linecap="round" stroke-linejoin="round"/>
</svg>
