<svg width="192" height="192" viewBox="0 0 192 192" fill="none" xmlns="http://www.w3.org/2000/svg">
<path d="M191.671 95.8348C191.671 148.763 148.764 191.669 95.8347 191.669C42.9067 191.669 0 148.763 0 95.8348C0 42.9068 42.9067 0.00011315 95.8347 0.00011315C148.764 0.00011315 191.671 42.9068 191.671 95.8348Z" fill=""/>
<path d="M150.732 52.5197C151.592 46.3077 148.325 42.0744 142.79 42.0704C111.505 42.0504 80.2196 42.0531 48.9343 42.0691C44.081 42.0717 40.8183 45.4064 40.7716 50.2784C40.749 52.5171 40.749 52.5171 42.9903 52.5171C78.1716 52.5184 113.354 52.5184 148.536 52.5197H150.732ZM164.337 127.101H157.048C152.052 127.101 147.054 127.104 142.058 127.1C139.754 127.098 138.545 126.23 138.516 124.578C138.488 122.946 139.773 121.977 142.002 121.976C147.438 121.97 152.874 121.973 158.31 121.973H160.426C159.941 121.32 159.694 120.926 159.39 120.584C157.564 118.536 155.65 116.558 153.917 114.436C152.884 113.169 151.769 112.628 150.124 112.698C147.274 112.821 144.414 112.749 141.56 112.722C139.682 112.705 138.526 111.725 138.513 110.218C138.5 108.713 139.669 107.69 141.521 107.669C144.212 107.637 146.902 107.63 149.593 107.66C150.565 107.67 150.937 107.336 150.936 106.321C150.91 90.5624 150.908 74.8037 150.934 59.0464C150.936 57.9584 150.569 57.5277 149.51 57.6424C149.238 57.6717 148.961 57.6437 148.686 57.6437C113.49 57.6451 78.2956 57.6451 43.0996 57.6464C40.7796 57.6464 40.7783 57.6504 40.7783 59.9464C40.7757 75.0464 40.7756 90.1451 40.7743 105.245V107.654C42.7063 107.654 44.4983 107.652 46.2903 107.654C47.6636 107.656 49.037 107.628 50.409 107.674C52.013 107.728 53.1343 108.765 53.165 110.145C53.1983 111.606 52.0743 112.692 50.357 112.714C47.2276 112.757 44.097 112.766 40.9676 112.714C39.8383 112.697 39.0116 113.009 38.2556 113.896C36.3316 116.15 34.3076 118.317 32.3316 120.528C32.021 120.877 31.7583 121.269 31.2196 121.973H33.3116C38.913 121.973 44.513 121.964 50.1143 121.981C51.8983 121.986 53.013 122.898 53.1383 124.356C53.2783 125.972 52.1156 127.086 50.1716 127.093C43.913 127.112 37.653 127.101 31.393 127.101C30.625 127.101 29.8436 127.016 29.0916 127.125C28.4183 127.221 27.3223 127.393 27.2063 127.773C26.8543 128.924 27.1956 130.133 28.385 130.718C29.037 131.04 29.8596 131.12 30.6076 131.124C37.0863 131.153 43.5663 131.086 50.0436 131.201C50.9796 131.217 52.2316 131.801 52.7596 132.538C53.8716 134.088 52.5916 136.216 50.5463 136.234C43.409 136.3 36.2676 136.39 29.1356 136.186C24.9663 136.066 22.1197 132.762 22.0023 128.576C21.977 127.644 21.8196 126.666 22.037 125.788C22.2996 124.729 22.6863 123.568 23.385 122.772C27.221 118.401 31.1943 114.15 35.0463 109.792C35.4823 109.298 35.6143 108.392 35.6156 107.677C35.6463 88.7344 35.6383 69.7904 35.6423 50.8477C35.6436 42.3797 41.073 36.9317 49.529 36.9304C80.441 36.9251 111.354 36.9237 142.268 36.9317C150.573 36.9331 156.053 42.4611 156.053 50.8077C156.052 69.8051 156.036 88.8037 156.086 107.801C156.089 108.632 156.489 109.64 157.044 110.264C160.87 114.57 164.79 118.793 168.666 123.057C168.99 123.414 169.366 123.842 169.446 124.286C170.486 130.036 169.073 136.205 161.27 136.261C154.792 136.308 148.31 136.32 141.833 136.214C140.866 136.2 139.705 135.661 139.026 134.976C138.586 134.532 138.517 133.125 138.901 132.606C139.429 131.893 140.529 131.232 141.405 131.205C145.902 131.068 150.408 131.141 154.91 131.14C157.052 131.14 159.193 131.154 161.334 131.137C163.916 131.116 164.866 129.924 164.337 127.101" fill="#F4F6F9"/>
<path d="M69.1505 84.5127H122.525C120.589 83.0074 118.444 82.3554 116.121 82.3581C113.463 82.3607 110.804 82.4661 108.145 82.4701C97.2279 82.4834 86.3105 82.4927 75.3945 82.4607C73.0972 82.4541 71.0239 83.0127 69.1505 84.5127ZM95.9172 89.6727V89.6474C90.9425 89.6474 85.9665 89.6434 80.9919 89.6474C74.3732 89.6527 67.7545 89.6447 61.1372 89.6834C58.5279 89.6994 58.5292 89.7514 58.6185 92.6394C58.6705 94.3474 59.4972 95.4661 60.9439 95.5114C62.3265 95.5541 63.1172 94.7634 63.4279 93.3901C63.7505 91.9621 64.6972 91.0087 66.1812 90.9994C67.6719 90.9887 68.3825 92.0501 68.6359 93.4247C68.8972 94.8474 69.8505 95.5701 71.1799 95.5021C72.4492 95.4354 73.1905 94.5621 73.4092 93.2567C73.6479 91.8354 74.4785 90.9661 75.9825 91.0047C77.3519 91.0394 78.2105 91.8127 78.4972 93.1394C78.7919 94.5087 79.4412 95.5367 80.9585 95.5394C82.5132 95.5407 83.0999 94.4274 83.3639 93.0874C83.6425 91.6727 84.6319 90.9887 85.9305 90.9901C87.2505 90.9914 88.1772 91.7781 88.4479 93.1447C88.7185 94.5101 89.3199 95.5527 90.8892 95.5061C92.3985 95.4594 93.0159 94.4821 93.3279 93.0994C93.7679 91.1527 95.6799 90.3101 97.2305 91.4367C97.8065 91.8567 98.0652 92.7701 98.3652 93.4994C98.8132 94.5887 99.4292 95.4554 100.704 95.4994C101.964 95.5421 102.861 94.8581 103.133 93.6834C103.493 92.1341 104.14 90.9687 105.883 90.9687C107.636 90.9687 108.088 92.3207 108.435 93.7061C108.448 93.7581 108.471 93.8087 108.488 93.8607C108.881 94.9914 109.72 95.5794 110.872 95.4847C112.049 95.3874 112.957 94.8127 113.111 93.4807C113.285 91.9474 114.208 91.0434 115.68 90.9981C117.193 90.9514 117.997 91.9421 118.356 93.3927C118.768 95.0647 119.736 95.7087 121.141 95.4607C122.463 95.2274 122.851 94.2741 123.107 93.1381C123.407 91.8127 124.285 90.9914 125.637 90.9847C126.984 90.9754 127.873 91.7487 128.195 93.0981C128.257 93.3647 128.229 93.7407 128.397 93.8807C129.105 94.4661 129.869 95.4007 130.616 95.4034C131.363 95.4061 132.347 94.5954 132.792 93.8741C133.205 93.2034 133.077 92.1807 133.128 91.3114C133.2 90.0741 132.663 89.5781 131.348 89.6247C128.511 89.7247 125.668 89.6714 122.828 89.6727C113.857 89.6754 104.888 89.6727 95.9172 89.6727M82.6412 141.705C82.6412 139.358 82.6692 137.178 82.6305 134.998C82.6092 133.865 82.7785 132.55 82.2612 131.671C81.9785 131.19 80.4412 131.465 79.4719 131.37C78.0345 131.229 77.1185 130.266 77.0945 128.91C77.0692 127.558 77.9532 126.491 79.3305 126.299C79.9252 126.218 80.5425 126.203 81.1385 126.263C82.2999 126.383 82.6692 125.895 82.6585 124.761C82.6145 119.929 82.6092 115.097 82.6572 110.265C82.6692 109.114 82.2785 108.726 81.1385 108.746C78.0092 108.801 74.8772 108.833 71.7505 108.735C70.2652 108.69 69.7652 109.117 69.7759 110.665C69.8425 120.382 69.8105 130.101 69.8132 139.819C69.8132 140.15 69.7132 140.541 69.8545 140.793C70.0545 141.15 70.4345 141.661 70.7425 141.666C74.6252 141.725 78.5092 141.705 82.6412 141.705M87.7319 141.726C88.6172 141.726 89.2639 141.725 89.9105 141.726C90.6239 141.727 91.3439 141.67 92.0492 141.743C93.4945 141.895 94.3572 142.719 94.4679 144.186C94.5652 145.482 93.6119 146.574 92.2225 146.795C91.6852 146.881 91.1279 146.849 90.5799 146.849C79.7092 146.851 68.8385 146.867 57.9679 146.83C56.6452 146.826 56.0279 147.194 56.1492 148.606C56.2772 150.111 57.3919 149.583 58.1292 149.585C83.2745 149.61 108.419 149.606 133.564 149.601C134.151 149.601 134.739 149.549 135.288 149.522C135.761 147.051 135.615 146.857 133.377 146.847C131.456 146.839 129.532 146.889 127.613 146.821C126.044 146.766 124.931 145.61 124.968 144.235C125.007 142.857 126.147 141.799 127.704 141.725C128.291 141.697 128.881 141.719 129.593 141.719C129.639 140.933 129.704 140.341 129.704 139.75C129.709 128.055 129.667 116.362 129.736 104.667C129.751 102.29 129.863 100.203 126.824 99.5154C125.937 99.3154 125.367 99.0554 124.483 99.5687C121.903 101.069 119.283 100.978 116.653 99.5127C116.172 99.2447 115.288 99.2314 114.811 99.4967C112.064 101.022 109.412 101.013 106.673 99.4727C106.201 99.2074 105.313 99.2527 104.82 99.5221C102.064 101.034 99.4065 101.003 96.6839 99.4421C96.2492 99.1927 95.4252 99.1994 94.9865 99.4487C92.2612 100.999 89.5559 101.121 86.8839 99.4607C86.0905 98.9674 85.5705 99.0607 84.8239 99.5087C82.2532 101.053 79.5932 101.089 77.0385 99.5114C76.1852 98.9834 75.6412 99.0527 74.8359 99.5461C72.9185 100.725 70.6679 101.247 68.7065 100.19C66.6745 99.0941 65.0839 99.2994 63.1705 100.257C62.2679 100.707 61.9425 101.101 61.9439 102.041C61.9625 114.778 61.9692 127.514 61.9385 140.251C61.9359 141.419 62.3599 141.75 63.4825 141.749C64.9145 141.745 64.6892 140.809 64.6892 139.954C64.6972 129.742 64.6812 119.531 64.7132 109.319C64.7252 105.75 66.7919 103.721 70.3692 103.691C74.1025 103.661 77.8359 103.681 81.5692 103.685C85.8185 103.69 87.7159 105.554 87.7225 109.79C87.7372 119.509 87.7305 129.226 87.7319 138.943C87.7319 139.809 87.7319 140.673 87.7319 141.726M56.8159 141.445C56.8385 140.943 56.8865 140.401 56.8865 139.858C56.8879 126.957 56.8732 114.057 56.8972 101.155C56.8985 100.045 56.6345 99.2514 55.7812 98.4327C52.1359 94.9341 52.4905 87.4087 56.7959 84.8301C61.3292 82.1127 66.2652 80.0541 71.0919 77.8541C72.1332 77.3794 73.4599 77.4141 74.6559 77.4114C88.8185 77.3834 102.984 77.2994 117.145 77.4807C119.623 77.5127 122.208 78.4154 124.527 79.4181C128.084 80.9567 131.621 82.6754 134.861 84.7874C139.032 87.5047 139.355 95.0261 135.847 98.5874C135.276 99.1674 134.836 100.166 134.832 100.973C134.768 113.983 134.797 126.994 134.757 140.006C134.755 141.209 135.133 141.698 136.321 141.991C138.948 142.639 140.563 144.815 140.635 147.526C140.672 148.951 140.667 150.381 140.637 151.807C140.597 153.77 139.675 154.667 137.68 154.735C137.241 154.75 136.803 154.741 136.363 154.741H54.8385C51.7612 154.741 51.0412 154.031 51.0345 150.997C51.0332 150.613 51.0345 150.229 51.0345 149.845C51.0345 144.297 51.6705 143.361 56.8159 141.445" fill="#F6AE2D"/>
<path d="M108.633 126.257C112.476 126.257 116.321 126.213 120.163 126.282C121.419 126.305 121.905 125.975 121.887 124.642C121.821 119.866 121.84 115.089 121.88 110.313C121.889 109.214 121.587 108.747 120.397 108.753C112.601 108.791 104.804 108.783 97.0081 108.751C95.9054 108.747 95.4494 109.062 95.4641 110.25C95.5174 115.081 95.5281 119.913 95.4574 124.743C95.4388 126.045 95.9441 126.291 97.1041 126.274C100.947 126.215 104.791 126.253 108.633 126.257ZM108.684 131.39C104.46 131.391 100.235 131.409 96.0094 131.386C92.4828 131.366 90.3721 129.257 90.3614 125.743C90.3454 120.311 90.3468 114.879 90.3641 109.447C90.3761 105.795 92.4321 103.698 96.0548 103.689C104.449 103.667 112.844 103.669 121.239 103.691C124.925 103.702 126.923 105.707 126.947 109.407C126.983 114.949 126.991 120.49 126.975 126.031C126.967 129.081 124.747 131.343 121.688 131.375C117.353 131.423 113.019 131.387 108.684 131.39Z" fill="#F6AE2D"/>
<path d="M111.534 116C113.27 116.015 114.492 117.106 114.466 118.618C114.441 120.124 113.198 121.168 111.468 121.138C109.776 121.106 108.664 120.122 108.637 118.634C108.61 117.095 109.83 115.986 111.534 116Z" fill="#F4F6F9"/>
</svg>
