<svg xmlns="http://www.w3.org/2000/svg" viewBox="0 0 53.91 68.47"><defs><style>.cls-1,.cls-2{fill:none;stroke-linecap:round;stroke-linejoin:round;stroke-width:3px;}.cls-1{stroke:#fff;}.cls-2{stroke:#f6ae2d;}</style></defs><g id="Layer_2" data-name="Layer 2"><g id="Layer_1-2" data-name="Layer 1"><path class="cls-1" d="M48.16,48h3.67a.58.58,0,0,0,.58-.58V24.19a.58.58,0,0,0-.58-.58H32.59V35.89l0,0m12.17,2.3h2.69v3.24h-.61M39,32.3H36.35V29.06H39Zm8.45,0H44.8V29.06h2.69Z"/><path class="cls-1" d="M10.62,37V32.36H23.47V35m9.12.87V10.17A.58.58,0,0,0,32,9.59H27.66V2.08a.58.58,0,0,0-.58-.58H7a.58.58,0,0,0-.58.58V9.59H2.08a.58.58,0,0,0-.58.58V47.45a.58.58,0,0,0,.58.58H5.75m22.1-32.4h0Zm0,4.2h0Zm0,4.21h0Zm0,4.2h0Z"/><polyline class="cls-1" points="23.47 35.02 23.47 32.36 10.62 32.36 10.62 36.95"/><rect class="cls-1" x="36.35" y="29.06" width="2.69" height="3.23"/><rect class="cls-1" x="44.8" y="29.06" width="2.69" height="3.23"/><path class="cls-1" d="M46.88,41.46h.61V38.22H44.8v.12l.41.45a13.15,13.15,0,0,1,1.67,2.67"/><path class="cls-2" d="M35.24,39.56A5.46,5.46,0,0,1,37,39.27c3.7,0,6.69,3.64,6.69,8.13s-3,8.13-6.69,8.13"/><path class="cls-2" d="M37.42,60.45h8.81a1.25,1.25,0,0,0,.64-2.33l-4.38-2.59"/><path class="cls-2" d="M18.67,39.56a5.46,5.46,0,0,0-1.76-.29c-3.7,0-6.69,3.64-6.69,8.13s3,8.13,6.69,8.13"/><path class="cls-2" d="M16.5,60.45H7.68A1.25,1.25,0,0,1,7,58.12l4.38-2.59"/><ellipse class="cls-2" cx="26.96" cy="49.71" rx="8.84" ry="10.74"/><path class="cls-2" d="M20.5,60l-6.58,3.94A1.66,1.66,0,0,0,14.76,67H39.15A1.66,1.66,0,0,0,40,63.89L33.37,60"/></g></g></svg>