<svg xmlns="http://www.w3.org/2000/svg" viewBox="0 0 72.17 55.45"><defs><style>.cls-1,.cls-2{fill:none;stroke-linecap:round;stroke-linejoin:round;stroke-width:3px;}.cls-1{stroke:#fff;}.cls-2{stroke:#f6ae2d;}</style></defs><g id="Layer_2" data-name="Layer 2"><g id="Layer_1-2" data-name="Layer 1"><polygon class="cls-1" points="35.09 1.5 8.37 16.51 35.09 29.44 63.8 16.51 35.09 1.5"/><polyline class="cls-1" points="35.09 14.14 48.25 23.51 48.25 33.64"/><path class="cls-1" d="M17.63,21V32.12h0v5.81c3.9,2.82,10.7,4.69,18.45,4.69s14.56-1.87,18.46-4.69V21"/><polyline class="cls-2" points="15.92 41.67 10.59 41.67 1.5 53.95 70.67 53.95 61.58 41.67 56.25 41.67"/><line class="cls-2" x1="12.84" y1="45.24" x2="9.66" y2="50.44"/><line class="cls-2" x1="17.8" y1="45.24" x2="15.19" y2="50.68"/><line class="cls-2" x1="22.26" y1="45.18" x2="19.95" y2="50.44"/><ellipse class="cls-2" cx="54.54" cy="47.81" rx="2.92" ry="2.14"/><path class="cls-1" d="M47.18,34.42v-4a1,1,0,0,1,1-1h0a1,1,0,0,1,1,1v4"/></g></g></svg>