<svg width="192" height="192" viewBox="0 0 192 192" fill="none" xmlns="http://www.w3.org/2000/svg">
<path d="M191.671 95.8348C191.671 148.763 148.764 191.669 95.8347 191.669C42.9067 191.669 0 148.763 0 95.8348C0 42.9068 42.9067 0.00011315 95.8347 0.00011315C148.764 0.00011315 191.671 42.9068 191.671 95.8348Z" fill=""/>
<path d="M44.61 51.339C44.59 51.463 44.57 51.587 44.55 51.7097C44.6767 51.8283 44.7873 51.9723 44.9313 52.0617C49.486 54.8883 54.0433 57.711 58.6087 60.519C58.7967 60.635 59.1207 60.703 59.3073 60.623C62.038 59.447 64.7567 58.2417 67.5447 57.0137C64.534 55.9883 61.6593 54.939 58.7393 54.0363C55.994 53.187 53.2273 52.3537 50.4167 51.7777C48.53 51.3923 46.5487 51.4697 44.61 51.339ZM24.2167 65.975C24.3967 66.5577 24.454 66.8323 24.5633 67.0843C26.49 71.499 28.3873 75.9283 30.366 80.319C31.7287 83.343 31.7793 83.335 35.122 83.3643C41.47 83.4203 47.5047 81.891 53.326 79.5203C59.3767 77.059 65.3593 74.431 71.374 71.8817C71.754 71.7203 72.1553 71.6057 72.6393 71.4377C70.714 81.9563 68.822 92.295 66.9287 102.634C67.0353 102.666 67.142 102.696 67.2487 102.728C69.3247 100.768 71.0807 98.5803 72.29 95.9497C76.802 86.131 81.3633 76.3377 85.858 66.511C86.4367 65.2457 87.178 64.3563 88.5047 63.8337C90.2687 63.1403 91.962 62.2697 93.6807 61.4643C100.229 58.391 106.759 55.2843 112.59 50.923C112.889 50.7003 113.175 50.4603 113.558 50.155C108.546 47.223 103.433 46.239 98.118 48.5043C89.29 52.2683 80.542 56.2243 71.75 60.075C61.0193 64.7763 50.274 69.4457 39.546 74.1523C38.7073 74.5217 37.9273 74.591 37.15 74.1577C35.5273 73.255 33.8807 72.383 32.3367 71.3603C30.5727 70.1923 28.9327 68.8377 27.1913 67.6337C26.3407 67.047 25.382 66.6163 24.2167 65.975M54.0487 62.9723C51.2513 61.283 48.6607 59.723 46.074 58.159C44.4487 57.1763 42.8207 56.2003 41.2113 55.195C40.7193 54.887 40.2567 54.5163 39.8287 54.1217C37.6633 52.1243 37.7993 50.2203 40.2673 48.631C43.678 46.435 47.422 46.1083 51.2193 47.1763C56.6953 48.7177 62.1087 50.4843 67.5553 52.1323C68.846 52.523 70.1927 52.7403 71.4647 53.1777C73.1153 53.7457 74.6967 53.643 76.2527 52.9643C80.698 51.0283 85.1433 49.0897 89.5687 47.1057C93.4047 45.3843 97.254 43.7137 101.471 43.163C105.938 42.579 110.233 43.079 114.139 45.4763C115.147 46.095 116.089 46.9137 116.858 47.8123C118.437 49.6577 118.229 51.8217 116.462 53.4683C112.754 56.9243 108.322 59.2283 103.838 61.4737C99.5007 63.6443 95.2007 65.8923 90.9233 68.1777C90.2993 68.511 89.7113 69.1537 89.4047 69.7963C86.3753 76.1523 83.4527 82.5603 80.41 88.9097C78.2513 93.4163 76.0687 97.9203 73.6753 102.304C72.1473 105.103 69.5153 106.803 66.4847 107.687C63.7153 108.495 61.8193 106.748 62.3193 103.882C63.59 96.5883 64.9513 89.311 66.278 82.0257C66.4593 81.0283 66.6527 80.0337 66.882 78.8137C65.95 79.191 65.19 79.4937 64.4353 79.8043C58.1287 82.4003 51.89 85.191 45.2247 86.795C41.6287 87.6603 37.9793 88.3417 34.2767 87.9763C32.6513 87.815 31.0113 87.231 29.5207 86.535C28.666 86.1377 27.842 85.247 27.4407 84.3777C24.9953 79.0803 22.578 73.7657 20.3513 68.3737C18.9713 65.0323 20.7753 62.4657 24.4113 62.1163C25.73 61.991 26.99 62.1657 28.0847 62.907C30.3207 64.4177 32.514 65.991 34.722 67.543C35.8847 68.3603 36.974 69.6923 38.2233 69.8617C39.406 70.0217 40.7713 69.0057 42.0273 68.4403C45.95 66.6763 49.8567 64.8817 54.0487 62.9723" fill="#F6AE2D"/>
<path d="M143.558 137.481H105.022C105.337 137.178 105.576 136.89 105.878 136.687C108.96 134.511 124.964 133.393 128.725 133.329C131.229 133.291 133.732 133.329 136.249 133.315C138.816 133.315 139.344 132.787 139.344 130.171C139.344 119.363 139.318 83.382 139.318 72.562V70.5994H143.558V137.481ZM103.752 131.303C103.752 120.219 103.777 83.9727 103.726 72.8887C103.714 71.706 104.116 70.9767 105.034 70.2714C108.344 67.7687 124.612 66.3714 128.788 66.346C130.877 66.334 132.953 66.346 135.18 66.346V129.077C131.858 129.227 115.993 129.051 112.86 129.63C109.79 130.197 106.86 131.53 103.814 132.537C103.802 132.298 103.752 131.807 103.752 131.303M144.829 66.4607C143.017 66.4474 141.218 66.4474 139.406 66.4474C139.356 65.806 139.318 65.4407 139.306 65.0767C139.244 62.774 138.74 62.2834 136.388 62.258C135.129 62.246 133.87 62.2954 132.613 62.2327C125.996 61.93 107.212 63.026 101.613 67.8567L100.489 66.9594C99.0823 67.678 97.6769 68.3967 96.2783 69.1274C97.1703 69.5207 97.9343 69.9607 98.5183 70.4607C99.0716 70.9394 99.6249 71.794 99.6249 72.486C99.6996 83.9354 99.6756 120.546 99.6756 131.982C99.6756 132.247 99.6249 132.499 99.5743 133.127C93.8756 129.051 74.8783 129.038 68.2476 129.278V110.819C67.6769 111.065 67.0916 111.285 66.4849 111.461C65.5476 111.734 64.7249 111.695 64.0463 111.439C64.0409 119.183 64.0369 126.007 64.0329 129.743C64.0329 132.901 64.4476 133.278 67.6556 133.329C71.0023 133.379 74.3623 133.342 77.6703 133.681C80.6649 133.983 95.9129 135.354 98.6556 137.543H59.8556V85.4807C58.4823 86.0487 57.1049 86.6074 55.7209 87.1487C55.7183 105.119 55.7196 128.398 55.7289 139.015C55.7289 141.066 56.3956 141.707 58.4849 141.707C66.6369 141.721 87.3836 141.721 95.5356 141.721H101.613V141.707H103.626C113.086 141.707 135.129 141.721 144.59 141.707C147.132 141.707 147.697 141.154 147.697 138.563V69.3287C147.697 67.038 147.118 66.4607 144.829 66.4607" fill="#F4F6F9"/>
</svg>
