<svg width="192" height="192" viewBox="0 0 192 192" fill="none" xmlns="http://www.w3.org/2000/svg">
<path d="M191.671 95.8348C191.671 148.763 148.764 191.669 95.8347 191.669C42.9067 191.669 0 148.763 0 95.8348C0 42.9068 42.9067 0.00011315 95.8347 0.00011315C148.764 0.00011315 191.671 42.9068 191.671 95.8348Z" fill="#0072C8"/>
<path d="M121.019 54.0434H119.195C100.851 54.0434 82.5088 54.0181 64.1648 54.0688C62.6301 54.0808 62.1528 53.6408 62.2781 52.1434C62.4034 50.7461 62.2901 49.3248 62.3154 47.9154C62.3914 44.0914 65.0581 41.3994 68.8701 41.3994C84.0314 41.3741 99.1781 41.3741 114.339 41.3861C118.39 41.3994 120.982 44.0154 121.019 48.0674C121.031 49.9794 121.019 51.9048 121.019 54.0434ZM121.019 129.341V135.027C121.019 137.897 121.045 140.778 121.019 143.646C120.982 147.509 118.377 150.238 114.565 150.251C99.3421 150.277 84.1314 150.277 68.9208 150.238C65.3474 150.226 62.5928 147.987 62.4288 144.539C62.1901 139.545 62.3661 134.525 62.3661 129.341H121.019ZM114.05 37.3221C99.0901 37.2981 84.1434 37.2981 69.1848 37.3221C62.6434 37.3221 58.2648 41.7128 58.2648 48.2688C58.2514 79.9474 58.2514 111.639 58.2648 143.319C58.2648 149.925 62.6808 154.341 69.2981 154.353C84.2568 154.365 99.2034 154.378 114.163 154.353C120.693 154.341 125.058 149.925 125.07 143.394C125.083 135.179 125.07 126.977 125.07 118.761V116.71H120.931V125.063H62.4421V58.2074H120.894V64.6741L125.07 68.0088V65.8568C125.07 60.0568 125.083 54.2448 125.07 48.4448C125.07 41.6514 120.818 37.3354 114.05 37.3221" fill="#F4F6F9"/>
<path d="M93.8103 139.755C93.8183 138.578 92.7823 137.561 91.6116 137.595C90.5223 137.627 89.5543 138.638 89.5556 139.741C89.5569 140.851 90.5116 141.861 91.5996 141.903C92.7676 141.949 93.8023 140.943 93.8103 139.755ZM91.7423 133.53C95.1343 133.558 97.9463 136.395 97.9183 139.763C97.8889 143.174 95.1049 145.954 91.7089 145.962C88.2143 145.97 85.4569 143.173 85.4943 139.653C85.5303 136.233 88.3183 133.502 91.7423 133.53" fill="#F4F6F9"/>
<path d="M91.7805 45.6659C92.4591 45.6659 93.1445 45.6125 93.8165 45.6765C95.0191 45.7925 95.7805 46.4725 95.7725 47.7032C95.7631 48.9299 95.0258 49.6379 93.7938 49.6792C92.3845 49.7259 90.9711 49.7245 89.5618 49.6805C88.4085 49.6432 87.6885 48.9979 87.6178 47.8352C87.5445 46.6019 88.2245 45.8485 89.4325 45.6979C90.2031 45.6005 90.9965 45.6792 91.7805 45.6792C91.7805 45.6752 91.7805 45.6699 91.7805 45.6659Z" fill="#F4F6F9"/>
<path d="M154.435 112.47H128.48C128.795 112.168 129.034 111.88 129.335 111.678C132.418 109.501 135.84 108.382 139.602 108.318C142.106 108.281 144.61 108.318 147.126 108.306C149.692 108.306 150.22 107.777 150.22 105.161C150.22 94.3531 150.195 83.5345 150.195 72.7145V70.7518H154.435V112.47ZM127.21 106.293C127.21 95.2091 127.235 84.1251 127.184 73.0411C127.171 71.8584 127.574 71.1291 128.492 70.4238C131.802 67.9211 135.488 66.5251 139.664 66.4984C141.754 66.4864 143.83 66.4984 146.056 66.4984V104.066C142.735 104.217 139.451 104.041 136.318 104.62C133.248 105.186 130.316 106.52 127.272 107.526C127.259 107.288 127.21 106.797 127.21 106.293M123.132 106.973C123.132 107.237 123.083 107.489 123.032 108.117C117.334 104.041 110.916 104.028 104.287 104.268V66.6251C110.64 66.1851 116.804 66.1851 121.975 70.6131C122.53 71.0918 123.083 71.9464 123.083 72.6384C123.158 84.0878 123.132 95.5358 123.132 106.973M95.895 112.533V70.8024H100.122V72.7398C100.096 83.4078 100.084 94.0638 100.072 104.733C100.072 107.89 100.487 108.269 103.695 108.318C107.042 108.369 110.4 108.332 113.71 108.67C116.704 108.973 119.371 110.344 122.114 112.533H95.895ZM155.706 66.6118C153.894 66.5998 152.095 66.5998 150.283 66.5998C150.232 65.9584 150.195 65.5931 150.183 65.2278C150.119 62.9264 149.616 62.4358 147.264 62.4104C146.006 62.3971 144.747 62.4478 143.49 62.3851C136.871 62.0824 130.67 63.1771 125.071 68.0091L120.894 64.6744C118.73 64.0464 116.591 63.0518 114.376 62.8504C110.287 62.4731 106.136 62.5238 102.022 62.4731C100.864 62.4611 100.248 63.2531 100.147 64.3984C100.096 65.0771 100.072 65.7451 100.008 66.6118C98.059 66.6118 96.1963 66.5864 94.335 66.6118C92.4096 66.6371 91.7683 67.2411 91.7683 69.1411C91.755 84.0998 91.755 99.0464 91.7683 114.005C91.7683 116.056 92.435 116.698 94.523 116.698C102.676 116.71 110.842 116.71 118.994 116.71H125.071V116.698H127.083C136.544 116.698 146.006 116.71 155.467 116.698C158.008 116.698 158.574 116.144 158.574 113.553V69.4811C158.574 67.1918 157.995 66.6118 155.706 66.6118" fill="#F6AE2D"/>
</svg>
