<svg xmlns="http://www.w3.org/2000/svg" viewBox="0 0 60.82 64.71"><defs><style>.cls-1,.cls-2{fill:none;stroke-linecap:round;stroke-linejoin:round;stroke-width:3px;}.cls-1{stroke:#f6ae2d;}.cls-2{stroke:#fff;}</style></defs><g id="Layer_2" data-name="Layer 2"><g id="Layer_1-2" data-name="Layer 1"><path class="cls-1" d="M45.24,26.73a13.7,13.7,0,0,0-10,4.43,15.68,15.68,0,0,0-4.12,10.71c0,8.24,9.14,15.84,14.34,21.34,5.39-5.72,13.81-12.56,13.81-21.34A15.68,15.68,0,0,0,55.2,31.16,13.72,13.72,0,0,0,45.24,26.73Z"/><path class="cls-1" d="M45.24,34.39A6.73,6.73,0,1,0,52,41.12,6.73,6.73,0,0,0,45.24,34.39Z"/><path class="cls-2" d="M27.21,47.17c0,1.86.16,3.62.27,5.26.19,2.85-.52,2.73-3,.69-2.17-1.77-3.3-5.07-4.24-7.78s-1.64-4.78-3.29-5.56A35.12,35.12,0,0,0,8.53,37c-4.69-1-3.6-4.18-3-8.15.66-4.19,1.21-8.28-1.64-10.77A28,28,0,0,0,33.29,57.23"/><path class="cls-2" d="M41.78,21.46c-1.4-2-3.66-3.08-7.22-3.24-3.16-.15.3-4.39,1.11-5.38C38,10,40.55,6.34,43.74,5.39a28,28,0,0,0-33,3.32,28.83,28.83,0,0,0-2.21,9.71c0,3.83.86,7.7,5.19,8.19,4.62.51,14.1-.87,18.68-.2"/><path class="cls-2" d="M57.22,25.63A28,28,0,0,0,43.74,5.39c-3.19,1-5.75,4.64-8.07,7.45-.81,1-4.27,5.23-1.11,5.38,3.56.16,5.82,1.22,7.22,3.24"/><path class="cls-2" d="M32.4,26.41c-4.58-.67-14.06.71-18.68.2-4.33-.49-5.23-4.36-5.19-8.19a28.83,28.83,0,0,1,2.21-9.71A28.16,28.16,0,0,0,3.92,18.1c2.85,2.49,2.3,6.58,1.64,10.77-.63,4-1.72,7.13,3,8.15a35.12,35.12,0,0,1,8.39,2.76c1.65.78,2.39,2.94,3.29,5.56s2.07,6,4.24,7.78c2.51,2,3.22,2.16,3-.69-.11-1.64-.23-3.4-.27-5.26"/></g></g></svg>