<svg xmlns="http://www.w3.org/2000/svg" viewBox="0 0 66.28 61.67"><defs><style>.cls-1,.cls-2,.cls-3,.cls-4{fill:none;stroke-linecap:round;stroke-linejoin:round;}.cls-1,.cls-2,.cls-3{stroke:#fff;}.cls-1,.cls-4{stroke-width:3px;}.cls-2{stroke-width:5px;}.cls-3{stroke-width:4px;}.cls-4{stroke:#f6ae2d;}</style></defs><g id="Layer_2" data-name="Layer 2"><g id="Layer_1-2" data-name="Layer 1"><path class="cls-1" d="M58.74,35c1.53-1.6,4.71-4.64,5.92-7.2,0,0-6.31-5.37-9.89-10.51,4.6-6.91,5.37-10.2,3.94-15.82-6.26.87-12,.45-15.7,4.22A29.83,29.83,0,0,0,33.08,4.1a29.83,29.83,0,0,0-9.93,1.62C19.41,2,13.71,2.37,7.45,1.5,6,7.12,6.79,10.41,11.39,17.32,7.82,22.46,1.5,27.83,1.5,27.83c1.21,2.56,4.39,5.6,5.92,7.2.36.39-1.29,2.36-1.29,2.36C10,43.65,17,50.64,33.08,51c16.06-.31,23.1-7.31,27-13.56C60,37.39,58.38,35.42,58.74,35Z"/><line class="cls-2" x1="46.02" y1="26.79" x2="42.24" y2="27"/><line class="cls-2" x1="20.14" y1="26.79" x2="23.92" y2="27"/><line class="cls-3" x1="26.73" y1="20.84" x2="27" y2="19.85"/><line class="cls-3" x1="39.43" y1="20.84" x2="39.16" y2="19.85"/><path class="cls-1" d="M33.17,27c5.2,6.33,8.85,1.27,16,12.34,1.2,1.86-.76,7.19-2.08,9"/><path class="cls-1" d="M33,27c-5.2,6.33-8.85,1.27-16,12.34-1.2,1.86.76,7.19,2.08,9"/><line class="cls-1" x1="33.08" y1="25.24" x2="33.08" y2="27.92"/><path class="cls-1" d="M43,5.72s8.2,4.9,11.77,11.6"/><path class="cls-1" d="M23.19,5.72s-8.2,4.9-11.77,11.6"/><circle class="cls-1" cx="33.08" cy="36.8" r="1.25"/><circle class="cls-4" cx="44.27" cy="39.67" r="9.98"/><rect class="cls-4" x="56.92" y="49.24" width="4.71" height="10.86" transform="translate(-21.3 57.92) rotate(-45)"/><line class="cls-4" x1="51.33" y1="46.73" x2="55.43" y2="50.83"/></g></g></svg>