<svg xmlns="http://www.w3.org/2000/svg" viewBox="0 0 25.59 20.13"><defs><style>.cls-1{fill:none;stroke:#f6ae2d;stroke-linecap:round;stroke-miterlimit:10;}</style></defs><g id="Layer_2" data-name="Layer 2"><g id="Layer_1-2" data-name="Layer 1"><path class="cls-1" d="M22.69,13.49A13.23,13.23,0,0,0,25,10.71a26.2,26.2,0,0,1-3.82-4.05C22.93,4,23.23,2.73,22.68.56c-2.42.33-4.61.17-6.06,1.62a11.63,11.63,0,0,0-3.82-.62A11.65,11.65,0,0,0,9,2.18C7.52.73,5.33.89,2.91.56,2.36,2.73,2.66,4,4.43,6.66A26.36,26.36,0,0,1,.62,10.71,12.9,12.9,0,0,0,2.9,13.49c.14.15-.5.91-.5.91,1.49,2.41,4.21,5.11,10.4,5.23,6.19-.12,8.91-2.82,10.39-5.23C23.19,14.4,22.55,13.64,22.69,13.49Z"/><line class="cls-1" x1="17.79" y1="10.31" x2="16.33" y2="10.39"/><line class="cls-1" x1="7.8" y1="10.31" x2="9.26" y2="10.39"/><line class="cls-1" x1="10.35" y1="8.02" x2="10.45" y2="7.63"/><line class="cls-1" x1="15.24" y1="8.02" x2="15.14" y2="7.63"/><path class="cls-1" d="M12.83,10.39c2,2.44,3.41.49,6.18,4.76.47.72-.29,2.78-.8,3.48"/><path class="cls-1" d="M12.76,10.39c-2,2.44-3.41.49-6.18,4.76-.47.72.29,2.78.8,3.48"/><line class="cls-1" x1="12.8" y1="9.71" x2="12.8" y2="10.75"/><path class="cls-1" d="M16.61,2.18a14,14,0,0,1,4.54,4.48"/><path class="cls-1" d="M9,2.18A14,14,0,0,0,4.44,6.66"/><circle class="cls-1" cx="12.8" cy="14.17" r="0.48"/></g></g></svg>