<svg xmlns="http://www.w3.org/2000/svg" viewBox="0 0 56.08 95.47"><defs><style>.cls-1{fill:#003d87;}.cls-1,.cls-3{stroke:#fff;stroke-linecap:round;stroke-linejoin:round;stroke-width:0.75px;}.cls-2{fill:none;}.cls-3{fill:#001d3f;}</style></defs><g id="Layer_2" data-name="Layer 2"><g id="Layer_1-2" data-name="Layer 1"><g id="Axo_Projection" data-name="Axo Projection"><g id="Axo_base" data-name="Axo base"><path class="cls-1" d="M54,93.17a.81.81,0,0,1-.34-.08L53.34,93a.78.78,0,0,1-.35-1,.86.86,0,0,1,.2-.26V90.49a.78.78,0,0,1,1.56,0v1.9a.77.77,0,0,1-.37.66A.75.75,0,0,1,54,93.17ZM49.7,91.09a.77.77,0,0,1-.34-.08l-2-1A.77.77,0,1,1,48,88.64l2,1a.78.78,0,0,1-.34,1.48Zm-6-2.92a.84.84,0,0,1-.34-.08l-2-1a.78.78,0,0,1,.68-1.4l2,1a.78.78,0,0,1,.36,1A.77.77,0,0,1,43.71,88.17ZM54,86.83a.78.78,0,0,1-.78-.78V83.84a.78.78,0,0,1,1.56,0v2.21A.78.78,0,0,1,54,86.83ZM37.73,85.25a.81.81,0,0,1-.34-.08l-2-1a.78.78,0,0,1,.69-1.4l2,1a.78.78,0,0,1-.34,1.48Zm-6-2.92a.68.68,0,0,1-.34-.08l-2-1a.78.78,0,0,1,.68-1.4l2,1a.78.78,0,0,1-.34,1.47ZM54,80.17a.77.77,0,0,1-.78-.77V77.18a.78.78,0,0,1,1.56,0V79.4A.77.77,0,0,1,54,80.17Zm-28.21-.76a.71.71,0,0,1-.34-.08l-2-1A.77.77,0,1,1,24.11,77l2,1a.77.77,0,0,1-.34,1.47Zm-6-2.92a.83.83,0,0,1-.34-.07l-2-1a.77.77,0,1,1,.68-1.39l2,1a.77.77,0,0,1,.36,1A.79.79,0,0,1,19.78,76.49Zm-6-2.91a.81.81,0,0,1-.34-.08l-2-1a.77.77,0,1,1,.68-1.39l2,1a.78.78,0,0,1-.34,1.48ZM54,73.52a.78.78,0,0,1-.78-.78V70.52a.78.78,0,0,1,1.56,0v2.22A.78.78,0,0,1,54,73.52ZM7.81,70.66a.84.84,0,0,1-.34-.08l-2-1a.78.78,0,0,1,.68-1.4l2,1a.78.78,0,0,1,.36,1A.77.77,0,0,1,7.81,70.66Zm-5.7-3.1a.77.77,0,0,1-.78-.77V64.57a.78.78,0,0,1,1.56,0v2.22A.77.77,0,0,1,2.11,67.56ZM54,66.86a.78.78,0,0,1-.78-.78V63.87a.78.78,0,1,1,1.56,0v2.21A.78.78,0,0,1,54,66.86Zm-51.86-6a.78.78,0,0,1-.78-.78V57.91a.78.78,0,0,1,1.56,0v2.22A.78.78,0,0,1,2.11,60.91ZM54,60.2a.77.77,0,0,1-.78-.77V57.21a.78.78,0,0,1,1.56,0v2.22A.77.77,0,0,1,54,60.2Zm-51.86-6a.78.78,0,0,1-.78-.78V51.26a.78.78,0,0,1,1.56,0v2.21A.78.78,0,0,1,2.11,54.25ZM54,53.55a.78.78,0,0,1-.78-.78V50.55a.78.78,0,1,1,1.56,0v2.22A.78.78,0,0,1,54,53.55Zm-51.86-6a.77.77,0,0,1-.78-.77V44.6a.78.78,0,0,1,1.56,0v2.22A.77.77,0,0,1,2.11,47.59ZM54,46.89a.78.78,0,0,1-.78-.78V43.89a.78.78,0,0,1,1.56,0v2.22A.78.78,0,0,1,54,46.89Zm-51.86-6a.78.78,0,0,1-.78-.78V37.94a.78.78,0,0,1,1.56,0v2.22A.78.78,0,0,1,2.11,40.94ZM54,40.23a.77.77,0,0,1-.78-.77V37.24a.78.78,0,0,1,1.56,0v2.22A.77.77,0,0,1,54,40.23ZM2.11,34.28a.78.78,0,0,1-.78-.78V31.29a.78.78,0,0,1,1.56,0V33.5A.78.78,0,0,1,2.11,34.28ZM54,33.58a.78.78,0,0,1-.78-.78V30.58a.78.78,0,0,1,1.56,0V32.8A.78.78,0,0,1,54,33.58Zm-2-5.41a.84.84,0,0,1-.34-.08l-2-1a.78.78,0,0,1,.68-1.4l2,1A.78.78,0,0,1,52,28.17ZM2.11,27.62a.77.77,0,0,1-.78-.77V24.63a.78.78,0,0,1,1.56,0v2.22A.77.77,0,0,1,2.11,27.62ZM46,25.25a.68.68,0,0,1-.34-.08l-2-1a.78.78,0,0,1,.68-1.4l2,1a.79.79,0,0,1,.36,1A.8.8,0,0,1,46,25.25Zm-6-2.92a.71.71,0,0,1-.34-.08l-2-1a.77.77,0,1,1,.68-1.39l2,1A.77.77,0,0,1,40,22.33ZM2.11,21a.78.78,0,0,1-.78-.78V18a.78.78,0,0,1,1.56,0v2.22A.78.78,0,0,1,2.11,21ZM34,19.42a.84.84,0,0,1-.34-.08l-2-1a.76.76,0,0,1-.36-1,.77.77,0,0,1,1-.36l2,1a.77.77,0,0,1,.36,1A.8.8,0,0,1,34,19.42ZM28,16.5a.81.81,0,0,1-.34-.08l-2-1a.78.78,0,0,1-.35-1,.76.76,0,0,1,1-.36l2,1a.79.79,0,0,1,.36,1A.78.78,0,0,1,28,16.5ZM2.11,14.31a.78.78,0,0,1-.78-.78V11.31a.78.78,0,0,1,1.56,0v2.22A.78.78,0,0,1,2.11,14.31Zm19.94-.73a.84.84,0,0,1-.34-.08l-2-1a.78.78,0,1,1,.68-1.4l2,1a.78.78,0,0,1,.35,1A.77.77,0,0,1,22.05,13.58Zm-6-2.92a.71.71,0,0,1-.34-.08l-2-1a.77.77,0,0,1-.36-1,.79.79,0,0,1,1-.36l2,1a.77.77,0,0,1-.34,1.47Zm-6-2.92a.68.68,0,0,1-.34-.08l-2-1a.78.78,0,0,1-.35-1,.77.77,0,0,1,1-.35l2,1a.77.77,0,0,1-.34,1.47Zm-8-.09a.77.77,0,0,1-.78-.77V4.66A.78.78,0,0,1,2,3.89l-.24-.12a.79.79,0,0,1-.36-1,.78.78,0,0,1,1-.35l2,1a.78.78,0,0,1-.68,1.4l-1-.48a.74.74,0,0,1,.11.39V6.88A.77.77,0,0,1,2.11,7.65Z"/></g></g><g id="Axo_Projection-2" data-name="Axo Projection"><g id="Axo_base-2" data-name="Axo base"><polygon class="cls-1" points="52.64 26.07 55.3 27.37 55.3 30.67 52.64 29.36 52.64 26.07"/><path class="cls-2" d="M55.3,31.44a.71.71,0,0,1-.34-.08l-2.66-1.3a.77.77,0,0,1-.44-.69v-3.3a.78.78,0,0,1,1.12-.7l2.67,1.3a.78.78,0,0,1,.43.7v3.3a.81.81,0,0,1-.36.66A.88.88,0,0,1,55.3,31.44Zm-1.89-2.56,1.12.54V27.86l-1.12-.55Z"/></g></g><g id="Axo_Projection-3" data-name="Axo Projection"><g id="Axo_base-3" data-name="Axo base"><polygon class="cls-1" points="52.64 58.08 55.3 59.38 55.3 62.68 52.64 61.38 52.64 58.08"/><path class="cls-2" d="M55.3,63.46a.84.84,0,0,1-.34-.08l-2.66-1.3a.79.79,0,0,1-.44-.7v-3.3a.8.8,0,0,1,.36-.66.82.82,0,0,1,.76,0l2.67,1.31a.78.78,0,0,1,.43.69v3.3a.77.77,0,0,1-.78.78Zm-1.89-2.57,1.12.55V59.87l-1.12-.54Z"/></g></g><g id="Axo_Projection-4" data-name="Axo Projection"><g id="Axo_base-4" data-name="Axo base"><polygon class="cls-1" points="26.71 13.42 29.38 14.72 29.38 18.02 26.71 16.72 26.71 13.42"/><path class="cls-2" d="M29.38,18.8a.85.85,0,0,1-.35-.08l-2.66-1.3a.77.77,0,0,1-.44-.7v-3.3a.81.81,0,0,1,.36-.66.79.79,0,0,1,.76,0L29.72,14a.78.78,0,0,1,.43.69V18a.77.77,0,0,1-.77.78Zm-1.9-2.57,1.12.55V15.21l-1.12-.54Z"/></g></g><g id="Axo_Projection-5" data-name="Axo Projection"><g id="Axo_base-5" data-name="Axo base"><polygon class="cls-1" points="52.64 90.09 55.3 91.4 55.3 94.69 52.64 93.39 52.64 90.09"/><path class="cls-2" d="M55.3,95.47a.84.84,0,0,1-.34-.08l-2.66-1.3a.77.77,0,0,1-.44-.7v-3.3a.78.78,0,0,1,.36-.65.77.77,0,0,1,.76,0l2.67,1.3a.78.78,0,0,1,.43.7v3.29a.77.77,0,0,1-.78.78ZM53.41,92.9l1.12.55V91.88l-1.12-.54Z"/></g></g><g id="Axo_Projection-6" data-name="Axo Projection"><g id="Axo_base-6" data-name="Axo base"><polygon class="cls-1" points="0.78 0.78 3.45 2.08 3.45 5.37 0.78 4.07 0.78 0.78"/><path class="cls-2" d="M3.45,6.15a.77.77,0,0,1-.34-.08L.44,4.77A.77.77,0,0,1,0,4.07V.78A.77.77,0,0,1,.37.12a.77.77,0,0,1,.75,0l2.67,1.3a.78.78,0,0,1,.43.7V5.37a.77.77,0,0,1-.77.78ZM1.55,3.59l1.12.54V2.56L1.55,2Z"/></g></g><g id="Axo_Projection-7" data-name="Axo Projection"><g id="Axo_base-7" data-name="Axo base"><polygon class="cls-1" points="26.71 77.45 29.38 78.75 29.38 82.05 26.71 80.74 26.71 77.45"/><path class="cls-2" d="M29.38,82.82a.72.72,0,0,1-.35-.08l-2.66-1.3a.77.77,0,0,1-.44-.7V77.45a.78.78,0,0,1,1.12-.7l2.67,1.3a.78.78,0,0,1,.43.7v3.3a.77.77,0,0,1-.77.77Zm-1.9-2.56,1.12.54V79.24l-1.12-.55Z"/></g></g><g id="Axo_Projection-8" data-name="Axo Projection"><g id="Axo_base-8" data-name="Axo base"><polygon class="cls-1" points="0.78 32.79 3.45 34.09 3.45 37.39 0.78 36.08 0.78 32.79"/><path class="cls-2" d="M3.45,38.16a.66.66,0,0,1-.34-.08L.44,36.78a.77.77,0,0,1-.44-.7V32.79a.77.77,0,0,1,.37-.66.77.77,0,0,1,.75,0l2.67,1.3a.78.78,0,0,1,.43.7v3.3a.77.77,0,0,1-.77.77ZM1.55,35.6l1.12.54V34.58L1.55,34Z"/></g></g><g id="Axo_Projection-9" data-name="Axo Projection"><g id="Axo_base-9" data-name="Axo base"><polygon class="cls-1" points="0.78 64.8 3.45 66.1 3.45 69.4 0.78 68.1 0.78 64.8"/><path class="cls-2" d="M3.45,70.18a.77.77,0,0,1-.34-.08L.44,68.79A.77.77,0,0,1,0,68.1V64.8a.77.77,0,0,1,.37-.66.8.8,0,0,1,.75,0l2.67,1.31a.78.78,0,0,1,.43.69v3.3a.77.77,0,0,1-.77.78Zm-1.9-2.57,1.12.55V66.59L1.55,66Z"/></g></g><g id="Axo_Projection-10" data-name="Axo Projection"><g id="Axo_Extrusion" data-name="Axo Extrusion"><g id="Axo_Surface" data-name="Axo Surface"><g id="Axo_panel" data-name="Axo panel"><polygon class="cls-1" points="20.14 53.96 20.14 59.2 25.34 56.66 25.34 51.43 20.14 53.96"/><path class="cls-2" d="M20.14,60a.87.87,0,0,1-.41-.11.8.8,0,0,1-.36-.66V54a.78.78,0,0,1,.43-.69L25,50.73a.82.82,0,0,1,.76,0,.79.79,0,0,1,.36.66v5.24a.78.78,0,0,1-.43.69l-5.2,2.54A.77.77,0,0,1,20.14,60Zm.78-5.52V58l3.64-1.77V52.67Z"/></g><g id="Axo_panel-2" data-name="Axo panel"><polygon class="cls-1" points="20.14 59.2 30.78 64.38 35.97 61.85 25.34 56.66 20.14 59.2"/><path class="cls-2" d="M30.78,65.16a.77.77,0,0,1-.34-.08L19.8,59.9a.79.79,0,0,1-.43-.7.78.78,0,0,1,.43-.7L25,56a.76.76,0,0,1,.69,0l10.63,5.18a.78.78,0,0,1,0,1.4l-5.19,2.53A.84.84,0,0,1,30.78,65.16Zm-8.86-6,8.86,4.32,3.42-1.67-8.86-4.32Z"/></g></g><g id="Axo_Surface-2" data-name="Axo Surface"><g id="Axo_panel-3" data-name="Axo panel"><polygon class="cls-1" points="22.74 54.85 20.14 53.96 25.34 51.43 27.94 52.32 22.74 54.85"/><path class="cls-2" d="M22.74,55.63a.74.74,0,0,1-.25-.05l-2.6-.88a.78.78,0,0,1-.52-.69.76.76,0,0,1,.43-.74L25,50.73a.78.78,0,0,1,.6,0l2.6.88A.78.78,0,0,1,28.28,53l-5.2,2.53A.77.77,0,0,1,22.74,55.63Zm-.56-1.79.51.17,3.21-1.57-.51-.17Z"/></g></g><g id="Axo_Surface-3" data-name="Axo Surface"><g id="Axo_panel-4" data-name="Axo panel"><polygon class="cls-1" points="19.65 36.79 22.74 38.3 27.94 35.77 24.84 34.26 19.65 36.79"/><path class="cls-2" d="M22.74,39.08A.84.84,0,0,1,22.4,39l-3.09-1.51a.78.78,0,0,1,0-1.4l5.19-2.53a.81.81,0,0,1,.68,0l3.1,1.51a.78.78,0,0,1,0,1.4L23.08,39A.77.77,0,0,1,22.74,39.08Zm-1.32-2.29,1.32.65,3.42-1.67-1.32-.65Z"/></g><g id="Axo_panel-5" data-name="Axo panel"><polygon class="cls-1" points="22.74 38.3 22.74 54.85 27.94 52.32 27.94 35.77 22.74 38.3"/><path class="cls-2" d="M22.74,55.63a.77.77,0,0,1-.77-.78V38.3a.78.78,0,0,1,.43-.7l5.2-2.53a.77.77,0,0,1,.75,0,.79.79,0,0,1,.36.66V52.32a.81.81,0,0,1-.43.7l-5.2,2.53A.77.77,0,0,1,22.74,55.63Zm.78-16.84V53.61l3.64-1.78V37Z"/></g></g><g id="Axo_Surface-4" data-name="Axo Surface"><g id="Axo_panel-6" data-name="Axo panel"><polygon class="cls-1" points="15.02 28.67 14.87 38.4 20.06 35.86 20.21 26.13 15.02 28.67"/><path class="cls-2" d="M14.87,39.17a.77.77,0,0,1-.78-.79l.15-9.73a.79.79,0,0,1,.44-.68l5.19-2.53a.77.77,0,0,1,.76,0,.8.8,0,0,1,.36.67l-.15,9.73a.79.79,0,0,1-.44.68l-5.19,2.53A.71.71,0,0,1,14.87,39.17Zm.92-10-.13,8,3.63-1.77.12-8Z"/></g><g id="Axo_panel-7" data-name="Axo panel"><polygon class="cls-1" points="14.87 38.4 19.28 40.55 24.47 38.01 20.06 35.86 14.87 38.4"/><path class="cls-2" d="M19.28,41.32a.66.66,0,0,1-.34-.08l-4.41-2.15a.77.77,0,0,1,0-1.39l5.19-2.53a.74.74,0,0,1,.68,0l4.41,2.15a.77.77,0,0,1,0,1.39l-5.19,2.53A.71.71,0,0,1,19.28,41.32ZM16.64,38.4l2.64,1.28L22.7,38l-2.64-1.28Z"/></g></g><g id="Axo_Surface-5" data-name="Axo Surface"><g id="Axo_panel-8" data-name="Axo panel"><polygon class="cls-3" points="19.28 40.55 19.65 36.79 24.84 34.26 24.47 38.01 19.28 40.55"/><path class="cls-2" d="M19.28,41.32a.75.75,0,0,1-.45-.14.79.79,0,0,1-.33-.71l.38-3.76a.78.78,0,0,1,.43-.62l5.19-2.53a.78.78,0,0,1,.78.06.76.76,0,0,1,.33.72l-.37,3.75a.76.76,0,0,1-.43.62l-5.19,2.53A.71.71,0,0,1,19.28,41.32Zm1.1-4-.19,1.94,3.55-1.73.19-1.94Z"/></g></g><g id="Axo_Surface_" data-name="Axo Surface*"><g id="Axo_panel-9" data-name="Axo panel"><polygon class="cls-1" points="30.78 64.38 30.78 59.15 35.97 56.62 35.97 61.85 30.78 64.38"/><path class="cls-2" d="M30.78,65.16a.73.73,0,0,1-.41-.12.77.77,0,0,1-.37-.66V59.15a.77.77,0,0,1,.44-.7l5.19-2.53a.78.78,0,0,1,1.12.7v5.23a.77.77,0,0,1-.44.7l-5.19,2.53A.84.84,0,0,1,30.78,65.16Zm.77-5.53v3.51l3.64-1.77V57.86Z"/></g><g id="Axo_panel-10" data-name="Axo panel"><polygon class="cls-1" points="30.78 59.15 28.18 57.5 33.37 54.97 35.97 56.62 30.78 59.15"/><path class="cls-2" d="M30.78,59.93a.79.79,0,0,1-.42-.12l-2.6-1.66a.77.77,0,0,1,.08-1.35L33,54.27a.77.77,0,0,1,.75,0L36.38,56a.77.77,0,0,1,.36.7.78.78,0,0,1-.43.66l-5.19,2.53A.84.84,0,0,1,30.78,59.93Zm-1-2.34,1.06.67,3.55-1.73-1.06-.67Z"/></g><g id="Axo_panel-11" data-name="Axo panel"><polygon class="cls-3" points="28.18 57.5 28.18 40.95 33.37 38.42 33.37 54.97 28.18 57.5"/><path class="cls-2" d="M28.18,58.28a.73.73,0,0,1-.41-.12.77.77,0,0,1-.37-.66V41a.77.77,0,0,1,.44-.7L33,37.72a.77.77,0,0,1,.75,0,.76.76,0,0,1,.36.66V55a.76.76,0,0,1-.43.69L28.52,58.2A.84.84,0,0,1,28.18,58.28ZM29,41.44V56.26l3.64-1.78V39.66Z"/></g></g><g id="Axo_Surface-6" data-name="Axo Surface"><g id="Axo_panel-12" data-name="Axo panel"><polygon class="cls-1" points="28.18 40.95 31.25 42.45 36.44 39.92 33.37 38.42 28.18 40.95"/><path class="cls-2" d="M31.25,43.22a.77.77,0,0,1-.34-.07l-3.07-1.5a.78.78,0,0,1,0-1.4L33,37.72a.81.81,0,0,1,.68,0l3.07,1.5a.78.78,0,0,1,0,1.39l-5.19,2.54A.83.83,0,0,1,31.25,43.22ZM30,41l1.3.63,3.42-1.66-1.3-.64Z"/></g><g id="Axo_panel-13" data-name="Axo panel"><polygon class="cls-1" points="31.25 42.45 31.65 46.58 36.84 44.05 36.44 39.92 31.25 42.45"/><path class="cls-2" d="M31.65,47.36a.86.86,0,0,1-.38-.1.78.78,0,0,1-.39-.6l-.41-4.14a.77.77,0,0,1,.44-.77l5.19-2.53a.77.77,0,0,1,1.11.62l.4,4.13a.79.79,0,0,1-.43.78L32,47.28A.81.81,0,0,1,31.65,47.36Zm.42-4.45.24,2.48L36,43.59l-.25-2.49Z"/></g><g id="Axo_panel-14" data-name="Axo panel"><polygon class="cls-1" points="31.65 46.58 36.02 48.71 41.21 46.18 36.84 44.05 31.65 46.58"/><path class="cls-2" d="M36,49.49a.81.81,0,0,1-.34-.08l-4.37-2.13a.78.78,0,0,1,0-1.4l5.19-2.53a.81.81,0,0,1,.68,0l4.37,2.13a.78.78,0,0,1,0,1.4l-5.19,2.53A.81.81,0,0,1,36,49.49Zm-2.6-2.91L36,47.85l3.42-1.67-2.6-1.27Z"/></g></g><g id="Axo_Surface_2" data-name="Axo Surface*"><g id="Axo_panel-15" data-name="Axo panel"><polygon class="cls-1" points="36.02 48.71 35.87 38.84 41.06 36.3 41.21 46.18 36.02 48.71"/><path class="cls-2" d="M36,49.49a.72.72,0,0,1-.4-.12.77.77,0,0,1-.38-.65l-.15-9.87a.79.79,0,0,1,.44-.71l5.19-2.53a.77.77,0,0,1,1.12.68L42,46.17a.79.79,0,0,1-.44.71l-5.19,2.53A.81.81,0,0,1,36,49.49Zm.63-10.17.13,8.16,3.65-1.78-.13-8.16Z"/></g><g id="Axo_panel-16" data-name="Axo panel"><polygon class="cls-1" points="35.87 38.84 15.02 28.67 20.21 26.13 41.06 36.3 35.87 38.84"/><path class="cls-2" d="M35.87,39.61a.68.68,0,0,1-.34-.08L14.68,29.36a.77.77,0,0,1,0-1.39l5.19-2.53a.74.74,0,0,1,.68,0L41.4,35.61a.77.77,0,0,1,0,1.39l-5.19,2.53A.68.68,0,0,1,35.87,39.61ZM16.79,28.67,35.87,38l3.42-1.67L20.21,27Z"/></g></g><g id="Axo_cap" data-name="Axo cap"><g id="Axo_base-10" data-name="Axo base"><polygon class="cls-1" points="30.78 64.38 20.14 59.2 20.14 53.96 22.74 54.85 22.74 38.3 19.65 36.79 19.28 40.55 14.87 38.4 15.02 28.67 35.87 38.84 36.02 48.71 31.65 46.58 31.25 42.45 28.18 40.95 28.18 57.5 30.78 59.15 30.78 64.38"/><path class="cls-2" d="M30.78,65.16a.77.77,0,0,1-.34-.08L19.8,59.9a.79.79,0,0,1-.43-.7V54a.79.79,0,0,1,.32-.63.8.8,0,0,1,.7-.1l1.58.53v-15L20.31,38l-.26,2.64a.77.77,0,0,1-1.11.62l-4.41-2.15a.79.79,0,0,1-.44-.71l.15-9.73a.82.82,0,0,1,.37-.65.8.8,0,0,1,.75,0L36.21,38.14a.79.79,0,0,1,.44.68l.15,9.88a.78.78,0,0,1-1.12.71l-4.37-2.13a.78.78,0,0,1-.43-.62L30.52,43,29,42.19V57.07l2.24,1.42a.77.77,0,0,1,.36.66v5.23a.76.76,0,0,1-.36.66A.78.78,0,0,1,30.78,65.16Zm-9.86-6.45L30,63.14V59.58l-2.24-1.43a.78.78,0,0,1-.36-.65V41a.77.77,0,0,1,.37-.66.8.8,0,0,1,.75,0l3.07,1.5a.78.78,0,0,1,.43.62l.36,3.7,2.85,1.39-.13-8.13L15.78,29.9l-.13,8,3,1.45.27-2.65a.78.78,0,0,1,.39-.6.79.79,0,0,1,.72,0l3.09,1.51a.77.77,0,0,1,.44.7V54.85a.77.77,0,0,1-1,.73l-1.57-.53Z"/></g></g></g></g></g></g></svg>