<svg xmlns="http://www.w3.org/2000/svg" xmlns:xlink="http://www.w3.org/1999/xlink" viewBox="0 0 1588.84 687.37"><defs><style>.cls-1{fill:none;}.cls-2{isolation:isolate;}.cls-3{clip-path:url(#clip-path);}.cls-4{opacity:0.4;mix-blend-mode:soft-light;}.cls-5{fill:#3aa1ff;}.cls-6{fill:#2572b9;}.cls-7{fill:#1f4283;}.cls-8{mix-blend-mode:screen;}.cls-9{opacity:0.11;}</style><clipPath id="clip-path" transform="translate(154.42 50.31)"><rect class="cls-1" width="1280" height="327.35"/></clipPath></defs><g class="cls-2"><g id="Layer_2" data-name="Layer 2"><g id="Layer_1-2" data-name="Layer 1"><g class="cls-3"><g class="cls-4"><polygon class="cls-5" points="1588.84 183.86 1554.93 165.25 1554.93 113 1463.3 113 1463.3 56.83 1345.51 56.83 1345.51 199.21 1318.14 199.21 1318.14 232.52 1296.72 232.52 1296.72 312.2 1271.73 312.2 1271.73 202.48 1209.86 202.48 1209.86 170.47 1174.76 170.47 1174.76 221.74 1142.03 239.7 1142.03 342.89 1064.69 342.89 1064.69 116.27 981.4 116.27 981.4 158.72 915.95 158.72 898.11 168.51 898.11 192.03 816 192.03 800.53 200.52 800.53 280.2 766.03 280.2 766.03 157.41 701.77 157.41 701.77 178.97 600.04 178.97 600.04 230.89 581.59 241.01 581.59 292.01 550.92 292.01 550.92 166.15 509.27 157 509.27 123.04 397.42 123.04 397.42 266.73 379.58 266.73 379.58 84.51 355.78 85.16 285.57 104.76 285.57 283.71 255.83 283.71 255.83 165.5 237.98 141.98 237.98 132.84 196.33 132.84 196.33 141.98 173.72 141.98 155.88 162.88 139.22 162.88 139.22 75.37 96.38 75.37 96.38 107.04 35.1 107.04 0 126.31 0 573.01 477.3 573.01 550.92 573.01 759.27 573.01 759.27 572.65 1588.84 572.11 1588.84 183.86"/><polygon class="cls-6" points="1283.1 183.2 1266.24 201.74 1266.24 258.57 1248.26 258.57 1248.26 102.89 1167.89 102.89 1167.89 465.52 1143.72 438.96 1143.72 230.16 965 230.16 965 283.28 870.58 283.28 870.58 450.08 870.58 523.52 787.64 523.52 787.64 306.62 763.64 306.62 763.64 222.23 714.46 222.23 714.46 362 691.67 362 691.67 388.37 662.88 338.26 612.5 338.26 612.5 157.62 515.33 157.62 506.93 166.85 506.93 222.23 506.93 284.2 479.34 284.2 479.34 119.38 396.57 119.38 396.57 147.07 380.38 164.87 380.38 445.72 361.78 445.72 361.78 220.25 350.99 220.25 350.99 198.49 255.62 198.49 239.43 216.29 239.43 241.35 149.46 241.35 144.66 561.1 444.55 561.1 444.55 560.44 749.25 560.44 749.25 561.1 870.58 561.1 1045.55 561.1 1355.04 561.1 1355.04 183.2 1283.1 183.2"/><polygon class="cls-7" points="1354.55 206.46 1354.55 431.77 1325.47 431.77 1325.47 342.1 1284.27 307.16 1284.27 171.52 1232.17 171.52 1201.88 145.83 1163.11 145.83 1163.11 282.5 1069.82 282.5 1069.82 437.67 1045.59 437.67 1045.59 220.84 977.74 250.64 977.74 380.12 959.56 380.12 959.56 180.77 936.54 180.77 936.54 122.19 930.68 122.19 930.68 108.83 879.17 108.83 879.17 120.14 846.88 120.14 846.88 165.35 793.57 165.35 780.24 180.77 780.24 365.73 734.81 365.73 734.81 328.23 706.34 304.08 706.34 215.71 606.98 215.71 606.98 288.66 570.63 288.66 570.63 350.32 527.02 391.42 499.15 391.42 499.15 196.18 421.61 150.97 421.61 331.82 403.43 331.82 403.43 207.48 311.35 207.48 311.35 250.64 268.94 250.64 268.94 457.19 250.77 457.19 250.77 367.79 188.98 367.79 188.98 340.04 178.07 326.69 111.43 326.69 106.59 687.37 1256.59 687.37 1325.47 687.37 1354.55 687.37 1433.42 687.37 1433.42 206.46 1354.55 206.46"/><rect class="cls-5" x="1137.82" y="54.75" width="7.84" height="15.68"/></g><g class="cls-8"><g class="cls-9"><g class="cls-2"><g class="cls-2"><path class="cls-7" d="M651.3,360.3c-2.54.17-5.18.33-8.16.48a2.33,2.33,0,0,1-1.48-1c-.3-.43-30.34-42.69-36.82-43.35l-2.6.08-4.35.13c-4.3.68-4.55,6.25-1.47,9.65,10.88,11.08,10.88,11.08,11.24,12.81s.47,3.59.69,5.39a7,7,0,0,0,2.17,4.41c3.78,3.46,3.78,3.46,4.11,5.25q.6,6.36,1,12.8c-.05,2.12-.86,3.28-2.49,3.55l-3.7.12a2.54,2.54,0,0,1-2-.95c-18-20.68-18-20.68-18.11-21.42q-.66-7.44-1.59-14.79c-.73-3.45-2.5-5.27-5.43-5.56l-7.35.13a3.06,3.06,0,0,1-2.35-1.2c-6.68-8.16-6.68-8.16-9.09-8.29l-4.39.05c-1.76-.19-2.82-1.26-3.23-3.29l0-.23c-.06-2,.73-3.1,2.41-3.32,7-.07,14-.17,20.77-.3a3.68,3.68,0,0,0,3.31-2.53c.83-1.74-.32-3.66.47-5.4,5.86-10,5.86-10,6.73-10.17l7.08-.2c14.86-.45,27.69-1.05,38.39-1.75-.28-.72-.56-1.43-.85-2.14-10.63.7-23.38,1.29-38.16,1.74l-7,.2a2.92,2.92,0,0,0-2.57,1.62c-6,11-6,11-5.78,12.5s.41,3.53-2,3.87c-6.76.13-13.66.23-20.66.3-1.81.24-4.19,1.07-4.06,5.6l0,.23c.29,1.89,1.39,5.11,5.43,5.54l4.41,0A3,3,0,0,1,566.1,322c6.72,8.21,6.72,8.21,9.09,8.32l7.38-.13c1.74.18,2.79,1.26,3.22,3.3q.9,7.35,1.55,14.8a6.77,6.77,0,0,0,1.74,4C608,372.82,608,372.82,609.49,373l3.69-.12c2.75-.45,4.13-2.41,4.21-6q-.37-6.42-1-12.79a6.93,6.93,0,0,0-2.08-4.43c-3.79-3.46-3.79-3.46-4.16-5.23q-.33-2.7-.69-5.38a7.28,7.28,0,0,0-1.87-4c-10.74-11.17-10.74-11.17-10.92-11.48-.56-1-1.13-4.23,1.64-4.67l4.36-.13,2.62-.08a2.88,2.88,0,0,1,2.12,1c12.92,14.38,23.2,27.09,30.57,37.77,3.77,5.48,3.77,5.48,5.57,5.69q4.13-.24,7.94-.49Q651.42,361.49,651.3,360.3Z" transform="translate(154.42 50.31)"/><path class="cls-7" d="M663.11,359.42q-4.86.42-10.46.79c.07.79.15,1.58.21,2.37,3.74-.25,7.23-.52,10.48-.79C663.27,361,663.19,360.21,663.11,359.42Z" transform="translate(154.42 50.31)"/><path class="cls-7" d="M668.64,293.75c-1.74.33-3.76.66-6.14,1a1.76,1.76,0,0,1-.92-.64c-6.07-6.62-6.09-6.62-7.06-6.62-5.29.61-11.7,1.17-19.18,1.68.29.71.57,1.42.86,2.14,7.53-.51,14-1.08,19.41-1.68a1.79,1.79,0,0,1,1,.63c6.26,6.59,6.26,6.59,6.92,6.66q3.45-.47,6.08-1Z" transform="translate(154.42 50.31)"/><path class="cls-7" d="M684.65,309.22l-.33-.92-.49-1.32a.73.73,0,0,1-.09.71,3.74,3.74,0,0,1-.42-.82c-4.33-9.46-7.5-14.73-8.13-14.9a28.72,28.72,0,0,1-6,1.67l1,2.17a29.45,29.45,0,0,0,6-1.68c.13,0,.22.06.67.81A123.08,123.08,0,0,1,684,308.88c.37.82.44.89.59,1A.83.83,0,0,0,684.65,309.22Z" transform="translate(154.42 50.31)"/><path class="cls-7" d="M675,431.46c1-4.86,1.49-7.53-6.83-22.8a11,11,0,0,1-.85-5.73q.38-4.76.55-9.55c-.09-6-1.57-9-4.54-9.39l-4.12.33c-2.36-.13-2.56-.76-5.06-8.45a13,13,0,0,1-.58-3.31c-.16-3.34-.38-6.66-.67-10-.06-.79-.14-1.58-.21-2.37q-.49-5.23-1.21-10.43l-1.33.09q.69,5.19,1.19,10.43.12,1.18.21,2.37c.29,3.32.51,6.64.66,10,.14,2.11.14,2.11,2.24,9,1.25,3.54,2.53,4.9,4.75,5l4.13-.32c2.24.27,3.35,2.59,3.42,7.09q-.18,4.8-.54,9.55a17.13,17.13,0,0,0,.51,6.11c2.05,5.84,5.49,11,7.54,16.87a11.36,11.36,0,0,1-.1,5.55q-1.36,6.22-3.11,12.35c-1.42,5.62-1.3,8.37.37,8.66l.6-.09c.25-.74.5-1.48.74-2.23l-.6.09c-.8-.45-1.71-.95-.29-6.54Q673.57,437.68,675,431.46Z" transform="translate(154.42 50.31)"/><path class="cls-7" d="M688.83,418.51c-1.1.31-2.41.61-3.92.91-1,.53-1.83,2.49-2.62,6A208.85,208.85,0,0,1,670,465.19q-1.49,3.51-3.09,6.95c-.7,1.47-.81,1.7-4.1,6a3.92,3.92,0,0,1-.9.92c-.87.19-1.56.3-2.27.4l-.29-.18c-.05-1.89-.05-1.89,7.36-12.08a19.86,19.86,0,0,0,2.06-3.85q1.56-3.87,3-7.78l-.7.11c-.94,2.61-1.92,5.2-3,7.78-.68,1.62-.79,1.87-6.52,9.45a22.43,22.43,0,0,0-2.71,4.78c-.93,2.28-.8,3.16-.74,3.53l.48.3c.71-.1,1.4-.2,2-.31.9-.37,1.21-.69,4.68-5.41a22.73,22.73,0,0,0,2.18-3.75q1.62-3.45,3.1-7a208.48,208.48,0,0,0,12.34-39.78c.63-2.78,1.12-3.2,1.56-3.56,1.51-.3,2.81-.61,3.91-.92.75,1-.91,13-2.59,20.4-.19.77-.26,1-.55,1.94-.15.48-.3,1-.46,1.44-.91,2.68-1.24,3.11-1.5,3.46l-.56.23c-.26.74-.52,1.48-.79,2.23.2-.08.39-.15.56-.23.45-.59,1-1.32,2.53-5.81.16-.48.32-1,.47-1.44a106,106,0,0,0,3.72-22.48C689.31,418.9,689.15,418.77,688.83,418.51Z" transform="translate(154.42 50.31)"/><path class="cls-7" d="M680.93,454.93c-.28.73-.57,1.47-.86,2.2a5,5,0,0,0,1.28-.77,24.21,24.21,0,0,0,1.43-3.25c1.44-3.69,1.62-4.21,3.36-9.26.31-.93.66-2,1-3.12a124,124,0,0,1-4.92,13.43A5.19,5.19,0,0,1,680.93,454.93Z" transform="translate(154.42 50.31)"/><path class="cls-7" d="M687.14,440.73c.18-.58.37-1.17.56-1.79C687.52,439.5,687.33,440.11,687.14,440.73Z" transform="translate(154.42 50.31)"/><path class="cls-7" d="M687.8,438.63c0,.11-.07.21-.1.31l.08-.27Z" transform="translate(154.42 50.31)"/><path class="cls-7" d="M628.65,497.69c-.57-.75-.8-.86-1.88-.9-2.22.15-4.53.29-6.95.43-1.23.24-2.33,1.22-3.35,3q-2.73,5.31-5.71,10.38l1.2-.07c2-3.37,3.93-6.84,5.76-10.38a2.55,2.55,0,0,1,.84-.91c2.68-.23,5-.37,7.19-.52,3.24.14,5.77,12.93,5.79,13.06-.09,1.87-.25,5-20.1,22.25-2.62,2.2-4.26,3.21-5.68,3.5-3.31.28-7,.55-11.08.8-2.91.45-5.49,2.48-9.41,5.57-2.44,1.82-4,2.61-5.63,2.83l-5.72.26c-1.59-.08-1.59-.08.68-8a9.34,9.34,0,0,1,1.38-2.7c.72-1,1.44-2.08,2.16-3.14q2.72-4,5.27-8.34c1.4-2.23,1.4-2.23,6.76-6.78,1.09-.93,6.9-5.9,14.17-12.68,2-1.74,3.27-2.43,4.95-2.64l4.83-.24,1-1.9-4.87.24c-1.6.2-3.08.71-5.53,2.66-6.46,5.14-12.16,11.11-18.45,16.44a20,20,0,0,0-4.2,5q-2.5,4.27-5.2,8.34c-.7,1.06-1.41,2.1-2.13,3.13-.39.6-.39.6-3.56,9.07-.66,2.08-.25,2.89,1.5,3l5.64-.26c3.13-.41,5.89-2.57,9.39-5.3,2.54-1.92,4.06-2.73,5.61-3,4-.25,7.67-.51,10.94-.8,1.25-.25,5-1,22.54-18.69C633.94,512.72,635.64,510.91,628.65,497.69Z" transform="translate(154.42 50.31)"/><path class="cls-7" d="M636.92,471.65c-.43,1.15-.87,2.3-1.31,3.44-2.1,4.93-2.32,5.45-18.55,16.93a6.62,6.62,0,0,1-3.36,1.36l-2.42.11c-1.53-.16-1.53-.16,1-6.65,1.9-4.38,3-5.18,9.09-9.59a6.46,6.46,0,0,1,3.31-1.38q4.78-.25,9.13-.52c.27-.71.53-1.41.8-2.11q-4.38.27-9.18.52c-2.07.22-2.07.22-8.27,4.71-4.68,3.67-6,7.1-8.07,12.76-.91,2.66-.48,4,1.29,4.22l2.41-.11c1.87-.19,3.11-.31,17.95-11.87a20.58,20.58,0,0,0,6.08-8.46c.44-1.14.88-2.29,1.31-3.45Z" transform="translate(154.42 50.31)"/><path class="cls-7" d="M668.3,429.37l-1.06.11c-1.15-.1-1.15-.1-3.36-4.89a125,125,0,0,0-6.52-11.73,9.8,9.8,0,0,1-1-5.77c.19-2.28.36-4.56.49-6.86,0-6-1.69-9.15-5.16-9.54-2.94.51-2.94.51-8.71,13.44a16.43,16.43,0,0,0-1.31,5.21q-.51,6-1.29,12a12.28,12.28,0,0,0,.85,6.74c2.87,6.36,7.33,11.79,10.35,18.06,1.08,2,1.08,2,12.81.53h0c.33.14.83.34.32,2.3q-1.61,5.39-3.5,10.66l.91-.1q1.9-5.28,3.52-10.66c1.27-4.53,1.27-4.53-10.92-3.23a2,2,0,0,1-2-1.31,126.18,126.18,0,0,0-10-17.41c-.95-1.61-1.2-3.09-.95-5.65q.78-6,1.29-12c.15-1.4.15-1.4,4.58-12.36,2.59-5.69,6.12-4.2,7.32-.72a12.71,12.71,0,0,1,.5,4.15c-.13,2.29-.3,4.57-.49,6.85a14.59,14.59,0,0,0,.94,6.9c2.33,5.61,6.09,10.45,8.55,16,.66,1.34,1.09,1.46,1.88,1.69.7,0,1.05-.07,1.4-.11,1.81.25,2.25,2.49,1.36,6.85Q667.33,446,665,453.23l.89-.1q2.38-7.28,4.25-14.73C671.29,432.65,670.7,429.69,668.3,429.37Z" transform="translate(154.42 50.31)"/><path class="cls-7" d="M655,268.22c-1.36-2.18-2.75-4.34-4.19-6.47l-.53.1c1.44,2.13,2.83,4.29,4.19,6.47,1.5,2.56,1.94,4,1.34,4.39-2.45.42-5.37.81-8.75,1.19-2.19-.27-4.49-4.8-4.51-4.85-.22-.43-.22-.43-2.22-8.75-.19-.87-.12-1.2.29-1.31a85.78,85.78,0,0,0,10.92-1.89c-.46-.64-.92-1.28-1.39-1.91a85.47,85.47,0,0,1-10.83,1.88c-.21.05-.68.19-.57,1.13.31,2.5,1.11,4.89,1.6,7.34a17.42,17.42,0,0,0,2.55,5.67c1.08,1.66,3.21,4.48,5.27,4.73q5.11-.57,8.82-1.19C657.85,274.16,657.2,272,655,268.22Z" transform="translate(154.42 50.31)"/><path class="cls-5" d="M652.94,254.16a11.71,11.71,0,0,1-2.28.88c.47.63.94,1.26,1.4,1.9a12,12,0,0,0,2.31-.89Z" transform="translate(154.42 50.31)"/><path class="cls-5" d="M649.39,337.12l-1.31.09q.7,3.78,1.29,7.59l1.33-.09C650.3,342.17,649.87,339.64,649.39,337.12Z" transform="translate(154.42 50.31)"/><path class="cls-5" d="M660.05,462.82c-.5,1.32-1,2.64-1.53,3.95q-1.5,3.76-3.12,7.45l.88-.1c1.09-2.46,2.13-4.94,3.14-7.45.52-1.31,1-2.63,1.53-3.95Z" transform="translate(154.42 50.31)"/><path class="cls-6" d="M653.82,477.69c-.68,1.47-1.37,2.92-2.09,4.36l.87-.09c.71-1.45,1.41-2.9,2.09-4.37Z" transform="translate(154.42 50.31)"/><path class="cls-5" d="M608.69,514q-2.73,4.43-5.65,8.65l1.12-.06q3-4.22,5.71-8.65Z" transform="translate(154.42 50.31)"/><path class="cls-5" d="M641.67,457.39q-1.68,5.6-3.61,11.09l0,.13,1.26-.08,0-.13q2-5.49,3.64-11.1Z" transform="translate(154.42 50.31)"/><path class="cls-5" d="M678.11,455.88c-.28.73-.56,1.47-.85,2.2.74-.2,1.39-.41,2-.61.29-.73.57-1.46.86-2.2C679.51,455.48,678.86,455.68,678.11,455.88Z" transform="translate(154.42 50.31)"/><path class="cls-6" d="M696.51,372.42c0,.7-.93,1.4-2.78,2.07,0,.8,0,1.6.06,2.4,1.85-.68,2.78-1.37,2.77-2.08S696.53,373.22,696.51,372.42Z" transform="translate(154.42 50.31)"/><path class="cls-7" d="M667.3,272.47,667,272l-1-1.66-.35-.56-.18-.27a.75.75,0,0,1,0,.53,25.61,25.61,0,0,1-2-3.08c0-.12,0-.2,0-.27-.12-.32-.12-.32-2.65-4.22l-.31-.48-.09-.16-1.36-2,.09.16c.86,1.42,1.82,2.78,2.73,4.18.21.34.24.39.29.49a.65.65,0,0,1-.06.24,51.18,51.18,0,0,0,2.64,4.44,18.68,18.68,0,0,0,1.88,2.68.75.75,0,0,0,0-.55C666.74,271.54,666.74,271.54,667.3,272.47Z" transform="translate(154.42 50.31)"/><path class="cls-5" d="M583.81,469.3a2.52,2.52,0,0,0-2-.83l-4.38.09c-2.27.3-3.75,1.69-4.52,4.25-.08.36-.15.72-.23,1.07-.35,2.16-.35,2.16,4.16,6.73a1.59,1.59,0,0,1,.35,1.36c-.54,2.6.22,4,2.32,4.17l3.51-.09.6-2-3.53.08c-1.27-.12-1.33-1.12-1.16-1.93.47-2.23.47-2.23-4-6.68a1.73,1.73,0,0,1-.37-1.64c.08-.36.16-.71.23-1.07A2.61,2.61,0,0,1,577,470.7l4.36-.09c.73,0,.73,0,6.36,6.57a1.73,1.73,0,0,1,.23,1.57c-.85,3.1-1.75,6.15-2.68,9.15l1.7,0c.95-3,1.86-6,2.73-9.14C590.17,476.55,590.17,476.55,583.81,469.3Z" transform="translate(154.42 50.31)"/><path class="cls-5" d="M691.15,341.61a17.45,17.45,0,0,1-2.23.79c-2.13.05-5.38-6.79-8.69-18.29q-2.82-10.12-6.65-20-1.64-4.19-3.42-8.3l-1-2.17q-1.53-3.39-3.18-6.74l-.54.11c1.09,2.23,2.14,4.47,3.16,6.74l1,2.17q1.78,4.11,3.4,8.31,3.82,9.86,6.64,20c3.69,12.89,7.32,20.56,9.7,20.51a19.37,19.37,0,0,0,2.24-.79C691.44,343.16,691.3,342.38,691.15,341.61Z" transform="translate(154.42 50.31)"/><path class="cls-5" d="M643.53,323.33c-2.62-3.12-5.15-4.55-8-4.51s-6,.32-9.26.47c.18.76.35,1.52.52,2.28,3.23-.16,6.33-.31,9.3-.48,4,.11,5.37,1.93,10.65,8.72l.6-1.63C646.22,326.72,644.69,324.78,643.53,323.33Z" transform="translate(154.42 50.31)"/><path class="cls-5" d="M624.45,319.38l-4.42.19c.17.76.34,1.52.5,2.27l4.43-.19Z" transform="translate(154.42 50.31)"/><path class="cls-5" d="M691.81,374.82a91.41,91.41,0,0,1-11,2.05c-2.34.65-4,5.5-4.31,12.35q-.13,5.83-.56,11.59l.91-.11q.43-5.76.57-11.59c.22-5.46,1.58-9.33,3.45-9.85a89.89,89.89,0,0,0,11-2.06C691.85,376.41,691.84,375.61,691.81,374.82Z" transform="translate(154.42 50.31)"/><path class="cls-7" d="M544.58,553.52l-6-8.15a1.25,1.25,0,0,0-1-.4l-3.18,0c-1.66,0-2.42.9-3.19,2.28-.6,1.29-1.21,2.56-1.82,3.8a1.82,1.82,0,0,0-.1,1.58l4.93,5.88c.07.28.07.28-.37,1,0,0-.81,1.3.6,1.44l3.48-.06.94-1.14-3.53.06c-.21,0-.53-.12-.14-.69.5-.74.84-1.22-.07-2.22l-4.48-5.16c-.13-.23-.13-.32,0-.67.63-1.23,1.25-2.5,1.87-3.8a1.51,1.51,0,0,1,1.21-.85l3.13,0a1.1,1.1,0,0,1,.89.55s4.45,6,5.6,7.94c.05.24.05.24-.1.52a99.68,99.68,0,0,1-13.94,15.13h.86a101.12,101.12,0,0,0,14.16-15A1.59,1.59,0,0,0,544.58,553.52Z" transform="translate(154.42 50.31)"/><path class="cls-6" d="M636.2,291.28c-.29-.72-.57-1.43-.86-2.14a229.12,229.12,0,0,0-14.45-29.4l-1.07.07a230.58,230.58,0,0,1,14.32,29.41c.29.71.57,1.42.85,2.14q2.37,6,4.45,12.3l1.24-.08Q638.6,297.33,636.2,291.28Z" transform="translate(154.42 50.31)"/><path class="cls-6" d="M672.66,475.27c-.37.7-.74,1.4-1.12,2.09a1.31,1.31,0,0,0,.27-.33l.34-.63.78-1.48A1.37,1.37,0,0,1,672.66,475.27Z" transform="translate(154.42 50.31)"/><path class="cls-6" d="M670,358.66c-1.63.17-3.34.33-5.13.49.08.78.16,1.57.23,2.36,1.79-.16,3.51-.32,5.14-.49Z" transform="translate(154.42 50.31)"/><path class="cls-5" d="M542.25,559.64l-1,1.14,4.75-.12,1.09-1.14Z" transform="translate(154.42 50.31)"/></g></g></g><path class="cls-7" d="M445.45,378.31h-2.13c0,2.71,0,5.4,0,8.1h2.12Q445.45,382.36,445.45,378.31Z" transform="translate(154.42 50.31)"/><path class="cls-7" d="M523.89,452.37l-2.74-.07c3.86,5.1,11,14.59,17.93,25.32a5.17,5.17,0,0,1,.67,1.6l1.58-1.48C540.79,476.13,533.89,465.69,523.89,452.37Z" transform="translate(154.42 50.31)"/><path class="cls-7" d="M296.83,352.82c-.08.79-.15,1.57-.22,2.36,4.21-.64,9.42-1.25,15.59-1.82.07-.79.13-1.57.21-2.36C306.24,351.57,301,352.18,296.83,352.82Z" transform="translate(154.42 50.31)"/><path class="cls-7" d="M509.79,434.52a7.2,7.2,0,0,0-5.49-2.72c-9.87-.18-19.85-.19-29.74-.41-3.69-.19-5.94-2.36-6.08-6.72q-.09-5.28-.15-10.62c-.24-5.66-3.06-8.92-8.34-9.17l-8.08,0c-3.75-.42-5.8-2.66-6.27-6.83-.06-3.07-.1-6.15-.14-9.24h-2.12q.06,4.64.15,9.24c.63,5.6,3.39,8.6,8.43,9.18l8.06,0c3.89.16,5.77,2.67,6.21,6.82q.06,5.34.17,10.62c.14,5.5,3,8.73,8.18,9,9.89.09,19.79.22,29.63.4,2.56.19,2.56.19,15.18,15.93l2.76.07C513.45,439,513.45,439,509.79,434.52Z" transform="translate(154.42 50.31)"/><path class="cls-7" d="M492.93,556.81s-.36,2.32-.73,3.8a7.3,7.3,0,0,1-.86,2.39,1.87,1.87,0,0,1-1.48,1,2.42,2.42,0,0,1-1.88-1.16l-6.57-11.14a6.23,6.23,0,0,1-.88-2.8c-.84-9.9-1.52-20.85-2.1-33.28q-.35-7.46-.64-15.43c-.1-2.46-.12-3.44-2.73-5.76-2.24-2-6.11-5.38-13.12-11.09a7,7,0,0,1-2.47-4.75c-.88-10.06-1.62-20.6-2.22-31.54q-.48-8.89-.83-18c-.71-5.51-3.45-8.46-8.4-9-9.17,0-18.26,0-27.2.12.06.78.12,1.55.19,2.32,8.91-.08,18-.12,27.11-.11,3.67.41,5.71,2.6,6.25,6.7q.38,9.06.9,17.95,1,16.42,2.39,31.54c.32,2.22-.07,3.19,3.09,6.2,2.28,2.16,6.68,5.31,13.23,10.9,1.64,1.4,2,2.22,2.15,4.5.42,5.37.49,10.45.78,15.42.71,12.7,1.12,23.66,2,33.17a7.64,7.64,0,0,0,.73,2.95l7.23,11.75c1.94,2.7,4,2.53,5.19.68a11.79,11.79,0,0,0,1.09-3l.76-3.72C493.75,557.27,493.14,556.88,492.93,556.81Z" transform="translate(154.42 50.31)"/><path class="cls-7" d="M539.81,481.54c-1.66,8.33-3.43,16-5.5,23.23-.7,2.34-.51,2.42-5.4,6.8-13.41,12-24.5,22.53-33,31.24a6.58,6.58,0,0,0-1.77,3.88c-.34,3.31-.75,6.49-1.1,9.41.28.13.72.22,1,.32.42-3,.83-6.26,1.24-9.71a5.83,5.83,0,0,1,1.78-3.25c3.74-3.68,12.81-13,35.81-33.48a10.55,10.55,0,0,0,3.14-5.09q2.94-11,5.41-22.93a8.84,8.84,0,0,0,.2-2.15Z" transform="translate(154.42 50.31)"/><path class="cls-7" d="M370.1,396.22c-3.79-2.62-4-4.52-4.29-7.44-.43-7.93-.58-14.63-.58-22l-1.84.06q-.17,12,.51,23.95c.72,6.49.72,6.49,43.94,30.8a7.36,7.36,0,0,0,3.66,1c2.48,0,5-.06,7.5-.09-.07-.77-.13-1.55-.19-2.32-2.53,0-5,.17-7.55.14a3.82,3.82,0,0,1-2.15-.62Z" transform="translate(154.42 50.31)"/><path class="cls-7" d="M364.76,334.61a42.88,42.88,0,0,0-4.44-4.29c-2-1.94-6.29-6.14-11.92-12.57a3.62,3.62,0,0,0-3-1.34c-3,.15-5.91.31-8.69.48-.84.13-2.85-.14-5.4,4s-7,12-13.78,26.86c-1,2-1.82,2.85-3.05,3.11l-.93.08c-.07.79-.14,1.57-.2,2.36l.93-.08c2.4-.5,3-1.85,6-8.34a252.93,252.93,0,0,1,12.18-22.72c1.26-1.93,2.29-2.74,3.79-3,2.78-.17,5.69-.33,8.71-.49,1.38,0,1.38,0,5.41,4.56,1.31,1.47,5.15,5.66,12.61,12.69,1.37,1.49,1.85,3,1.74,5.51q-1,11.35-1.25,23l1.84-.06q.24-11.65,1.24-23A10,10,0,0,0,364.76,334.61Z" transform="translate(154.42 50.31)"/><path class="cls-7" d="M416.76,322.43c-3.54-.36-5.22-2.48-5.13-6.45.4-3.59.85-7.14,1.33-10.66.26-5.22-1.77-8-6.21-8.43-9.87.16-19.47.38-28.69.67q-13.32.4-24.57.95c-.8-.06-3.22-.24-10.44-17.24-.65-1.2-.92-1.38-2.17-1.48-3.5.24-6.76.5-9.76.77-2,.55-3,.49-11.53,11.76a11.65,11.65,0,0,1-1.91,2,4.79,4.79,0,0,1-2.7,1.12c-2.17.78-3.93,3.21-5.92,8.44q-.56,1.64-1.08,3.27c-1.41,4.67-1.94,6.42,2.72,19.15.72,1.43,2.75,1.08,3.45,2.53.84,1.72.56,4,.4,5.38q-1.37,8.31-2.14,16.79c-.08.79-.14,1.57-.21,2.36-.12,1.54-.23,3.09-.33,4.64l1.12-.1c.1-1.55.21-3.1.33-4.64.06-.79.13-1.57.2-2.36q.78-8.47,2.13-16.79c.65-5.43-.16-8.22-2.5-8.53-1.84-.24-3.77-7.5-5.06-13.54-.15-1.75.34-2.53,1-4.8.35-1.09.72-2.18,1.09-3.27.89-2.37,2-5.49,4.22-6.61a3.58,3.58,0,0,1,2.05-.47c1.07-.36,1.07-.36,10.87-12.17,1.36-1.47,1.74-1.74,2.87-2.05,3-.27,6.3-.54,9.82-.79,1.16.19,1.16.19,3,4.34a116.26,116.26,0,0,0,6.81,12.9,3.28,3.28,0,0,0,3,1.58q11.3-.54,24.67-.95c9.27-.28,18.9-.5,28.81-.67,3.31.34,4.82,2.39,4.62,6.26q-.75,5.3-1.37,10.66c-.13,5.37,2.14,8.22,6.92,8.72l7.82-.07c.06-.77.13-1.53.19-2.29Z" transform="translate(154.42 50.31)"/><path class="cls-7" d="M426.61,322.34l-.18,2.29,10.33-.06c.05-.76.1-1.52.16-2.28Z" transform="translate(154.42 50.31)"/><path class="cls-7" d="M488.17,320.28A8.19,8.19,0,0,0,484,319l-7.81-.08c-5.33.53-8.28,3.58-9,9.32,0,1.38-.09,2.77-.13,4.15-.56,4.42-2.81,6.77-6.89,7.21l-4.39,0c-6.83-.39-6.5-5.17-5.79-15.64.39-3.46,1.68-4.55,4.25-6.72,6.35-5.95,3.77-15.84-4.23-16.28h-9.85c-3.33.17-3.33.17-11.29,7.14a10.77,10.77,0,0,0-3.58,7q-.35,3.6-.66,7.24c-.06.76-.13,1.52-.19,2.29-.27,3.42-.52,6.86-.73,10.33l2.07,0c.21-3.46.45-6.91.72-10.33l.18-2.29c.2-2.42.41-4.84.64-7.24.49-3.39.49-3.39,8.32-10.2a6.59,6.59,0,0,1,4.3-1.71h9.89c4.71.52,9.81,6.77,1.63,13.65-3.37,3.15-3.38,3.38-4.11,15.45-.07,5.59,3.21,9.38,8.35,9.67l4.4,0c5.4-.57,8.37-3.69,9.09-9.52,0-1.39.09-2.77.13-4.15.55-4.36,2.79-6.67,6.82-7.07l7.83.08c2,.16,2,.16,18.58,10.54a7.44,7.44,0,0,1,3.37,6.36c0,1.94,0,3.87,0,5.82,0,.14,0,1,0,1.1h2.13c0-.2,0-.87,0-1.06,0-1.95,0-3.89,0-5.82C507.63,332.4,507.63,332.4,488.17,320.28Z" transform="translate(154.42 50.31)"/><path class="cls-7" d="M505.28,347c-1,2.26-1.1,2.32-13,9.51-3.08,2.16-4.33,4.47-4.63,8.51l0,.84q0,3.12-.08,6.21c-.27,4-.27,4-12.27,13.17a6.29,6.29,0,0,1-3.87,1.32c-8.67-.07-17.32-.11-25.9-.1h-2.12c-8.5,0-16.92,0-25.21.13,0,.79,0,1.58.05,2.37,8.28-.08,16.69-.12,25.18-.13h2.12c8.57,0,17.21,0,25.87.1,2.93-.1,2.93-.1,14.44-8.82a10.29,10.29,0,0,0,3.88-8c0-2.06.05-4.13.08-6.21,0-.28,0-.56,0-.84.34-4.55.34-4.55,13.64-12.56a9.08,9.08,0,0,0,3.84-4.41,7.17,7.17,0,0,0,.33-1Z" transform="translate(154.42 50.31)"/><path class="cls-5" d="M311.7,361.17c-.11,2.11-.18,4.22-.23,6.33l1.12-.1q.07-3.16.23-6.33Z" transform="translate(154.42 50.31)"/><path class="cls-7" d="M444.7,283.74l-4.73,0c-1.3-.17-1.3-.17-4.73-6.91a3.29,3.29,0,0,0-3-1.83c-8,.06-16,.16-23.69.29-.93-.1-1.89-.21-7.32-15.62a2.2,2.2,0,0,0-2.28-1.53l-9,.25-6.07.2c.53-1.27,1.07-2.54,1.61-3.79l-1.51.05c-.55,1.25-1.1,2.52-1.63,3.79l-3.55.14c-.28.64-.55,1.28-.82,1.93l3.56-.13q-2.37,5.79-4.49,11.86c-.73,2.71-.06,4.14,2.05,4.34l4.5-.14c2.37-.08,4.76-.14,7.18-.21.86.09.86.09,6.72,11.23a2.86,2.86,0,0,0,2.65,1.49q7.92-.15,16.09-.26c1.26.17,1.26.17,4.5,8.34a3.53,3.53,0,0,0,3.34,2.25c3,0,6-.05,9-.06,1.94-.12,1.94-.12,7.39-5.59a2.52,2.52,0,0,1,1.76-.78h1.42a5.17,5.17,0,0,0,4.63-3.75C448.26,289.26,449.5,284.27,444.7,283.74Zm1.65,5.14a2.78,2.78,0,0,1-2.49,2h-1.41a4.69,4.69,0,0,0-3.27,1.44c-4.76,4.77-4.76,4.77-5.87,4.89l-8.94.07a1.89,1.89,0,0,1-1.79-1.2c-3.67-9.21-3.67-9.21-6-9.35q-8.12.11-16,.26a1.54,1.54,0,0,1-1.42-.8c-6.39-11.78-6.39-11.78-7.81-11.83l-7.14.2-4.47.14c-1.07-.1-1.48-1-1.11-2.33q2.08-6.06,4.43-11.86l6.11-.19c3-.1,6-.18,9.06-.26a1.23,1.23,0,0,1,1.24.83c5.81,16.33,6.33,16.36,8.54,16.46,7.78-.13,15.75-.23,23.83-.29a1.75,1.75,0,0,1,1.63,1c3.89,7.66,3.89,7.66,6.18,7.8h4.76C447.05,286.15,446.36,288.86,446.35,288.88Z" transform="translate(154.42 50.31)"/><path class="cls-7" d="M483.92,218.72c-12.34-.13-24.67-.15-36.66-.06a5.87,5.87,0,0,0-4.85,3.71c-.14.35-.27.7-.4,1a1.86,1.86,0,0,1-.1.25,3.5,3.5,0,0,1-2.89,2.24l-6.49.09a5.35,5.35,0,0,0-2.1.75c-7.47,4.51-7.47,4.51-8.51,6.67q-2.44,5.75-4.67,11.89l1.62,0q2.17-6.14,4.57-11.89a4.26,4.26,0,0,1,1.67-1.9c6.16-3.76,6.16-3.76,7-3.88l6.27-.07a6,6,0,0,0,5-3.88l.09-.25.39-1a3.38,3.38,0,0,1,2.82-2.17c12.13-.09,24.61-.07,37.11.06a2,2,0,0,1,1.94,2.18q0,.51-.06,1v.11a2.34,2.34,0,0,1-1.6,2.1c-16.88,5.45-16.88,5.45-17.58,8.41-.45,2.81-.88,5.68-1.3,8.63a2.93,2.93,0,0,1-2.75,2.48c-10.82,0-21.52,0-31.95.13-1.37-.14-1.87-.94-1.52-2.46.6-2.62-.17-3.94-2.43-4.17l-3,0c-.21.59-.43,1.17-.65,1.76l3,0c1.31.14,1.77.93,1.42,2.44-.63,2.63.23,4,2.62,4.27,10.52-.12,21.31-.16,32.22-.13a5,5,0,0,0,4.73-4.31c.39-2.94.8-5.82,1.22-8.62a2.82,2.82,0,0,1,1.88-2.22c16.85-5.41,16.85-5.41,17.2-8.28v-.12c0-.35,0-.7,0-1.05C487.15,220.18,486.06,219,483.92,218.72Z" transform="translate(154.42 50.31)"/><path class="cls-7" d="M593.83,258c-1.21-3.1-2.43-6.15-3.78-9.11s-2.36-4.11-5.15-4.38c-1.5-.08-3.78-.17-4.82-.28s-1.08-.44-1.88-1.23c-13-14.84-13.17-14.87-15.7-15.36-9.52-.45-19.54-.83-30.19-1.15a2.84,2.84,0,0,0-1.83,1c-3.57,5.2-3.57,5.2-4.71,5.43-9.24-.26-18.66-.46-28.14-.61a3.61,3.61,0,0,0-2.68,1.15c-8.62,9.27-8.62,9.27-10,9.47l-8.29-.08c-2.44.24-3.87,1.59-4.38,4.13l-.3,3.07h1.78c.09-1,.18-2.05.28-3.07.47-1.63.88-2,2.47-2.34,2.79,0,5.57,0,8.36.08a4.06,4.06,0,0,0,2.92-1.24c9-9.36,9-9.36,9.87-9.49,9.57.16,19.09.36,28.43.62a2.82,2.82,0,0,0,2.37-1.1c3.75-5.27,3.75-5.27,4.61-5.45q15.64.5,30.44,1.21a3.65,3.65,0,0,1,1.82,1.12c14.08,15.28,12.59,15.22,14.28,15.56a50.83,50.83,0,0,1,6.09.32c1.45.36,2,.79,2.75,2.49,1.29,3,2.47,6,3.62,9.14.63,1.69.53,2.4-.77,2.35-.77,0-1.54-.07-2.32-.13-1.25-.09-1.36.39-1.85,1.95L583,278.89c-.76,3-1.63,2.9-2,3l-14-.62c-1.95-.09-2.33.49-3,2.5-7,20.9-6.74,21.07-8.79,21.32l-16.15-.56a4,4,0,0,1-1.75-.71c-13.39-12.56-13-12.16-13.29-13.72l-.15-2.58c.23-2,.61-2.45,2.36-2.79l3.52.09a4.3,4.3,0,0,0,2.41-.77c2.78-2.13,1.9-8.16-3.24-8.86-7.14-.19-14.36-.35-22.19-.57a6,6,0,0,1-1.44-1c-15.84-21.36-15.84-21.36-17.79-21.63l-7.14-.08c0,.63-.07,1.26-.11,1.89,2.4,0,4.8,0,7.73.15a5.55,5.55,0,0,1,1.31.9c15.26,21.5,15.26,21.5,18.07,21.9q11,.21,21.75.49a8.24,8.24,0,0,1,1,.24c1.61.74,3,4.5-.51,5.21l-3.51-.09c-2.69.23-4.05,1.8-4.15,4.79l.15,2.79a5.69,5.69,0,0,0,1.76,3.78c13.5,12.59,13.5,12.59,15.37,12.83q8.21.24,16.21.52c1.51-.19,2.7-.34,3.7-2.61,7.5-21.24,7.5-21.24,8.26-21.33,4,.16,8,.31,11.94.51l2.18.11a2.82,2.82,0,0,0,2.89-2.21c.14-.59.3-1.16.45-1.72,3.4-12.92,4.36-16.53,4.66-17.54a.55.55,0,0,1,.55-.39l2,.11C593.74,262.3,594.86,261.29,593.83,258Z" transform="translate(154.42 50.31)"/><path class="cls-5" d="M507.85,311.43q-.06-5.78-.16-11.44a8.35,8.35,0,0,0-2.57-5.92c-8-7.57-8-7.57-10.8-7.74l-6.19-.09a4.86,4.86,0,0,1-3.79-1.9c-9.16-11.64-9.16-11.64-12.31-11.85l-10-.05c-.07.68-.13,1.37-.2,2.05l10.08.06a4.56,4.56,0,0,1,3.62,1.82c9.09,11.78,9.09,11.78,12.56,12l6.23.08a5,5,0,0,1,3.37,1.41c7.81,7.4,7.81,7.4,8,10.07,0,3.78,0,7.59.12,11.45.17,6.35-4.88,7.77-8.75,3.65-6.81-7.26-7.23-7.78-10.6-8l-7.1-.08c-3.24-.38-4.91-2.26-5.09-5.73,0-.63.05-1.26.08-1.89-.24-4.76-2.48-7.31-6.84-7.81l-5.19,0c-3.13-.36-4.66-2.17-4.68-5.54q1.13-12.43,2.5-23.84h-1.85q-1.45,11.4-2.62,23.85c0,4.69,2.13,7.2,6.49,7.7l5.21,0c3.16.36,4.77,2.2,4.93,5.63l-.09,1.89c.24,4.83,2.56,7.44,7.09,8l7.12.08a5.21,5.21,0,0,1,3.88,1.88l6.73,6.68a6.1,6.1,0,0,0,9.37-.63A10.68,10.68,0,0,0,507.85,311.43Z" transform="translate(154.42 50.31)"/><path class="cls-7" d="M625.74,373.85a4.15,4.15,0,0,0-3,1.09c-7.6,6.91-14.45,14.58-22,21.58a8.77,8.77,0,0,0-2.58,5.53q-1.59,16.41-4.57,32.34l1.76.09c2-10.6,3.56-21.4,4.64-32.33a6.13,6.13,0,0,1,1.4-3.38c7-7.49,14.87-14.14,22-21.54a2.91,2.91,0,0,1,2.27-1l6.62.47a12.23,12.23,0,0,0-.29-2.42Z" transform="translate(154.42 50.31)"/><path class="cls-7" d="M657.07,342l.73.08q-.52-4.65-1.22-9.25l-.73-.07-.59-.06c.46,3.06.87,6.15,1.21,9.24Z" transform="translate(154.42 50.31)"/><path class="cls-7" d="M661.83,392.52a1.91,1.91,0,0,1-1.57.7l-2.64-.28h-.16c-1.14-.24-1.14-.24-6.13-13.94-.94-2.21-1.9-3.14-3.56-3.45-4.52-.4-9.47-.78-14.41-1.14a16.11,16.11,0,0,1,.21,2.41c4.84.36,9.7.74,14.13,1.12,1.94.37,2,.38,6.39,13.93.8,2.19,1.65,3.13,3.15,3.44l.16,0,2.63.27a2.73,2.73,0,0,0,2.33-1,138.1,138.1,0,0,0,14.06-17.31l-.51-2.08A135.49,135.49,0,0,1,661.83,392.52Z" transform="translate(154.42 50.31)"/><path class="cls-7" d="M684.72,357.86q-.19-2.78-.48-5.53c-.51-4.34-.79-4.85-5.49-13.39-.7-1.16-1.17-1.62-1.87-1.8q-4.11-.64-9.25-1.29c-2,.18-2.83,2.39-2.52,6.75,0,.38.09.76.14,1.14.42,3.1.77,3.75,3.07,8,1.57,3.22,1.24,8-1.16,8.23l-3.55-.4c-1.11-.23-1.11-.23-3.93-5.16a8.42,8.42,0,0,1-1-3.56c-.17-2.16-.36-4.32-.59-6.46l-.73-.07-.6-.07c.22,2.15.42,4.3.58,6.46.32,3.12.44,3.33,3.55,8.79,1,1.59,1.68,2.2,2.86,2.44l3.55.4c2.92-.25,3.13-4.57,3.14-5.43.06-4-.75-5.47-2.92-9.47a9.49,9.49,0,0,1-1.07-3.54c0-.37-.09-.75-.14-1.13-.21-2.95.34-4.44,1.7-4.57q5.16.65,9.28,1.29c.77.21.93.25,5.25,8.78a12,12,0,0,1,1,3.95c.19,1.84.34,3.69.48,5.54.15,2.78.15,2.78-2,7.24l.59,1.91,1.54-3.15C684.37,363,685,361.51,684.72,357.86Z" transform="translate(154.42 50.31)"/><path class="cls-7" d="M676.73,373.94l.51,2.07c2.92-4.68,3.1-5,4.67-7.89l-.59-1.92C678.68,370.91,678.58,371.09,676.73,373.94Z" transform="translate(154.42 50.31)"/><path class="cls-7" d="M671.88,308.7q-2-6.29-4.32-12.46c-.06-.18-.13-.36-.2-.53-1.14-2.73-2.1-4.48-3.36-4.7s-2.73-.41-4.46-.61a.52.52,0,0,0-.37.07.93.93,0,0,0-.36.58.65.65,0,0,0,0,.13c-.56,2-1.47,3.92-1.68,6-.15,1.53.82,2.9.65,4.43a.7.7,0,0,1-.19.45.59.59,0,0,1-.4.13l-4.32-.6c-.56,0-1.26-.87-1.7-1.49-3.49-4.94-5.59-8-7.78-11.15l-.66,1c6.67,9.78,8.53,12.5,9.44,13.38a1.44,1.44,0,0,0,.84.5c1.69.18,3.3.39,4.86.55a1.24,1.24,0,0,0,1.08-.47c.94-1.13-.68-3.94-.48-5.58.53-1.69,1-3.57,1.55-5.27.19-.62.32-.58.46-.58,1.57.21,2.75.36,4.32.67.57.11,1.18.85,1.82,2.38.07.17.13.35.2.53,1.56,4.11,3,8.26,4.38,12.76a3,3,0,0,1,0,1.87,51.24,51.24,0,0,1-3.13,6.94,13,13,0,0,1-.71,1.21c-.26.39-.35.73-.66.7l-4.1-.55c-.63-.1-1.48-.89-1.94-2.48-.23-1-.47-1.92-.71-2.87-.55-1.79-.91-3.32-1.72-4.14-.46-.46-.85-.53-1.82-.69l-5.6-.6q-6.28-.63-13.33-1.22c-1,.07-1.21.21-1.77,1.15a184,184,0,0,1-12.66,23.24c-3.21,5-3.21,5-3.1,7,.23,2.76.44,5.53.6,8.32a6.6,6.6,0,0,0,1.2,3.46c7.43,10.11,7.43,10.11,8.67,10.37l9.59.72c2.2.09,2.9-1.65,3-4.6l-.12-2.57a2.89,2.89,0,0,1,.37-1.69c5.43-8.88,5.43-8.88,5.85-8.94l7.63.72.6.07.73.07,3.35.35c-.08-.78-.16-1.55-.25-2.33L657.8,342l-.73-.08-.6-.06-7.62-.72c-1,.07-1.24.22-1.93,1.21-5.6,10.06-5.6,10.06-5.57,11.63,0,.85.08,1.71.11,2.57,0,1.86-.68,2.31-1.51,2.35-3.11-.25-5.67-.31-9.11-.7a2,2,0,0,1-1.71-.84c-6.79-9.82-6.79-9.82-6.88-10.53q-.25-4.19-.62-8.32a2.61,2.61,0,0,1,.36-1.67,198.86,198.86,0,0,0,13.44-23.43c1.93-4.08,1.93-4.08,2.57-4.18,4.71.39,9.18.81,13.38,1.23,1.7.17,3.34.35,5.09.57a2.18,2.18,0,0,1,.72.18c.69.31,1.14.74,1.62,2.32.24.95.47,1.91.7,2.87.81,2.84,1.92,4.44,3.38,4.89l4.6.53c.31,0,.47-.21.64-.5s.16-.3.24-.45C673,312.43,672.74,311.68,671.88,308.7Z" transform="translate(154.42 50.31)"/><path class="cls-7" d="M684.32,308.3l-.49-1.32h0l.81,2.23v0Z" transform="translate(154.42 50.31)"/><path class="cls-7" d="M678.88,296a15.29,15.29,0,0,1,1.47,3.06c.11.26.21.53.32.79.87,2.12,1.69,4.25,2.49,6.4l.16.13q-1.19-3.22-2.49-6.4c-.1-.27-.21-.53-.32-.79a31.13,31.13,0,0,0-2.58-5.37,5.63,5.63,0,0,0-.56-.31c-.07.32-.14.65,1.52,4.77.11.26.21.53.32.79s.27.68.41,1a31.79,31.79,0,0,1,1.6,5.89c0,.17.06.4.08.58a27,27,0,0,1-2.89-.66c-.42-.31-.42-.31-1.72-2.67-.67-1.24-1.66-3.6-1.49-4.7l.35-.11c.34-.85-.38-2.87-1.13-4.73-.24-.54-.47-1.09-.71-1.63-1.75-3.87-1.85-4.1-8.44-10.95a2.66,2.66,0,0,0-.63-.5c-4.23-.88-9.65-1.69-16.47-2.5-.39,0-.79,0-1,.61-1,3.12-1.55,5.25-2.53,7.81l1.36,1.77a76.93,76.93,0,0,0,2.46-7.64c.1-.36.2-.5.49-.48l.32,0c6.82.8,12.17,1.61,16.19,2.42,0,0,.89.53,6.23,6.61a12.61,12.61,0,0,1,1.52,2.68c.24.54.47,1.09.7,1.64a6.86,6.86,0,0,1,.71,2.55,1.83,1.83,0,0,1-.44.28c-.07.23-.56,2.49,3.5,9.85.84,1.49,1.1,1.65,1.47,1.87,1.07.28,2,.55,2.78.82l.18-.13c0-.39,0-.88-1-5.05a32.63,32.63,0,0,0-1.21-3.54l-.41-1c-.1-.26-.21-.53-.32-.79a16,16,0,0,1-.89-2.56A.74.74,0,0,1,678.88,296Z" transform="translate(154.42 50.31)"/><path class="cls-7" d="M684.13,308.56l-.17-.13q2.76,7.74,4.88,15.64l.17.13Q686.88,316.31,684.13,308.56Z" transform="translate(154.42 50.31)"/><path class="cls-7" d="M691.79,401.12c-.17-.21-.31-.37-.36-1.79-.2-5.38-.3-8.09-1.07-14.95-.36-2.55-.85-2.88-1.32-2.86-1.51.91-1.72,6.58-1.72,6.64-.14,6.34,1,12.61,1.16,18.93.06,1.78.24,2.53.65,2.8.59.17,1.12.34,1.59.52.13-.78.25-1.56.37-2.34-.48-.18-1-.35-1.59-.52-.2-.2-.37-.37-.42-1.76A153.86,153.86,0,0,0,688,390.17c-.33-3.44.47-6.63,1.26-6.2s1.51,12.56,1.64,16.68c.06,1.79.22,2.56.57,2.82l.8.3c.1-.78.19-1.57.29-2.36Z" transform="translate(154.42 50.31)"/><path class="cls-7" d="M694.38,402.42a5.49,5.49,0,0,0-1.47-.87c-.09.79-.19,1.57-.29,2.36a6.93,6.93,0,0,1,1.41.76,5.87,5.87,0,0,1,0,2.18,172.7,172.7,0,0,1-7.88,37c.5-1.56,1.17-3.62,1.64-5.18l0,0a172.18,172.18,0,0,0,6.51-32.84A13.2,13.2,0,0,0,694.38,402.42Z" transform="translate(154.42 50.31)"/><path class="cls-7" d="M693.43,392.67q-.33,4.4-.84,8.74c-.1.79-.19,1.58-.29,2.36-.33,2.54-.71,5.08-1.13,7.6-1.22,6.77-1.91,8-5.79,14.59-1.53,2.36-2.21,1.29-2.52,0a14.84,14.84,0,0,1-.22-3.48,158.25,158.25,0,0,0-.64-20.53c-1.35-10.26-5.16-5.5-8.85-.89l.31,2,2.79-3.48c2.65-3.18,4.49-.61,4.94,3.57a165.31,165.31,0,0,1,.64,20.51c-.12,7.51,1.88,6,2.5,5.42.35-.36,1.37-1.78,4.29-7.32a40.27,40.27,0,0,0,2.88-10.25q.63-3.79,1.12-7.6c.1-.79.2-1.57.29-2.36.35-2.9.63-5.82.85-8.74Z" transform="translate(154.42 50.31)"/><polygon class="cls-7" points="826.57 452.54 824.31 455.13 824.62 457.15 826.88 454.56 826.57 452.54"/><path class="cls-7" d="M637.45,446.44c-.26-3.58-1.35-5.17-3.87-5.67l-.46,0c-2.94,0-3.63.76-9,6.63-1.63,1.64-2.79,2.22-4.46,2.23q-4.63-.33-9.51-.64c-1.67-.21-1.67-.21-6.13-6.5a5.11,5.11,0,0,0-3.92-2.19c-10.19-.58-21-1.1-32.18-1.56-.11.76-.24,1.51-.36,2.27,11.15.46,21.89,1,32,1.55,2.11.24,2.11.24,6.31,6.48a4.67,4.67,0,0,0,3.63,2.18c3.24.21,6.39.42,9.47.64,3.22,0,4.37-1.28,9.17-6.6,1.6-1.64,2.73-2.23,4.32-2.23l.45,0c3.18.62,3.15,2,2.9,12.76l1.49.13C637.45,451.46,637.48,450.11,637.45,446.44Z" transform="translate(154.42 50.31)"/><path class="cls-7" d="M635.77,458.06a154.9,154.9,0,0,1-2.52,21.84c-1.24,5-2.14,5.77-13.17,15.24-4.83,4.46-5.84,7.56-7.53,12.68a107.64,107.64,0,0,1-9.24,20,19.21,19.21,0,0,0-.91,1.71c-.7,1.72-.11,2.15.63,2.33l3.69.45c1.58,0,2.72,0,17.25-12a35.06,35.06,0,0,0,4.4-4.37l.2-.24-.66-.11-.2.25c-1.35,1.57-3,3.52-15.28,12.81-1.75,1.27-3.12,2.08-3.79,2l-3.31-.36c-.75-.08-1.13-.13-1.29-.37-.44-.66-.25-1.14.74-2.86a109.67,109.67,0,0,0,10.37-23.32c1.45-3.95,1.45-3.95,13.64-14.79,4.66-4.53,7-6.8,8.45-30.83Z" transform="translate(154.42 50.31)"/><path class="cls-7" d="M680.17,440.27a2.28,2.28,0,0,0-.39-1.24c-.56-.62-2.56-.79-3.8-1-.81-.34-1.12-1.08-1-3.67a155.28,155.28,0,0,0-1.51-31.27l-.31-2c-.36-2.1-.86-4.9-1.26-7l-1,1.22c.4,2.09.91,4.87,1.27,7l.31,2A156.07,156.07,0,0,1,674,435.5c-.09,3.06.17,4,1.31,4.76,1.23.24,2.35.48,3.37.72s.69,1.44.69,2.56c0,3.89-3.38,11.27-15.6,25.23a35,35,0,0,0-4.36,6.64,212.52,212.52,0,0,1-12.69,21.28c-2.63,3.75-3.36,4.28-9.06,8.43a35.94,35.94,0,0,0-6.31,6.38c-.64.79-1.27,1.58-1.92,2.37l.67.1c.65-.78,1.29-1.57,1.93-2.37,2.44-3,2.44-3,9.36-8.2a30.12,30.12,0,0,0,5.95-6.6A212.7,212.7,0,0,0,660,475.53c3.92-7.28,10.1-12.84,14.79-19.54a48.6,48.6,0,0,0,3.24-6C679,448.17,680.53,443.48,680.17,440.27Z" transform="translate(154.42 50.31)"/><path class="cls-7" d="M642.25,260.24l-1-1.72-.9-.12,1,1.72c1.8,3.26,2.34,5.11,2,6.84-2.37,6.32-2.5,6.32-4.09,6.24l-.84-.08c-2.21-.23-4.5-.44-6.86-.66-6.32-1.49-11.36-11.2-10.14-15.28,1.45-3.74,1.45-3.74,3-3.69l4.09.4q6.56.66,11.7,1.35c-.4-.64-.81-1.27-1.22-1.9q-5.1-.66-11.6-1.33l-4.05-.4a2.15,2.15,0,0,0-2.46,1.49c-1.29,3.35-2.22,5.77.85,11.46s7.05,9.33,10.72,9.94c2.38.21,4.69.43,6.91.66l.85.09a2.18,2.18,0,0,0,2.34-1.18C645.54,267.43,645.86,266.74,642.25,260.24Z" transform="translate(154.42 50.31)"/><path class="cls-5" d="M523.07,345l-15.13-.32-2.14,0q-8.18-.15-16.39-.25l0,2.34c5.29.07,10.58.16,15.84.25l2.29,0q7.82.15,15.56.33c5.8.79,7.35,7.23,4.07,11.16-10.21,11.15-10.21,11.15-12.79,11.24q-7.83-.16-15.71-.29l0,2.4q7.88.14,15.7.29a7.43,7.43,0,0,0,5.68-2.5c10.66-11.56,10.66-11.56,10.94-14.76C531,354.57,531.62,346.2,523.07,345Z" transform="translate(154.42 50.31)"/><path class="cls-7" d="M597.9,299.71s-.48-5.5-5.36-5.88q-6.6-.34-13.45-.65a3.07,3.07,0,0,0-2.37.9c-7.13,7.06-7.13,7.06-6.94,9.63q1.1,9,1.85,18.29l1.93.08q-.76-9.27-1.9-18.29a2.77,2.77,0,0,1,.7-2.34c6.35-6.1,6.35-6.1,7.09-6.1q6.9.3,13.51.65c2.65.47,3.75,3.95,2.29,5.5-5.56,5-5.56,5-6.43,5-4.87-.24-9.85-.47-14.91-.69l.27,2.23q7.62.33,15,.68a3.07,3.07,0,0,0,2.19-.73C597.9,302.28,598.12,302.18,597.9,299.71Z" transform="translate(154.42 50.31)"/><path class="cls-5" d="M541,450.62q-9.3-.3-18.81-.53l-2.76-.07-15.22-.32c0,.75-.07,1.5-.11,2.24,5.73.1,11.43.23,17.09.36l2.74.07c5.64.14,11.24.3,16.77.47,8.18.47,10.62,8.64,8.05,15.63a17.24,17.24,0,0,1-4,6.13l-3.34,3.14-1.58,1.48c-9.28,8.7-9.46,8.87-13.82,9q-7.27-.19-14.68-.36l-.21,2c4.88.11,9.74.23,14.55.36,3.55-.1,5.82-1,9-3.77l5.25-4.9,1.86-1.73c8.51-6.88,9.51-12.62,9.51-12.62C551.35,466.59,554.57,451.76,541,450.62Z" transform="translate(154.42 50.31)"/><path class="cls-5" d="M495.46,556.62c-.64,0-6.26-.46-6.51-9.07q.27-7.66.54-16.68l-1.36,0q-.17,9-.32,16.68c.46,9.79,6.73,10.27,7.45,10.3l1.62,0,.24-1.2Z" transform="translate(154.42 50.31)"/><path class="cls-6" d="M498.34,556.68q-.13.62-.27,1.2c4.57.1,9.09.21,13.53.35.2-.4.39-.79.58-1.2C507.64,556.9,503,556.78,498.34,556.68Z" transform="translate(154.42 50.31)"/><path class="cls-6" d="M370.18,364.21l-4.91.16-1.84.06q-7.15.24-13.71.53c0,.8,0,1.6,0,2.4h0q6.56-.28,13.71-.53l1.84-.06,4.91-.16c9-.28,18.41-.5,28-.67h0c0-.8,0-1.6,0-2.39C388.59,363.71,379.22,363.93,370.18,364.21Z" transform="translate(154.42 50.31)"/><path class="cls-5" d="M403.86,363.45l0,2.4h0q8.12-.12,16.42-.19h0c0-.79,0-1.59,0-2.39Q412,363.34,403.86,363.45Z" transform="translate(154.42 50.31)"/><path class="cls-5" d="M368.1,259.26l-.9,1.94q4.29-.21,8.91-.39c.27-.65.56-1.29.84-1.93Q372.36,259.06,368.1,259.26Z" transform="translate(154.42 50.31)"/><path class="cls-5" d="M421,422.45c-.07-.77-.13-1.54-.19-2.32-.26-3.4-.5-6.81-.7-10.24-.64-7-4.3-10.65-10.15-10.9l-5.5.08c0,.78.08,1.57.13,2.35l5.49-.07c4.41.1,7.52,2.73,8,8.56q.32,5.14.73,10.24c.06.77.12,1.55.19,2.32.28,3.37.6,6.72.94,10.06l2,0C421.59,429.18,421.28,425.82,421,422.45Z" transform="translate(154.42 50.31)"/><path class="cls-6" d="M470.61,251.62l-.18,1.88q4,0,7.92.06l.12-1.88Z" transform="translate(154.42 50.31)"/><path class="cls-5" d="M461.57,251.59c-.08.62-.17,1.24-.25,1.87l6.85,0c.07-.63.13-1.26.2-1.88Z" transform="translate(154.42 50.31)"/><path class="cls-5" d="M546.86,275.68c-3.24-.1-6.51-.21-9.8-.3l.24,2.06,9.85.31C547.05,277.06,547,276.37,546.86,275.68Z" transform="translate(154.42 50.31)"/><path class="cls-5" d="M555.85,276c-1.69-.06-3.38-.13-5.09-.18.11.68.21,1.37.32,2.06l5.11.18C556.08,277.37,556,276.68,555.85,276Z" transform="translate(154.42 50.31)"/><path class="cls-7" d="M573.79,325.05l-1.93-.08q.3,4.21.54,8.48l2,.08Q574.11,329.27,573.79,325.05Z" transform="translate(154.42 50.31)"/><path class="cls-5" d="M574.53,336.89l-1.95-.08q.63,13.19.57,26.78l2,.08Q575.19,350.08,574.53,336.89Z" transform="translate(154.42 50.31)"/><path class="cls-5" d="M591.26,446.06c-.33,1.46-.66,2.92-1,4.38l-.75,3.1,1.7.09.75-3.1q.52-2.19,1-4.38Z" transform="translate(154.42 50.31)"/><path class="cls-5" d="M655.07,324l-.72-.08-.58-.06q.65,3.38,1.18,6.77l.59.06.73.08Q655.71,327.41,655.07,324Z" transform="translate(154.42 50.31)"/><path class="cls-7" d="M642.24,253.8l-2.15-.3c.41.63.82,1.26,1.22,1.89l2.18.31C643.08,255.06,642.66,254.43,642.24,253.8Z" transform="translate(154.42 50.31)"/><path class="cls-7" d="M689.68,326.76l-.17-.13q.81,3.21,1.52,6.45l.17.13Q690.5,330,689.68,326.76Z" transform="translate(154.42 50.31)"/><path class="cls-5" d="M683.74,306.8a1.75,1.75,0,0,0-.42-.46l-.16-.13c-.09-.07-.19-.13-.3-.2.28.74.55,1.48.81,2.23.11.06.2.13.29.19l.17.13a1.78,1.78,0,0,1,.42.47C684.29,308.28,684,307.54,683.74,306.8Z" transform="translate(154.42 50.31)"/><path class="cls-6" d="M661.06,486.15c-.35.05-.59.07-1.71,1.25-3.89,4.1-4.86,5-8.46,8.49l-.67,1.55c4.21-4,5-4.87,8.45-8.45.6-.62.83-.78,1.15-.82.32.4-.28,1.78-1.84,4.23q-3.9,5.89-8.19,11.52a24.66,24.66,0,0,1-2.2,2.53c-9.09,8.8-9.81,8.9-10.16,8.95q-1-.24-2.13-.48l-1.55,1.78,2.26.48a6.11,6.11,0,0,0,2.21-1.45c8.95-7.92,10.11-9.42,11.88-11.7q4.3-5.61,8.22-11.51C660.63,488.9,661.55,486.75,661.06,486.15Z" transform="translate(154.42 50.31)"/><path class="cls-5" d="M630.07,514l-.67-.1-1.5-.23-1.47,1.8,1.48.22.66.11c1.74.27,3.3.55,4.66.82l1.55-1.78C633.39,514.53,631.83,514.25,630.07,514Z" transform="translate(154.42 50.31)"/><path class="cls-5" d="M696.45,372.11a2.25,2.25,0,0,0-.92-.95c-.84-.06-1.4,6.95-1.63,13a2.52,2.52,0,0,1,.33.14c.25-6.25.71-10.15,1.26-10.72h.1a2.17,2.17,0,0,1,.91.95C696.49,373.71,696.47,372.91,696.45,372.11Z" transform="translate(154.42 50.31)"/><path class="cls-5" d="M639.27,288.09l-5.36-.48c.24.71.47,1.43.71,2.15l5.39.48C639.77,289.52,639.52,288.8,639.27,288.09Z" transform="translate(154.42 50.31)"/><path class="cls-7" d="M673.67,286.59l-.73-.3a3.68,3.68,0,0,1-.55-.8c-1.61-2.76-1.61-2.76-1.86-3.25q-2.89-5.72-6.14-11.21a9,9,0,0,1-.68-1.33c-1-3-2.58-5.62-3.84-8.45a2.25,2.25,0,0,1,.59.54l-1.36-2a1.89,1.89,0,0,0-.59-.5l.17.32c2.12,3.6,3.25,7.66,5.35,11.26s4.19,7.4,6.12,11.21c.43.83.71,1.35,1.13,2.07,2.25,3.87,2.25,3.87,2.71,4.25l.7.28C674.35,288,674,287.3,673.67,286.59Z" transform="translate(154.42 50.31)"/><path class="cls-7" d="M671.48,281.27a13.84,13.84,0,0,1-.66-1.4,40.15,40.15,0,0,0-3.52-7.4L667,272l-1-1.66a43.16,43.16,0,0,1,3.81,7.9c.09.22.4,1,1.43,2.95l1,2,.25.12C672.16,282.58,671.83,281.93,671.48,281.27Z" transform="translate(154.42 50.31)"/><path class="cls-5" d="M675.47,287.66a4.13,4.13,0,0,0-1.16-.78l1,2.13a4.21,4.21,0,0,1,1.17.79C676.16,289.08,675.82,288.37,675.47,287.66Z" transform="translate(154.42 50.31)"/><path class="cls-5" d="M680.51,457.35c-.27.12-1,1.51-2.34,4.49q-1.27,2.87-2.63,5.69c-.56,1.16-.89,1.88-1.31,2.85-2.47,5.73-2.47,5.73-2.48,5.79a.91.91,0,0,1,.16.4c.37-.7.75-1.4,1.11-2.1a.79.79,0,0,0-.15-.4,4.26,4.26,0,0,1,.43-1.11c.81-1.76,1.54-3.56,2.38-5.31s1.78-3.77,2.63-5.68a9.23,9.23,0,0,1,1.27-2.43s0,.06.07.18a19.13,19.13,0,0,1-1,2.63q-1.79,4-3.73,7.92l.06.12q1.95-3.9,3.73-7.91a24.86,24.86,0,0,0,1.9-5Z" transform="translate(154.42 50.31)"/><path class="cls-5" d="M626.42,365.92l-1.89-.13c0,.8,0,1.59,0,2.39l1.89.13c5.88,1.07,5.75,8.68,5.74,9q-.31,9.46-1.2,18.81l1.6.12q.9-9.35,1.21-18.82C633.79,376.4,633.83,367.32,626.42,365.92Z" transform="translate(154.42 50.31)"/><path class="cls-5" d="M614,365.12c0,.8,0,1.59,0,2.39l8,.5c0-.79,0-1.59,0-2.39Z" transform="translate(154.42 50.31)"/><path class="cls-5" d="M688.69,372.88c-1.08-.25-2.28-.5-3.59-.75-.79-.29-1.29-1.1-1.91-3.09l-.64-2.16L682,365c-1.82-5.57-1.89-5.78-3-6.11l-3-.45c-1.46.16-2.17,2-2.19,5.53l.06,2.12a13.43,13.43,0,0,0,.48,3.32c.49,1.73,1.09,4.05,1.55,5.79l.51,2.08c.38,1.63.86,3.82,1.22,5.45l.83-1.2c-.35-1.65-.86-3.84-1.23-5.49l-.51-2.07c-1.81-7.07-1.81-7.07-1.83-7.74s0-1.41-.07-2.12c0-2.13.44-3.21,1.31-3.3l3,.45c.44.13.72.49,1,1.38l1.17,3.59.59,1.92c1.22,4.14,1.72,5.86,3.2,6.4,1.31.25,2.51.5,3.59.76C688.7,374.48,688.7,373.68,688.69,372.88Z" transform="translate(154.42 50.31)"/><path class="cls-5" d="M642,480.17c5.28-22.75,2.56-23.38,1.26-23.68l-5.88-.57-1.49-.13-1.82-.16c-.26.73-.51,1.47-.77,2.2l2.51.23,1.47.13,5.16.5c1,.24,1.38,1,1.32,2.6a137.79,137.79,0,0,1-3.16,19.78,18.46,18.46,0,0,0-.38,2.44c-.21,3.08,1.15,3.49,1.8,3.69l1.77.23,1.16-2-1.79-.24C641.64,484.73,641.32,483.37,642,480.17Z" transform="translate(154.42 50.31)"/><path class="cls-5" d="M629.71,455.26c-.24.74-.49,1.47-.75,2.2l3.19.27c.26-.73.52-1.46.77-2.2Z" transform="translate(154.42 50.31)"/><path class="cls-6" d="M648.19,254.78c-1.32-.25-2.76-.49-4.35-.74l1.26,1.9c1.59.25,3.06.49,4.38.74Z" transform="translate(154.42 50.31)"/><path class="cls-6" d="M488.41,515.1c0,.2,0,.39,0,.58q-.09,5.07-.17,9.81l1.42,0c.09-3.16.19-6.43.28-9.8,0-.2,0-.39,0-.58Z" transform="translate(154.42 50.31)"/><path class="cls-6" d="M416.18,248.32q-1.73,5-3.31,10.17l1.71,0q1.56-5.2,3.24-10.17Z" transform="translate(154.42 50.31)"/><path class="cls-6" d="M671.88,476.86c0,.05,0,.11-.07.17l.34-.63.78-1.48a1.11,1.11,0,0,0,.07-.16C672.63,475.46,672.26,476.16,671.88,476.86Z" transform="translate(154.42 50.31)"/><path class="cls-7" d="M407.56,239.06c-.27.59-.54,1.18-.8,1.77,3.44-.09,6.93-.16,10.47-.23.23-.59.47-1.18.71-1.76C414.43,238.9,411,239,407.56,239.06Z" transform="translate(154.42 50.31)"/><circle class="cls-7" cx="497.23" cy="403.79" r="7.63" transform="translate(144.06 844.8) rotate(-76.67)"/><circle class="cls-7" cx="552.56" cy="440.57" r="7.63" transform="translate(4.73 570.07) rotate(-45)"/><circle class="cls-7" cx="556.19" cy="324.63" r="7.63" transform="translate(87.78 538.68) rotate(-45)"/><circle class="cls-6" cx="489.6" cy="450.55" r="7.63" transform="translate(120.67 911.73) rotate(-80.76)"/><path class="cls-6" d="M796.63,116.49A5.53,5.53,0,1,1,791.1,111,5.52,5.52,0,0,1,796.63,116.49Z" transform="translate(154.42 50.31)"/><circle class="cls-5" cx="422.51" cy="452.74" r="7.63" transform="translate(-39.37 563.65) rotate(-52.59)"/><circle class="cls-5" cx="574.97" cy="378.71" r="7.63" transform="translate(55.03 567.8) rotate(-45)"/><circle class="cls-7" cx="607.37" cy="346.95" r="7.63" transform="translate(86.98 581.4) rotate(-45)"/><circle class="cls-6" cx="436.92" cy="365.12" r="7.63" transform="translate(24.21 466.2) rotate(-45)"/><circle class="cls-7" cx="400.23" cy="387.81" r="7.63" transform="translate(-2.58 446.91) rotate(-45)"/><rect class="cls-5" x="632.1" y="329.01" width="16.97" height="1.72"/><circle class="cls-5" cx="1412.83" cy="27.11" r="5.53"/><circle class="cls-7" cx="1184.79" cy="131.67" r="5.53"/><circle class="cls-7" cx="1319.5" cy="65.27" r="5.53"/><circle class="cls-7" cx="1360.23" cy="81.77" r="5.53"/><circle class="cls-7" cx="1313.97" cy="131.67" r="5.53"/><circle class="cls-7" cx="1162.91" cy="168.5" r="7.63" transform="translate(885.17 1311.5) rotate(-76.67)"/><circle class="cls-6" cx="1232.38" cy="139.97" r="7.63" transform="translate(416.4 962.73) rotate(-45)"/><circle class="cls-6" cx="1362.95" cy="131.67" r="5.53"/><circle class="cls-6" cx="1116.49" cy="168.5" r="7.63" transform="translate(362.29 889.14) rotate(-45)"/><circle class="cls-6" cx="1407.3" cy="147.78" r="5.53"/><circle class="cls-5" cx="1317.33" cy="279.4" r="5.53"/><circle class="cls-6" cx="1249.31" cy="29.55" r="7.63" transform="translate(1086.84 1288.67) rotate(-76.67)"/><circle class="cls-6" cx="1165.08" cy="-42.68" r="7.63" transform="translate(1174.48 1164.44) rotate(-80.76)"/><circle class="cls-6" cx="1118.55" cy="37.78" r="7.63" transform="translate(434.77 829.71) rotate(-43.44)"/><rect class="cls-6" x="1316.47" y="173.27" width="1.72" height="24.9"/><rect class="cls-7" x="1387.93" y="116.01" width="1.72" height="21.11"/><rect class="cls-6" x="1198.79" y="130.81" width="43.8" height="1.72"/><rect class="cls-5" x="1406.44" y="157.39" width="1.72" height="21.08"/><rect class="cls-5" x="1248.52" y="121.13" width="1.72" height="21.08"/><rect class="cls-5" x="1316.47" y="236.88" width="1.72" height="16.97"/><rect class="cls-5" x="1377.37" y="146.92" width="16.97" height="1.72"/><rect class="cls-7" x="1318.64" y="24.32" width="1.72" height="16.97"/><rect class="cls-6" x="1380.38" y="108.41" width="16.83" height="1.72"/><rect class="cls-5" x="1332.73" y="130.81" width="16.97" height="1.72"/><rect class="cls-7" x="1256.85" y="130.81" width="38.98" height="1.72"/><rect class="cls-6" x="1399.01" y="189.42" width="18.02" height="1.72"/><rect class="cls-6" x="1282.1" y="217.95" width="11.75" height="1.72"/><rect class="cls-6" x="1311.45" y="263" width="11.75" height="1.72"/><rect class="cls-6" x="1402.87" y="101.85" width="1.72" height="11.75"/><path class="cls-5" d="M1311.56,147a16.6,16.6,0,0,0-14.85,9.1L1290,169.28a14.55,14.55,0,0,1-13,7.95H1255.8V179H1277a16.25,16.25,0,0,0,14.53-8.89l6.73-13.18a14.91,14.91,0,0,1,13.33-8.16h10.57V147Z" transform="translate(154.42 50.31)"/><path class="cls-7" d="M1215.53,177.23a11.61,11.61,0,0,1-11.6-11.6v-13.2a11.61,11.61,0,0,1,11.6-11.6h5.52v-1.72h-5.52a13.33,13.33,0,0,0-13.31,13.32v13.2A13.33,13.33,0,0,0,1215.53,179h33.92v-1.72Z" transform="translate(154.42 50.31)"/><path class="cls-5" d="M1220.12,59.82h-2.88A12.29,12.29,0,0,1,1205,47.54V40h1.71v7.59a10.57,10.57,0,0,0,10.57,10.56h2.88Z" transform="translate(154.42 50.31)"/><rect class="cls-5" x="1295.83" y="38.64" width="16.78" height="1.72"/><path class="cls-7" d="M1293.49-12.13h-1.72v-1.71a8.51,8.51,0,0,0-8.5-8.5h-13.46v-1.72h13.46a10.23,10.23,0,0,1,10.22,10.22Z" transform="translate(154.42 50.31)"/><path class="cls-6" d="M1163.76,115.33h-1.71v-3.49a15.25,15.25,0,0,1,15.23-15.23h36.78v1.72h-36.78a13.53,13.53,0,0,0-13.52,13.51Z" transform="translate(154.42 50.31)"/><circle class="cls-6" cx="1372.21" cy="313.48" r="7.63"/><circle class="cls-5" cx="1334.19" cy="241.38" r="5.53"/><circle class="cls-5" cx="1530.58" cy="207.31" r="7.63"/><rect class="cls-6" x="1372.32" y="253.35" width="1.72" height="22.96"/><rect class="cls-5" x="1349.28" y="240.52" width="16.97" height="1.72"/><circle class="cls-7" cx="1343.87" cy="220.51" r="7.63" transform="translate(392.1 1065.16) rotate(-45)"/><circle class="cls-7" cx="1451.42" cy="297.26" r="5.53"/><rect class="cls-6" x="1357.76" y="296.4" width="79.65" height="1.72"/><rect class="cls-6" x="1372.32" y="233.04" width="1.72" height="11.75"/><path class="cls-7" d="M1192.1,247.81h1.55V246.1h-1.55a12.27,12.27,0,0,1-12.26-12.26V221h-1.72v12.84A14,14,0,0,0,1192.1,247.81Z" transform="translate(154.42 50.31)"/><path class="cls-5" d="M1244.64,245.63h1.71V216a15.79,15.79,0,0,0-15.77-15.78h-4.88v1.72h4.88A14.08,14.08,0,0,1,1244.64,216Z" transform="translate(154.42 50.31)"/><path class="cls-7" d="M1259.38,276.8H1283v-1.71h-23.62a13.05,13.05,0,0,1-13-13v-5.9h-1.71v5.9A14.75,14.75,0,0,0,1259.38,276.8Z" transform="translate(154.42 50.31)"/><rect class="cls-7" x="1490.27" y="297.25" width="66.83" height="1.72"/></g></g></g></g></g></svg>