<svg xmlns="http://www.w3.org/2000/svg" viewBox="0 0 71.95 48.4"><defs><style>.cls-1{fill:#003d87;}.cls-1,.cls-3,.cls-4{stroke:#fff;stroke-linecap:round;stroke-linejoin:round;stroke-width:0.75px;}.cls-1,.cls-2,.cls-3,.cls-4{fill-rule:evenodd;}.cls-2{fill:none;}.cls-3{fill:#001d3f;}.cls-4{fill:#002760;}</style></defs><g id="Layer_2" data-name="Layer 2"><g id="Layer_1-2" data-name="Layer 1"><path class="cls-1" d="M62.09,19.88,71.52,3a1.56,1.56,0,0,0,0-1.55A1.52,1.52,0,0,0,70.17.72L50.87.57l3,14.08Z" transform="translate(-0.15 -0.16)"/><path class="cls-2" d="M51.53,1.11l18.64.14a1,1,0,0,1,.88.51,1,1,0,0,1,0,1L61.91,19.12l-7.56-4.8L51.53,1.11ZM62.1,20.41a.25.25,0,0,0,.12,0,.52.52,0,0,0,.34-.25L72,3.29a2,2,0,0,0,0-2.07,2.06,2.06,0,0,0-1.79-1L50.88,0a.45.45,0,0,0-.42.19.56.56,0,0,0-.11.45l3,14.08a.54.54,0,0,0,.23.34l8.22,5.22A.5.5,0,0,0,62.1,20.41Z" transform="translate(-0.15 -0.16)"/><path class="cls-1" d="M22.37,43.49,60.9,21.09c.75-.53,1.71-1.14,1.67-2l-.28-6.53L59.48,9.5c0-.31-1-5.14-1.36-5.34L52,.57A5,5,0,0,0,49.2,1L10.67,23.42A4.42,4.42,0,0,1,12.59,23a7.58,7.58,0,0,1,3.84,1.14,15.37,15.37,0,0,1,3.24,2.67,20.75,20.75,0,0,1,2.9,4.11,17.2,17.2,0,0,1,2,7C24.63,40,24.25,42.16,22.37,43.49Z" transform="translate(-0.15 -0.16)"/><path class="cls-2" d="M61.77,12.77,62,19.1c0,.53-.67,1-1.29,1.44l-.15.11-36.06,21a9.19,9.19,0,0,0,.59-3.75A17.44,17.44,0,0,0,23,30.63a20.74,20.74,0,0,0-3-4.23,15.77,15.77,0,0,0-3.35-2.76,8.76,8.76,0,0,0-3.33-1.18l36.09-21a4.47,4.47,0,0,1,2.34-.41l5.94,3.48a41,41,0,0,1,1.19,5,.64.64,0,0,0,.14.3l2.69,2.91ZM22.37,44a.56.56,0,0,0,.27-.08L61.36,21.42c.79-.56,1.79-1.25,1.74-2.36l-.27-6.53a.53.53,0,0,0-.15-.34L60,9.26c-.17-.95-1-5.2-1.58-5.56L52.25.11A.48.48,0,0,0,52,0,5.46,5.46,0,0,0,49,.55L10.4,23a.54.54,0,0,0,.5.95,3.74,3.74,0,0,1,1.72-.43,7,7,0,0,1,3.55,1.08,14.91,14.91,0,0,1,3.11,2.56,19.62,19.62,0,0,1,2.82,4,16.41,16.41,0,0,1,2,6.77c0,2.55-.58,4.14-2,5.15a.53.53,0,0,0-.14.72A.54.54,0,0,0,22.37,44Z" transform="translate(-0.15 -0.16)"/><path class="cls-3" d="M22.37,43.49,60.9,21.09c.75-.53,1.71-1.14,1.67-2l-.28-6.53L24.1,34.75a14.46,14.46,0,0,1,.42,2.16,9.68,9.68,0,0,1-.3,4A4.73,4.73,0,0,1,22.37,43.49Z" transform="translate(-0.15 -0.16)"/><path class="cls-2" d="M61.8,13.45,62,19.1c0,.53-.67,1-1.29,1.44l-.15.11-36.08,21c.07-.16.13-.32.2-.49a10.35,10.35,0,0,0,.33-4.27A17.16,17.16,0,0,0,24.72,35L61.8,13.45ZM22.37,44a.56.56,0,0,0,.27-.08L61.36,21.42c.79-.56,1.79-1.25,1.74-2.36l-.27-6.53a.55.55,0,0,0-.28-.45.53.53,0,0,0-.52,0L23.84,34.29a.53.53,0,0,0-.25.6A15.17,15.17,0,0,1,24,37a9.05,9.05,0,0,1-.3,3.81,4,4,0,0,1-1.64,2.26.53.53,0,0,0-.14.72A.54.54,0,0,0,22.37,44Z" transform="translate(-0.15 -0.16)"/><path class="cls-1" d="M20.45,44.67l1.92-1.11a4.28,4.28,0,0,0,1.38-1.49,8.26,8.26,0,0,0,.84-4.64,17,17,0,0,0-1.3-5A21.17,21.17,0,0,0,20.74,28a18.81,18.81,0,0,0-2.69-2.81,11.28,11.28,0,0,0-3.66-2,5,5,0,0,0-3.78.21L8.69,24.5a5.19,5.19,0,0,1,4.18-.08,11.79,11.79,0,0,1,3.68,2.27,19.29,19.29,0,0,1,3.25,3.84A21.62,21.62,0,0,1,22,35a13.88,13.88,0,0,1,.71,5.39A7.88,7.88,0,0,1,22,42.85,4.37,4.37,0,0,1,20.45,44.67Z" transform="translate(-0.15 -0.16)"/><path class="cls-2" d="M12.61,23.44a6.61,6.61,0,0,1,1.65.25,10.83,10.83,0,0,1,3.46,1.95,18.8,18.8,0,0,1,2.61,2.72A20.61,20.61,0,0,1,22.8,32.6a16.45,16.45,0,0,1,1.26,4.88,7.75,7.75,0,0,1-.78,4.34,4.63,4.63,0,0,1-.59.79,9,9,0,0,0,.5-2.13,14.31,14.31,0,0,0-.74-5.6,21.53,21.53,0,0,0-2.19-4.63A20,20,0,0,0,16.9,26.3a12.24,12.24,0,0,0-3.84-2.38,8.72,8.72,0,0,0-1.43-.35,3.67,3.67,0,0,1,1-.13ZM20.46,45.2a.48.48,0,0,0,.26-.07L22.64,44a5.12,5.12,0,0,0,1.57-1.67,8.79,8.79,0,0,0,.91-5,17.35,17.35,0,0,0-1.34-5.21,21.77,21.77,0,0,0-2.61-4.48,19.61,19.61,0,0,0-2.78-2.89,11.69,11.69,0,0,0-3.83-2.15,5.54,5.54,0,0,0-4.18.24l-2,1.14a.52.52,0,0,0-.2.7.53.53,0,0,0,.7.24,4.56,4.56,0,0,1,3.78-.06,11.4,11.4,0,0,1,3.5,2.16,18.94,18.94,0,0,1,3.16,3.73,20.64,20.64,0,0,1,2.08,4.38,13,13,0,0,1,.68,5.18,7.11,7.11,0,0,1-.6,2.26,3.91,3.91,0,0,1-1.37,1.6A.52.52,0,0,0,20,45,.54.54,0,0,0,20.46,45.2Z" transform="translate(-0.15 -0.16)"/><path class="cls-3" d="M4,27.22a4.71,4.71,0,0,0-2.26,3.12c-1.17,4.41,1.47,11.13,5.88,15,3,2.68,6.12,3.31,8.13,2l4.68-2.72c2-1.42,2.34-3.82,2.21-6.12a17,17,0,0,0-1.76-6.06,19.72,19.72,0,0,0-3.55-5l-.4-.4a10.51,10.51,0,0,0-5.61-3,4.57,4.57,0,0,0-2.65.45Z" transform="translate(-0.15 -0.16)"/><path class="cls-2" d="M10.66,24.56l.63,0a9.92,9.92,0,0,1,5.3,2.87l.38.37a19.62,19.62,0,0,1,3.46,4.91,16.45,16.45,0,0,1,1.7,5.86c.16,2.78-.47,4.57-2,5.64l-4.63,2.69c-1.9,1.22-4.77.46-7.52-2C3.72,41.2,1.15,34.7,2.27,30.48a4.25,4.25,0,0,1,2-2.79h0L9,25a3.78,3.78,0,0,1,1.71-.41Zm2.83,24a4.71,4.71,0,0,0,2.58-.74l4.65-2.7c2.46-1.73,2.59-4.6,2.47-6.61a17.42,17.42,0,0,0-1.81-6.25,20,20,0,0,0-3.65-5.18l-.41-.41a11.11,11.11,0,0,0-5.91-3.14,5.05,5.05,0,0,0-3,.49l-4.7,2.73A5.26,5.26,0,0,0,1.24,30.2C0,34.78,2.75,41.76,7.29,45.77A9.81,9.81,0,0,0,13.49,48.57Z" transform="translate(-0.15 -0.16)"/><path class="cls-3" d="M10.19,30.85c-4.11-3.62-8.32-3.23-9.41.87s1.37,10.36,5.48,14,8.32,3.24,9.41-.87S14.3,34.47,10.19,30.85Z" transform="translate(-0.15 -0.16)"/><path class="cls-2" d="M9.84,31.25c4,3.5,6.35,9.53,5.31,13.45a3.67,3.67,0,0,1-2.39,2.8c-1.71.52-4-.31-6.15-2.19-4-3.5-6.35-9.54-5.31-13.45a3.67,3.67,0,0,1,2.39-2.81c1.71-.51,4,.31,6.15,2.2Zm1.84,17.47a4.85,4.85,0,0,0,1.38-.2A4.72,4.72,0,0,0,16.18,45c1.13-4.26-1.4-10.78-5.64-14.52h0C8.08,28.28,5.47,27.4,3.39,28A4.71,4.71,0,0,0,.27,31.58C-.86,35.85,1.66,42.37,5.91,46.1A9.08,9.08,0,0,0,11.68,48.72Z" transform="translate(-0.15 -0.16)"/><path class="cls-4" d="M62.29,12.55,59.48,9.5c0-.31-1-5.14-1.36-5.34L19.51,26.6a19.34,19.34,0,0,1,4.59,8.15Z" transform="translate(-0.15 -0.16)"/><path class="cls-2" d="M61.45,12.42,24.42,34a20,20,0,0,0-4.06-7.23L57.88,4.91c.37,1.17,1,4.27,1.07,4.65a.54.54,0,0,0,.13.3l2.37,2.56ZM24.11,35.28a.48.48,0,0,0,.26-.07L62.56,13a.52.52,0,0,0,.26-.38.55.55,0,0,0-.14-.44L60,9.26c-.16-.95-1-5.2-1.58-5.56a.52.52,0,0,0-.54,0L19.25,26.14a.52.52,0,0,0-.26.38.56.56,0,0,0,.14.45,19.14,19.14,0,0,1,4.46,7.92.54.54,0,0,0,.31.35A.52.52,0,0,0,24.11,35.28Z" transform="translate(-0.15 -0.16)"/><polygon class="cls-4" points="61.94 19.72 71.37 2.88 71.35 1.33 62.14 12.39 61.94 19.72"/><path class="cls-2" d="M70.89,3.05,62.68,17.73l.14-5,8.07-9.7ZM62.1,20.41a.54.54,0,0,0,.46-.27L72,3.29A.46.46,0,0,0,72.05,3V1.49a.53.53,0,0,0-.94-.34L61.88,12.21a.53.53,0,0,0-.12.32l-.2,7.33a.54.54,0,0,0,.39.53Z" transform="translate(-0.15 -0.16)"/><path class="cls-1" d="M71.52,3a1.56,1.56,0,0,0,0-1.55A1.52,1.52,0,0,0,70.17.72L52,.57l6.14,3.59Z" transform="translate(-0.15 -0.16)"/><path class="cls-2" d="M71.15,2.53,58.24,3.61,54,1.11l16.2.14a1,1,0,0,1,.88.51,1,1,0,0,1,.1.77Zm-13,2.16h0l13.4-1.11A.54.54,0,0,0,72,3.29a2,2,0,0,0,0-2.07,2.06,2.06,0,0,0-1.79-1L52,0a.52.52,0,0,0-.52.39.52.52,0,0,0,.24.6l6.14,3.59A.64.64,0,0,0,58.12,4.69Z" transform="translate(-0.15 -0.16)"/><path class="cls-3" d="M68.6,8.24,71.52,3a1.56,1.56,0,0,0,0-1.55A1.52,1.52,0,0,0,70.17.72l-5.78,0,1.85,1.56L65.5,5.86Z" transform="translate(-0.15 -0.16)"/><path class="cls-2" d="M65.86,1.22l4.31,0a1,1,0,0,1,.88.51,1,1,0,0,1,0,1L68.44,7.45,66.09,5.64l.66-3.3a.54.54,0,0,0-.17-.52l-.72-.6Zm2.75,7.56.1,0a.55.55,0,0,0,.36-.25L72,3.29a2,2,0,0,0,0-2.07,2.06,2.06,0,0,0-1.79-1l-5.78,0h0a.54.54,0,0,0-.5.35.53.53,0,0,0,.16.59l1.6,1.35L65,5.75a.54.54,0,0,0,.2.53l3.1,2.38A.5.5,0,0,0,68.61,8.78Z" transform="translate(-0.15 -0.16)"/></g></g></svg>