<svg xmlns="http://www.w3.org/2000/svg" viewBox="0 0 1197.34 428.97"><defs><style>.cls-1{isolation:isolate;}.cls-2{fill:#3aa1ff;}.cls-3{fill:#0073c8;}.cls-4{fill:#002760;}.cls-5{mix-blend-mode:lighten;}.cls-6{opacity:0.13;}</style></defs><g class="cls-1"><g id="Layer_2" data-name="Layer 2"><g id="Layer_1-2" data-name="Layer 1"><path class="cls-2" d="M907.91,76.09a3.56,3.56,0,1,0-3.56,3.56A3.56,3.56,0,0,0,907.91,76.09Z"/><path class="cls-3" d="M904.35,80.08a4,4,0,1,1,4-4A4,4,0,0,1,904.35,80.08Zm0-7.12a3.13,3.13,0,1,0,3.13,3.13A3.13,3.13,0,0,0,904.35,73Z"/><path class="cls-2" d="M1119.27,25.15a3.57,3.57,0,1,0-3.57,3.56A3.57,3.57,0,0,0,1119.27,25.15Z"/><path class="cls-3" d="M1115.7,29.15a4,4,0,1,1,4-4A4,4,0,0,1,1115.7,29.15Zm0-7.13a3.13,3.13,0,1,0,3.13,3.13A3.13,3.13,0,0,0,1115.7,22Z"/><path class="cls-2" d="M1070,34.61a3.56,3.56,0,1,0-3.56,3.56A3.56,3.56,0,0,0,1070,34.61Z"/><path class="cls-3" d="M1066.44,38.6a4,4,0,1,1,4-4A4,4,0,0,1,1066.44,38.6Zm0-7.12a3.13,3.13,0,1,0,3.13,3.13A3.13,3.13,0,0,0,1066.44,31.48Z"/><path class="cls-2" d="M1133.77,4a3.56,3.56,0,1,0-3.56,3.56A3.56,3.56,0,0,0,1133.77,4Z"/><path class="cls-3" d="M1130.21,8a4,4,0,1,1,4-4A4,4,0,0,1,1130.21,8Zm0-7.12A3.13,3.13,0,1,0,1133.34,4,3.14,3.14,0,0,0,1130.21.86Z"/><path class="cls-2" d="M991.5,101.41a3.57,3.57,0,1,0-3.57,3.57A3.57,3.57,0,0,0,991.5,101.41Z"/><path class="cls-3" d="M987.93,105.41a4,4,0,1,1,4-4A4,4,0,0,1,987.93,105.41Zm0-7.12a3.13,3.13,0,1,0,3.13,3.12A3.12,3.12,0,0,0,987.93,98.29Z"/><path class="cls-3" d="M876.32,98.58h0a.43.43,0,0,1-.42-.44l.2-15.12a.42.42,0,0,1,.43-.42h0A.43.43,0,0,1,877,83l-.2,15.12A.44.44,0,0,1,876.32,98.58Z"/><path class="cls-3" d="M867.41,98.58h0a.45.45,0,0,1-.42-.44l.2-10a.43.43,0,0,1,.43-.42h0a.42.42,0,0,1,.42.43l-.2,10A.43.43,0,0,1,867.41,98.58Z"/><path class="cls-3" d="M386.19,429h0a.43.43,0,0,1-.43-.43l.2-15.12a.42.42,0,0,1,.43-.42h0a.41.41,0,0,1,.42.43l-.2,15.12A.42.42,0,0,1,386.19,429Z"/><path class="cls-3" d="M394.81,429h0a.42.42,0,0,1-.42-.43l.2-11.93a.42.42,0,0,1,.44-.42.43.43,0,0,1,.42.44l-.2,11.92A.42.42,0,0,1,394.81,429Z"/><path class="cls-3" d="M403.43,429h0a.41.41,0,0,1-.42-.43l.2-18.1a.43.43,0,0,1,.43-.43h0a.44.44,0,0,1,.43.44l-.2,18.1A.43.43,0,0,1,403.43,429Z"/><path class="cls-3" d="M377.29,429h0a.42.42,0,0,1-.42-.44l.2-10a.43.43,0,0,1,.43-.43h0a.44.44,0,0,1,.42.44l-.2,10A.43.43,0,0,1,377.29,429Z"/><path class="cls-3" d="M186.83,86.28h0a.43.43,0,0,1-.43-.43l.2-15.12a.44.44,0,0,1,.44-.43.43.43,0,0,1,.42.44l-.2,15.12A.42.42,0,0,1,186.83,86.28Z"/><path class="cls-3" d="M195.45,86.28h0a.42.42,0,0,1-.42-.43l.2-11.93a.41.41,0,0,1,.44-.42.43.43,0,0,1,.42.44l-.2,11.92A.42.42,0,0,1,195.45,86.28Z"/><path class="cls-3" d="M211.87,86.28h0a.43.43,0,0,1-.43-.43l.2-11.93a.43.43,0,0,1,.44-.42.42.42,0,0,1,.42.44l-.2,11.92A.42.42,0,0,1,211.87,86.28Z"/><path class="cls-3" d="M204.07,86.28h0a.42.42,0,0,1-.42-.43l.2-18.1a.43.43,0,0,1,.43-.43.44.44,0,0,1,.43.44l-.2,18.1A.43.43,0,0,1,204.07,86.28Z"/><path class="cls-3" d="M177.93,86.28h0a.42.42,0,0,1-.42-.44l.2-10a.44.44,0,0,1,.44-.43.43.43,0,0,1,.42.44l-.2,10A.42.42,0,0,1,177.93,86.28Z"/><path class="cls-3" d="M100.26,112.22h0l-58.5-.48a.43.43,0,0,1-.43-.43.43.43,0,0,1,.43-.43h0l58.51.48a.44.44,0,0,1,.43.44A.44.44,0,0,1,100.26,112.22Z"/><path class="cls-3" d="M79.3,96.69h0L42.06,96.2a.43.43,0,0,1-.43-.43.44.44,0,0,1,.44-.43l37.23.48a.44.44,0,0,1,.43.44A.43.43,0,0,1,79.3,96.69Z"/><circle class="cls-2" cx="57.49" cy="111.31" r="3.78"/><path class="cls-3" d="M57.49,115.52a4.21,4.21,0,1,1,4.21-4.21A4.21,4.21,0,0,1,57.49,115.52Zm0-7.56a3.35,3.35,0,1,0,3.35,3.35A3.35,3.35,0,0,0,57.49,108Z"/><path class="cls-3" d="M1045.85,15.29a.43.43,0,1,1,0-.86l58.5-.48h0a.43.43,0,0,1,0,.86l-58.5.48Z"/><circle class="cls-4" cx="1061.59" cy="14.86" r="3.78"/><path class="cls-3" d="M1061.59,19.07a4.21,4.21,0,1,1,4.2-4.21A4.22,4.22,0,0,1,1061.59,19.07Zm0-7.55a3.35,3.35,0,1,0,3.34,3.34A3.35,3.35,0,0,0,1061.59,11.52Z"/><path class="cls-3" d="M962.67,64.05a.42.42,0,0,1-.24-.07.44.44,0,0,1-.12-.6l8.33-12.49a.44.44,0,0,1,.29-.19.45.45,0,0,1,.34.09l7.46,6.06,9.54-15a.46.46,0,0,1,.35-.2.44.44,0,0,1,.36.18l11.4,15.67,12.88-18.6a.43.43,0,0,1,.71.49l-13.23,19.1a.42.42,0,0,1-.7,0L988.66,42.83l-9.46,14.9a.44.44,0,0,1-.3.19.42.42,0,0,1-.34-.09l-7.47-6.07L963,63.86A.44.44,0,0,1,962.67,64.05Z"/><path class="cls-3" d="M168.61,50a.43.43,0,0,1-.32-.14l-4.71-5.14a.44.44,0,0,1,0-.61.43.43,0,0,1,.61,0l4.36,4.75,8.78-12.09a.42.42,0,0,1,.29-.17.38.38,0,0,1,.32.09l6.8,5.42,10.05-17.11a.4.4,0,0,1,.29-.2.43.43,0,0,1,.35.09l15.26,12.68,7.55-16.26a.45.45,0,0,1,.58-.21.44.44,0,0,1,.21.57l-7.8,16.77a.39.39,0,0,1-.29.24.41.41,0,0,1-.37-.09L195.29,26l-10,17.1a.42.42,0,0,1-.3.2.38.38,0,0,1-.34-.08l-6.84-5.46L169,49.86a.44.44,0,0,1-.33.18Z"/><path class="cls-3" d="M324.63,123.49h0l-58.5-.48a.44.44,0,0,1-.43-.44.44.44,0,0,1,.43-.43h0l58.5.49a.43.43,0,0,1,.43.43A.43.43,0,0,1,324.63,123.49Z"/><circle class="cls-2" cx="281.86" cy="122.58" r="3.78"/><path class="cls-3" d="M281.86,126.78a4.21,4.21,0,1,1,4.2-4.2A4.21,4.21,0,0,1,281.86,126.78Zm0-7.55a3.35,3.35,0,1,0,3.34,3.35A3.35,3.35,0,0,0,281.86,119.23Z"/><path class="cls-3" d="M267.66,136.2a.43.43,0,0,1,0-.86c10.05-.3,20.25-.39,30.31-.28a.43.43,0,0,1,.42.44.44.44,0,0,1-.43.43c-10.05-.12-20.24,0-30.28.27Z"/><path class="cls-3" d="M1166.61,1.89a.43.43,0,0,1-.43-.42.44.44,0,0,1,.42-.44c10.05-.3,20.25-.39,30.31-.27a.43.43,0,0,1,.43.43.43.43,0,0,1-.43.43h0c-10.05-.12-20.23,0-30.27.27Z"/><path class="cls-3" d="M921.5,93.41a.44.44,0,0,1,0-.87c10-.3,20.25-.39,30.31-.27a.44.44,0,0,1,.43.44.45.45,0,0,1-.44.42c-10-.12-20.23,0-30.28.28Z"/><path class="cls-3" d="M921.47,108.67a.44.44,0,0,1-.43-.4.42.42,0,0,1,.39-.46,109.56,109.56,0,0,1,11.74-.28.43.43,0,0,1,.41.45.43.43,0,0,1-.44.41,110.33,110.33,0,0,0-11.64.28Z"/><path class="cls-3" d="M1153.1,15.29a.43.43,0,0,1-.43-.41.43.43,0,0,1,.41-.45c8.43-.3,17-.39,25.42-.27a.42.42,0,0,1,.42.43.43.43,0,0,1-.43.43h0c-8.42-.12-17,0-25.38.27Z"/><g class="cls-5"><path class="cls-3" d="M8.79,29.39l45.32.33a13.76,13.76,0,0,0,4.57-.51c11-3.77,6.72-12.59,6-14.34-1.18-2.88-5.06-3.79-8-2.74S51.61,15.62,49.57,18a13.64,13.64,0,0,0-6.43-13.6C38.5,1.77,32,2.73,28.62,6.83,26,10,25.4,14.36,24.92,18.46c-1.15-3-2.71-6-5.35-7.88s-6.56-2.19-8.93,0C8,13,8.31,17.17,8.82,20.71A4.66,4.66,0,0,0,2.06,20a5.69,5.69,0,0,0-.74,7.07C2.72,29.26,5.31,29.37,8.79,29.39Z"/><path class="cls-3" d="M54.55,30.16h-.44L8.79,29.82c-3.22,0-6.25,0-7.83-2.49a6.13,6.13,0,0,1,.81-7.62,5.13,5.13,0,0,1,4.09-1.2,4.81,4.81,0,0,1,2.36.94c-.4-3.55-.26-7,2.13-9.19,2.68-2.47,6.88-1.86,9.47,0a15.35,15.35,0,0,1,4.87,6.53c.45-3.43,1.19-7.3,3.6-10.21A12.24,12.24,0,0,1,43.35,4a13.91,13.91,0,0,1,6.77,12.68c1.72-1.93,3.8-4,6.43-4.95,3.08-1.11,7.24-.18,8.53,3l.11.26c.62,1.49,2.29,5.42.64,9.12-1.1,2.46-3.46,4.32-7,5.54A13,13,0,0,1,54.55,30.16ZM8.8,29l45.31.33a13.18,13.18,0,0,0,4.43-.49C61.86,27.67,64,26,65,23.73c1.5-3.36-.06-7-.65-8.43L64.28,15c-1.1-2.7-4.73-3.46-7.43-2.49-2.9,1-5.05,3.52-7,5.71a.43.43,0,0,1-.5.11.44.44,0,0,1-.25-.46A13.27,13.27,0,0,0,42.93,4.75c-4.52-2.54-10.8-1.48-14,2.36-2.64,3.18-3.17,7.73-3.61,11.4a.42.42,0,0,1-.37.37.43.43,0,0,1-.46-.27c-.89-2.36-2.41-5.72-5.18-7.68-2.35-1.66-6.14-2.12-8.4,0s-2.22,6-1.68,9.76a.44.44,0,0,1-.28.46.43.43,0,0,1-.51-.17,3.78,3.78,0,0,0-2.71-1.58,4.33,4.33,0,0,0-3.41,1,5.25,5.25,0,0,0-.66,6.51C2.92,28.78,5.2,28.94,8.8,29Z"/><g class="cls-6"><path class="cls-3" d="M64,23.81a1.6,1.6,0,0,0-1,.55l0,0a17.3,17.3,0,0,1-1.5.88c-3,1.86-6,1.47-11.62,1-4.07-.18-8.16.12-12.23-.24a56.47,56.47,0,0,0-6-.26c-2.64.1-5.28.1-7.92.16C18.84,26,12,27,8.4,26.54a27.33,27.33,0,0,1-3.8-.92C3.86,25.47,3.14,25,2.38,25a1.27,1.27,0,0,0-.17,2.47,27.22,27.22,0,0,0,7.42,1.81c4.73.11,9.45-.61,14.18-.57,3.23.05,6.46,0,9.69,0,2.17.1,4.33.36,6.51.43,2.4.1,4.81,0,7.22.05a45,45,0,0,1,5.57.09,17.61,17.61,0,0,0,6.7-.61,16.2,16.2,0,0,0,5.26-3.15A1.05,1.05,0,0,0,64,23.81Z"/></g></g></g></g></g></svg>