<svg xmlns="http://www.w3.org/2000/svg" viewBox="0 0 120.56 177.21"><defs><style>.cls-1{fill:#002760;}.cls-1,.cls-3,.cls-4{stroke:#fff;stroke-linecap:round;stroke-linejoin:round;stroke-width:0.75px;}.cls-1,.cls-2,.cls-3,.cls-4{fill-rule:evenodd;}.cls-2{fill:none;}.cls-3{fill:#001d3f;}.cls-4{fill:#003d87;}</style></defs><g id="Layer_2" data-name="Layer 2"><g id="Layer_1-2" data-name="Layer 1"><polygon class="cls-1" points="0.38 108.95 21.45 96.77 120.19 153.72 99.11 165.92 0.38 108.95"/><path class="cls-2" d="M118.44,154.7l-96-55.42L4,109.92l96.1,55.42,18.33-10.64Zm-19,13.37-98.74-57a1.32,1.32,0,0,1,0-2.32l21.07-12.2a1.41,1.41,0,0,1,1.38,0l98.74,57a1.35,1.35,0,0,1,0,2.34l-21.2,12.19a1,1,0,0,1-.57.18A1,1,0,0,1,99.43,168.07Z" transform="translate(-1 -0.98)"/><polygon class="cls-3" points="99.11 165.92 120.19 153.72 120.19 164.64 99.11 176.84 99.11 165.92"/><path class="cls-2" d="M119.81,164.85V157l-18.44,10.63v7.82l18.44-10.64ZM99.43,179a1.27,1.27,0,0,1-.69-1.17V166.9a1.28,1.28,0,0,1,.69-1.17l21.07-12.2a1.44,1.44,0,0,1,1.38,0,1.55,1.55,0,0,1,.68,1.17v10.92a1.28,1.28,0,0,1-.68,1.16L100.68,179a1,1,0,0,1-.57.19A1.43,1.43,0,0,1,99.43,179Z" transform="translate(-1 -0.98)"/><polygon class="cls-4" points="0.38 108.95 99.11 165.92 99.11 176.84 0.38 119.88 0.38 108.95"/><path class="cls-2" d="M98.74,167.68l-96-55.42v7.81l96,55.41v-7.8Zm.69,11.3L.69,122A1.28,1.28,0,0,1,0,120.85V109.94a1.27,1.27,0,0,1,.69-1.17,1.41,1.41,0,0,1,1.37,0l98.62,57a1.27,1.27,0,0,1,.69,1.17v10.91a1.27,1.27,0,0,1-.69,1.17,1,1,0,0,1-.57.19A1.43,1.43,0,0,1,99.43,179Z" transform="translate(-1 -0.98)"/><polygon class="cls-1" points="0.38 90.09 21.45 77.89 120.19 134.87 99.11 147.06 0.38 90.09"/><path class="cls-2" d="M118.44,135.85l-96-55.42L4,91.07l96.1,55.41,18.33-10.63Zm-19,13.35L.69,92.24a1.34,1.34,0,0,1,0-2.34L21.76,77.71a1.47,1.47,0,0,1,1.38,0l98.74,57a1.35,1.35,0,0,1,0,2.34l-21.2,12.19a1,1,0,0,1-.57.19A.93.93,0,0,1,99.43,149.2Z" transform="translate(-1 -0.98)"/><polygon class="cls-3" points="99.11 147.06 120.19 134.87 120.19 145.79 99.11 157.99 99.11 147.06"/><path class="cls-2" d="M119.81,146v-7.82l-18.44,10.64v7.83L119.81,146ZM99.43,160.13a1.28,1.28,0,0,1-.69-1.17V148a1.25,1.25,0,0,1,.69-1.16l21.07-12.2a1.44,1.44,0,0,1,1.38,0,1.53,1.53,0,0,1,.68,1.17v10.92a1.29,1.29,0,0,1-.68,1.17l-21.2,12.2a1,1,0,0,1-.57.17A1.4,1.4,0,0,1,99.43,160.13Z" transform="translate(-1 -0.98)"/><polygon class="cls-4" points="0.38 90.09 99.11 147.06 99.11 157.99 0.38 101.03 0.38 90.09"/><path class="cls-2" d="M98.74,148.81l-96-55.4v7.81l96,55.41v-7.82Zm.69,11.32-98.74-57A1.27,1.27,0,0,1,0,102V91.07A1.29,1.29,0,0,1,.69,89.9a1.39,1.39,0,0,1,1.37,0l98.62,57a1.27,1.27,0,0,1,.69,1.17V159a1.29,1.29,0,0,1-.69,1.17,1,1,0,0,1-.57.17A1.4,1.4,0,0,1,99.43,160.13Z" transform="translate(-1 -0.98)"/><polygon class="cls-1" points="0.38 71.24 21.45 59.05 120.19 116.01 99.11 128.21 0.38 71.24"/><path class="cls-2" d="M118.44,117l-96-55.4L4,72.22l96.1,55.4L118.44,117Zm-19,13.37L.69,73.39A1.32,1.32,0,0,1,0,72.22a1.27,1.27,0,0,1,.69-1.17l21.07-12.2a1.41,1.41,0,0,1,1.38,0l98.74,57a1.35,1.35,0,0,1,0,2.34l-21.2,12.2a1.12,1.12,0,0,1-.57.18A1,1,0,0,1,99.43,130.35Z" transform="translate(-1 -0.98)"/><polygon class="cls-3" points="99.11 128.21 120.19 116.01 120.19 126.93 99.11 139.12 99.11 128.21"/><path class="cls-2" d="M119.81,127.13v-7.81L101.37,130v7.81l18.44-10.64ZM99.43,141.27a1.29,1.29,0,0,1-.69-1.16V129.18a1.28,1.28,0,0,1,.69-1.17l21.07-12.2a1.47,1.47,0,0,1,1.38,0,1.55,1.55,0,0,1,.68,1.17v10.93a1.29,1.29,0,0,1-.68,1.17l-21.2,12.19a1.12,1.12,0,0,1-.57.18A1.53,1.53,0,0,1,99.43,141.27Z" transform="translate(-1 -0.98)"/><polygon class="cls-4" points="0.38 71.24 99.11 128.21 99.11 139.12 0.38 82.16 0.38 71.24"/><path class="cls-2" d="M98.74,130l-96-55.42v7.81l96,55.42V130Zm.69,11.31L.69,84.3A1.26,1.26,0,0,1,0,83.15V72.22a1.28,1.28,0,0,1,.69-1.17,1.39,1.39,0,0,1,1.37,0l98.62,57a1.28,1.28,0,0,1,.69,1.17V140.1a1.29,1.29,0,0,1-.69,1.17,1.12,1.12,0,0,1-.57.18A1.53,1.53,0,0,1,99.43,141.27Z" transform="translate(-1 -0.98)"/><polygon class="cls-1" points="0.38 50.28 21.45 38.08 67.27 64.52 46.19 76.72 0.38 50.28"/><path class="cls-2" d="M65.63,65.49,22.45,40.62,4,51.26,47.19,76.14,65.63,65.49ZM46.51,78.86.69,52.43A1.29,1.29,0,0,1,0,51.26a1.27,1.27,0,0,1,.69-1.17L21.76,37.9a1.39,1.39,0,0,1,1.38,0L69,64.33a1.34,1.34,0,0,1,0,2.33L47.88,78.86a1.5,1.5,0,0,1-.69.19A1.43,1.43,0,0,1,46.51,78.86Z" transform="translate(-1 -0.98)"/><polygon class="cls-3" points="46.19 76.72 67.27 64.52 67.27 75.44 46.19 87.64 46.19 76.72"/><path class="cls-2" d="M67,75.64l-.11-7.81L48.57,78.47v7.81L67,75.64ZM46.51,89.78a1.28,1.28,0,0,1-.69-1.16V77.69a1.27,1.27,0,0,1,.69-1.16L67.58,64.34a1.44,1.44,0,0,1,1.38,0,1.53,1.53,0,0,1,.68,1.16V76.42A1.27,1.27,0,0,1,69,77.59L47.88,89.78a1.48,1.48,0,0,1-.69.18A1.41,1.41,0,0,1,46.51,89.78Z" transform="translate(-1 -0.98)"/><polygon class="cls-4" points="0.38 50.28 46.19 76.72 46.19 87.64 0.38 61.2 0.38 50.28"/><path class="cls-2" d="M45.82,78.47,2.75,53.59v7.8L45.82,86.28V78.47Zm.69,11.31L.69,63.34A1.26,1.26,0,0,1,0,62.19V51.26a1.27,1.27,0,0,1,.69-1.17,1.41,1.41,0,0,1,1.37,0L47.88,76.53a1.54,1.54,0,0,1,.69,1.16V88.61a1.56,1.56,0,0,1-.69,1.17,1.48,1.48,0,0,1-.69.18A1.41,1.41,0,0,1,46.51,89.78Z" transform="translate(-1 -0.98)"/><polygon class="cls-1" points="0.38 31.41 21.45 19.23 67.27 45.67 46.19 57.86 0.38 31.41"/><path class="cls-2" d="M65.63,46.64,22.45,21.76,4,32.39,47.19,57.28,65.63,46.64ZM46.51,60,.69,33.56a1.33,1.33,0,0,1,0-2.33L21.76,19a1.36,1.36,0,0,1,1.38,0L69,45.47a1.35,1.35,0,0,1,0,2.34L47.88,60a1.48,1.48,0,0,1-.69.18A1.41,1.41,0,0,1,46.51,60Z" transform="translate(-1 -0.98)"/><polygon class="cls-3" points="46.19 57.86 67.27 45.67 67.27 56.59 46.19 68.78 46.19 57.86"/><path class="cls-2" d="M67,56.79,66.9,49,48.57,59.62v7.81L67,56.79ZM46.51,70.92a1.27,1.27,0,0,1-.69-1.17V58.84a1.28,1.28,0,0,1,.69-1.17l21.07-12.2a1.46,1.46,0,0,1,1.38,0,1.55,1.55,0,0,1,.68,1.17V57.55A1.27,1.27,0,0,1,69,58.73L47.88,70.92a1.5,1.5,0,0,1-.69.19A1.43,1.43,0,0,1,46.51,70.92Z" transform="translate(-1 -0.98)"/><polygon class="cls-4" points="0.38 31.41 46.19 57.86 46.19 68.78 0.38 42.34 0.38 31.41"/><path class="cls-2" d="M45.82,59.62,2.75,34.73v7.81L45.82,67.43V59.62Zm.69,11.3L.69,44.49A1.27,1.27,0,0,1,0,43.32V32.4a1.28,1.28,0,0,1,.69-1.17,1.41,1.41,0,0,1,1.37,0L47.88,57.67a1.54,1.54,0,0,1,.69,1.17V69.75a1.54,1.54,0,0,1-.69,1.17,1.5,1.5,0,0,1-.69.19A1.43,1.43,0,0,1,46.51,70.92Z" transform="translate(-1 -0.98)"/><polygon class="cls-1" points="0.38 12.56 21.45 0.38 67.27 26.81 46.19 39 0.38 12.56"/><path class="cls-2" d="M65.63,27.79,22.45,2.89,4,13.54,47.19,38.43,65.63,27.79ZM46.51,41.14.69,14.7A1.27,1.27,0,0,1,0,13.54a1.28,1.28,0,0,1,.69-1.17L21.76.18a1.41,1.41,0,0,1,1.38,0L69,26.62A1.34,1.34,0,0,1,69,29L47.88,41.14a1.5,1.5,0,0,1-.69.19A1.43,1.43,0,0,1,46.51,41.14Z" transform="translate(-1 -0.98)"/><polygon class="cls-3" points="46.19 39 67.27 26.81 67.27 37.73 46.19 49.93 46.19 39"/><path class="cls-2" d="M67,37.93l-.11-7.82L48.57,40.75v7.83L67,37.93ZM46.51,52.07a1.28,1.28,0,0,1-.69-1.17V40a1.23,1.23,0,0,1,.69-1.15l21.07-12.2a1.41,1.41,0,0,1,1.38,0,1.55,1.55,0,0,1,.68,1.16V38.7A1.27,1.27,0,0,1,69,39.87L47.88,52.07a1.61,1.61,0,0,1-.69.18A1.53,1.53,0,0,1,46.51,52.07Z" transform="translate(-1 -0.98)"/><polygon class="cls-4" points="0.38 12.56 46.19 39 46.19 49.93 0.38 23.49 0.38 12.56"/><path class="cls-2" d="M45.82,40.75,2.75,15.87v7.81L45.82,48.56V40.75Zm.69,11.32L.69,25.63A1.27,1.27,0,0,1,0,24.46V13.54a1.31,1.31,0,0,1,.69-1.17,1.44,1.44,0,0,1,1.37,0L47.88,38.82A1.49,1.49,0,0,1,48.57,40V50.9a1.58,1.58,0,0,1-.69,1.17,1.61,1.61,0,0,1-.69.18A1.53,1.53,0,0,1,46.51,52.07Z" transform="translate(-1 -0.98)"/><path class="cls-3" d="M73.19,54.54l20.74-12a1,1,0,0,1,.91.11L101,46.17A2.91,2.91,0,0,1,102.29,48l17.18,58.61c.12.58.23,1.1-.34,1.51l-20.74,12c.58-.53.23-1.66,0-2.33L88.66,84.62l-1.84,1.06-.91,2.6c-.12.21-.12.26-.35.4l-20.84,12c.23-.13.23-.18.34-.4L69.3,89l7.33-4.18-4.7-2.67,4-9.93c.46-1.2.8-2.37,1.15-3.59l6-3.41L81.44,60a2.87,2.87,0,0,0-1.26-1.79l-6.07-3.55C73.65,54.49,73.54,54.42,73.19,54.54Z" transform="translate(-1 -0.98)"/><path class="cls-2" d="M118.21,107.07v-.13L101,48.36a1.39,1.39,0,0,0-.69-1l-6.07-3.48L76.17,54.34,81,57.09a4.21,4.21,0,0,1,1.83,2.5l1.49,5.27a1.52,1.52,0,0,1-.57,1.55l-5.5,3.14a33.69,33.69,0,0,1-1.14,3.18l-3.44,8.86,3.55,2.08a1.34,1.34,0,0,1,0,2.34L70.45,90l-2.87,7.58,17.07-9.9.91-2.42a1.61,1.61,0,0,1,.58-.7l1.83-1a1.51,1.51,0,0,1,1.26-.09,1.45,1.45,0,0,1,.8.86l9.74,33.25v.22l18.44-10.64ZM97.13,121a1.25,1.25,0,0,1,.23-1.71,4.87,4.87,0,0,0-.23-1.11L87.86,86.74l-.81,2.13a1.87,1.87,0,0,1-.8,1l-20.84,12a1.49,1.49,0,0,1-1.95-.33,1.25,1.25,0,0,1,.34-1.71L68,88.54a1.56,1.56,0,0,1,.57-.69l5.27-3-2.64-1.5a1.38,1.38,0,0,1-.57-1.66l4-9.92c.46-1.17.81-2.31,1.15-3.5a1.61,1.61,0,0,1,.57-.78l5-2.87-1.26-4.22a1.44,1.44,0,0,0-.68-1l-6-3.55-.35-1.27.35,1.27a1.3,1.3,0,0,1-1.61-.72,1.22,1.22,0,0,1,.58-1.71l21-12.15a2.5,2.5,0,0,1,2.06.23l6.19,3.59a4.28,4.28,0,0,1,1.83,2.52l17.29,58.69a2.77,2.77,0,0,1-1,3l-20.73,12a2,2,0,0,1-.8.22A1.38,1.38,0,0,1,97.13,121Z" transform="translate(-1 -0.98)"/><path class="cls-1" d="M71.93,82.17l3.9-9.86.11-.07c.46-1.19.8-2.38,1.15-3.59,1.71,6.49,3.55,13.07,5.38,19.58L71.93,82.17ZM56.59,94.28c0,.15-.12.33-.12.56a3.2,3.2,0,0,0,1.37,2.34l6,3.43c.57.31,1,.22,1.26-.31L69.3,89,85.22,98.2l4.47,16.32a3.63,3.63,0,0,0,1.37,1.82l6.3,3.66h0a1.44,1.44,0,0,0,.58.18c.68.08,1-.63.68-1.6L81.44,60a2.77,2.77,0,0,0-1.26-1.79l-6.07-3.55c-.57-.31-1.14-.22-1.38.28L56.59,94.28Z" transform="translate(-1 -0.98)"/><path class="cls-2" d="M77,73.26l-3.33,8.33,6.65,3.85-.58-2C78.8,80,77.78,76.64,77,73.26Zm5.49,16.32a1.48,1.48,0,0,1-.69-.18L71.24,83.34a1.38,1.38,0,0,1-.57-1.66l4-9.93c.46-1.15.81-2.32,1.15-3.49a1.26,1.26,0,0,1,1.26-1,1.47,1.47,0,0,1,1.37,1c1.15,4.77,2.52,9.59,3.9,14.4l1.37,5.17a1.33,1.33,0,0,1-1.26,1.7Zm-8.7-33.52,5.73,3.3a1.78,1.78,0,0,1,.68,1l16.95,58-5.38-3.16a1.9,1.9,0,0,1-.69-1L86.48,97.84a1.75,1.75,0,0,0-.57-.81L70,87.85a1.41,1.41,0,0,0-1.15-.1,1.36,1.36,0,0,0-.8.79L64,99.19,58.53,96a1.67,1.67,0,0,1-.69-1.18v0L73.77,56.06Zm24,65.46a2.63,2.63,0,0,1-1.15-.35l-6.3-3.66a4.26,4.26,0,0,1-1.94-2.64L84.08,99.09,70,91l-3.67,9.81A2.1,2.1,0,0,1,65.06,102a2.32,2.32,0,0,1-2-.25l-6-3.42a4.41,4.41,0,0,1-2.06-3.51,3.22,3.22,0,0,1,.23-1.11L71.59,54.42a1.84,1.84,0,0,1,1.14-1.18,2.26,2.26,0,0,1,2,.25L80.87,57a4.56,4.56,0,0,1,1.94,2.55L100,118.21a2.92,2.92,0,0,1-.46,2.61,1.86,1.86,0,0,1-1.49.72Z" transform="translate(-1 -0.98)"/></g></g></svg>