<svg xmlns="http://www.w3.org/2000/svg" xmlns:xlink="http://www.w3.org/1999/xlink" viewBox="0 0 1433.37 1030.42"><defs><style>.cls-1{fill:none;}.cls-2{fill:url(#linear-gradient);}.cls-3{isolation:isolate;}.cls-4{clip-path:url(#clip-path);}.cls-5{clip-path:url(#clip-path-2);}.cls-6{opacity:0.4;mix-blend-mode:soft-light;}.cls-7{fill:#3aa1ff;}.cls-8{fill:#2572b9;}.cls-9{fill:#1f4283;}</style><linearGradient id="linear-gradient" x1="624.96" y1="-15.98" x2="646.88" y2="691.49" gradientUnits="userSpaceOnUse"><stop offset="0.15" stop-color="#003d87"/><stop offset="0.16" stop-color="#013f89"/><stop offset="0.29" stop-color="#155ba3"/><stop offset="0.41" stop-color="#216cb3"/><stop offset="0.5" stop-color="#2572b9"/><stop offset="0.64" stop-color="#1d66ae"/><stop offset="0.9" stop-color="#064690"/><stop offset="0.96" stop-color="#003d87"/></linearGradient><clipPath id="clip-path" transform="translate(48.04 78.09)"><rect class="cls-1" width="1280.32" height="726.89"/></clipPath><clipPath id="clip-path-2" transform="translate(48.04 78.09)"><path class="cls-2" d="M1288.31,474.42c-27.4-33.53-75.27-62.74-135.72-83.85-41.07-14.34-85.62-27.68-130.14-33.7-131.32-17.77-254.91-13.09-254.91-13.09-189.81-20.86-346.34-91.73-440.63-175C277.58,125.27,242.73,78.19,195.81,34S87.3-52.52-.37-78.09V591.2h.18V726.89h1288.5V591.2h0Z"/></clipPath></defs><g class="cls-3"><g id="Layer_2" data-name="Layer 2"><g id="Layer_1-2" data-name="Layer 1"><g class="cls-4"><path class="cls-2" d="M1288.31,474.42c-27.4-33.53-75.27-62.74-135.72-83.85-41.07-14.34-85.62-27.68-130.14-33.7-131.32-17.77-254.91-13.09-254.91-13.09-189.81-20.86-346.34-91.73-440.63-175C277.58,125.27,242.73,78.19,195.81,34S87.3-52.52-.37-78.09V591.2h.18V726.89h1288.5V591.2h0Z" transform="translate(48.04 78.09)"/><g class="cls-5"><g class="cls-6"><path class="cls-7" d="M1354.74,481.3V434.16h-74.93v30.69c-26-27.08-65.65-51-114-69.43V511.94h-24.69v30H1121.8v71.89h-22.54v-99h-55.82V486h-31.67v46.25l-29.52,16.21v93.09H912.48V437.11H837.33v38.3h-59l-16.1,8.83v21.21H688.12l-14,7.66V585H643V474.23h-58v19.44H493.29v46.84l-16.64,9.13v46H449V482.11l-37.57-8.25V443.22H310.5V572.84H294.4V408.46l-21.47.59L209.6,426.72V588.16H182.76V481.52l-16.1-21.21v-8.25H129.09v8.25h-20.4l-16.1,18.85h-15v-79H38.92v28.57H-.37v36.07H-6.92V428.78h-9.45L-48,446.17v403h685v-.33l748.4-.48V498.09Z" transform="translate(48.04 78.09)"/><polygon class="cls-8" points="1157.55 575.59 1142.34 592.31 1142.34 643.58 1126.12 643.58 1126.12 503.14 1053.61 503.14 1053.61 830.28 1031.81 806.32 1031.81 617.95 870.58 617.95 870.58 665.88 785.39 665.88 785.39 816.35 785.39 882.61 710.57 882.61 710.57 686.92 688.92 686.92 688.92 610.79 644.55 610.79 644.55 736.88 623.99 736.88 623.99 760.68 598.02 715.47 552.56 715.47 552.56 552.5 464.91 552.5 457.33 560.83 457.33 610.79 457.33 666.7 432.44 666.7 432.44 518.01 357.77 518.01 357.77 542.99 343.16 559.05 343.16 812.42 326.38 812.42 326.38 609.01 316.64 609.01 316.64 589.38 230.61 589.38 216 605.44 216 628.04 134.83 628.04 130.5 916.5 401.06 916.5 401.06 915.91 675.94 915.91 675.94 916.5 785.39 916.5 943.24 916.5 1222.45 916.5 1222.45 575.59 1157.55 575.59"/><polygon class="cls-9" points="1222.01 596.57 1222.01 799.83 1195.77 799.83 1195.77 718.94 1158.61 687.42 1158.61 565.05 1111.61 565.05 1084.28 541.87 1049.3 541.87 1049.3 665.17 965.14 665.17 965.14 805.15 943.28 805.15 943.28 609.54 882.07 636.43 882.07 753.24 865.67 753.24 865.67 573.39 844.9 573.39 844.9 520.55 839.61 520.55 839.61 508.5 793.15 508.5 793.15 518.69 764.02 518.69 764.02 559.48 715.92 559.48 703.9 573.39 703.9 740.26 662.91 740.26 662.91 706.42 637.22 684.63 637.22 604.91 547.59 604.91 547.59 670.73 514.8 670.73 514.8 726.35 475.45 763.43 450.31 763.43 450.31 587.29 380.35 546.5 380.35 709.67 363.96 709.67 363.96 597.49 280.88 597.49 280.88 636.43 242.63 636.43 242.63 822.77 226.23 822.77 226.23 742.11 170.49 742.11 170.49 717.08 160.65 705.03 100.53 705.03 96.16 1030.42 1133.64 1030.42 1195.77 1030.42 1222.01 1030.42 1293.16 1030.42 1293.16 596.57 1222.01 596.57"/><rect class="cls-7" x="1026.49" y="459.7" width="7.07" height="14.14"/></g></g></g></g></g></g></svg>