<svg xmlns="http://www.w3.org/2000/svg" viewBox="0 0 93.79 148.2"><defs><style>.cls-1{fill:#001d3f;}.cls-1,.cls-3,.cls-4{stroke:#fff;stroke-linecap:round;stroke-linejoin:round;stroke-width:0.75px;}.cls-1,.cls-2,.cls-3,.cls-4{fill-rule:evenodd;}.cls-2{fill:none;}.cls-3{fill:#002760;}.cls-4{fill:#003d87;}</style></defs><g id="Layer_2" data-name="Layer 2"><g id="Layer_1-2" data-name="Layer 1"><polygon class="cls-1" points="12.21 54.04 0.41 47.22 0.38 141.02 12.16 147.83 12.21 54.04"/><path class="cls-2" d="M2.18,141.09l9.62,5.56,0-91.27L2.21,49.82l0,91.27Zm10.7,8.53a1,1,0,0,1-.53-.14L.55,142.67a1.09,1.09,0,0,1-.55-.95L0,47.93a1.08,1.08,0,0,1,.55-1,1.15,1.15,0,0,1,1.08,0l11.8,6.83a1.09,1.09,0,0,1,.54.94l0,93.78a1.12,1.12,0,0,1-.55,1A1.14,1.14,0,0,1,12.88,149.62Z" transform="translate(-0.72 -0.71)"/><polygon class="cls-3" points="93.41 7.2 81.62 0.38 0.41 47.22 12.21 54.04 93.41 7.2"/><path class="cls-2" d="M3.3,47.93l9.63,5.56L92,7.9,82.33,2.34,3.3,47.93Zm9.63,7.9a1.08,1.08,0,0,1-.55-.15L.59,48.87A1.06,1.06,0,0,1,0,47.93a1.08,1.08,0,0,1,.55-1L81.79.14a1.11,1.11,0,0,1,1.09,0L94.68,7a1.1,1.1,0,0,1,.54.94,1.09,1.09,0,0,1-.54.94L13.47,55.68A1.08,1.08,0,0,1,12.93,55.83Z" transform="translate(-0.72 -0.71)"/><polygon class="cls-3" points="12.21 54.04 12.16 147.83 93.38 100.98 93.42 7.2 83.22 13.07 12.21 54.04"/><path class="cls-2" d="M14,55.38l0,91.27,79-45.58L93,9.78,14,55.38Zm-1.13,94.24a1.06,1.06,0,0,1-.54-.14,1.1,1.1,0,0,1-.54-.95l0-93.78a1.06,1.06,0,0,1,.54-.94L93.59,7a1.07,1.07,0,0,1,1.09,0,1.09,1.09,0,0,1,.55.94l0,93.79a1,1,0,0,1-.54.94L13.43,149.49A1.14,1.14,0,0,1,12.88,149.62Z" transform="translate(-0.72 -0.71)"/><path class="cls-1" d="M32.6,54.56l-.89.52h0L28.41,57h0l-.89.52A3.38,3.38,0,0,0,26,60.17c0,26.78,0,44.1,0,67.9,0,1,.69,1.37,1.54.89l.89-.51,0,0,3.28-1.88h0l.9-.52a3.35,3.35,0,0,0,1.53-2.65c0-23.81,0-41.13,0-67.9,0-1-.68-1.38-1.52-.9ZM56.08,41l-.89.52h0l-3.28,1.9h0L51,44a3.38,3.38,0,0,0-1.53,2.65c0,23.8,0,41.13,0,67.91,0,1,.68,1.37,1.53.89l.89-.52h0l3.28-1.9h0l.89-.52a3.45,3.45,0,0,0,1.54-2.65c0-26.78,0-44.12,0-67.91,0-1-.69-1.38-1.53-.89Zm25-12.65c0-1-.69-1.38-1.53-.89l-.89.51,0,0L75.37,29.9h0l-.9.52a3.39,3.39,0,0,0-1.53,2.66c0,26.78,0,44.1,0,67.91,0,1,.69,1.36,1.54.88l.89-.52h0l3.28-1.89h0l.89-.52a3.38,3.38,0,0,0,1.54-2.66c0-23.79,0-41.12,0-67.89Z" transform="translate(-0.72 -0.71)"/><path class="cls-2" d="M81.09,28.37h0ZM80,28.49l-5,2.88a2.29,2.29,0,0,0-1,1.71l0,67.77L79,98a2.31,2.31,0,0,0,1-1.72l0-67.77Zm-6.27,74.68a1.94,1.94,0,0,1-.94-.25,2.16,2.16,0,0,1-1-1.93l0-67.91a4.49,4.49,0,0,1,2.08-3.6L79,26.54a2,2,0,0,1,3.17,1.83h0l0,67.89a4.48,4.48,0,0,1-2.08,3.61L75,102.82a2.53,2.53,0,0,1-1.23.35ZM56.57,41.88s.13,0,.2,0L56.08,41l.49.86Zm0,.14-5,2.89a2.33,2.33,0,0,0-1,1.71l0,67.78,5-2.88a2.29,2.29,0,0,0,1-1.71l0-67.79ZM50.26,116.7a1.93,1.93,0,0,1-.94-.24,2.16,2.16,0,0,1-1-1.94l0-67.9A4.5,4.5,0,0,1,50.43,43l5.1-2.94h0a2.14,2.14,0,0,1,2.18-.1,2.12,2.12,0,0,1,1,1.93l0,67.91a4.5,4.5,0,0,1-2.07,3.59l-5.11,2.94a2.43,2.43,0,0,1-1.23.35ZM32.6,54.56h0Zm.44,1-5,2.88a2.33,2.33,0,0,0-1,1.72l0,67.77,5-2.87a2.33,2.33,0,0,0,1-1.71l0-67.79Zm-6.26,74.68a1.81,1.81,0,0,1-.94-.25,2.12,2.12,0,0,1-1-1.93l0-67.9A4.45,4.45,0,0,1,27,56.57l5.11-2.94a2.08,2.08,0,0,1,2.16-.1,2.11,2.11,0,0,1,1,1.93l0,67.9a4.46,4.46,0,0,1-2.08,3.6L28,129.9A2.4,2.4,0,0,1,26.78,130.25Z" transform="translate(-0.72 -0.71)"/><polygon class="cls-4" points="72.6 80.04 67.73 77.24 84.82 67.38 89.68 70.19 72.6 80.04"/><path class="cls-2" d="M70.62,77.94l2.69,1.55,14.92-8.6-2.69-1.55-14.92,8.6Zm2.69,3.9a1,1,0,0,1-.54-.15L67.9,78.88a1.08,1.08,0,0,1-.54-.94A1,1,0,0,1,67.9,77L85,67.14a1,1,0,0,1,1.08,0L91,70a1.11,1.11,0,0,1,.54.94,1.1,1.1,0,0,1-.54.94l-17.1,9.86A.94.94,0,0,1,73.31,81.84Z" transform="translate(-0.72 -0.71)"/><polygon class="cls-3" points="72.59 92.38 67.72 89.57 67.73 77.24 72.6 80.04 72.59 92.38"/><path class="cls-2" d="M69.53,89.65l2.69,1.55V81.38l-2.69-1.56v9.83Zm3.77,4.52a1,1,0,0,1-.54-.14l-4.87-2.81a1.09,1.09,0,0,1-.54-.94V77.94A1,1,0,0,1,67.9,77,1.11,1.11,0,0,1,69,77l4.86,2.81a1.08,1.08,0,0,1,.55.94V93.09a1.07,1.07,0,0,1-1.09,1.08Z" transform="translate(-0.72 -0.71)"/><polygon class="cls-4" points="49.12 68.65 44.26 65.84 61.35 55.98 66.21 58.79 49.12 68.65"/><path class="cls-2" d="M47.15,66.55l2.69,1.55,14.91-8.61-2.68-1.55L47.15,66.55Zm2.69,3.89a1,1,0,0,1-.54-.15l-4.87-2.8a1.09,1.09,0,0,1-.55-.94,1.1,1.1,0,0,1,.55-1l17.09-9.86a1.11,1.11,0,0,1,1.09,0l4.86,2.81a1.08,1.08,0,0,1,.54.94,1.09,1.09,0,0,1-.54.95L50.38,70.29A1.08,1.08,0,0,1,49.84,70.44Z" transform="translate(-0.72 -0.71)"/><polygon class="cls-3" points="49.11 80.99 44.25 78.18 44.26 65.84 49.12 68.65 49.11 80.99"/><path class="cls-2" d="M46.05,78.26l2.69,1.55V70l-2.69-1.55v9.83Zm3.78,4.52a1.14,1.14,0,0,1-.54-.14l-4.87-2.81a1.08,1.08,0,0,1-.54-.94V66.55a1.09,1.09,0,0,1,1.63-1l4.87,2.81a1.1,1.1,0,0,1,.55,1V81.69a1.08,1.08,0,0,1-1.09,1.09Z" transform="translate(-0.72 -0.71)"/><polygon class="cls-4" points="25.63 103.16 20.76 100.35 37.86 90.5 42.73 93.3 25.63 103.16"/><path class="cls-2" d="M23.66,101.06l2.69,1.56L41.27,94l-2.7-1.55-14.91,8.6Zm2.69,3.9a1.18,1.18,0,0,1-.55-.14L20.94,102a1.06,1.06,0,0,1-.54-.94,1.09,1.09,0,0,1,.54-.94L38,90.26a1.11,1.11,0,0,1,1.09,0L44,93.07a1.08,1.08,0,0,1,.55.94A1,1,0,0,1,44,95l-17.09,9.87A1.14,1.14,0,0,1,26.35,105Z" transform="translate(-0.72 -0.71)"/><polygon class="cls-3" points="25.63 115.51 20.76 112.69 20.76 100.35 25.63 103.16 25.63 115.51"/><path class="cls-2" d="M22.56,112.77l2.7,1.55V104.5l-2.69-1.56v9.83Zm3.79,4.54a1.19,1.19,0,0,1-.55-.15l-4.87-2.81a1.09,1.09,0,0,1-.54-.95V101.06a1.08,1.08,0,0,1,.54-.94,1.09,1.09,0,0,1,1.08,0l4.87,2.81a1.09,1.09,0,0,1,.55.94v12.34a1.12,1.12,0,0,1-.54,1A1.19,1.19,0,0,1,26.35,117.31Z" transform="translate(-0.72 -0.71)"/><polygon class="cls-4" points="25.63 103.16 42.73 93.3 42.72 105.64 25.63 115.51 25.63 103.16"/><path class="cls-2" d="M27.44,104.5v9.82l14.92-8.6V95.9l-14.92,8.6Zm-1.09,12.81a1.19,1.19,0,0,1-.55-.15,1.09,1.09,0,0,1-.54-1V103.87a1.1,1.1,0,0,1,.54-.94l17.1-9.86a1.11,1.11,0,0,1,1.09,0,1.09,1.09,0,0,1,.54.94v12.34a1.08,1.08,0,0,1-.55.94l-17.09,9.87A1.19,1.19,0,0,1,26.35,117.31Z" transform="translate(-0.72 -0.71)"/><polygon class="cls-4" points="49.12 68.65 66.21 58.79 66.21 71.12 49.11 80.99 49.12 68.65"/><path class="cls-2" d="M50.93,70v9.83l14.92-8.6V61.38L50.93,70Zm-1.1,12.8a1.14,1.14,0,0,1-.54-.14,1.1,1.1,0,0,1-.55-1V69.36a1.08,1.08,0,0,1,.55-1l17.09-9.86a1.14,1.14,0,0,1,1.09,0,1.09,1.09,0,0,1,.53.94V71.83a1,1,0,0,1-.54.94l-17.1,9.87A1.11,1.11,0,0,1,49.83,82.78Z" transform="translate(-0.72 -0.71)"/><polygon class="cls-4" points="72.6 80.04 89.68 70.19 89.68 82.52 72.59 92.38 72.6 80.04"/><path class="cls-2" d="M74.4,81.38V91.2l14.92-8.59V72.77L74.4,81.38ZM73.3,94.17a1,1,0,0,1-.54-.14,1.07,1.07,0,0,1-.54-.94V80.75a1.1,1.1,0,0,1,.55-1L89.86,70a1.09,1.09,0,0,1,1.63.94V83.23a1.08,1.08,0,0,1-.55.94L73.85,94A1.07,1.07,0,0,1,73.3,94.17Z" transform="translate(-0.72 -0.71)"/></g></g></svg>