<svg xmlns="http://www.w3.org/2000/svg" xmlns:xlink="http://www.w3.org/1999/xlink" viewBox="0 0 129.07 235.08"><defs><style>.cls-1{fill:none;}.cls-2{clip-path:url(#clip-path);}.cls-3{fill:#3aa1ff;}.cls-4{fill:#002760;}.cls-5{fill:#edf2f4;}.cls-6{opacity:0.13;}.cls-7{fill:#808184;}.cls-8{fill:#003d87;}</style><clipPath id="clip-path" transform="translate(-5.24 -1.69)"><path class="cls-1" d="M78.39,120.58l1.67.58a446.41,446.41,0,0,1,58.57,25V0H0V136.14s13.09,33.82,29.92,33S72.13,129,78.39,120.58Z"/></clipPath></defs><g id="Layer_2" data-name="Layer 2"><g id="Layer_1-2" data-name="Layer 1"><g class="cls-2"><path class="cls-3" d="M57.63,87c1.64.56,2.27,6.22-.1,10.17-1.85,3.09-5.62,5.25-6.93,4.24-1.51-1.16.3-6.53,2.38-9.92C53.55,90.59,56.07,86.49,57.63,87Z" transform="translate(-5.24 -1.69)"/><path class="cls-4" d="M50.34,101.79c-1.83-1.41.19-7.1,2.27-10.5,2.21-3.58,3.9-5.11,5.17-4.67h0a2.39,2.39,0,0,1,1.28,1.58,11.87,11.87,0,0,1-1.16,9.22c-1.36,2.27-3.88,4.27-5.85,4.64a3.19,3.19,0,0,1-.59.06A1.82,1.82,0,0,1,50.34,101.79Zm7.15-14.36c-.2-.07-1.37-.2-4.14,4.31-2.29,3.72-3.56,8.53-2.48,9.36a1.31,1.31,0,0,0,1,.12A9.46,9.46,0,0,0,57.16,97a11.09,11.09,0,0,0,1.09-8.49c-.21-.58-.48-1-.76-1.06Z" transform="translate(-5.24 -1.69)"/><path class="cls-5" d="M86.25,63.59a109.41,109.41,0,0,1,1.18,18.88A3.13,3.13,0,0,0,87.64,84a2.91,2.91,0,0,0,1.17,1.08A14.09,14.09,0,0,0,99.54,87a9.23,9.23,0,0,0,7.08-7.91c-1.52-5.13-4.07-12.28-6-20.51A120.14,120.14,0,0,1,86.25,63.59Z" transform="translate(-5.24 -1.69)"/><path class="cls-4" d="M88.59,85.47a3.38,3.38,0,0,1-1.34-1.26A3.73,3.73,0,0,1,87,82.46a109.59,109.59,0,0,0-1.16-18.81.43.43,0,0,1,.3-.48,119.32,119.32,0,0,0,14.28-5,.44.44,0,0,1,.6.29c1.39,5.82,3.1,11.19,4.47,15.5.57,1.8,1.11,3.49,1.56,5a.42.42,0,0,1,0,.16,9.66,9.66,0,0,1-7.4,8.29,12.63,12.63,0,0,1-3.14.4A15.43,15.43,0,0,1,88.59,85.47Zm16.07-11.25c-1.34-4.21-3-9.41-4.37-15.07a121.49,121.49,0,0,1-13.56,4.74,110.13,110.13,0,0,1,1.13,18.59A2.94,2.94,0,0,0,88,83.82a2.51,2.51,0,0,0,1,.91,13.63,13.63,0,0,0,10.39,1.83c3.1-.82,6.38-3.44,6.76-7.45C105.75,77.63,105.22,76,104.66,74.22Z" transform="translate(-5.24 -1.69)"/><path class="cls-5" d="M84.7,31c-.27,5.95-8.2,8.83-8.58,10.34-.55,2.15,2.53,3.91,2.45,5-.18,2.64-2,8.67-.65,13.39.65,2.33,3.58,2.82,5.4,3.38,13.37,4.12,24.46-8.57,24.9-14.48,3.28,3,6.67-.75,6.8-2.64.19-2.55-1.88-8.11-7.4-3.91-3.24-11,.61-11.37,0-17-1.72-2.46-9.13-3.72-11.63-5.39-.44-.3-1.85-3.8-2.37-3.89-.85-.14-6.9,3.3-7.53,3.9S85.21,19.91,84.7,31Z" transform="translate(-5.24 -1.69)"/><path class="cls-4" d="M83.19,63.54l-.78-.23c-1.8-.5-4.28-1.19-4.9-3.44-1-3.58-.28-7.81.25-10.89.18-1.06.33-2,.38-2.65,0-.26-.45-.81-.87-1.29-.87-1-2-2.28-1.57-3.8.16-.63,1-1.23,2.32-2.14,2.42-1.7,6.07-4.26,6.25-8.11.49-10.69.75-10.92,1.44-11.55l.09-.08c.46-.45,6.71-4.22,7.89-4,.46.08.84.73,1.7,2.43a13.06,13.06,0,0,0,.84,1.52,23.27,23.27,0,0,0,4.56,1.85c3,1,6.07,2.06,7.19,3.65a.48.48,0,0,1,.07.2,11.84,11.84,0,0,1-.59,5.1c-.68,2.41-1.39,4.91.41,11.3,2.38-1.63,4-1.37,5-.84,2,1.06,2.68,3.84,2.56,5.48a5.23,5.23,0,0,1-3.16,3.85,3.9,3.9,0,0,1-3.75-.44c-.63,3.14-3.68,7.86-8.61,11.23a20.14,20.14,0,0,1-11.36,3.67A18.42,18.42,0,0,1,83.19,63.54Zm25.32-15.21a3.16,3.16,0,0,0,3.46.76A4.42,4.42,0,0,0,114.59,46c.11-1.42-.57-3.83-2.11-4.66-1.21-.66-2.75-.28-4.59,1.13a.44.44,0,0,1-.4.06.41.41,0,0,1-.28-.28c-2.08-7.07-1.28-9.88-.58-12.37a11.19,11.19,0,0,0,.58-4.65c-1-1.32-4-2.34-6.7-3.24A24.05,24.05,0,0,1,95.75,20a6,6,0,0,1-1.12-1.85,14.61,14.61,0,0,0-1.13-2c-1,.11-6.54,3.24-7.11,3.78l-.1.1c-.45.41-.7,1.08-1.16,11-.19,4.28-4.06,7-6.61,8.77-.89.63-1.9,1.33-2,1.66-.28,1.08.61,2.11,1.39,3,.59.69,1.11,1.3,1.07,1.91s-.21,1.65-.39,2.73c-.52,3-1.22,7.12-.27,10.52.49,1.78,2.61,2.37,4.3,2.84l.81.24a18.33,18.33,0,0,0,16-2.75c5.13-3.5,8.14-8.46,8.35-11.35a.44.44,0,0,1,.27-.37.45.45,0,0,1,.16,0A.44.44,0,0,1,108.51,48.33Z" transform="translate(-5.24 -1.69)"/><path class="cls-3" d="M26.66,84.33C26,83,24.29,82.7,22.83,82.69A29,29,0,0,0,8.27,86.57c-.55.32-1.15.74-1.24,1.38a1.87,1.87,0,0,0,.24,1c1,2.06,3.34,2.52,5.6,2.63a13.84,13.84,0,0,0,6.51-.92C22.27,89.38,25.12,87.57,26.66,84.33Z" transform="translate(-5.24 -1.69)"/><path class="cls-4" d="M12.84,92.06c-2.16-.11-4.79-.53-5.95-2.87a2.24,2.24,0,0,1-.28-1.3,2.54,2.54,0,0,1,1.44-1.7,29.54,29.54,0,0,1,14.78-3.93c2.2,0,3.62.65,4.22,1.89a.44.44,0,0,1,0,.37c-1.69,3.56-4.89,5.38-7.49,6.58a12.48,12.48,0,0,1-5.27,1C13.8,92.09,13.32,92.08,12.84,92.06Zm10-8.93H22.7A28.51,28.51,0,0,0,8.48,86.94c-.47.27-1,.61-1,1.07a1.39,1.39,0,0,0,.2.8c1,1.93,3.18,2.29,5.23,2.39a13.32,13.32,0,0,0,6.31-.89c2.42-1.11,5.38-2.78,7-6C25.67,83.54,24.55,83.13,22.83,83.13Z" transform="translate(-5.24 -1.69)"/><path class="cls-4" d="M89.53,36.41a1.23,1.23,0,1,1,.81,1.48A1.19,1.19,0,0,1,89.53,36.41Z" transform="translate(-5.24 -1.69)"/><path class="cls-5" d="M58.06,107.38c-1.81-4.68-3.92-9.72-8.42-12.27a22.33,22.33,0,0,1-3-1.75A10.69,10.69,0,0,1,44,89.61C42.16,86.1,38.3,79.49,36.52,76a2.42,2.42,0,0,1,.79-3c.78-.52,3.18,3,3.94,3.5,2.58,1.89,4.32,4.94,7.4,5.92l-.09-16.9c2,.85,2.61,3.27,3,5.35a56.67,56.67,0,0,0,4.19,14.66,29.65,29.65,0,0,0,10,11.86,15.49,15.49,0,0,1-1.9,7.84C62.46,107.36,60.05,108.65,58.06,107.38Z" transform="translate(-5.24 -1.69)"/><path class="cls-4" d="M57.83,107.75a.52.52,0,0,1-.18-.21c-1.92-5-4-9.66-8.22-12.06-.33-.19-.68-.36-1-.53a11.52,11.52,0,0,1-2.1-1.25,11.15,11.15,0,0,1-2.76-3.9c-.89-1.74-2.32-4.31-3.7-6.8S37,77.94,36.14,76.17a2.85,2.85,0,0,1,.93-3.57c.79-.53,1.85.59,3.37,2.36a11.45,11.45,0,0,0,1.06,1.15,20.14,20.14,0,0,1,2.68,2.45,13.22,13.22,0,0,0,4,3.19l-.09-16.28a.44.44,0,0,1,.19-.36.43.43,0,0,1,.41,0c2.12.9,2.8,3.26,3.23,5.67a56.24,56.24,0,0,0,4.15,14.55A29.07,29.07,0,0,0,66,97a.45.45,0,0,1,.19.37,15.54,15.54,0,0,1-2,8.06,6,6,0,0,1-3.61,2.81,4,4,0,0,1-.83.09A3.58,3.58,0,0,1,57.83,107.75Zm-2.5-22.09a57.22,57.22,0,0,1-4.22-14.77c-.32-1.78-.77-3.72-2.11-4.69l.08,16.17a.43.43,0,0,1-.17.35.44.44,0,0,1-.39.06,12.55,12.55,0,0,1-5-3.62A22,22,0,0,0,41,76.8a9.27,9.27,0,0,1-1.21-1.28c-.6-.7-1.84-2.13-2.27-2.19a2,2,0,0,0-.62,2.45c.89,1.75,2.32,4.32,3.71,6.8s2.82,5.07,3.72,6.83A10.64,10.64,0,0,0,46.86,93a10.89,10.89,0,0,0,2,1.15c.34.17.7.35,1,.55,4.43,2.52,6.59,7.28,8.56,12.36a2.67,2.67,0,0,0,2,.29A5.26,5.26,0,0,0,63.46,105a14.43,14.43,0,0,0,1.83-7.38A30,30,0,0,1,55.33,85.66Zm2.72,21.72h0Z" transform="translate(-5.24 -1.69)"/><path class="cls-4" d="M127.89,176.88c.13,14.15-1,28.28-2.22,42.38a143.81,143.81,0,0,1-2.15,17.2s-60.38.69-59.87,0c4.56-17.43,8.58-37,11.5-54.79a2.5,2.5,0,0,1,.53-1.39,2.54,2.54,0,0,1,1.19-.57l5.39-1.49a74.22,74.22,0,0,1,7.46-1.79,74.34,74.34,0,0,1,11.65-.73l10.06-.07C117.49,175.6,123.56,175.6,127.89,176.88Z" transform="translate(-5.24 -1.69)"/><path class="cls-5" d="M25.74,87.45Q22.19,65.82,17.92,44.3a12.5,12.5,0,0,0-1.26-3.86,1.22,1.22,0,0,0-2.24.35c-1,6.12-.42,12.1,0,18.45A3,3,0,0,0,10.6,59a2.63,2.63,0,0,0-.34,3.64,2.71,2.71,0,0,0-3,1,2.43,2.43,0,0,0,.39,3c-1-.55-1.91.86-2,2C5.25,76,12.6,80.92,13.6,88.24c.12,1,.35,2.86,1,3.61A3.77,3.77,0,0,0,17.06,93C21.18,93.54,26.26,90.61,25.74,87.45Z" transform="translate(-5.24 -1.69)"/><path class="cls-4" d="M17,93.44a4.11,4.11,0,0,1-2.77-1.31,8.59,8.59,0,0,1-1-3.67l0-.16C12.73,85,11,82.21,9.23,79.48c-2.07-3.3-4.21-6.71-4-10.85a3,3,0,0,1,1.3-2.3l.23-.1a2.84,2.84,0,0,1,.13-2.75,3.1,3.1,0,0,1,2.53-1.36,3.1,3.1,0,0,1-.19-1.36,3,3,0,0,1,1.07-2.06,3.42,3.42,0,0,1,3.61-.34l0-.63c-.4-5.82-.79-11.33.1-17a1.56,1.56,0,0,1,1.28-1.27,1.66,1.66,0,0,1,1.76.77,12.91,12.91,0,0,1,1.31,4C21.17,58.5,23.8,73,26.17,87.38a3.92,3.92,0,0,1-1.28,3.39A10,10,0,0,1,18,93.5,8.94,8.94,0,0,1,17,93.44ZM15.43,40.3a.7.7,0,0,0-.59.56c-.87,5.58-.49,11-.09,16.81l.11,1.54a.43.43,0,0,1-.74.33,2.53,2.53,0,0,0-3.24-.18,2.18,2.18,0,0,0-.76,1.47,2.13,2.13,0,0,0,.47,1.56.44.44,0,0,1,0,.51.45.45,0,0,1-.49.18,2.27,2.27,0,0,0-2.48.86A2,2,0,0,0,8,66.4.42.42,0,0,1,8,67a.44.44,0,0,1-.56.13.44.44,0,0,0-.49,0,2.16,2.16,0,0,0-.85,1.59C5.89,72.54,7.87,75.69,10,79c1.77,2.81,3.6,5.72,4.06,9.16l0,.16a8.86,8.86,0,0,0,.86,3.24,3.28,3.28,0,0,0,2.21,1,9.07,9.07,0,0,0,7.16-2.41,3.18,3.18,0,0,0,1.05-2.65h0c-2.37-14.35-5-28.86-7.83-43.14a12.55,12.55,0,0,0-1.2-3.73.78.78,0,0,0-.69-.37ZM25.74,87.45Z" transform="translate(-5.24 -1.69)"/><path class="cls-3" d="M63.79,92.83l-5.91-5.49a17,17,0,0,1-7.63,13.71c1.4,2.09,1.85,5,4,6.26s4.92.21,6.74-1.44C64.69,102.51,66.87,95.68,63.79,92.83Z" transform="translate(-5.24 -1.69)"/><path class="cls-4" d="M54.05,107.68c-1.53-.9-2.26-2.51-3-4.08a15.25,15.25,0,0,0-1.19-2.31.41.41,0,0,1-.07-.32.43.43,0,0,1,.19-.28,16.57,16.57,0,0,0,7.44-13.37.46.46,0,0,1,.26-.38.43.43,0,0,1,.46.08l5.92,5.49h0a5.61,5.61,0,0,1,1.6,4.24,14,14,0,0,1-4.39,9.44,7.72,7.72,0,0,1-4.92,2.1A4.56,4.56,0,0,1,54.05,107.68Zm4.21-19.4a17.47,17.47,0,0,1-7.43,12.89,18.34,18.34,0,0,1,1,2.08c.68,1.51,1.32,2.93,2.62,3.68,2,1.15,4.61.09,6.23-1.38a13.23,13.23,0,0,0,4.1-8.8,4.74,4.74,0,0,0-1.32-3.61Z" transform="translate(-5.24 -1.69)"/><path class="cls-3" d="M72.14,128.54C61.7,143.28,59,145.83,45.21,157.5c-4.62,3.9-6.85,3.69-12.88,4.07-3.8,0-5.14-2.5-8.55-4.75C13.29,149.88,7.62,108.54,7,88c1.54,4.13,5.05,3.55,10.13,3,4.07-.46,7.15-3.2,9.53-6.54,2.28,17.31,8.83,30,12.61,44.89C48,115.58,63.3,93.15,71.15,86s21.27-9.86,32.24-10.48c7.83-.44,13.2,9.5,17.43,17.59,9.2,17.57,10.76,49.05,13.06,78-2.44,10.33-16.25,14.16-24.11,15.49-17.69,3-31.53,1.48-38-9,.56-16.11.42-26.2.42-48.66Z" transform="translate(-5.24 -1.69)"/><path class="cls-4" d="M98.56,188a64.41,64.41,0,0,0,19.18-2.89l0,0c1.32-.56,2.56-1,3.76-1.5s2.46-1,3.79-1.52c5.81-2.9,9.32-8.55,9-14.39-3.49-55.86-8-64.74-13.17-75L120.28,91a40.84,40.84,0,0,0-12.44-15.26.43.43,0,0,0-.5.7,40,40,0,0,1,12.17,15l.83,1.65c5.15,10.2,9.6,19,13.08,74.68.34,5.5-3,10.82-8.45,13.56-1.29.55-2.53,1-3.74,1.5s-2.45.94-3.77,1.5a66,66,0,0,1-37.12.37c-4.74-1.58-8-5.43-8.37-9.81-.21-8.44,0-16.94.28-25.15.2-6.82.41-13.87.36-20.88a.43.43,0,0,0-.43-.43h0a.43.43,0,0,0-.42.44c0,7-.16,14-.36,20.84-.24,8.23-.49,16.74-.28,25.22.36,4.75,3.89,8.9,9,10.59A70,70,0,0,0,98.56,188Z" transform="translate(-5.24 -1.69)"/><path class="cls-4" d="M33.69,162.07c13.93,0,30.77-21.4,47-44.72a.44.44,0,0,0-.11-.6.43.43,0,0,0-.6.1C63.19,141,45.78,163.05,32,161.09c-7-1-12.56-7.94-17-21.26-2.47-7.32-6.85-37.42-7.42-50.55a7.23,7.23,0,0,0,3.68,1.89A16.5,16.5,0,0,0,22.9,88.82a16.76,16.76,0,0,0,3.51-3.35c1.63,9.7,7.41,27.94,11.27,40.16.42,1.34.83,2.61,1.19,3.78a.43.43,0,0,0,.36.3.42.42,0,0,0,.42-.2c1-1.64,2.42-3.86,3.89-6.21,3.6-5.8,8.09-13,9.84-15.37l2.48-3.39C61.38,97,66.6,89.78,74.43,84.23c7.5-5.31,18-8,31.18-8a.44.44,0,0,0,0-.87c-13.37,0-24,2.75-31.68,8.17C66,89.16,60.73,96.38,55.16,104l-2.47,3.38c-1.77,2.39-6.08,9.31-9.88,15.42l-3.39,5.43-.92-2.9c-4-12.63-10-31.71-11.39-41a.44.44,0,0,0-.33-.35.41.41,0,0,0-.45.16,16.35,16.35,0,0,1-3.93,4,15.82,15.82,0,0,1-11,2.21,5.78,5.78,0,0,1-4-2.58.44.44,0,0,0-.49-.2.43.43,0,0,0-.31.43c.31,12.34,4.94,44.5,7.51,52.12,4.6,13.66,10.41,20.8,17.75,21.85A14,14,0,0,0,33.69,162.07Z" transform="translate(-5.24 -1.69)"/><path class="cls-4" d="M81.54,52.39a8.18,8.18,0,0,0,2.12-.28.42.42,0,0,0,.3-.53.41.41,0,0,0-.52-.3,7.11,7.11,0,0,1-5.29-.62.43.43,0,0,0-.41.76A8,8,0,0,0,81.54,52.39Z" transform="translate(-5.24 -1.69)"/><path class="cls-4" d="M123.87,235.9a.42.42,0,0,0,.42-.37c1.22-8.55,5.08-47,4.08-55.31a.43.43,0,0,0-.85.1c1,8.21-2.87,46.56-4.08,55.09a.43.43,0,0,0,.37.49Z" transform="translate(-5.24 -1.69)"/><path class="cls-4" d="M63.65,235.48a.44.44,0,0,0,.4-.26c1.76-4.18,4.54-18.85,7-31.79,1.71-9,3.32-17.49,4.24-20.52a.43.43,0,1,0-.83-.25c-.93,3.08-2.47,11.2-4.25,20.61-2.45,12.9-5.22,27.52-7,31.62a.43.43,0,0,0,.23.56Z" transform="translate(-5.24 -1.69)"/><path class="cls-4" d="M97.55,235.22a.44.44,0,0,0,.42-.32c1.06-3.93,2-7.35,3-10.67s1.91-6.74,3-10.67c.78-2.91,1.59-5.91,3.17-8.3,1.68-2.55,4-4.11,6.47-5.75,1-.64,2-1.3,2.89-2a15,15,0,0,0,3.38-3.45.43.43,0,1,0-.72-.48,13.8,13.8,0,0,1-3.18,3.24c-.92.71-1.9,1.36-2.84,2-2.43,1.62-5,3.3-6.72,6-1.66,2.51-2.52,5.71-3.28,8.54-1.06,3.93-2,7.36-3,10.67s-1.91,6.74-3,10.68a.42.42,0,0,0,.3.52Z" transform="translate(-5.24 -1.69)"/><path class="cls-4" d="M40.3,133.51h.11a.44.44,0,0,0,.31-.53l-1.32-5.06a.43.43,0,0,0-.52-.31.43.43,0,0,0-.31.52l1.31,5.07A.44.44,0,0,0,40.3,133.51Z" transform="translate(-5.24 -1.69)"/><path class="cls-4" d="M14.21,96.17a11.65,11.65,0,0,0,6.3-1.83.44.44,0,0,0,.13-.6.42.42,0,0,0-.59-.12,10.88,10.88,0,0,1-9.76.95.43.43,0,1,0-.32.8A11.61,11.61,0,0,0,14.21,96.17Z" transform="translate(-5.24 -1.69)"/><g class="cls-6"><path class="cls-7" d="M87.47,63.76c1.28.38,4.06,0,5.46-.14a.84.84,0,0,1,.64.36l.11,0a7.32,7.32,0,0,0,.69-.33,14.68,14.68,0,0,0,1.38-.67A14.47,14.47,0,0,0,98.47,61c.54-.42,1.07-.87,1.57-1.34a1.16,1.16,0,0,1,.77.59,1.12,1.12,0,0,1,0,1.59c-1.2,1.32-2.64,2.4-3.92,3.63-1.48,1.36-2.9,2.77-4.45,4-1.72,1.47-3.06,2.84-3.66,3l-.13,0h0l-.16,0A1.32,1.32,0,0,1,87,71.25a1.37,1.37,0,0,1,.55-1.07l0-.05a1.64,1.64,0,0,1-.82-1.39,2,2,0,0,1,.09-.48v-.05A12.84,12.84,0,0,1,87,66.7h0c0,.15,0,.31,0,.11v-.16a3.5,3.5,0,0,1-.07-.45,1.4,1.4,0,0,1-.24-.43.76.76,0,0,1-.16-.11A1.09,1.09,0,0,1,87.47,63.76Z" transform="translate(-5.24 -1.69)"/></g><g class="cls-6"><path class="cls-7" d="M8.38,87.54c.3-.08,1.67.23.88.12a19.27,19.27,0,0,0,3.72.42,18.4,18.4,0,0,0,3-.32,20.12,20.12,0,0,0,3.79-.9c2.62-.78,2.73-.8,4.16-1.81a1.73,1.73,0,0,1,1.74-.46.93.93,0,0,1,.41,1.65l-.26.21c0,.51-.53.79-1,1.08A12.44,12.44,0,0,1,22.14,89a17.58,17.58,0,0,1-7.57,1.29A12.68,12.68,0,0,1,9,89.74a3.21,3.21,0,0,1-1.4-.49C6.9,88.7,7.36,87.59,8.38,87.54Z" transform="translate(-5.24 -1.69)"/></g><g class="cls-6"><path class="cls-7" d="M49.72,98.76c.08-.21,1-.76.51-.4a10.61,10.61,0,0,0,2.15-1.77,10,10,0,0,0,1.27-1.84,12.12,12.12,0,0,0,1.27-2.64c.76-1.94.8-2,.8-3.43,0-.48,0-1.07.55-1.25a1,1,0,0,1,1.36.83c0,.09,0,.19,0,.28.36.32.29.79.27,1.22a8.62,8.62,0,0,1-.31,2.43,10.45,10.45,0,0,1-2.87,5,7.45,7.45,0,0,1-3.15,2.66,2.19,2.19,0,0,1-1.05.45A1,1,0,0,1,49.72,98.76Z" transform="translate(-5.24 -1.69)"/></g><g class="cls-6"><path class="cls-4" d="M77.18,183.72c.19.14.47.36.62.49a7.53,7.53,0,0,0,3,1.33,61.42,61.42,0,0,0,13.8,2.08c2.11.08,4.2-.18,6.31-.26,3.19-.15,6.39-.27,9.57-.66s10-2,13.48-4.35c.36-.24.72-.47,1.07-.73s.65-.56,1.08-.56a1.45,1.45,0,0,1,.93,2.68,27.21,27.21,0,0,1-9.76,4.71c-4.68,1.54-9.61,1.85-14.49,2.19-2.69.14-5.38.41-8.08.29A61.43,61.43,0,0,1,84,189.4c-3-.59-7.11-2-8-2.93-.57-.45-.19-.11-1-.78a1.45,1.45,0,0,1-.42-1A1.46,1.46,0,0,1,77.18,183.72Z" transform="translate(-5.24 -1.69)"/></g><g class="cls-6"><path class="cls-7" d="M20.63,152c.68-.39,1.29,0,1.69.61a13.25,13.25,0,0,0,1.06,1.06,18.33,18.33,0,0,0,3.91,2.63,11.45,11.45,0,0,0,4.39,1.29l-.23,0a21.71,21.71,0,0,0,2.42,0c.15,0,.4,0,.58,0s.42-.06.63-.11a24.19,24.19,0,0,0,8.08-3.15,35,35,0,0,0,5-3.46A60.69,60.69,0,0,0,53.4,146c.5-.43.81-1.1,1.41-1.39a1.14,1.14,0,0,1,1.25,1.85,55.29,55.29,0,0,1-11.6,10.21,26.71,26.71,0,0,1-8.69,4,9.21,9.21,0,0,1-3.14.16h0l-.26,0-.18,0a14.35,14.35,0,0,1-4.27-1.13,27.49,27.49,0,0,1-5.31-3.72,14.52,14.52,0,0,1-2-1.88C20.28,153.62,19.6,152.76,20.63,152Z" transform="translate(-5.24 -1.69)"/></g><g class="cls-6"><path class="cls-4" d="M32.59,160.76l-.26,0,.26,0Z" transform="translate(-5.24 -1.69)"/></g><g class="cls-6"><path class="cls-4" d="M99.38,232.35l0-.1a.75.75,0,0,1,0-.16.29.29,0,0,1,0-.09.75.75,0,0,1,0-.11,13.83,13.83,0,0,1,.68-3.11c.71-3.08,1.64-6.09,2.43-9.15a74.17,74.17,0,0,1,3.32-10.38c1-2.47,1.25-3.52,3-5.86a35.92,35.92,0,0,1,6-6,29.44,29.44,0,0,0,4.93-4.53l0,0c.23-.32.44-.68.85-.78a1.09,1.09,0,0,1,1.22,1.59c-2.48,3.73-6.35,6.17-9.3,9.47-.62.74-1.22,1.5-1.83,2.24a5.37,5.37,0,0,0-.76,1.23l-.05.14c-.39,1-1.9,4.68-2.61,6.9-1.5,4.52-2.37,9.22-3.65,13.81-.24,1.26-.59,2.5-.92,3.74a6.4,6.4,0,0,1-.61,1.7,2.72,2.72,0,0,1-.33.57,1.19,1.19,0,0,1-.19.2l-.07.06,0,0a1.43,1.43,0,0,1-2.26-.75A1.67,1.67,0,0,1,99.38,232.35Z" transform="translate(-5.24 -1.69)"/></g><polygon class="cls-3" points="100.28 67.78 81.74 73.79 81.19 77.6 102.38 74.23 100.28 67.78"/><path class="cls-4" d="M86.13,79.6a.43.43,0,0,1-.13-.37l.55-3.81a.45.45,0,0,1,.3-.35l18.54-6a.44.44,0,0,1,.55.27L108,75.79a.42.42,0,0,1,0,.36.4.4,0,0,1-.3.2L86.5,79.72h-.07A.42.42,0,0,1,86.13,79.6ZM105.25,70l-17.88,5.8-.43,3,20.12-3.19Z" transform="translate(-5.24 -1.69)"/><path class="cls-8" d="M81.25,22.47A9,9,0,0,0,86.09,26,7.66,7.66,0,0,0,92,25a9.32,9.32,0,0,0,7.24,2.74,13.08,13.08,0,0,0,5.5-1.66c.61.29,1.79,3.67,2.28,4.94,0,.1-1.88,2.74.58,11.11,5.52-4.2,7.59,1.36,7.4,3.91-.13,1.89-3.52,5.6-6.8,2.64-.22,3-3.15,7.68-7.72,11.09A29.64,29.64,0,0,0,121.88,47c.66-1,10.53-13.06,5.81-16.49A7,7,0,0,0,129.62,25a10.78,10.78,0,0,0-2-5.23,10.15,10.15,0,0,0-3.09-3,6.1,6.1,0,0,0-4.18-.84,9.63,9.63,0,0,0-3.72-8.5,9.66,9.66,0,0,0-9.23-1.22,3.76,3.76,0,0,0-1.27-2.77,5.34,5.34,0,0,0-2.66-1.16,8.14,8.14,0,0,0-2.87,0,5.71,5.71,0,0,0-3.57,2,3.79,3.79,0,0,0-1.06,2.57c-2.12-4.42-9.11-4.28-12.62-1A13.12,13.12,0,0,0,81.25,22.47Z" transform="translate(-5.24 -1.69)"/><path class="cls-4" d="M100.1,59.89a.44.44,0,0,1,.14-.5c4.69-3.49,7.35-8.06,7.55-10.77a.43.43,0,0,1,.72-.29,3.16,3.16,0,0,0,3.46.76A4.42,4.42,0,0,0,114.59,46c.11-1.42-.57-3.83-2.11-4.66-1.21-.66-2.75-.28-4.59,1.13a.44.44,0,0,1-.4.06.41.41,0,0,1-.28-.28c-1.44-4.9-1.67-8.89-.64-11.25,0-.14-.12-.31-.18-.49a27.14,27.14,0,0,0-1.69-3.92,13.14,13.14,0,0,1-5.41,1.57A9.85,9.85,0,0,1,92,25.52a8.13,8.13,0,0,1-6,.94,9.49,9.49,0,0,1-5.12-3.76C76.16,15.16,80.22,8.16,83,5.51a10.13,10.13,0,0,1,8.45-2.39,6.74,6.74,0,0,1,4.24,2.47,4.44,4.44,0,0,1,1-1.64,6.14,6.14,0,0,1,3.83-2.13,9.06,9.06,0,0,1,3,0,5.84,5.84,0,0,1,2.87,1.27,4.07,4.07,0,0,1,1.36,2.5,10.09,10.09,0,0,1,9.11,1.47,10,10,0,0,1,3.93,8.34,6.69,6.69,0,0,1,3.93,1,10.77,10.77,0,0,1,3.22,3.15A11.26,11.26,0,0,1,130.05,25a7.43,7.43,0,0,1-1.74,5.46,3.45,3.45,0,0,1,1,2.07c.66,4.39-4.88,11.73-6.69,14.14-.2.27-.36.47-.41.56a30.15,30.15,0,0,1-21.7,13h0A.42.42,0,0,1,100.1,59.89Zm20.3-43.57a.43.43,0,0,1-.37-.11.43.43,0,0,1-.14-.36,9.12,9.12,0,0,0-3.55-8.1,9.21,9.21,0,0,0-8.81-1.17.41.41,0,0,1-.4,0,.39.39,0,0,1-.19-.35,3.29,3.29,0,0,0-1.12-2.45,5,5,0,0,0-2.45-1.07,7.82,7.82,0,0,0-2.73,0,5.29,5.29,0,0,0-3.3,1.81,3.43,3.43,0,0,0-1,2.36.42.42,0,0,1-.36.37A.43.43,0,0,1,95.55,7a5.65,5.65,0,0,0-4.24-3,9.24,9.24,0,0,0-7.7,2.17c-2.62,2.48-6.42,9-2,16.1a8.7,8.7,0,0,0,4.58,3.39,7.34,7.34,0,0,0,5.59-1,.43.43,0,0,1,.55.06,8.93,8.93,0,0,0,6.91,2.6,12.55,12.55,0,0,0,5.31-1.61.45.45,0,0,1,.39,0c.58.27,1.21,1.74,2.25,4.52.1.25.18.47.25.65a.53.53,0,0,1-.06.45c-.93,2.07-.75,5.65.49,10.12,2.38-1.63,4-1.37,5-.84,2,1.06,2.68,3.84,2.56,5.48a5.23,5.23,0,0,1-3.16,3.85,3.9,3.9,0,0,1-3.75-.44c-.53,2.67-2.81,6.5-6.58,9.68a29.39,29.39,0,0,0,19.56-12.41c.07-.11.22-.3.44-.59,4.73-6.28,6.93-10.82,6.53-13.5a2.59,2.59,0,0,0-1.05-1.81.44.44,0,0,1-.18-.31.47.47,0,0,1,.12-.34A6.54,6.54,0,0,0,129.19,25a10.25,10.25,0,0,0-2-5,9.86,9.86,0,0,0-3-2.9,6,6,0,0,0-3-.87A5.14,5.14,0,0,0,120.4,16.32Z" transform="translate(-5.24 -1.69)"/><g class="cls-6"><path class="cls-7" d="M86.28,25.92a7.41,7.41,0,0,0,2.26,0,5.89,5.89,0,0,0,2.27-.25c.81-.7,2.32-.19,2.22.94,1.58,1.27,3.42,1.33,5.48,1.26a11.74,11.74,0,0,0,4.16-.49,1.38,1.38,0,0,1,.55-.66,1.19,1.19,0,0,1,.62-.17c1.08-1.25,2.85.48,2,1.75.31.47.62.95.92,1.43.89,1.45-1.39,2.78-2.28,1.34-.26-.42-.52-.82-.79-1.23a15.58,15.58,0,0,1-5.13.68c-2.84.09-5.4-.23-7.51-2.17a11.85,11.85,0,0,1-1.28.17c-.69.07-1.37,0-2.07,0a4.87,4.87,0,0,1-2.08-.12C84,27.87,84.69,25.31,86.28,25.92Z" transform="translate(-5.24 -1.69)"/></g><path class="cls-4" d="M87.86,21.86a5.77,5.77,0,0,0,2.33-.49.43.43,0,1,0-.35-.78,4.93,4.93,0,0,1-5.12-.72,4.87,4.87,0,0,1-1.5-5.12.43.43,0,0,0-.29-.54.45.45,0,0,0-.54.29,5.7,5.7,0,0,0,5.47,7.36Z" transform="translate(-5.24 -1.69)"/></g></g></g></svg>