<svg xmlns="http://www.w3.org/2000/svg" viewBox="0 0 353.84 169.3"><defs><style>.cls-1{fill:#003d87;}.cls-2{fill:#002760;}.cls-3{fill:#edebfc;}.cls-4{fill:#fff;}.cls-5{fill:#3aa1ff;}</style></defs><g id="Layer_2" data-name="Layer 2"><g id="Layer_1-2" data-name="Layer 1"><rect class="cls-1" x="0.43" y="8.49" width="352.98" height="160.38"/><path class="cls-2" d="M0,168.87V8.49a.43.43,0,0,1,.43-.43h353a.43.43,0,0,1,.43.43V168.87a.43.43,0,0,1-.43.43H.43A.43.43,0,0,1,0,168.87Zm353-160H.86V168.44H353Z"/><rect class="cls-3" x="0.43" y="0.43" width="352.98" height="13.87"/><path class="cls-2" d="M0,14.31V.43A.43.43,0,0,1,.43,0h353a.43.43,0,0,1,.43.43V14.31a.44.44,0,0,1-.43.43H.43A.43.43,0,0,1,0,14.31ZM353,.86H.86v13H353Z"/><path class="cls-4" d="M198.7,133.28a.44.44,0,0,0,.27-.09.43.43,0,0,0,.08-.6L179,106.38a.4.4,0,0,0-.29-.17.47.47,0,0,0-.33.09l-13.05,10.56-28.7-50.74a.42.42,0,0,0-.29-.21A.45.45,0,0,0,136,66L121.34,77.54,105.4,47.34a.44.44,0,0,0-.34-.23.43.43,0,0,0-.37.15L83.77,71.9l-6.19-5.39a.44.44,0,0,0-.35-.1.46.46,0,0,0-.3.19l-21.53,33L24.79,62.66a.42.42,0,0,0-.6-.06.43.43,0,0,0-.06.61l31,37.37a.44.44,0,0,0,.69,0L77.38,67.49l6.15,5.35a.46.46,0,0,0,.32.11.47.47,0,0,0,.3-.16l20.78-24.48L120.82,78.4a.4.4,0,0,0,.29.22.42.42,0,0,0,.36-.08L136.12,67l28.7,50.75a.42.42,0,0,0,.29.21.42.42,0,0,0,.36-.09l13.1-10.6,19.79,25.86A.44.44,0,0,0,198.7,133.28Z"/><path class="cls-4" d="M178.48,147a.43.43,0,0,1-.43-.43v-3.45a.43.43,0,0,1,.43-.43h0a.43.43,0,0,1,.43.43v3.45a.43.43,0,0,1-.43.43Zm0-6.9a.43.43,0,0,1-.43-.43v-3.45a.44.44,0,0,1,.43-.43h0a.45.45,0,0,1,.43.44l0,3.45a.42.42,0,0,1-.43.42Zm0-6.89a.42.42,0,0,1-.42-.43v-3.45a.43.43,0,0,1,.43-.43h0a.43.43,0,0,1,.43.43v3.45a.43.43,0,0,1-.43.43Zm0-6.9a.43.43,0,0,1-.43-.43v-3.45a.43.43,0,0,1,.43-.43h0a.43.43,0,0,1,.43.43v3.45a.43.43,0,0,1-.43.43Zm0-6.9a.43.43,0,0,1-.43-.43v-3.45a.44.44,0,0,1,.43-.43h0a.45.45,0,0,1,.43.44l0,3.45a.42.42,0,0,1-.43.42Zm0-6.89a.43.43,0,0,1-.43-.43v-3.45a.43.43,0,0,1,.43-.43h0a.43.43,0,0,1,.43.43V112a.43.43,0,0,1-.43.43Z"/><path class="cls-4" d="M136.18,146.11a.43.43,0,0,1-.43-.43v-3.45a.43.43,0,0,1,.43-.43h0a.42.42,0,0,1,.43.43v3.45a.43.43,0,0,1-.43.43Zm0-6.9a.43.43,0,0,1-.43-.43v-3.45a.44.44,0,0,1,.44-.43h0a.44.44,0,0,1,.43.43v3.45a.43.43,0,0,1-.43.43Zm0-6.89a.44.44,0,0,1-.43-.44v-3.45a.43.43,0,0,1,.43-.43h0a.44.44,0,0,1,.43.44v3.44a.44.44,0,0,1-.43.44Zm0-6.9a.43.43,0,0,1-.43-.43v-3.45a.43.43,0,0,1,.43-.43h0a.43.43,0,0,1,.43.43V125a.43.43,0,0,1-.43.43Zm0-6.9a.43.43,0,0,1-.43-.43v-3.45a.43.43,0,0,1,.43-.43h0a.43.43,0,0,1,.43.43v3.45a.43.43,0,0,1-.43.43Zm0-6.9a.43.43,0,0,1-.43-.43v-3.45a.43.43,0,0,1,.43-.43h0a.44.44,0,0,1,.43.44v3.44a.43.43,0,0,1-.43.43Zm0-6.89a.43.43,0,0,1-.43-.43v-3.45a.43.43,0,0,1,.43-.43h0a.43.43,0,0,1,.43.43v3.45a.43.43,0,0,1-.43.43Zm0-6.9a.43.43,0,0,1-.43-.43V94a.43.43,0,0,1,.43-.43h0a.43.43,0,0,1,.43.43V97.4a.43.43,0,0,1-.43.43Zm0-6.9a.43.43,0,0,1-.43-.43V87.05a.43.43,0,0,1,.43-.43h0a.44.44,0,0,1,.43.44V90.5a.43.43,0,0,1-.43.43Zm0-6.89a.43.43,0,0,1-.43-.43V80.16a.43.43,0,0,1,.43-.43h0a.43.43,0,0,1,.43.43v3.45a.43.43,0,0,1-.43.43Zm0-6.9a.43.43,0,0,1-.43-.43V73.26a.43.43,0,0,1,.43-.43h0a.43.43,0,0,1,.43.43v3.45a.43.43,0,0,1-.43.43Zm0-6.9a.43.43,0,0,1-.43-.43V66.36a.44.44,0,0,1,.43-.43h0a.44.44,0,0,1,.43.44v3.44a.43.43,0,0,1-.43.43Z"/><path class="cls-4" d="M104.2,146.11a.43.43,0,0,1-.43-.43v-3.45a.43.43,0,0,1,.43-.43h0a.43.43,0,0,1,.43.43v3.45a.43.43,0,0,1-.43.43Zm0-6.9a.43.43,0,0,1-.43-.43v-3.45a.44.44,0,0,1,.44-.43h0a.44.44,0,0,1,.43.43v3.45a.43.43,0,0,1-.43.43Zm0-6.89a.44.44,0,0,1-.43-.44v-3.44a.44.44,0,0,1,.44-.44h0a.44.44,0,0,1,.43.44v3.44a.44.44,0,0,1-.43.44Zm0-6.9a.43.43,0,0,1-.43-.43v-3.45a.44.44,0,0,1,.44-.43h0a.43.43,0,0,1,.43.43V125a.43.43,0,0,1-.43.43Zm0-6.9a.43.43,0,0,1-.43-.43v-3.45a.43.43,0,0,1,.43-.43h0a.43.43,0,0,1,.43.43v3.45a.43.43,0,0,1-.43.43Zm0-6.9a.43.43,0,0,1-.43-.43v-3.45a.44.44,0,0,1,.43-.43h0a.44.44,0,0,1,.43.44v3.44a.43.43,0,0,1-.43.43Zm0-6.89a.43.43,0,0,1-.43-.43v-3.45a.43.43,0,0,1,.43-.43h0a.44.44,0,0,1,.44.43v3.45a.43.43,0,0,1-.43.43Zm0-6.9a.43.43,0,0,1-.43-.43V94a.43.43,0,0,1,.43-.43.42.42,0,0,1,.43.43V97.4a.43.43,0,0,1-.43.43Zm0-6.9a.43.43,0,0,1-.43-.43V87.05a.44.44,0,0,1,.43-.43h0a.44.44,0,0,1,.43.44V90.5a.43.43,0,0,1-.43.43Zm0-6.89a.43.43,0,0,1-.43-.43V80.16a.42.42,0,0,1,.43-.43.43.43,0,0,1,.43.43v3.45a.43.43,0,0,1-.43.43Zm0-6.9a.43.43,0,0,1-.43-.43V73.26a.43.43,0,0,1,.43-.43h0a.43.43,0,0,1,.43.43v3.45a.43.43,0,0,1-.43.43Zm0-6.9a.43.43,0,0,1-.43-.43V66.36a.43.43,0,0,1,.43-.43h0a.44.44,0,0,1,.43.44v3.44a.43.43,0,0,1-.43.43Zm0-6.89a.43.43,0,0,1-.43-.43V59.47a.43.43,0,0,1,.43-.43h0a.43.43,0,0,1,.43.43v3.45a.43.43,0,0,1-.43.43Zm0-6.9a.43.43,0,0,1-.43-.43V52.57a.43.43,0,0,1,.43-.43h0a.43.43,0,0,1,.43.43V56a.43.43,0,0,1-.43.43Zm0-6.9a.42.42,0,0,1-.43-.43v-.34a.43.43,0,0,1,.43-.43h0a.43.43,0,0,1,.43.43v.34a.43.43,0,0,1-.43.43Z"/><path class="cls-4" d="M77.11,146.11a.44.44,0,0,1-.43-.43v-3.45a.43.43,0,0,1,.43-.43h0a.43.43,0,0,1,.43.43v3.45a.43.43,0,0,1-.43.43Zm0-6.9a.43.43,0,0,1-.43-.43v-3.45a.43.43,0,0,1,.43-.43h0a.43.43,0,0,1,.43.43v3.45a.43.43,0,0,1-.43.43Zm0-6.89a.44.44,0,0,1-.43-.44v-3.45a.44.44,0,0,1,.43-.43h0a.44.44,0,0,1,.43.44v3.44a.44.44,0,0,1-.43.44Zm0-6.9a.43.43,0,0,1-.43-.43v-3.45a.43.43,0,0,1,.43-.43h0a.43.43,0,0,1,.43.43V125a.43.43,0,0,1-.43.43Zm0-6.9a.43.43,0,0,1-.43-.43v-3.45a.43.43,0,0,1,.43-.43h0a.43.43,0,0,1,.43.43v3.45a.43.43,0,0,1-.43.43Zm0-6.9a.43.43,0,0,1-.43-.43v-3.45a.43.43,0,0,1,.43-.43h0a.44.44,0,0,1,.43.44v3.44a.44.44,0,0,1-.44.43Zm0-6.89a.43.43,0,0,1-.43-.43v-3.45a.43.43,0,0,1,.43-.43h0a.43.43,0,0,1,.43.43v3.45a.43.43,0,0,1-.43.43Zm0-6.9a.43.43,0,0,1-.43-.43V94a.43.43,0,0,1,.43-.43h0a.44.44,0,0,1,.44.43V97.4a.43.43,0,0,1-.43.43Zm0-6.9a.43.43,0,0,1-.43-.43V87.05a.45.45,0,0,1,.44-.43h0a.44.44,0,0,1,.43.44V90.5a.43.43,0,0,1-.43.43Zm0-6.89a.43.43,0,0,1-.43-.43V80.16a.43.43,0,0,1,.43-.43h0a.43.43,0,0,1,.43.43v3.45a.43.43,0,0,1-.43.43Zm0-6.9a.43.43,0,0,1-.43-.43V73.26a.43.43,0,0,1,.43-.43h0a.43.43,0,0,1,.43.43v3.45a.43.43,0,0,1-.43.43Zm0-6.9a.43.43,0,0,1-.43-.43v-3a.43.43,0,0,1,.43-.43h0a.43.43,0,0,1,.43.43v3a.43.43,0,0,1-.43.43Z"/><path class="cls-4" d="M24.39,147a.43.43,0,0,1-.43-.43v-3.45a.43.43,0,0,1,.43-.43h0a.43.43,0,0,1,.43.43v3.45a.43.43,0,0,1-.43.43Zm0-6.9a.43.43,0,0,1-.43-.43v-3.45a.43.43,0,0,1,.43-.43h0a.44.44,0,0,1,.43.44v3.44a.44.44,0,0,1-.44.43Zm0-6.89a.44.44,0,0,1-.44-.43v-3.45a.43.43,0,0,1,.43-.43h0a.43.43,0,0,1,.43.43v3.45a.43.43,0,0,1-.43.43Zm0-6.9a.43.43,0,0,1-.43-.43v-3.45a.43.43,0,0,1,.43-.43h0a.43.43,0,0,1,.43.43v3.45a.43.43,0,0,1-.43.43Zm0-6.9a.43.43,0,0,1-.43-.43v-3.45a.44.44,0,0,1,.43-.43h0a.43.43,0,0,1,.43.44v3.44a.43.43,0,0,1-.43.43Zm0-6.89A.43.43,0,0,1,24,112v-3.45a.43.43,0,0,1,.43-.43h0a.43.43,0,0,1,.43.43V112a.43.43,0,0,1-.43.43Zm0-6.9a.43.43,0,0,1-.43-.43v-3.45a.43.43,0,0,1,.43-.43h0a.43.43,0,0,1,.43.43v3.45a.43.43,0,0,1-.43.43Zm0-6.9a.43.43,0,0,1-.43-.43V94.79a.43.43,0,0,1,.43-.43h0a.44.44,0,0,1,.43.44v3.44a.43.43,0,0,1-.43.43Zm0-6.89a.43.43,0,0,1-.43-.43V87.9a.43.43,0,0,1,.43-.43h0a.43.43,0,0,1,.43.43v3.45a.43.43,0,0,1-.43.43Zm0-6.9a.43.43,0,0,1-.43-.43V81a.43.43,0,0,1,.43-.43h0a.43.43,0,0,1,.43.43v3.45a.43.43,0,0,1-.43.43Zm0-6.9a.43.43,0,0,1-.43-.43V74.1a.43.43,0,0,1,.43-.43h0a.44.44,0,0,1,.43.44v3.44a.43.43,0,0,1-.43.43Zm0-6.89a.43.43,0,0,1-.43-.43V67.21a.43.43,0,0,1,.43-.43h0a.43.43,0,0,1,.43.43v3.45a.44.44,0,0,1-.43.43Zm0-6.9a.43.43,0,0,1-.43-.43v-1a.43.43,0,0,1,.43-.43h0a.43.43,0,0,1,.43.43v1a.43.43,0,0,1-.43.43Z"/><path class="cls-4" d="M17.71,147H202.8a.43.43,0,0,0,0-.86H17.71a.43.43,0,0,0,0,.86Z"/><path class="cls-4" d="M98.72,144.48a.13.13,0,0,0,.1,0l3.08-2.93a.14.14,0,0,0-.19-.21l-3.09,2.93a.14.14,0,0,0,0,.2A.14.14,0,0,0,98.72,144.48Z"/><path class="cls-4" d="M93.87,144.54a.15.15,0,0,0,.09,0,107.53,107.53,0,0,0,8.47-7.1.15.15,0,0,0-.2-.21,106.84,106.84,0,0,1-8.44,7.08.13.13,0,0,0,0,.2A.16.16,0,0,0,93.87,144.54Z"/><path class="cls-4" d="M90,144.47a.17.17,0,0,0,.1,0c4.07-3.51,8.16-7.13,12.14-10.74a.13.13,0,0,0,0-.2.14.14,0,0,0-.2,0c-4,3.61-8.07,7.22-12.14,10.73a.13.13,0,0,0,0,.2A.1.1,0,0,0,90,144.47Z"/><path class="cls-4" d="M86.2,144.56a.16.16,0,0,0,.09,0c5.45-4.69,10.85-9.62,16-14.65a.14.14,0,0,0,0-.21.15.15,0,0,0-.2,0c-5.19,5-10.58,10-16,14.64a.14.14,0,0,0,0,.2A.13.13,0,0,0,86.2,144.56Z"/><path class="cls-4" d="M82.74,144.57a.13.13,0,0,0,.1,0c6.2-6.24,12.67-12.35,19.23-18.15a.15.15,0,0,0,0-.2.13.13,0,0,0-.2,0c-6.56,5.8-13,11.91-19.24,18.16a.13.13,0,0,0,0,.2A.13.13,0,0,0,82.74,144.57Z"/><path class="cls-4" d="M78.52,144.18a.13.13,0,0,0,.1,0l23.63-22.83a.14.14,0,0,0,0-.2.15.15,0,0,0-.21,0L78.42,143.94a.13.13,0,0,0,0,.2A.12.12,0,0,0,78.52,144.18Z"/><path class="cls-4" d="M79.39,138.78a.14.14,0,0,0,.1,0c7.87-7,15.59-14.39,22.93-22a.14.14,0,0,0,0-.2.15.15,0,0,0-.21,0c-7.33,7.64-15,15.05-22.91,22a.14.14,0,0,0,0,.2A.16.16,0,0,0,79.39,138.78Z"/><path class="cls-4" d="M79.79,134.19a.18.18,0,0,0,.1,0l22.46-21.83a.14.14,0,0,0,0-.21.15.15,0,0,0-.2,0L79.69,133.94a.14.14,0,0,0,0,.2A.16.16,0,0,0,79.79,134.19Z"/><path class="cls-4" d="M79.94,129.21l.09,0a102.18,102.18,0,0,0,7.84-7.13c4.75-4.61,9.65-9.38,14.33-14.26a.13.13,0,0,0,0-.2.14.14,0,0,0-.2,0c-4.68,4.86-9.59,9.63-14.33,14.25a103.4,103.4,0,0,1-7.82,7.1.14.14,0,0,0,0,.2A.14.14,0,0,0,79.94,129.21Z"/><path class="cls-4" d="M79.93,125.15a.12.12,0,0,0,.09,0A305.45,305.45,0,0,0,102.23,104a.14.14,0,0,0,0-.2.15.15,0,0,0-.21,0,302.76,302.76,0,0,1-22.19,21.14.15.15,0,0,0,0,.21A.16.16,0,0,0,79.93,125.15Z"/><path class="cls-4" d="M80,121.15a.11.11,0,0,0,.09,0c7.52-7.06,15-14.37,22.29-21.73a.15.15,0,0,0-.21-.21c-7.26,7.36-14.75,14.67-22.27,21.73a.14.14,0,0,0,0,.2A.16.16,0,0,0,80,121.15Z"/><path class="cls-4" d="M80,116.87a.18.18,0,0,0,.1,0c7.54-6.71,15-13.73,22.23-20.86a.14.14,0,0,0-.2-.2C95,102.9,87.48,109.91,79.94,116.61a.15.15,0,0,0,0,.21A.12.12,0,0,0,80,116.87Z"/><path class="cls-4" d="M80,112.67a.12.12,0,0,0,.09,0l22.22-20.39a.15.15,0,1,0-.2-.21L79.92,112.42a.15.15,0,0,0,0,.21A.15.15,0,0,0,80,112.67Z"/><path class="cls-4" d="M79.75,108.8a.21.21,0,0,0,.1,0l22.68-20.59a.15.15,0,0,0,0-.2.15.15,0,0,0-.21,0L79.65,108.55a.14.14,0,0,0,0,.2A.16.16,0,0,0,79.75,108.8Z"/><path class="cls-4" d="M79.9,104.06a.14.14,0,0,0,.09,0c7.6-6.67,15.19-13.58,22.57-20.53a.15.15,0,1,0-.2-.21C95,90.24,87.4,97.15,79.8,103.81a.17.17,0,0,0,0,.21A.15.15,0,0,0,79.9,104.06Z"/><path class="cls-4" d="M79.72,100.3a.17.17,0,0,0,.1,0c7.79-6.56,15.47-13.48,22.85-20.57a.15.15,0,0,0-.2-.21c-7.37,7.09-15,14-22.84,20.56a.14.14,0,0,0,0,.2A.13.13,0,0,0,79.72,100.3Z"/><path class="cls-4" d="M79.78,96.22a.16.16,0,0,0,.09,0,225.54,225.54,0,0,0,22.65-20.13.14.14,0,0,0,0-.2.15.15,0,0,0-.2,0A226.12,226.12,0,0,1,79.69,96a.14.14,0,0,0,0,.2A.14.14,0,0,0,79.78,96.22Z"/><path class="cls-4" d="M80.06,92.31a.16.16,0,0,0,.09,0,235.1,235.1,0,0,0,22.34-20.07.14.14,0,0,0-.2-.2A233.33,233.33,0,0,1,80,92.05a.14.14,0,0,0,0,.2A.13.13,0,0,0,80.06,92.31Z"/><path class="cls-4" d="M79.88,88.22a.16.16,0,0,0,.09,0c7.64-6.37,15.21-13.07,22.51-19.89a.15.15,0,0,0,0-.21.14.14,0,0,0-.2,0C95,74.91,87.42,81.6,79.79,88a.14.14,0,0,0,0,.2A.16.16,0,0,0,79.88,88.22Z"/><path class="cls-4" d="M80.14,83.41a.12.12,0,0,0,.09,0c3.53-3,7-5.92,10.72-9s7.76-6.57,11.84-10a.15.15,0,0,0,0-.21.13.13,0,0,0-.2,0q-6.14,5.13-11.84,10c-3.7,3.13-7.2,6.09-10.72,9a.14.14,0,0,0,0,.2A.16.16,0,0,0,80.14,83.41Z"/><path class="cls-4" d="M80.34,79.49a.13.13,0,0,0,.1,0c6.11-5.25,14.17-12.13,22.41-18.75a.14.14,0,0,0,0-.2.13.13,0,0,0-.2,0C94.43,67.1,86.36,74,80.25,79.23a.15.15,0,0,0,0,.21A.12.12,0,0,0,80.34,79.49Z"/><path class="cls-4" d="M90.23,67.24a.14.14,0,0,0,.09,0c4.26-3.54,8-6.69,11.35-9.62a.15.15,0,0,0-.19-.22C98.11,60.3,94.4,63.45,90.14,67a.14.14,0,0,0,0,.2A.13.13,0,0,0,90.23,67.24Z"/><path class="cls-4" d="M80,75.58l.09,0,2.09-1.68a.14.14,0,0,0-.18-.22L80,75.32a.14.14,0,0,0,0,.2A.14.14,0,0,0,80,75.58Z"/><path class="cls-2" d="M248.2,112.15h35.36a.43.43,0,0,0,0-.86H248.2a.43.43,0,1,0,0,.86Z"/><path class="cls-2" d="M261.66,125.75h21.9a.44.44,0,0,0,0-.87h-21.9a.44.44,0,1,0,0,.87Z"/><path class="cls-2" d="M160.29,40.16h35.36a.44.44,0,0,0,0-.87H160.29a.44.44,0,0,0,0,.87Z"/><path class="cls-2" d="M160.29,54.65H180a.43.43,0,0,0,.43-.43.43.43,0,0,0-.43-.43H160.29a.43.43,0,0,0-.43.43A.43.43,0,0,0,160.29,54.65Z"/><path class="cls-4" d="M294,67.08a.36.36,0,0,0,.2-.06.42.42,0,0,0,.17-.58L279,38.81a.43.43,0,1,0-.75.42l15.35,27.62A.42.42,0,0,0,294,67.08Z"/><path class="cls-4" d="M255.5,75.7a.45.45,0,0,0,.19,0,.43.43,0,0,0,.19-.58L237,37.38a.43.43,0,0,0-.58-.19.42.42,0,0,0-.19.57l18.92,37.7A.44.44,0,0,0,255.5,75.7Z"/><path class="cls-4" d="M294.48,67.29a.47.47,0,0,0,.27-.1l21-17.29a.43.43,0,1,0-.55-.67l-21,17.29a.44.44,0,0,0-.06.61A.46.46,0,0,0,294.48,67.29Z"/><path class="cls-4" d="M255.33,74.64a.43.43,0,0,0,.37-.2L276.47,40.2a.45.45,0,0,0-.14-.6.44.44,0,0,0-.6.15L255,74a.43.43,0,0,0,.15.59A.46.46,0,0,0,255.33,74.64Z"/><path class="cls-2" d="M320.26,49.56a4.78,4.78,0,1,0-4.77,4.78A4.78,4.78,0,0,0,320.26,49.56Z"/><path class="cls-2" d="M310.28,49.56a5.21,5.21,0,1,1,5.21,5.21A5.21,5.21,0,0,1,310.28,49.56Zm.86,0a4.35,4.35,0,1,0,4.35-4.34A4.35,4.35,0,0,0,311.14,49.56Z"/><path class="cls-5" d="M298.74,67.15A4.78,4.78,0,1,0,294,71.92,4.77,4.77,0,0,0,298.74,67.15Z"/><path class="cls-2" d="M288.76,67.15a5.21,5.21,0,1,1,5.21,5.2A5.21,5.21,0,0,1,288.76,67.15Zm.86,0A4.35,4.35,0,1,0,294,62.8,4.35,4.35,0,0,0,289.62,67.15Z"/><path class="cls-5" d="M282.19,38.37a4.78,4.78,0,1,0-4.77,4.77A4.78,4.78,0,0,0,282.19,38.37Z"/><path class="cls-2" d="M272.21,38.37a5.21,5.21,0,1,1,5.21,5.2A5.22,5.22,0,0,1,272.21,38.37Zm.86,0A4.35,4.35,0,1,0,277.42,34,4.35,4.35,0,0,0,273.07,38.37Z"/><path class="cls-2" d="M261.23,73.87a4.78,4.78,0,1,0-4.77,4.78A4.77,4.77,0,0,0,261.23,73.87Z"/><path class="cls-2" d="M251.25,73.87a5.21,5.21,0,1,1,5.21,5.21A5.21,5.21,0,0,1,251.25,73.87Zm.86,0a4.35,4.35,0,1,0,4.35-4.34A4.35,4.35,0,0,0,252.11,73.87Z"/><path class="cls-5" d="M239.54,34.83a4.78,4.78,0,1,0-4.77,4.78A4.78,4.78,0,0,0,239.54,34.83Z"/><path class="cls-2" d="M229.56,34.83A5.21,5.21,0,1,1,234.77,40,5.2,5.2,0,0,1,229.56,34.83Zm.86,0a4.35,4.35,0,1,0,4.35-4.34A4.35,4.35,0,0,0,230.42,34.83Z"/><path class="cls-2" d="M297.38,68.49a.1.1,0,0,0,.07,0,.14.14,0,0,0,.06-.19l-2.13-4a.14.14,0,0,0-.19-.06.15.15,0,0,0-.06.2l2.12,4A.16.16,0,0,0,297.38,68.49Z"/><path class="cls-2" d="M295.64,70.09l.06,0a.14.14,0,0,0,.06-.19l-3.06-5.77a.14.14,0,1,0-.25.13L295.51,70A.13.13,0,0,0,295.64,70.09Z"/><path class="cls-2" d="M293.42,69.71a.1.1,0,0,0,.07,0,.15.15,0,0,0,.05-.2l-2-3.13a.15.15,0,0,0-.2,0,.15.15,0,0,0-.05.2l2,3.13A.13.13,0,0,0,293.42,69.71Z"/><path class="cls-2" d="M238.13,34.94l.07,0a.14.14,0,0,0,.06-.19,25.78,25.78,0,0,0-1.56-2.64.15.15,0,0,0-.2,0,.14.14,0,0,0,0,.2A26.27,26.27,0,0,1,238,34.86.16.16,0,0,0,238.13,34.94Z"/><path class="cls-2" d="M236.94,36.69H237a.15.15,0,0,0,.06-.2,52.61,52.61,0,0,0-2.75-4.71.15.15,0,0,0-.2-.05.14.14,0,0,0,0,.2,53.61,53.61,0,0,1,2.74,4.69A.13.13,0,0,0,236.94,36.69Z"/><path class="cls-2" d="M235.58,38.28l.06,0a.14.14,0,0,0,.06-.19c-.94-1.82-2-3.61-3.07-5.34a.14.14,0,0,0-.24.16c1.09,1.71,2.12,3.5,3.06,5.31A.14.14,0,0,0,235.58,38.28Z"/><path class="cls-2" d="M233.29,37.72a.11.11,0,0,0,.08,0,.15.15,0,0,0,0-.2c-.63-.9-1.23-1.83-1.78-2.78a.15.15,0,0,0-.25.15c.55,1,1.16,1.89,1.79,2.79A.15.15,0,0,0,233.29,37.72Z"/></g></g></svg>