<svg xmlns="http://www.w3.org/2000/svg" viewBox="0 0 1129.31 410.2"><defs><style>.cls-1{isolation:isolate;}.cls-2{fill:#0073c8;}.cls-3{opacity:0.13;}.cls-4{fill:#3aa1ff;}.cls-5{fill:#002760;}.cls-6{mix-blend-mode:lighten;}</style></defs><g class="cls-1"><g id="Layer_2" data-name="Layer 2"><g id="Layer_1-2" data-name="Layer 1"><path class="cls-2" d="M572.83,215.85a.41.41,0,0,1-.31-.14l-4.72-5.14a.43.43,0,0,1,.64-.58l4.36,4.75,8.77-12.08a.45.45,0,0,1,.29-.18.47.47,0,0,1,.33.09L589,208l10-17.11a.43.43,0,0,1,.3-.21.45.45,0,0,1,.35.09l15.25,12.69,7.56-16.27a.43.43,0,0,1,.57-.2.42.42,0,0,1,.21.57l-7.79,16.77a.45.45,0,0,1-.3.24.45.45,0,0,1-.37-.09l-15.29-12.72-10,17.1a.42.42,0,0,1-.29.21.45.45,0,0,1-.35-.09L582,203.53l-8.82,12.15a.43.43,0,0,1-.32.17Z"/><path class="cls-2" d="M34,387.55l-1.57-5.28,3.3-4.76-8.13-5.75L24.49,377a.66.66,0,0,1-.2.24.62.62,0,0,1-.42.08c-1.81,0-3.62-.05-5.43-.1-.89-1.73-1.76-3.38-2.73-5a.6.6,0,0,0-.31-.3.58.58,0,0,0-.41.13l-6.45,4a.36.36,0,0,0-.15.12c-.1.14,0,.33.06.48a24,24,0,0,0,2.89,4.09,54.31,54.31,0,0,1-3.12,5.16,2.06,2.06,0,0,1-1,.94,2,2,0,0,1-1.15-.1c-1.52-.43-3-.93-4.49-1.48A15.56,15.56,0,0,0,.88,395c.13.25,5.74-.57,5.74-.57L10,400.35l-2.69,4.51,6.16,4.59,3.2-4.78,5.65.12,2.18,5,8.41-3-2-5.16,3-5,5.71-.47.18-7.11Zm-9.71,2.69a2.18,2.18,0,0,1-.25,1,3.77,3.77,0,0,1-.28.57,5.27,5.27,0,0,1-.78.93A5.94,5.94,0,0,1,21,394a4.61,4.61,0,0,1-1,.25,3,3,0,0,1-.84,0,5,5,0,0,0-.54-.08c.5,0-.05,0-.24-.05a3.77,3.77,0,0,1-2.14-1.78,3.85,3.85,0,0,1-.5-1.58,3.61,3.61,0,0,1,.3-1.49,10.43,10.43,0,0,1,1-1.91,5,5,0,0,1,1.74-1.72,2.71,2.71,0,0,1,2.22-.16,1.17,1.17,0,0,1,.91-.07,3.07,3.07,0,0,1,1.34.9,4.76,4.76,0,0,1,.8,1.4,3.33,3.33,0,0,1,.16.51,1.59,1.59,0,0,1,.06.3l.06.48v-.11c0-.13,0-.14,0,0l.06.48a1.93,1.93,0,0,1,0,.24A2.43,2.43,0,0,1,24.32,390.24Z"/><path class="cls-2" d="M9.28,393.83h0a.14.14,0,0,1-.1-.17c1.61-5.62,3.5-11.23,5.64-16.65a.14.14,0,1,1,.27.1c-2.13,5.42-4,11-5.63,16.62A.15.15,0,0,1,9.28,393.83Z"/><path class="cls-2" d="M11.75,394.74h0a.15.15,0,0,1-.1-.18,94.89,94.89,0,0,1,5.83-15.45.16.16,0,0,1,.2-.07.14.14,0,0,1,.06.19,94.72,94.72,0,0,0-5.81,15.41A.15.15,0,0,1,11.75,394.74Z"/><path class="cls-2" d="M10.83,404.91h-.06a.14.14,0,0,1-.08-.18l4.09-10.08a.15.15,0,0,1,.19-.07.14.14,0,0,1,.08.18L11,404.82A.14.14,0,0,1,10.83,404.91Z"/><path class="cls-2" d="M16.19,402.75h-.05a.14.14,0,0,1-.08-.19l2.28-5.77a.14.14,0,0,1,.19-.09.15.15,0,0,1,.08.19l-2.29,5.78A.13.13,0,0,1,16.19,402.75Z"/><path class="cls-2" d="M20.46,383.69h0a.14.14,0,0,1-.1-.18L21.41,380a.14.14,0,0,1,.18-.1.15.15,0,0,1,.09.18l-1.09,3.55A.13.13,0,0,1,20.46,383.69Z"/><path class="cls-2" d="M24.76,384.62h-.05a.15.15,0,0,1-.09-.19c1.12-3,2.4-6.05,3.81-9a.15.15,0,0,1,.19-.07.14.14,0,0,1,.06.19c-1.4,2.9-2.68,5.91-3.79,8.94A.14.14,0,0,1,24.76,384.62Z"/><path class="cls-2" d="M20.45,402.81l-.06,0a.14.14,0,0,1-.07-.19L30.7,380.13a.13.13,0,0,1,.19-.07.14.14,0,0,1,.07.19L20.58,402.72A.13.13,0,0,1,20.45,402.81Z"/><path class="cls-2" d="M24.6,403.71h-.06a.15.15,0,0,1-.07-.19l7-15.29a.14.14,0,0,1,.19-.07.15.15,0,0,1,.07.19l-7,15.29A.13.13,0,0,1,24.6,403.71Z"/><path class="cls-2" d="M32,396.06a.1.1,0,0,1-.07,0,.14.14,0,0,1-.06-.19L35,390.17a.14.14,0,0,1,.19-.06.15.15,0,0,1,.06.2L32.16,396A.17.17,0,0,1,32,396.06Z"/><path class="cls-2" d="M26.89,406.81h-.07a.14.14,0,0,1-.06-.19l1.38-2.84a.15.15,0,0,1,.19-.07.13.13,0,0,1,.07.19L27,406.73A.14.14,0,0,1,26.89,406.81Z"/><path class="cls-2" d="M3.44,392.51H3.38a.14.14,0,0,1-.06-.19l1.87-4a.16.16,0,0,1,.2-.07.14.14,0,0,1,.06.19l-1.88,4A.13.13,0,0,1,3.44,392.51Z"/><path class="cls-2" d="M11.36,377.6l-.07,0a.14.14,0,0,1-.06-.19l1.39-2.54a.14.14,0,0,1,.19-.06.15.15,0,0,1,.06.2l-1.39,2.53A.13.13,0,0,1,11.36,377.6Z"/><g class="cls-3"><path class="cls-2" d="M26,391.3a.82.82,0,0,0-1.6-.11c-.26.83-.16.69-1,1.55-.85.69-.54.49-1.86,1a3.16,3.16,0,0,1-1.77.3l-.43-.11a6,6,0,0,1-1.32-.65c-.4-.2-.75-.57-1.22-.6a1.37,1.37,0,0,0-.85,2.52c2.21,1.54,4.42,2.24,6.94,1a6,6,0,0,0,2.72-3.38A3.25,3.25,0,0,0,26,391.3Z"/></g><g class="cls-3"><path class="cls-2" d="M29.77,405.58a11.07,11.07,0,0,1-2.67.79c-.74.23-1.64.11-2.27.6a1.54,1.54,0,0,0,1.31,2.7c1.85-.39,4-.47,5.41-1.86A1.44,1.44,0,0,0,29.77,405.58Z"/></g><g class="cls-3"><path class="cls-2" d="M40.25,393.34s0,0,0,0v0a1.64,1.64,0,0,0-3.17-.66l-.1.21c-.12.24-.2.5-.3.76l-.27.61a1.82,1.82,0,0,0-.24.91,1.75,1.75,0,0,0,3.45.48,7.42,7.42,0,0,0,.59-2A1.1,1.1,0,0,0,40.25,393.34Z"/></g><path class="cls-2" d="M24.4,410.2a.43.43,0,0,1-.4-.27,28.65,28.65,0,0,0-2.24-4.75,24.08,24.08,0,0,1-5.44-.06c-.53.94-1,1.9-1.56,2.91-.28.55-.58,1.12-.89,1.71a.44.44,0,0,1-.54.2,16.24,16.24,0,0,1-6.79-5,.42.42,0,0,1,0-.51c1-1.34,1.92-2.72,3-4.4a23.84,23.84,0,0,1-3-5.39l-1.36.29c-1.32.28-2.68.57-4.15.78a.44.44,0,0,1-.48-.32A17.8,17.8,0,0,1,1.17,385a.43.43,0,0,1,.52-.27h0c1.88.48,3.83,1,5.86,1.47a47.07,47.07,0,0,1,3-5.21,36.84,36.84,0,0,1-2.91-4.42.41.41,0,0,1,.09-.52,27.75,27.75,0,0,1,7.54-4.77.43.43,0,0,1,.55.19,48.63,48.63,0,0,1,2.53,5.24,23.33,23.33,0,0,1,6-.22c.88-1.69,1.79-3.44,2.94-5.26a.43.43,0,0,1,.56-.16A33.59,33.59,0,0,1,34,375.26c.52.43,1,.89,1.51,1.33a1.7,1.7,0,0,1,.61.82.42.42,0,0,1-.06.34c-.44.65-.87,1.28-1.34,1.95-.63.92-1.29,1.87-2,2.92.59,1.48,1.2,3,1.74,4.52a19.89,19.89,0,0,1,5.93,1.38.42.42,0,0,1,.27.37,18.93,18.93,0,0,1-1.14,7.95.43.43,0,0,1-.42.28l-.63,0a37.53,37.53,0,0,0-4.62,0,18.43,18.43,0,0,1-2.92,4.73,44,44,0,0,1,2.51,5,.45.45,0,0,1-.19.55,23.71,23.71,0,0,1-8.8,2.85ZM22,404.28a.45.45,0,0,1,.36.2,27.28,27.28,0,0,1,2.34,4.82,22.48,22.48,0,0,0,7.8-2.53A46.86,46.86,0,0,0,30,402a.44.44,0,0,1,0-.49,18,18,0,0,0,3.07-5,.4.4,0,0,1,.36-.28,34.85,34.85,0,0,1,5,0h.32a18,18,0,0,0,1-7A19.83,19.83,0,0,0,34.1,388a.42.42,0,0,1-.37-.28c-.59-1.66-1.26-3.33-1.9-4.95a.43.43,0,0,1,0-.4c.74-1.14,1.44-2.15,2.11-3.13l1.19-1.73a3.13,3.13,0,0,0-.26-.25c-.49-.44-1-.89-1.49-1.31a32.58,32.58,0,0,0-5.65-3.85c-1.09,1.76-2,3.46-2.83,5.11a.42.42,0,0,1-.42.23,23.46,23.46,0,0,0-6.37.24.42.42,0,0,1-.47-.26,49.88,49.88,0,0,0-2.42-5.12,27,27,0,0,0-6.7,4.23,39.09,39.09,0,0,0,2.85,4.25.41.41,0,0,1,0,.48,46.44,46.44,0,0,0-3.2,5.69.43.43,0,0,1-.49.25c-2-.5-4-1-5.86-1.47a16.91,16.91,0,0,0-.65,9.09c1.3-.2,2.52-.46,3.71-.71q.86-.19,1.71-.36a.44.44,0,0,1,.49.26,23,23,0,0,0,3.23,5.74.42.42,0,0,1,0,.5c-1.05,1.71-2,3.1-3,4.43A15.33,15.33,0,0,0,13.29,409l.71-1.36c.58-1.1,1.12-2.15,1.7-3.18a.43.43,0,0,1,.42-.21,23.84,23.84,0,0,0,5.79.05Z"/><path class="cls-2" d="M19.39,394.18a5.29,5.29,0,0,1-2.17-.46,2.88,2.88,0,0,1-1.27-1,3.33,3.33,0,0,1-.51-1.7,6.74,6.74,0,0,1,1.22-4.67,4.18,4.18,0,0,1,4.51-1.55.42.42,0,0,1,.21.16l.09,0a4.51,4.51,0,0,1,2.93,4,5,5,0,0,1-2.29,4.41A5.19,5.19,0,0,1,19.39,394.18Zm.67-8.67a3.58,3.58,0,0,0-2.72,1.4,5.92,5.92,0,0,0-1,4.08,2.67,2.67,0,0,0,.35,1.27,2.3,2.3,0,0,0,.92.68,4.42,4.42,0,0,0,4.08-.25,4.16,4.16,0,0,0,1.89-3.63,3.67,3.67,0,0,0-2.34-3.22l-.15,0a.85.85,0,0,1-.43-.22A2.6,2.6,0,0,0,20.06,385.51Zm1-.27.09.42h0Z"/><path class="cls-4" d="M532.08,129.67a3.56,3.56,0,1,0-3.56,3.56A3.57,3.57,0,0,0,532.08,129.67Z"/><path class="cls-2" d="M528.52,133.66a4,4,0,1,1,4-4A4,4,0,0,1,528.52,133.66Zm0-7.12a3.13,3.13,0,1,0,3.13,3.13A3.13,3.13,0,0,0,528.52,126.54Z"/><path class="cls-4" d="M656.26,39.52a3.56,3.56,0,1,0-3.56,3.56A3.56,3.56,0,0,0,656.26,39.52Z"/><path class="cls-2" d="M652.7,43.51a4,4,0,1,1,4-4A4,4,0,0,1,652.7,43.51Zm0-7.12a3.13,3.13,0,1,0,3.13,3.13A3.14,3.14,0,0,0,652.7,36.39Z"/><path class="cls-4" d="M607,49a3.56,3.56,0,1,0-3.56,3.56A3.56,3.56,0,0,0,607,49Z"/><path class="cls-2" d="M603.43,53a4,4,0,1,1,4-4A4,4,0,0,1,603.43,53Zm0-7.12A3.13,3.13,0,1,0,606.56,49,3.13,3.13,0,0,0,603.43,45.85Z"/><path class="cls-4" d="M670.77,18.36a3.56,3.56,0,1,0-3.56,3.56A3.56,3.56,0,0,0,670.77,18.36Z"/><path class="cls-2" d="M667.21,22.35a4,4,0,1,1,4-4A4,4,0,0,1,667.21,22.35Zm0-7.12a3.13,3.13,0,1,0,3.13,3.13A3.13,3.13,0,0,0,667.21,15.23Z"/><path class="cls-4" d="M615.66,155a3.56,3.56,0,1,0-3.56,3.56A3.56,3.56,0,0,0,615.66,155Z"/><path class="cls-2" d="M612.1,159a4,4,0,1,1,4-4A4,4,0,0,1,612.1,159Zm0-7.12a3.13,3.13,0,1,0,3.13,3.13A3.13,3.13,0,0,0,612.1,151.87Z"/><path class="cls-2" d="M413.31,112.94h0a.43.43,0,0,1-.43-.43l.2-15.12a.44.44,0,0,1,.43-.43h0a.43.43,0,0,1,.42.44l-.19,15.12A.44.44,0,0,1,413.31,112.94Z"/><path class="cls-2" d="M404.41,112.94h0a.42.42,0,0,1-.42-.44l.2-10a.43.43,0,0,1,.43-.43h0a.43.43,0,0,1,.42.44l-.2,10A.42.42,0,0,1,404.41,112.94Z"/><path class="cls-2" d="M590.11,286h0a.42.42,0,0,1-.42-.43l.2-15.12a.43.43,0,0,1,.43-.43h0a.44.44,0,0,1,.42.44l-.2,15.12A.42.42,0,0,1,590.11,286Z"/><path class="cls-2" d="M598.73,286h0a.42.42,0,0,1-.42-.43l.2-11.93a.42.42,0,0,1,.43-.42.44.44,0,0,1,.43.44l-.2,11.92A.43.43,0,0,1,598.73,286Z"/><path class="cls-2" d="M607.35,286h0a.43.43,0,0,1-.43-.43l.2-18.1a.44.44,0,0,1,.44-.43h0a.44.44,0,0,1,.43.44l-.2,18.1A.44.44,0,0,1,607.35,286Z"/><path class="cls-2" d="M581.21,286h0a.42.42,0,0,1-.42-.44l.2-10a.43.43,0,0,1,.43-.43h0a.45.45,0,0,1,.42.44l-.2,10A.43.43,0,0,1,581.21,286Z"/><path class="cls-2" d="M137.47,65.15h0a.42.42,0,0,1-.42-.43l.2-15.12a.43.43,0,0,1,.43-.43.44.44,0,0,1,.43.44l-.2,15.12A.44.44,0,0,1,137.47,65.15Z"/><path class="cls-2" d="M146.08,65.15h0a.44.44,0,0,1-.43-.44l.2-11.92a.43.43,0,0,1,.44-.42.42.42,0,0,1,.42.43l-.2,11.93A.42.42,0,0,1,146.08,65.15Z"/><path class="cls-2" d="M162.51,65.15h0a.42.42,0,0,1-.42-.44l.2-11.92a.41.41,0,0,1,.43-.42.43.43,0,0,1,.43.43l-.2,11.93A.44.44,0,0,1,162.51,65.15Z"/><path class="cls-2" d="M154.7,65.15h0a.43.43,0,0,1-.43-.43l.2-18.1a.44.44,0,0,1,.44-.43.43.43,0,0,1,.42.44l-.2,18.1A.42.42,0,0,1,154.7,65.15Z"/><path class="cls-2" d="M128.56,65.15h0a.43.43,0,0,1-.42-.44l.2-10a.45.45,0,0,1,.44-.42.43.43,0,0,1,.42.44l-.2,10A.42.42,0,0,1,128.56,65.15Z"/><path class="cls-2" d="M258.59,52.81h0l-58.5-.48a.44.44,0,0,1-.43-.44.43.43,0,0,1,.43-.43h0l58.5.49a.43.43,0,0,1,.43.43A.43.43,0,0,1,258.59,52.81Z"/><path class="cls-2" d="M237.62,37.27h0l-37.23-.48a.43.43,0,0,1-.42-.44.42.42,0,0,1,.43-.42l37.23.48a.43.43,0,1,1,0,.86Z"/><circle class="cls-4" cx="215.82" cy="51.89" r="3.78"/><path class="cls-2" d="M215.82,56.1a4.21,4.21,0,1,1,4.2-4.21A4.22,4.22,0,0,1,215.82,56.1Zm0-7.55a3.35,3.35,0,1,0,3.34,3.34A3.35,3.35,0,0,0,215.82,48.55Z"/><path class="cls-2" d="M582.85,29.66a.43.43,0,0,1-.43-.43.43.43,0,0,1,.43-.43l58.5-.48h0a.43.43,0,1,1,0,.86l-58.51.48Z"/><circle class="cls-5" cx="598.58" cy="29.23" r="3.78"/><path class="cls-2" d="M598.58,33.44a4.21,4.21,0,1,1,4.21-4.21A4.21,4.21,0,0,1,598.58,33.44Zm0-7.56a3.35,3.35,0,1,0,3.35,3.35A3.35,3.35,0,0,0,598.58,25.88Z"/><path class="cls-2" d="M586.84,117.63a.42.42,0,0,1-.24-.07.43.43,0,0,1-.12-.6l8.33-12.49a.42.42,0,0,1,.29-.19.46.46,0,0,1,.34.09l7.46,6.07,9.54-15a.4.4,0,0,1,.35-.2.42.42,0,0,1,.36.17l11.4,15.68,12.88-18.61a.44.44,0,0,1,.6-.11.43.43,0,0,1,.11.6l-13.23,19.11a.44.44,0,0,1-.35.18.41.41,0,0,1-.35-.17L612.83,96.41l-9.46,14.9a.46.46,0,0,1-.3.19.42.42,0,0,1-.34-.09l-7.47-6.07-8.06,12.1A.45.45,0,0,1,586.84,117.63Z"/><path class="cls-2" d="M119.24,28.91a.45.45,0,0,1-.32-.14l-4.71-5.14a.43.43,0,0,1,.63-.59l4.36,4.76L128,15.71a.39.39,0,0,1,.29-.17.39.39,0,0,1,.33.09l6.8,5.42,10-17.11a.44.44,0,0,1,.3-.21.45.45,0,0,1,.35.1l15.25,12.68L168.9.25a.43.43,0,1,1,.78.36l-7.8,16.77a.42.42,0,0,1-.66.15L145.93,4.82l-10,17.1a.44.44,0,0,1-.64.12l-6.84-5.46-8.82,12.15a.44.44,0,0,1-.32.18Z"/><path class="cls-2" d="M958.62,386.84h0l-58.51-.49a.42.42,0,0,1-.42-.43.43.43,0,0,1,.43-.43h0l58.51.49a.43.43,0,0,1,0,.86Z"/><circle class="cls-4" cx="915.85" cy="385.92" r="3.78"/><path class="cls-2" d="M915.85,390.13a4.21,4.21,0,1,1,4.21-4.21A4.22,4.22,0,0,1,915.85,390.13Zm0-7.55a3.35,3.35,0,1,0,3.35,3.34A3.35,3.35,0,0,0,915.85,382.58Z"/><path class="cls-2" d="M901.65,399.55a.44.44,0,0,1-.43-.42.42.42,0,0,1,.42-.44c10.05-.3,20.25-.4,30.31-.28a.43.43,0,1,1,0,.86c-10.05-.11-20.24,0-30.27.28Z"/><path class="cls-2" d="M703.61,16.26a.43.43,0,0,1,0-.86c10-.3,20.25-.39,30.31-.28a.44.44,0,1,1,0,.87h0c-10-.12-20.23,0-30.28.27Z"/><path class="cls-2" d="M690.1,29.66a.42.42,0,0,1-.43-.41.43.43,0,0,1,.41-.45c8.43-.3,17-.39,25.42-.27a.42.42,0,0,1,.42.43.43.43,0,0,1-.43.43h0c-8.42-.12-17,0-25.37.27Z"/><g class="cls-6"><path class="cls-2" d="M43.38,52.22l45.31.33A13.77,13.77,0,0,0,93.26,52c11-3.77,6.72-12.59,6-14.34-1.17-2.88-5.05-3.79-8-2.74s-5.09,3.49-7.13,5.84A13.6,13.6,0,0,0,77.72,27.2c-4.64-2.61-11.12-1.65-14.52,2.45-2.63,3.18-3.22,7.53-3.7,11.63-1.15-3-2.71-6-5.34-7.88s-6.57-2.19-8.94,0C42.59,35.82,42.9,40,43.4,43.53a4.67,4.67,0,0,0-6.76-.67,5.67,5.67,0,0,0-.74,7.06C37.3,52.08,39.89,52.19,43.38,52.22Z"/><path class="cls-2" d="M89.13,53h-.44l-45.32-.33c-3.21,0-6.25,0-7.83-2.5a6.13,6.13,0,0,1,.81-7.61,5.19,5.19,0,0,1,4.1-1.21,4.81,4.81,0,0,1,2.35.94c-.4-3.54-.26-7,2.13-9.19,2.68-2.47,6.88-1.86,9.47,0a15.35,15.35,0,0,1,4.87,6.53c.45-3.43,1.2-7.3,3.6-10.2a12.22,12.22,0,0,1,15.06-2.56A14,14,0,0,1,84.71,39.5c1.71-1.92,3.79-4,6.43-5,3.07-1.11,7.23-.18,8.52,3l.11.26c.63,1.48,2.29,5.41.64,9.11-1.1,2.46-3.46,4.32-7,5.54A13,13,0,0,1,89.13,53ZM43.38,51.79l45.32.33a13.15,13.15,0,0,0,4.42-.5c3.32-1.13,5.5-2.84,6.5-5.07,1.5-3.36-.06-7-.64-8.43a2.86,2.86,0,0,1-.12-.27c-1.1-2.69-4.73-3.46-7.43-2.49-2.89,1-5.05,3.52-7,5.71a.44.44,0,0,1-.76-.34,13.27,13.27,0,0,0-6.21-13.16C73,25,66.72,26.09,63.54,29.93c-2.64,3.18-3.18,7.74-3.61,11.4a.45.45,0,0,1-.38.38.43.43,0,0,1-.45-.28c-.9-2.36-2.42-5.72-5.19-7.68-2.35-1.65-6.13-2.12-8.39,0s-2.23,6-1.69,9.76a.43.43,0,0,1-.28.46.42.42,0,0,1-.51-.16,3.72,3.72,0,0,0-2.7-1.58,4.25,4.25,0,0,0-3.41,1,5.23,5.23,0,0,0-.66,6.5C37.5,51.6,39.78,51.76,43.38,51.79Z"/><g class="cls-3"><path class="cls-2" d="M98.6,46.63a1.57,1.57,0,0,0-1,.55l0,0a14,14,0,0,1-1.5.88c-3,1.86-6,1.48-11.62,1-4.07-.18-8.16.12-12.23-.23a56.35,56.35,0,0,0-6-.27c-2.64.11-5.28.1-7.92.16-4.87.08-11.71,1.13-15.31.63a27.64,27.64,0,0,1-3.8-.91c-.74-.16-1.45-.67-2.22-.6a1.27,1.27,0,0,0-.17,2.47,26.84,26.84,0,0,0,7.43,1.81c4.73.11,9.44-.61,14.18-.57,3.22,0,6.45,0,9.68,0,2.17.1,4.34.36,6.51.44,2.41.1,4.82,0,7.22,0a47,47,0,0,1,5.57.09,17.61,17.61,0,0,0,6.7-.61,15.93,15.93,0,0,0,5.26-3.15A1.05,1.05,0,0,0,98.6,46.63Z"/></g></g><g class="cls-6"><path class="cls-2" d="M259.74,326.72l34.42-.46c3.66-.05,7.48-.14,10.69-1.88a10.63,10.63,0,0,0,5.57-9.32,9.17,9.17,0,0,0-6.45-8.47,8.07,8.07,0,0,0-9.39,4.54c.18-6.58-5.62-12.84-12.2-12.8s-12.38,6.78-11.11,13.23c-1.12-3-4.72-4.58-7.88-4.05A11.9,11.9,0,0,0,255.8,313a11.32,11.32,0,0,0-2.12,7.57C254,323.17,255.83,326.77,259.74,326.72Z"/><path class="cls-2" d="M259.65,327.15c-4.37,0-6.08-4.12-6.4-6.58a11.81,11.81,0,0,1,2.19-7.86,12.3,12.3,0,0,1,7.88-5.62,8,8,0,0,1,7.34,2.6,11.68,11.68,0,0,1,2.75-7.24,11.94,11.94,0,0,1,9-4.55h.07a12.37,12.37,0,0,1,8.7,3.87,13.32,13.32,0,0,1,3.79,7.77,8.7,8.7,0,0,1,9.14-3.37,9.68,9.68,0,0,1,6.77,8.88,11.07,11.07,0,0,1-5.8,9.71c-3.37,1.83-7.36,1.88-10.88,1.93l-34.42.46Zm.09-.43Zm4.86-18.88a6.12,6.12,0,0,0-1.14.1,11.46,11.46,0,0,0-7.3,5.25,10.91,10.91,0,0,0-2.05,7.27c.28,2.17,1.77,5.83,5.55,5.83h.07l34.43-.46c3.42-.05,7.29-.1,10.48-1.83a10.19,10.19,0,0,0,5.35-8.92,8.79,8.79,0,0,0-6.14-8.08,7.67,7.67,0,0,0-8.87,4.28.43.43,0,0,1-.83-.17,12.23,12.23,0,0,0-3.61-8.74,11.55,11.55,0,0,0-8.15-3.61,11.07,11.07,0,0,0-8.31,4.23,10.35,10.35,0,0,0-2.39,8.49.43.43,0,0,1-.3.5.42.42,0,0,1-.52-.26C269.91,309.15,267.13,307.84,264.6,307.84Z"/><g class="cls-3"><path class="cls-2" d="M307.59,319.18a1.93,1.93,0,0,0-.76.51c-.28.21-.58.38-.87.56a22,22,0,0,1-2.07,1.26l-.14.06a39.09,39.09,0,0,1-4.5,1.28c-1.06.13-4.74,0-6.88.1-4.58.09-9.16.11-13.73.24a68.77,68.77,0,0,0-10.82.7c-4.6.35-6.14.55-9.54-.87l.16.06a17,17,0,0,0-2.23-1,1.42,1.42,0,0,0-.91,2.63,22,22,0,0,0,5.78,2.22c4.65.76,9.29-.62,14-.48,1.64,0,3.28.09,4.91.05,2.21-.08,4.42-.24,6.63-.28,3.29-.07,6.73-.28,9.17-.58a1.2,1.2,0,0,0,1.42,1.25,20.43,20.43,0,0,0,7.58-2.35c.54-.28,1.06-.58,1.59-.88.3-.2.68-.31.88-.62a1.13,1.13,0,0,0,.26-.81,11.17,11.17,0,0,0,1-.77,1.46,1.46,0,0,0,.61-1.1A1.23,1.23,0,0,0,307.59,319.18Z"/></g></g><path class="cls-2" d="M571.69,352.41l45.31.33a14,14,0,0,0,4.57-.51c11-3.77,6.72-12.59,6-14.35-1.17-2.87-5.05-3.78-8-2.73s-5.09,3.49-7.13,5.83A13.62,13.62,0,0,0,606,327.39c-4.65-2.61-11.13-1.65-14.52,2.46-2.64,3.17-3.23,7.52-3.71,11.62-1.15-3-2.71-6-5.34-7.88s-6.57-2.18-8.93,0c-2.64,2.43-2.33,6.59-1.83,10.13a4.67,4.67,0,0,0-6.76-.67,5.67,5.67,0,0,0-.74,7.06C565.61,352.28,568.2,352.38,571.69,352.41Z"/><path class="cls-2" d="M617.45,353.17H617l-45.32-.33c-3.21,0-6.25,0-7.83-2.49a6.15,6.15,0,0,1,.81-7.62,5.19,5.19,0,0,1,4.1-1.21,5,5,0,0,1,2.36,1c-.41-3.55-.27-7,2.12-9.2,2.68-2.47,6.88-1.86,9.48,0a15.39,15.39,0,0,1,4.86,6.53c.45-3.42,1.2-7.3,3.6-10.2A12.25,12.25,0,0,1,606.25,327,14,14,0,0,1,613,339.7c1.71-1.93,3.79-4,6.43-5,3.07-1.11,7.23-.17,8.52,3l.11.26c.63,1.48,2.29,5.42.64,9.12-1.1,2.46-3.46,4.32-7,5.53A13,13,0,0,1,617.45,353.17Zm-49.39-10.83a4.21,4.21,0,0,0-2.82,1,5.24,5.24,0,0,0-.66,6.51c1.24,1.92,3.51,2.07,7.11,2.1h0l45.32.33a13.41,13.41,0,0,0,4.42-.49c3.32-1.14,5.51-2.84,6.5-5.07,1.5-3.36-.06-7.05-.64-8.43,0-.11-.08-.2-.12-.27-1.1-2.7-4.73-3.47-7.43-2.5-2.89,1-5,3.53-7,5.71a.43.43,0,0,1-.51.11.42.42,0,0,1-.24-.45,13.26,13.26,0,0,0-6.22-13.15c-4.52-2.54-10.79-1.49-14,2.35-2.64,3.18-3.18,7.74-3.61,11.4a.44.44,0,0,1-.38.38.42.42,0,0,1-.45-.27c-.9-2.36-2.41-5.73-5.19-7.68-2.35-1.66-6.13-2.13-8.39,0s-2.23,6-1.69,9.75a.43.43,0,0,1-.79.3,3.73,3.73,0,0,0-2.7-1.58A4,4,0,0,0,568.06,342.34Z"/><g class="cls-3"><path class="cls-2" d="M626.13,347.47c-.46,0-.79.3-1.17.51a14.33,14.33,0,0,1-1.57.78l-.13.05c-2.7,1.09-6.09.68-10.43.59-6.72-.36-13.71-.9-20.41-.64a134,134,0,0,1-13.59.26,81.2,81.2,0,0,1-10.23.06c-1.6-.25-1.55-.14-2.16-.74a3,3,0,0,1-.47-.59,1.3,1.3,0,0,0-.76-.58,1.28,1.28,0,0,0-1.43,1.86,6.16,6.16,0,0,0,1.9,2,8.16,8.16,0,0,0,2.38.75c3.25.82,6.34.69,10.45.48,3.49,0,7-.05,10.48-.2a.93.93,0,0,0,.8.4,46.89,46.89,0,0,0,4.89.1c2.93.06,5.85-.21,8.77-.15s5.79.45,8.7.4a1.06,1.06,0,0,0,1-.78c2.51,0,5,.37,7.51,0a13.67,13.67,0,0,0,5.2-1.66c.55-.34,1.26-.61,1.45-1.28A1.28,1.28,0,0,0,626.13,347.47Z"/></g><path class="cls-5" d="M1096.47,145.18h0a.44.44,0,0,1-.43-.44l.2-15.11a.43.43,0,0,1,.43-.43h0a.42.42,0,0,1,.42.44l-.2,15.12A.42.42,0,0,1,1096.47,145.18Z"/><path class="cls-5" d="M1105.09,145.18h0a.42.42,0,0,1-.42-.44l.2-11.92a.43.43,0,1,1,.86,0l-.2,11.93A.43.43,0,0,1,1105.09,145.18Z"/><path class="cls-5" d="M1121.51,145.18h0a.43.43,0,0,1-.42-.44l.2-11.92a.44.44,0,0,1,.44-.43.43.43,0,0,1,.42.44l-.2,11.93A.42.42,0,0,1,1121.51,145.18Z"/><path class="cls-5" d="M1113.71,145.18h0a.42.42,0,0,1-.42-.44l.2-18.1a.42.42,0,0,1,.43-.42h0a.43.43,0,0,1,.43.43l-.2,18.1A.43.43,0,0,1,1113.71,145.18Z"/><path class="cls-5" d="M1087.57,145.18h0a.42.42,0,0,1-.42-.44l.2-10a.42.42,0,0,1,.43-.42h0a.43.43,0,0,1,.42.44l-.2,10A.44.44,0,0,1,1087.57,145.18Z"/><path class="cls-2" d="M1071.57,88.33l45.31.33a13.77,13.77,0,0,0,4.57-.52c11-3.77,6.72-12.59,6-14.34-1.17-2.88-5-3.79-8-2.73s-5.09,3.48-7.13,5.83a13.61,13.61,0,0,0-6.43-13.59c-4.64-2.61-11.12-1.65-14.52,2.45-2.63,3.18-3.22,7.53-3.7,11.63-1.15-3-2.71-6-5.34-7.88s-6.57-2.18-8.94,0c-2.63,2.43-2.32,6.59-1.82,10.13a4.67,4.67,0,0,0-6.76-.67,5.67,5.67,0,0,0-.74,7.06C1065.49,88.19,1068.08,88.3,1071.57,88.33Z"/><path class="cls-2" d="M1117.32,89.09h-.44l-45.32-.33c-3.21,0-6.25-.05-7.83-2.5a6.13,6.13,0,0,1,.81-7.61,5.19,5.19,0,0,1,4.1-1.21,5,5,0,0,1,2.35.94c-.4-3.54-.26-7,2.13-9.19,2.68-2.47,6.88-1.86,9.47,0a15.35,15.35,0,0,1,4.87,6.53c.45-3.43,1.2-7.3,3.6-10.2a12.24,12.24,0,0,1,15.06-2.56,14,14,0,0,1,6.78,12.68c1.71-1.92,3.79-4,6.43-5,3.07-1.11,7.23-.18,8.52,3l.11.26c.63,1.48,2.29,5.42.64,9.12-1.1,2.45-3.46,4.32-7,5.53A13,13,0,0,1,1117.32,89.09Zm-45.75-1.19,45.32.33a13.41,13.41,0,0,0,4.42-.49c3.32-1.14,5.5-2.85,6.5-5.08,1.5-3.35-.06-7-.64-8.43a2.86,2.86,0,0,1-.12-.27c-1.1-2.69-4.73-3.46-7.43-2.49-2.89,1-5,3.52-6.95,5.71a.43.43,0,0,1-.51.11.44.44,0,0,1-.25-.45,13.28,13.28,0,0,0-6.21-13.16c-4.52-2.54-10.79-1.48-14,2.36-2.64,3.18-3.18,7.74-3.61,11.4a.45.45,0,0,1-.38.38.45.45,0,0,1-.46-.28c-.89-2.36-2.41-5.72-5.18-7.67-2.35-1.66-6.13-2.13-8.39,0s-2.23,6-1.69,9.75a.45.45,0,0,1-.28.47.43.43,0,0,1-.51-.17,3.75,3.75,0,0,0-2.7-1.58,4.25,4.25,0,0,0-3.41,1,5.24,5.24,0,0,0-.66,6.51C1065.69,87.72,1068,87.87,1071.57,87.9Z"/><g class="cls-3"><path class="cls-2" d="M1126.79,82.74a1.63,1.63,0,0,0-1,.56l0,0a12.52,12.52,0,0,1-1.5.88c-3,1.87-6,1.48-11.62,1-4.07-.18-8.16.12-12.23-.23a56.35,56.35,0,0,0-6-.27c-2.64.11-5.28.1-7.92.16-4.87.08-11.71,1.13-15.31.63a27.64,27.64,0,0,1-3.8-.91,8,8,0,0,0-2.22-.6,1.27,1.27,0,0,0-.17,2.47,26.84,26.84,0,0,0,7.43,1.81c4.73.11,9.44-.61,14.18-.57,3.22,0,6.45,0,9.68,0,2.17.09,4.34.35,6.51.43,2.41.1,4.82,0,7.22,0a47,47,0,0,1,5.57.09,17.22,17.22,0,0,0,6.7-.61,15.93,15.93,0,0,0,5.26-3.15A1.05,1.05,0,0,0,1126.79,82.74Z"/></g></g></g></g></svg>