<svg xmlns="http://www.w3.org/2000/svg" viewBox="0 0 987.75 371.33"><defs><style>.cls-1{fill:#3aa1ff;}.cls-2{fill:#0073c8;}.cls-3{opacity:0.13;}.cls-4{fill:#002760;}.cls-5{fill:#808184;}</style></defs><g id="Layer_2" data-name="Layer 2"><g id="Layer_1-2" data-name="Layer 1"><rect class="cls-1" x="317.26" y="281.94" width="8.78" height="36.21"/><path class="cls-2" d="M316.83,318.15V281.94a.43.43,0,0,1,.43-.43H326a.43.43,0,0,1,.43.43v36.21a.43.43,0,0,1-.43.43h-8.78A.43.43,0,0,1,316.83,318.15Zm8.78-35.78h-7.92v35.35h7.92Z"/><rect class="cls-1" x="298.45" y="269.92" width="8.78" height="36.21"/><path class="cls-2" d="M298,306.14V269.92a.44.44,0,0,1,.44-.43h8.78a.43.43,0,0,1,.43.43v36.22a.44.44,0,0,1-.43.43h-8.78A.44.44,0,0,1,298,306.14Zm8.79-35.79h-7.92V305.7h7.92Z"/><rect class="cls-1" x="279.32" y="276.74" width="8.78" height="36.21"/><path class="cls-2" d="M278.89,313V276.75a.44.44,0,0,1,.43-.44h8.78a.44.44,0,0,1,.43.44V313a.43.43,0,0,1-.43.43h-8.78A.43.43,0,0,1,278.89,313Zm8.78-35.78h-7.92v35.35h7.92Z"/><path class="cls-1" d="M310.22,328l-51.15.57c-4.68.06-9.42.1-14-1s-9-3.46-11.59-7.34-3.06-9.4-.27-13.16a11.55,11.55,0,0,1,10-4.22c3.76.24,5.21,1.16,8.15,3.51a13.14,13.14,0,0,1-1-5.87,12,12,0,0,1,3.15-6.9,17.81,17.81,0,0,1,31.05,8.9c1.71-6.61,10-10.33,16.35-7.75s9.71,10.4,7.9,17c1.49-2.85,5.1-4.2,8.26-3.57a11.83,11.83,0,0,1,7.48,5.64,8.07,8.07,0,0,1,1.4,5c-.34,2.89-2.93,5-5.53,6.3A28.18,28.18,0,0,1,310.22,328Z"/><path class="cls-2" d="M245,328c-5.21-1.25-9.41-3.92-11.85-7.51-2.87-4.25-3-10-.26-13.66a11.89,11.89,0,0,1,10.36-4.4,11.43,11.43,0,0,1,7.3,2.75,11.42,11.42,0,0,1-.56-4.71,12.72,12.72,0,0,1,3.25-7.16,18.24,18.24,0,0,1,31.49,7.56,12.15,12.15,0,0,1,5.79-5.91,13.08,13.08,0,0,1,10.61-.61,13.73,13.73,0,0,1,7.23,7.21,15.59,15.59,0,0,1,1.31,8.36,8.44,8.44,0,0,1,7.54-2.19,12.17,12.17,0,0,1,7.76,5.85,8.3,8.3,0,0,1,1.46,5.27c-.37,3.25-3.33,5.4-5.75,6.63a28.79,28.79,0,0,1-10.45,3l-51.16.56q-1.47,0-3,0A47.73,47.73,0,0,1,245,328Zm64.25-16.07a.43.43,0,0,1-.54.2.45.45,0,0,1-.26-.52c1.8-6.5-1.71-14-7.65-16.46a12.21,12.21,0,0,0-9.9.58A11,11,0,0,0,285,302.6a.44.44,0,0,1-.44.32.44.44,0,0,1-.41-.37,17.37,17.37,0,0,0-30.3-8.68,11.8,11.8,0,0,0-3,6.65,11.62,11.62,0,0,0,.77,5.19l.16.52a.44.44,0,0,1-.16.49.45.45,0,0,1-.52,0c-2.94-2.35-4.29-3.19-7.91-3.42a11,11,0,0,0-9.6,4.05c-2.52,3.39-2.4,8.71.28,12.66,2.31,3.42,6.34,6,11.33,7.16,4.53,1.09,9.27,1,13.86,1l51.16-.57a27.92,27.92,0,0,0,10.07-2.86c2.23-1.13,5-3.09,5.29-6a7.57,7.57,0,0,0-1.34-4.72,11.32,11.32,0,0,0-7.2-5.45,7.51,7.51,0,0,0-7.79,3.35Z"/><g class="cls-3"><path class="cls-2" d="M238.72,323l.07,0a27.14,27.14,0,0,0,3.58.89c3,.63,8.18.51,12.33.61,1.92,0,3.85.22,5.77.08,2.79-.24,5.6-.15,8.4-.19,5.28-.1,10.55-.18,15.83-.13,3.33,0,6.66.27,10,0s6.79-.09,10.19-.13c2.19-.18,4.4-.17,6.6-.28,1-.07,2.47-.44,5.34-1,1-.22,2-.37,2.93-.6a2.14,2.14,0,0,1,1.72,0,1.52,1.52,0,0,1-.36,2.74c-2.89.59-5.7,1.41-8.5,2a32.68,32.68,0,0,1-4.53.26c-1.48.08-3,.26-4.44.25-4,0-8,.12-12,.26-2.57,0-5.14-.17-7.71-.21a1.11,1.11,0,0,1-1.08,1.37l-17.19-.36a118.32,118.32,0,0,1-12.35,0,50.76,50.76,0,0,1-7.19-.58,11.91,11.91,0,0,1-2-.57,1.48,1.48,0,0,1-1-.72c-2.68-.39-5.82-1.13-6.5-2.58C236.45,322.88,237.73,322.31,238.72,323Z"/></g><polygon class="cls-4" points="278.69 342.77 267.43 357.96 256.16 342.77 262.5 342.77 262.08 300.67 271.93 300.67 272.35 342.77 278.69 342.77"/><path class="cls-2" d="M267.08,358.22,255.82,343a.41.41,0,0,1,0-.45.42.42,0,0,1,.38-.24h5.91l-.42-41.66a.44.44,0,0,1,.44-.44h9.84a.43.43,0,0,1,.43.43l.42,41.67h5.91a.42.42,0,0,1,.38.24.43.43,0,0,1,0,.45l-11.27,15.19a.44.44,0,0,1-.69,0Zm5.27-15a.42.42,0,0,1-.43-.42l-.42-41.68h-9l.41,41.67a.42.42,0,0,1-.12.31.43.43,0,0,1-.31.12H257l10.41,14,10.4-14Z"/><path class="cls-2" d="M299.68,292a.14.14,0,0,0,.1,0c2.1-2.17,4.17-4.43,6.16-6.7a.15.15,0,0,0,0-.21.16.16,0,0,0-.21,0c-2,2.27-4.05,4.52-6.15,6.69a.14.14,0,0,0,0,.2A.12.12,0,0,0,299.68,292Z"/><path class="cls-2" d="M299.79,288.58a.16.16,0,0,0,.1-.05c2-2.16,4.07-4.4,6-6.64a.14.14,0,0,0,0-.2.15.15,0,0,0-.21,0c-1.95,2.24-4,4.47-6,6.64a.14.14,0,0,0,0,.2A.13.13,0,0,0,299.79,288.58Z"/><path class="cls-2" d="M299.81,284.78a.14.14,0,0,0,.1,0c2-1.95,4-4,5.84-6.14a.13.13,0,0,0,0-.2.14.14,0,0,0-.2,0c-1.85,2.12-3.81,4.18-5.83,6.12a.15.15,0,0,0,0,.21A.21.21,0,0,0,299.81,284.78Z"/><path class="cls-2" d="M299.92,281.39a.16.16,0,0,0,.11-.05c1.86-2.12,3.81-4.21,5.8-6.2a.14.14,0,1,0-.2-.2c-2,2-4,4.08-5.82,6.21a.14.14,0,0,0,0,.2A.11.11,0,0,0,299.92,281.39Z"/><path class="cls-2" d="M300,277.51a.14.14,0,0,0,.1-.05c1.79-1.9,3.67-3.75,5.59-5.51a.14.14,0,0,0,0-.2.13.13,0,0,0-.2,0c-1.93,1.76-3.82,3.62-5.61,5.53a.14.14,0,0,0,0,.2A.18.18,0,0,0,300,277.51Z"/><path class="cls-2" d="M300.2,274.1a.13.13,0,0,0,.1,0c.71-.79,1.46-1.56,2.23-2.29a.14.14,0,0,0,0-.2.15.15,0,0,0-.21,0c-.77.74-1.52,1.51-2.24,2.3a.15.15,0,0,0,0,.21A.17.17,0,0,0,300.2,274.1Z"/><path class="cls-2" d="M302.24,293.15a.16.16,0,0,0,.1,0c1.13-1.22,2.25-2.47,3.33-3.73a.13.13,0,0,0,0-.2.14.14,0,0,0-.2,0c-1.08,1.26-2.2,2.51-3.33,3.73a.14.14,0,0,0,0,.2A.13.13,0,0,0,302.24,293.15Z"/><path class="cls-2" d="M304.16,294.83a.16.16,0,0,0,.11-.05l1.55-1.83a.16.16,0,0,0,0-.21.14.14,0,0,0-.2,0l-1.55,1.83a.14.14,0,0,0,0,.2A.12.12,0,0,0,304.16,294.83Z"/><g class="cls-3"><path class="cls-2" d="M318.47,305.91a2.54,2.54,0,0,1,1.41.18,9.68,9.68,0,0,1,4.92,3.58c.66,1.06,2.12,2.45,1.47,3.78a1.44,1.44,0,0,1-2.63-.59,10.92,10.92,0,0,0-1.89-2.33,9.12,9.12,0,0,0-2.85-1.68,3.17,3.17,0,0,0-.43-.13,1.46,1.46,0,0,1,0-2.81Z"/></g><g class="cls-3"><path class="cls-2" d="M299.66,291.61c1-.18,1.89.53,2.78.84a12.89,12.89,0,0,1,4.48,3c.4.6,1.05,1.13,1.16,1.87a1.43,1.43,0,0,1-2.64.91c-.83-1.47-2.9-2.7-5.8-4A1.37,1.37,0,0,1,299.66,291.61Z"/></g><g class="cls-3"><path class="cls-2" d="M280.09,290.33a9.62,9.62,0,0,1,3.39,2.86,11.57,11.57,0,0,1,1.78,2.6,5,5,0,0,1,.4-.4,2.89,2.89,0,0,1,1.39-.8,1.48,1.48,0,0,1,.94,2.73l-.31.2-.07.06c-.61.65-.28.16-.82,1.15l-.21.45a2.45,2.45,0,0,1-.43.78,1.42,1.42,0,0,1-2.22-.3c-.32-.63-.43-1.33-.7-2v0a1,1,0,0,0-.07-.15,13.62,13.62,0,0,0-3.17-4.12,10.13,10.13,0,0,0-1-.79,1.3,1.3,0,0,1-.5-.87A1.27,1.27,0,0,1,280.09,290.33Z"/></g><rect class="cls-1" x="850.38" y="0.43" width="10.29" height="43.05"/><path class="cls-2" d="M860.67,43.92H850.38a.44.44,0,0,1-.43-.44V.43a.43.43,0,0,1,.43-.43h10.29a.43.43,0,0,1,.43.43V43.48A.44.44,0,0,1,860.67,43.92Zm-9.86-.87h9.43V.86h-9.43Z"/><rect class="cls-1" x="815.77" y="25.54" width="10.29" height="17.94"/><path class="cls-2" d="M826.06,43.92H815.77a.44.44,0,0,1-.43-.44V25.54a.44.44,0,0,1,.43-.43h10.29a.44.44,0,0,1,.44.43V43.48A.44.44,0,0,1,826.06,43.92Zm-9.86-.87h9.43V26H816.2Z"/><rect class="cls-4" x="867.1" y="15.34" width="10.29" height="28.15"/><path class="cls-2" d="M877.39,43.92H867.1a.44.44,0,0,1-.43-.44V15.34a.43.43,0,0,1,.43-.43h10.29a.43.43,0,0,1,.43.43V43.48A.44.44,0,0,1,877.39,43.92Zm-9.86-.87H877V15.77h-9.43Z"/><rect class="cls-1" x="833.66" y="10.62" width="10.29" height="32.87"/><path class="cls-2" d="M844,43.92H833.66a.44.44,0,0,1-.43-.44V10.62a.43.43,0,0,1,.43-.43H844a.43.43,0,0,1,.43.43V43.48A.44.44,0,0,1,844,43.92Zm-9.86-.87h9.43v-32h-9.43Z"/><path class="cls-2" d="M836.89,42a.11.11,0,0,1-.08,0,20.23,20.23,0,0,1-1.89-1.55.13.13,0,0,1,0-.2.14.14,0,0,1,.2,0A21.13,21.13,0,0,0,837,41.73a.15.15,0,0,1,0,.2A.14.14,0,0,1,836.89,42Z"/><path class="cls-2" d="M840.29,41.92a.17.17,0,0,1-.1,0L835,37.55a.15.15,0,1,1,.19-.22l5.2,4.34a.14.14,0,0,1,0,.2A.13.13,0,0,1,840.29,41.92Z"/><path class="cls-2" d="M842.43,40l-.09,0L835,34.4a.14.14,0,0,1,0-.2.14.14,0,0,1,.2,0l7.35,5.59a.14.14,0,0,1,0,.2A.13.13,0,0,1,842.43,40Z"/><path class="cls-2" d="M842.52,36.67l-.08,0c-2.54-1.67-5.05-3.48-7.44-5.36a.14.14,0,0,1,0-.2.15.15,0,0,1,.2,0c2.39,1.88,4.88,3.68,7.42,5.35a.15.15,0,0,1-.08.27Z"/><path class="cls-2" d="M842.43,33.2l-.09,0c-2.47-1.7-4.93-3.49-7.33-5.31a.17.17,0,0,1,0-.21.15.15,0,0,1,.21,0c2.39,1.82,4.85,3.6,7.32,5.31a.14.14,0,0,1,0,.2A.13.13,0,0,1,842.43,33.2Z"/><path class="cls-2" d="M842.38,29.71l-.08,0-7.4-5.19a.14.14,0,0,1,0-.2.14.14,0,0,1,.2,0l7.4,5.19a.14.14,0,0,1-.09.26Z"/><path class="cls-2" d="M842.42,26.48a.11.11,0,0,1-.08,0c-2.52-1.66-5-3.42-7.41-5.22a.16.16,0,0,1,0-.21.14.14,0,0,1,.2,0c2.4,1.8,4.89,3.55,7.4,5.21a.16.16,0,0,1,0,.2A.17.17,0,0,1,842.42,26.48Z"/><path class="cls-2" d="M842.19,22.69l-.08,0-7-5.05a.14.14,0,0,1,0-.2.14.14,0,0,1,.2,0l7,5a.15.15,0,0,1,0,.2A.14.14,0,0,1,842.19,22.69Z"/><path class="cls-2" d="M842.16,19.31a.11.11,0,0,1-.08,0c-2.34-1.64-4.69-3.35-7-5.08a.14.14,0,1,1,.17-.22c2.28,1.72,4.63,3.43,7,5.06a.14.14,0,0,1,0,.2A.15.15,0,0,1,842.16,19.31Z"/><path class="cls-2" d="M842.42,16.18a.14.14,0,0,1-.09,0l-4.73-3.59a.14.14,0,0,1,0-.2.14.14,0,0,1,.2,0l4.73,3.59a.14.14,0,0,1,0,.2A.14.14,0,0,1,842.42,16.18Z"/><path class="cls-2" d="M842.41,13.17l-.09,0-1.21-1a.14.14,0,0,1,0-.2.15.15,0,0,1,.21,0l1.21,1a.14.14,0,0,1,0,.2A.16.16,0,0,1,842.41,13.17Z"/><path class="cls-2" d="M45.48,333.72a.43.43,0,0,1,.26.09.42.42,0,0,1,.08.6l-25.6,33.52a.44.44,0,0,1-.61.08.45.45,0,0,1-.08-.61l25.61-33.51A.42.42,0,0,1,45.48,333.72Z"/><path class="cls-2" d="M6.2,328.72a.43.43,0,0,1,.4.28l14,37.51a.44.44,0,0,1-.26.56.43.43,0,0,1-.55-.25l-14-37.51a.43.43,0,0,1,.26-.56Z"/><path class="cls-1" d="M1.66,324.13A4.78,4.78,0,1,1,2,330.87,4.78,4.78,0,0,1,1.66,324.13Z"/><path class="cls-2" d="M5.21,322.13a5.18,5.18,0,0,1,5.19,4.95,5.2,5.2,0,0,1-4.94,5.45,5.13,5.13,0,0,1-3.75-1.34A5.21,5.21,0,0,1,5,322.13Zm0,9.55h.22a4.25,4.25,0,0,0,3-1.42A4.35,4.35,0,0,0,5,323a4.35,4.35,0,0,0-2.7,7.56A4.3,4.3,0,0,0,5.2,331.68Z"/><path class="cls-4" d="M15.54,365.23a4.77,4.77,0,1,1,3.8,5.58A4.77,4.77,0,0,1,15.54,365.23Z"/><path class="cls-2" d="M20.22,360.91a5.41,5.41,0,0,1,1,.09,5.21,5.21,0,1,1-5.27,8.05,5.21,5.21,0,0,1,4.29-8.14Zm0,9.55A4.34,4.34,0,1,0,16,365.31h0a4.35,4.35,0,0,0,3.46,5.08A4.59,4.59,0,0,0,20.23,370.46Z"/><path class="cls-1" d="M43.08,330.91a4.77,4.77,0,1,1,3.8,5.58A4.77,4.77,0,0,1,43.08,330.91Z"/><path class="cls-2" d="M47.77,326.59a5.39,5.39,0,0,1,1,.09,5.21,5.21,0,0,1-1.94,10.24,5.23,5.23,0,0,1-4.15-6.09h0A5.22,5.22,0,0,1,47.77,326.59Zm0,9.56A4.35,4.35,0,1,0,43.5,331,4.35,4.35,0,0,0,47,336.07,4.45,4.45,0,0,0,47.77,336.15Zm-4.69-5.24h0Z"/><path class="cls-2" d="M46.48,328.7a.21.21,0,0,1,.11,0,.17.17,0,0,1,0,.21,25.47,25.47,0,0,0-2,2.27.14.14,0,0,1-.2,0,.14.14,0,0,1,0-.2,24.56,24.56,0,0,1,2-2.31A.21.21,0,0,1,46.48,328.7Z"/><path class="cls-2" d="M48.88,328.82a.14.14,0,0,1,.1.05.14.14,0,0,1,0,.2,51.37,51.37,0,0,0-3.57,4.1.14.14,0,1,1-.22-.18,50.07,50.07,0,0,1,3.58-4.12A.16.16,0,0,1,48.88,328.82Z"/><path class="cls-2" d="M50.36,330.09a.14.14,0,0,1,.1,0,.13.13,0,0,1,0,.2c-1.39,1.48-2.74,3.05-4,4.65a.15.15,0,0,1-.23-.18c1.26-1.6,2.61-3.18,4-4.67A.15.15,0,0,1,50.36,330.09Z"/><path class="cls-2" d="M51,332.22a.17.17,0,0,1,.1,0,.14.14,0,0,1,0,.2c-.72.84-1.49,1.65-2.28,2.42a.15.15,0,0,1-.2,0,.14.14,0,0,1,0-.21c.78-.76,1.54-1.56,2.27-2.39A.1.1,0,0,1,51,332.22Z"/><rect class="cls-4" x="962.35" y="105.45" width="24.97" height="18.3"/><path class="cls-2" d="M987.32,124.18h-25a.43.43,0,0,1-.43-.43v-18.3a.43.43,0,0,1,.43-.43h25a.43.43,0,0,1,.43.43v18.3A.43.43,0,0,1,987.32,124.18Zm-24.54-.86h24.11V105.88H962.78Z"/><rect class="cls-1" x="939.04" y="59.71" width="24.97" height="18.3"/><path class="cls-2" d="M964,78.44H939a.43.43,0,0,1-.43-.43V59.71a.43.43,0,0,1,.43-.43h25a.43.43,0,0,1,.43.43V78A.43.43,0,0,1,964,78.44Zm-24.54-.87h24.11V60.14H939.47Z"/><rect class="cls-1" x="915.73" y="105.45" width="24.97" height="18.3"/><path class="cls-2" d="M940.7,124.18h-25a.43.43,0,0,1-.43-.43v-18.3a.43.43,0,0,1,.43-.43h25a.44.44,0,0,1,.43.43v18.3A.43.43,0,0,1,940.7,124.18Zm-24.54-.86h24.1V105.88h-24.1Z"/><path class="cls-2" d="M951.23,94.88a.43.43,0,0,1-.43-.43c0-2.16,0-4.81,0-7.61,0-3,0-6.06,0-8.72a.44.44,0,0,1,.43-.44h0a.43.43,0,0,1,.43.43c0,2.66,0,5.75,0,8.73,0,2.8,0,5.45,0,7.6a.44.44,0,0,1-.43.44Z"/><path class="cls-2" d="M975.78,105.64h0a.42.42,0,0,1-.42-.44c.06-3,.08-6.07,0-9.08a2.28,2.28,0,0,0-.11-.84c-.11-.26-.15-.3-.39-.31-10.12-.25-21.48-.12-31.51,0-5.2.06-10.12.12-14.46.12h0a.55.55,0,0,0-.42.22,1.69,1.69,0,0,0-.12.73c-.06,2.93,0,5.9.06,8.83a.43.43,0,0,1-.41.45.43.43,0,0,1-.45-.42c-.1-2.94-.12-5.93-.06-8.87a2.17,2.17,0,0,1,.24-1.15,1.39,1.39,0,0,1,1.21-.66c4.34,0,9.25,0,14.44-.11,10-.11,21.41-.24,31.54,0a1.18,1.18,0,0,1,1.16.83,3,3,0,0,1,.18,1.17c0,3,0,6.09,0,9.11A.44.44,0,0,1,975.78,105.64Z"/><path class="cls-2" d="M917.1,110.35a.16.16,0,0,1-.09,0,.14.14,0,0,1,0-.2l2.71-3.47a.15.15,0,0,1,.23.18l-2.71,3.47A.17.17,0,0,1,917.1,110.35Z"/><path class="cls-2" d="M917.52,113.67l-.09,0a.15.15,0,0,1,0-.2c1.59-2.23,3.26-4.44,5-6.57a.14.14,0,1,1,.22.18c-1.71,2.13-3.38,4.33-5,6.56A.16.16,0,0,1,917.52,113.67Z"/><path class="cls-2" d="M917.59,117.27a.18.18,0,0,1-.09,0,.14.14,0,0,1,0-.2l8.09-10.15a.14.14,0,1,1,.22.18l-8.09,10.15A.13.13,0,0,1,917.59,117.27Z"/><path class="cls-2" d="M917.35,121.9a.17.17,0,0,1-.1,0,.14.14,0,0,1,0-.2c4.09-4.73,8.08-9.64,11.88-14.6a.14.14,0,1,1,.22.18c-3.79,5-7.79,9.88-11.88,14.6A.13.13,0,0,1,917.35,121.9Z"/><path class="cls-2" d="M920.62,122.56a.12.12,0,0,1-.09,0,.13.13,0,0,1,0-.2c4.17-5,8.43-10.14,12.66-15.14a.15.15,0,0,1,.21,0,.14.14,0,0,1,0,.2c-4.23,5-8.49,10.09-12.66,15.14A.13.13,0,0,1,920.62,122.56Z"/><path class="cls-2" d="M924.11,122.55a.17.17,0,0,1-.1,0,.15.15,0,0,1,0-.21L936.51,107a.14.14,0,1,1,.22.18L924.22,122.5A.16.16,0,0,1,924.11,122.55Z"/><path class="cls-2" d="M928.1,122.57a.16.16,0,0,1-.09,0,.14.14,0,0,1,0-.2c3.55-4.72,7.32-9.37,11.19-13.82a.14.14,0,0,1,.2,0,.14.14,0,0,1,0,.21c-3.86,4.44-7.62,9.09-11.17,13.8A.14.14,0,0,1,928.1,122.57Z"/><path class="cls-2" d="M931.82,122.57a.12.12,0,0,1-.09,0,.16.16,0,0,1,0-.21c2.42-3.17,4.95-6.32,7.54-9.35a.14.14,0,0,1,.2,0,.16.16,0,0,1,0,.21c-2.59,3-5.12,6.17-7.53,9.34A.14.14,0,0,1,931.82,122.57Z"/><path class="cls-2" d="M935.34,122.58a.16.16,0,0,1-.09,0,.14.14,0,0,1,0-.2c1.17-1.49,2.42-2.94,3.73-4.31a.14.14,0,1,1,.21.19c-1.3,1.37-2.55,2.82-3.72,4.3A.13.13,0,0,1,935.34,122.58Z"/><path class="cls-2" d="M938.41,122.65a.13.13,0,0,1-.1,0,.13.13,0,0,1,0-.2l.81-1a.14.14,0,0,1,.2,0,.15.15,0,0,1,0,.21l-.8,1A.16.16,0,0,1,938.41,122.65Z"/><ellipse class="cls-1" cx="784.84" cy="93.1" rx="30.12" ry="29.24" transform="translate(51.46 387.71) rotate(-28.65)"/><path class="cls-4" d="M784,123a30,30,0,0,1-14.88-3.91,28.76,28.76,0,0,1-13.73-17.87,29.51,29.51,0,0,1,3.43-22.89C767.5,64,786.19,59,800.52,67.15A28.74,28.74,0,0,1,814.26,85a29.55,29.55,0,0,1-3.43,22.89A31.37,31.37,0,0,1,784,123Zm1.6-58.87a30.5,30.5,0,0,0-26,14.65A28.7,28.7,0,0,0,756.26,101a27.91,27.91,0,0,0,13.33,17.33c13.92,7.93,32.09,3.06,40.5-10.85a28.7,28.7,0,0,0,3.33-22.23A27.87,27.87,0,0,0,800.09,67.9,29.06,29.06,0,0,0,785.64,64.1Z"/><path class="cls-1" d="M809,75.15c-3.88,2.32-7.77,4.64-11.64,7-5.82,3.55-11.48,7.85-17.16,11.63C783.48,97,794.73,107.72,799,112l4,4.08a30.61,30.61,0,0,0,7.47-8.38A28.94,28.94,0,0,0,809,75.15Z"/><path class="cls-4" d="M803,116.49a.43.43,0,0,1-.31-.13q-2-2-4-4.07c-2.49-2.52-7.42-7.26-11.76-11.44-3-2.92-5.64-5.44-7-6.76a.45.45,0,0,1-.13-.35.51.51,0,0,1,.19-.32c2.14-1.42,4.32-3,6.42-4.43,3.5-2.45,7.12-5,10.76-7.21,3.91-2.38,7.84-4.73,11.64-7a.43.43,0,0,1,.57.11,29.33,29.33,0,0,1,1.47,33,31,31,0,0,1-7.58,8.49A.41.41,0,0,1,803,116.49Zm-22.1-22.64c1.42,1.39,3.84,3.72,6.6,6.38,4.35,4.18,9.27,8.93,11.77,11.45l3.77,3.8a30.07,30.07,0,0,0,7.06-8,28.47,28.47,0,0,0-1.19-31.74c-3.7,2.21-7.51,4.49-11.3,6.8-3.62,2.2-7.22,4.73-10.71,7.18C784.92,91.08,782.9,92.5,780.89,93.85Z"/><path class="cls-4" d="M780.21,93.78Q787,89.91,794,86.39,800.63,83,807.42,80c1.22-.55,2.45-1.1,3.69-1.64a28.52,28.52,0,0,0-10.8-10.84A29.66,29.66,0,0,0,786,63.66c-1,4.65-1.83,9.31-2.75,14C782.22,83,781.21,88.39,780.21,93.78Z"/><path class="cls-4" d="M780.21,94.21a.39.39,0,0,1-.25-.08.43.43,0,0,1-.17-.43c.94-5.1,2-10.59,3.07-16.17.32-1.61.63-3.22.94-4.84.58-3,1.18-6.08,1.81-9.12a.45.45,0,0,1,.42-.34,30.12,30.12,0,0,1,14.49,3.92,29.06,29.06,0,0,1,11,11,.43.43,0,0,1,0,.35.4.4,0,0,1-.23.26c-1.06.46-2.11.94-3.16,1.41l-.52.23c-4.51,2-9,4.17-13.43,6.38s-9.07,4.73-13.74,7.39A.54.54,0,0,1,780.21,94.21Zm6.17-30.11c-.6,2.92-1.18,5.88-1.73,8.76-.32,1.61-.63,3.23-.95,4.84-1,5.25-2,10.41-2.9,15.25,4.41-2.5,8.78-4.83,13-7,4.41-2.22,8.94-4.37,13.46-6.4l.53-.23,2.72-1.22a28.1,28.1,0,0,0-10.4-10.25A29.18,29.18,0,0,0,786.38,64.1Z"/><path class="cls-4" d="M784.59,95.48l-.07,0a.15.15,0,0,1,0-.2l1.71-2.86a.15.15,0,1,1,.25.15l-1.72,2.86A.14.14,0,0,1,784.59,95.48Z"/><path class="cls-4" d="M787,97.93l-.07,0a.14.14,0,0,1-.06-.19l4.59-8a.13.13,0,0,1,.19-.05.15.15,0,0,1,.06.19l-4.59,8A.15.15,0,0,1,787,97.93Z"/><path class="cls-4" d="M789.85,100.42l-.06,0a.14.14,0,0,1-.07-.19c2.2-4.18,4.35-8.45,6.39-12.7a.15.15,0,0,1,.2-.06.14.14,0,0,1,.06.19c-2,4.25-4.19,8.52-6.39,12.7A.16.16,0,0,1,789.85,100.42Z"/><path class="cls-4" d="M792.47,103.33l-.06,0a.13.13,0,0,1-.07-.19l8.46-17.66a.14.14,0,0,1,.26.12l-8.46,17.66A.15.15,0,0,1,792.47,103.33Z"/><path class="cls-4" d="M795.48,106l-.06,0a.13.13,0,0,1-.08-.18l10.17-22.59a.14.14,0,0,1,.26.12L795.61,106A.15.15,0,0,1,795.48,106Z"/><path class="cls-4" d="M798.54,109.11h-.06a.15.15,0,0,1-.07-.19l11.68-27.76a.15.15,0,1,1,.27.11L798.67,109A.14.14,0,0,1,798.54,109.11Z"/><path class="cls-4" d="M801.53,111.26h-.06a.14.14,0,0,1-.07-.19l10.29-24a.14.14,0,0,1,.19-.08.15.15,0,0,1,.07.19l-10.29,24A.14.14,0,0,1,801.53,111.26Z"/><path class="cls-4" d="M806.84,108.54h-.06a.15.15,0,0,1-.07-.19c1.95-4.38,3.9-8.82,5.8-13.22a.15.15,0,0,1,.19-.07.14.14,0,0,1,.07.19c-1.9,4.39-3.85,8.84-5.8,13.21A.14.14,0,0,1,806.84,108.54Z"/><g class="cls-3"><path class="cls-5" d="M811.87,100c-.94,0-1.15.94-1.43,1.65a16.19,16.19,0,0,1-1.2,2.3,15,15,0,0,1-1.61,2.2c.11-.11-.87,1.09-1.94,2.21s-.81.8-1.47,1.44c-1.45,1.46-3.18,2.5-6.39,4a38.85,38.85,0,0,1-8.68,3.26,16.54,16.54,0,0,1-3.89.33,35.54,35.54,0,0,1-4-.49h0c-1.14-.21-2.3-.34-3.44-.6a18.68,18.68,0,0,1-2.74-.8c-2-.94-7.27-4-8.85-5.48-1.2-1.09-2.45-2.13-3.58-3.29-.94-.93-.34-.52-1.33-1.51l-.06,0a22,22,0,0,1-3.51-5c-.14-.34-.08-.18-.38-1a1.21,1.21,0,0,0-.57-.74,1.26,1.26,0,0,0-1.83.74,2.61,2.61,0,0,0,.32,1.54,18.38,18.38,0,0,0,1.73,3.21c.43.66.88,1.29,1.35,1.91a1.4,1.4,0,0,0-.53,1.05,1.1,1.1,0,0,0-.32-.11,1.54,1.54,0,0,0-.74,0,1.08,1.08,0,0,1,.71.48l.67,1a1.13,1.13,0,0,1,.54.43c.34.49.7,1,1.07,1.42l-.15-.26c.48.57,1,1.15,1.45,1.7l.2.32q.59.65,1.2,1.26a44.34,44.34,0,0,0,7.78,6c.72.26,1.45.49,2.2.7,2.3.65,4.65,1.14,7,1.6,1.58.32,3.16.64,4.75.83h.07a44.09,44.09,0,0,0,5.39-.22,46,46,0,0,0,5.12-1.49c.68-.28,1.38-.56,2.07-.8s1.23-.52,1.83-.8a22.64,22.64,0,0,0,5-3.19c.33-.33.8-.58,1-1a1.29,1.29,0,0,0-.14-1.31,18.42,18.42,0,0,0,2.26-2.23c.42-.47,1.74-1.85,2.71-3.15.69-1,1.33-2.06,2-3.1a21.64,21.64,0,0,0,1.36-3C813.26,101.16,813,100.09,811.87,100Z"/></g><g class="cls-3"><path class="cls-4" d="M781.28,117Z"/></g><path class="cls-4" d="M364.32,256.73a.43.43,0,0,1-.26-.09.42.42,0,0,1-.08-.6l25.6-33.52a.43.43,0,0,1,.6-.08.44.44,0,0,1,.09.61l-25.61,33.51A.42.42,0,0,1,364.32,256.73Z"/><path class="cls-4" d="M403.6,261.73a.43.43,0,0,1-.4-.28l-14-37.51a.44.44,0,0,1,.26-.56.43.43,0,0,1,.55.26l14,37.51a.43.43,0,0,1-.26.55A.4.4,0,0,1,403.6,261.73Z"/><path class="cls-1" d="M408.13,266.33a4.78,4.78,0,1,1-.33-6.75A4.77,4.77,0,0,1,408.13,266.33Z"/><path class="cls-4" d="M404.59,268.33a5.36,5.36,0,1,1,.26,0Zm0-9.56h-.22a4.11,4.11,0,1,0,.22,0Z"/><path class="cls-4" d="M394.26,225.22a4.78,4.78,0,1,1-3.8-5.58A4.78,4.78,0,0,1,394.26,225.22Z"/><path class="cls-4" d="M389.58,229.54a5.33,5.33,0,0,1-1-.09,5.21,5.21,0,1,1,1.94-10.23,5.21,5.21,0,0,1,2,9.42A5.23,5.23,0,0,1,389.58,229.54Zm0-9.55a4.34,4.34,0,1,0,4.27,5.15h0a4.36,4.36,0,0,0-3.46-5.08A4.59,4.59,0,0,0,389.57,220Z"/><path class="cls-1" d="M366.72,259.54a4.77,4.77,0,1,1-3.8-5.58A4.77,4.77,0,0,1,366.72,259.54Z"/><path class="cls-4" d="M362,263.86a5.39,5.39,0,0,1-1-.09A5.21,5.21,0,0,1,363,253.54a5.21,5.21,0,0,1,4.15,6.08h0A5.23,5.23,0,0,1,362,263.86Zm0-9.55a4.34,4.34,0,1,0,4.27,5.15,4.36,4.36,0,0,0-3.46-5.08A4.43,4.43,0,0,0,362,254.31Zm4.69,5.23h0Z"/><path class="cls-4" d="M363.31,261.75a.14.14,0,0,1-.1,0,.17.17,0,0,1,0-.21,24.14,24.14,0,0,0,2-2.27.14.14,0,0,1,.2,0,.14.14,0,0,1,0,.2,26,26,0,0,1-2,2.3A.15.15,0,0,1,363.31,261.75Z"/><path class="cls-4" d="M360.92,261.63a.15.15,0,0,1-.1,0,.15.15,0,0,1,0-.21,49.53,49.53,0,0,0,3.57-4.09.14.14,0,0,1,.2,0,.14.14,0,0,1,0,.2,50.07,50.07,0,0,1-3.58,4.12A.16.16,0,0,1,360.92,261.63Z"/><path class="cls-4" d="M359.44,260.37a.18.18,0,0,1-.1,0,.14.14,0,0,1,0-.21c1.39-1.48,2.73-3.05,4-4.65a.14.14,0,0,1,.2,0,.15.15,0,0,1,0,.2c-1.27,1.61-2.61,3.18-4,4.67A.12.12,0,0,1,359.44,260.37Z"/><path class="cls-4" d="M358.82,258.24a.18.18,0,0,1-.1,0,.13.13,0,0,1,0-.2c.72-.84,1.49-1.65,2.28-2.42a.14.14,0,0,1,.2,0,.13.13,0,0,1,0,.2c-.78.76-1.55,1.57-2.27,2.4A.12.12,0,0,1,358.82,258.24Z"/></g></g></svg>