<svg xmlns="http://www.w3.org/2000/svg" viewBox="0 0 460.89 163.21"><defs><style>.cls-1,.cls-2,.cls-4,.cls-9{fill:#fff;}.cls-1,.cls-2{stroke:#2572b8;stroke-linecap:round;stroke-linejoin:round;stroke-width:0.75px;}.cls-2{fill-rule:evenodd;}.cls-3{fill:#f5ad2a;}.cls-4{font-size:18px;}.cls-4,.cls-9{font-family:PlusJakartaSans-SemiBold, Plus Jakarta Sans;font-weight:600;}.cls-5{letter-spacing:-0.09em;}.cls-6{letter-spacing:0em;}.cls-7{letter-spacing:-0.01em;}.cls-8{letter-spacing:0em;}.cls-14,.cls-9{font-size:15px;}.cls-10{letter-spacing:-0.01em;}.cls-11{letter-spacing:-0.02em;}.cls-12{letter-spacing:-0.04em;}.cls-13{letter-spacing:0em;}.cls-14{fill:#4d4f51;}.cls-15{letter-spacing:-0.03em;}.cls-16{letter-spacing:-0.02em;}</style></defs><g id="Layer_2" data-name="Layer 2"><g id="Layer_1-2" data-name="Layer 1"><rect class="cls-1" x="0.38" y="0.38" width="229.16" height="41.84" rx="5"/><path class="cls-2" d="M224.53,88.6H5.38a5,5,0,0,1-5-5V51.76a5,5,0,0,1,5-5H224.53a5,5,0,0,1,5,5V83.6A5,5,0,0,1,224.53,88.6Z"/><rect class="cls-1" x="232.8" y="0.38" width="227.72" height="41.84" rx="5"/><rect class="cls-1" x="232.8" y="46.76" width="227.72" height="41.84" rx="5"/><rect class="cls-3" x="1.45" y="127.21" width="458" height="36" rx="18"/><text class="cls-4" transform="translate(120.88 150.9)">Get <tspan class="cls-5" x="36.11" y="0">Y</tspan><tspan x="46.06" y="0">our </tspan><tspan class="cls-6" x="78.03" y="0">f</tspan><tspan x="85.18" y="0">ree Demo N</tspan><tspan class="cls-7" x="186.03" y="0">o</tspan><tspan class="cls-8" x="197.6" y="0">w!</tspan></text><text class="cls-9" transform="translate(0.38 115.69)">□ I acce<tspan class="cls-10" x="60.27" y="0">p</tspan><tspan x="70.17" y="0">t the Pri</tspan><tspan class="cls-11" x="124.35" y="0">v</tspan><tspan x="132.3" y="0">acy </tspan><tspan class="cls-11" x="161.22" y="0">P</tspan><tspan x="170.61" y="0">olic</tspan><tspan class="cls-12" x="196.84" y="0">y</tspan><tspan class="cls-13" x="204.78" y="0">.</tspan></text><text class="cls-14" transform="translate(22.47 26.04)">First Name*</text><text class="cls-14" transform="translate(22.47 72.43)">Institution*</text><text class="cls-14" transform="translate(251.38 26.04)"><tspan class="cls-15">R</tspan><tspan x="9.17" y="0">ole*</tspan></text><text class="cls-14" transform="translate(251.38 72.43)">Email <tspan class="cls-16" x="40.8" y="0">A</tspan><tspan x="50.28" y="0">ddress*</tspan></text></g></g></svg>