<svg xmlns="http://www.w3.org/2000/svg" viewBox="0 0 34.72 80.47"><defs><style>.cls-1{fill:#002760;}.cls-1,.cls-3,.cls-4{stroke:#fff;stroke-linecap:round;stroke-linejoin:round;stroke-width:0.75px;}.cls-1,.cls-2,.cls-3,.cls-4{fill-rule:evenodd;}.cls-2{fill:none;}.cls-3{fill:#001d3f;}.cls-4{fill:#003d87;}</style></defs><g id="Layer_2" data-name="Layer 2"><g id="Layer_1-2" data-name="Layer 1"><path class="cls-1" d="M.63,27.14c.15-14.49,15-30.65,24.22-25.57l5.57,3.26C20.79-.24,6.41,16.32,6.25,30.39l.16,45.42a5.74,5.74,0,0,0,2.5,3.92c-2.19-1.28-6-3-7.19-4.79A8,8,0,0,1,.63,70.56Z" transform="translate(-0.25 -0.24)"/><path class="cls-2" d="M1.2,27.14V70.56a7.39,7.39,0,0,0,1,4c.63,1,2.4,2.06,4.06,3a8.43,8.43,0,0,1-.47-1.67l-.2-45.54c.1-9.32,6.35-20.29,14.27-25a13.07,13.07,0,0,1,6.62-2.09l-2-1.16c-3.34-1.83-6.93-.48-9.43,1C8.39,7,1.35,17.08,1.2,27.14ZM8.91,80.33a.5.5,0,0,1-.31-.08c-.47-.26-1-.57-1.57-.88-2.29-1.22-4.84-2.59-5.83-4.08A9.33,9.33,0,0,1,0,70.56V27.14H0C.1,16.63,7.45,6.12,14.48,2c4-2.3,7.66-2.63,10.63-1l5.63,3.25a.61.61,0,1,1-.58,1.07c-3.49-1.81-7.19-.43-9.63,1-7.45,4.46-13.6,15.22-13.71,24L7,75.81a5,5,0,0,0,2.24,3.42.58.58,0,0,1,.16.83A.59.59,0,0,1,8.91,80.33Z" transform="translate(-0.25 -0.24)"/><path class="cls-3" d="M30.42,57.64,24.8,54.39a1.71,1.71,0,0,1-.73-1.58V17.73c-2.61,0-4.85,1.77-6.57,3.53l5.27,3a2.18,2.18,0,0,1,.88,2V44.44l.05,19.27a9.61,9.61,0,0,1-4.27,7.4l-4,2.29a3,3,0,0,1-3,.3L6.77,70.45a3,3,0,0,0,3-.28L13.49,68a5.28,5.28,0,0,0,1.15-.74,10.43,10.43,0,0,0,2.92-4.16,8.25,8.25,0,0,0,.52-2.94V23.07a8.33,8.33,0,0,0-.16-1,2.11,2.11,0,0,0-.47-.77A21.9,21.9,0,0,0,16,23a17.67,17.67,0,0,0-3.54,9.78V66a1.73,1.73,0,0,0,.73,1.59L7.55,64.35c-.62-.52-.62-.83-.73-1.61V29.56a17.23,17.23,0,0,1,2.4-8c2.14-3.48,6.72-8.79,11.41-6.6l3.44,2V13.59c-.05-2.56-.57-4.51-2.71-6L27,10.84c2.13,1.37,2.65,3.61,2.7,6V56A1.8,1.8,0,0,0,30.42,57.64Z" transform="translate(-0.25 -0.24)"/><path class="cls-2" d="M18.49,21.12,23,23.75a2.36,2.36,0,0,1,.41.33V18.39a9.39,9.39,0,0,0-5,2.73Zm6.1-3.74a.76.76,0,0,1,.1.35V52.81c.06.65.06.75.47,1.12l3.91,2.25V16.84c-.05-2.75-.78-4.45-2.45-5.48L24,9.86a9.08,9.08,0,0,1,.67,3.71V17a.88.88,0,0,1-.1.37Zm-6.25-2.29a4.8,4.8,0,0,1,2,.45l2.86,1.66c-2.6.38-4.69,2.21-6.09,3.61-.05,0-.05,0-.05,0v0a13.5,13.5,0,0,0-1.36,1.61l-.16.19a18,18,0,0,0-3.69,10.13V66.11L7.92,63.87c-.37-.35-.42-.46-.47-1.13V29.58a15.62,15.62,0,0,1,2.29-7.66c.78-1.26,4.43-6.83,8.6-6.83Zm-1,7.24c-.26.28-.47.59-.73.88l-.11.18a16.76,16.76,0,0,0-3.43,9.44V66c.05.66.05.78.46,1.13.06,0,.11.07.11.1.21-.14.42-.28.63-.44a9.28,9.28,0,0,0,2.7-3.9,7.11,7.11,0,0,0,.47-2.71V23.07a3.48,3.48,0,0,0-.1-.74ZM9.17,71.12c.31-.12.62-.27.94-.43l3.69-2.14a8.54,8.54,0,0,0,1.26-.83,11,11,0,0,0,3.07-4.41,8.54,8.54,0,0,0,.57-3.14V23a1.24,1.24,0,0,1-.05-.41L22.4,24.8c.47.28.63.73.68,1.51V63.69a9,9,0,0,1-4,6.88l-4,2.3a2.45,2.45,0,0,1-2.4.3l-3.54-2ZM13.6,74.6a3.42,3.42,0,0,1-1.46-.35L6.51,71a.61.61,0,0,1-.26-.82A.6.6,0,0,1,7,69.9a2.5,2.5,0,0,0,2.5-.28l3-1.73-5.26-3a2.37,2.37,0,0,1-1-2.06V29.56a17.11,17.11,0,0,1,2.4-8.25c2.91-4.75,7.66-9,12.24-6.86L23.44,16V13.59C23.39,11.29,23,9.48,21,8.11a.63.63,0,0,1-.15-.83.6.6,0,0,1,.83-.2l5.58,3.24c2.65,1.66,3,4.51,3.07,6.5V56c.05.67.05.77.47,1.12a.58.58,0,0,1,.1.83.57.57,0,0,1-.78.17l-5.62-3.23c-.06-.07-.16-.12-.21-.18v9a9.94,9.94,0,0,1-4.54,7.91l-4,2.32A4.59,4.59,0,0,1,13.6,74.6Z" transform="translate(-0.25 -0.24)"/><path class="cls-4" d="M34.59,53.2a5.45,5.45,0,0,1-2.45,4.27c-1.35.78-2.45.14-2.45-1.43V16.82c0-2.92-1-5-2.7-6a6,6,0,0,0-5.32,0,11.14,11.14,0,0,0-1.25.62,22.39,22.39,0,0,0-7.34,7.4A19,19,0,0,0,10.37,28V71.41a3,3,0,0,0,1.25,2.75,3,3,0,0,0,3-.29l1.56-.93,3.23-1.85a9.48,9.48,0,0,0,3-3.18,8.77,8.77,0,0,0,1.3-4.2l-.05-19.27V26.31a2.24,2.24,0,0,0-.88-2,2.26,2.26,0,0,0-2.24.21,6.25,6.25,0,0,0-2.19,2.35A6,6,0,0,0,17.4,30v33.2a5.51,5.51,0,0,1-2.5,4.25c-1.36.79-2.45.15-2.45-1.42V32.79a16.62,16.62,0,0,1,2.4-7.95,16.43,16.43,0,0,1,5.68-6c2.24-1.28,4.27-1.4,5.67-.55,1.57.87,2.4,2.74,2.4,5.22V60.89a18.74,18.74,0,0,1-2.71,9,18.66,18.66,0,0,1-6.46,6.85l-4,2.31c-2.55,1.47-4.84,1.59-6.51.64s-2.66-3-2.66-5.94V30.39a28.49,28.49,0,0,1,4.17-14,28.9,28.9,0,0,1,10-10.62c3.91-2.24,7.45-2.45,10-1S34.59,9.48,34.59,14Z" transform="translate(-0.25 -0.24)"/><path class="cls-2" d="M24.54,10.84a6.36,6.36,0,0,0-2.61.59,10.1,10.1,0,0,0-1.2.58,22,22,0,0,0-7.13,7.16A18,18,0,0,0,11,28V71.41a2.41,2.41,0,0,0,.94,2.22,2.49,2.49,0,0,0,2.4-.29l4.79-2.77a9.33,9.33,0,0,0,2.76-3,8.33,8.33,0,0,0,1.2-3.89V26.31a1.7,1.7,0,0,0-.63-1.49,1.68,1.68,0,0,0-1.61.21A6.26,6.26,0,0,0,18,30v33.2A6,6,0,0,1,15.21,68a2.27,2.27,0,0,1-2.34.17,2.28,2.28,0,0,1-1-2.13V32.79a16.8,16.8,0,0,1,2.5-8.26,16.69,16.69,0,0,1,5.88-6.24c2.35-1.36,4.59-1.56,6.31-.57a5.58,5.58,0,0,1,2.55,4.09v-5c0-2.61-.83-4.55-2.4-5.45a4.21,4.21,0,0,0-2.13-.53Zm2.19-6.36a6.6,6.6,0,0,1,3.38.87C32.61,6.78,34,9.86,34,14a.09.09,0,0,0,.05.08V53.2a4.78,4.78,0,0,1-2.19,3.73,1.07,1.07,0,0,1-1.09.17c-.32-.15-.42-.53-.42-1.06V16.82c0-3.06-1.09-5.37-3.07-6.5a6.45,6.45,0,0,0-5.84,0,12.1,12.1,0,0,0-1.3.65,22.86,22.86,0,0,0-7.55,7.6A19.28,19.28,0,0,0,9.74,28V71.41a3.58,3.58,0,0,0,1.57,3.28,3.52,3.52,0,0,0,3.59-.28l4.84-2.79A10.38,10.38,0,0,0,23,68.22a9.5,9.5,0,0,0,1.31-4.51V26.31A2.72,2.72,0,0,0,23,23.75a2.79,2.79,0,0,0-2.82.21,7,7,0,0,0-2.44,2.59,7.19,7.19,0,0,0-1,3.41v33.2a4.87,4.87,0,0,1-2.13,3.73,1.27,1.27,0,0,1-1.15.17A1.21,1.21,0,0,1,13.08,66V32.79a15.45,15.45,0,0,1,2.29-7.64,15.48,15.48,0,0,1,5.47-5.81c1.93-1.12,3.75-1.32,5.05-.55S28,21.21,28,23.48V60.89a18.21,18.21,0,0,1-2.61,8.73,18.21,18.21,0,0,1-6.25,6.62l-4,2.32c-2.24,1.31-4.33,1.51-5.89.63s-2.4-2.81-2.4-5.4V30.39A28,28,0,0,1,10.94,16.7,27.86,27.86,0,0,1,20.73,6.33a12.25,12.25,0,0,1,6-1.85ZM11.31,81a5.31,5.31,0,0,1-2.71-.71c-1.93-1.1-3-3.41-3-6.46V30.39a29.74,29.74,0,0,1,4.22-14.3A29.66,29.66,0,0,1,20.11,5.27c4-2.29,7.76-2.64,10.63-1s4.48,5.06,4.48,9.61V53.2A6,6,0,0,1,32.46,58a2.29,2.29,0,0,1-2.35.17A1.78,1.78,0,0,1,29.23,57v3.91a18.87,18.87,0,0,1-2.82,9.33,19.27,19.27,0,0,1-6.67,7.07l-4,2.34A9,9,0,0,1,11.31,81Z" transform="translate(-0.25 -0.24)"/><path class="cls-3" d="M6.62,26.4,1,23.15a20.43,20.43,0,0,0-.36,4V70.56c.1,2.53.46,4.4,2.7,5.92l5.58,3.25c-2.19-1.52-2.55-3.39-2.66-5.94V30.39A20.43,20.43,0,0,1,6.62,26.4Z" transform="translate(-0.25 -0.24)"/><path class="cls-2" d="M1.46,24.12a25.36,25.36,0,0,0-.26,3V70.56c.15,2.55.57,4.09,2.45,5.42L6.3,77.5a9.73,9.73,0,0,1-.67-3.68V30.39a20.28,20.28,0,0,1,.31-3.68L1.46,24.12ZM8.91,80.33a.5.5,0,0,1-.31-.08L3,77C.42,75.22.1,72.94,0,70.57V27.14A34.19,34.19,0,0,1,.36,23a.77.77,0,0,1,.37-.45.63.63,0,0,1,.57,0l5.63,3.25a.63.63,0,0,1,.31.64,23.41,23.41,0,0,0-.42,3.89v43.4c.16,2.55.58,4.11,2.45,5.44a.58.58,0,0,1,.16.83A.59.59,0,0,1,8.91,80.33Z" transform="translate(-0.25 -0.24)"/></g></g></svg>