<svg xmlns="http://www.w3.org/2000/svg" viewBox="0 0 171.09 164.72"><defs><style>.cls-1{fill:#003d87;}.cls-2{fill:#002760;}.cls-3{fill:#edf2f4;}.cls-4{fill:#3aa1ff;}.cls-5{fill:none;stroke:#002760;stroke-miterlimit:10;}.cls-6{opacity:0.13;}.cls-7{fill:#808184;}.cls-8{fill:#fff;}</style></defs><g id="Layer_2" data-name="Layer 2"><g id="Layer_1-2" data-name="Layer 1"><path class="cls-1" d="M48.67,47.92c-.21,7.66-5.06,15.41-12.08,17.83-3.82,1.31-7.93,1-11.83,2s-8,4-8.2,8.14a17.6,17.6,0,0,1-.11,3.17c-.68,2.78-3.92,3.71-6.45,4.83-13.42,5.9-6.55,20.55,7.08,25.5,6.1,2.22,8.77,2.6,15.26,1.66s12.36-4.61,17-9.47,8-10.87,10.74-17.08c3.14-7.16,5.47-15.08,4.11-22.67S56.79,47.37,48.67,47.92Z"/><path class="cls-2" d="M16.93,109.85c-8.25-3-14.4-9.78-14.61-16.12-.14-4.38,2.52-8,7.5-10.19l1.11-.47c2.25-.93,4.57-1.89,5.1-4.06a7.41,7.41,0,0,0,.1-1.9,11.81,11.81,0,0,1,0-1.19c.24-4.44,4.58-7.54,8.52-8.54A37.93,37.93,0,0,1,30,66.54a29.85,29.85,0,0,0,6.48-1.2C43.07,63.06,48,55.73,48.23,47.9a.43.43,0,0,1,.41-.41c8.6-.58,14.63,6.94,16,14.32,1.17,6.52-.14,13.8-4.13,22.91C57.28,92,53.74,97.6,49.63,101.92c-5.05,5.32-11.17,8.73-17.23,9.61a38.75,38.75,0,0,1-5.57.48C23.52,112,21,111.31,16.93,109.85ZM49.08,48.33c-.37,8-5.51,15.48-12.35,17.83a30.87,30.87,0,0,1-6.66,1.24,36.9,36.9,0,0,0-5.21.82C21.22,69.14,17.2,72,17,76c0,.36,0,.73,0,1.11a7.69,7.69,0,0,1-.13,2.13c-.63,2.6-3.27,3.7-5.6,4.66l-1.09.46c-4.7,2.07-7.12,5.31-7,9.37.2,6,6.11,12.45,14.05,15.34,5.9,2.14,8.44,2.59,15,1.64,5.88-.85,11.82-4.17,16.74-9.35,4-4.25,7.52-9.79,10.66-17,3.92-9,5.21-16.07,4.07-22.41-1.2-6.75-6.55-13.64-14.18-13.64Z"/><path class="cls-1" d="M83.17,49.55c1.3-1.52,4.58-.45,4.5,1.47a20.16,20.16,0,0,0,4,13.72c1.73,2.42,4,4.62,5.53,7.1a19.09,19.09,0,0,1,2.45,9.28C99.85,87,98.53,93,93.9,97.24s-13.21,6-20.2,3A16.56,16.56,0,0,1,63.62,86.82c-.45-5.18,1.61-10,3.87-14.65C71.74,63.47,77.09,56.68,83.17,49.55Z"/><path class="cls-2" d="M73.53,100.64A17,17,0,0,1,63.19,86.85C62.72,81.48,64.86,76.56,67.1,72c4-8.28,9-14.82,15.75-22.71a3.05,3.05,0,0,1,3.43-.61A2.53,2.53,0,0,1,88.1,51,19.72,19.72,0,0,0,92,64.49c.72,1,1.55,2,2.36,2.94a34.32,34.32,0,0,1,3.19,4.19A19.39,19.39,0,0,1,100,81.11c.29,7.13-1.68,12.67-5.85,16.45a20.52,20.52,0,0,1-20.66,3.08Zm10-50.81h0c-6.68,7.83-11.62,14.33-15.62,22.53C65.69,76.83,63.6,81.63,64,86.78a16.13,16.13,0,0,0,9.83,13.07c7.28,3.12,15.6.82,19.74-2.93,4-3.6,5.85-8.91,5.57-15.78a18.37,18.37,0,0,0-2.39-9.07A32.94,32.94,0,0,0,93.68,68c-.82-1-1.67-2-2.4-3a20.51,20.51,0,0,1-4-14A1.73,1.73,0,0,0,86,49.47a2.86,2.86,0,0,0-1.06-.21A1.79,1.79,0,0,0,83.5,49.83Z"/><path class="cls-3" d="M70.42,90.72a127.29,127.29,0,0,1,1.41-17.27,24.94,24.94,0,0,0-7-2.51,4.15,4.15,0,0,0-3.21.32,4,4,0,0,0-1.12,1.63L54.71,85.32a1.71,1.71,0,0,0,.42,2.34A13.33,13.33,0,0,0,70.42,90.72Z"/><path class="cls-2" d="M54.81,88A2.64,2.64,0,0,1,54,86.34a2.73,2.73,0,0,1,.33-1.2L60.11,72.7a4.33,4.33,0,0,1,1.26-1.79,4.49,4.49,0,0,1,3.54-.39A24.64,24.64,0,0,1,72,73.07a.45.45,0,0,1,.23.44,126.67,126.67,0,0,0-1.41,17.21.45.45,0,0,1-.25.39,13.21,13.21,0,0,1-5.68,1.26A13.63,13.63,0,0,1,54.81,88ZM71.36,73.69a24.2,24.2,0,0,0-6.61-2.33,3.81,3.81,0,0,0-2.87.24,3.65,3.65,0,0,0-1,1.47L55.1,85.5a2.16,2.16,0,0,0-.25.81,2,2,0,0,0,.6,1.07A13,13,0,0,0,70,90.44,129,129,0,0,1,71.36,73.69Z"/><path class="cls-4" d="M92.23,101C86.4,94.79,78.79,90.89,71.34,87.1a7.66,7.66,0,0,1-5.55,4.12c-4.16.46-8.78-4-10.39-8C29,86.61,23.93,92.8,23.93,92.8a69.9,69.9,0,0,0-5.45,8.65c-4.9,8.3-11.83,21.55-15.3,35.06-1.38,3.89.13,6,2.95,6.65,5.25,1.67,15.41-2.11,19.76-7.55,4.43,0,53.34-.19,57.77,0,8.27.35,15.65-.35,23.92,0C104.1,123.11,100.55,109.89,92.23,101Z"/><line class="cls-5" x1="105.54" y1="135.61" x2="24.94" y2="135.61"/><path class="cls-3" d="M93.4,43c-1.61,4.89-3.61,10-3.25,15.19.2,2.86-2.46,16.68-14.31,18.54a21.94,21.94,0,0,1-18.18-5.49C54,68,50.53,59.4,53,52c-3.56.3-6.47-2.6-5.94-5.65a4.24,4.24,0,0,1,4.67-3.1,3.79,3.79,0,0,1,2.78,1.56,46.85,46.85,0,0,0,3.39-11.11c4.63-3.51,11.19-4.52,17.52-4.29a23.16,23.16,0,0,1,6.24.93C87.38,32.14,95,38,93.4,43Z"/><path class="cls-2" d="M57.37,71.59c-3.56-3.2-7.18-11.54-5-19.19a6.17,6.17,0,0,1-4.46-2,5,5,0,0,1-1.31-4.21,4.46,4.46,0,0,1,2-2.77,4.17,4.17,0,0,1,3.19-.68A4,4,0,0,1,54.33,44a46.23,46.23,0,0,0,3.09-10.42.46.46,0,0,1,.17-.27c5.22-4,12.56-4.56,17.8-4.37a24.27,24.27,0,0,1,6.35.95c4.09,1.31,9.53,4.82,11.53,8.74a5.77,5.77,0,0,1,.53,4.55c-.19.59-.39,1.19-.59,1.79-1.45,4.29-2.94,8.72-2.63,13.23.24,3.5-2.81,17.13-14.67,19a22.17,22.17,0,0,1-18.54-5.59Zm.87-37.7a47.71,47.71,0,0,1-3.38,11,.43.43,0,0,1-.33.25.45.45,0,0,1-.39-.14,3.44,3.44,0,0,0-2.56-1.44,3.32,3.32,0,0,0-2.51.57,3.57,3.57,0,0,0-1.63,2.19,4.11,4.11,0,0,0,1.1,3.49,5.34,5.34,0,0,0,4.37,1.66.45.45,0,0,1,.38.16.44.44,0,0,1,.07.4C51,59.44,54.56,67.91,58,71a21.34,21.34,0,0,0,17.83,5.38c12-1.89,14.08-16.12,13.94-18.08-.32-4.68,1.2-9.2,2.67-13.57L93,42.9A5,5,0,0,0,92.5,39c-1.9-3.71-7.09-7-11-8.31a23.46,23.46,0,0,0-6.12-.91c-.54,0-1.09,0-1.67,0C68.84,29.76,62.73,30.57,58.24,33.89Z"/><path class="cls-1" d="M57.87,7.42a13,13,0,1,1,5.51,17.52A13,13,0,0,1,57.87,7.42Z"/><path class="cls-2" d="M63.18,25.33a13.42,13.42,0,1,1,10.24.9,13.73,13.73,0,0,1-4,.62A13.42,13.42,0,0,1,63.18,25.33ZM58.25,7.62h0A12.56,12.56,0,1,0,69.41.86,12.45,12.45,0,0,0,58.25,7.62Z"/><path class="cls-1" d="M54.72,45a47.26,47.26,0,0,0,12.49-13.8c8.9,11,20.17,13.9,31.27,17.56a11.29,11.29,0,0,0,1.13-5.87c-.28-5-1.24-9.64-6.74-15.05C89,24,83.3,20.34,78,19.2s-10.53-.05-15.22,1.88a22.89,22.89,0,0,0-10,8.72c-2,3.3-3.4,9.39-3.16,13.62a3.4,3.4,0,0,1,2.75-.06A7.64,7.64,0,0,1,54.72,45Z"/><path class="cls-2" d="M98.34,49.16l-2.83-.92c-9.88-3.2-20.09-6.5-28.24-16.3A47.92,47.92,0,0,1,55,45.33a.42.42,0,0,1-.55,0,7.36,7.36,0,0,0-2.22-1.53,3,3,0,0,0-2.43,0,.43.43,0,0,1-.4,0,.43.43,0,0,1-.21-.35C48.92,39,50.33,32.91,52.4,29.57a23.21,23.21,0,0,1,10.23-8.89c5.57-2.29,10.77-2.93,15.48-1.9C84,20,89.72,24.12,93.17,27.52c5.88,5.78,6.62,10.74,6.88,15.33A11.82,11.82,0,0,1,98.86,49a.43.43,0,0,1-.38.23A.34.34,0,0,1,98.34,49.16ZM63,21.47A22.59,22.59,0,0,0,53.13,30c-1.86,3-3.21,8.61-3.12,12.78A3.91,3.91,0,0,1,52.5,43a8,8,0,0,1,2.25,1.48A47,47,0,0,0,66.84,31a.43.43,0,0,1,.34-.21.44.44,0,0,1,.37.16c8,10,18.31,13.29,28.22,16.5l2.49.81a11.19,11.19,0,0,0,.92-5.33c-.24-4.42-1-9.2-6.61-14.76-3.37-3.32-9-7.29-14.64-8.52a20.4,20.4,0,0,0-4.31-.46A28.27,28.27,0,0,0,63,21.47Z"/><path class="cls-2" d="M69.71,70.23a3.41,3.41,0,0,0,1.69-.44.42.42,0,0,0,.17-.58A.44.44,0,0,0,71,69a3.2,3.2,0,0,1-3.32-.34A6.35,6.35,0,0,1,65.06,65a.43.43,0,1,0-.83.21,7.17,7.17,0,0,0,3,4.23A4.72,4.72,0,0,0,69.71,70.23Z"/><path class="cls-2" d="M66.4,50.78a1.2,1.2,0,0,1,1.53-.73,1.17,1.17,0,1,1-.72,2.22A1.2,1.2,0,0,1,66.4,50.78Z"/><path class="cls-2" d="M84.82,55.24a1.23,1.23,0,1,1,.81,1.49A1.19,1.19,0,0,1,84.82,55.24Z"/><path class="cls-2" d="M75,61.48H75l1.75-.32a1,1,0,0,0,.74-1.57,6.74,6.74,0,0,1,0-5.91.43.43,0,0,0-.77-.39,7.61,7.61,0,0,0,0,6.68,2.33,2.33,0,0,1,.11.28.68.68,0,0,1-.23.06l-1.75.32a.43.43,0,0,0,.08.85Z"/><path class="cls-2" d="M62.87,59.32a7,7,0,0,1-4.22-3.88,8.48,8.48,0,0,1-.27-6.08h0a8.49,8.49,0,0,1,3.79-4.76,7,7,0,0,1,5.69-.66c3.85,1.25,5.86,5.71,4.48,10a8.47,8.47,0,0,1-3.79,4.77,7.16,7.16,0,0,1-3.6,1A6.75,6.75,0,0,1,62.87,59.32Zm-.27-14a7.61,7.61,0,0,0-3.4,4.28h0a7.6,7.6,0,0,0,.24,5.46,6,6,0,0,0,8.68,2.82,7.56,7.56,0,0,0,3.4-4.28c1.23-3.79-.53-7.77-3.93-8.87a5.91,5.91,0,0,0-1.81-.29A6.39,6.39,0,0,0,62.6,45.35Z"/><path class="cls-2" d="M82.76,64c-3.85-1.25-5.86-5.71-4.48-10h0c1.37-4.24,5.63-6.68,9.47-5.43s5.87,5.72,4.49,10a8.45,8.45,0,0,1-3.79,4.76,7.16,7.16,0,0,1-3.6,1A6.52,6.52,0,0,1,82.76,64ZM79.1,54.31h0c-1.23,3.79.53,7.77,3.93,8.87a6.08,6.08,0,0,0,5-.58,7.63,7.63,0,0,0,3.4-4.29c1.23-3.78-.53-7.76-3.93-8.87a6,6,0,0,0-1.81-.28A7.16,7.16,0,0,0,79.1,54.31Z"/><path class="cls-2" d="M79.08,53.33A.43.43,0,0,0,79.5,53c.23-1.11-.71-2.1-1.74-2.58a5.94,5.94,0,0,0-5.34.22.44.44,0,0,0-.15.59.43.43,0,0,0,.59.16,5,5,0,0,1,4.53-.18c.73.33,1.39,1,1.27,1.62a.43.43,0,0,0,.33.51Z"/><path class="cls-2" d="M61,46.43a.44.44,0,0,0,.43-.36.43.43,0,0,0-.36-.5l-5.61-.9A.43.43,0,0,0,55,45a.43.43,0,0,0,.36.49l5.61.9Z"/><path class="cls-2" d="M60.85,18.31a.47.47,0,0,0,.28-.09,10.34,10.34,0,0,1,4.63-2.07A27.27,27.27,0,0,1,71,15.77h0a.42.42,0,0,0,.43-.42.44.44,0,0,0-.43-.44,26.93,26.93,0,0,0-5.4.4,11.27,11.27,0,0,0-5,2.24.43.43,0,0,0,.27.76Z"/><path class="cls-2" d="M53.58,49.43a.43.43,0,0,0,.42-.35A10.76,10.76,0,0,1,55.64,45a.44.44,0,0,0-.13-.6.42.42,0,0,0-.59.12,11.7,11.7,0,0,0-1.77,4.41.44.44,0,0,0,.35.5Z"/><g class="cls-6"><path class="cls-7" d="M78.71,16.85a2.62,2.62,0,0,0-1.12-.48A18.46,18.46,0,0,0,75.65,16,23.23,23.23,0,0,0,64.27,17.2c-1,.34-1.87.79-2.8,1.21a3.72,3.72,0,0,0-1.55,1,1.46,1.46,0,0,0,2,2.07,22.69,22.69,0,0,1,8.33-2.71,15.83,15.83,0,0,1,5,.08c.6.07,1.19.16,1.78.28a1.74,1.74,0,0,0,1.48-.08A1.42,1.42,0,0,0,78.71,16.85Z"/></g><g class="cls-6"><path class="cls-2" d="M93.14,47.67a1.09,1.09,0,0,0-.8-.91c-.14-.06-.88-.28-1-.32-1.15-.35-2.31-.64-3.43-1.07a62,62,0,0,1-6.34-2.67,43.7,43.7,0,0,1-7.26-4.43,26.86,26.86,0,0,1-5.74-6.13c-.34-.42-.59-1-1.18-1.13a.87.87,0,0,0-.79,1.37c2.1,2.86,4.25,5.76,7.15,7.84a51,51,0,0,0,5.22,3.43c1.47.78,3,1.43,4.51,2.11a73.9,73.9,0,0,0,7,2.74c.39.13.78.23,1.18.33a1.23,1.23,0,0,0,.71,0A1.06,1.06,0,0,0,93.14,47.67Z"/></g><g class="cls-6"><path class="cls-7" d="M70.85,84c0-.45.05-.89.07-1.33a15.28,15.28,0,0,1,.14-2.53l.15-2.39a.29.29,0,0,1,.09-.21v-.18a.31.31,0,0,1,.24-.34c-.39-.53-1.22-.26-1.85-.2a7.92,7.92,0,0,1-1.87,0,28.16,28.16,0,0,1-5.21-1.44L62,74.82c-.59-.19-1.16-.42-1.73-.66l-.07.21a1.17,1.17,0,0,1-.1.26L60,74.8c-.16.21-.32.41-.47.63a.66.66,0,0,0,.12.17c1.81,1.85,3.71,3.61,5.45,5.51.87,1,1.75,1.91,2.64,2.84a6.73,6.73,0,0,0,1.23,1.1h0l0,0,.11.06.17.08h0a1.83,1.83,0,0,0,.32.07,1,1,0,0,0,1-.48.87.87,0,0,0,.23-.19C70.82,84.42,70.84,84.22,70.85,84Z"/></g><path class="cls-4" d="M76.29,141.66c1.45-2.34-.19-5.43-.58-6.62-1-3.13-3.8-7.87-5.42-7.76a6.56,6.56,0,0,0-.72,4.19,17,17,0,0,0,2.11,6.6C72.69,139.85,74.1,141.45,76.29,141.66Z"/><path class="cls-2" d="M76.25,142.09c-2-.19-3.6-1.43-4.94-3.8a17.65,17.65,0,0,1-2.17-6.77,7.18,7.18,0,0,1,.79-4.48.42.42,0,0,1,.33-.19h.08c2.08,0,4.86,5.21,5.78,8.06.06.17.15.39.25.65.57,1.45,1.62,4.16.29,6.33a.45.45,0,0,1-.37.2ZM70,131.43a16.63,16.63,0,0,0,2.06,6.43c1.15,2,2.42,3.09,4,3.34.9-1.77,0-4-.5-5.33l-.26-.69c-1.07-3.31-3.55-7.11-4.78-7.45A6.56,6.56,0,0,0,70,131.43Z"/><path class="cls-4" d="M33.09,116.87c-2.62,8.69-9.36,22.21-10.61,24.91,18.4-5.72,35.69-10.73,47.81-14.5-3.4,6.34,1.17,12,5.83,14.5-9.39,5.74-64.44,34.72-74.51,16.68-3.27-5.86,1-20.33,2.88-26.79,2.6-9.12,12.44-32,20.8-39.11,4.72,1.79,9.17,5.2,10.58,10S34.56,112,33.09,116.87Z"/><path class="cls-2" d="M14.69,164.72c9.61,0,22.12-4.12,31.76-8a234.51,234.51,0,0,0,29.89-14.58.45.45,0,0,0,.21-.38.43.43,0,0,0-.23-.37c-4.9-2.64-8.76-8.12-5.65-13.92a.43.43,0,0,0-.51-.61c-5.43,1.69-12,3.67-19,5.76-8.46,2.54-18,5.4-27.84,8.45l.38-.8c2.26-4.71,7.56-15.76,9.83-23.28a.43.43,0,1,0-.83-.25c-2.25,7.46-7.53,18.46-9.78,23.16-.35.74-.63,1.32-.8,1.69a.41.41,0,0,0,.06.46.43.43,0,0,0,.45.13c10.16-3.16,20-6.12,28.77-8.73,6.6-2,12.85-3.85,18.1-5.47-2.44,5.71,1.09,11,5.79,13.8C66.39,147,26.58,167.84,8.89,163.2A10.5,10.5,0,0,1,2,158.25c-3.08-5.51.84-19.19,2.72-25.76l.2-.7c2.68-9.4,12.43-31.88,20.73-39.55,7.07-6.53,24.19-8.17,29.76-8.53,1.79,3.87,6.29,7.63,10.34,7.2a7.66,7.66,0,0,0,5.45-3.61c7,3.34,14.13,6.81,19.67,12.38,7.82,7.87,12,22.28,15.12,32.8l.15.5a.43.43,0,1,0,.82-.24l-.14-.51c-3.28-11.2-7.36-25.14-15.34-33.16-5.73-5.76-13.11-9.29-20.25-12.71a.44.44,0,0,0-.56.17,6.93,6.93,0,0,1-5,3.53c-3.72.38-8-3.36-9.58-7a.43.43,0,0,0-.42-.26c-5.31.33-23.18,1.93-30.59,8.78-8.42,7.77-18.28,30.46-21,39.94l-.2.7C2,138.94-2,152.85,1.23,158.67A11.36,11.36,0,0,0,8.67,164,23.64,23.64,0,0,0,14.69,164.72Z"/><path class="cls-4" d="M98.82,112.47c-4.82,6.71-7.29,14.84-11.12,22.18-.89,1.7-2,3.51-3.88,4a3.81,3.81,0,0,1-4.25-2,5.07,5.07,0,0,1,0-4,15.07,15.07,0,0,1,2.1-3.48,216.81,216.81,0,0,0,12.72-19.65C95.9,110.47,97.4,111.41,98.82,112.47Z"/><path class="cls-2" d="M79.18,136.85a5.53,5.53,0,0,1,0-4.34,15.5,15.5,0,0,1,2.1-3.48l.06-.1A217.13,217.13,0,0,0,94,109.33a.47.47,0,0,1,.27-.21.39.39,0,0,1,.33.06c1.48.92,3,1.87,4.44,2.94a.44.44,0,0,1,.1.6c-3,4.23-5.18,9.12-7.24,13.85-1.2,2.75-2.44,5.58-3.85,8.28-.93,1.79-2.16,3.69-4.15,4.21a3.52,3.52,0,0,1-1,.13A4.29,4.29,0,0,1,79.18,136.85Zm15.38-26.71A218.76,218.76,0,0,1,82,129.44l-.07.09a15,15,0,0,0-2,3.29,4.62,4.62,0,0,0,0,3.65,3.39,3.39,0,0,0,3.75,1.76c1.67-.44,2.76-2.16,3.61-3.78,1.39-2.67,2.62-5.49,3.82-8.22,2-4.65,4.12-9.45,7.08-13.66C97,111.7,95.78,110.91,94.56,110.14Z"/><path class="cls-2" d="M102,110.94a4.08,4.08,0,0,1-.84,3.11,1.78,1.78,0,0,1-.89.67,2,2,0,0,1-1.09-.1A20.65,20.65,0,0,1,93,111.15a5,5,0,0,1-1.45-1.4,3,3,0,0,1-.37-1.5,2.88,2.88,0,0,1,2.55-3,4.2,4.2,0,0,1,2.12.76,47,47,0,0,1,5.14,3.5C101.56,110,102.19,110.57,102,110.94Z"/><path class="cls-2" d="M99,115a21.26,21.26,0,0,1-6.29-3.54A5.25,5.25,0,0,1,91.14,110a3.48,3.48,0,0,1,2.56-5.1h0a4.64,4.64,0,0,1,2.32.82,46.8,46.8,0,0,1,5.18,3.53c.51.39,1.42,1.11,1.18,1.8a4.59,4.59,0,0,1-1,3.31,2.19,2.19,0,0,1-1.12.81,1.72,1.72,0,0,1-.44.06A3.18,3.18,0,0,1,99,115Zm1.68-5.15a46.57,46.57,0,0,0-5.09-3.47,3.89,3.89,0,0,0-1.88-.7h0a2.47,2.47,0,0,0-2.12,2.53,2.5,2.5,0,0,0,.31,1.28,4.62,4.62,0,0,0,1.33,1.27,20.26,20.26,0,0,0,6,3.41,1.64,1.64,0,0,0,.86.09,1.36,1.36,0,0,0,.66-.52,3.71,3.71,0,0,0,.76-2.78.44.44,0,0,1,0-.25C101.54,110.66,101.39,110.43,100.69,109.89Z"/><path class="cls-8" d="M85.23,95a27.69,27.69,0,0,0,9.36,12.89c5.38,4.21,12.43,6.68,19.14,5.4,9.61-1.85,15.48-7.9,17.51-13.49a26.48,26.48,0,0,0-4.51-25.57c-5.83-6.94-15.61-11.09-24.4-8.88C80.73,70.74,83.53,89.85,85.23,95ZM88.8,89.8a18.17,18.17,0,0,1,2.93-12c2.35-3.51,7.83-8.4,17.22-8.29,7.76.09,13.33,6.37,15.62,9.64,1.38,2,3.72,8.14,2.86,15.54-1.14,9.79-12.29,17.68-24.15,13.69C95.64,105.77,89.71,97.81,88.8,89.8Z"/><path class="cls-2" d="M94.32,108.19a27.92,27.92,0,0,1-9.5-13.09C83.56,91.31,82.48,83,86.35,76c3-5.45,8.34-9.17,15.87-11.07,8.53-2.14,18.51,1.48,24.84,9a26.83,26.83,0,0,1,4.59,26c-2,5.38-7.67,11.82-17.84,13.77a19.53,19.53,0,0,1-3.75.35A25.88,25.88,0,0,1,94.32,108.19Zm8.11-42.46C95.14,67.56,90,71.14,87.11,76.37c-3.74,6.8-2.68,14.8-1.48,18.46a27.53,27.53,0,0,0,9.22,12.68c5.82,4.55,12.67,6.49,18.8,5.31,9.81-1.88,15.31-8.06,17.19-13.21a26,26,0,0,0-4.44-25.15,25.64,25.64,0,0,0-19.14-9.32A19.6,19.6,0,0,0,102.43,65.73Zm.71,43h0c-7.6-2.56-13.81-10.51-14.77-18.9a18.72,18.72,0,0,1,3-12.33c1.35-2,6.63-8.6,17.59-8.48,8.24.09,13.91,6.9,16,9.82,1.59,2.25,3.79,8.55,2.94,15.84a17.1,17.1,0,0,1-8,12.17,19.12,19.12,0,0,1-10.25,2.95A20.22,20.22,0,0,1,103.14,108.75ZM92.09,78a17.88,17.88,0,0,0-2.86,11.77c.92,8.07,6.88,15.71,14.19,18.17a18.59,18.59,0,0,0,16-1.79A16.24,16.24,0,0,0,127,94.6c.85-7.32-1.5-13.43-2.78-15.25-2-2.81-7.43-9.36-15.27-9.45h-.3C98.32,69.9,93.37,76.08,92.09,78Zm11.19,30.35Z"/><path class="cls-2" d="M94.83,116.57h.06a.15.15,0,0,0,.07-.19l-1.33-2.63a.15.15,0,0,0-.19-.07.16.16,0,0,0-.07.2l1.33,2.62A.13.13,0,0,0,94.83,116.57Z"/><path class="cls-2" d="M93.66,119.62h0a.14.14,0,0,0,.08-.18c-.46-1.28-1-2.56-1.48-3.8a.14.14,0,0,0-.19-.08.15.15,0,0,0-.08.19c.52,1.24,1,2.51,1.48,3.78A.15.15,0,0,0,93.66,119.62Z"/><path class="cls-2" d="M92.3,122.84h0a.14.14,0,0,0,.1-.17,26.72,26.72,0,0,0-1.63-4.43.15.15,0,0,0-.19-.07.16.16,0,0,0-.07.2,26.91,26.91,0,0,1,1.61,4.37A.15.15,0,0,0,92.3,122.84Z"/><path class="cls-2" d="M90.75,125.76h0a.14.14,0,0,0,.1-.18c-.49-1.6-1.06-3.2-1.69-4.75a.14.14,0,0,0-.18-.08.14.14,0,0,0-.08.19c.62,1.54,1.18,3.13,1.67,4.72A.15.15,0,0,0,90.75,125.76Z"/><path class="cls-2" d="M89.25,129.65h0a.14.14,0,0,0,.1-.18l-1.84-6.12a.14.14,0,0,0-.27.08l1.83,6.13A.15.15,0,0,0,89.25,129.65Z"/><path class="cls-2" d="M87.21,132.81h0a.13.13,0,0,0,.09-.17l-1.64-5.76a.15.15,0,0,0-.18-.1.14.14,0,0,0-.09.18l1.64,5.76A.14.14,0,0,0,87.21,132.81Z"/><path class="cls-2" d="M85.05,136.43h0a.15.15,0,0,0,.11-.18l-1.6-6.36a.15.15,0,0,0-.18-.1.14.14,0,0,0-.1.17l1.6,6.36A.13.13,0,0,0,85.05,136.43Z"/><path class="cls-2" d="M82.39,136.51h0a.15.15,0,0,0,.1-.18l-.9-3.18a.15.15,0,0,0-.18-.1.14.14,0,0,0-.1.18l.9,3.18A.14.14,0,0,0,82.39,136.51Z"/><g class="cls-6"><path class="cls-7" d="M109.69,107.29l.06,0h0c.21-.65.85-.81,1.48-.84.25,0,.29,0,.55-.09.6-.29,1.52-.72,2.2-1a17.32,17.32,0,0,0,3.63-2.1l.15-.12h0a17.63,17.63,0,0,0,1.79-1.88,16.83,16.83,0,0,0,2.61-4.62,21.15,21.15,0,0,0,.82-4.79,21.06,21.06,0,0,0,.08-5.2c0-.11,0-.24,0-.33-.58-3.15-.76-4.22-1.34-6.93-.12-.49-.24-1-.37-1.46a1,1,0,1,1,1.89-.59.53.53,0,0,1,.17.28l.39.92a1.2,1.2,0,0,1,1.12.74c.37.65.69,1.34,1,2a3.38,3.38,0,0,1,.34,1.56.78.78,0,0,1,0,.22,28.79,28.79,0,0,1,.31,3.34q.21.81.36,1.62a18.46,18.46,0,0,1,.43,4.35,22.16,22.16,0,0,1-.51,4.3,15,15,0,0,1-1.41,3.39.91.91,0,0,1-.26.56l-.39.39a8.14,8.14,0,0,1-.65.78l-.17.17c-1.34,1.68-2.44,3.58-4.28,4.76a19.18,19.18,0,0,1-5.21,1.86l-.57.13-.12.06.11,0a7.83,7.83,0,0,1-2.91.82,4.29,4.29,0,0,1-1.16-.06A1.13,1.13,0,0,1,109.69,107.29Z"/></g><g class="cls-6"><path class="cls-2" d="M93.22,112c.59,0,1,.5,1.54.69l1.08.53c.34.2.77.29,1,.62a1.17,1.17,0,0,1-1.43,1.79,16.43,16.43,0,0,1-2.71-1.53l0,0A1.12,1.12,0,0,1,93.22,112Z"/></g><path class="cls-3" d="M77.16,122.28a20.07,20.07,0,0,1,6-4.67c2.35-1,6.62-.44,6.62-.44l-2,3.2a7.4,7.4,0,0,0-4.07,2.52A15.59,15.59,0,0,0,90,121.58a7.88,7.88,0,0,1,2.77-1.23c1-.09,2.2.8,1.88,1.77s-1.77,1.17-2.13,2.13a2.17,2.17,0,0,1-.05,4.33,1.51,1.51,0,0,1,.81,1.9c-.23.73-1.07,1.28-1.63,1.79a21.21,21.21,0,0,1-5.68,4A76.73,76.73,0,0,1,73.44,140c-.33.06-3.44-3-4-6a5.8,5.8,0,0,1,1.15-5.13C71.05,128.28,75.36,124.1,77.16,122.28Z"/><path class="cls-2" d="M69,134a6.23,6.23,0,0,1,1.26-5.51L71.74,127c1.55-1.52,3.91-3.81,5.11-5A20.46,20.46,0,0,1,83,117.21c2.43-1,6.67-.49,6.85-.46a.42.42,0,0,1,.33.24.43.43,0,0,1,0,.41l-2.06,3.21a.47.47,0,0,1-.28.19,7.16,7.16,0,0,0-3.09,1.58,13,13,0,0,0,5.06-1.18l.65-.37a5.56,5.56,0,0,1,2.28-.91,2.43,2.43,0,0,1,2,.87,1.55,1.55,0,0,1,.31,1.47,2.62,2.62,0,0,1-1.25,1.31,3.73,3.73,0,0,0-.58.41,2.58,2.58,0,0,1,.17,4.79,2.16,2.16,0,0,1,.28,1.84,3.85,3.85,0,0,1-1.34,1.63,5,5,0,0,0-.41.35,21.26,21.26,0,0,1-5.8,4.09,76.49,76.49,0,0,1-12.64,3.7h-.06C72.57,140.38,69.54,136.88,69,134Zm23.86-13.22a4.85,4.85,0,0,0-1.93.8l-.68.38a16.09,16.09,0,0,1-6.49,1.36.44.44,0,0,1-.41-.23.45.45,0,0,1,0-.47A7.81,7.81,0,0,1,87.5,120l1.58-2.46c-1.27-.11-4-.25-5.71.47a19.73,19.73,0,0,0-5.9,4.58c-1.21,1.23-3.57,3.53-5.13,5l-1.5,1.47a5.39,5.39,0,0,0-1,4.73,11.72,11.72,0,0,0,3.67,5.68,74.24,74.24,0,0,0,12.33-3.62A20.36,20.36,0,0,0,91.37,132l.44-.38a3.32,3.32,0,0,0,1.08-1.23,1.11,1.11,0,0,0-.53-1.36.43.43,0,0,1-.3-.46.46.46,0,0,1,.41-.38,1.81,1.81,0,0,0,1.63-1.72,1.83,1.83,0,0,0-1.6-1.76.45.45,0,0,1-.33-.19.45.45,0,0,1,0-.39,2.76,2.76,0,0,1,1.23-1.25c.4-.25.78-.5.89-.85a.67.67,0,0,0-.15-.66,1.61,1.61,0,0,0-1.18-.55Z"/><polygon class="cls-4" points="132.47 82.42 101.95 141.78 141.39 141.71 170.66 82.28 132.47 82.42"/><path class="cls-2" d="M101.59,142a.42.42,0,0,1,0-.42l30.51-59.36a.45.45,0,0,1,.39-.23l38.19-.14h0a.45.45,0,0,1,.37.2.42.42,0,0,1,0,.42L141.78,141.9a.42.42,0,0,1-.39.24l-39.43.07h0A.41.41,0,0,1,101.59,142ZM170,82.71l-37.24.14-30.07,58.5,38.46-.07Z"/><path class="cls-3" d="M159.3,105.76l-8.05-1.1a6.79,6.79,0,0,0-2-.08,2.38,2.38,0,0,0-1.66,1,1.11,1.11,0,0,0,.43,1.39,27.56,27.56,0,0,0,6.91,2.44c-.13.51-.74.7-1.26.76a18.61,18.61,0,0,1-3.48.31c-2.89-.15-3.35,1.28-2.41,2a17.46,17.46,0,0,0,5.92,1.19,5.08,5.08,0,0,1-2.18.61,4.35,4.35,0,0,0-2.15.67,1.59,1.59,0,0,0-.53,2,2.19,2.19,0,0,0,1.54.77,22,22,0,0,0,2.42.32,3.58,3.58,0,0,0-1,.73,1.14,1.14,0,0,0-.22,1.15,1.46,1.46,0,0,0,1.1.68,5,5,0,0,0,3.28-.51,7.92,7.92,0,0,0,2.58-2.54,21.06,21.06,0,0,0,3.4-8,4.42,4.42,0,0,0,.11-1.49A3.14,3.14,0,0,0,159.3,105.76Z"/><path class="cls-2" d="M152.66,121a1.81,1.81,0,0,1-1.41-.92,1.53,1.53,0,0,1,.28-1.6l.13-.15c-.44,0-.88-.12-1.32-.2a2.65,2.65,0,0,1-1.82-1,2,2,0,0,1,.63-2.58,4.47,4.47,0,0,1,2.18-.74,12.3,12.3,0,0,1-3.78-1.06,1.39,1.39,0,0,1-.51-1.6c.15-.4.78-1.34,3.21-1.21a14.35,14.35,0,0,0,2.69-.21l.71-.09a2.83,2.83,0,0,0,.5-.12l-.2,0a24,24,0,0,1-6.11-2.23,1.47,1.47,0,0,1-.69-1,1.4,1.4,0,0,1,.12-1,2.8,2.8,0,0,1,2-1.14,7.58,7.58,0,0,1,2.08.08l8.05,1.1h0a3.57,3.57,0,0,1,3.17,2.72,4.64,4.64,0,0,1-.11,1.64A21.42,21.42,0,0,1,159,117.8a8.41,8.41,0,0,1-2.73,2.67,5.31,5.31,0,0,1-2.55.65A4.87,4.87,0,0,1,152.66,121Zm-1.47-15.93a6.71,6.71,0,0,0-1.84-.08,1.93,1.93,0,0,0-1.36.75.72.72,0,0,0,.28.79,23.45,23.45,0,0,0,5.9,2.15l.91.24a.43.43,0,0,1,.3.52c-.1.42-.46.94-1.62,1.09l-.7.1a15,15,0,0,1-2.85.21c-1.53-.08-2.23.31-2.37.67-.08.19,0,.42.25.62a18.05,18.05,0,0,0,5.64,1.09h0a.43.43,0,0,1,.24.79,5.37,5.37,0,0,1-2.33.67h0a4.19,4.19,0,0,0-2,.59,1.18,1.18,0,0,0-.43,1.43,1.89,1.89,0,0,0,1.26.58,23.46,23.46,0,0,0,2.38.31.45.45,0,0,1,.38.34.43.43,0,0,1-.21.47,3.09,3.09,0,0,0-.86.63.72.72,0,0,0-.16.69c.12.26.5.38.79.44a4.55,4.55,0,0,0,3-.47,7.59,7.59,0,0,0,2.44-2.41,21,21,0,0,0,3.33-7.78,4.36,4.36,0,0,0,.1-1.35,2.74,2.74,0,0,0-2.44-2h0Z"/><path class="cls-2" d="M137.94,92.54h20.5a.43.43,0,1,0,0-.86h-20.5a.43.43,0,1,0,0,.86Z"/><path class="cls-2" d="M134.16,100.42h20.51a.43.43,0,1,0,0-.86H134.16a.43.43,0,1,0,0,.86Z"/><path class="cls-2" d="M123.56,122h20.5a.43.43,0,0,0,.43-.43.43.43,0,0,0-.43-.43h-20.5a.44.44,0,0,0-.44.43A.44.44,0,0,0,123.56,122Z"/><path class="cls-2" d="M119.12,129.72h20.5a.43.43,0,1,0,0-.86h-20.5a.43.43,0,0,0,0,.86Z"/><path class="cls-2" d="M58.06,94.45a.44.44,0,0,0,.37-.2.43.43,0,0,0-.14-.59,10.72,10.72,0,0,1-4.91-7.48.43.43,0,0,0-.85.13,11.57,11.57,0,0,0,5.3,8.08A.46.46,0,0,0,58.06,94.45Z"/><path class="cls-2" d="M51,91.69a.39.39,0,0,0,.15,0,.43.43,0,0,0,.25-.56l-1.56-4.22a.42.42,0,0,0-.55-.25.43.43,0,0,0-.26.55l1.57,4.22A.42.42,0,0,0,51,91.69Z"/><g class="cls-6"><path class="cls-2" d="M27.39,130.57c.68-1.45,1.26-2.93,2-4.37a1.49,1.49,0,0,1,1.36-1.11c.2-.8.38-1.6.55-2.41.3-1.3.46-2.62.7-3.92.15-.55.08-1.2.43-1.67a1.08,1.08,0,0,1,1.9,1c-.81,5-1.78,12.62-3.15,16.1a1.46,1.46,0,0,1-1.56.93,2.42,2.42,0,0,1-1.73.35h.09c-1,.08-2-.15-2.05-1.33A16.08,16.08,0,0,1,27.39,130.57Z"/></g><g class="cls-6"><path class="cls-2" d="M146.89,111.33a1,1,0,0,1,1.42,1.12.08.08,0,0,1,0,0l.06.06,0,0,.05,0,.09,0c.25.08.51.13.78.19h0a3.05,3.05,0,0,1,1.17.11,1.14,1.14,0,0,1-.45,2.19,4.06,4.06,0,0,1-.92,0,1.07,1.07,0,0,1,.11,1.25v0a2.64,2.64,0,0,0-.12.4h0l.08.09c.09.09.19.2.29.29h0a.8.8,0,0,0,.16.08,2.84,2.84,0,0,0,.49.17c.49.13,1.08.12,1.42.53a1.1,1.1,0,0,1,.59,1.28c-.36.81-.2,2.23-1.34,2.35a1.11,1.11,0,0,1-1.22-1.39c0-.14.07-.3.1-.46a3.74,3.74,0,0,1-1.42-.48,2.59,2.59,0,0,1-1.16-2.66s0,.13,0,.19a3.4,3.4,0,0,1,.34-1.08,1.48,1.48,0,0,1,.72-.83,3.05,3.05,0,0,1-1.52-1.11C146.2,113.06,146,111.71,146.89,111.33Z"/></g><g class="cls-6"><path class="cls-2" d="M146.63,106.08a1,1,0,0,1,1.58.42.65.65,0,0,0,0,.13c0,.05,0,0,0-.07l.05.13h0c.08.1.24.25.31.33l.25.16a3.48,3.48,0,0,0,1.08.47c.78.21,1.56.46,2.35.64a3.4,3.4,0,0,1,1.42.42,1.08,1.08,0,0,1-.94,1.89c-1.89-.5-4.1-.68-5.51-2.19C146.63,107.74,146,106.77,146.63,106.08Z"/></g></g></g></svg>