<?xml version="1.0" encoding="UTF-8"?><svg id="Layer_1" xmlns="http://www.w3.org/2000/svg" viewBox="0 0 143.74 143.74"><defs><style>.cls-1{fill:#0072c8;}.cls-2{stroke-width:6px;}.cls-2,.cls-3,.cls-4,.cls-5{fill:none;stroke-linecap:round;stroke-linejoin:round;}.cls-2,.cls-3,.cls-5{stroke:#fff;}.cls-3,.cls-4{stroke-width:4.5px;}.cls-4{stroke:#f6ae2d;}.cls-5{stroke-width:7.5px;}</style></defs><circle class="cls-1" cx="71.87" cy="71.87" r="71.87"/><g><path class="cls-3" d="M110.35,85.08c2.28-2.41,7.05-6.97,8.87-10.8,0,0-9.47-8.06-14.82-15.76,6.89-10.36,8.04-15.29,5.9-23.72-9.38,1.31-17.92,.68-23.54,6.33-4.33-1.54-9.43-2.43-14.88-2.43s-10.55,.89-14.88,2.43c-5.62-5.65-14.15-5.02-23.54-6.33-2.15,8.43-.99,13.36,5.9,23.72-5.35,7.7-14.82,15.76-14.82,15.76,1.82,3.83,6.59,8.39,8.87,10.8,.55,.58-1.93,3.53-1.93,3.53,5.77,9.4,16.35,19.87,40.4,20.33,24.08-.46,34.64-10.95,40.4-20.33,0,0-2.48-2.95-1.93-3.53Z"/><g><line class="cls-5" x1="91.27" y1="72.71" x2="85.61" y2="73.04"/><line class="cls-5" x1="52.47" y1="72.71" x2="58.13" y2="73.04"/></g><g><line class="cls-2" x1="62.35" y1="63.81" x2="62.75" y2="62.31"/><line class="cls-2" x1="81.39" y1="63.81" x2="80.99" y2="62.31"/></g><g><path class="cls-3" d="M72.01,73.04c7.78,9.48,13.27,1.9,24.02,18.49,1.81,2.79-1.13,10.79-3.11,13.51"/><path class="cls-3" d="M71.73,73.04c-7.78,9.48-13.27,1.9-24.02,18.49-1.81,2.79,1.13,10.79,3.11,13.51"/></g><line class="cls-3" x1="71.87" y1="70.4" x2="71.87" y2="74.41"/><g><path class="cls-3" d="M86.7,41.13s12.29,7.35,17.64,17.39"/><path class="cls-3" d="M57.04,41.13s-12.29,7.35-17.64,17.39"/></g><circle class="cls-3" cx="71.87" cy="87.72" r="1.88"/></g><g><circle class="cls-4" cx="88.65" cy="92.03" r="14.96"/><rect class="cls-4" x="107.61" y="106.38" width="7.06" height="16.28" transform="translate(-48.43 112.13) rotate(-45)"/><line class="cls-4" x1="99.23" y1="102.61" x2="105.38" y2="108.76"/></g></svg>