<?xml version="1.0" encoding="UTF-8"?><svg id="Layer_1" xmlns="http://www.w3.org/2000/svg" viewBox="0 0 250 250"><defs><style>.cls-1{fill:#f6ae2d;}.cls-2{fill:#f4f6f9;}</style></defs><g><path class="cls-2" d="M131.71,55.27c-17.83-.03-35.64-.03-53.46,0-7.8,0-13.01,5.23-13.01,13.04-.02,37.75-.02,75.52,0,113.27,0,7.87,5.26,13.13,13.15,13.15,17.83,.02,35.64,.03,53.46,0,7.78-.02,12.98-5.28,13-13.06,.02-9.79,0-19.56,0-29.35v-2.44h-4.93v9.96H70.22V80.16h69.65v7.71l4.98,3.97v-2.56c0-6.91,.02-13.84,0-20.75,0-8.1-5.07-13.24-13.13-13.25Zm8.31,109.65v6.78c0,3.42,.03,6.85,0,10.27-.05,4.6-3.15,7.86-7.69,7.87-18.14,.03-36.27,.03-54.39-.02-4.26-.02-7.54-2.68-7.74-6.79-.28-5.95-.07-11.93-.07-18.11h69.89Zm0-89.73h-2.17c-21.86,0-43.72-.03-65.58,.03-1.83,.02-2.4-.51-2.25-2.29,.15-1.66,.02-3.36,.05-5.04,.09-4.56,3.27-7.77,7.81-7.77,18.07-.03,36.12-.03,54.18-.02,4.83,.02,7.92,3.13,7.96,7.96,.02,2.28,0,4.57,0,7.12Z"/><path class="cls-2" d="M105.13,169.92c4.04,.03,7.39,3.42,7.36,7.43-.03,4.06-3.35,7.38-7.4,7.39-4.17,0-7.45-3.32-7.41-7.52,.04-4.08,3.36-7.33,7.45-7.3Zm2.46,7.42c0-1.4-1.22-2.62-2.62-2.57-1.3,.04-2.45,1.24-2.45,2.56,0,1.32,1.14,2.53,2.44,2.58,1.39,.05,2.63-1.14,2.63-2.56Z"/><path class="cls-2" d="M105.18,65.21c.81,0,1.62-.06,2.43,.01,1.43,.14,2.34,.95,2.33,2.41-.01,1.46-.89,2.3-2.36,2.35-1.68,.06-3.36,.06-5.04,0-1.38-.04-2.23-.81-2.32-2.2-.09-1.47,.72-2.37,2.16-2.55,.92-.12,1.86-.02,2.8-.02v-.02Z"/></g><path class="cls-1" d="M181.35,90.18c-2.16-.02-4.3-.02-6.46-.02-.06-.76-.11-1.2-.12-1.63-.07-2.74-.67-3.33-3.48-3.36-1.5-.02-3,.05-4.5-.03-7.89-.36-15.28,.94-21.95,6.7l-4.98-3.97c-2.58-.75-5.13-1.93-7.77-2.17-4.87-.45-9.82-.39-14.72-.45-1.38-.02-2.11,.93-2.23,2.29-.06,.81-.09,1.6-.16,2.64-2.32,0-4.54-.03-6.76,0-2.29,.03-3.06,.75-3.06,3.01-.02,17.83-.02,35.64,0,53.46,0,2.44,.79,3.21,3.28,3.21,9.71,.01,19.44,.01,29.16,.01h7.24s2.4-.01,2.4-.01c11.27,0,22.55,.01,33.82,0,3.03,0,3.7-.66,3.7-3.75v-52.52c0-2.73-.69-3.42-3.42-3.42Zm-71.27,54.72v-49.73h5.04v2.31c-.03,12.71-.05,25.41-.06,38.13,0,3.76,.49,4.21,4.32,4.27,3.99,.06,7.99,.02,11.93,.42,3.57,.36,6.75,1.99,10.01,4.6h-31.24Zm32.46-6.63c0,.31-.06,.61-.12,1.36-6.79-4.86-14.44-4.87-22.34-4.59v-44.86c7.57-.52,14.92-.52,21.08,4.75,.66,.57,1.32,1.59,1.32,2.41,.09,13.64,.06,27.29,.06,40.91Zm4.86-.81c0-13.21,.03-26.42-.03-39.62-.02-1.41,.46-2.28,1.56-3.12,3.94-2.98,8.34-4.65,13.31-4.68,2.49-.02,4.96,0,7.62,0v44.77c-3.96,.18-7.87-.03-11.6,.66-3.66,.67-7.15,2.26-10.78,3.46-.02-.28-.08-.87-.08-1.47Zm32.44,7.36h-30.93c.37-.36,.66-.7,1.02-.94,3.67-2.59,7.75-3.93,12.23-4,2.98-.05,5.97,0,8.97-.02,3.06,0,3.69-.63,3.69-3.75,0-12.88-.03-25.77-.03-38.66v-2.34h5.05v49.71Z"/></svg>