<?xml version="1.0" encoding="UTF-8"?><svg id="Layer_1" xmlns="http://www.w3.org/2000/svg" xmlns:xlink="http://www.w3.org/1999/xlink" viewBox="0 0 427.71 246.6"><defs><style>.cls-1{fill:#8c6239;}.cls-2{fill:#0072c8;}.cls-3{fill:#002760;}.cls-4{fill:#f6ae2d;}.cls-5{filter:url(#drop-shadow-9);}.cls-6{fill:#f4f6f9;}</style><filter id="drop-shadow-9" filterUnits="userSpaceOnUse"><feOffset dx="3" dy="3"/><feGaussianBlur result="blur" stdDeviation="4.5"/><feFlood flood-color="#558699" flood-opacity=".3"/><feComposite in2="blur" operator="in"/><feComposite in="SourceGraphic"/></filter></defs><g class="cls-5"><rect class="cls-6" x="74.3" y="73.33" width="332.66" height="151.73" rx="30.15" ry="30.15"/><circle class="cls-6" cx="72.54" cy="73.33" r="51.79"/><g><path class="cls-2" d="M72.54,36.43c-20.38,0-36.9,16.52-36.9,36.9,0,4.35,.75,8.52,2.13,12.39,.5-.72,.98-1.51,1.42-2.39,3.67-7.35,1.32-11.39,4.47-15.7,3.14-4.31,10.26-4.65,12.24-8.95,1.98-4.3,0-12.74,6.95-15.55,6.95-2.81,12.57,2.98,12.08,6.95,0,0,4.14-4.96,8.77-2.48,4.63,2.48,1.65,7.61,3.47,9.84,2.22,2.72,7.11,1.24,10.09,7.36,1.9,3.9-2.39,9.26-1.06,14.16,1.64,6.06,6.47,7.77,8.23,12.94,3.18-5.45,5.01-11.8,5.01-18.57,0-20.38-16.52-36.9-36.9-36.9Z"/><path class="cls-3" d="M97.26,64.8c-2.98-6.12-7.87-4.64-10.09-7.36-1.82-2.23,1.16-7.36-3.47-9.84-4.63-2.48-8.77,2.48-8.77,2.48,.5-3.97-5.13-9.76-12.08-6.95-6.95,2.81-4.96,11.25-6.95,15.55-1.99,4.3-9.1,4.63-12.24,8.95-3.14,4.31-.79,8.35-4.47,15.7-.44,.89-.92,1.67-1.42,2.39,1.54,4.33,3.88,8.29,6.82,11.71,6.06-3.46,12.41-5.96,16.64-8.07,.6-.3,1.17-.61,1.71-.93,7.32-4.32,8.96-10.02,9.22-11.12-2.8-1.74-5.54-7.59-5.54-11.2,0-4.28,2.02-8.67,7.3-8.67,4.76,0,6.68,3.82,6.68,8.46,0,3.97-2.57,9.68-5.31,11.4,.16,1.13,1.24,7.2,6.38,11.13,.92,.7,1.97,1.33,3.16,1.86,6.16,2.7,11.07,5.36,14.99,7.88,1.75-1.92,3.29-4.02,4.61-6.27-1.76-5.17-6.59-6.88-8.23-12.94-1.32-4.89,2.96-10.25,1.06-14.16Z"/><path class="cls-4" d="M81.67,88.42s0,0,0,0c-9.45,6.18-18.72,0-18.72,0h0c-.54,.32-1.11,.63-1.71,.93-4.22,2.11-10.58,4.61-16.64,8.07,6.77,7.84,16.77,12.8,27.94,12.8s20.53-4.65,27.28-12.06c-3.91-2.53-8.82-5.19-14.99-7.88-1.2-.52-2.24-1.16-3.16-1.86Z"/><path class="cls-1" d="M75.29,77.3c2.75-1.72,5.31-7.43,5.31-11.4,0-4.64-1.92-8.46-6.68-8.46-5.28,0-7.3,4.38-7.3,8.67,0,3.61,2.73,9.45,5.54,11.2-.26,1.1-1.9,6.8-9.22,11.12h0s9.27,6.18,18.72,0c0,0,0,0,0,0-5.15-3.93-6.22-10-6.38-11.13Z"/></g></g></svg>