<?xml version="1.0" encoding="UTF-8"?><svg id="Layer_1" xmlns="http://www.w3.org/2000/svg" viewBox="0 0 250 250"><defs><style>.cls-1{fill:#f6ae2d;}.cls-2{fill:none;}.cls-3{fill:#f4f6f9;}</style></defs><path class="cls-1" d="M89.56,90.02c-3.33-2.01-6.42-3.87-9.5-5.74-1.94-1.17-3.88-2.33-5.79-3.53-.59-.37-1.14-.81-1.65-1.28-2.58-2.38-2.42-4.65,.52-6.54,4.06-2.62,8.53-3.01,13.05-1.73,6.53,1.84,12.98,3.94,19.47,5.9,1.54,.47,3.14,.72,4.66,1.25,1.97,.68,3.85,.55,5.71-.25,5.3-2.31,10.6-4.62,15.87-6.98,4.57-2.05,9.16-4.04,14.18-4.7,5.32-.7,10.44-.1,15.1,2.76,1.2,.74,2.32,1.71,3.24,2.78,1.88,2.2,1.63,4.78-.47,6.74-4.42,4.12-9.7,6.86-15.04,9.54-5.17,2.59-10.29,5.27-15.39,7.99-.74,.4-1.44,1.16-1.81,1.93-3.61,7.57-7.09,15.21-10.72,22.78-2.57,5.37-5.17,10.74-8.03,15.96-1.82,3.34-4.96,5.36-8.57,6.41-3.3,.96-5.56-1.12-4.96-4.53,1.52-8.69,3.14-17.36,4.72-26.04,.22-1.19,.45-2.38,.72-3.83-1.11,.45-2.02,.81-2.92,1.18-7.52,3.09-14.95,6.42-22.89,8.33-4.29,1.03-8.63,1.84-13.05,1.41-1.94-.19-3.89-.89-5.67-1.72-1.02-.47-2-1.53-2.48-2.57-2.91-6.31-5.79-12.65-8.45-19.07-1.64-3.98,.5-7.04,4.84-7.46,1.57-.15,3.07,.06,4.38,.94,2.66,1.8,5.28,3.68,7.91,5.52,1.39,.97,2.68,2.56,4.17,2.76,1.41,.19,3.04-1.02,4.53-1.69,4.67-2.1,9.33-4.24,14.33-6.52Zm-35.55,3.58c.21,.7,.28,1.02,.41,1.32,2.3,5.26,4.56,10.54,6.91,15.77,1.62,3.6,1.68,3.59,5.67,3.63,7.56,.07,14.76-1.76,21.69-4.58,7.21-2.93,14.34-6.07,21.51-9.1,.45-.19,.93-.33,1.51-.53-2.29,12.53-4.55,24.85-6.8,37.17,.13,.04,.25,.07,.38,.11,2.47-2.33,4.57-4.94,6.01-8.08,5.38-11.7,10.81-23.37,16.17-35.08,.69-1.51,1.57-2.57,3.15-3.19,2.1-.83,4.12-1.86,6.17-2.82,7.8-3.66,15.59-7.36,22.53-12.56,.36-.27,.7-.55,1.15-.92-5.97-3.49-12.07-4.67-18.4-1.97-10.52,4.49-20.94,9.2-31.42,13.79-12.79,5.6-25.59,11.17-38.38,16.78-1,.44-1.93,.52-2.86,0-1.93-1.08-3.89-2.11-5.73-3.33-2.1-1.39-4.06-3.01-6.13-4.44-1.01-.7-2.16-1.21-3.54-1.98Zm24.3-17.44c-.02,.15-.05,.29-.07,.44,.15,.14,.28,.31,.45,.42,5.43,3.37,10.86,6.73,16.3,10.08,.22,.14,.61,.22,.83,.12,3.25-1.4,6.49-2.84,9.82-4.3-3.59-1.22-7.01-2.47-10.49-3.55-3.27-1.01-6.57-2.01-9.92-2.69-2.25-.46-4.61-.37-6.92-.52Z"/><g><path class="cls-2" d="M191.17,101.44c0,12.89,.03,55.77,.03,68.65,0,3.12-.63,3.75-3.69,3.75-3,.02-5.98-.03-8.97,.02-4.48,.08-23.55,1.41-27.23,4-.36,.24-.64,.58-1.02,.94h45.92V99.1h-5.05v2.34Z"/><path class="cls-2" d="M186.23,168.79V94.04c-2.65,0-5.13-.02-7.62,0-4.98,.03-24.36,1.69-28.31,4.68-1.09,.84-1.57,1.71-1.56,3.12,.06,13.21,.03,56.4,.03,69.61,0,.6,.06,1.18,.08,1.47,3.63-1.2,7.12-2.79,10.78-3.46,3.73-.69,22.64-.48,26.6-.66Z"/><path class="cls-3" d="M197.73,94.17c-2.16-.02-4.3-.02-6.46-.02-.06-.76-.11-1.2-.12-1.63-.07-2.74-.67-3.33-3.48-3.36-1.5-.02-3,.05-4.5-.03-7.89-.36-30.27,.94-36.94,6.7l-1.34-1.07c-1.68,.86-3.35,1.71-5.02,2.58,1.06,.47,1.97,.99,2.67,1.59,.66,.57,1.32,1.59,1.32,2.41,.09,13.64,.06,57.27,.06,70.9,0,.31-.06,.61-.12,1.36-6.79-4.86-29.43-4.87-37.33-4.59v-22c-.68,.29-1.38,.55-2.1,.76-1.12,.33-2.1,.28-2.91-.03,0,9.23-.01,17.36-.02,21.81,0,3.76,.49,4.21,4.32,4.27,3.99,.06,7.99,.02,11.93,.42,3.57,.36,21.74,1.99,25.01,4.6h-46.24v-62.04c-1.64,.68-3.28,1.34-4.93,1.99,0,21.42,0,49.16,0,61.81,0,2.44,.79,3.21,3.28,3.21,9.71,.01,34.44,.01,44.15,.01h7.24s2.4-.01,2.4-.01c11.27,0,37.54,.01,48.81,0,3.03,0,3.7-.66,3.7-3.75V97.59c0-2.73-.69-3.42-3.42-3.42Zm-48.95,77.27c0-13.21,.03-56.4-.03-69.61-.02-1.41,.46-2.28,1.56-3.12,3.94-2.98,23.33-4.65,28.31-4.68,2.49-.02,4.96,0,7.62,0v74.75c-3.96,.18-22.86-.03-26.6,.66-3.66,.67-7.15,2.26-10.78,3.46-.02-.28-.08-.87-.08-1.47Zm47.44,7.36h-45.92c.37-.36,.66-.7,1.02-.94,3.67-2.59,22.74-3.93,27.23-4,2.98-.05,5.97,0,8.97-.02,3.06,0,3.69-.63,3.69-3.75,0-12.88-.03-55.76-.03-68.65v-2.34h5.05v79.7Z"/></g></svg>