<?xml version="1.0" encoding="UTF-8"?><svg xmlns="http://www.w3.org/2000/svg" xmlns:xlink="http://www.w3.org/1999/xlink" viewBox="0 0 1476.77 607.04"><defs><style>.cls-1{filter:url(#drop-shadow-16);}.cls-1,.cls-2{fill:#f4f6f9;}.cls-3{fill:#0072c8;}.cls-4{fill:#f2bd98;}.cls-5{isolation:isolate;}.cls-6{fill:#002760;}.cls-7,.cls-8{fill:#3aa1ff;}.cls-9{fill:#003d87;}.cls-10{fill:#f6ae2d;}.cls-11{clip-path:url(#clippath);}.cls-12{fill:none;}.cls-8{opacity:.71;}.cls-13{mix-blend-mode:soft-light;opacity:.4;}.cls-2{filter:url(#drop-shadow-15);}</style><clipPath id="clippath"><rect class="cls-12" x="16.5" y="-582.11" width="1919" height="490.76"/></clipPath><filter id="drop-shadow-15" filterUnits="userSpaceOnUse"><feOffset dx="3" dy="3"/><feGaussianBlur result="blur" stdDeviation="4.5"/><feFlood flood-color="#558699" flood-opacity=".3"/><feComposite in2="blur" operator="in"/><feComposite in="SourceGraphic"/></filter><filter id="drop-shadow-16" filterUnits="userSpaceOnUse"><feOffset dx="3" dy="3"/><feGaussianBlur result="blur-2" stdDeviation="4.5"/><feFlood flood-color="#558699" flood-opacity=".3"/><feComposite in2="blur-2" operator="in"/><feComposite in="SourceGraphic"/></filter></defs><g class="cls-5"><g id="Layer_1"><g class="cls-11"><g class="cls-13"><polygon class="cls-8" points="2166.26 -381.88 2115.42 -409.79 2115.42 -488.12 1978.06 -488.12 1978.06 -572.33 1801.45 -572.33 1801.45 -358.87 1760.42 -358.87 1760.42 -308.94 1728.31 -308.94 1728.31 -189.48 1690.85 -189.48 1690.85 -353.98 1598.09 -353.98 1598.09 -401.96 1545.46 -401.96 1545.46 -325.09 1496.4 -298.17 1496.4 -143.46 1380.45 -143.46 1380.45 -483.23 1255.58 -483.23 1255.58 -419.58 1157.46 -419.58 1130.7 -404.89 1130.7 -369.64 1007.61 -369.64 984.42 -356.92 984.42 -237.46 932.69 -237.46 932.69 -421.54 836.36 -421.54 836.36 -389.23 683.83 -389.23 683.83 -311.38 656.18 -296.21 656.18 -219.75 610.2 -219.75 610.2 -408.44 547.76 -422.15 547.76 -473.07 380.07 -473.07 380.07 -257.65 353.31 -257.65 353.31 -530.84 317.63 -529.86 212.38 -500.48 212.38 -232.2 167.79 -232.2 167.79 -409.42 141.03 -444.67 141.03 -458.38 78.59 -458.38 78.59 -444.67 44.7 -444.67 17.94 -413.34 -7.04 -413.34 -7.04 -544.54 -71.26 -544.54 -71.26 -497.06 -163.13 -497.06 -215.75 -468.17 -215.75 201.53 499.82 201.53 610.2 201.53 922.55 201.53 922.55 200.99 2166.26 200.19 2166.26 -381.88"/><polygon class="cls-3" points="1708.65 -382.87 1683.37 -355.09 1683.37 -269.88 1656.41 -269.88 1656.41 -503.27 1535.92 -503.27 1535.92 40.39 1499.69 .56 1499.69 -312.48 1231.74 -312.48 1231.74 -232.83 1090.19 -232.83 1090.19 17.23 1090.19 127.34 965.83 127.34 965.83 -197.85 929.87 -197.85 929.87 -324.37 856.13 -324.37 856.13 -114.82 821.96 -114.82 821.96 -75.29 778.8 -150.41 703.26 -150.41 703.26 -421.23 557.59 -421.23 545 -407.4 545 -324.37 545 -231.46 503.63 -231.46 503.63 -478.56 379.54 -478.56 379.54 -437.05 355.26 -410.36 355.26 10.7 327.39 10.7 327.39 -327.33 311.2 -327.33 311.2 -359.95 168.22 -359.95 143.95 -333.26 143.95 -295.7 9.06 -295.7 1.87 183.67 451.48 183.67 451.48 182.68 908.28 182.68 908.28 183.67 1090.19 183.67 1352.5 183.67 1816.5 183.67 1816.5 -382.87 1708.65 -382.87"/><polygon class="cls-9" points="1815.76 -348.01 1815.76 -10.22 1772.16 -10.22 1772.16 -144.65 1710.4 -197.03 1710.4 -400.39 1632.29 -400.39 1586.88 -438.91 1528.76 -438.91 1528.76 -234.01 1388.89 -234.01 1388.89 -1.38 1352.56 -1.38 1352.56 -326.44 1250.84 -281.77 1250.84 -87.65 1223.59 -87.65 1223.59 -386.53 1189.08 -386.53 1189.08 -474.34 1180.29 -474.34 1180.29 -494.37 1103.07 -494.37 1103.07 -477.42 1054.66 -477.42 1054.66 -409.63 974.73 -409.63 954.75 -386.53 954.75 -109.22 886.63 -109.22 886.63 -165.45 843.95 -201.65 843.95 -334.15 695 -334.15 695 -224.76 640.5 -224.76 640.5 -132.33 575.11 -70.7 533.33 -70.7 533.33 -363.42 417.08 -431.2 417.08 -160.06 389.83 -160.06 389.83 -346.47 251.78 -346.47 251.78 -281.77 188.2 -281.77 188.2 27.89 160.95 27.89 160.95 -106.14 68.31 -106.14 68.31 -147.73 51.97 -167.76 -47.94 -167.76 -55.21 372.99 1668.9 372.99 1772.16 372.99 1815.76 372.99 1934 372.99 1934 -348.01 1815.76 -348.01"/></g></g><g><g><g><circle class="cls-7" cx="103.12" cy="431.55" r="7.72"/><circle class="cls-9" cx="156.39" cy="301.27" r="7.72"/><circle class="cls-9" cx="179.43" cy="358.13" r="7.72"/><circle class="cls-9" cx="249.07" cy="293.55" r="7.72"/><circle class="cls-9" cx="370.71" cy="298.24" r="10.65" transform="translate(-58.79 93.54) rotate(-13.33)"/><circle class="cls-3" cx="330.89" cy="395.21" r="10.65" transform="translate(-182.54 349.73) rotate(-45)"/><circle class="cls-3" cx="249.07" cy="361.93" r="7.72"/><circle class="cls-3" cx="370.71" cy="233.45" r="10.65" transform="translate(-56.5 330.51) rotate(-45)"/><circle class="cls-3" cx="271.57" cy="423.83" r="7.72"/><circle class="cls-7" cx="455.29" cy="298.24" r="7.72"/><circle class="cls-3" cx="176.76" cy="418.84" r="10.65" transform="translate(-91.83 52.06) rotate(-13.33)"/><circle class="cls-3" cx="75.94" cy="301.27" r="10.65" transform="translate(-47.41 16.11) rotate(-9.24)"/><circle class="cls-3" cx="188.25" cy="236.32" r="10.65" transform="translate(-112.78 210.53) rotate(-46.56)"/><rect class="cls-3" x="307.15" y="297.04" width="34.76" height="2.4"/><rect class="cls-9" x="227.22" y="396.8" width="29.47" height="2.4"/><rect class="cls-7" x="284.98" y="422.64" width="29.42" height="2.4"/><rect class="cls-7" x="395.94" y="297.04" width="23.68" height="2.4"/><rect class="cls-7" x="270.37" y="382.06" width="2.4" height="23.68"/><rect class="cls-9" x="99.24" y="300.07" width="23.68" height="2.4"/><rect class="cls-3" x="216.62" y="386.25" width="2.4" height="23.49"/><rect class="cls-7" x="247.88" y="319.74" width="2.4" height="23.68"/><rect class="cls-3" x="329.69" y="412.26" width="2.4" height="25.15"/><rect class="cls-3" x="369.51" y="249.07" width="2.4" height="16.4"/><rect class="cls-3" x="432.4" y="290.04" width="2.4" height="16.39"/><rect class="cls-3" x="207.46" y="417.64" width="16.39" height="2.4"/><path class="cls-7" d="M340.71,505.74c0-8.79,4.86-16.74,12.69-20.74l18.39-9.4c6.85-3.5,11.11-10.45,11.11-18.15v-29.55h2.4v29.55c0,8.6-4.76,16.37-12.41,20.28l-18.39,9.4c-7.02,3.59-11.39,10.72-11.39,18.61v14.75h-2.4v-14.75Z"/><path class="cls-9" d="M382.9,371.7c0-8.93-7.26-16.19-16.19-16.19h-18.43c-8.93,0-16.19,7.26-16.19,16.19v7.7h-2.4v-7.7c0-10.25,8.34-18.59,18.59-18.59h18.43c10.25,0,18.59,8.34,18.59,18.59v47.34h-2.4v-47.34Z"/><path class="cls-7" d="M219.01,378.1v-4.02c0-9.45-7.69-17.14-17.14-17.14h-10.6s0,2.4,0,2.4h10.6c8.13,0,14.75,6.62,14.75,14.75v4.02s2.4,0,2.4,0Z"/><rect class="cls-7" x="119.23" y="268.24" width="2.4" height="23.43"/><path class="cls-9" d="M118.58,480.51v-2.4s-2.39,0-2.39,0c-6.54,0-11.86-5.32-11.86-11.87v-18.79s-2.4,0-2.4,0v18.79c0,7.86,6.4,14.26,14.26,14.26h2.39Z"/><path class="cls-3" d="M296.5,299.44v-2.4s-4.87,0-4.87,0c-11.72,0-21.26,9.54-21.26,21.26v51.35s2.4,0,2.4,0v-51.35c0-10.4,8.46-18.86,18.86-18.86h4.87Z"/></g><g><circle class="cls-3" cx="1350.69" cy="427.16" r="10.65"/><path class="cls-3" d="M1227.79,326.71c0,4.26-3.45,7.72-7.72,7.72-4.26,0-7.72-3.46-7.72-7.72,0-4.26,3.45-7.72,7.72-7.72,4.26,0,7.72,3.46,7.72,7.72Z"/><circle class="cls-7" cx="1403.76" cy="326.52" r="7.72"/><circle class="cls-3" cx="1220.07" cy="450.91" r="10.65"/><circle class="cls-7" cx="1129.62" cy="278.97" r="10.65"/><circle class="cls-7" cx="1220.07" cy="403.8" r="10.65" transform="translate(71.82 980.99) rotate(-45)"/><rect class="cls-3" x="1348.13" y="343.23" width="2.4" height="32.05"/><rect class="cls-7" x="1218.87" y="341.98" width="2.4" height="23.68"/><rect class="cls-7" x="1359.01" y="325.32" width="23.68" height="2.4"/><circle class="cls-9" cx="1174.69" cy="367.61" r="10.65" transform="translate(84.12 938.3) rotate(-45)"/><circle class="cls-9" cx="1240.13" cy="404.52" r="7.72"/><circle class="cls-9" cx="1125.35" cy="524.57" r="7.72"/><circle class="cls-9" cx="1154.22" cy="450.91" r="7.72"/><rect class="cls-3" x="1259.67" y="403.32" width="111.18" height="2.4"/><rect class="cls-7" x="1168.69" y="449.71" width="23.68" height="2.4"/><rect class="cls-3" x="1348.13" y="314.87" width="2.4" height="16.39"/><path class="cls-9" d="M1386.55,405.72h-2.17s0-2.4,0-2.4h2.17c9.44,0,17.11-7.68,17.11-17.11v-17.92s2.4,0,2.4,0v17.92c0,10.76-8.75,19.51-19.51,19.51Z"/><path class="cls-7" d="M1313.21,388.72h-2.4s0-41.39,0-41.39c0-12.14,9.88-22.01,22.01-22.01h6.81s0,2.4,0,2.4h-6.81c-10.82,0-19.62,8.8-19.62,19.62v41.39Z"/><path class="cls-9" d="M1292.63,446.19h-32.96s0-2.4,0-2.4h32.96c10.03,0,18.19-8.16,18.19-18.19v-8.24s2.4,0,2.4,0v8.24c0,11.35-9.23,20.58-20.58,20.58Z"/><rect class="cls-9" x="1092.6" y="404.51" width="93.29" height="2.4"/></g></g><g><path class="cls-2" d="M200.22,406.47h0c0,91.56,74.23,165.79,165.79,165.79h703.78c91.56,0,165.79-74.23,165.79-165.79V240.68H366.01c-91.56,0-165.79,74.23-165.79,165.79Z"/><circle class="cls-1" cx="1225.01" cy="210.51" r="175.73"/><g><polygon class="cls-10" points="1252.03 178.13 1252.04 178.13 1252.03 178.13 1252.03 178.13"/><path class="cls-10" d="M1169.89,270.55c1.45-.7,2.86-1.38,4.21-2.06,2.43-1.22,4.73-2.47,6.91-3.76,4.59-2.71,8.62-5.56,12.17-8.45,21.23-17.3,24.96-36.14,25.14-37.11-6.21-3.86-12.33-12.71-16.59-22.31-12.17-5.3-21.8-17.77-16.8-21.44,4.19-3.07,9.6,.87,11.27,2.26,0-.02,0-.05,0-.07-1.95-2.04-8.56-10.08-6.27-23.25,2.68-15.38,21.21-20.64,28.43-22.07,13.29-2.64,27.09-6.48,31.44-10.16,4.35-3.68,9.7-8.9,9.7-16.6,0,0,6.35,14.38,3.01,26.42,0,0,6.69-3.68,8.03-6.02,0,0,6.53,22.8-18.48,52.2,0,0,6.77-6.38,11.79-2.71,5.02,3.68-4.67,16.2-16.88,21.48h0c-4.1,9.84-10.08,18.64-16.26,22.39,.22,1.87,2.8,20.99,16.79,37,2.59,2.97,5.57,5.82,9.01,8.45,2.64,2.01,5.54,3.88,8.73,5.55,21.16,7.81,38.7,16.95,51.96,24.95,20.51-22.3,33.04-52.05,33.04-84.73,0-69.15-56.06-125.2-125.2-125.2s-125.2,56.06-125.2,125.2c0,29.69,10.34,56.96,27.61,78.42,11.77-6.07,26.01-12.6,42.43-18.66,0,0,.02,.1,.05,.28Z"/><path class="cls-4" d="M1196.18,177.61s0,.05,0,.07c.24,.2,.4,.34,.47,.41-.07-.07-.24-.23-.48-.48Z"/><path class="cls-6" d="M1270.51,125.92c-1.34,2.34-8.03,6.02-8.03,6.02,3.34-12.04-3.01-26.42-3.01-26.42,0,7.69-5.35,12.92-9.7,16.6-4.35,3.68-18.15,7.51-31.44,10.16-7.22,1.44-25.75,6.69-28.43,22.07-2.29,13.17,4.32,21.21,6.27,23.25,.24,.25,.4,.41,.48,.48,.03,.03,.05,.04,.05,.04,9.08-8.33,12.6-19.76,12.6-19.76,20.34,22,42.58,19.78,42.72,19.76h0c25-29.4,18.48-52.2,18.48-52.2Z"/><path class="cls-3" d="M1265.18,270.27s.02,0,.03,.01c-3.19-1.67-6.09-3.54-8.73-5.55-3.44-2.62-6.42-5.48-9.01-8.45-27.81,35.77-54.3,0-54.3,0-3.55,2.89-7.58,5.73-12.17,8.45-2.18,1.29-4.48,2.54-6.91,3.76-1.35,.67-2.76,1.36-4.21,2.06,.45,2.73,4.13,25.69,6.29,55.28,15,6.36,31.5,9.88,48.82,9.88,11.59,0,22.81-1.58,33.46-4.53,2.21-34.15,6.71-60.91,6.71-60.91Z"/><path class="cls-4" d="M1246.94,196.9h0c12.21-5.28,21.9-17.8,16.88-21.48-5.02-3.68-11.79,2.71-11.79,2.71,0,0,0,0,0,0,0,0,0,0,0,0-.14,.01-22.38,2.24-42.72-19.76,0,0-3.53,11.43-12.6,19.76,0,0-.02-.02-.05-.04-.07-.07-.23-.21-.47-.41-1.67-1.39-7.08-5.33-11.27-2.26-5.01,3.67,4.62,16.14,16.8,21.44,4.26,9.6,10.38,18.45,16.59,22.31-.18,.97-3.91,19.82-25.14,37.11,0,0,26.49,35.77,54.3,0-14-16.01-16.57-35.13-16.79-37,6.18-3.75,12.16-12.55,16.26-22.39Z"/><path class="cls-6" d="M1265.21,270.28s-.02,0-.03-.01c0,0-4.5,26.76-6.71,60.91,22.54-6.24,42.52-18.61,58.03-35.22,.22-.24,.45-.48,.67-.72-13.26-8-30.81-17.15-51.96-24.95Z"/><path class="cls-6" d="M1169.89,270.55c-.03-.18-.05-.28-.05-.28-16.42,6.06-30.66,12.59-42.43,18.66,.26,.32,.52,.65,.78,.97,12.77,15.55,29.2,27.97,47.99,35.93-2.16-29.6-5.84-52.55-6.29-55.28Z"/></g></g></g></g></g></svg>