<?xml version="1.0" encoding="UTF-8"?><svg id="Layer_1" xmlns="http://www.w3.org/2000/svg" viewBox="0 0 143.74 143.74"><defs><style>.cls-1{fill:#0072c8;}.cls-2{stroke:#fff;}.cls-2,.cls-3{fill:none;stroke-linecap:round;stroke-linejoin:round;stroke-width:4.5px;}.cls-3{stroke:#f6ae2d;}</style></defs><circle class="cls-1" cx="71.87" cy="71.87" r="71.87"/><g><polygon class="cls-2" points="70.38 31.31 30.32 53.81 70.38 73.19 113.42 53.81 70.38 31.31"/><polyline class="cls-2" points="70.38 50.25 90.11 64.31 90.11 79.49"/><path class="cls-2" d="M44.21,60.59v16.63h0v8.71c5.84,4.23,16.04,7.03,27.66,7.03s21.82-2.81,27.66-7.03v-25.34"/><polyline class="cls-3" points="41.64 91.53 33.65 91.53 20.02 109.93 123.72 109.93 110.09 91.53 102.1 91.53"/><line class="cls-3" x1="37.02" y1="96.89" x2="32.26" y2="104.68"/><line class="cls-3" x1="44.46" y1="96.89" x2="40.54" y2="105.03"/><line class="cls-3" x1="51.15" y1="96.8" x2="47.69" y2="104.68"/><ellipse class="cls-3" cx="99.54" cy="100.73" rx="4.38" ry="3.21"/><path class="cls-2" d="M88.51,80.66v-5.93c0-.85,.69-1.54,1.54-1.54h0c.85,0,1.54,.69,1.54,1.54v5.93"/></g></svg>