<?xml version="1.0" encoding="UTF-8"?><svg id="Layer_1" xmlns="http://www.w3.org/2000/svg" xmlns:xlink="http://www.w3.org/1999/xlink" viewBox="0 0 427.71 246.6"><defs><style>.cls-1{fill:#0072c8;}.cls-2{fill:#f2bd98;}.cls-3{fill:#002760;}.cls-4{fill:#f6ae2d;}.cls-5{filter:url(#drop-shadow-12);}.cls-6{fill:#f4f6f9;}</style><filter id="drop-shadow-12" filterUnits="userSpaceOnUse"><feOffset dx="3" dy="3"/><feGaussianBlur result="blur" stdDeviation="4.5"/><feFlood flood-color="#558699" flood-opacity=".3"/><feComposite in2="blur" operator="in"/><feComposite in="SourceGraphic"/></filter></defs><g class="cls-5"><rect class="cls-6" x="74.3" y="73.33" width="332.66" height="151.73" rx="30.15" ry="30.15"/><circle class="cls-6" cx="72.54" cy="73.33" r="51.79"/><g><path class="cls-1" d="M59.77,91.46c.57-.33,1.1-.68,1.61-1.02,5.15-3.49,7.56-7.49,8.64-10.01-2.04-.57-3.12-1.79-3.88-3.45-.77-1.67-1.08-3.89-1.36-6.18-3.09-1.76-5.28-4.86-3.94-5.84,.55-.4,1.16-.4,1.72-.24-.24-.17-.46-.3-.65-.39-.17-.06-.35-.13-.53-.21h0s0,0,0,0c-1.7-.72-3.47-1.97-3.28-4.01,.25-2.67,3.1-2.92,3.1-2.92,0,0-4.37-3.02-3.14-5.97,1.61-3.87,6.28-2.41,6.28-2.41,0,0-.77-4.95,3.17-5.84,3.94-.89,4.99,2.29,4.99,2.29,0,0,3.15-4.13,6.71-2.86,3.56,1.27,2.85,5.65,2.85,5.65,0,0,3.85-.15,5.11,2.59,1.47,3.19-1.62,6.31-1.62,6.31,0,0,2.73,.38,2.54,3.18-.15,2.23-2.49,3.49-5.2,4.32h0c-.33,.12-.6,.28-.82,.48,.67-.31,1.5-.47,2.22,.05,1.33,.98-.82,4.05-3.88,5.81-.26,2.13-.63,4.73-1.17,6.26-.65,1.85-2.05,3.07-4.15,3.54,.72,2.58,2.33,6.57,5.79,9.78,.41,.38,.86,.76,1.32,1.12,1.1,.84,2.35,1.6,3.79,2.22,4.68,2.05,8.76,4.08,12.31,6.06,6.88-6.7,11.15-16.06,11.15-26.42,0-20.38-16.52-36.9-36.9-36.9s-36.9,16.52-36.9,36.9c0,9.64,3.7,18.41,9.74,24.98,4.66-2.23,9.04-4.08,12.34-5.73,.72-.36,1.41-.73,2.05-1.12Z"/><path class="cls-3" d="M61.91,64.33c-.31-.15-.53-.21-.53-.21,.18,.07,.35,.14,.53,.21Z"/><path class="cls-2" d="M80.4,70.77c3.06-1.76,5.21-4.83,3.88-5.81-.71-.52-1.54-.36-2.22-.05-.87,.75-1.01,1.91-1.2,2.37-.11,.26-.25,1.72-.47,3.49Z"/><path class="cls-2" d="M62.57,64.72c-.56-.16-1.18-.16-1.72,.24-1.34,.98,.85,4.09,3.94,5.84-.12-.94-.23-1.89-.36-2.82-.25-1.73-1.12-2.72-1.86-3.26Z"/><path class="cls-4" d="M85.98,93.69c-1.43-.63-2.69-1.38-3.79-2.22-.47-.36-.91-.73-1.32-1.12-10.07,22.06-19.48,.09-19.48,.09-.51,.35-1.05,.69-1.61,1.02-.65,.38-1.33,.75-2.05,1.12-3.3,1.65-7.68,3.5-12.34,5.73,6.74,7.33,16.41,11.92,27.15,11.92,10.02,0,19.1-3.99,25.75-10.47-3.55-1.98-7.63-4.01-12.31-6.06Z"/><path class="cls-2" d="M75.08,80.56c-.64,.14-1.34,.22-2.1,.22-1.16,0-2.13-.12-2.95-.35-1.08,2.52-3.49,6.51-8.64,10.01,0,0,9.4,21.96,19.48-.09-3.46-3.21-5.07-7.2-5.79-9.78Z"/><polygon class="cls-3" points="61.39 64.12 61.39 64.12 61.39 64.12 61.39 64.12"/><path class="cls-3" d="M85.55,56.93s3.09-3.12,1.62-6.31c-1.26-2.73-5.11-2.59-5.11-2.59,0,0,.7-4.38-2.85-5.65-3.56-1.27-6.71,2.86-6.71,2.86,0,0-1.05-3.18-4.99-2.29-3.94,.89-3.17,5.84-3.17,5.84,0,0-4.67-1.46-6.28,2.41-1.23,2.95,3.14,5.97,3.14,5.97,0,0-2.84,.25-3.1,2.92-.19,2.04,1.58,3.29,3.28,4.01h0s.21,.05,.53,.21c.19,.09,.41,.22,.65,.39,.74,.54,1.6,1.53,1.86,3.26,.14,.93,.25,1.88,.36,2.82,.28,2.29,.59,4.51,1.36,6.18,.76,1.65,1.84,2.88,3.88,3.45,.82,.23,1.78,.35,2.95,.35,.77,0,1.46-.08,2.1-.22,2.1-.47,3.5-1.68,4.15-3.54,.54-1.53,.9-4.13,1.17-6.26,.22-1.77,.36-3.23,.47-3.49,.19-.46,.33-1.62,1.2-2.37,.22-.19,.49-.36,.82-.48,2.72-.83,5.05-2.09,5.2-4.32,.19-2.79-2.54-3.18-2.54-3.18Zm-8.31,14.33c-.46,1.26-1.6,3.09-4.26,3.25-2.62,.15-3.82-1.71-4.34-3.06-.24-.61,.25-1.24,.9-1.17,1.46,.17,4.04,.34,6.92-.02,.56-.07,.99,.48,.79,1Zm1.99-6.09c-.96,2.7-4.21,.18-6.25,.18-2.32,0-3.81,1.54-5.34,1.01-.83-.29-1.43-.69-1.81-1.32-.15-.25-.27-.54-.35-.87,0-.03-.02-.06-.03-.1-.13-.61-.09-1.25,.07-1.86,.44-1.65,1.35-5.69,4.78-5.68,2.23,0,2.33,1.3,3.83,1.27,1.86-.03,.01-1.3,1.65-1.29,1.04,0,4.01,2.28,3.69,7.25-.01,.22-.04,.41-.07,.6-.05,.3-.11,.57-.19,.79Z"/><path class="cls-2" d="M72.98,74.51c2.67-.15,3.8-1.99,4.26-3.25,.19-.53-.24-1.07-.79-1-2.88,.36-5.45,.19-6.92,.02-.65-.07-1.13,.56-.9,1.17,.53,1.35,1.73,3.21,4.34,3.06Z"/><path class="cls-2" d="M75.79,56.54c-1.64-.02,.2,1.25-1.65,1.29-1.51,.03-1.61-1.26-3.83-1.27-3.43-.02-4.34,4.03-4.78,5.68-.16,.61-.2,1.24-.07,1.86,0,.03,.02,.06,.03,.1,.08,.33,.19,.62,.35,.87,.38,.62,.98,1.03,1.81,1.32,1.52,.53,3.02-1.01,5.34-1.01,2.04,0,5.29,2.52,6.25-.18,.08-.23,.14-.49,.19-.79,.03-.19,.05-.38,.07-.6,.32-4.97-2.64-7.24-3.69-7.25Z"/></g></g></svg>