<?xml version="1.0" encoding="UTF-8"?><svg id="Layer_1" xmlns="http://www.w3.org/2000/svg" viewBox="0 0 38.12 29.73"><defs><style>.cls-1{fill:#f6ae2d;}</style></defs><path class="cls-1" d="M18.95,29.95c-7.64-.15-12.94-2.83-16.24-8.2l-.28-.46,.35-.41c.18-.21,.37-.47,.49-.66l-.15-.16c-.98-1.01-2.46-2.53-3.12-3.9l-.25-.52,.44-.37s3.27-2.8,5.29-5.52C2.98,5.87,2.53,3.8,3.39,.42l.17-.65,.66,.09C5.01-.02,5.78,.05,6.53,.12c2.57,.25,5.01,.48,6.85,2.07,3.4-1.09,7.72-1.09,11.11,0C26.34,.6,28.78,.37,31.35,.12c.75-.07,1.52-.15,2.3-.25l.66-.09,.17,.65c.86,3.38,.42,5.45-2.09,9.31,2.02,2.73,5.26,5.5,5.29,5.52l.44,.37-.25,.52c-.65,1.37-2.13,2.9-3.12,3.9l-.15,.16c.12,.19,.31,.44,.49,.66l.35,.41-.28,.46c-3.3,5.37-8.6,8.05-16.21,8.2ZM4.27,21.41c1.99,3.06,5.71,6.87,14.68,7.04,8.93-.17,12.66-3.98,14.65-7.04-.67-.9-.78-1.49-.37-1.92h0s.45-.47,.45-.47c.79-.81,1.92-1.97,2.57-3.01-1.06-.95-3.71-3.4-5.38-5.82l-.29-.42,.28-.42c2.34-3.53,2.88-5.23,2.32-7.9-.57,.07-1.14,.12-1.69,.17-2.57,.25-4.78,.46-6.28,1.96l-.33,.34-.45-.16c-3.29-1.17-7.69-1.17-10.98,0l-.45,.16-.33-.34c-1.5-1.51-3.71-1.72-6.28-1.96-.55-.05-1.11-.11-1.69-.17-.56,2.68-.02,4.38,2.32,7.9l.28,.42-.29,.42c-1.68,2.42-4.32,4.87-5.38,5.82,.65,1.04,1.78,2.21,2.57,3.01l.45,.47c.41,.43,.3,1.02-.37,1.93Z"/><g><path class="cls-1" d="M24.23,16.1c-.39,0-.73-.31-.75-.71-.02-.41,.29-.77,.71-.79l2.18-.13c.42-.02,.77,.29,.79,.71,.02,.41-.29,.77-.71,.79l-2.18,.13s-.03,0-.04,0Z"/><path class="cls-1" d="M13.64,16.1s-.03,0-.04,0l-2.18-.13c-.41-.02-.73-.38-.71-.79,.02-.41,.37-.71,.79-.71l2.18,.13c.41,.02,.73,.38,.71,.79-.02,.4-.35,.71-.75,.71Z"/></g><g><path class="cls-1" d="M15.27,12.54c-.06,0-.13,0-.19-.03-.4-.11-.64-.52-.53-.92l.15-.58c.11-.4,.52-.64,.92-.53,.4,.11,.64,.52,.53,.92l-.15,.58c-.09,.34-.39,.56-.72,.56Z"/><path class="cls-1" d="M22.61,12.54c-.33,0-.63-.22-.72-.56l-.15-.58c-.11-.4,.13-.81,.53-.92,.4-.11,.81,.13,.92,.53l.15,.58c.11,.4-.13,.81-.53,.92-.06,.02-.13,.03-.19,.03Z"/></g><g><path class="cls-1" d="M27.06,28.45c-.15,0-.31-.05-.44-.14-.33-.24-.41-.71-.17-1.05,.78-1.08,1.58-3.73,1.18-4.36-2.26-3.49-3.82-4.01-5.34-4.52-1.22-.41-2.48-.83-3.88-2.54-.26-.32-.22-.79,.1-1.06,.32-.26,.79-.22,1.06,.1,1.13,1.37,2.09,1.7,3.2,2.07,1.67,.56,3.57,1.2,6.12,5.13,.97,1.5-.43,4.97-1.22,6.06-.15,.2-.38,.31-.61,.31Z"/><path class="cls-1" d="M10.82,28.45c-.23,0-.46-.11-.61-.31-.79-1.09-2.19-4.55-1.22-6.06,2.54-3.93,4.44-4.57,6.12-5.13,1.11-.37,2.07-.7,3.2-2.07,.26-.32,.73-.37,1.06-.1,.32,.26,.37,.74,.1,1.06-1.4,1.71-2.66,2.13-3.88,2.54-1.51,.51-3.08,1.04-5.34,4.52-.41,.63,.39,3.28,1.18,4.36,.24,.33,.17,.8-.17,1.05-.13,.1-.29,.14-.44,.14Z"/></g><path class="cls-1" d="M18.94,16.63c-.41,0-.75-.34-.75-.75v-1.55c0-.41,.34-.75,.75-.75s.75,.34,.75,.75v1.55c0,.41-.34,.75-.75,.75Z"/><g><path class="cls-1" d="M31.46,10.51c-.27,0-.53-.14-.66-.4-1.94-3.64-6.48-6.39-6.53-6.42-.35-.21-.47-.67-.26-1.03,.21-.36,.67-.47,1.03-.26,.2,.12,4.94,2.99,7.08,7,.19,.37,.06,.82-.31,1.01-.11,.06-.23,.09-.35,.09Z"/><path class="cls-1" d="M6.41,10.51c-.12,0-.24-.03-.35-.09-.37-.19-.5-.65-.31-1.01,2.14-4.01,6.88-6.88,7.08-7,.35-.21,.81-.1,1.03,.26,.21,.35,.1,.82-.26,1.03-.05,.03-4.59,2.78-6.53,6.42-.13,.25-.39,.4-.66,.4Z"/></g><path class="cls-1" d="M18.94,22.49c-.81,0-1.47-.66-1.47-1.47s.66-1.47,1.47-1.47,1.47,.66,1.47,1.47-.66,1.47-1.47,1.47Zm-.02-1.47s.01,.02,.02,.02l-.02-.02Z"/></svg>