<?xml version="1.0" encoding="UTF-8"?><svg id="Layer_1" xmlns="http://www.w3.org/2000/svg" viewBox="0 0 250 250"><defs><style>.cls-1{fill:#f6ae2d;stroke:#f6ae2d;}.cls-1,.cls-2{stroke-linecap:round;stroke-linejoin:round;stroke-width:1.5px;}.cls-2{fill:#f4f6f9;stroke:#f4f6f9;}</style></defs><path class="cls-2" d="M209.9,109.67c-3.15-4.12-6.27-8.26-9.41-12.39-1.49-1.96-2.96-3.92-4.48-5.85-.26-.33-12.59-16.74-17.32-23.03-.65-.87-1.51-1.32-2.59-1.37-2.96-.15-5.92-.27-8.87-.46-14.17-.9-28.33-1.81-42.5-2.74-1.44-.1-2.55,.32-3.22,1.61-.66,1.27-.44,2.44,.45,3.58,2.28,2.92,4.47,5.91,6.75,8.83,.49,.62,.53,1.09,.14,1.76-.91,1.58-1.76,3.19-2.61,4.81-.38,.71-4.26,7.77-4.64,8.7-.47,1.13-1.19,1.45-2.41,1.45-25.43-.04-50.87-.03-76.3-.04-1.15,0-2.28,.13-2.87,1.18-.39,.7-.57,1.61-.58,2.43-.03,27.46-.02,54.92-.02,82.38,0,3.84,1.82,5.68,5.64,5.68h87.3c13.89,0,27.77,0,41.66,0,4.18,0,5.92-1.73,5.92-5.87,0-1.95,0-3.9,0-5.85,0-12.09,0-24.18-.02-36.28,0-.7,.12-1.14,.83-1.44,1.72-.72,2.89-2.01,3.77-3.67,3.25-6.13,6.55-12.23,9.86-18.33,.19-.35,.62-.81,.94-.82,1.27-.03,2.55,.11,3.8,.18,.06,.22,.11,.33,.11,.44,.14,6.28,.28,12.56,.38,18.83,0,.34-.37,.8-.69,1-1.79,1.1-3.1,2.45-3.12,4.73,0,.81-.17,1.63-.35,2.43-.37,1.57-.81,3.13-1.22,4.7,1.69,.1,1.71,.13,2.31,2.46,2.78,0,5.58,.03,8.38,0,1.94-.02,2.59-1.19,2.04-3.08-.7-2.38-1.32-4.8-1.78-7.24-.25-1.36-.72-2.47-1.86-3.22-.68-.45-.82-1.02-.83-1.78-.04-3.78-.15-7.57-.21-11.35-.03-2.52,0-5.05,0-7.69,1.7,.1,3.37,.16,5.02,.3,1.33,.11,2.26-.47,2.87-1.59,.63-1.17,.57-2.29-.27-3.38ZM42.39,166.68v-62.54c.41-.02,.79-.06,1.16-.06,24.41,0,48.83,0,73.24-.03,1.03,0,1.45,.27,1.77,1.28,1.18,3.7,3.59,6.6,6.29,9.3,12.25,12.23,26.89,19.91,43.91,23.07,1.34,.25,2.71,.36,4.07,.44,1.32,.07,2.64,.02,4.13,.02v28.53H42.39Zm134.56,3.01v3.65h-1.34c-17.55,0-35.1,0-52.65,0-1.15,0-2.08,.1-2.31,1.54-.05,.28-.82,.63-1.27,.64-3.39,.05-6.79,.03-10.18,.03-3.08,0-6.16-.01-9.24,0-.68,0-1.25-.07-1.38-.9-.17-1.07-.91-1.32-1.87-1.32-3.08,.02-6.16,.01-9.24,.01-14.43,0-28.86,0-43.29,0h-1.8v-3.65H176.95ZM42.37,97.48H119.05c-.43,1.17-.86,2.31-1.33,3.61H42.37v-3.61Zm134.6,84.21c-.04,.92-.69,1.45-1.61,1.57-.35,.04-.7,.03-1.05,.03-43.09,0-86.18,0-129.27,0-.54,0-1.17,.06-1.59-.2-.47-.29-1.03-.89-1.07-1.38-.13-1.77-.05-3.56-.05-5.43,.48-.02,.86-.06,1.24-.06,17.08,0,34.16,0,51.24,0,.75,0,1.29,.11,1.75,.82,.68,1.06,1.82,1.42,3.05,1.42,6.75,0,13.49,0,20.24-.01,1.21,0,2.27-.41,2.93-1.41,.46-.7,.97-.84,1.73-.84,16.46,.02,32.91,.01,49.37,.02,.97,0,1.94,0,3.11,0,0,1.93,.05,3.71-.02,5.49Zm14.2-67.09c-3.02,5.63-6.09,11.24-9.04,16.91-.93,1.8-2.33,2.76-4.17,3.25-2.81,.75-5.64,.67-8.47,.15-17.06-3.14-31.63-10.94-43.67-23.44-1.8-1.87-3.3-3.94-4.3-6.35-.94-2.25-1.03-4.36,.35-6.56,1.5-2.39,3.82-7.02,5.24-9.67,1.35-2.5,2.7-5.01,4.1-7.62,.32,.39,.57,.67,.8,.97,2.24,2.95,4.49,5.89,6.72,8.85,4.76,6.32,9.51,12.65,14.26,18.97,.67,.89,1.56,1.39,2.71,1.37,.47,0,.94-.02,1.4,0,9.42,.6,18.84,1.21,28.25,1.82,2.04,.13,4.07,.28,6.24,.43-.2,.44-.3,.68-.43,.92Zm11.12,24.16c.36,2.33,.9,4.64,1.39,7.05h-6.11c.41-2.44,.71-4.9,1.29-7.3,.16-.66,1.15-1.53,1.78-1.55,.76-.02,1.48,.7,1.65,1.79Zm0-27.31c-.25-.02-.53-.13-.74-.28-11.27-7.82-22.54-15.65-33.81-23.47-.35-.24-.78-.62-1.11-.57-.54,.09-1.23,.37-1.5,.79-.46,.72-.06,1.42,.62,1.89,2.14,1.49,4.29,2.98,6.44,4.46,7.72,5.35,15.45,10.69,23.17,16.04,.24,.17,.46,.36,.98,.75-2.97-.18-5.6-.34-8.23-.51-9.22-.59-18.44-1.19-27.66-1.78-1.48-.09-2.96-.14-4.43-.27-.28-.02-.63-.24-.81-.47-10.14-13.35-20.26-26.71-30.38-40.06-.25-.34-.5-.68-.85-1.16,.4-.05,.65-.13,.88-.11,13.7,.88,27.39,1.78,41.08,2.66,3.23,.21,6.46,.37,9.69,.58,.29,.02,.67,.19,.84,.42,10.04,13.22,20.07,26.45,30.1,39.69,.37,.49,.73,.99,1.29,1.75-2.08-.14-3.83-.24-5.57-.38Z"/><g><path class="cls-1" d="M120.84,126.8c-.35-.21-.91-.1-1.38-.1-14.12,0-28.24,0-42.36,0-.39,0-.9-.11-1.14,.09-.45,.38-1.02,.93-1.04,1.43-.02,.43,.6,.98,1.06,1.29,.3,.2,.83,.07,1.26,.07,7.02,0,14.04,0,21.06,0,7.14,0,14.28,0,21.41,0,.39,0,.9,.12,1.14-.08,.46-.38,1.02-.93,1.05-1.43,.02-.41-.61-.97-1.07-1.26Z"/><path class="cls-1" d="M120.84,150.41c-.35-.21-.91-.1-1.38-.1-14.12,0-28.24,0-42.36,0-.36,0-.83-.09-1.09,.06-.7,.12-1.14,.56-1.16,1.34-.02,.85,.44,1.31,1.2,1.44,.25,.12,.62,.07,.96,.05,.2,0,.39,0,.59,0,13.99,0,27.98,0,41.97,0h.38c.24,.02,.5,.04,.7,0h.04s0,0,0,0c.07-.02,.13-.04,.18-.08,.46-.38,1.02-.93,1.05-1.43,.02-.41-.61-.97-1.07-1.26Z"/><path class="cls-1" d="M76.14,142.6c.23,.04,.47,.02,.7,.02,11.34,0,22.68,0,34.02,0,.43,0,.95,.1,1.26-.1,.47-.3,1.06-.81,1.09-1.26,.03-.46-.5-1.03-.92-1.4-.23-.21-.74-.13-1.13-.13-5.65,0-11.3,0-16.95,0-5.65,0-11.3,0-16.95,0-.39,0-.79-.03-1.17,.03-.8,.13-1.27,.63-1.26,1.44,.01,.81,.52,1.27,1.31,1.4Z"/><path class="cls-1" d="M52.66,131.12c.98,1.22,1.82,1.22,2.84,0,3.35-3.95,6.69-7.91,10.04-11.87,1.1-1.31,1.23-2.16,.42-2.81-.8-.64-1.49-.4-2.6,.91-3.04,3.6-6.08,7.2-9.16,10.84-.17-.1-.26-.13-.3-.18-.93-1.16-1.84-2.32-2.77-3.47-.76-.94-1.57-1.13-2.29-.56-.72,.57-.73,1.36,.05,2.36,1.24,1.6,2.5,3.19,3.77,4.77Z"/><path class="cls-1" d="M66.07,140.17c-.28-.31-.62-.45-.98-.43,0,0-.01,0-.02,0-.43,.03-.89,.29-1.31,.78-.07,.09-.15,.18-.22,.26-.06,.07-.12,.14-.18,.21-.32,.37-.63,.75-.95,1.12-.95,1.12-1.9,2.24-2.85,3.37-.6,.72-1.21,1.43-1.82,2.15-.44,.49-.9,.97-1.26,1.5-.74,.88-1.48,1.75-2.22,2.63-.04,.02-.08,.03-.12,.04-.13-.07-.2-.1-.24-.15-.93-1.16-1.84-2.32-2.77-3.47-.07-.08-.13-.16-.2-.23-.01-.02-.02-.03-.03-.05-.54-.74-1.32-.86-2.05-.3-.74,.57-.74,1.34-.18,2.06,0,.01,.02,.02,.03,.03,.06,.09,.12,.18,.19,.27,.69,.89,1.39,1.78,2.09,2.67,.43,.55,.87,1.1,1.31,1.64,.12,.15,.24,.31,.37,.46,.04,.04,.07,.08,.11,.12,.03,.04,.07,.08,.1,.13,.37,.45,.78,.67,1.19,.67,.01,0,.02,0,.04,0,.04,0,.08,0,.12,0,.02,0,.05,0,.07-.01,.04,0,.07-.02,.11-.03,.01,0,.02,0,.03-.01,.28-.09,.56-.28,.83-.57,.58-.63,1.12-1.3,1.67-1.95,2.18-2.58,4.36-5.16,6.55-7.74,.69-.82,1.38-1.63,2.07-2.45,.01-.01,.02-.03,.03-.04,.08-.1,.17-.2,.25-.3,.44-.52,.8-1.06,.64-1.67-.04-.26-.17-.49-.4-.7Z"/><path class="cls-1" d="M76.48,119c3.49,0,9.17,.06,12.86-.03,.07,.04,.23,.06,.52,.06,6.24-.05,15.18-.02,21.41-.02,.35,0,.71,0,1.04-.11,1.01-.34,1.38-1.58,.61-2.24-.39-.34-1.05-.51-1.58-.52-6.47-.03-15.01-.02-21.48-.02-.07,0-.09,0-.09,0-4.08,0-9.61-.02-13.57,.01-.87,0-1.37,.59-1.35,1.45,.02,1.01,.68,1.41,1.63,1.41Zm13.4-1.69s0,0-.01,0c0-.04,0-.08-.01-.12,.01,0,.02,.02,.03,.02,0,.03,0,.06,0,.09Zm-.02-1.13c.05,.41,.05,.74,.03,1.03-.02-.37-.1-.67-.03-1.07,.1,.01,.22,.03,0,.04Zm-.12,1.8c-.02,.07-.05,.13-.08,.19,0-.06,.02-.13,.08-.19Z"/></g></svg>