<?xml version="1.0" encoding="UTF-8"?><svg id="Layer_1" xmlns="http://www.w3.org/2000/svg" viewBox="0 0 143.74 143.74"><defs><style>.cls-1{fill:#0072c8;}.cls-2{stroke:#fff;}.cls-2,.cls-3{fill:none;stroke-linecap:round;stroke-linejoin:round;stroke-width:4.5px;}.cls-3{stroke:#f6ae2d;}</style></defs><circle class="cls-1" cx="71.87" cy="71.87" r="71.87"/><g><path class="cls-2" d="M100.91,88.3m5.04,14.53h5.51c.48,0,.87-.39,.87-.87v-34.87c0-.48-.39-.87-.87-.87h-28.85v18.41s.04,.03,.06,.04m18.24,3.46h4.03v4.85h-.91m-11.75-13.74h-4.03v-4.84h4.03v4.84Zm12.66,0h-4.03v-4.84h4.03v4.84Z"/><path class="cls-2" d="M49.66,86.21v-6.89h19.27v3.99m13.67,1.31V46.06c0-.48-.39-.87-.87-.87h-6.52v-11.25c0-.48-.39-.87-.87-.87h-30.1c-.48,0-.87,.39-.87,.87v11.25h-6.52c-.48,0-.87,.39-.87,.87v55.9c0,.48,.39,.87,.87,.87h5.51m33.12-48.59h0Zm0,6.3h0Zm0,6.3h0Zm0,6.3h0Z"/><polyline class="cls-2" points="68.94 83.32 68.94 79.33 49.66 79.33 49.66 86.21"/><rect class="cls-2" x="88.25" y="74.39" width="4.03" height="4.84"/><rect class="cls-2" x="100.91" y="74.39" width="4.03" height="4.84"/><path class="cls-2" d="M104.03,92.98h.91v-4.85h-4.03v.18c.2,.22,.42,.44,.61,.68,1,1.22,1.83,2.56,2.51,4"/></g><g><g><path class="cls-3" d="M86.58,90.12c.84-.28,1.73-.43,2.65-.43,5.54,0,10.03,5.45,10.03,12.18s-4.49,12.18-10.03,12.18"/><path class="cls-3" d="M89.84,121.45h13.21c1.91,0,2.6-2.52,.96-3.49l-6.56-3.89"/></g><g><path class="cls-3" d="M61.74,90.12c-.84-.28-1.73-.43-2.65-.43-5.54,0-10.03,5.45-10.03,12.18,0,6.73,4.49,12.18,10.03,12.18"/><path class="cls-3" d="M58.48,121.45h-13.21c-1.91,0-2.6-2.52-.96-3.49l6.56-3.89"/></g><g><ellipse class="cls-3" cx="74.16" cy="105.35" rx="13.25" ry="16.1"/><path class="cls-3" d="M64.47,120.7l-9.87,5.9c-2.17,1.29-1.26,4.62,1.27,4.62h36.57c2.53,0,3.44-3.33,1.27-4.62l-9.93-5.9"/></g></g></svg>