<?xml version="1.0" encoding="UTF-8"?><svg id="Layer_1" xmlns="http://www.w3.org/2000/svg" xmlns:xlink="http://www.w3.org/1999/xlink" viewBox="0 0 1948.53 337.02"><defs><style>.cls-1{fill:#0072c8;}.cls-2{isolation:isolate;}.cls-3{fill:#edf2f4;}.cls-4{opacity:.11;}.cls-5{fill:#3aa1ff;}.cls-6{clip-path:url(#clippath);}.cls-7{fill:none;}</style><clipPath id="clippath"><rect class="cls-7" x="10.49" y="24.23" width="1919" height="234.07"/></clipPath></defs><g class="cls-6"><g><g class="cls-4"><g class="cls-2"><g class="cls-2"><g><g><path class="cls-3" d="M299.77,217.5c-2.68,.18-5.47,.35-8.61,.5q-.93-.34-1.56-1.1c-.31-.45-31.99-45.02-38.83-45.72-.91,.03-1.82,.06-2.74,.09-1.52,.05-3.05,.09-4.59,.13-4.54,.72-4.8,6.6-1.56,10.18q11.47,11.68,11.86,13.51c.25,1.89,.49,3.78,.72,5.68,.34,2.08,.94,3.3,2.29,4.66q3.99,3.64,4.33,5.53c.42,4.48,.76,8.98,1.01,13.5-.05,2.24-.91,3.47-2.63,3.75-1.29,.04-2.58,.08-3.9,.12-1.02-.09-1.27-.21-2.1-1.01q-18.97-21.81-19.1-22.58c-.46-5.23-1.02-10.44-1.67-15.6-.77-3.64-2.64-5.56-5.73-5.87-2.57,.05-5.15,.1-7.76,.14-1.19-.14-1.52-.3-2.47-1.26q-7.05-8.61-9.59-8.74c-1.54,.02-3.08,.04-4.63,.05-1.85-.2-2.97-1.33-3.4-3.46,0-.08-.02-.16-.03-.24-.07-2.12,.76-3.27,2.54-3.5,7.42-.08,14.74-.18,21.9-.32,1.65-.24,2.54-.69,3.49-2.67,.88-1.84-.34-3.86,.5-5.7q6.18-10.52,7.09-10.72c2.51-.07,5.01-.14,7.47-.21,15.68-.48,29.21-1.11,40.5-1.85-.3-.76-.6-1.51-.9-2.26-11.22,.74-24.66,1.36-40.25,1.84-2.45,.07-4.92,.15-7.42,.21-1.5,.23-1.83,.44-2.72,1.71q-6.28,11.62-6.1,13.18c.17,1.48,.43,3.72-2.08,4.08-7.13,.14-14.41,.24-21.8,.32-1.9,.24-4.41,1.12-4.28,5.9,0,.08,.02,.16,.03,.24,.31,1.99,1.47,5.39,5.73,5.85,1.56-.02,3.11-.03,4.65-.05,1.19,.14,1.51,.3,2.47,1.26q7.08,8.65,9.58,8.78c2.61-.04,5.21-.09,7.79-.14,1.83,.18,2.94,1.32,3.39,3.48,.64,5.17,1.18,10.37,1.64,15.6,.23,1.85,.7,2.93,1.84,4.26q19.93,21.64,21.52,21.79c1.31-.04,2.61-.08,3.9-.12,2.9-.48,4.35-2.55,4.43-6.32-.26-4.52-.6-9.02-1.03-13.5-.29-2.08-.86-3.3-2.2-4.66q-4-3.65-4.39-5.52c-.23-1.9-.47-3.79-.73-5.68-.32-1.82-.82-2.88-1.97-4.2q-11.32-11.78-11.51-12.12c-.59-1.03-1.19-4.46,1.72-4.92,1.54-.04,3.08-.09,4.61-.14,.93-.03,1.84-.06,2.76-.09,1.03,.11,1.32,.25,2.24,1.1,13.63,15.16,24.47,28.57,32.24,39.84q3.98,5.78,5.87,6c2.91-.16,5.7-.33,8.38-.51-.07-.83-.15-1.67-.22-2.5Z"/><path class="cls-3" d="M312.23,216.57c-3.43,.29-7.11,.57-11.04,.83,.08,.83,.15,1.67,.23,2.5,3.94-.27,7.62-.54,11.05-.84-.08-.83-.16-1.67-.24-2.5Z"/><path class="cls-3" d="M318.06,147.31c-1.84,.35-3.96,.69-6.47,1.02-.3-.09-.47-.14-.97-.68-6.4-6.98-6.42-6.98-7.45-6.98-5.58,.64-12.33,1.23-20.23,1.76,.31,.75,.61,1.5,.91,2.26,7.94-.54,14.74-1.13,20.47-1.77,.33,.09,.51,.14,1.05,.67q6.61,6.95,7.3,7.03c2.42-.33,4.56-.67,6.4-1.02-.33-.76-.67-1.53-1.01-2.29Z"/><path class="cls-3" d="M334.94,163.62l-.35-.97-.51-1.39c.09,.25,.07,.5-.09,.75-.09-.12-.14-.18-.45-.87-4.56-9.97-7.91-15.53-8.58-15.71-1.34,.61-3.45,1.2-6.32,1.77,.34,.76,.68,1.52,1.01,2.29,2.89-.57,5.01-1.16,6.35-1.78,.14,.04,.23,.06,.71,.86,2.95,5.14,4.5,7.91,7.52,14.7,.38,.86,.46,.94,.62,1.1,.14-.25,.17-.49,.08-.74Z"/></g><path class="cls-3" d="M324.72,292.54c1.01-5.12,1.57-7.93-7.2-24.04-.79-1.66-1.03-3.3-.89-6.04,.26-3.34,.45-6.7,.57-10.08-.09-6.28-1.65-9.52-4.78-9.9-1.41,.12-2.86,.23-4.35,.34-2.48-.14-2.7-.8-5.33-8.91-.41-1.45-.49-1.88-.62-3.48-.17-3.52-.4-7.03-.7-10.53-.07-.83-.15-1.67-.23-2.5-.35-3.68-.77-7.35-1.27-11-.47,.03-.94,.06-1.41,.09,.49,3.65,.91,7.32,1.26,11,.08,.83,.15,1.67,.22,2.5,.3,3.5,.53,7.01,.69,10.53q.14,2.23,2.36,9.54c1.31,3.73,2.67,5.16,5.01,5.3,1.49-.11,2.94-.23,4.36-.34,2.36,.29,3.54,2.73,3.61,7.48-.12,3.38-.31,6.74-.57,10.08-.14,2.84,.04,5.01,.54,6.44,2.15,6.15,5.78,11.64,7.95,17.79,.45,1.62,.42,3.21-.1,5.86-.97,4.38-2.06,8.72-3.28,13.02-1.5,5.93-1.38,8.83,.39,9.13,.21-.03,.43-.06,.63-.1,.26-.78,.53-1.56,.78-2.34-.21,.03-.42,.06-.64,.1-.84-.47-1.8-1.01-.3-6.9,1.23-4.3,2.33-8.64,3.3-13.02Z"/><path class="cls-3" d="M339.36,278.89c-1.16,.33-2.54,.65-4.14,.96-1.02,.56-1.93,2.62-2.77,6.32-2.92,14.4-7.25,28.42-12.97,41.95-1.04,2.47-2.13,4.92-3.26,7.33-.74,1.55-.86,1.79-4.33,6.32-.47,.57-.58,.68-.95,.97-.92,.2-1.64,.31-2.4,.42-.09-.06-.21-.13-.3-.19q-.05-1.99,7.76-12.74c.92-1.34,1.44-2.32,2.18-4.06,1.1-2.72,2.14-5.45,3.13-8.2-.24,.04-.49,.08-.74,.12-.99,2.75-2.03,5.49-3.12,8.2-.72,1.72-.83,1.98-6.87,9.97-1.17,1.57-2.13,3.27-2.86,5.04-.99,2.41-.84,3.33-.78,3.72,.15,.1,.36,.22,.51,.32,.75-.11,1.47-.22,2.16-.33,.95-.39,1.28-.73,4.94-5.71,.92-1.29,1.5-2.29,2.3-3.96,1.13-2.42,2.22-4.86,3.27-7.34,5.74-13.54,10.08-27.56,13.01-41.96,.67-2.92,1.19-3.37,1.65-3.75,1.59-.31,2.97-.64,4.13-.96,.79,1.04-.96,13.71-2.74,21.52-.2,.81-.27,1.06-.57,2.04-.16,.51-.33,1.01-.49,1.52-.96,2.83-1.31,3.28-1.58,3.65-.18,.08-.38,.16-.59,.24-.27,.79-.55,1.57-.83,2.35,.21-.08,.4-.16,.59-.23,.47-.62,1.06-1.39,2.67-6.13,.17-.51,.33-1.01,.49-1.52,.12-.38,2.95-9.52,3.92-23.7,.08-1.76-.08-1.9-.42-2.17Z"/><g><path class="cls-3" d="M331.03,317.3c-.3,.78-.6,1.55-.91,2.32,.59-.27,1.04-.54,1.35-.81,.23-.31,.66-1.31,1.51-3.43,1.52-3.89,1.71-4.44,3.55-9.77,.32-.98,.69-2.15,1.05-3.29-2.84,8.92-5.03,13.9-5.19,14.16-.31,.27-.76,.54-1.35,.81Z"/><path class="cls-3" d="M337.57,302.33c.19-.61,.39-1.24,.59-1.89-.18,.59-.38,1.23-.59,1.89Z"/><path class="cls-3" d="M338.27,300.11c-.04,.11-.07,.22-.1,.33,.03-.1,.06-.2,.09-.29v-.04Z"/></g><path class="cls-3" d="M284.6,334.93c-.45,1.22-.91,2.43-1.38,3.63-2.22,5.2-2.45,5.74-19.57,17.86-1.43,.96-2.29,1.31-3.54,1.43-.84,.04-1.69,.08-2.55,.12q-1.61-.16,1.09-7.01c2-4.62,3.16-5.46,9.58-10.11,1.39-.97,2.27-1.33,3.49-1.46,3.36-.18,6.57-.36,9.63-.55,.28-.74,.57-1.48,.84-2.23-3.07,.19-6.3,.38-9.68,.55q-2.19,.23-8.72,4.97c-4.94,3.88-6.29,7.48-8.52,13.46-.95,2.8-.51,4.26,1.37,4.45,.85-.04,1.7-.08,2.54-.12,1.98-.19,3.28-.32,18.94-12.51,2.95-2.5,4.69-4.92,6.41-8.93,.47-1.2,.93-2.41,1.39-3.63-.44,.03-.87,.06-1.32,.09Z"/><path class="cls-3" d="M317.7,290.34c-.37,.04-.74,.08-1.12,.12q-1.21-.11-3.54-5.16c-.02-.05-2.51-5.34-6.88-12.36-.92-1.71-1.21-3.36-1.06-6.09,.21-2.4,.38-4.81,.52-7.23,0-6.36-1.78-9.65-5.45-10.06q-3.1,.54-9.18,14.17c-.82,1.96-1.16,3.3-1.39,5.5-.36,4.25-.81,8.47-1.35,12.66-.25,2.62-.19,4.72,.89,7.11,3.03,6.7,7.74,12.44,10.92,19.05q1.13,2.14,13.51,.55h0s0,0,0,0h0s0,0,0,0h0s0,0,0,0c.35,.14,.88,.35,.34,2.42-1.13,3.78-2.37,7.53-3.69,11.24,.32-.04,.64-.07,.96-.11,1.33-3.71,2.57-7.46,3.71-11.25q1.34-4.77-11.52-3.41c-.38,0-1.38,.02-2.06-1.38-3.58-7.39-5.65-10.99-10.51-18.36-1-1.7-1.26-3.26-1-5.96,.55-4.19,1-8.41,1.36-12.66q.16-1.48,4.83-13.03c2.72-6,6.45-4.43,7.72-.76,.53,1.53,.53,3.17,.53,4.38-.14,2.42-.31,4.83-.52,7.23-.15,2.66-.03,4.81,.99,7.28,2.45,5.92,6.43,11.02,9.01,16.87,.7,1.41,1.16,1.54,1.99,1.79,.73-.04,1.1-.08,1.47-.12,1.91,.26,2.38,2.62,1.43,7.22-1.31,5.23-2.8,10.41-4.47,15.53,.32-.04,.63-.07,.94-.11,1.68-5.12,3.17-10.29,4.49-15.53,1.26-6.07,.64-9.19-1.89-9.53Z"/><path class="cls-3" d="M303.64,120.38c-1.43-2.3-2.91-4.58-4.43-6.83-.18,.03-.36,.07-.55,.1,1.51,2.25,2.98,4.53,4.41,6.83,1.59,2.7,2.05,4.22,1.42,4.63-2.58,.43-5.66,.85-9.23,1.25-2.32-.29-4.74-5.06-4.76-5.11q-.23-.46-2.34-9.24c-.21-.91-.13-1.26,.3-1.38,5.06-.62,8.91-1.29,11.52-2-.49-.67-.98-1.34-1.48-2.01-2.59,.7-6.41,1.36-11.42,1.98-.21,.06-.71,.2-.59,1.2,.32,2.63,1.17,5.15,1.68,7.74,.4,1.84,1.3,3.86,2.69,5.98,1.14,1.75,3.39,4.72,5.56,4.99,3.59-.4,6.69-.82,9.29-1.26,.95-.62,.27-2.87-2.09-6.88Z"/><path class="cls-5" d="M301.5,105.55c-.57,.31-1.38,.62-2.41,.93,.5,.67,.99,1.34,1.48,2.01,1.04-.31,1.86-.62,2.43-.93-.5-.67-1-1.34-1.5-2Z"/><path class="cls-5" d="M297.76,193.05c-.46,.03-.92,.06-1.39,.09,.49,2.66,.95,5.33,1.37,8,.47-.03,.94-.06,1.4-.09-.42-2.68-.88-5.34-1.38-8Z"/><path class="cls-5" d="M309,325.62c-.52,1.4-1.06,2.78-1.61,4.17-1.05,2.65-2.15,5.27-3.3,7.85,.31-.03,.62-.07,.93-.1,1.15-2.59,2.25-5.21,3.31-7.86,.55-1.38,1.09-2.78,1.62-4.17-.31,.04-.63,.07-.95,.11Z"/><path class="cls-5" d="M289.61,319.89c-1.17,3.94-2.44,7.84-3.81,11.7-.02,.04-.03,.09-.05,.13,.44-.03,.89-.06,1.33-.09,.02-.04,.03-.09,.05-.13,1.37-3.86,2.65-7.76,3.84-11.7-.45,.03-.9,.06-1.36,.09Z"/><path class="cls-5" d="M328.05,318.31c-.3,.77-.6,1.55-.9,2.32,.78-.21,1.47-.42,2.06-.64,.31-.77,.61-1.54,.91-2.32-.6,.22-1.29,.43-2.07,.64Z"/><path class="cls-1" d="M347.45,230.28c0,.75-.98,1.48-2.93,2.18,.02,.84,.04,1.68,.06,2.53,1.95-.71,2.93-1.44,2.93-2.19-.02-.84-.04-1.69-.06-2.53Z"/><path class="cls-3" d="M316.65,124.85l-.32-.53-1.07-1.75-.37-.59c-.06-.1-.12-.19-.18-.28,.05,.17,.05,.36-.03,.55-.37-.36-1.84-2.75-2.08-3.24,.02-.13,.04-.21,.05-.29q-.13-.33-2.79-4.45c-.11-.17-.22-.33-.33-.5-.03-.07-.06-.12-.1-.17l-1.43-2.06c.04,.06,.07,.11,.1,.16,.91,1.5,1.92,2.94,2.88,4.41,.23,.36,.26,.42,.3,.51,0,.1-.02,.17-.06,.25,.17,.63,2.68,4.53,2.78,4.69,1.15,1.78,1.81,2.73,1.99,2.82,.08-.19,.09-.38,.01-.58q.06,.08,.65,1.05Z"/><path class="cls-5" d="M228.59,332.46c-.63-.63-1.16-.85-2.11-.87-1.53,.03-3.07,.06-4.62,.09-2.4,.32-3.95,1.79-4.77,4.49-.08,.38-.16,.75-.24,1.13q-.37,2.27,4.39,7.1c.49,.58,.42,1.2,.37,1.43-.57,2.74,.23,4.18,2.45,4.39,1.24-.03,2.47-.06,3.7-.09,.21-.71,.42-1.43,.63-2.15-1.24,.03-2.48,.06-3.73,.09-1.34-.13-1.4-1.18-1.22-2.04q.5-2.35-4.25-7.05c-.41-.48-.52-.95-.39-1.72,.08-.38,.17-.75,.25-1.13,.4-1.32,1.16-2.04,2.33-2.2,1.54-.03,3.07-.06,4.6-.09q.76,.02,6.71,6.93c.34,.47,.4,.92,.24,1.65-.9,3.27-1.84,6.48-2.83,9.64,.6-.02,1.2-.03,1.8-.05,1-3.16,1.96-6.38,2.88-9.64q.52-2.27-6.18-9.93Z"/><path class="cls-5" d="M341.8,197.78c-.63,.28-1.41,.56-2.35,.84-2.26,.05-5.68-7.17-9.17-19.3-1.99-7.12-4.33-14.15-7.02-21.09-1.14-2.95-2.35-5.87-3.61-8.75-.33-.76-.67-1.53-1.01-2.29-1.08-2.39-2.19-4.76-3.35-7.11-.19,.04-.38,.07-.58,.11,1.15,2.35,2.26,4.72,3.33,7.11,.34,.76,.68,1.52,1.01,2.29,1.26,2.89,2.45,5.81,3.59,8.76,2.68,6.94,5.02,13.97,7,21.09,3.89,13.6,7.72,21.69,10.24,21.63,.94-.28,1.72-.56,2.35-.84-.14-.82-.29-1.64-.45-2.45Z"/><path class="cls-5" d="M291.58,178.51c-2.76-3.29-5.44-4.8-8.41-4.76-3.12,.17-6.37,.34-9.76,.5,.19,.8,.37,1.6,.55,2.4,3.4-.16,6.67-.33,9.8-.5,4.17,.12,5.67,2.04,11.23,9.2l.64-1.72c-1.21-1.54-2.83-3.59-4.05-5.11Z"/><path class="cls-5" d="M271.45,174.33c-1.53,.07-3.08,.14-4.65,.2,.18,.8,.35,1.6,.52,2.4,1.58-.07,3.14-.13,4.67-.2-.18-.8-.36-1.6-.54-2.4Z"/><path class="cls-5" d="M342.5,232.81c-2.75,.75-6.63,1.48-11.61,2.16-2.47,.69-4.25,5.8-4.54,13.03-.1,4.1-.3,8.17-.6,12.23,.33-.04,.65-.08,.97-.12,.3-4.05,.5-8.13,.6-12.23,.23-5.77,1.66-9.85,3.63-10.4,4.99-.69,8.87-1.41,11.62-2.16-.02-.84-.04-1.68-.06-2.52Z"/><path class="cls-1" d="M283.84,144.7c-.3-.76-.6-1.51-.91-2.26-4.4-10.83-9.49-21.18-15.24-31.01-.37,.03-.75,.05-1.13,.08,5.7,9.83,10.74,20.18,15.11,31.01,.3,.75,.6,1.5,.9,2.26,1.67,4.25,3.23,8.58,4.69,12.98,.44-.03,.88-.06,1.31-.09-1.47-4.39-3.05-8.72-4.73-12.97Z"/><path class="cls-1" d="M319.54,215.77c-1.72,.17-3.53,.34-5.41,.51,.09,.83,.17,1.66,.25,2.49,1.89-.17,3.7-.34,5.42-.51-.08-.83-.17-1.66-.25-2.49Z"/></g></g></g></g><g><g><path class="cls-3" d="M82.66,236.49c-.75,0-1.5,0-2.25,0,0,2.85,.01,5.7,.04,8.54,.75,0,1.49,0,2.24,0-.02-2.84-.03-5.69-.03-8.54Z"/><path class="cls-3" d="M165.38,314.61c-.96-.02-1.93-.05-2.89-.07,4.07,5.37,11.65,15.38,18.92,26.7,.36,.58,.53,.99,.7,1.69l1.67-1.56c-.57-1.7-7.84-12.71-18.4-26.76Z"/><path class="cls-3" d="M150.52,295.78c-1.79-1.96-3.25-2.69-5.8-2.87-10.41-.19-20.93-.2-31.37-.43-3.89-.2-6.26-2.49-6.41-7.09-.06-3.71-.11-7.45-.15-11.2-.26-5.97-3.23-9.41-8.8-9.68-2.84-.01-5.68-.02-8.52-.03-3.96-.45-6.12-2.81-6.61-7.21-.06-3.24-.11-6.49-.15-9.74-.75,0-1.49,0-2.24,0,.04,3.26,.09,6.5,.16,9.74,.67,5.91,3.57,9.08,8.89,9.68,2.83,0,5.66,.01,8.5,.03,4.1,.16,6.09,2.81,6.55,7.19,.05,3.75,.11,7.48,.18,11.2,.15,5.8,3.18,9.21,8.63,9.52,10.43,.09,20.88,.24,31.25,.43q2.71,.2,16.02,16.8c.97,.02,1.94,.05,2.91,.07q-9.18-11.71-13.04-16.42Z"/><path class="cls-3" d="M132.73,424.76s-.38,2.44-.77,4.01c-.29,1.21-.52,1.96-.9,2.52-.49,.73-1.06,.98-1.57,.99-1.09,.04-1.86-1.01-1.99-1.22l-6.93-11.75c-.88-1.56-.91-2.72-.93-2.94-.88-10.45-1.6-22-2.21-35.11-.24-5.24-.47-10.67-.68-16.27-.11-2.6-.13-3.63-2.88-6.08-2.36-2.1-6.45-5.67-13.84-11.69-1.77-1.79-2.12-2.45-2.61-5.02-.93-10.61-1.71-21.72-2.34-33.27-.34-6.25-.63-12.56-.88-18.94-.74-5.82-3.64-8.93-8.85-9.52-9.67,0-19.26,.04-28.69,.12,.06,.82,.13,1.63,.2,2.45,9.4-.09,18.95-.13,28.6-.12,3.87,.44,6.02,2.75,6.59,7.07,.26,6.37,.58,12.69,.95,18.94,.68,11.55,1.52,22.65,2.52,33.27,.34,2.34-.08,3.37,3.26,6.54,2.4,2.28,7.04,5.59,13.95,11.5,1.72,1.47,2.07,2.34,2.26,4.74,.44,5.67,.53,11.03,.82,16.27,.76,13.39,1.19,24.95,2.17,34.98,.17,1.08,.12,1.9,.77,3.11l7.63,12.39c2.04,2.86,4.25,2.68,5.47,.72,.37-.6,.93-2.11,1.15-3.21l.8-3.93c-.22-.07-.86-.48-1.09-.55Z"/><path class="cls-3" d="M3.18,255.38c-4-2.76-4.18-4.77-4.52-7.84-.46-8.36-.61-15.43-.61-23.22-.65,.02-1.3,.04-1.94,.07-.11,8.47,.07,16.9,.54,25.26q.76,6.84,46.34,32.49c1.4,.73,2.37,.99,3.86,1.03,2.62-.03,5.26-.06,7.91-.09-.07-.81-.14-1.63-.2-2.45-2.66,.03-5.31,.18-7.96,.15-.24,0-1,.08-2.26-.65L3.18,255.38Z"/></g><g><path class="cls-3" d="M52.39,177.56c-3.73-.39-5.5-2.62-5.41-6.81,.43-3.78,.9-7.53,1.41-11.24,.28-5.51-1.87-8.41-6.55-8.89-10.4,.17-20.53,.4-30.26,.7-9.36,.29-18.01,.62-25.91,1-.84-.06-3.39-.25-11.01-18.18-.69-1.27-.96-1.46-2.28-1.56-3.69,.26-7.13,.54-10.3,.82-2.08,.58-3.16,.51-12.16,12.4-1,1.2-1.14,1.38-2.01,2.11-1.35,1.12-1.92,.9-2.84,1.18-2.29,.82-4.15,3.38-6.24,8.9-.39,1.15-.77,2.3-1.15,3.45-1.48,4.93-2.04,6.77,2.88,20.2,.76,1.51,2.9,1.14,3.64,2.67,.88,1.81,.59,4.23,.42,5.67-.96,5.84-1.72,11.75-2.26,17.71-.08,.83-.15,1.66-.21,2.49-.13,1.63-.25,3.26-.35,4.9,.39-.04,.78-.07,1.18-.11,.1-1.64,.22-3.27,.35-4.9,.07-.83,.14-1.66,.21-2.49,.54-5.96,1.29-11.87,2.25-17.71,.69-5.73-.18-8.68-2.64-9-1.95-.25-3.98-7.91-5.34-14.28-.16-1.84,.36-2.67,1.08-5.06,.37-1.15,.75-2.3,1.14-3.45,.94-2.5,2.16-5.8,4.46-6.97,1.24-.63,1.42-.41,2.16-.49q1.12-.38,11.47-12.84c1.44-1.55,1.83-1.83,3.02-2.16,3.19-.29,6.64-.56,10.36-.83q1.23,.2,3.18,4.57c2.77,6.19,5.22,10.31,7.18,13.61,1.09,1.34,1.48,1.54,3.22,1.67,7.94-.38,16.62-.72,26.02-1.01,9.77-.3,19.94-.53,30.39-.7,3.5,.35,5.09,2.51,4.87,6.6-.52,3.71-1,7.46-1.44,11.24-.14,5.66,2.25,8.67,7.29,9.19,2.74-.03,5.49-.06,8.25-.08,.06-.81,.13-1.61,.2-2.41-2.76,.02-5.5,.05-8.23,.08Z"/><path class="cls-3" d="M62.78,177.46c-.07,.8-.13,1.61-.19,2.41,3.61-.03,7.25-.05,10.9-.06,.05-.8,.11-1.61,.17-2.41-3.64,.01-7.27,.03-10.87,.06Z"/></g><g><path class="cls-3" d="M127.72,175.29c-1.59-.91-2.67-1.23-4.45-1.31-2.75-.03-5.49-.06-8.24-.08-5.62,.56-8.73,3.78-9.51,9.84-.05,1.45-.1,2.91-.15,4.38-.58,4.66-2.96,7.14-7.26,7.6-1.54,0-3.09-.01-4.63-.02-7.2-.41-6.86-5.45-6.11-16.49,.42-3.65,1.78-4.8,4.49-7.09,6.69-6.27,3.98-16.71-4.47-17.17-3.48,0-6.94,0-10.39,.01q-3.51,.18-11.91,7.53c-2.31,2.23-3.3,4.16-3.77,7.36-.25,2.53-.48,5.08-.69,7.64-.07,.8-.13,1.61-.2,2.41-.29,3.61-.55,7.24-.78,10.9,.73,0,1.46-.01,2.19-.02,.22-3.66,.48-7.29,.76-10.9,.06-.81,.13-1.61,.19-2.41,.21-2.56,.44-5.11,.68-7.64q.52-3.57,8.77-10.76c1.56-1.25,2.71-1.7,4.54-1.8,3.46-.01,6.94-.02,10.43-.01,4.97,.55,10.35,7.15,1.72,14.4-3.55,3.32-3.57,3.56-4.34,16.3-.07,5.89,3.39,9.9,8.81,10.21,1.54,0,3.09,.01,4.64,.02,5.69-.6,8.83-3.89,9.59-10.04,.04-1.46,.09-2.92,.14-4.38,.58-4.59,2.93-7.03,7.2-7.46,2.75,.02,5.5,.05,8.26,.08q2.12,.17,19.59,11.12c2.41,1.75,3.37,3.57,3.56,6.71,0,2.04-.01,4.08-.03,6.13,0,.15-.01,1.01-.02,1.16h2.25c0-.2,.02-.92,.02-1.12,0-2.05,.01-4.09,.02-6.13q-.37-6.18-20.89-18.96Z"/><path class="cls-3" d="M145.76,203.42c-1.1,2.38-1.15,2.44-13.74,10.02-3.25,2.29-4.57,4.72-4.89,8.98v.89c-.04,2.19-.07,4.37-.1,6.55q-.29,4.24-12.94,13.89c-1.4,.98-2.43,1.33-4.08,1.39-9.15-.07-18.27-.11-27.32-.11-.75,0-1.49,0-2.24,0-8.96,0-17.84,.05-26.59,.14,.02,.84,.04,1.67,.06,2.5,8.73-.08,17.6-.13,26.56-.14,.75,0,1.49,0,2.24,0,9.04,0,18.15,.03,27.29,.11q3.09-.1,15.22-9.31c2.72-2.35,3.83-4.64,4.09-8.44,.03-2.18,.06-4.36,.09-6.55,0-.3,0-.6,.01-.89q.35-4.79,14.39-13.25c.85-.57,2.89-1.76,4.05-4.65,.1-.26,.28-.76,.34-1.07l-2.44-.06Z"/></g><path class="cls-3" d="M81.86,136.75c-1.67,0-3.33,0-4.99,.02q-1.37-.18-4.99-7.29c-.77-1.32-1.63-1.84-3.17-1.93-8.48,.06-16.83,.16-24.99,.31-.98-.11-1.99-.23-7.72-16.47-.49-1.14-1.12-1.56-2.41-1.61-3.2,.08-6.37,.17-9.48,.26-2.18,.07-4.31,.14-6.4,.21,.56-1.35,1.13-2.68,1.7-4-.53,.02-1.07,.04-1.59,.06-.59,1.32-1.16,2.66-1.73,4-1.26,.05-2.51,.09-3.74,.14-.29,.68-.58,1.36-.87,2.04,1.24-.05,2.49-.09,3.76-.14-1.67,4.07-3.25,8.24-4.74,12.51-.77,2.87-.06,4.37,2.16,4.58,1.56-.05,3.14-.1,4.75-.15,2.5-.08,5.02-.15,7.57-.22q.91,.09,7.1,11.84c.71,1.11,1.44,1.52,2.79,1.58,5.57-.11,11.23-.2,16.97-.28q1.33,.18,4.75,8.8c.78,1.59,1.77,2.26,3.52,2.37,3.14-.03,6.3-.05,9.47-.07q2.05-.13,7.79-5.9c.73-.62,.98-.72,1.86-.82,.5,0,.99,0,1.49,0,3.47-.38,4.57-2.89,4.88-3.96,.02-.05,1.33-5.32-3.74-5.87Zm1.75,5.42c-.17,.57-.77,1.92-2.64,2.13-.5,0-.99,0-1.49,0-1.4,.08-2.3,.48-3.44,1.52q-5.02,5.03-6.19,5.16c-3.16,.02-6.3,.04-9.43,.07-1.08-.15-1.34-.33-1.89-1.27q-3.87-9.71-6.28-9.86c-5.71,.07-11.34,.17-16.89,.28-.77-.08-.99-.16-1.5-.85q-6.75-12.43-8.24-12.48c-2.53,.07-5.04,.14-7.52,.21-1.6,.05-3.17,.1-4.72,.15-1.13-.11-1.55-1.01-1.17-2.46,1.47-4.27,3.03-8.43,4.67-12.5,2.11-.07,4.25-.14,6.45-.21,3.14-.1,6.33-.18,9.55-.27,.78,.09,.95,.2,1.31,.88,6.13,17.22,6.68,17.25,9.02,17.36,8.21-.14,16.61-.25,25.13-.31,.95,.12,1.18,.26,1.72,1.04q4.1,8.08,6.52,8.23c1.67,0,3.34-.01,5.02-.02,2.75,.29,2.03,3.15,2.02,3.18Z"/><path class="cls-3" d="M123.24,68.16c-13.02-.13-26.03-.15-38.67-.06-2.31,.25-3.98,1.54-5.12,3.92-.14,.37-.28,.74-.42,1.11-.03,.09-.07,.18-.1,.26-.67,1.43-1.67,2.21-3.06,2.36-2.19,.02-4.37,.05-6.84,.09-.76,.13-1.18,.21-2.22,.79q-7.88,4.76-8.97,7.04c-1.72,4.04-3.37,8.23-4.93,12.54,.57,0,1.14-.02,1.71-.03,1.53-4.32,3.14-8.5,4.83-12.54,.54-1.03,.77-1.3,1.76-2.01q6.49-3.96,7.41-4.09c2.19-.03,4.4-.06,6.61-.08,2.41-.28,4.13-1.61,5.26-4.09,.03-.09,.06-.18,.1-.26,.14-.37,.27-.74,.41-1.11,.65-1.39,1.62-2.14,2.97-2.29,12.79-.09,25.96-.07,39.14,.06,1.32,.15,1.99,.91,2.05,2.3-.02,.37-.04,.74-.06,1.11,0,.04,0,.08,0,.12-.15,1.14-.64,1.78-1.69,2.21q-17.81,5.75-18.55,8.88c-.47,2.96-.93,5.99-1.37,9.1-.38,1.6-1.33,2.46-2.9,2.62-11.41-.03-22.7,.02-33.7,.14-1.45-.15-1.97-1-1.6-2.6,.63-2.76-.18-4.15-2.56-4.39-1.06,.02-2.11,.03-3.16,.05-.23,.61-.46,1.23-.69,1.85,1.06-.02,2.12-.03,3.19-.05,1.38,.14,1.87,.98,1.49,2.57-.66,2.77,.25,4.25,2.77,4.5,11.09-.12,22.48-.17,33.98-.14,2.72-.28,4.35-1.76,4.99-4.54,.42-3.11,.85-6.14,1.29-9.1,.27-1.2,.85-1.88,1.98-2.34q17.78-5.71,18.15-8.73s0-.08,0-.12c.02-.37,.03-.74,.05-1.11-.12-2.38-1.27-3.67-3.53-3.93Z"/><path class="cls-3" d="M239.15,109.55c-1.27-3.27-2.56-6.49-3.98-9.61-1.44-3.17-2.49-4.33-5.43-4.62-1.59-.09-3.99-.18-5.08-.3-1.09-.12-1.14-.46-1.98-1.29-13.74-15.66-13.9-15.69-16.56-16.2-10.04-.47-20.61-.88-31.85-1.21-.89,.18-1.35,.45-1.93,1.1q-3.77,5.49-4.96,5.72c-9.75-.27-19.69-.48-29.69-.64-1.39,.13-1.76,.29-2.82,1.22q-9.09,9.77-10.54,9.98c-2.92-.03-5.83-.06-8.75-.08-2.58,.25-4.09,1.67-4.62,4.36-.11,1.07-.21,2.15-.32,3.24,.62,0,1.25,0,1.88,.01,.1-1.09,.19-2.17,.29-3.24,.49-1.72,.93-2.14,2.61-2.48,2.94,.02,5.88,.05,8.82,.08,1.51-.14,1.91-.31,3.08-1.3q9.51-9.88,10.4-10c10.1,.16,20.14,.38,29.99,.65,1.32-.11,1.65-.26,2.5-1.16q3.96-5.56,4.87-5.74c11,.34,21.69,.76,32.1,1.27q1.1,.42,1.92,1.19c14.84,16.11,13.27,16.05,15.06,16.41,1.63,.09,5.07,0,6.42,.33,1.53,.38,2.12,.83,2.9,2.62,1.36,3.14,2.61,6.36,3.82,9.64,.66,1.78,.56,2.53-.81,2.48-.81-.05-1.63-.08-2.45-.14-1.31-.1-1.43,.41-1.95,2.06l-4.37,17.72c-.81,3.14-1.73,3.06-2.06,3.13l-14.8-.65c-2.05-.09-2.46,.51-3.16,2.63-7.35,22.05-7.11,22.23-9.27,22.5l-17.03-.59c-.86-.14-1.48-.48-1.85-.76-14.12-13.25-13.67-12.83-14.02-14.47-.05-.92-.1-1.81-.16-2.73,.24-2.09,.65-2.58,2.49-2.94,1.24,.03,2.48,.06,3.72,.1,.74-.06,1.67-.14,2.54-.81,2.94-2.25,2-8.61-3.42-9.34-7.53-.2-15.14-.37-23.41-.6-.5-.23-1.12-.66-1.51-1.04q-16.71-22.53-18.77-22.81c-2.51-.03-5.02-.06-7.53-.08-.04,.66-.08,1.32-.12,1.99,2.53,.02,5.06,.05,8.15,.16,.46,.21,1.02,.6,1.38,.95q16.1,22.67,19.07,23.1c7.71,.15,15.37,.32,22.94,.52,.31,.08,.74,.12,1.03,.25,1.7,.78,3.19,4.75-.54,5.49-1.23-.03-2.46-.06-3.7-.1-2.84,.24-4.27,1.9-4.38,5.05,.06,.98,.11,1.96,.16,2.95,.3,1.97,.54,2.49,1.85,3.99q14.25,13.27,16.22,13.53c5.76,.17,11.47,.35,17.1,.55,1.59-.2,2.85-.35,3.9-2.75q7.91-22.4,8.71-22.5c4.26,.17,8.46,.33,12.59,.54,.77,.04,1.53,.08,2.29,.12,1.45,.08,2.72-.91,3.05-2.33,.15-.63,.32-1.23,.48-1.82,3.59-13.63,4.59-17.43,4.91-18.51,.08-.25,.32-.42,.58-.4,.69,.04,1.38,.08,2.06,.12,1.82,.09,3.01-.97,1.92-4.49Z"/><path class="cls-5" d="M148.48,165.95c-.05-4.06-.1-8.09-.17-12.07-.18-2.7-.89-4.33-2.71-6.24q-8.47-7.98-11.39-8.17c-2.18-.03-4.36-.06-6.53-.09-1.76-.12-2.81-.65-3.99-2q-9.66-12.28-12.98-12.5c-3.53-.02-7.05-.04-10.56-.06-.07,.72-.14,1.44-.21,2.16,3.53,.01,7.08,.03,10.62,.06,1.7,.11,2.7,.61,3.82,1.92q9.59,12.42,13.25,12.68c2.19,.03,4.38,.06,6.57,.09,1.5,.09,2.4,.47,3.56,1.48q8.24,7.81,8.41,10.62c.05,3.98,.03,8.01,.13,12.07,.17,6.7-5.15,8.2-9.23,3.85-7.19-7.65-7.63-8.2-11.18-8.45-2.5-.03-4.99-.06-7.49-.08-3.42-.41-5.18-2.38-5.37-6.05,.03-.67,.06-1.33,.08-1.99-.26-5.01-2.62-7.71-7.22-8.24-1.83-.01-3.65-.02-5.47-.03-3.3-.38-4.91-2.29-4.93-5.84,.78-8.75,1.66-17.14,2.63-25.15-.65,0-1.3,0-1.95,0-1.02,8.01-1.94,16.4-2.77,25.15,0,4.94,2.25,7.6,6.85,8.12,1.83,0,3.66,.02,5.5,.03,3.32,.38,5.02,2.33,5.19,5.94-.03,.66-.06,1.33-.09,1.99,.25,5.09,2.7,7.84,7.47,8.41,2.5,.02,5.01,.05,7.51,.08,1.77,.12,2.84,.64,4.09,1.98l7.1,7.05c3.79,3.51,8.16,1.82,9.88-.66,1.7-2.46,1.56-5.99,1.56-6.08Z"/><g><path class="cls-3" d="M272.81,231.78c-.51,0-1.85-.01-3.14,1.16-8.02,7.29-15.25,15.38-23.18,22.76-1.64,1.7-2.36,3.23-2.72,5.83-1.12,11.54-2.73,22.92-4.82,34.11,.62,.03,1.24,.07,1.86,.1,2.12-11.18,3.76-22.57,4.9-34.1,.22-1.55,.72-2.75,1.48-3.56,7.41-7.9,15.68-14.91,23.17-22.72,.55-.53,1.23-1.08,2.39-1.04,2.31,.16,4.75,.33,6.99,.5-.03-.94-.07-1.39-.31-2.55-2.12-.15-4.43-.32-6.61-.47Z"/><path class="cls-3" d="M305.86,198.15c.26,.03,.52,.05,.77,.08-.37-3.27-.8-6.52-1.29-9.75-.25-.03-.51-.05-.77-.08-.21-.02-.42-.04-.62-.06,.49,3.23,.92,6.48,1.28,9.75,.21,.02,.42,.04,.63,.06Z"/><path class="cls-3" d="M310.88,251.48c-.56,.55-.85,.71-1.66,.73-.91-.1-1.84-.19-2.78-.29-.06,0-.11-.01-.17-.02q-1.2-.25-6.46-14.7c-.99-2.33-2.01-3.32-3.76-3.64-4.76-.42-9.98-.82-15.2-1.2,.15,.95,.2,1.57,.22,2.55,5.11,.38,10.23,.77,14.91,1.18,2.05,.38,2.13,.4,6.74,14.69,.84,2.31,1.74,3.3,3.32,3.63,.06,0,.11,.01,.17,.02,.94,.1,1.87,.19,2.78,.29,.5,.02,1.34,.05,2.45-1.08,4.88-5,9.87-11.15,14.83-18.26l-.54-2.19c-4.91,7-7.74,10.63-14.85,18.3Z"/><path class="cls-3" d="M335.02,214.93c-.14-1.95-.31-3.9-.51-5.84-.54-4.58-.84-5.12-5.79-14.12-.74-1.23-1.24-1.71-1.97-1.91-2.89-.45-6.14-.91-9.76-1.36-2.12,.19-2.98,2.53-2.65,7.12,.05,.4,.09,.8,.14,1.2,.45,3.27,.82,3.96,3.24,8.41,1.67,3.39,1.32,8.45-1.22,8.68-1.21-.14-2.46-.28-3.74-.43q-1.18-.24-4.14-5.44c-.66-1.23-.94-2.18-1.11-3.76-.17-2.28-.38-4.55-.61-6.81-.26-.03-.51-.05-.77-.08-.21-.02-.42-.04-.63-.06,.23,2.26,.43,4.53,.61,6.81,.34,3.28,.46,3.51,3.75,9.27,1.01,1.68,1.77,2.33,3.01,2.58,1.28,.14,2.53,.28,3.74,.43,3.08-.27,3.3-4.82,3.32-5.73,.06-4.19-.79-5.77-3.08-9.99-.63-1.22-.92-2.16-1.13-3.73-.05-.4-.09-.8-.14-1.2-.23-3.11,.36-4.69,1.79-4.82,3.63,.45,6.89,.91,9.78,1.36,.81,.22,.98,.26,5.54,9.25,.58,1.28,.85,2.37,1.07,4.17,.19,1.94,.36,3.89,.5,5.84q.16,2.94-2.14,7.64l.62,2.02,1.62-3.32c.3-.76,.92-2.34,.67-6.19Z"/><path class="cls-3" d="M326.59,231.88l.54,2.19c3.09-4.94,3.27-5.23,4.93-8.33l-.62-2.02c-2.79,4.97-2.9,5.16-4.84,8.16Z"/></g><path class="cls-3" d="M321.48,163.07c-1.38-4.43-2.9-8.81-4.55-13.15-.07-.19-.14-.37-.21-.56-1.21-2.87-2.22-4.72-3.55-4.95-1.39-.22-2.88-.44-4.7-.65-.08,0-.21-.03-.39,.08-.2,.12-.29,.33-.38,.6-.02,.05-.03,.1-.04,.14-.59,2.12-1.55,4.13-1.77,6.35-.16,1.61,.87,3.05,.68,4.67,0,0,0,.27-.2,.47-.18,.17-.42,.14-.42,.14l-4.55-.63c-.6-.04-1.34-.92-1.79-1.57-3.68-5.21-5.9-8.4-8.21-11.76l-.7,1.09c7.04,10.31,9,13.18,9.96,14.11,.37,.36,.59,.49,.89,.53,1.78,.19,3.48,.41,5.12,.57,.54,.05,.92-.23,1.14-.49,.99-1.18-.72-4.15-.5-5.88,.55-1.79,1.08-3.77,1.63-5.56,.2-.65,.34-.62,.48-.62,1.66,.23,2.91,.38,4.56,.71,.6,.12,1.25,.89,1.92,2.51,.07,.19,.14,.37,.21,.56,1.65,4.34,3.16,8.72,4.62,13.46,.2,.95,.26,1.16,.03,1.97-.38,1.37-2.01,4.91-3.29,7.31-.27,.5-.52,.94-.75,1.28-.27,.41-.37,.76-.69,.74l-4.32-.58c-.67-.11-1.57-.94-2.05-2.62-.24-1.01-.49-2.02-.75-3.03-.58-1.89-.96-3.5-1.81-4.36-.48-.49-.9-.56-1.92-.73-1.88-.21-3.85-.42-5.91-.63-4.41-.45-9.11-.88-14.06-1.29-1.04,.07-1.27,.22-1.87,1.22-5.05,11.18-10.53,20.15-13.35,24.51q-3.39,5.24-3.28,7.39c.25,2.91,.47,5.84,.64,8.78,.14,1.53,.46,2.45,1.27,3.65q7.83,10.66,9.14,10.94l10.12,.76c2.32,.09,3.06-1.74,3.14-4.85-.04-.9-.08-1.81-.12-2.71,0-.91,.06-1.12,.39-1.79q5.73-9.36,6.17-9.43c2.77,.25,5.46,.51,8.05,.77,.21,.02,.42,.04,.63,.06,.26,.03,.52,.05,.77,.08,1.21,.12,2.38,.25,3.53,.37-.09-.82-.18-1.64-.27-2.46-1.15-.12-2.32-.25-3.53-.37-.26-.03-.51-.05-.77-.08-.21-.02-.42-.04-.63-.06-2.59-.26-5.27-.52-8.04-.76-1.06,.07-1.31,.23-2.04,1.27q-5.91,10.62-5.87,12.27c.05,.9,.09,1.81,.12,2.71-.05,1.96-.72,2.44-1.6,2.48-3.28-.26-5.97-.32-9.6-.73-1.04-.12-1.36-.34-1.8-.88q-7.16-10.36-7.26-11.11c-.18-2.94-.4-5.87-.65-8.78-.02-.89,.03-1.1,.38-1.76,5.99-9.14,10.76-17.45,14.18-24.71q2.03-4.31,2.71-4.41c4.97,.42,9.68,.85,14.11,1.3,1.8,.18,3.53,.37,5.37,.6,.27,.03,.47,.06,.76,.19,.73,.33,1.21,.78,1.71,2.45,.25,1.01,.5,2.01,.74,3.03,.86,2.99,2.02,4.68,3.57,5.16l4.85,.56c.32-.01,.49-.22,.67-.54,.09-.16,.17-.31,.25-.47,4.83-8.94,4.6-9.73,3.7-12.87Z"/><path class="cls-3" d="M334.59,162.65l-.51-1.39s0,0,0,0c.29,.78,.57,1.57,.85,2.35,0,0,0,.01,0,.02l-.35-.97Z"/><g><path class="cls-3" d="M328.87,149.64c.22,.33,.5,.74,1.54,3.23,.11,.28,.23,.56,.34,.83,.91,2.24,1.79,4.49,2.62,6.75,.06,.05,.12,.09,.17,.14-.84-2.26-1.71-4.51-2.62-6.75-.11-.28-.23-.56-.34-.83-1.35-3.22-2.27-5.12-2.72-5.66-.17-.11-.37-.22-.59-.33-.07,.34-.15,.69,1.6,5.03,.11,.28,.23,.55,.34,.83,.14,.36,.29,.71,.43,1.07,.49,1.26,.79,2.01,1.69,6.21,.03,.18,.07,.43,.08,.61-.94-.12-1.92-.41-3.04-.69q-.44-.33-1.82-2.82c-.7-1.3-1.75-3.8-1.57-4.95,.11-.04,.26-.09,.37-.12,.36-.9-.4-3.02-1.2-4.99-.25-.58-.49-1.15-.74-1.73-1.84-4.08-1.95-4.32-8.9-11.55-.33-.31-.4-.37-.67-.53-4.46-.92-10.18-1.78-17.37-2.63-.42,.02-.83,.02-1.03,.64-1.03,3.29-1.63,5.54-2.66,8.24l1.43,1.87c1.52-4.19,1.7-4.85,2.6-8.06,.11-.38,.2-.52,.51-.5,.11,0,.23,.03,.34,.04,7.19,.84,12.83,1.7,17.08,2.55,0,0,.94,.56,6.57,6.97,.56,.71,1.01,1.5,1.61,2.83,.25,.57,.5,1.15,.74,1.72,.5,1.24,.75,2,.74,2.69-.12,.11-.31,.23-.46,.3-.07,.25-.59,2.63,3.69,10.39,.89,1.57,1.17,1.74,1.55,1.97,1.13,.29,2.11,.58,2.94,.86,.06-.04,.13-.1,.18-.14,.02-.41,.05-.93-1.07-5.33-.32-1.16-.64-2.1-1.28-3.73-.14-.36-.29-.71-.43-1.07-.11-.28-.23-.56-.34-.83-.58-1.44-.81-2.1-.94-2.7,.26-.06,.46,.05,.63,.16Z"/><path class="cls-3" d="M334.4,162.92c-.05-.05-.11-.09-.18-.14,1.94,5.44,3.65,10.94,5.14,16.49,.06,.05,.12,.09,.18,.14-1.49-5.56-3.21-11.06-5.15-16.5Z"/></g><g><path class="cls-3" d="M342.48,260.54c-.18-.21-.33-.38-.39-1.88-.21-5.68-.32-8.54-1.13-15.77-.38-2.69-.89-3.04-1.39-3.02-1.59,.96-1.82,6.94-1.82,7-.15,6.69,1.06,13.3,1.23,19.98,.06,1.87,.25,2.67,.69,2.94,.62,.18,1.17,.37,1.67,.55,.13-.82,.26-1.64,.39-2.47-.5-.18-1.06-.37-1.68-.55-.21-.21-.39-.38-.44-1.85-.2-6.56-.3-8.99-1.12-16.47-.34-3.62,.5-6.99,1.33-6.54,.92,.5,1.6,13.26,1.72,17.6,.07,1.89,.24,2.7,.61,2.98,.3,.1,.57,.21,.83,.32,.11-.83,.21-1.66,.31-2.48-.26-.1-.54-.21-.83-.32Z"/><path class="cls-3" d="M345.21,261.92c-.44-.38-.93-.64-1.55-.91-.1,.83-.2,1.66-.31,2.48,.62,.27,1.11,.54,1.49,.8,.09,.45,.14,.72-.02,2.3-1.34,13.31-4.13,26.44-8.3,39.02,.52-1.64,1.23-3.82,1.73-5.46v-.04c3.75-12.93,5.42-21.34,6.88-34.63,.18-2.03,.2-2.96,.08-3.56Z"/></g><g><path class="cls-3" d="M344.21,251.64c-.23,3.09-.53,6.16-.89,9.22-.1,.83-.2,1.66-.31,2.48-.35,2.68-.74,5.35-1.19,8.02-1.28,7.14-2.02,8.4-6.1,15.39-1.61,2.5-2.34,1.36-2.66-.03-.28-1.21-.25-2.75-.23-3.67,.2-8.7,.06-12.95-.68-21.66-1.42-10.82-5.44-5.8-9.33-.94l.33,2.14,2.94-3.67c2.8-3.35,4.74-.64,5.21,3.77,.97,9.06,.74,18.52,.67,21.63-.12,7.91,1.99,6.37,2.64,5.71,.37-.37,1.44-1.87,4.52-7.72,1.31-2.85,2.13-5.78,3.04-10.81,.45-2.66,.84-5.33,1.19-8.02,.11-.83,.21-1.65,.31-2.48,.36-3.06,.66-6.14,.89-9.22-.11-.05-.23-.1-.35-.15Z"/><polygon class="cls-3" points="321.76 261.72 319.38 264.45 319.7 266.59 322.09 263.85 321.76 261.72"/></g><g><path class="cls-3" d="M285.16,308.35c-.27-3.78-1.42-5.46-4.08-5.98-.16-.01-.32-.03-.48-.04-3.1,0-3.83,.8-9.49,6.99-1.71,1.73-2.94,2.34-4.7,2.35-3.26-.23-6.61-.46-10.03-.68q-1.76-.22-6.47-6.85c-1.22-1.52-2.26-2.1-4.13-2.31-10.75-.61-22.12-1.16-33.94-1.64-.13,.8-.25,1.6-.38,2.39,11.76,.48,23.09,1.03,33.79,1.64q2.23,.25,6.66,6.84c1.12,1.5,2.09,2.08,3.83,2.3,3.41,.22,6.74,.45,9.99,.68,3.4-.02,4.6-1.36,9.67-6.97,1.69-1.73,2.88-2.35,4.55-2.35,.16,.01,.32,.03,.48,.04,3.35,.66,3.31,2.12,3.06,13.46,.53,.05,1.05,.1,1.57,.14,.11-4.71,.15-6.13,.11-10.01Z"/><path class="cls-3" d="M283.39,320.6c-.54,9.47-1.08,14.2-2.66,23.04-1.31,5.26-2.26,6.08-13.89,16.07-5.09,4.71-6.16,7.97-7.94,13.37-1.49,4.53-4.39,11.87-9.75,21.12-.39,.71-.77,1.34-.96,1.81-.73,1.81-.12,2.26,.67,2.45l3.9,.47c1.67-.01,2.87-.02,18.19-12.6,1.28-1.08,2.69-2.33,4.64-4.61,.07-.09,.15-.17,.22-.26-.23-.04-.46-.07-.7-.11-.07,.09-.15,.17-.22,.26-1.42,1.65-3.19,3.71-16.11,13.51-1.85,1.34-3.29,2.19-4,2.11-1.59-.18-2.11-.22-3.5-.38-.78-.08-1.19-.14-1.36-.39-.47-.7-.26-1.2,.78-3.02,4.43-7.72,7.48-13.92,10.93-24.59q1.53-4.17,14.39-15.6c4.91-4.78,7.37-7.17,8.9-32.51-.51-.05-1.03-.1-1.55-.14Z"/><path class="cls-3" d="M330.23,301.85c-.05-.45-.14-1.02-.41-1.31-.6-.65-2.71-.84-4.01-1.09-.86-.35-1.18-1.14-1.07-3.87,.44-10.58,.33-19.36-1.59-32.98l-.33-2.14c-.38-2.21-.9-5.16-1.33-7.37l-1.06,1.29c.42,2.2,.96,5.14,1.33,7.35l.33,2.13c1.49,10.99,2.22,19.91,1.59,32.96-.09,3.23,.18,4.21,1.38,5.02,1.3,.25,2.48,.5,3.55,.76,.99,.36,.73,1.53,.73,2.7,0,4.1-3.56,11.89-16.45,26.61-1.73,2.06-2.93,3.89-4.6,7-4.04,7.76-8.5,15.25-13.38,22.44-2.78,3.96-3.55,4.52-9.56,8.9-2.33,1.79-4.07,3.55-6.66,6.72-.67,.84-1.34,1.67-2.02,2.5,.24,.04,.47,.07,.7,.11,.68-.83,1.36-1.66,2.03-2.5q2.58-3.14,9.87-8.65c2.31-1.87,4.01-3.75,6.28-6.96,4.9-7.19,9.38-14.67,13.43-22.43,4.13-7.68,10.66-13.54,15.6-20.61,.55-.83,1.92-3.08,3.42-6.31,.94-1.94,2.59-6.88,2.22-10.27Z"/></g><path class="cls-3" d="M290.23,111.96c-.36-.61-.72-1.21-1.08-1.81-.31-.04-.63-.08-.95-.12,.36,.6,.72,1.21,1.07,1.81,1.9,3.43,2.46,5.39,2.09,7.21-2.51,6.67-2.64,6.66-4.31,6.59-.3-.03-.59-.06-.89-.09-2.33-.24-4.75-.47-7.24-.69-6.66-1.57-11.97-11.81-10.69-16.12q1.52-3.94,3.13-3.89c1.47,.14,2.91,.28,4.31,.42,4.61,.47,8.72,.94,12.34,1.42-.42-.67-.85-1.33-1.28-1.99-3.58-.47-7.66-.94-12.24-1.41-1.39-.14-2.82-.28-4.28-.42-1.42-.05-2.05,.33-2.59,1.56-1.36,3.54-2.34,6.09,.9,12.08,3.2,5.92,7.43,9.84,11.3,10.49,2.51,.23,4.94,.46,7.29,.7,.3,.03,.6,.06,.9,.09,1.26,.06,1.89-.26,2.47-1.24,3.22-7.01,3.55-7.74-.25-14.59Z"/><path class="cls-5" d="M164.52,201.39c-5.29-.12-10.61-.24-15.96-.34-.75-.01-1.51-.03-2.26-.04-5.75-.1-11.51-.2-17.29-.27-.01,.82-.02,1.65-.03,2.48,5.58,.07,11.16,.16,16.72,.26,.81,.01,1.61,.03,2.42,.04,5.5,.1,10.97,.22,16.41,.35,6.11,.83,7.75,7.62,4.29,11.77q-10.77,11.76-13.49,11.85c-5.5-.11-11.03-.22-16.57-.31-.01,.85-.02,1.69-.04,2.53,5.54,.09,11.06,.19,16.56,.31,2.56-.09,4.07-.75,6-2.64q11.24-12.19,11.54-15.56c.03-.38,.72-9.2-8.3-10.43Z"/><path class="cls-3" d="M243.44,153.59c0-.05-.5-5.8-5.65-6.2-4.63-.24-9.36-.47-14.18-.69-1.08,0-1.71,.24-2.5,.95q-7.52,7.45-7.32,10.17c.78,6.33,1.43,12.76,1.95,19.29,.68,.03,1.36,.06,2.04,.08-.54-6.52-1.2-12.95-2-19.29-.08-1.11,.12-1.78,.74-2.47q6.7-6.44,7.48-6.44c4.84,.22,9.6,.45,14.25,.69,2.79,.49,3.95,4.17,2.41,5.79q-5.87,5.23-6.78,5.23c-5.14-.25-10.39-.49-15.73-.72,.1,.78,.19,1.56,.29,2.35,5.36,.23,10.63,.47,15.79,.72,.98,0,1.56-.19,2.31-.77,6.93-5.98,7.16-6.09,6.93-8.69Z"/><path class="cls-5" d="M183.39,312.75c-6.53-.2-13.15-.39-19.83-.55-.97-.02-1.94-.05-2.91-.07-5.32-.13-10.68-.24-16.06-.34-.04,.79-.08,1.57-.11,2.36,6.04,.11,12.05,.24,18.02,.39,.96,.02,1.93,.05,2.89,.07,5.95,.15,11.86,.32,17.69,.5,8.63,.5,11.2,9.1,8.5,16.48-.84,2.3-2.5,4.78-4.26,6.47l-3.53,3.31-1.67,1.56c-9.78,9.17-9.97,9.35-14.58,9.48-5.11-.14-10.28-.27-15.48-.38-.08,.71-.15,1.41-.23,2.11,5.15,.11,10.28,.24,15.35,.38,3.75-.11,6.13-1.11,9.46-3.98,1.66-1.55,3.88-3.62,5.54-5.17l1.96-1.83c8.98-7.25,10.03-13.31,10.03-13.31,.18-.63,3.58-16.28-10.78-17.48Z"/><path class="cls-1" d="M3.27,221.62c-1.75,.05-3.47,.11-5.17,.17-.65,.02-1.3,.04-1.94,.07-5.03,.17-9.86,.36-14.46,.56-.02,.84-.03,1.68-.04,2.53,0,0,0,0,0,0,4.61-.2,9.43-.39,14.46-.56,.64-.02,1.29-.04,1.94-.07,1.7-.06,3.43-.11,5.17-.17,9.53-.29,19.42-.52,29.56-.7,0,0,0,0,0,0,.01-.84,.02-1.68,.04-2.53-10.14,.18-20.03,.41-29.56,.7Z"/><path class="cls-5" d="M38.79,220.82c-.02,.84-.03,1.68-.04,2.53h0c5.71-.08,11.49-.15,17.32-.2h0c.01-.85,.02-1.69,.04-2.53-5.84,.05-11.62,.12-17.32,.21Z"/><path class="cls-5" d="M1.08,110.93c-.32,.68-.64,1.36-.95,2.04,3.01-.14,6.15-.28,9.4-.41,.29-.68,.59-1.36,.89-2.04-3.23,.13-6.34,.26-9.33,.41Z"/><path class="cls-5" d="M56.88,283.05c-.07-.81-.13-1.63-.2-2.45-.28-3.58-.53-7.18-.74-10.8-.68-7.37-4.54-11.23-10.7-11.5-1.94,.03-3.88,.05-5.81,.08,.04,.83,.09,1.66,.14,2.48,1.92-.03,3.85-.06,5.79-.08,4.65,.11,7.92,2.88,8.42,9.03,.22,3.62,.48,7.22,.77,10.8,.07,.82,.13,1.63,.2,2.45,.3,3.55,.63,7.09,1,10.61,.69,0,1.39-.01,2.09-.02-.35-3.52-.67-7.06-.96-10.61Z"/><path class="cls-1" d="M109.2,102.87c-.07,.66-.13,1.32-.2,1.98,2.78,.02,5.57,.04,8.35,.06,.04-.66,.09-1.32,.13-1.98-2.77-.02-5.53-.04-8.29-.06Z"/><path class="cls-5" d="M99.66,102.83c-.09,.66-.18,1.32-.27,1.98,2.4,0,4.81,.02,7.23,.03,.07-.66,.14-1.32,.21-1.98-2.39-.01-4.79-.02-7.17-.03Z"/><path class="cls-5" d="M189.61,128.25c-3.42-.11-6.86-.22-10.33-.32,.08,.72,.17,1.45,.25,2.18,3.49,.1,6.95,.21,10.39,.32-.1-.73-.2-1.46-.31-2.18Z"/><path class="cls-5" d="M199.1,128.58c-1.78-.07-3.57-.13-5.37-.19,.11,.72,.22,1.45,.33,2.18,1.81,.06,3.61,.13,5.4,.19-.12-.73-.24-1.46-.36-2.18Z"/><path class="cls-3" d="M218.02,180.32c-.68-.03-1.36-.06-2.04-.08,.22,2.96,.41,5.95,.58,8.94,.69,.03,1.37,.06,2.06,.08-.17-3-.37-5.98-.59-8.94Z"/><path class="cls-5" d="M218.8,192.8c-.69-.03-1.37-.06-2.06-.08,.45,9.27,.65,18.69,.6,28.25,.7,.03,1.39,.06,2.09,.09,.05-9.55-.16-18.98-.63-28.25Z"/><path class="cls-5" d="M236.44,307.94c-.34,1.55-.69,3.09-1.06,4.63-.26,1.1-.52,2.19-.78,3.27,.6,.03,1.19,.06,1.79,.09,.27-1.09,.54-2.18,.8-3.27,.37-1.54,.72-3.08,1.07-4.62-.6-.03-1.21-.06-1.82-.1Z"/><path class="cls-5" d="M303.75,179.25c-.25-.03-.5-.05-.76-.08-.21-.02-.41-.04-.62-.06,.45,2.37,.86,4.75,1.25,7.14,.21,.02,.42,.04,.62,.06,.26,.03,.51,.05,.76,.08-.39-2.39-.8-4.77-1.26-7.14Z"/><path class="cls-3" d="M290.22,105.17c-.73-.11-1.49-.21-2.27-.32,.43,.66,.86,1.33,1.29,2,.79,.11,1.55,.22,2.29,.32-.43-.67-.87-1.34-1.31-2Z"/><path class="cls-3" d="M340.25,182.12c-.06-.05-.12-.09-.18-.14,.57,2.26,1.11,4.52,1.61,6.8,.06,.05,.13,.09,.18,.14-.5-2.27-1.04-4.54-1.61-6.8Z"/><path class="cls-5" d="M333.99,161.07c-.1-.16-.25-.33-.44-.49-.05-.05-.11-.09-.17-.14-.09-.07-.2-.14-.31-.21,.29,.78,.57,1.56,.85,2.35,.11,.07,.21,.14,.31,.21,.06,.05,.12,.09,.18,.14,.2,.16,.35,.33,.45,.49-.28-.78-.56-1.57-.85-2.35Z"/><path class="cls-5" d="M347.39,229.95c-.13-.33-.45-.67-.96-1-.89-.07-1.48,7.33-1.72,13.68,.12,.05,.24,.1,.35,.15,.26-6.58,.74-10.7,1.32-11.3,.03,0,.08,0,.11,0,.52,.34,.84,.67,.96,1-.02-.84-.04-1.69-.06-2.53Z"/><path class="cls-5" d="M287.09,141.33c-1.84-.17-3.73-.34-5.66-.51,.25,.75,.5,1.51,.75,2.27,1.94,.17,3.84,.34,5.69,.51-.26-.76-.52-1.51-.78-2.27Z"/><g><path class="cls-3" d="M323.37,139.75c-.23-.1-.47-.19-.77-.31-.15-.16-.23-.25-.58-.85q-1.69-2.91-1.96-3.43c-2.04-4.01-4.2-7.96-6.47-11.82-.5-.86-.59-1.1-.72-1.4-1.02-3.12-2.72-5.94-4.06-8.92,.28,.19,.49,.38,.62,.57l-1.43-2.06c-.13-.18-.33-.37-.62-.53,.05,.1,.12,.24,.18,.33,2.24,3.79,3.43,8.08,5.64,11.88,2.27,3.86,4.43,7.8,6.46,11.82,.45,.88,.75,1.43,1.19,2.19q2.37,4.08,2.85,4.48c.26,.1,.51,.19,.74,.29-.35-.75-.71-1.5-1.07-2.24Z"/><path class="cls-3" d="M321.06,134.14c-.39-.74-.58-1.14-.7-1.48-1.35-3.55-1.48-3.79-3.7-7.81l-.32-.53-1.07-1.75c2.42,4.19,2.92,5.48,4.02,8.33,.09,.23,.42,1.01,1.51,3.11,.36,.69,.72,1.38,1.07,2.07,.09,.04,.18,.09,.27,.13-.35-.69-.71-1.38-1.07-2.07Z"/></g><path class="cls-5" d="M325.27,140.88c-.26-.27-.67-.55-1.23-.83,.36,.75,.72,1.5,1.07,2.25,.56,.28,.97,.56,1.23,.83-.36-.75-.72-1.5-1.08-2.25Z"/><path class="cls-5" d="M330.58,319.86c-.29,.13-1.05,1.59-2.47,4.74-.9,2.02-1.82,4.02-2.77,6-.59,1.23-.93,1.99-1.38,3q-2.61,6.05-2.61,6.11c.09,.14,.15,.28,.16,.42,.4-.74,.79-1.47,1.18-2.21-.02-.14-.07-.28-.16-.42,.02-.14,.03-.23,.46-1.17,.86-1.86,1.63-3.75,2.51-5.6,.95-1.98,1.88-3.98,2.78-6,.99-2.2,1.18-2.39,1.34-2.56,.03,.03,.05,.06,.08,.18-.13,.52-.46,1.35-1.08,2.78-1.26,2.82-2.57,5.6-3.94,8.35,.02,.04,.04,.09,.06,.13,1.37-2.75,2.68-5.53,3.94-8.35,1.32-3.02,2-4.81,2-5.31-.02-.03-.05-.06-.08-.1Z"/><path class="cls-5" d="M273.52,223.42c-.66-.05-1.33-.09-1.99-.13,0,.84,0,1.68,0,2.52,.67,.04,1.33,.09,1.99,.13,6.2,1.12,6.06,9.16,6.05,9.5-.22,6.66-.64,13.28-1.27,19.85,.57,.04,1.13,.08,1.69,.12,.63-6.57,1.06-13.19,1.28-19.85,.03-1.09,.07-10.67-7.75-12.15Z"/><path class="cls-5" d="M260.38,222.58c0,.84,0,1.68,0,2.52,2.87,.17,5.69,.35,8.47,.53,0-.84,0-1.68,0-2.52-2.77-.18-5.6-.36-8.47-.53Z"/><path class="cls-5" d="M339.21,230.76c-1.14-.26-2.4-.53-3.78-.79-.84-.31-1.37-1.16-2.02-3.26l-.67-2.28-.62-2.02c-1.92-5.87-2-6.1-3.16-6.45-1-.16-2.04-.31-3.12-.47-1.53,.16-2.29,2.07-2.31,5.83,.03,.74,.05,1.49,.07,2.23,.06,1.4,.18,2.28,.51,3.5,.51,1.83,1.15,4.28,1.63,6.11l.54,2.19c.41,1.72,.91,4.03,1.29,5.76l.87-1.27c-.37-1.74-.9-4.05-1.3-5.79l-.54-2.19q-1.9-7.46-1.93-8.16c-.02-.75-.04-1.49-.07-2.23,.01-2.24,.46-3.38,1.38-3.48,1.08,.16,2.13,.31,3.13,.47,.47,.14,.76,.52,1.11,1.46l1.24,3.78,.62,2.02c1.28,4.37,1.81,6.18,3.38,6.76,1.38,.26,2.64,.53,3.78,.79,0-.84,0-1.68,0-2.53Z"/><path class="cls-5" d="M289.92,343.93c5.57-23.99,2.71-24.66,1.33-24.97-2.01-.2-4.08-.4-6.2-.6-.52-.05-1.04-.1-1.57-.14-.64-.06-1.28-.11-1.93-.17-.27,.78-.54,1.55-.81,2.32,.89,.08,1.77,.16,2.65,.24,.52,.05,1.04,.09,1.55,.14,1.86,.17,3.68,.35,5.45,.53,1.06,.25,1.45,1.02,1.39,2.74-.94,10.1-2.15,15.57-3.33,20.87-.17,.76-.35,1.79-.4,2.57-.22,3.24,1.21,3.68,1.9,3.89,.64,.08,1.26,.17,1.87,.25,.41-.71,.82-1.41,1.22-2.12-.61-.08-1.24-.17-1.88-.25-1.56-.48-1.9-1.91-1.23-5.28Z"/><path class="cls-5" d="M277,317.65c-.26,.78-.52,1.55-.79,2.33,1.13,.09,2.26,.19,3.36,.28,.27-.77,.54-1.55,.81-2.33-1.11-.1-2.24-.19-3.38-.29Z"/><path class="cls-1" d="M296.49,106.2c-1.39-.26-2.92-.52-4.59-.78,.45,.66,.89,1.33,1.32,2,1.69,.26,3.23,.52,4.63,.78-.45-.67-.91-1.34-1.36-2.01Z"/><path class="cls-1" d="M51.78,99.39c-1.21,3.49-2.38,7.07-3.49,10.72,.6-.01,1.21-.02,1.81-.03,1.09-3.66,2.23-7.23,3.42-10.72-.58,0-1.16,.02-1.74,.03Z"/><path class="cls-3" d="M42.69,89.62c-.28,.62-.57,1.24-.84,1.86,3.63-.09,7.31-.17,11.05-.24,.25-.62,.49-1.24,.74-1.86-3.7,.07-7.35,.15-10.94,.24Z"/></g><circle class="cls-3" cx="137.27" cy="263.37" r="8.05" transform="translate(-150.66 336.19) rotate(-76.67)"/><circle class="cls-3" cx="195.63" cy="302.16" r="8.05" transform="translate(-156.36 226.83) rotate(-45)"/><circle class="cls-3" cx="199.46" cy="179.87" r="8.05" transform="translate(-68.77 193.72) rotate(-45)"/><circle class="cls-1" cx="129.22" cy="312.68" r="8.05" transform="translate(-200.16 390) rotate(-80.76)"/><path class="cls-1" d="M32.75,90.88c0,3.22-2.61,5.83-5.83,5.83s-5.83-2.61-5.83-5.83,2.61-5.83,5.83-5.83,5.83,2.61,5.83,5.83Z"/><circle class="cls-5" cx="58.46" cy="315" r="8.05" transform="translate(-227.27 170.09) rotate(-52.59)"/><circle class="cls-5" cx="219.26" cy="236.92" r="8.05" transform="translate(-103.3 224.43) rotate(-45)"/><circle class="cls-3" cx="253.44" cy="203.42" r="8.05" transform="translate(-69.61 238.79) rotate(-45)"/><circle class="cls-1" cx="73.65" cy="222.58" r="8.05" transform="translate(-135.81 117.27) rotate(-45)"/><circle class="cls-3" cx="34.97" cy="246.52" r="8.05" transform="translate(-164.07 96.93) rotate(-45)"/><rect class="cls-5" x="148.72" y="41.53" width="17.9" height="1.81"/><g><circle class="cls-3" cx="1618.22" cy="80.88" r="8.05" transform="translate(1166.31 1636.82) rotate(-76.67)"/><circle class="cls-1" cx="1691.49" cy="50.79" r="8.05" transform="translate(459.51 1210.94) rotate(-45)"/><circle class="cls-1" cx="1569.27" cy="80.88" r="8.05" transform="translate(402.44 1133.33) rotate(-45)"/><circle class="cls-1" cx="1713.12" cy="5.96" r="5.83"/><circle class="cls-5" cx="1618.22" cy="144.79" r="5.83"/><rect class="cls-1" x="1617.32" y="32.85" width="1.81" height="26.26"/><rect class="cls-5" x="1712.22" y="16.1" width="1.81" height="22.23"/><rect class="cls-5" x="1545.65" y="-22.15" width="1.81" height="22.23"/><rect class="cls-5" x="1617.32" y="99.94" width="1.81" height="17.9"/><rect class="cls-5" x="1681.56" y="5.06" width="17.9" height="1.81"/><rect class="cls-1" x="1704.38" y="49.88" width="19.01" height="1.81"/><rect class="cls-1" x="1581.07" y="79.97" width="12.39" height="1.81"/><rect class="cls-1" x="1612.03" y="127.49" width="12.39" height="1.81"/><path class="cls-5" d="M1775.01,58.21c-6.64,0-12.65,3.67-15.67,9.59l-7.1,13.9c-2.65,5.18-7.9,8.39-13.71,8.39h-22.33v1.81h22.33c6.5,0,12.37-3.59,15.32-9.38l7.1-13.9c2.71-5.31,8.1-8.6,14.06-8.6h11.15v-1.81h-11.15Z"/><path class="cls-3" d="M1673.73,90.09c-6.75,0-12.24-5.49-12.24-12.24v-13.92c0-6.75,5.49-12.24,12.24-12.24h5.82v-1.81h-5.82c-7.74,0-14.05,6.3-14.05,14.05v13.92c0,7.74,6.3,14.05,14.05,14.05h35.77v-1.81h-35.77Z"/><path class="cls-1" d="M1619.13,24.8h-1.81v-3.68c0-8.86,7.21-16.06,16.06-16.06h38.8v1.81h-38.8c-7.86,0-14.25,6.39-14.25,14.25v3.68Z"/></g><g><circle class="cls-5" cx="1027.69" cy="154.32" r="5.83"/><circle class="cls-3" cx="787.17" cy="264.6" r="5.83"/><circle class="cls-3" cx="929.25" cy="194.57" r="5.83"/><circle class="cls-3" cx="972.21" cy="211.98" r="5.83"/><circle class="cls-3" cx="923.42" cy="264.6" r="5.83"/><circle class="cls-1" cx="1000.23" cy="326.42" r="8.05" transform="translate(62.15 802.88) rotate(-45)"/><circle class="cls-1" cx="975.08" cy="264.6" r="5.83"/><circle class="cls-1" cx="1021.86" cy="281.6" r="5.83"/><circle class="cls-1" cx="1018.08" cy="209.96" r="8.05" transform="translate(578.98 1152.17) rotate(-76.67)"/><circle class="cls-1" cx="929.25" cy="133.78" r="8.05" transform="translate(647.95 1029.47) rotate(-80.76)"/><circle class="cls-1" cx="880.17" cy="218.64" r="8.05" transform="translate(90.72 665.03) rotate(-43.44)"/><rect class="cls-1" x="926.05" y="308.48" width="1.81" height="26.26"/><rect class="cls-3" x="1001.43" y="248.09" width="1.81" height="22.27"/><rect class="cls-1" x="801.93" y="263.69" width="46.2" height="1.81"/><rect class="cls-5" x="1020.95" y="291.73" width="1.81" height="22.23"/><rect class="cls-5" x="854.39" y="253.49" width="1.81" height="22.23"/><rect class="cls-5" x="990.29" y="280.69" width="17.9" height="1.81"/><rect class="cls-3" x="928.34" y="151.38" width="1.81" height="17.9"/><rect class="cls-1" x="993.46" y="240.07" width="17.75" height="1.81"/><rect class="cls-5" x="943.2" y="263.69" width="17.9" height="1.81"/><rect class="cls-3" x="863.17" y="263.69" width="41.11" height="1.81"/><rect class="cls-1" x="1013.12" y="325.52" width="19.01" height="1.81"/><rect class="cls-1" x="1017.18" y="233.15" width="1.81" height="12.39"/><path class="cls-5" d="M1083.75,333.84c-6.64,0-12.65,3.67-15.67,9.59l-7.1,13.9c-2.65,5.18-7.9,8.39-13.71,8.39h-22.33v1.81h22.33c6.5,0,12.37-3.59,15.32-9.38l7.1-13.9c2.71-5.31,8.1-8.6,14.06-8.6h11.15v-1.81h-11.15Z"/><path class="cls-3" d="M982.46,365.72c-6.75,0-12.24-5.49-12.24-12.24v-13.92c0-6.75,5.49-12.24,12.24-12.24h5.82v-1.81h-5.82c-7.74,0-14.05,6.3-14.05,14.05v13.92c0,7.74,6.3,14.05,14.05,14.05h35.77v-1.81h-35.77Z"/><path class="cls-5" d="M987.3,241.88h-3.04c-7.14,0-12.95-5.81-12.95-12.95v-8.01h1.81v8.01c0,6.14,5,11.14,11.14,11.14h3.04v1.81Z"/><rect class="cls-5" x="904.29" y="166.48" width="17.7" height="1.81"/><path class="cls-3" d="M1064.69,166h-1.81v-1.81c0-4.94-4.02-8.97-8.97-8.97h-14.2v-1.81h14.2c5.94,0,10.78,4.83,10.78,10.78v1.81Z"/><path class="cls-1" d="M927.86,300.43h-1.81v-3.68c0-8.86,7.21-16.06,16.06-16.06h38.8v1.81h-38.8c-7.86,0-14.25,6.39-14.25,14.25v3.68Z"/></g><g><circle class="cls-1" cx="1742.59" cy="232.75" r="8.05"/><path class="cls-1" d="M1905.75,121.75c0,3.22-2.61,5.83-5.83,5.83s-5.83-2.61-5.83-5.83,2.61-5.83,5.83-5.83,5.83,2.61,5.83,5.83Z"/><circle class="cls-1" cx="1782.12" cy="85.68" r="5.83"/><circle class="cls-5" cx="1782.69" cy="156.7" r="5.83"/><path class="cls-1" d="M1667.88,246.22c0,4.44-3.6,8.05-8.05,8.05s-8.05-3.6-8.05-8.05,3.6-8.05,8.05-8.05,8.05,3.6,8.05,8.05Z"/><circle class="cls-1" cx="1899.92" cy="215.6" r="8.05"/><circle class="cls-5" cx="1831.57" cy="85.68" r="8.05"/><circle class="cls-5" cx="1899.92" cy="180" r="8.05" transform="translate(429.19 1396.17) rotate(-45)"/><rect class="cls-1" x="1740.66" y="169.33" width="1.81" height="24.22"/><rect class="cls-5" x="1781.78" y="106.16" width="1.81" height="22.23"/><rect class="cls-5" x="1899.01" y="133.29" width="1.81" height="17.9"/><rect class="cls-5" x="1748.88" y="155.8" width="17.9" height="1.81"/><circle class="cls-3" cx="1783.83" cy="271.26" r="8.05" transform="translate(330.66 1340.81) rotate(-45)"/><rect class="cls-5" x="1797.12" y="84.77" width="17.9" height="1.81"/><circle class="cls-3" cx="1659.05" cy="215.64" r="5.83"/><circle class="cls-3" cx="1828.35" cy="271.26" r="5.83"/><circle class="cls-3" cx="1850.16" cy="215.6" r="5.83"/><rect class="cls-1" x="1673.81" y="214.74" width="84.01" height="1.81"/><rect class="cls-5" x="1861.09" y="214.69" width="17.9" height="1.81"/><rect class="cls-1" x="1740.66" y="147.9" width="1.81" height="12.39"/><path class="cls-3" d="M1769.68,216.55h-1.64v-1.81h1.64c7.13,0,12.93-5.8,12.93-12.93v-13.54h1.81v13.54c0,8.13-6.61,14.74-14.74,14.74Z"/><path class="cls-5" d="M1714.27,203.71h-1.81v-31.27c0-9.17,7.46-16.63,16.63-16.63h5.14v1.81h-5.14c-8.17,0-14.82,6.65-14.82,14.82v31.27Z"/><path class="cls-3" d="M1698.72,247.13h-24.91v-1.81h24.91c7.58,0,13.74-6.17,13.74-13.74v-6.22h1.81v6.22c0,8.58-6.98,15.55-15.55,15.55Z"/><rect class="cls-3" x="1803.6" y="180.54" width="70.49" height="1.81"/></g><g><circle class="cls-1" cx="1185.18" cy="57.49" r="8.05"/><path class="cls-1" d="M1110.47,70.96c0,4.44-3.6,8.05-8.05,8.05s-8.05-3.6-8.05-8.05,3.6-8.05,8.05-8.05,8.05,3.6,8.05,8.05Z"/><circle class="cls-1" cx="1342.51" cy="40.33" r="8.05"/><circle class="cls-5" cx="1342.51" cy="4.74" r="8.05" transform="translate(389.86 950.69) rotate(-45)"/><rect class="cls-1" x="1183.25" y="-5.93" width="1.81" height="24.22"/><circle class="cls-3" cx="1226.42" cy="96" r="8.05" transform="translate(291.33 895.33) rotate(-45)"/><circle class="cls-3" cx="1101.64" cy="40.38" r="5.83"/><circle class="cls-3" cx="1270.94" cy="96" r="5.83"/><circle class="cls-3" cx="1292.75" cy="40.33" r="5.83"/><rect class="cls-1" x="1116.4" y="39.48" width="84.01" height="1.81"/><rect class="cls-5" x="1303.68" y="39.43" width="17.9" height="1.81"/><path class="cls-3" d="M1212.27,41.29h-1.64v-1.81h1.64c7.13,0,12.93-5.8,12.93-12.93V13h1.81v13.54c0,8.13-6.61,14.74-14.74,14.74Z"/><path class="cls-5" d="M1156.86,28.44h-1.81V-2.83c0-9.17,7.46-16.63,16.63-16.63h5.14v1.81h-5.14c-8.17,0-14.82,6.65-14.82,14.82V28.44Z"/><path class="cls-3" d="M1141.31,71.87h-24.91v-1.81h24.91c7.58,0,13.74-6.17,13.74-13.74v-6.22h1.81v6.22c0,8.58-6.98,15.55-15.55,15.55Z"/><rect class="cls-3" x="1246.19" y="5.27" width="70.49" height="1.81"/></g><g><circle class="cls-1" cx="500.63" cy="58.63" r="8.05"/><circle class="cls-1" cx="599.32" cy="76.57" r="8.05"/><circle class="cls-5" cx="599.32" cy="40.97" r="8.05" transform="translate(146.57 435.79) rotate(-45)"/><rect class="cls-1" x="500.75" y="-4.79" width="1.81" height="24.22"/><rect class="cls-5" x="598.42" y="-5.74" width="1.81" height="17.9"/><circle class="cls-3" cx="633.61" cy="13.63" r="8.05" transform="translate(175.94 452.02) rotate(-45)"/><circle class="cls-3" cx="584.17" cy="41.52" r="5.83"/><circle class="cls-3" cx="670.89" cy="132.23" r="5.83"/><circle class="cls-3" cx="649.08" cy="76.57" r="5.83"/><rect class="cls-1" x="485.39" y="40.61" width="84.01" height="1.81"/><rect class="cls-5" x="620.25" y="75.66" width="17.9" height="1.81"/><path class="cls-3" d="M473.53,42.42h1.64s0-1.81,0-1.81h-1.64c-7.13,0-12.93-5.8-12.93-12.93V14.14s-1.81,0-1.81,0v13.54c0,8.13,6.61,14.74,14.74,14.74Z"/><path class="cls-5" d="M528.94,29.58h1.81s0-31.27,0-31.27c0-9.17-7.46-16.63-16.63-16.63h-5.14s0,1.81,0,1.81h5.14c8.17,0,14.82,6.65,14.82,14.82V29.58Z"/><path class="cls-3" d="M544.5,73h24.91s0-1.81,0-1.81h-24.91c-7.58,0-13.74-6.17-13.74-13.74v-6.22s-1.81,0-1.81,0v6.22c0,8.58,6.98,15.55,15.55,15.55Z"/><rect class="cls-3" x="625.15" y="41.51" width="70.49" height="1.81"/></g></g></g></svg>