<?xml version="1.0" encoding="UTF-8"?><svg id="Layer_1" xmlns="http://www.w3.org/2000/svg" xmlns:xlink="http://www.w3.org/1999/xlink" viewBox="0 0 427.71 246.6"><defs><style>.cls-1{filter:url(#drop-shadow-14);}.cls-2{fill:#0072c8;}.cls-3{fill:#f2bd98;}.cls-4{fill:#002760;}.cls-5{fill:#edebfc;}.cls-6{fill:#003d87;}.cls-7{fill:#f4f6f9;}</style><filter id="drop-shadow-14" filterUnits="userSpaceOnUse"><feOffset dx="3" dy="3"/><feGaussianBlur result="blur" stdDeviation="4.5"/><feFlood flood-color="#558699" flood-opacity=".3"/><feComposite in2="blur" operator="in"/><feComposite in="SourceGraphic"/></filter></defs><g class="cls-1"><rect class="cls-7" x="74.3" y="73.33" width="332.66" height="151.73" rx="30.15" ry="30.15"/><circle class="cls-7" cx="72.54" cy="73.33" r="51.79"/><g><path class="cls-6" d="M46.45,96.73s0,0,0,0c2.88-1.49,5.73-2.79,8.32-3.96h0s-.16-24.28,2.43-33.57c2.84-10.21,11.81-8.3,11.81-8.3,0,0-1.9-1.76-1.62-4.86,.28-3.1,3.01-4.61,6.27-4.61,3.07,0,6.24,1.8,6.49,4.9,.25,3.1-2.51,4.83-2.51,4.83-.06,.02,7.73-2.95,10.76,7.56,2.47,8.58,3.84,22.55,3.36,35.85,1.97,1.01,3.78,2.01,5.43,2.99h0s0,0,0,0c.71,.42,1.39,.84,2.04,1.25,6.32-6.62,10.2-15.59,10.2-25.47,0-20.38-16.52-36.9-36.9-36.9s-36.9,16.52-36.9,36.9c0,9.3,3.45,17.8,9.13,24.29,.54-.29,1.08-.58,1.62-.86l.06-.03Z"/><path class="cls-2" d="M99.23,98.8s0,0,0,0c-.66-.42-1.33-.83-2.04-1.25l2.04,1.26Z"/><path class="cls-5" d="M54.76,92.77c-2.58,1.17-5.44,2.47-8.32,3.96-.03,.02-.63,.57-1.21,1.41,1.93,2.13,4.11,4.02,6.49,5.65,1.03-.21,2.1-.47,3.17-.73l-.14-10.29Z"/><path class="cls-5" d="M86.93,104.74c-2.74,.85-3.75,2.81-5.5,4.4,3.72-.92,7.21-2.4,10.39-4.35-1.44-.42-2.89-.67-4.89-.05Z"/><path class="cls-2" d="M71.41,83.96s0,.03,0,.04c.24,.01,2.38,.1,4.43-.34-.9,.19-2.53,.44-4.43,.3Z"/><path class="cls-5" d="M97.18,97.54c-1.66-.98-3.47-1.98-5.43-2.99-2.2-1.12-4.59-2.26-7.21-3.41,.49,3.33-4.68,.04-6.89,1.13-1.52,.75-1.8,2.44-2.91,3.36-.46,.38-1.05,.63-1.93,.62-.72,0-1.27-.21-1.72-.52-.11,3.59-.24,7.39-.38,11.04,1.16,.62,2.4,1,3.78,.85,4.94-.51,6.31-5.8,11.08-6.65,3.84-.68,7.25,1.39,9.67,1.43,.95-.74,1.87-1.53,2.74-2.37,.05-1.28-.79-2.51-.79-2.51Z"/><path class="cls-3" d="M80.16,65.96c0-4.76-1.97-8.69-6.86-8.69-5.42,0-7.5,4.5-7.5,8.9,0,3.73,2.85,9.8,5.75,11.54,0,0,0,0,0,0h0s-.05,2.45-.14,6.24c1.9,.14,3.53-.11,4.43-.3,.07-.02,.14-.03,.22-.05,.07-.02,.13-.03,.2-.05,.11-.03,.22-.06,.33-.09-1.48-2.92-1.82-5.48-1.86-5.82,2.81-1.79,5.44-7.63,5.44-11.7Z"/><path class="cls-2" d="M81.3,89.23c.94,.72,2.02,1.37,3.25,1.91-.49-3.33-7.96-7.66-7.96-7.66,.99,1.95,2.47,4.05,4.71,5.75Z"/><path class="cls-2" d="M71.09,95.74c.45,.31,1,.52,1.72,.52,.88,0,1.48-.25,1.93-.62l-3.63-.52c0,.21-.01,.42-.02,.63Z"/><path class="cls-2" d="M77.66,92.28c2.21-1.09,7.38,2.2,6.89-1.13-1.23-.54-2.3-1.19-3.25-1.91-2.24-1.71-3.73-3.81-4.71-5.75,0,0-.12,.04-.33,.09-.07,.02-.13,.03-.2,.05-.07,.02-.14,.03-.22,.05-2.05,.44-4.19,.35-4.43,.34-.07,3.03-.17,6.92-.3,11.12l3.63,.52c1.11-.92,1.39-2.61,2.91-3.36Z"/><path class="cls-2" d="M76.59,83.48c-.11,.03-.22,.06-.33,.09,.21-.05,.33-.09,.33-.09Z"/><path class="cls-2" d="M46.39,96.76s.04-.02,.05-.03c0,0,0,0,0,0l-.06,.03Z"/><polygon class="cls-2" points="97.18 97.54 97.18 97.54 97.19 97.54 97.18 97.54"/><path class="cls-2" d="M51.73,103.8c1.03,.71,2.1,1.36,3.2,1.96l-.04-2.69c-1.06,.26-2.14,.52-3.17,.73Z"/><path class="cls-2" d="M46.45,96.73s-.04,.02-.05,.03c-.54,.28-1.08,.57-1.62,.86,.15,.18,.31,.35,.47,.53,.57-.84,1.18-1.39,1.21-1.41Z"/><path class="cls-2" d="M97.18,97.54s.84,1.23,.79,2.51c.43-.41,.84-.82,1.25-1.25l-2.04-1.26s0,0,0,0Z"/><path class="cls-2" d="M86.93,104.74c2-.62,3.45-.38,4.89,.05,1.19-.73,2.33-1.52,3.42-2.37-2.43-.03-5.83-2.11-9.67-1.43-4.77,.85-6.14,6.14-11.08,6.65-1.38,.14-2.61-.23-3.78-.85-.05,1.15-.09,2.28-.14,3.38,.65,.03,1.31,.05,1.97,.05,3.07,0,6.05-.38,8.89-1.08,1.75-1.59,2.76-3.55,5.5-4.4Z"/><polygon class="cls-4" points="54.76 92.77 54.76 92.77 54.76 92.77 54.76 92.77"/><path class="cls-4" d="M70.32,95c.22,.28,.47,.53,.77,.74,0-.21,.01-.42,.02-.63l-.79-.11Z"/><path class="cls-4" d="M88.39,58.7c-3.02-10.51-10.81-7.54-10.76-7.56,0,0,2.77-1.73,2.51-4.83-.25-3.09-3.42-4.9-6.49-4.9-3.27,0-5.99,1.51-6.27,4.61-.28,3.1,1.62,4.86,1.62,4.86,0,0-8.97-1.91-11.81,8.3-2.59,9.3-2.43,33.57-2.43,33.57h0s0,0,0,0l.14,10.29,.04,2.69c.29,.16,.58,.31,.87,.46,4.07,2.07,8.58,3.41,13.34,3.85,.47,.04,.94,.08,1.42,.1,.05-1.11,.1-2.24,.14-3.38,.15-3.66,.27-7.45,.38-11.04-.3-.21-.55-.46-.77-.74l.79,.11c.13-4.19,.23-8.08,.3-11.12,0-.01,0-.03,0-.04,.09-3.8,.14-6.24,.14-6.24h0s0,0,0,0c-2.9-1.74-5.75-7.8-5.75-11.54,0-4.4,2.08-8.9,7.5-8.9,4.89,0,6.86,3.93,6.86,8.69,0,4.07-2.62,9.91-5.44,11.7,.04,.35,.39,2.91,1.86,5.82,0,0,7.47,4.33,7.96,7.66,2.62,1.15,5.01,2.28,7.21,3.41,.47-13.3-.9-27.26-3.36-35.85Z"/></g></g></svg>