<?xml version="1.0" encoding="UTF-8"?><svg id="Layer_1" xmlns="http://www.w3.org/2000/svg" viewBox="0 0 250 250"><defs><style>.cls-1{fill:#f6ae2d;}.cls-2{fill:#f4f6f9;}</style></defs><path class="cls-2" d="M206.63,162.26c-2.94,0-5.81,0-8.69,0-5.95,0-11.91,0-17.86,0-2.75,0-4.19-1.04-4.22-3-.03-1.95,1.5-3.1,4.15-3.1,6.48,0,12.96,0,19.43,0,.7,0,1.4,0,2.52,0-.58-.78-.87-1.25-1.24-1.66-2.18-2.44-4.46-4.8-6.52-7.33-1.23-1.51-2.56-2.15-4.52-2.07-3.4,.15-6.8,.06-10.21,.03-2.24-.02-3.61-1.19-3.63-2.98-.02-1.79,1.38-3.01,3.58-3.04,3.21-.04,6.41-.05,9.62-.01,1.16,.01,1.6-.39,1.6-1.6-.03-18.78-.03-37.56,0-56.34,0-1.3-.43-1.81-1.7-1.67-.32,.03-.65,0-.98,0-41.94,0-83.88,0-125.82,0q-2.76,0-2.77,2.74c0,17.99,0,35.99,0,53.98,0,.84,0,1.69,0,2.87,2.3,0,4.44,0,6.57,0,1.64,0,3.27-.03,4.91,.02,1.91,.06,3.25,1.3,3.28,2.95,.04,1.74-1.3,3.03-3.35,3.06-3.73,.05-7.46,.06-11.19,0-1.35-.02-2.33,.35-3.23,1.41-2.29,2.69-4.7,5.27-7.06,7.9-.37,.42-.68,.88-1.33,1.72,1.13,0,1.81,0,2.49,0,6.67,0,13.35-.01,20.02,0,2.13,0,3.45,1.09,3.6,2.83,.17,1.93-1.22,3.25-3.54,3.26-7.46,.02-14.92,0-22.38,0-.92,0-1.85-.1-2.74,.03-.8,.12-2.11,.32-2.25,.77-.42,1.37-.01,2.81,1.4,3.51,.78,.38,1.76,.48,2.65,.48,7.72,.04,15.44-.04,23.16,.09,1.11,.02,2.61,.72,3.24,1.59,1.33,1.85-.2,4.38-2.64,4.4-8.5,.08-17.02,.19-25.51-.06-4.97-.14-8.36-4.08-8.5-9.07-.03-1.11-.22-2.28,.04-3.32,.31-1.26,.77-2.64,1.61-3.59,4.57-5.21,9.31-10.27,13.9-15.47,.52-.59,.68-1.67,.68-2.52,.04-22.57,.03-45.15,.03-67.72,0-10.09,6.47-16.58,16.55-16.58,36.84,0,73.67,0,110.51,0,9.9,0,16.43,6.59,16.43,16.54,0,22.64-.02,45.28,.04,67.92,0,.99,.48,2.19,1.14,2.93,4.56,5.13,9.23,10.16,13.85,15.25,.39,.43,.83,.94,.93,1.47,1.24,6.85-.45,14.2-9.74,14.27-7.72,.06-15.44,.07-23.16-.05-1.15-.02-2.54-.66-3.35-1.48-.52-.53-.61-2.21-.15-2.82,.63-.85,1.94-1.64,2.98-1.67,5.36-.16,10.73-.08,16.09-.08,2.55,0,5.1,.02,7.66,0,3.08-.03,4.21-1.45,3.58-4.81Zm-16.21-88.87c1.02-7.4-2.87-12.45-9.46-12.45-37.28-.02-74.56-.02-111.84,0-5.78,0-9.67,3.98-9.73,9.78q-.03,2.67,2.64,2.67c41.92,0,83.85,0,125.77,0,.84,0,1.68,0,2.62,0Z"/><g><path class="cls-1" d="M78.5,179.35c.03-.6,.08-1.24,.09-1.89,0-15.37-.02-30.75,.01-46.12,0-1.32-.31-2.27-1.33-3.24-4.34-4.17-3.92-13.14,1.21-16.21,5.4-3.24,11.28-5.69,17.04-8.31,1.24-.57,2.82-.52,4.25-.53,16.88-.03,33.76-.13,50.63,.08,2.95,.04,6.03,1.11,8.8,2.31,4.24,1.83,8.45,3.88,12.32,6.4,4.97,3.24,5.36,12.2,1.18,16.45-.68,.69-1.2,1.88-1.21,2.84-.08,15.5-.04,31.01-.09,46.51,0,1.43,.45,2.02,1.86,2.37,3.13,.77,5.05,3.36,5.14,6.59,.04,1.7,.04,3.4,0,5.1-.05,2.34-1.15,3.41-3.52,3.49-.52,.02-1.05,0-1.57,0-32.38,0-64.76,0-97.15,0-3.67,0-4.53-.85-4.53-4.46,0-.46,0-.92,0-1.37,0-6.61,.76-7.73,6.89-10.01Zm36.84,.33c1.06,0,1.83,0,2.6,0,.85,0,1.71-.07,2.55,.02,1.72,.18,2.75,1.16,2.88,2.91,.12,1.54-1.02,2.85-2.68,3.11-.64,.1-1.3,.06-1.96,.06-12.95,0-25.91,.02-38.86-.02-1.58,0-2.31,.43-2.17,2.12,.15,1.79,1.48,1.16,2.36,1.17,29.96,.03,59.93,.03,89.89,.02,.7,0,1.4-.06,2.05-.09,.56-2.95,.39-3.18-2.28-3.19-2.29-.01-4.58,.05-6.87-.03-1.87-.07-3.2-1.44-3.15-3.08,.05-1.64,1.4-2.9,3.26-2.99,.7-.03,1.4,0,2.25,0,.06-.94,.13-1.64,.13-2.35,0-13.93-.04-27.87,.04-41.8,.02-2.83,.15-5.32-3.47-6.14-1.06-.24-1.74-.55-2.79,.06-3.07,1.79-6.2,1.68-9.33-.07-.57-.32-1.63-.34-2.2-.02-3.27,1.82-6.43,1.81-9.7-.03-.56-.32-1.62-.26-2.21,.06-3.28,1.8-6.45,1.76-9.69-.1-.52-.3-1.5-.29-2.02,0-3.25,1.85-6.47,1.99-9.66,.01-.95-.59-1.56-.48-2.46,.06-3.06,1.84-6.23,1.88-9.28,0-1.02-.63-1.67-.55-2.62,.04-2.29,1.4-4.97,2.03-7.3,.77-2.42-1.31-4.32-1.06-6.6,.08-1.08,.54-1.46,1.01-1.46,2.13,.02,15.18,.03,30.36,0,45.53,0,1.39,.5,1.79,1.84,1.78,1.71,0,1.44-1.12,1.44-2.14,0-12.17,0-24.34,.03-36.51,.01-4.25,2.48-6.67,6.74-6.71,4.45-.04,8.9-.01,13.35,0,5.06,0,7.33,2.23,7.33,7.28,.02,11.58,0,23.16,.01,34.74,0,1.03,0,2.06,0,3.32Zm-6.07-.03c0-2.8,.03-5.39-.01-7.99-.02-1.35,.18-2.92-.44-3.97-.34-.57-2.17-.25-3.32-.36-1.71-.17-2.8-1.31-2.83-2.93-.03-1.61,1.02-2.88,2.67-3.11,.71-.1,1.44-.12,2.15-.04,1.38,.14,1.82-.44,1.81-1.79-.05-5.76-.06-11.52,0-17.27,.01-1.37-.45-1.83-1.81-1.81-3.73,.07-7.46,.1-11.19-.01-1.77-.05-2.36,.45-2.35,2.3,.08,11.58,.04,23.16,.04,34.74,0,.39-.12,.86,.05,1.16,.24,.43,.69,1.03,1.06,1.04,4.63,.07,9.25,.05,14.18,.05Zm15.82-62s0-.02,0-.03c-5.93,0-11.86,0-17.79,0-7.89,0-15.77,0-23.66,.04-3.11,.02-3.11,.08-3,3.52,.06,2.04,1.05,3.37,2.77,3.42,1.65,.05,2.59-.89,2.96-2.53,.38-1.7,1.51-2.84,3.28-2.85,1.78-.01,2.62,1.25,2.93,2.89,.31,1.7,1.45,2.56,3.03,2.48,1.51-.08,2.4-1.12,2.66-2.68,.28-1.69,1.27-2.73,3.07-2.68,1.63,.04,2.66,.96,3,2.54,.35,1.63,1.13,2.86,2.93,2.86,1.85,0,2.55-1.33,2.87-2.92,.33-1.69,1.51-2.5,3.06-2.5,1.57,0,2.68,.94,3,2.57,.32,1.63,1.04,2.87,2.91,2.81,1.8-.05,2.53-1.22,2.91-2.87,.52-2.32,2.8-3.32,4.65-1.98,.69,.5,.99,1.59,1.35,2.46,.53,1.3,1.27,2.33,2.79,2.38,1.5,.05,2.57-.76,2.89-2.16,.43-1.85,1.2-3.23,3.28-3.23,2.09,0,2.63,1.61,3.04,3.26,.02,.06,.04,.12,.06,.19,.47,1.35,1.47,2.05,2.84,1.93,1.4-.12,2.49-.8,2.67-2.39,.21-1.83,1.31-2.9,3.06-2.96,1.8-.06,2.76,1.12,3.19,2.85,.49,1.99,1.65,2.76,3.32,2.46,1.58-.28,2.04-1.41,2.34-2.77,.36-1.58,1.4-2.56,3.02-2.57,1.61,0,2.67,.91,3.05,2.52,.08,.32,.04,.77,.24,.93,.84,.7,1.75,1.81,2.64,1.81,.89,0,2.06-.96,2.59-1.82,.49-.8,.34-2.02,.4-3.05,.09-1.47-.55-2.06-2.12-2.01-3.38,.12-6.77,.06-10.15,.06-10.69,0-21.38,0-32.07,0Zm-31.9-6.15h63.6c-2.31-1.79-4.86-2.57-7.63-2.57-3.17,0-6.34,.13-9.5,.13-13.01,.02-26.02,.03-39.03-.01-2.74,0-5.21,.66-7.44,2.45Z"/><path class="cls-1" d="M140.31,167.37c-5.03,0-10.07,.02-15.1,0-4.2-.02-6.72-2.54-6.73-6.72-.02-6.47-.02-12.95,0-19.42,.01-4.35,2.46-6.85,6.78-6.86,10-.03,20.01-.02,30.01,0,4.39,.01,6.77,2.4,6.8,6.81,.04,6.6,.05,13.21,.03,19.81-.01,3.63-2.66,6.33-6.3,6.37-5.16,.06-10.33,.01-15.5,.02Zm-.06-6.12c4.58,0,9.16-.05,13.74,.03,1.5,.03,2.08-.37,2.05-1.95-.08-5.69-.06-11.38,0-17.08,.01-1.31-.35-1.87-1.77-1.86-9.29,.05-18.58,.04-27.87,0-1.31,0-1.86,.37-1.84,1.79,.07,5.76,.08,11.52,0,17.27-.02,1.55,.58,1.85,1.96,1.82,4.58-.07,9.16-.03,13.74-.02Z"/></g><path class="cls-2" d="M124.99,64.27c2.07,.02,3.52,1.32,3.49,3.12-.03,1.8-1.51,3.04-3.57,3-2.02-.04-3.34-1.21-3.37-2.98-.03-1.83,1.42-3.16,3.45-3.14Z"/></svg>