<?xml version="1.0" encoding="UTF-8"?><svg id="Layer_1" xmlns="http://www.w3.org/2000/svg" viewBox="0 0 143.74 143.74"><defs><style>.cls-1{fill:#fff;}.cls-2{fill:#0072c8;}.cls-3{fill:#f2bd98;}.cls-4{fill:#002760;}.cls-5{fill:#f6ae2d;}</style></defs><path class="cls-1" d="M109.13,81.23h0c4.57-6.99,7.23-15.34,7.23-24.32,0-24.57-19.92-44.49-44.49-44.49S27.39,32.34,27.39,56.91c0,8.7,2.5,16.81,6.81,23.66h0l.02,.02c1.17,1.86,2.48,3.96,3.91,5.63l33.54,45.09,34.12-44.8c1.19-1.41,2.3-3.71,3.32-5.25l.02-.03Z"/><g><path class="cls-5" d="M57.33,73c.65-.32,1.26-.66,1.84-1,8.29-4.9,9.79-11.44,9.92-12.08-1.66-1.02-3.29-3.38-4.43-5.95-3.24-1.41-5.8-4.73-4.47-5.71,.93-.68,2.08-.07,2.69,.37-1.09-.94-3.78-3.76-3.05-8.18,1.13-6.89,9.38-4.85,12.97-6.99,3.59-2.14,6.21-7.77,12.62-7.57,6.41,.19,7.66,6.24,7.18,8.64-1.36,6.89-6.7,5.46-9.9,8.47-1.88,1.77-1.83,3.52-4.56,5.91,.38-.33,1.89-1.49,3.04-.64,1.33,.98-1.24,4.31-4.49,5.72h0c-1.09,2.61-2.67,4.94-4.3,5.94,.09,.72,1.08,7.66,6.86,12.07,.32,.24,.65,.48,1,.7,.73,.47,1.52,.91,2.39,1.29,.84,.37,1.66,.73,2.45,1.1,5.49,2.52,9.98,5,13.64,7.37,6.22-6.6,10.03-15.5,10.03-25.29,0-20.38-16.52-36.9-36.9-36.9s-36.9,16.52-36.9,36.9c0,8.56,2.91,16.43,7.8,22.69,4.08-2.11,8.11-3.86,11.46-5.4,1.11-.51,2.15-1,3.09-1.47Z"/><path class="cls-4" d="M63.13,48.83s.04,.03,.06,.05c0-.03,0-.06,0-.09-.03,.03-.05,.04-.05,.04Z"/><polygon class="cls-4" points="75.08 39.85 75.08 39.85 75.08 39.85 75.08 39.85"/><polygon class="cls-4" points="78.04 48.99 78.04 48.99 78.04 48.99 78.04 48.99"/><polygon class="cls-3" points="78.04 48.99 78.04 48.99 78.04 48.99 78.04 48.99"/><path class="cls-3" d="M78.14,48.91c-.06,.05-.09,.08-.09,.08,.03-.03,.06-.05,.09-.08Z"/><path class="cls-3" d="M78.04,48.99c-.27,.11-.5,.26-.69,.43,.27-.12,.5-.26,.69-.43,0,0,0,0,0,0Z"/><path class="cls-3" d="M63.18,48.87s-.04-.03-.06-.05c-.07-.05-.15-.12-.25-.19,.13,.11,.23,.19,.31,.25,0,0,0-.01,0-.02Z"/><path class="cls-3" d="M63.19,48.89c.09,.07,.14,.1,.14,.1,0,0-.05-.05-.14-.12,0,0,0,.01,0,.02Z"/><path class="cls-4" d="M75.86,52.41s-1.36,.54-2.24,.36c-.66-.13-1.76-1.15-3-1.1-1.6,.06-2.21,.86-3,1.07-1.19,.31-2.16-.21-2.16-.21,1.13,3.39,5.16,1.82,5.16,1.82,3.88,1.42,5.24-1.94,5.24-1.94Z"/><path class="cls-4" d="M85.42,25.89c-6.41-.19-9.03,5.44-12.62,7.57-3.59,2.14-11.84,.1-12.97,6.99-.72,4.42,1.96,7.24,3.05,8.18,.1,.07,.18,.13,.25,.19,0,0,.03,.07,.06,.05,.28-.26,1.71-1.88,1.89-5.77,0,0,6.8-.28,10.01-3.25,0,0,0,0,0,0,0,0,0,0,0,0,0,.06,.79,5.63,2.96,9.13,0,0,0,0,0,0,0,0,.03-.03,.09-.08,2.73-2.39,2.68-4.14,4.56-5.91,3.2-3.01,8.54-1.58,9.9-8.47,.47-2.4-.78-8.45-7.18-8.64Z"/><path class="cls-2" d="M98.74,82.47c-3.67-2.37-8.15-4.85-13.64-7.37l-14.29,18.13-16.56-18.75c-3.35,1.54-7.38,3.29-11.46,5.4,6.75,8.65,17.27,14.21,29.1,14.21,10.59,0,20.14-4.46,26.87-11.61Z"/><path class="cls-4" d="M80.25,72.7l-9.62,12.35-11.46-13.05c-.58,.34-1.19,.68-1.84,1-.94,.47-1.98,.96-3.09,1.47l16.56,18.75,14.29-18.13c-.8-.37-1.61-.73-2.45-1.1-.87-.38-1.66-.82-2.39-1.29Z"/><path class="cls-3" d="M72.39,59.93c1.64-1.01,3.22-3.34,4.3-5.94h0c3.25-1.4,5.83-4.74,4.49-5.72-1.16-.85-2.66,.31-3.04,.64-.03,.03-.06,.05-.09,.08,0,0,0,0,0,0l-.03-.05s.03,.05,.03,.05c0,0,0,0,0,0-2.17-3.51-2.95-9.07-2.96-9.13,0,0,0,0,0,0-3.2,2.97-10.01,3.25-10.01,3.25-.18,3.89-1.62,5.51-1.89,5.77,0,.03,0-.03,0,0,.09,.07,0,.02,0,.02,0,0,.09,.07,0,0-.08-.06-.18-.14-.31-.25-.62-.44-1.77-1.05-2.69-.37-1.33,.98,1.23,4.3,4.47,5.71,1.14,2.56,2.77,4.92,4.43,5.95-.13,.64-1.63,7.18-9.92,12.08l11.46,13.05,9.62-12.35c-.35-.23-.68-.46-1-.7-5.79-4.41-6.78-11.35-6.86-12.07Zm-6.93-7.4s.97,.52,2.16,.21c.79-.21,1.4-1.01,3-1.07,1.24-.05,2.34,.97,3,1.1,.88,.18,2.24-.36,2.24-.36,0,0-1.36,3.36-5.24,1.94,0,0-4.03,1.58-5.16-1.82Z"/></g></svg>