<?xml version="1.0" encoding="UTF-8"?><svg id="Layer_1" xmlns="http://www.w3.org/2000/svg" viewBox="0 0 143.74 143.74"><defs><style>.cls-1{fill:#003d87;opacity:.8;}.cls-2{stroke:#fff;}.cls-2,.cls-3{fill:none;stroke-linecap:round;stroke-linejoin:round;stroke-width:4.5px;}.cls-3{stroke:#f6ae2d;}</style></defs><circle class="cls-1" cx="71.87" cy="71.87" r="71.87" transform="translate(-24.55 104.01) rotate(-63.43)"/><g><path class="cls-3" d="M93.42,66.41c-5.55,0-11.01,2.44-14.92,6.65-3.82,4.11-6.18,9.79-6.18,16.06,0,12.36,13.72,23.75,21.5,32,8.09-8.59,20.71-18.84,20.71-32,0-6.27-2.36-11.95-6.18-16.06-3.91-4.21-9.39-6.65-14.92-6.65Z"/><path class="cls-3" d="M93.42,77.9c-5.58,0-10.1,4.52-10.1,10.09s4.52,10.1,10.1,10.1,10.1-4.52,10.1-10.1-4.52-10.09-10.1-10.09Z"/></g><g><path class="cls-2" d="M66.38,97.07c.06,2.78,.24,5.43,.41,7.89,.29,4.27-.78,4.09-4.54,1.03-3.25-2.65-4.96-7.6-6.36-11.67-1.35-3.92-2.47-7.17-4.93-8.33-5.6-2.64-9.64-3.51-12.58-4.15-7.02-1.52-5.4-6.27-4.46-12.21,1-6.29,1.82-12.42-2.46-16.15-2.33,5.22-3.62,11-3.62,17.08,0,23.18,18.79,41.97,41.97,41.97,1.93,0,3.83-.14,5.7-.4"/><path class="cls-2" d="M88.23,58.51c-2.11-3.03-5.49-4.62-10.83-4.86-4.73-.22,.44-6.58,1.66-8.06,3.48-4.21,7.31-9.74,12.1-11.17-6.26-3.71-13.56-5.83-21.36-5.83-10.82,0-20.68,4.09-28.12,10.82-1.85,4.74-3.25,9.92-3.3,14.55-.06,5.74,1.28,11.55,7.78,12.28,6.92,.77,21.14-1.3,28-.3"/><path class="cls-2" d="M111.38,64.76c-1.79-12.92-9.45-23.96-20.21-30.33-4.79,1.42-8.63,6.96-12.1,11.17-1.22,1.48-6.4,7.84-1.66,8.06,5.34,.25,8.72,1.83,10.83,4.86"/><path class="cls-2" d="M74.16,65.93c-6.86-1-21.08,1.07-28,.3-6.5-.73-7.84-6.54-7.78-12.28,.05-4.63,1.45-9.81,3.3-14.55-4.32,3.9-7.82,8.69-10.23,14.07,4.28,3.73,3.46,9.86,2.46,16.15-.94,5.94-2.57,10.69,4.46,12.21,2.94,.64,6.99,1.51,12.58,4.15,2.47,1.16,3.59,4.41,4.93,8.33,1.4,4.06,3.1,9.02,6.36,11.67,3.76,3.06,4.83,3.24,4.54-1.03-.17-2.46-.35-5.1-.41-7.89"/></g></svg>