<?xml version="1.0" encoding="UTF-8"?><svg id="Layer_1" xmlns="http://www.w3.org/2000/svg" xmlns:xlink="http://www.w3.org/1999/xlink" viewBox="0 0 427.71 246.6"><defs><style>.cls-1{fill:#0072c8;}.cls-2{fill:#f2bd98;}.cls-3{filter:url(#drop-shadow-11);}.cls-4{fill:#002760;}.cls-5{fill:#3aa1ff;}.cls-6{fill:#f6ae2d;}.cls-7{fill:#f4f6f9;}</style><filter id="drop-shadow-11" filterUnits="userSpaceOnUse"><feOffset dx="3" dy="3"/><feGaussianBlur result="blur" stdDeviation="4.5"/><feFlood flood-color="#558699" flood-opacity=".3"/><feComposite in2="blur" operator="in"/><feComposite in="SourceGraphic"/></filter></defs><g class="cls-3"><rect class="cls-7" x="74.3" y="73.33" width="332.66" height="151.73" rx="30.15" ry="30.15"/><circle class="cls-7" cx="72.54" cy="73.33" r="51.79"/><g><path class="cls-6" d="M63.96,89.14c.68-.52,1.3-1.08,1.87-1.65,2.61-2.68,3.96-5.81,4.64-8.04-.99,.31-2.14,.69-3.36,1.06-.2,.06-.41,.12-.62,.19-.41,.12-.83,.24-1.25,.36-.21,.06-.42,.11-.63,.17-1.68,.43-3.36,.76-4.79,.79-2.5,.05-4.23-.82-3.89-3.62,.15-1.27,.16-2.4,.07-3.66-.03-.38-.06-.77-.1-1.17-.03-.27-.05-.55-.09-.84-.26-2.46-.68-5.66-.93-10.88-.03-.61-.03-1.21-.01-1.8,.02-.58,.07-1.15,.13-1.71,.95-7.76,6.43-12.54,12.98-13.5,.7-.1,1.36-.14,1.99-.13,.42,0,.81,.04,1.19,.09,1.33,.18,2.46,.61,3.4,1.14,.27,.15,.52,.31,.76,.48,.71,.5,1.29,1.04,1.74,1.55,.15,.17,.29,.33,.41,.49,.62,.78,.9,1.38,.9,1.38,.54-.15,1.07-.24,1.6-.28,.18-.01,.35-.02,.53-.03,3.68-.07,6.95,2.32,7.72,6.76,.04,.21,.07,.43,.09,.65,.05,.44,.08,.9,.08,1.38,0,.95-.09,1.98-.31,3.07-1.32,6.75-5.18,11.47-8.32,14.3-.35,.31-.69,.61-1.01,.88-.16,.13-.32,.26-.48,.39-.31,.25-.61,.47-.88,.67s-.53,.38-.76,.53c-.11,.08-.22,.15-.33,.22-.2,.13-.38,.24-.53,.33-.29,.18-.45,.26-.45,.26,.96,2.19,2.97,5.52,7.06,8.56,.75,.56,1.57,1.11,2.47,1.64,.6,.36,1.24,.7,1.91,1.04,3.7,1.85,8.86,3.97,14.18,6.66,5.28-6.38,8.46-14.57,8.46-23.51,0-20.38-16.52-36.9-36.9-36.9s-36.9,16.52-36.9,36.9c0,9.84,3.85,18.77,10.13,25.39,4-2.43,8.83-4.95,14.66-7.51,1.34-.58,2.51-1.29,3.53-2.07Z"/><path class="cls-4" d="M70.96,77.49c.04-.19,.07-.35,.09-.49,.04-.23,.06-.39,.07-.46-.45-.29-.9-.67-1.33-1.13-.29-.3-.57-.64-.85-1.01-1.1-1.46-2.07-3.37-2.74-5.33-.17-.49-.32-.98-.45-1.47-.06-.25-.12-.49-.18-.73,.46-.09,.92-.22,1.36-.36s.88-.32,1.31-.51c.43-.19,.85-.4,1.26-.63,.41-.23,.81-.47,1.19-.72,.19-.13,.38-.26,.57-.39,3-2.13,5.27-4.94,6.38-6.46,.07-.09,.13-.18,.19-.27,.36-.51,.55-.81,.55-.81h0c.43,.47,.79,.99,1.1,1.55,.15,.28,.29,.57,.42,.87,.13,.3,.24,.61,.34,.92,.1,.32,.18,.64,.26,.96,.22,.98,.32,2,.32,3.02,0,2.41-1.09,5.72-2.64,8.4-.08,.14-.16,.28-.25,.42-1.01,1.65-2.18,3.02-3.37,3.73h0c.02,.11,.07,.29,.14,.55,.1,.34,.25,.8,.47,1.35,.06,.14,.12,.28,.18,.43,0,0,.16-.09,.45-.26,.14-.09,.32-.2,.53-.33,.1-.07,.21-.14,.33-.22,.23-.15,.48-.33,.76-.53s.57-.42,.88-.67c.16-.12,.31-.25,.48-.39,.33-.27,.66-.56,1.01-.88,3.13-2.83,7-7.55,8.32-14.3,.21-1.09,.31-2.12,.31-3.07,0-.48-.03-.94-.08-1.38-.03-.22-.06-.44-.09-.65-.78-4.43-4.05-6.83-7.72-6.76-.17,0-.35,.01-.53,.03-.53,.04-1.07,.14-1.6,.28,0,0-.28-.59-.9-1.38-.12-.16-.26-.32-.41-.49-.45-.51-1.03-1.05-1.74-1.55-.24-.17-.49-.33-.76-.48-.94-.53-2.07-.96-3.4-1.14-.38-.05-.78-.08-1.19-.09-.62-.01-1.28,.03-1.99,.13-6.55,.96-12.03,5.73-12.98,13.5-.07,.55-.11,1.12-.13,1.71-.02,.58-.02,1.18,.01,1.8,.25,5.22,.67,8.42,.93,10.88,.03,.29,.06,.57,.09,.84,.04,.41,.07,.8,.1,1.17,.08,1.26,.08,2.39-.07,3.66-.34,2.8,1.39,3.67,3.89,3.62,1.43-.03,3.1-.35,4.79-.79,.21-.05,.42-.11,.63-.17,.42-.11,.84-.24,1.25-.36,.21-.06,.41-.12,.62-.19,1.22-.37,2.38-.75,3.36-1.06,.24-.78,.39-1.45,.49-1.95Z"/><path class="cls-1" d="M87.6,107.02c5.21-2.33,9.78-5.84,13.38-10.19-5.32-2.69-10.48-4.81-14.18-6.66-.67-.34-1.31-.68-1.91-1.04-.9-.53-1.72-1.08-2.47-1.64,0,0-8.04,4.66-16.56,0,0,0-.02,0-.02-.01-.56,.58-1.18,1.13-1.87,1.65-1.03,.78-2.2,1.49-3.53,2.07-5.84,2.56-10.66,5.08-14.66,7.51,3.95,4.16,8.86,7.4,14.37,9.37l14.97-5.24,12.49,4.17Z"/><path class="cls-2" d="M75.36,78.94c-.07-.15-.13-.29-.18-.43-.22-.55-.37-1.01-.47-1.35-.07-.26-.12-.44-.14-.55h0c1.18-.71,2.36-2.08,3.37-3.73,.08-.14,.17-.28,.25-.42,1.55-2.68,2.64-5.99,2.64-8.4,0-1.02-.1-2.04-.32-3.02-.07-.33-.16-.65-.26-.96-.1-.32-.21-.62-.34-.92-.13-.3-.27-.59-.42-.87-.31-.56-.67-1.09-1.1-1.55,0,0-.19,.31-.55,.81-.06,.08-.12,.17-.19,.27-1.1,1.52-3.37,4.33-6.38,6.46-.19,.13-.38,.26-.57,.39-.39,.26-.78,.5-1.19,.72-.41,.23-.83,.44-1.26,.63-.43,.19-.87,.36-1.31,.51s-.9,.27-1.36,.36c.05,.24,.11,.49,.18,.73,.13,.49,.28,.98,.45,1.47,.67,1.96,1.64,3.86,2.74,5.33,.27,.37,.56,.7,.85,1.01,.43,.46,.88,.84,1.33,1.13,0,.07-.03,.23-.07,.46-.02,.14-.05,.3-.09,.49-.1,.5-.26,1.17-.49,1.95-.68,2.23-2.03,5.36-4.64,8.04,0,0,.02,0,.02,.01,8.52,4.66,16.56,0,16.56,0-4.09-3.04-6.1-6.37-7.06-8.56Z"/><path class="cls-5" d="M75.11,102.85l-14.97,5.24c3.88,1.38,8.05,2.14,12.4,2.14,5.36,0,10.46-1.15,15.06-3.21l-12.49-4.17Z"/></g></g></svg>