<?xml version="1.0" encoding="UTF-8"?><svg id="Layer_1" xmlns="http://www.w3.org/2000/svg" xmlns:xlink="http://www.w3.org/1999/xlink" viewBox="0 0 427.71 246.6"><defs><style>.cls-1{filter:url(#drop-shadow-10);}.cls-2{fill:#f2bd98;}.cls-3{fill:#002760;}.cls-4{fill:#3aa1ff;}.cls-5{fill:#003d87;}.cls-6{fill:#f6ae2d;}.cls-7{fill:#f4f6f9;}</style><filter id="drop-shadow-10" filterUnits="userSpaceOnUse"><feOffset dx="3" dy="3"/><feGaussianBlur result="blur" stdDeviation="4.5"/><feFlood flood-color="#558699" flood-opacity=".3"/><feComposite in2="blur" operator="in"/><feComposite in="SourceGraphic"/></filter></defs><g class="cls-1"><rect class="cls-7" x="74.3" y="73.33" width="332.66" height="151.73" rx="30.15" ry="30.15"/><circle class="cls-7" cx="72.54" cy="73.33" r="51.79"/><g><path class="cls-5" d="M49.12,94.5h0c3.9-1.84,7.54-3.39,10.33-4.78,9.75-4.88,11.78-12.09,12.06-13.32-1.92-1.17-3.81-4.09-4.98-7.09,0,.04,0,.06,0,.06-1.9-2.11-4.57-5.03-3.74-5.95,.77-.85,2.35,.17,2.58,.32,0-.02,0-.03,0-.05,0,0,0,0,0-.01h0s0,0,0,0c-.38-.94-3.77-9.83,4.15-13.53,0,0-7.53,.84-7.53-4.73,0-2.88,2.06-3.05,2.93-5.65,.27-.8,.2-1.67,.05-2.56-16.74,3.49-29.32,18.33-29.32,36.12,0,8.98,3.21,17.21,8.54,23.61,1.66-.87,3.32-1.68,4.94-2.44,0,0,0,0,0,0Z"/><path class="cls-5" d="M83.15,39.75c.32,1.65,3.99,5.57,1.48,8.54-1.69,2.01-5.85,2.13-7.33,1.76,0,0,6.96,3.53,3.49,13.73,0,0,1.78-1.26,2.61-.34,.83,.91-1.84,3.84-3.74,5.95,0,0,0,0,0,0-1.1,2.99-2.87,5.79-4.71,6.96,.17,1.24,1.68,10.51,10.54,14.39,3.26,1.43,6.21,2.85,8.86,4.24h0c2.75,1.38,3.49,1.76,5.54,3.12,5.93-6.55,9.55-15.23,9.55-24.76,0-16.7-11.09-30.8-26.3-35.35-.07,.63-.09,1.23,.02,1.78Z"/><path class="cls-3" d="M65.37,63.67s0,0,0,.01c0,0,0-.01,0-.02,0,0,0,0,0,0Z"/><polygon class="cls-3" points="68 56.53 68 56.53 68 56.53 68 56.53"/><path class="cls-2" d="M65.37,63.69s0,.03,0,.05c.02,.01,.03,.02,.03,.02,0,0-.01-.03-.03-.07Z"/><path class="cls-2" d="M85.49,90.73c-8.85-3.88-10.37-13.15-10.54-14.39,1.85-1.17,3.61-3.97,4.71-6.96,0,0,0,0,0,0,1.9-2.11,4.57-5.03,3.74-5.95-.83-.91-2.61,.34-2.61,.34,0,0-.52-4.02-5.34-4.11-4.81-.09-7.44-3.15-7.45-3.15,0,0,0,0,0,0-1,4.26-2.53,6.97-2.63,7.14,0,0,0,.01,0,.02,.02,.05,.03,.07,.03,.07,0,0-.01,0-.03-.02-.23-.15-1.81-1.17-2.58-.32-.83,.91,1.84,3.84,3.74,5.95,0,0,0-.02,0-.06,1.17,3,3.06,5.92,4.98,7.09-.28,1.23-2.31,8.45-12.06,13.32-2.79,1.4-6.43,2.94-10.33,4.78,0,0,23.3,13.02,45.23,.48-2.66-1.4-5.6-2.82-8.86-4.24Z"/><path class="cls-4" d="M99.89,98.09c-2.05-1.35-2.79-1.73-5.54-3.12h0c-21.92,12.54-45.22-.48-45.23-.48h0s0,0,0,0c-1.61,.76-3.27,1.57-4.94,2.44,.01,.02,.03,.03,.04,.05,1.16,1.39,2.43,2.69,3.78,3.9,.4,.35,.8,.7,1.22,1.04,.12,.1,.24,.19,.36,.29,6.3,5.01,14.28,8.01,22.95,8.01,10.64,0,20.22-4.5,26.95-11.7h0s0,0,.01-.01c.06-.06,.12-.12,.17-.19,.07-.08,.14-.15,.21-.23-.42-.26-.85-.51-1.3-.77,.44,.26,.87,.52,1.3,.77,0,0,0,0,0,0Z"/><path class="cls-6" d="M83.15,39.75c-.11-.55-.09-1.15-.02-1.78-3.36-1-6.91-1.55-10.59-1.55-2.6,0-5.13,.27-7.57,.78,.15,.89,.22,1.75-.05,2.56-.87,2.6-2.93,2.77-2.93,5.65,0,5.57,7.53,4.73,7.53,4.73-7.92,3.69-4.53,12.59-4.15,13.53h0s0,0,0,0c0,0,0,0,0,0,.1-.17,1.63-2.88,2.63-7.14,0,0,0,0,0,0h0s2.63,3.06,7.45,3.15c4.82,.09,5.34,4.11,5.34,4.11,3.47-10.2-3.49-13.73-3.49-13.73,1.48,.37,5.64,.24,7.33-1.76,2.51-2.97-1.17-6.89-1.48-8.54Z"/></g></g></svg>