<?xml version="1.0" encoding="UTF-8"?><svg id="Layer_1" xmlns="http://www.w3.org/2000/svg" xmlns:xlink="http://www.w3.org/1999/xlink" viewBox="0 0 427.71 246.6"><defs><style>.cls-1{fill:#0072c8;}.cls-2{fill:#f2bd98;}.cls-3{filter:url(#drop-shadow-8);}.cls-4{fill:#002760;}.cls-5{fill:#f6ae2d;}.cls-6{fill:#f4f6f9;}</style><filter id="drop-shadow-8" filterUnits="userSpaceOnUse"><feOffset dx="3" dy="3"/><feGaussianBlur result="blur" stdDeviation="4.5"/><feFlood flood-color="#558699" flood-opacity=".3"/><feComposite in2="blur" operator="in"/><feComposite in="SourceGraphic"/></filter></defs><g class="cls-3"><rect class="cls-6" x="74.3" y="73.33" width="332.66" height="151.73" rx="30.15" ry="30.15"/><circle class="cls-6" cx="72.54" cy="73.33" r="51.79"/><g><polygon class="cls-5" points="80.5 63.79 80.5 63.79 80.5 63.79 80.5 63.79"/><path class="cls-5" d="M56.3,91.02c.43-.2,.84-.41,1.24-.61,.72-.36,1.39-.73,2.04-1.11,1.35-.8,2.54-1.64,3.59-2.49,6.26-5.1,7.35-10.65,7.41-10.94-1.83-1.14-3.63-3.75-4.89-6.58-3.59-1.56-6.43-5.24-4.95-6.32,1.23-.91,2.83,.26,3.32,.66,0,0,0-.01,0-.02-.57-.6-2.52-2.97-1.85-6.85,.79-4.53,6.25-6.08,8.38-6.5,3.92-.78,7.98-1.91,9.26-2.99,1.28-1.08,2.86-2.62,2.86-4.89,0,0,1.87,4.24,.89,7.79,0,0,1.97-1.08,2.37-1.77,0,0,1.92,6.72-5.44,15.38,0,0,2-1.88,3.47-.8,1.48,1.08-1.38,4.77-4.97,6.33h0c-1.21,2.9-2.97,5.49-4.79,6.6,.07,.55,.82,6.19,4.95,10.9,.76,.87,1.64,1.72,2.66,2.49,.78,.59,1.63,1.14,2.57,1.64,6.23,2.3,11.4,5,15.31,7.35,6.04-6.57,9.74-15.34,9.74-24.97,0-20.38-16.52-36.9-36.9-36.9s-36.9,16.52-36.9,36.9c0,8.75,3.05,16.79,8.14,23.11,3.47-1.79,7.66-3.71,12.5-5.5,0,0,0,.03,.01,.08Z"/><path class="cls-2" d="M64.04,63.63s0,.01,0,.02c.07,.06,.12,.1,.14,.12-.02-.02-.07-.07-.14-.14Z"/><path class="cls-4" d="M85.95,48.4c-.39,.69-2.37,1.77-2.37,1.77,.99-3.55-.89-7.79-.89-7.79,0,2.27-1.58,3.81-2.86,4.89-1.28,1.08-5.35,2.21-9.26,2.99-2.13,.42-7.59,1.97-8.38,6.5-.68,3.88,1.27,6.25,1.85,6.85,.07,.07,.12,.12,.14,.14,0,0,.01,.01,.01,.01,2.67-2.45,3.71-5.82,3.71-5.82,5.99,6.48,12.55,5.83,12.59,5.82h0c7.37-8.66,5.44-15.38,5.44-15.38Z"/><path class="cls-1" d="M84.38,90.94s0,0,.01,0c-.94-.49-1.8-1.04-2.57-1.64-1.01-.77-1.89-1.61-2.66-2.49-8.2,10.54-16,0-16,0-1.05,.85-2.23,1.69-3.59,2.49-.64,.38-1.32,.75-2.04,1.11-.4,.2-.81,.4-1.24,.61,.13,.8,1.22,7.57,1.85,16.29,4.42,1.87,9.28,2.91,14.39,2.91,3.42,0,6.72-.47,9.86-1.33,.65-10.06,1.98-17.95,1.98-17.95Z"/><path class="cls-2" d="M79,69.32h0c3.6-1.55,6.45-5.24,4.97-6.33-1.48-1.08-3.47,.8-3.47,.8,0,0,0,0,0,0,0,0,0,0,0,0-.04,0-6.6,.66-12.59-5.82,0,0-1.04,3.37-3.71,5.82,0,0,0,0-.01-.01-.02-.02-.07-.06-.14-.12-.49-.41-2.09-1.57-3.32-.66-1.48,1.08,1.36,4.76,4.95,6.32,1.26,2.83,3.06,5.44,4.89,6.58-.05,.29-1.15,5.84-7.41,10.94,0,0,7.81,10.54,16,0-4.12-4.72-4.88-10.35-4.95-10.9,1.82-1.11,3.58-3.7,4.79-6.6Z"/><path class="cls-4" d="M84.39,90.94s0,0-.01,0c0,0-1.33,7.89-1.98,17.95,6.64-1.84,12.53-5.49,17.1-10.38,.07-.07,.13-.14,.2-.21-3.91-2.36-9.08-5.05-15.31-7.35Z"/><path class="cls-4" d="M56.3,91.02c0-.05-.01-.08-.01-.08-4.84,1.79-9.04,3.71-12.5,5.5,.08,.09,.15,.19,.23,.28,3.76,4.58,8.61,8.24,14.14,10.59-.64-8.72-1.72-15.49-1.85-16.29Z"/></g></g></svg>