<svg xmlns="http://www.w3.org/2000/svg" xmlns:xlink="http://www.w3.org/1999/xlink" viewBox="0 0 2137.26 571.3"><defs><style>.cls-1{fill:none;}.cls-2{isolation:isolate;}.cls-3{clip-path:url(#clip-path);}.cls-4{mix-blend-mode:screen;}.cls-5{opacity:0.11;}.cls-6{fill:#003d87;}.cls-7{fill:#3aa1ff;}.cls-8{fill:#0072c8;}</style><clipPath id="clip-path" transform="translate(4.13 298.06)"><rect class="cls-1" width="1918.32" height="319.28"/></clipPath></defs><g class="cls-2"><g id="Layer_2" data-name="Layer 2"><g id="Layer_1-2" data-name="Layer 1"><g class="cls-3"><g class="cls-4"><g class="cls-5"><g class="cls-2"><g class="cls-2"><path class="cls-6" d="M1601.56-85.7c3.81.25,7.77.49,12.24.72a3.47,3.47,0,0,0,2.22-1.57c.44-.64,45.46-64,55.17-65l3.9.12,6.51.19c6.46,1,6.82,9.37,2.22,14.47-16.31,16.6-16.31,16.6-16.86,19.2q-.54,4-1,8.07a10.71,10.71,0,0,1-3.26,6.62c-5.67,5.17-5.67,5.17-6.15,7.86q-.9,9.54-1.44,19.18c.08,3.18,1.3,4.92,3.74,5.33l5.54.17a3.75,3.75,0,0,0,3-1.43c27-31,27-31,27.15-32.09q1-11.15,2.38-22.17c1.09-5.17,3.75-7.9,8.14-8.34l11,.2a4.52,4.52,0,0,0,3.51-1.8c10-12.23,10-12.23,13.63-12.42l6.59.07c2.63-.28,4.21-1.89,4.83-4.92l0-.35c.09-3-1.09-4.64-3.61-5q-15.83-.16-31.13-.45c-2.34-.35-3.61-1-5-3.8-1.25-2.61.47-5.48-.71-8.1-8.79-14.94-8.79-14.94-10.08-15.23q-5.36-.14-10.61-.3C1661.27-187.08,1642-188,1626-189c.42-1.07.85-2.14,1.28-3.21,15.94,1.05,35,1.94,57.19,2.62l10.55.3c2.13.32,2.6.62,3.86,2.43,8.92,16.51,8.92,16.51,8.66,18.73s-.61,5.28,3,5.8c10.13.2,20.48.35,31,.45,2.7.35,6.26,1.6,6.07,8.39l0,.35c-.44,2.82-2.08,7.66-8.13,8.3l-6.62-.07a4.57,4.57,0,0,0-3.51,1.8c-10.06,12.29-10.06,12.29-13.62,12.47l-11.06-.2c-2.61.26-4.18,1.88-4.82,4.94q-1.37,11-2.33,22.18a10.17,10.17,0,0,1-2.61,6.06c-28.31,30.75-28.31,30.75-30.58,31l-5.54-.18c-4.12-.68-6.18-3.62-6.3-9q.55-9.63,1.46-19.18a10.37,10.37,0,0,1,3.12-6.62c5.69-5.2,5.69-5.2,6.24-7.85q.48-4,1-8.07a10.77,10.77,0,0,1,2.8-6c16.08-16.74,16.08-16.74,16.35-17.21.84-1.46,1.7-6.34-2.44-7l-6.55-.19-3.92-.12a4.25,4.25,0,0,0-3.17,1.56c-19.37,21.55-34.78,40.6-45.82,56.61-5.66,8.21-5.66,8.21-8.34,8.52q-6.2-.36-11.92-.73C1601.34-83.33,1601.45-84.52,1601.56-85.7Z" transform="translate(4.13 298.06)"/><path class="cls-6" d="M1583.86-87q7.31.61,15.68,1.18c-.11,1.19-.22,2.37-.32,3.56q-8.38-.57-15.7-1.19C1583.63-84.66,1583.74-85.84,1583.86-87Z" transform="translate(4.13 298.06)"/><path class="cls-6" d="M1575.58-185.44c2.61.5,5.63,1,9.2,1.45a2.56,2.56,0,0,0,1.38-1c9.1-9.92,9.13-9.92,10.58-9.91q11.9,1.35,28.75,2.5-.66,1.61-1.29,3.21c-11.29-.76-20.94-1.61-29.09-2.52a2.74,2.74,0,0,0-1.49.95c-9.39,9.88-9.39,9.88-10.38,10q-5.16-.71-9.09-1.46C1574.62-183.27,1575.1-184.36,1575.58-185.44Z" transform="translate(4.13 298.06)"/><path class="cls-6" d="M1551.59-162.26l.49-1.37.73-2a1.15,1.15,0,0,0,.13,1.07,5.34,5.34,0,0,0,.64-1.24c6.48-14.17,11.24-22.07,12.19-22.33a44.54,44.54,0,0,0,9,2.51l-1.44,3.25a44,44,0,0,1-9-2.52c-.2.05-.33.09-1,1.21a186.33,186.33,0,0,0-10.69,20.89,4.45,4.45,0,0,1-.87,1.57A1.18,1.18,0,0,1,1551.59-162.26Z" transform="translate(4.13 298.06)"/><path class="cls-6" d="M1566.11,20.94c-1.44-7.27-2.23-11.28,10.23-34.17,1.12-2.36,1.47-4.69,1.27-8.58q-.54-7.12-.81-14.32c.12-8.93,2.35-13.53,6.79-14.07,2,.17,4.07.33,6.19.49,3.52-.2,3.83-1.14,7.57-12.67a19.05,19.05,0,0,0,.87-4.95q.36-7.5,1-15c.1-1.19.21-2.37.32-3.56q.75-7.84,1.81-15.63l2,.13q-1,7.78-1.79,15.64c-.11,1.18-.22,2.37-.32,3.55q-.63,7.45-1,15c-.2,3.16-.2,3.16-3.36,13.55-1.86,5.3-3.79,7.34-7.11,7.52l-6.19-.48c-3.36.4-5,3.88-5.13,10.62q.27,7.2.81,14.32c.2,4-.06,7.12-.77,9.16-3.06,8.74-8.22,16.54-11.29,25.28-.64,2.3-.6,4.56.14,8.32q2.07,9.33,4.67,18.49c2.13,8.43,2,12.55-.56,13l-.9-.13-1.11-3.33.91.13c1.19-.67,2.55-1.43.43-9.81Q1568.18,30.27,1566.11,20.94Z" transform="translate(4.13 298.06)"/><path class="cls-6" d="M1545.32,1.53q2.48.69,5.87,1.37c1.45.79,2.74,3.73,3.93,9a313,313,0,0,0,18.43,59.61q2.23,5.27,4.63,10.42c1,2.21,1.22,2.54,6.15,9a6.21,6.21,0,0,0,1.34,1.37c1.31.29,2.34.45,3.41.6l.44-.27c.06-2.83.06-2.83-11-18.1a28.7,28.7,0,0,1-3.09-5.77q-2.34-5.79-4.45-11.66l1,.16q2.1,5.88,4.43,11.66c1,2.44,1.18,2.81,9.77,14.16a33.11,33.11,0,0,1,4.06,7.17c1.4,3.42,1.2,4.73,1.11,5.29l-.72.45c-1.06-.15-2.09-.3-3.06-.46-1.35-.55-1.83-1-7-8.11a34.1,34.1,0,0,1-3.28-5.63q-2.4-5.15-4.64-10.42a312.14,312.14,0,0,1-18.48-59.63c-1-4.15-1.69-4.78-2.35-5.33-2.25-.45-4.21-.91-5.86-1.37-1.12,1.48,1.37,19.49,3.89,30.58.28,1.15.38,1.5.81,2.9.23.72.47,1.44.7,2.16,1.36,4,1.86,4.66,2.25,5.18.27.12.54.23.84.34.39,1.11.78,2.23,1.18,3.34l-.84-.33c-.67-.88-1.51-2-3.8-8.72-.23-.72-.47-1.44-.7-2.16-.17-.54-4.19-13.53-5.57-33.68C1544.6,2.11,1544.84,1.92,1545.32,1.53Z" transform="translate(4.13 298.06)"/><path class="cls-6" d="M1557.15,56.11c.43,1.1.86,2.2,1.3,3.3a7.74,7.74,0,0,1-1.92-1.15,35.16,35.16,0,0,1-2.14-4.88c-2.16-5.52-2.43-6.31-5-13.87-.46-1.39-1-3.06-1.5-4.67A186.57,186.57,0,0,0,1555.23,55,7.55,7.55,0,0,0,1557.15,56.11Z" transform="translate(4.13 298.06)"/><path class="cls-6" d="M1547.85,34.84l-.84-2.68C1547.28,33,1547.56,33.9,1547.85,34.84Z" transform="translate(4.13 298.06)"/><path class="cls-6" d="M1546.87,31.69l.14.47-.12-.41Z" transform="translate(4.13 298.06)"/><path class="cls-6" d="M1635.5,120.19c.86-1.11,1.2-1.27,2.82-1.34,3.33.22,6.8.44,10.42.64,1.85.37,3.5,1.84,5,4.5q4.08,8,8.55,15.56l-1.8-.1q-4.5-7.59-8.63-15.56a3.79,3.79,0,0,0-1.26-1.37c-4-.34-7.46-.55-10.77-.77-4.87.2-8.66,19.37-8.69,19.57.14,2.79.38,7.48,30.13,33.35,3.92,3.29,6.39,4.8,8.51,5.23q7.45.65,16.61,1.21c4.36.67,8.23,3.72,14.1,8.34,3.66,2.73,6,3.92,8.44,4.24q4.14.21,8.58.4c2.37-.12,2.37-.12-1-12a13.8,13.8,0,0,0-2.06-4q-1.64-2.32-3.24-4.71-4.08-6.08-7.9-12.5c-2.1-3.34-2.1-3.34-10.13-10.17-1.64-1.39-10.35-8.83-21.24-19-3-2.61-4.89-3.64-7.41-4l-7.25-.37q-.73-1.41-1.47-2.85l7.3.37c2.4.3,4.63,1.07,8.3,4,9.67,7.7,18.22,16.65,27.64,24.64a29.73,29.73,0,0,1,6.29,7.41q3.78,6.42,7.8,12.5c1,1.59,2.12,3.16,3.19,4.7.6.89.6.89,5.34,13.59,1,3.12.37,4.33-2.24,4.45q-4.38-.18-8.46-.38c-4.69-.63-8.83-3.86-14.08-7.95-3.8-2.89-6.08-4.09-8.4-4.45q-9-.54-16.4-1.18c-1.87-.38-7.56-1.53-33.77-28C1627.58,142.73,1625,140,1635.5,120.19Z" transform="translate(4.13 298.06)"/><path class="cls-6" d="M1623.12,81.17q1,2.6,2,5.16c3.15,7.39,3.48,8.16,27.8,25.37a9.76,9.76,0,0,0,5,2l3.63.17c2.29-.23,2.29-.23-1.54-10-2.84-6.57-4.49-7.76-13.62-14.37a9.64,9.64,0,0,0-5-2.07q-7.15-.37-13.68-.79c-.4-1-.8-2.1-1.19-3.16q6.54.42,13.75.79c3.11.32,3.11.32,12.39,7,7,5.51,8.94,10.64,12.11,19.13,1.35,4,.72,6-2,6.32l-3.6-.17c-2.81-.27-4.67-.45-26.91-17.78-4.19-3.55-6.66-7-9.11-12.68-.67-1.71-1.32-3.43-2-5.16Z" transform="translate(4.13 298.06)"/><path class="cls-6" d="M1576.09,17.81l1.59.16c1.72-.15,1.72-.15,5-7.33a191.48,191.48,0,0,1,9.78-17.57c1.31-2.42,1.71-4.77,1.5-8.66q-.43-5.11-.74-10.27c0-9,2.53-13.71,7.73-14.29,4.41.76,4.41.76,13,20.13a24.59,24.59,0,0,1,2,7.81q.76,9.06,1.93,18c.35,3.72.27,6.71-1.27,10.1-4.3,9.52-11,17.67-15.52,27.07-1.61,3-1.61,3-19.19.78h0c-.49.2-1.24.5-.48,3.45q2.41,8.06,5.25,16l-1.37-.15q-2.83-7.92-5.27-16c-1.91-6.78-1.91-6.78,16.37-4.84a3,3,0,0,0,2.93-2,189.6,189.6,0,0,1,14.93-26.08c1.42-2.42,1.79-4.64,1.42-8.47q-1.17-8.93-1.94-18c-.22-2.1-.22-2.1-6.86-18.52-3.87-8.53-9.16-6.3-11-1.08a19.27,19.27,0,0,0-.76,6.21c.21,3.44.45,6.86.74,10.27a21.84,21.84,0,0,1-1.41,10.35c-3.48,8.41-9.13,15.66-12.81,24-1,2-1.64,2.2-2.82,2.54-1-.06-1.57-.11-2.09-.17-2.72.37-3.39,3.73-2,10.27q2.79,11.14,6.35,22.06l-1.34-.16q-3.57-10.9-6.37-22.06C1571.61,22.73,1572.49,18.3,1576.09,17.81Z" transform="translate(4.13 298.06)"/><path class="cls-6" d="M1596.07-223.7q3.06-4.91,6.29-9.7l.79.15q-3.23,4.78-6.27,9.7c-2.26,3.84-2.92,6-2,6.58q5.52.93,13.11,1.78c3.29-.41,6.74-7.19,6.77-7.26.32-.65.32-.65,3.32-13.13.3-1.29.19-1.79-.43-2a128.22,128.22,0,0,1-16.37-2.83c.69-1,1.39-1.91,2.1-2.86a126.5,126.5,0,0,0,16.23,2.81c.3.09,1,.29.84,1.71-.46,3.74-1.66,7.31-2.39,11a26.11,26.11,0,0,1-3.83,8.5c-1.62,2.48-4.81,6.71-7.9,7.09q-7.65-.85-13.21-1.79C1591.75-214.8,1592.72-218,1596.07-223.7Z" transform="translate(4.13 298.06)"/><path class="cls-7" d="M1599.1-244.78a17.39,17.39,0,0,0,3.43,1.32q-1.07,1.43-2.1,2.85a17.45,17.45,0,0,1-3.46-1.33C1597.67-242.89,1598.38-243.83,1599.1-244.78Z" transform="translate(4.13 298.06)"/><path class="cls-7" d="M1604.42-120.44l2,.13q-1.07,5.67-1.94,11.37l-2-.13Q1603.36-114.77,1604.42-120.44Z" transform="translate(4.13 298.06)"/><path class="cls-7" d="M1588.45,67.94q1.13,3,2.29,5.92Q1593,79.5,1595.43,85l-1.32-.15q-2.46-5.5-4.71-11.16-1.19-3-2.3-5.92Z" transform="translate(4.13 298.06)"/><path class="cls-8" d="M1597.79,90.23q1.53,3.28,3.12,6.54l-1.29-.15q-1.61-3.24-3.14-6.54Z" transform="translate(4.13 298.06)"/><path class="cls-7" d="M1665.42,144.69q4.1,6.65,8.48,13l-1.69-.1q-4.43-6.33-8.56-13Z" transform="translate(4.13 298.06)"/><path class="cls-7" d="M1616,59.8q2.51,8.4,5.41,16.63l.07.19-1.89-.13-.06-.19q-2.94-8.22-5.45-16.63Z" transform="translate(4.13 298.06)"/><path class="cls-7" d="M1561.38,57.54c.42,1.1.85,2.2,1.28,3.29-1.11-.3-2.09-.6-2.93-.91-.44-1.09-.87-2.19-1.29-3.29C1559.28,56.94,1560.27,57.24,1561.38,57.54Z" transform="translate(4.13 298.06)"/><path class="cls-8" d="M1533.81-67.54q0,1.59,4.16,3.1c0,1.2-.06,2.39-.08,3.59-2.77-1-4.17-2-4.16-3.1S1533.78-66.35,1533.81-67.54Z" transform="translate(4.13 298.06)"/><path class="cls-6" d="M1577.58-217.34l.45-.75,1.52-2.49.52-.84.27-.41a1.14,1.14,0,0,0,0,.79,39,39,0,0,0,3-4.61c0-.18-.06-.3-.07-.41.18-.47.18-.47,4-6.32.16-.24.32-.48.47-.72a2.55,2.55,0,0,1,.14-.24l2-2.93a1.42,1.42,0,0,0-.14.23c-1.29,2.14-2.73,4.17-4.09,6.26-.32.52-.36.6-.43.73a.83.83,0,0,0,.08.36,74.59,74.59,0,0,1-4,6.67,25.43,25.43,0,0,1-2.82,4,1.06,1.06,0,0,1,0-.82C1578.43-218.72,1578.43-218.72,1577.58-217.34Z" transform="translate(4.13 298.06)"/><path class="cls-7" d="M1702.71,77.65a3.83,3.83,0,0,1,3-1.24l6.57.13c3.4.45,5.62,2.54,6.77,6.38.11.53.23,1.07.34,1.6.53,3.23.53,3.23-6.23,10.09a2.39,2.39,0,0,0-.53,2c.81,3.89-.33,5.94-3.48,6.25l-5.26-.13c-.3-1-.6-2-.89-3.05l5.29.13c1.9-.19,2-1.68,1.74-2.9-.71-3.34-.71-3.34,6-10a2.61,2.61,0,0,0,.55-2.45c-.12-.53-.23-1.07-.35-1.6a3.91,3.91,0,0,0-3.31-3.12l-6.54-.13c-1.08,0-1.08,0-9.53,9.85a2.61,2.61,0,0,0-.34,2.35q1.92,7,4,13.7l-2.56-.07q-2.14-6.74-4.09-13.7C1693.19,88.52,1693.19,88.52,1702.71,77.65Z" transform="translate(4.13 298.06)"/><path class="cls-7" d="M1541.84-113.71a26.64,26.64,0,0,0,3.34,1.18c3.2.07,8.07-10.18,13-27.42q4.23-15.17,10-30,2.44-6.28,5.12-12.44l1.44-3.25q2.29-5.1,4.76-10.1l.82.16q-2.46,5-4.74,10.1c-.48,1.08-1,2.17-1.43,3.25-1.79,4.11-3.49,8.25-5.11,12.45q-5.71,14.78-9.94,30c-5.53,19.32-11,30.81-14.55,30.73a27.3,27.3,0,0,1-3.35-1.19C1541.41-111.39,1541.62-112.55,1541.84-113.71Z" transform="translate(4.13 298.06)"/><path class="cls-7" d="M1613.21-141.1c3.93-4.68,7.73-6.83,12-6.77q6.64.36,13.87.71c-.27,1.13-.53,2.27-.78,3.41q-7.26-.34-13.93-.72c-5.92.17-8,2.9-16,13.07l-.91-2.44C1609.17-136,1611.47-138.94,1613.21-141.1Z" transform="translate(4.13 298.06)"/><path class="cls-7" d="M1641.81-147l6.61.29c-.25,1.14-.5,2.27-.74,3.41l-6.64-.29C1641.29-144.76,1641.55-145.9,1641.81-147Z" transform="translate(4.13 298.06)"/><path class="cls-7" d="M1540.85-63.95a135.54,135.54,0,0,0,16.5,3.07c3.51,1,6,8.25,6.46,18.52q.21,8.74.85,17.37l-1.38-.16q-.65-8.64-.85-17.37c-.33-8.2-2.36-14-5.16-14.77a137.42,137.42,0,0,1-16.51-3.08Z" transform="translate(4.13 298.06)"/><path class="cls-6" d="M1761.51,203.88l8.91-12.23a1.94,1.94,0,0,1,1.53-.59l4.77.06c2.49,0,3.63,1.34,4.78,3.41q1.35,2.91,2.72,5.69a2.73,2.73,0,0,1,.16,2.37L1777,211.4c-.11.42-.11.42.55,1.45,0,0,1.22,2-.9,2.15-1.75,0-3.49-.06-5.21-.09-.48-.56-1-1.13-1.42-1.7l5.3.09c.32-.07.79-.18.21-1-.75-1.1-1.26-1.82.11-3.32l6.7-7.74c.2-.34.2-.47,0-1-.95-1.86-1.88-3.75-2.81-5.7a2.27,2.27,0,0,0-1.81-1.28l-4.7-.06a1.67,1.67,0,0,0-1.32.83s-6.68,9-8.41,11.89c-.06.37-.06.37.16.78a148.9,148.9,0,0,0,20.89,22.69l-1.3,0a151,151,0,0,1-21.2-22.55A2.36,2.36,0,0,1,1761.51,203.88Z" transform="translate(4.13 298.06)"/><path class="cls-8" d="M1624.2-189.15q.63-1.6,1.29-3.21a342.22,342.22,0,0,1,21.65-44l1.6.1a345.5,345.5,0,0,0-21.46,44.07c-.43,1.07-.86,2.14-1.28,3.21q-3.55,9.08-6.66,18.44l-1.86-.12Q1620.61-180.08,1624.2-189.15Z" transform="translate(4.13 298.06)"/><path class="cls-8" d="M1569.56,86.6l1.66,3.14a2.17,2.17,0,0,1-.39-.51l-.51-.94-1.17-2.22A2,2,0,0,0,1569.56,86.6Z" transform="translate(4.13 298.06)"/><path class="cls-8" d="M1573.48-88.16q3.68.38,7.69.72c-.12,1.18-.24,2.36-.35,3.54-2.69-.23-5.25-.48-7.7-.72Q1573.29-86.39,1573.48-88.16Z" transform="translate(4.13 298.06)"/><path class="cls-7" d="M1765,213c.5.58,1,1.15,1.51,1.71l-7.11-.17-1.64-1.71Z" transform="translate(4.13 298.06)"/></g></g></g><path class="cls-6" d="M1910.07-58.71h3.19q0,6.08,0,12.13H1910Q1910.07-52.62,1910.07-58.71Z" transform="translate(4.13 298.06)"/><path class="cls-6" d="M1792.52,52.28l4.11-.1c-5.79,7.64-16.56,21.85-26.89,37.95a7.46,7.46,0,0,0-1,2.39l-2.37-2.22C1767.18,87.88,1777.52,72.25,1792.52,52.28Z" transform="translate(4.13 298.06)"/><path class="cls-6" d="M2132.81-96.91l.33,3.54c-6.31-1-14.12-1.88-23.37-2.73-.1-1.18-.2-2.36-.31-3.54Q2123.34-98.36,2132.81-96.91Z" transform="translate(4.13 298.06)"/><path class="cls-6" d="M1813.64,25.53a10.77,10.77,0,0,1,8.24-4.08c14.79-.27,29.74-.29,44.57-.61,5.52-.29,8.89-3.53,9.11-10.07q.14-7.92.22-15.91c.36-8.49,4.59-13.37,12.5-13.75l12.11,0c5.63-.64,8.7-4,9.39-10.25q.13-6.9.21-13.84h3.18q-.08,6.95-.23,13.84c-.94,8.4-5.08,12.9-12.63,13.76l-12.08,0c-5.82.23-8.65,4-9.3,10.22q-.11,8-.26,15.91c-.21,8.24-4.52,13.08-12.26,13.53-14.82.13-29.66.34-44.4.61-3.85.28-3.85.28-22.76,23.88l-4.14.1C1808.16,32.23,1808.16,32.23,1813.64,25.53Z" transform="translate(4.13 298.06)"/><path class="cls-6" d="M1838.91,208.81s.54,3.47,1.1,5.69a11,11,0,0,0,1.28,3.59,2.8,2.8,0,0,0,2.22,1.41,3.61,3.61,0,0,0,2.83-1.74l9.84-16.7a9.59,9.59,0,0,0,1.32-4.18c1.26-14.84,2.27-31.26,3.14-49.89q.51-11.18,1-23.12c.15-3.68.18-5.15,4.09-8.63,3.36-3,9.17-8.06,19.66-16.62,2.52-2.54,3-3.47,3.71-7.12,1.32-15.08,2.43-30.87,3.33-47.27q.72-13.32,1.24-26.91c1.06-8.26,5.17-12.69,12.58-13.53,13.75,0,27.37,0,40.77.17-.09,1.16-.18,2.32-.28,3.48-13.35-.12-26.93-.18-40.63-.17-5.5.62-8.56,3.91-9.37,10q-.56,13.59-1.35,26.91-1.44,24.62-3.58,47.27c-.48,3.32.11,4.78-4.64,9.29-3.4,3.24-10,8-19.82,16.34-2.45,2.09-3,3.32-3.21,6.73-.63,8.06-.75,15.67-1.17,23.12-1.08,19-1.69,35.46-3.09,49.71a11.32,11.32,0,0,1-1.09,4.42l-10.84,17.6c-2.89,4.06-6,3.81-7.77,1a17.67,17.67,0,0,1-1.64-4.56l-1.13-5.58C1837.68,209.49,1838.6,208.91,1838.91,208.81Z" transform="translate(4.13 298.06)"/><path class="cls-6" d="M1768.65,96c2.49,12.49,5.15,24,8.25,34.82,1,3.51.76,3.62,8.1,10.2,20.08,18,36.7,33.75,49.39,46.82a9.84,9.84,0,0,1,2.65,5.81c.51,5,1.12,9.72,1.64,14.11-.42.18-1.07.32-1.51.47q-.95-6.81-1.85-14.55a8.79,8.79,0,0,0-2.67-4.88c-5.6-5.51-19.2-19.52-53.67-50.17a15.79,15.79,0,0,1-4.71-7.62q-4.39-16.45-8.11-34.37a13.82,13.82,0,0,1-.29-3.23Z" transform="translate(4.13 298.06)"/><path class="cls-6" d="M2023-31.87c5.68-3.92,5.94-6.78,6.42-11.15.66-11.88.87-21.93.87-33l2.76.09q.24,18.06-.76,35.9c-1.08,9.72-1.08,9.72-65.85,46.16A11,11,0,0,1,1961,7.6l-11.25-.13c.1-1.16.2-2.32.29-3.48,3.78,0,7.54.26,11.31.21a5.64,5.64,0,0,0,3.22-.93Z" transform="translate(4.13 298.06)"/><path class="cls-6" d="M2031-124.2c1.69-2.21,4.64-4.52,6.65-6.44,3-2.9,9.43-9.2,17.87-18.83a5.43,5.43,0,0,1,4.54-2q6.78.35,13,.73c1.26.2,4.27-.21,8.09,5.93s10.54,18,20.66,40.26c1.48,3,2.72,4.27,4.56,4.65l1.4.13c.1,1.17.21,2.35.3,3.53l-1.4-.12c-3.59-.75-4.51-2.77-9-12.49a375.49,375.49,0,0,0-18.25-34c-1.9-2.9-3.44-4.1-5.68-4.46q-6.26-.37-13.06-.73c-2.06,0-2.06,0-8.1,6.83-2,2.21-7.72,8.49-18.9,19-2.06,2.23-2.77,4.48-2.61,8.27q1.52,17,1.87,34.47l-2.76-.09q-.36-17.46-1.85-34.48C2028.3-116.15,2028.12-120.45,2031-124.2Z" transform="translate(4.13 298.06)"/><path class="cls-6" d="M1953.07-142.45c5.31-.55,7.82-3.72,7.69-9.68q-.91-8.06-2-16c-.39-7.83,2.66-12,9.31-12.63,14.78.24,29.17.57,43,1q20,.62,36.82,1.43c1.2-.09,4.82-.36,15.65-25.84,1-1.8,1.37-2.07,3.25-2.22q7.86.56,14.63,1.17c3,.82,4.49.72,17.28,17.62a17.86,17.86,0,0,0,2.86,3c1.92,1.59,2.74,1.28,4,1.68,3.25,1.16,5.9,4.81,8.87,12.64q.84,2.44,1.63,4.9c2.11,7,2.9,9.62-4.09,28.71-1.08,2.14-4.11,1.61-5.17,3.79-1.25,2.57-.84,6-.59,8.06q2.05,12.45,3.21,25.16c.11,1.18.21,2.36.31,3.54.18,2.31.35,4.63.49,7l-1.67-.16c-.15-2.32-.31-4.64-.5-7-.09-1.18-.2-2.36-.3-3.53q-1.15-12.7-3.19-25.16c-1-8.15.25-12.33,3.74-12.79,2.77-.36,5.65-11.23,7.59-20.29.22-2.62-.51-3.79-1.53-7.19q-.8-2.46-1.63-4.9c-1.34-3.56-3.06-8.24-6.33-9.91a5.35,5.35,0,0,0-3.07-.7c-1.6-.54-1.6-.54-16.3-18.25-2-2.2-2.6-2.6-4.29-3.07q-6.8-.62-14.71-1.17c-1.75.28-1.75.28-4.52,6.49a172.57,172.57,0,0,1-10.21,19.34c-1.55,1.9-2.1,2.19-4.57,2.37q-16.92-.81-37-1.43c-13.88-.42-28.33-.76-43.17-1-5,.5-7.24,3.57-6.93,9.38q1.11,7.92,2,16c.19,8.05-3.2,12.32-10.37,13.06l-11.72-.11c-.09-1.14-.19-2.28-.28-3.42C1945.29-142.53,1949.19-142.5,1953.07-142.45Z" transform="translate(4.13 298.06)"/><path class="cls-6" d="M1938.31-142.59l.27,3.43c-5.13,0-10.3-.07-15.48-.08l-.24-3.43Z" transform="translate(4.13 298.06)"/><path class="cls-6" d="M1846-145.68a12.3,12.3,0,0,1,6.33-1.86q5.85-.08,11.7-.12c8,.79,12.41,5.37,13.52,14q.11,3.1.2,6.22c.83,6.62,4.21,10.15,10.32,10.8l6.58,0c10.23-.58,9.75-7.74,8.68-23.43-.59-5.19-2.52-6.82-6.37-10.08-9.51-8.91-5.66-23.73,6.34-24.4l14.77,0c5,.26,5,.26,16.92,10.71a16.11,16.11,0,0,1,5.36,10.46q.52,5.4,1,10.86c.09,1.14.19,2.28.28,3.42q.61,7.69,1.1,15.49l-3.1,0q-.48-7.8-1.08-15.49l-.27-3.43q-.45-5.46-1-10.85c-.74-5.08-.74-5.08-12.47-15.29a9.9,9.9,0,0,0-6.44-2.56c-4.92,0-9.87,0-14.82,0-7.06.78-14.71,10.15-2.45,20.46,5,4.71,5.07,5.06,6.16,23.15.1,8.37-4.81,14.07-12.52,14.5l-6.59,0c-8.09-.85-12.55-5.52-13.63-14.27-.06-2.08-.13-4.15-.19-6.22-.83-6.52-4.17-10-10.23-10.59q-5.87,0-11.73.12c-3,.24-3,.24-27.84,15.8-3.42,2.49-4.79,5.08-5,9.54q0,4.33,0,8.71c0,.22,0,1.43,0,1.65h-3.19c0-.29,0-1.3,0-1.59q0-4.38,0-8.71C1816.89-127.52,1816.89-127.52,1846-145.68Z" transform="translate(4.13 298.06)"/><path class="cls-6" d="M1820.41-105.71c1.56,3.38,1.64,3.47,19.52,14.25,4.62,3.24,6.5,6.7,7,12.75v1.27q.08,4.66.13,9.31c.41,6,.41,6,18.38,19.73a9.46,9.46,0,0,0,5.8,2c13-.1,26-.15,38.82-.15h3.19c12.73,0,25.35.08,37.78.2l-.09,3.55c-12.41-.11-25-.18-37.73-.19H1910c-12.84,0-25.79.05-38.77.15-4.39-.15-4.39-.15-21.63-13.23-3.87-3.33-5.45-6.58-5.82-12l-.12-9.31c0-.42,0-.84,0-1.27-.51-6.81-.51-6.81-20.44-18.82a13.51,13.51,0,0,1-5.75-6.6,10.56,10.56,0,0,1-.49-1.53Z" transform="translate(4.13 298.06)"/><path class="cls-7" d="M2110.52-84.39q.24,4.73.34,9.48l-1.68-.15q-.1-4.75-.33-9.48Z" transform="translate(4.13 298.06)"/><path class="cls-6" d="M1905.88-192.09a7.74,7.74,0,0,0,6.94,5.62h2.12a3.83,3.83,0,0,1,2.64,1.17c8.16,8.2,8.16,8.2,11.07,8.38l13.45.1a5.29,5.29,0,0,0,5-3.37c4.87-12.25,4.87-12.25,6.75-12.51q12.23.16,24.11.4a4.31,4.31,0,0,0,4-2.24c8.78-16.69,8.78-16.69,10.08-16.83l10.75.31,6.75.22c3.16-.31,4.16-2.44,3.07-6.51q-3.18-9.1-6.73-17.78l5.34.2c-.41-1-.82-1.93-1.24-2.9l-5.31-.19c-.8-1.92-1.62-3.81-2.45-5.69l-2.27-.08c.83,1.88,1.63,3.77,2.42,5.69q-4.46-.17-9.09-.3-6.64-.21-13.48-.38a3.3,3.3,0,0,0-3.41,2.3c-8.14,23.08-9.58,23.25-11,23.41-11.6-.21-23.46-.35-35.51-.44a4.9,4.9,0,0,0-4.5,2.74c-5.15,10.1-5.15,10.1-7.09,10.35l-7.09,0C1904-199.65,1905.86-192.17,1905.88-192.09Zm5.71-5.16,7.12,0c3.44-.21,3.44-.21,9.26-11.7a2.67,2.67,0,0,1,2.45-1.48c12.12.09,24,.24,35.71.44,3.31-.16,4.1-.2,12.81-24.67a1.82,1.82,0,0,1,1.86-1.24q6.87.16,13.57.37l9.16.3q3.51,8.69,6.64,17.77c.55,2.07-.06,3.35-1.66,3.5l-6.71-.22-10.69-.3c-2.13.08-2.13.08-11.71,17.74a2.35,2.35,0,0,1-2.13,1.2q-11.82-.24-24-.4c-3.43.22-3.43.22-8.92,14a2.84,2.84,0,0,1-2.69,1.8q-6.66-.06-13.4-.09c-1.66-.2-1.66-.2-8.8-7.34a7,7,0,0,0-4.89-2.16h-2.11a4.2,4.2,0,0,1-3.75-3S1907.67-196.83,1911.59-197.25Z" transform="translate(4.13 298.06)"/><path class="cls-6" d="M1852.41-297.89c18.5-.19,37-.22,54.94-.09,3.28.36,5.66,2.18,7.28,5.56l.6,1.58c0,.12.09.25.14.37a5.25,5.25,0,0,0,4.34,3.36c3.12,0,6.22.07,9.72.13a8,8,0,0,1,3.15,1.12c11.2,6.77,11.2,6.77,12.75,10q3.68,8.61,7,17.82l-2.43,0q-3.27-9.19-6.86-17.82a6.31,6.31,0,0,0-2.5-2.85c-9.23-5.64-9.23-5.64-10.53-5.81l-9.4-.11c-3.42-.39-5.87-2.29-7.47-5.82-.05-.12-.1-.25-.14-.37-.19-.53-.39-1.05-.58-1.58a5.1,5.1,0,0,0-4.23-3.25c-18.18-.13-36.88-.1-55.62.09a3,3,0,0,0-2.91,3.27l.09,1.57v.17a3.51,3.51,0,0,0,2.4,3.14c25.31,8.17,25.31,8.17,26.36,12.61q1,6.31,1.94,12.93a4.39,4.39,0,0,0,4.13,3.73c16.2,0,32.25,0,47.88.19,2.06-.21,2.8-1.42,2.28-3.7-.9-3.92.25-5.9,3.64-6.24l4.48.07c.33.87.66,1.75,1,2.63l-4.53-.07c-2,.2-2.65,1.39-2.11,3.65.93,3.94-.35,6-3.93,6.4-15.77-.18-32-.24-48.29-.2-3.86-.4-6.18-2.5-7.09-6.45q-.89-6.62-1.83-12.93a4.23,4.23,0,0,0-2.81-3.33c-25.27-8.1-25.27-8.1-25.79-12.4v-.17c0-.53,0-1.06-.07-1.58C1847.57-295.7,1849.21-297.52,1852.41-297.89Z" transform="translate(4.13 298.06)"/><path class="cls-6" d="M1687.7-239.08c1.81-4.65,3.64-9.22,5.66-13.66s3.54-6.15,7.72-6.55c2.25-.13,5.66-.26,7.22-.43s1.61-.66,2.81-1.84c19.52-22.25,19.75-22.29,23.54-23,14.27-.67,29.28-1.25,45.25-1.72a4.25,4.25,0,0,1,2.74,1.56c5.35,7.79,5.35,7.79,7,8.13,13.85-.38,28-.69,42.18-.91a5.35,5.35,0,0,1,4,1.73c12.92,13.88,12.92,13.88,15,14.18l12.43-.11c3.66.35,5.81,2.38,6.56,6.19.15,1.52.3,3.05.45,4.6l-2.66,0c-.14-1.55-.28-3.08-.42-4.61-.7-2.45-1.32-3-3.7-3.51l-12.54.12a6.1,6.1,0,0,1-4.38-1.86c-13.52-14-13.52-14-14.78-14.21-14.35.23-28.62.54-42.61.92a4.15,4.15,0,0,1-3.54-1.65c-5.63-7.9-5.63-7.9-6.92-8.16q-23.45.74-45.62,1.8a5.64,5.64,0,0,0-2.73,1.69c-21.1,22.89-18.86,22.8-21.4,23.32-2.32.13-7.2,0-9.12.48-2.18.54-3,1.18-4.12,3.73-1.94,4.45-3.71,9-5.43,13.7-.94,2.52-.8,3.6,1.15,3.52,1.15-.06,2.31-.11,3.48-.19,1.87-.14,2,.58,2.77,2.92l6.2,25.19c1.14,4.45,2.45,4.34,2.93,4.44l21-.93c2.91-.13,3.49.72,4.5,3.74,10.44,31.32,10.09,31.58,13.17,32l24.19-.84a6.29,6.29,0,0,0,2.64-1.07c20.06-18.82,19.42-18.23,19.92-20.56.07-1.3.14-2.57.22-3.87-.35-3-.93-3.66-3.54-4.18l-5.28.13a6.38,6.38,0,0,1-3.61-1.15c-4.17-3.19-2.85-12.23,4.85-13.28,10.7-.28,21.52-.52,33.27-.85a9,9,0,0,0,2.15-1.48c23.74-32,23.74-32,26.66-32.42l10.7-.11c.06.93.11,1.87.17,2.82-3.6,0-7.19.07-11.58.22a8.06,8.06,0,0,0-2,1.36c-22.87,32.21-22.87,32.21-27.09,32.82q-16.43.3-32.59.74a8.27,8.27,0,0,0-1.47.35c-2.41,1.11-4.53,6.75.77,7.81l5.25-.14c4,.35,6.08,2.7,6.23,7.18-.08,1.39-.16,2.79-.23,4.19a8.5,8.5,0,0,1-2.63,5.66c-20.24,18.86-20.24,18.86-23,19.22q-12.27.36-24.29.78c-2.26-.28-4-.5-5.54-3.9-11.24-31.83-11.24-31.83-12.38-32-6.06.24-12,.46-17.89.76l-3.26.17a4.24,4.24,0,0,1-4.34-3.31c-.21-.89-.46-1.75-.68-2.58-5.1-19.36-6.52-24.77-7-26.3a.81.81,0,0,0-.82-.57l-2.93.17C1687.83-232.57,1686.15-234.09,1687.7-239.08Z" transform="translate(4.13 298.06)"/><path class="cls-7" d="M1816.55-158.94q.09-8.66.24-17.15a12.49,12.49,0,0,1,3.85-8.87c12-11.35,12-11.35,16.19-11.6l9.28-.13a7.33,7.33,0,0,0,5.68-2.85c13.73-17.45,13.73-17.45,18.44-17.76l15-.08c.1,1,.2,2,.29,3.08q-7.53,0-15.09.08a6.83,6.83,0,0,0-5.43,2.73c-13.63,17.65-13.63,17.65-18.83,18l-9.33.13a7.49,7.49,0,0,0-5.06,2.11c-11.7,11.09-11.7,11.09-12,15.09-.07,5.66,0,11.38-.18,17.15-.25,9.52,7.31,11.66,13.11,5.48,10.22-10.88,10.84-11.66,15.89-12l10.64-.11c4.86-.58,7.36-3.39,7.63-8.59l-.12-2.84c.37-7.12,3.72-11,10.26-11.71l7.77,0c4.69-.54,7-3.25,7-8.3q-1.66-18.64-3.74-35.74h2.77q2.18,17.09,3.93,35.74c0,7-3.19,10.8-9.73,11.55l-7.81,0c-4.73.55-7.14,3.31-7.38,8.45,0,.94.08,1.89.13,2.83-.36,7.24-3.83,11.15-10.62,11.95-3.56,0-7.12.07-10.67.12a7.74,7.74,0,0,0-5.82,2.81l-10.09,10c-5.39,5-11.6,2.58-14-.94S1816.56-158.82,1816.55-158.94Z" transform="translate(4.13 298.06)"/><path class="cls-6" d="M1639.87-65.4a6.18,6.18,0,0,1,4.46,1.64c11.4,10.35,21.67,21.85,32.93,32.34a13.09,13.09,0,0,1,3.87,8.29q2.4,24.59,6.85,48.46l-2.63.14q-4.53-23.83-7-48.46a9.12,9.12,0,0,0-2.1-5.06c-10.53-11.22-22.28-21.19-32.93-32.29a4.36,4.36,0,0,0-3.39-1.47c-3.29.22-6.75.47-9.93.7a17.13,17.13,0,0,1,.44-3.62C1633.49-64.95,1636.77-65.19,1639.87-65.4Z" transform="translate(4.13 298.06)"/><path class="cls-6" d="M1592.92-113.2l-1.1.11q.79-7,1.84-13.86l1.09-.11.88-.09q-1,6.9-1.82,13.86Z" transform="translate(4.13 298.06)"/><path class="cls-6" d="M1585.78-37.41a2.89,2.89,0,0,0,2.36,1l4-.41.23,0c1.71-.35,1.71-.35,9.18-20.88,1.41-3.31,2.86-4.71,5.35-5.18,6.77-.59,14.18-1.16,21.59-1.7a23.89,23.89,0,0,0-.31,3.62c-7.26.53-14.54,1.09-21.18,1.67-2.91.55-3,.57-9.58,20.88-1.19,3.28-2.47,4.68-4.72,5.15l-.23,0-4,.4a4.06,4.06,0,0,1-3.48-1.54,205.17,205.17,0,0,1-21.08-25.94l.76-3.12A204.36,204.36,0,0,0,1585.78-37.41Z" transform="translate(4.13 298.06)"/><path class="cls-6" d="M1551.48-89.35c.2-2.78.44-5.54.72-8.3.77-6.5,1.19-7.27,8.22-20.06,1-1.74,1.76-2.43,2.81-2.71q6.15-1,13.87-1.93c3,.28,4.24,3.59,3.76,10.13-.06.56-.13,1.13-.2,1.69-.63,4.66-1.16,5.63-4.6,12-2.36,4.82-1.87,12,1.74,12.33l5.31-.61c1.67-.34,1.67-.34,5.89-7.73a12.7,12.7,0,0,0,1.57-5.34c.25-3.23.54-6.46.87-9.67l1.1-.12.9-.09c-.33,3.22-.62,6.44-.87,9.68-.47,4.67-.66,5-5.32,13.17-1.44,2.38-2.52,3.3-4.28,3.66-1.82.2-3.6.4-5.32.61-4.38-.39-4.69-6.86-4.71-8.15-.09-6,1.12-8.19,4.38-14.19a14.71,14.71,0,0,0,1.61-5.3c.06-.57.13-1.13.2-1.7.32-4.42-.51-6.66-2.55-6.85q-7.74,1-13.9,1.94c-1.16.3-1.4.37-7.87,13.14a18.21,18.21,0,0,0-1.52,5.93c-.28,2.76-.51,5.53-.72,8.3-.22,4.17-.22,4.17,3,10.85l-.88,2.87-2.3-4.72C1552-81.64,1551.13-83.88,1551.48-89.35Z" transform="translate(4.13 298.06)"/><path class="cls-6" d="M1563.46-65.27l-.77,3.11c-4.38-7-4.64-7.43-7-11.83l.88-2.87C1560.53-69.81,1560.69-69.53,1563.46-65.27Z" transform="translate(4.13 298.06)"/><path class="cls-6" d="M1570.72-163q2.94-9.43,6.47-18.69l.3-.79c1.72-4.08,3.15-6.7,5-7s4.09-.63,6.69-.92a.8.8,0,0,1,.55.11,1.33,1.33,0,0,1,.54.86,1.17,1.17,0,0,1,.06.2c.83,3,2.2,5.87,2.52,9,.23,2.3-1.24,4.34-1,6.64a1,1,0,0,0,.28.67.86.86,0,0,0,.6.2l6.46-.9c.85-.05,1.91-1.31,2.55-2.23,5.24-7.41,8.39-11.94,11.66-16.71l1,1.54c-10,14.66-12.79,18.73-14.15,20.05a2.09,2.09,0,0,1-1.26.75c-2.53.27-5,.59-7.28.82a1.83,1.83,0,0,1-1.62-.7c-1.41-1.69,1-5.9.71-8.36-.79-2.54-1.53-5.36-2.31-7.9-.29-.93-.48-.88-.69-.88-2.35.33-4.13.55-6.47,1-.85.17-1.77,1.27-2.73,3.57-.11.26-.21.53-.31.79-2.34,6.16-4.48,12.39-6.56,19.13a4.41,4.41,0,0,0,0,2.8,75.13,75.13,0,0,0,4.68,10.4,20.11,20.11,0,0,0,1.07,1.82c.38.58.52,1.08,1,1l6.14-.83c1-.15,2.23-1.33,2.92-3.72.34-1.44.7-2.87,1.06-4.3.82-2.68,1.36-5,2.58-6.2.69-.69,1.27-.8,2.73-1,2.68-.3,5.48-.59,8.4-.89,6.27-.64,12.94-1.25,20-1.84,1.48.1,1.81.31,2.66,1.73a273.27,273.27,0,0,0,19,34.82c4.81,7.44,4.81,7.44,4.66,10.5q-.54,6.2-.92,12.47a9.74,9.74,0,0,1-1.79,5.18c-11.13,15.15-11.13,15.15-13,15.55l-14.38,1.08c-3.29.13-4.34-2.48-4.46-6.9l.18-3.85a4.41,4.41,0,0,0-.55-2.54c-8.14-13.3-8.14-13.3-8.77-13.39q-5.91.52-11.44,1.08l-.9.09-1.1.12c-1.71.17-3.39.35-5,.53.12-1.17.25-2.34.39-3.5l5-.53,1.1-.11.89-.09q5.52-.55,11.42-1.09c1.51.11,1.86.33,2.9,1.81,8.4,15.09,8.4,15.09,8.35,17.44-.06,1.28-.12,2.56-.17,3.85.07,2.78,1,3.47,2.27,3.52,4.66-.37,8.49-.46,13.65-1a3.07,3.07,0,0,0,2.56-1.25c10.18-14.72,10.18-14.72,10.32-15.78q.38-6.27.92-12.48a3.87,3.87,0,0,0-.54-2.5,298,298,0,0,1-20.14-35.11c-2.89-6.12-2.89-6.12-3.85-6.27-7.06.59-13.76,1.21-20,1.85-2.56.26-5,.52-7.64.85a3.3,3.3,0,0,0-1.07.27c-1,.46-1.71,1.11-2.43,3.47-.36,1.43-.71,2.87-1,4.3-1.22,4.26-2.88,6.66-5.07,7.33l-6.9.81c-.45,0-.69-.32-1-.76-.13-.22-.24-.45-.36-.67C1569.12-157.45,1569.44-158.57,1570.72-163Z" transform="translate(4.13 298.06)"/><path class="cls-6" d="M1552.08-163.63l.73-2v0c-.42,1.12-.82,2.23-1.22,3.34v0Z" transform="translate(4.13 298.06)"/><path class="cls-6" d="M1560.22-182.13a24.93,24.93,0,0,0-2.19,4.59l-.48,1.18q-2,4.77-3.73,9.59l-.24.19q1.77-4.81,3.72-9.59c.16-.39.32-.79.49-1.18,1.92-4.58,3.22-7.29,3.86-8,.25-.16.53-.31.84-.47.1.48.21,1-2.27,7.15l-.48,1.18c-.21.51-.41,1-.61,1.52-.7,1.78-1.12,2.86-2.41,8.82,0,.26-.09.61-.11.87a37.16,37.16,0,0,0,4.32-1c.63-.47.63-.47,2.59-4,1-1.85,2.48-5.4,2.23-7l-.53-.17c-.5-1.28.58-4.3,1.7-7.08.35-.82.7-1.64,1.06-2.45,2.62-5.8,2.77-6.15,12.64-16.42a4.33,4.33,0,0,1,1-.74c6.34-1.31,14.47-2.54,24.69-3.74.59,0,1.18,0,1.46.91,1.46,4.67,2.32,7.87,3.78,11.7l-2,2.66a114.07,114.07,0,0,1-3.7-11.46c-.15-.53-.29-.74-.73-.71l-.48,0c-10.21,1.2-18.23,2.42-24.26,3.63,0,0-1.33.79-9.33,9.9a18.65,18.65,0,0,0-2.29,4l-1,2.45a10.6,10.6,0,0,0-1.06,3.82,2.88,2.88,0,0,0,.66.43c.1.35.84,3.73-5.24,14.76-1.27,2.23-1.66,2.47-2.21,2.8q-2.4.61-4.17,1.23l-.26-.2c0-.59-.07-1.32,1.53-7.57a44.72,44.72,0,0,1,1.81-5.3c.2-.5.4-1,.61-1.52l.48-1.18a25.21,25.21,0,0,0,1.34-3.84A1.2,1.2,0,0,0,1560.22-182.13Z" transform="translate(4.13 298.06)"/><path class="cls-6" d="M1552.36-163.24l.25-.2q-4.12,11.59-7.3,23.44l-.26.2Q1548.23-151.65,1552.36-163.24Z" transform="translate(4.13 298.06)"/><path class="cls-6" d="M1540.88-24.53c.26-.31.46-.55.54-2.67.3-8.08.46-12.13,1.61-22.41.54-3.83,1.27-4.32,2-4.29,2.26,1.36,2.59,9.86,2.59,9.94.21,9.51-1.5,18.9-1.74,28.39-.09,2.66-.36,3.79-1,4.18q-1.3.39-2.37.78c-.19-1.17-.38-2.34-.55-3.51.71-.26,1.5-.52,2.38-.78.3-.29.55-.54.62-2.63.28-9.32.43-12.78,1.58-23.41.49-5.15-.71-9.93-1.89-9.3s-2.27,18.84-2.45,25c-.1,2.69-.34,3.83-.87,4.23-.42.14-.82.29-1.18.44-.16-1.17-.3-2.35-.44-3.53C1540.06-24.24,1540.45-24.38,1540.88-24.53Z" transform="translate(4.13 298.06)"/><path class="cls-6" d="M1537-22.58a8,8,0,0,1,2.2-1.3c.14,1.18.28,2.35.43,3.53a11.79,11.79,0,0,0-2.11,1.14,9.21,9.21,0,0,0,0,3.26,258.76,258.76,0,0,0,11.8,55.46c-.75-2.33-1.75-5.43-2.46-7.76l0-.06a257.37,257.37,0,0,1-9.76-49.21A19.69,19.69,0,0,1,1537-22.58Z" transform="translate(4.13 298.06)"/><path class="cls-6" d="M1538.42-37.19q.51,6.59,1.27,13.1c.14,1.18.28,2.36.44,3.53q.73,5.71,1.68,11.4c1.83,10.14,2.87,11.93,8.67,21.86,2.3,3.54,3.33,1.93,3.79,0a22.52,22.52,0,0,0,.32-5.22,237.94,237.94,0,0,1,1-30.77c2-15.37,7.74-8.24,13.27-1.33l-.47,3-4.18-5.21c-4-4.76-6.73-.91-7.4,5.36a245.93,245.93,0,0,0-1,30.74c.17,11.24-2.83,9-3.75,8.11-.53-.53-2.06-2.66-6.43-11-1.86-4-3-8.21-4.32-15.36q-.94-5.67-1.69-11.39c-.15-1.18-.29-2.35-.43-3.53q-.78-6.53-1.27-13.1Z" transform="translate(4.13 298.06)"/><polygon class="cls-6" points="1574.45 275.19 1577.83 279.07 1577.37 282.11 1573.98 278.23 1574.45 275.19"/><path class="cls-6" d="M1622.32,43.39c.39-5.37,2-7.75,5.81-8.5l.68,0c4.41,0,5.44,1.14,13.49,9.93,2.44,2.46,4.18,3.33,6.68,3.35q6.94-.49,14.26-1c2.49-.31,2.49-.31,9.19-9.73a7.64,7.64,0,0,1,5.87-3.29c15.28-.87,31.43-1.65,48.22-2.34l.54,3.4c-16.71.69-32.8,1.46-48,2.33-3.16.36-3.16.36-9.45,9.71a7,7,0,0,1-5.44,3.27q-7.28.47-14.19,1c-4.83,0-6.54-1.93-13.75-9.9-2.39-2.46-4.09-3.34-6.47-3.34l-.68.06c-4.75.93-4.71,3-4.35,19.12l-2.23.21C1622.32,50.91,1622.27,48.89,1622.32,43.39Z" transform="translate(4.13 298.06)"/><path class="cls-6" d="M1624.84,60.8a232,232,0,0,0,3.78,32.74c1.86,7.48,3.21,8.64,19.73,22.83,7.24,6.7,8.76,11.33,11.28,19a161.46,161.46,0,0,0,13.86,30c.56,1,1.09,1.9,1.37,2.57,1,2.58.16,3.22-.95,3.49l-5.54.67c-2.37,0-4.08,0-25.85-17.9a53.25,53.25,0,0,1-6.59-6.55c-.1-.12-.2-.25-.31-.37l1-.15.31.36c2,2.35,4.54,5.28,22.9,19.21,2.62,1.9,4.68,3.11,5.68,3,2.25-.25,3-.32,5-.55,1.11-.12,1.69-.19,1.92-.55.67-1,.37-1.71-1.11-4.29a164.23,164.23,0,0,1-15.53-34.95c-2.18-5.92-2.18-5.92-20.46-22.17-7-6.78-10.47-10.19-12.65-46.2Z" transform="translate(4.13 298.06)"/><path class="cls-6" d="M1558.29,34.15a3.48,3.48,0,0,1,.59-1.86c.85-.93,3.85-1.19,5.7-1.55,1.21-.5,1.68-1.62,1.52-5.5a233.22,233.22,0,0,1,2.25-46.87l.47-3c.54-3.15,1.28-7.34,1.89-10.48l1.5,1.84c-.59,3.12-1.36,7.3-1.89,10.43l-.46,3A233.51,233.51,0,0,0,1567.59,27c.13,4.59-.25,6-2,7.14-1.84.36-3.53.72-5.05,1.07-1.4.51-1,2.17-1,3.85,0,5.83,5.06,16.88,23.38,37.81a52.43,52.43,0,0,1,6.54,10,321.16,321.16,0,0,0,19,31.89c4,5.62,5,6.42,13.58,12.64a54,54,0,0,1,9.46,9.55q1.42,1.79,2.87,3.56l-1,.15q-1.45-1.77-2.88-3.55c-3.67-4.47-3.67-4.47-14-12.3a44.56,44.56,0,0,1-8.92-9.88A318.55,318.55,0,0,1,1588.47,87c-5.87-10.91-15.15-19.24-22.17-29.28a75.21,75.21,0,0,1-4.86-9C1560.1,46,1557.76,39,1558.29,34.15Z" transform="translate(4.13 298.06)"/><path class="cls-6" d="M1615.13-235.67c.5-.86,1-1.72,1.53-2.57l1.35-.17c-.51.85-1,1.71-1.52,2.57-2.69,4.88-3.5,7.65-3,10.24,3.56,9.48,3.75,9.47,6.13,9.37l1.26-.13c3.31-.34,6.75-.67,10.29-1,9.47-2.23,17-16.78,15.19-22.9-2.17-5.6-2.17-5.6-4.45-5.53l-6.13.6q-9.82,1-17.53,2c.6-1,1.21-1.9,1.82-2.84q7.64-1,17.39-2l6.07-.59c2-.06,2.92.48,3.68,2.22,1.93,5,3.33,8.66-1.28,17.17s-10.55,14-16.06,14.9c-3.56.33-7,.66-10.35,1l-1.27.13a3.26,3.26,0,0,1-3.51-1.76C1610.2-224.89,1609.72-225.93,1615.13-235.67Z" transform="translate(4.13 298.06)"/><path class="cls-7" d="M1793.75-108.58q11.26-.27,22.67-.48l3.21-.06q12.24-.22,24.56-.39c0,1.17,0,2.34,0,3.52q-11.9.15-23.75.37l-3.43.06q-11.71.23-23.32.5c-8.69,1.18-11,10.83-6.1,16.72C1803-71.63,1803-71.63,1806.81-71.5q11.73-.24,23.54-.44c0,1.21,0,2.41.05,3.61q-11.81.18-23.53.43a11.17,11.17,0,0,1-8.52-3.75c-16-17.32-16-17.32-16.39-22.11C1781.91-94.3,1780.93-106.84,1793.75-108.58Z" transform="translate(4.13 298.06)"/><path class="cls-6" d="M1681.6-176.51c0-.08.71-8.24,8-8.81q9.88-.51,20.16-1a4.64,4.64,0,0,1,3.55,1.35c10.68,10.58,10.68,10.58,10.4,14.44q-1.65,13.5-2.77,27.4l-2.89.12q1.14-13.89,2.84-27.4a4.13,4.13,0,0,0-1.05-3.51c-9.52-9.15-9.52-9.15-10.63-9.15q-10.32.47-20.25,1c-4,.69-5.61,5.92-3.43,8.23,8.35,7.44,8.35,7.44,9.64,7.43q11-.54,22.35-1c-.13,1.11-.27,2.22-.4,3.34q-11.43.48-22.43,1a4.59,4.59,0,0,1-3.28-1.1C1681.59-172.65,1681.27-172.81,1681.6-176.51Z" transform="translate(4.13 298.06)"/><path class="cls-7" d="M1766.94,49.65q13.92-.43,28.17-.78l4.14-.1q11.34-.27,22.82-.49c0,1.12.11,2.24.16,3.35-8.58.16-17.13.35-25.6.55l-4.11.1q-12.69.33-25.14.71c-12.26.71-15.92,12.94-12.07,23.42a26.23,26.23,0,0,0,6,9.19l5,4.7,2.37,2.22c13.9,13,14.17,13.29,20.71,13.48q10.9-.3,22-.55.16,1.51.33,3-11,.24-21.81.54c-5.33-.15-8.72-1.58-13.45-5.65L1768.65,96l-2.78-2.59c-12.76-10.3-14.26-18.91-14.26-18.91C1751.36,73.59,1746.53,51.36,1766.94,49.65Z" transform="translate(4.13 298.06)"/><path class="cls-7" d="M1835.12,208.52c1,0,9.38-.7,9.76-13.6q-.41-11.47-.82-25l2,0q.24,13.5.47,25c-.68,14.66-10.09,15.39-11.16,15.43l-2.43,0c-.12-.6-.23-1.2-.35-1.81Z" transform="translate(4.13 298.06)"/><path class="cls-8" d="M1830.8,208.61c.14.61.27,1.21.4,1.8-6.84.15-13.62.32-20.27.52l-.87-1.79C1816.87,208.93,1823.8,208.75,1830.8,208.61Z" transform="translate(4.13 298.06)"/><path class="cls-8" d="M2022.88-79.84l7.35.23,2.76.09q10.73.38,20.55.8l.06,3.59h0q-9.81-.43-20.55-.8l-2.76-.09-7.35-.24c-13.55-.41-27.59-.74-42-1h0c0-1.2,0-2.39-.06-3.59C1995.29-80.59,2009.33-80.26,2022.88-79.84Z" transform="translate(4.13 298.06)"/><path class="cls-7" d="M1972.39-81c0,1.2,0,2.4.06,3.59h0q-12.17-.18-24.61-.29h0l-.06-3.59Q1960.23-81.17,1972.39-81Z" transform="translate(4.13 298.06)"/><path class="cls-7" d="M2026-237.13c.46,1,.91,1.93,1.35,2.9q-6.42-.3-13.35-.58c-.41-1-.83-1.94-1.26-2.9Q2019.61-237.44,2026-237.13Z" transform="translate(4.13 298.06)"/><path class="cls-7" d="M1946.7,7.44c.1-1.16.19-2.32.28-3.48q.58-7.63,1-15.34c1-10.48,6.45-16,15.21-16.34l8.25.12c-.07,1.18-.13,2.35-.2,3.53l-8.23-.12c-6.61.16-11.26,4.09-12,12.84Q1950.61-3.65,1950,4c-.09,1.16-.19,2.32-.29,3.48q-.63,7.57-1.41,15.08l-3,0Q1946.08,15,1946.7,7.44Z" transform="translate(4.13 298.06)"/><path class="cls-8" d="M1872.36-248.57c.09.93.18,1.86.27,2.81l-11.87.08-.18-2.81Z" transform="translate(4.13 298.06)"/><path class="cls-7" d="M1885.91-248.63c.13.93.25,1.87.38,2.81l-10.27,0-.3-2.81Z" transform="translate(4.13 298.06)"/><path class="cls-7" d="M1758.09-212.52l14.68-.46c-.11,1-.23,2.06-.35,3.1-5,.14-9.88.3-14.76.46C1757.8-210.46,1758-211.49,1758.09-212.52Z" transform="translate(4.13 298.06)"/><path class="cls-7" d="M1744.61-212l7.63-.27c-.16,1-.32,2.06-.47,3.1l-7.67.27Z" transform="translate(4.13 298.06)"/><path class="cls-6" d="M1717.73-138.53l2.9-.12q-.47,6.32-.82,12.71l-2.93.12Q1717.26-132.21,1717.73-138.53Z" transform="translate(4.13 298.06)"/><path class="cls-7" d="M1716.61-120.79l2.94-.12q-1,19.75-.86,40.14l-3,.12Q1715.63-101,1716.61-120.79Z" transform="translate(4.13 298.06)"/><path class="cls-7" d="M1691.55,42.82c.49,2.19,1,4.39,1.5,6.57.37,1.56.74,3.11,1.12,4.65l-2.54.14c-.39-1.55-.76-3.1-1.14-4.65q-.78-3.28-1.52-6.58Z" transform="translate(4.13 298.06)"/><path class="cls-7" d="M1595.91-140l1.08-.11.87-.09q-.94,5.06-1.77,10.14l-.88.09-1.09.11Q1594.95-135,1595.91-140Z" transform="translate(4.13 298.06)"/><path class="cls-6" d="M1615.14-245.31l3.23-.45c-.62.94-1.23,1.88-1.84,2.83l-3.25.46C1613.89-243.42,1614.51-244.37,1615.14-245.31Z" transform="translate(4.13 298.06)"/><path class="cls-6" d="M1544.05-136l.26-.2q-1.23,4.8-2.29,9.66l-.26.2Q1542.83-131.16,1544.05-136Z" transform="translate(4.13 298.06)"/><path class="cls-7" d="M1552.94-165.89a2.69,2.69,0,0,1,.64-.69l.24-.19a4.78,4.78,0,0,1,.44-.29c-.41,1.11-.81,2.22-1.21,3.33l-.44.29-.25.2a2.82,2.82,0,0,0-.63.69C1552.13-163.66,1552.53-164.77,1552.94-165.89Z" transform="translate(4.13 298.06)"/><path class="cls-8" d="M1586.93,102.91c.54.06.89.11,2.58,1.87,5.83,6.14,7.27,7.53,12.66,12.73l1,2.31c-6.31-6-7.54-7.3-12.68-12.66-.89-.93-1.23-1.17-1.71-1.23-.49.6.41,2.68,2.75,6.35q5.85,8.84,12.29,17.26a36.89,36.89,0,0,0,3.28,3.79c13.63,13.19,14.71,13.34,15.23,13.41,1-.24,2-.48,3.19-.72l2.32,2.67c-1.15.24-2.2.48-3.39.72-.8-.21-1.63-.76-3.3-2.17-13.41-11.88-15.16-14.13-17.81-17.54q-6.45-8.41-12.31-17.25C1587.59,107,1586.2,103.81,1586.93,102.91Z" transform="translate(4.13 298.06)"/><path class="cls-7" d="M1633.38,144.6l1-.15,2.25-.34c.73.9,1.47,1.8,2.21,2.69l-2.23.34-1,.15c-2.6.41-4.93.83-7,1.24l-2.31-2.68Q1629.44,145.24,1633.38,144.6Z" transform="translate(4.13 298.06)"/><path class="cls-7" d="M1533.9-68a3.35,3.35,0,0,1,1.37-1.43c1.26-.09,2.11,10.41,2.44,19.44l-.49.2c-.37-9.35-1-15.21-1.88-16.06h-.15a3.29,3.29,0,0,0-1.37,1.43C1533.84-65.61,1533.87-66.8,1533.9-68Z" transform="translate(4.13 298.06)"/><path class="cls-7" d="M1619.59-193.92q3.93-.37,8-.73c-.36,1.07-.71,2.15-1.06,3.22q-4.14.36-8.09.73C1618.85-191.78,1619.21-192.85,1619.59-193.92Z" transform="translate(4.13 298.06)"/><path class="cls-6" d="M1568-196.17l1.11-.45a5.63,5.63,0,0,0,.82-1.2c2.41-4.14,2.41-4.14,2.79-4.87q4.34-8.56,9.2-16.8a13,13,0,0,0,1-2c1.46-4.44,3.87-8.43,5.77-12.67a3.25,3.25,0,0,0-.89.81l2-2.93a2.49,2.49,0,0,1,.88-.75c-.07.14-.17.33-.25.47-3.18,5.39-4.88,11.48-8,16.88s-6.29,11.09-9.18,16.79c-.63,1.25-1.06,2-1.69,3.12-3.36,5.79-3.36,5.79-4.06,6.37-.37.13-.72.27-1,.41C1567-194,1567.52-195.11,1568-196.17Z" transform="translate(4.13 298.06)"/><path class="cls-6" d="M1571.32-204.14c.54-1.06.81-1.63,1-2.1a59.85,59.85,0,0,1,5.26-11.1l.45-.75,1.52-2.49a63.52,63.52,0,0,0-5.71,11.84c-.13.33-.6,1.43-2.14,4.42-.52,1-1,2-1.53,2.94l-.38.19C1570.3-202.18,1570.8-203.16,1571.32-204.14Z" transform="translate(4.13 298.06)"/><path class="cls-7" d="M1565.34-194.56a6.2,6.2,0,0,1,1.74-1.18l-1.53,3.19a6.66,6.66,0,0,0-1.75,1.18C1564.31-192.44,1564.82-193.5,1565.34-194.56Z" transform="translate(4.13 298.06)"/><path class="cls-7" d="M1557.79,59.74c.41.19,1.49,2.27,3.51,6.73q1.9,4.31,3.94,8.53c.83,1.75,1.33,2.82,2,4.27,3.7,8.6,3.7,8.6,3.71,8.68a1.32,1.32,0,0,0-.23.59c-.56-1-1.12-2.09-1.67-3.14a1.36,1.36,0,0,1,.23-.6,6.11,6.11,0,0,0-.65-1.66c-1.21-2.64-2.31-5.33-3.56-8q-2-4.23-4-8.53c-1.41-3.12-1.67-3.39-1.9-3.63a.48.48,0,0,0-.11.26,31.7,31.7,0,0,0,1.54,3.95q2.69,6,5.6,11.87a.76.76,0,0,0-.09.18q-2.91-5.87-5.59-11.86c-1.89-4.3-2.84-6.84-2.85-7.55Z" transform="translate(4.13 298.06)"/><path class="cls-7" d="M1638.86-77.29l2.83-.19c0,1.2,0,2.39,0,3.59l-2.83.19c-8.82,1.6-8.62,13-8.6,13.5q.46,14.19,1.8,28.2l-2.4.18q-1.35-14-1.82-28.21C1627.8-61.57,1627.74-75.19,1638.86-77.29Z" transform="translate(4.13 298.06)"/><path class="cls-7" d="M1657.54-78.48c0,1.19,0,2.39,0,3.58-4.07.25-8.09.5-12,.76,0-1.2,0-2.4,0-3.59Q1651.44-78.12,1657.54-78.48Z" transform="translate(4.13 298.06)"/><path class="cls-7" d="M1545.53-66.85c1.62-.38,3.41-.75,5.37-1.13,1.2-.44,1.95-1.65,2.87-4.62l1-3.24.88-2.87c2.73-8.34,2.84-8.66,4.49-9.16l4.44-.66c2.17.23,3.25,2.94,3.28,8.28,0,1.06-.07,2.12-.1,3.18a20.06,20.06,0,0,1-.72,5c-.72,2.59-1.63,6.07-2.32,8.68l-.76,3.12c-.58,2.44-1.29,5.72-1.83,8.17l-1.24-1.8c.53-2.48,1.28-5.76,1.84-8.23l.77-3.11c2.7-10.59,2.7-10.59,2.74-11.6s.06-2.11.1-3.17c0-3.19-.66-4.8-2-4.94l-4.44.66c-.66.2-1.07.75-1.57,2.08l-1.76,5.38-.88,2.87c-1.83,6.21-2.58,8.79-4.8,9.6-2,.38-3.75.75-5.38,1.13C1545.51-64.46,1545.52-65.65,1545.53-66.85Z" transform="translate(4.13 298.06)"/><path class="cls-7" d="M1615.57,93.94c-7.92-34.09-3.85-35-1.9-35.48q4.29-.43,8.81-.85l2.23-.21,2.74-.24c.38,1.11.77,2.21,1.16,3.3l-3.77.34-2.2.2-7.74.75c-1.51.36-2.06,1.45-2,3.9a207.44,207.44,0,0,0,4.73,29.65,26.39,26.39,0,0,1,.57,3.65c.31,4.61-1.72,5.23-2.69,5.52l-2.66.36c-.58-1-1.16-2-1.73-3l2.67-.36C1616,100.77,1616.52,98.74,1615.57,93.94Z" transform="translate(4.13 298.06)"/><path class="cls-7" d="M1633.92,56.61c.37,1.1.74,2.21,1.12,3.31l-4.78.4q-.59-1.65-1.14-3.3Z" transform="translate(4.13 298.06)"/><path class="cls-8" d="M1606.23-243.85q3-.54,6.52-1.1c-.64.94-1.26,1.89-1.89,2.84q-3.58.56-6.57,1.12C1604.93-241.95,1605.58-242.9,1606.23-243.85Z" transform="translate(4.13 298.06)"/><path class="cls-8" d="M1845.68,146.3c0,.29,0,.58,0,.87q.13,7.59.26,14.69l-2.14,0q-.19-7.09-.41-14.69c0-.29,0-.58,0-.87Z" transform="translate(4.13 298.06)"/><path class="cls-8" d="M1953.94-253.52q2.6,7.44,5,15.24l-2.57-.05q-2.32-7.8-4.86-15.23Z" transform="translate(4.13 298.06)"/><path class="cls-8" d="M1570.72,89a1.36,1.36,0,0,0,.11.25l-.51-.94-1.17-2.22a.94.94,0,0,1-.1-.23C1569.6,86.89,1570.16,87.94,1570.72,89Z" transform="translate(4.13 298.06)"/><path class="cls-6" d="M1966.86-267.4l1.2,2.64q-7.74-.18-15.7-.34c-.35-.88-.7-1.76-1.06-2.64Q1959.19-267.59,1966.86-267.4Z" transform="translate(4.13 298.06)"/><circle class="cls-6" cx="1832.47" cy="-20.52" r="11.44" transform="translate(58.26 720.13) rotate(-13.33)"/><circle class="cls-6" cx="1749.54" cy="34.6" r="11.44" transform="translate(492.09 1545.31) rotate(-45)"/><circle class="cls-6" cx="1744.1" cy="-139.16" r="11.44" transform="translate(613.36 1490.57) rotate(-45)"/><circle class="cls-8" cx="1843.91" cy="49.55" r="11.44" transform="translate(20.11 594.89) rotate(-9.24)"/><circle class="cls-7" cx="1944.45" cy="52.84" r="11.44" transform="translate(371.89 1490.09) rotate(-37.41)"/><circle class="cls-7" cx="1715.96" cy="-58.11" r="11.44" transform="translate(547.81 1494.41) rotate(-45)"/><circle class="cls-6" cx="1714.25" cy="-17.71" r="11.44" transform="translate(518.74 1505.03) rotate(-45)"/><circle class="cls-8" cx="1922.86" cy="-78.48" r="11.44" transform="translate(622.81 1634.74) rotate(-45)"/><circle class="cls-6" cx="1977.83" cy="-44.47" r="11.44" transform="translate(614.86 1683.58) rotate(-45)"/><rect class="cls-7" x="1840.47" y="90.07" width="25.43" height="2.57"/><circle class="cls-8" cx="277.1" cy="550.87" r="11.44"/><circle class="cls-7" cx="334.08" cy="442.81" r="8.29"/><circle class="cls-7" cx="39.74" cy="391.76" r="11.44"/><rect class="cls-8" x="274.36" y="460.76" width="2.57" height="34.41"/><rect class="cls-7" x="286.04" y="441.53" width="25.43" height="2.57"/><circle class="cls-6" cx="84.01" cy="188.88" r="11.44" transform="translate(-104.82 412.79) rotate(-45)"/><circle class="cls-6" cx="158.39" cy="526.56" r="8.29"/><rect class="cls-8" x="179.37" y="525.28" width="119.38" height="2.57"/><rect class="cls-8" x="274.36" y="430.31" width="2.57" height="17.6"/><path class="cls-6" d="M311.48,229.79h-2.33v-2.57h2.33a18.39,18.39,0,0,0,18.37-18.38V189.6h2.57v19.24A21,21,0,0,1,311.48,229.79Z" transform="translate(4.13 298.06)"/><path class="cls-7" d="M232.74,226.53h-2.57V182.09a23.66,23.66,0,0,1,23.63-23.64h7.31V161H253.8a21.09,21.09,0,0,0-21.06,21.06Z" transform="translate(4.13 298.06)"/><path class="cls-6" d="M210.64,273.24H175.25v-2.57h35.39a19.55,19.55,0,0,0,19.53-19.53V242.3h2.57v8.84A22.13,22.13,0,0,1,210.64,273.24Z" transform="translate(4.13 298.06)"/><rect class="cls-6" y="526.55" width="100.16" height="2.57"/></g></g></g></g></g></svg>