<?xml version="1.0" encoding="utf-8"?>
<!-- Generator: Adobe Illustrator 25.0.0, SVG Export Plug-In . SVG Version: 6.00 Build 0)  -->
<svg version="1.1" id="Layer_1" xmlns="http://www.w3.org/2000/svg" xmlns:xlink="http://www.w3.org/1999/xlink" x="0px" y="0px"
	 viewBox="0 0 1920 1080" style="enable-background:new 0 0 1920 1080;" xml:space="preserve">
<style type="text/css">
	
		.st0{fill-rule:evenodd;clip-rule:evenodd;fill:#9ACEEF;stroke:#0072C8;stroke-width:0.75;stroke-linecap:round;stroke-linejoin:round;}
	.st1{fill:none;}
	
		.st2{fill-rule:evenodd;clip-rule:evenodd;fill:#D9E8FF;stroke:#0072C8;stroke-width:0.75;stroke-linecap:round;stroke-linejoin:round;}
	
		.st3{fill-rule:evenodd;clip-rule:evenodd;fill:#FFFFFF;stroke:#0072C8;stroke-width:0.75;stroke-linecap:round;stroke-linejoin:round;}
</style>
<g id="Layer_2_1_">
	<g id="Layer_1-2">
		<polygon class="st0" points="938.2,461.1 915.1,447.8 902,450.5 925.1,463.9 		"/>
		<path class="st1" d="M905.2,451l20.1,11.6l9.7-2L914.9,449L905.2,451L905.2,451z M925.1,465c-0.2,0-0.4-0.1-0.6-0.1l-23.1-13.4
			c-0.4-0.2-0.6-0.7-0.6-1.2c0.1-0.5,0.4-0.9,0.9-0.9l13.1-2.7c0.3,0,0.6,0,0.8,0.1l23.1,13.3c0.4,0.2,0.6,0.7,0.6,1.2
			c-0.1,0.5-0.4,0.9-0.9,1l-13.1,2.7C925.3,465,925.2,465,925.1,465L925.1,465z"/>
		<polygon class="st0" points="916.1,432.6 893,419.3 880.8,433.6 903.9,446.9 		"/>
		<path class="st1" d="M882.6,433.3l21,12.2l10.7-12.5l-21-12.2L882.6,433.3z M903.9,448.1c-0.2,0-0.4-0.1-0.6-0.2l-23.1-13.4
			c-0.6-0.3-0.7-1.1-0.4-1.6c0,0,0.1-0.1,0.1-0.1l12.2-14.3c0.4-0.4,1-0.5,1.5-0.2l23.1,13.3c0.3,0.2,0.5,0.5,0.6,0.8
			c0.1,0.4,0,0.7-0.3,1l-12.2,14.2C904.5,447.9,904.2,448.1,903.9,448.1z"/>
		<polygon class="st0" points="903.9,446.9 880.8,433.6 873.8,434.3 896.9,447.6 		"/>
		<path class="st1" d="M877.5,435l19.6,11.4l3-0.3l-19.7-11.3L877.5,435L877.5,435z M896.9,448.8c-0.2,0-0.4-0.1-0.6-0.1l-23.1-13.4
			c-0.4-0.2-0.7-0.8-0.6-1.2c0.1-0.5,0.5-0.8,1-0.9l6.9-0.7c0.2,0,0.5,0,0.7,0.1l23.1,13.3c0.6,0.3,0.8,1,0.6,1.5
			c-0.2,0.4-0.6,0.7-1,0.7L896.9,448.8L896.9,448.8z"/>
		<polygon class="st2" points="892.8,434.9 869.7,421.6 852,431.8 875.1,445.1 		"/>
		<path class="st1" d="M854.3,431.8l20.8,12l15.3-8.8l-20.8-12L854.3,431.8z M875.1,446.3c-0.2,0-0.4-0.1-0.6-0.2l-23.1-13.3
			c-0.6-0.3-0.7-1.1-0.4-1.6c0.1-0.2,0.2-0.3,0.4-0.4l17.7-10.2c0.4-0.2,0.8-0.2,1.1,0l23.1,13.3c0.4,0.2,0.6,0.6,0.6,1
			c0,0.4-0.2,0.8-0.6,1l-17.7,10.2C875.5,446.2,875.3,446.3,875.1,446.3z"/>
		<polygon class="st0" points="875.1,445.1 852,431.8 847.8,449.3 870.9,462.6 		"/>
		<path class="st1" d="M849.2,448.7l21,12.1l3.6-15.1l-21-12.1L849.2,448.7z M870.9,463.8c-0.2,0-0.4-0.1-0.6-0.1l-23.1-13.4
			c-0.5-0.3-0.7-0.8-0.5-1.3l4.2-17.5c0.1-0.6,0.8-1,1.4-0.9c0.1,0,0.2,0.1,0.3,0.1l23.1,13.4c0.4,0.3,0.7,0.8,0.6,1.3l-4.2,17.5
			c-0.1,0.4-0.3,0.7-0.7,0.8C871.3,463.7,871.1,463.8,870.9,463.8z"/>
		<polygon class="st2" points="870.9,462.6 847.8,449.3 840.9,456.6 864,469.9 		"/>
		<path class="st1" d="M842.8,456.3l21,12.1l5.3-5.6l-21-12.1L842.8,456.3L842.8,456.3z M864,471.1c-0.2,0-0.4-0.1-0.6-0.2
			l-23.1-13.4c-0.3-0.2-0.5-0.5-0.6-0.8c-0.1-0.4,0.1-0.7,0.3-1l6.9-7.3c0.4-0.4,1-0.5,1.4-0.2l23.1,13.3c0.3,0.2,0.5,0.5,0.6,0.9
			c0.1,0.4-0.1,0.7-0.3,1l-6.9,7.3C864.6,471,864.3,471.1,864,471.1z"/>
		<polygon class="st0" points="864,469.9 840.9,456.6 828.7,456.4 851.8,469.7 		"/>
		<path class="st1" d="M852.1,468.5l7.4,0.1l-18.9-10.9l-7.4-0.1L852.1,468.5z M864,471.1L864,471.1l-12.2-0.2
			c-0.2,0-0.4-0.1-0.6-0.2l-23.1-13.4c-0.5-0.3-0.7-0.8-0.5-1.3c0.1-0.5,0.6-0.9,1.1-0.8l0,0l12.2,0.2c0.2,0,0.4,0,0.5,0.2
			l23.1,13.3c0.5,0.3,0.7,0.8,0.5,1.3C865,470.8,864.5,471.1,864,471.1z"/>
		<polygon class="st2" points="851.8,469.7 828.7,456.4 816.2,477.9 839.4,491.3 		"/>
		<path class="st1" d="M817.8,477.5l21.1,12.2l11.3-19.6L829.1,458L817.8,477.5z M839.4,492.5c-0.2,0-0.4-0.1-0.6-0.2L815.7,479
			c-0.6-0.3-0.8-1-0.4-1.6c0,0,0,0,0,0l12.5-21.6c0.2-0.3,0.4-0.5,0.7-0.5c0.3-0.1,0.6,0,0.9,0.1l23.1,13.3c0.6,0.3,0.7,1,0.4,1.6
			l-12.5,21.6c-0.1,0.3-0.4,0.5-0.7,0.5C839.6,492.4,839.5,492.4,839.4,492.5z"/>
		<polygon class="st0" points="839.4,491.3 816.2,477.9 822.6,488.4 819.7,498 842.8,511.4 845.7,501.7 		"/>
		<path class="st1" d="M821,497.5l21,12.1l2.4-7.8l-5.9-9.8l-18.9-10.9l4,6.6c0.2,0.3,0.2,0.6,0.1,0.9L821,497.5L821,497.5z
			 M842.8,512.5c-0.2,0-0.4-0.1-0.6-0.2l-23.1-13.3c-0.5-0.3-0.7-0.8-0.5-1.3l2.7-9.2l-6-10c-0.3-0.6-0.1-1.3,0.4-1.6
			c0.4-0.2,0.8-0.2,1.2,0l23.1,13.4c0.2,0.1,0.3,0.2,0.4,0.4l6.3,10.4c0.2,0.3,0.2,0.6,0.1,0.9l-2.9,9.7c-0.1,0.3-0.4,0.6-0.7,0.7
			C843.1,512.5,842.9,512.5,842.8,512.5L842.8,512.5z"/>
		<polygon class="st2" points="842.8,511.4 819.7,498 806.6,510.4 829.7,523.8 		"/>
		<path class="st1" d="M808.5,510.2l21,12.1l11.3-10.7l-21-12.1L808.5,510.2z M829.7,524.9c-0.2,0-0.4-0.1-0.6-0.2L806,511.4
			c-0.3-0.2-0.5-0.5-0.6-0.9c0-0.4,0.1-0.7,0.4-1l13.1-12.4c0.4-0.4,0.9-0.4,1.4-0.2l23.1,13.3c0.6,0.3,0.7,1.1,0.4,1.6
			c0,0.1-0.1,0.2-0.2,0.2l-13.1,12.4C830.3,524.8,830,524.9,829.7,524.9z"/>
		<path class="st0" d="M829.7,523.8l-23.1-13.3v20.4l14.3,8.2l-4.7,13.1l23.1,13.3l6.3-17.7l-2.9-6.3l-13.1-7.5V523.8z"/>
		<path class="st1" d="M817.7,551.6l21,12.2l5.8-15.9l-2.5-5.6l-12.8-7.4c-0.4-0.2-0.6-0.6-0.6-1v-9.4l-20.8-12v17.7l13.7,7.9
			c0.5,0.3,0.7,0.9,0.5,1.4L817.7,551.6L817.7,551.6z M839.4,566.6c-0.2,0-0.4-0.1-0.6-0.2l-23.1-13.3c-0.5-0.3-0.7-0.9-0.5-1.4
			l4.3-12.1l-13.4-7.8c-0.4-0.2-0.6-0.6-0.6-1v-20.4c0-0.6,0.5-1.2,1.2-1.2c0.2,0,0.4,0.1,0.6,0.2l23.1,13.3c0.4,0.2,0.6,0.6,0.6,1
			v9.4l12.5,7.2c0.2,0.1,0.4,0.3,0.5,0.5l2.9,6.3c0.1,0.3,0.1,0.6,0,0.9l-6.3,17.7C840.3,566.3,839.8,566.6,839.4,566.6L839.4,566.6
			z"/>
		<polygon class="st0" points="870.9,557.7 847.8,544.3 852,557 875.1,570.3 		"/>
		<path class="st1" d="M853,556.2l20.1,11.6l-3.1-9.4l-20.1-11.6C849.9,546.9,853,556.2,853,556.2z M875.1,571.5
			c-0.2,0-0.4-0.1-0.6-0.2L851.4,558c-0.3-0.1-0.4-0.4-0.5-0.6l-4.2-12.7c-0.1-0.5,0-1,0.4-1.3c0.4-0.3,0.9-0.3,1.3-0.1l23.1,13.3
			c0.3,0.1,0.4,0.4,0.5,0.6l4.2,12.7c0.2,0.6-0.1,1.3-0.8,1.5C875.3,571.5,875.2,571.5,875.1,571.5z"/>
		<path class="st0" d="M876,516.3L853,503c1.3,0.7,2.8,0.9,4.2,0.6c5.1-0.9,9.6-6.1,12-10.4c2.2-4,4-10.2,2.1-14.7
			c-0.5-1.2-1.3-2.2-2.5-2.9l23.1,13.3c4.3,2.6,3.6,9.2,2.2,13.2c-1.8,5.6-6.5,12.3-12.2,14.3c-1.7,0.7-3.6,0.7-5.3,0L876,516.3z"/>
		<path class="st1" d="M876.6,515.3l0.4,0.2c1.4,0.5,3,0.5,4.4-0.1c5.3-1.9,9.8-8.2,11.5-13.6c1.4-4.2,1.7-9.8-1.7-11.9l-18.5-10.7
			c1.3,4.6-0.3,10.4-2.5,14.4c-2.3,4.3-6.8,9.6-12.1,10.9L876.6,515.3z M878.9,518.2c-1,0-2.1-0.2-3-0.6l-0.5-0.2l0,0L852.4,504
			c-0.5-0.3-0.7-1-0.4-1.6c0.3-0.6,1-0.8,1.6-0.5c0,0,0,0,0,0c1.1,0.6,2.3,0.8,3.5,0.5c4.5-0.8,8.8-5.5,11.1-9.9
			c2-3.8,3.8-9.6,2-13.6c-0.4-1-1.1-1.8-2-2.3c-0.6-0.3-0.7-1.1-0.4-1.6c0.3-0.6,1.1-0.7,1.6-0.4l23.1,13.3
			c4.6,2.8,4.5,9.4,2.8,14.6c-1.9,5.7-6.7,12.8-13,15C881.1,518,880,518.2,878.9,518.2z"/>
		<path class="st2" d="M891.8,507.2c-4.4,7.5-11.4,11.6-15.8,9.1c-4.4-2.5-4.3-10.7,0-18.2c4.4-7.5,11.4-11.6,15.8-9.1
			C896.2,491.5,896.2,499.6,891.8,507.2z M922.2,503.5l2.9-9.7l13.1-12.4v-20.4l-13.1,2.7l-2.9-6.4l6.3-17.7
			c-4.1-2.4-8.3-4.8-12.5-7.2l-12.2,14.3l-6.9,0.7l-4.2-12.7c-5.9,3.4-11.8,6.8-17.7,10.2l-4.2,17.5l-6.9,7.3l-12.2-0.2
			c-4.2,7.2-8.3,14.4-12.5,21.6l6.3,10.4l-2.9,9.7l-13.1,12.4v20.4l13.1-2.7l2.9,6.3l-6.3,17.7l12.5,7.2l12.2-14.3l6.9-0.7l4.2,12.7
			l17.7-10.2l4.2-17.5l6.9-7.3l12.2,0.2c4.2-7.2,8.3-14.4,12.5-21.6L922.2,503.5z"/>
		<path class="st1" d="M888.9,489.4c-1.6,0.1-3.1,0.5-4.4,1.4c-6.2,4.1-10.2,10.9-10.6,18.4c0,3,1,5.2,2.7,6.2s4.1,0.7,6.7-0.8
			c3.1-1.9,5.7-4.7,7.5-7.9l0,0c4-6.8,4.2-14.5,0.4-16.6C890.5,489.6,889.7,489.4,888.9,489.4L888.9,489.4z M878.9,518.2
			c-1.2,0-2.4-0.3-3.5-0.9c-2.5-1.4-3.9-4.3-3.9-8.2c0.4-8.3,4.8-15.8,11.8-20.3c3.4-1.9,6.6-2.2,9-0.8c5,2.9,5.2,11.6,0.4,19.8l0,0
			c-2,3.6-4.8,6.6-8.3,8.7C882.8,517.6,880.9,518.1,878.9,518.2L878.9,518.2z M840.8,564.9l6-16.8c0.1-0.3,0.1-0.6,0-0.9l-2.9-6.4
			c-0.2-0.5-0.8-0.8-1.3-0.6l-11.7,2.4v-18.5l12.7-12c0.1-0.1,0.2-0.3,0.3-0.5l2.8-9.6c0.1-0.3,0-0.7-0.1-0.9l-5.9-9.9l11.8-20.4
			l11.5,0.2l0,0c0.3,0,0.6-0.1,0.9-0.4l6.9-7.3c0.1-0.1,0.2-0.3,0.3-0.5l4-17l16-9.2l3.7,11.3c0.2,0.5,0.7,0.9,1.2,0.8l6.9-0.7
			c0.3,0,0.6-0.2,0.8-0.4l11.6-13.6l10.8,6.2l-6,16.8c-0.1,0.3-0.1,0.6,0,0.9l2.9,6.3c0.2,0.5,0.8,0.8,1.3,0.7l11.7-2.4V481
			l-12.7,12c-0.2,0.1-0.3,0.3-0.3,0.5l-2.9,9.7c-0.1,0.3-0.1,0.7,0.1,0.9l5.9,9.9l-11.7,20.4l-11.5-0.2c-0.3,0-0.7,0.1-0.9,0.4
			l-6.9,7.3c-0.1,0.1-0.2,0.3-0.3,0.5l-4,17l-16,9.2l-3.7-11.3c-0.2-0.5-0.7-0.9-1.2-0.8l-6.9,0.7c-0.3,0-0.6,0.2-0.8,0.4
			l-11.6,13.5L840.8,564.9L840.8,564.9z M851.8,573.8c-0.2,0-0.4-0.1-0.6-0.2l-12.5-7.2c-0.5-0.3-0.7-0.9-0.5-1.4l6.2-17.3l-2.3-5.1
			l-12.2,2.5c-0.4,0.1-0.7,0-1-0.2c-0.3-0.2-0.4-0.6-0.4-0.9v-20.4c0-0.3,0.1-0.6,0.4-0.8l12.8-12.1l2.7-8.9l-6-10
			c-0.2-0.4-0.2-0.8,0-1.2l12.4-21.6c0.2-0.4,0.6-0.6,1-0.6l0,0l11.7,0.2l6.4-6.7l4.1-17.2c0.1-0.3,0.3-0.6,0.6-0.7l17.6-10.2
			c0.3-0.2,0.7-0.2,1-0.1c0.3,0.1,0.6,0.4,0.7,0.7l3.9,11.8l5.5-0.6l11.9-13.9c0.4-0.4,1-0.5,1.5-0.3l12.5,7.2
			c0.5,0.3,0.7,0.9,0.5,1.4l-6.1,17.2l2.3,5.1l12.1-2.5c0.4-0.1,0.7,0,1,0.2c0.3,0.2,0.4,0.5,0.4,0.9v20.4c0,0.3-0.1,0.6-0.4,0.8
			l-12.9,12.2l-2.6,8.9l6,10c0.2,0.4,0.2,0.8,0,1.2l-12.4,21.5c-0.2,0.4-0.6,0.6-1,0.6l-11.7-0.2l-6.4,6.7l-4.1,17.2
			c-0.1,0.3-0.3,0.6-0.5,0.7l-17.7,10.2c-0.3,0.2-0.7,0.2-1,0.1c-0.3-0.1-0.6-0.4-0.7-0.7l-3.9-11.8l-5.5,0.5l-11.9,14
			C852.5,573.7,852.2,573.8,851.8,573.8L851.8,573.8z"/>
		<path class="st3" d="M891.8,507.2c-4.4,7.5-11.4,11.6-15.8,9.1c-4.4-2.5-4.3-10.7,0-18.2c4.4-7.5,11.4-11.6,15.8-9.1
			C896.2,491.5,896.2,499.6,891.8,507.2z M906,515.4c12.2-21.1,12.2-43.9,0-50.9s-31.9,4.4-44.1,25.5c-12.2,21.1-12.2,43.9,0,50.9
			C874,547.9,893.8,536.5,906,515.4z"/>
		<path class="st1" d="M888.9,489.4c-1.6,0.1-3.1,0.5-4.4,1.4c-6.2,4.1-10.2,10.9-10.6,18.4c0,3,1,5.2,2.7,6.2s4.1,0.7,6.7-0.8
			c3.1-1.9,5.7-4.7,7.5-7.9l0,0c4-6.8,4.2-14.5,0.4-16.6C890.5,489.6,889.7,489.4,888.9,489.4L888.9,489.4z M878.9,518.2
			c-1.2,0-2.4-0.3-3.5-0.9c-2.5-1.4-3.9-4.3-3.9-8.2c0.4-8.3,4.8-15.8,11.8-20.3c3.4-1.9,6.6-2.2,9-0.8c5,2.9,5.2,11.6,0.4,19.8l0,0
			c-2,3.6-4.8,6.6-8.3,8.7C882.8,517.6,880.9,518.1,878.9,518.2L878.9,518.2z M897.8,463.5c2.7,0,5.3,0.6,7.6,1.9
			c5.5,3.2,8.5,10,8.5,19.2c0,9.4-3.2,20.1-9,30.2l0,0c-11.8,20.5-30.9,31.7-42.5,25c-11.6-6.7-11.4-28.8,0.4-49.3
			C872.4,474,886.6,463.5,897.8,463.5L897.8,463.5z M869.9,544c-3,0-6-0.7-8.6-2.2c-12.7-7.4-12.9-30.9-0.4-52.5
			c12.5-21.6,33-33.2,45.7-25.9c6.3,3.6,9.7,11.1,9.7,21.2c0,9.8-3.3,20.9-9.3,31.3l0,0C897,533.2,882,544,869.9,544z"/>
		<path class="st2" d="M891.8,507.2c4.3-7.5,4.3-15.7,0-18.2c-4.3-2.5-11.4,1.6-15.8,9.1c-4.4,7.6-4.3,15.7,0,18.2
			C880.4,518.8,887.4,514.7,891.8,507.2z M867.2,493c9.2-16,24.2-24.7,33.5-19.3c9.2,5.3,9.2,22.7,0,38.7
			c-9.2,16-24.2,24.7-33.5,19.3S857.9,509,867.2,493z"/>
		<path class="st1" d="M888.9,489.4c-1.6,0.1-3.1,0.5-4.4,1.4c-6.2,4.1-10.2,10.9-10.6,18.4c0,3,1,5.2,2.7,6.2s4.1,0.7,6.7-0.8
			c3.1-1.9,5.7-4.7,7.5-7.9l0,0c4-6.8,4.2-14.5,0.4-16.6C890.5,489.6,889.7,489.4,888.9,489.4L888.9,489.4z M878.9,518.2
			c-1.2,0-2.4-0.3-3.5-0.9c-2.5-1.4-3.9-4.3-3.9-8.2c0.4-8.3,4.8-15.8,11.8-20.3c3.4-1.9,6.6-2.2,9-0.8c5,2.9,5.2,11.6,0.4,19.8l0,0
			c-2,3.6-4.8,6.6-8.3,8.7C882.8,517.6,880.9,518.1,878.9,518.2L878.9,518.2z M867.2,493L867.2,493z M894.4,473.2
			c2,0,3.9,0.5,5.6,1.4c8.7,5,8.5,21.6-0.4,37.1c-8.9,15.4-23.2,23.9-31.9,18.9c-4.1-2.4-6.3-7.5-6.3-14.3c0-7.1,2.4-15.2,6.8-22.7
			l0,0C875.4,481.1,886,473.2,894.4,473.2z M873.3,534.3c-2.3,0-4.6-0.6-6.7-1.7c-4.8-2.8-7.5-8.6-7.5-16.4c0-7.5,2.5-16,7.1-23.9
			c9.5-16.5,25.3-25.4,35.1-19.8c9.8,5.6,10,23.7,0.4,40.3C894.1,526,882.6,534.3,873.3,534.3z"/>
		<path class="st1" d="M829.7,545.3c-0.2,0-0.4-0.1-0.6-0.1L806,531.8c-0.6-0.3-0.7-1-0.4-1.6c0.3-0.6,1-0.8,1.6-0.4c0,0,0,0,0,0
			l23.1,13.3c0.6,0.3,0.7,1,0.4,1.6c0,0,0,0,0,0C830.5,545.1,830.1,545.3,829.7,545.3z"/>
		<path class="st1" d="M845.6,502.9c-0.2,0-0.4-0.1-0.6-0.2L822,489.4c-0.5-0.4-0.6-1.1-0.2-1.6c0.3-0.4,0.9-0.5,1.3-0.4l23.1,13.3
			c0.6,0.3,0.7,1,0.4,1.6c0,0,0,0,0,0C846.4,502.7,846.1,502.9,845.6,502.9z"/>
		<polygon class="st2" points="1008.4,547.6 1027.1,536.8 1114.2,587.1 1095.5,597.8 		"/>
		<path class="st1" d="M1111.8,587.1l-84.7-48.9l-16.3,9.4l84.7,48.9L1111.8,587.1z M1094.9,598.9l-87-50.3c-0.4-0.2-0.6-0.6-0.6-1
			c0-0.4,0.2-0.8,0.6-1l18.6-10.9c0.4-0.2,0.8-0.2,1.2,0l87,50.2c0.4,0.2,0.6,0.6,0.6,1c0,0.4-0.2,0.8-0.6,1l-18.6,10.8
			c-0.2,0.1-0.4,0.2-0.6,0.2C1095.2,599,1095.1,598.9,1094.9,598.9L1094.9,598.9z"/>
		<polygon class="st0" points="1095.5,597.8 1114.2,587.1 1114.2,596.7 1095.5,607.5 		"/>
		<path class="st1" d="M1113,596v-6.9l-16.3,9.4v6.9L1113,596L1113,596z M1094.9,608.5c-0.3-0.2-0.5-0.6-0.5-1l-0.1-9.6
			c0-0.4,0.3-0.8,0.6-1l18.7-10.8c0.3-0.2,0.8-0.2,1.1,0c0.4,0.2,0.6,0.6,0.6,1l0.1,9.6c0,0.4-0.3,0.8-0.6,1l-18.7,10.8
			C1095.7,608.7,1095.3,608.7,1094.9,608.5L1094.9,608.5z"/>
		<polygon class="st3" points="1008.4,547.6 1095.5,597.8 1095.5,607.5 1008.5,557.2 		"/>
		<path class="st1" d="M1094.3,598.5l-84.7-48.9v6.9l84.8,48.9L1094.3,598.5z M1094.9,608.5l-87-50.2c-0.4-0.2-0.6-0.6-0.6-1v-9.6
			c0-0.4,0.2-0.8,0.5-1c0.4-0.2,0.8-0.2,1.2,0l87.1,50.3c0.3,0.2,0.6,0.6,0.6,1v9.6c0,0.4-0.2,0.8-0.6,1
			C1095.7,608.8,1095.3,608.8,1094.9,608.5L1094.9,608.5z"/>
		<polygon class="st2" points="1008.4,531 1027.1,520.2 1114.2,570.4 1095.5,581.2 		"/>
		<path class="st1" d="M1111.8,570.4l-84.7-48.9l-16.3,9.4l84.7,48.9L1111.8,570.4L1111.8,570.4z M1094.9,582.2l-87-50.2
			c-0.6-0.3-0.8-1-0.5-1.6c0.1-0.2,0.3-0.4,0.5-0.5l18.6-10.7c0.4-0.2,0.8-0.2,1.2,0l87,50.2c0.6,0.3,0.8,1.1,0.4,1.6
			c-0.1,0.2-0.3,0.3-0.4,0.4l-18.6,10.8C1095.7,582.4,1095.2,582.4,1094.9,582.2L1094.9,582.2z"/>
		<polygon class="st0" points="1095.5,581.2 1114.2,570.4 1114.2,580.1 1095.5,590.8 		"/>
		<path class="st1" d="M1113,579.4v-6.9l-16.3,9.4v6.9L1113,579.4L1113,579.4z M1094.9,591.9c-0.3-0.2-0.5-0.6-0.5-1l-0.1-9.6
			c0-0.4,0.3-0.8,0.6-1l18.7-10.8c0.3-0.2,0.8-0.2,1.1,0c0.4,0.2,0.6,0.6,0.6,1l0.1,9.6c0,0.4-0.3,0.8-0.6,1l-18.7,10.8
			C1095.8,592.1,1095.3,592.1,1094.9,591.9L1094.9,591.9z"/>
		<polygon class="st3" points="1008.4,531 1095.5,581.2 1095.5,590.8 1008.5,540.6 		"/>
		<path class="st1" d="M1094.3,581.9l-84.7-48.9v6.9l84.8,48.9L1094.3,581.9z M1094.9,591.9l-87-50.2c-0.4-0.2-0.6-0.6-0.6-1V531
			c0-0.4,0.2-0.8,0.5-1c0.4-0.2,0.8-0.2,1.2,0l87.1,50.3c0.3,0.2,0.6,0.6,0.6,1v9.6c0,0.4-0.2,0.8-0.6,1
			C1095.7,592.1,1095.3,592.1,1094.9,591.9z"/>
		<polygon class="st2" points="1008.4,514.3 1027.1,503.6 1114.2,553.8 1095.5,564.6 		"/>
		<path class="st1" d="M1111.8,553.8l-84.7-48.9l-16.3,9.4l84.7,48.9L1111.8,553.8z M1094.9,565.6l-87-50.2c-0.4-0.2-0.6-0.6-0.6-1
			c0-0.4,0.2-0.8,0.6-1l18.6-10.8c0.4-0.2,0.8-0.2,1.2,0l87,50.2c0.6,0.3,0.8,1,0.5,1.6c-0.1,0.2-0.3,0.3-0.5,0.5l-18.6,10.8
			C1095.7,565.8,1095.2,565.8,1094.9,565.6L1094.9,565.6z"/>
		<polygon class="st0" points="1095.5,564.6 1114.2,553.8 1114.2,563.4 1095.5,574.2 		"/>
		<path class="st1" d="M1113,562.8v-6.9l-16.3,9.4v6.9L1113,562.8L1113,562.8z M1094.9,575.2c-0.3-0.2-0.5-0.6-0.5-1l-0.1-9.6
			c0-0.4,0.3-0.8,0.6-1l18.7-10.8c0.3-0.2,0.8-0.2,1.1,0c0.4,0.2,0.6,0.6,0.6,1l0.1,9.6c0,0.4-0.3,0.8-0.6,1l-18.7,10.8
			C1095.7,575.4,1095.3,575.4,1094.9,575.2L1094.9,575.2z"/>
		<polygon class="st3" points="1008.4,514.3 1095.5,564.6 1095.5,574.2 1008.5,523.9 		"/>
		<path class="st1" d="M1094.3,565.2l-84.7-48.9v6.9l84.8,48.9L1094.3,565.2L1094.3,565.2z M1094.9,575.2l-87-50.2
			c-0.4-0.2-0.6-0.6-0.6-1v-9.7c0-0.4,0.2-0.8,0.5-1c0.4-0.2,0.8-0.2,1.2,0l87.1,50.2c0.3,0.2,0.6,0.6,0.6,1v9.6
			c0,0.4-0.2,0.8-0.6,1C1095.7,575.4,1095.3,575.4,1094.9,575.2L1094.9,575.2z"/>
		<polygon class="st2" points="1008.4,495.8 1027.1,485.1 1067.5,508.4 1048.8,519.2 		"/>
		<path class="st1" d="M1065.1,508.4l-38-22l-16.3,9.4l38,22L1065.1,508.4z M1048.3,520.2l-40.4-23.3c-0.6-0.3-0.8-1-0.5-1.6
			c0.1-0.2,0.3-0.4,0.5-0.5l18.6-10.8c0.4-0.2,0.8-0.2,1.2,0l40.4,23.3c0.3,0.2,0.5,0.6,0.5,1c0,0.4-0.2,0.8-0.5,1l-18.6,10.8
			c-0.2,0.1-0.4,0.2-0.6,0.2C1048.6,520.4,1048.4,520.3,1048.3,520.2L1048.3,520.2z"/>
		<polygon class="st0" points="1048.8,519.2 1067.5,508.4 1067.5,518 1048.9,528.8 		"/>
		<path class="st1" d="M1066.3,517.3v-6.9l-16.3,9.4v6.9L1066.3,517.3z M1048.3,529.8c-0.4-0.2-0.6-0.6-0.6-1v-9.7
			c0-0.4,0.2-0.8,0.6-1l18.6-10.8c0.5-0.3,1.2-0.2,1.5,0.3c0.1,0.2,0.2,0.4,0.2,0.7l0.1,9.6c0,0.4-0.3,0.8-0.6,1l-18.6,10.8
			C1049.1,530,1048.7,530,1048.3,529.8L1048.3,529.8z"/>
		<polygon class="st3" points="1008.4,495.8 1048.8,519.2 1048.9,528.8 1008.5,505.5 		"/>
		<path class="st1" d="M1047.7,519.8l-38.1-22v6.9l38.1,22V519.8L1047.7,519.8z M1048.3,529.8l-40.4-23.4c-0.4-0.2-0.6-0.6-0.6-1
			v-9.7c0-0.4,0.2-0.8,0.5-1c0.4-0.2,0.8-0.2,1.2,0l40.4,23.3c0.4,0.2,0.6,0.6,0.6,1v9.6c0,0.4-0.2,0.8-0.5,1
			C1049.2,530,1048.7,530,1048.3,529.8L1048.3,529.8z"/>
		<polygon class="st2" points="1008.4,479.2 1027.1,468.4 1067.5,491.8 1048.8,502.5 		"/>
		<path class="st1" d="M1065.1,491.8l-38-22l-16.3,9.4l38,22L1065.1,491.8L1065.1,491.8z M1048.3,503.5l-40.4-23.3
			c-0.6-0.3-0.8-1-0.5-1.6c0.1-0.2,0.3-0.4,0.5-0.5l18.6-10.8c0.4-0.2,0.8-0.2,1.2,0l40.4,23.3c0.3,0.2,0.5,0.6,0.5,1
			c0,0.4-0.2,0.8-0.5,1l-18.6,10.8c-0.2,0.1-0.4,0.2-0.6,0.2C1048.6,503.7,1048.4,503.7,1048.3,503.5z"/>
		<polygon class="st0" points="1048.8,502.5 1067.5,491.8 1067.5,501.4 1048.9,512.1 		"/>
		<path class="st1" d="M1066.3,500.7v-6.9l-16.3,9.4v6.9L1066.3,500.7L1066.3,500.7z M1048.3,513.2c-0.4-0.2-0.6-0.6-0.6-1v-9.7
			c0-0.4,0.2-0.8,0.6-1l18.6-10.8c0.4-0.2,0.8-0.2,1.2,0c0.3,0.2,0.5,0.6,0.5,1l0.1,9.6c0,0.4-0.3,0.8-0.6,1l-18.6,10.8
			C1049.1,513.4,1048.7,513.4,1048.3,513.2L1048.3,513.2z"/>
		<polygon class="st3" points="1008.4,479.2 1048.8,502.5 1048.9,512.1 1008.5,488.8 		"/>
		<path class="st1" d="M1047.7,503.2l-38.1-22v6.9l38.1,22V503.2z M1048.3,513.2l-40.4-23.4c-0.4-0.2-0.6-0.6-0.6-1v-9.7
			c0-0.6,0.5-1.1,1.1-1.2c0.2,0,0.4,0.1,0.6,0.2l40.4,23.3c0.4,0.2,0.6,0.6,0.6,1v9.6c0,0.4-0.2,0.8-0.5,1
			C1049.2,513.3,1048.7,513.3,1048.3,513.2L1048.3,513.2z"/>
		<polygon class="st2" points="1008.4,462.6 1027.1,451.8 1067.5,475.1 1048.8,485.9 		"/>
		<path class="st1" d="M1065.1,475.1l-38-22l-16.3,9.4l38,22L1065.1,475.1z M1048.3,486.9l-40.4-23.3c-0.6-0.3-0.8-1-0.5-1.6
			c0.1-0.2,0.3-0.4,0.5-0.5l18.6-10.8c0.4-0.2,0.8-0.2,1.2,0l40.5,23.4c0.3,0.2,0.5,0.6,0.5,1c0,0.4-0.2,0.8-0.5,1l-18.7,10.8
			c-0.2,0.1-0.4,0.2-0.6,0.2C1048.6,487.1,1048.4,487,1048.3,486.9z"/>
		<polygon class="st0" points="1048.8,485.9 1067.5,475.1 1067.5,484.8 1048.9,495.5 		"/>
		<path class="st1" d="M1066.3,484.1v-6.9l-16.3,9.4v6.9L1066.3,484.1z M1048.3,496.6c-0.4-0.2-0.6-0.6-0.6-1v-9.7
			c0-0.4,0.2-0.8,0.6-1l18.6-10.8c0.4-0.2,0.8-0.2,1.2,0c0.3,0.2,0.5,0.6,0.5,1l0.1,9.6c0,0.4-0.3,0.8-0.6,1l-18.6,10.8
			C1049.1,496.8,1048.7,496.8,1048.3,496.6L1048.3,496.6z"/>
		<polygon class="st3" points="1008.4,462.6 1048.8,485.9 1048.9,495.5 1008.5,472.2 		"/>
		<path class="st1" d="M1047.7,486.6l-38.1-21.9v6.9l38.1,21.9V486.6z M1048.3,496.6l-40.4-23.3c-0.4-0.2-0.6-0.6-0.6-1v-9.7
			c0-0.4,0.2-0.8,0.5-1c0.4-0.2,0.8-0.2,1.2,0l40.4,23.3c0.4,0.2,0.6,0.6,0.6,1v9.7c0,0.4-0.2,0.8-0.5,1
			C1049.2,496.7,1048.7,496.7,1048.3,496.6L1048.3,496.6z"/>
		<polygon class="st2" points="1055.8,489.9 1074.4,479.1 1114.2,502.1 1095.5,512.8 		"/>
		<path class="st1" d="M1111.8,502.1l-37.4-21.5l-16.2,9.4l37.3,21.5C1095.5,511.4,1111.8,502,1111.8,502.1z M1094.9,513.8
			l-39.7-22.9c-0.6-0.3-0.8-1-0.5-1.6c0.1-0.2,0.3-0.4,0.5-0.5l18.7-10.8c0.3-0.2,0.8-0.2,1.1,0l39.7,22.9c0.6,0.3,0.8,1.1,0.4,1.6
			c-0.1,0.2-0.3,0.3-0.4,0.4l-18.6,10.8C1095.7,514,1095.3,514,1094.9,513.8z"/>
		<polygon class="st0" points="1095.5,512.8 1114.2,502.1 1114.2,546.8 1095.5,557.6 		"/>
		<path class="st1" d="M1113,546.1v-42l-16.3,9.4v42L1113,546.1z M1094.9,558.6c-0.3-0.2-0.5-0.6-0.5-1l-0.1-44.8
			c0-0.4,0.3-0.8,0.6-1l18.7-10.8c0.3-0.2,0.8-0.2,1.1,0c0.4,0.2,0.6,0.6,0.6,1l0.1,44.8c0,0.4-0.3,0.8-0.6,1l-18.7,10.8
			C1095.7,558.7,1095.3,558.7,1094.9,558.6L1094.9,558.6z"/>
		<polygon class="st3" points="1055.8,489.9 1095.5,512.8 1095.5,557.6 1055.8,534.7 		"/>
		<path class="st1" d="M1094.3,513.5L1057,492v42l37.4,21.5C1094.4,555.5,1094.3,513.5,1094.3,513.5z M1094.9,558.6l-39.7-22.9
			c-0.3-0.2-0.5-0.6-0.5-1l-0.1-44.8c0-0.4,0.3-0.8,0.6-1c0.4-0.2,0.8-0.2,1.2,0l39.7,22.9c0.3,0.2,0.6,0.6,0.6,1v44.8
			c0,0.4-0.2,0.8-0.6,1C1095.7,558.8,1095.3,558.8,1094.9,558.6L1094.9,558.6z"/>
		<path class="st0" d="M1059.8,521v8.3c0.1,0.7,0.4,1.3,1,1.7l29.6,17.1c0.6,0.3,1,0.1,1-0.6v-14.9l-0.3-0.5c-1.1-1.5-2.6-2.3-3.6-2
			l-9.9,2.9c-1,0.3-2.4-0.4-3.4-1.8l-7.5-9.6c-1.1-1.4-2.5-2.1-3.5-1.8L1059.8,521z"/>
		<path class="st1" d="M1090.2,533l-0.1-0.2c-0.9-1.2-1.9-1.7-2.3-1.6l-9.9,2.9c-1.5,0.4-3.3-0.4-4.7-2.2l-7.5-9.6
			c-0.9-1.2-1.9-1.5-2.2-1.4l-2.5,0.9v7.5c0,0.3,0.2,0.5,0.4,0.7l28.8,16.6V533L1090.2,533z M1089.8,549.1l-29.6-17
			c-0.9-0.6-1.5-1.7-1.5-2.8V521c0-0.5,0.3-1,0.8-1.1l3.2-1.2c1.5-0.6,3.4,0.3,4.8,2.2l7.5,9.6c0.9,1.1,1.8,1.5,2.2,1.4l9.9-2.9
			c1.5-0.5,3.4,0.5,4.9,2.5l0.4,0.5c0.1,0.2,0.2,0.5,0.2,0.7v14.9c0,0.7-0.3,1.3-0.9,1.7c-0.2,0.2-0.5,0.2-0.8,0.2
			C1090.5,549.4,1090.2,549.3,1089.8,549.1z"/>
		<path class="st2" d="M1068.9,504.8c-2.7-1.6-5.1-0.3-5.1,3c0.2,3.6,2.1,6.9,5.1,8.9c2.9,1.6,5.2,0.3,5.2-3
			C1073.9,510.1,1072,506.7,1068.9,504.8z"/>
		<path class="st1" d="M1068.4,505.8L1068.4,505.8c-1-0.6-1.9-0.7-2.4-0.4c-0.7,0.5-1,1.4-0.9,2.3c0.2,3.2,1.8,6.1,4.5,7.9
			c0.7,0.9,1.9,1.1,2.8,0.4c0.7-0.6,1-1.5,0.6-2.4C1072.7,510.5,1071.1,507.6,1068.4,505.8z M1068.4,517.7c-3.4-2.2-5.6-5.9-5.8-9.9
			c0-2,0.7-3.6,2.1-4.4c1.5-0.8,3.4-0.6,4.8,0.4l0,0c3.4,2.2,5.6,5.9,5.8,9.9c0,2-0.7,3.6-2.1,4.4c-0.6,0.3-1.2,0.5-1.9,0.5
			C1070.3,518.5,1069.3,518.2,1068.4,517.7z"/>
		<polygon class="st0" points="900.7,512 881.9,501.2 881.9,649.9 900.6,660.7 		"/>
		<path class="st1" d="M883.6,648.9l15.2,8.8l0.1-144.7l-15.3-8.8L883.6,648.9L883.6,648.9z M900.6,662.5c-0.3,0-0.6-0.1-0.8-0.2
			L881,651.4c-0.5-0.3-0.9-0.9-0.9-1.5l0.1-148.7c0-0.6,0.3-1.2,0.9-1.5c0.5-0.3,1.2-0.3,1.7,0l18.7,10.8c0.5,0.3,0.9,0.9,0.9,1.5
			l-0.1,148.7c0,0.6-0.3,1.2-0.9,1.5C901.2,662.4,900.9,662.4,900.6,662.5L900.6,662.5z"/>
		<polygon class="st2" points="1029.4,437.8 1010.7,426.9 881.9,501.2 900.7,512 		"/>
		<path class="st1" d="M885.4,501.2l15.3,8.8l125.3-72.3l-15.2-8.8L885.4,501.2z M900.7,513.7c-0.3,0-0.6-0.1-0.9-0.2l-18.7-10.8
			c-0.8-0.5-1.1-1.5-0.7-2.3c0.2-0.3,0.4-0.5,0.7-0.7l128.8-74.3c0.5-0.3,1.2-0.3,1.7,0l18.7,10.8c0.5,0.3,0.9,0.9,0.9,1.5
			c0,0.6-0.3,1.2-0.9,1.5l-128.8,74.3C901.3,513.7,901,513.7,900.7,513.7z"/>
		<polygon class="st2" points="900.7,512 900.6,660.7 1029.3,586.4 1029.4,437.8 1013.2,447.1 		"/>
		<path class="st1" d="M902.4,513l-0.1,144.7l125.3-72.3l0.1-144.7L902.4,513z M900.6,662.5c-0.9,0-1.7-0.8-1.7-1.7l0.1-148.7
			c0-0.6,0.3-1.2,0.9-1.5l128.8-74.3c0.5-0.3,1.2-0.3,1.7,0c0.5,0.3,0.9,0.9,0.9,1.5l-0.1,148.7c0,0.6-0.3,1.2-0.9,1.5l-128.8,74.3
			C901.2,662.4,900.9,662.4,900.6,662.5z"/>
		<path class="st0" d="M931.8,511.7l-1.4,0.8l0,0l-5.2,3l0,0l-1.4,0.8c-1.4,0.9-2.3,2.5-2.4,4.2c0,42.5,0,69.9,0,107.7
			c0,1.5,1.1,2.2,2.4,1.4l1.4-0.8l0,0l5.2-3l0,0l1.4-0.8c1.4-0.9,2.3-2.5,2.4-4.2c0-37.8,0-65.2,0-107.7
			C934.3,511.6,933.2,511,931.8,511.7L931.8,511.7z M969.1,490.2l-1.4,0.8l0,0l-5.2,3l0,0l-1.4,0.8c-1.4,0.9-2.4,2.5-2.5,4.2
			c0,37.7,0,65.2,0,107.7c0,1.5,1.1,2.2,2.4,1.4l1.4-0.8l0,0l5.2-3l0,0l1.4-0.8c1.4-0.9,2.3-2.5,2.4-4.2c0-42.5,0-70,0-107.7
			c0-1.6-1.1-2.2-2.4-1.4H969.1z M1008.7,470.2c0-1.6-1.1-2.2-2.4-1.4l-1.4,0.8l0,0l-5.2,3l0,0l-1.4,0.8c-1.4,0.9-2.3,2.5-2.4,4.2
			c0,42.5,0,69.9,0,107.7c0,1.5,1.1,2.2,2.4,1.4l1.4-0.8l0,0l5.2-3l0,0l1.4-0.8c1.4-0.9,2.4-2.5,2.4-4.2
			C1008.7,540.1,1008.7,512.7,1008.7,470.2L1008.7,470.2z"/>
		<path class="st1" d="M1008.7,470.2L1008.7,470.2z M1007,470.4l-8,4.6c-0.9,0.6-1.5,1.6-1.6,2.7l0,107.4l8-4.5
			c0.9-0.6,1.5-1.6,1.6-2.7L1007,470.4L1007,470.4z M997.1,588.8c-0.5,0-1-0.1-1.5-0.4c-1-0.7-1.7-1.8-1.6-3.1l0-107.7
			c0.1-2.3,1.3-4.5,3.3-5.7l8.1-4.7c1.5-1,3.4-0.6,4.4,0.8c0.4,0.6,0.6,1.3,0.6,2.1l0,0v107.6c-0.1,2.3-1.3,4.5-3.3,5.7l-8.1,4.7
			C998.4,588.6,997.7,588.8,997.1,588.8L997.1,588.8z M969.8,491.6c0.1,0,0.2,0,0.3,0l-1.1-1.4L969.8,491.6L969.8,491.6z
			 M969.8,491.9l-7.9,4.6c-0.9,0.6-1.5,1.6-1.6,2.7v107.5l7.9-4.6c0.9-0.6,1.5-1.6,1.6-2.7V491.9L969.8,491.9z M959.8,610.2
			c-0.5,0-1-0.1-1.5-0.4c-1-0.7-1.7-1.8-1.6-3.1V499.1c0.1-2.3,1.3-4.5,3.3-5.7l8.1-4.7l0,0c1.4-1,3.4-0.7,4.4,0.8
			c0.4,0.6,0.6,1.4,0.6,2.1v107.7c-0.1,2.3-1.3,4.4-3.3,5.7l-8.1,4.7C961.2,610.1,960.5,610.3,959.8,610.2L959.8,610.2z
			 M931.8,511.7L931.8,511.7z M932.5,513.3l-7.9,4.6c-0.9,0.6-1.5,1.6-1.6,2.7v107.5l7.9-4.6c0.9-0.6,1.5-1.6,1.6-2.7L932.5,513.3
			L932.5,513.3z M922.6,631.7c-0.5,0-1-0.1-1.5-0.4c-1-0.7-1.6-1.8-1.6-3V520.6c0.1-2.3,1.3-4.5,3.3-5.7l8.1-4.7
			c1.4-1,3.4-0.7,4.4,0.8c0.4,0.6,0.6,1.4,0.6,2.1v107.6c-0.1,2.3-1.3,4.5-3.3,5.7l-8.1,4.7C924,631.5,923.3,631.7,922.6,631.7z"/>
		<polygon class="st3" points="996.4,553.2 988.7,548.8 1015.8,533.2 1023.5,537.6 		"/>
		<path class="st1" d="M992.1,548.8l4.3,2.5l23.6-13.6l-4.3-2.5L992.1,548.8z M996.4,555c-0.3,0-0.6-0.1-0.9-0.2l-7.7-4.5
			c-0.5-0.3-0.9-0.9-0.9-1.5c0-0.6,0.3-1.2,0.9-1.5l27.1-15.6c0.5-0.3,1.2-0.3,1.7,0l7.7,4.5c0.5,0.3,0.9,0.9,0.9,1.5
			c0,0.6-0.3,1.2-0.9,1.5l-27.1,15.6C997,554.9,996.7,555,996.4,555L996.4,555z"/>
		<polygon class="st2" points="996.4,572.8 988.7,568.3 988.7,548.8 996.4,553.2 		"/>
		<path class="st1" d="M990.4,567.4l4.3,2.5v-15.6l-4.3-2.5V567.4L990.4,567.4z M996.4,574.5c-0.3,0-0.6-0.1-0.9-0.2l-7.7-4.5
			c-0.5-0.3-0.9-0.9-0.9-1.5v-19.5c0-0.9,0.8-1.7,1.7-1.7c0.3,0,0.6,0.1,0.9,0.2l7.7,4.5c0.5,0.3,0.9,0.9,0.9,1.5v19.6
			C998.2,573.7,997.4,574.5,996.4,574.5C996.5,574.5,996.4,574.5,996.4,574.5z"/>
		<polygon class="st3" points="959.2,535.2 951.5,530.7 978.6,515.1 986.3,519.5 		"/>
		<path class="st1" d="M954.9,530.7l4.3,2.5l23.7-13.7l-4.3-2.4L954.9,530.7L954.9,530.7z M959.2,536.9c-0.3,0-0.6-0.1-0.9-0.2
			l-7.7-4.4c-0.8-0.5-1.1-1.5-0.7-2.3c0.2-0.3,0.4-0.5,0.7-0.7l27.1-15.6c0.5-0.3,1.2-0.3,1.7,0l7.7,4.5c0.8,0.5,1.1,1.5,0.6,2.4
			c-0.2,0.3-0.4,0.5-0.6,0.6L960,536.7C959.8,536.8,959.5,536.9,959.2,536.9L959.2,536.9z"/>
		<polygon class="st2" points="959.2,554.7 951.5,550.3 951.5,530.7 959.2,535.2 		"/>
		<path class="st1" d="M953.2,549.3l4.3,2.5v-15.6l-4.3-2.4L953.2,549.3L953.2,549.3z M959.2,556.5c-0.3,0-0.6-0.1-0.9-0.2l-7.7-4.4
			c-0.5-0.3-0.9-0.9-0.9-1.5v-19.6c0-0.6,0.3-1.2,0.9-1.5c0.5-0.3,1.2-0.3,1.7,0l7.7,4.5c0.5,0.3,0.9,0.9,0.9,1.5v19.6
			c0,0.6-0.3,1.2-0.9,1.5C959.8,556.4,959.5,556.5,959.2,556.5L959.2,556.5z"/>
		<polygon class="st3" points="921.9,589.9 914.2,585.5 941.3,569.8 949,574.3 		"/>
		<path class="st1" d="M917.7,585.5l4.3,2.5l23.7-13.6l-4.3-2.5L917.7,585.5L917.7,585.5z M921.9,591.6c-0.3,0-0.6-0.1-0.9-0.2
			l-7.7-4.5c-0.5-0.3-0.9-0.9-0.9-1.5c0-0.6,0.3-1.2,0.9-1.5l27.1-15.6c0.5-0.3,1.2-0.3,1.7,0l7.7,4.5c0.5,0.3,0.9,0.9,0.9,1.5
			c0,0.6-0.3,1.2-0.9,1.5l-27.1,15.6C922.5,591.5,922.2,591.6,921.9,591.6z"/>
		<polygon class="st2" points="921.9,609.5 914.2,605 914.2,585.5 921.9,589.9 		"/>
		<path class="st1" d="M915.9,604l4.3,2.5v-15.6l-4.3-2.5V604L915.9,604z M921.9,611.2c-0.3,0-0.6-0.1-0.9-0.2l-7.7-4.5
			c-0.5-0.3-0.9-0.9-0.9-1.5v-19.6c0-0.9,0.8-1.7,1.7-1.7c0.3,0,0.6,0.1,0.9,0.2l7.7,4.4c0.5,0.3,0.9,0.9,0.9,1.5v19.6
			C923.6,610.4,922.9,611.2,921.9,611.2L921.9,611.2z"/>
		<polygon class="st3" points="921.9,589.9 949,574.3 949,593.8 921.9,609.5 		"/>
		<path class="st1" d="M923.7,590.9v15.6l23.6-13.6v-15.6L923.7,590.9z M921.9,611.2c-0.3,0-0.6-0.1-0.9-0.2
			c-0.5-0.3-0.8-0.9-0.8-1.5v-19.6c0-0.6,0.3-1.2,0.9-1.5l27.1-15.6c0.5-0.3,1.2-0.3,1.7,0c0.5,0.3,0.9,0.9,0.9,1.5v19.6
			c0,0.6-0.3,1.2-0.9,1.5L922.8,611C922.5,611.1,922.2,611.2,921.9,611.2z"/>
		<polygon class="st3" points="959.2,535.2 986.3,519.5 986.3,539.1 959.2,554.7 		"/>
		<path class="st1" d="M960.9,536.2v15.6l23.6-13.7v-15.6L960.9,536.2z M959.2,556.5c-0.3,0-0.6-0.1-0.9-0.2
			c-0.5-0.3-0.9-0.9-0.9-1.5v-19.6c0-0.6,0.3-1.2,0.9-1.5l27.1-15.6c0.5-0.3,1.2-0.3,1.7,0c0.5,0.3,0.9,0.9,0.9,1.5v19.6
			c0,0.6-0.3,1.2-0.9,1.5L960,556.2C959.8,556.4,959.5,556.5,959.2,556.5z"/>
		<polygon class="st3" points="996.4,553.2 1023.5,537.6 1023.5,557.2 996.4,572.8 		"/>
		<path class="st1" d="M998.1,554.2v15.6l23.7-13.6v-15.6L998.1,554.2z M996.4,574.5c-0.3,0-0.6-0.1-0.9-0.2
			c-0.5-0.3-0.9-0.9-0.9-1.5v-19.6c0-0.6,0.3-1.2,0.9-1.5l27-15.6c0.5-0.3,1.2-0.3,1.7,0c0.5,0.3,0.9,0.9,0.9,1.5v19.6
			c0,0.6-0.3,1.2-0.9,1.5l-27.1,15.6C997,574.4,996.7,574.5,996.4,574.5z"/>
	</g>
</g>
</svg>
