<?xml version="1.0" encoding="utf-8"?>
<!-- Generator: Adobe Illustrator 25.0.0, SVG Export Plug-In . SVG Version: 6.00 Build 0)  -->
<svg version="1.1" id="Layer_1" xmlns="http://www.w3.org/2000/svg" xmlns:xlink="http://www.w3.org/1999/xlink" x="0px" y="0px"
	 viewBox="0 0 1920 1080" style="enable-background:new 0 0 1920 1080;" xml:space="preserve">
<style type="text/css">
	
		.st0{fill-rule:evenodd;clip-rule:evenodd;fill:#9ACEEF;stroke:#0072C8;stroke-width:0.75;stroke-linecap:round;stroke-linejoin:round;}
	.st1{fill:none;}
	
		.st2{fill-rule:evenodd;clip-rule:evenodd;fill:#FFFFFF;stroke:#0072C8;stroke-width:0.75;stroke-linecap:round;stroke-linejoin:round;}
	
		.st3{fill-rule:evenodd;clip-rule:evenodd;fill:#D9E8FF;stroke:#0072C8;stroke-width:0.75;stroke-linecap:round;stroke-linejoin:round;}
</style>
<g id="Layer_2_1_">
	<g id="Layer_1-2">
		<path class="st0" d="M976.2,412.7v6.5l-4.3,2.5l-4.8-2.8c-2.1-1.2-4.6-1.2-6.7,0l-2.2,1.3c-0.9,0.5-1.4,1.5-1.4,2.5V578
			c0,1,0.6,1.9,1.4,2.5l95.1,54.9c9.7,5.8,34.6,6.4,35-7.8V472.2l-0.2-0.6c-0.6-5.3-6.7-7.8-10.8-10.1c-30.3-17.6-60.6-35.1-91-52.6
			c-2.1-1.2-4.6-1.2-6.7,0l-2.1,1.3C976.7,410.6,976.1,411.6,976.2,412.7L976.2,412.7z"/>
		<path class="st1" d="M983,409.8c-0.8,0-1.7,0.2-2.4,0.7l-2.2,1.3c-0.3,0.2-0.5,0.5-0.5,0.8v6.6c0,0.7-0.4,1.3-1,1.6l-4.1,2.4
			c-0.6,0.4-1.3,0.4-1.9,0l-4.8-2.7c-1.5-0.9-3.3-0.9-4.8,0l-2.2,1.3c-0.3,0.2-0.5,0.5-0.5,0.8v155.2c-0.1,0.4,0.1,0.8,0.5,1
			l95.1,54.9c6.4,3.8,20.1,5.1,27.4,1.1c3.2-1.7,4.8-4.2,4.8-7.3V471.8c-0.5-3.6-4.5-5.8-8-7.7c-0.8-0.4-1.4-0.8-2.1-1.1l-90.9-52.6
			C984.7,410.1,983.9,409.8,983,409.8z M1052.3,637l-95.1-55c-1.4-0.8-2.3-2.4-2.2-4V422.7c0-1.7,0.8-3.2,2.2-4.1l2.2-1.3
			c2.7-1.6,5.9-1.6,8.6,0l3.8,2.2l2.4-1.5v-5.5c-0.1-1.7,0.9-3.3,2.4-4.1l2.1-1.3c2.7-1.5,5.9-1.5,8.6,0l91,52.6
			c0.6,0.4,1.3,0.7,1.9,1.1c4.1,2.2,9.2,5,9.9,10.3l0.2,156.3c-0.2,4.5-2.5,8.2-6.8,10.5c-3.7,2.1-8.6,2.9-13.5,2.9
			C1063.3,641,1056.6,639.5,1052.3,637z"/>
		<path class="st0" d="M1069.2,468c-30.6-17.6-61-35.3-91.6-52.9c-0.9-0.5-1.4-1.4-1.4-2.4v11.5l87.4,50.5c2.7,1.6,6.4,2.4,9.4,0.7
			c1.2-0.6,1.8-2,1.3-3.3C1073.8,470.1,1071.1,469.1,1069.2,468z"/>
		<path class="st1" d="M1069.2,468L1069.2,468z M977.9,417.5v5.6l86.5,49.9c1.1,0.6,4.6,2.4,7.6,0.8c0.4-0.2,0.6-0.7,0.5-1.2
			c-0.3-0.8-1.9-1.6-3.2-2.3c-0.3-0.2-0.8-0.4-1.1-0.6l0,0L977.9,417.5z M1062.7,476.3l-87.5-50.5c-0.6-0.3-1-0.9-1-1.6v-11.5
			c0-1,0.8-1.9,1.8-1.9c0,0,0.1,0,0.1,0l0,0c1,0,1.8,0.9,1.8,1.9c0,0.3,0.2,0.7,0.5,0.9l91.8,52.9l1,0.6c1.9,1,4.3,2.2,4.9,4.6
			c0.7,2-0.2,4.3-2.1,5.3c-1.5,0.8-3.1,1.2-4.8,1.2C1066.9,478.2,1064.6,477.5,1062.7,476.3L1062.7,476.3z"/>
		<path class="st0" d="M1032.1,467.8l16.6,9.6c5.1,3,8,5.1,13.9,6.2c6.7,1.3,14.3,0.4,19.9-2.8c5.6-3.2,7.3-8.5,4.5-12.7
			c-0.3-0.4-0.6-0.8-0.9-1.2c-1.6-1.8-3.8-2.9-6.1-4.1l-1.4-0.8l-12-6.9l0,0l-80.1-46.3c-2.1-1.2-4.6-1.2-6.7,0l-2.1,1.3
			c-1.4,0.8-1.9,2.5-1.1,3.9c0.3,0.5,0.6,0.8,1.1,1.1l92.8,53.5c1.8,1,3.8,1.8,4.1,4c0.1,1.1-0.5,2.1-1.4,2.7
			c-3,1.7-6.7,0.9-9.4-0.7L967.1,419c-2.1-1.2-4.6-1.2-6.7,0l-2.2,1.3c-0.9,0.5-1.4,1.5-1.4,2.5c0,1,0.6,2,1.4,2.5L1032.1,467.8z"/>
		<path class="st1" d="M983,409.8c-0.8,0-1.7,0.2-2.4,0.7l-2.2,1.3c-0.3,0.2-0.4,0.5-0.5,0.8c0.1,0.3,0.2,0.6,0.5,0.9l92.9,53.6
			l0.8,0.4c1.6,0.9,3.8,2.2,4.1,5c0.2,1.8-0.7,3.6-2.2,4.5c-3.2,1.9-7.5,1.6-11.3-0.7l-96.5-55.7c-1.5-0.9-3.3-0.9-4.8,0l-2.2,1.3
			c-0.3,0.2-0.5,0.5-0.5,0.8c0,0.4,0.2,0.7,0.5,0.9l73.9,42.7l0,0l19,11c3.8,2.3,6.2,3.8,10.8,4.6c6.5,1.3,13.7,0.2,18.6-2.6
			c2.3-1.1,4.1-3.1,4.8-5.6c0.3-1.5,0-3.1-0.8-4.4c-0.2-0.3-0.5-0.6-0.8-0.9c-1.3-1.2-2.8-2.3-4.5-3.1l-94.8-54.7
			C984.7,410.1,983.9,409.8,983,409.8z M1062.2,485.5c-5.2-1-8.3-2.8-12.1-5.1l-92.9-53.6c-1.4-0.9-2.3-2.4-2.2-4.1
			c0-1.7,0.8-3.2,2.2-4.1l2.2-1.3c2.7-1.6,5.9-1.6,8.6,0l96.4,55.7c1.1,0.6,4.6,2.4,7.7,0.8c0.3-0.2,0.5-0.5,0.5-0.9
			c-0.2-0.8-0.8-1.2-2.2-2l-93.7-54.2c-1.5-0.8-2.4-2.4-2.4-4.1c-0.1-1.7,0.9-3.3,2.4-4.1l2.1-1.3c2.7-1.5,5.9-1.5,8.6,0l80.1,46.3
			l14.5,8.4c2,1,3.8,2.3,5.4,3.8c0.4,0.4,0.8,0.9,1.1,1.4c1.5,2.1,2,4.8,1.4,7.3c-1,3.4-3.4,6.3-6.5,8c-4.5,2.5-9.6,3.7-14.8,3.7
			C1066.4,486.1,1064.3,485.9,1062.2,485.5z"/>
		<path class="st2" d="M971.9,421.7l4.3-2.5l97,56l-0.2,0.2c-3,1.8-6.7,0.9-9.4-0.7L971.9,421.7z"/>
		<path class="st1" d="M976.2,421.4l-0.6,0.3l88.9,51.3c1,0.6,2.2,1,3.3,1.3L976.2,421.4z M1062.7,476.3l-91.8-53
			c-0.6-0.3-1-0.9-1-1.6c0-0.7,0.4-1.3,1-1.6l4.3-2.5c0.5-0.3,1.2-0.3,1.8,0l97.2,56.1c0.6,0.3,0.9,1,0.8,1.6
			c-0.1,0.7-0.4,1.3-1,1.7c-1.5,0.8-3.1,1.2-4.8,1.2C1066.8,478.2,1064.6,477.5,1062.7,476.3L1062.7,476.3z"/>
		<path class="st2" d="M948,429v6.6l-4.3,2.5l-4.8-2.8c-2.1-1.2-4.6-1.2-6.7,0l-2.1,1.3c-0.9,0.5-1.5,1.4-1.4,2.5v155.3
			c0,1,0.5,2,1.4,2.4l94.9,54.9c9.9,5.8,34.6,6.3,35-7.8V487.9c-0.2-1.4-0.7-2.6-1.6-3.7c-1.8-2.5-4.6-3.7-7.2-5.3l-93.1-53.8
			c-2-1.2-4.5-1.2-6.5,0l-2.2,1.3C948.5,426.9,947.9,427.9,948,429L948,429z"/>
		<path class="st1" d="M954.8,426.1c-0.8,0-1.7,0.2-2.4,0.7l-2.1,1.3c-0.3,0.2-0.5,0.5-0.5,0.8v6.6c-0.1,0.7-0.4,1.2-1,1.6l-4.3,2.5
			c-0.6,0.4-1.3,0.4-1.9,0l-4.8-2.7c-1.5-0.9-3.3-0.9-4.8,0l-2.2,1.2c-0.3,0.2-0.5,0.5-0.5,0.8v155.2c-0.1,0.4,0.1,0.8,0.5,1
			L1026,650c6.4,3.8,20.1,5.1,27.4,1.1c2.9-1.3,4.8-4.1,4.9-7.3v-155l-0.2-0.7c-0.1-1-0.5-2-1.1-2.8c-1.3-1.8-3.3-2.8-5.3-4
			l-94.6-54.5C956.5,426.3,955.7,426.1,954.8,426.1L954.8,426.1z M1024.1,653.2L929,598.3c-1.4-0.9-2.2-2.4-2.2-4V439
			c0-1.7,0.9-3.2,2.4-4.1l2.1-1.3c2.6-1.6,6-1.6,8.6,0l3.8,2.2l2.4-1.4v-5.5c0-1.7,0.9-3.3,2.4-4.1l2.2-1.3c2.6-1.5,5.8-1.5,8.4,0
			l93,53.8l1.4,0.7c2.4,1.3,4.8,2.7,6.5,5c0.9,1.3,1.5,2.8,1.8,4.4l0.2,156.3c-0.2,4.6-2.5,8.2-6.8,10.5c-3.7,2-8.6,2.9-13.5,2.9
			C1035.1,657.3,1028.4,655.8,1024.1,653.2L1024.1,653.2z"/>
		<path class="st3" d="M1042.4,485.1c-31.1-17.9-62.1-35.8-93-53.7c-0.9-0.4-1.5-1.4-1.4-2.4v11.4l87.5,50.5
			c2.7,1.6,6.4,2.4,9.4,0.7c1.2-0.6,1.7-2,1.3-3.3C1045.6,486.6,1043.9,486,1042.4,485.1z"/>
		<path class="st1" d="M1041.5,486.7l-91.6-52.9v5.6l86.5,49.9c0.9,0.6,4.6,2.4,7.5,0.7c0.4-0.2,0.7-0.7,0.5-1.2
			c-0.2-0.6-0.8-1-2.1-1.7L1041.5,486.7L1041.5,486.7z M1034.5,492.6L947,442.1c-0.6-0.3-1-0.9-1-1.6V429c0-1,0.8-1.9,1.8-1.9
			c0,0,0.1,0,0.1,0l0,0c1,0,1.8,0.8,1.9,1.9c0,0.3,0.2,0.7,0.5,0.8l92.9,53.8l0,0l0.8,0.4c1.4,0.8,3.3,1.8,4,4.1
			c0.5,2.1-0.4,4.3-2.2,5.3c-1.5,0.8-3.1,1.2-4.8,1.2C1038.7,494.4,1036.4,493.8,1034.5,492.6L1034.5,492.6z"/>
		<path class="st2" d="M1003.9,484.1l17.4,10.1c4.1,2.3,7.2,4.4,11.8,5.5c7.2,1.6,15.3,0.8,21.2-2.5c5.2-3,7.2-7.7,5.1-11.7
			c-1.6-3.2-4.6-4.5-7.5-6.1l-8-4.7c-28.5-16.5-57.1-33-85.7-49.5c-2-1.2-4.5-1.2-6.5,0l-2.2,1.3c-1.4,0.8-1.8,2.5-1.1,3.8
			c0.3,0.5,0.6,0.8,1.1,1.1c30.6,17.7,61,35.3,91.6,53c2.1,1.1,5.1,2.3,5.3,4.6c0.1,1.1-0.5,2.1-1.4,2.7c-3,1.7-6.7,0.9-9.4-0.7
			l-96.5-55.8c-2.1-1.2-4.6-1.2-6.7,0l-2.1,1.3c-1.4,0.8-1.9,2.5-1.1,3.9c0.3,0.5,0.6,0.9,1.1,1.1L1003.9,484.1z"/>
		<path class="st1" d="M954.8,426.1c-0.8,0-1.7,0.2-2.4,0.7l-2.1,1.3c-0.3,0.2-0.5,0.5-0.5,0.8c0,0.3,0.2,0.7,0.5,0.8l91.6,53
			l1.1,0.6c1.9,1.1,4.8,2.5,5.1,5.5c0.1,1.8-0.8,3.6-2.4,4.4c-3.2,1.9-7.3,1.6-11.3-0.7l-96.5-55.8c-1.5-0.9-3.3-0.9-4.8,0l-2.2,1.3
			c-0.3,0.2-0.5,0.5-0.5,0.8c0,0.4,0.2,0.7,0.5,0.9l73.9,42.6l0,0l19.1,11c3.2,1.9,5.9,3.5,9.6,4.3c7,1.6,14.5,0.7,19.8-2.3
			c4.3-2.4,6.1-6.1,4.3-9.2c-1.1-2.3-3.2-3.4-5.4-4.7l-94.9-54.7C956.5,426.3,955.7,426.1,954.8,426.1L954.8,426.1z M1032.6,501.5
			c-3.7-1-7.3-2.6-10.5-4.8l-92.9-53.6c-1.5-0.9-2.4-2.4-2.4-4.1c0-1.7,0.9-3.2,2.4-4.1l2.1-1.3c2.6-1.6,6-1.6,8.6,0l96.5,55.7
			c0.9,0.6,4.6,2.4,7.5,0.7c0.3-0.2,0.5-0.5,0.5-0.9c0-1-1.6-1.8-3-2.5c-0.4-0.2-0.8-0.4-1.1-0.6l-91.8-53c-1.5-0.8-2.4-2.4-2.4-4.1
			c0-1.7,0.9-3.3,2.4-4.1l2.2-1.3c2.6-1.5,5.8-1.5,8.4,0l85.7,49.5l9.1,5.3c2.7,1.5,5.4,3,7,6.3c2.5,5,0.3,10.7-5.7,14.2
			c-4.6,2.5-9.7,3.7-14.9,3.6C1037.7,502.4,1035.1,502.1,1032.6,501.5L1032.6,501.5z"/>
		<path class="st2" d="M943.7,438l4.3-2.5l97,56l-0.2,0.1c-3,1.8-6.7,0.9-9.4-0.7L943.7,438z"/>
		<path class="st1" d="M948,437.7l-0.5,0.3l88.9,51.3c1,0.6,2,1,3.2,1.3L948,437.7z M1034.5,492.6l-91.8-53
			c-0.9-0.5-1.2-1.6-0.7-2.5c0.2-0.3,0.4-0.6,0.7-0.7l4.3-2.5c0.6-0.3,1.3-0.3,1.9,0l97,56c0.6,0.4,0.9,1,0.8,1.7
			c-0.1,0.7-0.4,1.3-1,1.7c-1.5,0.8-3.1,1.2-4.8,1.2C1038.7,494.4,1036.4,493.8,1034.5,492.6z"/>
		<path class="st3" d="M919.9,445.6v6.5l-4.3,2.5l-4.8-2.7c-2.1-1.2-4.6-1.2-6.7,0l-2.1,1.3c-0.9,0.5-1.5,1.5-1.4,2.5v155.3
			c-0.1,1.1,0.5,2.1,1.4,2.5l94.9,54.9c9.9,5.8,34.6,6.2,35-7.9V504.5c-0.3-1.8-1.2-3.5-2.5-4.9c-1.9-1.8-4.5-3-6.7-4.3
			c-30.9-17.8-61.8-35.6-92.7-53.5c-2-1.2-4.5-1.3-6.5,0l-2.3,1.3C920.4,443.5,919.9,444.5,919.9,445.6L919.9,445.6z"/>
		<path class="st1" d="M926.9,442.8c-0.9,0-1.8,0.2-2.5,0.6l-2.1,1.3c-0.3,0.2-0.5,0.5-0.5,0.9v6.6c-0.1,0.7-0.4,1.3-1,1.6l-4.3,2.5
			c-0.6,0.3-1.3,0.3-1.9,0l-4.8-2.8c-1.5-0.9-3.3-0.9-4.8,0l-2.2,1.3c-0.3,0.2-0.5,0.5-0.5,0.8v155.2c0.2,0.6,0.2,0.7,0.5,0.9
			l95.1,54.9c6.5,3.8,20.2,5.1,27.4,1.1c3.2-1.7,4.8-4.2,4.8-7.3l0.2-154.9l-0.2-0.8c-0.2-1.4-0.9-2.7-1.9-3.7
			c-1.5-1.2-3.1-2.3-4.8-3.2l-94.1-54.4C928.6,443,927.8,442.8,926.9,442.8z M996.1,669.8L901,614.9c-1.4-0.9-2.3-2.4-2.2-4.1V455.6
			c-0.1-1.7,0.9-3.3,2.4-4.1l2.1-1.3c2.7-1.6,5.9-1.6,8.6,0l3.8,2.2l2.4-1.3v-5.6c0-1.7,0.9-3.2,2.4-4.1l2.2-1.3
			c2.6-1.6,5.9-1.6,8.4,0l92.7,53.5l1.4,0.8c2,1,3.9,2.3,5.6,3.8c1.7,1.5,2.7,3.6,3,5.9l0.2,156.2c-0.2,4.5-2.5,8.2-6.7,10.6
			c-4.3,2-9,3-13.7,2.9C1007.1,673.9,1000.4,672.4,996.1,669.8z"/>
		<path class="st3" d="M1014.4,501.5L969,475.2l0,0l-47.8-27.6c-0.9-0.5-1.5-1.4-1.4-2.4v11.5l87.4,50.5c2.7,1.6,6.4,2.4,9.4,0.7
			c1.2-0.6,1.8-2,1.3-3.3C1017.4,502.9,1015.8,502.3,1014.4,501.5z"/>
		<path class="st1" d="M1014.4,501.5L1014.4,501.5z M921.7,450.1v5.6l86.5,49.9c1,0.6,4.6,2.4,7.5,0.7c0.3-0.2,0.8-0.4,0.5-1.2
			c-0.2-0.6-0.6-1-1.9-1.6l-0.8-0.5l0,0L921.7,450.1z M1006.3,508.9l-87.4-50.6c-0.5-0.4-0.8-1-0.8-1.6v-11.5
			c-0.1-0.9,0.6-1.8,1.6-1.8c0.1,0,0.1,0,0.2,0l0,0c1,0,1.8,0.8,1.9,1.9c0,0.3,0.2,0.7,0.5,0.8l93.2,53.8l0.6,0.4
			c1.8,0.7,3.2,2.2,3.8,4c0.6,2.1-0.4,4.3-2.2,5.4c-1.4,0.8-3,1.2-4.6,1.2C1010.6,510.8,1008.3,510.1,1006.3,508.9L1006.3,508.9z"/>
		<path class="st3" d="M975.7,500.4l18.8,10.8c3.7,2.2,5.7,3.6,10,4.7c7,1.8,15.5,1,21.5-2.4c5.6-3.2,7.3-8.2,4.8-12.4
			c-1.8-3-5.4-4.5-8.3-6.2l-12.3-7.1l0,0l-80.1-46.3c-2.1-1.2-4.6-1.2-6.7,0l-2.2,1.3c-0.9,0.5-1.5,1.5-1.4,2.5c0,1,0.5,1.9,1.4,2.4
			c30.6,17.7,61,35.2,91.6,52.9c1.9,1.2,4.8,2.2,5.3,4.4c0.2,1.2-0.3,2.4-1.4,3c-3,1.7-6.7,0.9-9.4-0.7l-96.5-55.8
			c-2-1.2-4.5-1.2-6.5,0l-2.2,1.3c-1.4,0.8-1.9,2.5-1.1,3.9c0.3,0.5,0.6,0.9,1.1,1.1L975.7,500.4z"/>
		<path class="st1" d="M926.8,442.4c-0.8,0-1.7,0.2-2.4,0.6l-2.2,1.3c-0.3,0.2-0.5,0.5-0.5,0.9c0,0.3,0.2,0.7,0.5,0.8l91.6,52.8
			l0.9,0.6c2.1,1.1,4.6,2.4,5.1,5.1c0.5,2-0.4,4-2.2,5c-3.2,1.9-7.3,1.5-11.3-0.7l-96.5-55.8c-1.4-0.9-3.2-0.9-4.6,0l-2.2,1.3
			c-0.5,0.3-0.6,0.9-0.3,1.4c0.1,0.1,0.2,0.2,0.3,0.3l73.7,42.6l0,0l20.2,11.7c2.5,1.6,5.2,2.8,8.1,3.5c6.8,1.8,14.8,0.8,20.2-2.2
			c2.2-1.1,3.9-3.1,4.6-5.5c0.3-1.4,0.1-3-0.6-4.2c-1.3-2.1-3.7-3.4-6.1-4.7l-94-54.2C928.5,442.7,927.6,442.4,926.8,442.4
			L926.8,442.4z M1004,517.6c-3.2-0.8-6.2-2.1-8.9-4L901,459.3c-2.2-1.3-3.1-4.1-1.8-6.3c0.4-0.8,1-1.4,1.8-1.8l2.2-1.3
			c2.6-1.6,5.9-1.6,8.5,0l96.5,55.7c1,0.6,4.6,2.4,7.5,0.7c0.4-0.1,0.6-0.5,0.5-0.9c0,0,0-0.1,0-0.1c-0.2-1-1.8-1.8-3.2-2.5
			c-0.3-0.2-0.8-0.4-1.1-0.6l-91.6-52.9c-2.3-1.5-2.9-4.5-1.5-6.7c0.4-0.6,0.9-1.1,1.5-1.5l2.2-1.3c2.6-1.5,5.8-1.5,8.4,0l80.3,46.3
			l13.7,8c2.7,1.5,5.7,3.1,7.5,6c1.4,2.1,1.8,4.7,1.1,7.1c-1,3.4-3.4,6.2-6.5,7.8c-4.5,2.5-9.5,3.7-14.6,3.6
			C1009.5,518.7,1006.7,518.3,1004,517.6L1004,517.6z"/>
		<path class="st2" d="M915.5,454.2l4.3-2.4l97,56l-0.2,0.1c-2.9,1.8-6.7,0.9-9.4-0.7L915.5,454.2z"/>
		<path class="st1" d="M919.8,454l-0.5,0.2l88.9,51.4c1,0.6,2.1,1,3.2,1.3L919.8,454z M1006.3,508.9l-91.8-53
			c-0.9-0.5-1.2-1.6-0.7-2.5c0.2-0.3,0.4-0.5,0.7-0.7l4.3-2.5c0.6-0.3,1.3-0.3,1.9,0l97,56c0.6,0.3,1,1,1,1.7
			c-0.1,0.7-0.5,1.4-1.1,1.7c-1.4,0.8-3,1.3-4.6,1.2C1010.6,510.7,1008.3,510.1,1006.3,508.9z"/>
		<path class="st3" d="M900.7,456.9v153.9c-0.1,1.1,0.5,2.1,1.4,2.5l94.9,54.9V512.7L900.7,456.9z"/>
		<path class="st1" d="M995.1,513.7l-92.7-53.5v150.6c0.2,0.6,0.2,0.7,0.5,0.9l92.2,53.3V513.7L995.1,513.7z M996.1,669.8L901,614.9
			c-1.4-0.9-2.3-2.4-2.2-4.1V456.9c0-0.7,0.4-1.3,1-1.6c0.5-0.4,1.2-0.4,1.8,0l96.5,55.7c0.6,0.4,0.9,1,1,1.6v155.6
			c-0.1,0.7-0.4,1.3-1,1.7c-0.3,0.2-0.7,0.2-1,0.2C996.7,670.1,996.4,670,996.1,669.8L996.1,669.8z"/>
		<path class="st2" d="M1024.7,643.5c1,0,1.9-0.8,1.9-1.8c0,0,0,0,0-0.1V529.1c0-1-0.8-1.8-1.9-1.8c0,0,0,0-0.1,0
			c-1,0-1.8,0.8-1.9,1.8v112.6C1022.9,642.7,1023.7,643.5,1024.7,643.5z"/>
		<path class="st0" d="M1048.2,566.3c1,0,1.9-0.9,1.9-1.9v-48.7c-0.1-1-0.9-1.9-1.9-1.9c-1,0-1.9,0.8-1.9,1.8c0,0,0,0.1,0,0.1v48.7
			c0,1,0.8,1.9,1.8,1.9C1048.1,566.3,1048.1,566.3,1048.2,566.3z"/>
		<path class="st0" d="M1054.2,578.9c1,0,1.9-0.8,1.9-1.8c0,0,0,0,0,0v-64.9c0-1-0.8-1.8-1.8-1.9c0,0-0.1,0-0.1,0
			c-1,0-1.8,0.8-1.8,1.8c0,0,0,0,0,0V577C1052.5,578,1053.2,578.8,1054.2,578.9z"/>
		<path class="st2" d="M1081.1,594.8c1,0,1.9-0.9,1.9-1.9v-96.4c0-1-0.9-1.8-1.9-1.8c-1,0-1.9,0.7-1.9,1.7c0,0,0,0.1,0,0.1v96.4
			C1079.2,593.9,1080,594.8,1081.1,594.8C1081.1,594.8,1081.1,594.8,1081.1,594.8z"/>
		<path class="st0" d="M919.9,634.9l-1.2,2.4c-1.1,1.9-3.3,2.7-5.4,3.1c-1.9,0.3-3.8,0.2-5.6-0.2c-1.8-0.3-3.3-1.4-4.3-2.9l-1.2-2.4
			C908,636.6,914.1,636.6,919.9,634.9z"/>
		<path class="st1" d="M904.2,636.5l0.2,0.3c0.6,1,1.7,1.8,3.6,2.3c1.7,0.4,3.4,0.5,5.2,0.2c2.3-0.4,3.9-1.3,4.6-2.6l0.1-0.2
			C913.4,637.4,908.7,637.4,904.2,636.5L904.2,636.5z M911,641.7c-1.2,0-2.4-0.2-3.6-0.5c-2.5-0.7-4.1-1.8-5-3.4l-1.2-2.4
			c-0.2-0.4-0.1-0.9,0.1-1.2c0.3-0.3,0.7-0.5,1.1-0.3c5.6,1.6,11.5,1.6,17.1,0c0.4-0.1,0.9,0,1.1,0.3c0.3,0.3,0.3,0.8,0.1,1.2
			l-1.2,2.4c-1,1.9-3.1,3.1-6.1,3.7C912.7,641.6,911.8,641.7,911,641.7z"/>
		<path class="st0" d="M924.8,632.9c5.2-3,6.8-7.3,4.9-11.1l-3.7-7.2h-29.8l-3.7,7.2c-2,3.8-0.3,8.1,4.9,11.1
			C904.9,637.2,917.2,637.2,924.8,632.9z"/>
		<path class="st1" d="M924.8,632.9L924.8,632.9z M896.8,615.6l-3.4,6.7c-1.8,3.4-0.1,7.1,4.5,9.7c7.3,4.2,19.1,4.2,26.4,0
			c4.6-2.6,6.2-6.3,4.5-9.7l-3.4-6.7H896.8z M911,637.2c-5,0.1-9.9-1.1-14.2-3.4c-5.6-3.2-7.6-8-5.3-12.5l3.7-7.2
			c0.2-0.4,0.6-0.6,1-0.6h29.7c0.4,0,0.8,0.2,1,0.6l3.7,7.2c2.3,4.5,0.3,9.3-5.3,12.5l0,0C920.9,636.1,916,637.3,911,637.2z"/>
		<path class="st2" d="M950.6,543.4c5.5,17.3-0.5,29.1-6.7,39.7c-3.9,6.7-6.7,7.6-8.8,15.2c-1.3,4.6-0.8,8.1-4.4,11.8
			c-9.9,10.2-30.4,10.5-39.2,0c-3.3-4-3.1-7.3-4.4-11.8c-2.2-7.6-4.9-8.5-8.8-15.2c-6.2-10.6-12.2-22.4-6.7-39.7
			c5.6-17.8,22.6-26.6,39.5-26.6S944.9,525.6,950.6,543.4z"/>
		<path class="st1" d="M911,517.8c-18.4,0-33.5,10.2-38.5,25.9c-5.2,16.5,0.1,27.8,6.6,38.8c1.1,1.9,2.4,3.7,3.8,5.5
			c2.4,2.9,4.2,6.3,5.2,10c0.4,1.2,0.6,2.3,0.8,3.4c0.6,2.9,1.1,5.3,3.4,8c3.7,4.4,10,7.1,17.2,7.4c8.1,0.3,15.7-2.5,20.5-7.4
			c2.4-2.5,2.8-4.8,3.3-7.7c0.2-1.2,0.5-2.4,0.8-3.7c1-3.7,2.7-7.1,5.2-10c1.4-1.7,2.6-3.6,3.7-5.5c6.5-11,11.8-22.3,6.6-38.8
			C944.5,528,929.4,517.8,911,517.8z M910.5,618.9h-1.2c-7.8-0.3-14.6-3.2-18.7-8.1c-2.6-3.1-3.2-5.9-3.9-8.9
			c-0.2-1-0.5-2.1-0.8-3.3c-0.9-3.4-2.6-6.6-4.8-9.3c-1.4-1.8-2.7-3.7-3.9-5.7c-6.7-11.5-12.3-23.2-6.8-40.5
			c5.3-16.6,21.2-27.4,40.5-27.4c19.4,0,35.3,10.8,40.5,27.4l0,0c5.5,17.3-0.1,29.1-6.8,40.5c-1.2,2-2.5,3.9-3.9,5.7
			c-2.3,2.7-3.9,5.9-4.8,9.3c-0.3,1.2-0.6,2.4-0.8,3.5c-0.6,3-1.1,5.9-3.9,8.8C926.5,615.9,918.7,618.9,910.5,618.9z"/>
		<path class="st2" d="M922.2,625.8c6.2-3.5,6.2-9.3,0-12.9s-16.1-3.5-22.3,0c-6.2,3.5-6.2,9.3,0,12.9
			C906,629.3,916,629.4,922.2,625.8z"/>
		<path class="st1" d="M911,611.3c-3.7-0.1-7.3,0.8-10.6,2.5c-2.6,1.5-4.1,3.5-4.1,5.5s1.5,4,4.1,5.5c5.8,3.4,15.4,3.4,21.2,0
			c2.6-1.5,4.1-3.5,4.1-5.5c0-2-1.4-4-4.1-5.5C918.4,612.1,914.7,611.3,911,611.3z M911,629.5c-4.1,0.1-8.1-0.9-11.7-2.8
			c-3.3-1.9-5.2-4.5-5.2-7.4s1.8-5.4,5.2-7.4c6.4-3.7,16.9-3.7,23.4,0c3.3,1.9,5.2,4.5,5.2,7.4s-1.8,5.5-5.2,7.4
			C919.1,628.6,915.1,629.6,911,629.5z"/>
		<path class="st0" d="M924.8,626.9c5.2-3,6.8-7.3,4.9-11.1l-3.7-7.2h-29.8l-3.7,7.2c-2,3.8-0.3,8.1,4.9,11.1
			C904.9,631.3,917.2,631.3,924.8,626.9z"/>
		<path class="st1" d="M896.8,609.7l-3.4,6.7c-1.8,3.4-0.1,7.1,4.5,9.7c7.3,4.2,19.1,4.2,26.4,0l0,0c4.6-2.6,6.2-6.2,4.5-9.7
			l-3.4-6.7H896.8z M911,631.3c-5,0.1-9.9-1.1-14.2-3.4c-5.6-3.2-7.6-8-5.3-12.5l3.7-7.2c0.2-0.4,0.6-0.6,1-0.6h29.7
			c0.4,0,0.8,0.2,1,0.6l3.7,7.2c2.3,4.5,0.3,9.3-5.3,12.5l0,0C920.9,630.2,916,631.4,911,631.3L911,631.3z"/>
		<path class="st3" d="M924.9,598.1c7.7,4.4,7.7,11.6,0,16c-7.7,4.4-20.1,4.4-27.8,0s-7.7-11.6,0-16
			C904.8,593.7,917.3,593.7,924.9,598.1z"/>
		<path class="st1" d="M911,595.9c-4.6-0.1-9.2,1-13.3,3.2c-3.4,1.9-5.2,4.4-5.2,7.1c0,2.6,1.9,5.1,5.2,7.1c7.4,4.3,19.3,4.2,26.7,0
			c3.4-1.9,5.2-4.4,5.2-7.1c0-2.6-1.8-5.1-5.2-7.1l0,0C920.3,596.9,915.7,595.8,911,595.9z M911,618.5c-5,0.1-10-1.1-14.4-3.4
			c-4-2.3-6.3-5.5-6.3-8.9s2.2-6.6,6.3-8.9c8-4.6,20.9-4.6,28.8,0c4.1,2.3,6.3,5.5,6.3,8.9c0,3.4-2.2,6.6-6.3,8.9
			C921,617.4,916.1,618.6,911,618.5z"/>
		<path class="st0" d="M930.6,606.7v6.8c-0.1,1.3-0.6,2.6-1.4,3.7c-2.7,3.8-8.2,5.9-12.6,6.6c-6.5,1.1-14.6,0.3-20.2-3.3
			c-2.3-1.5-4.5-3.7-5-6.5l-0.1-0.5v-6.8c0.1,0.7,0.3,1.5,0.5,2.1c1.7,4.1,6.8,6.5,10.8,7.6c7.1,1.9,16.6,1.3,22.8-2.7
			c2.3-1.5,4.5-3.7,5-6.5L930.6,606.7z"/>
		<path class="st1" d="M892.5,611.7l0.1,2.2c0.5,2.8,3,4.8,4.5,5.7c4.8,3.1,12.4,4.3,19.4,3.1c2-0.3,8.9-1.8,11.9-6.1
			c0.7-0.9,1.1-2,1.2-3.2v-1.7c-1,1.1-2.1,2.1-3.4,2.9c-7,4.5-17,4.6-23.7,2.8C900.3,616.8,895.4,615.2,892.5,611.7L892.5,611.7z
			 M911,625.3c-5,0-10.6-1-15.1-3.9c-3.1-2-5-4.5-5.4-7.2l-0.1-0.6v-6.9c0-0.6,0.4-1.1,1-1.1s1.1,0.4,1.1,1c0.1,0.6,0.2,1.3,0.5,1.9
			c1.9,4.5,8.2,6.5,10.1,7c7.5,2,16.5,1,22-2.6c1.5-0.9,4-2.9,4.5-5.8l0.1-0.5c0-0.6,0.5-1,1.1-0.9c0,0,0.1,0,0.1,0
			c0.6,0,1,0.5,1,1.1v6.8c-0.1,1.6-0.7,3.1-1.6,4.3c-3.4,4.9-10.5,6.6-13.3,7C914.9,625.2,912.9,625.3,911,625.3L911,625.3z"/>
		<polygon class="st0" points="918,598.3 918,604.2 918,604.3 918,604.3 917.9,604.4 917.9,604.4 917.9,604.5 917.8,604.5 
			917.8,604.5 917.7,604.6 907.7,610.3 907.7,610.4 907.6,610.4 907.6,610.4 907.5,610.4 907.4,610.5 907.3,610.5 907.3,610.5 
			907.2,610.5 907.1,610.5 907,610.5 907,610.5 906.9,610.4 906.8,610.4 906.7,610.4 906.7,610.4 906.6,610.3 906.5,610.3 
			905.8,609.9 904,608.8 903.9,608.8 903.9,608.7 903.8,608.7 903.8,608.7 903.8,608.6 903.8,608.6 903.7,608.5 903.7,602.6 
			903.7,602.6 903.8,602.6 903.8,602.7 903.8,602.7 903.8,602.8 903.9,602.8 903.9,602.9 904,602.9 905.8,604 906.5,604.4 
			906.6,604.4 906.7,604.4 906.7,604.5 906.8,604.5 906.9,604.5 907,604.5 907,604.5 907.1,604.5 907.2,604.5 907.3,604.5 
			907.3,604.5 907.4,604.5 907.5,604.5 907.6,604.5 907.6,604.5 907.7,604.4 907.7,604.4 917.7,598.6 917.8,598.6 917.8,598.6 
			917.9,598.5 917.9,598.5 917.9,598.4 918,598.4 918,598.4 		"/>
		<path class="st1" d="M904.8,608l2.3,1.3l9.8-5.6v-3.4l-8.6,5c-0.1,0-0.2,0.1-0.3,0.1l-0.3,0.1l-0.3,0h-0.3h-0.3l-0.3-0.1
			c-0.1,0-0.2-0.1-0.3-0.1l-1.4-0.8V608L904.8,608z M907.2,611.5h-0.3l-0.3-0.1c-0.1,0-0.2,0-0.3-0.1l-0.3-0.2l-2.6-1.5
			c0,0-0.3-0.2-0.3-0.2c0,0-0.2-0.2-0.2-0.3c0-0.1-0.1-0.2-0.1-0.3c0-0.1-0.1-0.2-0.1-0.4v-6c0-0.6,0.4-1,1-1.1c0.4,0,0.9,0.2,1,0.7
			l2.4,1.3l9.9-5.6c0.1-0.5,0.6-0.7,1.1-0.7c0.6,0.1,1,0.6,1,1.2v5.9c0,0,0,0.3,0,0.3c0,0.1-0.1,0.2-0.1,0.3c0,0.1-0.1,0.2-0.1,0.2
			l-0.3,0.3c-0.1,0.1-0.1,0.1-0.2,0.1l-10,5.8l-0.3,0.1l-0.3,0.1h-0.3L907.2,611.5z"/>
		<path class="st3" d="M915.1,596.5l2.7,1.5c0.2,0.1,0.3,0.3,0.2,0.4c0,0.1-0.1,0.2-0.2,0.2l-10,5.8c-0.4,0.2-0.8,0.2-1.1,0h-0.1
			l-0.7-0.4l-1.9-1.1c-0.3-0.2-0.3-0.5,0-0.7l10-5.8C914.3,596.3,914.7,596.3,915.1,596.5z"/>
		<path class="st1" d="M917.2,598.9L917.2,598.9z M905.6,602.6l1.5,0.9l9.1-5.1l-1.6-0.9L905.6,602.6L905.6,602.6z M907.2,605.6
			c-0.4,0-0.8-0.1-1.1-0.3l-2.6-1.5c-0.7-0.4-1-1.2-0.6-1.9c0.1-0.3,0.3-0.5,0.6-0.6l10-5.8c0.7-0.4,1.5-0.4,2.2,0l2.7,1.5
			c0.5,0.3,0.8,0.7,0.8,1.3c0,0.5-0.3,1-0.8,1.2l-10,5.8C908,605.5,907.6,605.6,907.2,605.6z"/>
		<path class="st0" d="M914.3,599.1L914.3,599.1c-0.6,0-1-0.5-1-1.1c0-14.3,5.2-34.2,6.8-40c0.2-0.6,0.7-0.9,1.3-0.8
			s0.9,0.7,0.8,1.3c-3.3,11.8-6.8,28.3-6.8,39.4C915.5,598.6,915,599.1,914.3,599.1C914.4,599.1,914.3,599.1,914.3,599.1z
			 M907.6,603c-0.6,0-1.1-0.5-1.1-1.1c0,0,0,0,0,0c-0.1-11.1-2.3-22.1-6.3-32.4c-0.2-0.6,0-1.2,0.6-1.4c0.6-0.2,1.2,0,1.4,0.6
			c4.2,10.6,6.4,21.8,6.5,33.2C908.7,602.5,908.2,603,907.6,603C907.6,603,907.6,603,907.6,603L907.6,603z"/>
		<path class="st0" d="M904.7,562.6c-1,0.9-1.6,2-1.9,3.3l-0.6,3.6c-0.1,0.3-0.1,0.5,0,0.8c1-0.9,1.6-2,1.9-3.3l0,0l0.6-3.6
			C904.8,563.1,904.8,562.9,904.7,562.6z M902,572.3c-0.4,0-0.8-0.1-1.1-0.3c-0.4-0.3-1.1-1.1-0.8-2.9l0.6-3.6
			c0.3-1.9,1.4-3.6,3-4.6c0.7-0.4,1.6-0.4,2.3,0c0.4,0.3,1.1,1.1,0.8,2.8l-0.6,3.6c-0.3,1.9-1.4,3.6-3,4.6
			C902.9,572.2,902.4,572.3,902,572.3z"/>
		<path class="st0" d="M908.9,559c-1,0.9-1.6,2-1.9,3.3l-1,5.8c-0.1,0.3-0.1,0.5,0,0.8c1-0.9,1.6-2,1.9-3.3l1.1,0.2l-1.1-0.2l1-5.8
			C909,559.6,909,559.3,908.9,559L908.9,559z M905.9,571c-0.4,0-0.8-0.1-1.1-0.3c-0.4-0.3-1.1-1.1-0.8-2.9l1-5.8
			c0.3-1.9,1.4-3.6,3-4.6c0.7-0.4,1.6-0.4,2.3,0c0.4,0.3,1.1,1.1,0.8,2.8l-1,5.8c-0.3,1.9-1.4,3.6-3,4.7
			C906.8,570.8,906.3,570.9,905.9,571L905.9,571z"/>
		<path class="st0" d="M912.9,564.5L912.9,564.5z M913.2,555.5c-0.9,0.9-1.6,2-1.8,3.3l-1.3,8c-0.1,0.3-0.1,0.5,0,0.8
			c0.9-0.9,1.6-2,1.9-3.3l1.3-8C913.3,556,913.3,555.8,913.2,555.5L913.2,555.5z M909.8,569.7c-0.4,0-0.8-0.1-1.1-0.4
			c-0.4-0.3-1.1-1.1-0.8-2.8l1.3-8c0.3-1.9,1.4-3.6,3-4.7c0.7-0.4,1.6-0.4,2.3,0c0.8,0.7,1.1,1.8,0.8,2.8l-1.3,8l0,0
			c-0.3,1.9-1.4,3.6-3,4.6C910.6,569.5,910.2,569.6,909.8,569.7L909.8,569.7z"/>
		<path class="st0" d="M917.1,554c-1,0.9-1.6,2-1.9,3.3l-1,5.8c-0.1,0.3-0.1,0.5,0,0.8c1-0.9,1.6-2,1.9-3.3l0,0l1-5.8
			C917.2,554.5,917.2,554.2,917.1,554L917.1,554z M914.1,565.9c-0.4,0-0.8-0.1-1.1-0.3c-0.4-0.3-1.1-1.1-0.8-2.9l1-5.8
			c0.3-1.9,1.4-3.6,3-4.7c0.7-0.4,1.6-0.4,2.3,0c0.4,0.3,1.1,1.1,0.8,2.8l-1,5.8c-0.3,1.9-1.4,3.6-3,4.6
			C914.9,565.8,914.5,565.9,914.1,565.9L914.1,565.9z"/>
		<path class="st0" d="M920.9,553c-0.9,0.9-1.6,2-1.9,3.3l-0.6,3.6c-0.1,0.3-0.1,0.6,0,0.8c1-0.9,1.6-2,1.9-3.3l0,0l0.6-3.6
			C921,553.5,921,553.2,920.9,553z M918.3,562.7c-0.4,0-0.8-0.1-1.1-0.4c-0.4-0.3-1.1-1.1-0.8-2.8l0.6-3.6c0.3-1.9,1.4-3.6,3-4.7
			c0.7-0.4,1.6-0.4,2.3,0c0.4,0.3,1.1,1.1,0.8,2.8l-0.6,3.6c-0.3,1.9-1.4,3.6-3,4.7C919.1,562.6,918.7,562.7,918.3,562.7
			L918.3,562.7z"/>
		<path class="st0" d="M911.3,510.1c-0.8,0-1.5-0.7-1.5-1.5v-25.9c0.1-0.8,0.8-1.4,1.7-1.3c0.7,0.1,1.2,0.6,1.3,1.3v25.9
			C912.8,509.4,912.1,510.1,911.3,510.1z"/>
		<path class="st0" d="M872.6,523c-0.4,0-0.8-0.2-1.1-0.4l-18.2-18.2c-0.6-0.6-0.6-1.5,0-2.1c0,0,0,0,0,0c0.6-0.6,1.5-0.6,2.1,0
			l18.2,18.1c0.6,0.6,0.6,1.5,0,2.1C873.4,522.8,873,523,872.6,523z"/>
		<path class="st0" d="M858.6,561.5h-25.4c-0.8,0-1.5-0.7-1.5-1.5s0.7-1.5,1.5-1.5h25.4c0.8,0,1.5,0.7,1.5,1.5
			S859.5,561.5,858.6,561.5z"/>
		<path class="st0" d="M950.1,523c-0.8,0-1.5-0.7-1.5-1.5c0-0.4,0.2-0.8,0.4-1l18.2-18.1c0.6-0.6,1.5-0.6,2.1,0
			c0.6,0.6,0.6,1.5,0,2.1c0,0,0,0,0,0l-18.2,18.2C950.9,522.8,950.5,523,950.1,523z"/>
		<path class="st0" d="M989.5,561.5h-25.4c-0.8,0-1.5-0.7-1.5-1.5s0.7-1.5,1.5-1.5h25.4c0.8,0,1.5,0.7,1.5,1.5
			S990.3,561.5,989.5,561.5z"/>
	</g>
</g>
</svg>
