<?xml version="1.0" encoding="utf-8"?>
<!-- Generator: Adobe Illustrator 25.0.0, SVG Export Plug-In . SVG Version: 6.00 Build 0)  -->
<svg version="1.1" id="Layer_1" xmlns="http://www.w3.org/2000/svg" xmlns:xlink="http://www.w3.org/1999/xlink" x="0px" y="0px"
	 viewBox="0 0 1920 1080" style="enable-background:new 0 0 1920 1080;" xml:space="preserve">
<style type="text/css">
	
		.st0{fill-rule:evenodd;clip-rule:evenodd;fill:#99CCED;stroke:#2572B8;stroke-width:0.75;stroke-linecap:round;stroke-linejoin:round;}
	
		.st1{fill-rule:evenodd;clip-rule:evenodd;fill:#D9E6F5;stroke:#2572B8;stroke-width:0.75;stroke-linecap:round;stroke-linejoin:round;}
	
		.st2{fill-rule:evenodd;clip-rule:evenodd;fill:#FFFFFF;stroke:#2572B8;stroke-width:0.75;stroke-linecap:round;stroke-linejoin:round;}
	
		.st3{fill-rule:evenodd;clip-rule:evenodd;fill:#9ACEEF;stroke:#0072C8;stroke-width:0.75;stroke-linecap:round;stroke-linejoin:round;}
	.st4{fill:none;}
	
		.st5{fill-rule:evenodd;clip-rule:evenodd;fill:#FFFFFF;stroke:#0072C8;stroke-width:0.75;stroke-linecap:round;stroke-linejoin:round;}
	
		.st6{fill-rule:evenodd;clip-rule:evenodd;fill:#D9E8FF;stroke:#0072C8;stroke-width:0.75;stroke-linecap:round;stroke-linejoin:round;}
</style>
<g id="Layer_2_1_">
	<g id="Layer_1-2">
		<path class="st0" d="M1034.5,558.8c-1.8,3.5-2.4,13.2,1,18.2c9.9,14.5,50.4,33.2,67.9,20.7c2.9-2,5-4.9,6-8.2
			c1.2-4.3,0.2-8.7-0.6-11.7c-1.2,5.6-5.2,9-10.1,11.4c-30,9.6-33.2-9.7-56.8-18.9C1037.3,566.8,1035.3,564.8,1034.5,558.8z"/>
		<path class="st1" d="M1033.1,563.9c-1.2,15.7,18.5,9.5,26.8,20.5c9.5,12.4,33.6,16.7,45.3,6.8c3.1-2.4,4.7-6.2,4.2-10.1
			c-0.2-3.4-1.8-6.8-3.8-10.3c-6.5-10.4-15.9-18.6-27-23.8c-6.1-2.8-11.3-4.4-17.1-3.8C1051.2,544.4,1034.1,552.4,1033.1,563.9z"/>
		<path class="st0" d="M1069.7,564.1c-0.6,0-1.1-0.2-1.6-0.6c-6.6-6-14.6-10.3-23.2-12.5c-1.2-0.4-2-1.6-1.6-2.9c0,0,0,0,0,0
			c0.3-1.2,1.5-2,2.7-1.7c0,0,0.1,0,0.1,0c9.4,2.4,18,7.1,25.2,13.5c1,0.9,1,2.4,0.2,3.4C1071,563.8,1070.4,564.1,1069.7,564.1z"/>
		<path class="st2" d="M1063.3,559.5c-1.2,0-2.2-0.8-2.4-1.9c-0.2-1.3-1.8-2.9-3.8-3.9c-2.2-1.2-4.2-1.2-5-0.9
			c-1.2,0.6-2.6,0-3.2-1.2s0-2.6,1.2-3.2c2.6-1.1,6-0.7,9.3,1c3.4,1.7,5.7,4.4,6.3,7.2c0.4,1.2-0.3,2.4-1.4,2.7
			c-0.1,0-0.2,0.1-0.4,0.1C1063.6,559.5,1063.4,559.5,1063.3,559.5z"/>
		<path class="st0" d="M955.6,580.4c0,6.1,0.4,9.6-3,15.1c-8.9,12.8-29.3,17.5-43.8,17.7c-14.7,0.2-34.5-3.9-44.4-15.6
			c-2.9-3.2-4.6-7.3-4.8-11.6v-5.7c0.4,5.1,2.4,9,5.8,12.8c11.1,11.7,32.3,15.3,47.8,14.2c13.3-0.9,31.3-5.9,39.4-17.5
			C954.4,587,955.5,583.7,955.6,580.4z"/>
		<path class="st0" d="M883.6,603.7c-23-7.6-30.9-24.6-17.6-37.9c13.3-13.3,42.8-17.8,65.6-10.1c23,7.7,31.1,24.7,17.8,37.9
			C936.1,606.9,906.6,611.4,883.6,603.7z"/>
		<polygon class="st0" points="880.5,589.1 874.1,585.3 874.1,567.6 880.5,571.3 		"/>
		<polygon class="st1" points="880.5,571.3 923.5,546.5 923.5,564.3 880.5,589.1 		"/>
		<path class="st1" d="M819.6,607l-6.1-3.5c-2.8-2.4-3-3.8-3.4-7.5V483.6c0.8-8.4,4.4-15.1,11.7-20.1l160.9-92.9
			c3.4-1.5,4.8-2.1,8.3-0.8l6.1,3.5c-3.4-1.3-4.9-0.7-8.1,0.8L827.8,467c-7.3,4.9-10.9,11.4-11.7,20v112.5
			C816.5,603.1,816.7,604.6,819.6,607z"/>
		<path class="st1" d="M827.8,467l161.1-92.9c6.3-3.7,11.5-0.7,11.5,6.7v112.4c0,7.4-5.2,16.4-11.7,20.1l-161.1,92.9
			c-6.3,3.7-11.5,0.7-11.5-6.7V487.1C816.1,479.7,821.4,470.7,827.8,467z"/>
		<path class="st0" d="M820.2,474.8l-6.1-3.5c-2.4,3.7-3.8,7.9-4,12.3V596c0.4,3.6,0.6,5.1,3.4,7.5l6.1,3.5c-2.8-2.4-3-3.8-3.4-7.5
			V487.1C816.4,482.7,817.8,478.4,820.2,474.8z"/>
		<path class="st0" d="M1071.3,618.8v7.3c-0.6,2.2-2,3.5-4,4.6l-134.9,77.8c-6.3,3.2-13.7,3.2-20,0l-46-26.8c-2-1.1-3.4-2.4-4-4.6
			v-7.3c0.6,2.2,2,3.5,4,4.6l46,26.8c6.3,3.2,13.7,3.2,20,0l134.9-77.8C1069.3,622.3,1070.7,621,1071.3,618.8z"/>
		<path class="st1" d="M866.4,662.9l134.6-77.9c5.7-3.2,14.5-3.1,20.2,0l46,26.8c5.6,3.2,5.6,8.4,0,11.6l-134.8,77.9
			c-5.5,3.2-14.3,3.2-20,0l-46-26.8C860.7,671.3,860.7,666.1,866.4,662.9z"/>
		<path class="st2" d="M930,657.7l6.7-3.9c1.6-0.8,3.5-0.8,5,0l6.7,3.9c1.4,0.8,1.4,2.1,0,2.9l-6.6,3.9c-1.6,0.8-3.5,0.8-5,0
			l-6.7-3.9C928.6,659.8,928.6,658.5,930,657.7z"/>
		<path class="st2" d="M903.5,673l-6.8,3.9c-0.8,0.4-1.1,1.3-0.8,2.1c0.2,0.3,0.4,0.6,0.8,0.8l6.9,3.9c1.5,0.8,3.3,0.8,4.8,0
			l6.7-3.9c1.4-0.8,1.4-2,0-2.9l-6.7-3.9C906.9,672.2,905.1,672.2,903.5,673z"/>
		<path class="st2" d="M920.1,682.6l-6.9,3.9c-0.8,0.4-1.1,1.3-0.8,2.1c0.2,0.3,0.4,0.6,0.8,0.8l6.9,3.9c1.5,0.8,3.3,0.8,4.8,0
			l6.9-3.9c0.8-0.4,1.1-1.3,0.8-2.1c-0.2-0.3-0.4-0.6-0.8-0.8l-6.9-3.9C923.4,681.8,921.6,681.8,920.1,682.6z"/>
		<path class="st2" d="M908.4,664.5l6.7-3.9c1.4-0.8,1.4-2.1,0-2.8l-6.7-3.9c-1.5-0.8-3.3-0.8-4.8,0l-6.8,3.9
			c-0.8,0.4-1.1,1.3-0.8,2.1c0.2,0.3,0.4,0.6,0.8,0.8l6.9,3.9C905.1,665.2,906.9,665.2,908.4,664.5z"/>
		<path class="st2" d="M925.1,654.9l6.7-3.9c1.4-0.8,1.4-2.1,0-2.8l-6.7-3.9c-1.6-0.8-3.4-0.8-5,0l-6.9,3.9
			c-0.8,0.4-1.1,1.3-0.8,2.1c0.2,0.3,0.4,0.6,0.8,0.8l6.9,3.9C921.7,655.6,923.6,655.6,925.1,654.9z"/>
		<path class="st2" d="M898.5,670.2l-6.7,3.9c-1.6,0.8-3.4,0.8-5,0l-6.7-3.9c-1.4-0.8-1.4-2.1,0-2.8l6.7-3.9c1.6-0.8,3.4-0.8,5,0
			l6.7,3.9C899.9,668.1,899.9,669.4,898.5,670.2z"/>
		<path class="st2" d="M913.2,667.3l6.9-3.9c1.6-0.8,3.4-0.8,5,0l6.7,3.9c1.4,0.8,1.4,2.1,0,2.9l-6.7,3.9c-1.6,0.8-3.4,0.8-5,0
			l-6.9-3.9c-0.8-0.4-1.1-1.3-0.7-2.1C912.6,667.7,912.9,667.5,913.2,667.3z"/>
		<path class="st2" d="M963.3,638.5l6.7-3.9c1.6-0.8,3.5-0.8,5,0l6.7,3.9c1.4,0.8,1.4,2.1,0,2.8l-6.9,3.9c-1.5,0.8-3.3,0.8-4.8,0
			l-6.7-3.9C961.9,640.6,961.9,639.3,963.3,638.5z"/>
		<path class="st2" d="M979.8,648.1l6.7-3.9c1.6-0.8,3.4-0.8,5,0l6.7,3.9c1.4,0.8,1.4,2,0,2.8l-6.7,3.9c-1.6,0.8-3.4,0.8-5,0
			l-6.7-3.9C978.4,650.2,978.4,648.9,979.8,648.1z"/>
		<path class="st2" d="M941.7,645.3l6.7-3.9c1.4-0.8,1.4-2.1,0-2.9l-6.7-3.9c-1.5-0.8-3.3-0.8-4.8,0l-6.9,3.9
			c-1.4,0.8-1.4,2.1,0,2.8l6.7,3.9C938.3,646,940.1,646,941.7,645.3z"/>
		<path class="st2" d="M958.2,635.7l6.9-3.9c0.8-0.4,1.1-1.3,0.8-2.1c-0.2-0.3-0.4-0.6-0.8-0.8l-6.9-3.9c-1.5-0.8-3.3-0.8-4.8,0
			l-6.9,3.9c-0.8,0.4-1.1,1.3-0.7,2.1c0.2,0.3,0.4,0.6,0.7,0.7l6.9,3.9C954.9,636.5,956.7,636.5,958.2,635.7z"/>
		<path class="st2" d="M946.5,648.1l6.9-3.9c1.5-0.8,3.3-0.8,4.8,0l6.9,3.9c0.8,0.4,1.1,1.3,0.8,2.1c-0.2,0.3-0.4,0.6-0.8,0.8
			l-6.9,3.9c-1.5,0.8-3.3,0.8-4.8,0l-6.9-3.9C945.1,650.2,945.1,648.9,946.5,648.1z"/>
		<path class="st2" d="M930,676.9l40-23.1c1.5-0.8,3.3-0.8,4.8,0l6.9,3.9c1.4,0.8,1.4,2.1,0,2.9l-40,23.1c-1.6,0.8-3.5,0.8-5,0
			l-6.7-3.9C928.6,679,928.6,677.7,930,676.9z"/>
		<path class="st2" d="M1018.4,606.6l6.9-3.9c1.5-0.8,3.3-0.8,4.8,0l6.9,3.9c1.4,0.8,1.4,2.1,0,2.8l-6.9,3.9c-1.5,0.8-3.3,0.8-4.8,0
			l-6.9-3.9c-0.8-0.4-1.1-1.3-0.8-2.1C1017.8,607,1018.1,606.7,1018.4,606.6z"/>
		<path class="st2" d="M1035.2,616.2l6.7-3.9c1.6-0.8,3.4-0.8,5,0l6.7,3.9c1.4,0.8,1.4,2.1,0,2.8l-6.7,3.9c-1.6,0.8-3.4,0.8-5,0
			l-6.7-3.9C1033.8,618.2,1033.8,617,1035.2,616.2z"/>
		<path class="st2" d="M1013.6,603.7l6.7-3.9c1.4-0.8,1.4-2.1,0-2.8l-6.7-3.9c-1.5-0.8-3.3-0.8-4.8,0l-6.9,3.9
			c-1.4,0.8-1.4,2.1,0,2.9l6.9,3.9C1010.2,604.5,1012,604.5,1013.6,603.7z"/>
		<path class="st2" d="M1001.9,616.2l6.9-3.9c1.5-0.8,3.3-0.8,4.8,0l6.7,3.9c1.4,0.8,1.4,2,0,2.9l-6.7,3.9c-1.5,0.8-3.3,0.8-4.8,0
			l-6.9-3.9C1000.4,618.2,1000.4,617,1001.9,616.2z"/>
		<path class="st2" d="M1018.4,625.8l6.9-3.9c1.5-0.8,3.3-0.8,4.8,0l6.9,3.9c1.4,0.8,1.4,2.1,0,2.9l-6.9,3.9c-1.5,0.8-3.3,0.8-4.8,0
			l-6.9-3.9c-0.8-0.3-1.2-1.3-0.8-2.1C1017.7,626.2,1018,625.9,1018.4,625.8z"/>
		<path class="st2" d="M980.3,622.9l6.9-3.9c0.8-0.4,1.1-1.3,0.8-2.1c-0.2-0.3-0.4-0.6-0.8-0.8l-6.9-3.9c-1.5-0.8-3.3-0.8-4.8,0
			l-6.9,3.9c-0.8,0.4-1.1,1.3-0.8,2.1c0.2,0.3,0.4,0.6,0.8,0.8l6.9,3.9C976.9,623.7,978.7,623.7,980.3,622.9z"/>
		<path class="st2" d="M996.8,613.3l6.9-3.9c1.4-0.8,1.4-2.1,0-2.8l-6.7-3.9c-1.6-0.8-3.4-0.8-5,0l-6.7,3.9c-1.4,0.8-1.4,2.1,0,2.8
			l6.7,3.9C993.5,614.1,995.3,614.1,996.8,613.3z"/>
		<path class="st2" d="M985.3,625.8l6.7-3.9c1.5-0.8,3.3-0.8,4.8,0l6.9,3.9c1.4,0.8,1.4,2.1,0,2.8l-6.9,3.9c-1.5,0.8-3.3,0.8-4.8,0
			l-6.7-3.9C983.9,627.8,983.9,626.6,985.3,625.8z"/>
		<path class="st2" d="M1001.9,635.4l6.9-3.9c1.5-0.8,3.3-0.8,4.8,0l6.7,3.9c1.4,0.8,1.4,2.1,0,2.8l-6.7,3.9c-1.5,0.8-3.3,0.8-4.8,0
			l-6.9-3.9C1000.4,637.5,1000.4,636.2,1001.9,635.4z"/>
		<path class="st2" d="M828.7,475.9l159.3-92c3-1.7,5.2-0.3,5.2,3v108.3c-0.1,3.7-2.1,7.1-5.2,9l-159.5,92c-2.8,1.6-5,0.3-5-3V484.9
			C823.7,481.2,825.6,477.9,828.7,475.9z"/>
		<polygon class="st2" points="848.4,489.9 968.1,420.9 968.1,503.4 848.4,572.5 		"/>
		<polygon class="st1" points="848.4,489.9 968.1,420.9 968.1,409 848.4,478.1 		"/>
		<path class="st3" d="M914.9,509.2l-1,1.9c-0.8,1.5-2.6,2.1-4.1,2.4c-1.4,0.2-2.9,0.2-4.3-0.2c-1.3-0.3-2.5-1.1-3.3-2.2l-1-1.9
			C905.7,510.5,910.4,510.5,914.9,509.2z"/>
		<path class="st4" d="M902.8,510.4l0.1,0.2c0.7,0.9,1.7,1.6,2.8,1.8c1.3,0.3,2.7,0.4,4,0.2c1.8-0.3,3-1,3.5-2l0.1-0.2
			C909.9,511.1,906.3,511.1,902.8,510.4L902.8,510.4z M908,514.4c-0.9,0-1.9-0.1-2.8-0.4c-1.6-0.3-3-1.3-3.8-2.6l-1-1.9
			c-0.1-0.3-0.1-0.7,0.1-0.9c0.2-0.3,0.6-0.4,0.9-0.3c4.3,1.2,8.9,1.2,13.2,0c0.3-0.1,0.7,0,0.9,0.3c0.2,0.3,0.3,0.6,0.1,0.9l-1,1.9
			c-0.8,1.5-2.4,2.4-4.7,2.8C909.3,514.4,908.6,514.4,908,514.4L908,514.4z"/>
		<path class="st3" d="M918.6,507.6c4-2.3,5.3-5.6,3.8-8.6l-2.9-5.6h-23l-2.8,5.6c-1.5,3-0.2,6.3,3.8,8.6
			C903.3,511,912.8,511,918.6,507.6z"/>
		<path class="st4" d="M918.6,507.6L918.6,507.6z M897.1,494.3l-2.7,5.1c-1.4,2.7-0.1,5.4,3.5,7.5c5.6,3.2,14.7,3.2,20.3,0
			c3.5-2,4.8-4.8,3.5-7.5l-2.6-5.1H897.1z M908.1,511c-3.8,0.1-7.6-0.8-11-2.6c-4.3-2.5-5.9-6.2-4.1-9.7l2.9-5.6
			c0.1-0.3,0.4-0.4,0.7-0.4h23c0.3,0,0.6,0.2,0.7,0.4l2.9,5.6c1.8,3.5,0.2,7.2-4.1,9.7l0,0C915.7,510.1,911.9,511,908.1,511
			L908.1,511z"/>
		<path class="st5" d="M938.6,438.5c4.2,13.4-0.4,22.5-5.2,30.6c-3,5.2-5.1,5.9-6.8,11.8c-1,3.5-0.7,6.2-3.4,9.1
			c-7.6,7.9-23.5,8.1-30.3,0c-2.6-3.1-2.4-5.6-3.4-9.1c-1.7-5.9-3.8-6.6-6.8-11.8c-4.8-8.2-9.4-17.3-5.2-30.6
			c4.3-13.7,17.4-20.6,30.5-20.6C921.1,417.9,934.2,424.8,938.6,438.5z"/>
		<path class="st4" d="M908.1,418.8c-14.2,0-25.9,7.9-29.7,20c-4,12.7,0.1,21.4,5.1,30c0.9,1.5,1.8,2.9,2.9,4.2
			c1.9,2.2,3.2,4.9,4,7.7c0.3,1,0.5,1.8,0.6,2.6c0.3,2.3,1.2,4.4,2.6,6.2c2.9,3.4,7.7,5.5,13.2,5.7c6.2,0.2,12.1-1.9,15.8-5.7
			c1.8-1.9,2.2-3.7,2.6-5.9c0.2-0.9,0.3-1.8,0.6-2.9c0.8-2.8,2.1-5.5,4-7.7c1.1-1.4,2-2.8,2.9-4.3c5-8.5,9.1-17.2,5.1-30
			C933.9,426.5,922.3,418.7,908.1,418.8L908.1,418.8z M907.6,496.8h-0.9c-6-0.2-11.3-2.5-14.4-6.3c-1.6-2-2.6-4.4-3-6.9
			c-0.2-0.8-0.4-1.6-0.6-2.6c-0.7-2.6-2-5.1-3.7-7.2c-1.1-1.4-2.1-2.9-3-4.4c-5.2-8.9-9.5-18-5.2-31.3c4.1-12.9,16.4-21.2,31.3-21.2
			s27.2,8.3,31.3,21.2l0,0c4.2,13.4-0.1,22.4-5.2,31.3c-0.9,1.5-1.9,3-3,4.4c-1.8,2.1-3,4.5-3.7,7.2c-0.3,1-0.4,1.8-0.6,2.7
			c-0.4,2.3-0.8,4.5-3,6.8C920,494.5,914,496.8,907.6,496.8z"/>
		<path class="st5" d="M916.7,502.1c4.8-2.7,4.8-7.2,0-9.9s-12.5-2.7-17.2,0s-4.8,7.2,0,9.9C904.2,504.9,911.9,504.9,916.7,502.1z"
			/>
		<path class="st4" d="M908.1,491c-2.9,0-5.7,0.6-8.2,2c-2,1.2-3.2,2.7-3.2,4.3s1.1,3.1,3.2,4.2c4.5,2.6,11.9,2.6,16.4,0
			c2-1.2,3.1-2.7,3.1-4.2c0-1.6-1.1-3.1-3.1-4.3C913.7,491.6,910.9,490.9,908.1,491z M908.1,505c-3.1,0.1-6.2-0.7-9-2.1
			c-2.6-1.5-4-3.5-4-5.7s1.4-4.2,4-5.7c5-2.9,13.1-2.9,18,0c2.6,1.5,4,3.5,4,5.7s-1.4,4.2-4,5.7C914.3,504.3,911.2,505.1,908.1,505
			L908.1,505z"/>
		<path class="st3" d="M918.6,503c4-2.3,5.3-5.6,3.8-8.6l-2.9-5.6h-23l-2.8,5.6c-1.5,2.9-0.2,6.2,3.8,8.6
			C903.3,506.4,912.8,506.4,918.6,503z"/>
		<path class="st4" d="M897.1,489.7l-2.7,5.1c-1.4,2.7-0.1,5.5,3.5,7.5c5.6,3.2,14.7,3.2,20.3,0l0,0c3.5-2,4.8-4.8,3.5-7.5l-2.6-5.1
			H897.1z M908.1,506.4c-3.8,0.1-7.6-0.8-11-2.6c-4.3-2.5-5.9-6.2-4.1-9.7l2.9-5.6c0.1-0.3,0.4-0.4,0.7-0.5h23
			c0.3,0,0.6,0.2,0.7,0.5l2.9,5.6c1.8,3.5,0.2,7.2-4.1,9.7l0,0C915.7,505.5,911.9,506.5,908.1,506.4L908.1,506.4z"/>
		<path class="st6" d="M918.8,480.8c5.9,3.4,5.9,9,0,12.4c-5.9,3.4-15.5,3.4-21.4,0c-5.9-3.4-5.9-9,0-12.4
			C903.3,477.4,912.8,477.4,918.8,480.8z"/>
		<path class="st4" d="M908.1,479c-3.6-0.1-7.1,0.8-10.3,2.5c-2.6,1.5-4,3.4-4,5.5s1.4,4,4,5.5c5.7,3.3,14.9,3.3,20.6,0
			c2.6-1.5,4-3.4,4-5.5s-1.4-4-4-5.5l0,0C915.2,479.8,911.6,478.9,908.1,479z M908.1,496.5c-3.9,0.1-7.7-0.8-11.1-2.7
			c-3.1-1.8-4.9-4.3-4.9-6.9s1.7-5.1,4.9-6.9c6.1-3.5,16.1-3.5,22.3,0c3.1,1.8,4.9,4.3,4.9,6.9s-1.7,5.1-4.9,6.9
			C915.8,495.7,911.9,496.6,908.1,496.5z"/>
		<path class="st3" d="M923.2,487.4v5.3c-0.1,1-0.5,2-1.1,2.9c-2.1,3-6.3,4.5-9.7,5.1c-5,0.9-11.2,0.2-15.6-2.5
			c-1.9-1.1-3.3-2.9-3.8-5l-0.1-0.4v-5.3c0.1,0.6,0.2,1.1,0.4,1.7c1.3,3.2,5.2,5,8.3,5.9c5.5,1.5,12.8,1,17.6-2.1
			c1.9-1.1,3.3-2.9,3.8-5L923.2,487.4z"/>
		<path class="st4" d="M893.7,491.3v1.7c0.4,2.1,2.3,3.7,3.5,4.4c3.7,2.4,9.6,3.3,15,2.4c1.6-0.3,6.8-1.4,9.2-4.8
			c0.5-0.7,0.9-1.6,1-2.4v-1.3c-0.7,0.9-1.6,1.6-2.6,2.3c-5.4,3.5-13.1,3.6-18.3,2.2C899.7,495.2,896,493.9,893.7,491.3L893.7,491.3
			z M908,501.8c-4.1,0.1-8.1-0.9-11.7-3c-2.1-1.2-3.7-3.2-4.2-5.6l-0.1-0.4v-5.4c0-0.5,0.4-0.8,0.9-0.8c0.4,0,0.7,0.3,0.8,0.7
			c0,0.5,0.2,1,0.4,1.4c1.5,3.4,6.3,5,7.8,5.4c5.8,1.6,12.7,0.7,17-2c1.1-0.7,3.1-2.3,3.5-4.4v-0.4c0-0.4,0.4-0.8,0.9-0.7
			c0,0,0,0,0,0c0.4,0,0.8,0.4,0.8,0.8v5.3c-0.1,1.2-0.5,2.4-1.2,3.4c-2.7,3.8-8.1,5.1-10.3,5.4C911,501.7,909.5,501.8,908,501.8
			L908,501.8z"/>
		<polygon class="st3" points="913.4,480.9 913.4,485.5 913.4,485.5 913.4,485.6 913.4,485.6 913.4,485.6 913.3,485.7 913.3,485.7 
			913.3,485.7 913.2,485.8 905.5,490.2 905.5,490.2 905.4,490.3 905.4,490.3 905.3,490.3 905.2,490.3 905.2,490.3 905.1,490.3 
			905.1,490.3 905,490.3 904.9,490.3 904.9,490.3 904.8,490.3 904.8,490.3 904.7,490.3 904.7,490.2 904.6,490.2 904.6,490.2 
			904,489.9 902.6,489 902.6,489 902.5,489 902.5,488.9 902.5,488.9 902.4,488.9 902.4,488.9 902.4,488.8 902.4,484.2 902.4,484.2 
			902.4,484.3 902.4,484.3 902.5,484.3 902.5,484.4 902.5,484.4 902.6,484.4 902.6,484.4 904,485.3 904.6,485.6 904.6,485.6 
			904.7,485.6 904.7,485.7 904.8,485.7 904.8,485.7 904.9,485.7 904.9,485.7 905,485.7 905.1,485.7 905.1,485.7 905.2,485.7 
			905.2,485.7 905.3,485.7 905.4,485.7 905.4,485.7 905.5,485.7 905.5,485.6 913.2,481.2 913.3,481.1 913.3,481.1 913.3,481.1 
			913.4,481.1 913.4,481 913.4,481 913.4,480.9 		"/>
		<path class="st4" d="M903.2,488.4l1.8,1l7.6-4.3v-2.6l-6.7,3.8l-0.2,0.1l-0.2,0.1h-0.2h-0.5c-0.1,0-0.2-0.1-0.3-0.1
			c-0.1,0-0.1-0.1-0.2-0.1l-1.1-0.6L903.2,488.4L903.2,488.4z M905,491.1h-0.3h-0.2l-0.2-0.1l-0.2-0.1l-2-1.1l-0.3-0.2
			c-0.1-0.1-0.1-0.1-0.2-0.2c0-0.1-0.1-0.1-0.1-0.2c0-0.1-0.1-0.2-0.1-0.3v-4.7c0-0.5,0.3-0.8,0.8-0.8c0.4,0,0.7,0.2,0.8,0.5l1.8,1
			l7.7-4.3c0.1-0.4,0.5-0.6,0.8-0.5c0.4,0.1,0.8,0.5,0.8,0.9v4.6c0,0.1,0,0.2,0,0.2c0,0.1,0,0.1-0.1,0.2c0,0.1-0.1,0.1-0.1,0.2
			l-0.2,0.2c-0.1,0-0.1,0.1-0.2,0.1l-7.7,4.5l-0.2,0.1l-0.3,0.1h-0.2L905,491.1z"/>
		<path class="st6" d="M911.2,479.5l2,1.2c0.1,0,0.2,0.2,0.2,0.3c0,0.1-0.1,0.1-0.2,0.2l-7.7,4.5c-0.3,0.1-0.6,0.1-0.9,0h0l-0.6-0.3
			l-1.4-0.8c-0.2-0.1-0.2-0.4,0-0.5l7.7-4.5C910.6,479.4,910.9,479.4,911.2,479.5z"/>
		<path class="st4" d="M912.8,481.4L912.8,481.4z M903.8,484.2l1.2,0.7l7-4l-1.2-0.7L903.8,484.2L903.8,484.2z M905.1,486.6
			c-0.3,0-0.6-0.1-0.8-0.2l-2-1.2c-0.5-0.3-0.7-0.9-0.5-1.5c0.1-0.2,0.3-0.4,0.5-0.5l7.7-4.5c0.5-0.3,1.2-0.3,1.7,0l2,1.2
			c0.5,0.3,0.7,0.9,0.5,1.5c-0.1,0.2-0.3,0.4-0.5,0.5l-7.7,4.5C905.7,486.5,905.4,486.6,905.1,486.6z"/>
		<path class="st3" d="M910.6,481.5L910.6,481.5c-0.5,0-0.8-0.4-0.8-0.8l0,0c0-11,4-26.4,5.3-30.9c0.1-0.4,0.6-0.7,1-0.6
			c0.4,0.1,0.7,0.6,0.6,1c-2.5,9.1-5.2,21.8-5.2,30.4C911.4,481.1,911.1,481.5,910.6,481.5L910.6,481.5L910.6,481.5z M905.4,484.5
			c-0.5,0-0.8-0.4-0.8-0.8l0,0c-0.1-8.6-1.7-17-4.9-25c-0.2-0.4,0-0.9,0.4-1.1c0,0,0,0,0,0c0.4-0.2,0.9,0,1.1,0.5
			c3.2,8.2,4.9,16.9,5,25.6C906.2,484.1,905.9,484.5,905.4,484.5C905.4,484.5,905.4,484.5,905.4,484.5L905.4,484.5z"/>
		<path class="st3" d="M903.1,453.4c-0.7,0.7-1.2,1.6-1.4,2.5l-0.5,2.8c-0.1,0.2-0.1,0.4,0,0.6c0.7-0.7,1.3-1.6,1.5-2.5l0,0l0.5-2.8
			C903.2,453.8,903.2,453.6,903.1,453.4L903.1,453.4z M901.1,460.9c-0.3,0-0.6-0.1-0.9-0.3c-0.6-0.5-0.9-1.4-0.6-2.2l0.5-2.8
			c0.2-1.5,1.1-2.8,2.3-3.6c0.5-0.3,1.2-0.3,1.8,0c0.6,0.5,0.9,1.4,0.6,2.2l-0.5,2.8c-0.2,1.5-1.1,2.8-2.3,3.6
			C901.8,460.8,901.4,460.9,901.1,460.9L901.1,460.9z"/>
		<path class="st3" d="M906.4,450.6c-0.7,0.7-1.2,1.5-1.5,2.5l-0.7,4.5c-0.1,0.2-0.1,0.4,0,0.6c0.8-0.7,1.3-1.6,1.5-2.5l0.8,0.1
			l-0.8-0.1l0.7-4.5C906.5,451,906.5,450.8,906.4,450.6L906.4,450.6z M904.1,459.8c-0.3,0-0.6-0.1-0.8-0.3c-0.6-0.5-0.9-1.4-0.7-2.2
			l0.7-4.5c0.2-1.5,1.1-2.8,2.4-3.6c0.5-0.3,1.2-0.3,1.8,0c0.6,0.5,0.9,1.4,0.6,2.2l-0.7,4.5c-0.2,1.5-1.1,2.8-2.3,3.6
			C904.7,459.7,904.4,459.8,904.1,459.8z"/>
		<path class="st3" d="M909.5,454.8L909.5,454.8z M909.7,447.8c-0.7,0.7-1.2,1.6-1.5,2.5l-1,6.2c-0.1,0.2-0.1,0.4,0,0.6
			c0.7-0.7,1.2-1.5,1.5-2.5l1-6.2C909.8,448.3,909.8,448.1,909.7,447.8L909.7,447.8z M907.1,458.8c-0.3,0-0.6-0.1-0.8-0.3
			c-0.6-0.5-0.9-1.4-0.6-2.2l1-6.2c0.2-1.5,1.1-2.8,2.3-3.6c0.5-0.3,1.2-0.3,1.8,0c0.6,0.5,0.9,1.4,0.6,2.2l-1,6.2l0,0
			c-0.2,1.5-1.1,2.8-2.3,3.6C907.7,458.7,907.4,458.8,907.1,458.8z"/>
		<path class="st3" d="M912.7,446.7c-0.7,0.7-1.2,1.6-1.5,2.5l-0.7,4.5c-0.1,0.2-0.1,0.4,0,0.6c0.7-0.7,1.2-1.6,1.5-2.5l0,0l0.7-4.5
			C912.8,447.1,912.8,446.9,912.7,446.7L912.7,446.7z M910.4,455.9c-0.3,0-0.6-0.1-0.8-0.3c-0.6-0.5-0.9-1.4-0.6-2.2l0.7-4.5
			c0.2-1.5,1.1-2.8,2.3-3.6c0.5-0.3,1.2-0.3,1.8,0c0.6,0.5,0.9,1.4,0.6,2.2l-0.7,4.5c-0.2,1.5-1.1,2.8-2.3,3.6
			C911,455.8,910.7,455.9,910.4,455.9L910.4,455.9z"/>
		<path class="st3" d="M915.7,445.9c-0.7,0.7-1.2,1.6-1.4,2.5l-0.5,2.8c-0.1,0.2-0.1,0.4,0,0.6c0.7-0.7,1.2-1.5,1.4-2.5l0,0l0.5-2.8
			C915.8,446.3,915.8,446.1,915.7,445.9z M913.7,453.4c-0.3,0-0.6-0.1-0.8-0.3c-0.6-0.5-0.9-1.4-0.6-2.2l0.5-2.8
			c0.2-1.5,1.1-2.8,2.3-3.6c0.5-0.3,1.2-0.3,1.8,0c0.6,0.5,0.9,1.4,0.6,2.2l-0.5,2.8c-0.2,1.5-1.1,2.8-2.3,3.6
			C914.3,453.3,914,453.4,913.7,453.4L913.7,453.4z"/>
		<path class="st3" d="M908.3,412.8c-0.6,0-1.2-0.5-1.2-1.2v-20c0.1-0.6,0.6-1.1,1.3-1.1c0.6,0.1,1,0.5,1.1,1.1v20
			C909.4,412.3,908.9,412.8,908.3,412.8L908.3,412.8z"/>
		<path class="st3" d="M878.4,422.8c-0.3,0-0.6-0.1-0.8-0.3l-14-14c-0.5-0.4-0.5-1.2,0-1.6c0,0,0,0,0,0c0.5-0.5,1.2-0.5,1.6,0l14,14
			c0.5,0.4,0.5,1.2,0,1.6c0,0,0,0,0,0C879,422.7,878.7,422.8,878.4,422.8z"/>
		<path class="st3" d="M867.6,452.5h-19.6c-0.6,0-1.2-0.5-1.2-1.2c0-0.6,0.5-1.2,1.2-1.2h19.6c0.6,0,1.2,0.5,1.2,1.2
			C868.8,452,868.2,452.5,867.6,452.5z"/>
		<path class="st3" d="M938.2,422.8c-0.3,0-0.6-0.1-0.8-0.3c-0.5-0.4-0.5-1.2,0-1.6c0,0,0,0,0,0l14-14c0.5-0.5,1.2-0.5,1.6,0
			c0.5,0.4,0.5,1.2,0,1.6c0,0,0,0,0,0l-14,14C938.8,422.7,938.5,422.8,938.2,422.8z"/>
		<path class="st3" d="M968.6,452.5H949c-0.6,0-1.2-0.5-1.2-1.2c0-0.6,0.5-1.2,1.2-1.2c0,0,0,0,0,0h19.7c0.6,0,1.2,0.5,1.2,1.2
			C969.8,452,969.3,452.5,968.6,452.5z"/>
	</g>
</g>
</svg>
